<svg width="120" height="120" viewBox="0 0 120 120" fill="none" xmlns="http://www.w3.org/2000/svg">
<path d="M2.66064 5.74317C34.1321 37.1719 65.4363 68.4336 96.8698 99.8244C88.3193 108.322 77.9899 113.661 65.9686 115.183C37.6114 118.772 13.5809 103.551 4.79881 76.3528C3.23328 71.5046 2.66737 66.1617 2.59609 61.0339C2.34577 43.0272 2.51184 25.0147 2.52672 7.0046C2.52696 6.61244 2.60784 6.22029 2.66064 5.74317ZM118.109 113.173C118.112 95.1635 118.179 77.1535 118.079 59.1446C117.996 44.2226 112.532 31.3305 101.857 21.0628C84.5367 4.4018 64.1813 0.918202 41.8022 8.94908C34.8386 11.4482 28.7726 15.6252 23.6611 21.0062C55.105 52.4371 86.3453 83.6647 117.923 115.23C118.009 114.318 118.109 113.746 118.109 113.173Z" fill="#48A3FF"/>
</svg>
