<svg width="400" height="400" viewBox="0 0 400 400" fill="none" xmlns="http://www.w3.org/2000/svg">
<path d="M8.86945 19.1435C113.774 123.906 218.122 228.111 322.9 332.747C294.398 361.071 259.967 378.871 219.896 383.943C125.372 395.907 45.2703 345.17 15.9967 254.509C10.7783 238.348 8.89188 220.539 8.65428 203.446C7.81987 143.423 8.37347 83.3819 8.42306 23.3483C8.42386 22.0411 8.69345 20.7339 8.86945 19.1435ZM393.696 377.243C393.708 317.211 393.93 257.178 393.597 197.148C393.321 147.408 375.106 104.435 339.526 70.2091C281.79 14.6723 213.938 3.06026 139.341 29.8299C116.129 38.1603 95.9095 52.0835 78.8711 70.0203C183.684 174.79 287.818 278.882 393.078 384.099C393.362 381.06 393.696 379.151 393.696 377.243Z" fill="#48A3FF"/>
</svg>
