<svg width="400" height="400" viewBox="0 0 400 400" fill="none" xmlns="http://www.w3.org/2000/svg">
    <g clip-path="url(#clip0)">
        <path d="M200 400C310.457 400 400 310.457 400 200C400 89.5431 310.457 0 200 0C89.5431 0 9.37509e-06 89.5431 2.09398e-05 200C3.25046e-05 310.457 89.5431 400 200 400Z" fill="#988430"/>
        <path d="M200 393.593C306.919 393.593 393.594 306.919 393.594 200C393.594 93.081 306.919 6.40625 200 6.40625C93.0813 6.40625 6.4065 93.081 6.40651 200C6.40653 306.919 93.0813 393.593 200 393.593Z" fill="#7A6A2A"/>
        <path d="M200 389.514C304.666 389.514 389.515 304.665 389.514 199.999C389.514 95.333 304.666 10.4844 200 10.4844C95.3337 10.4844 10.4851 95.333 10.4851 199.999C10.4851 304.665 95.3338 389.514 200 389.514Z" fill="#BA9F33"/>
        <path fill-rule="evenodd" clip-rule="evenodd" d="M87.4437 178.642C86.3109 177.607 85.1141 176.57 84.0133 175.536C82.9125 174.501 81.7818 173.464 80.649 172.429L77.2826 169.229C76.7322 168.679 76.1498 168.195 75.5994 167.642C75.049 167.158 74.4026 166.608 73.8522 166.121C69.385 161.882 64.8922 157.643 60.4869 153.402C65.0501 157.577 69.5173 161.722 74.0805 165.959L75.6655 167.546C76.2159 168.094 76.7983 168.581 77.3487 169.131L80.713 172.237C81.8458 173.272 82.9466 174.309 84.0794 175.437C85.2122 176.566 86.313 177.605 87.4458 178.637L87.4437 178.642ZM28.1562 178.002C28.1562 178.002 44.4015 179.683 52.3311 180.815C59.6762 181.852 82.6543 185.379 82.6543 185.379L28.1562 178.002ZM28.1562 178.002C32.7194 178.39 37.2826 178.874 41.8458 179.361C44.1754 179.587 46.409 179.845 48.6426 180.071L52.0709 180.461C53.2037 180.621 54.3045 180.783 55.4373 180.946L69.0309 183.113L75.8255 184.246C78.0591 184.634 80.2927 185.057 82.6223 185.445C80.3887 185.219 78.0591 184.894 75.8255 184.57L69.0309 183.599L55.4373 181.594C54.3045 181.432 53.2037 181.204 52.0709 181.044L48.6405 180.649C46.4069 180.423 44.0773 180.099 41.8437 179.838C37.2805 179.29 32.7173 178.706 28.1541 177.995L28.1562 178.002ZM81.0373 189.611C81.0373 189.611 63.6911 194.014 57.833 195.697C52.073 197.283 34.6287 202.59 34.6287 202.59L81.0351 189.613L81.0373 189.611Z" fill="#CFB66C"/>
        <path fill-rule="evenodd" clip-rule="evenodd" d="M81.0351 189.609C77.1844 190.742 73.3551 191.843 69.4489 192.88L57.8628 195.986C54.0121 197.119 50.1828 198.22 46.3428 199.352L40.5828 200.937C38.6735 201.488 36.7321 201.972 34.7588 202.525C36.666 201.885 38.6095 201.23 40.5188 200.679L46.2788 198.836C50.1295 197.637 53.9588 196.504 57.7988 195.308C61.7135 194.337 65.5663 193.3 69.4809 192.361C73.2015 191.423 77.1183 190.486 81.0351 189.612L81.0351 189.609ZM37.0564 213.268C38.9636 212.556 60.9711 202.298 66.0847 199.903C68.6447 198.704 76.0857 196.063 76.0857 196.063L37.0564 213.268Z" fill="#CFB66C"/>
        <path fill-rule="evenodd" clip-rule="evenodd" d="M37.0566 213.268C38.7376 212.628 40.3248 211.845 41.9419 211.1L46.7312 208.867L56.344 204.24C59.544 202.719 62.6545 201.04 65.9547 199.61C67.6379 198.9 69.3211 198.318 71.0022 197.767L73.5622 196.959C74.4347 196.732 75.2454 196.472 76.1222 196.246C72.9222 197.767 69.5537 199.062 66.3494 200.549C63.1494 202.136 59.8769 203.431 56.5745 204.854L46.8016 209.157C43.5206 210.486 40.3206 211.909 37.0544 213.268H37.0566ZM39.1899 222.228C39.1899 222.228 59.1238 210.546 65.9846 206.791C69.5771 204.786 81.1953 199.024 81.1953 199.024L39.1899 222.228Z" fill="#CFB66C"/>
        <path fill-rule="evenodd" clip-rule="evenodd" d="M39.1914 222.233C42.5557 220.162 45.9861 218.058 49.4165 215.923L54.5364 212.814C56.2836 211.78 57.9668 210.809 59.7482 209.774C61.4954 208.738 63.1786 207.703 64.9577 206.732C65.8047 206.209 66.6922 205.755 67.6116 205.373L70.3295 204.014C73.922 202.267 77.5145 200.486 81.3012 198.965C77.8708 201.134 74.3423 202.98 70.8159 204.887C69.0687 205.858 67.2873 206.732 65.5401 207.703C63.793 208.674 62.1098 209.71 60.3284 210.649C58.5812 211.684 56.898 212.654 55.1188 213.593L49.8431 216.473L39.1957 222.233H39.1914ZM81.0345 201.585C81.0345 201.585 68.6399 211.099 64.6271 214.141C60.6143 217.183 48.8021 225.727 48.8021 225.727L81.0345 201.585Z" fill="#CFB66C"/>
        <path fill-rule="evenodd" clip-rule="evenodd" d="M152.168 278.315L145.825 266.309L149.514 251.292L175.824 241.131L164.626 218.155L170.16 194.951L180.55 174.172L212.654 169.125L236.245 146.633L287.185 150.483L297.183 204.95L277.928 273.526L266.958 309.029L222.491 310.712L201.845 296.408L177.67 286.309L152.168 278.315Z" fill="#E2CC85"/>
        <path fill-rule="evenodd" clip-rule="evenodd" d="M230.162 277.927C230.162 277.927 224.012 280.743 213.522 280.095C210.487 276.018 189.226 274.108 189.226 274.108C189.226 274.108 186.572 273.3 181.879 275.241C177.155 277.161 172.688 276.924 168.513 277.959C164.338 278.994 160.193 273.558 156.993 272.425C153.793 271.228 149.55 268.348 149.55 268.348L140.59 267.474L122.598 259.868L94.0133 231.391L86.2458 243.551L83.8501 258.599L92.4922 276.432L115.76 297.628L161.132 309.148L188.025 301.225L221.714 286.985L230.162 277.925L230.162 277.927Z" fill="#F1D789"/>
        <path fill-rule="evenodd" clip-rule="evenodd" d="M68.964 177.282L74.7241 159.84L81.587 148.576L103.688 146.73L97.0538 166.084L78.5769 198.965L86.2463 228.317L72.6547 235.112L68.4776 228.706L65.1133 214.013L64.8872 197.508L68.964 177.282Z" fill="#F4ECB4"/>
        <path fill-rule="evenodd" clip-rule="evenodd" d="M93.7533 276.733L89.5143 270.81C89.5143 270.81 88.3815 267.994 89.0301 265.535C89.6701 263.043 89.5783 262.881 89.2562 261.942C88.9341 261.003 86.2141 257.767 86.3762 254.983C86.5362 252.167 86.1501 251.229 88.2194 248.997C90.3869 246.83 89.7405 243.075 89.7405 243.075L92.5565 244.822L93.1965 243.851C93.1965 243.851 94.2311 244.66 94.2311 245.923C94.4573 244.176 93.5186 236.084 95.6541 234.241C97.7895 232.398 101.576 242.881 101.576 242.881L99.2466 227.67L93.2583 212.073L82.6109 197.833L81.9709 182.136L81.9709 180.777C81.9709 180.777 77.0834 188.287 75.7245 194.217C74.7538 198.294 77.0834 203.246 76.5991 209.104C76.2087 214.93 75.7245 214.475 77.1474 216.784C78.5703 219.092 82.0349 223.839 80.6759 227.269C79.4791 230.215 75.4002 228.144 75.4002 228.144C75.4002 228.144 74.5917 230.537 73.4909 231.412C73.1026 229.989 72.6823 229.082 71.9058 228.212C71.8397 228.762 71.6797 229.507 71.6797 229.507C71.6797 229.507 70.9671 227.273 70.2546 224.457C69.2861 220.705 68.2493 215.753 67.3106 213.099C66.9223 214.621 65.9517 219.248 65.9517 219.248L66.5021 226.369L69.1559 236.142L71.7159 242.542L74.2077 250.373L76.373 255.634L78.1202 259.647L79.6413 268.677L86.9863 276.442L90.9031 278.192L93.749 276.735L93.7533 276.733Z" fill="#F3E19D"/>
        <path fill-rule="evenodd" clip-rule="evenodd" d="M72.8146 163.04C72.8146 163.04 67.5389 172 66.0199 181.032C64.501 190.065 63.1399 199.609 64.0999 211.906C65.0706 224.302 66.9159 231.906 68.405 237.344C70.965 246.374 77.5954 258.931 77.5954 258.931L77.8216 258.444C76.7071 256.332 75.8176 254.108 75.1677 251.81C74.293 248.379 73.9688 244.302 73.1602 242.457C72.4477 240.614 71.2509 239.027 70.6685 236.761C70.1181 234.594 70.0285 231.163 68.3389 228.608C67.6263 227.571 66.7517 224.853 66.4935 222.135C66.1693 218.056 66.6557 213.493 66.2674 209.74C65.5549 203.494 65.0706 199.255 65.717 195.985C66.3634 192.714 69.7319 183.43 71.8034 176.051C73.1623 171.326 72.3517 167.345 74.8434 163.234C77.3352 159.157 78.8584 155.565 79.4066 153.073C80.0466 150.807 72.8061 163.04 72.8061 163.04H72.8146Z" fill="#F2E8B0"/>
        <path fill-rule="evenodd" clip-rule="evenodd" d="M97.8327 159.449C97.8327 159.449 95.1148 160.26 93.8198 161.683C92.5249 163.042 91.9745 164.175 90.2273 166.472C88.4801 168.77 88.3819 170.647 86.9569 173.527C85.5339 176.343 82.3936 180.582 82.0054 182.103C81.6171 183.624 80.9707 190.743 80.1622 194.11C79.4496 197.476 80.9707 201.619 80.9707 201.619L82.8139 201.229C82.8139 201.229 82.8139 203.624 84.6593 205.243C86.5025 206.829 86.8267 199.87 86.8267 199.87L93.7196 176.601L104.107 169.546L105.24 163.85L97.8284 159.449H97.8327Z" fill="#F5EEC0"/>
        <path fill-rule="evenodd" clip-rule="evenodd" d="M102.88 169.999C102.88 169.999 97.9928 170.321 95.5992 172.071C94.6285 172.781 94.2403 173.364 93.2056 174.238C91.2963 175.823 89.3528 177.28 88.4163 179.358C87.3795 181.428 86.2467 184.568 85.4702 190.49C85.1459 192.982 85.1459 195.279 84.9198 197.287C84.5955 200.005 84.1113 202.172 84.3694 203.687C84.6937 206.793 87.8979 208.412 88.2094 211.939L94.844 208.574L101.09 183.945L114.36 175.625L106.85 167.211L102.872 169.984L102.88 169.999Z" fill="#E6DB9D"/>
        <path fill-rule="evenodd" clip-rule="evenodd" d="M67.8786 335.847C67.9063 335.604 67.9341 335.361 67.9618 335.111C68.9303 326.791 69.0946 320.485 69.805 316.536C70.8397 310.939 71.5522 308.856 71.3901 306.761C71.1639 303.397 70.9058 300.937 71.2301 298.348C71.7143 294.917 75.0808 290.84 74.9848 288.024C74.9186 285.791 73.7858 284.336 72.8151 282.977C71.8445 281.618 71.0679 280.485 71.0679 280.485C71.0679 280.485 77.7026 275.922 77.6386 257.539C77.7741 257.577 77.9045 257.632 78.0269 257.701L81.2952 266.988L83.5288 269.705L92.1048 285.693L103.141 296.406L119.45 307.376L129.677 318.505L130.712 348.182L117.346 365.528L115.158 369.492C97.7682 360.762 81.8221 349.414 67.8765 335.845L67.8786 335.847Z" fill="#E5CB7A"/>
        <path fill-rule="evenodd" clip-rule="evenodd" d="M108.706 364.237C108.706 364.237 108.932 360.549 111.974 358.153C112.461 358.961 112.783 359.74 112.687 360.32C113.237 359.352 117.088 353.137 125.794 351.518C134.5 349.933 136.604 343.591 136.604 343.591L155.08 326.795L176.213 307.345L201.909 298.315L213.918 295.369C213.918 295.369 214.144 296.243 213.692 298.185C215.923 298.025 220.874 296.892 226.02 295.079C228.092 294.27 230.035 293.946 231.07 295.015C232.591 296.438 232.817 299.804 232.913 301.809C235.405 301.259 238.285 298.865 240.593 299.091C244.284 299.48 247.552 303.817 251.306 303.817C256.258 303.817 258.489 300.775 261.954 298.379C264.025 296.956 267.001 295.179 268.685 293.978C272.697 291.032 315.157 278.055 315.157 278.055L330.043 279.025L332.439 295.013L331.159 336.805C331.001 336.956 330.843 337.114 330.683 337.265L262.997 372.617L169.173 387C148.156 383.566 127.875 376.59 109.192 366.368L108.712 364.235L108.706 364.237Z" fill="#D8C173"/>
        <path fill-rule="evenodd" clip-rule="evenodd" d="M73.5681 341.165C74.9015 338.377 76.1004 336.045 76.3116 335.211C76.478 336.892 76.7831 340.581 77.3975 344.502C76.1075 343.405 74.8311 342.292 73.5681 341.163L73.5681 341.165Z" fill="#F1D789"/>
        <path fill-rule="evenodd" clip-rule="evenodd" d="M142.106 380.496L154.24 377.121L155.275 377.445C155.275 377.445 155.825 377.769 155.825 378.868C157.346 377.995 158.641 378.155 159.58 377.575C160.064 378.61 160.548 382.04 162.686 382.461C164.917 382.947 167.313 381.49 169.741 379.647C172.134 377.737 174.861 375.342 176.924 374.371C177.681 375.763 178.351 377.2 178.931 378.674C181.649 376.506 186.374 367.704 193.105 367.864C195.051 363.267 198.301 359.34 202.453 356.57C208.7 352.331 212.614 352.007 217.502 352.395C219.443 349.874 221.835 347.734 224.557 346.085C225.365 346.409 227.599 347.768 230.383 346.473C233.199 345.18 236.369 340.163 240.544 339.516C242.794 339.207 245.081 339.687 247.017 340.875C247.017 340.875 259.177 328.803 267.567 324.79C267.243 323.819 266.596 320.163 276.433 312.071C276.984 312.557 276.595 313.916 276.984 313.991C277.144 313.991 279.544 312.956 282.582 310.625C286.336 307.811 290.833 304.865 293.551 304.056C298.671 302.535 304.103 305.641 304.103 305.641C304.565 305.317 305.079 305.076 305.624 304.929C306.917 304.702 307.855 304.54 308.568 304.289C308.504 305.972 309.442 308.852 308.568 311.344C309.581 311.913 310.654 312.369 311.768 312.702C311.22 313.899 310.021 316.941 308.015 318.398C309.696 319.207 309.922 320.146 312.318 320.958C311.347 322.317 309.758 324.649 309.05 326.079C308.337 327.6 305.779 333.91 304.647 336.304C303.45 338.699 301.833 343.1 301.054 343.984C300.275 344.867 297.462 348.611 295.294 350.454C297.214 349.742 305.069 347.348 308.401 346.441C307.409 347.896 302.381 355.356 297.547 362.531C274.401 376.404 248.565 385.184 221.759 388.288C194.953 391.391 167.794 388.746 142.091 380.528L142.106 380.496Z" fill="#E0CD81"/>
        <path fill-rule="evenodd" clip-rule="evenodd" d="M103.68 169.125C103.68 169.125 100.866 169.125 100.315 169.513C99.7649 169.901 103.131 170.712 104.166 171.1C105.201 171.488 107.434 173.267 108.017 174.693C108.567 176.051 128.243 183.979 128.243 183.979L142.159 183.266L146.957 176.638L137.83 168.645L144.23 149.777L135.752 151.136L115.364 163.296L105.137 167.213L103.68 169.125Z" fill="#DFC57C"/>
        <path fill-rule="evenodd" clip-rule="evenodd" d="M134.24 175.371C134.441 175.697 134.724 175.964 135.061 176.146C135.398 176.327 135.777 176.417 136.16 176.406C139.04 176.406 141.692 177.118 142.792 178.573C144.638 180.905 149.751 188.348 149.751 188.348L161.984 192.749L162.773 178.345L149.408 169.059L134.197 174.656L134.197 175.369H134.231L134.24 175.371Z" fill="#E5CC7C"/>
        <path fill-rule="evenodd" clip-rule="evenodd" d="M131.84 180.713C131.84 180.713 134.072 180.875 136.888 179.839C139.704 178.802 144.331 176.57 146.338 177.445C149.152 178.642 148.57 182.396 151.614 185.765C153.457 187.836 156.824 187.772 158.733 190.006C160.642 192.24 167.211 191.203 167.211 191.203L169.703 204.643L159.704 217.46L156.433 233.381H142.912L130.56 228.481L124.476 213.761L127.518 198.874L131.84 180.713Z" fill="#D2C281"/>
        <path fill-rule="evenodd" clip-rule="evenodd" d="M157.996 181.361C158.331 181.464 158.68 181.519 159.03 181.523C158.642 181.847 157.831 182.557 158.156 184.403C158.48 186.248 159.515 188.578 158.642 190.001C159.339 190.762 159.858 191.668 160.163 192.654C160.714 194.242 160.876 195.696 164.466 195.925C163.948 196.244 163.47 196.624 163.043 197.058C163.043 197.058 165.535 199.225 166.798 201.23C168.091 201.175 171.521 200.108 171.521 200.108L172.234 200.595L173.755 199.955C173.755 199.955 172.332 199.404 173.366 195.942C174.337 192.9 175.212 193.062 175.286 192.836C175.361 192.61 175.999 189.405 175.999 188.11C176.483 186.429 176.871 181.316 176.871 181.316L175.837 170.022L170.013 166.494L165.277 161.922L160.81 170.336L157.868 173.269L157.642 180.55L157.996 181.361Z" fill="#E2C270"/>
        <path fill-rule="evenodd" clip-rule="evenodd" d="M172.006 171.909C172.006 171.909 173.041 174.853 173.431 177.119C173.569 176.678 173.645 176.221 173.658 175.76C173.658 175.76 174.466 180.227 174.626 182.072C174.95 182.006 175.266 181.91 175.339 182.232C175.411 182.555 176.149 186.149 175.979 188.155C177.326 185.931 179.191 184.066 181.414 182.719C182.709 181.908 184.23 181.036 185.818 180.969C188.309 180.905 190.12 182.557 193.099 182.557C200.282 182.557 206.788 177.281 211.578 175.664C215.104 174.465 218.146 173.592 220.282 171.649C221.318 170.776 223.164 168.835 224.845 165.953C227.078 162.113 229.408 158.77 231.74 158.35C230.685 158.544 229.611 158.619 228.54 158.576C228.54 158.576 229.252 157.863 230.46 156.893C231.667 155.922 233.114 154.725 235.183 154.725C238.874 154.725 240.717 155.273 242.788 155.273C244.86 155.209 246.057 154.725 246.057 154.725C246.057 154.725 248.226 156.246 253.111 156.246C257.999 156.31 261.267 156.731 263.825 156.959C266.383 157.187 274.957 156.246 277.417 156.319C279.02 156.381 280.595 156.766 282.046 157.452L274.116 134.412L245.632 109.516L228.674 121.522L202.588 147.606L177.346 156.959L172.07 162.881L172.07 171.909H172.006Z" fill="#CCB360"/>
        <path fill-rule="evenodd" clip-rule="evenodd" d="M228.642 158.704C228.642 158.704 229.354 157.994 230.549 157.023C231.744 156.052 233.205 154.854 235.274 154.854C238.963 154.854 240.808 155.404 242.88 155.404C244.951 155.34 246.148 154.854 246.148 154.854C246.148 154.854 248.32 156.373 253.203 156.373C258.091 156.437 261.359 156.857 263.917 157.083C266.475 157.309 275.049 156.373 277.508 156.443C279.111 156.503 280.686 156.889 282.136 157.576L278.543 147.186L274.37 139.259L262.46 126.216C262.46 126.216 248.166 117.802 248.057 117.738C247.993 117.674 243.106 116.379 243.106 116.379L230.161 124.21L218.415 154.6L218.188 161L225.792 164.592C227.701 161.392 229.807 158.832 231.78 158.508C229.999 158.702 228.64 158.702 228.64 158.702L228.642 158.704Z" fill="#D5B457"/>
        <path fill-rule="evenodd" clip-rule="evenodd" d="M228.479 160.874C227.346 160.938 226.41 160.712 226.15 159.904C225.179 157.186 224.403 156.797 223.59 156.797C222.777 156.797 221.68 158.545 221.03 158.705C220.379 158.865 219.607 156.699 219.607 156.699L218.894 156.375C218.894 156.375 214.719 159.093 211.775 162.297C208.831 165.501 204.008 170.939 201.841 171.908C199.673 172.876 192.228 173.203 189.681 173.753C187.134 174.304 184.309 176.149 183.921 176.569C183.533 176.989 185.056 177.442 185.282 177.862C185.508 178.25 182.788 178.088 182.562 178.502C182.402 178.826 183.202 180.669 183.599 181.608C184.293 181.263 185.055 181.075 185.83 181.058C188.322 180.994 190.135 182.645 193.111 182.645C200.296 182.645 206.801 177.369 211.59 175.75C215.118 174.553 218.16 173.678 220.296 171.737C221.331 170.865 223.176 168.921 224.859 166.041C226.088 164.068 227.287 162.222 228.486 160.864L228.479 160.874Z" fill="#D2B257"/>
        <path fill-rule="evenodd" clip-rule="evenodd" d="M125.44 321.038C125.44 321.038 124.8 318.642 118.869 312.462C117.186 310.715 116.152 309.262 115.019 308.223C112.203 305.567 110.552 304.857 108.546 303.336C104.145 300.067 99.3558 300.067 95.6673 296.054C91.9788 292.042 87.6801 284.374 84.6934 276.539C81.7494 268.707 80.9387 266.215 80.9387 265.989C80.9387 265.763 81.7494 264.242 82.7841 264.468C83.8187 264.694 83.8187 266.7 84.079 267.186C84.5945 267.98 85.1792 268.727 85.8262 269.418C87.3473 271.167 89.5147 273.258 90.6156 276.377C90.3894 273.723 89.4827 270.779 89.4827 270.779C89.4827 270.779 95.1788 274.371 100.032 278.124C104.92 281.878 106.925 283.173 108.352 285.567C109.779 287.961 113.141 294.273 114.752 296.119C116.363 297.964 138.432 304.921 138.432 304.921L148.93 312.748L154.142 324.172L150.063 330.572L142.232 332.255L129.513 326.559L125.44 321.036L125.44 321.038Z" fill="#D2B159"/>
        <path fill-rule="evenodd" clip-rule="evenodd" d="M97.1841 281.684C97.1841 281.684 99.8379 285.922 106.31 289.935C112.137 293.464 121.359 296.668 129.581 298.577C134.304 299.71 139.029 300.583 143.268 300.649C154.692 300.809 162.556 297.543 172.299 296.474C177.574 295.924 184.047 295.503 190.777 293.914C199.417 291.842 204.531 289.511 211.49 286.234C216.537 283.904 221.167 282.157 224.919 279.924C230.195 276.817 234.046 273.355 238.513 272.32C237.962 273.841 237.38 276.559 232.979 279.375C235.309 279.309 238.513 279.149 238.513 279.149C238.513 279.149 235.407 280.992 229.937 285.135C226.57 287.695 222.105 292.028 217.542 294.908C214.596 296.753 211.392 298.108 209.288 299.213C204.168 302.029 202.103 303.452 198.739 306.893C199.936 306.829 200.034 306.893 200.034 306.893C200.034 306.893 195.793 307.444 192.753 309.061C192.113 309.061 191.004 308.834 189.062 309.385C187.541 309.869 185.534 310.972 183.464 311.552C180.518 312.427 179.55 312.039 179.55 312.039L180.034 313.009C180.034 313.009 176.194 312.943 174.914 313.073C175.14 313.137 175.076 313.236 175.076 313.236C174.851 313.273 174.635 313.35 174.436 313.462C173.82 313.861 173.143 314.156 172.431 314.334C172.043 314.398 171.718 314.398 171.232 314.496C171.394 314.885 172.657 317.056 173.239 318.336C172.755 318.661 165.472 324.162 165.472 324.162C165.698 324.518 165.882 324.898 166.022 325.295C166.248 326.006 166.347 327.042 166.573 327.527C167.121 328.497 167.445 328.66 167.445 328.66C167.445 328.66 166.573 328.822 165.05 329.21C163.757 329.534 162.17 330.082 159.93 330.407C159.242 330.496 158.551 330.55 157.858 330.569C158.182 331.281 159.605 333.999 156.983 337.137C154.362 340.275 153.553 340.732 152.744 342.737C152.338 342.43 151.904 342.158 151.45 341.927C150.577 341.538 149.378 340.958 148.958 340.179C148.713 341.217 148.388 342.234 147.987 343.222C147.179 345.389 145.982 347.527 145.756 349.144C144.881 348.173 143.264 346.264 141.03 346.652C138.797 347.04 137.018 350.082 136.629 350.957C136.629 350.407 136.241 349.986 136.145 350.633C136.079 351.345 134.85 358.786 127.989 364.807C127.925 363.286 127.925 359.919 127.763 358.821C127.123 359.461 126.34 360.406 121.679 362.413C117.116 364.418 117.839 366.426 117.839 366.426C117.839 366.426 117.451 363.226 119.91 359.855C122.402 356.491 123.923 354.904 123.923 354.646C123.883 354.383 123.771 354.136 123.599 353.933C123.275 353.609 122.628 353.221 122.628 352.962C123.017 352.802 126.867 350.957 126.641 347.136C126.415 343.708 124.96 341.927 123.923 340.666C123.763 340.504 125.446 339.307 125.218 338.919C125.056 338.693 122.987 337.169 122.726 336.359C122.788 335.875 122.896 335.398 123.051 334.936C123.277 334.223 123.439 333.737 123.375 333.253C123.213 332.444 122.338 330.21 122.08 329.984C122.306 330.048 123.923 329.984 123.923 329.984C123.923 329.984 122.63 327.913 122.402 326.942C122.174 325.972 121.69 323.414 121.431 322.929C121.982 322.993 123.341 323.089 123.341 322.929C123.407 322.443 122.144 321.634 122.701 321.009C123.089 321.073 123.834 321.398 124.544 322.304C124.156 321.268 123.509 319.262 122.148 318.454C122.788 318.228 124.964 317.643 126.874 318.776C128.783 319.909 129.434 321.494 129.434 321.494C129.434 321.494 130.566 322.368 132.316 323.663C134.321 325.248 136.877 327.503 140.956 329.099C141.83 329.585 144.062 329.585 145.681 329.261C146.386 329.093 147.062 328.821 147.686 328.453C147.912 328.32 148.151 328.211 148.399 328.128C148.051 327.43 147.651 326.759 147.202 326.121C147.752 326.121 148.399 326.187 148.399 326.187C148.399 326.187 148.787 325.312 147.04 323.627C147.428 323.239 147.915 322.987 147.915 322.332C147.364 322.268 146.394 321.459 146.167 321.135C146.49 320.909 146.976 320.165 147.526 319.938C147.04 319.55 145.843 317.931 145.293 317.771C145.819 317.576 146.327 317.337 146.814 317.058C146.814 317.058 144.096 316.346 143.221 315.764C142.347 315.124 141.054 314.016 140.277 313.692C139.467 313.368 138.044 313.208 137.461 312.559C138.01 312.721 138.884 312.559 139.533 312.559C140.017 312.559 140.245 312.623 140.405 312.623C140.341 312.397 140.341 311.911 141.604 311.751C142.212 311.659 142.801 311.473 143.351 311.2C143.351 311.2 142.153 311.136 140.791 309.841C139.43 308.546 138.3 307.512 137.523 307.35C136.715 307.187 135.194 307.9 134.255 307.834C132.96 307.674 132.41 307.025 132.41 307.025C132.41 307.025 128.107 307.414 118.56 301.59C110.306 296.54 106.714 292.075 106.714 292.075C105.941 291.795 105.195 291.448 104.482 291.038C101.376 289.421 97.071 286.055 97.2012 281.652L97.1841 281.684Z" fill="#C2A44D"/>
        <path fill-rule="evenodd" clip-rule="evenodd" d="M216.245 87.4427C216.994 87.6859 217.659 88.1346 218.165 88.7376C219.686 90.4848 220.657 93.7851 217.194 97.3136C218.553 97.7979 219.114 97.9536 220.301 97.7979C219.104 99.223 216.386 102.265 216.224 104.919C216.062 107.086 217.421 107.735 217.421 107.735C217.421 107.735 215.349 110.129 215.253 114.135C216.231 113.032 217.302 112.014 218.453 111.093C220.849 109.183 224.149 107.016 226.383 105.657C226.352 106.227 226.429 106.797 226.609 107.338C226.609 107.338 230.782 103.908 234.289 105.431C235.874 106.143 235.161 108.375 235.161 108.375C235.161 108.375 237.331 107.566 238.852 109.087C240.373 110.609 242.524 114.532 243.627 116.053C244.111 116.765 245.374 118.124 246.667 120.228C248.433 123.173 249.907 126.283 251.07 129.514C251.134 127.831 251.554 125.211 256.346 126.86C261.135 128.543 266.571 132.072 271.134 139.02C275.697 145.969 276.828 153.813 279.125 156.799C281.455 159.679 283.851 164.469 284.013 166.476C284.175 168.484 283.3 174.954 288.09 192.462C289.449 187.027 291.52 174.954 291.52 174.954L292.653 164.307L293.948 131.362L259.546 102.781L232.653 83.2656L215.144 84.9488L216.243 87.4406L216.245 87.4427Z" fill="#CAA13E"/>
        <path fill-rule="evenodd" clip-rule="evenodd" d="M280.162 136.472C280.162 136.472 279.676 133.272 271.586 127.832C263.495 122.46 257.184 122.46 251.36 117.897C246.893 114.305 242.234 106.051 239.2 103.333C236.254 100.647 235.77 92.8796 235.77 92.8796L245.705 84.5596L260.48 63.2028L272.971 49.4492L278.957 57.7692L287.277 67.542L291.904 87.1538L293.587 115.86L280.147 136.474L280.162 136.472Z" fill="#B59544"/>
        <path fill-rule="evenodd" clip-rule="evenodd" d="M290.164 170.88C290.409 166.526 289.871 162.164 288.577 158.001C286.443 151.366 281.782 139.586 279.616 135.174C278.742 130.287 279.39 129.898 280.329 129.348C281.268 128.797 284.796 126.788 286.729 119.737C288.662 112.687 294.659 112.456 294.659 112.456L298.347 109.738L303.947 123.75L308.833 136.405L310.354 146.082L311.486 154.333L308.833 171.778L295.727 183.622L290.162 170.88H290.164Z" fill="#C89D3A"/>
        <path fill-rule="evenodd" clip-rule="evenodd" d="M107.283 365.311L107.283 364.952C107.556 364.782 107.796 364.565 107.994 364.312C108.22 363.988 108.384 363.6 108.544 363.504C108.868 363.342 110.389 362.864 111.198 363.017C112.006 363.171 114.144 364.052 115.277 363.988C117.606 363.924 120.324 362.143 124.629 362.953C131.102 364.15 132.623 368.551 136.378 371.043C138.938 372.792 141.587 372.014 141.975 372.014H142.848C143.01 372.014 144.207 370.655 144.855 370.721C146.15 370.785 146.278 371.854 147.087 371.918C148.996 372.144 152.687 370.947 154.532 371.433C155.079 371.605 155.577 371.906 155.983 372.311C156.388 372.716 156.69 373.214 156.862 373.761C157.25 374.958 156.926 376.479 155.987 377.353C153.982 379.197 152.073 380.946 151.684 382.473C152.178 382.85 152.652 383.252 153.105 383.677C137.093 379.597 121.687 373.428 107.283 365.33L107.283 365.311Z" fill="#CEB052"/>
        <path fill-rule="evenodd" clip-rule="evenodd" d="M279.611 300.648C279.611 300.648 284.659 293.917 286.408 290.583C288.155 287.146 280.874 243.626 280.874 243.626L295.502 195.699L295.112 180.1C295.112 180.1 295.824 165.698 297.508 159.451C299.515 163.044 305.761 167.381 307.12 169.678C307.76 165.275 309.934 155.989 309.612 146.086C310.809 147.929 313.689 166.474 313.689 166.474L316.569 178.965L320.324 192.234L324.498 206.248L326.99 215.925L328.413 218.254L329.612 222.331L330.745 226.734L334.013 237.058L335.933 245.536L337.454 260.908C337.785 262.085 338.023 263.287 338.167 264.501C338.231 266.184 337.941 267.155 337.941 267.447C337.941 267.739 338.491 271.136 338.265 273.693C337.941 276.253 337.941 278.257 335.933 280.093C333.926 281.93 332.665 292.908 332.665 292.908L329.072 290.515C329.072 290.515 329.785 287.244 328.102 284.268C326.418 281.292 323.15 280.676 321.305 281.162C319.462 281.55 315.773 282.131 314.574 283.168C313.441 284.202 310.66 287.406 308.102 288.864C304.902 290.784 299.688 290.935 296.906 291.581C294.09 292.221 290.984 294.141 287.713 296.371C285.149 298.031 282.442 299.459 279.624 300.637L279.611 300.648Z" fill="#CCA847"/>
        <path fill-rule="evenodd" clip-rule="evenodd" d="M279.611 371.361C279.611 371.361 279.825 371.5 280.236 371.726C303.229 360.954 323.829 345.684 340.823 326.819C340.637 320.27 340.396 313.556 340.132 311.069C339.584 305.793 339.972 300.421 339.81 297.315C339.648 294.209 337.9 281.554 337.092 278.286C336.217 275.018 334.532 273.398 334.276 273.398C334.05 273.465 332.689 279.549 332.689 281.078C332.689 282.608 332.364 286.29 332.364 287.229C332.138 287.163 332.042 286.589 332.042 286.354C331.718 287.163 331.33 288.588 331.168 288.75C331.005 288.912 331.394 287.391 331.168 287.067C330.941 286.742 330.528 286.905 330.617 286.096C330.656 285.617 330.731 285.141 330.843 284.673C330.843 284.673 329.873 286.096 329.162 289.721C328.45 293.313 328.45 293.411 328.192 293.733C327.965 294.124 326.671 295.417 326.604 295.903C326.54 296.776 327.803 297.65 327.899 298.134C327.963 298.945 326.767 302.698 326.378 304.534C325.99 306.371 326.152 309.97 325.738 311.815C325.414 313.499 325.098 314.469 323.991 315.18C324.8 315.342 325.576 315.568 325.576 315.568C325.576 315.568 326.709 320.357 323.829 324.436C322.794 325.859 322.536 326.508 321.435 327.803C319.266 330.196 317.583 332.923 317.42 334.695C317.308 334.172 317.233 333.642 317.194 333.108C317.194 333.108 313.83 337.025 312.405 339.259C310.562 342.139 308.004 341.977 307.285 342.689C306.566 343.402 306.41 344.694 306.645 345.731C306.005 345.891 304.802 346.119 303.991 348.611C303.603 349.904 302.632 351.171 301.111 352.042C299.59 352.912 297.745 353.174 296.806 353.401C297.615 353.627 297.939 353.627 298.327 353.885C297.843 354.693 295.609 355.956 293.117 357.576C290.626 359.097 289.427 361.328 288.812 362.785C288.172 364.144 287.227 365.019 285.706 365.181C286.346 365.569 287.293 366.474 287.778 366.766C287.065 366.928 285.858 366.928 283.701 368.773C281.435 370.651 280.659 371.201 279.622 371.363L279.611 371.361Z" fill="#C39D3C"/>
        <path fill-rule="evenodd" clip-rule="evenodd" d="M234.581 386.357C235.82 385.489 237.162 384.777 238.577 384.239C243.624 382.234 248.964 381.845 251.067 381.199C253.075 380.559 254.66 379.676 257.152 379.191C257.086 379.759 257.03 380.292 256.97 380.796C249.624 383.105 242.144 384.962 234.57 386.357H234.581Z" fill="#D2BA6B"/>
        <path fill-rule="evenodd" clip-rule="evenodd" d="M327.679 253.593C327.679 253.593 326.644 259.191 324.799 262.72C322.953 266.248 320.959 271.133 320.959 271.133C320.971 270.033 321.101 268.936 321.347 267.863C319.017 269.222 313.353 272.492 311.747 273.947C310.226 275.306 307.668 277.702 307.022 278.835C308.543 274.37 310.128 270.357 310.388 268.512C308.059 270.195 297.183 279.159 291.521 285.081L273.883 299.353C271.847 300.451 269.751 301.433 267.604 302.293C264.564 303.586 260.972 304.686 258.318 305.723C259.03 303.814 260.161 302.129 261.748 300.511C263.431 298.926 268.479 293.457 269.255 290.912C269.968 288.258 270.13 286.673 269.191 284.439C268.317 284.665 266.311 284.763 264.952 285.152C263.594 285.54 262.136 286.995 262.136 286.995C262.136 286.995 263.171 281.073 265.405 275.475C263.722 275.539 260.842 276.023 260.842 276.023C260.842 276.023 264.854 269.292 271.722 264.601C269.618 265.049 267.56 265.687 265.573 266.508C261.56 268.192 257.159 270.683 253.891 272.042C255.734 269.482 268.679 251.008 276.383 233.79C284.063 216.606 286.932 212.205 288.615 202.982C289.488 198.419 289.255 191.676 289.488 185.636C289.714 179.648 290.459 174.276 289.974 170.684C291.98 173.175 299.489 180.198 299.747 195.895C299.973 211.59 292.564 232.789 284.699 244.211C286.619 244.761 291.594 245.41 296.705 236.531C301.816 227.652 301.755 225.173 303.6 221.482C303.826 223.328 303.76 223.974 303.76 223.974C303.76 223.974 311.205 214.946 314.732 203.586C315.444 208.473 317.548 212.778 314.245 221.743C311.301 229.832 307.451 231.808 307.451 231.808C307.451 231.808 309.36 231.483 312.174 229.8C312.66 230.997 312.564 232.36 313.373 232.842C314.181 233.324 315.282 234.137 315.444 234.914C316.317 233.619 317.676 231.968 318.098 230.739C317.774 233.299 317.548 244.492 318.738 250.188C321.232 249.962 323.788 249.8 325.535 245.301C324.338 249.704 324.338 252.356 325.147 256.111C326.473 255.206 327.67 253.587 327.67 253.587L327.679 253.593Z" fill="#C0993A"/>
        <path fill-rule="evenodd" clip-rule="evenodd" d="M243.593 75.2125C243.593 75.2125 241.101 76.2471 236.862 76.2471C233.173 76.2471 234.208 74.8242 228.448 74.8242C219.582 74.8242 188.61 79.9442 183.172 79.8717C179.643 79.8077 195.08 81.3927 195.08 81.3927L234.532 81.9432L242.46 81.3032L245.406 75.3085L243.593 75.2125Z" fill="#A88F33"/>
        <path fill-rule="evenodd" clip-rule="evenodd" d="M141.295 152.332C141.295 152.332 136.246 156.183 134.11 159.129C131.975 162.075 130.842 164.014 128.414 166.41C128.984 166.432 129.554 166.355 130.098 166.184C130.098 166.184 130.098 166.824 129.709 166.993C130.045 166.955 130.384 166.993 130.703 167.104C131.022 167.215 131.312 167.395 131.552 167.633C130.84 168.021 128.899 169.964 130.42 172.262C131.552 174.009 133.948 174.169 133.948 174.169C133.948 174.169 133.398 175.756 135.695 175.594C140.647 175.368 146.181 173.198 148.736 173.749C151.296 174.389 152.751 174.624 154.563 177.764C156.483 180.87 158.155 181.356 158.155 181.356C158.155 181.356 159.288 178.474 159.03 174.171C159.959 171.852 160.473 169.388 160.551 166.89L158.868 154.496L151.523 145.207L142.008 150.483L141.295 152.326L141.295 152.332Z" fill="#E3C571"/>
        <path fill-rule="evenodd" clip-rule="evenodd" d="M150.323 150.483C150.323 150.483 151.036 152.166 154.014 152.326C153.69 153.039 153.69 153.137 153.788 153.685C153.852 154.236 153.948 155.044 153.948 155.044C154.276 154.886 154.572 154.669 154.823 154.404C154.985 155.117 154.661 156.248 154.823 157.058C154.923 157.551 155.085 158.029 155.307 158.481C155.354 158.37 155.408 158.263 155.469 158.159C155.533 157.997 156.109 159.906 157.703 161.359C157.701 161.136 157.756 160.915 157.863 160.719C157.887 161.125 158.021 161.516 158.251 161.852C158.132 161.795 158.023 161.719 157.929 161.626C157.929 161.626 158.089 166.746 158.963 169.393C159.11 169.222 159.24 169.038 159.352 168.843C159.352 168.683 159.288 170.268 159.126 171.403C158.899 172.536 159.062 174.121 159.062 174.121C159.645 173.661 160.286 173.28 160.969 172.988C161.939 172.597 163.529 171.401 164.497 168.747C165.059 167.244 165.492 165.696 165.792 164.12C166.105 164.722 166.321 165.37 166.432 166.04C166.498 166.848 168.019 166.428 168.019 166.428L168.344 162.899L170.264 154.906L172.011 149.954L180.425 136.849L195.627 125.141L208.896 128.184L220.092 112.973L200.805 101.387L182.552 103.296L165.986 126.24L152.719 147.051L150.323 150.481L150.323 150.483Z" fill="#D8B65B"/>
        <path fill-rule="evenodd" clip-rule="evenodd" d="M245.922 117.28C245.922 117.28 244.79 117.506 241.521 119.2C238.253 120.894 235.987 121.432 234.724 123.923C233.461 126.415 233.365 128.391 233.365 128.391C233.365 128.391 235.599 127.42 236.894 127.096C238.253 126.774 239.774 126.87 239.612 127.42C239.456 127.797 239.24 128.147 238.972 128.455C238.972 128.455 241.532 128.391 241.464 129.654C241.395 130.917 240.979 132.307 240.495 132.922C240.009 133.562 238.003 134.509 237.777 135.254C237.227 136.775 238.003 136.839 237.711 138.068C237.485 139.266 236.418 141.596 232.922 145.673C229.329 149.752 227.802 152.632 227.802 152.632C227.802 152.632 226.055 149.364 225.148 146.548C224.508 146.87 221.071 148.779 221.071 148.779L213.109 121.046L213.269 119.2C213.269 119.2 213.982 118.328 214.144 116.709C212.947 116.32 212.785 115.996 211.198 114.477C209.611 112.958 208.318 111.111 205.666 109.848C205.278 109.135 204.792 108.167 202.85 107.776C200.909 107.386 199.744 107.066 199.744 107.066C199.744 107.066 200.779 106.675 201.265 105.867C200.066 106.029 199.098 106.417 196.476 106.353C193.822 106.287 193.53 106.191 192.075 106.417C190.62 106.643 188.875 107.292 188.224 105.058C187.512 104.508 185.99 104.994 184.696 106.902C183.401 108.809 182.948 110.332 180.457 111.076C180.281 112.175 179.897 113.229 179.324 114.183C178.611 115.382 177.478 116.578 175.957 118.358C173.562 121.174 173.95 125.801 170.131 129.329C166.281 132.856 170.771 119.554 170.771 119.554L176.919 104.834L194.428 87.7143L221.613 85.8711L224.267 99.9511L237.536 104.514L245.918 117.297L245.922 117.28Z" fill="#D3AE4D"/>
        <path fill-rule="evenodd" clip-rule="evenodd" d="M250.227 120.386L238.803 103.914L230.809 97.764C230.809 97.764 225.113 87.2808 224.725 86.9565C224.401 86.7304 219.029 86.148 215.599 85.9219L216.239 87.5069C216.988 87.7501 217.653 88.1988 218.159 88.8019C219.68 90.5491 220.651 93.8493 217.188 97.3778C218.547 97.8621 219.108 98.0178 220.294 97.8621C219.097 99.2871 216.38 102.329 216.217 104.983C216.055 107.151 217.414 107.797 217.414 107.797C217.414 107.797 215.343 110.193 215.247 114.197C216.225 113.094 217.296 112.076 218.447 111.155C220.843 109.235 224.143 107.076 226.376 105.717C226.346 106.287 226.423 106.858 226.602 107.4C226.602 107.4 230.775 103.97 234.282 105.491C235.867 106.203 235.155 108.437 235.155 108.437C235.155 108.437 237.324 107.628 238.846 109.15C240.367 110.671 242.534 114.585 243.635 116.108C244.119 116.821 245.382 118.18 246.675 120.281C248.441 123.227 249.916 126.338 251.078 129.57C251.142 128.275 251.402 126.464 253.638 126.464L250.24 120.379L250.227 120.386Z" fill="#CAA13E"/>
        <path fill-rule="evenodd" clip-rule="evenodd" d="M78.9651 167.185C78.9651 167.185 78.1565 165.177 78.9651 161.262C79.7736 157.348 81.0365 155.502 81.4568 149.742C81.8771 143.982 85.6317 136.797 85.6317 136.797L96.0189 132.074L103.366 134.08L105.534 143.918L96.245 149.038C96.245 149.038 95.7608 151.206 93.1389 152.953C90.517 154.7 86.8925 156.059 86.02 157.841C85.4984 158.931 85.1177 160.084 84.8872 161.271C84.8872 161.271 82.2333 160.721 80.6483 162.468C78.9651 164.249 79.0291 165.834 78.9651 167.193L78.9651 167.185Z" fill="#F4EFC8"/>
        <path fill-rule="evenodd" clip-rule="evenodd" d="M99.9355 164.562C99.9355 164.562 99.0608 165.112 98.4144 166.482C97.7744 165.447 96.2448 159.297 96.1808 153.763C96.1168 148.229 95.7861 146.857 97.0661 144.95C98.3461 143.043 103.366 141.033 102.653 137.598C101.941 134.33 98.9627 132.971 95.3061 133.91C92.7461 134.55 90.8411 139.994 88.1872 142.712C86.1797 144.784 83.7861 144.459 83.1397 145.592C82.2651 147.113 83.0736 148.634 82.8155 149.605C82.7493 149.929 81.9408 151.676 80.4837 153.78C77.5397 158.019 72.5563 164.007 71.9077 169.379C72.1339 166.337 71.9739 166.273 72.7824 162.906L72.296 162.098L75.496 151.612L77.5675 142.972L82.1968 128.504L90.3504 113.716L98.28 104.848L106.532 105.398L107.502 117.793L112.228 141.063L122.163 153.296L106.239 164.011L99.9291 164.562H99.9355Z" fill="#EBCC73"/>
        <path fill-rule="evenodd" clip-rule="evenodd" d="M104.887 168.962C104.887 168.962 103.528 169.286 103.042 169.028C102.555 168.77 102.073 168.478 102.233 168.153C102.393 167.829 103.268 167.281 103.268 167.02C103.286 166.785 103.211 166.552 103.06 166.371C102.91 166.19 102.694 166.075 102.459 166.05C101.715 165.954 101.489 166.438 101.489 166.438C101.489 166.438 100.776 165.89 100.196 165.798C100.539 165.756 100.885 165.734 101.231 165.732C100.336 165.327 99.3876 165.054 98.4146 164.923C99.2231 164.439 100.81 163.014 101.845 163.014C102.88 163.014 103.528 162.854 103.366 162.304C103.204 161.753 102.395 160.945 101.523 160.62C101.845 160.232 102.073 159.65 101.297 158.06C100.486 156.475 100.81 155.406 101.071 155.02C101.297 154.534 102.105 153.661 102.493 153.111C102.882 152.561 103.206 151.816 103.852 151.428C104.177 151.202 105.211 150.788 106.248 150.393C107.381 150.005 108.32 149.518 108.966 150.005C109.679 150.489 109.354 151.138 109.354 151.138C109.354 151.138 111.588 150.327 113.593 151.364C115.601 152.332 120.488 152.949 120.488 152.949L122.24 156.477L110.653 166.412L105.864 168.808L104.893 168.968L104.887 168.962Z" fill="#E5C66B"/>
        <path fill-rule="evenodd" clip-rule="evenodd" d="M120.971 152.718C120.971 152.718 117.378 155.113 116.57 155.986C117.054 156.052 117.863 156.376 117.538 156.86C117.15 157.345 114.82 159.028 113.526 160.615C112.167 162.2 110.872 164.208 110.419 165.178C109.935 166.051 106.244 168.609 104.984 168.931C107.638 168.931 112.977 165.663 114.983 165.663C114.919 166.633 115.533 167.734 116.666 167.83C117.799 167.926 121.067 168.543 125.468 165.825C129.869 163.171 128.414 161.195 130.257 159.903C133.786 157.571 135.209 155.499 137.15 154.207C139.091 152.914 140.096 152.619 140.096 152.619C140.096 152.619 140.16 151.649 140.736 151.747C140.894 151.765 141.044 151.826 141.169 151.923C141.295 152.02 141.391 152.149 141.449 152.297C141.449 152.297 144.815 149.902 149.129 149.255C149.028 149.21 148.948 149.13 148.903 149.029C148.903 149.029 149.225 148.867 149.291 148.705C149.291 148.705 149.517 148.38 149.679 148.543C149.841 148.705 150.067 149.902 150.392 150.388C151.104 150.064 152.463 147.022 152.463 147.022L155.734 137.669L155.734 129.125L153.174 129.611L133.974 137.765L122.321 149.838L120.962 152.718H120.971Z" fill="#E6BD62"/>
        <path fill-rule="evenodd" clip-rule="evenodd" d="M176.245 110.81C177.284 110.558 178.28 110.154 179.2 109.611C178.812 110.648 178.812 111.781 177.129 114.241C175.445 116.7 175.381 117.057 174.022 119.612C172.663 122.266 172.501 126.085 171.206 127.766C171.787 127.484 172.409 127.299 173.05 127.218C173.05 127.218 171.757 128.351 171.206 129.547C170.656 130.744 169.685 133.236 167.292 134.759C164.898 136.282 161.854 137.251 158.586 140.843C155.315 144.37 151.951 148.837 150.266 150.443C151.14 148.922 152.337 145.88 152.661 143.875C152.986 141.87 152.595 139.472 153.146 136.82C153.696 134.168 153.696 132.257 156.346 127.627C158.995 122.998 163.531 106.915 163.531 106.915L173.303 103.809L176.25 110.8L176.245 110.81Z" fill="#B6933F"/>
        <path fill-rule="evenodd" clip-rule="evenodd" d="M169.19 104.887C169.19 104.887 166.246 109.126 165.438 112.88C164.629 116.635 165.371 116.311 164.887 118.156C164.598 119.281 164.598 120.461 164.887 121.586C165.907 119.944 167.303 118.568 168.96 117.572C171.744 115.89 174.009 114.692 175.36 113.269C176.719 111.748 177.851 109.256 180.795 107.346C179.599 107.184 177.915 106.634 177.595 106.706C178.794 105.348 182.385 103.276 186.009 100.784C189.602 98.2243 189.376 97.1918 195.202 94.6361C193.292 94.9603 192.386 94.4739 190.799 94.6361C191.439 93.2771 193.679 92.6286 195.919 90.3971C198.159 88.1657 194.496 84.8633 194.496 84.8633L177.429 95.1865L169.177 104.895L169.19 104.887Z" fill="#C49937"/>
        <path fill-rule="evenodd" clip-rule="evenodd" d="M122.88 97.1858L123.268 94.0797L128.156 86.2482L133.269 72.4946L133.269 53.6914L132.881 42.8178L133.689 35.6967L134.304 33.4333L134.952 32.5586L139.125 34.7261L144.887 42.5575L145.438 57.6722L139.838 81.5229L123.851 98.9671L122.88 97.1858Z" fill="#DFC068"/>
        <path fill-rule="evenodd" clip-rule="evenodd" d="M135.599 31.6818C135.599 31.6818 133.039 31.7479 132.493 42.3954C131.947 53.0428 131.682 58.6407 131.294 63.9164C130.906 69.1922 130.001 72.3943 129.547 75.5026C129.093 78.6108 128.834 82.8476 127.38 85.4375C126.74 86.6343 125.372 90.389 122.168 93.205C118.575 96.3111 113.208 98.4807 112.395 98.6428C110.97 98.965 103.753 99.6775 100.809 101.297C99.7743 101.847 97.993 102.494 96.0197 104.339C92.1029 107.865 86.8933 114.176 83.1386 121.781C77.3786 133.141 71.6187 165.211 71.6187 165.211L72.9136 163.044C72.9136 163.044 73.0757 160.164 75.9557 155.114C78.7717 150.067 77.9632 144.403 81.8778 134.726C83.3989 131.038 85.3082 126.248 87.6378 122.169C91.3285 115.535 95.7935 109.839 100.293 106.732C107.638 101.685 115.729 100.584 115.729 100.584L124.436 94.8242C124.436 94.8242 125.957 91.8802 127.964 88.5138C130.778 83.7906 134.364 78.5148 135.147 70.8455C136.346 59.4855 133.464 52.0423 133.626 45.3116C133.788 38.581 133.852 33.6295 135.213 32.4306C136.574 31.2316 135.601 31.686 135.601 31.686L135.599 31.6818Z" fill="#A88F33"/>
        <path fill-rule="evenodd" clip-rule="evenodd" d="M135.599 82.4935C135.599 82.4935 139.439 73.0429 141.197 64.661C141.521 62.9778 142.168 61.2967 142.33 59.9378C143.138 52.0082 143.365 48.7399 142.33 44.4029C141.521 41.2029 138.415 38.3186 136.796 36.0829C135.211 33.7511 134.466 32.8829 134.791 32.3922C135.115 31.9015 136.376 31.0994 137.605 31.1954C138.911 31.2334 140.196 31.5367 141.381 32.0868C142.566 32.6369 143.627 33.4224 144.5 34.3954C146.991 37.2754 148.965 47.0503 148.965 47.0503L151.04 59.9485L156.316 76.1938L135.603 82.5063L135.599 82.4935Z" fill="#C99E3D"/>
        <path fill-rule="evenodd" clip-rule="evenodd" d="M171.682 72.6545C171.682 72.6545 170.97 72.9766 169.677 72.6545C169.732 73.1828 169.64 73.7161 169.412 74.1956C169.183 74.6752 168.827 75.0823 168.382 75.3723C167.023 74.8219 154.302 75.9228 154.302 75.9228C154.302 75.9228 148.38 74.8859 146.535 67.0545C145.242 61.8427 147.505 54.6598 146.761 49.9345C145.628 42.9755 144.043 41.6145 143.881 39.4491C143.719 37.2838 143.556 36.7313 143.556 35.3723C142.844 35.2102 142.424 34.9841 141.713 34.9841C141.551 34.3441 141.873 33.7851 141.163 32.6523C141.551 32.8145 144.205 33.1387 147.311 36.0827C149.871 38.4785 149.871 39.351 150.257 39.8374C150.742 40.3217 154.658 43.6774 156.342 47.0225C158.025 50.3675 161.293 61.0342 162.038 62.7814C162.264 63.4939 162.75 64.2065 163.958 65.8235C165.835 68.1553 168.585 72.0102 171.691 72.6502L171.682 72.6545Z" fill="#B58634"/>
        <path fill-rule="evenodd" clip-rule="evenodd" d="M150.714 40C152.675 43.1669 154.436 46.453 155.988 49.8389C157.897 54.1419 159.03 57.6704 161.426 60.5504C160.131 56.7979 157.833 49.4187 156.474 46.7968C154.953 44.0235 151.847 41.0368 150.714 40.0021L150.714 40Z" fill="#A88F33"/>
        <path fill-rule="evenodd" clip-rule="evenodd" d="M128.706 93.2053C128.706 93.2053 125.437 94.0138 119.353 97.2181C117.346 98.2527 115.439 99.1253 113.593 99.9359C108.8 102.103 103.658 104.107 99.5795 105.212C99.9038 105.6 100.064 105.76 100.064 105.76C100.064 105.76 100.064 107.347 100.938 108.252C100.454 108.738 93.9796 113.139 95.891 127.863C97.1838 127.379 98.7049 126.731 98.931 126.731C99.3214 126.797 99.4174 127.863 99.9017 127.863C100.386 127.863 101.973 127.223 103.656 125.047C103.592 125.922 102.622 134.724 107.831 140.646C108.802 139.514 111.262 135.759 111.262 135.759L111.326 134.562C111.326 134.562 111.552 130.387 112.913 126.568C114.274 122.75 116.926 119.934 116.926 119.934L130.773 100.16L128.701 93.2031L128.706 93.2053Z" fill="#E6C367"/>
        <path fill-rule="evenodd" clip-rule="evenodd" d="M115.761 122.242C115.127 122.69 114.428 123.039 113.689 123.277C113.463 122.469 113.139 119.685 115.048 116.967C117.282 113.696 122.167 109.457 123.526 106.087C124.401 103.917 124.012 98.4813 131.78 91.5224C139.547 84.5634 142.587 82.1698 142.587 82.1698L155.144 75.8594L170.581 81.9437L162.912 112.002L156.958 126.082L133.278 121.617L115.759 122.242H115.761Z" fill="#DCBA5A"/>
        <path fill-rule="evenodd" clip-rule="evenodd" d="M124.8 114.076L127.746 110.387L127.746 107.766C127.746 107.766 131.014 106.891 134.541 103.298C138.067 99.7058 142.955 92.8129 147.26 93.2332C151.565 93.7196 151.985 102.586 152.147 105.08C152.309 107.574 152.86 113.233 153.732 116.278C154.703 119.32 143.247 130.84 143.247 130.84L135.467 136.762L124.8 114.076Z" fill="#E9CE77"/>
        <path fill-rule="evenodd" clip-rule="evenodd" d="M133.916 144.789C133.916 144.789 136.311 141.034 134.556 140.226C135.59 137.896 137.5 135.437 137.5 135.437C137.5 135.437 138.859 132.072 143.26 127.929C147.661 123.786 150.381 121.034 151.093 118.253C151.532 116.44 151.771 114.584 151.806 112.719C152.282 113.107 152.79 113.454 153.327 113.753C154.039 114.078 157.404 116.86 156.919 122.46C156.435 128.06 154.359 130.389 154.359 130.389C154.359 130.389 152.354 132.394 150.931 133.431C149.408 134.466 148.86 135.663 146.302 135.761C146.565 135.552 146.86 135.388 147.176 135.274C147.176 135.274 144.523 134.952 143.098 136.245C141.673 137.538 138.643 141.521 137.122 142.72C135.601 143.69 133.922 144.791 133.922 144.791L133.916 144.789Z" fill="#CDAE50"/>
        <path fill-rule="evenodd" clip-rule="evenodd" d="M241.521 81.8445C237.698 80.451 233.68 79.665 229.613 79.5149C222.816 79.2888 212.881 79.677 203.14 79.741C192.655 79.805 183.141 76.1485 169.937 75.5021C167.77 74.2071 162.257 68.5431 145.05 80.5496C146.085 80.4856 157.543 77.8957 161.521 82.8813C165.534 87.8328 164.401 96.2467 163.853 98.252C162.816 102.719 159.45 109.224 158.093 113.787C156.736 118.35 157.056 120.748 156.086 123.948C155.115 127.148 152.98 128.737 154.24 132.426C155.924 131.391 156.8 131.391 159.612 125.081C162.424 118.77 161.846 114.271 166.507 108.932C171.07 103.56 178.667 96.2125 181.556 94.3672C184.444 92.5219 207.379 80.6136 231.394 91.9736C237.186 91.3592 241.523 81.8424 241.523 81.8424L241.521 81.8445Z" fill="#D2A83E"/>
        <path fill-rule="evenodd" clip-rule="evenodd" d="M154.724 77.4384C154.7 77.1952 154.646 76.9559 154.564 76.7259C154.339 76.2526 154.044 75.816 153.689 75.431C153.689 75.431 147.993 74.3963 145.113 74.7184C140.064 75.2688 135.5 81.5152 133.365 84.7195C131.229 87.9238 128.576 92.8732 125.696 95.431C125.727 95.1818 125.67 94.9295 125.533 94.7185C125.533 94.7185 125.696 94.9446 125.373 95.2689C125.051 95.5932 125.049 95.7532 125.211 95.9089L125.698 96.3932C125.858 96.3932 130.325 94.3857 136.409 88.7131C142.882 82.791 147.833 79.7531 150.423 78.712C151.804 78.1251 153.248 77.6978 154.726 77.4384H154.724Z" fill="#C29637"/>
        <path fill-rule="evenodd" clip-rule="evenodd" d="M265.212 53.1055C265.212 53.1055 264.175 54.3983 262.88 55.8233C260 58.8655 256.246 62.2937 253.041 65.8223C250.001 69.1887 246.571 71.8105 242.718 76.2116C238.865 80.6127 234.398 85.498 233.268 86.9231C232.233 88.3481 231.424 90.6777 231.424 91.8745C230.874 91.4863 230.228 91.066 230.228 91.066C230.5 91.5741 230.825 92.0518 231.198 92.4911C232.007 93.6239 233.268 95.0511 233.916 95.9215C234.712 97.0295 235.283 98.2826 235.597 99.61C235.985 99.674 238.477 100.16 241.585 95.0468C244.694 89.9332 248.768 84.3353 248.768 84.3353L255.241 74.7225L259.32 66.5689L264.44 57.4425L265.218 53.1055H265.212Z" fill="#AC8132"/>
        <path fill-rule="evenodd" clip-rule="evenodd" d="M271.846 46.5703C271.846 46.5703 267.93 49.7703 266.409 51.6904C264.888 53.6104 261.289 58.6493 261.289 58.6493L262.583 58.4872L269.154 52.6632L271.714 48.0999L271.844 46.5788L271.846 46.5703Z" fill="#A88F33"/>
        <path fill-rule="evenodd" clip-rule="evenodd" d="M270.647 303.755C270.647 303.755 270.583 301.101 272.072 299.516C273.593 297.929 277.444 295.6 281.198 286.861C284.953 278.123 285.371 276.15 285.371 276.15C285.371 276.15 278.641 281.91 274.491 283.269C275.462 281.261 276.012 279.838 276.499 278.802C275.948 278.317 273.619 277.767 273.393 277.509C274.685 276.214 275.398 273.042 278.02 270.938C281.386 268.378 287.534 263.979 292.313 260.058C297.092 256.137 306.487 247.017 307.686 244.363C308.398 245.398 308.558 246.044 308.558 246.044C308.558 246.044 303.835 252.195 301.376 256.109C299.206 259.476 299.368 261.385 299.368 261.385L303.835 259.465C303.835 259.465 305.128 264.254 299.272 271.538C301.832 270.567 302.865 271.149 304.32 270.339C301.924 271.862 298.624 273.933 295.517 279.627C292.475 285.323 288.332 291.958 281.344 296.099C274.547 300.468 270.63 303.736 270.63 303.736L270.647 303.755Z" fill="#A67A2E"/>
        <path fill-rule="evenodd" clip-rule="evenodd" d="M253.107 85.2099C253.107 85.2099 250.453 90.7416 250.065 95.0467C250.001 96.0835 249.74 96.892 249.74 98.0888C249.676 101.939 249.966 106.245 249.1 108.25C248.776 107.441 248.614 106.891 248.29 106.569C247.805 107.928 246.931 112.167 246.218 113.752C245.896 112.717 245.184 109.125 245.25 104.886C245.316 100.647 245.41 99.836 245.41 98.9635C245.25 100.256 244.375 102.006 244.051 103.04C243.567 102.168 243.016 101.035 242.368 100.096C241.979 100.736 241.495 101.681 241.075 102.168C241.009 101.779 240.849 100.743 240.751 99.2877C240.687 97.6045 240.588 95.4371 240.687 94.9827C240.847 94.1102 242.208 90.6798 245.088 87.5395C248.518 83.7849 252.046 76.57 253.081 74.3364C254.116 72.1028 258.517 62.8164 258.517 62.8164H261.883L256.996 73.9481C256.996 73.9481 254.052 80.0323 252.531 82.2681C251.01 84.5038 247.805 90.9102 246.38 93.4019C247.415 92.043 248.29 91.3304 249.326 90.0355C250.329 89.1288 253.111 85.2142 253.111 85.2142L253.107 85.2099Z" fill="#8C6228"/>
        <path fill-rule="evenodd" clip-rule="evenodd" d="M271.911 46.1484C271.361 47.8409 270.492 49.4123 269.351 50.7778C267.344 53.1735 263.039 56.3756 260.937 58.9314C259.017 61.4231 255.177 68.2199 256.922 76.2775C257.562 74.5303 258.768 71.0679 261.972 67.1511C265.176 63.2343 268.606 58.7372 270.292 55.2428C271.973 51.7143 272.199 48.9324 272.199 48.9324L272.839 48.1239L272.451 46.2786L271.9 46.1484H271.911Z" fill="#CBA94C"/>
        <path fill-rule="evenodd" clip-rule="evenodd" d="M337.444 260.808C337.444 260.808 336.149 257.281 335.761 254.077C335.372 250.873 336.401 250.237 335.21 246.57C334.498 244.336 333.205 244.65 332.881 244.336C332.556 244.023 332.33 240.648 332.394 238.802C332.458 236.957 332.33 234.564 332.006 233.527C331.522 233.138 331.197 232.814 330.485 230.421C329.676 228.025 329.288 226.828 328.9 226.118C328.512 225.407 327.377 224.759 327.377 224.046C327.377 222.621 328.672 221.879 328.672 221.486C328.608 220.678 327.637 221.326 327.377 221.098C327.054 220.71 328.187 218.38 327.767 218.056C327.605 217.896 326.472 219.255 326.18 218.866C325.856 218.476 325.467 214.625 324.885 212.07C324.337 209.578 323.752 207.767 323.688 207.022C323.624 206.31 319.221 193.753 318.154 190.711C317.295 188.14 316.571 185.526 315.987 182.879C315.662 181.358 315.436 178.25 315.274 178.574C315.112 178.898 315.21 180.483 314.95 180.419C314.724 180.353 313.915 174.822 313.657 173.947C313.431 173.072 312.07 170.107 311.737 167.961C311.413 165.791 310.702 160.127 310.216 156.277C309.73 152.426 309.503 150.841 309.503 149.877C309.583 147.518 309.453 145.157 309.115 142.822C308.475 138.743 307.195 133.791 306.073 130.913C303.906 125.475 298.143 111.56 297.113 108.097C297.113 107.223 298.246 107.709 298.246 107.709C298.246 107.709 301.06 114.764 303.131 120.2C305.139 125.638 307.048 130.427 307.534 130.913C307.923 131.398 310.965 136.737 312.324 145.475C313.683 154.214 314.167 162.271 314.978 167.643C315.366 170.203 315.69 172.919 316.499 175.637C317.371 178.583 318.73 181.625 320.512 186.284C322.033 190.201 323.165 193.469 323.78 196.285C324.492 199.878 324.492 202.595 324.913 204.377C325.303 205.898 325.883 208.938 327.244 213.337C328.605 217.736 330.609 223.402 331.968 226.928C334.624 233.983 335.808 239.873 336.209 243.014C336.563 246.25 337.762 257.448 337.437 260.812L337.444 260.808Z" fill="#A88F33"/>
        <path fill-rule="evenodd" clip-rule="evenodd" d="M272.072 45.7614L271.91 46.1497C271.91 46.1497 272.394 46.3118 272.298 46.9603C272.305 47.8476 272.251 48.7344 272.136 49.6142C271.976 50.747 271.652 51.6196 271.588 52.3321C271.588 53.8532 271.814 55.6004 269.668 59.9374C269.028 61.1342 268.633 62.1689 268.309 62.8814C267.501 64.6286 267.339 64.8889 266.626 65.6975C267.759 65.0575 271.838 62.4974 273.907 62.8814C272.484 63.69 270.314 65.2772 268.956 67.3487C269.28 67.4127 270.639 67.6729 272.795 67.3487C276.388 66.7983 280.401 65.5033 283.927 65.7615C287.78 65.9876 286.259 61.1342 286.259 61.1342L281.813 51.3614L273.399 45.4414L272.072 45.7635L272.072 45.7614Z" fill="#BE9C44"/>
        <path fill-rule="evenodd" clip-rule="evenodd" d="M294.013 118.965C294.013 118.965 290.259 115.211 288.738 102.325C287.217 89.3802 287.541 70.3253 287.541 70.3253L284.499 62.8821C284.499 62.8821 283.859 57.9306 282.265 56.0874C280.671 54.2442 277.542 51.136 276.117 49.6149C274.692 48.0938 273.075 46.0224 272.104 45.6981C272.588 44.8896 274.758 40.3264 283.074 40.2624C291.389 40.1984 293.954 44.8256 294.822 46.5088C295.69 48.192 299.611 55.4688 301.066 69.3354C302.425 83.1851 302.491 84.2218 302.265 89.0112C302.103 91.665 301.228 97.8133 299.705 104.382C298.314 109.95 296.793 116.164 294.009 118.978L294.013 118.965Z" fill="#A17C34"/>
        <path fill-rule="evenodd" clip-rule="evenodd" d="M282.24 130.001C283.492 130.091 284.742 129.809 285.833 129.19C287.03 129.126 291.367 129.676 294.699 125.438C294.925 126.406 295.51 129.03 293.987 131.36C294.797 130.549 295.994 130.227 296.156 130.001C296.22 131.197 297.353 134.886 292.564 143.85C293.857 142.427 295.378 142.491 296.737 142.329C296.803 144.012 297.707 149.674 295.314 152.718C293.729 154.79 291.139 154.141 291.139 154.141C291.177 153.689 291.177 153.235 291.139 152.782C291.075 151.908 290.75 151.035 290.979 150.453C289.727 149.881 288.587 149.092 287.612 148.121C284.796 145.467 281.14 140.938 280.881 137.572C280.557 133.817 283.924 133.009 283.924 133.009C283.642 132.756 283.401 132.461 283.211 132.134C283.049 131.586 282.887 130.711 282.24 130.001Z" fill="#8C6228"/>
        <path fill-rule="evenodd" clip-rule="evenodd" d="M257.28 89.2868C257.28 89.2868 257.118 89.0606 256.246 90.0953C256.408 89.0606 256.57 88.0878 256.634 87.1492C257.047 86.2801 257.581 85.4742 258.221 84.7556C257.735 85.7241 257.41 86.5988 257.41 86.5988C257.41 86.5988 258.609 84.3652 260.357 83.0062C261.553 82.0356 263.074 81.5833 263.721 80.6766C264.433 79.706 264.271 79.5438 264.433 79.3817C264.433 79.3817 266.02 78.347 268.448 75.3028C268.77 74.9145 269.257 74.4942 269.581 74.106C270.129 73.8798 271.424 73.2974 272.945 72.5188C274.532 71.6462 276.312 70.4494 277.412 69.9588C279.58 68.9881 281.88 69.0862 282.946 67.563C283.755 67.3369 284.627 64.9092 284.467 62.8398C285.664 63.3241 291.812 67.1428 293.918 75.4926C295.439 81.4148 292.719 90.5412 291.586 94.9444C290.453 99.3476 290.293 102.614 288.706 104.619C286.699 107.275 280.228 111.019 278.641 112.873C277.282 114.394 273.205 118.245 273.365 121.027C273.528 123.098 276.083 124.227 276.636 124.619C277.188 125.012 277.184 125.494 278.221 125.259C279.258 125.024 279.644 124.547 280.066 124.547C280.55 124.611 280.55 124.709 280.777 124.709C280.941 124.704 281.104 124.682 281.263 124.643C281.263 124.643 281.101 127.589 274.208 128.483C273.722 128.549 273.237 128.709 272.621 128.807C273.432 128.419 273.916 128.419 274.79 127.222C273.82 127.06 271.036 126.897 270.323 126.671C270.549 126.283 271.294 125.246 271.908 124.762C272.459 124.278 271.844 124.122 271.36 124.374C270.526 124.941 269.726 125.556 268.964 126.217C268.156 126.929 267.443 127.9 266.148 128.777C265.76 127.482 265.824 125.022 267.347 123.243C266.957 123.307 266.212 124.44 265.502 124.214C265.374 123.033 265.45 121.84 265.728 120.685C266.116 119.228 268.22 116.672 268.22 116.672L278.381 98.5156L280.548 84.762L257.28 89.2825L257.28 89.2868Z" fill="#92723A"/>
        <path fill-rule="evenodd" clip-rule="evenodd" d="M256.733 90.0634C256.733 90.0634 256.182 90.4516 257.283 91.1962C257.121 91.4223 256.733 92.2308 256.246 92.7812C255.698 93.4212 255.113 93.818 254.887 94.3684C254.403 95.5012 254.015 96.2778 254.015 96.7642C254.015 97.2506 253.853 100.357 252.494 102.362C252.007 103.075 251.457 104.271 251.068 105.08C250.26 106.503 249.547 107.64 249.385 108.28C249.063 109.413 248.837 112.519 248.837 112.519C248.837 112.519 249.55 111.644 249.808 111.322C249.417 112.131 248.997 113.003 248.383 113.652C248.771 113.327 249.904 112.519 251.813 110.836C254.467 108.604 258.61 104.849 263.66 101.876C262.136 102.426 260.844 102.426 259.809 102.588C260.617 101.78 267.899 93.2356 271.717 92.4271C271.949 92.1331 272.065 91.764 272.042 91.3903L268.771 91.0682L262.136 92.4911L261.168 87.3711L256.733 90.057L256.733 90.0634Z" fill="#B18E3E"/>
        <path fill-rule="evenodd" clip-rule="evenodd" d="M267.283 119.191C267.283 119.191 266.408 120.063 265.6 122.233C264.977 121.583 264.444 120.853 264.013 120.063C262.816 118.058 260.973 115.5 256.668 116.957C256.604 115.598 256.505 114.886 256.668 113.915C257.38 113.755 259.548 112.008 261.715 109.45C263.238 107.703 264.661 105.695 265.632 103.14C266.272 102.653 267.379 101.845 268.832 100.906C270.903 99.4831 273.395 97.5396 273.783 95.3721C272.813 95.7604 270.741 96.7311 267.633 96.5711C268.832 96.0207 270.675 95.4383 270.449 93.0425C270.935 92.7183 271.324 92.4921 271.324 92.4921C270.959 92.3705 270.575 92.3155 270.191 92.33C270.125 92.1039 270.029 91.7817 269.478 91.9417C268.928 92.1017 268.838 92.1039 268.766 92.33C268.54 92.3961 267.795 92.33 267.245 92.7204C266.694 93.1108 265.173 94.4015 264.591 94.6276C264.817 94.2393 265.139 93.6591 265.139 93.6591C265.139 93.6591 263.554 93.8191 262.421 94.2991C260.35 95.0116 257.956 96.3065 255.528 97.5673C255.754 97.1791 255.853 96.9273 256.013 96.8548C256.173 96.7823 256.563 96.6948 256.563 96.6287C256.563 96.5625 256.403 95.9887 256.499 95.7561C257.225 94.2185 258.081 92.7461 259.059 91.3551C260.192 89.8319 260.418 87.6644 260.418 87.6644L265.369 85.1727L279.285 81.9727L288.316 82.5231L287.183 88.7695L281.849 99.6751L277.286 109.61L272.074 115.696L267.285 119.191H267.283Z" fill="#543E26"/>
        <path fill-rule="evenodd" clip-rule="evenodd" d="M289.84 92.1604C289.84 92.1604 284.402 98.8911 282.881 99.9279C283.852 97.8564 289.84 85.5257 292.008 82.0953C291.523 81.707 290.875 81.707 292.396 75.6953C291.103 78.7353 290.649 80.3225 289.582 81.131C288.515 81.9396 288.383 81.6814 287.662 81.6814C287.798 81.4351 287.854 81.1525 287.822 80.8729C287.822 80.8729 283.259 80.3225 280.142 80.3225C277.025 80.3225 270.855 82.0057 267.423 83.3646C264.705 84.4974 263.184 84.4974 262.213 85.2078C261.243 86.0164 260.692 86.891 260.206 87.1172C259.817 87.3433 257.974 87.9257 257.552 88.5401C257.164 89.1801 256.517 89.899 256.517 90.0612C256.517 90.2233 256.355 90.4516 256.841 90.2873C257.001 90.2233 258.2 89.5748 259.559 88.7662C261.403 87.7316 263.636 86.5348 265.255 85.8222C269.883 83.9769 271.34 84.3012 273.409 83.9129C275.577 83.5246 278.685 82.618 280.754 82.618C282.826 82.554 286.743 82.618 287.649 82.7801C287.261 83.1044 286.937 83.4926 287.099 84.8516C287.099 85.2398 286.775 85.6601 286.459 86.5988C285.49 89.2526 283.645 93.6537 282.619 95.8873C281.196 98.9273 279.579 101.485 278.779 103.07C277.979 104.655 276.219 108.83 274.476 111.064C272.733 113.297 271.822 114.656 271.276 115.143C270.73 115.629 266.808 118.507 267.101 119.544C267.813 119.318 272.313 117.624 275.579 113.946C278.845 110.268 279.496 108.024 282.051 106.016C284.607 104.009 286.615 100.645 287.811 97.8628C288.814 95.2729 288.588 94.4644 289.849 92.1668L289.84 92.1604Z" fill="#806031"/>
        <path fill-rule="evenodd" clip-rule="evenodd" d="M172.655 142.397C172.655 142.397 171.942 145.341 170.323 146.798C168.738 148.223 165.922 149.452 165.6 151.848C165.212 154.241 168.416 155.44 168.416 155.44C168.416 155.44 166.666 158.32 166.666 160.488C166.666 162.721 166.602 163.142 166.829 165.277C166.572 165.442 166.354 165.66 166.189 165.917C166.189 165.917 166.349 167.989 167.936 169.281C169.523 170.574 170.88 171.353 171.688 171.029C171.812 171.292 171.92 171.563 172.013 171.839C172.013 171.839 173.212 168.797 174.02 166.143C174.829 163.425 175.541 163.811 175.863 160.155C176.185 156.498 179.703 150.22 179.703 150.22L182.103 144.855L178.189 141.812L172.655 142.395L172.655 142.397Z" fill="#B6903C"/>
        <path fill-rule="evenodd" clip-rule="evenodd" d="M179.935 147.672C179.128 148.501 178.383 149.388 177.706 150.326C176.671 151.751 175.863 153.044 174.341 153.596C172.82 154.149 171.85 154.144 171.946 155.668C172.042 157.191 173.467 157.835 174.275 158.612C175.15 159.42 175.863 160.779 175.474 162.302C175.959 162.076 176.833 161.816 177.642 160.069C178.45 158.321 184.106 147.674 184.106 147.674H179.935L179.935 147.672Z" fill="#685026"/>
        <path fill-rule="evenodd" clip-rule="evenodd" d="M202.239 123.105C202.239 123.105 202.724 121.812 202.239 120.874C201.753 119.903 198.809 119.579 197.352 118.478C195.831 117.345 193.986 116.558 192.465 117.055C192.691 116.505 193.597 115.306 192.853 115.048C192.14 114.821 189.489 116.018 188.776 116.569C188.064 117.119 186.444 117.765 186.122 118.156C185.8 118.546 185.248 119.289 184.923 118.964C184.599 118.738 184.439 118.156 183.889 118.478C183.338 118.8 180.689 120.97 180.2 122.233C179.712 123.496 178.613 126.312 175.313 129.514C172.012 132.716 170.587 134.789 171.558 135.986C172.529 137.183 172.983 136.31 173.145 137.345C173.27 138.361 173.215 139.391 172.983 140.387C172.595 142.07 171.948 143.656 172.821 143.98C175.055 144.692 177.224 143.34 177.708 143.754C178.679 144.626 177.158 147.766 179.456 148.381C181.787 149.021 184.085 147.83 184.085 147.83L192.563 143.267L200.718 138.964L204.891 130.711L202.653 123.818L202.227 123.105H202.239Z" fill="#D4B968"/>
        <path fill-rule="evenodd" clip-rule="evenodd" d="M194.239 142.815C194.239 142.815 192.814 140.648 194.564 138.736C196.313 136.825 198.802 136.018 199.773 134.821C199.588 134.593 199.341 134.425 199.061 134.337C199.705 133.184 200.688 132.257 201.877 131.681C201.392 131.197 200.744 130.809 200.033 130.809C198.446 130.809 197.473 131.779 196.019 131.779C194.596 131.779 194.433 131.067 194.433 131.067C194.433 131.067 196.829 130.841 196.601 129.772C196.375 128.639 195.961 128.639 195.961 128.639C195.961 128.639 200.588 126.719 201.397 125.695C202.205 124.671 202.109 123.461 202.271 122.977C202.82 122.977 206.024 121.294 207.319 122.006C208.614 122.719 207.707 124.66 207.707 124.66C207.707 124.66 211.626 121.714 213.623 118.826C215.37 118.988 216.183 117.629 217.463 117.629C219.05 117.629 221.541 119.796 222.026 124.424C222.35 127.077 222.834 128.598 222.35 133.292C222.124 135.946 222.188 141.612 222.99 144.424C223.538 146.657 224.833 146.431 224.833 146.431C224.635 147.112 224.241 147.719 223.7 148.178C222.826 148.987 222.73 151.124 222.826 151.933C222.955 152.524 223.117 153.107 223.312 153.68C223.312 153.68 222.277 154.877 222.017 155.687C221.791 156.496 220.724 157.046 219.946 157.046C219.167 157.046 219.557 156.98 218.523 157.046C217.488 157.113 217.164 157.273 216.515 157.046C215.867 156.82 215.383 156.56 215.643 154.486C215.869 152.415 207.649 147.594 207.649 147.594L194.209 142.804L194.239 142.815Z" fill="#CCA849"/>
        <path fill-rule="evenodd" clip-rule="evenodd" d="M178.803 163.267C178.803 163.267 181.747 167.184 193.851 167.184C199.611 167.184 201.619 166.633 202.811 166.309C204.106 165.985 208.96 164.078 213.847 158.315C218.248 153.106 217.277 150.97 217.277 150.97L214.717 150.582L206.397 151.715L181.779 162.2L178.792 163.267H178.803Z" fill="#585136"/>
        <path fill-rule="evenodd" clip-rule="evenodd" d="M187.831 164.239C187.831 164.239 177.345 166.571 177.345 159.936C177.345 153.464 183.818 146.667 185.437 145.47C187.12 144.271 191.133 142.91 191.133 142.91H200.81L202.653 147.798L201.845 158.347L187.831 164.237L187.831 164.239Z" fill="#252211"/>
        <path fill-rule="evenodd" clip-rule="evenodd" d="M197.508 144.886C197.508 144.886 195.503 143.04 190.939 145.526C186.376 148.011 182.686 153.206 182.459 157.922C182.233 162.095 185.89 165.204 191.586 165.366C195.825 165.526 198.383 165.041 199.678 164.726C199.353 164.337 197.67 162.234 197.67 162.234L197.51 144.888L197.508 144.886Z" fill="#C3B378"/>
        <path fill-rule="evenodd" clip-rule="evenodd" d="M195.535 145.921C195.535 145.921 195.05 145.533 193.615 146.31C192.418 146.95 190.671 148.641 189.312 149.838C188.437 150.551 187.887 150.873 187.392 151.423C185.384 153.819 183.701 157.736 184.674 159.677C185.647 161.618 188.849 163.852 197.005 162.331L195.511 145.923L195.535 145.921Z" fill="#E6D89C"/>
        <path fill-rule="evenodd" clip-rule="evenodd" d="M192.881 149.933C192.881 149.933 191.586 151.94 191.586 155.145C191.586 158.413 193.431 163.623 200.228 164.011C205.437 164.335 208.932 156.504 212.718 153.462C215.598 151.132 217.345 151.066 217.345 151.066C217.345 151.066 214.401 147.866 206.538 143.721C198.771 139.546 190.065 138.995 185.339 145.404C187.573 145.242 194.79 143.396 194.79 143.396L198.318 144.529L192.881 149.935L192.881 149.933Z" fill="#252211"/>
        <path fill-rule="evenodd" clip-rule="evenodd" d="M203.042 154.175C202.816 153.691 202.654 153.042 203.593 152.882C204.531 152.722 204.951 152.816 205.276 153.522C205.6 154.228 205.916 154.817 205.436 155.109C204.951 155.367 203.689 155.109 203.04 154.171L203.042 154.175ZM201.521 149.612C201.521 149.612 201.197 149.838 201.359 149.385C201.423 148.837 201.845 147.864 202.88 148.093C203.915 148.321 203.691 149.452 203.52 149.776C203.349 150.1 202.485 150.648 201.837 150.416C201.755 150.395 201.679 150.355 201.615 150.299C201.551 150.243 201.501 150.173 201.47 150.094C201.438 150.015 201.426 149.93 201.433 149.845C201.441 149.761 201.468 149.679 201.513 149.607L201.521 149.612Z" fill="#6F674D"/>
        <path fill-rule="evenodd" clip-rule="evenodd" d="M113.92 151.68C113.92 151.68 116.48 153.6 119.454 153.525C122.398 153.459 126.184 150.419 127.932 148.476C128.966 147.343 129.852 146.146 130.812 145.207C131.622 144.399 132.171 144.011 132.559 143.46C133.109 142.82 133.692 141.617 133.984 141.227C133.271 141.777 132.237 142.75 131.168 143.396C130.133 144.036 127.9 145.239 126.993 145.564C126.12 145.888 117.058 150.684 117.058 150.684L113.92 151.68Z" fill="#AC924C"/>
        <path fill-rule="evenodd" clip-rule="evenodd" d="M117.832 127.767C117.832 127.767 119.255 126.796 122.007 126.18C124.661 125.54 130.001 125.047 130.001 125.047L134.402 126.967L136.149 133.602L132.949 140.496L128.872 143.056L124.243 135.613L117.843 127.78L117.832 127.767Z" fill="#9F8E57"/>
        <path fill-rule="evenodd" clip-rule="evenodd" d="M112.073 133.691L110.55 134.828C110.55 134.828 110.94 134.115 111.262 131.948C111.584 129.78 113.27 124.504 115.73 121.462C118.189 118.42 118.125 118.582 118.125 118.582C117.899 118.541 117.666 118.548 117.443 118.604C117.22 118.659 117.011 118.762 116.83 118.904C117.155 118.188 119.226 115.628 121.298 114.348C123.369 113.068 124.178 112.664 126.345 113.708C128.513 114.751 129.063 115.293 130.65 115.229C132.237 115.165 133.594 113.481 133.594 113.481C133.594 113.481 133.918 114.516 132.722 116.912C131.525 119.308 126.799 124.193 126.799 124.193L116.96 130.924L112.073 133.697L112.073 133.691Z" fill="#EAC970"/>
        <path fill-rule="evenodd" clip-rule="evenodd" d="M119.352 126.957C119.352 126.957 126.473 127.928 128.641 125.923C128.705 126.149 128.965 126.149 128.965 126.311C128.947 126.433 128.89 126.546 128.803 126.633C129.038 126.595 129.277 126.574 129.515 126.569C129.8 126.654 130.093 126.708 130.39 126.731C130.629 126.726 130.867 126.704 131.102 126.665C131.08 126.826 131.025 126.981 130.942 127.12C130.858 127.259 130.747 127.38 130.616 127.476C130.94 127.476 131.256 127.54 131.256 127.798C131.256 128.056 131.32 128.835 130.932 128.997C130.61 129.086 130.268 129.062 129.961 128.931C129.987 129.543 130.153 130.142 130.448 130.68C131.088 131.877 132.453 133.24 134.288 132.847C134.288 132.847 135.256 135.177 131.179 140.355C130.631 141.067 130.046 142.038 129.336 142.846C129.055 143.458 128.841 144.098 128.696 144.756C128.696 144.756 135.591 142.102 137.564 136.05C139.572 129.965 139.96 123.979 139.572 118.381C139.506 116.794 139.248 115.663 138.859 114.853C137.889 112.845 135.169 113.17 134.07 114.302C132.483 115.89 129.829 119.836 126.14 122.554C122.386 125.272 122.226 125.754 119.344 126.957H119.352Z" fill="#D7BC6B"/>
        <path fill-rule="evenodd" clip-rule="evenodd" d="M110.81 135.696C110.81 135.696 109.451 136.504 108.738 139.536C108.026 142.642 109.378 146.429 110.161 147.625C110.944 148.822 112.721 152.093 116.408 152.255C117.32 152.25 118.222 152.063 119.061 151.704C120.348 151.114 121.555 150.364 122.654 149.471C124.241 148.274 125.534 147.239 125.372 147.141C124.984 146.979 115.599 139.212 115.599 139.212L112.07 135.273L110.808 135.7L110.81 135.696Z" fill="#585136"/>
        <path fill-rule="evenodd" clip-rule="evenodd" d="M119.681 148.575C119.681 148.575 121.59 148.415 122.723 147.703C123.856 146.99 116.088 139.289 116.088 139.289L116.639 147.609L119.681 148.575Z" fill="#453A25"/>
        <path fill-rule="evenodd" clip-rule="evenodd" d="M111.424 135.113C111.424 135.113 110.453 136.958 110.453 137.444C110.291 139.029 110.777 144.013 111.165 145.598C111.554 147.281 113.657 149.837 116.377 149.837C118.058 149.837 120.39 148.802 120.39 148.544C120.39 148.22 117.994 147.904 117.348 146.699C116.96 146.059 116.797 144.467 116.708 142.859C116.644 141.824 116.644 140.691 117.032 140.299C117.907 139.328 118.067 136.544 118.067 136.544L121.173 130.773H117.088L112.2 133.816L111.424 135.113Z" fill="#84754B"/>
        <path fill-rule="evenodd" clip-rule="evenodd" d="M110.227 136.896C110.227 136.896 113.427 132.657 116.312 131.684C119.196 130.711 120.486 131.296 120.486 131.296L118.803 135.601L116.408 138.255L116.57 139.613C116.57 139.613 116.179 143.206 118.575 145.698C120.971 148.189 122.75 148.093 123.787 148.093C124.823 148.093 127.799 147.219 129.32 143.626C130.679 140.262 131.812 135.946 129.094 131.62C126.438 127.315 121.747 127.148 120.841 127.148C119.934 127.148 112.815 127.505 110.227 136.889L110.227 136.896Z" fill="#252211"/>
        <path fill-rule="evenodd" clip-rule="evenodd" d="M192.395 151.293C191.198 150.743 192.331 147.379 193.528 146.342C194.724 145.305 196.245 144.11 198.902 143.946C199.87 143.882 200.809 144.496 200.649 145.145C200.423 146.342 198.739 148.025 197.218 149.222C195.115 150.873 193.754 151.908 192.395 151.293Z" fill="#F7F7E7"/>
        <path fill-rule="evenodd" clip-rule="evenodd" d="M127.67 132.945C128.544 132.881 129.677 133.585 129.903 134.533C130.129 135.567 129.353 137.639 127.67 137.639C126.311 137.639 125.598 135.956 125.598 135.471C125.613 135.073 125.725 134.685 125.922 134.339C125.986 134.24 126.149 133.108 127.67 132.945Z" fill="#F8F6DE"/>
        <path fill-rule="evenodd" clip-rule="evenodd" d="M115.049 133.691C115.049 133.691 112.815 134.726 111.78 136.891C111.041 138.49 110.817 140.28 111.14 142.011C111.302 142.82 112.111 144.825 112.661 145.538C113.212 146.25 113.956 146.737 114.507 146.67C115.057 146.604 116.188 145.149 116.188 144.277C116.188 143.404 116.254 139.714 117.321 137.706C118.259 135.701 115.055 133.694 115.055 133.694L115.049 133.691Z" fill="#D4C38B"/>
        <path fill-rule="evenodd" clip-rule="evenodd" d="M115.373 133.526C114.984 133.752 114.338 134.077 114.498 134.497C114.66 134.885 116.019 135.137 116.505 136.084C117.056 137.055 117.056 138.089 116.894 138.576C117.316 138.375 117.7 138.1 118.026 137.765C118.739 136.957 119.611 135.858 120.356 135.858C120.842 135.858 121.327 136.084 121.781 136.084C122.494 136.084 123.204 135.858 123.302 135.113C123.462 134.143 121.943 133.268 121.069 133.43C121.231 132.79 121.457 131.845 120.744 131.197C120.032 130.548 117.8 131.683 117.314 132.007C116.827 132.332 115.373 133.528 115.373 133.528L115.373 133.526Z" fill="#E2D59D"/>
        <path fill-rule="evenodd" clip-rule="evenodd" d="M166.796 201.52L171.586 200.105L172.945 201.076C172.945 201.076 173.913 203.148 175.436 203.406C174.95 204.44 173.687 205.326 173.753 206.06C173.819 206.793 174.466 207.355 174.466 207.355C174.466 207.355 170.161 214.473 178.641 221.648C176.633 222.456 174.077 223.568 172.719 224.208C173.687 224.434 175.759 224.848 176.633 225.633C177.508 226.418 177.508 226.668 178.316 227.154C179.125 227.64 179.609 228.287 179.449 228.577C178.899 228.253 177.053 227.284 176.731 228.189C176.409 229.093 168.738 228.739 168.738 228.739L155.793 231.231C155.793 231.231 156.277 229.936 154.918 228.739C153.333 227.316 151.392 228.803 149.32 227.218C146.602 225.147 146.504 222.751 145.632 221.846C146.504 221.296 148.285 220.487 152.524 219.926C152.362 219.602 151.812 218.631 152.136 217.759C152.524 216.626 154.141 215.913 153.657 214.559C154.37 214.397 154.692 214.397 156.473 212.163C158.156 209.929 159.191 209.445 160.486 209.283C161.781 209.121 162.557 209.283 164.953 207.049C166.634 205.464 166.086 204.105 166.086 204.105C166.086 204.105 167.185 203.749 166.799 201.516L166.796 201.52Z" fill="#CBAC5A"/>
        <path fill-rule="evenodd" clip-rule="evenodd" d="M152.655 202.242C152.719 201.918 152.979 201.756 154.726 201.918C156.474 202.08 167.541 200.883 170.552 200.721C173.594 200.495 184.305 200.655 189.517 201.756C194.729 202.857 200.002 204.152 202.558 204.798C205.118 205.511 205.924 205.766 205.826 206.091C205.762 206.415 205.186 206.731 204.856 206.641C204.534 206.577 196.054 203.987 193.434 203.441C190.814 202.895 181.749 201.434 176.794 201.521C172.166 201.587 170.321 201.457 166.406 201.91C162.49 202.396 156.017 203.042 154.076 202.784C152.156 202.558 152.553 202.558 152.651 202.234L152.655 202.242Z" fill="#D6BC6F"/>
        <path fill-rule="evenodd" clip-rule="evenodd" d="M178.705 227.607C178.705 227.607 185.34 231.199 187.735 235.6C189.482 238.869 186.701 240.488 186.701 240.488C186.701 240.488 190.455 240.488 189.969 242.559C189.743 243.852 183.496 247.346 179.321 249.192C175.083 251.037 175.245 250.941 173.173 251.263C171.166 251.588 165.664 250.623 164.531 252.234C163.398 253.845 163.891 255.504 164.207 255.762C164.531 255.989 167.153 256.313 167.153 256.313C167.153 256.313 166.603 257.834 161.167 257.996C155.731 258.158 154.37 258.544 154.046 259.129C153.722 259.677 155.08 259.355 157.574 259.769C160.066 260.157 163.56 260.409 163.56 260.409C163.56 260.409 162.428 261.379 159.484 262.156C156.117 263.029 150.842 263.839 149.256 264.81C150.065 265.36 151.264 266.169 151.816 266.233C150.458 266.557 148.546 267.27 148.224 267.528C148.708 267.852 149.357 268.24 149.357 268.24C149.357 268.24 146.637 271.508 145.052 272.319C143.467 273.13 134.34 277.367 131.2 276.558C123.368 274.487 122.398 265.911 120.488 265.264C117.608 264.294 116.25 266.233 113.692 264.874C114.825 264.065 115.441 263.581 116.638 263.031C115.343 262.391 108.644 258.143 108.644 258.143C107.944 256.616 107.166 255.126 106.315 253.678C105.02 251.445 103.115 248.466 101.685 245.845C98.5792 240.085 98.4171 237.431 95.6011 234.163C96.0875 233.523 97.7685 233.612 97.7685 233.612L121.363 241.38L163.2 242.591L174.08 227.059L178.707 227.609L178.705 227.607Z" fill="#DFC677"/>
        <path fill-rule="evenodd" clip-rule="evenodd" d="M116.732 251.293C116.985 251.574 117.279 251.815 117.605 252.006C118.415 252.556 119.612 253.205 120.421 254.173C120.745 253.689 121.554 252.814 122.981 254.173C124.408 255.532 126.181 254.564 127.284 254.886C128.416 255.276 128.48 255.436 128.48 255.436C128.48 255.436 129.12 254.886 130.552 254.304C131.427 253.979 132.461 253.753 133.594 253.431C134.629 253.205 135.762 252.881 136.54 252.881C137.253 253.365 139.808 256.081 150.068 252.072C159.744 248.317 161.976 247.897 163.595 248.477C163.757 248.089 163.919 247.345 166.411 247.443C166.411 246.408 164.34 242.88 164.34 242.88L152.916 238.965H146.667L127.93 242.395L117.547 248.32L116.739 251.306L116.732 251.293Z" fill="#C4A859"/>
        <path fill-rule="evenodd" clip-rule="evenodd" d="M110.485 244.724C110.485 244.724 110.711 246.472 113.301 248.317C115.861 250.16 116.665 251.261 116.665 251.261C116.665 251.261 117.152 250.621 117.54 249.968C117.928 249.256 118.253 248.447 118.899 248.221C120.194 247.671 123.138 248.705 123.786 248.543C124.337 248.383 124.175 247.25 124.757 247.25C126.116 247.184 126.989 248.123 127.475 248.123C127.961 248.123 129.156 248.059 129.318 247.801C129.48 247.543 129.544 244.855 131.39 243.56C133.397 242.137 135.857 242.751 136.51 243.075C136.51 243.56 136.574 244.759 137.869 244.823C139.164 244.887 139.292 244.66 140.429 245.049C141.566 245.437 142.92 244.985 143.535 246.892C144.085 246.732 145.38 246.57 145.056 244.724C145.696 244.24 146.255 243.916 147.616 242.007C147.94 241.522 148.488 240.972 148.911 240.259C150.044 240.259 151.402 240.033 153.214 241.618C152.663 242.007 152.339 242.258 152.179 242.653C152.653 243.122 153.085 243.631 153.472 244.174C153.958 244.814 154.282 245.599 154.897 245.761C156.256 246.149 158.489 245.599 160.981 245.761C163.377 245.923 165.382 246.796 166.257 247.346C166.581 247.186 166.581 247.12 167.39 247.282C168.198 247.444 168.813 247.508 167.94 246.474C168.424 246.7 168.975 247.186 169.461 246.7C169.948 246.213 170.334 245.503 171.693 245.341C173.052 245.179 173.538 245.405 174.088 243.982C174.801 242.235 172.341 242.235 172.341 242.235C172.341 242.235 173.474 241.198 174.737 239.839C176.258 238.416 178.005 236.571 178.425 234.305C179.138 230.13 175.061 229.582 175.061 229.582L155.287 235.666L131.112 234.467L110.498 244.727L110.485 244.724Z" fill="#927D49"/>
        <path fill-rule="evenodd" clip-rule="evenodd" d="M92.7188 187.607C92.7188 187.607 92.0788 188.416 91.6841 190.325C91.2894 192.234 91.458 192.008 91.1337 193.367C90.8094 194.726 86.8265 208.254 88.3198 212.817C89.8132 217.38 92.3988 219.063 94.0158 222.752C94.3401 223.56 94.6558 224.047 94.8244 224.759C95.3748 227.153 94.8905 228.998 95.5369 231.394C95.763 232.203 96.3476 233.141 97.2201 234.112C99.1401 236.117 102.27 238.027 103.62 239.386C105.527 241.393 108.247 245.472 111.71 245.858C113.555 246.084 116.177 245.308 118.344 244.015C120.264 242.816 121.45 241.135 123.464 240.175C124.887 239.462 126.408 239.204 127.767 238.88C130.583 238.33 133.141 238.24 134.662 238.556C136.992 239.042 142.494 240.725 145.542 240.725C147.924 240.687 150.293 240.361 152.597 239.755C157.224 238.396 162.822 236.064 166.513 235.029C168.68 234.389 170.427 234.221 172.209 233.832C175.251 233.12 177.807 232.149 179.264 230.304C178.293 229.171 177.096 227.424 170.622 227.488C163.277 227.65 154.797 231.727 150.622 232.375C146.447 233.024 144.635 233.572 139.974 231.889C135.405 230.189 135.253 229.064 135.253 229.064C135.253 229.064 130.455 225.709 128.448 217.154C126.44 208.599 128.448 202.366 133.659 196.441C135.018 194.92 134.694 193.561 134.694 193.561C134.694 193.561 138.125 188.934 137.186 184.601C136.151 180.296 129.517 181.171 129.517 181.171L92.7209 187.607H92.7188Z" fill="#6E6342"/>
        <path fill-rule="evenodd" clip-rule="evenodd" d="M98.2526 202.008C97.9673 202.544 97.8331 203.148 97.8643 203.755C97.9283 204.627 98.1886 205.76 100.808 208.318C103.042 210.549 102.556 213.041 102.556 213.041C102.556 213.041 103.68 213.267 106.73 211.84C109.126 210.707 109.93 212.715 109.93 212.715C110.628 212.349 111.384 212.108 112.164 212.002C112.871 211.937 113.555 211.719 114.169 211.362C114.169 211.362 116.985 214.242 119.445 215.601C121.679 216.8 122.974 217.608 124.074 216.8C125.109 216.087 125.109 214.63 125.043 213.984C124.786 213.387 124.461 212.822 124.074 212.301C123.362 211.266 122.229 210.067 122.154 209.101C121.992 206.869 123.838 204.214 123.447 203.567C123.057 202.921 121.604 202.759 118.011 204.054C114.291 205.282 98.2376 202.014 98.2376 202.014L98.2526 202.008Z" fill="#39331F"/>
        <path fill-rule="evenodd" clip-rule="evenodd" d="M106.73 216.474C106.73 216.474 104.887 214.727 105.534 206.247C106.316 206.236 107.097 206.312 107.863 206.473C107.863 206.473 108.868 213.044 106.73 216.474Z" fill="#292311"/>
        <path fill-rule="evenodd" clip-rule="evenodd" d="M93.5932 181.133C93.8504 180.943 94.089 180.729 94.3058 180.493C93.6658 181.69 90.7111 186.48 93.1068 194.021C95.5026 201.528 101.521 207.126 108.932 207.386C116.343 207.646 120.239 204.02 124.693 198.584C126.44 196.417 128.448 193.697 130.227 191.853C132.881 188.971 134.952 188.163 134.952 185.381C134.952 179.685 129.126 177.127 120.55 174.571C111.974 172.016 104.239 172.331 100.226 174.081C96.3111 175.988 94.6279 177.995 93.5911 181.136L93.5932 181.133Z" fill="#252211"/>
        <path fill-rule="evenodd" clip-rule="evenodd" d="M121.133 219.028L121.773 218.704C121.773 218.704 121.933 216.144 122.97 216.212C124.004 216.374 124.491 217.736 124.392 218.22C124.328 218.704 124.07 219.515 123.034 219.417C121.675 219.449 121.126 219.028 121.126 219.028H121.133Z" fill="#3F3824"/>
        <path fill-rule="evenodd" clip-rule="evenodd" d="M118.253 208.156C118.253 208.156 118.893 207.929 119.676 208.706C120.316 208.706 123.106 208.382 123.981 208.932C124.855 209.483 125.113 209.967 125.113 209.967C125.113 209.967 121.845 210.68 120.064 209.967C118.253 209.353 118.253 208.156 118.253 208.156Z" fill="#2D2815"/>
        <path fill-rule="evenodd" clip-rule="evenodd" d="M132.655 208.641C132.655 208.479 130.908 207.282 129.063 206.892C128.738 206.828 128.672 207.054 128.423 207.054C128.261 206.99 128.197 206.504 128.197 206.504L127.147 207.056C127.147 207.056 126.985 207.283 127.535 207.696C128.02 208.085 128.83 208.409 129.056 209.055C129.282 209.701 129.282 209.928 129.381 210.026C129.445 210.09 130.577 210.026 131.128 209.701C131.678 209.377 132.715 208.848 132.649 208.635L132.655 208.641Z" fill="#82764F"/>
        <path fill-rule="evenodd" clip-rule="evenodd" d="M116.312 215.213C116.312 215.213 116.634 212.982 118.803 212.884C121.035 212.722 121.457 214.889 121.457 214.889L120.162 216.183C120.162 216.151 119.192 214.793 116.322 215.213H116.312Z" fill="#2D2816"/>
        <path fill-rule="evenodd" clip-rule="evenodd" d="M130.39 205.596C130.39 205.596 129.191 206.891 126.539 207.279C126.313 206.955 125.826 206.308 126.539 205.274C127.251 204.239 128.06 203.914 128.868 204.237C129.225 204.294 129.558 204.453 129.828 204.694C130.097 204.935 130.292 205.248 130.39 205.596Z" fill="#574F35"/>
        <path fill-rule="evenodd" clip-rule="evenodd" d="M135.275 207.184C135.341 206.86 135.115 206.796 135.275 206.633C135.435 206.471 136.312 206.149 136.474 206.309C136.538 206.375 136.474 206.633 136.474 206.949C136.474 207.265 136.474 207.589 136.312 207.822C136.086 208.146 135.439 208.308 135.115 208.212C134.791 208.116 134.727 207.662 134.727 207.572C134.887 207.508 135.275 207.346 135.275 207.184ZM140.8 203.689C140.8 203.527 141.351 203.203 141.675 203.203C142.159 203.203 142.159 203.591 142.225 203.689C142.385 203.753 142.385 203.623 142.548 203.916C142.71 204.208 142.938 204.724 142.774 205.048C142.609 205.373 141.965 205.597 141.805 205.533C141.579 205.37 140.867 203.916 140.8 203.689Z" fill="#82764F"/>
        <path fill-rule="evenodd" clip-rule="evenodd" d="M129.677 207.928C129.677 207.928 130.389 208.088 131.36 208.899C131.036 209.125 130.549 209.383 130.549 209.383C130.549 209.383 130.485 208.638 129.677 207.926L129.677 207.928Z" fill="#6E6342"/>
        <path fill-rule="evenodd" clip-rule="evenodd" d="M128.092 200.809C127.93 200.649 128.576 200.26 128.964 200.324C129.353 200.388 129.515 200.649 129.935 200.713C130.355 200.777 130.421 200.551 130.575 200.388C130.729 200.226 131.288 200.324 131.384 200.388C131.443 200.46 131.498 200.535 131.546 200.615C131.552 200.492 131.585 200.371 131.64 200.261C131.695 200.151 131.773 200.053 131.868 199.975C131.992 199.883 132.135 199.821 132.287 199.793C132.438 199.765 132.594 199.772 132.742 199.812C132.806 200.039 133.131 200.847 133.067 201.009C133.003 201.171 132.032 201.4 131.868 201.235C132.03 201.626 132.742 202.434 132.838 202.594C132.934 202.754 132.126 203.145 131.804 203.081C131.352 203.049 128.567 201.43 128.083 200.815L128.092 200.809ZM132.331 195.437C132.271 195.274 132.156 195.137 132.006 195.049C131.78 194.985 131.036 195.049 131.036 195.437C131.036 195.825 131.676 197.997 132.395 199.128C133.205 200.26 133.754 201.197 134.304 201.457C134.477 201.536 134.673 201.546 134.853 201.486C135.033 201.426 135.184 201.3 135.275 201.133C135.339 200.971 135.501 199.774 135.437 196.958C135.373 194.142 135.275 191.424 135.113 191.262C134.951 191.1 134.304 191.102 134.078 191.424C133.852 191.746 132.395 194.953 132.329 195.437H132.331Z" fill="#585136"/>
        <path fill-rule="evenodd" clip-rule="evenodd" d="M129.451 212.005C129.451 212.005 128.318 211.293 127.217 211.779C126.183 212.266 126.247 214.175 126.247 214.175C126.479 214.266 126.731 214.299 126.979 214.271C127.228 214.243 127.465 214.154 127.672 214.013C128.384 213.529 129.289 212.72 129.451 212.008L129.451 212.005Z" fill="#574F35"/>
        <path fill-rule="evenodd" clip-rule="evenodd" d="M131.586 214.564C131.522 213.924 130.946 213.924 130.946 213.593C130.985 213.435 131.077 213.295 131.206 213.195C131.334 213.095 131.493 213.041 131.656 213.043C131.98 213.043 132.296 213.431 132.693 213.683C133.081 213.909 133.663 214.323 133.727 214.815C133.791 215.308 133.087 216.659 132.304 216.659C131.522 216.659 131.754 215.201 131.592 214.555L131.586 214.564ZM137.832 213.689C137.832 213.689 136.537 214.077 136.633 213.689C136.729 213.301 137.023 213.205 137.444 213.205C137.657 212.981 137.944 212.842 138.252 212.814C138.428 212.806 138.601 212.863 138.736 212.976C138.736 212.976 139.611 212.588 139.869 212.814C140.127 213.04 139.935 213.04 140.095 213.301C140.299 213.59 140.433 213.922 140.486 214.271C140.486 214.529 139.515 215.08 138.736 214.984C137.832 214.79 137.992 213.851 137.832 213.689ZM145.371 212.232C145.371 212.232 145.759 212.458 145.437 212.718C145.211 212.944 144.078 213.358 143.106 213.431C142.135 213.431 141.262 213.591 141.262 213.269C141.262 212.947 142.071 212.298 142.555 212.136C142.652 212.014 142.776 211.916 142.916 211.849C143.056 211.782 143.21 211.747 143.366 211.748C143.754 211.748 145.273 211.585 145.695 211.521C146.084 211.455 146.408 211.681 146.18 212.006C146.084 212.232 145.371 212.232 145.371 212.232ZM147.605 202.239C147.605 202.239 147.118 203.274 146.57 203.274C146.02 203.21 146.02 203.048 146.02 202.886C146.02 202.659 146.57 202.077 146.504 201.915C146.344 201.915 145.954 201.915 146.02 201.527C146.02 201.202 146.57 200.814 147.054 200.887C147.42 200.586 147.876 200.416 148.349 200.402C148.9 200.402 149.384 200.562 149.384 200.887C149.384 201.211 148.744 201.921 148.509 202.086C148.251 202.344 147.927 202.512 147.605 202.246L147.605 202.239ZM140.226 221.365C140.226 221.365 139.586 221.431 139.586 221.753C139.586 221.915 139.746 221.915 139.974 221.819C140.105 221.812 140.236 221.79 140.362 221.753C140.426 221.819 140.426 222.141 140.912 222.141C141.312 222.087 141.697 221.955 142.045 221.753C142.434 221.593 142.758 221.429 142.758 221.113C142.596 220.563 142.271 220.302 141.787 220.302C141.539 220.287 141.292 220.343 141.075 220.465C141.075 220.465 140.912 220.14 140.362 220.465C139.812 220.789 139.876 220.789 140.038 220.951C140.328 221.209 140.232 221.378 140.232 221.378L140.226 221.365ZM136.569 224.731C136.569 224.569 137.378 224.245 137.604 224.343C137.83 224.407 138.476 225.636 138.476 225.766C138.476 225.928 137.668 226.316 137.343 226.316C137.019 226.316 136.471 225.766 136.471 225.676C136.471 225.612 136.859 225.516 136.859 225.45C136.955 225.29 136.569 224.9 136.569 224.738L136.569 224.731ZM134.009 220.006C134.171 219.942 134.171 219.78 134.397 219.618C134.468 219.57 134.549 219.54 134.633 219.529C134.717 219.518 134.803 219.526 134.884 219.554C134.941 219.452 135.02 219.364 135.115 219.296C135.21 219.229 135.319 219.183 135.434 219.163C135.822 219.099 136.147 219.163 136.074 219.325C136.074 219.812 136.398 220.134 136.398 220.522C136.398 220.91 136.172 221.397 135.364 221.721C134.555 221.947 133.454 221.947 133.292 221.883C133.13 221.819 132.968 221.171 133.13 220.846C133.292 220.522 133.744 220.168 134.005 220.006H134.009Z" fill="#82764F"/>
        <path fill-rule="evenodd" clip-rule="evenodd" d="M135.04 220.227C135.04 220.227 134.49 220.551 134.49 220.713C134.441 220.869 134.419 221.033 134.426 221.197C134.426 221.293 135.138 221.133 135.234 221.035C135.266 220.971 135.04 220.395 135.04 220.227Z" fill="#6E6342"/>
        <path fill-rule="evenodd" clip-rule="evenodd" d="M130.227 218.704C130.549 218.77 131.1 218.704 131.52 218.866C131.844 219.029 132.07 219.353 131.746 219.741C131.422 220.129 131.106 220.712 130.387 220.613C129.578 220.549 128.802 220.129 128.802 219.805C128.788 219.6 128.816 219.394 128.882 219.2C128.949 219.005 129.054 218.826 129.19 218.672C129.514 218.414 129.674 218.576 130.225 218.704H130.227Z" fill="#585136"/>
        <path fill-rule="evenodd" clip-rule="evenodd" d="M129.839 219.027C129.839 219.027 128.804 219.836 128.544 220.226C128.219 220.615 126.634 222.62 126.15 223.04C126.311 222.756 126.494 222.486 126.698 222.232C126.058 222.641 125.578 223.258 125.339 223.979C124.951 225.178 127.509 225.824 129.19 226.311C130.871 226.797 131.522 226.951 131.522 226.951C130.903 226.02 130.372 225.035 129.935 224.007C129.295 222.485 128.964 222.323 129.384 221.611C129.708 220.898 130.195 220.414 130.195 219.864C130.001 219.352 129.839 219.027 129.839 219.027Z" fill="#574F35"/>
        <path fill-rule="evenodd" clip-rule="evenodd" d="M92.9449 221.588C93.1805 221.631 93.4219 221.631 93.6575 221.588C94.1417 221.522 99.1913 219.668 104.467 220.001C108.417 220.24 112.331 220.883 116.149 221.921C122.784 223.668 131.036 227.131 136.375 229.106C137.798 229.654 139.191 230.627 140.215 231.013C144.294 232.601 144.454 232.601 146.85 233.021C149.666 233.409 152.546 232.47 155.556 231.824C159.245 231.013 165.555 230.625 171.089 229.817C172.878 229.569 174.643 229.168 176.364 228.62C176.364 228.62 171.963 233.021 161.412 234.606C157.147 235.254 152.813 235.308 148.533 234.768C145.167 234.444 142.935 233.957 141.252 233.473C139.343 232.923 135.426 231.466 130.605 230.273C127.238 229.398 123.484 228.752 119.181 227.943C108.565 226 97.0452 223.768 92.9407 221.601L92.9449 221.588Z" fill="#252211"/>
        <path fill-rule="evenodd" clip-rule="evenodd" d="M81.0341 201.586C78.4741 203.753 75.7584 205.825 73.1067 207.83L65.1131 213.972C62.3953 215.977 59.7414 218.049 57.0214 220.056C54.3014 222.064 51.5857 223.971 48.7014 225.816C51.2614 223.649 53.9771 221.641 56.695 219.668C59.4129 217.695 62.231 215.76 64.8528 213.759L72.8464 207.608C75.5963 205.603 78.2501 203.532 81.0341 201.59L81.0341 201.586ZM66.8923 224.24C66.8923 224.24 69.7723 221.844 73.3648 218.48C77.8299 214.307 83.2997 208.965 85.0469 207.997L66.8902 224.242L66.8923 224.24Z" fill="#CFB66C"/>
        <path fill-rule="evenodd" clip-rule="evenodd" d="M66.8923 224.237C68.3174 222.814 69.8385 221.423 71.3595 220.062L73.6891 218.057C74.4017 217.417 75.2123 216.698 75.9227 215.985C77.3457 214.562 78.7387 213.039 80.1617 211.584C80.8669 210.853 81.6126 210.161 82.3953 209.513C82.7865 209.167 83.2211 208.873 83.6881 208.638C84.0785 208.412 84.4987 207.998 85.047 207.926C84.7249 208.412 84.3366 208.638 84.0123 209.059C83.6241 209.383 83.2998 209.771 82.9777 210.093C82.2651 210.806 81.4566 211.452 80.7441 212.101C79.223 213.396 77.6379 214.661 76.1169 216.015C74.5958 217.37 73.1729 218.831 71.6497 220.19C70.0006 221.583 68.4795 222.942 66.8923 224.243L66.8923 224.237ZM86.2459 211.292C86.2459 211.292 75.6966 221.617 73.527 223.298L86.2459 211.292Z" fill="#CFB66C"/>
        <path fill-rule="evenodd" clip-rule="evenodd" d="M86.2465 211.293C85.2975 212.392 84.28 213.429 83.2001 214.399L80.0001 217.441C78.9655 218.476 77.9927 219.513 76.894 220.547C75.7612 221.518 74.7265 222.467 73.5276 223.363L76.6337 220.321C77.6705 219.287 78.8033 218.414 79.9041 217.377L83.0103 214.335C84.0769 213.268 85.1137 212.232 86.2465 211.293ZM86.7308 216.891C85.7584 219.605 84.6126 222.253 83.3004 224.82C80.5825 230.258 76.5057 237.053 74.7244 240.518L86.7308 216.891Z" fill="#CFB66C"/>
        <path fill-rule="evenodd" clip-rule="evenodd" d="M86.7303 216.895C86.7303 218.091 86.406 219.128 86.0177 220.163C85.6393 221.198 85.2078 222.214 84.7249 223.205C84.2385 224.176 83.6881 225.213 83.1377 226.151C82.5873 227.09 81.9409 228.059 81.4545 229.031L78.1863 234.792C77.0535 236.712 75.9527 238.642 74.7559 240.488C75.5644 238.416 76.6652 236.475 77.702 234.565C78.8348 232.645 79.8695 230.725 80.902 228.739C81.4061 227.749 81.8597 226.735 82.2609 225.699C82.7452 224.662 83.2295 223.692 83.6199 222.753C84.1041 221.718 84.4924 220.745 84.9788 219.809C85.5271 218.804 85.9815 217.833 86.726 216.895H86.7303Z" fill="#CFB66C"/>
        <path fill-rule="evenodd" clip-rule="evenodd" d="M98.2523 243.43C98.2523 243.43 95.0523 247.669 95.3723 253.04C96.2449 250.226 97.3457 245.921 98.2523 243.43ZM101.294 247.679C101.294 247.679 100.162 259.199 99.223 264.863C100.55 258.316 100.808 258.866 101.294 247.679ZM122.491 265.544C122.491 265.544 117.702 279.624 117.604 283.536C118.641 279.513 120.646 271.293 122.491 265.533L122.491 265.544Z" fill="#DEC270"/>
        <path fill-rule="evenodd" clip-rule="evenodd" d="M133.69 242.559C133.69 242.559 141.457 255.374 147.284 266.311C145.707 260.807 142.08 250.712 133.69 242.559Z" fill="#CBAF59"/>
        <path fill-rule="evenodd" clip-rule="evenodd" d="M154.564 261.426C158.829 268.964 162.675 276.732 166.084 284.694C165.438 279.192 163.688 269.776 154.564 261.426Z" fill="#E3C677"/>
        <path fill-rule="evenodd" clip-rule="evenodd" d="M215.922 280.32C217.215 279.512 219.773 275.108 222.007 274.01C224.238 272.877 225.921 272.651 227.929 270.417C229.934 268.085 230.489 266.663 234.886 264.819C241.036 262.163 236.806 258.733 236.806 258.733C237.483 258.068 238.207 257.452 238.973 256.89C240.56 255.693 242.403 254.236 242.243 251.678C242.017 247.375 241.209 241.129 237.68 237.504C241.111 236.792 247.679 236.307 251.76 235.273C256.483 234.074 258.653 232.391 258.653 232.391C258.653 232.391 255.935 227.763 260.336 223.104C264.737 218.445 268.33 215.661 270.984 210.449C267.941 210.061 263.304 208.444 251.468 212.941C252.107 213.242 252.724 213.587 253.313 213.976C253.313 213.976 246.032 215.983 243.378 218.217C238.749 222.131 238.167 225.336 233.151 227.731C228.136 230.127 223.086 229.479 218.913 231.42C214.741 233.361 214.124 235.012 212.601 235.725C212.925 236.113 212.537 236.76 213.151 237.31C212.763 237.86 210.497 241.549 208.2 241.549C208.426 242.424 210.367 243.07 210.367 243.07C210.367 243.07 208.944 244.107 205.32 244.365C207.163 246.285 208.912 248.378 213.734 251.42C213.345 252.228 211.726 253.427 212.375 254.948C213.087 256.469 214.935 258.541 222.31 260.224C218.555 260.384 214.156 261.259 208.23 260.45C202.307 259.738 201.337 259.317 197.68 260.224C198.069 260.612 199.103 260.612 200.01 261.647C199.039 261.711 192.955 260.935 190.884 263.655C188.716 266.468 187.777 271.098 187.94 274.204C186.807 274.754 185.706 275.725 186.256 277.732C186.807 279.74 189.687 280.386 191.532 281.647C193.375 283.006 193.537 283.49 195.287 283.168C197.13 282.78 199.848 280.937 201.435 280.937C203.022 280.937 204.153 282.133 204.153 282.133C204.153 282.133 208.458 280.062 208.878 280.45C209.266 280.839 208.942 283.33 209.362 283.719C209.789 284.011 214.638 281.131 215.933 280.32H215.922Z" fill="#ECD592"/>
        <path fill-rule="evenodd" clip-rule="evenodd" d="M310.001 150.812C289.775 98.5791 239.774 88.9023 239.774 88.9023L97.1198 88.9023L97.6702 142.106H126.08L126.08 260.909H97.1177L97.1177 314.016H235.825C269.254 314.016 296.051 280.422 296.051 280.422C338.963 219.518 309.999 150.812 309.999 150.812H310.001ZM236.569 244.629C236.569 244.629 225.689 260.326 213.852 260.326H190.172L189.61 142.236H220C220 142.236 234.08 145.18 243.917 173.043C243.917 173.043 256.958 212.936 236.569 244.629Z" fill="white" fill-opacity="0.8"/>
    </g>
    <defs>
        <clipPath id="clip0">
            <rect width="400" height="400" fill="white"/>
        </clipPath>
    </defs>
</svg>
