<svg width="120" height="120" viewBox="0 0 120 120" fill="none" xmlns="http://www.w3.org/2000/svg">
    <g clip-path="url(#clip0)">
        <path d="M60 120C93.1371 120 120 93.1371 120 60C120 26.8629 93.1371 0 60 0C26.8629 0 2.81253e-06 26.8629 6.28195e-06 60C9.75138e-06 93.1371 26.8629 120 60 120Z" fill="#988430"/>
        <path d="M60 118.078C92.0756 118.078 118.078 92.0756 118.078 60C118.078 27.9243 92.0756 1.92188 60 1.92188C27.9243 1.92188 1.92188 27.9243 1.92188 60C1.92188 92.0756 27.9243 118.078 60 118.078Z" fill="#7A6A2A"/>
        <path d="M59.9999 116.853C91.3997 116.853 116.854 91.3987 116.854 59.9989C116.854 28.5991 91.3997 3.14453 59.9999 3.14453C28.6001 3.14453 3.14551 28.5991 3.14551 59.9989C3.14552 91.3987 28.6001 116.853 59.9999 116.853Z" fill="#BA9F33"/>
        <path fill-rule="evenodd" clip-rule="evenodd" d="M26.2332 53.5913C25.8933 53.2809 25.5343 52.9699 25.2041 52.6595C24.8738 52.3491 24.5346 52.038 24.1948 51.7276L23.1849 50.7677C23.0197 50.6025 22.845 50.4573 22.6799 50.2915C22.5148 50.1462 22.3208 49.9811 22.1557 49.8352C20.8156 48.5635 19.4677 47.2918 18.1461 46.0195C19.5151 47.272 20.8553 48.5155 22.2242 49.7865L22.6997 50.2627C22.8649 50.4272 23.0396 50.5731 23.2047 50.7382L24.214 51.67C24.5538 51.9804 24.8841 52.2915 25.2239 52.63C25.5637 52.9686 25.894 53.2803 26.2338 53.59L26.2332 53.5913ZM8.44693 53.3993C8.44693 53.3993 13.3205 53.9036 15.6994 54.2435C17.9029 54.5545 24.7964 55.6124 24.7964 55.6124L8.44693 53.3993ZM8.44693 53.3993C9.81589 53.5158 11.1848 53.6611 12.5538 53.807C13.2527 53.8748 13.9228 53.9523 14.5929 54.0201L15.6213 54.1372C15.9612 54.1852 16.2914 54.2339 16.6312 54.2825L20.7093 54.9327L22.7477 55.2726C23.4178 55.3891 24.0879 55.5158 24.7868 55.6323C24.1167 55.5644 23.4178 55.4671 22.7477 55.3699L20.7093 55.0787L16.6312 54.4771C16.2914 54.4284 15.9612 54.36 15.6213 54.312L14.5922 54.1935C13.9221 54.1257 13.2233 54.0284 12.5532 53.9504C11.1842 53.7859 9.81525 53.6105 8.44629 53.3974L8.44693 53.3993ZM24.3113 56.8822C24.3113 56.8822 19.1074 58.2031 17.35 58.7081C15.622 59.1836 10.3887 60.7759 10.3887 60.7759L24.3106 56.8828L24.3113 56.8822Z" fill="#CFB66C"/>
        <path fill-rule="evenodd" clip-rule="evenodd" d="M24.3106 56.8828C23.1554 57.2227 22.0066 57.5529 20.8348 57.8639L17.3589 58.7958C16.2037 59.1356 15.0549 59.4659 13.9029 59.8057L12.1749 60.2812C11.6021 60.4463 11.0197 60.5916 10.4277 60.7574C10.9999 60.5654 11.5829 60.3689 12.1557 60.2038L13.8837 59.6508C15.0389 59.2911 16.1877 58.9513 17.3397 58.5923C18.5141 58.3011 19.67 57.99 20.8444 57.7084C21.9605 57.4268 23.1356 57.1459 24.3106 56.8835L24.3106 56.8828ZM11.117 63.9804C11.6892 63.7667 18.2914 60.6895 19.8255 59.9708C20.5935 59.6111 22.8258 58.8188 22.8258 58.8188L11.117 63.9804Z" fill="#CFB66C"/>
        <path fill-rule="evenodd" clip-rule="evenodd" d="M11.1169 63.9815C11.6212 63.7895 12.0973 63.5546 12.5825 63.3313L14.0193 62.6612L16.9031 61.273C17.8631 60.8167 18.7962 60.3131 19.7863 59.8843C20.2913 59.6711 20.7962 59.4964 21.3005 59.3313L22.0685 59.0888C22.3303 59.0209 22.5735 58.9428 22.8365 58.875C21.8765 59.3313 20.866 59.7198 19.9047 60.1659C18.9447 60.642 17.9629 61.0305 16.9722 61.4574L14.0404 62.7482C13.0561 63.1469 12.0961 63.5738 11.1162 63.9815H11.1169ZM11.7569 66.6694C11.7569 66.6694 17.737 63.1649 19.7953 62.0385C20.873 61.4369 24.3585 59.7083 24.3585 59.7083L11.7569 66.6694Z" fill="#CFB66C"/>
        <path fill-rule="evenodd" clip-rule="evenodd" d="M11.7573 66.6719C12.7666 66.0504 13.7957 65.4194 14.8248 64.7788L16.3608 63.8463C16.885 63.5359 17.39 63.2447 17.9244 62.9343C18.4485 62.6232 18.9535 62.3128 19.4872 62.0216C19.7413 61.8647 20.0076 61.7284 20.2834 61.614L21.0987 61.2063C22.1765 60.6821 23.2543 60.1477 24.3903 59.6914C23.3611 60.3423 22.3026 60.8959 21.2447 61.468C20.7205 61.7592 20.1861 62.0216 19.6619 62.3128C19.1378 62.604 18.6328 62.9151 18.0984 63.1967C17.5743 63.5071 17.0693 63.7983 16.5356 64.0799L14.9528 64.9439L11.7586 66.6719H11.7573ZM24.3103 60.4773C24.3103 60.4773 20.5919 63.3317 19.388 64.2444C18.1842 65.157 14.6405 67.7202 14.6405 67.7202L24.3103 60.4773Z" fill="#CFB66C"/>
        <path fill-rule="evenodd" clip-rule="evenodd" d="M45.6503 83.4968L43.7476 79.8949L44.8541 75.3899L52.7473 72.3416L49.3879 65.4488L51.0481 58.4875L54.1649 52.2539L63.7963 50.7397L70.8734 43.9922L86.1554 45.1474L89.155 61.4872L83.3784 82.06L80.0875 92.7109L66.7473 93.2159L60.5534 88.9247L53.3009 85.8949L45.6503 83.4968Z" fill="#E2CC85"/>
        <path fill-rule="evenodd" clip-rule="evenodd" d="M69.0489 83.3789C69.0489 83.3789 67.2038 84.2237 64.0569 84.0292C63.1462 82.8061 56.768 82.2333 56.768 82.2333C56.768 82.2333 55.9718 81.9908 54.5638 82.5732C53.1469 83.1492 51.8067 83.0781 50.5543 83.3885C49.3018 83.6989 48.0583 82.0682 47.0983 81.7284C46.1383 81.3693 44.8653 80.5053 44.8653 80.5053L42.1773 80.2429L36.7796 77.9613L28.2042 69.418L25.874 73.066L25.1553 77.5805L27.7479 82.9303L34.7284 89.2893L48.3399 92.7453L56.4077 90.3684L66.5145 86.0964L69.0489 83.3783L69.0489 83.3789Z" fill="#F1D789"/>
        <path fill-rule="evenodd" clip-rule="evenodd" d="M20.6894 53.1849L22.4174 47.9523L24.4763 44.5731L31.1067 44.0195L29.1163 49.8256L23.5732 59.6899L25.874 68.4956L21.7966 70.534L20.5434 68.6121L19.5342 64.2044L19.4663 59.2527L20.6894 53.1849Z" fill="#F4ECB4"/>
        <path fill-rule="evenodd" clip-rule="evenodd" d="M28.1261 83.0209L26.8544 81.2443C26.8544 81.2443 26.5146 80.3995 26.7092 79.6616C26.9012 78.914 26.8736 78.8654 26.777 78.5838C26.6804 78.3022 25.8644 77.3313 25.913 76.4961C25.961 75.6513 25.8452 75.3697 26.466 74.7003C27.1162 74.0501 26.9223 72.9237 26.9223 72.9237L27.7671 73.4478L27.9591 73.1566C27.9591 73.1566 28.2695 73.3992 28.2695 73.7781C28.3373 73.2539 28.0557 70.8264 28.6964 70.2734C29.337 69.7205 30.473 72.8654 30.473 72.8654L29.7741 68.3022L27.9776 63.6232L24.7834 59.3512L24.5914 54.6421L24.5914 54.2344C24.5914 54.2344 23.1252 56.4872 22.7175 58.2664C22.4263 59.4894 23.1252 60.9749 22.9799 62.7323C22.8628 64.4801 22.7175 64.3438 23.1444 65.0363C23.5712 65.7288 24.6106 67.1528 24.2029 68.1819C23.8439 69.0657 22.6202 68.4443 22.6202 68.4443C22.6202 68.4443 22.3776 69.1624 22.0474 69.4248C21.9309 68.9979 21.8048 68.7259 21.5719 68.4648C21.552 68.6299 21.504 68.8533 21.504 68.8533C21.504 68.8533 21.2903 68.1832 21.0765 67.3384C20.786 66.2126 20.4749 64.7272 20.1933 63.931C20.0768 64.3873 19.7856 65.7755 19.7856 65.7755L19.9508 67.9118L20.7469 70.8437L21.5149 72.7637L22.2624 75.1131L22.912 76.6913L23.4362 77.8952L23.8925 80.6043L26.096 82.9339L27.2711 83.4587L28.1249 83.0216L28.1261 83.0209Z" fill="#F3E19D"/>
        <path fill-rule="evenodd" clip-rule="evenodd" d="M21.8443 48.9139C21.8443 48.9139 20.2616 51.6019 19.8059 54.3116C19.3502 57.0214 18.9419 59.8847 19.2299 63.5737C19.5211 67.2927 20.0747 69.5737 20.5214 71.205C21.2894 73.9141 23.2786 77.6811 23.2786 77.6811L23.3464 77.5352C23.0121 76.9015 22.7452 76.2343 22.5502 75.5448C22.2878 74.5157 22.1906 73.2927 21.948 72.7391C21.7342 72.1861 21.3752 71.71 21.2005 71.0303C21.0354 70.38 21.0085 69.3509 20.5016 68.5842C20.2878 68.2732 20.0254 67.4578 19.948 66.6425C19.8507 65.4188 19.9966 64.0498 19.8801 62.9241C19.6664 61.0502 19.5211 59.7785 19.715 58.7974C19.9089 57.8163 20.9195 55.031 21.541 52.8172C21.9486 51.3996 21.7054 50.2054 22.453 48.9721C23.2005 47.7491 23.6574 46.6713 23.8219 45.9238C24.0139 45.2441 21.8418 48.9139 21.8418 48.9139H21.8443Z" fill="#F2E8B0"/>
        <path fill-rule="evenodd" clip-rule="evenodd" d="M29.3498 47.8359C29.3498 47.8359 28.5345 48.0791 28.146 48.506C27.7575 48.9137 27.5924 49.2535 27.0682 49.9428C26.5441 50.6321 26.5146 51.1953 26.0871 52.0593C25.6602 52.9041 24.7181 54.1758 24.6017 54.6321C24.4852 55.0884 24.2913 57.2241 24.0487 58.234C23.8349 59.244 24.2913 60.4868 24.2913 60.4868L24.8442 60.3697C24.8442 60.3697 24.8442 61.0884 25.3978 61.5742C25.9508 62.0497 26.0481 59.962 26.0481 59.962L28.1159 52.9815L31.2321 50.8651L31.5719 49.1563L29.3486 47.8359H29.3498Z" fill="#F5EEC0"/>
        <path fill-rule="evenodd" clip-rule="evenodd" d="M30.8642 51.0005C30.8642 51.0005 29.398 51.0972 28.6799 51.622C28.3887 51.8351 28.2722 52.0098 27.9618 52.2722C27.389 52.7478 26.806 53.1849 26.525 53.8083C26.214 54.4291 25.8742 55.3711 25.6412 57.1478C25.5439 57.8953 25.5439 58.5846 25.4761 59.1869C25.3788 60.0022 25.2335 60.6525 25.311 61.1069C25.4082 62.0387 26.3695 62.5245 26.463 63.5824L28.4533 62.5731L30.3273 55.1843L34.308 52.6882L32.0552 50.1641L30.8617 50.9961L30.8642 51.0005Z" fill="#E6DB9D"/>
        <path fill-rule="evenodd" clip-rule="evenodd" d="M20.3634 100.754C20.3718 100.681 20.3801 100.608 20.3884 100.533C20.679 98.0374 20.7282 96.1456 20.9414 94.9609C21.2518 93.2816 21.4655 92.6569 21.4169 92.0284C21.349 91.0192 21.2716 90.2812 21.3689 89.5043C21.5142 88.4752 22.5241 87.2521 22.4953 86.4073C22.4754 85.7372 22.1356 85.3008 21.8444 84.8931C21.5532 84.4854 21.3202 84.1456 21.3202 84.1456C21.3202 84.1456 23.3106 82.7766 23.2914 77.2617C23.3321 77.2732 23.3712 77.2895 23.4079 77.3104L24.3884 80.0963L25.0585 80.9116L27.6313 85.7078L30.942 88.9219L35.8348 92.2128L38.903 95.5516L39.2134 104.455L35.2038 109.659L34.5472 110.848C29.3303 108.229 24.5465 104.824 20.3628 100.754L20.3634 100.754Z" fill="#E5CB7A"/>
        <path fill-rule="evenodd" clip-rule="evenodd" d="M32.6118 109.273C32.6118 109.273 32.6797 108.166 33.5923 107.447C33.7382 107.69 33.8349 107.924 33.8061 108.098C33.9712 107.807 35.1264 105.943 37.7382 105.457C40.3501 104.981 40.9811 103.079 40.9811 103.079L46.5241 98.04L52.864 92.2052L60.5728 89.496L64.1753 88.6122C64.1753 88.6122 64.2432 88.8746 64.1075 89.457C64.7769 89.409 66.2623 89.0692 67.806 88.5252C68.4275 88.2826 69.0105 88.1853 69.3209 88.506C69.7772 88.9328 69.8451 89.9428 69.8739 90.5444C70.6214 90.3792 71.4854 89.6612 72.1779 89.729C73.2851 89.8455 74.2655 91.1466 75.3919 91.1466C76.8774 91.1466 77.5468 90.234 78.5862 89.5153C79.2076 89.0884 80.1004 88.5553 80.6054 88.1949C81.8092 87.3111 94.5471 83.418 94.5471 83.418L99.013 83.7092L99.7318 88.5053L99.3478 101.043C99.3004 101.088 99.253 101.136 99.205 101.181L78.8991 111.787L50.752 116.101C44.4469 115.071 38.3624 112.978 32.7577 109.912L32.6137 109.272L32.6118 109.273Z" fill="#D8C173"/>
        <path fill-rule="evenodd" clip-rule="evenodd" d="M22.0703 102.349C22.4703 101.512 22.83 100.813 22.8934 100.562C22.9433 101.067 23.0348 102.173 23.2191 103.35C22.8321 103.021 22.4492 102.687 22.0703 102.348L22.0703 102.349Z" fill="#F1D789"/>
        <path fill-rule="evenodd" clip-rule="evenodd" d="M42.6314 114.148L46.2718 113.135L46.5822 113.232C46.5822 113.232 46.7473 113.33 46.7473 113.659C47.2036 113.397 47.5921 113.445 47.8737 113.271C48.019 113.582 48.1643 114.611 48.8055 114.737C49.475 114.883 50.1937 114.446 50.922 113.893C51.6401 113.32 52.458 112.601 53.0769 112.31C53.304 112.728 53.5051 113.159 53.6791 113.601C54.4945 112.951 55.9121 110.31 57.9313 110.358C58.5149 108.979 59.4899 107.801 60.7358 106.97C62.6097 105.698 63.7841 105.601 65.2504 105.717C65.8327 104.961 66.5504 104.319 67.3669 103.824C67.6094 103.922 68.2795 104.329 69.1147 103.941C69.9595 103.553 70.9105 102.048 72.163 101.854C72.838 101.761 73.5242 101.905 74.1048 102.261C74.1048 102.261 77.7528 98.6397 80.2699 97.4358C80.1726 97.1446 79.9787 96.0477 82.9298 93.6201C83.0949 93.7661 82.9784 94.1737 83.0949 94.1961C83.1429 94.1961 83.8629 93.8857 84.7743 93.1862C85.9007 92.3421 87.2498 91.4582 88.0651 91.2156C89.6011 90.7593 91.2306 91.6912 91.2306 91.6912C91.3691 91.594 91.5236 91.5217 91.6869 91.4774C92.0747 91.4096 92.3564 91.3609 92.5701 91.2854C92.5509 91.7904 92.8325 92.6544 92.5701 93.4019C92.8741 93.5728 93.196 93.7096 93.5301 93.8096C93.3656 94.1686 93.0059 95.0813 92.4043 95.5184C92.9087 95.7609 92.9765 96.0425 93.6952 96.2864C93.404 96.6941 92.9272 97.3936 92.7148 97.8224C92.501 98.2787 91.7336 100.172 91.3938 100.89C91.0348 101.609 90.5496 102.929 90.316 103.194C90.0824 103.459 89.2383 104.582 88.588 105.135C89.164 104.921 91.5205 104.203 92.5202 103.931C92.2226 104.368 90.7141 106.606 89.2639 108.758C82.3202 112.92 74.5692 115.554 66.5274 116.485C58.4857 117.416 50.3379 116.622 42.627 114.157L42.6314 114.148Z" fill="#E0CD81"/>
        <path fill-rule="evenodd" clip-rule="evenodd" d="M31.1041 50.7378C31.1041 50.7378 30.2599 50.7377 30.0948 50.8542C29.9297 50.9707 30.9396 51.2139 31.25 51.3304C31.5604 51.4469 32.2305 51.9806 32.4052 52.4082C32.5703 52.8158 38.4731 55.1941 38.4731 55.1941L42.6479 54.9803L44.0872 52.9918L41.3493 50.5938L43.2693 44.9336L40.7259 45.3413L34.6094 48.9893L31.5412 50.1643L31.1041 50.7378Z" fill="#DFC57C"/>
        <path fill-rule="evenodd" clip-rule="evenodd" d="M40.2721 52.6125C40.3324 52.7102 40.4174 52.7903 40.5185 52.8448C40.6196 52.8993 40.7333 52.9262 40.8481 52.9229C41.7121 52.9229 42.5076 53.1367 42.8378 53.5732C43.3914 54.2727 44.9255 56.5056 44.9255 56.5056L48.5953 57.826L48.8321 53.5047L44.8225 50.7188L40.2593 52.3981L40.2593 52.6119H40.2695L40.2721 52.6125Z" fill="#E5CC7C"/>
        <path fill-rule="evenodd" clip-rule="evenodd" d="M39.5521 54.212C39.5521 54.212 40.2215 54.2607 41.0663 53.9496C41.9111 53.6386 43.2993 52.9692 43.9015 53.2316C44.7457 53.5906 44.5709 54.717 45.4842 55.7276C46.0372 56.349 47.0471 56.3298 47.6199 56.9999C48.1927 57.67 50.1633 57.3589 50.1633 57.3589L50.9108 61.3909L47.9111 65.236L46.93 70.0124H42.8737L39.1681 68.5423L37.3428 64.1263L38.2554 59.6604L39.5521 54.212Z" fill="#D2C281"/>
        <path fill-rule="evenodd" clip-rule="evenodd" d="M47.3987 54.4058C47.4993 54.4368 47.6039 54.4532 47.7091 54.4545C47.5926 54.5518 47.3494 54.7649 47.4467 55.3185C47.544 55.8721 47.8544 56.5709 47.5926 56.9978C47.8016 57.2263 47.9574 57.4982 48.049 57.794C48.2141 58.2701 48.2627 58.7066 49.3398 58.7751C49.1844 58.8708 49.0411 58.9849 48.913 59.1149C48.913 59.1149 49.6605 59.7652 50.0394 60.3667C50.4272 60.3501 51.4563 60.0301 51.4563 60.0301L51.6701 60.176L52.1264 59.984C52.1264 59.984 51.6995 59.8189 52.0099 58.7802C52.3011 57.8676 52.5635 57.9162 52.5859 57.8484C52.6083 57.7805 52.7997 56.8193 52.7997 56.4308C52.945 55.9265 53.0614 54.3924 53.0614 54.3924L52.751 51.0043L51.0038 49.9457L49.583 48.5742L48.2429 51.0984L47.3603 51.9783L47.2925 54.1626L47.3987 54.4058Z" fill="#E2C270"/>
        <path fill-rule="evenodd" clip-rule="evenodd" d="M51.6021 51.5736C51.6021 51.5736 51.9125 52.4568 52.0296 53.1364C52.0708 53.0043 52.0937 52.8671 52.0974 52.7288C52.0974 52.7288 52.34 54.0689 52.388 54.6225C52.4853 54.6027 52.58 54.5739 52.6017 54.6705C52.6235 54.7672 52.8449 55.8456 52.7937 56.4472C53.198 55.7802 53.7575 55.2207 54.4245 54.8164C54.8129 54.5732 55.2693 54.3115 55.7454 54.2916C56.4929 54.2724 57.0363 54.7678 57.9297 54.7678C60.0846 54.7678 62.0366 53.1851 63.4734 52.7C64.5313 52.3403 65.444 52.0785 66.0846 51.4955C66.3957 51.2337 66.9493 50.6513 67.4536 49.7867C68.1237 48.6347 68.8225 47.6318 69.5221 47.5057C69.2056 47.5639 68.8836 47.5866 68.5621 47.5736C68.5621 47.5736 68.7758 47.3598 69.1381 47.0686C69.5003 46.7774 69.9342 46.4184 70.555 46.4184C71.6622 46.4184 72.2152 46.5828 72.8366 46.5828C73.4581 46.5636 73.8171 46.4184 73.8171 46.4184C73.8171 46.4184 74.468 46.8747 75.9336 46.8747C77.3998 46.8939 78.3803 47.02 79.1477 47.0884C79.915 47.1569 82.4872 46.8747 83.2251 46.8964C83.7062 46.915 84.1786 47.0306 84.6139 47.2363L82.235 40.3243L73.6897 32.8555L68.6024 36.4574L60.7765 44.2827L53.204 47.0884L51.6213 48.8651L51.6213 51.5736H51.6021Z" fill="#CCB360"/>
        <path fill-rule="evenodd" clip-rule="evenodd" d="M68.5926 47.6117C68.5926 47.6117 68.8063 47.3985 69.1647 47.1073C69.5231 46.8161 69.9615 46.4565 70.5823 46.4565C71.6889 46.4565 72.2425 46.6216 72.8639 46.6216C73.4854 46.6024 73.8444 46.4565 73.8444 46.4565C73.8444 46.4565 74.496 46.9121 75.9609 46.9121C77.4272 46.9313 78.4077 47.0574 79.175 47.1253C79.9424 47.1931 82.5146 46.9121 83.2525 46.9333C83.7334 46.9514 84.2057 47.067 84.6407 47.2731L83.5629 44.1563L82.311 41.7781L78.7379 37.8651C78.7379 37.8651 74.4499 35.3409 74.4172 35.3217C74.398 35.3025 72.9318 34.9141 72.9318 34.9141L69.0482 37.2635L65.5244 46.3803L65.4565 48.3003L67.7375 49.3781C68.3103 48.4181 68.942 47.6501 69.534 47.5528C68.9996 47.611 68.5919 47.611 68.5919 47.611L68.5926 47.6117Z" fill="#D5B457"/>
        <path fill-rule="evenodd" clip-rule="evenodd" d="M68.5437 48.2638C68.2038 48.283 67.9229 48.2152 67.8448 47.9726C67.5536 47.1573 67.3207 47.0408 67.0768 47.0408C66.833 47.0408 66.504 47.5649 66.3088 47.6129C66.1136 47.6609 65.882 47.0113 65.882 47.0113L65.6682 46.9141C65.6682 46.9141 64.4157 47.7294 63.5325 48.6907C62.6493 49.652 61.2023 51.2833 60.5521 51.5739C59.9019 51.8645 57.6683 51.9624 56.9041 52.1275C56.14 52.2926 55.2926 52.8462 55.1761 52.9723C55.0597 53.0984 55.5166 53.2341 55.5845 53.3601C55.6523 53.4766 54.8363 53.428 54.7685 53.5521C54.7205 53.6494 54.9605 54.2024 55.0795 54.484C55.2878 54.3804 55.5164 54.324 55.7489 54.3189C56.4965 54.2997 57.0404 54.795 57.9332 54.795C60.0887 54.795 62.0401 53.2123 63.4769 52.7265C64.5354 52.3675 65.448 52.1051 66.0887 51.5227C66.3991 51.2609 66.9527 50.6779 67.4576 49.8139C67.8263 49.2219 68.1859 48.6683 68.5456 48.2606L68.5437 48.2638Z" fill="#D2B257"/>
        <path fill-rule="evenodd" clip-rule="evenodd" d="M37.6322 96.3099C37.6322 96.3099 37.4402 95.5911 35.661 93.737C35.156 93.2129 34.8456 92.777 34.5058 92.4654C33.661 91.6686 33.1656 91.4554 32.564 90.9991C31.2437 90.0186 29.8069 90.0186 28.7003 88.8148C27.5937 87.6109 26.3041 85.3108 25.4081 82.96C24.5249 80.6106 24.2817 79.8631 24.2817 79.7952C24.2817 79.7274 24.5249 79.271 24.8353 79.3389C25.1457 79.4067 25.1457 80.0083 25.2238 80.1543C25.3785 80.3924 25.5539 80.6164 25.748 80.8237C26.2043 81.3485 26.8545 81.9757 27.1848 82.9114C27.1169 82.1152 26.8449 81.232 26.8449 81.232C26.8449 81.232 28.5538 82.3098 30.0098 83.4355C31.476 84.562 32.0776 84.9504 32.5058 85.6685C32.9339 86.3866 33.9426 88.2804 34.4258 88.834C34.909 89.3876 41.5298 91.4746 41.5298 91.4746L44.6792 93.8228L46.2428 97.25L45.0191 99.17L42.6696 99.675L38.8539 97.9662L37.6322 96.3092L37.6322 96.3099Z" fill="#D2B159"/>
        <path fill-rule="evenodd" clip-rule="evenodd" d="M29.1553 84.5043C29.1553 84.5043 29.9514 85.776 31.8932 86.9798C33.641 88.0384 36.4077 88.9996 38.8743 89.5724C40.2912 89.9123 41.7088 90.174 42.9805 90.1939C46.4077 90.2419 48.7667 89.262 51.6896 88.9414C53.2723 88.7763 55.2141 88.6502 57.2333 88.1734C59.8253 87.552 61.3593 86.8524 63.447 85.8694C64.9613 85.1705 66.3501 84.6464 67.4758 83.9763C69.0585 83.0444 70.2137 82.0057 71.5539 81.6953C71.3888 82.1516 71.214 82.967 69.8937 83.8118C70.5926 83.7919 71.5539 83.744 71.5539 83.744C71.5539 83.744 70.622 84.2969 68.9811 85.5398C67.9712 86.3078 66.6317 87.6076 65.2627 88.4716C64.3789 89.0252 63.4176 89.4316 62.7865 89.7632C61.2505 90.608 60.631 91.0348 59.6218 92.0672C59.9808 92.048 60.0102 92.0672 60.0102 92.0672C60.0102 92.0672 58.7379 92.2323 57.8259 92.7174C57.6339 92.7174 57.3011 92.6496 56.7187 92.8147C56.2624 92.96 55.6602 93.2908 55.0394 93.4649C54.1555 93.7273 53.865 93.6108 53.865 93.6108L54.0102 93.902C54.0102 93.902 52.8582 93.8822 52.4743 93.9212C52.5421 93.9404 52.5229 93.9699 52.5229 93.9699C52.4554 93.9812 52.3905 94.0041 52.3309 94.0377C52.1461 94.1574 51.9429 94.2459 51.7293 94.2995C51.6128 94.3187 51.5155 94.3187 51.3696 94.3481C51.4183 94.4646 51.7971 95.1161 51.9719 95.5001C51.8266 95.5974 49.6416 97.248 49.6416 97.248C49.7094 97.3546 49.7648 97.4686 49.8067 97.5878C49.8746 97.8009 49.904 98.112 49.9719 98.2572C50.1363 98.5484 50.2336 98.5971 50.2336 98.5971C50.2336 98.5971 49.9719 98.6457 49.5149 98.7622C49.1271 98.8595 48.6509 99.024 47.9789 99.1212C47.7727 99.1481 47.5653 99.1643 47.3575 99.1699C47.4547 99.3836 47.8816 100.199 47.0951 101.14C46.3085 102.082 46.0659 102.219 45.8234 102.82C45.7013 102.728 45.5713 102.647 45.4349 102.577C45.1732 102.461 44.8135 102.287 44.6874 102.053C44.6139 102.364 44.5165 102.669 44.3962 102.966C44.1536 103.616 43.7946 104.257 43.7268 104.742C43.4644 104.451 42.9792 103.878 42.3092 103.995C41.6391 104.111 41.1053 105.024 40.9888 105.286C40.9888 105.121 40.8724 104.995 40.8436 105.189C40.8237 105.403 40.4551 107.635 38.3969 109.441C38.3777 108.985 38.3777 107.975 38.329 107.645C38.137 107.837 37.9021 108.121 36.5037 108.723C35.1348 109.325 35.3517 109.927 35.3517 109.927C35.3517 109.927 35.2353 108.967 35.9732 107.956C36.7207 106.947 37.177 106.47 37.177 106.393C37.165 106.314 37.1313 106.24 37.0797 106.179C36.9825 106.082 36.7885 105.965 36.7885 105.888C36.905 105.84 38.0602 105.286 37.9924 104.14C37.9245 103.112 37.4881 102.577 37.177 102.199C37.129 102.15 37.634 101.791 37.5655 101.675C37.5169 101.607 36.8961 101.15 36.818 100.907C36.8363 100.762 36.8689 100.619 36.9153 100.48C36.9831 100.266 37.0317 100.12 37.0125 99.975C36.9639 99.7324 36.7015 99.0624 36.6241 98.9945C36.6919 99.0137 37.177 98.9945 37.177 98.9945C37.177 98.9945 36.7892 98.3731 36.7207 98.0819C36.6522 97.7907 36.5069 97.0233 36.4295 96.878C36.5946 96.8972 37.0023 96.926 37.0023 96.878C37.0221 96.7321 36.6433 96.4896 36.8103 96.302C36.9268 96.3212 37.1501 96.4185 37.3633 96.6905C37.2468 96.3795 37.0529 95.7779 36.6445 95.5353C36.8365 95.4675 37.4893 95.2921 38.0621 95.632C38.6349 95.9718 38.8301 96.4473 38.8301 96.4473C38.8301 96.4473 39.17 96.7097 39.6948 97.0982C40.2964 97.5737 41.0631 98.2502 42.2868 98.7289C42.5492 98.8748 43.2186 98.8748 43.7044 98.7776C43.9159 98.7272 44.1186 98.6454 44.306 98.535C44.3736 98.4951 44.4452 98.4625 44.5197 98.4377C44.4153 98.2282 44.2953 98.0269 44.1607 97.8355C44.3258 97.8355 44.5197 97.8553 44.5197 97.8553C44.5197 97.8553 44.6362 97.5929 44.112 97.0873C44.2285 96.9708 44.3744 96.8953 44.3744 96.6988C44.2093 96.6796 43.9181 96.4371 43.8503 96.3398C43.9469 96.272 44.0928 96.0486 44.258 95.9808C44.112 95.8643 43.753 95.3785 43.5879 95.3305C43.7456 95.272 43.8982 95.2005 44.0442 95.1168C44.0442 95.1168 43.2288 94.903 42.9664 94.7283C42.704 94.5363 42.3162 94.2041 42.0832 94.1068C41.84 94.0096 41.4132 93.9616 41.2384 93.767C41.4029 93.8156 41.6653 93.767 41.8599 93.767C42.0052 93.767 42.0736 93.7862 42.1216 93.7862C42.1024 93.7184 42.1024 93.5724 42.4813 93.5244C42.6636 93.497 42.8404 93.4413 43.0055 93.3593C43.0055 93.3593 42.6458 93.3401 42.2375 92.9516C41.8292 92.5632 41.49 92.2528 41.257 92.2041C41.0144 92.1555 40.5581 92.3692 40.2765 92.3494C39.888 92.3014 39.7229 92.1068 39.7229 92.1068C39.7229 92.1068 38.4321 92.2233 35.5681 90.4761C33.0919 88.9612 32.0141 87.6217 32.0141 87.6217C31.7824 87.5376 31.5584 87.4335 31.3447 87.3107C30.4129 86.8256 29.1214 85.8156 29.1604 84.4947L29.1553 84.5043Z" fill="#C2A44D"/>
        <path fill-rule="evenodd" clip-rule="evenodd" d="M64.8737 26.2336C65.0983 26.3066 65.2979 26.4412 65.4497 26.6221C65.906 27.1462 66.1972 28.1363 65.1585 29.1949C65.5662 29.3401 65.7345 29.3869 66.0903 29.3401C65.7313 29.7677 64.9159 30.6803 64.8673 31.4765C64.8187 32.1267 65.2263 32.3213 65.2263 32.3213C65.2263 32.3213 64.6049 33.0393 64.5761 34.2413C64.8696 33.9103 65.1907 33.605 65.5361 33.3286C66.2548 32.7558 67.2449 32.1056 67.915 31.6979C67.9059 31.8688 67.9289 32.0398 67.9828 32.2022C67.9828 32.2022 69.2347 31.1731 70.2868 31.6301C70.7624 31.8438 70.5486 32.5133 70.5486 32.5133C70.5486 32.5133 71.1995 32.2707 71.6558 32.727C72.1121 33.1833 72.7573 34.3603 73.0881 34.8166C73.2334 35.0304 73.6123 35.4381 74.0001 36.0691C74.53 36.9526 74.9724 37.8856 75.3211 38.855C75.3403 38.3501 75.4664 37.5641 76.9038 38.0589C78.3406 38.5638 79.9714 39.6224 81.3403 41.7069C82.7093 43.7913 83.0485 46.1446 83.7378 47.0406C84.4367 47.9046 85.1554 49.3414 85.204 49.9437C85.2527 50.5459 84.9903 52.487 86.4271 57.7395C86.8348 56.1088 87.4562 52.487 87.4562 52.487L87.7961 49.2928L88.1845 39.4093L77.8638 30.8352L69.796 24.9805L64.5435 25.4854L64.8731 26.2329L64.8737 26.2336Z" fill="#CAA13E"/>
        <path fill-rule="evenodd" clip-rule="evenodd" d="M84.0487 40.9428C84.0487 40.9428 83.9028 39.9828 81.4759 38.3508C79.0484 36.7393 77.1553 36.7393 75.4081 35.3703C74.0679 34.2926 72.6702 31.8164 71.7601 31.0011C70.8762 30.1953 70.731 27.8651 70.731 27.8651L73.7114 25.3691L78.1441 18.962L81.8913 14.8359L83.6871 17.3319L86.1831 20.2638L87.5713 26.1473L88.0762 34.7591L84.0442 40.9435L84.0487 40.9428Z" fill="#B59544"/>
        <path fill-rule="evenodd" clip-rule="evenodd" d="M87.0492 51.2643C87.1226 49.9583 86.9614 48.6497 86.573 47.4006C85.933 45.4102 84.5346 41.8761 83.885 40.5526C83.6226 39.0864 83.8172 38.9699 84.0988 38.8048C84.3804 38.6396 85.4389 38.0368 86.0188 35.9216C86.5986 33.8064 88.3977 33.7372 88.3977 33.7372L89.5042 32.9219L91.1842 37.1254L92.6499 40.9219L93.1062 43.8249L93.446 46.3004L92.6499 51.5337L88.7183 55.087L87.0486 51.2643H87.0492Z" fill="#C89D3A"/>
        <path fill-rule="evenodd" clip-rule="evenodd" d="M32.1851 109.595L32.1851 109.487C32.2668 109.436 32.3389 109.371 32.3982 109.295C32.466 109.198 32.5153 109.081 32.5633 109.053C32.6606 109.004 33.1169 108.861 33.3595 108.907C33.602 108.953 34.2433 109.217 34.5831 109.198C35.282 109.179 36.0974 108.644 37.3889 108.888C39.3307 109.247 39.787 110.567 40.9134 111.314C41.6814 111.839 42.4763 111.606 42.5927 111.606H42.8545C42.9031 111.606 43.2622 111.198 43.4567 111.218C43.8452 111.237 43.8836 111.558 44.1262 111.577C44.699 111.645 45.8062 111.286 46.3598 111.432C46.5239 111.483 46.6732 111.573 46.7949 111.695C46.9166 111.816 47.0071 111.966 47.0587 112.13C47.1751 112.489 47.0779 112.945 46.7963 113.208C46.1947 113.761 45.6219 114.285 45.5054 114.744C45.6535 114.857 45.7958 114.977 45.9316 115.105C41.1279 113.881 36.5061 112.03 32.1851 109.601L32.1851 109.595Z" fill="#CEB052"/>
        <path fill-rule="evenodd" clip-rule="evenodd" d="M83.8833 90.1929C83.8833 90.1929 85.3975 88.1737 85.9223 87.1733C86.4465 86.1423 84.2622 73.0863 84.2622 73.0863L88.6506 58.7081L88.5335 54.0284C88.5335 54.0284 88.7473 49.7077 89.2522 47.8338C89.8545 48.9116 91.7284 50.2127 92.1361 50.902C92.3281 49.581 92.9802 46.7951 92.8836 43.8242C93.2426 44.3772 94.1066 49.9407 94.1066 49.9407L94.9706 53.6879L96.097 57.6687L97.3495 61.8729L98.097 64.7759L98.5239 65.4748L98.8836 66.6978L99.2234 68.0188L100.204 71.1157L100.78 73.6591L101.236 78.2709C101.335 78.6241 101.407 78.9844 101.45 79.3487C101.469 79.8537 101.382 80.1449 101.382 80.2325C101.382 80.3202 101.547 81.3391 101.479 82.1065C101.382 82.8745 101.382 83.4754 100.78 84.0265C100.178 84.5775 99.7994 87.8709 99.7994 87.8709L98.7217 87.1529C98.7217 87.1529 98.9354 86.1717 98.4305 85.2789C97.9255 84.3861 96.945 84.2012 96.3914 84.3471C95.8385 84.4636 94.7319 84.6377 94.3722 84.9487C94.0324 85.2591 93.1978 86.2204 92.4305 86.6575C91.4705 87.2335 89.9063 87.2789 89.0718 87.4729C88.227 87.6649 87.2951 88.2409 86.314 88.9097C85.5448 89.4077 84.7326 89.8361 83.8871 90.1897L83.8833 90.1929Z" fill="#CCA847"/>
        <path fill-rule="evenodd" clip-rule="evenodd" d="M83.8833 111.408C83.8833 111.408 83.9473 111.45 84.0708 111.518C90.9685 108.286 97.1487 103.705 102.247 98.0458C102.191 96.081 102.119 94.0669 102.039 93.3206C101.875 91.7379 101.991 90.1264 101.943 89.1946C101.894 88.2627 101.37 84.4662 101.127 83.4858C100.865 82.5053 100.359 82.0195 100.283 82.0195C100.215 82.0394 99.8065 83.8647 99.8065 84.3235C99.8065 84.7824 99.7092 85.887 99.7092 86.1686C99.6414 86.1488 99.6126 85.9766 99.6126 85.9062C99.5153 86.1488 99.3988 86.5763 99.3502 86.625C99.3015 86.6736 99.418 86.2173 99.3502 86.12C99.2823 86.0227 99.1582 86.0714 99.1851 85.8288C99.1966 85.685 99.2192 85.5422 99.2529 85.4019C99.2529 85.4019 98.9617 85.8288 98.7486 86.9162C98.5348 87.9939 98.5348 88.0234 98.4574 88.12C98.3895 88.2371 98.0011 88.625 97.9812 88.7709C97.962 89.0326 98.3409 89.295 98.3697 89.4403C98.3889 89.6835 98.0299 90.8093 97.9134 91.3603C97.7969 91.9114 97.8455 92.991 97.7214 93.5446C97.6241 94.0496 97.5294 94.3408 97.1972 94.5539C97.4398 94.6026 97.6727 94.6704 97.6727 94.6704C97.6727 94.6704 98.0126 96.1072 97.1486 97.3309C96.8382 97.7578 96.7607 97.9523 96.4305 98.3408C95.7796 99.0589 95.2747 99.8768 95.226 100.409C95.1924 100.252 95.1698 100.093 95.1582 99.9325C95.1582 99.9325 94.1489 101.108 93.7214 101.778C93.1684 102.642 92.4011 102.593 92.1854 102.807C91.9697 103.02 91.923 103.408 91.9934 103.719C91.8014 103.767 91.4404 103.836 91.1972 104.583C91.0807 104.971 90.7895 105.351 90.3332 105.612C89.8769 105.874 89.3233 105.952 89.0417 106.02C89.2843 106.088 89.3815 106.088 89.498 106.165C89.3527 106.408 88.6827 106.787 87.9351 107.273C87.1876 107.729 86.8279 108.398 86.6436 108.836C86.4516 109.243 86.1681 109.506 85.7118 109.554C85.9038 109.671 86.1879 109.942 86.3332 110.03C86.1195 110.078 85.7572 110.078 85.1102 110.632C84.4305 111.195 84.1975 111.36 83.8865 111.409L83.8833 111.408Z" fill="#C39D3C"/>
        <path fill-rule="evenodd" clip-rule="evenodd" d="M70.3743 115.908C70.7461 115.647 71.1487 115.434 71.573 115.272C73.0873 114.67 74.6892 114.554 75.3202 114.36C75.9225 114.168 76.398 113.903 77.1455 113.758C77.1257 113.928 77.109 114.088 77.0911 114.239C74.8873 114.932 72.6431 115.489 70.3711 115.908H70.3743Z" fill="#D2BA6B"/>
        <path fill-rule="evenodd" clip-rule="evenodd" d="M98.3038 76.076C98.3038 76.076 97.9934 77.7554 97.4398 78.8139C96.8862 79.8725 96.2878 81.3381 96.2878 81.3381C96.2914 81.0078 96.3305 80.6789 96.4043 80.357C95.7054 80.7646 94.0062 81.7458 93.5243 82.1822C93.068 82.5899 92.3006 83.3086 92.1067 83.6485C92.563 82.309 93.0385 81.1051 93.1166 80.5515C92.4177 81.0565 89.155 83.7458 87.4564 85.5224L82.1649 89.804C81.5543 90.1334 80.9254 90.4278 80.2814 90.6859C79.3694 91.0737 78.2916 91.404 77.4955 91.715C77.7092 91.1422 78.0484 90.6366 78.5246 90.1515C79.0296 89.676 80.5438 88.035 80.7768 87.2715C80.9905 86.4753 81.0392 85.9998 80.7576 85.3298C80.4952 85.3976 79.8936 85.427 79.4859 85.5435C79.0782 85.66 78.6411 86.0965 78.6411 86.0965C78.6411 86.0965 78.9515 84.3198 79.6216 82.6405C79.1166 82.6597 78.2526 82.805 78.2526 82.805C78.2526 82.805 79.4564 80.7858 81.5166 79.3784C80.8857 79.5127 80.2683 79.7042 79.6721 79.9506C78.4683 80.4555 77.148 81.203 76.1675 81.6107C76.7204 80.8427 80.604 75.3003 82.915 70.1349C85.219 64.9797 86.0798 63.6594 86.5848 60.8927C86.8465 59.5237 86.7768 57.5007 86.8465 55.6889C86.9144 53.8924 87.1377 52.2809 86.9924 51.2031C87.594 51.9506 89.8468 54.0575 89.9243 58.7666C89.9921 63.4751 87.7694 69.8348 85.4097 73.2613C85.9857 73.4264 87.4782 73.621 89.0116 70.9573C90.5451 68.2936 90.5265 67.55 91.0801 66.4428C91.148 66.9964 91.1281 67.1903 91.1281 67.1903C91.1281 67.1903 93.3617 64.4818 94.4196 61.0738C94.6334 62.5401 95.2644 63.8316 94.2737 66.5208C93.3905 68.9477 92.2353 69.5404 92.2353 69.5404C92.2353 69.5404 92.8081 69.4431 93.6523 68.9381C93.7982 69.2971 93.7694 69.7061 94.012 69.8507C94.2545 69.9954 94.5848 70.2392 94.6334 70.4722C94.8952 70.0837 95.3028 69.5884 95.4296 69.2197C95.3323 69.9877 95.2644 73.3458 95.6216 75.0546C96.3697 74.9867 97.1364 74.9381 97.6606 73.5883C97.3016 74.9093 97.3016 75.7048 97.5441 76.8312C97.9422 76.5599 98.3012 76.0741 98.3012 76.0741L98.3038 76.076Z" fill="#C0993A"/>
        <path fill-rule="evenodd" clip-rule="evenodd" d="M73.0779 22.5618C73.0779 22.5618 72.3304 22.8722 71.0587 22.8722C69.9521 22.8722 70.2625 22.4453 68.5345 22.4453C65.8747 22.4453 56.5831 23.9813 54.9517 23.9596C53.8932 23.9404 58.5242 24.4159 58.5242 24.4159L70.3598 24.581L72.7381 24.389L73.6219 22.5906L73.0779 22.5618Z" fill="#A88F33"/>
        <path fill-rule="evenodd" clip-rule="evenodd" d="M42.3887 45.7001C42.3887 45.7001 40.8739 46.8553 40.2332 47.7391C39.5926 48.623 39.2527 49.2047 38.5244 49.9235C38.6954 49.93 38.8662 49.907 39.0294 49.8556C39.0294 49.8556 39.0294 50.0476 38.9129 50.0982C39.0135 50.0869 39.1154 50.0983 39.2111 50.1315C39.3068 50.1648 39.3938 50.219 39.4659 50.2902C39.2521 50.4067 38.6697 50.9897 39.126 51.679C39.4659 52.2031 40.1846 52.2511 40.1846 52.2511C40.1846 52.2511 40.0195 52.7273 40.7087 52.6787C42.1942 52.6108 43.8543 51.9599 44.6211 52.1251C45.3891 52.3171 45.8255 52.3875 46.3689 53.3295C46.9449 54.2614 47.4467 54.4073 47.4467 54.4073C47.4467 54.4073 47.7865 53.5427 47.7091 52.2518C47.9877 51.5559 48.1422 50.8166 48.1654 50.0675L47.6604 46.3491L45.4569 43.5625L42.6025 45.1452L42.3887 45.6982L42.3887 45.7001Z" fill="#E3C571"/>
        <path fill-rule="evenodd" clip-rule="evenodd" d="M45.0972 45.1469C45.0972 45.1469 45.3109 45.6519 46.2044 45.6999C46.1071 45.9136 46.1071 45.9431 46.1365 46.1076C46.1557 46.2727 46.1845 46.5152 46.1845 46.5152C46.2829 46.4677 46.3718 46.4026 46.4469 46.3232C46.4956 46.537 46.3983 46.8762 46.4469 47.1194C46.4769 47.2673 46.5258 47.4108 46.5922 47.5463C46.6064 47.5131 46.6226 47.4808 46.6408 47.4496C46.66 47.401 46.8328 47.9738 47.3109 48.4096C47.3105 48.3426 47.327 48.2766 47.3589 48.2176C47.3663 48.3394 47.4065 48.4568 47.4754 48.5575C47.4396 48.5404 47.407 48.5175 47.3788 48.4896C47.3788 48.4896 47.4268 50.0256 47.6892 50.8199C47.733 50.7686 47.772 50.7133 47.8057 50.6548C47.8057 50.6068 47.7865 51.0823 47.7378 51.4228C47.67 51.7626 47.7186 52.2381 47.7186 52.2381C47.8937 52.1003 48.086 51.9861 48.2908 51.8983C48.582 51.7812 49.0588 51.4221 49.3493 50.626C49.5179 50.1751 49.6479 49.7107 49.7378 49.2378C49.8317 49.4185 49.8965 49.6129 49.9298 49.8138C49.9497 50.0564 50.406 49.9303 50.406 49.9303L50.5032 48.8717L51.0792 46.4736L51.6034 44.9882L54.1276 41.0567L58.6882 37.5444L62.669 38.457L66.0277 33.8938L60.2415 30.418L54.7656 30.9908L49.796 37.874L45.8159 44.1172L45.0972 45.1463L45.0972 45.1469Z" fill="#D8B65B"/>
        <path fill-rule="evenodd" clip-rule="evenodd" d="M73.7766 35.1845C73.7766 35.1845 73.4368 35.2523 72.4563 35.7605C71.4758 36.2686 70.7961 36.4299 70.4172 37.1774C70.0384 37.925 70.0096 38.5176 70.0096 38.5176C70.0096 38.5176 70.6796 38.2264 71.0681 38.1291C71.4758 38.0325 71.9321 38.0613 71.8835 38.2264C71.8368 38.3396 71.7719 38.4445 71.6915 38.5368C71.6915 38.5368 72.4595 38.5176 72.439 38.8965C72.4185 39.2754 72.2937 39.6926 72.1484 39.877C72.0025 40.069 71.4009 40.3531 71.3331 40.5765C71.168 41.0328 71.4009 41.052 71.3132 41.4206C71.2454 41.7803 70.9254 42.4792 69.8764 43.7022C68.7987 44.9259 68.3404 45.7899 68.3404 45.7899C68.3404 45.7899 67.8163 44.8095 67.5443 43.9646C67.3523 44.0613 66.3212 44.6341 66.3212 44.6341L63.9327 36.3141L63.9807 35.7605C63.9807 35.7605 64.1945 35.4987 64.2431 35.0129C63.8841 34.8965 63.8355 34.7992 63.3593 34.3435C62.8831 33.8878 62.4953 33.3336 61.6998 32.9547C61.5833 32.7409 61.4374 32.4504 60.855 32.3333C60.2726 32.2161 59.9231 32.1201 59.9231 32.1201C59.9231 32.1201 60.2335 32.003 60.3794 31.7605C60.0198 31.8091 59.7292 31.9256 58.9426 31.9064C58.1465 31.8865 58.0588 31.8577 57.6223 31.9256C57.1858 31.9934 56.6623 32.188 56.4671 31.5179C56.2534 31.3528 55.797 31.4987 55.4086 32.0709C55.0201 32.643 54.8844 33.1 54.1369 33.3233C54.0843 33.6528 53.9689 33.9692 53.797 34.2552C53.5833 34.6149 53.2434 34.9739 52.7871 35.5077C52.0684 36.3525 52.1849 37.7406 51.0393 38.7992C49.8841 39.8571 51.2313 35.8667 51.2313 35.8667L53.0757 31.4507L58.3282 26.3147L66.4838 25.7617L67.2799 29.9857L71.2607 31.3547L73.7753 35.1896L73.7766 35.1845Z" fill="#D3AE4D"/>
        <path fill-rule="evenodd" clip-rule="evenodd" d="M75.0682 36.1165L71.641 31.1751L69.243 29.33C69.243 29.33 67.5342 26.185 67.4177 26.0877C67.3204 26.0199 65.7089 25.8452 64.6798 25.7773L64.8718 26.2529C65.0964 26.3258 65.296 26.4604 65.4478 26.6413C65.9041 27.1655 66.1953 28.1556 65.1566 29.2141C65.5643 29.3594 65.7326 29.4061 66.0884 29.3594C65.7294 29.7869 64.9141 30.6996 64.8654 31.4957C64.8168 32.146 65.2245 32.3399 65.2245 32.3399C65.2245 32.3399 64.603 33.0586 64.5742 34.2599C64.8677 33.9289 65.1889 33.6236 65.5342 33.3472C66.2529 32.7712 67.243 32.1236 67.9131 31.7159C67.9039 31.887 67.9269 32.0582 67.9809 32.2208C67.9809 32.2208 69.2327 31.1917 70.2849 31.648C70.7604 31.8618 70.5466 32.5319 70.5466 32.5319C70.5466 32.5319 71.1975 32.2893 71.6538 32.7456C72.1101 33.202 72.7604 34.3763 73.0906 34.8333C73.2359 35.0471 73.6148 35.4547 74.0026 36.0851C74.5326 36.9688 74.975 37.9021 75.3236 38.8717C75.3428 38.4832 75.4208 37.9399 76.0916 37.9399L75.072 36.1146L75.0682 36.1165Z" fill="#CAA13E"/>
        <path fill-rule="evenodd" clip-rule="evenodd" d="M23.6893 50.1542C23.6893 50.1542 23.4468 49.552 23.6893 48.3776C23.9319 47.2032 24.3108 46.6496 24.4369 44.9216C24.5629 43.1936 25.6893 41.0381 25.6893 41.0381L28.8055 39.6211L31.0097 40.2227L31.6599 43.1744L28.8733 44.7104C28.8733 44.7104 28.7281 45.3606 27.9415 45.8848C27.1549 46.4089 26.0676 46.8166 25.8058 47.351C25.6493 47.6782 25.5351 48.0241 25.466 48.3801C25.466 48.3801 24.6698 48.215 24.1943 48.7392C23.6893 49.2736 23.7085 49.7491 23.6893 50.1568L23.6893 50.1542Z" fill="#F4EFC8"/>
        <path fill-rule="evenodd" clip-rule="evenodd" d="M29.9806 49.3673C29.9806 49.3673 29.7182 49.5324 29.5243 49.9433C29.3323 49.6329 28.8734 47.7878 28.8542 46.1276C28.835 44.4675 28.7358 44.056 29.1198 43.4838C29.5038 42.9117 31.0097 42.3088 30.7959 41.2784C30.5822 40.2979 29.6887 39.8902 28.5918 40.1718C27.8238 40.3638 27.2523 41.9971 26.4561 42.8125C25.8539 43.4339 25.1358 43.3366 24.9419 43.6764C24.6795 44.1328 24.922 44.5891 24.8446 44.8803C24.8247 44.9776 24.5822 45.5017 24.1451 46.1328C23.2619 47.4044 21.7668 49.2009 21.5723 50.8124C21.6401 49.8998 21.5921 49.8806 21.8347 48.8707L21.6887 48.6281L22.6487 45.4825L23.2702 42.8905L24.659 38.5501L27.1051 34.1136L29.4839 31.4531L31.9595 31.6182L32.2507 35.3366L33.6683 42.3177L36.6487 45.9875L31.8718 49.2022L29.9787 49.3673H29.9806Z" fill="#EBCC73"/>
        <path fill-rule="evenodd" clip-rule="evenodd" d="M31.4662 50.6897C31.4662 50.6897 31.0585 50.787 30.9126 50.7095C30.7667 50.6321 30.622 50.5444 30.67 50.4471C30.718 50.3499 30.9804 50.1854 30.9804 50.1073C30.9858 50.0367 30.9635 49.9669 30.9182 49.9125C30.8729 49.8581 30.8082 49.8235 30.7379 49.8161C30.5145 49.7873 30.4467 49.9326 30.4467 49.9326C30.4467 49.9326 30.2329 49.7681 30.0588 49.7406C30.1618 49.728 30.2655 49.7213 30.3692 49.7207C30.1009 49.5992 29.8163 49.5175 29.5244 49.4782C29.767 49.3329 30.2431 48.9054 30.5535 48.9054C30.8639 48.9054 31.0585 48.8574 31.0099 48.6922C30.9612 48.5271 30.7187 48.2846 30.4569 48.1873C30.5535 48.0708 30.622 47.8961 30.3891 47.4193C30.1459 46.9438 30.2431 46.6231 30.3212 46.5073C30.3891 46.3613 30.6316 46.0996 30.7481 45.9345C30.8646 45.7693 30.9619 45.546 31.1558 45.4295C31.2531 45.3617 31.5635 45.2375 31.8745 45.1191C32.2143 45.0026 32.4959 44.8567 32.6899 45.0026C32.9036 45.1479 32.8063 45.3425 32.8063 45.3425C32.8063 45.3425 33.4764 45.0993 34.078 45.4103C34.6803 45.7009 36.1465 45.8858 36.1465 45.8858L36.6719 46.9444L33.1961 49.9249L31.7593 50.6436L31.4681 50.6916L31.4662 50.6897Z" fill="#E5C66B"/>
        <path fill-rule="evenodd" clip-rule="evenodd" d="M36.2913 45.816C36.2913 45.816 35.2135 46.5348 34.971 46.7965C35.1162 46.8164 35.3588 46.9136 35.2615 47.0589C35.145 47.2042 34.4462 47.7092 34.0577 48.1853C33.65 48.6608 33.2615 49.2631 33.1258 49.5543C32.9806 49.816 31.8734 50.5834 31.4951 50.68C32.2913 50.68 33.8932 49.6996 34.4948 49.6996C34.4756 49.9908 34.6599 50.321 34.9998 50.3498C35.3396 50.3786 36.3201 50.5636 37.6404 49.7482C38.9607 48.952 38.5242 48.3594 39.0772 47.9716C40.1358 47.272 40.5626 46.6506 41.145 46.2628C41.7274 45.8749 42.0289 45.7866 42.0289 45.7866C42.0289 45.7866 42.0481 45.4954 42.2209 45.5248C42.2682 45.5303 42.3131 45.5485 42.3508 45.5776C42.3884 45.6067 42.4174 45.6456 42.4346 45.69C42.4346 45.69 43.4446 44.9712 44.7386 44.7773C44.7085 44.7638 44.6843 44.7397 44.6708 44.7095C44.6708 44.7095 44.7674 44.6608 44.7873 44.6122C44.7873 44.6122 44.8551 44.5149 44.9038 44.5636C44.9524 44.6122 45.0202 44.9712 45.1175 45.1172C45.3313 45.0199 45.739 44.1072 45.739 44.1072L46.7201 41.3015L46.7201 38.7383L45.9521 38.8842L40.1921 41.3303L36.6964 44.952L36.2887 45.816H36.2913Z" fill="#E6BD62"/>
        <path fill-rule="evenodd" clip-rule="evenodd" d="M52.8735 33.2411C53.1851 33.1655 53.4838 33.0443 53.7599 32.8814C53.6434 33.1925 53.6434 33.5323 53.1385 34.2702C52.6335 35.0082 52.6143 35.115 52.2066 35.8818C51.7989 36.6779 51.7503 37.8235 51.3618 38.3279C51.536 38.2432 51.7227 38.1877 51.9148 38.1634C51.9148 38.1634 51.527 38.5032 51.3618 38.8623C51.1967 39.2213 50.9055 39.9688 50.1874 40.4258C49.4694 40.8827 48.5561 41.1733 47.5756 42.2511C46.5945 43.309 45.5852 44.6492 45.0796 45.1311C45.342 44.6748 45.701 43.7621 45.7983 43.1605C45.8956 42.5589 45.7785 41.8395 45.9436 41.044C46.1087 40.2485 46.1087 39.6751 46.9036 38.2863C47.6985 36.8974 49.0591 32.0725 49.0591 32.0725L51.9909 31.1406L52.8748 33.2379L52.8735 33.2411Z" fill="#B6933F"/>
        <path fill-rule="evenodd" clip-rule="evenodd" d="M50.7569 31.468C50.7569 31.468 49.8737 32.7397 49.6312 33.8661C49.3886 34.9925 49.6113 34.8952 49.466 35.4488C49.3792 35.7863 49.3792 36.1404 49.466 36.4779C49.7719 35.9851 50.1907 35.5723 50.6878 35.2734C51.523 34.7691 52.2027 34.4094 52.6078 33.9825C53.0155 33.5262 53.3553 32.7787 54.2385 32.2059C53.8795 32.1573 53.3745 31.9921 53.2785 32.0139C53.6382 31.6062 54.7153 30.9848 55.8027 30.2373C56.8804 29.4693 56.8126 29.1595 58.5604 28.3928C57.9876 28.4901 57.7156 28.3441 57.2395 28.3928C57.4315 27.9851 58.1035 27.7905 58.7755 27.1211C59.4475 26.4517 58.3486 25.4609 58.3486 25.4609L53.2286 28.5579L50.7531 31.4705L50.7569 31.468Z" fill="#C49937"/>
        <path fill-rule="evenodd" clip-rule="evenodd" d="M36.8638 29.1538L36.9803 28.2219L38.4465 25.8725L39.9806 21.7464L39.9806 16.1055L39.8641 12.8434L40.1066 10.7071L40.291 10.028L40.4855 9.76562L41.7374 10.4159L43.466 12.7653L43.6311 17.2997L41.9511 24.4549L37.155 29.6882L36.8638 29.1538Z" fill="#DFC068"/>
        <path fill-rule="evenodd" clip-rule="evenodd" d="M40.6795 9.50453C40.6795 9.50453 39.9115 9.52437 39.7477 12.7186C39.5839 15.9129 39.5045 17.5922 39.388 19.1749C39.2715 20.7577 39.0002 21.7183 38.8639 22.6508C38.7275 23.5833 38.6501 24.8543 38.2136 25.6313C38.0216 25.9903 37.6114 27.1167 36.6501 27.9615C35.5724 28.8933 33.9621 29.5442 33.7183 29.5929C33.2908 29.6895 31.1256 29.9033 30.2425 30.389C29.9321 30.5541 29.3977 30.7481 28.8057 31.3017C27.6306 32.3596 26.0677 34.2527 24.9413 36.5343C23.2133 39.9423 21.4854 49.5634 21.4854 49.5634L21.8738 48.9132C21.8738 48.9132 21.9225 48.0492 22.7865 46.5343C23.6313 45.0201 23.3887 43.3209 24.5631 40.4178C25.0194 39.3113 25.5922 37.8745 26.2911 36.6508C27.3983 34.6604 28.7378 32.9516 30.0876 32.0197C32.2911 30.5055 34.7186 30.1753 34.7186 30.1753L37.3304 28.4473C37.3304 28.4473 37.7867 27.5641 38.389 26.5541C39.2331 25.1372 40.309 23.5545 40.5439 21.2537C40.9035 17.8457 40.0389 15.6127 40.0875 13.5935C40.1362 11.5743 40.1554 10.0889 40.5637 9.72917C40.972 9.36949 40.6802 9.50581 40.6802 9.50581L40.6795 9.50453Z" fill="#A88F33"/>
        <path fill-rule="evenodd" clip-rule="evenodd" d="M40.6795 24.7473C40.6795 24.7473 41.8315 21.9121 42.3589 19.3975C42.4561 18.8926 42.6501 18.3882 42.6987 17.9806C42.9413 15.6017 43.0091 14.6212 42.6987 13.3201C42.4561 12.3601 41.5243 11.4948 41.0385 10.8241C40.563 10.1246 40.3397 9.86408 40.4369 9.71688C40.5342 9.56968 40.9125 9.32904 41.2811 9.35784C41.673 9.36924 42.0584 9.46023 42.414 9.62526C42.7696 9.7903 43.0879 10.0259 43.3496 10.3178C44.0971 11.1818 44.6891 14.1143 44.6891 14.1143L45.3119 17.9838L46.8946 22.8574L40.6808 24.7511L40.6795 24.7473Z" fill="#C99E3D"/>
        <path fill-rule="evenodd" clip-rule="evenodd" d="M51.505 21.7975C51.505 21.7975 51.2912 21.8942 50.9034 21.7975C50.9199 21.956 50.8924 22.116 50.8238 22.2599C50.7553 22.4037 50.6484 22.5259 50.5149 22.6129C50.1072 22.4478 46.2909 22.778 46.2909 22.778C46.2909 22.778 44.5142 22.467 43.9606 20.1175C43.5728 18.554 44.2518 16.3991 44.0285 14.9815C43.6886 12.8938 43.2131 12.4855 43.1645 11.8359C43.1158 11.1863 43.0672 11.0206 43.0672 10.6129C42.8534 10.5642 42.7274 10.4964 42.5142 10.4964C42.4656 10.3044 42.5622 10.1367 42.3491 9.79688C42.4656 9.84552 43.2618 9.9428 44.1936 10.826C44.9616 11.5447 44.9616 11.8065 45.0774 11.9524C45.2227 12.0977 46.3978 13.1044 46.9027 14.1079C47.4077 15.1114 48.3882 18.3114 48.6115 18.8356C48.6794 19.0494 48.8253 19.2631 49.1875 19.7482C49.7507 20.4478 50.5757 21.6042 51.5075 21.7962L51.505 21.7975Z" fill="#B58634"/>
        <path fill-rule="evenodd" clip-rule="evenodd" d="M45.2144 12C45.8025 12.9501 46.3309 13.9359 46.7964 14.9517C47.3692 16.2426 47.7091 17.3011 48.4278 18.1651C48.0393 17.0394 47.35 14.8256 46.9424 14.039C46.486 13.207 45.5542 12.311 45.2144 12.0006L45.2144 12Z" fill="#A88F33"/>
        <path fill-rule="evenodd" clip-rule="evenodd" d="M38.6116 27.9616C38.6116 27.9616 37.6311 28.2041 35.8059 29.1654C35.2036 29.4758 34.6315 29.7376 34.0779 29.9808C32.6398 30.631 31.0974 31.232 29.8738 31.5635C29.971 31.68 30.019 31.728 30.019 31.728C30.019 31.728 30.019 32.2041 30.2814 32.4755C30.1362 32.6214 28.1938 33.9417 28.7672 38.359C29.155 38.2137 29.6114 38.0192 29.6792 38.0192C29.7963 38.039 29.8251 38.359 29.9704 38.359C30.1157 38.359 30.5918 38.167 31.0968 37.5142C31.0776 37.7766 30.7864 40.4173 32.3493 42.1939C32.6405 41.8541 33.3784 40.7277 33.3784 40.7277L33.3976 40.3686C33.3976 40.3686 33.4654 39.1161 33.8737 37.9705C34.282 36.8249 35.0776 35.9801 35.0776 35.9801L39.2318 30.048L38.6103 27.9609L38.6116 27.9616Z" fill="#E6C367"/>
        <path fill-rule="evenodd" clip-rule="evenodd" d="M34.7282 36.6727C34.538 36.8071 34.3285 36.9118 34.1068 36.9831C34.0389 36.7406 33.9417 35.9054 34.5145 35.09C35.1845 34.1089 36.6501 32.8372 37.0578 31.826C37.3202 31.1751 37.2037 29.5444 39.534 27.4567C41.8642 25.369 42.7762 24.6509 42.7762 24.6509L46.5433 22.7578L51.1743 24.5831L48.8735 33.6007L47.0873 37.8247L39.9833 36.4852L34.7276 36.6727H34.7282Z" fill="#DCBA5A"/>
        <path fill-rule="evenodd" clip-rule="evenodd" d="M37.4399 34.2232L38.3238 33.1166L38.3238 32.3301C38.3238 32.3301 39.3043 32.0677 40.3622 30.9899C41.4201 29.9121 42.8864 27.8443 44.1779 27.9704C45.4694 28.1163 45.5955 30.7761 45.6441 31.5243C45.6928 32.2725 45.8579 33.9704 46.1197 34.8837C46.4109 35.7963 42.974 39.2523 42.974 39.2523L40.64 41.029L37.4399 34.2232Z" fill="#E9CE77"/>
        <path fill-rule="evenodd" clip-rule="evenodd" d="M40.1748 43.4375C40.1748 43.4375 40.8935 42.3111 40.3668 42.0686C40.6772 41.3697 41.25 40.6318 41.25 40.6318C41.25 40.6318 41.6577 39.6225 42.978 38.3796C44.2983 37.1367 45.1143 36.3111 45.328 35.4766C45.4598 34.9327 45.5315 34.3759 45.5418 33.8164C45.6845 33.933 45.8372 34.0369 45.9981 34.1268C46.2119 34.2241 47.2211 35.0586 47.0759 36.7386C46.9306 38.4187 46.3079 39.1175 46.3079 39.1175C46.3079 39.1175 45.7063 39.7191 45.2794 40.0302C44.8224 40.3406 44.658 40.6996 43.8906 40.729C43.9695 40.6663 44.0581 40.617 44.153 40.5831C44.153 40.5831 43.3569 40.4865 42.9293 40.8743C42.5018 41.2622 41.593 42.4571 41.1367 42.8167C40.6804 43.1079 40.1767 43.4382 40.1767 43.4382L40.1748 43.4375Z" fill="#CDAE50"/>
        <path fill-rule="evenodd" clip-rule="evenodd" d="M72.4565 24.553C71.3094 24.1349 70.104 23.8991 68.884 23.8541C66.845 23.7862 63.8645 23.9027 60.9423 23.9219C57.7967 23.9411 54.9423 22.8442 50.9813 22.6502C50.3311 22.2618 48.6774 20.5625 43.5151 24.1645C43.8255 24.1453 47.263 23.3683 48.4566 24.864C49.6604 26.3494 49.3206 28.8736 49.1561 29.4752C48.845 30.8154 47.8351 32.7667 47.4281 34.1357C47.021 35.5047 47.117 36.224 46.8258 37.184C46.5346 38.144 45.894 38.6208 46.2722 39.7274C46.7772 39.417 47.0402 39.417 47.8838 37.5239C48.7273 35.6308 48.5538 34.281 49.9522 32.6791C51.3212 31.0675 53.6002 28.8634 54.4668 28.3098C55.3333 27.7562 62.2139 24.1837 69.4184 27.5917C71.156 27.4074 72.4571 24.5523 72.4571 24.5523L72.4565 24.553Z" fill="#D2A83E"/>
        <path fill-rule="evenodd" clip-rule="evenodd" d="M46.4172 23.2331C46.4101 23.1601 46.394 23.0883 46.3692 23.0193C46.3019 22.8773 46.2134 22.7464 46.1068 22.6308C46.1068 22.6308 44.398 22.3204 43.534 22.4171C42.0192 22.5822 40.6502 24.4561 40.0096 25.4174C39.3689 26.3787 38.5728 27.8635 37.7088 28.6309C37.7182 28.5561 37.701 28.4804 37.6601 28.4171C37.6601 28.4171 37.7088 28.485 37.6121 28.5822C37.5155 28.6795 37.5149 28.7275 37.5635 28.7742L37.7094 28.9195C37.7574 28.9195 39.0976 28.3173 40.9228 26.6155C42.8646 24.8389 44.35 23.9275 45.127 23.6152C45.5413 23.4391 45.9744 23.3109 46.4179 23.2331H46.4172Z" fill="#C29637"/>
        <path fill-rule="evenodd" clip-rule="evenodd" d="M79.5637 15.9336C79.5637 15.9336 79.2527 16.3214 78.8642 16.749C78.0002 17.6616 76.8738 18.6901 75.9125 19.7486C75.0005 20.7586 73.9714 21.5451 72.8156 22.8654C71.6597 24.1858 70.3196 25.6514 69.9804 26.0789C69.67 26.5064 69.4274 27.2053 69.4274 27.5643C69.2623 27.4478 69.0684 27.3218 69.0684 27.3218C69.15 27.4742 69.2476 27.6175 69.3596 27.7493C69.6021 28.0891 69.9804 28.5173 70.1749 28.7784C70.4136 29.1108 70.5849 29.4867 70.6792 29.885C70.7957 29.9042 71.5432 30.0501 72.4757 28.516C73.4082 26.9819 74.6306 25.3026 74.6306 25.3026L76.5724 22.4187L77.796 19.9726L79.332 17.2347L79.5656 15.9336H79.5637Z" fill="#AC8132"/>
        <path fill-rule="evenodd" clip-rule="evenodd" d="M81.5541 13.9727C81.5541 13.9727 80.379 14.9327 79.9227 15.5087C79.4664 16.0847 78.3867 17.5964 78.3867 17.5964L78.7752 17.5477L80.7464 15.8005L81.5144 14.4315L81.5534 13.9752L81.5541 13.9727Z" fill="#A88F33"/>
        <path fill-rule="evenodd" clip-rule="evenodd" d="M81.1941 91.1262C81.1941 91.1262 81.1749 90.33 81.6216 89.8545C82.0779 89.3784 83.2331 88.6795 84.3595 86.058C85.4859 83.4366 85.6114 82.8446 85.6114 82.8446C85.6114 82.8446 83.5922 84.5726 82.3474 84.9803C82.6386 84.378 82.8037 83.9512 82.9496 83.6401C82.7845 83.4948 82.0856 83.3297 82.0178 83.2523C82.4056 82.8638 82.6194 81.9121 83.4059 81.2811C84.4158 80.5131 86.2603 79.1934 87.6939 78.0171C89.1275 76.8408 91.9461 74.1048 92.3058 73.3086C92.5195 73.619 92.5675 73.8129 92.5675 73.8129C92.5675 73.8129 91.1506 75.658 90.4127 76.8324C89.7618 77.8424 89.8104 78.4152 89.8104 78.4152L91.1506 77.8392C91.1506 77.8392 91.5384 79.276 89.7816 81.4609C90.5496 81.1697 90.8594 81.3444 91.2959 81.1012C90.5771 81.5582 89.5871 82.1796 88.6552 83.8878C87.7426 85.5966 86.4997 87.587 84.4031 88.8292C82.364 90.1399 81.189 91.1204 81.189 91.1204L81.1941 91.1262Z" fill="#A67A2E"/>
        <path fill-rule="evenodd" clip-rule="evenodd" d="M75.9319 25.5618C75.9319 25.5618 75.1357 27.2213 75.0192 28.5128C75 28.8239 74.922 29.0664 74.922 29.4255C74.9028 30.5807 74.9898 31.8722 74.73 32.4738C74.6327 32.2312 74.584 32.0661 74.4868 31.9695C74.3415 32.3771 74.0791 33.6488 73.8653 34.1243C73.7687 33.8139 73.5549 32.7362 73.5748 31.4645C73.5946 30.1928 73.6228 29.9496 73.6228 29.6879C73.5748 30.0757 73.3124 30.6005 73.2151 30.9109C73.0698 30.6491 72.9047 30.3093 72.7101 30.0277C72.5937 30.2197 72.4484 30.5032 72.3223 30.6491C72.3025 30.5327 72.2545 30.2216 72.225 29.7852C72.2058 29.2802 72.1764 28.63 72.2058 28.4936C72.2538 28.2319 72.6621 27.2028 73.5261 26.2607C74.5552 25.1343 75.6138 22.9698 75.9242 22.2997C76.2346 21.6297 77.5549 18.8438 77.5549 18.8438H78.5648L77.0986 22.1833C77.0986 22.1833 76.2154 24.0085 75.7591 24.6793C75.3028 25.35 74.3415 27.2719 73.914 28.0194C74.2244 27.6117 74.4868 27.398 74.7978 27.0095C75.0986 26.7375 75.9331 25.5631 75.9331 25.5631L75.9319 25.5618Z" fill="#8C6228"/>
        <path fill-rule="evenodd" clip-rule="evenodd" d="M81.5734 13.8438C81.4085 14.3515 81.1478 14.8229 80.8054 15.2326C80.2032 15.9513 78.9117 16.9119 78.2813 17.6786C77.7053 18.4262 76.5533 20.4652 77.0768 22.8825C77.2688 22.3583 77.6304 21.3196 78.5917 20.1446C79.553 18.9695 80.5821 17.6204 81.0877 16.5721C81.592 15.5135 81.6598 14.6789 81.6598 14.6789L81.8518 14.4364L81.7353 13.8828L81.5702 13.8438H81.5734Z" fill="#CBA94C"/>
        <path fill-rule="evenodd" clip-rule="evenodd" d="M101.233 78.2435C101.233 78.2435 100.845 77.1856 100.728 76.2243C100.612 75.263 100.92 75.0723 100.563 73.9721C100.349 73.3021 99.9613 73.3961 99.8641 73.3021C99.7668 73.208 99.6989 72.1955 99.7181 71.6419C99.7373 71.0883 99.6989 70.3702 99.6017 70.0592C99.4564 69.9427 99.3591 69.8454 99.1453 69.1273C98.9028 68.4086 98.7863 68.0496 98.6698 67.8365C98.5533 67.6233 98.2129 67.4288 98.2129 67.215C98.2129 66.7875 98.6013 66.5648 98.6013 66.447C98.5821 66.2045 98.2909 66.399 98.2129 66.3305C98.1162 66.2141 98.4561 65.5152 98.33 65.4179C98.2813 65.3699 97.9415 65.7776 97.8538 65.6611C97.7565 65.544 97.6401 64.3888 97.4653 63.6221C97.3009 62.8745 97.1255 62.3312 97.1063 62.1078C97.0871 61.8941 95.7661 58.127 95.4461 57.2144C95.1882 56.4432 94.9712 55.659 94.7959 54.8649C94.6986 54.4086 94.6308 53.4761 94.5821 53.5734C94.5335 53.6707 94.5629 54.1462 94.4848 54.127C94.417 54.1072 94.1744 52.4477 94.097 52.1853C94.0292 51.9229 93.6208 51.0333 93.521 50.3894C93.4237 49.7385 93.2106 48.0393 93.0647 46.8841C92.9188 45.7289 92.8509 45.2534 92.8509 44.9641C92.8748 44.2566 92.8358 43.5483 92.7344 42.8477C92.5424 41.624 92.1584 40.1385 91.8218 39.2752C91.1716 37.6438 89.4429 33.4691 89.1338 32.4304C89.1338 32.168 89.4736 32.3139 89.4736 32.3139C89.4736 32.3139 90.3178 34.4304 90.9392 36.0611C91.5415 37.6925 92.1143 39.1293 92.2602 39.2752C92.3767 39.4205 93.2893 41.0224 93.697 43.6438C94.1047 46.2653 94.25 48.6825 94.4932 50.2941C94.6096 51.0621 94.7069 51.8768 94.9495 52.6921C95.2112 53.576 95.6189 54.4886 96.1533 55.8864C96.6097 57.0614 96.9495 58.0419 97.1338 58.8867C97.3476 59.9645 97.3476 60.7798 97.4737 61.3142C97.5908 61.7705 97.7649 62.6825 98.1732 64.0022C98.5815 65.3219 99.1825 67.0217 99.5901 68.0797C100.387 70.1961 100.742 71.9632 100.862 72.9053C100.969 73.8761 101.328 77.2355 101.231 78.2448L101.233 78.2435Z" fill="#A88F33"/>
        <path fill-rule="evenodd" clip-rule="evenodd" d="M81.6217 13.7288L81.573 13.8453C81.573 13.8453 81.7183 13.8939 81.6895 14.0885C81.6916 14.3547 81.6753 14.6207 81.6409 14.8847C81.5929 15.2245 81.4956 15.4863 81.4764 15.7C81.4764 16.1563 81.5442 16.6805 80.9004 17.9816C80.7084 18.3407 80.59 18.6511 80.4927 18.8648C80.2502 19.389 80.2016 19.4671 79.9878 19.7096C80.3276 19.5176 81.5513 18.7496 82.1721 18.8648C81.7452 19.1074 81.0943 19.5835 80.6867 20.205C80.7839 20.2242 81.1916 20.3023 81.8386 20.205C82.9164 20.0399 84.1202 19.6514 85.1781 19.7288C86.3339 19.7967 85.8776 18.3407 85.8776 18.3407L84.5439 15.4088L82.0198 13.6328L81.6217 13.7295L81.6217 13.7288Z" fill="#BE9C44"/>
        <path fill-rule="evenodd" clip-rule="evenodd" d="M88.2042 35.6892C88.2042 35.6892 87.0778 34.5628 86.6214 30.6972C86.1651 26.8137 86.2624 21.0972 86.2624 21.0972L85.3497 18.8642C85.3497 18.8642 85.1578 17.3788 84.6797 16.8258C84.2016 16.2729 83.2627 15.3404 82.8352 14.8841C82.4077 14.4278 81.9225 13.8063 81.6313 13.709C81.7766 13.4665 82.4275 12.0975 84.9222 12.0783C87.417 12.0591 88.1862 13.4473 88.4467 13.9522C88.7072 14.4572 89.8835 16.6402 90.32 20.8002C90.7277 24.9551 90.7475 25.2662 90.6797 26.703C90.631 27.4991 90.3686 29.3436 89.9117 31.3142C89.4944 32.9846 89.0381 34.8489 88.2029 35.693L88.2042 35.6892Z" fill="#A17C34"/>
        <path fill-rule="evenodd" clip-rule="evenodd" d="M84.6721 39.0018C85.0475 39.0289 85.4225 38.9442 85.7499 38.7586C86.1089 38.7394 87.4101 38.9045 88.4098 37.6328C88.4776 37.9234 88.653 38.7106 88.196 39.4094C88.4392 39.1662 88.7983 39.0696 88.8469 39.0018C88.8661 39.3608 89.206 40.4674 87.7691 43.1566C88.157 42.7298 88.6133 42.749 89.021 42.7003C89.0408 43.2053 89.3122 44.9038 88.5941 45.8171C88.1186 46.4385 87.3416 46.244 87.3416 46.244C87.353 46.1083 87.353 45.972 87.3416 45.8363C87.3224 45.5739 87.2251 45.3121 87.2936 45.1374C86.9182 44.9659 86.5762 44.7291 86.2837 44.4379C85.4388 43.6418 84.3419 42.283 84.2644 41.2731C84.1671 40.1467 85.1771 39.9042 85.1771 39.9042C85.0925 39.8285 85.0203 39.7399 84.9633 39.6418C84.9147 39.4773 84.866 39.2149 84.6721 39.0018Z" fill="#8C6228"/>
        <path fill-rule="evenodd" clip-rule="evenodd" d="M77.1839 26.7856C77.1839 26.7856 77.1353 26.7178 76.8735 27.0282C76.9222 26.7178 76.9708 26.426 76.99 26.1444C77.1139 25.8837 77.2742 25.6419 77.4662 25.4263C77.3203 25.7168 77.223 25.9792 77.223 25.9792C77.223 25.9792 77.5827 25.3092 78.1068 24.9015C78.4658 24.6103 78.9222 24.4746 79.1161 24.2026C79.3298 23.9114 79.2812 23.8628 79.3298 23.8141C79.3298 23.8141 79.806 23.5037 80.5343 22.5904C80.6309 22.474 80.7769 22.3479 80.8741 22.2314C81.0386 22.1636 81.4271 21.9888 81.8834 21.7552C82.3596 21.4935 82.8933 21.1344 83.2236 20.9872C83.8738 20.696 84.5637 20.7255 84.8837 20.2685C85.1263 20.2007 85.388 19.4724 85.34 18.8516C85.699 18.9968 87.5435 20.1424 88.1752 22.6474C88.6315 24.424 87.8155 27.162 87.4757 28.4829C87.1358 29.8039 87.0878 30.7837 86.6117 31.3853C86.0095 32.1821 84.0683 33.3053 83.5922 33.8615C83.1845 34.3178 81.9615 35.473 82.0095 36.3076C82.0581 36.929 82.8248 37.2676 82.9906 37.3853C83.1564 37.5031 83.1551 37.6477 83.4661 37.5773C83.7772 37.5069 83.893 37.3636 84.0197 37.3636C84.165 37.3828 84.165 37.4122 84.2328 37.4122C84.282 37.4107 84.3309 37.4041 84.3787 37.3924C84.3787 37.3924 84.3301 38.2762 82.2623 38.5444C82.1164 38.5642 81.9711 38.6122 81.7861 38.6416C82.0293 38.5252 82.1746 38.5252 82.437 38.1661C82.1458 38.1175 81.3106 38.0688 81.0969 38.001C81.1647 37.8845 81.388 37.5735 81.5724 37.4282C81.7375 37.2829 81.5532 37.2362 81.4079 37.3117C81.1578 37.4819 80.9178 37.6665 80.6892 37.8647C80.4466 38.0784 80.2329 38.3696 79.8444 38.6327C79.7279 38.2442 79.7471 37.5063 80.2041 36.9725C80.0869 36.9917 79.8636 37.3316 79.6505 37.2637C79.6119 36.9096 79.6349 36.5515 79.7183 36.2052C79.8348 35.768 80.4658 35.0013 80.4658 35.0013L83.5141 29.5543L84.1643 25.4282L77.1839 26.7844L77.1839 26.7856Z" fill="#92723A"/>
        <path fill-rule="evenodd" clip-rule="evenodd" d="M77.0197 27.0186C77.0197 27.0186 76.8545 27.1351 77.1848 27.3585C77.1361 27.4263 77.0197 27.6689 76.8737 27.834C76.7093 28.026 76.5339 28.145 76.4661 28.3101C76.3208 28.65 76.2043 28.8829 76.2043 29.0289C76.2043 29.1748 76.1556 30.1066 75.748 30.7082C75.602 30.922 75.4369 31.281 75.3204 31.5236C75.0779 31.9505 74.8641 32.2916 74.8155 32.4836C74.7188 32.8234 74.651 33.7553 74.651 33.7553C74.651 33.7553 74.8647 33.4929 74.9422 33.3962C74.8251 33.6388 74.699 33.9005 74.5146 34.0951C74.6311 33.9978 74.971 33.7553 75.5438 33.2503C76.34 32.5809 77.5829 31.4545 79.0978 30.5623C78.6408 30.7274 78.253 30.7274 77.9426 30.7761C78.1851 30.5335 80.3695 27.9703 81.5151 27.7277C81.5847 27.6395 81.6193 27.5288 81.6124 27.4167L80.6313 27.3201L78.6408 27.7469L78.3502 26.2109L77.0197 27.0167L77.0197 27.0186Z" fill="#B18E3E"/>
        <path fill-rule="evenodd" clip-rule="evenodd" d="M80.1851 35.7592C80.1851 35.7592 79.9227 36.0209 79.6801 36.6718C79.4934 36.4768 79.3333 36.258 79.204 36.0209C78.8449 35.4193 78.292 34.652 77.0005 35.0891C76.9813 34.6814 76.9518 34.4677 77.0005 34.1765C77.2142 34.1285 77.8645 33.6043 78.5147 32.8369C78.9717 32.3128 79.3985 31.7105 79.6897 30.9438C79.8817 30.7979 80.2139 30.5553 80.6497 30.2737C81.2712 29.8469 82.0187 29.2638 82.1352 28.6136C81.844 28.7301 81.2225 29.0213 80.2901 28.9733C80.6497 28.8081 81.2027 28.6334 81.1348 27.9147C81.2808 27.8174 81.3972 27.7496 81.3972 27.7496C81.2878 27.7131 81.1727 27.6966 81.0574 27.7009C81.0376 27.6331 81.0088 27.5365 80.8437 27.5845C80.6785 27.6325 80.6516 27.6331 80.6299 27.7009C80.562 27.7208 80.3387 27.7009 80.1736 27.8181C80.0084 27.9352 79.5521 28.3224 79.3774 28.3902C79.4453 28.2737 79.5419 28.0997 79.5419 28.0997C79.5419 28.0997 79.0664 28.1477 78.7265 28.2917C78.1051 28.5054 77.387 28.8939 76.6587 29.2721C76.7265 29.1557 76.756 29.0801 76.804 29.0584C76.852 29.0366 76.9691 29.0104 76.9691 28.9906C76.9691 28.9707 76.9211 28.7985 76.9499 28.7288C77.1676 28.2675 77.4246 27.8258 77.7179 27.4085C78.0577 26.9515 78.1256 26.3013 78.1256 26.3013L79.611 25.5537L83.7857 24.5938L86.4948 24.7589L86.155 26.6328L84.555 29.9045L83.1861 32.8849L81.6225 34.7109L80.1857 35.7592H80.1851Z" fill="#543E26"/>
        <path fill-rule="evenodd" clip-rule="evenodd" d="M86.952 27.6466C86.952 27.6466 85.3206 29.6658 84.8643 29.9768C85.1555 29.3554 86.952 25.6562 87.6022 24.627C87.4569 24.5106 87.2624 24.5106 87.7187 22.707C87.3308 23.619 87.1945 24.0952 86.8745 24.3378C86.5545 24.5803 86.5148 24.5029 86.2985 24.5029C86.3394 24.429 86.3561 24.3442 86.3465 24.2603C86.3465 24.2603 84.9775 24.0952 84.0425 24.0952C83.1074 24.0952 81.2565 24.6002 80.2268 25.0078C79.4114 25.3477 78.9551 25.3477 78.6639 25.5608C78.3727 25.8034 78.2075 26.0658 78.0616 26.1336C77.9451 26.2014 77.3922 26.3762 77.2655 26.5605C77.149 26.7525 76.9551 26.9682 76.9551 27.0168C76.9551 27.0654 76.9064 27.1339 77.0523 27.0846C77.1003 27.0654 77.46 26.8709 77.8677 26.6283C78.4207 26.3179 79.0908 25.9589 79.5765 25.7451C80.9647 25.1915 81.4018 25.2888 82.0226 25.1723C82.6729 25.0558 83.6054 24.7838 84.2262 24.7838C84.8476 24.7646 86.0227 24.7838 86.2947 24.8325C86.1782 24.9298 86.0809 25.0462 86.1296 25.4539C86.1296 25.5704 86.0323 25.6965 85.9376 25.9781C85.647 26.7742 85.0934 28.0946 84.7855 28.7646C84.3587 29.6766 83.8735 30.444 83.6335 30.9195C83.3935 31.395 82.8655 32.6475 82.3426 33.3176C81.8197 33.9877 81.5465 34.3954 81.3826 34.5413C81.2188 34.6872 80.0424 35.5506 80.1301 35.8616C80.3439 35.7938 81.6937 35.2856 82.6735 34.1822C83.6534 33.0789 83.8486 32.4056 84.6153 31.8034C85.382 31.2011 85.9843 30.1918 86.3433 29.3573C86.6441 28.5803 86.5763 28.3378 86.9545 27.6485L86.952 27.6466Z" fill="#806031"/>
        <path fill-rule="evenodd" clip-rule="evenodd" d="M51.7967 42.7183C51.7967 42.7183 51.5829 43.6015 51.0972 44.0386C50.6217 44.4662 49.7768 44.8348 49.6802 45.5535C49.5637 46.2716 50.525 46.6313 50.525 46.6313C50.525 46.6313 50.0002 47.4953 50.0002 48.1455C50.0002 48.8156 49.981 48.9417 50.0488 49.5823C49.9718 49.6319 49.9064 49.6973 49.8568 49.7743C49.8568 49.7743 49.9048 50.3958 50.381 50.7836C50.8572 51.1715 51.2642 51.4051 51.5068 51.3078C51.5438 51.3869 51.5763 51.4681 51.6041 51.551C51.6041 51.551 51.9637 50.6383 52.2063 49.8422C52.4489 49.0268 52.6626 49.1427 52.7593 48.0457C52.8559 46.9487 53.9113 45.0652 53.9113 45.0652L54.6313 43.4556L53.4569 42.543L51.7967 42.7177L51.7967 42.7183Z" fill="#B6903C"/>
        <path fill-rule="evenodd" clip-rule="evenodd" d="M53.9808 44.3008C53.7386 44.5494 53.5151 44.8155 53.312 45.0969C53.0016 45.5245 52.759 45.9123 52.3027 46.0781C51.8464 46.2438 51.5552 46.2425 51.584 46.6995C51.6128 47.1565 52.0403 47.3497 52.2829 47.5827C52.5453 47.8253 52.759 48.2329 52.6426 48.6899C52.7878 48.6221 53.0502 48.544 53.2928 48.0198C53.5354 47.4957 55.232 44.3014 55.232 44.3014H53.9808L53.9808 44.3008Z" fill="#685026"/>
        <path fill-rule="evenodd" clip-rule="evenodd" d="M60.6717 36.9335C60.6717 36.9335 60.817 36.5457 60.6717 36.2641C60.5258 35.9729 59.6426 35.8756 59.2055 35.5454C58.7492 35.2055 58.1956 34.9694 57.7393 35.1185C57.8071 34.9534 58.0791 34.5937 57.8557 34.5162C57.642 34.4484 56.8465 34.8074 56.6327 34.9726C56.4189 35.1377 55.9332 35.3316 55.8365 35.4487C55.7399 35.5658 55.5741 35.7886 55.4769 35.6913C55.3796 35.6234 55.3316 35.4487 55.1665 35.5454C55.0013 35.642 54.2065 36.2929 54.0599 36.6718C53.9133 37.0506 53.5837 37.8954 52.5937 38.8561C51.6036 39.8167 51.1761 40.4388 51.4673 40.7978C51.7585 41.1569 51.8948 40.8951 51.9434 41.2055C51.9808 41.5102 51.9644 41.8191 51.8948 42.1181C51.7783 42.6231 51.5844 43.0986 51.8462 43.1959C52.5162 43.4097 53.1671 43.0039 53.3124 43.1281C53.6036 43.3898 53.1473 44.3319 53.8365 44.5162C54.5361 44.7082 55.2253 44.3511 55.2253 44.3511L57.7687 42.9821L60.2154 41.6913L61.4672 39.2151L60.7959 37.1473L60.6679 36.9335H60.6717Z" fill="#D4B968"/>
        <path fill-rule="evenodd" clip-rule="evenodd" d="M58.2721 42.8449C58.2721 42.8449 57.8446 42.1946 58.3694 41.6212C58.8941 41.0478 59.641 40.8058 59.9322 40.4468C59.8768 40.3784 59.8024 40.3279 59.7185 40.3015C59.9118 39.9556 60.2067 39.6775 60.5632 39.5047C60.418 39.3595 60.2234 39.243 60.0103 39.243C59.5341 39.243 59.2423 39.5342 58.8058 39.5342C58.379 39.5342 58.3303 39.3204 58.3303 39.3204C58.3303 39.3204 59.049 39.2526 58.9805 38.9319C58.9127 38.5921 58.7885 38.5921 58.7885 38.5921C58.7885 38.5921 60.1767 38.0161 60.4192 37.7089C60.6618 37.4017 60.633 37.0388 60.6816 36.8935C60.8461 36.8935 61.8074 36.3886 62.1959 36.6023C62.5843 36.8161 62.3124 37.3985 62.3124 37.3985C62.3124 37.3985 63.488 36.5147 64.0871 35.6481C64.6112 35.6967 64.855 35.2891 65.239 35.2891C65.7152 35.2891 66.4627 35.9393 66.608 37.3275C66.7053 38.1236 66.8506 38.5799 66.7053 39.9879C66.6374 40.7841 66.6566 42.4839 66.8973 43.3274C67.0617 43.9975 67.4502 43.9297 67.4502 43.9297C67.3906 44.1339 67.2725 44.3161 67.1104 44.4538C66.848 44.6964 66.8192 45.3377 66.848 45.5802C66.8867 45.7576 66.9354 45.9326 66.9939 46.1044C66.9939 46.1044 66.6835 46.4634 66.6054 46.7066C66.5376 46.9492 66.2176 47.1143 65.984 47.1143C65.7504 47.1143 65.8675 47.0945 65.5571 47.1143C65.2467 47.1342 65.1494 47.1822 64.9549 47.1143C64.7603 47.0465 64.6151 46.9684 64.6931 46.3463C64.761 45.7249 62.2951 44.2785 62.2951 44.2785L58.2631 42.8417L58.2721 42.8449Z" fill="#CCA849"/>
        <path fill-rule="evenodd" clip-rule="evenodd" d="M53.6409 48.9812C53.6409 48.9812 54.5241 50.1563 58.1555 50.1563C59.8835 50.1563 60.4857 49.9911 60.8435 49.8939C61.2319 49.7966 62.688 49.2244 64.1542 47.4958C65.4745 45.9329 65.1833 45.2923 65.1833 45.2923L64.4153 45.1758L61.9193 45.5156L54.5337 48.6612L53.6377 48.9812H53.6409Z" fill="#585136"/>
        <path fill-rule="evenodd" clip-rule="evenodd" d="M56.3492 49.2697C56.3492 49.2697 53.2036 49.9692 53.2036 47.9789C53.2036 46.0371 55.1454 43.9981 55.6311 43.6391C56.1361 43.2794 57.3399 42.8711 57.3399 42.8711H60.243L60.7959 44.3373L60.5534 47.5021L56.3492 49.2691L56.3492 49.2697Z" fill="#252211"/>
        <path fill-rule="evenodd" clip-rule="evenodd" d="M59.2524 43.4672C59.2524 43.4672 58.6508 42.9136 57.2818 43.6592C55.9129 44.4048 54.8057 45.9632 54.7378 47.3783C54.67 48.6301 55.767 49.5626 57.4758 49.6113C58.7474 49.6593 59.5148 49.514 59.9033 49.4193C59.806 49.3028 59.3011 48.6717 59.3011 48.6717L59.253 43.4679L59.2524 43.4672Z" fill="#C3B378"/>
        <path fill-rule="evenodd" clip-rule="evenodd" d="M58.6602 43.7752C58.6602 43.7752 58.5149 43.6587 58.0842 43.8917C57.7252 44.0837 57.201 44.5912 56.7933 44.9502C56.5309 45.164 56.3658 45.2606 56.2173 45.4257C55.6151 46.1445 55.1101 47.3195 55.402 47.9019C55.6938 48.4843 56.6545 49.1543 59.1012 48.698L58.6532 43.7759L58.6602 43.7752Z" fill="#E6D89C"/>
        <path fill-rule="evenodd" clip-rule="evenodd" d="M57.8644 44.9811C57.8644 44.9811 57.4759 45.5833 57.4759 46.5446C57.4759 47.5251 58.0295 49.088 60.0686 49.2045C61.6314 49.3017 62.6797 46.9523 63.8157 46.0396C64.6797 45.3407 65.2039 45.3209 65.2039 45.3209C65.2039 45.3209 64.3207 44.3609 61.9617 43.1174C59.6314 41.8649 57.0196 41.6998 55.6021 43.6223C56.2721 43.5737 58.4372 43.0201 58.4372 43.0201L59.4958 43.3599L57.8644 44.9817L57.8644 44.9811Z" fill="#252211"/>
        <path fill-rule="evenodd" clip-rule="evenodd" d="M60.9126 46.2528C60.8447 46.1075 60.7961 45.913 61.0777 45.865C61.3593 45.817 61.4853 45.8451 61.5826 46.057C61.6799 46.2688 61.7746 46.4455 61.6306 46.5331C61.4853 46.6106 61.1065 46.5331 60.9119 46.2515L60.9126 46.2528ZM60.4563 44.8839C60.4563 44.8839 60.359 44.9517 60.4077 44.816C60.4269 44.6516 60.5536 44.3597 60.8639 44.4282C61.1743 44.4967 61.1071 44.8359 61.0559 44.9332C61.0047 45.0304 60.7456 45.1949 60.551 45.1252C60.5263 45.1188 60.5035 45.1068 60.4844 45.09C60.4652 45.0732 60.4503 45.0522 60.4408 45.0286C60.4314 45.0049 60.4276 44.9794 60.4298 44.954C60.4321 44.9287 60.4403 44.9042 60.4537 44.8826L60.4563 44.8839Z" fill="#6F674D"/>
        <path fill-rule="evenodd" clip-rule="evenodd" d="M34.1758 45.5032C34.1758 45.5032 34.9438 46.0792 35.8359 46.0568C36.7191 46.0369 37.8551 45.1249 38.3793 44.5419C38.6897 44.2021 38.9553 43.843 39.2433 43.5614C39.4865 43.3189 39.651 43.2024 39.7675 43.0373C39.9326 42.8453 40.1073 42.4843 40.195 42.3672C39.9812 42.5323 39.6708 42.8241 39.3502 43.0181C39.0398 43.2101 38.3697 43.571 38.0977 43.6683C37.8359 43.7656 35.1172 45.2043 35.1172 45.2043L34.1758 45.5032Z" fill="#AC924C"/>
        <path fill-rule="evenodd" clip-rule="evenodd" d="M35.3496 38.3316C35.3496 38.3316 35.7765 38.0404 36.6021 37.8555C37.3982 37.6635 39.0002 37.5156 39.0002 37.5156L40.3205 38.0916L40.8446 40.082L39.8846 42.1505L38.6616 42.9185L37.2728 40.6855L35.3528 38.3355L35.3496 38.3316Z" fill="#9F8E57"/>
        <path fill-rule="evenodd" clip-rule="evenodd" d="M33.622 40.1068L33.165 40.4479C33.165 40.4479 33.2822 40.2342 33.3788 39.5839C33.4754 38.9337 33.981 37.351 34.719 36.4383C35.4569 35.5257 35.4377 35.5743 35.4377 35.5743C35.3698 35.5619 35.3 35.5641 35.233 35.5807C35.166 35.5974 35.1034 35.6282 35.0492 35.6709C35.1465 35.4559 35.7679 34.6879 36.3894 34.3039C37.0108 33.9199 37.2534 33.7989 37.9036 34.1119C38.5538 34.4249 38.719 34.5874 39.1951 34.5682C39.6713 34.549 40.0783 34.0441 40.0783 34.0441C40.0783 34.0441 40.1756 34.3545 39.8166 35.0732C39.4575 35.7919 38.0399 37.2575 38.0399 37.2575L35.0882 39.2767L33.622 40.1087L33.622 40.1068Z" fill="#EAC970"/>
        <path fill-rule="evenodd" clip-rule="evenodd" d="M35.8058 38.0872C35.8058 38.0872 37.9421 38.3784 38.5923 37.7768C38.6115 37.8446 38.6896 37.8446 38.6896 37.8933C38.6844 37.9299 38.6673 37.9639 38.641 37.9899C38.7117 37.9786 38.7831 37.9722 38.8547 37.9707C38.9402 37.9962 39.0282 38.0125 39.1171 38.0194C39.1888 38.0178 39.2602 38.0112 39.3309 37.9995C39.3242 38.0478 39.3078 38.0942 39.2827 38.136C39.2576 38.1777 39.2244 38.214 39.185 38.2427C39.2823 38.2427 39.377 38.2619 39.377 38.3394C39.377 38.4168 39.3962 38.6504 39.2797 38.699C39.1832 38.7257 39.0805 38.7187 38.9885 38.6792C38.9962 38.863 39.0461 39.0426 39.1344 39.204C39.3264 39.563 39.736 39.972 40.2864 39.8542C40.2864 39.8542 40.577 40.5531 39.3539 42.1064C39.1895 42.3202 39.0141 42.6114 38.801 42.8539C38.7168 43.0375 38.6524 43.2295 38.609 43.4267C38.609 43.4267 40.6775 42.6306 41.2695 40.8149C41.8717 38.9896 41.9882 37.1938 41.8717 35.5144C41.8519 35.0382 41.7744 34.699 41.6579 34.4558C41.3667 33.8536 40.5507 33.9509 40.2211 34.2907C39.745 34.7669 38.9488 35.9509 37.8423 36.7662C36.7159 37.5816 36.6679 37.7262 35.8032 38.0872H35.8058Z" fill="#D7BC6B"/>
        <path fill-rule="evenodd" clip-rule="evenodd" d="M33.2427 40.7088C33.2427 40.7088 32.835 40.9513 32.6213 41.8608C32.4075 42.7926 32.8133 43.9286 33.0482 44.2876C33.283 44.6467 33.8162 45.6278 34.9221 45.6764C35.1958 45.675 35.4665 45.6188 35.7183 45.5113C36.1043 45.3343 36.4665 45.1091 36.796 44.8412C37.2722 44.4822 37.66 44.1718 37.6114 44.1424C37.4949 44.0937 34.6795 41.7635 34.6795 41.7635L33.621 40.582L33.2421 40.71L33.2427 40.7088Z" fill="#585136"/>
        <path fill-rule="evenodd" clip-rule="evenodd" d="M35.9039 44.5711C35.9039 44.5711 36.4768 44.5231 36.8166 44.3093C37.1564 44.0956 34.8262 41.7852 34.8262 41.7852L34.9913 44.2812L35.9039 44.5711Z" fill="#453A25"/>
        <path fill-rule="evenodd" clip-rule="evenodd" d="M33.4273 40.5322C33.4273 40.5322 33.1361 41.0858 33.1361 41.2318C33.0874 41.7073 33.2334 43.2023 33.3498 43.6778C33.4663 44.1828 34.0974 44.9495 34.9134 44.9495C35.4177 44.9495 36.1172 44.6391 36.1172 44.5617C36.1172 44.4644 35.3985 44.3697 35.2046 44.0081C35.0881 43.8161 35.0394 43.3386 35.0126 42.8561C34.9934 42.5457 34.9934 42.2058 35.1098 42.0881C35.3722 41.7969 35.4202 40.9617 35.4202 40.9617L36.3521 39.2305H35.1265L33.6602 40.1431L33.4273 40.5322Z" fill="#84754B"/>
        <path fill-rule="evenodd" clip-rule="evenodd" d="M33.0684 41.0687C33.0684 41.0687 34.0284 39.797 34.8936 39.5052C35.7589 39.2133 36.1461 39.3887 36.1461 39.3887L35.6411 40.6802L34.9224 41.4764L34.9711 41.884C34.9711 41.884 34.8539 42.9618 35.5727 43.7093C36.2914 44.4568 36.8251 44.428 37.1362 44.428C37.4472 44.428 38.34 44.1656 38.7963 43.0879C39.204 42.0786 39.5438 40.7839 38.7285 39.486C37.9317 38.1945 36.5243 38.1445 36.2523 38.1445C35.9803 38.1445 33.8447 38.2514 33.0684 41.0668L33.0684 41.0687Z" fill="#252211"/>
        <path fill-rule="evenodd" clip-rule="evenodd" d="M57.7182 45.3891C57.3592 45.224 57.699 44.2147 58.0581 43.9037C58.4171 43.5926 58.8734 43.2343 59.6702 43.185C59.9608 43.1658 60.2424 43.3501 60.1944 43.5447C60.1266 43.9037 59.6216 44.4086 59.1653 44.7677C58.5342 45.263 58.1259 45.5734 57.7182 45.3891Z" fill="#F7F7E7"/>
        <path fill-rule="evenodd" clip-rule="evenodd" d="M38.3007 39.884C38.5631 39.8648 38.9029 40.076 38.9708 40.3602C39.0386 40.6706 38.8056 41.292 38.3007 41.292C37.893 41.292 37.6792 40.7871 37.6792 40.6418C37.6838 40.5223 37.7172 40.4057 37.7765 40.302C37.7957 40.2725 37.8443 39.9327 38.3007 39.884Z" fill="#F8F6DE"/>
        <path fill-rule="evenodd" clip-rule="evenodd" d="M34.5145 40.1055C34.5145 40.1055 33.8444 40.4159 33.534 41.0655C33.3122 41.5451 33.2451 42.0819 33.342 42.6014C33.3906 42.844 33.6332 43.4456 33.7983 43.6593C33.9634 43.8731 34.1868 44.019 34.3519 43.9992C34.517 43.9793 34.8562 43.5429 34.8562 43.2811C34.8562 43.0193 34.8761 41.9122 35.1961 41.3099C35.4777 40.7083 34.5164 40.1061 34.5164 40.1061L34.5145 40.1055Z" fill="#D4C38B"/>
        <path fill-rule="evenodd" clip-rule="evenodd" d="M34.6117 40.0587C34.4952 40.1265 34.3013 40.2238 34.3493 40.3499C34.3979 40.4663 34.8056 40.5419 34.9515 40.826C35.1166 41.1172 35.1166 41.4276 35.068 41.5735C35.1948 41.5133 35.3099 41.4309 35.4078 41.3303C35.6216 41.0878 35.8834 40.7582 36.1067 40.7582C36.2527 40.7582 36.3979 40.826 36.5343 40.826C36.748 40.826 36.9611 40.7582 36.9906 40.5348C37.0386 40.2436 36.5829 39.9812 36.3205 40.0299C36.3691 39.8379 36.437 39.5544 36.2232 39.3598C36.0095 39.1653 35.34 39.5057 35.1941 39.603C35.0482 39.7003 34.6117 40.0593 34.6117 40.0593L34.6117 40.0587Z" fill="#E2D59D"/>
        <path fill-rule="evenodd" clip-rule="evenodd" d="M50.0389 60.4556L51.4757 60.0312L51.8834 60.3224C51.8834 60.3224 52.1739 60.9439 52.6309 61.0213C52.485 61.3317 52.1061 61.5973 52.1259 61.8175C52.1458 62.0376 52.3397 62.206 52.3397 62.206C52.3397 62.206 51.0482 64.3416 53.5922 66.494C52.9899 66.7365 52.2232 67.07 51.8155 67.262C52.1061 67.3298 52.7275 67.454 52.9899 67.6895C53.2523 67.925 53.2523 67.9999 53.4949 68.1458C53.7375 68.2917 53.8827 68.4856 53.8347 68.5727C53.6696 68.4754 53.116 68.1849 53.0194 68.4562C52.9227 68.7276 50.6213 68.6213 50.6213 68.6213L46.7378 69.3689C46.7378 69.3689 46.8831 68.9804 46.4754 68.6213C45.9999 68.1944 45.4175 68.6405 44.796 68.165C43.9807 67.5436 43.9512 66.8249 43.6895 66.5535C43.9512 66.3884 44.4856 66.1458 45.7573 65.9775C45.7087 65.8802 45.5435 65.589 45.6408 65.3272C45.7573 64.9874 46.2424 64.7736 46.0971 64.3672C46.3109 64.3186 46.4075 64.3186 46.9419 63.6485C47.4469 62.9785 47.7573 62.8332 48.1458 62.7845C48.5343 62.7359 48.7672 62.7845 49.4859 62.1144C49.9903 61.6389 49.8258 61.2312 49.8258 61.2312C49.8258 61.2312 50.1554 61.1244 50.0395 60.4543L50.0389 60.4556Z" fill="#CBAC5A"/>
        <path fill-rule="evenodd" clip-rule="evenodd" d="M45.7967 60.6704C45.8159 60.5731 45.894 60.5244 46.4181 60.5731C46.9423 60.6217 50.2626 60.2627 51.1657 60.2141C52.0783 60.1462 55.2918 60.1942 56.8553 60.5244C58.4188 60.8547 60.0009 61.2431 60.7676 61.4371C61.5356 61.6508 61.7775 61.7276 61.7481 61.8249C61.7289 61.9222 61.5561 62.0169 61.4569 61.99C61.3603 61.9708 58.8162 61.1939 58.0303 61.03C57.2444 60.8662 54.525 60.4278 53.0383 60.4541C51.6501 60.4739 51.0965 60.4349 49.9221 60.5705C48.7471 60.7164 46.8053 60.9104 46.2229 60.8329C45.6469 60.7651 45.766 60.7651 45.7954 60.6678L45.7967 60.6704Z" fill="#D6BC6F"/>
        <path fill-rule="evenodd" clip-rule="evenodd" d="M53.6113 68.2817C53.6113 68.2817 55.6017 69.3594 56.3204 70.6797C56.8446 71.6602 56.01 72.146 56.01 72.146C56.01 72.146 57.1364 72.146 56.9905 72.7674C56.9227 73.1552 55.0488 74.2036 53.7963 74.7571C52.5246 75.3107 52.5733 75.2819 51.9518 75.3786C51.3496 75.4759 49.699 75.1866 49.3592 75.6698C49.0193 76.153 49.1672 76.6509 49.2619 76.7283C49.3592 76.7962 50.1457 76.8935 50.1457 76.8935C50.1457 76.8935 49.9806 77.3498 48.3499 77.3984C46.7192 77.4471 46.3109 77.5629 46.2136 77.7383C46.1163 77.9027 46.524 77.8061 47.2721 77.9303C48.0197 78.0467 49.068 78.1223 49.068 78.1223C49.068 78.1223 48.7281 78.4134 47.8449 78.6464C46.835 78.9082 45.2523 79.1514 44.7768 79.4426C45.0193 79.6077 45.379 79.8502 45.5448 79.8694C45.1371 79.9667 44.5637 80.1805 44.467 80.2579C44.6123 80.3552 44.8069 80.4717 44.8069 80.4717C44.8069 80.4717 43.9909 81.4521 43.5153 81.6953C43.0398 81.9385 40.3019 83.2096 39.3598 82.967C37.0104 82.3456 36.7192 79.7728 36.1464 79.5789C35.2824 79.2877 34.8747 79.8694 34.1074 79.4618C34.4472 79.2192 34.6322 79.0739 34.9912 78.9088C34.6027 78.7168 32.5931 77.4426 32.5931 77.4426C32.383 76.9845 32.1497 76.5375 31.8943 76.1031C31.5058 75.433 30.9343 74.5396 30.5055 73.753C29.5736 72.025 29.525 71.2289 28.6802 70.2484C28.8261 70.0564 29.3304 70.0833 29.3304 70.0833L36.4088 72.4135L48.9598 72.777L52.2238 68.1172L53.612 68.2823L53.6113 68.2817Z" fill="#DFC677"/>
        <path fill-rule="evenodd" clip-rule="evenodd" d="M35.0195 75.39C35.0953 75.4743 35.1836 75.5464 35.2813 75.6037C35.5245 75.7688 35.8835 75.9634 36.1261 76.254C36.2234 76.1087 36.4659 75.8463 36.8941 76.254C37.3223 76.6616 37.8541 76.3711 38.185 76.4677C38.5248 76.5848 38.544 76.6328 38.544 76.6328C38.544 76.6328 38.736 76.4677 39.1655 76.293C39.4279 76.1957 39.7383 76.1279 40.0781 76.0312C40.3885 75.9634 40.7283 75.8661 40.9619 75.8661C41.1757 76.0114 41.9424 76.8261 45.0202 75.6236C47.9232 74.4972 48.5927 74.3711 49.0784 74.5452C49.1271 74.4287 49.1757 74.2053 49.9232 74.2348C49.9232 73.9244 49.3018 72.8658 49.3018 72.8658L45.8746 71.6914H44L38.3789 72.7205L35.264 74.4978L35.0215 75.3938L35.0195 75.39Z" fill="#C4A859"/>
        <path fill-rule="evenodd" clip-rule="evenodd" d="M33.1455 73.4177C33.1455 73.4177 33.2133 73.9419 33.9903 74.4955C34.7583 75.0484 34.9996 75.3787 34.9996 75.3787C34.9996 75.3787 35.1455 75.1867 35.262 74.9908C35.3785 74.7771 35.4757 74.5345 35.6697 74.4667C36.0581 74.3016 36.9413 74.612 37.1359 74.5633C37.301 74.5153 37.2524 74.1755 37.4271 74.1755C37.8348 74.1556 38.0965 74.4372 38.2425 74.4372C38.3884 74.4372 38.7468 74.418 38.7954 74.3406C38.8441 74.2632 38.8633 73.4568 39.4169 73.0683C40.0191 72.6414 40.757 72.8257 40.9529 72.923C40.9529 73.0683 40.9721 73.428 41.3605 73.4472C41.749 73.4664 41.7874 73.3985 42.1285 73.515C42.4697 73.6315 42.8761 73.4958 43.0604 74.068C43.2255 74.02 43.614 73.9713 43.5167 73.4177C43.7087 73.2724 43.8764 73.1752 44.2847 72.6024C44.382 72.4571 44.5465 72.292 44.6732 72.0782C45.013 72.0782 45.4207 72.0104 45.9641 72.4859C45.7989 72.6024 45.7017 72.6779 45.6537 72.7963C45.7958 72.937 45.9255 73.0897 46.0415 73.2526C46.1874 73.4446 46.2847 73.6801 46.469 73.7288C46.8767 73.8452 47.5468 73.6801 48.2943 73.7288C49.013 73.7774 49.6146 74.0392 49.877 74.2043C49.9743 74.1563 49.9743 74.1364 50.2169 74.1851C50.4594 74.2337 50.6437 74.2529 50.382 73.9425C50.5273 74.0104 50.6924 74.1563 50.8383 74.0104C50.9842 73.8644 51.1001 73.6513 51.5077 73.6027C51.9154 73.554 52.0613 73.6219 52.2265 73.195C52.4402 72.6708 51.7023 72.6708 51.7023 72.6708C51.7023 72.6708 52.0421 72.3598 52.421 71.9521C52.8773 71.5252 53.4015 70.9716 53.5276 70.292C53.7413 69.0395 52.5183 68.875 52.5183 68.875L46.5861 70.7003L39.3337 70.3406L33.1493 73.4184L33.1455 73.4177Z" fill="#927D49"/>
        <path fill-rule="evenodd" clip-rule="evenodd" d="M27.8158 56.2809C27.8158 56.2809 27.6238 56.5235 27.5054 57.0963C27.387 57.6691 27.4376 57.6013 27.3403 58.0089C27.243 58.4166 26.0481 62.4749 26.4961 63.8439C26.9441 65.2128 27.7198 65.7178 28.2049 66.8244C28.3022 67.0669 28.3969 67.2129 28.4475 67.4266C28.6126 68.1447 28.4673 68.6983 28.6612 69.417C28.7291 69.6596 28.9044 69.9412 29.1662 70.2324C29.7422 70.834 30.6811 71.4068 31.0862 71.8145C31.6584 72.4168 32.4744 73.6404 33.5131 73.7563C34.0667 73.8241 34.8532 73.5912 35.5035 73.2033C36.0795 72.8436 36.4353 72.3393 37.0395 72.0513C37.4663 71.8376 37.9227 71.7601 38.3303 71.6628C39.1751 71.4977 39.9425 71.4708 40.3988 71.5655C41.0977 71.7115 42.7482 72.2164 43.6628 72.2164C44.3774 72.2049 45.0881 72.1071 45.7793 71.9252C47.1674 71.5175 48.8468 70.818 49.954 70.5076C50.6042 70.3156 51.1284 70.2651 51.6628 70.1486C52.5754 69.9348 53.3421 69.6436 53.7793 69.09C53.4881 68.7502 53.129 68.226 51.1866 68.2452C48.9831 68.2938 46.4391 69.5169 45.1866 69.7114C43.9342 69.906 43.3908 70.0705 41.9924 69.5655C40.6215 69.0554 40.5761 68.7182 40.5761 68.7182C40.5761 68.7182 39.1367 67.7114 38.5345 65.145C37.9323 62.5786 38.5345 60.7085 40.098 58.9312C40.5057 58.4749 40.4084 58.0672 40.4084 58.0672C40.4084 58.0672 41.4375 56.679 41.1559 55.3792C40.8455 54.0876 38.8551 54.35 38.8551 54.35L27.8164 56.2809H27.8158Z" fill="#6E6342"/>
        <path fill-rule="evenodd" clip-rule="evenodd" d="M29.4757 60.6016C29.3901 60.7625 29.3499 60.9437 29.3592 61.1257C29.3784 61.3875 29.4565 61.7273 30.2424 62.4946C30.9125 63.164 30.7666 63.9115 30.7666 63.9115C30.7666 63.9115 31.1039 63.9794 32.0191 63.5512C32.7378 63.2114 32.9791 63.8136 32.9791 63.8136C33.1883 63.7039 33.4151 63.6316 33.6492 63.5999C33.8613 63.5803 34.0665 63.5148 34.2508 63.4079C34.2508 63.4079 35.0956 64.2718 35.8335 64.6795C36.5036 65.0392 36.892 65.2817 37.2223 65.0392C37.5327 64.8254 37.5327 64.3883 37.5128 64.1944C37.4358 64.0154 37.3383 63.846 37.2223 63.6894C37.0085 63.3791 36.6687 63.0194 36.6463 62.7295C36.5976 62.0601 37.1512 61.2633 37.0341 61.0694C36.917 60.8755 36.4812 60.8268 35.4034 61.2153C34.2872 61.5839 29.4712 60.6035 29.4712 60.6035L29.4757 60.6016Z" fill="#39331F"/>
        <path fill-rule="evenodd" clip-rule="evenodd" d="M32.0194 64.9435C32.0194 64.9435 31.4665 64.4193 31.6604 61.8753C31.8951 61.8719 32.1295 61.8947 32.3592 61.9432C32.3592 61.9432 32.6606 63.9143 32.0194 64.9435Z" fill="#292311"/>
        <path fill-rule="evenodd" clip-rule="evenodd" d="M28.0779 54.3392C28.155 54.2821 28.2266 54.2179 28.2916 54.1472C28.0996 54.5063 27.2132 55.9431 27.932 58.2055C28.6507 60.4576 30.4561 62.137 32.6795 62.215C34.9028 62.2931 36.0715 61.2051 37.4078 59.5744C37.932 58.9242 38.5342 58.1082 39.068 57.5552C39.8641 56.6906 40.4856 56.448 40.4856 55.6135C40.4856 53.9047 38.7377 53.1373 36.1649 52.3706C33.5921 51.6039 31.2715 51.6986 30.0676 52.2234C28.8932 52.7956 28.3883 53.3978 28.0772 54.3399L28.0779 54.3392Z" fill="#252211"/>
        <path fill-rule="evenodd" clip-rule="evenodd" d="M36.3398 65.7085L36.5318 65.6112C36.5318 65.6112 36.5798 64.8432 36.8908 64.8637C37.2012 64.9123 37.3471 65.3207 37.3177 65.4659C37.2985 65.6112 37.2211 65.8544 36.91 65.825C36.5024 65.8346 36.3379 65.7085 36.3379 65.7085H36.3398Z" fill="#3F3824"/>
        <path fill-rule="evenodd" clip-rule="evenodd" d="M35.4756 62.4467C35.4756 62.4467 35.6676 62.3788 35.9025 62.6119C36.0945 62.6119 36.9316 62.5146 37.194 62.6797C37.4564 62.8449 37.5338 62.9902 37.5338 62.9902C37.5338 62.9902 36.5533 63.204 36.0189 62.9902C35.4756 62.8058 35.4756 62.4467 35.4756 62.4467Z" fill="#2D2815"/>
        <path fill-rule="evenodd" clip-rule="evenodd" d="M39.7963 62.5904C39.7963 62.5418 39.2722 62.1828 38.7186 62.0657C38.6213 62.0465 38.6015 62.1143 38.5266 62.1143C38.478 62.0951 38.4588 61.9492 38.4588 61.9492L38.1439 62.115C38.1439 62.115 38.0953 62.1828 38.2604 62.3069C38.4056 62.4234 38.6488 62.5207 38.7167 62.7146C38.7845 62.9085 38.7845 62.9763 38.8139 63.0058C38.8331 63.025 39.173 63.0058 39.3381 62.9085C39.5032 62.8112 39.8142 62.6525 39.7944 62.5885L39.7963 62.5904Z" fill="#82764F"/>
        <path fill-rule="evenodd" clip-rule="evenodd" d="M34.8936 64.5646C34.8936 64.5646 34.9902 63.8953 35.6411 63.8659C36.3105 63.8172 36.4372 64.4674 36.4372 64.4674L36.0488 64.8558C36.0488 64.8462 35.7576 64.4386 34.8968 64.5646H34.8936Z" fill="#2D2816"/>
        <path fill-rule="evenodd" clip-rule="evenodd" d="M39.1167 61.6779C39.1167 61.6779 38.7571 62.0665 37.9616 62.183C37.8937 62.0857 37.7478 61.8917 37.9616 61.5813C38.1753 61.2708 38.4179 61.1736 38.6604 61.2702C38.7675 61.2876 38.8673 61.3352 38.9481 61.4074C39.029 61.4797 39.0875 61.5735 39.1167 61.6779Z" fill="#574F35"/>
        <path fill-rule="evenodd" clip-rule="evenodd" d="M40.5824 62.1551C40.6023 62.0578 40.5344 62.0386 40.5824 61.99C40.6304 61.9414 40.8935 61.8447 40.9421 61.8927C40.9613 61.9126 40.9421 61.99 40.9421 62.0847C40.9421 62.1794 40.9421 62.2767 40.8935 62.3465C40.8256 62.4438 40.6317 62.4924 40.5344 62.4636C40.4372 62.4348 40.418 62.2985 40.418 62.2716C40.466 62.2524 40.5824 62.2038 40.5824 62.1551ZM42.2401 61.1068C42.2401 61.0582 42.4052 60.9609 42.5024 60.9609C42.6477 60.9609 42.6477 61.0774 42.6676 61.1068C42.7156 61.126 42.7156 61.087 42.7642 61.1747C42.8129 61.2624 42.8813 61.4172 42.8321 61.5145C42.7828 61.6118 42.5895 61.679 42.5415 61.6598C42.4737 61.6111 42.2599 61.1747 42.2401 61.1068Z" fill="#82764F"/>
        <path fill-rule="evenodd" clip-rule="evenodd" d="M38.9028 62.3795C38.9028 62.3795 39.1166 62.4275 39.4078 62.6707C39.3105 62.7386 39.1646 62.816 39.1646 62.816C39.1646 62.816 39.1454 62.5927 38.9028 62.3789L38.9028 62.3795Z" fill="#6E6342"/>
        <path fill-rule="evenodd" clip-rule="evenodd" d="M38.4276 60.2434C38.379 60.1954 38.5729 60.0789 38.6894 60.0981C38.8058 60.1173 38.8545 60.1954 38.9806 60.2146C39.1066 60.2338 39.1265 60.166 39.1726 60.1173C39.2186 60.0687 39.3863 60.0981 39.4151 60.1173C39.4331 60.1387 39.4493 60.1613 39.4638 60.1852C39.4658 60.1482 39.4754 60.1121 39.4921 60.0791C39.5087 60.046 39.532 60.0168 39.5604 59.9932C39.5977 59.9658 39.6406 59.9472 39.686 59.9388C39.7315 59.9304 39.7782 59.9323 39.8228 59.9445C39.842 60.0124 39.9393 60.2549 39.9201 60.3036C39.9009 60.3522 39.6097 60.4207 39.5604 60.3714C39.6091 60.4885 39.8228 60.7311 39.8516 60.7791C39.8804 60.8271 39.6379 60.9442 39.5412 60.925C39.4055 60.9154 38.5703 60.4296 38.425 60.2453L38.4276 60.2434ZM39.6993 58.6319C39.6813 58.583 39.6469 58.5418 39.602 58.5154C39.5342 58.4962 39.3108 58.5154 39.3108 58.6319C39.3108 58.7484 39.5028 59.3999 39.7185 59.7391C39.9617 60.0789 40.1262 60.3599 40.2913 60.438C40.3431 60.4616 40.402 60.4647 40.456 60.4466C40.5101 60.4286 40.5553 60.3907 40.5825 60.3407C40.6017 60.292 40.6503 59.933 40.6311 59.0882C40.6119 58.2434 40.5825 57.4281 40.5339 57.3794C40.4852 57.3308 40.2913 57.3314 40.2235 57.4281C40.1556 57.5247 39.7185 58.4866 39.6987 58.6319H39.6993Z" fill="#585136"/>
        <path fill-rule="evenodd" clip-rule="evenodd" d="M38.8351 63.6032C38.8351 63.6032 38.4953 63.3894 38.165 63.5353C37.8546 63.6813 37.8738 64.2541 37.8738 64.2541C37.9436 64.2814 38.0191 64.2913 38.0936 64.2828C38.1681 64.2743 38.2394 64.2478 38.3013 64.2054C38.5151 64.0602 38.7865 63.8176 38.8351 63.6038L38.8351 63.6032Z" fill="#574F35"/>
        <path fill-rule="evenodd" clip-rule="evenodd" d="M39.4757 64.3695C39.4565 64.1775 39.2837 64.1775 39.2837 64.0783C39.2956 64.0308 39.3231 63.9888 39.3617 63.9589C39.4004 63.9289 39.4479 63.9128 39.4968 63.9131C39.5941 63.9131 39.6888 64.0296 39.8079 64.1051C39.9243 64.173 40.0991 64.2972 40.1183 64.445C40.1375 64.5928 39.9263 64.998 39.6914 64.998C39.4565 64.998 39.5263 64.5608 39.4776 64.3669L39.4757 64.3695ZM41.3496 64.1071C41.3496 64.1071 40.9611 64.2235 40.9899 64.1071C41.0187 63.9906 41.1071 63.9618 41.2331 63.9618C41.2972 63.8947 41.3834 63.8531 41.4757 63.8447C41.5285 63.8421 41.5804 63.8594 41.621 63.8933C41.621 63.8933 41.8834 63.7768 41.9608 63.8447C42.0383 63.9125 41.9807 63.9125 42.0287 63.9906C42.0898 64.0772 42.1299 64.1769 42.1458 64.2818C42.1458 64.3592 41.8546 64.5244 41.621 64.4956C41.3496 64.4373 41.3976 64.1557 41.3496 64.1071ZM43.6114 63.6699C43.6114 63.6699 43.7279 63.7378 43.6312 63.8159C43.5634 63.8837 43.2235 64.0079 42.9317 64.0296C42.6405 64.0296 42.3787 64.0776 42.3787 63.981C42.3787 63.8843 42.6213 63.6898 42.7666 63.6411C42.7957 63.6047 42.8327 63.5752 42.8748 63.555C42.917 63.5349 42.9631 63.5245 43.0098 63.5247C43.1263 63.5247 43.5819 63.476 43.7087 63.4568C43.8251 63.437 43.9224 63.5048 43.8539 63.6021C43.8251 63.6699 43.6114 63.6699 43.6114 63.6699ZM44.2815 60.6721C44.2815 60.6721 44.1355 60.9825 43.9711 60.9825C43.8059 60.9633 43.8059 60.9147 43.8059 60.8661C43.8059 60.7982 43.9711 60.6235 43.9512 60.5749C43.9032 60.5749 43.7861 60.5749 43.8059 60.4584C43.8059 60.3611 43.9711 60.2446 44.1163 60.2664C44.2261 60.1762 44.3628 60.1251 44.5048 60.1211C44.6699 60.1211 44.8152 60.1691 44.8152 60.2664C44.8152 60.3637 44.6232 60.5768 44.5528 60.6261C44.4754 60.7035 44.3781 60.7541 44.2815 60.6741L44.2815 60.6721ZM42.0677 66.4098C42.0677 66.4098 41.8757 66.4297 41.8757 66.5263C41.8757 66.5749 41.9237 66.5749 41.9922 66.5461C42.0316 66.5439 42.0707 66.5373 42.1087 66.5263C42.1279 66.5461 42.1279 66.6428 42.2738 66.6428C42.3936 66.6266 42.5091 66.587 42.6136 66.5263C42.7301 66.4783 42.8274 66.429 42.8274 66.3343C42.7787 66.1692 42.6815 66.0911 42.5362 66.0911C42.4617 66.0864 42.3875 66.1033 42.3224 66.1397C42.3224 66.1397 42.2738 66.0425 42.1087 66.1397C41.9435 66.237 41.9627 66.237 42.0114 66.2857C42.0984 66.3631 42.0696 66.4137 42.0696 66.4137L42.0677 66.4098ZM40.9707 67.4198C40.9707 67.3711 41.2133 67.2738 41.2811 67.3033C41.349 67.3225 41.5429 67.6911 41.5429 67.7302C41.5429 67.7788 41.3003 67.8953 41.2031 67.8953C41.1058 67.8953 40.9413 67.7302 40.9413 67.7033C40.9413 67.6841 41.0578 67.6553 41.0578 67.6354C41.0866 67.5874 40.9707 67.4703 40.9707 67.4217L40.9707 67.4198ZM40.2027 66.0021C40.2514 65.9829 40.2514 65.9343 40.3192 65.8856C40.3405 65.8715 40.3646 65.8624 40.3899 65.8591C40.4152 65.8558 40.441 65.8583 40.4651 65.8665C40.4823 65.8359 40.5059 65.8096 40.5345 65.7893C40.5631 65.769 40.5958 65.7554 40.6303 65.7493C40.7467 65.7301 40.844 65.7493 40.8223 65.798C40.8223 65.9439 40.9195 66.0405 40.9195 66.157C40.9195 66.2735 40.8517 66.4194 40.6091 66.5167C40.3666 66.5845 40.0363 66.5845 39.9877 66.5653C39.9391 66.5461 39.8904 66.3516 39.9391 66.2543C39.9877 66.157 40.1234 66.0508 40.2015 66.0021H40.2027Z" fill="#82764F"/>
        <path fill-rule="evenodd" clip-rule="evenodd" d="M40.5123 66.0664C40.5123 66.0664 40.3472 66.1637 40.3472 66.2123C40.3325 66.2593 40.326 66.3084 40.328 66.3576C40.328 66.3864 40.5418 66.3384 40.5706 66.3089C40.5802 66.2897 40.5123 66.117 40.5123 66.0664Z" fill="#6E6342"/>
        <path fill-rule="evenodd" clip-rule="evenodd" d="M39.0682 65.6133C39.1648 65.6331 39.3299 65.6132 39.456 65.6619C39.5533 65.7105 39.6211 65.8078 39.5238 65.9243C39.4266 66.0407 39.3318 66.2154 39.1162 66.186C38.8736 66.1668 38.6407 66.0407 38.6407 65.9434C38.6366 65.8819 38.6448 65.8202 38.6648 65.7619C38.6848 65.7035 38.7162 65.6497 38.7571 65.6037C38.8544 65.5262 38.9024 65.5749 39.0675 65.6133H39.0682Z" fill="#585136"/>
        <path fill-rule="evenodd" clip-rule="evenodd" d="M38.9515 65.707C38.9515 65.707 38.6411 65.9496 38.563 66.0667C38.4657 66.1832 37.9902 66.7848 37.8449 66.9109C37.8932 66.8258 37.9482 66.7446 38.0094 66.6683C37.8174 66.7911 37.6734 66.9762 37.6017 67.1925C37.4852 67.5522 38.2526 67.7461 38.7569 67.892C39.2613 68.0379 39.4565 68.084 39.4565 68.084C39.2708 67.8049 39.1114 67.5093 38.9803 67.2008C38.7883 66.7445 38.6891 66.6958 38.8152 66.4821C38.9124 66.2683 39.0584 66.123 39.0584 65.9579C39.0001 65.8043 38.9515 65.707 38.9515 65.707Z" fill="#574F35"/>
        <path fill-rule="evenodd" clip-rule="evenodd" d="M27.8836 66.4764C27.9543 66.4894 28.0267 66.4894 28.0974 66.4764C28.2426 66.4566 29.7575 65.9004 31.3402 66.0003C32.5251 66.0719 33.6994 66.2649 34.8449 66.5763C36.8353 67.1004 39.3108 68.1392 40.9127 68.7318C41.3396 68.8963 41.7575 69.1882 42.0647 69.304C43.2884 69.7802 43.3364 69.7802 44.0551 69.9063C44.8999 70.0228 45.7639 69.7411 46.6669 69.5472C47.7735 69.304 49.6666 69.1875 51.3268 68.945C51.8636 68.8706 52.3931 68.7504 52.9095 68.5859C52.9095 68.5859 51.5892 69.9063 48.4237 70.3818C47.1442 70.5761 45.844 70.5925 44.56 70.4304C43.5501 70.3332 42.8807 70.1872 42.3757 70.042C41.8029 69.8768 40.6279 69.4397 39.1815 69.0819C38.1716 68.8195 37.0452 68.6256 35.7543 68.383C32.5697 67.8 29.1137 67.1305 27.8823 66.4803L27.8836 66.4764Z" fill="#252211"/>
        <path fill-rule="evenodd" clip-rule="evenodd" d="M24.3102 60.4766C23.5422 61.1268 22.7274 61.7482 21.9319 62.3498L19.5339 64.1924C18.7185 64.794 17.9223 65.4154 17.1063 66.0177C16.2903 66.6199 15.4756 67.1921 14.6104 67.7457C15.3784 67.0954 16.1931 66.4932 17.0084 65.9012C17.8238 65.3092 18.6692 64.7287 19.4558 64.1284L21.8539 62.2833C22.6788 61.6817 23.475 61.0602 24.3102 60.4778L24.3102 60.4766ZM20.0676 67.2727C20.0676 67.2727 20.9316 66.554 22.0094 65.5447C23.3489 64.2929 24.9898 62.6903 25.514 62.3998L20.067 67.2734L20.0676 67.2727Z" fill="#CFB66C"/>
        <path fill-rule="evenodd" clip-rule="evenodd" d="M20.0679 67.2722C20.4954 66.8454 20.9517 66.4281 21.408 66.0198L22.1069 65.4182C22.3207 65.2262 22.5639 65.0105 22.777 64.7968C23.2039 64.3699 23.6218 63.913 24.0487 63.4765C24.2603 63.257 24.484 63.0495 24.7188 62.8551C24.8361 62.7512 24.9665 62.663 25.1066 62.5927C25.2237 62.5248 25.3498 62.4007 25.5143 62.3789C25.4176 62.5248 25.3012 62.5927 25.2039 62.7187C25.0874 62.816 24.9901 62.9325 24.8935 63.0291C24.6797 63.2429 24.4372 63.4368 24.2234 63.6314C23.7671 64.0198 23.2916 64.3993 22.8352 64.8057C22.3789 65.2121 21.952 65.6505 21.4951 66.0582C21.0004 66.4761 20.544 66.8838 20.0679 67.2742L20.0679 67.2722ZM25.874 63.3888C25.874 63.3888 22.7092 66.4863 22.0583 66.9906L25.874 63.3888Z" fill="#CFB66C"/>
        <path fill-rule="evenodd" clip-rule="evenodd" d="M25.8738 63.3867C25.5891 63.7163 25.2838 64.0275 24.9599 64.3186L23.9999 65.2312C23.6895 65.5416 23.3976 65.8526 23.068 66.163C22.7282 66.4542 22.4178 66.739 22.0581 67.0078L22.9899 66.0952C23.301 65.7848 23.6408 65.523 23.9711 65.212L24.9029 64.2994C25.2229 63.9794 25.5339 63.6683 25.8738 63.3867ZM26.0191 65.0661C25.7273 65.8803 25.3836 66.6749 24.9899 67.445C24.1746 69.0763 22.9515 71.1147 22.4171 72.1541L26.0191 65.0661Z" fill="#CFB66C"/>
        <path fill-rule="evenodd" clip-rule="evenodd" d="M26.0191 65.0664C26.0191 65.4255 25.9218 65.7365 25.8053 66.0469C25.6918 66.3576 25.5623 66.6622 25.4175 66.9596C25.2716 67.2508 25.1064 67.5618 24.9413 67.8435C24.7762 68.1251 24.5823 68.4156 24.4364 68.7075L23.4559 70.4355C23.116 71.0116 22.7858 71.5908 22.4268 72.1444C22.6693 71.5229 22.9996 70.9405 23.3106 70.3677C23.6504 69.7917 23.9608 69.2157 24.2706 68.6198C24.4218 68.3229 24.5579 68.0185 24.6783 67.7078C24.8236 67.3967 24.9688 67.1055 25.086 66.8239C25.2312 66.5135 25.3477 66.2216 25.4936 65.9407C25.6581 65.6392 25.7944 65.348 26.0178 65.0664H26.0191Z" fill="#CFB66C"/>
        <path fill-rule="evenodd" clip-rule="evenodd" d="M29.4757 73.0273C29.4757 73.0273 28.5157 74.299 28.6117 75.9105C28.8735 75.0664 29.2037 73.7749 29.4757 73.0273ZM30.3884 74.3022C30.3884 74.3022 30.0485 77.7582 29.7669 79.4574C30.165 77.4933 30.2424 77.6584 30.3884 74.3022ZM36.7474 79.6616C36.7474 79.6616 35.3106 83.8856 35.2811 85.0593C35.5922 83.8523 36.1938 81.3864 36.7474 79.6584L36.7474 79.6616Z" fill="#DEC270"/>
        <path fill-rule="evenodd" clip-rule="evenodd" d="M40.1069 72.7695C40.1069 72.7695 42.4372 76.614 44.185 79.8953C43.7121 78.2441 42.6241 75.2156 40.1069 72.7695Z" fill="#CBAF59"/>
        <path fill-rule="evenodd" clip-rule="evenodd" d="M46.3691 78.4258C47.6486 80.6873 48.8023 83.0177 49.8251 85.4062C49.6312 83.7557 49.1064 80.9307 46.3691 78.4258Z" fill="#E3C677"/>
        <path fill-rule="evenodd" clip-rule="evenodd" d="M64.7767 84.0949C65.1645 83.8523 65.9319 82.5314 66.602 82.2018C67.2714 81.8619 67.7764 81.7941 68.3786 81.124C68.9802 80.4245 69.1466 79.9976 70.4656 79.4446C72.3108 78.6478 71.0416 77.6187 71.0416 77.6187C71.2449 77.4191 71.4622 77.2343 71.6919 77.0658C72.168 76.7067 72.721 76.2696 72.673 75.5022C72.6052 74.2114 72.3626 72.3374 71.304 71.2501C72.3332 71.0363 74.3037 70.891 75.528 70.5806C76.945 70.221 77.5959 69.716 77.5959 69.716C77.5959 69.716 76.7805 68.3278 78.1008 66.9301C79.4211 65.5323 80.4989 64.6971 81.2951 63.1336C80.3824 63.0171 78.9911 62.532 75.4404 63.8811C75.632 63.9713 75.817 64.075 75.994 64.1915C75.994 64.1915 73.8096 64.7938 73.0135 65.4638C71.6247 66.6382 71.45 67.5995 69.9453 68.3182C68.4407 69.037 66.9258 68.8424 65.674 69.4248C64.4221 70.0072 64.2372 70.5026 63.7802 70.7163C63.8775 70.8328 63.761 71.0267 63.9453 71.1918C63.8289 71.357 63.1492 72.4635 62.4599 72.4635C62.5277 72.7259 63.1101 72.9198 63.1101 72.9198C63.1101 72.9198 62.6833 73.2309 61.5959 73.3083C62.1489 73.8843 62.6737 74.5122 64.1201 75.4248C64.0036 75.6674 63.5178 76.027 63.7124 76.4833C63.9261 76.9397 64.4804 77.5611 66.6928 78.0661C65.5664 78.1141 64.2468 78.3765 62.4689 78.1339C60.6922 77.9202 60.401 77.7941 59.3041 78.0661C59.4205 78.1826 59.7309 78.1826 60.0029 78.493C59.7117 78.5122 57.8865 78.2792 57.265 79.0952C56.6148 79.9394 56.3332 81.3282 56.3818 82.26C56.042 82.4251 55.7118 82.7163 55.8769 83.3186C56.042 83.9208 56.906 84.1147 57.4596 84.493C58.0125 84.9006 58.0612 85.0459 58.586 84.9493C59.1389 84.8328 59.9543 84.2798 60.4305 84.2798C60.9066 84.2798 61.2458 84.6389 61.2458 84.6389C61.2458 84.6389 62.5373 84.0174 62.6634 84.1339C62.7799 84.2504 62.6826 84.9979 62.8087 85.1144C62.9367 85.2021 64.3914 84.3381 64.7799 84.0949H64.7767Z" fill="#ECD592"/>
        <path fill-rule="evenodd" clip-rule="evenodd" d="M93.0002 45.2447C86.9324 29.5749 71.9321 26.6719 71.9321 26.6719L29.1359 26.6719L29.301 42.6328H37.8239L37.8239 78.2738H29.1353L29.1353 94.206H70.7474C80.7762 94.206 88.8153 84.1279 88.8153 84.1279C101.689 65.8565 92.9996 45.2447 92.9996 45.2447H93.0002ZM70.9708 73.39C70.9708 73.39 67.7068 78.0991 64.1554 78.0991H57.0514L56.8831 42.6719H65.9999C65.9999 42.6719 70.2239 43.5551 73.1749 51.9141C73.1749 51.9141 77.0873 63.8821 70.9708 73.39Z" fill="white" fill-opacity="0.8"/>
    </g>
    <defs>
        <clipPath id="clip0">
            <rect width="120" height="120" fill="white"/>
        </clipPath>
    </defs>
</svg>
