<svg width="400" height="401" viewBox="0 0 400 401" fill="none" xmlns="http://www.w3.org/2000/svg">
<path d="M200 400.891C310.456 400.891 400 311.347 400 200.891C400 90.4336 310.456 0.890625 200 0.890625C89.543 0.890625 9.37508e-06 90.4336 2.09398e-05 200.891C3.25045e-05 311.347 89.5431 400.891 200 400.891Z" fill="#FF0420"/>
<path d="M141.647 253.928C131.241 254.372 120.973 251.424 112.388 245.526C108.679 242.694 105.717 239 103.756 234.764C101.796 230.53 100.896 225.882 101.136 221.22C101.181 218.506 101.432 215.796 101.886 213.12C103.187 205.906 105.037 197.254 107.437 187.162C114.239 159.654 131.794 145.9 160.1 145.9C167.194 145.783 174.239 147.111 180.804 149.801C186.633 152.086 191.647 156.056 195.208 161.205C198.798 166.51 200.632 172.808 200.454 179.211C200.402 181.876 200.152 184.534 199.703 187.162C198.201 196.065 196.401 204.716 194.303 213.12C190.806 226.822 184.754 237.074 176.149 243.876C167.552 250.578 156.051 253.928 141.647 253.928ZM143.749 232.322C148.945 232.466 154.015 230.706 158.004 227.372C162.413 223.374 165.412 218.058 166.555 212.218C168.857 202.818 170.606 194.617 171.801 187.611C172.204 185.484 172.405 183.324 172.401 181.159C172.401 172.055 167.65 167.504 158.149 167.506C152.91 167.381 147.8 169.137 143.745 172.457C139.418 176.497 136.477 181.801 135.342 187.611C133.541 194.313 131.741 202.514 129.942 212.218C129.535 214.294 129.334 216.404 129.342 218.52C129.342 227.722 134.144 232.322 143.749 232.322Z" fill="white"/>
<path d="M207.364 252.431C206.888 252.459 206.41 252.379 205.97 252.197C205.528 252.017 205.132 251.737 204.814 251.383C204.314 250.575 204.152 249.605 204.364 248.681L225.07 151.152C225.252 150.076 225.838 149.11 226.708 148.451C227.512 147.787 228.518 147.417 229.562 147.401H269.472C278.87 146.94 288.184 149.347 296.18 154.303C299.468 156.457 302.138 159.43 303.928 162.929C305.716 166.429 306.564 170.334 306.384 174.26C306.37 176.887 306.068 179.503 305.482 182.064C303.828 192.173 298.416 201.285 290.328 207.573C282.826 213.073 272.524 215.825 259.42 215.825H239.168L232.266 248.683C232.082 249.759 231.496 250.725 230.626 251.385C229.824 252.049 228.818 252.419 227.778 252.435L207.364 252.431ZM260.48 195.113C264.41 195.2 268.26 193.987 271.434 191.664C274.698 189.267 276.946 185.734 277.734 181.762C278.014 180.277 278.164 178.771 278.184 177.26C278.27 176.04 278.084 174.816 277.644 173.675C277.204 172.533 276.516 171.503 275.634 170.657C273.13 168.808 270.03 167.953 266.932 168.257H248.928L243.226 195.113H260.48Z" fill="white"/>
</svg>
