<svg width="327" height="217" viewBox="0 0 327 217" fill="none" xmlns="http://www.w3.org/2000/svg">
<g clip-path="url(#clip0_313_28858)">
<path d="M72.25 177.891C110.358 177.891 141.25 146.998 141.25 108.891C141.25 70.783 110.358 39.8906 72.25 39.8906C34.1424 39.8906 3.25 70.783 3.25 108.891C3.25 146.998 34.1424 177.891 72.25 177.891Z" fill="#0052B4"/>
<path d="M72.2484 66.8906L74.4825 73.7661H81.7114L75.8628 78.0153L78.097 84.8907L72.2484 80.6413L66.3996 84.8907L68.6337 78.0153L62.7852 73.7661H70.0143L72.2484 66.8906Z" fill="#FFDA44"/>
<path d="M42.552 79.1929L48.9938 82.4747L54.1054 77.3633L52.9742 84.5032L59.4157 87.7852L52.2756 88.9162L51.1446 96.0566L47.8625 89.6151L40.7227 90.7463L45.8343 85.6347L42.552 79.1929Z" fill="#FFDA44"/>
<path d="M30.25 108.891L37.1255 106.657V99.4277L41.3744 105.277L48.2501 103.042L44.0004 108.891L48.2501 114.74L41.3744 112.506L37.1255 118.354V111.125L30.25 108.891Z" fill="#FFDA44"/>
<path d="M42.552 138.59L45.834 132.148L40.7227 127.037L47.8628 128.168L51.1444 121.727L52.2756 128.867L59.4155 129.998L52.9747 133.28L54.1054 140.42L48.9938 135.308L42.552 138.59Z" fill="#FFDA44"/>
<path d="M72.2484 150.89L70.014 144.015H62.7852L68.634 139.766L66.3996 132.891L72.2484 137.14L78.097 132.891L75.8628 139.766L81.7114 144.015H74.4823L72.2484 150.89Z" fill="#FFDA44"/>
<path d="M101.949 138.59L95.5076 135.308L90.3957 140.42L91.5269 133.279L85.0859 129.998L92.2258 128.867L93.3568 121.727L96.6386 128.168L103.778 127.037L98.6668 132.149L101.949 138.59Z" fill="#FFDA44"/>
<path d="M114.25 108.891L107.374 111.125V118.354L103.125 112.505L96.25 114.74L100.499 108.891L96.25 103.042L103.125 105.277L107.374 99.4277V106.657L114.25 108.891Z" fill="#FFDA44"/>
<path d="M101.949 79.1926L98.6671 85.6344L103.779 90.7461L96.6383 89.6146L93.3568 96.0561L92.2258 88.9159L85.0859 87.7847L91.5269 84.5029L90.3957 77.3633L95.5079 82.4747L101.949 79.1926Z" fill="#FFDA44"/>
</g>
<g clip-path="url(#clip1_313_28858)">
<path d="M163.25 177.891C201.358 177.891 232.25 146.998 232.25 108.891C232.25 70.783 201.358 39.8906 163.25 39.8906C125.142 39.8906 94.25 70.783 94.25 108.891C94.25 146.998 125.142 177.891 163.25 177.891Z" fill="url(#paint0_linear_313_28858)"/>
<path d="M185.872 106.832C190.225 112.641 177.479 123.869 180.343 119.232H153.193C150.256 115.391 148.236 111.19 147.266 106.832H185.872Z" fill="url(#paint1_linear_313_28858)"/>
<path d="M178.003 140.303C174.144 143.379 169.973 146.04 165.558 148.243L163.398 149.331L161.226 148.248C140.799 137.997 128.613 120.341 128.613 100.993V78.2754H141.071V100.993C141.069 102.442 141.167 103.889 141.364 105.325C142.933 117.08 150.867 127.924 163.352 135.225C163.363 135.236 163.377 135.246 163.391 135.253C163.404 135.246 163.411 135.238 163.425 135.232L163.477 135.199C167.99 137.722 172.903 139.449 178.003 140.303Z" fill="url(#paint2_linear_313_28858)"/>
<path d="M197.799 106.832C197.222 111.322 195.991 115.704 194.144 119.837C190.729 127.511 185.24 134.495 178.01 140.306C172.914 139.451 168.002 137.725 163.492 135.202C165.121 134.241 166.701 133.199 168.225 132.079C168.377 131.98 168.523 131.874 168.663 131.76C177.102 125.683 183.182 116.877 185.873 106.832H197.799Z" fill="url(#paint3_linear_313_28858)"/>
<path d="M198.182 78.2793H141.07V90.7316H198.182V78.2793Z" fill="url(#paint4_linear_313_28858)"/>
<path d="M198.183 90.7324V100.993C198.183 101.417 198.17 101.843 198.157 102.268H185.691C185.704 101.842 185.71 101.417 185.71 100.993V90.7324H198.183Z" fill="url(#paint5_linear_313_28858)"/>
</g>
<path d="M254.25 177.891C292.357 177.891 323.25 146.998 323.25 108.891C323.25 70.783 292.357 39.8906 254.25 39.8906C216.142 39.8906 185.25 70.783 185.25 108.891C185.25 146.998 216.142 177.891 254.25 177.891Z" fill="#FF0420"/>
<path d="M234.118 127.188C230.528 127.341 226.986 126.324 224.024 124.29C222.745 123.313 221.722 122.038 221.046 120.577C220.37 119.116 220.059 117.512 220.142 115.904C220.158 114.968 220.244 114.033 220.401 113.11C220.85 110.621 221.488 107.636 222.316 104.154C224.663 94.6636 230.719 89.9184 240.485 89.9184C242.932 89.8783 245.363 90.3364 247.628 91.2646C249.638 92.0526 251.369 93.4223 252.597 95.1987C253.836 97.029 254.468 99.2018 254.407 101.411C254.389 102.33 254.303 103.247 254.148 104.154C253.63 107.225 253.009 110.21 252.285 113.11C251.078 117.837 248.99 121.374 246.022 123.72C243.056 126.033 239.088 127.188 234.118 127.188ZM234.844 119.734C236.636 119.784 238.386 119.177 239.762 118.026C241.283 116.647 242.317 114.813 242.712 112.798C243.506 109.555 244.109 106.726 244.522 104.309C244.66 103.575 244.73 102.83 244.729 102.083C244.729 98.942 243.09 97.372 239.812 97.3727C238.004 97.3294 236.241 97.9353 234.842 99.0807C233.35 100.475 232.335 102.304 231.943 104.309C231.322 106.621 230.701 109.45 230.08 112.798C229.94 113.515 229.87 114.243 229.873 114.973C229.873 118.147 231.53 119.734 234.844 119.734Z" fill="white"/>
<path d="M256.789 126.672C256.625 126.682 256.46 126.654 256.308 126.592C256.156 126.529 256.019 126.433 255.909 126.311C255.737 126.032 255.681 125.697 255.754 125.379L262.898 91.7312C262.96 91.3599 263.163 91.0267 263.463 90.7992C263.74 90.5702 264.087 90.4427 264.447 90.4372H278.216C281.459 90.2782 284.672 91.1086 287.431 92.8183C288.565 93.5612 289.486 94.587 290.104 95.7943C290.72 97.0017 291.013 98.349 290.951 99.7036C290.946 100.61 290.842 101.512 290.64 102.396C290.069 105.883 288.202 109.027 285.412 111.196C282.823 113.094 279.269 114.043 274.748 114.043H267.761L265.38 125.379C265.317 125.75 265.115 126.084 264.814 126.311C264.538 126.54 264.191 126.668 263.832 126.674L256.789 126.672ZM275.114 106.898C276.47 106.928 277.798 106.509 278.893 105.708C280.019 104.881 280.795 103.662 281.067 102.292C281.163 101.779 281.215 101.26 281.222 100.739C281.252 100.318 281.187 99.8952 281.036 99.5015C280.884 99.1077 280.646 98.7524 280.342 98.4605C279.478 97.8225 278.409 97.5274 277.34 97.6325H271.129L269.161 106.898H275.114Z" fill="white"/>
<defs>
<linearGradient id="paint0_linear_313_28858" x1="232.25" y1="39.8906" x2="67.1178" y2="92.1395" gradientUnits="userSpaceOnUse">
<stop stop-color="#000756"/>
<stop offset="1" stop-color="#0042B8"/>
</linearGradient>
<linearGradient id="paint1_linear_313_28858" x1="198.455" y1="120.827" x2="150.95" y2="108.024" gradientUnits="userSpaceOnUse">
<stop offset="0.14" stop-color="#ADADAD"/>
<stop offset="0.29" stop-color="#CBCBCB"/>
<stop offset="0.43" stop-color="#E2E2E2"/>
<stop offset="0.59" stop-color="#F2F2F2"/>
<stop offset="0.77" stop-color="#FCFCFC"/>
<stop offset="1" stop-color="white"/>
</linearGradient>
<linearGradient id="paint2_linear_313_28858" x1="180.915" y1="161.393" x2="113.765" y2="67.7355" gradientUnits="userSpaceOnUse">
<stop stop-color="#ADADAD"/>
<stop offset="0.17" stop-color="#CBCBCB"/>
<stop offset="0.34" stop-color="#E2E2E2"/>
<stop offset="0.52" stop-color="#F2F2F2"/>
<stop offset="0.73" stop-color="#FCFCFC"/>
<stop offset="1" stop-color="white"/>
</linearGradient>
<linearGradient id="paint3_linear_313_28858" x1="164.266" y1="147.218" x2="196.16" y2="106.788" gradientUnits="userSpaceOnUse">
<stop offset="0.15" stop-color="#ADADAD"/>
<stop offset="0.29" stop-color="#CBCBCB"/>
<stop offset="0.44" stop-color="#E2E2E2"/>
<stop offset="0.6" stop-color="#F2F2F2"/>
<stop offset="0.77" stop-color="#FCFCFC"/>
<stop offset="1" stop-color="white"/>
</linearGradient>
<linearGradient id="paint4_linear_313_28858" x1="135.58" y1="116.85" x2="162.535" y2="91.2448" gradientUnits="userSpaceOnUse">
<stop offset="0.14" stop-color="#ADADAD"/>
<stop offset="0.43" stop-color="#C9C9C9"/>
<stop offset="1" stop-color="white"/>
</linearGradient>
<linearGradient id="paint5_linear_313_28858" x1="191.937" y1="84.1967" x2="191.937" y2="102.268" gradientUnits="userSpaceOnUse">
<stop offset="0.0895638" stop-color="#ADADAD"/>
<stop offset="0.240189" stop-color="#CBCBCB"/>
<stop offset="0.425047" stop-color="#E2E2E2"/>
<stop offset="0.536875" stop-color="#F2F2F2"/>
<stop offset="1" stop-color="white"/>
</linearGradient>
<clipPath id="clip0_313_28858">
<rect x="3.25" y="39.8906" width="138" height="138" rx="69" fill="white"/>
</clipPath>
<clipPath id="clip1_313_28858">
<rect x="94.25" y="39.8906" width="138" height="138" rx="69" fill="white"/>
</clipPath>
</defs>
</svg>
