<svg width="120" height="120" viewBox="0 0 120 120" fill="none" xmlns="http://www.w3.org/2000/svg">
<path d="M60 120C93.1368 120 120 93.1368 120 60C120 26.8629 93.1368 0 60 0C26.8629 0 2.81252e-06 26.8629 6.28195e-06 60C9.75135e-06 93.1368 26.8629 120 60 120Z" fill="#FF0420"/>
<path d="M42.4929 75.9107C39.3712 76.0439 36.2906 75.1595 33.7152 73.3901C32.6026 72.5405 31.7139 71.4323 31.1257 70.1615C30.5375 68.8913 30.2676 67.4969 30.3395 66.0983C30.3532 65.2841 30.4285 64.4711 30.5647 63.6683C30.9549 61.5041 31.51 58.9084 32.23 55.8808C34.2706 47.6284 39.5369 43.5021 48.0287 43.5021C50.1571 43.4672 52.2704 43.8655 54.2401 44.6726C55.9886 45.3579 57.493 46.549 58.5612 48.0936C59.6382 49.6852 60.1884 51.5746 60.135 53.4956C60.1194 54.2951 60.0444 55.0925 59.9097 55.8808C59.4592 58.5517 58.9192 61.1471 58.2897 63.6683C57.2405 67.7789 55.4251 70.8545 52.8435 72.8951C50.2644 74.9057 46.8142 75.9107 42.4929 75.9107ZM43.1235 69.4289C44.6824 69.4721 46.2034 68.9441 47.4001 67.9439C48.7227 66.7445 49.6225 65.1497 49.9654 63.3977C50.6559 60.5777 51.1805 58.1172 51.5392 56.0156C51.6599 55.3774 51.7202 54.7293 51.7192 54.0798C51.7192 51.3487 50.2939 49.9834 47.4435 49.9841C45.8718 49.9464 44.3388 50.4733 43.1224 51.4693C41.8243 52.6814 40.942 54.2725 40.6015 56.0156C40.0611 58.0261 39.5211 60.4865 38.9815 63.3977C38.8593 64.0205 38.799 64.6535 38.8015 65.2883C38.8015 68.0489 40.2421 69.4289 43.1235 69.4289Z" fill="white"/>
<path d="M62.2085 75.463C62.0657 75.4714 61.9223 75.4474 61.7903 75.3928C61.6577 75.3388 61.5389 75.2548 61.4435 75.1486C61.2935 74.9062 61.2449 74.6152 61.3085 74.338L67.5203 45.0795C67.5749 44.7566 67.7507 44.4668 68.0117 44.269C68.2529 44.0699 68.5547 43.959 68.8679 43.9542H80.8409C83.6603 43.8159 86.4545 44.538 88.8533 46.0247C89.8397 46.6708 90.6407 47.5627 91.1777 48.6126C91.7141 49.6624 91.9685 50.8341 91.9145 52.0119C91.9103 52.7998 91.8197 53.5848 91.6439 54.3529C91.1477 57.3857 89.5241 60.1192 87.0977 62.0056C84.8471 63.6556 81.7565 64.4812 77.8253 64.4812H71.7497L69.6791 74.3386C69.6239 74.6614 69.4481 74.9512 69.1871 75.1492C68.9465 75.3484 68.6447 75.4594 68.3327 75.4642L62.2085 75.463ZM78.1433 58.2677C79.3223 58.2937 80.4773 57.93 81.4295 57.2329C82.4087 56.5138 83.0831 55.4541 83.3195 54.2624C83.4035 53.817 83.4485 53.3651 83.4545 52.9119C83.4803 52.5458 83.4245 52.1785 83.2925 51.8362C83.1605 51.4938 82.9541 51.1848 82.6895 50.931C81.9383 50.3762 81.0083 50.1196 80.0789 50.211H74.6777L72.9671 58.2677H78.1433Z" fill="white"/>
</svg>
