<svg width="327" height="217" viewBox="0 0 327 217" fill="none" xmlns="http://www.w3.org/2000/svg">
<g clip-path="url(#clip0_313_28827)">
<path d="M72.75 177.891C110.858 177.891 141.75 146.998 141.75 108.891C141.75 70.783 110.858 39.8906 72.75 39.8906C34.6424 39.8906 3.75 70.783 3.75 108.891C3.75 146.998 34.6424 177.891 72.75 177.891Z" fill="#F0F0F0"/>
<path d="M69.7539 108.891H141.754C141.754 102.663 140.924 96.6298 139.377 90.8906H69.7539V108.891Z" fill="#D80027"/>
<path d="M69.7539 72.8907H131.626C127.403 65.9983 122.002 59.9061 115.705 54.8906H69.7539V72.8907Z" fill="#D80027"/>
<path d="M72.7522 177.891C88.9912 177.891 103.917 172.278 115.704 162.891H29.8008C41.5874 172.278 56.5132 177.891 72.7522 177.891Z" fill="#D80027"/>
<path d="M13.8793 144.891H131.625C135.016 139.358 137.645 133.309 139.375 126.891H6.12891C7.85849 133.309 10.4883 139.358 13.8793 144.891Z" fill="#D80027"/>
<path d="M35.7121 50.6659H42L36.1512 54.9151L38.3853 61.7906L32.5367 57.5414L26.6882 61.7906L28.618 55.8509C23.4684 60.1405 18.9548 65.1662 15.2353 70.766H17.25L13.527 73.4707C12.9469 74.4383 12.3906 75.4213 11.8575 76.4188L13.6353 81.8906L10.3185 79.4807C9.49398 81.2276 8.73983 83.0137 8.06196 84.8371L10.0206 90.866H17.25L11.4012 95.1152L13.6353 101.991L7.78677 97.7415L4.2834 100.287C3.93274 103.106 3.75 105.977 3.75 108.891H72.75C72.75 70.7832 72.75 66.2907 72.75 39.8906C59.1193 39.8906 46.4128 43.8446 35.7121 50.6659ZM38.3853 101.991L32.5367 97.7415L26.6882 101.991L28.9223 95.1152L23.0735 90.866H30.3029L32.5367 83.9905L34.7706 90.866H42L36.1512 95.1152L38.3853 101.991ZM36.1512 75.0151L38.3853 81.8906L32.5367 77.6414L26.6882 81.8906L28.9223 75.0151L23.0735 70.766H30.3029L32.5367 63.8905L34.7706 70.766H42L36.1512 75.0151ZM63.1353 101.991L57.2867 97.7415L51.4382 101.991L53.6723 95.1152L47.8235 90.866H55.0528L57.2867 83.9905L59.5206 90.866H66.75L60.9011 95.1152L63.1353 101.991ZM60.9011 75.0151L63.1353 81.8906L57.2867 77.6414L51.4382 81.8906L53.6723 75.0151L47.8235 70.766H55.0528L57.2867 63.8905L59.5206 70.766H66.75L60.9011 75.0151ZM60.9011 54.9151L63.1353 61.7906L57.2867 57.5414L51.4382 61.7906L53.6723 54.9151L47.8235 50.6659H55.0528L57.2867 43.7905L59.5206 50.6659H66.75L60.9011 54.9151Z" fill="#0052B4"/>
</g>
<g clip-path="url(#clip1_313_28827)">
<path d="M163.75 177.891C201.858 177.891 232.75 146.998 232.75 108.891C232.75 70.783 201.858 39.8906 163.75 39.8906C125.642 39.8906 94.75 70.783 94.75 108.891C94.75 146.998 125.642 177.891 163.75 177.891Z" fill="url(#paint0_linear_313_28827)"/>
<path d="M186.372 106.832C190.725 112.641 177.979 123.869 180.843 119.232H153.693C150.756 115.391 148.736 111.19 147.766 106.832H186.372Z" fill="url(#paint1_linear_313_28827)"/>
<path d="M178.503 140.303C174.644 143.379 170.473 146.04 166.058 148.243L163.898 149.331L161.726 148.248C141.299 137.997 129.113 120.341 129.113 100.993V78.2754H141.571V100.993C141.569 102.442 141.667 103.889 141.864 105.325C143.433 117.08 151.367 127.924 163.852 135.225C163.863 135.236 163.877 135.246 163.891 135.253C163.904 135.246 163.911 135.238 163.925 135.232L163.977 135.199C168.49 137.722 173.403 139.449 178.503 140.303Z" fill="url(#paint2_linear_313_28827)"/>
<path d="M198.299 106.832C197.722 111.322 196.491 115.704 194.644 119.837C191.229 127.511 185.74 134.495 178.51 140.306C173.414 139.451 168.502 137.725 163.992 135.202C165.621 134.241 167.201 133.199 168.725 132.079C168.877 131.98 169.023 131.874 169.163 131.76C177.602 125.683 183.682 116.877 186.373 106.832H198.299Z" fill="url(#paint3_linear_313_28827)"/>
<path d="M198.682 78.2793H141.57V90.7316H198.682V78.2793Z" fill="url(#paint4_linear_313_28827)"/>
<path d="M198.683 90.7324V100.993C198.683 101.417 198.67 101.843 198.657 102.268H186.191C186.204 101.842 186.21 101.417 186.21 100.993V90.7324H198.683Z" fill="url(#paint5_linear_313_28827)"/>
</g>
<path d="M254.75 177.891C292.857 177.891 323.75 146.998 323.75 108.891C323.75 70.783 292.857 39.8906 254.75 39.8906C216.642 39.8906 185.75 70.783 185.75 108.891C185.75 146.998 216.642 177.891 254.75 177.891Z" fill="#FF0420"/>
<path d="M234.618 127.188C231.028 127.341 227.486 126.324 224.524 124.29C223.245 123.313 222.222 122.038 221.546 120.577C220.87 119.116 220.559 117.512 220.642 115.904C220.658 114.968 220.744 114.033 220.901 113.11C221.35 110.621 221.988 107.636 222.816 104.154C225.163 94.6636 231.219 89.9184 240.985 89.9184C243.432 89.8783 245.863 90.3364 248.128 91.2646C250.138 92.0526 251.869 93.4223 253.097 95.1987C254.336 97.029 254.968 99.2018 254.907 101.411C254.889 102.33 254.803 103.247 254.648 104.154C254.13 107.225 253.509 110.21 252.785 113.11C251.578 117.837 249.49 121.374 246.522 123.72C243.556 126.033 239.588 127.188 234.618 127.188ZM235.344 119.734C237.136 119.784 238.886 119.177 240.262 118.026C241.783 116.647 242.817 114.813 243.212 112.798C244.006 109.555 244.609 106.726 245.022 104.309C245.16 103.575 245.23 102.83 245.229 102.083C245.229 98.942 243.59 97.372 240.312 97.3727C238.504 97.3294 236.741 97.9353 235.342 99.0807C233.85 100.475 232.835 102.304 232.443 104.309C231.822 106.621 231.201 109.45 230.58 112.798C230.44 113.515 230.37 114.243 230.373 114.973C230.373 118.147 232.03 119.734 235.344 119.734Z" fill="white"/>
<path d="M257.289 126.672C257.125 126.682 256.96 126.654 256.808 126.592C256.656 126.529 256.519 126.433 256.409 126.311C256.237 126.032 256.181 125.697 256.254 125.379L263.398 91.7312C263.46 91.3599 263.663 91.0267 263.963 90.7992C264.24 90.5702 264.587 90.4427 264.947 90.4372H278.716C281.959 90.2782 285.172 91.1086 287.931 92.8183C289.065 93.5612 289.986 94.587 290.604 95.7943C291.22 97.0017 291.513 98.349 291.451 99.7036C291.446 100.61 291.342 101.512 291.14 102.396C290.569 105.883 288.702 109.027 285.912 111.196C283.323 113.094 279.769 114.043 275.248 114.043H268.261L265.88 125.379C265.817 125.75 265.615 126.084 265.314 126.311C265.038 126.54 264.691 126.668 264.332 126.674L257.289 126.672ZM275.614 106.898C276.97 106.928 278.298 106.509 279.393 105.708C280.519 104.881 281.295 103.662 281.567 102.292C281.663 101.779 281.715 101.26 281.722 100.739C281.752 100.318 281.687 99.8952 281.536 99.5015C281.384 99.1077 281.146 98.7524 280.842 98.4605C279.978 97.8225 278.909 97.5274 277.84 97.6325H271.629L269.661 106.898H275.614Z" fill="white"/>
<defs>
<linearGradient id="paint0_linear_313_28827" x1="232.75" y1="39.8906" x2="67.6178" y2="92.1395" gradientUnits="userSpaceOnUse">
<stop stop-color="#000756"/>
<stop offset="1" stop-color="#0042B8"/>
</linearGradient>
<linearGradient id="paint1_linear_313_28827" x1="198.955" y1="120.827" x2="151.45" y2="108.024" gradientUnits="userSpaceOnUse">
<stop offset="0.14" stop-color="#ADADAD"/>
<stop offset="0.29" stop-color="#CBCBCB"/>
<stop offset="0.43" stop-color="#E2E2E2"/>
<stop offset="0.59" stop-color="#F2F2F2"/>
<stop offset="0.77" stop-color="#FCFCFC"/>
<stop offset="1" stop-color="white"/>
</linearGradient>
<linearGradient id="paint2_linear_313_28827" x1="181.415" y1="161.393" x2="114.265" y2="67.7355" gradientUnits="userSpaceOnUse">
<stop stop-color="#ADADAD"/>
<stop offset="0.17" stop-color="#CBCBCB"/>
<stop offset="0.34" stop-color="#E2E2E2"/>
<stop offset="0.52" stop-color="#F2F2F2"/>
<stop offset="0.73" stop-color="#FCFCFC"/>
<stop offset="1" stop-color="white"/>
</linearGradient>
<linearGradient id="paint3_linear_313_28827" x1="164.766" y1="147.218" x2="196.66" y2="106.788" gradientUnits="userSpaceOnUse">
<stop offset="0.15" stop-color="#ADADAD"/>
<stop offset="0.29" stop-color="#CBCBCB"/>
<stop offset="0.44" stop-color="#E2E2E2"/>
<stop offset="0.6" stop-color="#F2F2F2"/>
<stop offset="0.77" stop-color="#FCFCFC"/>
<stop offset="1" stop-color="white"/>
</linearGradient>
<linearGradient id="paint4_linear_313_28827" x1="136.08" y1="116.85" x2="163.035" y2="91.2448" gradientUnits="userSpaceOnUse">
<stop offset="0.14" stop-color="#ADADAD"/>
<stop offset="0.43" stop-color="#C9C9C9"/>
<stop offset="1" stop-color="white"/>
</linearGradient>
<linearGradient id="paint5_linear_313_28827" x1="192.437" y1="84.1967" x2="192.437" y2="102.268" gradientUnits="userSpaceOnUse">
<stop offset="0.0895638" stop-color="#ADADAD"/>
<stop offset="0.240189" stop-color="#CBCBCB"/>
<stop offset="0.425047" stop-color="#E2E2E2"/>
<stop offset="0.536875" stop-color="#F2F2F2"/>
<stop offset="1" stop-color="white"/>
</linearGradient>
<clipPath id="clip0_313_28827">
<rect x="3.75" y="39.8906" width="138" height="138" rx="69" fill="white"/>
</clipPath>
<clipPath id="clip1_313_28827">
<rect x="94.75" y="39.8906" width="138" height="138" rx="69" fill="white"/>
</clipPath>
</defs>
</svg>
