<svg width="120" height="120" viewBox="0 0 120 120" fill="none" xmlns="http://www.w3.org/2000/svg">
<g clip-path="url(#clip0_231_74140)">
<path d="M25.7538 5.55028C25.7018 5.46642 25.2697 5.17974 24.7934 4.91351C23.8026 4.35985 23.7138 4.34315 23.4583 4.66398C23.2129 4.97205 22.0982 7.40657 22.0982 7.63451C22.0982 7.73189 22.02 7.95833 21.9245 8.13755C21.829 8.31671 21.5683 9.30749 21.3452 10.3394C21.1219 11.3713 20.8621 12.5111 20.7675 12.8722C20.1637 15.1813 19.9531 23.0458 20.3833 27.2249C20.7345 30.6375 20.7645 30.6806 21.6148 29.0009C22.0048 28.2305 22.5052 27.3047 22.727 26.9435C22.7932 26.7236 22.8949 26.4838 23.0276 26.227C23.1028 25.874 23.115 25.408 23.1011 24.5983C23.0849 23.6696 23.0137 22.4214 22.9426 21.8246C22.8527 21.0698 22.8838 20.6544 23.0452 20.4602C23.2151 20.2553 23.2427 19.6823 23.1484 18.3122C23.0542 16.9452 23.0834 16.3292 23.2577 16.0182C23.3885 15.7841 23.5133 15.2128 23.5346 14.7484C23.5947 13.4437 23.7517 12.3302 23.9116 12.0736C23.9913 11.9452 24.0314 11.646 24.0009 11.4083C23.9701 11.1706 24.0245 10.8751 24.1217 10.7516C24.2189 10.6282 24.3559 10.1512 24.426 9.69209C24.4964 9.23285 24.6229 8.76845 24.7073 8.66021C24.7917 8.55179 24.9289 8.20991 25.0121 7.90037C25.0952 7.59083 25.1753 7.29533 25.19 7.24373C25.2046 7.19213 25.3589 6.82439 25.5324 6.42647C25.7062 6.02849 25.8056 5.63415 25.7538 5.55028Z" fill="#DF6C00"/>
<path d="M99.8765 7.82357C99.6953 7.26539 99.2915 6.27329 98.9789 5.61907C98.6663 4.96503 98.3159 4.43764 98.2001 4.4474C97.9493 4.46841 96.6521 5.22263 96.3539 5.52094C96.1553 5.71981 96.3941 6.54029 96.9809 7.67027C97.0757 7.85303 97.2053 8.38301 97.2689 8.84795C97.3325 9.31289 97.4573 9.73817 97.5467 9.79295C97.6355 9.84797 97.7081 10.1362 97.7081 10.4335C97.7081 10.7309 97.7885 11.0242 97.8875 11.0853C97.9865 11.1463 98.0681 11.4256 98.0699 11.7061C98.0735 12.4358 98.2727 13.8554 98.4179 14.1859C98.5535 14.4949 98.6051 15.2395 98.7173 18.554C98.7593 19.7697 98.8967 21.0151 99.0239 21.3215C99.2063 21.7626 99.2063 21.9365 99.0233 22.1572C98.8763 22.3337 98.7881 23.1068 98.7809 24.2677L98.7701 26.0995L99.9149 28.2455C100.032 28.466 100.139 28.6696 100.235 28.8539C100.62 29.5915 100.844 30.0216 101.001 29.9985C101.222 29.9661 101.313 29.0473 101.531 26.8435C101.57 26.4497 101.612 26.0149 101.661 25.5367C101.894 23.2297 101.777 16.5202 101.477 15.0301C101.372 14.5142 101.201 13.5433 101.094 12.8725C100.791 10.9558 100.522 9.62189 100.357 9.21401C100.274 9.00761 100.057 8.38193 99.8765 7.82357Z" fill="#DF6C00"/>
<path d="M25.7554 5.55078C25.8072 5.63464 25.7077 6.02903 25.534 6.42695C25.3604 6.82487 25.2062 7.19261 25.1916 7.24421C25.1769 7.29581 25.0968 7.59131 25.0137 7.90085C24.9304 8.21045 24.7933 8.55227 24.7089 8.66075C24.6244 8.76899 24.498 9.23333 24.4276 9.69263C24.3574 10.1517 24.2205 10.6286 24.1233 10.7521C24.0261 10.8755 23.9717 11.171 24.0025 11.4087C24.033 11.6465 23.9929 11.9457 23.9131 12.074C23.7533 12.3307 23.5963 13.4442 23.5362 14.7489C23.5149 15.2132 23.3901 15.7845 23.2593 16.0187C23.085 16.3298 23.0557 16.9457 23.1499 18.3126C23.2443 19.6829 23.2167 20.2558 23.0467 20.4607C22.8854 20.6549 22.8543 21.0702 22.9441 21.8251C23.0152 22.4219 23.0865 23.67 23.1027 24.5988C23.1166 25.4084 23.1043 25.8745 23.0292 26.2274C24.5367 23.3114 30.0483 18.2123 33.0677 15.4188C34.2714 14.3051 35.079 13.558 35.079 13.4615C35.079 11.6098 28.9006 7.44281 25.7554 5.55078Z" fill="#C64F00"/>
<path d="M98.7708 26.1L98.7822 24.2682C98.7888 23.1074 98.8776 22.3342 99.024 22.1577C99.207 21.9371 99.2071 21.7631 99.0247 21.322C98.8975 21.0156 98.7601 19.7702 98.7187 18.5545C98.6059 15.24 98.5549 14.4954 98.4187 14.1864C98.2741 13.856 98.0743 12.4363 98.0707 11.7066C98.0695 11.4261 97.9873 11.1468 97.8883 11.0858C97.7899 11.0247 97.7088 10.7314 97.7088 10.434C97.7088 10.1367 97.6363 9.8485 97.5475 9.79354C97.4587 9.73876 97.3339 9.31342 97.2703 8.84848C97.2067 8.3836 97.0765 7.85356 96.9817 7.6708C96.3955 6.54082 96.1561 5.72036 96.3553 5.52148C93.2095 7.41352 87.0313 11.5805 87.0313 13.4322C87.0313 13.5283 87.7897 14.2125 88.9225 15.2344C92.0293 18.037 97.9518 23.3801 98.7708 26.1Z" fill="#C64F00"/>
<path fill-rule="evenodd" clip-rule="evenodd" d="M28.8982 3.14234C31.4935 4.03052 34.95 6.14813 38.3795 8.95061C41.6562 11.6287 41.8167 11.7464 42.1828 11.7464C42.3786 11.7464 43.1108 11.4838 43.8099 11.163C47.1738 9.61853 50.2778 8.66651 54.1804 7.98227C57.5451 7.39223 64.285 7.39001 67.6486 7.97777C71.5576 8.66093 74.7346 9.61379 77.7994 11.0228C78.6652 11.4208 79.5652 11.7464 79.7992 11.7464C80.0572 11.7464 80.8384 11.2172 81.7804 10.4042C85.9168 6.83615 90.3766 3.99093 93.3676 3.01251C94.861 2.52414 95.1562 2.72714 94.0492 3.48117C90.3916 5.97236 87.424 8.72693 85.183 11.7112C83.4424 14.0279 83.4682 14.1273 86.371 16.3801C88.3702 17.9318 92.0566 21.7337 93.718 23.9585C98.0878 29.8089 100.929 36.3269 102.093 43.1723C102.812 47.3922 102.959 50.2049 102.585 52.5785C102.482 53.2354 102.308 54.3427 102.198 55.0391C101.819 57.4408 100.501 60.6769 98.953 63.0073C94.9714 69.0013 87.1816 73.4269 76.882 75.5461C72.9748 76.3501 65.7964 77.0275 61.1188 77.0329C57.6791 77.0371 51.9309 76.6621 49.3962 76.2679C43.08 75.2863 39.1819 74.2453 34.9564 72.4117C27.3138 69.0949 22.0153 63.5671 20.2369 57.056C20.0116 56.2305 19.7425 55.3018 19.6392 54.9922C19.5358 54.6826 19.4014 52.8253 19.3407 50.8646C19.233 47.3969 19.488 44.083 20.026 41.9528C21.8084 34.8973 23.4517 30.9973 26.7061 26.0992C29.2587 22.2572 32.2881 18.9845 36.1204 15.9292C37.9297 14.4866 38.2497 13.9838 37.845 13.2179C36.5821 10.8284 31.2836 5.6247 28.0037 3.55247C26.593 2.66148 26.9776 2.48511 28.8982 3.14234ZM33.3827 36.6718C34.2311 34.862 35.9052 33.5046 37.7346 33.1425C38.1636 33.0577 38.7711 32.9791 39.0847 32.9678C39.9376 32.9371 41.7033 33.4457 42.5091 33.9545C45.047 35.5566 46.207 39.0716 44.9217 41.2648C43.9812 42.8697 41.9579 43.786 38.9656 43.962C35.9845 44.1374 34.2266 43.4399 33.3172 41.7207C32.6739 40.5046 32.7048 38.1178 33.3827 36.6718ZM76.5508 38.716C76.774 35.9642 78.8842 33.6089 81.5572 33.1273C82.03 33.0423 82.921 33.0155 83.5366 33.0676C86.7208 33.338 89.077 36.0055 89.077 39.3393C89.077 41.3845 88.3786 42.6293 86.7322 43.5179C86.0722 43.874 85.699 43.9211 83.6362 43.9084C81.6046 43.8958 81.1048 43.8278 79.9006 43.4006C77.4592 42.5352 76.3648 41.0046 76.5508 38.716ZM53.744 45.774C53.3709 43.75 55.2723 41.9324 58.4153 41.3081C61.0516 40.7845 63.6256 41.0509 65.7628 42.0684C67.5466 42.9175 68.0638 43.634 68.0638 45.2545C68.0638 47.6331 66.2212 50.1431 63.655 51.2612C62.8618 51.6068 62.4436 51.893 62.4772 52.0675C62.5426 52.4074 64.8532 53.6819 66.0778 54.0537C66.7774 54.2661 67.1704 54.2875 67.7092 54.1425C68.6566 53.8873 70.2946 52.3622 70.96 51.1159C71.9638 49.2353 72.5908 48.8857 73.5736 49.6588C74.2426 50.1849 74.2036 50.7386 73.39 52.2873C72.6226 53.7473 71.2492 55.2365 69.9094 56.0609C69.4102 56.3678 69.0022 56.6577 69.0022 56.7048C69.0022 56.7518 68.8702 57.4301 68.7088 58.2117C67.591 63.6217 63.3034 67.2223 59.3483 66.0721C57.908 65.6533 57.1087 65.1241 55.8292 63.7423C54.2879 62.0773 53.5104 60.3811 52.7874 57.1068C52.7148 56.7778 52.3177 56.3316 51.6757 55.8573C50.2938 54.8363 49.2613 53.6104 48.4406 52.0164C47.7858 50.7443 47.7594 50.6282 48.0072 50.111C48.3337 49.4299 49.1053 49.1199 49.7464 49.4121C50.0058 49.5301 50.4626 50.1031 50.7954 50.7277C51.9958 52.9798 53.4906 54.2104 55.0256 54.2104C55.8594 54.2104 58.1658 53.2374 59.0428 52.5157C59.5483 52.0997 59.4793 51.5224 58.9236 51.5196C58.3654 51.5166 56.7665 50.4922 55.8119 49.5258C54.9054 48.6082 53.9455 46.8663 53.744 45.774Z" fill="#FDFDFD"/>
<path d="M26.9982 56.9238C22.0751 57.2315 18.5367 53.7187 17.3828 51.9238L17.3828 44.2315L18.9213 37.6931L21.229 31.9238L24.6905 26.1546L28.5367 20.77L34.6905 15.3854L35.8443 13.8469L31.229 8.07766L26.229 4.23152L24.6905 1.92383L28.5367 1.92383L32.7674 3.46229L36.6136 5.76998L39.6905 8.84692L41.9982 10.3854L46.9982 8.84692L51.6136 7.30846L55.4597 6.5392H60.8447L66.2291 6.5392L70.0751 7.30846L74.6903 8.84692L79.6907 10.3854L81.9983 8.84692L85.0751 5.76998L88.9211 3.46229L93.1523 1.92383L96.9983 1.92383L95.4599 4.23152L90.4595 8.07766L85.8443 13.8469L86.9981 15.3854L93.1523 20.77L96.9983 26.1546L100.46 31.9238L102.767 37.6931L104.306 44.2315L104.306 51.9238C103.152 53.7187 99.6137 57.2315 94.6907 56.9238C78.5369 55.9142 75.8447 37.6931 60.8447 37.6931C45.8444 37.6931 43.152 55.9142 26.9982 56.9238Z" fill="#FDA624"/>
<path d="M28.9242 1.92383L25.0781 1.92383C29.9499 5.25716 40.232 12.2315 42.3858 13.4623C45.0781 15.0008 45.0781 8.90608 61.2318 9.23152C77.3856 8.90608 77.3856 15.0008 80.0784 13.4623C82.2318 12.2315 92.514 5.25716 97.386 1.92383L93.5394 1.92383L89.3088 3.46229L85.4628 5.76998L82.386 8.84692L80.0784 10.3854L75.078 8.84692L70.4628 7.30846L66.6168 6.5392H61.2318L55.8473 6.5392L52.0012 7.30846L47.3858 8.84692L42.3858 10.3854L40.0781 8.84692L37.0012 5.76998L33.155 3.46229L28.9242 1.92383Z" fill="#FBCA5F"/>
<path d="M60.0796 73.0774C35.1544 73.0774 21.746 61.9234 18.1562 56.1543C19.3101 63.5902 29.3086 78.8464 60.0796 78.8464C99.31 78.8464 101.874 63.8464 103.541 56.1543C99.4384 61.6672 90.8488 73.0774 60.0796 73.0774Z" fill="#DEDEDE"/>
<path d="M63.7438 59.7574C65.296 60.1785 65.311 60.4245 63.8794 61.9779C62.3914 63.5919 60.934 63.9651 59.3332 63.1413C58.3891 62.6553 56.7326 60.8625 56.8583 60.4623C56.8957 60.3435 57.4698 60.0597 58.1342 59.8319C59.1178 59.4945 59.6733 59.4279 61.1248 59.4739C62.1046 59.5049 63.2836 59.6324 63.7438 59.7574Z" fill="#FB877E"/>
<path d="M40.9142 35.4036C41.4998 35.6706 41.9859 36.5145 41.9859 37.2646C41.9859 38.1751 40.9466 39.14 39.9662 39.14C38.5256 39.14 37.5686 37.7576 38.1107 36.4601C38.5849 35.325 39.7654 34.8802 40.9142 35.4036Z" fill="#F8F8F8"/>
<path d="M82.9549 35.4087C84.1495 35.9528 84.3091 37.7609 83.2423 38.6586C82.1143 39.6076 80.4775 39.1091 80.0881 37.6979C79.6177 35.9952 81.2983 34.6538 82.9549 35.4087Z" fill="#F8F8F8"/>
<path d="M43.5412 30.7685C46.0902 30.7685 48.1566 29.0465 48.1566 26.9223C48.1566 24.7982 46.0902 23.0762 43.5412 23.0762C40.9922 23.0762 38.9258 24.7982 38.9258 26.9223C38.9258 29.0465 40.9922 30.7685 43.5412 30.7685Z" fill="#FDFDFC"/>
<path d="M78.1545 30.7685C80.7035 30.7685 82.7698 29.0465 82.7698 26.9223C82.7698 24.7982 80.7035 23.0762 78.1545 23.0762C75.6054 23.0762 73.5391 24.7982 73.5391 26.9223C73.5391 29.0465 75.6054 30.7685 78.1545 30.7685Z" fill="#FDFDFC"/>
<path d="M16.753 78.4912C18.461 83.0458 21.8816 86.857 26.5051 89.3578C27.5212 89.9068 28.2176 90.4048 28.2572 90.61C28.3835 91.2664 28.112 91.768 27.4327 92.134C27.0557 92.3368 26.2693 93.025 25.6849 93.6622C24.6176 94.8268 24.0712 95.9248 23.2899 98.4724C23.1079 99.0658 22.8661 99.5512 22.7525 99.5512C22.1495 99.5512 19.1051 96.6808 17.8772 94.9546C15.9038 92.1802 14.8443 89.062 14.6576 85.4794C14.5387 83.1994 14.7488 81.2326 15.2227 80.191C15.3783 79.849 15.6577 79.1266 15.844 78.5848C16.0301 78.043 16.2357 77.5996 16.3006 77.5996C16.3655 77.5996 16.5691 78.0004 16.753 78.4912Z" fill="#EF8100"/>
<path d="M25.4621 96.5381C19.0006 93.7691 15.4621 85.0001 15.0775 79.2305L13.9237 81.9227L13.5391 86.5385L14.3083 90.7691L17.3852 96.5381L23.9237 101.538C25.0775 101.538 25.8467 96.7031 25.4621 96.5381Z" fill="#DEDEDE"/>
<path d="M62.7745 80.9319C62.8153 81.7911 62.7649 82.1085 62.5867 82.1193C61.4911 82.1859 59.4366 82.1271 59.2698 82.0245C59.0651 81.8973 59.0133 80.6295 59.1868 79.9869C59.2668 79.6911 59.478 79.6575 60.9979 79.7055L62.7187 79.7589L62.7745 80.9319Z" fill="#C4C5C4"/>
<path d="M88.9336 79.8047C89.3662 80.2979 89.938 81.5063 90.4252 82.9607C90.8146 84.1235 90.8602 84.6077 90.8602 87.5441C90.8602 90.9803 90.7936 91.4513 89.7988 95.0489C87.8584 102.066 82.465 112.736 79.5472 115.33C77.989 116.715 76.969 117.061 74.176 117.15C71.5948 117.232 70.7098 117.082 69.8692 116.421C68.7874 115.57 68.752 115.349 68.6848 109.12C68.5906 100.315 68.5174 99.1523 68.0296 98.7449C67.498 98.3009 66.7798 98.4053 66.3484 98.9891C66.0268 99.4241 65.9986 100.002 65.9548 106.963L65.9074 114.467H60.979H56.0507L55.9423 106.869C55.8233 98.5181 55.8102 98.4257 54.7398 98.4257C53.8488 98.4257 53.4342 98.9963 53.4102 100.255C53.3988 100.849 53.3333 104.416 53.2646 108.182C53.1445 114.781 53.1252 115.054 52.7308 115.688C51.9564 116.934 51.4462 117.095 48.2713 117.09C45.5999 117.086 45.4008 117.06 44.3458 116.57C42.6154 115.766 41.799 114.964 40.0431 112.339C36.6072 107.204 32.6909 98.2163 31.6091 92.9849C31.0059 90.0683 30.953 89.6507 30.931 87.6377C30.9014 84.9311 31.3586 82.7891 32.3928 80.7899C32.7207 80.1557 33.0663 79.7369 33.2894 79.7033C33.4888 79.6733 34.2834 79.9793 35.0548 80.3831C38.8329 82.3613 47.3565 84.6377 52.3989 85.0151C53.2245 85.0769 54.099 85.1687 54.3423 85.2191C54.8419 85.3217 54.8347 85.4201 54.1946 87.2447C53.9809 87.8543 53.806 88.7279 53.806 89.1857C53.806 91.1537 55.0972 93.6797 56.686 94.8209C58.1794 95.8931 59.1669 96.2201 60.9448 96.2291C62.4148 96.2363 62.668 96.1799 63.9766 95.5499C65.6044 94.7675 66.6358 93.7349 67.4518 92.0705C67.9072 91.1423 67.9696 90.7997 67.9684 89.2325C67.9672 87.7565 67.8898 87.2783 67.5166 86.4485C67.1734 85.6853 67.1218 85.4117 67.2988 85.3025C67.4272 85.2233 68.3482 85.1033 69.346 85.0355C70.3444 84.9683 71.5828 84.8339 72.0988 84.7367C75.169 84.1589 76.4512 83.8841 78.3838 83.3867C80.6596 82.8017 80.9374 82.7147 83.9188 81.6455C85.7536 80.9879 88.0888 79.8971 88.2628 79.6175C88.4026 79.3913 88.624 79.4531 88.9336 79.8047Z" fill="#FDA624"/>
<path d="M33.9219 88.0765C33.9219 84.3841 34.6911 81.4099 35.0757 80.3839L33.1527 78.4609L31.2296 79.2301L30.0757 81.5377L28.9219 84.2305L28.9219 88.0765L29.3065 93.4609L30.0757 96.5377L31.6142 99.6151L33.1527 103.846L36.6142 110.384L39.6911 115.384L42.768 118.077L47.3834 118.846C49.1783 118.59 51.9219 118.077 48.5373 118.077C44.3065 118.077 33.9219 92.6917 33.9219 88.0765Z" fill="#EF8200"/>
<path d="M87.8344 88.0765C87.8344 84.3841 87.0652 81.4099 86.6806 80.3839L88.6036 78.4609L90.5266 79.2301L91.6804 81.5377L92.8348 84.2305L92.8348 88.0765L92.4502 93.4609L91.6804 96.5377L90.142 99.6151L88.6036 103.846L85.1422 110.384L82.0654 115.384L78.9886 118.077L74.3062 118.846C72.511 118.59 69.7678 118.077 73.1524 118.077C77.383 118.077 87.8344 92.6917 87.8344 88.0765Z" fill="#EF8200"/>
<path d="M47.3801 112.308C42.4571 112 40.7135 113.718 40.457 114.616L41.9955 116.923L45.0724 118.077L48.1494 118.462H50.0725L51.9955 117.692L53.9186 116.539L53.9186 114.616C53.7904 113.974 52.3032 112.615 47.3801 112.308Z" fill="#FDFCFB"/>
<path fill-rule="evenodd" clip-rule="evenodd" d="M48.5355 118.076C47.276 118.076 45.4712 115.827 43.5574 112.545C41.4896 113.021 40.6324 114.007 40.4586 114.615L40.1289 115.769L42.7663 118.076L47.3817 118.846C49.1766 118.589 51.9201 118.076 48.5355 118.076Z" fill="#DBDBDB"/>
<path d="M75.4619 112.308C70.5389 112 68.7953 113.718 68.5391 114.616L69.6929 116.923L73.1543 118.077L76.2311 118.462H78.1541L80.0771 117.692L82.0001 116.539L82.0001 114.616C81.8723 113.974 80.3849 112.615 75.4619 112.308Z" fill="#FDFCFB"/>
<path fill-rule="evenodd" clip-rule="evenodd" d="M73.1524 118.077C74.4022 118.077 76.1956 115.861 78.1012 112.619C80.9422 113.148 81.8968 114.107 81.9982 114.615L82.0654 115.385L78.9886 118.077L74.3062 118.846C72.511 118.59 69.7678 118.077 73.1524 118.077Z" fill="#DBDBDB"/>
<path d="M54.3839 103.462C48.2301 100 36.3071 90.0003 37.4609 81.5391L40.9224 81.9237L43.6148 82.6929L46.6917 83.4621L52.0763 84.2313H60.9222H69.7686L75.153 83.4621L78.2304 82.6929L80.9226 81.9237L84.384 81.5391C85.5378 90.0003 71.6916 101.891 68.9994 103.462C67.461 104.359 61.605 107.524 54.3839 103.462Z" fill="#FDFDFD"/>
<path d="M55.4594 99.6151C55.4594 95.7685 50.8441 88.0765 46.6133 84.2305H61.2284H75.8438C71.6132 88.0765 66.998 95.7685 66.998 99.6151C66.998 103.461 66.998 110.768 61.2284 110.768C55.4594 110.768 55.4594 103.461 55.4594 99.6151Z" fill="#DEDEDE"/>
<path d="M63.0449 85.1042C63.3557 85.1084 64.7375 86.5322 65.0759 87.1964C65.5271 88.0808 65.5631 90.071 65.1467 91.0688C64.2407 93.2366 61.4063 94.3394 59.2234 93.3728C57.551 92.6324 56.5977 91.2302 56.4731 89.3276C56.4101 88.3658 56.4782 88.052 56.9399 87.173C57.9155 85.316 60.1793 84.2894 62.0609 84.8504C62.5253 84.989 62.9681 85.103 63.0449 85.1042Z" fill="#FDFDFD"/>
<path d="M59.6935 93.846C62.2425 93.846 64.3089 91.7796 64.3089 89.2306C64.3089 86.6816 62.2425 84.6152 59.6935 84.6152C57.1445 84.6152 55.0781 86.6816 55.0781 89.2306C55.0781 91.7796 57.1445 93.846 59.6935 93.846Z" fill="#F8E036"/>
<path fill-rule="evenodd" clip-rule="evenodd" d="M24.3934 0.0984164C21.3535 0.881154 18.9125 5.79541 17.6566 13.6613C17.2294 16.3365 17.1692 25.4912 17.5612 28.1635C17.8334 30.0202 18.4302 33.0608 18.7219 34.0777C19.0022 35.0551 18.9478 36.0222 18.5564 37.0214C18.0223 38.3852 17.4465 40.9066 17.0135 43.7766C16.682 45.9748 16.6373 46.9389 16.7167 50.2085C16.8394 55.2616 17.333 57.5854 19.0919 61.3884C21.2741 66.1068 25.5077 70.4472 30.775 73.3662L32.0414 74.0682L32.0414 75.2286C32.0414 76.3206 31.9874 76.4634 31.1266 77.6442C29.435 79.9638 28.6557 82.0254 28.3136 85.0812C28.2176 85.941 28.0583 86.7246 27.96 86.823C27.6707 87.1122 24.5536 84.8988 23.1403 83.4006C20.6688 80.7804 19.1846 77.8974 18.4322 74.2548C18.2696 73.467 18.0015 72.6732 17.8366 72.4908C17.423 72.0342 16.5825 72.0762 16.0229 72.582C15.284 73.2492 13.7596 76.1142 13.1304 78.0174C11.0446 84.327 11.8555 90.5892 15.4784 96.15C16.4589 97.6548 19.703 100.853 21.2781 101.869L22.6159 102.731L22.7443 103.815C22.897 105.105 23.6101 108.038 24.1769 109.707C25.1992 112.717 26.9906 115.118 28.9559 116.113C30.9186 117.107 31.6581 117.23 36.2628 117.324L40.578 117.413L41.7454 118.144C42.8532 118.838 44.1647 119.328 46.1622 119.794C48.694 120.384 52.2832 119.662 53.9692 118.222L54.9613 117.376H61.0146C66.9408 117.376 67.0752 117.383 67.425 117.772C68.277 118.719 69.378 119.268 71.1978 119.654C74.478 120.349 78.1728 119.683 80.382 117.997L81.0738 117.469L85.4034 117.342C91.1934 117.171 92.7666 116.73 94.8594 114.69C96.141 113.44 97.0302 111.845 97.899 109.237C98.976 106.004 99.2778 104.165 99.1494 101.615C98.9358 97.3716 97.275 94.0038 94.5246 92.2392L93.5874 91.638L93.7062 88.7646C93.8316 85.7184 93.6474 83.8884 93.0138 81.9066C92.5212 80.3634 91.5846 78.5742 90.738 77.5572C90.0102 76.6836 89.9994 76.6482 90.054 75.3192L90.1086 73.9692L91.6758 73.0692C98.7048 69.033 103.242 63.0366 104.716 55.837C105.889 50.1031 105.365 42.9688 103.312 36.7344C103.097 36.0826 102.963 35.365 103.013 35.1397C104.222 29.7173 104.837 24.9935 104.836 21.1445C104.835 16.8798 103.949 10.6939 102.859 7.338C101.737 3.88415 100.083 1.33406 98.385 0.440254C97.2594 -0.152428 94.554 -0.145674 92.7354 0.454325C89.5278 1.51305 85.3998 3.98828 81.594 7.13442C80.523 8.02038 79.5414 8.74512 79.413 8.74512C79.2846 8.74512 78.684 8.52354 78.078 8.25282C75.348 7.0335 70.9596 5.8076 67.3134 5.24569C64.2474 4.77308 57.505 4.77308 54.6493 5.24569C50.6414 5.90911 47.6253 6.73032 44.4446 8.02446C43.4705 8.42094 42.6014 8.74512 42.5132 8.74512C42.4251 8.74512 41.489 8.04588 40.4335 7.19112C34.7941 2.62487 30.1 0.207609 26.5067 0.0192413C25.6812 -0.0239107 24.7302 0.0115498 24.3934 0.0984164ZM28.8981 3.14288C31.4934 4.03106 34.9499 6.14868 38.3793 8.9511C41.656 11.6292 41.8165 11.747 42.1827 11.747C42.3784 11.747 43.1107 11.4844 43.8097 11.1635C47.1737 9.61902 50.2776 8.66706 54.1802 7.98282C57.545 7.39278 64.2852 7.3905 67.6482 7.97832C71.5578 8.66142 74.7342 9.61434 77.7996 11.0234C78.6648 11.4213 79.5648 11.747 79.7988 11.747C80.0568 11.747 80.838 11.2177 81.78 10.4048C85.9164 6.8367 90.3762 3.99147 93.3678 3.01304C94.8606 2.52468 95.1558 2.72768 94.0488 3.48172C90.3912 5.97289 87.4242 8.72748 85.1826 11.7117C83.4426 14.0284 83.4678 14.1278 86.3706 16.3806C88.3704 17.9324 92.0562 21.7342 93.7182 23.959C98.088 29.8094 100.929 36.3275 102.094 43.1729C102.811 47.3927 102.958 50.2055 102.586 52.579C102.482 53.2359 102.308 54.3432 102.198 55.0396C101.819 57.4413 100.501 60.678 98.9526 63.0084C94.971 69.0018 87.1812 73.4274 76.8816 75.5466C72.9744 76.3506 65.796 77.028 61.119 77.0334C57.6789 77.0376 51.9307 76.6626 49.396 76.269C43.0799 75.2868 39.1817 74.2458 34.9562 72.4122C27.3137 69.0954 22.0151 63.5676 20.2367 57.0565C20.0114 56.231 19.7423 55.3023 19.639 54.9928C19.5356 54.6832 19.4013 52.8257 19.3405 50.8652C19.2328 47.3974 19.4878 44.0836 20.0258 41.9533C21.8082 34.8978 23.4515 30.9978 26.7059 26.0997C29.2585 22.2577 32.2879 18.9851 36.1202 15.9298C37.9296 14.4871 38.2495 13.9843 37.8448 13.2185C36.5819 10.829 31.2835 5.62524 28.0035 3.55301C26.5928 2.66201 26.9774 2.48566 28.8981 3.14288ZM24.7928 4.91398C25.2692 5.18021 25.7013 5.46689 25.7533 5.55076C28.8985 7.44282 35.0769 11.6098 35.0769 13.4615C35.0769 13.5579 34.2693 14.3051 33.0656 15.4187C30.0461 18.2123 24.5345 23.3114 23.0271 26.2274C22.9694 26.4982 22.8748 26.7024 22.7264 26.944C22.5047 27.3052 22.0043 28.231 21.6142 29.0014C20.764 30.6811 20.7339 30.638 20.3827 27.2254C19.9525 23.0462 20.1632 15.1817 20.767 12.8727C20.8615 12.5116 21.1214 11.3717 21.3446 10.3399C21.5677 9.30798 21.8285 8.3172 21.924 8.13798C22.0195 7.95882 22.0977 7.73238 22.0977 7.635C22.0977 7.40706 23.2123 4.97252 23.4577 4.66445C23.7133 4.34363 23.802 4.36033 24.7928 4.91398ZM98.9784 5.61923C99.291 6.27348 99.6948 7.26558 99.876 7.82376C100.057 8.38206 100.273 9.0078 100.357 9.21414C100.522 9.62202 100.79 10.956 101.094 12.8727C101.2 13.5434 101.372 14.5144 101.476 15.0303C101.776 16.5203 101.894 23.2299 101.66 25.5368C101.612 26.015 101.569 26.4499 101.53 26.8437C101.312 29.0474 101.222 29.9663 101.002 29.9986C100.844 30.0218 100.619 29.5917 100.235 28.8541C100.138 28.6697 100.033 28.4662 99.915 28.2457L98.7696 26.0997C97.9506 23.3797 92.028 18.0367 88.9212 15.2341C87.7884 14.2121 87.03 13.528 87.03 13.4319C87.03 11.5801 93.2082 7.41318 96.3534 5.52111C96.6516 5.2228 97.9488 4.46858 98.1996 4.44757C98.3154 4.43781 98.6664 4.9652 98.9784 5.61923ZM37.7345 33.143C35.905 33.5051 34.2309 34.8625 33.3825 36.6723C32.7046 38.1182 32.6737 40.5052 33.317 41.7212C34.2264 43.4404 35.9844 44.138 38.9654 43.9625C41.9578 43.7866 43.981 42.8702 44.9215 41.2654C46.2069 39.0721 45.0469 35.5571 42.5089 33.955C41.7031 33.4462 39.9375 32.9376 39.0845 32.9684C38.7709 32.9796 38.1634 33.0583 37.7345 33.143ZM81.5574 33.1279C78.8838 33.6095 76.7736 35.9648 76.5504 38.7166C76.3644 41.0051 77.4588 42.5357 79.9002 43.4012C81.105 43.8284 81.6048 43.8963 83.6364 43.9089C85.6986 43.9216 86.0718 43.8745 86.7318 43.5185C88.3782 42.6299 89.0772 41.3851 89.0772 39.3398C89.0772 36.0061 86.7204 33.3385 83.5362 33.0682C82.9206 33.016 82.0302 33.0428 81.5574 33.1279ZM40.9135 35.4027C41.499 35.6697 41.9851 36.5136 41.9851 37.2637C41.9851 38.1742 40.9459 39.1391 39.9654 39.1391C38.5249 39.1391 37.5679 37.7567 38.1099 36.4592C38.5842 35.3241 39.7647 34.8793 40.9135 35.4027ZM82.953 35.4089C84.147 35.953 84.3066 37.7611 83.2398 38.6588C82.1124 39.6077 80.4756 39.1093 80.0862 37.698C79.6158 35.9954 81.2964 34.6539 82.953 35.4089ZM58.4151 41.3087C55.2722 41.9329 53.3707 43.7506 53.7439 45.7745C53.9453 46.8668 54.9052 48.6087 55.8118 49.5263C56.7664 50.4928 58.3652 51.5171 58.9234 51.5201C59.4791 51.523 59.5481 52.1002 59.0427 52.5162C58.1656 53.2379 55.8592 54.211 55.0255 54.211C53.4904 54.211 51.9956 52.9804 50.7952 50.7282C50.4624 50.1036 50.0056 49.5307 49.7463 49.4126C49.1052 49.1205 48.3335 49.4305 48.0071 50.1115C47.7592 50.6288 47.7857 50.7449 48.4405 52.0169C49.2611 53.611 50.2936 54.8368 51.6755 55.8578C52.3176 56.3321 52.7146 56.7783 52.7872 57.1074C53.5103 60.3816 54.2878 62.0778 55.829 63.7428C57.1085 65.1246 57.9078 65.6538 59.3482 66.0726C63.303 67.2228 67.5912 63.6222 68.7084 58.2122C68.8698 57.4306 69.0018 56.7524 69.0018 56.7053C69.0018 56.6582 69.4104 56.3684 69.9096 56.0614C71.2488 55.237 72.6228 53.7479 73.3896 52.2878C74.2038 50.7391 74.2422 50.1854 73.5732 49.6594C72.5904 48.8862 71.9634 49.2359 70.9596 51.1164C70.2942 52.3627 68.6568 53.8879 67.7094 54.143C67.17 54.2881 66.7776 54.2666 66.0774 54.0543C64.8528 53.6824 62.5428 52.408 62.4768 52.068C62.4432 51.8935 62.8614 51.6074 63.6546 51.2618C66.2214 50.1436 68.064 47.6336 68.064 45.2551C68.064 43.6346 67.5462 42.9181 65.7624 42.0689C63.6252 41.0515 61.0512 40.7851 58.4151 41.3087ZM63.7416 59.7571C65.2938 60.1782 65.3088 60.4242 63.8766 61.9776C62.3886 63.5916 60.9312 63.9648 59.3307 63.141C58.3866 62.655 56.7301 60.8622 56.8558 60.462C56.8932 60.3432 57.4673 60.0594 58.1317 59.8316C59.1153 59.4943 59.6709 59.4277 61.122 59.4736C62.1024 59.5046 63.2808 59.6321 63.7416 59.7571ZM16.7525 78.492C18.4606 83.0466 21.8812 86.8578 26.5046 89.3586C27.5208 89.9082 28.2172 90.4056 28.2568 90.6108C28.3831 91.2672 28.1116 91.7688 27.4323 92.1348C27.0553 92.3376 26.2688 93.0258 25.6844 93.663C24.6172 94.8276 24.0707 95.9256 23.2895 98.4732C23.1075 99.0666 22.8657 99.552 22.7521 99.552C22.1491 99.552 19.1047 96.6816 17.8767 94.9554C15.9034 92.181 14.8439 89.0628 14.6572 85.4808C14.5382 83.2002 14.7484 81.2334 15.2223 80.1918C15.3778 79.8504 15.6572 79.1274 15.8435 78.5856C16.0296 78.0438 16.2352 77.6004 16.3001 77.6004C16.3651 77.6004 16.5686 78.0018 16.7525 78.492ZM88.9326 79.8048C89.3652 80.298 89.9364 81.5064 90.4242 82.9608C90.8136 84.1236 90.8592 84.6078 90.8592 87.5442C90.8592 90.9804 90.7926 91.4514 89.7978 95.049C87.8574 102.066 82.464 112.736 79.5462 115.33C77.988 116.715 76.968 117.061 74.175 117.15C71.5938 117.232 70.7088 117.082 69.8676 116.421C68.7864 115.57 68.751 115.349 68.6838 109.12C68.5896 100.315 68.5164 99.1524 68.0286 98.745C67.497 98.301 66.7788 98.4054 66.3474 98.9892C66.0258 99.4242 65.997 100.002 65.9538 106.963L65.9064 114.467H60.978H56.0497L55.9412 106.869C55.8223 98.5182 55.8091 98.4258 54.7388 98.4258C53.8478 98.4258 53.4331 98.9964 53.4091 100.255C53.3977 100.849 53.3322 104.416 53.2636 108.182C53.1435 114.781 53.1241 115.054 52.7298 115.688C51.9553 116.934 51.4452 117.095 48.2703 117.09C45.5988 117.086 45.3998 117.06 44.3448 116.57C42.6144 115.766 41.7979 114.964 40.042 112.339C36.6061 107.204 32.6898 98.217 31.608 92.985C31.0048 90.0684 30.9519 89.6508 30.93 87.6384C30.9004 84.9312 31.3576 82.7892 32.3917 80.79C32.7197 80.1558 33.0652 79.737 33.2883 79.7034C33.4877 79.6734 34.2823 79.9794 35.0538 80.3832C38.8318 82.3614 47.3555 84.6378 52.3979 85.0152C53.2234 85.0776 54.0979 85.1688 54.3412 85.2192C54.8409 85.3218 54.8337 85.4202 54.1936 87.2448C53.9798 87.8544 53.805 88.728 53.805 89.1864C53.805 91.1538 55.0962 93.6804 56.685 94.821C58.1784 95.8932 59.1658 96.2202 60.9438 96.2292C62.4132 96.2364 62.667 96.18 63.9756 95.55C65.6034 94.7676 66.6342 93.735 67.4508 92.0706C67.9062 91.1424 67.9686 90.7998 67.9674 89.2326C67.9662 87.7566 67.8882 87.2784 67.5156 86.4486C67.1724 85.6854 67.1208 85.4118 67.2978 85.3026C67.4262 85.2234 68.3472 85.1034 69.345 85.0356C70.3428 84.9684 71.5818 84.834 72.0978 84.7368C75.168 84.1596 76.4502 83.8842 78.3828 83.3868C80.6586 82.8018 80.9364 82.7148 83.9178 81.6456C85.7526 80.988 88.0878 79.8972 88.2612 79.6176C88.4016 79.3914 88.623 79.4532 88.9326 79.8048ZM62.7726 80.931C62.8134 81.7896 62.7636 82.1076 62.5848 82.1184C61.4892 82.185 59.4348 82.1262 59.268 82.023C59.0634 81.8964 59.0116 80.6286 59.1851 79.986C59.2651 79.6896 59.4763 79.6566 60.996 79.7046L62.7168 79.758L62.7726 80.931ZM63.0444 85.1034C63.3546 85.1076 64.7364 86.5314 65.0754 87.1956C65.5266 88.08 65.5626 90.0702 65.1456 91.068C64.2402 93.2358 61.4058 94.3386 59.2228 93.372C57.5504 92.6316 56.5971 91.2294 56.4726 89.3268C56.4095 88.365 56.4776 88.0512 56.9394 87.1722C57.9149 85.3152 60.1788 84.2886 62.0604 84.8496C62.5242 84.9882 62.9676 85.1022 63.0444 85.1034ZM29.2388 95.4714C30.5292 100.283 34.4054 109.036 36.9371 112.853C37.4433 113.617 37.8576 114.314 37.8576 114.401C37.8576 114.662 32.9878 114.584 31.9476 114.306C29.1889 113.569 27.9692 112.184 26.6395 108.276C25.0951 103.737 25.094 100.465 26.6356 97.3242C27.2217 96.1302 28.4197 94.674 28.8157 94.674C28.9309 94.674 29.1214 95.0328 29.2388 95.4714ZM94.506 95.994C95.418 97.1478 95.9664 98.574 96.3558 100.804C96.675 102.632 96.5886 103.638 95.8998 106.118C94.3548 111.686 93.276 113.261 90.3852 114.175C89.3964 114.487 88.6644 114.561 86.586 114.561C85.17 114.561 84.0114 114.522 84.0114 114.474C84.0114 114.426 84.4602 113.687 85.0092 112.832C86.0784 111.167 87.969 107.619 88.6872 105.931C88.9284 105.363 89.373 104.359 89.6742 103.7C90.5238 101.843 91.4406 99.456 92.1726 97.2C92.5392 96.0684 92.8782 95.0334 92.9256 94.9002C93.0618 94.5156 93.6702 94.9368 94.506 95.994Z" fill="#301F1B"/>
<path d="M29.239 95.4712C30.5294 100.283 34.4056 109.035 36.9373 112.853C37.4435 113.617 37.8578 114.314 37.8578 114.401C37.8578 114.662 32.988 114.584 31.9478 114.306C29.1891 113.569 27.9694 112.184 26.6397 108.276C25.0953 103.737 25.0941 100.464 26.6358 97.324C27.2219 96.13 28.4199 94.6738 28.8159 94.6738C28.9311 94.6738 29.1216 95.0326 29.239 95.4712Z" fill="#EF8100"/>
<path d="M94.5057 95.9936C95.4183 97.1474 95.9661 98.5736 96.3555 100.804C96.6753 102.632 96.5889 103.638 95.9001 106.118C94.3545 111.686 93.2763 113.261 90.3849 114.174C89.3961 114.486 88.6647 114.561 86.5857 114.561C85.1697 114.561 84.0117 114.522 84.0117 114.474C84.0117 114.426 84.4605 113.686 85.0095 112.832C86.0787 111.167 87.9693 107.619 88.6875 105.93C88.9287 105.363 89.3727 104.359 89.6745 103.699C90.5235 101.842 91.4409 99.4556 92.1723 97.1996C92.5395 96.0686 92.8785 95.033 92.9253 94.8998C93.0615 94.5152 93.6705 94.9364 94.5057 95.9936Z" fill="#EF8100"/>
<path d="M60.8477 46.9223C63.6091 46.9223 65.8477 46.0613 65.8477 44.9993C65.8477 43.9372 63.6091 43.0762 60.8477 43.0762C58.0862 43.0762 55.8477 43.9372 55.8477 44.9993C55.8477 46.0613 58.0862 46.9223 60.8477 46.9223Z" fill="#5B3B37"/>
<path d="M34.3047 76.9221C34.3047 79.9989 48.6637 82.3065 55.8432 83.0757L55.8432 79.9989C55.8432 79.9989 45.8432 79.2297 44.3047 78.8451C42.7662 78.4605 34.3047 75.7683 34.3047 76.9221Z" fill="#B1151F"/>
<path d="M87.3826 76.9221C87.3826 79.9989 73.0234 82.3065 65.8438 83.0757L65.8438 79.9989C65.8438 79.9989 75.8439 79.2297 77.3823 78.8451C78.9207 78.4605 87.3826 75.7683 87.3826 76.9221Z" fill="#B1151F"/>
</g>
<defs>
<clipPath id="clip0_231_74140">
<rect width="120" height="120" fill="white"/>
</clipPath>
</defs>
</svg>
