<svg width="327" height="216" viewBox="0 0 327 216" fill="none" xmlns="http://www.w3.org/2000/svg">
<g clip-path="url(#clip0_249_27408)">
<path d="M72.75 177C110.858 177 141.75 146.108 141.75 108C141.75 69.8924 110.858 39 72.75 39C34.6424 39 3.75 69.8924 3.75 108C3.75 146.108 34.6424 177 72.75 177Z" fill="#F0F0F0"/>
<path d="M69.7539 108H141.754C141.754 101.772 140.924 95.7391 139.377 90H69.7539V108Z" fill="#D80027"/>
<path d="M69.7539 72.0001H131.626C127.403 65.1076 122.002 59.0154 115.705 54H69.7539V72.0001Z" fill="#D80027"/>
<path d="M72.7522 177C88.9912 177 103.917 171.387 115.704 162H29.8008C41.5874 171.387 56.5132 177 72.7522 177Z" fill="#D80027"/>
<path d="M13.8793 144H131.625C135.016 138.467 137.645 132.419 139.375 126H6.12891C7.85849 132.419 10.4883 138.467 13.8793 144Z" fill="#D80027"/>
<path d="M35.7121 49.7753H42L36.1512 54.0245L38.3853 60.9L32.5367 56.6508L26.6882 60.9L28.618 54.9603C23.4684 59.2499 18.9548 64.2756 15.2353 69.8753H17.25L13.527 72.5801C12.9469 73.5477 12.3906 74.5307 11.8575 75.5282L13.6353 81L10.3185 78.5901C9.49398 80.3369 8.73983 82.1231 8.06196 83.9465L10.0206 89.9754H17.25L11.4012 94.2245L13.6353 101.1L7.78677 96.8508L4.2834 99.3963C3.93274 102.215 3.75 105.086 3.75 108H72.75C72.75 69.8926 72.75 65.4 72.75 39C59.1193 39 46.4128 42.954 35.7121 49.7753ZM38.3853 101.1L32.5367 96.8508L26.6882 101.1L28.9223 94.2245L23.0735 89.9754H30.3029L32.5367 83.0999L34.7706 89.9754H42L36.1512 94.2245L38.3853 101.1ZM36.1512 74.1245L38.3853 81L32.5367 76.7508L26.6882 81L28.9223 74.1245L23.0735 69.8753H30.3029L32.5367 62.9999L34.7706 69.8753H42L36.1512 74.1245ZM63.1353 101.1L57.2867 96.8508L51.4382 101.1L53.6723 94.2245L47.8235 89.9754H55.0528L57.2867 83.0999L59.5206 89.9754H66.75L60.9011 94.2245L63.1353 101.1ZM60.9011 74.1245L63.1353 81L57.2867 76.7508L51.4382 81L53.6723 74.1245L47.8235 69.8753H55.0528L57.2867 62.9999L59.5206 69.8753H66.75L60.9011 74.1245ZM60.9011 54.0245L63.1353 60.9L57.2867 56.6508L51.4382 60.9L53.6723 54.0245L47.8235 49.7753H55.0528L57.2867 42.8998L59.5206 49.7753H66.75L60.9011 54.0245Z" fill="#0052B4"/>
</g>
<g clip-path="url(#clip1_249_27408)">
<path d="M163.75 177C201.858 177 232.75 146.108 232.75 108C232.75 69.8924 201.858 39 163.75 39C125.642 39 94.75 69.8924 94.75 108C94.75 146.108 125.642 177 163.75 177Z" fill="url(#paint0_linear_249_27408)"/>
<path d="M186.372 105.941C190.725 111.75 177.979 122.979 180.843 118.341H153.693C150.756 114.5 148.736 110.3 147.766 105.941H186.372Z" fill="url(#paint1_linear_249_27408)"/>
<path d="M178.503 139.412C174.644 142.488 170.473 145.15 166.058 147.353L163.898 148.44L161.726 147.357C141.299 137.106 129.113 119.451 129.113 100.102V77.3848H141.571V100.102C141.569 101.551 141.667 102.999 141.864 104.434C143.433 116.189 151.367 127.033 163.852 134.334C163.863 134.346 163.877 134.355 163.891 134.362C163.904 134.355 163.911 134.348 163.925 134.342L163.977 134.308C168.49 136.832 173.403 138.558 178.503 139.412Z" fill="url(#paint2_linear_249_27408)"/>
<path d="M198.299 105.941C197.722 110.432 196.491 114.813 194.644 118.946C191.229 126.621 185.74 133.605 178.51 139.415C173.414 138.561 168.502 136.834 163.992 134.311C165.621 133.351 167.201 132.308 168.725 131.188C168.877 131.09 169.023 130.983 169.163 130.869C177.602 124.792 183.682 115.986 186.373 105.941H198.299Z" fill="url(#paint3_linear_249_27408)"/>
<path d="M198.682 77.3887H141.57V89.8409H198.682V77.3887Z" fill="url(#paint4_linear_249_27408)"/>
<path d="M198.683 89.8418V100.102C198.683 100.526 198.67 100.952 198.657 101.377H186.191C186.204 100.951 186.21 100.526 186.21 100.102V89.8418H198.683Z" fill="url(#paint5_linear_249_27408)"/>
</g>
<g clip-path="url(#clip2_249_27408)">
<path d="M215.367 45.3828C215.307 45.2864 214.81 44.9567 214.262 44.6505C213.123 44.0138 213.021 43.9946 212.727 44.3636C212.445 44.7179 211.163 47.5176 211.163 47.7797C211.163 47.8917 211.073 48.1521 210.963 48.3582C210.853 48.5642 210.553 49.7036 210.297 50.8903C210.04 52.077 209.741 53.3877 209.633 53.803C208.938 56.4584 208.696 65.5026 209.191 70.3087C209.595 74.2331 209.629 74.2827 210.607 72.3511C211.056 71.4651 211.631 70.4004 211.886 69.9851C211.962 69.7322 212.079 69.4563 212.232 69.161C212.318 68.7551 212.332 68.2191 212.316 67.2881C212.298 66.22 212.216 64.7846 212.134 64.0983C212.031 63.2302 212.066 62.7526 212.252 62.5293C212.447 62.2936 212.479 61.6347 212.371 60.059C212.262 58.487 212.296 57.7786 212.496 57.4209C212.647 57.1517 212.79 56.4947 212.815 55.9607C212.884 54.4603 213.064 53.1797 213.248 52.8846C213.34 52.737 213.386 52.3929 213.351 52.1195C213.316 51.8461 213.378 51.5063 213.49 51.3643C213.602 51.2224 213.759 50.6739 213.84 50.1459C213.921 49.6178 214.066 49.0837 214.163 48.9592C214.26 48.8346 214.418 48.4414 214.514 48.0854C214.61 47.7295 214.702 47.3896 214.718 47.3303C214.735 47.271 214.913 46.8481 215.112 46.3904C215.312 45.9328 215.426 45.4793 215.367 45.3828Z" fill="#DF6C00"/>
<path d="M300.607 47.998C300.398 47.3561 299.934 46.2152 299.574 45.4628C299.215 44.7107 298.812 44.1042 298.679 44.1154C298.39 44.1396 296.899 45.0069 296.556 45.35C296.327 45.5787 296.602 46.5222 297.277 47.8217C297.386 48.0319 297.535 48.6413 297.608 49.176C297.681 49.7107 297.824 50.1998 297.927 50.2628C298.029 50.3261 298.113 50.6575 298.113 50.9994C298.113 51.3414 298.205 51.6787 298.319 51.749C298.433 51.8191 298.527 52.1403 298.529 52.4629C298.533 53.302 298.762 54.9346 298.929 55.3146C299.085 55.67 299.144 56.5263 299.273 60.338C299.322 61.736 299.48 63.1683 299.626 63.5206C299.836 64.0279 299.836 64.2278 299.625 64.4816C299.456 64.6846 299.355 65.5737 299.347 66.9087L299.334 69.0153L300.651 71.4832C300.786 71.7368 300.908 71.9709 301.019 72.1829C301.461 73.0311 301.719 73.5257 301.9 73.4992C302.154 73.4619 302.258 72.4053 302.509 69.8709C302.554 69.418 302.603 68.918 302.659 68.368C302.927 65.7151 302.792 57.9991 302.447 56.2855C302.327 55.6922 302.129 54.5756 302.007 53.8043C301.658 51.6001 301.349 50.0661 301.159 49.597C301.063 49.3596 300.814 48.6401 300.607 47.998Z" fill="#DF6C00"/>
<path d="M215.368 45.3828C215.428 45.4793 215.313 45.9328 215.113 46.3904C214.914 46.848 214.737 47.2709 214.72 47.3303C214.703 47.3896 214.611 47.7294 214.515 48.0854C214.419 48.4414 214.262 48.8345 214.165 48.9593C214.068 49.0838 213.922 49.6177 213.841 50.1459C213.76 50.6739 213.603 51.2223 213.491 51.3643C213.379 51.5063 213.317 51.8461 213.352 52.1195C213.387 52.3929 213.341 52.737 213.25 52.8845C213.066 53.1797 212.885 54.4602 212.816 55.9606C212.791 56.4946 212.648 57.1516 212.498 57.4209C212.297 57.7786 212.264 58.4869 212.372 60.059C212.48 61.6347 212.449 62.2936 212.253 62.5292C212.068 62.7525 212.032 63.2302 212.135 64.0982C212.217 64.7846 212.299 66.22 212.317 67.288C212.333 68.2191 212.319 68.7551 212.233 69.161C213.967 65.8076 220.305 59.9435 223.777 56.731C225.162 55.4503 226.09 54.5911 226.09 54.4802C226.09 52.3507 218.985 47.5586 215.368 45.3828Z" fill="#C64F00"/>
<path d="M299.336 69.0149L299.35 66.9083C299.357 65.5734 299.459 64.6842 299.628 64.4812C299.838 64.2275 299.838 64.0275 299.628 63.5202C299.482 63.1679 299.324 61.7357 299.276 60.3376C299.147 56.5259 299.088 55.6696 298.931 55.3142C298.765 54.9343 298.535 53.3016 298.531 52.4625C298.53 52.14 298.435 51.8187 298.321 51.7486C298.208 51.6783 298.115 51.341 298.115 50.999C298.115 50.6571 298.032 50.3257 297.93 50.2625C297.827 50.1995 297.684 49.7103 297.611 49.1757C297.538 48.641 297.388 48.0315 297.279 47.8213C296.605 46.5218 296.329 45.5783 296.559 45.3496C292.941 47.5254 285.836 52.3175 285.836 54.447C285.836 54.5574 286.708 55.3443 288.011 56.5195C291.584 59.7425 298.395 65.887 299.336 69.0149Z" fill="#C64F00"/>
<path fill-rule="evenodd" clip-rule="evenodd" d="M218.98 42.6139C221.965 43.6353 225.94 46.0705 229.883 49.2934C233.652 52.3731 233.836 52.5086 234.257 52.5086C234.482 52.5086 235.324 52.2066 236.128 51.8376C239.997 50.0615 243.567 48.9667 248.055 48.1798C251.924 47.5013 259.675 47.4987 263.543 48.1746C268.038 48.9603 271.692 50.0561 275.216 51.6765C276.212 52.1341 277.247 52.5086 277.516 52.5086C277.813 52.5086 278.711 51.8999 279.795 50.9651C284.551 46.8618 289.68 43.5898 293.12 42.4646C294.837 41.903 295.177 42.1364 293.904 43.0035C289.697 45.8684 286.285 49.0362 283.707 52.4681C281.706 55.1322 281.735 55.2466 285.074 57.8373C287.373 59.6218 291.612 63.9939 293.523 66.5524C298.548 73.2804 301.816 80.7762 303.154 88.6484C303.98 93.5012 304.149 96.7359 303.72 99.4655C303.602 100.221 303.401 101.494 303.275 102.295C302.839 105.057 301.323 108.779 299.543 111.459C294.964 118.352 286.006 123.441 274.161 125.878C269.668 126.803 261.413 127.582 256.034 127.588C252.078 127.593 245.468 127.162 242.553 126.708C235.289 125.579 230.806 124.382 225.947 122.274C217.158 118.459 211.065 112.102 209.019 104.615C208.76 103.665 208.451 102.597 208.332 102.241C208.213 101.885 208.059 99.7492 207.989 97.4945C207.865 93.5066 208.158 89.6957 208.777 87.246C210.827 79.132 212.717 74.6471 216.459 69.0142C219.395 64.5959 222.878 60.8324 227.286 57.3188C229.366 55.6598 229.734 55.0815 229.269 54.2008C227.817 51.4529 221.723 45.4686 217.951 43.0855C216.329 42.0609 216.771 41.8581 218.98 42.6139ZM224.137 81.1727C225.113 79.0915 227.038 77.5305 229.142 77.1141C229.635 77.0166 230.334 76.9261 230.695 76.9132C231.675 76.8778 233.706 77.4627 234.633 78.0478C237.551 79.8903 238.885 83.9325 237.407 86.4547C236.325 88.3003 233.999 89.3541 230.557 89.5565C227.129 89.7582 225.108 88.956 224.062 86.9791C223.322 85.5805 223.358 82.8356 224.137 81.1727ZM273.78 83.5236C274.037 80.3591 276.464 77.6505 279.538 77.0966C280.082 76.9988 281.106 76.968 281.814 77.028C285.476 77.3389 288.186 80.4065 288.186 84.2404C288.186 86.5924 287.382 88.0239 285.489 89.0458C284.73 89.4553 284.301 89.5094 281.929 89.4948C279.592 89.4803 279.018 89.4022 277.633 88.9109C274.825 87.9157 273.567 86.1555 273.78 83.5236ZM247.553 91.6403C247.124 89.3127 249.31 87.2224 252.925 86.5045C255.956 85.9024 258.916 86.2087 261.374 87.3788C263.426 88.3553 264.02 89.1793 264.02 91.0429C264.02 93.7783 261.901 96.6647 258.95 97.9506C258.038 98.3481 257.557 98.6771 257.596 98.8778C257.671 99.2687 260.328 100.734 261.737 101.162C262.541 101.406 262.993 101.431 263.613 101.264C264.702 100.971 266.586 99.2167 267.351 97.7834C268.505 95.6208 269.226 95.2187 270.357 96.1078C271.126 96.7128 271.081 97.3496 270.146 99.1306C269.263 100.81 267.684 102.522 266.143 103.47C265.569 103.823 265.1 104.157 265.1 104.211C265.1 104.265 264.948 105.045 264.762 105.944C263.477 112.165 258.546 116.306 253.998 114.983C252.341 114.502 251.422 113.893 249.951 112.304C248.178 110.389 247.284 108.438 246.453 104.673C246.369 104.295 245.912 103.782 245.174 103.236C243.585 102.062 242.398 100.652 241.454 98.819C240.701 97.3562 240.67 97.2227 240.955 96.6278C241.331 95.8446 242.218 95.4881 242.955 95.8241C243.254 95.9598 243.779 96.6187 244.162 97.337C245.542 99.927 247.261 101.342 249.027 101.342C249.985 101.342 252.638 100.223 253.646 99.3932C254.228 98.9148 254.148 98.251 253.509 98.2477C252.867 98.2443 251.029 97.0662 249.931 95.9549C248.888 94.8996 247.784 92.8964 247.553 91.6403Z" fill="#FDFDFD"/>
<path d="M216.8 104.461C211.138 104.815 207.069 100.775 205.742 98.7109V89.8648L207.511 82.3456L210.165 75.7109L214.146 69.0763L218.569 62.884L225.646 56.6917L226.973 54.9225L221.665 48.2878L215.915 43.8648L214.146 41.2109H218.569L223.434 42.9802L227.858 45.634L231.396 49.1725L234.05 50.9417L239.8 49.1725L245.108 47.4033L249.531 46.5186H255.723H261.915L266.338 47.4033L271.646 49.1725L277.396 50.9417L280.05 49.1725L283.588 45.634L288.011 42.9802L292.877 41.2109H297.3L295.531 43.8648L289.78 48.2878L284.473 54.9225L285.8 56.6917L292.877 62.884L297.3 69.0763L301.281 75.7109L303.934 82.3456L305.703 89.8648V98.7109C304.377 100.775 300.308 104.815 294.646 104.461C276.069 103.3 272.973 82.3456 255.723 82.3456C238.473 82.3456 235.377 103.3 216.8 104.461Z" fill="#FDA624"/>
<path d="M219.013 41.2109H214.59C220.192 45.0443 232.017 53.0648 234.494 54.4802C237.59 56.2494 237.59 49.2405 256.167 49.6148C274.743 49.2405 274.743 56.2494 277.84 54.4802C280.317 53.0648 292.141 45.0443 297.744 41.2109H293.32L288.455 42.9802L284.032 45.634L280.494 49.1725L277.84 50.9417L272.09 49.1725L266.782 47.4033L262.359 46.5186H256.167H249.974L245.551 47.4033L240.244 49.1725L234.494 50.9417L231.84 49.1725L228.301 45.634L223.878 42.9802L219.013 41.2109Z" fill="#FBCA5F"/>
<path d="M254.841 123.038C226.177 123.038 210.757 110.211 206.629 103.576C207.956 112.127 219.454 129.672 254.841 129.672C299.956 129.672 302.905 112.422 304.821 103.576C300.103 109.916 290.225 123.038 254.841 123.038Z" fill="#DEDEDE"/>
<path d="M259.055 107.72C260.84 108.204 260.857 108.487 259.211 110.273C257.5 112.129 255.824 112.559 253.983 111.611C252.897 111.052 250.992 108.991 251.137 108.53C251.18 108.394 251.84 108.067 252.604 107.805C253.735 107.418 254.374 107.341 256.043 107.394C257.17 107.429 258.526 107.576 259.055 107.72Z" fill="#FB877E"/>
<path d="M232.803 79.7137C233.476 80.0207 234.036 80.9912 234.036 81.8538C234.036 82.9008 232.84 84.0105 231.713 84.0105C230.056 84.0105 228.956 82.4208 229.579 80.9286C230.124 79.6233 231.482 79.1117 232.803 79.7137Z" fill="#F8F8F8"/>
<path d="M281.147 79.7203C282.521 80.346 282.704 82.4253 281.477 83.4577C280.18 84.549 278.298 83.9758 277.85 82.3528C277.309 80.3948 279.242 78.8521 281.147 79.7203Z" fill="#F8F8F8"/>
<path d="M235.819 74.3852C238.751 74.3852 241.127 72.4049 241.127 69.9621C241.127 67.5193 238.751 65.5391 235.819 65.5391C232.888 65.5391 230.512 67.5193 230.512 69.9621C230.512 72.4049 232.888 74.3852 235.819 74.3852Z" fill="#FDFDFC"/>
<path d="M275.628 74.3852C278.559 74.3852 280.936 72.4049 280.936 69.9621C280.936 67.5193 278.559 65.5391 275.628 65.5391C272.697 65.5391 270.32 67.5193 270.32 69.9621C270.32 72.4049 272.697 74.3852 275.628 74.3852Z" fill="#FDFDFC"/>
<path d="M205.017 129.266C206.982 134.503 210.915 138.886 216.232 141.762C217.401 142.394 218.202 142.966 218.247 143.202C218.393 143.957 218.08 144.534 217.299 144.955C216.866 145.188 215.961 145.979 215.289 146.712C214.062 148.052 213.433 149.314 212.535 152.244C212.326 152.926 212.048 153.485 211.917 153.485C211.224 153.485 207.722 150.184 206.31 148.198C204.041 145.008 202.822 141.422 202.608 137.302C202.471 134.68 202.713 132.418 203.258 131.22C203.437 130.827 203.758 129.996 203.972 129.373C204.186 128.75 204.423 128.24 204.497 128.24C204.572 128.24 204.806 128.701 205.017 129.266Z" fill="#EF8100"/>
<path d="M215.032 150.019C207.601 146.835 203.532 136.75 203.09 130.115L201.763 133.211L201.32 138.519L202.205 143.385L205.743 150.019L213.263 155.769C214.589 155.769 215.474 150.209 215.032 150.019Z" fill="#DEDEDE"/>
<path d="M257.938 132.07C257.985 133.058 257.927 133.423 257.722 133.435C256.462 133.512 254.099 133.444 253.907 133.326C253.672 133.18 253.612 131.722 253.812 130.983C253.904 130.643 254.147 130.604 255.895 130.659L257.874 130.721L257.938 132.07Z" fill="#C4C5C4"/>
<path d="M288.021 130.775C288.518 131.342 289.176 132.731 289.736 134.404C290.184 135.741 290.236 136.298 290.236 139.675C290.236 143.627 290.16 144.168 289.016 148.305C286.784 156.375 280.582 168.645 277.227 171.628C275.435 173.221 274.262 173.619 271.05 173.722C268.081 173.816 267.064 173.644 266.097 172.883C264.853 171.905 264.812 171.65 264.735 164.487C264.626 154.362 264.542 153.024 263.981 152.556C263.37 152.045 262.544 152.165 262.048 152.837C261.678 153.337 261.646 154.001 261.595 162.006L261.541 170.637H255.873H250.206L250.081 161.898C249.944 152.295 249.929 152.189 248.698 152.189C247.673 152.189 247.197 152.845 247.169 154.293C247.156 154.975 247.081 159.077 247.002 163.409C246.863 170.997 246.841 171.311 246.388 172.041C245.497 173.473 244.91 173.658 241.259 173.653C238.187 173.648 237.958 173.618 236.745 173.054C234.755 172.13 233.816 171.207 231.797 168.189C227.846 162.283 223.342 151.948 222.098 145.932C221.404 142.578 221.343 142.098 221.318 139.783C221.284 136.67 221.81 134.207 222.999 131.908C223.376 131.178 223.774 130.697 224.03 130.658C224.259 130.624 225.173 130.975 226.06 131.44C230.405 133.715 240.207 136.333 246.006 136.767C246.955 136.838 247.961 136.943 248.241 137.001C248.815 137.119 248.807 137.232 248.071 139.331C247.825 140.032 247.624 141.036 247.624 141.563C247.624 143.826 249.109 146.731 250.936 148.043C252.654 149.276 253.789 149.652 255.834 149.663C257.524 149.671 257.815 149.606 259.32 148.882C261.192 147.982 262.378 146.794 263.317 144.88C263.841 143.813 263.912 143.419 263.911 141.617C263.91 139.919 263.821 139.369 263.391 138.415C262.997 137.537 262.937 137.223 263.141 137.097C263.289 137.006 264.348 136.868 265.495 136.79C266.643 136.713 268.067 136.558 268.661 136.446C272.192 135.782 273.666 135.466 275.889 134.894C278.506 134.221 278.825 134.121 282.254 132.892C284.364 132.135 287.049 130.881 287.249 130.559C287.41 130.299 287.665 130.37 288.021 130.775Z" fill="#FDA624"/>
<path d="M224.762 140.288C224.762 136.042 225.646 132.622 226.089 131.442L223.877 129.23L221.666 130.115L220.339 132.769L219.012 135.866V140.288L219.454 146.48L220.339 150.019L222.108 153.558L223.877 158.423L227.858 165.942L231.396 171.692L234.935 174.788L240.242 175.673C242.307 175.378 245.462 174.788 241.569 174.788C236.704 174.788 224.762 145.596 224.762 140.288Z" fill="#EF8200"/>
<path d="M286.762 140.288C286.762 136.042 285.877 132.622 285.435 131.442L287.646 129.23L289.858 130.115L291.185 132.769L292.512 135.866V140.288L292.07 146.48L291.185 150.019L289.416 153.558L287.646 158.423L283.666 165.942L280.128 171.692L276.589 174.788L271.204 175.673C269.14 175.378 265.985 174.788 269.878 174.788C274.743 174.788 286.762 145.596 286.762 140.288Z" fill="#EF8200"/>
<path d="M240.239 168.155C234.577 167.801 232.572 169.777 232.277 170.809L234.047 173.463L237.585 174.79L241.124 175.232H243.335L245.547 174.347L247.758 173.02V170.809C247.611 170.071 245.9 168.508 240.239 168.155Z" fill="#FDFCFB"/>
<path fill-rule="evenodd" clip-rule="evenodd" d="M241.566 174.789C240.118 174.789 238.042 172.202 235.841 168.428C233.463 168.975 232.477 170.109 232.278 170.808L231.898 172.135L234.931 174.789L240.239 175.673C242.303 175.379 245.458 174.789 241.566 174.789Z" fill="#DBDBDB"/>
<path d="M272.528 168.155C266.866 167.801 264.861 169.777 264.566 170.809L265.893 173.463L269.874 174.79L273.412 175.232H275.624L277.835 174.347L280.047 173.02V170.809C279.9 170.071 278.189 168.508 272.528 168.155Z" fill="#FDFCFB"/>
<path fill-rule="evenodd" clip-rule="evenodd" d="M269.878 174.788C271.315 174.788 273.377 172.24 275.569 168.512C278.836 169.12 279.934 170.223 280.05 170.807L280.128 171.692L276.589 174.788L271.204 175.673C269.14 175.378 265.985 174.788 269.878 174.788Z" fill="#DBDBDB"/>
<path d="M248.293 157.981C241.217 154 227.505 142.5 228.832 132.77L232.813 133.212L235.909 134.096L239.447 134.981L245.64 135.866H255.812H265.986L272.178 134.981L275.717 134.096L278.813 133.212L282.794 132.77C284.12 142.5 268.197 156.174 265.101 157.981C263.332 159.013 256.598 162.652 248.293 157.981Z" fill="#FDFDFD"/>
<path d="M249.529 153.558C249.529 149.134 244.221 140.288 239.355 135.865H256.163H272.971C268.105 140.288 262.798 149.134 262.798 153.558C262.798 157.98 262.798 166.384 256.163 166.384C249.529 166.384 249.529 157.98 249.529 153.558Z" fill="#DEDEDE"/>
<path d="M258.252 136.868C258.61 136.873 260.199 138.511 260.588 139.274C261.107 140.291 261.148 142.58 260.669 143.728C259.628 146.221 256.368 147.489 253.858 146.377C251.934 145.526 250.838 143.913 250.695 141.725C250.622 140.619 250.701 140.258 251.232 139.247C252.354 137.112 254.957 135.931 257.121 136.577C257.655 136.736 258.164 136.867 258.252 136.868Z" fill="#FDFDFD"/>
<path d="M254.398 146.924C257.329 146.924 259.705 144.548 259.705 141.616C259.705 138.685 257.329 136.309 254.398 136.309C251.466 136.309 249.09 138.685 249.09 141.616C249.09 144.548 251.466 146.924 254.398 146.924Z" fill="#F8E036"/>
<path fill-rule="evenodd" clip-rule="evenodd" d="M213.803 39.1132C210.307 40.0133 207.5 45.6647 206.056 54.7105C205.565 57.787 205.495 68.3149 205.946 71.3881C206.259 73.5232 206.946 77.02 207.281 78.1894C207.603 79.3133 207.541 80.4255 207.091 81.5747C206.476 83.143 205.814 86.0426 205.316 89.3431C204.935 91.871 204.884 92.9797 204.975 96.7398C205.116 102.551 205.684 105.223 207.706 109.597C210.216 115.023 215.085 120.014 221.142 123.371L222.598 124.178V125.513C222.598 126.769 222.536 126.933 221.546 128.291C219.601 130.958 218.705 133.329 218.311 136.843C218.201 137.832 218.018 138.733 217.905 138.846C217.572 139.179 213.987 136.634 212.362 134.911C209.52 131.897 207.813 128.582 206.948 124.393C206.761 123.487 206.453 122.574 206.263 122.364C205.787 121.839 204.821 121.888 204.177 122.469C203.327 123.237 201.574 126.531 200.851 128.72C198.452 135.976 199.385 143.178 203.551 149.573C204.679 151.303 208.409 154.981 210.221 156.149L211.759 157.14L211.907 158.387C212.082 159.871 212.902 163.244 213.554 165.163C214.73 168.624 216.79 171.385 219.05 172.53C221.307 173.674 222.158 173.814 227.453 173.923L232.415 174.025L233.758 174.866C235.032 175.664 236.54 176.227 238.837 176.763C241.749 177.442 245.876 176.611 247.815 174.956L248.956 173.982H255.918C262.733 173.982 262.887 173.991 263.29 174.438C264.269 175.527 265.535 176.158 267.628 176.602C271.4 177.402 275.649 176.635 278.19 174.696L278.986 174.09L283.965 173.943C290.623 173.747 292.432 173.24 294.839 170.893C296.313 169.456 297.336 167.622 298.335 164.622C299.573 160.905 299.92 158.79 299.773 155.858C299.527 150.977 297.617 147.104 294.454 145.075L293.376 144.384L293.513 141.079C293.657 137.576 293.445 135.472 292.717 133.193C292.15 131.418 291.073 129.36 290.099 128.191C289.263 127.186 289.25 127.145 289.313 125.617L289.376 124.065L291.178 123.03C299.261 118.388 304.479 111.492 306.174 103.213C307.523 96.6185 306.92 88.4141 304.559 81.2446C304.313 80.495 304.158 79.6697 304.215 79.4106C305.606 73.1749 306.314 67.7426 306.312 63.3162C306.311 58.4118 305.292 51.298 304.038 47.4387C302.748 43.4668 300.846 40.5342 298.894 39.5063C297.599 38.8247 294.488 38.8325 292.396 39.5225C288.708 40.74 283.961 43.5865 279.584 47.2046C278.352 48.2234 277.223 49.0569 277.076 49.0569C276.928 49.0569 276.237 48.8021 275.54 48.4907C272.401 47.0885 267.354 45.6787 263.161 45.0325C259.635 44.489 251.882 44.489 248.597 45.0325C243.988 45.7955 240.52 46.7399 236.862 48.2281C235.742 48.6841 234.742 49.0569 234.641 49.0569C234.54 49.0569 233.463 48.2528 232.249 47.2698C225.764 42.0186 220.366 39.2387 216.234 39.0221C215.284 38.9725 214.191 39.0133 213.803 39.1132ZM218.984 42.6143C221.968 43.6357 225.943 46.071 229.887 49.2938C233.655 52.3736 233.84 52.509 234.261 52.509C234.486 52.509 235.328 52.207 236.132 51.838C240.001 50.0619 243.57 48.9671 248.058 48.1802C251.928 47.5017 259.679 47.4991 263.546 48.1751C268.042 48.9606 271.695 50.0565 275.22 51.6769C276.215 52.1345 277.25 52.509 277.519 52.509C277.816 52.509 278.714 51.9004 279.798 50.9655C284.555 46.8622 289.683 43.5902 293.124 42.465C294.84 41.9034 295.18 42.1368 293.907 43.004C289.701 45.8688 286.289 49.0366 283.711 52.4685C281.71 55.1327 281.739 55.247 285.077 57.8377C287.377 59.6222 291.615 63.9944 293.527 66.5529C298.552 73.2809 301.819 80.7766 303.158 88.6488C303.984 93.5017 304.153 96.7363 303.724 99.4659C303.606 100.221 303.405 101.495 303.278 102.296C302.842 105.057 301.326 108.78 299.546 111.46C294.967 118.352 286.009 123.442 274.165 125.879C269.671 126.803 261.416 127.582 256.038 127.588C252.082 127.593 245.471 127.162 242.556 126.709C235.293 125.58 230.81 124.383 225.95 122.274C217.162 118.46 211.068 112.103 209.023 104.615C208.764 103.666 208.454 102.598 208.336 102.242C208.217 101.886 208.062 99.7496 207.992 97.495C207.869 93.507 208.162 89.6961 208.78 87.2463C210.83 79.1325 212.72 74.6475 216.463 69.0147C219.398 64.5963 222.882 60.8328 227.289 57.3192C229.37 55.6602 229.738 55.082 229.272 54.2013C227.82 51.4533 221.727 45.469 217.955 43.086C216.333 42.0613 216.775 41.8585 218.984 42.6143ZM214.263 44.6511C214.81 44.9572 215.307 45.2869 215.367 45.3834C218.984 47.5592 226.089 52.3512 226.089 54.4808C226.089 54.5916 225.16 55.4509 223.776 56.7316C220.304 59.9441 213.965 65.8082 212.232 69.1616C212.166 69.473 212.057 69.7078 211.886 69.9856C211.631 70.4009 211.056 71.4657 210.607 72.3516C209.629 74.2833 209.595 74.2337 209.191 70.3092C208.696 65.5032 208.938 56.4589 209.633 53.8036C209.742 53.3883 210.04 52.0775 210.297 50.8908C210.554 49.7042 210.854 48.5648 210.963 48.3587C211.073 48.1526 211.163 47.8922 211.163 47.7803C211.163 47.5181 212.445 44.7184 212.727 44.3641C213.021 43.9952 213.123 44.0144 214.263 44.6511ZM299.576 45.4621C299.935 46.2145 300.4 47.3554 300.608 47.9973C300.817 48.6394 301.065 49.359 301.161 49.5963C301.351 50.0653 301.66 51.5994 302.009 53.8036C302.131 54.575 302.328 55.6915 302.448 56.2848C302.793 57.9984 302.929 65.7144 302.66 68.3674C302.604 68.9173 302.555 69.4173 302.511 69.8703C302.26 72.4046 302.156 73.4612 301.903 73.4984C301.721 73.525 301.463 73.0305 301.021 72.1822C300.91 71.9702 300.788 71.7361 300.653 71.4825L299.336 69.0147C298.394 65.8867 291.583 59.7422 288.01 56.5192C286.707 55.3439 285.835 54.5572 285.835 54.4467C285.835 52.3171 292.94 47.5252 296.557 45.3493C296.9 45.0062 298.392 44.1389 298.68 44.1147C298.813 44.1035 299.217 44.71 299.576 45.4621ZM229.145 77.1145C227.042 77.5309 225.116 79.0919 224.141 81.1731C223.361 82.836 223.326 85.5809 224.065 86.9794C225.111 88.9565 227.133 89.7587 230.561 89.5569C234.002 89.3545 236.329 88.3008 237.411 86.4552C238.889 83.9329 237.555 79.8906 234.636 78.0483C233.709 77.4632 231.679 76.8782 230.698 76.9136C230.337 76.9265 229.639 77.017 229.145 77.1145ZM279.542 77.097C276.467 77.6509 274.04 80.3595 273.784 83.524C273.57 86.1559 274.828 87.9161 277.636 88.9114C279.022 89.4026 279.596 89.4807 281.933 89.4952C284.304 89.5099 284.733 89.4557 285.492 89.0463C287.386 88.0244 288.19 86.5928 288.19 84.2408C288.19 80.407 285.479 77.3393 281.817 77.0284C281.109 76.9684 280.086 76.9993 279.542 77.097ZM232.801 79.7131C233.475 80.0202 234.034 80.9906 234.034 81.8532C234.034 82.9003 232.839 84.0099 231.711 84.0099C230.054 84.0099 228.954 82.4202 229.577 80.9281C230.123 79.6227 231.48 79.1112 232.801 79.7131ZM281.147 79.7202C282.52 80.3459 282.703 82.4252 281.477 83.4576C280.18 84.5489 278.298 83.9757 277.85 82.3527C277.309 80.3947 279.242 78.852 281.147 79.7202ZM252.928 86.505C249.314 87.2229 247.127 89.3131 247.556 91.6407C247.788 92.8969 248.892 94.9 249.934 95.9553C251.032 97.0667 252.871 98.2447 253.513 98.2482C254.152 98.2514 254.231 98.9153 253.65 99.3936C252.641 100.224 249.989 101.343 249.03 101.343C247.265 101.343 245.546 99.9274 244.165 97.3374C243.783 96.6191 243.257 95.9603 242.959 95.8245C242.222 95.4886 241.334 95.845 240.959 96.6283C240.674 97.2231 240.704 97.3566 241.457 98.8195C242.401 100.653 243.588 102.062 245.178 103.237C245.916 103.782 246.373 104.295 246.456 104.674C247.288 108.439 248.182 110.389 249.954 112.304C251.426 113.893 252.345 114.502 254.001 114.983C258.549 116.306 263.481 112.166 264.765 105.944C264.951 105.045 265.103 104.265 265.103 104.211C265.103 104.157 265.573 103.824 266.147 103.471C267.687 102.523 269.267 100.81 270.149 99.131C271.085 97.3499 271.129 96.7133 270.36 96.1083C269.23 95.2191 268.509 95.6213 267.354 97.7839C266.589 99.2171 264.706 100.971 263.617 101.264C262.996 101.431 262.545 101.407 261.74 101.162C260.332 100.735 257.675 99.2692 257.599 98.8782C257.56 98.6776 258.041 98.3485 258.954 97.951C261.905 96.6651 264.024 93.7787 264.024 91.0433C264.024 89.1798 263.429 88.3558 261.378 87.3793C258.92 86.2092 255.96 85.9028 252.928 86.505ZM259.054 107.721C260.839 108.205 260.856 108.488 259.209 110.274C257.498 112.13 255.822 112.56 253.981 111.612C252.895 111.053 250.99 108.992 251.135 108.531C251.178 108.395 251.838 108.068 252.602 107.806C253.733 107.418 254.372 107.342 256.041 107.395C257.169 107.43 258.524 107.577 259.054 107.721ZM205.016 129.266C206.98 134.504 210.914 138.886 216.231 141.762C217.4 142.394 218.201 142.966 218.246 143.202C218.391 143.957 218.079 144.534 217.298 144.955C216.864 145.188 215.96 145.98 215.288 146.712C214.061 148.052 213.432 149.314 212.534 152.244C212.324 152.927 212.046 153.485 211.916 153.485C211.222 153.485 207.721 150.184 206.309 148.199C204.04 145.008 202.821 141.422 202.607 137.303C202.47 134.68 202.711 132.418 203.256 131.221C203.435 130.828 203.757 129.997 203.971 129.373C204.185 128.75 204.421 128.24 204.496 128.24C204.571 128.24 204.805 128.702 205.016 129.266ZM288.023 130.776C288.521 131.343 289.178 132.732 289.739 134.405C290.186 135.742 290.239 136.299 290.239 139.676C290.239 143.627 290.162 144.169 289.018 148.306C286.787 156.376 280.584 168.646 277.229 171.629C275.437 173.222 274.264 173.62 271.052 173.723C268.084 173.817 267.066 173.645 266.099 172.884C264.855 171.906 264.814 171.651 264.737 164.488C264.629 154.362 264.545 153.025 263.984 152.557C263.372 152.046 262.546 152.166 262.05 152.838C261.68 153.338 261.647 154.002 261.598 162.007L261.543 170.638H255.875H250.208L250.083 161.899C249.946 152.296 249.931 152.19 248.7 152.19C247.676 152.19 247.199 152.846 247.171 154.293C247.158 154.976 247.083 159.078 247.004 163.41C246.866 170.998 246.844 171.312 246.39 172.042C245.499 173.474 244.913 173.659 241.262 173.654C238.189 173.649 237.961 173.619 236.747 173.055C234.757 172.131 233.818 171.208 231.799 168.19C227.848 162.284 223.344 151.95 222.1 145.933C221.406 142.579 221.345 142.098 221.32 139.784C221.286 136.671 221.812 134.208 223.001 131.909C223.378 131.179 223.776 130.698 224.032 130.659C224.262 130.624 225.175 130.976 226.063 131.441C230.407 133.716 240.21 136.333 246.008 136.767C246.958 136.839 247.963 136.944 248.243 137.002C248.818 137.12 248.81 137.233 248.073 139.332C247.828 140.033 247.627 141.037 247.627 141.564C247.627 143.827 249.111 146.732 250.938 148.044C252.656 149.277 253.791 149.653 255.836 149.664C257.526 149.672 257.818 149.607 259.323 148.882C261.195 147.983 262.38 146.795 263.319 144.881C263.843 143.814 263.915 143.42 263.913 141.617C263.912 139.92 263.822 139.37 263.394 138.416C262.999 137.538 262.94 137.224 263.143 137.098C263.291 137.007 264.35 136.869 265.498 136.791C266.645 136.714 268.07 136.559 268.663 136.447C272.194 135.784 273.669 135.467 275.891 134.895C278.508 134.222 278.828 134.122 282.256 132.892C284.366 132.136 287.052 130.882 287.251 130.56C287.413 130.3 287.667 130.371 288.023 130.776ZM257.939 132.071C257.986 133.058 257.929 133.424 257.723 133.436C256.463 133.513 254.101 133.445 253.909 133.326C253.674 133.181 253.614 131.723 253.814 130.984C253.906 130.643 254.148 130.605 255.896 130.66L257.875 130.722L257.939 132.071ZM258.252 136.869C258.609 136.874 260.198 138.511 260.587 139.275C261.106 140.292 261.148 142.581 260.668 143.728C259.627 146.221 256.367 147.489 253.857 146.378C251.934 145.526 250.837 143.914 250.694 141.726C250.622 140.62 250.7 140.259 251.231 139.248C252.353 137.112 254.956 135.932 257.12 136.577C257.654 136.736 258.164 136.868 258.252 136.869ZM219.375 148.792C220.859 154.326 225.317 164.391 228.228 168.781C228.811 169.659 229.287 170.461 229.287 170.562C229.287 170.862 223.687 170.771 222.491 170.452C219.318 169.605 217.915 168.011 216.386 163.517C214.61 158.298 214.609 154.534 216.382 150.923C217.056 149.55 218.433 147.875 218.889 147.875C219.021 147.875 219.24 148.288 219.375 148.792ZM294.433 149.393C295.481 150.72 296.112 152.36 296.56 154.925C296.927 157.027 296.828 158.184 296.036 161.036C294.259 167.439 293.018 169.251 289.694 170.301C288.557 170.66 287.715 170.745 285.325 170.745C283.696 170.745 282.364 170.7 282.364 170.645C282.364 170.59 282.88 169.74 283.511 168.757C284.741 166.843 286.915 162.762 287.741 160.82C288.018 160.167 288.53 159.013 288.876 158.255C289.853 156.119 290.907 153.374 291.749 150.78C292.171 149.479 292.561 148.288 292.615 148.135C292.772 147.693 293.472 148.177 294.433 149.393Z" fill="#301F1B"/>
<path d="M219.373 148.792C220.857 154.326 225.315 164.391 228.226 168.781C228.808 169.66 229.285 170.461 229.285 170.562C229.285 170.862 223.684 170.771 222.488 170.452C219.316 169.604 217.913 168.011 216.384 163.517C214.608 158.297 214.606 154.534 216.379 150.923C217.053 149.55 218.431 147.875 218.887 147.875C219.019 147.875 219.238 148.288 219.373 148.792Z" fill="#EF8100"/>
<path d="M294.431 149.394C295.481 150.72 296.111 152.361 296.559 154.925C296.926 157.028 296.827 158.184 296.035 161.037C294.258 167.44 293.018 169.251 289.692 170.301C288.555 170.66 287.714 170.746 285.323 170.746C283.695 170.746 282.363 170.701 282.363 170.646C282.363 170.59 282.879 169.74 283.511 168.758C284.74 166.843 286.915 162.762 287.74 160.821C288.018 160.168 288.528 159.014 288.876 158.255C289.852 156.12 290.907 153.375 291.748 150.78C292.17 149.48 292.56 148.289 292.614 148.136C292.771 147.693 293.471 148.178 294.431 149.394Z" fill="#EF8100"/>
<path d="M255.723 92.9622C258.898 92.9622 261.473 91.972 261.473 90.7506C261.473 89.5292 258.898 88.5391 255.723 88.5391C252.547 88.5391 249.973 89.5292 249.973 90.7506C249.973 91.972 252.547 92.9622 255.723 92.9622Z" fill="#5B3B37"/>
<path d="M225.203 127.461C225.203 130.999 241.716 133.653 249.972 134.538V130.999C249.972 130.999 238.472 130.115 236.703 129.672C234.934 129.23 225.203 126.134 225.203 127.461Z" fill="#B1151F"/>
<path d="M286.242 127.461C286.242 130.999 269.729 133.653 261.473 134.538V130.999C261.473 130.999 272.973 130.115 274.742 129.672C276.511 129.23 286.242 126.134 286.242 127.461Z" fill="#B1151F"/>
</g>
<defs>
<linearGradient id="paint0_linear_249_27408" x1="232.75" y1="39" x2="67.6178" y2="91.2489" gradientUnits="userSpaceOnUse">
<stop stop-color="#000756"/>
<stop offset="1" stop-color="#0042B8"/>
</linearGradient>
<linearGradient id="paint1_linear_249_27408" x1="198.955" y1="119.936" x2="151.45" y2="107.133" gradientUnits="userSpaceOnUse">
<stop offset="0.14" stop-color="#ADADAD"/>
<stop offset="0.29" stop-color="#CBCBCB"/>
<stop offset="0.43" stop-color="#E2E2E2"/>
<stop offset="0.59" stop-color="#F2F2F2"/>
<stop offset="0.77" stop-color="#FCFCFC"/>
<stop offset="1" stop-color="white"/>
</linearGradient>
<linearGradient id="paint2_linear_249_27408" x1="181.415" y1="160.502" x2="114.265" y2="66.8449" gradientUnits="userSpaceOnUse">
<stop stop-color="#ADADAD"/>
<stop offset="0.17" stop-color="#CBCBCB"/>
<stop offset="0.34" stop-color="#E2E2E2"/>
<stop offset="0.52" stop-color="#F2F2F2"/>
<stop offset="0.73" stop-color="#FCFCFC"/>
<stop offset="1" stop-color="white"/>
</linearGradient>
<linearGradient id="paint3_linear_249_27408" x1="164.766" y1="146.328" x2="196.66" y2="105.898" gradientUnits="userSpaceOnUse">
<stop offset="0.15" stop-color="#ADADAD"/>
<stop offset="0.29" stop-color="#CBCBCB"/>
<stop offset="0.44" stop-color="#E2E2E2"/>
<stop offset="0.6" stop-color="#F2F2F2"/>
<stop offset="0.77" stop-color="#FCFCFC"/>
<stop offset="1" stop-color="white"/>
</linearGradient>
<linearGradient id="paint4_linear_249_27408" x1="136.08" y1="115.959" x2="163.035" y2="90.3541" gradientUnits="userSpaceOnUse">
<stop offset="0.14" stop-color="#ADADAD"/>
<stop offset="0.43" stop-color="#C9C9C9"/>
<stop offset="1" stop-color="white"/>
</linearGradient>
<linearGradient id="paint5_linear_249_27408" x1="192.437" y1="83.3061" x2="192.437" y2="101.377" gradientUnits="userSpaceOnUse">
<stop offset="0.0895638" stop-color="#ADADAD"/>
<stop offset="0.240189" stop-color="#CBCBCB"/>
<stop offset="0.425047" stop-color="#E2E2E2"/>
<stop offset="0.536875" stop-color="#F2F2F2"/>
<stop offset="1" stop-color="white"/>
</linearGradient>
<clipPath id="clip0_249_27408">
<rect x="3.75" y="39" width="138" height="138" rx="69" fill="white"/>
</clipPath>
<clipPath id="clip1_249_27408">
<rect x="94.75" y="39" width="138" height="138" rx="69" fill="white"/>
</clipPath>
<clipPath id="clip2_249_27408">
<rect width="138" height="138" fill="white" transform="translate(185.75 39)"/>
</clipPath>
</defs>
</svg>
