<svg width="400" height="400" viewBox="0 0 400 400" fill="none" xmlns="http://www.w3.org/2000/svg">
<g clip-path="url(#clip0_231_73949)">
<path d="M85.846 18.5029C85.6728 18.2234 84.2324 17.2678 82.6446 16.3803C79.342 14.5348 79.046 14.4791 78.1944 15.5486C77.3764 16.5755 73.6608 24.6905 73.6608 25.4503C73.6608 25.7749 73.4 26.5297 73.0818 27.1271C72.7634 27.7243 71.8942 31.0269 71.1506 34.4665C70.4064 37.9063 69.5402 41.7055 69.225 42.9093C67.2124 50.6061 66.5102 76.8211 67.9442 90.7517C69.115 102.127 69.215 102.271 72.0492 96.6717C73.3494 94.1037 75.0174 91.0175 75.7566 89.8137C75.9772 89.0807 76.3162 88.2811 76.7588 87.4251C77.0092 86.2487 77.05 84.6951 77.0036 81.9963C76.9498 78.9005 76.7122 74.7399 76.4752 72.7505C76.1756 70.2345 76.2794 68.8499 76.8172 68.2027C77.3838 67.5197 77.4758 65.6097 77.1612 61.0425C76.8472 56.4859 76.9448 54.4327 77.5258 53.3959C77.9616 52.6155 78.3776 50.7111 78.4488 49.1633C78.649 44.8143 79.1724 41.1025 79.7052 40.2471C79.971 39.8193 80.1048 38.8219 80.003 38.0295C79.9004 37.2371 80.0818 36.2521 80.4058 35.8405C80.7296 35.4291 81.1862 33.8393 81.42 32.3089C81.6546 30.7781 82.0762 29.2301 82.3576 28.8693C82.639 28.5079 83.0962 27.3683 83.3738 26.3365C83.6508 25.3047 83.9178 24.3197 83.9666 24.1477C84.0154 23.9757 84.5296 22.7499 85.108 21.4235C85.6872 20.0969 86.0186 18.7825 85.846 18.5029Z" fill="#DF6C00"/>
<path d="M332.92 26.0786C332.316 24.218 330.97 20.911 329.928 18.7302C328.886 16.5501 327.718 14.7921 327.332 14.8247C326.496 14.8947 322.172 17.4088 321.178 18.4031C320.516 19.066 321.312 21.801 323.268 25.5676C323.584 26.1768 324.016 27.9434 324.228 29.4932C324.44 31.043 324.856 32.4606 325.154 32.6432C325.45 32.8266 325.692 33.7872 325.692 34.7784C325.692 35.7696 325.96 36.7472 326.29 36.951C326.62 37.1542 326.892 38.0854 326.898 39.0204C326.91 41.4526 327.574 46.1848 328.058 47.2862C328.51 48.3162 328.682 50.7984 329.056 61.8466C329.196 65.899 329.654 70.0504 330.078 71.0716C330.686 72.542 330.686 73.1216 330.076 73.8572C329.586 74.4456 329.292 77.0228 329.268 80.8922L329.232 86.9984L333.048 94.1516C333.44 94.8866 333.794 95.5652 334.116 96.1798C335.398 98.6384 336.144 100.072 336.67 99.995C337.406 99.887 337.708 96.8244 338.434 89.4784C338.564 88.1656 338.706 86.7162 338.868 85.1222C339.646 77.4324 339.254 55.0672 338.254 50.1004C337.906 48.3806 337.334 45.1442 336.98 42.9084C335.968 36.5194 335.072 32.073 334.522 30.7134C334.244 30.0254 333.522 27.9398 332.92 26.0786Z" fill="#DF6C00"/>
<path d="M85.8447 18.502C86.0173 18.7815 85.6857 20.0961 85.1067 21.4225C84.5281 22.7489 84.0141 23.9747 83.9653 24.1467C83.9165 24.3187 83.6495 25.3037 83.3725 26.3355C83.0949 27.3675 82.6377 28.5069 82.3563 28.8685C82.0749 29.2293 81.6533 30.7771 81.4187 32.3081C81.1849 33.8383 80.7283 35.4281 80.4043 35.8397C80.0805 36.2511 79.8991 37.2361 80.0017 38.0285C80.1035 38.8209 79.9697 39.8183 79.7039 40.2461C79.1711 41.1017 78.6477 44.8133 78.4475 49.1623C78.3763 50.7101 77.9603 52.6145 77.5245 53.3949C76.9435 54.4319 76.8459 56.4849 77.1599 61.0415C77.4745 65.6089 77.3825 67.5187 76.8159 68.2017C76.2781 68.8489 76.1743 70.2335 76.4739 72.7495C76.7109 74.7389 76.9485 78.8995 77.0023 81.9953C77.0487 84.6941 77.0079 86.2477 76.7575 87.4241C81.7823 77.7041 100.154 60.7069 110.219 51.3953C114.232 47.6831 116.924 45.1925 116.924 44.8711C116.924 38.6987 96.3289 24.8087 85.8447 18.502Z" fill="#C64F00"/>
<path d="M329.234 86.9995L329.272 80.8933C329.294 77.0239 329.59 74.4467 330.078 73.8583C330.688 73.1229 330.688 72.5431 330.08 71.0727C329.656 70.0515 329.198 65.9001 329.06 61.8477C328.684 50.7995 328.514 48.3173 328.06 47.2873C327.578 46.1861 326.912 41.4537 326.9 39.0215C326.896 38.0865 326.622 37.1553 326.292 36.9521C325.964 36.7483 325.694 35.7707 325.694 34.7795C325.694 33.7883 325.452 32.8277 325.156 32.6445C324.86 32.4619 324.444 31.0441 324.232 29.4943C324.02 27.9447 323.586 26.1779 323.27 25.5687C321.316 21.8021 320.518 19.0672 321.182 18.4043C310.696 24.7111 290.102 38.6011 290.102 44.7735C290.102 45.0937 292.63 47.3743 296.406 50.7807C306.762 60.1227 326.504 77.9329 329.234 86.9995Z" fill="#C64F00"/>
<path fill-rule="evenodd" clip-rule="evenodd" d="M96.3262 10.4751C104.977 13.4357 116.499 20.4944 127.93 29.836C138.853 38.7628 139.388 39.1554 140.608 39.1554C141.261 39.1554 143.701 38.28 146.032 37.2106C157.245 32.0624 167.591 28.889 180.6 26.6082C191.816 24.6414 214.282 24.634 225.494 26.5932C238.524 28.8704 249.114 32.0466 259.33 36.7434C262.216 38.0698 265.216 39.1554 265.996 39.1554C266.856 39.1554 269.46 37.3912 272.6 34.6814C286.388 22.7878 301.254 13.3037 311.224 10.0423C316.202 8.41445 317.186 9.09113 313.496 11.6046C301.304 19.9085 291.412 29.0904 283.942 39.038C278.14 46.7602 278.226 47.0916 287.902 54.6008C294.566 59.7734 306.854 72.4462 312.392 79.8622C326.958 99.3636 336.43 121.09 340.31 143.908C342.704 157.975 343.194 167.35 341.95 175.262C341.606 177.452 341.026 181.143 340.66 183.464C339.396 191.47 335.002 202.257 329.842 210.025C316.57 230.005 290.604 244.757 256.272 251.821C243.248 254.501 219.32 256.759 203.728 256.777C192.262 256.791 173.102 255.541 164.653 254.227C143.599 250.955 130.605 247.485 116.52 241.373C91.0448 230.317 73.3832 211.891 67.455 190.187C66.704 187.436 65.8072 184.34 65.4626 183.308C65.118 182.276 64.6702 176.085 64.4676 169.549C64.1086 157.99 64.9586 146.944 66.7522 139.843C72.6934 116.325 78.1712 103.325 89.0192 86.9978C97.5276 74.1912 107.626 63.2824 120.4 53.098C126.431 48.2894 127.498 46.6132 126.149 44.0604C121.939 36.0954 104.277 18.7496 93.3444 11.8422C88.642 8.87225 89.9242 8.28437 96.3262 10.4751ZM111.274 122.24C114.102 116.207 119.683 111.683 125.781 110.476C127.211 110.193 129.236 109.931 130.281 109.893C133.124 109.791 139.01 111.486 141.696 113.182C150.155 118.523 154.022 130.239 149.738 137.55C146.603 142.9 139.858 145.954 129.884 146.541C119.947 147.125 114.087 144.8 111.056 139.07C108.912 135.016 109.015 127.06 111.274 122.24ZM255.168 129.054C255.912 119.881 262.946 112.03 271.856 110.425C273.432 110.142 276.402 110.052 278.454 110.226C289.068 111.127 296.922 120.019 296.922 131.132C296.922 137.949 294.594 142.098 289.106 145.06C286.906 146.247 285.662 146.404 278.786 146.362C272.014 146.32 270.348 146.093 266.334 144.669C258.196 141.785 254.548 136.683 255.168 129.054ZM179.145 152.581C177.902 145.834 184.24 139.775 194.716 137.694C203.504 135.949 212.084 136.837 219.208 140.229C225.154 143.059 226.878 145.447 226.878 150.849C226.878 158.778 220.736 167.144 212.182 170.871C209.538 172.023 208.144 172.977 208.256 173.559C208.474 174.692 216.176 178.94 220.258 180.18C222.59 180.888 223.9 180.959 225.696 180.476C228.854 179.625 234.314 174.541 236.532 170.387C239.878 164.118 241.968 162.953 245.244 165.53C247.474 167.284 247.344 169.129 244.632 174.292C242.074 179.158 237.496 184.122 233.03 186.87C231.366 187.893 230.006 188.86 230.006 189.017C230.006 189.173 229.566 191.434 229.028 194.04C225.302 212.073 211.01 224.075 197.826 220.241C193.025 218.845 190.361 217.081 186.096 212.475C180.958 206.925 178.367 201.271 175.957 190.357C175.715 189.26 174.391 187.773 172.251 186.192C167.645 182.788 164.203 178.702 161.467 173.389C159.285 169.148 159.197 168.761 160.023 167.037C161.111 164.767 163.683 163.734 165.82 164.708C166.685 165.101 168.207 167.011 169.317 169.093C173.318 176.6 178.301 180.702 183.417 180.702C186.197 180.702 193.885 177.459 196.808 175.053C198.493 173.666 198.263 171.742 196.411 171.733C194.55 171.723 189.22 168.308 186.038 165.087C183.017 162.028 179.817 156.222 179.145 152.581Z" fill="#FDFDFD"/>
<path d="M90.0004 189.744C73.5902 190.769 61.7954 179.06 57.9492 173.077L57.9492 147.436L63.0774 125.641L70.7698 106.41L82.3082 87.1793L95.1288 69.2307L115.642 51.2819L119.488 46.1537L104.103 26.9229L87.4364 14.1025L82.3082 6.41016L95.1288 6.41016L109.231 11.5384L122.052 19.2307L132.308 29.4871L140 34.6153L156.667 29.4871L172.052 24.3589L184.872 21.7947H202.822L220.77 21.7947L233.59 24.3589L248.974 29.4871L265.642 34.6153L273.334 29.4871L283.59 19.2307L296.41 11.5384L310.514 6.41016L323.334 6.41016L318.206 14.1025L301.538 26.9229L286.154 46.1537L290 51.2819L310.514 69.2307L323.334 87.1793L334.872 106.41L342.564 125.641L347.692 147.436L347.692 173.077C343.846 179.06 332.052 190.769 315.642 189.744C261.796 186.378 252.822 125.641 202.822 125.641C152.821 125.641 143.847 186.378 90.0004 189.744Z" fill="#FDA624"/>
<path d="M96.4142 6.41016L83.5938 6.41016C99.833 17.5213 134.107 40.7691 141.286 44.8717C150.26 49.9999 150.26 29.6843 204.106 30.7691C257.952 29.6843 257.952 49.9999 266.928 44.8717C274.106 40.7691 308.38 17.5213 324.62 6.41016L311.798 6.41016L297.696 11.5384L284.876 19.2307L274.62 29.4871L266.928 34.6153L250.26 29.4871L234.876 24.3589L222.056 21.7947H204.106L186.158 21.7947L173.337 24.3589L157.953 29.4871L141.286 34.6153L133.594 29.4871L123.337 19.2307L110.517 11.5384L96.4142 6.41016Z" fill="#FBCA5F"/>
<path d="M200.264 243.59C117.18 243.59 72.4853 206.41 60.5195 187.18C64.3657 211.966 97.6939 262.82 200.264 262.82C331.032 262.82 339.58 212.82 345.134 187.18C331.46 205.556 302.828 243.59 200.264 243.59Z" fill="#DEDEDE"/>
<path d="M212.474 199.191C217.648 200.595 217.698 201.415 212.926 206.593C207.966 211.973 203.108 213.217 197.772 210.471C194.625 208.851 189.104 202.875 189.523 201.541C189.647 201.145 191.561 200.199 193.775 199.44C197.054 198.315 198.906 198.093 203.744 198.246C207.01 198.35 210.94 198.775 212.474 199.191Z" fill="#FB877E"/>
<path d="M136.381 118.008C138.333 118.898 139.953 121.711 139.953 124.211C139.953 127.246 136.489 130.463 133.221 130.463C128.419 130.463 125.229 125.855 127.036 121.53C128.616 117.746 132.551 116.263 136.381 118.008Z" fill="#F8F8F8"/>
<path d="M276.511 118.03C280.493 119.844 281.025 125.871 277.469 128.863C273.709 132.027 268.253 130.365 266.955 125.661C265.387 119.985 270.989 115.514 276.511 118.03Z" fill="#F8F8F8"/>
<path d="M145.131 102.565C153.627 102.565 160.515 96.8249 160.515 89.7444C160.515 82.6638 153.627 76.9238 145.131 76.9238C136.634 76.9238 129.746 82.6638 129.746 89.7444C129.746 96.8249 136.634 102.565 145.131 102.565Z" fill="#FDFDFC"/>
<path d="M260.514 102.565C269.01 102.565 275.898 96.8249 275.898 89.7444C275.898 82.6638 269.01 76.9238 260.514 76.9238C252.017 76.9238 245.129 82.6638 245.129 89.7444C245.129 96.8249 252.017 102.565 260.514 102.565Z" fill="#FDFDFC"/>
<path d="M55.8432 261.64C61.5368 276.822 72.9388 289.526 88.3504 297.862C91.7374 299.692 94.0588 301.352 94.1908 302.036C94.6118 304.224 93.7068 305.896 91.4422 307.116C90.1858 307.792 87.5642 310.086 85.6162 312.21C82.0588 316.092 80.2372 319.752 77.633 328.244C77.0264 330.222 76.2202 331.84 75.8418 331.84C73.8318 331.84 63.6836 322.272 59.5906 316.518C53.0126 307.27 49.481 296.876 48.8588 284.934C48.4624 277.334 49.1628 270.778 50.7424 267.306C51.261 266.166 52.1922 263.758 52.8132 261.952C53.4336 260.146 54.119 258.668 54.3354 258.668C54.5518 258.668 55.2302 260.004 55.8432 261.64Z" fill="#EF8100"/>
<path d="M84.8725 321.794C63.3339 312.564 51.5391 283.334 50.2571 264.102L46.4109 273.076L45.1289 288.462L47.6929 302.564L57.9493 321.794L79.7443 338.462C83.5903 338.462 86.1545 322.344 84.8725 321.794Z" fill="#DEDEDE"/>
<path d="M209.242 269.769C209.378 272.633 209.21 273.691 208.616 273.727C204.964 273.949 198.115 273.753 197.559 273.411C196.877 272.987 196.705 268.761 197.283 266.619C197.549 265.633 198.254 265.521 203.32 265.681L209.056 265.859L209.242 269.769Z" fill="#C4C5C4"/>
<path d="M296.444 266.015C297.886 267.659 299.792 271.687 301.416 276.535C302.714 280.411 302.866 282.025 302.866 291.813C302.866 303.267 302.644 304.837 299.328 316.829C292.86 340.219 274.882 375.785 265.156 384.431C259.962 389.049 256.562 390.201 247.252 390.499C238.648 390.773 235.698 390.273 232.896 388.069C229.29 385.233 229.172 384.495 228.948 363.733C228.634 334.383 228.39 330.507 226.764 329.149C224.992 327.669 222.598 328.017 221.16 329.963C220.088 331.413 219.994 333.339 219.848 356.541L219.69 381.557H203.262H186.834L186.473 356.229C186.076 328.393 186.033 328.085 182.465 328.085C179.495 328.085 178.113 329.987 178.033 334.183C177.995 336.161 177.776 348.051 177.547 360.607C177.147 382.603 177.083 383.513 175.768 385.627C173.187 389.779 171.486 390.315 160.903 390.299C151.998 390.287 151.335 390.199 147.818 388.565C142.05 385.887 139.329 383.211 133.476 374.463C122.023 357.345 108.968 327.387 105.362 309.949C103.352 300.227 103.175 298.835 103.102 292.125C103.003 283.103 104.527 275.963 107.975 269.299C109.068 267.185 110.22 265.789 110.963 265.677C111.628 265.577 114.277 266.597 116.848 267.943C129.442 274.537 157.854 282.125 174.662 283.383C177.414 283.589 180.329 283.895 181.14 284.063C182.805 284.405 182.781 284.733 180.647 290.815C179.935 292.847 179.352 295.759 179.352 297.285C179.352 303.845 183.656 312.265 188.952 316.069C193.93 319.643 197.222 320.733 203.148 320.763C208.048 320.787 208.892 320.599 213.254 318.499C218.68 315.891 222.118 312.449 224.838 306.901C226.356 303.807 226.564 302.665 226.56 297.441C226.556 292.521 226.298 290.927 225.054 288.161C223.91 285.617 223.738 284.705 224.328 284.341C224.756 284.077 227.826 283.677 231.152 283.451C234.48 283.227 238.608 282.779 240.328 282.455C250.562 280.529 254.836 279.613 261.278 277.955C268.864 276.005 269.79 275.715 279.728 272.151C285.844 269.959 293.628 266.323 294.208 265.391C294.674 264.637 295.412 264.843 296.444 266.015Z" fill="#FDA624"/>
<path d="M113.073 293.589C113.073 281.281 115.637 271.367 116.919 267.947L110.509 261.537L104.099 264.101L100.252 271.793L96.4063 280.769L96.4063 293.589L97.6885 311.537L100.252 321.793L105.381 332.051L110.509 346.153L122.047 367.947L132.304 384.615L142.56 393.589L157.945 396.153C163.928 395.299 173.073 393.589 161.791 393.589C147.688 393.589 113.073 308.973 113.073 293.589Z" fill="#EF8200"/>
<path d="M292.788 293.589C292.788 281.281 290.224 271.367 288.942 267.947L295.352 261.537L301.762 264.101L305.608 271.793L309.456 280.769L309.456 293.589L308.174 311.537L305.608 321.793L300.48 332.051L295.352 346.153L283.814 367.947L273.558 384.615L263.302 393.589L247.694 396.153C241.71 395.299 232.566 393.589 243.848 393.589C257.95 393.589 292.788 308.973 292.788 293.589Z" fill="#EF8200"/>
<path d="M157.94 374.36C141.53 373.334 135.718 379.06 134.863 382.052L139.991 389.744L150.248 393.59L160.504 394.872H166.915L173.325 392.308L179.735 388.462L179.735 382.052C179.308 379.914 174.35 375.384 157.94 374.36Z" fill="#FDFCFB"/>
<path fill-rule="evenodd" clip-rule="evenodd" d="M161.792 393.59C157.593 393.59 151.577 386.092 145.198 375.152C138.305 376.738 135.448 380.024 134.869 382.052L133.77 385.898L142.561 393.59L157.945 396.154C163.928 395.3 173.074 393.59 161.792 393.59Z" fill="#DBDBDB"/>
<path d="M251.533 374.36C235.123 373.334 229.311 379.06 228.457 382.052L232.303 389.744L243.841 393.59L254.097 394.872H260.507L266.917 392.308L273.327 388.462L273.327 382.052C272.901 379.914 267.943 375.384 251.533 374.36Z" fill="#FDFCFB"/>
<path fill-rule="evenodd" clip-rule="evenodd" d="M243.848 393.59C248.014 393.59 253.992 386.204 260.344 375.398C269.814 377.162 272.996 380.358 273.334 382.052L273.558 384.616L263.302 393.59L247.694 396.154C241.71 395.3 232.566 393.59 243.848 393.59Z" fill="#DBDBDB"/>
<path d="M181.28 344.873C160.767 333.335 121.024 300.001 124.87 271.797L136.408 273.079L145.383 275.643L155.639 278.207L173.588 280.771H203.074H232.562L250.51 278.207L260.768 275.643L269.742 273.079L281.28 271.797C285.126 300.001 238.972 339.637 229.998 344.873C224.87 347.865 205.35 358.413 181.28 344.873Z" fill="#FDFDFD"/>
<path d="M184.866 332.052C184.866 319.23 169.482 293.59 155.379 280.77H204.096H252.814C238.712 293.59 223.328 319.23 223.328 332.052C223.328 344.872 223.328 369.23 204.096 369.23C184.866 369.23 184.866 344.872 184.866 332.052Z" fill="#DEDEDE"/>
<path d="M210.156 283.679C211.192 283.693 215.798 288.439 216.926 290.653C218.43 293.601 218.55 300.235 217.162 303.561C214.142 310.787 204.694 314.463 197.418 311.241C191.843 308.773 188.665 304.099 188.25 297.757C188.04 294.551 188.267 293.505 189.806 290.575C193.058 284.385 200.604 280.963 206.876 282.833C208.424 283.295 209.9 283.675 210.156 283.679Z" fill="#FDFDFD"/>
<path d="M198.978 312.82C207.475 312.82 214.363 305.932 214.363 297.435C214.363 288.939 207.475 282.051 198.978 282.051C190.482 282.051 183.594 288.939 183.594 297.435C183.594 305.932 190.482 312.82 198.978 312.82Z" fill="#F8E036"/>
<path fill-rule="evenodd" clip-rule="evenodd" d="M81.3114 0.328055C71.1782 2.93718 63.0418 19.318 58.8554 45.5376C57.4314 54.455 57.2306 84.9708 58.5372 93.8784C59.4446 100.067 61.434 110.203 62.4064 113.592C63.3408 116.85 63.1594 120.074 61.8548 123.405C60.0744 127.951 58.155 136.355 56.7116 145.922C55.6066 153.249 55.4578 156.463 55.7222 167.362C56.1312 184.205 57.7766 191.951 63.6396 204.628C70.9136 220.356 85.0256 234.824 102.583 244.554L106.805 246.894L106.805 250.762C106.805 254.402 106.625 254.878 103.755 258.814C98.1168 266.546 95.519 273.418 94.3788 283.604C94.0586 286.47 93.5276 289.082 93.2 289.41C92.2356 290.374 81.8454 282.996 77.1344 278.002C68.896 269.268 63.9486 259.658 61.4408 247.516C60.8986 244.89 60.005 242.244 59.4552 241.636C58.0768 240.114 55.275 240.254 53.4096 241.94C50.9468 244.164 45.8654 253.714 43.768 260.058C36.8154 281.09 39.5184 301.964 51.5946 320.5C54.863 325.516 65.6766 336.178 70.9268 339.562L75.3864 342.436L75.8142 346.05C76.3232 350.35 78.7004 360.128 80.5896 365.69C83.9974 375.722 89.9686 383.726 96.5196 387.044C103.062 390.358 105.527 390.766 120.876 391.08L135.26 391.376L139.151 393.814C142.844 396.128 147.216 397.76 153.874 399.312C162.313 401.28 174.277 398.872 179.897 394.074L183.204 391.252H203.382C223.136 391.252 223.584 391.278 224.75 392.574C227.59 395.73 231.26 397.56 237.326 398.846C248.26 401.164 260.576 398.942 267.94 393.322L270.246 391.564L284.678 391.14C303.978 390.57 309.222 389.1 316.198 382.3C320.47 378.134 323.434 372.816 326.33 364.122C329.92 353.348 330.926 347.216 330.498 338.718C329.786 324.572 324.25 313.346 315.082 307.464L311.958 305.46L312.354 295.882C312.772 285.728 312.158 279.628 310.046 273.022C308.404 267.878 305.282 261.914 302.46 258.524C300.034 255.612 299.998 255.494 300.18 251.064L300.362 246.564L305.586 243.564C329.016 230.11 344.14 210.122 349.052 186.123C352.962 167.01 351.216 143.229 344.372 122.448C343.658 120.275 343.21 117.883 343.376 117.132C347.406 99.0578 349.458 83.3118 349.454 70.4818C349.45 56.266 346.496 35.6464 342.862 24.46C339.122 12.9472 333.61 4.44688 327.95 1.46751C324.198 -0.508093 315.18 -0.485581 309.118 1.51442C298.426 5.0435 284.666 13.2943 271.98 23.7814C268.41 26.7346 265.138 29.1504 264.71 29.1504C264.282 29.1504 262.28 28.4118 260.26 27.5094C251.16 23.445 236.532 19.3587 224.378 17.4856C214.158 15.9103 191.683 15.9103 182.164 17.4856C168.805 19.697 158.751 22.4344 148.149 26.7482C144.902 28.0698 142.005 29.1504 141.711 29.1504C141.417 29.1504 138.297 26.8196 134.778 23.9704C115.98 8.74956 100.333 0.692029 88.3558 0.0641376C85.604 -0.0797022 82.434 0.0384994 81.3114 0.328055ZM96.327 10.4763C104.978 13.4369 116.5 20.4956 127.931 29.837C138.853 38.764 139.388 39.1566 140.609 39.1566C141.261 39.1566 143.702 38.2812 146.032 37.2116C157.246 32.0634 167.592 28.8902 180.601 26.6094C191.817 24.6426 214.284 24.635 225.494 26.5944C238.526 28.8714 249.114 32.0478 259.332 36.7446C262.216 38.071 265.216 39.1566 265.996 39.1566C266.856 39.1566 269.46 37.3924 272.6 34.6826C286.388 22.789 301.254 13.3049 311.226 10.0435C316.202 8.4156 317.186 9.09228 313.496 11.6057C301.304 19.9096 291.414 29.0916 283.942 39.039C278.142 46.7614 278.226 47.0928 287.902 54.602C294.568 59.7746 306.854 72.4474 312.394 79.8634C326.96 99.3648 336.43 121.092 340.312 143.91C342.704 157.976 343.194 167.352 341.952 175.263C341.608 177.453 341.026 181.144 340.66 183.465C339.396 191.471 335.002 202.26 329.842 210.028C316.57 230.006 290.604 244.758 256.272 251.822C243.248 254.502 219.32 256.76 203.73 256.778C192.263 256.792 173.102 255.542 164.653 254.23C143.6 250.956 130.606 247.486 116.521 241.374C91.0456 230.318 73.3838 211.892 67.4558 190.188C66.7048 187.437 65.8078 184.341 65.4634 183.309C65.1188 182.277 64.671 176.086 64.4684 169.551C64.1094 157.991 64.9592 146.945 66.7528 139.844C72.694 116.326 78.1718 103.326 89.0198 86.999C97.5284 74.1922 107.626 63.2836 120.401 53.0992C126.432 48.2904 127.498 46.6144 126.149 44.0616C121.94 36.0966 104.278 18.7508 93.345 11.8434C88.6428 8.87338 89.9248 8.28552 96.327 10.4763ZM82.6428 16.3799C84.2306 17.2674 85.671 18.223 85.8442 18.5025C96.3284 24.8094 116.923 38.6992 116.923 44.8718C116.923 45.193 114.231 47.6838 110.219 51.3958C100.154 60.7076 81.7818 77.7048 76.757 87.4248C76.5648 88.3274 76.2492 89.008 75.7548 89.8132C75.0156 91.0172 73.3476 94.1034 72.0474 96.6712C69.2132 102.27 69.113 102.127 67.9424 90.7514C66.5084 76.8208 67.2106 50.6056 69.2232 42.909C69.5384 41.7052 70.4046 37.9058 71.1488 34.4662C71.8924 31.0266 72.7616 27.724 73.08 27.1266C73.3982 26.5294 73.659 25.7746 73.659 25.45C73.659 24.6902 77.3744 16.5751 78.1924 15.5482C79.0442 14.4788 79.34 14.5344 82.6428 16.3799ZM329.928 18.7308C330.97 20.9116 332.316 24.2186 332.92 26.0792C333.524 27.9402 334.244 30.026 334.522 30.7138C335.072 32.0734 335.968 36.52 336.98 42.909C337.334 45.1448 337.906 48.3812 338.254 50.101C339.254 55.0678 339.646 77.433 338.868 85.1228C338.706 86.7168 338.564 88.1662 338.434 89.479C337.708 96.8248 337.406 99.8876 336.672 99.9954C336.146 100.073 335.398 98.639 334.116 96.1802C333.794 95.5658 333.442 94.8872 333.05 94.1522L329.232 86.999C326.502 77.9324 306.76 60.1222 296.404 50.7802C292.628 47.3736 290.1 45.0932 290.1 44.773C290.1 38.6004 310.694 24.7106 321.178 18.4037C322.172 17.4093 326.496 14.8953 327.332 14.8252C327.718 14.7927 328.888 16.5507 329.928 18.7308ZM125.782 110.477C119.683 111.684 114.103 116.208 111.275 122.241C109.015 127.061 108.912 135.017 111.057 139.071C114.088 144.801 119.948 147.127 129.885 146.542C139.859 145.955 146.603 142.901 149.738 137.551C154.023 130.24 150.156 118.524 141.696 113.183C139.01 111.487 133.125 109.792 130.282 109.895C129.236 109.932 127.211 110.194 125.782 110.477ZM271.858 110.426C262.946 112.032 255.912 119.883 255.168 129.055C254.548 136.684 258.196 141.786 266.334 144.671C270.35 146.095 272.016 146.321 278.788 146.363C285.662 146.405 286.906 146.248 289.106 145.062C294.594 142.1 296.924 137.95 296.924 131.133C296.924 120.02 289.068 111.128 278.454 110.227C276.402 110.053 273.434 110.143 271.858 110.426ZM136.378 118.009C138.33 118.899 139.95 121.712 139.95 124.212C139.95 127.247 136.486 130.464 133.218 130.464C128.416 130.464 125.226 125.856 127.033 121.531C128.614 117.747 132.549 116.264 136.378 118.009ZM276.51 118.03C280.49 119.843 281.022 125.87 277.466 128.863C273.708 132.026 268.252 130.364 266.954 125.66C265.386 119.985 270.988 115.513 276.51 118.03ZM194.717 137.696C184.241 139.776 177.902 145.835 179.146 152.582C179.818 156.223 183.017 162.029 186.039 165.088C189.221 168.309 194.551 171.724 196.411 171.734C198.264 171.743 198.494 173.667 196.809 175.054C193.885 177.46 186.197 180.703 183.418 180.703C178.301 180.703 173.319 176.601 169.317 169.094C168.208 167.012 166.685 165.102 165.821 164.709C163.684 163.735 161.112 164.768 160.024 167.038C159.197 168.763 159.286 169.15 161.468 173.39C164.204 178.703 167.645 182.789 172.252 186.193C174.392 187.774 175.715 189.261 175.957 190.358C178.368 201.272 180.959 206.926 186.097 212.476C190.362 217.082 193.026 218.846 197.827 220.242C211.01 224.076 225.304 212.074 229.028 194.041C229.566 191.435 230.006 189.175 230.006 189.018C230.006 188.861 231.368 187.895 233.032 186.871C237.496 184.123 242.076 179.16 244.632 174.293C247.346 169.13 247.474 167.285 245.244 165.531C241.968 162.954 239.878 164.12 236.532 170.388C234.314 174.542 228.856 179.626 225.698 180.477C223.9 180.96 222.592 180.889 220.258 180.181C216.176 178.941 208.476 174.693 208.256 173.56C208.144 172.978 209.538 172.025 212.182 170.873C220.738 167.145 226.88 158.779 226.88 150.85C226.88 145.449 225.154 143.06 219.208 140.23C212.084 136.838 203.504 135.95 194.717 137.696ZM212.472 199.19C217.646 200.594 217.696 201.414 212.922 206.592C207.962 211.972 203.104 213.216 197.769 210.47C194.622 208.85 189.1 202.874 189.519 201.54C189.644 201.144 191.558 200.198 193.772 199.439C197.051 198.314 198.903 198.092 203.74 198.245C207.008 198.349 210.936 198.774 212.472 199.19ZM55.8416 261.64C61.5352 276.822 72.9374 289.526 88.3488 297.862C91.736 299.694 94.0574 301.352 94.1894 302.036C94.6102 304.224 93.7054 305.896 91.4408 307.116C90.1844 307.792 87.5628 310.086 85.6146 312.21C82.0574 316.092 80.2356 319.752 77.6316 328.244C77.0248 330.222 76.2188 331.84 75.8404 331.84C73.8304 331.84 63.6822 322.272 59.589 316.518C53.0112 307.27 49.4796 296.876 48.8574 284.936C48.4608 277.334 49.1612 270.778 50.741 267.306C51.2594 266.168 52.1906 263.758 52.8116 261.952C53.432 260.146 54.1174 258.668 54.3338 258.668C54.5502 258.668 55.2288 260.006 55.8416 261.64ZM296.442 266.016C297.884 267.66 299.788 271.688 301.414 276.536C302.712 280.412 302.864 282.026 302.864 291.814C302.864 303.268 302.642 304.838 299.326 316.83C292.858 340.22 274.88 375.786 265.154 384.432C259.96 389.05 256.56 390.202 247.25 390.5C238.646 390.774 235.696 390.274 232.892 388.07C229.288 385.234 229.17 384.496 228.946 363.734C228.632 334.384 228.388 330.508 226.762 329.15C224.99 327.67 222.596 328.018 221.158 329.964C220.086 331.414 219.99 333.34 219.846 356.542L219.688 381.558H203.26H186.832L186.471 356.23C186.074 328.394 186.03 328.086 182.463 328.086C179.493 328.086 178.11 329.988 178.03 334.184C177.992 336.162 177.774 348.052 177.545 360.608C177.145 382.604 177.08 383.514 175.766 385.628C173.184 389.78 171.484 390.316 160.901 390.3C151.996 390.288 151.333 390.2 147.816 388.566C142.048 385.888 139.326 383.212 133.473 374.464C122.02 357.346 108.966 327.39 105.36 309.95C103.349 300.228 103.173 298.836 103.1 292.128C103.001 283.104 104.525 275.964 107.972 269.3C109.066 267.186 110.217 265.79 110.961 265.678C111.626 265.578 114.274 266.598 116.846 267.944C129.439 274.538 157.852 282.126 174.66 283.384C177.411 283.592 180.326 283.896 181.137 284.064C182.803 284.406 182.779 284.734 180.645 290.816C179.933 292.848 179.35 295.76 179.35 297.288C179.35 303.846 183.654 312.268 188.95 316.07C193.928 319.644 197.219 320.734 203.146 320.764C208.044 320.788 208.89 320.6 213.252 318.5C218.678 315.892 222.114 312.45 224.836 306.902C226.354 303.808 226.562 302.666 226.558 297.442C226.554 292.522 226.294 290.928 225.052 288.162C223.908 285.618 223.736 284.706 224.326 284.342C224.754 284.078 227.824 283.678 231.15 283.452C234.476 283.228 238.606 282.78 240.326 282.456C250.56 280.532 254.834 279.614 261.276 277.956C268.862 276.006 269.788 275.716 279.726 272.152C285.842 269.96 293.626 266.324 294.204 265.392C294.672 264.638 295.41 264.844 296.442 266.016ZM209.242 269.77C209.378 272.632 209.212 273.692 208.616 273.728C204.964 273.95 198.116 273.754 197.56 273.41C196.878 272.988 196.705 268.762 197.284 266.62C197.55 265.632 198.254 265.522 203.32 265.682L209.056 265.86L209.242 269.77ZM210.148 283.678C211.182 283.692 215.788 288.438 216.918 290.652C218.422 293.6 218.542 300.234 217.152 303.56C214.134 310.786 204.686 314.462 197.409 311.24C191.835 308.772 188.657 304.098 188.242 297.756C188.032 294.55 188.259 293.504 189.798 290.574C193.05 284.384 200.596 280.962 206.868 282.832C208.414 283.294 209.892 283.674 210.148 283.678ZM97.4626 318.238C101.764 334.278 114.685 363.452 123.124 376.178C124.811 378.722 126.192 381.046 126.192 381.338C126.192 382.208 109.959 381.946 106.492 381.02C97.2964 378.564 93.2306 373.946 88.7984 360.92C83.6502 345.79 83.6466 334.882 88.7854 324.414C90.739 320.434 94.7322 315.58 96.0524 315.58C96.4364 315.58 97.0712 316.776 97.4626 318.238ZM315.02 319.98C318.06 323.826 319.888 328.58 321.186 336.014C322.25 342.106 321.962 345.46 319.666 353.728C314.516 372.288 310.92 377.538 301.284 380.582C297.988 381.622 295.548 381.87 288.62 381.87C283.9 381.87 280.038 381.74 280.038 381.58C280.038 381.42 281.534 378.956 283.364 376.108C286.928 370.558 293.23 358.73 295.624 353.102C296.428 351.21 297.91 347.864 298.914 345.666C301.746 339.476 304.802 331.52 307.242 324C308.464 320.228 309.594 316.778 309.752 316.334C310.206 315.052 312.234 316.456 315.02 319.98Z" fill="#301F1B"/>
<path d="M97.4581 318.238C101.759 334.278 114.68 363.452 123.119 376.178C124.807 378.724 126.187 381.046 126.187 381.338C126.187 382.208 109.955 381.946 106.488 381.02C97.2917 378.564 93.2261 373.946 88.7939 360.92C83.6457 345.79 83.6419 334.882 88.7809 324.414C90.7345 320.434 94.7277 315.58 96.0479 315.58C96.4319 315.58 97.0667 316.776 97.4581 318.238Z" fill="#EF8100"/>
<path d="M315.015 319.98C318.057 323.826 319.883 328.58 321.181 336.014C322.247 342.108 321.959 345.46 319.663 353.728C314.511 372.288 310.917 377.538 301.279 380.582C297.983 381.622 295.545 381.87 288.615 381.87C283.895 381.87 280.035 381.74 280.035 381.58C280.035 381.42 281.531 378.956 283.361 376.108C286.925 370.558 293.227 358.73 295.621 353.102C296.425 351.21 297.905 347.864 298.911 345.666C301.741 339.476 304.799 331.52 307.237 324C308.461 320.23 309.591 316.778 309.747 316.334C310.201 315.052 312.231 316.456 315.015 319.98Z" fill="#EF8100"/>
<path d="M202.819 156.41C212.024 156.41 219.486 153.54 219.486 150C219.486 146.46 212.024 143.59 202.819 143.59C193.614 143.59 186.152 146.46 186.152 150C186.152 153.54 193.614 156.41 202.819 156.41Z" fill="#5B3B37"/>
<path d="M114.355 256.41C114.355 266.666 162.219 274.358 186.15 276.922L186.15 266.666C186.15 266.666 152.817 264.102 147.689 262.82C142.561 261.538 114.355 252.564 114.355 256.41Z" fill="#B1151F"/>
<path d="M291.28 256.41C291.28 266.666 243.416 274.358 219.484 276.922L219.484 266.666C219.484 266.666 252.818 264.102 257.946 262.82C263.074 261.538 291.28 252.564 291.28 256.41Z" fill="#B1151F"/>
</g>
<defs>
<clipPath id="clip0_231_73949">
<rect width="400" height="400" fill="white"/>
</clipPath>
</defs>
</svg>
