<svg width="327" height="216" viewBox="0 0 327 216" fill="none" xmlns="http://www.w3.org/2000/svg">
<g clip-path="url(#clip0_249_27469)">
<path d="M72.25 177C110.358 177 141.25 146.108 141.25 108C141.25 69.8924 110.358 39 72.25 39C34.1424 39 3.25 69.8924 3.25 108C3.25 146.108 34.1424 177 72.25 177Z" fill="#0052B4"/>
<path d="M72.2484 66L74.4825 72.8755H81.7114L75.8628 77.1246L78.097 84.0001L72.2484 79.7507L66.3996 84.0001L68.6337 77.1246L62.7852 72.8755H70.0143L72.2484 66Z" fill="#FFDA44"/>
<path d="M42.552 78.3022L48.9938 81.584L54.1054 76.4727L52.9742 83.6125L59.4157 86.8946L52.2756 88.0256L51.1446 95.166L47.8625 88.7245L40.7227 89.8557L45.8343 84.744L42.552 78.3022Z" fill="#FFDA44"/>
<path d="M30.25 108L37.1255 105.766V98.5371L41.3744 104.386L48.2501 102.152L44.0004 108L48.2501 113.849L41.3744 111.615L37.1255 117.464V110.234L30.25 108Z" fill="#FFDA44"/>
<path d="M42.552 137.699L45.834 131.258L40.7227 126.146L47.8628 127.277L51.1444 120.836L52.2756 127.976L59.4155 129.107L52.9747 132.389L54.1054 139.529L48.9938 134.417L42.552 137.699Z" fill="#FFDA44"/>
<path d="M72.2484 150L70.014 143.124H62.7852L68.634 138.875L66.3996 132L72.2484 136.249L78.097 132L75.8628 138.875L81.7114 143.124H74.4823L72.2484 150Z" fill="#FFDA44"/>
<path d="M101.949 137.699L95.5076 134.418L90.3957 139.529L91.5269 132.389L85.0859 129.107L92.2258 127.976L93.3568 120.836L96.6386 127.277L103.778 126.146L98.6668 131.258L101.949 137.699Z" fill="#FFDA44"/>
<path d="M114.25 108L107.374 110.234V117.464L103.125 111.615L96.25 113.849L100.499 108L96.25 102.152L103.125 104.386L107.374 98.5371V105.766L114.25 108Z" fill="#FFDA44"/>
<path d="M101.949 78.302L98.6671 84.7438L103.779 89.8554L96.6383 88.7239L93.3568 95.1655L92.2258 88.0253L85.0859 86.8941L91.5269 83.6123L90.3957 76.4727L95.5079 81.584L101.949 78.302Z" fill="#FFDA44"/>
</g>
<g clip-path="url(#clip1_249_27469)">
<path d="M163.25 177C201.358 177 232.25 146.108 232.25 108C232.25 69.8924 201.358 39 163.25 39C125.142 39 94.25 69.8924 94.25 108C94.25 146.108 125.142 177 163.25 177Z" fill="url(#paint0_linear_249_27469)"/>
<path d="M185.872 105.941C190.225 111.75 177.479 122.979 180.343 118.341H153.193C150.256 114.5 148.236 110.3 147.266 105.941H185.872Z" fill="url(#paint1_linear_249_27469)"/>
<path d="M178.003 139.412C174.144 142.488 169.973 145.15 165.558 147.353L163.398 148.44L161.226 147.357C140.799 137.106 128.613 119.451 128.613 100.102V77.3848H141.071V100.102C141.069 101.551 141.167 102.999 141.364 104.434C142.933 116.189 150.867 127.033 163.352 134.334C163.363 134.346 163.377 134.355 163.391 134.362C163.404 134.355 163.411 134.348 163.425 134.342L163.477 134.308C167.99 136.832 172.903 138.558 178.003 139.412Z" fill="url(#paint2_linear_249_27469)"/>
<path d="M197.799 105.941C197.222 110.432 195.991 114.813 194.144 118.946C190.729 126.621 185.24 133.605 178.01 139.415C172.914 138.561 168.002 136.834 163.492 134.311C165.121 133.351 166.701 132.308 168.225 131.188C168.377 131.09 168.523 130.983 168.663 130.869C177.102 124.792 183.182 115.986 185.873 105.941H197.799Z" fill="url(#paint3_linear_249_27469)"/>
<path d="M198.182 77.3887H141.07V89.8409H198.182V77.3887Z" fill="url(#paint4_linear_249_27469)"/>
<path d="M198.183 89.8418V100.102C198.183 100.526 198.17 100.952 198.157 101.377H185.691C185.704 100.951 185.71 100.526 185.71 100.102V89.8418H198.183Z" fill="url(#paint5_linear_249_27469)"/>
</g>
<g clip-path="url(#clip2_249_27469)">
<path d="M214.867 45.3828C214.807 45.2864 214.31 44.9567 213.762 44.6505C212.623 44.0138 212.521 43.9946 212.227 44.3636C211.945 44.7179 210.663 47.5176 210.663 47.7797C210.663 47.8917 210.573 48.1521 210.463 48.3582C210.353 48.5642 210.053 49.7036 209.797 50.8903C209.54 52.077 209.241 53.3877 209.133 53.803C208.438 56.4584 208.196 65.5026 208.691 70.3087C209.095 74.2331 209.129 74.2827 210.107 72.3511C210.556 71.4651 211.131 70.4004 211.386 69.9851C211.462 69.7322 211.579 69.4563 211.732 69.161C211.818 68.7551 211.832 68.2191 211.816 67.2881C211.798 66.22 211.716 64.7846 211.634 64.0983C211.531 63.2302 211.566 62.7526 211.752 62.5293C211.947 62.2936 211.979 61.6347 211.871 60.059C211.762 58.487 211.796 57.7786 211.996 57.4209C212.147 57.1517 212.29 56.4947 212.315 55.9607C212.384 54.4603 212.564 53.1797 212.748 52.8846C212.84 52.737 212.886 52.3929 212.851 52.1195C212.816 51.8461 212.878 51.5063 212.99 51.3643C213.102 51.2224 213.259 50.6739 213.34 50.1459C213.421 49.6178 213.566 49.0837 213.663 48.9592C213.76 48.8346 213.918 48.4414 214.014 48.0854C214.11 47.7295 214.202 47.3896 214.218 47.3303C214.235 47.271 214.413 46.8481 214.612 46.3904C214.812 45.9328 214.926 45.4793 214.867 45.3828Z" fill="#DF6C00"/>
<path d="M300.107 47.998C299.898 47.3561 299.434 46.2152 299.074 45.4628C298.715 44.7107 298.312 44.1042 298.179 44.1154C297.89 44.1396 296.399 45.0069 296.056 45.35C295.827 45.5787 296.102 46.5222 296.777 47.8217C296.886 48.0319 297.035 48.6413 297.108 49.176C297.181 49.7107 297.324 50.1998 297.427 50.2628C297.529 50.3261 297.613 50.6575 297.613 50.9994C297.613 51.3414 297.705 51.6787 297.819 51.749C297.933 51.8191 298.027 52.1403 298.029 52.4629C298.033 53.302 298.262 54.9346 298.429 55.3146C298.585 55.67 298.644 56.5263 298.773 60.338C298.822 61.736 298.98 63.1683 299.126 63.5206C299.336 64.0279 299.336 64.2278 299.125 64.4816C298.956 64.6846 298.855 65.5737 298.847 66.9087L298.834 69.0153L300.151 71.4832C300.286 71.7368 300.408 71.9709 300.519 72.1829C300.961 73.0311 301.219 73.5257 301.4 73.4992C301.654 73.4619 301.758 72.4053 302.009 69.8709C302.054 69.418 302.103 68.918 302.159 68.368C302.427 65.7151 302.292 57.9991 301.947 56.2855C301.827 55.6922 301.629 54.5756 301.507 53.8043C301.158 51.6001 300.849 50.0661 300.659 49.597C300.563 49.3596 300.314 48.6401 300.107 47.998Z" fill="#DF6C00"/>
<path d="M214.868 45.3828C214.928 45.4793 214.813 45.9328 214.613 46.3904C214.414 46.848 214.237 47.2709 214.22 47.3303C214.203 47.3896 214.111 47.7294 214.015 48.0854C213.919 48.4414 213.762 48.8345 213.665 48.9593C213.568 49.0838 213.422 49.6177 213.341 50.1459C213.26 50.6739 213.103 51.2223 212.991 51.3643C212.879 51.5063 212.817 51.8461 212.852 52.1195C212.887 52.3929 212.841 52.737 212.75 52.8845C212.566 53.1797 212.385 54.4602 212.316 55.9606C212.291 56.4946 212.148 57.1516 211.998 57.4209C211.797 57.7786 211.764 58.4869 211.872 60.059C211.98 61.6347 211.949 62.2936 211.753 62.5292C211.568 62.7525 211.532 63.2302 211.635 64.0982C211.717 64.7846 211.799 66.22 211.817 67.288C211.833 68.2191 211.819 68.7551 211.733 69.161C213.467 65.8076 219.805 59.9435 223.277 56.731C224.662 55.4503 225.59 54.5911 225.59 54.4802C225.59 52.3507 218.485 47.5586 214.868 45.3828Z" fill="#C64F00"/>
<path d="M298.836 69.0149L298.85 66.9083C298.857 65.5734 298.959 64.6842 299.128 64.4812C299.338 64.2275 299.338 64.0275 299.128 63.5202C298.982 63.1679 298.824 61.7357 298.776 60.3376C298.647 56.5259 298.588 55.6696 298.431 55.3142C298.265 54.9343 298.035 53.3016 298.031 52.4625C298.03 52.14 297.935 51.8187 297.821 51.7486C297.708 51.6783 297.615 51.341 297.615 50.999C297.615 50.6571 297.532 50.3257 297.43 50.2625C297.327 50.1995 297.184 49.7103 297.111 49.1757C297.038 48.641 296.888 48.0315 296.779 47.8213C296.105 46.5218 295.829 45.5783 296.059 45.3496C292.441 47.5254 285.336 52.3175 285.336 54.447C285.336 54.5574 286.208 55.3443 287.511 56.5195C291.084 59.7425 297.895 65.887 298.836 69.0149Z" fill="#C64F00"/>
<path fill-rule="evenodd" clip-rule="evenodd" d="M218.48 42.6139C221.465 43.6353 225.44 46.0705 229.383 49.2934C233.152 52.3731 233.336 52.5086 233.757 52.5086C233.982 52.5086 234.824 52.2066 235.628 51.8376C239.497 50.0615 243.067 48.9667 247.555 48.1798C251.424 47.5013 259.175 47.4987 263.043 48.1746C267.538 48.9603 271.192 50.0561 274.716 51.6765C275.712 52.1341 276.747 52.5086 277.016 52.5086C277.313 52.5086 278.211 51.8999 279.295 50.9651C284.051 46.8618 289.18 43.5898 292.62 42.4646C294.337 41.903 294.677 42.1364 293.404 43.0035C289.197 45.8684 285.785 49.0362 283.207 52.4681C281.206 55.1322 281.235 55.2466 284.574 57.8373C286.873 59.6218 291.112 63.9939 293.023 66.5524C298.048 73.2804 301.316 80.7762 302.654 88.6484C303.48 93.5012 303.649 96.7359 303.22 99.4655C303.102 100.221 302.901 101.494 302.775 102.295C302.339 105.057 300.823 108.779 299.043 111.459C294.464 118.352 285.506 123.441 273.661 125.878C269.168 126.803 260.913 127.582 255.534 127.588C251.578 127.593 244.968 127.162 242.053 126.708C234.789 125.579 230.306 124.382 225.447 122.274C216.658 118.459 210.565 112.102 208.519 104.615C208.26 103.665 207.951 102.597 207.832 102.241C207.713 101.885 207.559 99.7492 207.489 97.4945C207.365 93.5066 207.658 89.6957 208.277 87.246C210.327 79.132 212.217 74.6471 215.959 69.0142C218.895 64.5959 222.378 60.8324 226.786 57.3188C228.866 55.6598 229.234 55.0815 228.769 54.2008C227.317 51.4529 221.223 45.4686 217.451 43.0855C215.829 42.0609 216.271 41.8581 218.48 42.6139ZM223.637 81.1727C224.613 79.0915 226.538 77.5305 228.642 77.1141C229.135 77.0166 229.834 76.9261 230.195 76.9132C231.175 76.8778 233.206 77.4627 234.133 78.0478C237.051 79.8903 238.385 83.9325 236.907 86.4547C235.825 88.3003 233.499 89.3541 230.057 89.5565C226.629 89.7582 224.608 88.956 223.562 86.9791C222.822 85.5805 222.858 82.8356 223.637 81.1727ZM273.28 83.5236C273.537 80.3591 275.964 77.6505 279.038 77.0966C279.582 76.9988 280.606 76.968 281.314 77.028C284.976 77.3389 287.686 80.4065 287.686 84.2404C287.686 86.5924 286.882 88.0239 284.989 89.0458C284.23 89.4553 283.801 89.5094 281.429 89.4948C279.092 89.4803 278.518 89.4022 277.133 88.9109C274.325 87.9157 273.067 86.1555 273.28 83.5236ZM247.053 91.6403C246.624 89.3127 248.81 87.2224 252.425 86.5045C255.456 85.9024 258.416 86.2087 260.874 87.3788C262.926 88.3553 263.52 89.1793 263.52 91.0429C263.52 93.7783 261.401 96.6647 258.45 97.9506C257.538 98.3481 257.057 98.6771 257.096 98.8778C257.171 99.2687 259.828 100.734 261.237 101.162C262.041 101.406 262.493 101.431 263.113 101.264C264.202 100.971 266.086 99.2167 266.851 97.7834C268.005 95.6208 268.726 95.2187 269.857 96.1078C270.626 96.7128 270.581 97.3496 269.646 99.1306C268.763 100.81 267.184 102.522 265.643 103.47C265.069 103.823 264.6 104.157 264.6 104.211C264.6 104.265 264.448 105.045 264.262 105.944C262.977 112.165 258.046 116.306 253.498 114.983C251.841 114.502 250.922 113.893 249.451 112.304C247.678 110.389 246.784 108.438 245.953 104.673C245.869 104.295 245.412 103.782 244.674 103.236C243.085 102.062 241.898 100.652 240.954 98.819C240.201 97.3562 240.17 97.2227 240.455 96.6278C240.831 95.8446 241.718 95.4881 242.455 95.8241C242.754 95.9598 243.279 96.6187 243.662 97.337C245.042 99.927 246.761 101.342 248.527 101.342C249.485 101.342 252.138 100.223 253.146 99.3932C253.728 98.9148 253.648 98.251 253.009 98.2477C252.367 98.2443 250.529 97.0662 249.431 95.9549C248.388 94.8996 247.284 92.8964 247.053 91.6403Z" fill="#FDFDFD"/>
<path d="M216.3 104.461C210.638 104.815 206.569 100.775 205.242 98.7109V89.8648L207.011 82.3456L209.665 75.7109L213.646 69.0763L218.069 62.884L225.146 56.6917L226.473 54.9225L221.165 48.2878L215.415 43.8648L213.646 41.2109H218.069L222.934 42.9802L227.358 45.634L230.896 49.1725L233.55 50.9417L239.3 49.1725L244.608 47.4033L249.031 46.5186H255.223H261.415L265.838 47.4033L271.146 49.1725L276.896 50.9417L279.55 49.1725L283.088 45.634L287.511 42.9802L292.377 41.2109H296.8L295.031 43.8648L289.28 48.2878L283.973 54.9225L285.3 56.6917L292.377 62.884L296.8 69.0763L300.781 75.7109L303.434 82.3456L305.203 89.8648V98.7109C303.877 100.775 299.808 104.815 294.146 104.461C275.569 103.3 272.473 82.3456 255.223 82.3456C237.973 82.3456 234.877 103.3 216.3 104.461Z" fill="#FDA624"/>
<path d="M218.513 41.2109H214.09C219.692 45.0443 231.517 53.0648 233.994 54.4802C237.09 56.2494 237.09 49.2405 255.667 49.6148C274.243 49.2405 274.243 56.2494 277.34 54.4802C279.817 53.0648 291.641 45.0443 297.244 41.2109H292.82L287.955 42.9802L283.532 45.634L279.994 49.1725L277.34 50.9417L271.59 49.1725L266.282 47.4033L261.859 46.5186H255.667H249.474L245.051 47.4033L239.744 49.1725L233.994 50.9417L231.34 49.1725L227.801 45.634L223.378 42.9802L218.513 41.2109Z" fill="#FBCA5F"/>
<path d="M254.341 123.038C225.677 123.038 210.257 110.211 206.129 103.576C207.456 112.127 218.954 129.672 254.341 129.672C299.456 129.672 302.405 112.422 304.321 103.576C299.603 109.916 289.725 123.038 254.341 123.038Z" fill="#DEDEDE"/>
<path d="M258.555 107.72C260.34 108.204 260.357 108.487 258.711 110.273C257 112.129 255.324 112.559 253.483 111.611C252.397 111.052 250.492 108.991 250.637 108.53C250.68 108.394 251.34 108.067 252.104 107.805C253.235 107.418 253.874 107.341 255.543 107.394C256.67 107.429 258.026 107.576 258.555 107.72Z" fill="#FB877E"/>
<path d="M232.303 79.7137C232.976 80.0207 233.536 80.9912 233.536 81.8538C233.536 82.9008 232.34 84.0105 231.213 84.0105C229.556 84.0105 228.456 82.4208 229.079 80.9286C229.624 79.6233 230.982 79.1117 232.303 79.7137Z" fill="#F8F8F8"/>
<path d="M280.647 79.7203C282.021 80.346 282.204 82.4253 280.977 83.4577C279.68 84.549 277.798 83.9758 277.35 82.3528C276.809 80.3948 278.742 78.8521 280.647 79.7203Z" fill="#F8F8F8"/>
<path d="M235.319 74.3852C238.251 74.3852 240.627 72.4049 240.627 69.9621C240.627 67.5193 238.251 65.5391 235.319 65.5391C232.388 65.5391 230.012 67.5193 230.012 69.9621C230.012 72.4049 232.388 74.3852 235.319 74.3852Z" fill="#FDFDFC"/>
<path d="M275.128 74.3852C278.059 74.3852 280.436 72.4049 280.436 69.9621C280.436 67.5193 278.059 65.5391 275.128 65.5391C272.197 65.5391 269.82 67.5193 269.82 69.9621C269.82 72.4049 272.197 74.3852 275.128 74.3852Z" fill="#FDFDFC"/>
<path d="M204.517 129.266C206.482 134.503 210.415 138.886 215.732 141.762C216.901 142.394 217.702 142.966 217.747 143.202C217.893 143.957 217.58 144.534 216.799 144.955C216.366 145.188 215.461 145.979 214.789 146.712C213.562 148.052 212.933 149.314 212.035 152.244C211.826 152.926 211.548 153.485 211.417 153.485C210.724 153.485 207.222 150.184 205.81 148.198C203.541 145.008 202.322 141.422 202.108 137.302C201.971 134.68 202.213 132.418 202.758 131.22C202.937 130.827 203.258 129.996 203.472 129.373C203.686 128.75 203.923 128.24 203.997 128.24C204.072 128.24 204.306 128.701 204.517 129.266Z" fill="#EF8100"/>
<path d="M214.532 150.019C207.101 146.835 203.032 136.75 202.59 130.115L201.263 133.211L200.82 138.519L201.705 143.385L205.243 150.019L212.763 155.769C214.089 155.769 214.974 150.209 214.532 150.019Z" fill="#DEDEDE"/>
<path d="M257.438 132.07C257.485 133.058 257.427 133.423 257.222 133.435C255.962 133.512 253.599 133.444 253.407 133.326C253.172 133.18 253.112 131.722 253.312 130.983C253.404 130.643 253.647 130.604 255.395 130.659L257.374 130.721L257.438 132.07Z" fill="#C4C5C4"/>
<path d="M287.521 130.775C288.018 131.342 288.676 132.731 289.236 134.404C289.684 135.741 289.736 136.298 289.736 139.675C289.736 143.627 289.66 144.168 288.516 148.305C286.284 156.375 280.082 168.645 276.727 171.628C274.935 173.221 273.762 173.619 270.55 173.722C267.581 173.816 266.564 173.644 265.597 172.883C264.353 171.905 264.312 171.65 264.235 164.487C264.126 154.362 264.042 153.024 263.481 152.556C262.87 152.045 262.044 152.165 261.548 152.837C261.178 153.337 261.146 154.001 261.095 162.006L261.041 170.637H255.373H249.706L249.581 161.898C249.444 152.295 249.429 152.189 248.198 152.189C247.173 152.189 246.697 152.845 246.669 154.293C246.656 154.975 246.581 159.077 246.502 163.409C246.363 170.997 246.341 171.311 245.888 172.041C244.997 173.473 244.41 173.658 240.759 173.653C237.687 173.648 237.458 173.618 236.245 173.054C234.255 172.13 233.316 171.207 231.297 168.189C227.346 162.283 222.842 151.948 221.598 145.932C220.904 142.578 220.843 142.098 220.818 139.783C220.784 136.67 221.31 134.207 222.499 131.908C222.876 131.178 223.274 130.697 223.53 130.658C223.759 130.624 224.673 130.975 225.56 131.44C229.905 133.715 239.707 136.333 245.506 136.767C246.455 136.838 247.461 136.943 247.741 137.001C248.315 137.119 248.307 137.232 247.571 139.331C247.325 140.032 247.124 141.036 247.124 141.563C247.124 143.826 248.609 146.731 250.436 148.043C252.154 149.276 253.289 149.652 255.334 149.663C257.024 149.671 257.315 149.606 258.82 148.882C260.692 147.982 261.878 146.794 262.817 144.88C263.341 143.813 263.412 143.419 263.411 141.617C263.41 139.919 263.321 139.369 262.891 138.415C262.497 137.537 262.437 137.223 262.641 137.097C262.789 137.006 263.848 136.868 264.995 136.79C266.143 136.713 267.567 136.558 268.161 136.446C271.692 135.782 273.166 135.466 275.389 134.894C278.006 134.221 278.325 134.121 281.754 132.892C283.864 132.135 286.549 130.881 286.749 130.559C286.91 130.299 287.165 130.37 287.521 130.775Z" fill="#FDA624"/>
<path d="M224.262 140.288C224.262 136.042 225.146 132.622 225.589 131.442L223.377 129.23L221.166 130.115L219.839 132.769L218.512 135.866V140.288L218.954 146.48L219.839 150.019L221.608 153.558L223.377 158.423L227.358 165.942L230.896 171.692L234.435 174.788L239.742 175.673C241.807 175.378 244.962 174.788 241.069 174.788C236.204 174.788 224.262 145.596 224.262 140.288Z" fill="#EF8200"/>
<path d="M286.262 140.288C286.262 136.042 285.377 132.622 284.935 131.442L287.146 129.23L289.358 130.115L290.685 132.769L292.012 135.866V140.288L291.57 146.48L290.685 150.019L288.916 153.558L287.146 158.423L283.166 165.942L279.628 171.692L276.089 174.788L270.704 175.673C268.64 175.378 265.485 174.788 269.378 174.788C274.243 174.788 286.262 145.596 286.262 140.288Z" fill="#EF8200"/>
<path d="M239.739 168.155C234.077 167.801 232.072 169.777 231.777 170.809L233.547 173.463L237.085 174.79L240.624 175.232H242.835L245.047 174.347L247.258 173.02V170.809C247.111 170.071 245.4 168.508 239.739 168.155Z" fill="#FDFCFB"/>
<path fill-rule="evenodd" clip-rule="evenodd" d="M241.066 174.789C239.618 174.789 237.542 172.202 235.341 168.428C232.963 168.975 231.977 170.109 231.778 170.808L231.398 172.135L234.431 174.789L239.739 175.673C241.803 175.379 244.958 174.789 241.066 174.789Z" fill="#DBDBDB"/>
<path d="M272.028 168.155C266.366 167.801 264.361 169.777 264.066 170.809L265.393 173.463L269.374 174.79L272.912 175.232H275.124L277.335 174.347L279.547 173.02V170.809C279.4 170.071 277.689 168.508 272.028 168.155Z" fill="#FDFCFB"/>
<path fill-rule="evenodd" clip-rule="evenodd" d="M269.378 174.788C270.815 174.788 272.877 172.24 275.069 168.512C278.336 169.12 279.434 170.223 279.55 170.807L279.628 171.692L276.089 174.788L270.704 175.673C268.64 175.378 265.485 174.788 269.378 174.788Z" fill="#DBDBDB"/>
<path d="M247.793 157.981C240.717 154 227.005 142.5 228.332 132.77L232.313 133.212L235.409 134.096L238.947 134.981L245.14 135.866H255.312H265.486L271.678 134.981L275.217 134.096L278.313 133.212L282.294 132.77C283.62 142.5 267.697 156.174 264.601 157.981C262.832 159.013 256.098 162.652 247.793 157.981Z" fill="#FDFDFD"/>
<path d="M249.029 153.558C249.029 149.134 243.721 140.288 238.855 135.865H255.663H272.471C267.605 140.288 262.298 149.134 262.298 153.558C262.298 157.98 262.298 166.384 255.663 166.384C249.029 166.384 249.029 157.98 249.029 153.558Z" fill="#DEDEDE"/>
<path d="M257.752 136.868C258.11 136.873 259.699 138.511 260.088 139.274C260.607 140.291 260.648 142.58 260.169 143.728C259.128 146.221 255.868 147.489 253.358 146.377C251.434 145.526 250.338 143.913 250.195 141.725C250.122 140.619 250.201 140.258 250.732 139.247C251.854 137.112 254.457 135.931 256.621 136.577C257.155 136.736 257.664 136.867 257.752 136.868Z" fill="#FDFDFD"/>
<path d="M253.898 146.924C256.829 146.924 259.205 144.548 259.205 141.616C259.205 138.685 256.829 136.309 253.898 136.309C250.966 136.309 248.59 138.685 248.59 141.616C248.59 144.548 250.966 146.924 253.898 146.924Z" fill="#F8E036"/>
<path fill-rule="evenodd" clip-rule="evenodd" d="M213.303 39.1132C209.807 40.0133 207 45.6647 205.556 54.7105C205.065 57.787 204.995 68.3149 205.446 71.3881C205.759 73.5232 206.446 77.02 206.781 78.1894C207.103 79.3133 207.041 80.4255 206.591 81.5747C205.976 83.143 205.314 86.0426 204.816 89.3431C204.435 91.871 204.384 92.9797 204.475 96.7398C204.616 102.551 205.184 105.223 207.206 109.597C209.716 115.023 214.585 120.014 220.642 123.371L222.098 124.178V125.513C222.098 126.769 222.036 126.933 221.046 128.291C219.101 130.958 218.205 133.329 217.811 136.843C217.701 137.832 217.518 138.733 217.405 138.846C217.072 139.179 213.487 136.634 211.862 134.911C209.02 131.897 207.313 128.582 206.448 124.393C206.261 123.487 205.953 122.574 205.763 122.364C205.287 121.839 204.321 121.888 203.677 122.469C202.827 123.237 201.074 126.531 200.351 128.72C197.952 135.976 198.885 143.178 203.051 149.573C204.179 151.303 207.909 154.981 209.721 156.149L211.259 157.14L211.407 158.387C211.582 159.871 212.402 163.244 213.054 165.163C214.23 168.624 216.29 171.385 218.55 172.53C220.807 173.674 221.658 173.814 226.953 173.923L231.915 174.025L233.258 174.866C234.532 175.664 236.04 176.227 238.337 176.763C241.249 177.442 245.376 176.611 247.315 174.956L248.456 173.982H255.418C262.233 173.982 262.387 173.991 262.79 174.438C263.769 175.527 265.035 176.158 267.128 176.602C270.9 177.402 275.149 176.635 277.69 174.696L278.486 174.09L283.465 173.943C290.123 173.747 291.932 173.24 294.339 170.893C295.813 169.456 296.836 167.622 297.835 164.622C299.073 160.905 299.42 158.79 299.273 155.858C299.027 150.977 297.117 147.104 293.954 145.075L292.876 144.384L293.013 141.079C293.157 137.576 292.945 135.472 292.217 133.193C291.65 131.418 290.573 129.36 289.599 128.191C288.763 127.186 288.75 127.145 288.813 125.617L288.876 124.065L290.678 123.03C298.761 118.388 303.979 111.492 305.674 103.213C307.023 96.6185 306.42 88.4141 304.059 81.2446C303.813 80.495 303.658 79.6697 303.715 79.4106C305.106 73.1749 305.814 67.7426 305.812 63.3162C305.811 58.4118 304.792 51.298 303.538 47.4387C302.248 43.4668 300.346 40.5342 298.394 39.5063C297.099 38.8247 293.988 38.8325 291.896 39.5225C288.208 40.74 283.461 43.5865 279.084 47.2046C277.852 48.2234 276.723 49.0569 276.576 49.0569C276.428 49.0569 275.737 48.8021 275.04 48.4907C271.901 47.0885 266.854 45.6787 262.661 45.0325C259.135 44.489 251.382 44.489 248.097 45.0325C243.488 45.7955 240.02 46.7399 236.362 48.2281C235.242 48.6841 234.242 49.0569 234.141 49.0569C234.04 49.0569 232.963 48.2528 231.749 47.2698C225.264 42.0186 219.866 39.2387 215.734 39.0221C214.784 38.9725 213.691 39.0133 213.303 39.1132ZM218.484 42.6143C221.468 43.6357 225.443 46.071 229.387 49.2938C233.155 52.3736 233.34 52.509 233.761 52.509C233.986 52.509 234.828 52.207 235.632 51.838C239.501 50.0619 243.07 48.9671 247.558 48.1802C251.428 47.5017 259.179 47.4991 263.046 48.1751C267.542 48.9606 271.195 50.0565 274.72 51.6769C275.715 52.1345 276.75 52.509 277.019 52.509C277.316 52.509 278.214 51.9004 279.298 50.9655C284.055 46.8622 289.183 43.5902 292.624 42.465C294.34 41.9034 294.68 42.1368 293.407 43.004C289.201 45.8688 285.789 49.0366 283.211 52.4685C281.21 55.1327 281.239 55.247 284.577 57.8377C286.877 59.6222 291.115 63.9944 293.027 66.5529C298.052 73.2809 301.319 80.7766 302.658 88.6488C303.484 93.5017 303.653 96.7363 303.224 99.4659C303.106 100.221 302.905 101.495 302.778 102.296C302.342 105.057 300.826 108.78 299.046 111.46C294.467 118.352 285.509 123.442 273.665 125.879C269.171 126.803 260.916 127.582 255.538 127.588C251.582 127.593 244.971 127.162 242.056 126.709C234.793 125.58 230.31 124.383 225.45 122.274C216.662 118.46 210.568 112.103 208.523 104.615C208.264 103.666 207.954 102.598 207.836 102.242C207.717 101.886 207.562 99.7496 207.492 97.495C207.369 93.507 207.662 89.6961 208.28 87.2463C210.33 79.1325 212.22 74.6475 215.963 69.0147C218.898 64.5963 222.382 60.8328 226.789 57.3192C228.87 55.6602 229.238 55.082 228.772 54.2013C227.32 51.4533 221.227 45.469 217.455 43.086C215.833 42.0613 216.275 41.8585 218.484 42.6143ZM213.763 44.6511C214.31 44.9572 214.807 45.2869 214.867 45.3834C218.484 47.5592 225.589 52.3512 225.589 54.4808C225.589 54.5916 224.66 55.4509 223.276 56.7316C219.804 59.9441 213.465 65.8082 211.732 69.1616C211.666 69.473 211.557 69.7078 211.386 69.9856C211.131 70.4009 210.556 71.4657 210.107 72.3516C209.129 74.2833 209.095 74.2337 208.691 70.3092C208.196 65.5032 208.438 56.4589 209.133 53.8036C209.242 53.3883 209.54 52.0775 209.797 50.8908C210.054 49.7042 210.354 48.5648 210.463 48.3587C210.573 48.1526 210.663 47.8922 210.663 47.7803C210.663 47.5181 211.945 44.7184 212.227 44.3641C212.521 43.9952 212.623 44.0144 213.763 44.6511ZM299.076 45.4621C299.435 46.2145 299.9 47.3554 300.108 47.9973C300.317 48.6394 300.565 49.359 300.661 49.5963C300.851 50.0653 301.16 51.5994 301.509 53.8036C301.631 54.575 301.828 55.6915 301.948 56.2848C302.293 57.9984 302.429 65.7144 302.16 68.3674C302.104 68.9173 302.055 69.4173 302.011 69.8703C301.76 72.4046 301.656 73.4612 301.403 73.4984C301.221 73.525 300.963 73.0305 300.521 72.1822C300.41 71.9702 300.288 71.7361 300.153 71.4825L298.836 69.0147C297.894 65.8867 291.083 59.7422 287.51 56.5192C286.207 55.3439 285.335 54.5572 285.335 54.4467C285.335 52.3171 292.44 47.5252 296.057 45.3493C296.4 45.0062 297.892 44.1389 298.18 44.1147C298.313 44.1035 298.717 44.71 299.076 45.4621ZM228.645 77.1145C226.542 77.5309 224.616 79.0919 223.641 81.1731C222.861 82.836 222.826 85.5809 223.565 86.9794C224.611 88.9565 226.633 89.7587 230.061 89.5569C233.502 89.3545 235.829 88.3008 236.911 86.4552C238.389 83.9329 237.055 79.8906 234.136 78.0483C233.209 77.4632 231.179 76.8782 230.198 76.9136C229.837 76.9265 229.139 77.017 228.645 77.1145ZM279.042 77.097C275.967 77.6509 273.54 80.3595 273.284 83.524C273.07 86.1559 274.328 87.9161 277.136 88.9114C278.522 89.4026 279.096 89.4807 281.433 89.4952C283.804 89.5099 284.233 89.4557 284.992 89.0463C286.886 88.0244 287.69 86.5928 287.69 84.2408C287.69 80.407 284.979 77.3393 281.317 77.0284C280.609 76.9684 279.586 76.9993 279.042 77.097ZM232.301 79.7131C232.975 80.0202 233.534 80.9906 233.534 81.8532C233.534 82.9003 232.339 84.0099 231.211 84.0099C229.554 84.0099 228.454 82.4202 229.077 80.9281C229.623 79.6227 230.98 79.1112 232.301 79.7131ZM280.647 79.7202C282.02 80.3459 282.203 82.4252 280.977 83.4576C279.68 84.5489 277.798 83.9757 277.35 82.3527C276.809 80.3947 278.742 78.852 280.647 79.7202ZM252.428 86.505C248.814 87.2229 246.627 89.3131 247.056 91.6407C247.288 92.8969 248.392 94.9 249.434 95.9553C250.532 97.0667 252.371 98.2447 253.013 98.2482C253.652 98.2514 253.731 98.9153 253.15 99.3936C252.141 100.224 249.489 101.343 248.53 101.343C246.765 101.343 245.046 99.9274 243.665 97.3374C243.283 96.6191 242.757 95.9603 242.459 95.8245C241.722 95.4886 240.834 95.845 240.459 96.6283C240.174 97.2231 240.204 97.3566 240.957 98.8195C241.901 100.653 243.088 102.062 244.678 103.237C245.416 103.782 245.873 104.295 245.956 104.674C246.788 108.439 247.682 110.389 249.454 112.304C250.926 113.893 251.845 114.502 253.501 114.983C258.049 116.306 262.981 112.166 264.265 105.944C264.451 105.045 264.603 104.265 264.603 104.211C264.603 104.157 265.073 103.824 265.647 103.471C267.187 102.523 268.767 100.81 269.649 99.131C270.585 97.3499 270.629 96.7133 269.86 96.1083C268.73 95.2191 268.009 95.6213 266.854 97.7839C266.089 99.2171 264.206 100.971 263.117 101.264C262.496 101.431 262.045 101.407 261.24 101.162C259.832 100.735 257.175 99.2692 257.099 98.8782C257.06 98.6776 257.541 98.3485 258.454 97.951C261.405 96.6651 263.524 93.7787 263.524 91.0433C263.524 89.1798 262.929 88.3558 260.878 87.3793C258.42 86.2092 255.46 85.9028 252.428 86.505ZM258.554 107.721C260.339 108.205 260.356 108.488 258.709 110.274C256.998 112.13 255.322 112.56 253.481 111.612C252.395 111.053 250.49 108.992 250.635 108.531C250.678 108.395 251.338 108.068 252.102 107.806C253.233 107.418 253.872 107.342 255.541 107.395C256.669 107.43 258.024 107.577 258.554 107.721ZM204.516 129.266C206.48 134.504 210.414 138.886 215.731 141.762C216.9 142.394 217.701 142.966 217.746 143.202C217.891 143.957 217.579 144.534 216.798 144.955C216.364 145.188 215.46 145.98 214.788 146.712C213.561 148.052 212.932 149.314 212.034 152.244C211.824 152.927 211.546 153.485 211.416 153.485C210.722 153.485 207.221 150.184 205.809 148.199C203.54 145.008 202.321 141.422 202.107 137.303C201.97 134.68 202.211 132.418 202.756 131.221C202.935 130.828 203.257 129.997 203.471 129.373C203.685 128.75 203.921 128.24 203.996 128.24C204.071 128.24 204.305 128.702 204.516 129.266ZM287.523 130.776C288.021 131.343 288.678 132.732 289.239 134.405C289.686 135.742 289.739 136.299 289.739 139.676C289.739 143.627 289.662 144.169 288.518 148.306C286.287 156.376 280.084 168.646 276.729 171.629C274.937 173.222 273.764 173.62 270.552 173.723C267.584 173.817 266.566 173.645 265.599 172.884C264.355 171.906 264.314 171.651 264.237 164.488C264.129 154.362 264.045 153.025 263.484 152.557C262.872 152.046 262.046 152.166 261.55 152.838C261.18 153.338 261.147 154.002 261.098 162.007L261.043 170.638H255.375H249.708L249.583 161.899C249.446 152.296 249.431 152.19 248.2 152.19C247.176 152.19 246.699 152.846 246.671 154.293C246.658 154.976 246.583 159.078 246.504 163.41C246.366 170.998 246.344 171.312 245.89 172.042C244.999 173.474 244.413 173.659 240.762 173.654C237.689 173.649 237.461 173.619 236.247 173.055C234.257 172.131 233.318 171.208 231.299 168.19C227.348 162.284 222.844 151.95 221.6 145.933C220.906 142.579 220.845 142.098 220.82 139.784C220.786 136.671 221.312 134.208 222.501 131.909C222.878 131.179 223.276 130.698 223.532 130.659C223.762 130.624 224.675 130.976 225.563 131.441C229.907 133.716 239.71 136.333 245.508 136.767C246.458 136.839 247.463 136.944 247.743 137.002C248.318 137.12 248.31 137.233 247.573 139.332C247.328 140.033 247.127 141.037 247.127 141.564C247.127 143.827 248.611 146.732 250.438 148.044C252.156 149.277 253.291 149.653 255.336 149.664C257.026 149.672 257.318 149.607 258.823 148.882C260.695 147.983 261.88 146.795 262.819 144.881C263.343 143.814 263.415 143.42 263.413 141.617C263.412 139.92 263.322 139.37 262.894 138.416C262.499 137.538 262.44 137.224 262.643 137.098C262.791 137.007 263.85 136.869 264.998 136.791C266.145 136.714 267.57 136.559 268.163 136.447C271.694 135.784 273.169 135.467 275.391 134.895C278.008 134.222 278.328 134.122 281.756 132.892C283.866 132.136 286.552 130.882 286.751 130.56C286.913 130.3 287.167 130.371 287.523 130.776ZM257.439 132.071C257.486 133.058 257.429 133.424 257.223 133.436C255.963 133.513 253.601 133.445 253.409 133.326C253.174 133.181 253.114 131.723 253.314 130.984C253.406 130.643 253.648 130.605 255.396 130.66L257.375 130.722L257.439 132.071ZM257.752 136.869C258.109 136.874 259.698 138.511 260.087 139.275C260.606 140.292 260.648 142.581 260.168 143.728C259.127 146.221 255.867 147.489 253.357 146.378C251.434 145.526 250.337 143.914 250.194 141.726C250.122 140.62 250.2 140.259 250.731 139.248C251.853 137.112 254.456 135.932 256.62 136.577C257.154 136.736 257.664 136.868 257.752 136.869ZM218.875 148.792C220.359 154.326 224.817 164.391 227.728 168.781C228.311 169.659 228.787 170.461 228.787 170.562C228.787 170.862 223.187 170.771 221.991 170.452C218.818 169.605 217.415 168.011 215.886 163.517C214.11 158.298 214.109 154.534 215.882 150.923C216.556 149.55 217.933 147.875 218.389 147.875C218.521 147.875 218.74 148.288 218.875 148.792ZM293.933 149.393C294.981 150.72 295.612 152.36 296.06 154.925C296.427 157.027 296.328 158.184 295.536 161.036C293.759 167.439 292.518 169.251 289.194 170.301C288.057 170.66 287.215 170.745 284.825 170.745C283.196 170.745 281.864 170.7 281.864 170.645C281.864 170.59 282.38 169.74 283.011 168.757C284.241 166.843 286.415 162.762 287.241 160.82C287.518 160.167 288.03 159.013 288.376 158.255C289.353 156.119 290.407 153.374 291.249 150.78C291.671 149.479 292.061 148.288 292.115 148.135C292.272 147.693 292.972 148.177 293.933 149.393Z" fill="#301F1B"/>
<path d="M218.873 148.792C220.357 154.326 224.815 164.391 227.726 168.781C228.308 169.66 228.785 170.461 228.785 170.562C228.785 170.862 223.184 170.771 221.988 170.452C218.816 169.604 217.413 168.011 215.884 163.517C214.108 158.297 214.106 154.534 215.879 150.923C216.553 149.55 217.931 147.875 218.387 147.875C218.519 147.875 218.738 148.288 218.873 148.792Z" fill="#EF8100"/>
<path d="M293.931 149.394C294.981 150.72 295.611 152.361 296.059 154.925C296.426 157.028 296.327 158.184 295.535 161.037C293.758 167.44 292.518 169.251 289.192 170.301C288.055 170.66 287.214 170.746 284.823 170.746C283.195 170.746 281.863 170.701 281.863 170.646C281.863 170.59 282.379 169.74 283.011 168.758C284.24 166.843 286.415 162.762 287.24 160.821C287.518 160.168 288.028 159.014 288.376 158.255C289.352 156.12 290.407 153.375 291.248 150.78C291.67 149.48 292.06 148.289 292.114 148.136C292.271 147.693 292.971 148.178 293.931 149.394Z" fill="#EF8100"/>
<path d="M255.223 92.9622C258.398 92.9622 260.973 91.972 260.973 90.7506C260.973 89.5292 258.398 88.5391 255.223 88.5391C252.047 88.5391 249.473 89.5292 249.473 90.7506C249.473 91.972 252.047 92.9622 255.223 92.9622Z" fill="#5B3B37"/>
<path d="M224.703 127.461C224.703 130.999 241.216 133.653 249.472 134.538V130.999C249.472 130.999 237.972 130.115 236.203 129.672C234.434 129.23 224.703 126.134 224.703 127.461Z" fill="#B1151F"/>
<path d="M285.742 127.461C285.742 130.999 269.229 133.653 260.973 134.538V130.999C260.973 130.999 272.473 130.115 274.242 129.672C276.011 129.23 285.742 126.134 285.742 127.461Z" fill="#B1151F"/>
</g>
<defs>
<linearGradient id="paint0_linear_249_27469" x1="232.25" y1="39" x2="67.1178" y2="91.2489" gradientUnits="userSpaceOnUse">
<stop stop-color="#000756"/>
<stop offset="1" stop-color="#0042B8"/>
</linearGradient>
<linearGradient id="paint1_linear_249_27469" x1="198.455" y1="119.936" x2="150.95" y2="107.133" gradientUnits="userSpaceOnUse">
<stop offset="0.14" stop-color="#ADADAD"/>
<stop offset="0.29" stop-color="#CBCBCB"/>
<stop offset="0.43" stop-color="#E2E2E2"/>
<stop offset="0.59" stop-color="#F2F2F2"/>
<stop offset="0.77" stop-color="#FCFCFC"/>
<stop offset="1" stop-color="white"/>
</linearGradient>
<linearGradient id="paint2_linear_249_27469" x1="180.915" y1="160.502" x2="113.765" y2="66.8449" gradientUnits="userSpaceOnUse">
<stop stop-color="#ADADAD"/>
<stop offset="0.17" stop-color="#CBCBCB"/>
<stop offset="0.34" stop-color="#E2E2E2"/>
<stop offset="0.52" stop-color="#F2F2F2"/>
<stop offset="0.73" stop-color="#FCFCFC"/>
<stop offset="1" stop-color="white"/>
</linearGradient>
<linearGradient id="paint3_linear_249_27469" x1="164.266" y1="146.328" x2="196.16" y2="105.898" gradientUnits="userSpaceOnUse">
<stop offset="0.15" stop-color="#ADADAD"/>
<stop offset="0.29" stop-color="#CBCBCB"/>
<stop offset="0.44" stop-color="#E2E2E2"/>
<stop offset="0.6" stop-color="#F2F2F2"/>
<stop offset="0.77" stop-color="#FCFCFC"/>
<stop offset="1" stop-color="white"/>
</linearGradient>
<linearGradient id="paint4_linear_249_27469" x1="135.58" y1="115.959" x2="162.535" y2="90.3541" gradientUnits="userSpaceOnUse">
<stop offset="0.14" stop-color="#ADADAD"/>
<stop offset="0.43" stop-color="#C9C9C9"/>
<stop offset="1" stop-color="white"/>
</linearGradient>
<linearGradient id="paint5_linear_249_27469" x1="191.937" y1="83.3061" x2="191.937" y2="101.377" gradientUnits="userSpaceOnUse">
<stop offset="0.0895638" stop-color="#ADADAD"/>
<stop offset="0.240189" stop-color="#CBCBCB"/>
<stop offset="0.425047" stop-color="#E2E2E2"/>
<stop offset="0.536875" stop-color="#F2F2F2"/>
<stop offset="1" stop-color="white"/>
</linearGradient>
<clipPath id="clip0_249_27469">
<rect x="3.25" y="39" width="138" height="138" rx="69" fill="white"/>
</clipPath>
<clipPath id="clip1_249_27469">
<rect x="94.25" y="39" width="138" height="138" rx="69" fill="white"/>
</clipPath>
<clipPath id="clip2_249_27469">
<rect width="138" height="138" fill="white" transform="translate(185.25 39)"/>
</clipPath>
</defs>
</svg>
