<svg width="120" height="120" viewBox="0 0 120 120" fill="none" xmlns="http://www.w3.org/2000/svg">
<path d="M80.8009 25.7923C83.7886 25.7923 86.2109 23.3763 86.2109 20.3961C86.2109 17.4159 83.7886 15 80.8009 15C77.8129 15 75.3906 17.4159 75.3906 20.3961C75.3906 23.3763 77.8129 25.7923 80.8009 25.7923Z" fill="#00246D"/>
<path d="M86.8866 102.013C89.8746 102.013 92.2968 99.597 92.2968 96.6167C92.2968 93.6365 89.8746 91.2207 86.8866 91.2207C83.8988 91.2207 81.4766 93.6365 81.4766 96.6167C81.4766 99.597 83.8988 102.013 86.8866 102.013Z" fill="#00246D"/>
<path d="M82.3474 39.2824C84.8551 39.2824 86.8879 37.2549 86.8879 34.7536C86.8879 32.2524 84.8551 30.2246 82.3474 30.2246C79.8396 30.2246 77.8066 32.2524 77.8066 34.7536C77.8066 37.2549 79.8396 39.2824 82.3474 39.2824Z" fill="#00246D"/>
<path d="M94.4236 41.0167C96.9311 41.0167 98.9641 38.989 98.9641 36.4877C98.9641 33.9867 96.9311 31.959 94.4236 31.959C91.9158 31.959 89.8828 33.9867 89.8828 36.4877C89.8828 38.989 91.9158 41.0167 94.4236 41.0167Z" fill="#00246D"/>
<path d="M80.8037 50.7498C82.938 50.7498 84.6682 49.024 84.6682 46.8955C84.6682 44.7668 82.938 43.041 80.8037 43.041C78.6694 43.041 76.9395 44.7668 76.9395 46.8955C76.9395 49.024 78.6695 50.7498 80.8037 50.7498Z" fill="#00246D"/>
<path d="M92.8779 52.3875C95.0122 52.3875 96.7422 50.6617 96.7422 48.533C96.7422 46.4042 95.0122 44.6787 92.8779 44.6787C90.7437 44.6787 89.0137 46.4042 89.0137 48.533C89.0137 50.6617 90.7437 52.3875 92.8779 52.3875Z" fill="#00246D"/>
<path d="M102.538 56.1462C104.672 56.1462 106.403 54.4205 106.403 52.2917C106.403 50.1633 104.672 48.4375 102.538 48.4375C100.404 48.4375 98.6738 50.1633 98.6738 52.2917C98.6738 54.4205 100.404 56.1462 102.538 56.1462Z" fill="#00246D"/>
<path d="M89.3034 61.6378C91.1706 61.6378 92.6846 60.1278 92.6846 58.2653C92.6846 56.4026 91.1706 54.8926 89.3034 54.8926C87.4359 54.8926 85.9219 56.4026 85.9219 58.2653C85.9219 60.1278 87.4359 61.6378 89.3034 61.6378Z" fill="#00246D"/>
<path d="M77.227 59.9999C79.0945 59.9999 80.6082 58.4899 80.6082 56.6274C80.6082 54.7646 79.0945 53.2549 77.227 53.2549C75.3595 53.2549 73.8457 54.7646 73.8457 56.6274C73.8457 58.4899 75.3595 59.9999 77.227 59.9999Z" fill="#00246D"/>
<path d="M99.0609 65.3966C100.928 65.3966 102.442 63.8866 102.442 62.0241C102.442 60.1614 100.928 58.6514 99.0609 58.6514C97.1934 58.6514 95.6797 60.1614 95.6797 62.0241C95.6797 63.8866 97.1934 65.3966 99.0609 65.3966Z" fill="#00246D"/>
<path d="M84.4725 68.6724C86.073 68.6724 87.3707 67.3781 87.3707 65.7816C87.3707 64.1849 86.073 62.8906 84.4725 62.8906C82.8717 62.8906 81.5742 64.1849 81.5742 65.7816C81.5742 67.3781 82.8717 68.6724 84.4725 68.6724Z" fill="#00246D"/>
<path d="M94.2322 72.3342C95.833 72.3342 97.1305 71.04 97.1305 69.4435C97.1305 67.847 95.833 66.5527 94.2322 66.5527C92.6315 66.5527 91.334 67.847 91.334 69.4435C91.334 71.04 92.6315 72.3342 94.2322 72.3342Z" fill="#00246D"/>
<path d="M72.494 66.9358C74.0947 66.9358 75.3922 65.6415 75.3922 64.045C75.3922 62.4485 74.0947 61.1543 72.494 61.1543C70.8932 61.1543 69.5957 62.4485 69.5957 64.045C69.5957 65.6415 70.8932 66.9358 72.494 66.9358Z" fill="#00246D"/>
<path d="M79.1594 73.3951C80.4931 73.3951 81.5744 72.3164 81.5744 70.9861C81.5744 69.6556 80.4931 68.5771 79.1594 68.5771C77.8254 68.5771 76.7441 69.6556 76.7441 70.9861C76.7441 72.3164 77.8254 73.3951 79.1594 73.3951Z" fill="#00246D"/>
<path d="M83.3147 80.0435C84.4887 80.0435 85.4402 79.0945 85.4402 77.9237C85.4402 76.7527 84.4887 75.8037 83.3147 75.8037C82.1409 75.8037 81.1895 76.7527 81.1895 77.9237C81.1895 79.0945 82.1409 80.0435 83.3147 80.0435Z" fill="#00246D"/>
<path d="M78.1941 81.3928C79.1546 81.3928 79.9331 80.6163 79.9331 79.6583C79.9331 78.7006 79.1546 77.9238 78.1941 77.9238C77.2338 77.9238 76.4551 78.7006 76.4551 79.6583C76.4551 80.6163 77.2338 81.3928 78.1941 81.3928Z" fill="#00246D"/>
<path d="M73.6506 76.3806C74.8244 76.3806 75.7761 75.4314 75.7761 74.2606C75.7761 73.0899 74.8244 72.1406 73.6506 72.1406C72.4769 72.1406 71.5254 73.0899 71.5254 74.2606C71.5254 75.4314 72.4769 76.3806 73.6506 76.3806Z" fill="#00246D"/>
<path d="M67.0832 71.7565C68.417 71.7565 69.4982 70.678 69.4982 69.3475C69.4982 68.017 68.417 66.9385 67.0832 66.9385C65.7492 66.9385 64.668 68.017 64.668 69.3475C64.668 70.678 65.7492 71.7565 67.0832 71.7565Z" fill="#00246D"/>
<path d="M66.9856 53.6383C68.3196 53.6383 69.4008 52.5598 69.4008 51.2293C69.4008 49.8988 68.3196 48.8203 66.9856 48.8203C65.6518 48.8203 64.5703 49.8988 64.5703 51.2293C64.5703 52.5598 65.6518 53.6383 66.9856 53.6383Z" fill="#00246D"/>
<path d="M68.0474 45.1606C69.2211 45.1606 70.1726 44.2114 70.1726 43.0406C70.1726 41.8699 69.2211 40.9209 68.0474 40.9209C66.8736 40.9209 65.9219 41.8699 65.9219 43.0406C65.9219 44.2114 66.8736 45.1606 68.0474 45.1606Z" fill="#00246D"/>
<path d="M70.3699 38.2227C71.3304 38.2227 72.1089 37.4462 72.1089 36.4884C72.1089 35.5304 71.3304 34.7539 70.3699 34.7539C69.4096 34.7539 68.6309 35.5304 68.6309 36.4884C68.6309 37.4462 69.4096 38.2227 70.3699 38.2227Z" fill="#00246D"/>
<path d="M66.3091 34.9468C67.4828 34.9468 68.4343 33.9978 68.4343 32.827C68.4343 31.6563 67.4828 30.707 66.3091 30.707C65.1353 30.707 64.1836 31.6563 64.1836 32.827C64.1836 33.9978 65.1353 34.9468 66.3091 34.9468Z" fill="#00246D"/>
<path d="M88.8195 77.0543C90.1535 77.0543 91.2348 75.9758 91.2348 74.6453C91.2348 73.3148 90.1535 72.2363 88.8195 72.2363C87.4858 72.2363 86.4043 73.3148 86.4043 74.6453C86.4043 75.9758 87.4858 77.0543 88.8195 77.0543Z" fill="#00246D"/>
<path d="M60.8039 32.152C62.1377 32.152 63.2189 31.0735 63.2189 29.743C63.2189 28.4125 62.1377 27.334 60.8039 27.334C59.4699 27.334 58.3887 28.4125 58.3887 29.743C58.3887 31.0735 59.4699 32.152 60.8039 32.152Z" fill="#00246D"/>
<path d="M62.4465 42.3668C63.7803 42.3668 64.8618 41.2883 64.8618 39.9578C64.8618 38.6273 63.7803 37.5488 62.4465 37.5488C61.1125 37.5488 60.0313 38.6273 60.0313 39.9578C60.0313 41.2883 61.1125 42.3668 62.4465 42.3668Z" fill="#00246D"/>
<path d="M59.742 52.0989C61.3428 52.0989 62.6403 50.8046 62.6403 49.2081C62.6403 47.6116 61.3428 46.3174 59.742 46.3174C58.1412 46.3174 56.8438 47.6116 56.8438 49.2081C56.8438 50.8046 58.1413 52.0989 59.742 52.0989Z" fill="#00246D"/>
<path d="M50.9499 52.0978C52.8171 52.0978 54.3311 50.5878 54.3311 48.725C54.3311 46.8625 52.8171 45.3525 50.9499 45.3525C49.0824 45.3525 47.5684 46.8625 47.5684 48.725C47.5684 50.5878 49.0824 52.0978 50.9499 52.0978Z" fill="#00246D"/>
<path d="M40.71 54.4116C42.8442 54.4116 44.5742 52.6861 44.5742 50.5574C44.5742 48.4286 42.8442 46.7031 40.71 46.7031C38.5757 46.7031 36.8457 48.4286 36.8457 50.5574C36.8457 52.6861 38.5757 54.4116 40.71 54.4116Z" fill="#00246D"/>
<path d="M29.5035 59.9035C32.0113 59.9035 34.044 57.8757 34.044 55.3745C34.044 52.8732 32.0113 50.8457 29.5035 50.8457C26.9958 50.8457 24.9629 52.8732 24.9629 55.3745C24.9629 57.8757 26.9958 59.9035 29.5035 59.9035Z" fill="#00246D"/>
<path d="M17.9101 69.1536C20.898 69.1536 23.3201 66.7378 23.3201 63.7576C23.3201 60.7773 20.898 58.3613 17.9101 58.3613C14.9222 58.3613 12.5 60.7773 12.5 63.7576C12.5 66.7378 14.9222 69.1536 17.9101 69.1536Z" fill="#00246D"/>
<path d="M24.9625 48.629C27.4702 48.629 29.503 46.6015 29.503 44.1003C29.503 41.599 27.4702 39.5713 24.9624 39.5713C22.4547 39.5713 20.4219 41.599 20.4219 44.1003C20.4219 46.6015 22.4548 48.629 24.9625 48.629Z" fill="#00246D"/>
<path d="M36.1689 43.1375C38.3032 43.1375 40.0332 41.4117 40.0332 39.283C40.0332 37.1545 38.3032 35.4287 36.1689 35.4287C34.0347 35.4287 32.3047 37.1545 32.3047 39.283C32.3047 41.4117 34.0347 43.1375 36.1689 43.1375Z" fill="#00246D"/>
<path d="M34.5266 32.9226C36.6609 32.9226 38.3909 31.1971 38.3909 29.0684C38.3909 26.9396 36.6609 25.2139 34.5266 25.2139C32.3924 25.2139 30.6621 26.9396 30.6621 29.0684C30.6621 31.1971 32.3924 32.9226 34.5266 32.9226Z" fill="#00246D"/>
<path d="M44.768 30.6105C46.6355 30.6105 48.1492 29.1005 48.1492 27.2377C48.1492 25.3752 46.6355 23.8652 44.768 23.8652C42.9005 23.8652 41.3867 25.3752 41.3867 27.2377C41.3867 29.1005 42.9005 30.6105 44.768 30.6105Z" fill="#00246D"/>
<path d="M53.5584 30.6108C55.1589 30.6108 56.4567 29.3165 56.4567 27.72C56.4567 26.1233 55.1589 24.8291 53.5584 24.8291C51.9577 24.8291 50.6602 26.1233 50.6602 27.72C50.6602 29.3165 51.9577 30.6108 53.5584 30.6108Z" fill="#00246D"/>
<path d="M55.201 40.8225C56.8017 40.8225 58.0992 39.5283 58.0992 37.9318C58.0992 36.3353 56.8017 35.041 55.201 35.041C53.6002 35.041 52.3027 36.3353 52.3027 37.9318C52.3027 39.5283 53.6002 40.8225 55.201 40.8225Z" fill="#00246D"/>
<path d="M46.4088 40.921C48.2761 40.921 49.7901 39.411 49.7901 37.5483C49.7901 35.6858 48.2761 34.1758 46.4088 34.1758C44.5413 34.1758 43.0273 35.6858 43.0273 37.5483C43.0273 39.411 44.5413 40.921 46.4088 40.921Z" fill="#00246D"/>
<path d="M36.8445 66.553C37.8047 66.553 38.5832 65.7765 38.5832 64.8185C38.5832 63.8605 37.8047 63.084 36.8445 63.084C35.884 63.084 35.1055 63.8605 35.1055 64.8185C35.1055 65.7765 35.884 66.553 36.8445 66.553Z" fill="#00246D"/>
<path d="M43.7993 65.6851C44.9731 65.6851 45.9246 64.7361 45.9246 63.5653C45.9246 62.3946 44.9731 61.4453 43.7993 61.4453C42.6253 61.4453 41.6738 62.3946 41.6738 63.5653C41.6738 64.7361 42.6253 65.6851 43.7993 65.6851Z" fill="#00246D"/>
<path d="M51.4309 62.7955C52.7649 62.7955 53.8461 61.717 53.8461 60.3865C53.8461 59.056 52.7649 57.9775 51.4309 57.9775C50.0971 57.9775 49.0156 59.056 49.0156 60.3865C49.0156 61.717 50.0971 62.7955 51.4309 62.7955Z" fill="#00246D"/>
<path d="M53.2693 70.5032C54.8701 70.5032 56.1676 69.2089 56.1676 67.6124C56.1676 66.0159 54.8701 64.7217 53.2693 64.7217C51.6688 64.7217 50.3711 66.0159 50.3711 67.6124C50.3711 69.2089 51.6688 70.5032 53.2693 70.5032Z" fill="#00246D"/>
<path d="M43.9953 72.3324C45.3293 72.3324 46.4106 71.2539 46.4106 69.9237C46.4106 68.5931 45.3293 67.5146 43.9953 67.5146C42.6616 67.5146 41.5801 68.5931 41.5801 69.9237C41.5801 71.2539 42.6616 72.3324 43.9953 72.3324Z" fill="#00246D"/>
<path d="M35.7835 72.2371C36.9575 72.2371 37.909 71.2878 37.909 70.1171C37.909 68.9463 36.9575 67.9971 35.7835 67.9971C34.6097 67.9971 33.6582 68.9463 33.6582 70.1171C33.6582 71.2878 34.6097 72.2371 35.7835 72.2371Z" fill="#00246D"/>
<path d="M35.8779 78.8864C37.2119 78.8864 38.2931 77.8079 38.2931 76.4774C38.2931 75.1471 37.2119 74.0684 35.8779 74.0684C34.5441 74.0684 33.4629 75.1471 33.4629 76.4774C33.4629 77.8079 34.5441 78.8864 35.8779 78.8864Z" fill="#00246D"/>
<path d="M45.7322 80.1379C47.333 80.1379 48.6305 78.8437 48.6305 77.2472C48.6305 75.6507 47.333 74.3564 45.7322 74.3564C44.1315 74.3564 42.834 75.6507 42.834 77.2472C42.834 78.8437 44.1315 80.1379 45.7322 80.1379Z" fill="#00246D"/>
<path d="M57.2311 78.8859C59.0984 78.8859 60.6124 77.3759 60.6124 75.5134C60.6124 73.6506 59.0984 72.1406 57.2311 72.1406C55.3636 72.1406 53.8496 73.6506 53.8496 75.5134C53.8496 77.3759 55.3636 78.8859 57.2311 78.8859Z" fill="#00246D"/>
<path d="M63.9912 87.2693C66.1255 87.2693 67.8554 85.5438 67.8554 83.415C67.8554 81.2863 66.1255 79.5605 63.9912 79.5605C61.857 79.5605 60.127 81.2863 60.127 83.415C60.127 85.5438 61.857 87.2693 63.9912 87.2693Z" fill="#00246D"/>
<path d="M49.7895 88.4257C51.657 88.4257 53.1707 86.9157 53.1707 85.0532C53.1707 83.1904 51.657 81.6807 49.7895 81.6807C47.922 81.6807 46.4082 83.1904 46.4082 85.0532C46.4082 86.9157 47.922 88.4257 49.7895 88.4257Z" fill="#00246D"/>
<path d="M41.7721 94.9774C43.6394 94.9774 45.1534 93.4674 45.1534 91.6049C45.1534 89.7422 43.6394 88.2324 41.7721 88.2324C39.9046 88.2324 38.3906 89.7422 38.3906 91.6049C38.3906 93.4674 39.9046 94.9774 41.7721 94.9774Z" fill="#00246D"/>
<path d="M48.4365 103.458C50.5708 103.458 52.301 101.732 52.301 99.6035C52.301 97.4748 50.5708 95.749 48.4365 95.749C46.3023 95.749 44.5723 97.4748 44.5723 99.6035C44.5723 101.732 46.3023 103.458 48.4365 103.458Z" fill="#00246D"/>
<path d="M66.2126 105C68.7204 105 70.7531 102.972 70.7531 100.471C70.7531 97.9699 68.7204 95.9424 66.2126 95.9424C63.7049 95.9424 61.6719 97.9699 61.6719 100.471C61.6719 102.972 63.7049 105 66.2126 105Z" fill="#00246D"/>
<path d="M56.456 96.9041C58.5903 96.9041 60.3205 95.1783 60.3205 93.0498C60.3205 90.9211 58.5903 89.1953 56.456 89.1953C54.322 89.1953 52.5918 90.9211 52.5918 93.0498C52.5918 95.1783 54.322 96.9041 56.456 96.9041Z" fill="#00246D"/>
<path d="M73.6538 95.3644C76.1615 95.3644 78.1945 93.3366 78.1945 90.8354C78.1945 88.3341 76.1615 86.3066 73.6538 86.3066C71.1463 86.3066 69.1133 88.3341 69.1133 90.8354C69.1133 93.3366 71.1463 95.3644 73.6538 95.3644Z" fill="#00246D"/>
<path d="M37.7147 86.6926C39.3152 86.6926 40.6129 85.3984 40.6129 83.8019C40.6129 82.2054 39.3152 80.9111 37.7147 80.9111C36.1139 80.9111 34.8164 82.2054 34.8164 83.8019C34.8164 85.3984 36.1139 86.6926 37.7147 86.6926Z" fill="#00246D"/>
</svg>
