<svg width="321" height="138" viewBox="0 0 321 138" fill="none" xmlns="http://www.w3.org/2000/svg">
<g clip-path="url(#clip0_4591_17344)">
<path d="M69.25 138C107.358 138 138.25 107.108 138.25 69C138.25 30.8924 107.358 0 69.25 0C31.1424 0 0.25 30.8924 0.25 69C0.25 107.108 31.1424 138 69.25 138Z" fill="#0052B4"/>
<path d="M69.2504 27L71.4845 33.8755H78.7133L72.8648 38.1246L75.0989 45.0001L69.2504 40.7507L63.4015 45.0001L65.6357 38.1246L59.7871 33.8755H67.0162L69.2504 27Z" fill="#FFDA44"/>
<path d="M39.552 39.3013L45.9938 42.5831L51.1054 37.4717L49.9742 44.6116L56.4157 47.8936L49.2756 49.0246L48.1446 56.165L44.8625 49.7235L37.7227 50.8547L42.8343 45.7431L39.552 39.3013Z" fill="#FFDA44"/>
<path d="M27.25 69.0004L34.1255 66.7662V59.5371L38.3744 65.3859L45.2501 63.1518L41.0004 69.0004L45.2501 74.8489L38.3744 72.615L34.1255 78.4636V71.2345L27.25 69.0004Z" fill="#FFDA44"/>
<path d="M39.552 98.6985L42.834 92.2567L37.7227 87.145L44.8628 88.2765L48.1444 81.835L49.2756 88.9751L56.4155 90.1061L49.9747 93.3882L51.1054 100.528L45.9938 95.4164L39.552 98.6985Z" fill="#FFDA44"/>
<path d="M69.2504 111L67.0159 104.124H59.7871L65.6359 99.8749L63.4015 93L69.2504 97.2489L75.0989 93L72.8648 99.8749L78.7133 104.124H71.4842L69.2504 111Z" fill="#FFDA44"/>
<path d="M98.9492 98.6985L92.5076 95.4166L87.3957 100.528L88.5269 93.3879L82.0859 90.1061L89.2258 88.9751L90.3568 81.835L93.6386 88.2765L100.778 87.145L95.6668 92.2572L98.9492 98.6985Z" fill="#FFDA44"/>
<path d="M111.25 69.0004L104.374 71.2345V78.4636L100.125 72.6148L93.25 74.8489L97.4992 69.0004L93.25 63.1518L100.125 65.3859L104.374 59.5371V66.7665L111.25 69.0004Z" fill="#FFDA44"/>
<path d="M98.9492 39.301L95.6671 45.7428L100.779 50.8544L93.6383 49.723L90.3568 56.1645L89.2258 49.0243L82.0859 47.8931L88.5269 44.6113L87.3957 37.4717L92.5079 42.5831L98.9492 39.301Z" fill="#FFDA44"/>
</g>
<g clip-path="url(#clip1_4591_17344)">
<path d="M160.25 138C198.358 138 229.25 107.108 229.25 69C229.25 30.8924 198.358 0 160.25 0C122.142 0 91.25 30.8924 91.25 69C91.25 107.108 122.142 138 160.25 138Z" fill="url(#paint0_linear_4591_17344)"/>
<path d="M182.872 66.9424C187.225 72.7511 174.479 83.9796 177.343 79.342H150.193C147.256 75.5012 145.236 71.3007 144.266 66.9424H182.872Z" fill="url(#paint1_linear_4591_17344)"/>
<path d="M175.003 100.413C171.144 103.489 166.973 106.151 162.558 108.353L160.398 109.441L158.226 108.358C137.799 98.1075 125.613 80.4518 125.613 61.103V38.3857H138.071V61.103C138.069 62.5521 138.167 63.9995 138.364 65.4351C139.933 77.1899 147.867 88.0339 160.352 95.3354C160.363 95.3466 160.377 95.3559 160.391 95.3632C160.404 95.3559 160.411 95.3486 160.425 95.3427L160.477 95.3091C164.99 97.8328 169.903 99.5594 175.003 100.413Z" fill="url(#paint2_linear_4591_17344)"/>
<path d="M194.797 66.9424C194.221 71.4326 192.989 75.8141 191.142 79.9473C187.727 87.6216 182.238 94.6058 175.008 100.416C169.912 99.5615 165 97.8349 160.49 95.312C162.119 94.3515 163.699 93.3092 165.223 92.189C165.375 92.0906 165.521 91.9842 165.661 91.8703C174.1 85.7934 180.18 76.9872 182.871 66.9424H194.797Z" fill="url(#paint3_linear_4591_17344)"/>
<path d="M195.184 38.3906L138.072 38.3906V50.8429L195.184 50.8429V38.3906Z" fill="url(#paint4_linear_4591_17344)"/>
<path d="M195.183 50.8428V61.1034C195.183 61.5274 195.17 61.9529 195.157 62.3783H182.691C182.704 61.9524 182.71 61.5274 182.71 61.1034V50.8428H195.183Z" fill="url(#paint5_linear_4591_17344)"/>
</g>
<path d="M275.171 29.6611C278.607 29.6611 281.393 26.8827 281.393 23.4555C281.393 20.0283 278.607 17.25 275.171 17.25C271.735 17.25 268.949 20.0283 268.949 23.4555C268.949 26.8827 271.735 29.6611 275.171 29.6611Z" fill="#00246D"/>
<path d="M282.171 117.315C285.607 117.315 288.393 114.537 288.393 111.11C288.393 107.682 285.607 104.904 282.171 104.904C278.735 104.904 275.949 107.682 275.949 111.11C275.949 114.537 278.735 117.315 282.171 117.315Z" fill="#00246D"/>
<path d="M276.95 45.1742C279.834 45.1742 282.172 42.8426 282.172 39.9662C282.172 37.0897 279.834 34.7578 276.95 34.7578C274.066 34.7578 271.729 37.0897 271.729 39.9662C271.729 42.8426 274.066 45.1742 276.95 45.1742Z" fill="#00246D"/>
<path d="M290.837 47.1693C293.721 47.1693 296.059 44.8374 296.059 41.961C296.059 39.0848 293.721 36.7529 290.837 36.7529C287.953 36.7529 285.615 39.0848 285.615 41.961C285.615 44.8374 287.953 47.1693 290.837 47.1693Z" fill="#00246D"/>
<path d="M275.172 58.3621C277.627 58.3621 279.617 56.3775 279.617 53.9297C279.617 51.4817 277.627 49.4971 275.172 49.4971C272.718 49.4971 270.729 51.4817 270.729 53.9297C270.729 56.3775 272.718 58.3621 275.172 58.3621Z" fill="#00246D"/>
<path d="M289.059 60.2459C291.514 60.2459 293.503 58.2613 293.503 55.8132C293.503 53.3652 291.514 51.3809 289.059 51.3809C286.605 51.3809 284.615 53.3652 284.615 55.8132C284.615 58.2613 286.605 60.2459 289.059 60.2459Z" fill="#00246D"/>
<path d="M300.169 64.5682C302.623 64.5682 304.613 62.5836 304.613 60.1355C304.613 57.6877 302.623 55.7031 300.169 55.7031C297.714 55.7031 295.725 57.6877 295.725 60.1355C295.725 62.5836 297.714 64.5682 300.169 64.5682Z" fill="#00246D"/>
<path d="M284.949 70.883C287.097 70.883 288.838 69.1465 288.838 67.0046C288.838 64.8625 287.097 63.126 284.949 63.126C282.802 63.126 281.061 64.8625 281.061 67.0046C281.061 69.1465 282.802 70.883 284.949 70.883Z" fill="#00246D"/>
<path d="M271.06 68.9989C273.208 68.9989 274.949 67.2624 274.949 65.1206C274.949 62.9784 273.208 61.2422 271.06 61.2422C268.913 61.2422 267.172 62.9784 267.172 65.1206C267.172 67.2624 268.913 68.9989 271.06 68.9989Z" fill="#00246D"/>
<path d="M296.17 75.2053C298.317 75.2053 300.058 73.4688 300.058 71.3269C300.058 69.1847 298.317 67.4482 296.17 67.4482C294.022 67.4482 292.281 69.1847 292.281 71.3269C292.281 73.4688 294.022 75.2053 296.17 75.2053Z" fill="#00246D"/>
<path d="M279.394 78.9732C281.234 78.9732 282.727 77.4848 282.727 75.6489C282.727 73.8126 281.234 72.3242 279.394 72.3242C277.553 72.3242 276.061 73.8126 276.061 75.6489C276.061 77.4848 277.553 78.9732 279.394 78.9732Z" fill="#00246D"/>
<path d="M290.616 83.1849C292.457 83.1849 293.949 81.6965 293.949 79.8605C293.949 78.0245 292.457 76.5361 290.616 76.5361C288.775 76.5361 287.283 78.0245 287.283 79.8605C287.283 81.6965 288.775 83.1849 290.616 83.1849Z" fill="#00246D"/>
<path d="M265.616 76.9768C267.457 76.9768 268.949 75.4885 268.949 73.6525C268.949 71.8165 267.457 70.3281 265.616 70.3281C263.775 70.3281 262.283 71.8165 262.283 73.6525C262.283 75.4885 263.775 76.9768 265.616 76.9768Z" fill="#00246D"/>
<path d="M273.281 84.404C274.815 84.404 276.059 83.1634 276.059 81.6336C276.059 80.1036 274.815 78.8633 273.281 78.8633C271.747 78.8633 270.504 80.1036 270.504 81.6336C270.504 83.1634 271.747 84.404 273.281 84.404Z" fill="#00246D"/>
<path d="M278.061 92.0495C279.411 92.0495 280.506 90.9582 280.506 89.6118C280.506 88.2652 279.411 87.1738 278.061 87.1738C276.711 87.1738 275.617 88.2652 275.617 89.6118C275.617 90.9582 276.711 92.0495 278.061 92.0495Z" fill="#00246D"/>
<path d="M272.174 93.6017C273.278 93.6017 274.174 92.7087 274.174 91.607C274.174 90.5056 273.278 89.6123 272.174 89.6123C271.069 89.6123 270.174 90.5056 270.174 91.607C270.174 92.7087 271.069 93.6017 272.174 93.6017Z" fill="#00246D"/>
<path d="M266.95 87.8379C268.3 87.8379 269.394 86.7463 269.394 85.3999C269.394 84.0535 268.3 82.9619 266.95 82.9619C265.6 82.9619 264.506 84.0535 264.506 85.3999C264.506 86.7463 265.6 87.8379 266.95 87.8379Z" fill="#00246D"/>
<path d="M259.397 82.5202C260.93 82.5202 262.174 81.2799 262.174 79.7498C262.174 78.2198 260.93 76.9795 259.397 76.9795C257.863 76.9795 256.619 78.2198 256.619 79.7498C256.619 81.2799 257.863 82.5202 259.397 82.5202Z" fill="#00246D"/>
<path d="M259.283 61.6843C260.817 61.6843 262.061 60.444 262.061 58.9139C262.061 57.3838 260.817 56.1436 259.283 56.1436C257.75 56.1436 256.506 57.3838 256.506 58.9139C256.506 60.444 257.75 61.6843 259.283 61.6843Z" fill="#00246D"/>
<path d="M260.505 51.9343C261.855 51.9343 262.949 50.8427 262.949 49.4963C262.949 48.1499 261.855 47.0586 260.505 47.0586C259.155 47.0586 258.061 48.1499 258.061 49.4963C258.061 50.8427 259.155 51.9343 260.505 51.9343Z" fill="#00246D"/>
<path d="M263.174 43.9559C264.278 43.9559 265.174 43.0629 265.174 41.9615C265.174 40.8598 264.278 39.9668 263.174 39.9668C262.069 39.9668 261.174 40.8598 261.174 41.9615C261.174 43.0629 262.069 43.9559 263.174 43.9559Z" fill="#00246D"/>
<path d="M258.507 40.1882C259.857 40.1882 260.951 39.0969 260.951 37.7505C260.951 36.4041 259.857 35.3125 258.507 35.3125C257.157 35.3125 256.062 36.4041 256.062 37.7505C256.062 39.0969 257.157 40.1882 258.507 40.1882Z" fill="#00246D"/>
<path d="M284.393 88.612C285.927 88.612 287.17 87.3717 287.17 85.8416C287.17 84.3116 285.927 83.0713 284.393 83.0713C282.859 83.0713 281.615 84.3116 281.615 85.8416C281.615 87.3717 282.859 88.612 284.393 88.612Z" fill="#00246D"/>
<path d="M252.174 36.9753C253.708 36.9753 254.951 35.735 254.951 34.2049C254.951 32.6748 253.708 31.4346 252.174 31.4346C250.64 31.4346 249.396 32.6748 249.396 34.2049C249.396 35.735 250.64 36.9753 252.174 36.9753Z" fill="#00246D"/>
<path d="M254.065 48.7214C255.598 48.7214 256.842 47.4811 256.842 45.951C256.842 44.4209 255.598 43.1807 254.065 43.1807C252.531 43.1807 251.287 44.4209 251.287 45.951C251.287 47.4811 252.531 48.7214 254.065 48.7214Z" fill="#00246D"/>
<path d="M250.952 59.9134C252.793 59.9134 254.285 58.425 254.285 56.589C254.285 54.753 252.793 53.2646 250.952 53.2646C249.111 53.2646 247.619 54.753 247.619 56.589C247.619 58.425 249.111 59.9134 250.952 59.9134Z" fill="#00246D"/>
<path d="M240.842 59.9123C242.989 59.9123 244.73 58.1758 244.73 56.0337C244.73 53.8918 242.989 52.1553 240.842 52.1553C238.694 52.1553 236.953 53.8918 236.953 56.0337C236.953 58.1758 238.694 59.9123 240.842 59.9123Z" fill="#00246D"/>
<path d="M229.067 62.5728C231.521 62.5728 233.511 60.5885 233.511 58.1404C233.511 55.6923 231.521 53.708 229.067 53.708C226.613 53.708 224.623 55.6923 224.623 58.1404C224.623 60.5885 226.613 62.5728 229.067 62.5728Z" fill="#00246D"/>
<path d="M216.179 68.8891C219.063 68.8891 221.4 66.5572 221.4 63.6807C221.4 60.8043 219.063 58.4727 216.179 58.4727C213.295 58.4727 210.957 60.8043 210.957 63.6807C210.957 66.5572 213.295 68.8891 216.179 68.8891Z" fill="#00246D"/>
<path d="M202.847 79.5273C206.283 79.5273 209.068 76.7492 209.068 73.3219C209.068 69.8946 206.283 67.1162 202.847 67.1162C199.411 67.1162 196.625 69.8946 196.625 73.3219C196.625 76.7492 199.411 79.5273 202.847 79.5273Z" fill="#00246D"/>
<path d="M210.958 55.9232C213.842 55.9232 216.18 53.5916 216.18 50.7152C216.18 47.8387 213.842 45.5068 210.958 45.5068C208.074 45.5068 205.736 47.8387 205.736 50.7152C205.736 53.5916 208.074 55.9232 210.958 55.9232Z" fill="#00246D"/>
<path d="M223.844 49.6082C226.299 49.6082 228.288 47.6236 228.288 45.1756C228.288 42.7278 226.299 40.7432 223.844 40.7432C221.39 40.7432 219.4 42.7278 219.4 45.1756C219.4 47.6236 221.39 49.6082 223.844 49.6082Z" fill="#00246D"/>
<path d="M221.954 37.8602C224.408 37.8602 226.398 35.8759 226.398 33.4278C226.398 30.9797 224.408 28.9951 221.954 28.9951C219.5 28.9951 217.51 30.9797 217.51 33.4278C217.51 35.8759 219.5 37.8602 221.954 37.8602Z" fill="#00246D"/>
<path d="M233.734 35.2014C235.882 35.2014 237.623 33.4649 237.623 31.3227C237.623 29.1808 235.882 27.4443 233.734 27.4443C231.587 27.4443 229.846 29.1808 229.846 31.3227C229.846 33.4649 231.587 35.2014 233.734 35.2014Z" fill="#00246D"/>
<path d="M243.841 35.2026C245.681 35.2026 247.174 33.7142 247.174 31.8782C247.174 30.042 245.681 28.5537 243.841 28.5537C242 28.5537 240.508 30.042 240.508 31.8782C240.508 33.7142 242 35.2026 243.841 35.2026Z" fill="#00246D"/>
<path d="M245.731 46.9466C247.572 46.9466 249.064 45.4582 249.064 43.6222C249.064 41.7862 247.572 40.2979 245.731 40.2979C243.891 40.2979 242.398 41.7862 242.398 43.6222C242.398 45.4582 243.891 46.9466 245.731 46.9466Z" fill="#00246D"/>
<path d="M235.619 47.0598C237.767 47.0598 239.508 45.3233 239.508 43.1811C239.508 41.0392 237.767 39.3027 235.619 39.3027C233.472 39.3027 231.73 41.0392 231.73 43.1811C231.73 45.3233 233.472 47.0598 235.619 47.0598Z" fill="#00246D"/>
<path d="M224.621 76.5352C225.725 76.5352 226.621 75.6423 226.621 74.5406C226.621 73.4389 225.725 72.5459 224.621 72.5459C223.516 72.5459 222.621 73.4389 222.621 74.5406C222.621 75.6423 223.516 76.5352 224.621 76.5352Z" fill="#00246D"/>
<path d="M232.62 75.5378C233.97 75.5378 235.064 74.4465 235.064 73.1001C235.064 71.7537 233.97 70.6621 232.62 70.6621C231.27 70.6621 230.176 71.7537 230.176 73.1001C230.176 74.4465 231.27 75.5378 232.62 75.5378Z" fill="#00246D"/>
<path d="M241.397 72.2145C242.931 72.2145 244.174 70.9742 244.174 69.4442C244.174 67.9141 242.931 66.6738 241.397 66.6738C239.863 66.6738 238.619 67.9141 238.619 69.4442C238.619 70.9742 239.863 72.2145 241.397 72.2145Z" fill="#00246D"/>
<path d="M243.509 81.0784C245.35 81.0784 246.842 79.59 246.842 77.754C246.842 75.9181 245.35 74.4297 243.509 74.4297C241.668 74.4297 240.176 75.9181 240.176 77.754C240.176 79.59 241.668 81.0784 243.509 81.0784Z" fill="#00246D"/>
<path d="M232.844 83.182C234.378 83.182 235.621 81.9417 235.621 80.412C235.621 78.8819 234.378 77.6416 232.844 77.6416C231.31 77.6416 230.066 78.8819 230.066 80.412C230.066 81.9417 231.31 83.182 232.844 83.182Z" fill="#00246D"/>
<path d="M223.399 83.0723C224.749 83.0723 225.843 81.9807 225.843 80.6343C225.843 79.2879 224.749 78.1963 223.399 78.1963C222.049 78.1963 220.955 79.2879 220.955 80.6343C220.955 81.9807 222.049 83.0723 223.399 83.0723Z" fill="#00246D"/>
<path d="M223.508 90.7194C225.042 90.7194 226.285 89.4791 226.285 87.9491C226.285 86.4193 225.042 85.1787 223.508 85.1787C221.974 85.1787 220.73 86.4193 220.73 87.9491C220.73 89.4791 221.974 90.7194 223.508 90.7194Z" fill="#00246D"/>
<path d="M234.843 92.1595C236.684 92.1595 238.176 90.6711 238.176 88.8351C238.176 86.9991 236.684 85.5107 234.843 85.5107C233.002 85.5107 231.51 86.9991 231.51 88.8351C231.51 90.6711 233.002 92.1595 234.843 92.1595Z" fill="#00246D"/>
<path d="M248.066 90.719C250.214 90.719 251.955 88.9825 251.955 86.8406C251.955 84.6984 250.214 82.9619 248.066 82.9619C245.919 82.9619 244.178 84.6984 244.178 86.8406C244.178 88.9825 245.919 90.719 248.066 90.719Z" fill="#00246D"/>
<path d="M255.84 100.359C258.295 100.359 260.284 98.3749 260.284 95.9268C260.284 93.4788 258.295 91.4941 255.84 91.4941C253.386 91.4941 251.396 93.4788 251.396 95.9268C251.396 98.3749 253.386 100.359 255.84 100.359Z" fill="#00246D"/>
<path d="M239.508 101.69C241.655 101.69 243.396 99.9538 243.396 97.812C243.396 95.6698 241.655 93.9336 239.508 93.9336C237.36 93.9336 235.619 95.6698 235.619 97.812C235.619 99.9538 237.36 101.69 239.508 101.69Z" fill="#00246D"/>
<path d="M230.289 109.225C232.436 109.225 234.178 107.488 234.178 105.346C234.178 103.204 232.436 101.468 230.289 101.468C228.141 101.468 226.4 103.204 226.4 105.346C226.4 107.488 228.141 109.225 230.289 109.225Z" fill="#00246D"/>
<path d="M237.952 118.977C240.406 118.977 242.396 116.993 242.396 114.545C242.396 112.097 240.406 110.112 237.952 110.112C235.497 110.112 233.508 112.097 233.508 114.545C233.508 116.993 235.497 118.977 237.952 118.977Z" fill="#00246D"/>
<path d="M258.396 120.75C261.28 120.75 263.617 118.418 263.617 115.542C263.617 112.666 261.28 110.334 258.396 110.334C255.512 110.334 253.174 112.666 253.174 115.542C253.174 118.418 255.512 120.75 258.396 120.75Z" fill="#00246D"/>
<path d="M247.176 111.44C249.631 111.44 251.62 109.456 251.62 107.008C251.62 104.56 249.631 102.575 247.176 102.575C244.722 102.575 242.732 104.56 242.732 107.008C242.732 109.456 244.722 111.44 247.176 111.44Z" fill="#00246D"/>
<path d="M266.952 109.668C269.836 109.668 272.174 107.336 272.174 104.46C272.174 101.584 269.836 99.252 266.952 99.252C264.068 99.252 261.73 101.584 261.73 104.46C261.73 107.336 264.068 109.668 266.952 109.668Z" fill="#00246D"/>
<path d="M225.622 99.6956C227.463 99.6956 228.955 98.2072 228.955 96.3712C228.955 94.5353 227.463 93.0469 225.622 93.0469C223.781 93.0469 222.289 94.5353 222.289 96.3712C222.289 98.2072 223.781 99.6956 225.622 99.6956Z" fill="#00246D"/>
<defs>
<linearGradient id="paint0_linear_4591_17344" x1="229.25" y1="6.49911e-06" x2="64.1178" y2="52.2489" gradientUnits="userSpaceOnUse">
<stop stop-color="#000756"/>
<stop offset="1" stop-color="#0042B8"/>
</linearGradient>
<linearGradient id="paint1_linear_4591_17344" x1="195.455" y1="80.9371" x2="147.95" y2="68.134" gradientUnits="userSpaceOnUse">
<stop offset="0.14" stop-color="#ADADAD"/>
<stop offset="0.29" stop-color="#CBCBCB"/>
<stop offset="0.43" stop-color="#E2E2E2"/>
<stop offset="0.59" stop-color="#F2F2F2"/>
<stop offset="0.77" stop-color="#FCFCFC"/>
<stop offset="1" stop-color="white"/>
</linearGradient>
<linearGradient id="paint2_linear_4591_17344" x1="177.915" y1="121.503" x2="110.765" y2="27.8458" gradientUnits="userSpaceOnUse">
<stop stop-color="#ADADAD"/>
<stop offset="0.17" stop-color="#CBCBCB"/>
<stop offset="0.34" stop-color="#E2E2E2"/>
<stop offset="0.52" stop-color="#F2F2F2"/>
<stop offset="0.73" stop-color="#FCFCFC"/>
<stop offset="1" stop-color="white"/>
</linearGradient>
<linearGradient id="paint3_linear_4591_17344" x1="161.264" y1="107.329" x2="193.158" y2="66.8985" gradientUnits="userSpaceOnUse">
<stop offset="0.15" stop-color="#ADADAD"/>
<stop offset="0.29" stop-color="#CBCBCB"/>
<stop offset="0.44" stop-color="#E2E2E2"/>
<stop offset="0.6" stop-color="#F2F2F2"/>
<stop offset="0.77" stop-color="#FCFCFC"/>
<stop offset="1" stop-color="white"/>
</linearGradient>
<linearGradient id="paint4_linear_4591_17344" x1="132.582" y1="76.9609" x2="159.537" y2="51.3561" gradientUnits="userSpaceOnUse">
<stop offset="0.14" stop-color="#ADADAD"/>
<stop offset="0.43" stop-color="#C9C9C9"/>
<stop offset="1" stop-color="white"/>
</linearGradient>
<linearGradient id="paint5_linear_4591_17344" x1="188.937" y1="44.3071" x2="188.937" y2="62.3783" gradientUnits="userSpaceOnUse">
<stop offset="0.0895638" stop-color="#ADADAD"/>
<stop offset="0.240189" stop-color="#CBCBCB"/>
<stop offset="0.425047" stop-color="#E2E2E2"/>
<stop offset="0.536875" stop-color="#F2F2F2"/>
<stop offset="1" stop-color="white"/>
</linearGradient>
<clipPath id="clip0_4591_17344">
<rect x="0.25" width="138" height="138" rx="69" fill="white"/>
</clipPath>
<clipPath id="clip1_4591_17344">
<rect x="91.25" width="138" height="138" rx="69" fill="white"/>
</clipPath>
</defs>
</svg>
