<svg width="400" height="400" viewBox="0 0 400 400" fill="none" xmlns="http://www.w3.org/2000/svg">
<path d="M269.335 85.9742C279.294 85.9742 287.368 77.921 287.368 67.9871C287.368 58.0531 279.294 50 269.335 50C259.375 50 251.301 58.0531 251.301 67.9871C251.301 77.921 259.375 85.9742 269.335 85.9742Z" fill="#00246D"/>
<path d="M289.623 340.043C299.583 340.043 307.657 331.99 307.657 322.056C307.657 312.122 299.583 304.069 289.623 304.069C279.664 304.069 271.59 312.122 271.59 322.056C271.59 331.99 279.664 340.043 289.623 340.043Z" fill="#00246D"/>
<path d="M274.493 130.941C282.852 130.941 289.628 124.182 289.628 115.845C289.628 107.507 282.852 100.748 274.493 100.748C266.134 100.748 259.357 107.507 259.357 115.845C259.357 124.182 266.134 130.941 274.493 130.941Z" fill="#00246D"/>
<path d="M314.745 136.724C323.104 136.724 329.88 129.965 329.88 121.627C329.88 113.29 323.104 106.531 314.745 106.531C306.386 106.531 299.609 113.29 299.609 121.627C299.609 129.965 306.386 136.724 314.745 136.724Z" fill="#00246D"/>
<path d="M269.342 169.165C276.456 169.165 282.223 163.412 282.223 156.317C282.223 149.221 276.456 143.469 269.342 143.469C262.228 143.469 256.461 149.221 256.461 156.317C256.461 163.412 262.228 169.165 269.342 169.165Z" fill="#00246D"/>
<path d="M309.594 174.626C316.708 174.626 322.475 168.873 322.475 161.777C322.475 154.681 316.708 148.93 309.594 148.93C302.48 148.93 296.713 154.681 296.713 161.777C296.713 168.873 302.48 174.626 309.594 174.626Z" fill="#00246D"/>
<path d="M341.796 187.154C348.909 187.154 354.677 181.401 354.677 174.306C354.677 167.211 348.909 161.458 341.796 161.458C334.682 161.458 328.914 167.211 328.914 174.306C328.914 181.401 334.682 187.154 341.796 187.154Z" fill="#00246D"/>
<path d="M297.682 205.459C303.906 205.459 308.953 200.425 308.953 194.217C308.953 188.008 303.906 182.975 297.682 182.975C291.457 182.975 286.41 188.008 286.41 194.217C286.41 200.425 291.457 205.459 297.682 205.459Z" fill="#00246D"/>
<path d="M257.421 199.998C263.646 199.998 268.692 194.965 268.692 188.756C268.692 182.547 263.646 177.515 257.421 177.515C251.196 177.515 246.15 182.547 246.15 188.756C246.15 194.965 251.196 199.998 257.421 199.998Z" fill="#00246D"/>
<path d="M330.201 217.987C336.426 217.987 341.471 212.954 341.471 206.745C341.471 200.536 336.426 195.503 330.201 195.503C323.976 195.503 318.93 200.536 318.93 206.745C318.93 212.954 323.976 217.987 330.201 217.987Z" fill="#00246D"/>
<path d="M281.577 228.907C286.912 228.907 291.238 224.593 291.238 219.271C291.238 213.949 286.912 209.635 281.577 209.635C276.241 209.635 271.916 213.949 271.916 219.271C271.916 224.593 276.241 228.907 281.577 228.907Z" fill="#00246D"/>
<path d="M314.104 241.114C319.44 241.114 323.765 236.8 323.765 231.479C323.765 226.157 319.44 221.843 314.104 221.843C308.768 221.843 304.443 226.157 304.443 231.479C304.443 236.8 308.768 241.114 314.104 241.114Z" fill="#00246D"/>
<path d="M241.643 223.121C246.979 223.121 251.304 218.807 251.304 213.485C251.304 208.164 246.979 203.85 241.643 203.85C236.307 203.85 231.982 208.164 231.982 213.485C231.982 218.807 236.307 223.121 241.643 223.121Z" fill="#00246D"/>
<path d="M263.861 244.649C268.307 244.649 271.911 241.053 271.911 236.619C271.911 232.184 268.307 228.589 263.861 228.589C259.415 228.589 255.811 232.184 255.811 236.619C255.811 241.053 259.415 244.649 263.861 244.649Z" fill="#00246D"/>
<path d="M277.715 266.81C281.628 266.81 284.8 263.647 284.8 259.744C284.8 255.841 281.628 252.678 277.715 252.678C273.803 252.678 270.631 255.841 270.631 259.744C270.631 263.647 273.803 266.81 277.715 266.81Z" fill="#00246D"/>
<path d="M260.646 271.308C263.848 271.308 266.443 268.72 266.443 265.527C266.443 262.334 263.848 259.745 260.646 259.745C257.445 259.745 254.85 262.334 254.85 265.527C254.85 268.72 257.445 271.308 260.646 271.308Z" fill="#00246D"/>
<path d="M245.504 254.603C249.417 254.603 252.589 251.439 252.589 247.536C252.589 243.634 249.417 240.47 245.504 240.47C241.592 240.47 238.42 243.634 238.42 247.536C238.42 251.439 241.592 254.603 245.504 254.603Z" fill="#00246D"/>
<path d="M223.611 239.188C228.057 239.188 231.661 235.593 231.661 231.158C231.661 226.723 228.057 223.128 223.611 223.128C219.165 223.128 215.561 226.723 215.561 231.158C215.561 235.593 219.165 239.188 223.611 239.188Z" fill="#00246D"/>
<path d="M223.285 178.795C227.732 178.795 231.336 175.2 231.336 170.765C231.336 166.33 227.732 162.735 223.285 162.735C218.839 162.735 215.234 166.33 215.234 170.765C215.234 175.2 218.839 178.795 223.285 178.795Z" fill="#00246D"/>
<path d="M226.827 150.534C230.74 150.534 233.911 147.37 233.911 143.467C233.911 139.565 230.74 136.401 226.827 136.401C222.915 136.401 219.742 139.565 219.742 143.467C219.742 147.37 222.915 150.534 226.827 150.534Z" fill="#00246D"/>
<path d="M234.564 127.407C237.766 127.407 240.361 124.819 240.361 121.626C240.361 118.433 237.766 115.845 234.564 115.845C231.363 115.845 228.768 118.433 228.768 121.626C228.768 124.819 231.363 127.407 234.564 127.407Z" fill="#00246D"/>
<path d="M221.034 116.488C224.947 116.488 228.118 113.325 228.118 109.422C228.118 105.52 224.947 102.355 221.034 102.355C217.122 102.355 213.949 105.52 213.949 109.422C213.949 113.325 217.122 116.488 221.034 116.488Z" fill="#00246D"/>
<path d="M296.063 256.847C300.509 256.847 304.113 253.252 304.113 248.817C304.113 244.382 300.509 240.787 296.063 240.787C291.617 240.787 288.012 244.382 288.012 248.817C288.012 253.252 291.617 256.847 296.063 256.847Z" fill="#00246D"/>
<path d="M202.68 107.173C207.126 107.173 210.73 103.578 210.73 99.1433C210.73 94.7083 207.126 91.1133 202.68 91.1133C198.233 91.1133 194.629 94.7083 194.629 99.1433C194.629 103.578 198.233 107.173 202.68 107.173Z" fill="#00246D"/>
<path d="M208.156 141.222C212.602 141.222 216.207 137.627 216.207 133.192C216.207 128.757 212.602 125.162 208.156 125.162C203.71 125.162 200.105 128.757 200.105 133.192C200.105 137.627 203.71 141.222 208.156 141.222Z" fill="#00246D"/>
<path d="M199.139 173.662C204.475 173.662 208.8 169.348 208.8 164.026C208.8 158.705 204.475 154.391 199.139 154.391C193.804 154.391 189.479 158.705 189.479 164.026C189.479 169.348 193.804 173.662 199.139 173.662Z" fill="#00246D"/>
<path d="M169.832 173.66C176.056 173.66 181.103 168.627 181.103 162.417C181.103 156.209 176.056 151.176 169.832 151.176C163.607 151.176 158.561 156.209 158.561 162.417C158.561 168.627 163.607 173.66 169.832 173.66Z" fill="#00246D"/>
<path d="M135.699 181.372C142.813 181.372 148.58 175.62 148.58 168.524C148.58 161.428 142.813 155.677 135.699 155.677C128.585 155.677 122.818 161.428 122.818 168.524C122.818 175.62 128.585 181.372 135.699 181.372Z" fill="#00246D"/>
<path d="M98.3464 199.679C106.706 199.679 113.481 192.92 113.481 184.582C113.481 176.245 106.706 169.486 98.3464 169.486C89.9872 169.486 83.2109 176.245 83.2109 184.582C83.2109 192.92 89.9872 199.679 98.3464 199.679Z" fill="#00246D"/>
<path d="M59.6996 230.513C69.6592 230.513 77.7331 222.461 77.7331 212.527C77.7331 202.592 69.6592 194.539 59.6996 194.539C49.7399 194.539 41.666 202.592 41.666 212.527C41.666 222.461 49.7399 230.513 59.6996 230.513Z" fill="#00246D"/>
<path d="M83.2095 162.098C91.5688 162.098 98.3446 155.339 98.3446 147.002C98.3446 138.664 91.5688 131.905 83.2095 131.905C74.8505 131.905 68.0742 138.664 68.0742 147.002C68.0742 155.339 74.8505 162.098 83.2095 162.098Z" fill="#00246D"/>
<path d="M120.562 143.791C127.677 143.791 133.443 138.038 133.443 130.942C133.443 123.847 127.677 118.095 120.562 118.095C113.448 118.095 107.682 123.847 107.682 130.942C107.682 138.038 113.448 143.791 120.562 143.791Z" fill="#00246D"/>
<path d="M115.087 109.741C122.201 109.741 127.968 103.989 127.968 96.8933C127.968 89.7974 122.201 84.0449 115.087 84.0449C107.973 84.0449 102.205 89.7974 102.205 96.8933C102.205 103.989 107.973 109.741 115.087 109.741Z" fill="#00246D"/>
<path d="M149.226 102.033C155.451 102.033 160.497 96.9997 160.497 90.7905C160.497 84.5822 155.451 79.5488 149.226 79.5488C143.001 79.5488 137.955 84.5822 137.955 90.7905C137.955 96.9997 143.001 102.033 149.226 102.033Z" fill="#00246D"/>
<path d="M178.524 102.036C183.859 102.036 188.185 97.7217 188.185 92.4C188.185 87.0775 183.859 82.7637 178.524 82.7637C173.188 82.7637 168.863 87.0775 168.863 92.4C168.863 97.7217 173.188 102.036 178.524 102.036Z" fill="#00246D"/>
<path d="M184.003 136.076C189.338 136.076 193.663 131.762 193.663 126.441C193.663 121.119 189.338 116.805 184.003 116.805C178.667 116.805 174.342 121.119 174.342 126.441C174.342 131.762 178.667 136.076 184.003 136.076Z" fill="#00246D"/>
<path d="M154.695 136.404C160.92 136.404 165.966 131.371 165.966 125.162C165.966 118.953 160.92 113.92 154.695 113.92C148.47 113.92 143.424 118.953 143.424 125.162C143.424 131.371 148.47 136.404 154.695 136.404Z" fill="#00246D"/>
<path d="M122.814 221.842C126.015 221.842 128.61 219.253 128.61 216.06C128.61 212.867 126.015 210.278 122.814 210.278C119.613 210.278 117.018 212.867 117.018 216.06C117.018 219.253 119.613 221.842 122.814 221.842Z" fill="#00246D"/>
<path d="M146.001 218.95C149.914 218.95 153.085 215.787 153.085 211.884C153.085 207.982 149.914 204.817 146.001 204.817C142.088 204.817 138.916 207.982 138.916 211.884C138.916 215.787 142.088 218.95 146.001 218.95Z" fill="#00246D"/>
<path d="M171.438 209.318C175.884 209.318 179.488 205.723 179.488 201.288C179.488 196.853 175.884 193.258 171.438 193.258C166.992 193.258 163.387 196.853 163.387 201.288C163.387 205.723 166.992 209.318 171.438 209.318Z" fill="#00246D"/>
<path d="M177.565 235.011C182.901 235.011 187.226 230.697 187.226 225.375C187.226 220.053 182.901 215.739 177.565 215.739C172.23 215.739 167.904 220.053 167.904 225.375C167.904 230.697 172.23 235.011 177.565 235.011Z" fill="#00246D"/>
<path d="M146.648 241.108C151.095 241.108 154.699 237.513 154.699 233.079C154.699 228.644 151.095 225.049 146.648 225.049C142.203 225.049 138.598 228.644 138.598 233.079C138.598 237.513 142.203 241.108 146.648 241.108Z" fill="#00246D"/>
<path d="M119.276 240.79C123.189 240.79 126.361 237.625 126.361 233.723C126.361 229.82 123.189 226.656 119.276 226.656C115.363 226.656 112.191 229.82 112.191 233.723C112.191 237.625 115.363 240.79 119.276 240.79Z" fill="#00246D"/>
<path d="M119.589 262.955C124.036 262.955 127.64 259.36 127.64 254.925C127.64 250.49 124.036 246.895 119.589 246.895C115.143 246.895 111.539 250.49 111.539 254.925C111.539 259.36 115.143 262.955 119.589 262.955Z" fill="#00246D"/>
<path d="M152.442 267.127C157.778 267.127 162.103 262.813 162.103 257.491C162.103 252.17 157.778 247.855 152.442 247.855C147.106 247.855 142.781 252.17 142.781 257.491C142.781 262.813 147.106 267.127 152.442 267.127Z" fill="#00246D"/>
<path d="M190.772 262.954C196.996 262.954 202.042 257.921 202.042 251.712C202.042 245.503 196.996 240.47 190.772 240.47C184.547 240.47 179.5 245.503 179.5 251.712C179.5 257.921 184.547 262.954 190.772 262.954Z" fill="#00246D"/>
<path d="M213.305 290.897C220.419 290.897 226.186 285.145 226.186 278.05C226.186 270.954 220.419 265.201 213.305 265.201C206.19 265.201 200.424 270.954 200.424 278.05C200.424 285.145 206.19 290.897 213.305 290.897Z" fill="#00246D"/>
<path d="M165.966 294.753C172.191 294.753 177.237 289.72 177.237 283.511C177.237 277.302 172.191 272.27 165.966 272.27C159.741 272.27 154.695 277.302 154.695 283.511C154.695 289.72 159.741 294.753 165.966 294.753Z" fill="#00246D"/>
<path d="M139.242 316.592C145.467 316.592 150.513 311.558 150.513 305.35C150.513 299.141 145.467 294.108 139.242 294.108C133.017 294.108 127.971 299.141 127.971 305.35C127.971 311.558 133.017 316.592 139.242 316.592Z" fill="#00246D"/>
<path d="M161.457 344.861C168.571 344.861 174.339 339.108 174.339 332.013C174.339 324.918 168.571 319.165 161.457 319.165C154.343 319.165 148.576 324.918 148.576 332.013C148.576 339.108 154.343 344.861 161.457 344.861Z" fill="#00246D"/>
<path d="M220.71 350.001C229.069 350.001 235.845 343.242 235.845 334.904C235.845 326.567 229.069 319.809 220.71 319.809C212.351 319.809 205.574 326.567 205.574 334.904C205.574 343.242 212.351 350.001 220.71 350.001Z" fill="#00246D"/>
<path d="M188.189 323.014C195.304 323.014 201.071 317.262 201.071 310.167C201.071 303.071 195.304 297.318 188.189 297.318C181.076 297.318 175.309 303.071 175.309 310.167C175.309 317.262 181.076 323.014 188.189 323.014Z" fill="#00246D"/>
<path d="M245.514 317.88C253.873 317.88 260.65 311.121 260.65 302.783C260.65 294.446 253.873 287.688 245.514 287.688C237.156 287.688 230.379 294.446 230.379 302.783C230.379 311.121 237.156 317.88 245.514 317.88Z" fill="#00246D"/>
<path d="M125.717 288.974C131.052 288.974 135.378 284.66 135.378 279.338C135.378 274.016 131.052 269.702 125.717 269.702C120.382 269.702 116.057 274.016 116.057 279.338C116.057 284.66 120.382 288.974 125.717 288.974Z" fill="#00246D"/>
</svg>
