<svg width="327" height="216" viewBox="0 0 327 216" fill="none" xmlns="http://www.w3.org/2000/svg">
<g clip-path="url(#clip0_4591_17259)">
<path d="M72.75 177C110.858 177 141.75 146.108 141.75 108C141.75 69.8924 110.858 39 72.75 39C34.6424 39 3.75 69.8924 3.75 108C3.75 146.108 34.6424 177 72.75 177Z" fill="#F0F0F0"/>
<path d="M69.75 108H141.75C141.75 101.772 140.92 95.7391 139.373 90H69.75V108Z" fill="#D80027"/>
<path d="M69.75 72.0001H131.623C127.399 65.1076 121.998 59.0154 115.701 54H69.75V72.0001Z" fill="#D80027"/>
<path d="M72.7503 177C88.9892 177 103.915 171.387 115.702 162H29.7988C41.5854 171.387 56.5113 177 72.7503 177Z" fill="#D80027"/>
<path d="M13.8773 144H131.623C135.014 138.467 137.643 132.419 139.373 126H6.12695C7.85654 132.419 10.4864 138.467 13.8773 144Z" fill="#D80027"/>
<path d="M35.7121 49.7753H42L36.1512 54.0245L38.3853 60.9L32.5367 56.6508L26.6882 60.9L28.618 54.9603C23.4684 59.2499 18.9548 64.2756 15.2353 69.8753H17.25L13.527 72.5801C12.9469 73.5477 12.3906 74.5307 11.8575 75.5282L13.6353 81L10.3185 78.5901C9.49398 80.3369 8.73983 82.1231 8.06196 83.9465L10.0206 89.9754H17.25L11.4012 94.2245L13.6353 101.1L7.78677 96.8508L4.2834 99.3963C3.93274 102.215 3.75 105.086 3.75 108H72.75C72.75 69.8926 72.75 65.4 72.75 39C59.1193 39 46.4128 42.954 35.7121 49.7753ZM38.3853 101.1L32.5367 96.8508L26.6882 101.1L28.9223 94.2245L23.0735 89.9754H30.3029L32.5367 83.0999L34.7706 89.9754H42L36.1512 94.2245L38.3853 101.1ZM36.1512 74.1245L38.3853 81L32.5367 76.7508L26.6882 81L28.9223 74.1245L23.0735 69.8753H30.3029L32.5367 62.9999L34.7706 69.8753H42L36.1512 74.1245ZM63.1353 101.1L57.2867 96.8508L51.4382 101.1L53.6723 94.2245L47.8235 89.9754H55.0528L57.2867 83.0999L59.5206 89.9754H66.75L60.9011 94.2245L63.1353 101.1ZM60.9011 74.1245L63.1353 81L57.2867 76.7508L51.4382 81L53.6723 74.1245L47.8235 69.8753H55.0528L57.2867 62.9999L59.5206 69.8753H66.75L60.9011 74.1245ZM60.9011 54.0245L63.1353 60.9L57.2867 56.6508L51.4382 60.9L53.6723 54.0245L47.8235 49.7753H55.0528L57.2867 42.8998L59.5206 49.7753H66.75L60.9011 54.0245Z" fill="#0052B4"/>
</g>
<g clip-path="url(#clip1_4591_17259)">
<path d="M163.75 177C201.858 177 232.75 146.108 232.75 108C232.75 69.8924 201.858 39 163.75 39C125.642 39 94.75 69.8924 94.75 108C94.75 146.108 125.642 177 163.75 177Z" fill="url(#paint0_linear_4591_17259)"/>
<path d="M186.372 105.942C190.725 111.751 177.979 122.98 180.843 118.342H153.693C150.756 114.501 148.736 110.301 147.766 105.942H186.372Z" fill="url(#paint1_linear_4591_17259)"/>
<path d="M178.503 139.413C174.644 142.489 170.473 145.151 166.058 147.353L163.898 148.441L161.726 147.358C141.299 137.107 129.113 119.452 129.113 100.103V77.3857H141.571V100.103C141.569 101.552 141.667 103 141.864 104.435C143.433 116.19 151.367 127.034 163.852 134.335C163.863 134.347 163.877 134.356 163.891 134.363C163.904 134.356 163.911 134.349 163.925 134.343L163.977 134.309C168.49 136.833 173.403 138.559 178.503 139.413Z" fill="url(#paint2_linear_4591_17259)"/>
<path d="M198.297 105.942C197.721 110.433 196.489 114.814 194.642 118.947C191.227 126.622 185.738 133.606 178.508 139.416C173.412 138.561 168.5 136.835 163.99 134.312C165.619 133.351 167.199 132.309 168.723 131.189C168.875 131.091 169.021 130.984 169.161 130.87C177.6 124.793 183.68 115.987 186.371 105.942H198.297Z" fill="url(#paint3_linear_4591_17259)"/>
<path d="M198.684 77.3906H141.572V89.8429H198.684V77.3906Z" fill="url(#paint4_linear_4591_17259)"/>
<path d="M198.683 89.8428V100.103C198.683 100.527 198.67 100.953 198.657 101.378H186.191C186.204 100.952 186.21 100.527 186.21 100.103V89.8428H198.683Z" fill="url(#paint5_linear_4591_17259)"/>
</g>
<path d="M278.671 68.6611C282.107 68.6611 284.893 65.8827 284.893 62.4555C284.893 59.0283 282.107 56.25 278.671 56.25C275.235 56.25 272.449 59.0283 272.449 62.4555C272.449 65.8827 275.235 68.6611 278.671 68.6611Z" fill="#00246D"/>
<path d="M285.671 156.315C289.107 156.315 291.893 153.537 291.893 150.11C291.893 146.682 289.107 143.904 285.671 143.904C282.235 143.904 279.449 146.682 279.449 150.11C279.449 153.537 282.235 156.315 285.671 156.315Z" fill="#00246D"/>
<path d="M280.45 84.1742C283.334 84.1742 285.672 81.8426 285.672 78.9662C285.672 76.0897 283.334 73.7578 280.45 73.7578C277.566 73.7578 275.229 76.0897 275.229 78.9662C275.229 81.8426 277.566 84.1742 280.45 84.1742Z" fill="#00246D"/>
<path d="M294.337 86.1693C297.221 86.1693 299.559 83.8374 299.559 80.961C299.559 78.0848 297.221 75.7529 294.337 75.7529C291.453 75.7529 289.115 78.0848 289.115 80.961C289.115 83.8374 291.453 86.1693 294.337 86.1693Z" fill="#00246D"/>
<path d="M278.672 97.3621C281.127 97.3621 283.117 95.3775 283.117 92.9297C283.117 90.4817 281.127 88.4971 278.672 88.4971C276.218 88.4971 274.229 90.4817 274.229 92.9297C274.229 95.3775 276.218 97.3621 278.672 97.3621Z" fill="#00246D"/>
<path d="M292.559 99.2459C295.014 99.2459 297.003 97.2613 297.003 94.8132C297.003 92.3652 295.014 90.3809 292.559 90.3809C290.105 90.3809 288.115 92.3652 288.115 94.8132C288.115 97.2613 290.105 99.2459 292.559 99.2459Z" fill="#00246D"/>
<path d="M303.669 103.568C306.123 103.568 308.113 101.584 308.113 99.1355C308.113 96.6877 306.123 94.7031 303.669 94.7031C301.214 94.7031 299.225 96.6877 299.225 99.1355C299.225 101.584 301.214 103.568 303.669 103.568Z" fill="#00246D"/>
<path d="M288.449 109.883C290.597 109.883 292.338 108.147 292.338 106.005C292.338 103.862 290.597 102.126 288.449 102.126C286.302 102.126 284.561 103.862 284.561 106.005C284.561 108.147 286.302 109.883 288.449 109.883Z" fill="#00246D"/>
<path d="M274.56 107.999C276.708 107.999 278.449 106.262 278.449 104.121C278.449 101.978 276.708 100.242 274.56 100.242C272.413 100.242 270.672 101.978 270.672 104.121C270.672 106.262 272.413 107.999 274.56 107.999Z" fill="#00246D"/>
<path d="M299.67 114.205C301.817 114.205 303.558 112.469 303.558 110.327C303.558 108.185 301.817 106.448 299.67 106.448C297.522 106.448 295.781 108.185 295.781 110.327C295.781 112.469 297.522 114.205 299.67 114.205Z" fill="#00246D"/>
<path d="M282.894 117.973C284.734 117.973 286.227 116.485 286.227 114.649C286.227 112.813 284.734 111.324 282.894 111.324C281.053 111.324 279.561 112.813 279.561 114.649C279.561 116.485 281.053 117.973 282.894 117.973Z" fill="#00246D"/>
<path d="M294.116 122.185C295.957 122.185 297.449 120.696 297.449 118.86C297.449 117.025 295.957 115.536 294.116 115.536C292.275 115.536 290.783 117.025 290.783 118.86C290.783 120.696 292.275 122.185 294.116 122.185Z" fill="#00246D"/>
<path d="M269.116 115.977C270.957 115.977 272.449 114.488 272.449 112.652C272.449 110.817 270.957 109.328 269.116 109.328C267.275 109.328 265.783 110.817 265.783 112.652C265.783 114.488 267.275 115.977 269.116 115.977Z" fill="#00246D"/>
<path d="M276.781 123.404C278.315 123.404 279.559 122.163 279.559 120.634C279.559 119.104 278.315 117.863 276.781 117.863C275.247 117.863 274.004 119.104 274.004 120.634C274.004 122.163 275.247 123.404 276.781 123.404Z" fill="#00246D"/>
<path d="M281.561 131.05C282.911 131.05 284.006 129.958 284.006 128.612C284.006 127.265 282.911 126.174 281.561 126.174C280.211 126.174 279.117 127.265 279.117 128.612C279.117 129.958 280.211 131.05 281.561 131.05Z" fill="#00246D"/>
<path d="M275.674 132.602C276.778 132.602 277.674 131.709 277.674 130.607C277.674 129.506 276.778 128.612 275.674 128.612C274.569 128.612 273.674 129.506 273.674 130.607C273.674 131.709 274.569 132.602 275.674 132.602Z" fill="#00246D"/>
<path d="M270.45 126.838C271.8 126.838 272.894 125.746 272.894 124.4C272.894 123.054 271.8 121.962 270.45 121.962C269.1 121.962 268.006 123.054 268.006 124.4C268.006 125.746 269.1 126.838 270.45 126.838Z" fill="#00246D"/>
<path d="M262.897 121.52C264.43 121.52 265.674 120.28 265.674 118.75C265.674 117.22 264.43 115.979 262.897 115.979C261.363 115.979 260.119 117.22 260.119 118.75C260.119 120.28 261.363 121.52 262.897 121.52Z" fill="#00246D"/>
<path d="M262.783 100.684C264.317 100.684 265.561 99.444 265.561 97.9139C265.561 96.3838 264.317 95.1436 262.783 95.1436C261.25 95.1436 260.006 96.3838 260.006 97.9139C260.006 99.444 261.25 100.684 262.783 100.684Z" fill="#00246D"/>
<path d="M264.005 90.9343C265.355 90.9343 266.449 89.8427 266.449 88.4963C266.449 87.1499 265.355 86.0586 264.005 86.0586C262.655 86.0586 261.561 87.1499 261.561 88.4963C261.561 89.8427 262.655 90.9343 264.005 90.9343Z" fill="#00246D"/>
<path d="M266.674 82.9559C267.778 82.9559 268.674 82.0629 268.674 80.9615C268.674 79.8598 267.778 78.9668 266.674 78.9668C265.569 78.9668 264.674 79.8598 264.674 80.9615C264.674 82.0629 265.569 82.9559 266.674 82.9559Z" fill="#00246D"/>
<path d="M262.007 79.1882C263.357 79.1882 264.451 78.0969 264.451 76.7505C264.451 75.4041 263.357 74.3125 262.007 74.3125C260.657 74.3125 259.562 75.4041 259.562 76.7505C259.562 78.0969 260.657 79.1882 262.007 79.1882Z" fill="#00246D"/>
<path d="M287.893 127.612C289.427 127.612 290.67 126.372 290.67 124.842C290.67 123.312 289.427 122.071 287.893 122.071C286.359 122.071 285.115 123.312 285.115 124.842C285.115 126.372 286.359 127.612 287.893 127.612Z" fill="#00246D"/>
<path d="M255.674 75.9753C257.208 75.9753 258.451 74.735 258.451 73.2049C258.451 71.6748 257.208 70.4346 255.674 70.4346C254.14 70.4346 252.896 71.6748 252.896 73.2049C252.896 74.735 254.14 75.9753 255.674 75.9753Z" fill="#00246D"/>
<path d="M257.565 87.7214C259.098 87.7214 260.342 86.4811 260.342 84.951C260.342 83.4209 259.098 82.1807 257.565 82.1807C256.031 82.1807 254.787 83.4209 254.787 84.951C254.787 86.4811 256.031 87.7214 257.565 87.7214Z" fill="#00246D"/>
<path d="M254.452 98.9134C256.293 98.9134 257.785 97.425 257.785 95.589C257.785 93.753 256.293 92.2646 254.452 92.2646C252.611 92.2646 251.119 93.753 251.119 95.589C251.119 97.425 252.611 98.9134 254.452 98.9134Z" fill="#00246D"/>
<path d="M244.342 98.9123C246.489 98.9123 248.23 97.1758 248.23 95.0337C248.23 92.8918 246.489 91.1553 244.342 91.1553C242.194 91.1553 240.453 92.8918 240.453 95.0337C240.453 97.1758 242.194 98.9123 244.342 98.9123Z" fill="#00246D"/>
<path d="M232.567 101.573C235.021 101.573 237.011 99.5885 237.011 97.1404C237.011 94.6923 235.021 92.708 232.567 92.708C230.113 92.708 228.123 94.6923 228.123 97.1404C228.123 99.5885 230.113 101.573 232.567 101.573Z" fill="#00246D"/>
<path d="M219.679 107.889C222.563 107.889 224.9 105.557 224.9 102.681C224.9 99.8043 222.563 97.4727 219.679 97.4727C216.795 97.4727 214.457 99.8043 214.457 102.681C214.457 105.557 216.795 107.889 219.679 107.889Z" fill="#00246D"/>
<path d="M206.347 118.527C209.783 118.527 212.568 115.749 212.568 112.322C212.568 108.895 209.783 106.116 206.347 106.116C202.911 106.116 200.125 108.895 200.125 112.322C200.125 115.749 202.911 118.527 206.347 118.527Z" fill="#00246D"/>
<path d="M214.458 94.9232C217.342 94.9232 219.68 92.5916 219.68 89.7152C219.68 86.8387 217.342 84.5068 214.458 84.5068C211.574 84.5068 209.236 86.8387 209.236 89.7152C209.236 92.5916 211.574 94.9232 214.458 94.9232Z" fill="#00246D"/>
<path d="M227.344 88.6082C229.799 88.6082 231.788 86.6236 231.788 84.1756C231.788 81.7278 229.799 79.7432 227.344 79.7432C224.89 79.7432 222.9 81.7278 222.9 84.1756C222.9 86.6236 224.89 88.6082 227.344 88.6082Z" fill="#00246D"/>
<path d="M225.454 76.8602C227.908 76.8602 229.898 74.8759 229.898 72.4278C229.898 69.9797 227.908 67.9951 225.454 67.9951C223 67.9951 221.01 69.9797 221.01 72.4278C221.01 74.8759 223 76.8602 225.454 76.8602Z" fill="#00246D"/>
<path d="M237.234 74.2014C239.382 74.2014 241.123 72.4649 241.123 70.3227C241.123 68.1808 239.382 66.4443 237.234 66.4443C235.087 66.4443 233.346 68.1808 233.346 70.3227C233.346 72.4649 235.087 74.2014 237.234 74.2014Z" fill="#00246D"/>
<path d="M247.341 74.2026C249.181 74.2026 250.674 72.7142 250.674 70.8782C250.674 69.042 249.181 67.5537 247.341 67.5537C245.5 67.5537 244.008 69.042 244.008 70.8782C244.008 72.7142 245.5 74.2026 247.341 74.2026Z" fill="#00246D"/>
<path d="M249.231 85.9466C251.072 85.9466 252.564 84.4582 252.564 82.6222C252.564 80.7862 251.072 79.2979 249.231 79.2979C247.391 79.2979 245.898 80.7862 245.898 82.6222C245.898 84.4582 247.391 85.9466 249.231 85.9466Z" fill="#00246D"/>
<path d="M239.119 86.0598C241.267 86.0598 243.008 84.3233 243.008 82.1811C243.008 80.0392 241.267 78.3027 239.119 78.3027C236.972 78.3027 235.23 80.0392 235.23 82.1811C235.23 84.3233 236.972 86.0598 239.119 86.0598Z" fill="#00246D"/>
<path d="M228.121 115.535C229.225 115.535 230.121 114.642 230.121 113.541C230.121 112.439 229.225 111.546 228.121 111.546C227.016 111.546 226.121 112.439 226.121 113.541C226.121 114.642 227.016 115.535 228.121 115.535Z" fill="#00246D"/>
<path d="M236.12 114.538C237.47 114.538 238.564 113.446 238.564 112.1C238.564 110.754 237.47 109.662 236.12 109.662C234.77 109.662 233.676 110.754 233.676 112.1C233.676 113.446 234.77 114.538 236.12 114.538Z" fill="#00246D"/>
<path d="M244.897 111.215C246.431 111.215 247.674 109.974 247.674 108.444C247.674 106.914 246.431 105.674 244.897 105.674C243.363 105.674 242.119 106.914 242.119 108.444C242.119 109.974 243.363 111.215 244.897 111.215Z" fill="#00246D"/>
<path d="M247.009 120.078C248.85 120.078 250.342 118.59 250.342 116.754C250.342 114.918 248.85 113.43 247.009 113.43C245.168 113.43 243.676 114.918 243.676 116.754C243.676 118.59 245.168 120.078 247.009 120.078Z" fill="#00246D"/>
<path d="M236.344 122.182C237.878 122.182 239.121 120.942 239.121 119.412C239.121 117.882 237.878 116.642 236.344 116.642C234.81 116.642 233.566 117.882 233.566 119.412C233.566 120.942 234.81 122.182 236.344 122.182Z" fill="#00246D"/>
<path d="M226.899 122.072C228.249 122.072 229.343 120.981 229.343 119.634C229.343 118.288 228.249 117.196 226.899 117.196C225.549 117.196 224.455 118.288 224.455 119.634C224.455 120.981 225.549 122.072 226.899 122.072Z" fill="#00246D"/>
<path d="M227.008 129.719C228.542 129.719 229.785 128.479 229.785 126.949C229.785 125.419 228.542 124.179 227.008 124.179C225.474 124.179 224.23 125.419 224.23 126.949C224.23 128.479 225.474 129.719 227.008 129.719Z" fill="#00246D"/>
<path d="M238.343 131.159C240.184 131.159 241.676 129.671 241.676 127.835C241.676 125.999 240.184 124.511 238.343 124.511C236.502 124.511 235.01 125.999 235.01 127.835C235.01 129.671 236.502 131.159 238.343 131.159Z" fill="#00246D"/>
<path d="M251.566 129.719C253.714 129.719 255.455 127.982 255.455 125.841C255.455 123.698 253.714 121.962 251.566 121.962C249.419 121.962 247.678 123.698 247.678 125.841C247.678 127.982 249.419 129.719 251.566 129.719Z" fill="#00246D"/>
<path d="M259.34 139.359C261.795 139.359 263.784 137.375 263.784 134.927C263.784 132.479 261.795 130.494 259.34 130.494C256.886 130.494 254.896 132.479 254.896 134.927C254.896 137.375 256.886 139.359 259.34 139.359Z" fill="#00246D"/>
<path d="M243.008 140.69C245.155 140.69 246.896 138.954 246.896 136.812C246.896 134.67 245.155 132.934 243.008 132.934C240.86 132.934 239.119 134.67 239.119 136.812C239.119 138.954 240.86 140.69 243.008 140.69Z" fill="#00246D"/>
<path d="M233.789 148.225C235.936 148.225 237.678 146.488 237.678 144.346C237.678 142.204 235.936 140.468 233.789 140.468C231.641 140.468 229.9 142.204 229.9 144.346C229.9 146.488 231.641 148.225 233.789 148.225Z" fill="#00246D"/>
<path d="M241.452 157.977C243.906 157.977 245.896 155.993 245.896 153.545C245.896 151.097 243.906 149.112 241.452 149.112C238.997 149.112 237.008 151.097 237.008 153.545C237.008 155.993 238.997 157.977 241.452 157.977Z" fill="#00246D"/>
<path d="M261.896 159.75C264.78 159.75 267.117 157.418 267.117 154.542C267.117 151.666 264.78 149.334 261.896 149.334C259.012 149.334 256.674 151.666 256.674 154.542C256.674 157.418 259.012 159.75 261.896 159.75Z" fill="#00246D"/>
<path d="M250.676 150.44C253.131 150.44 255.12 148.456 255.12 146.008C255.12 143.56 253.131 141.575 250.676 141.575C248.222 141.575 246.232 143.56 246.232 146.008C246.232 148.456 248.222 150.44 250.676 150.44Z" fill="#00246D"/>
<path d="M270.452 148.668C273.336 148.668 275.674 146.336 275.674 143.46C275.674 140.584 273.336 138.252 270.452 138.252C267.568 138.252 265.23 140.584 265.23 143.46C265.23 146.336 267.568 148.668 270.452 148.668Z" fill="#00246D"/>
<path d="M229.122 138.696C230.963 138.696 232.455 137.207 232.455 135.371C232.455 133.535 230.963 132.047 229.122 132.047C227.281 132.047 225.789 133.535 225.789 135.371C225.789 137.207 227.281 138.696 229.122 138.696Z" fill="#00246D"/>
<defs>
<linearGradient id="paint0_linear_4591_17259" x1="232.75" y1="39" x2="67.6178" y2="91.2489" gradientUnits="userSpaceOnUse">
<stop stop-color="#000756"/>
<stop offset="1" stop-color="#0042B8"/>
</linearGradient>
<linearGradient id="paint1_linear_4591_17259" x1="198.955" y1="119.937" x2="151.45" y2="107.134" gradientUnits="userSpaceOnUse">
<stop offset="0.14" stop-color="#ADADAD"/>
<stop offset="0.29" stop-color="#CBCBCB"/>
<stop offset="0.43" stop-color="#E2E2E2"/>
<stop offset="0.59" stop-color="#F2F2F2"/>
<stop offset="0.77" stop-color="#FCFCFC"/>
<stop offset="1" stop-color="white"/>
</linearGradient>
<linearGradient id="paint2_linear_4591_17259" x1="181.415" y1="160.503" x2="114.265" y2="66.8458" gradientUnits="userSpaceOnUse">
<stop stop-color="#ADADAD"/>
<stop offset="0.17" stop-color="#CBCBCB"/>
<stop offset="0.34" stop-color="#E2E2E2"/>
<stop offset="0.52" stop-color="#F2F2F2"/>
<stop offset="0.73" stop-color="#FCFCFC"/>
<stop offset="1" stop-color="white"/>
</linearGradient>
<linearGradient id="paint3_linear_4591_17259" x1="164.764" y1="146.329" x2="196.658" y2="105.899" gradientUnits="userSpaceOnUse">
<stop offset="0.15" stop-color="#ADADAD"/>
<stop offset="0.29" stop-color="#CBCBCB"/>
<stop offset="0.44" stop-color="#E2E2E2"/>
<stop offset="0.6" stop-color="#F2F2F2"/>
<stop offset="0.77" stop-color="#FCFCFC"/>
<stop offset="1" stop-color="white"/>
</linearGradient>
<linearGradient id="paint4_linear_4591_17259" x1="136.082" y1="115.961" x2="163.037" y2="90.3561" gradientUnits="userSpaceOnUse">
<stop offset="0.14" stop-color="#ADADAD"/>
<stop offset="0.43" stop-color="#C9C9C9"/>
<stop offset="1" stop-color="white"/>
</linearGradient>
<linearGradient id="paint5_linear_4591_17259" x1="192.437" y1="83.3071" x2="192.437" y2="101.378" gradientUnits="userSpaceOnUse">
<stop offset="0.0895638" stop-color="#ADADAD"/>
<stop offset="0.240189" stop-color="#CBCBCB"/>
<stop offset="0.425047" stop-color="#E2E2E2"/>
<stop offset="0.536875" stop-color="#F2F2F2"/>
<stop offset="1" stop-color="white"/>
</linearGradient>
<clipPath id="clip0_4591_17259">
<rect x="3.75" y="39" width="138" height="138" rx="69" fill="white"/>
</clipPath>
<clipPath id="clip1_4591_17259">
<rect x="94.75" y="39" width="138" height="138" rx="69" fill="white"/>
</clipPath>
</defs>
</svg>
