<svg width="400" height="400" viewBox="0 0 400 400" fill="none" xmlns="http://www.w3.org/2000/svg">
    <path d="M200.971 0L25 100L25 300L200.971 400L376.942 300L376.942 100L200.971 0ZM200.971 0L25 100L25 300L200.971 400L376.942 300L376.942 100L200.971 0Z" fill="white"/>
    <path d="M270.443 321.875H245.405L215.43 294.792L215.43 280.903L246.463 251.736L246.463 205.556L287.017 179.514L333.214 213.889L270.443 321.875ZM166.764 248.958L171.349 205.556L156.185 166.667H245.757L230.946 205.556L235.178 248.958H200.619H166.764ZM187.218 294.792L157.243 322.222H131.852L68.7283 213.889L115.278 179.861L156.185 205.556L156.185 251.736L187.218 280.903L187.218 294.792ZM131.5 86.4584L270.09 86.4584L286.665 155.903L115.278 155.903L131.5 86.4584ZM200.971 0L25 100L25 300L200.971 400L376.942 300L376.942 100L200.971 0Z" fill="#03316C"/>
</svg>
