<svg width="165" height="160" viewBox="0 0 165 160" fill="none" xmlns="http://www.w3.org/2000/svg">
<path d="M53.5268 23.8595L21.1585 76.009L50.1582 129.277L111.526 130.395L143.894 78.2459L114.895 24.978L53.5268 23.8595ZM53.5268 23.8595L21.1585 76.009L50.1582 129.277L111.526 130.395L143.894 78.2459L114.895 24.978L53.5268 23.8595Z" fill="white"/>
<path d="M118.701 99.5144L112.033 103.145L100.122 100.278L98.1081 96.5786L102.144 84.3106L95.4482 72.0109L102.473 59.1947L119.762 61.6517L118.701 99.5144ZM80.5147 95.1269L75.4424 82.9023L65.7648 74.7434L89.6215 61.7555L91.3155 74.2608L98.736 85.2071L89.5314 90.2181L80.5147 95.1269ZM92.608 104.368L88.6019 116.021L81.8393 119.702L49.3188 100.002L56.7828 84.1891L71.4036 85.1011L78.0997 97.4008L90.5942 100.669L92.608 104.368ZM47.5601 56.9601L84.4722 36.8647L98.956 52.9573L53.3089 77.808L47.5601 56.9601ZM53.5268 23.8595L21.1585 76.009L50.1582 129.277L111.526 130.395L143.894 78.2459L114.895 24.978L53.5268 23.8595Z" fill="#03316C"/>
</svg>
