<svg width="400" height="400" viewBox="0 0 400 400" fill="none" xmlns="http://www.w3.org/2000/svg">
    <g clip-path="url(#clip0)">
        <path fill-rule="evenodd" clip-rule="evenodd" d="M71.9243 62.5C65.6151 30 90.8517 0 123.659 0C152.681 0 176.656 23.75 176.656 52.5L176.656 117.5C184.227 117.5 191.798 116.25 199.369 116.25C206.94 116.25 213.249 116.25 220.82 117.5L220.82 52.5C220.82 23.75 244.795 0 273.817 0C306.625 0 331.861 30 326.814 62.5L312.934 138.75C362.145 160 400 197.5 400 243.75L400 272.5C400 311.25 374.763 343.75 338.17 365C301.577 387.5 253.628 400 199.369 400C145.11 400 97.1609 387.5 60.5679 365C25.2366 343.75 3.25876e-05 311.25 2.85305e-05 272.5L2.55204e-05 243.75C2.06781e-05 197.5 36.5931 160 85.8044 138.75L71.9243 62.5ZM294.006 148.75L310.41 58.75C314.196 36.25 297.792 15 273.817 15C253.628 15 237.224 31.25 237.224 51.25L237.224 133.75C232.177 132.5 225.868 132.5 220.82 132.5C213.249 132.5 206.94 131.25 199.369 131.25C191.798 131.25 184.227 131.25 176.656 132.5C171.609 132.5 165.3 133.75 160.252 133.75L160.252 52.5C160.252 32.5 143.849 16.25 123.659 16.25C100.946 16.25 83.2808 37.5 88.3281 60L104.732 150C51.735 170 16.4038 205 16.4038 245L16.4038 273.75C16.4038 335 98.4228 385 199.369 385C300.316 385 382.334 335 382.334 273.75L382.334 245C383.596 203.75 348.265 168.75 294.006 148.75Z" fill="#633001"/>
        <path d="M383.596 272.5C383.596 333.75 301.577 383.75 200.63 383.75C99.684 383.75 17.665 333.75 17.665 272.5L17.665 243.75L384.857 243.75L384.857 272.5H383.596Z" fill="#FEDC90"/>
        <path fill-rule="evenodd" clip-rule="evenodd" d="M88.3275 60C83.2802 37.5 100.946 16.25 123.659 16.25C143.848 16.25 160.252 32.5 160.252 52.5L160.252 135C172.87 133.75 185.488 132.5 199.369 132.5C211.987 132.5 224.605 133.75 237.223 135L237.223 52.5C237.223 32.5 253.627 16.25 273.816 16.25C296.529 16.25 314.195 37.5 310.41 60L294.006 150C347.003 170 383.596 205 383.596 245C383.596 306.25 301.577 356.25 200.63 356.25C99.684 356.25 17.6651 306.25 17.6651 245C17.6651 205 52.9963 170 105.993 150L88.3275 60Z" fill="#D1884F"/>
        <path d="M148.896 236.25C148.896 252.5 140.063 266.25 128.707 266.25C117.35 266.25 108.518 252.5 108.518 236.25C108.518 220 117.35 206.25 128.707 206.25C140.063 206.25 148.896 220 148.896 236.25Z" fill="#633001"/>
        <path d="M288.958 236.25C288.958 252.5 280.125 266.25 268.768 266.25C257.412 266.25 248.579 252.5 248.579 236.25C248.579 220 257.412 206.25 268.768 206.25C280.125 206.25 288.958 220 288.958 236.25Z" fill="#633001"/>
    </g>
    <defs>
        <clipPath id="clip0">
            <rect width="400" height="400" fill="white"/>
        </clipPath>
    </defs>
</svg>
