<svg width="120" height="120" viewBox="0 0 120 120" fill="none" xmlns="http://www.w3.org/2000/svg">
    <g clip-path="url(#clip0)">
        <path fill-rule="evenodd" clip-rule="evenodd" d="M21.5773 18.75C19.6845 9 27.2555 0 37.0978 0C45.8044 0 52.9968 7.125 52.9968 15.75L52.9968 35.25C55.2681 35.25 57.5394 34.875 59.8107 34.875C62.082 34.875 63.9748 34.875 66.2461 35.25L66.2461 15.75C66.2461 7.125 73.4385 0 82.1451 0C91.9874 0 99.5584 9 98.0442 18.75L93.8801 41.625C108.644 48 120 59.25 120 73.125L120 81.75C120 93.375 112.429 103.125 101.451 109.5C90.4732 116.25 76.0883 120 59.8107 120C43.5331 120 29.1483 116.25 18.1704 109.5C7.57099 103.125 9.77629e-06 93.375 8.55916e-06 81.75L7.65613e-06 73.125C6.20343e-06 59.25 10.9779 48 25.7413 41.625L21.5773 18.75ZM88.2019 44.625L93.123 17.625C94.2587 10.875 89.3375 4.5 82.1451 4.5C76.0883 4.5 71.1672 9.375 71.1672 15.375L71.1672 40.125C69.653 39.75 67.7603 39.75 66.2461 39.75C63.9748 39.75 62.082 39.375 59.8107 39.375C57.5394 39.375 55.2681 39.375 52.9969 39.75C51.4827 39.75 49.5899 40.125 48.0757 40.125L48.0757 15.75C48.0757 9.75 43.1546 4.875 37.0978 4.875C30.2839 4.875 24.9842 11.25 26.4984 18L31.4196 45C15.5205 51 4.92114 61.5 4.92114 73.5L4.92114 82.125C4.92115 100.5 29.5268 115.5 59.8107 115.5C90.0947 115.5 114.7 100.5 114.7 82.125L114.7 73.5C115.079 61.125 104.479 50.625 88.2019 44.625Z" fill="#633001"/>
        <path d="M115.079 81.75C115.079 100.125 90.4733 115.125 60.1894 115.125C29.9055 115.125 5.29981 100.125 5.29981 81.75L5.2998 73.125L115.458 73.125L115.458 81.75H115.079Z" fill="#FEDC90"/>
        <path fill-rule="evenodd" clip-rule="evenodd" d="M26.4985 18C24.9843 11.25 30.284 4.875 37.0979 4.875C43.1547 4.875 48.0758 9.75 48.0758 15.75L48.0758 40.5C51.8613 40.125 55.6468 39.75 59.8109 39.75C63.5963 39.75 67.3818 40.125 71.1673 40.5L71.1673 15.75C71.1673 9.75 76.0885 4.875 82.1452 4.875C88.9591 4.875 94.2588 11.25 93.1232 18L88.202 45C104.101 51 115.079 61.5 115.079 73.5C115.079 91.875 90.4733 106.875 60.1894 106.875C29.9055 106.875 5.29981 91.875 5.29981 73.5C5.29981 61.5 15.8992 51 31.7982 45L26.4985 18Z" fill="#D1884F"/>
        <path d="M44.6692 70.875C44.6692 75.75 42.0194 79.875 38.6124 79.875C35.2055 79.875 32.5557 75.75 32.5557 70.875C32.5557 66 35.2055 61.875 38.6124 61.875C42.0194 61.875 44.6692 66 44.6692 70.875Z" fill="#633001"/>
        <path d="M86.6878 70.875C86.6878 75.75 84.0379 79.875 80.631 79.875C77.2241 79.875 74.5742 75.75 74.5742 70.875C74.5742 66 77.2241 61.875 80.631 61.875C84.0379 61.875 86.6878 66 86.6878 70.875Z" fill="#633001"/>
    </g>
    <defs>
        <clipPath id="clip0">
            <rect width="120" height="120" fill="white"/>
        </clipPath>
    </defs>
</svg>
