<svg width="163" height="111" viewBox="0 0 163 111" fill="none" xmlns="http://www.w3.org/2000/svg">
<path d="M107.343 32.8428C112.348 39.5225 97.6903 52.4347 100.984 47.1017H69.7627C66.385 42.685 64.0631 37.8547 62.9468 32.8428H107.343Z" fill="url(#paint0_linear_179_4503)"/>
<path d="M98.2937 71.3281C93.8569 74.8654 89.0602 77.926 83.9827 80.4591L81.4995 81.71L79.0011 80.4642C55.512 68.6768 41.4985 48.3737 41.4985 26.1237V0H55.8247V26.1237C55.8221 27.79 55.9345 29.4544 56.1609 31.1053C57.965 44.6227 67.0892 57.0928 81.4456 65.4891C81.4591 65.5019 81.4744 65.5127 81.491 65.521C81.5062 65.5126 81.5146 65.5042 81.5297 65.4975L81.5902 65.4588C86.7793 68.3609 92.4299 70.3465 98.2937 71.3281V71.3281Z" fill="url(#paint1_linear_179_4503)"/>
<path d="M121.057 32.8428C120.393 38.0063 118.977 43.0448 116.853 47.7977C112.926 56.6227 106.614 64.6542 98.3005 71.3356C92.4396 70.353 86.7919 68.3675 81.6055 65.4663C83.479 64.3618 85.2954 63.1632 87.0478 61.8751C87.2223 61.7619 87.3906 61.6396 87.5521 61.5085C97.2563 54.5205 104.248 44.3938 107.342 32.8428H121.057Z" fill="url(#paint2_linear_179_4503)"/>
<path d="M121.5 0.00613403H55.8247V14.3256H121.5V0.00613403Z" fill="url(#paint3_linear_179_4503)"/>
<path d="M121.501 14.3222V26.1214C121.501 26.6089 121.486 27.0982 121.471 27.5874H107.136C107.151 27.0976 107.158 26.6089 107.158 26.1214V14.3222H121.501Z" fill="url(#paint4_linear_179_4503)"/>
<path d="M13.8079 102.989C13.8079 104.415 13.6474 105.58 13.3263 106.482C12.8922 107.778 12.0375 108.892 10.8978 109.647C9.74354 110.374 8.40004 110.743 7.03649 110.708C4.61745 110.708 2.76168 109.885 1.46919 108.239C0.481791 106.962 -0.0362662 105.384 0.00197515 103.771C0.00197515 101.853 0.574694 100.242 1.72013 98.936C3.01937 97.452 4.83399 96.71 7.16399 96.71C8.71957 96.71 10.0384 97.1093 11.1204 97.908C11.8921 98.4719 12.5512 99.3077 13.0976 100.415L9.85961 101.757C9.64412 101.23 9.31362 100.758 8.89226 100.375C8.36088 99.9389 7.69128 99.7071 7.00411 99.7212C5.51329 99.7212 4.47444 100.488 3.88756 102.022C3.66854 102.58 3.55663 103.175 3.55768 103.775C3.53978 104.35 3.63588 104.923 3.84046 105.461C4.04503 105.999 4.35404 106.491 4.74967 106.909C5.3379 107.533 6.12244 107.844 7.10328 107.842C7.97348 107.842 8.66358 107.589 9.17356 107.083C9.54608 106.673 9.77732 106.155 9.8333 105.604H7.01423V102.989H13.8079ZM31.4266 104.726C31.4349 105.406 31.367 106.085 31.2242 106.749C31.0024 107.669 30.5079 108.501 29.8056 109.135C28.737 110.146 27.3083 110.651 25.5193 110.651C23.6993 110.651 22.2779 110.136 21.2553 109.107C20.7027 108.545 20.318 107.84 20.1443 107.071C19.9841 106.303 19.9128 105.52 19.9318 104.736V97.1309H23.3579V104.256C23.3579 104.83 23.3681 105.257 23.3883 105.537C23.4504 106.432 23.8551 107.056 24.6025 107.409C24.9229 107.559 25.273 107.634 25.6266 107.63C26.4617 107.63 27.0917 107.338 27.5167 106.753C27.8324 106.323 27.9903 105.491 27.9903 104.256V97.1309H31.4165L31.4266 104.726ZM49.4703 110.303H45.8113L44.9634 108.006H40.2339L39.3273 110.303H35.7088L40.7682 97.1309H44.5101L49.4703 110.303ZM44.0365 105.402L42.6199 101.203L41.181 105.402H44.0365ZM65.8929 110.303H61.643L58.3707 105.244V110.303H54.9364V97.1309H60.2649C61.8218 97.1309 62.9733 97.597 63.7194 98.5293C64.3235 99.2806 64.6444 100.22 64.626 101.184C64.626 102.349 64.2786 103.278 63.5838 103.973C63.0742 104.451 62.4378 104.773 61.7503 104.9L65.8929 110.303ZM61.0764 101.373C61.0803 101.15 61.0366 100.929 60.9483 100.725C60.86 100.521 60.7291 100.338 60.5644 100.189C60.2406 99.8865 59.7205 99.736 59.0041 99.7374H58.3646V103.018H59.0041C59.7286 103.018 60.2467 102.866 60.5644 102.564C60.7286 102.413 60.859 102.228 60.9469 102.023C61.0348 101.818 61.0782 101.596 61.0744 101.373H61.0764ZM82.8336 103.712C82.8148 105.075 82.3831 106.4 81.5955 107.513C80.8078 108.626 79.7013 109.474 78.4219 109.945C77.752 110.18 77.0473 110.3 76.3374 110.301H71.2781V97.1309H76.3374C77.5612 97.1262 78.7587 97.4854 79.7778 98.163C80.8009 98.8202 81.6241 99.7456 82.1577 100.838C82.6004 101.732 82.8317 102.715 82.8336 103.712ZM79.282 103.712C79.2992 102.856 79.0299 102.018 78.517 101.332C77.8424 100.435 76.8305 99.987 75.4814 99.9883H74.6982V107.448H75.4814C76.8305 107.448 77.8424 106.999 78.517 106.102C79.0279 105.411 79.2955 104.571 79.2779 103.712H79.282ZM99.9018 110.303H96.2449L95.395 108.006H90.6655L89.7589 110.303H86.1404L91.1998 97.1309H94.9417L99.9018 110.303ZM94.4681 105.402L93.0515 101.203L91.6227 105.402H94.4681ZM116.324 110.303H112.062L108.792 105.244V110.303H105.37V97.1309H110.696C112.253 97.1309 113.405 97.597 114.151 98.5293C114.755 99.2806 115.076 100.22 115.058 101.184C115.058 102.349 114.71 103.278 114.015 103.973C113.506 104.451 112.869 104.773 112.182 104.9L116.324 110.303ZM111.51 101.373C111.513 101.15 111.469 100.929 111.381 100.725C111.292 100.521 111.161 100.338 110.996 100.189C110.672 99.8871 110.154 99.7374 109.438 99.7374H108.798V103.018H109.432C110.155 103.018 110.674 102.867 110.99 102.564C111.156 102.414 111.287 102.229 111.377 102.024C111.466 101.819 111.511 101.597 111.508 101.373H111.51ZM125.142 110.303H121.714V97.1309H125.14L125.142 110.303ZM144.38 110.303H140.721L139.871 108.006H135.143L134.237 110.303H130.616L135.675 97.1309H139.409L144.38 110.303ZM138.948 105.402L137.531 101.203L136.092 105.402H138.948ZM163 110.303H159.574L153.272 102.237V110.303H149.846V97.1309H153.272L159.574 105.189V97.1309H163V110.303Z" fill="white"/>
<defs>
<linearGradient id="paint0_linear_179_4503" x1="121.812" y1="48.9359" x2="67.1836" y2="34.213" gradientUnits="userSpaceOnUse">
<stop offset="0.14" stop-color="#ADADAD"/>
<stop offset="0.29" stop-color="#CBCBCB"/>
<stop offset="0.43" stop-color="#E2E2E2"/>
<stop offset="0.59" stop-color="#F2F2F2"/>
<stop offset="0.77" stop-color="#FCFCFC"/>
<stop offset="1" stop-color="white"/>
</linearGradient>
<linearGradient id="paint1_linear_179_4503" x1="101.643" y1="95.5805" x2="24.4235" y2="-12.1203" gradientUnits="userSpaceOnUse">
<stop stop-color="#ADADAD"/>
<stop offset="0.17" stop-color="#CBCBCB"/>
<stop offset="0.34" stop-color="#E2E2E2"/>
<stop offset="0.52" stop-color="#F2F2F2"/>
<stop offset="0.73" stop-color="#FCFCFC"/>
<stop offset="1" stop-color="white"/>
</linearGradient>
<linearGradient id="paint2_linear_179_4503" x1="82.4949" y1="79.2847" x2="119.172" y2="32.7923" gradientUnits="userSpaceOnUse">
<stop offset="0.15" stop-color="#ADADAD"/>
<stop offset="0.29" stop-color="#CBCBCB"/>
<stop offset="0.44" stop-color="#E2E2E2"/>
<stop offset="0.6" stop-color="#F2F2F2"/>
<stop offset="0.77" stop-color="#FCFCFC"/>
<stop offset="1" stop-color="white"/>
</linearGradient>
<linearGradient id="paint3_linear_179_4503" x1="49.5115" y1="44.3599" x2="80.5076" y2="14.9157" gradientUnits="userSpaceOnUse">
<stop offset="0.14" stop-color="#ADADAD"/>
<stop offset="0.43" stop-color="#C9C9C9"/>
<stop offset="1" stop-color="white"/>
</linearGradient>
<linearGradient id="paint4_linear_179_4503" x1="114.319" y1="6.80649" x2="114.319" y2="27.5874" gradientUnits="userSpaceOnUse">
<stop offset="0.0895638" stop-color="#ADADAD"/>
<stop offset="0.240189" stop-color="#CBCBCB"/>
<stop offset="0.425047" stop-color="#E2E2E2"/>
<stop offset="0.536875" stop-color="#F2F2F2"/>
<stop offset="1" stop-color="white"/>
</linearGradient>
</defs>
</svg>
