<svg width="163" height="111" viewBox="0 0 163 111" fill="none" xmlns="http://www.w3.org/2000/svg">
<path d="M107.342 32.8348C112.348 39.5144 97.6905 52.4263 100.984 47.0934H69.7635C66.3859 42.6768 64.0641 37.8466 62.9478 32.8348H107.342Z" fill="url(#paint0_linear_179_4492)"/>
<path d="M98.2939 71.3265C93.8572 74.8637 89.0605 77.9242 83.9832 80.4573L81.5 81.7081L79.0017 80.4623C55.5131 68.6752 41.5 48.3725 41.5 26.1231V0H55.8258V26.1231C55.8233 27.7893 55.9356 29.4538 56.1621 31.1046C57.966 44.6217 67.0901 57.0914 81.4462 65.4875C81.4596 65.5004 81.4749 65.5112 81.4916 65.5195C81.5067 65.5111 81.5151 65.5027 81.5302 65.4959L81.5908 65.4573C86.7797 68.3593 92.4302 70.3448 98.2939 71.3265V71.3265Z" fill="url(#paint1_linear_179_4492)"/>
<path d="M121.056 32.8348C120.393 37.9982 118.977 43.0366 116.853 47.7894C112.926 56.6143 106.614 64.6455 98.3006 71.3268C92.4398 70.3442 86.7923 68.3587 81.606 65.4576C83.4794 64.3531 85.2958 63.1545 87.0481 61.8664C87.2226 61.7533 87.391 61.631 87.5525 61.4999C97.2564 54.512 104.248 44.3856 107.342 32.8348H121.056Z" fill="url(#paint2_linear_179_4492)"/>
<path d="M121.5 0.00665283H55.8259V14.3258H121.5V0.00665283Z" fill="url(#paint3_linear_179_4492)"/>
<path d="M121.5 14.3228V26.1218C121.5 26.6093 121.485 27.0986 121.47 27.5878H107.136C107.15 27.098 107.158 26.6093 107.158 26.1218V14.3228H121.5Z" fill="url(#paint4_linear_179_4492)"/>
<path d="M13.8079 102.988C13.8079 104.414 13.6474 105.578 13.3263 106.48C12.8922 107.777 12.0375 108.891 10.8978 109.645C9.74354 110.372 8.40004 110.741 7.03649 110.706C4.61745 110.706 2.76168 109.883 1.46919 108.237C0.481791 106.96 -0.0362662 105.382 0.00197515 103.769C0.00197515 101.852 0.574694 100.24 1.72013 98.9341C3.01937 97.4501 4.83399 96.7081 7.16399 96.7081C8.71957 96.7081 10.0384 97.1074 11.1204 97.9061C11.8921 98.47 12.5512 99.3058 13.0976 100.413L9.85961 101.755C9.64412 101.228 9.31362 100.756 8.89226 100.373C8.36088 99.937 7.69128 99.7052 7.00411 99.7193C5.51329 99.7193 4.47444 100.486 3.88756 102.02C3.66854 102.578 3.55663 103.173 3.55768 103.773C3.53978 104.348 3.63588 104.921 3.84046 105.459C4.04503 105.997 4.35404 106.489 4.74967 106.907C5.3379 107.531 6.12244 107.842 7.10328 107.84C7.97348 107.84 8.66358 107.587 9.17356 107.081C9.54608 106.672 9.77732 106.153 9.8333 105.602H7.01423V102.988H13.8079ZM31.4266 104.724C31.4349 105.404 31.367 106.083 31.2242 106.747C31.0024 107.668 30.5079 108.499 29.8056 109.133C28.737 110.144 27.3083 110.649 25.5193 110.649C23.6993 110.649 22.2779 110.134 21.2553 109.105C20.7027 108.543 20.318 107.838 20.1443 107.069C19.9841 106.302 19.9128 105.518 19.9318 104.734V97.129H23.3579V104.254C23.3579 104.828 23.3681 105.255 23.3883 105.535C23.4504 106.43 23.8551 107.054 24.6025 107.407C24.9229 107.557 25.273 107.632 25.6266 107.628C26.4617 107.628 27.0917 107.336 27.5167 106.752C27.8324 106.321 27.9903 105.489 27.9903 104.254V97.129H31.4165L31.4266 104.724ZM49.4703 110.301H45.8113L44.9634 108.004H40.2339L39.3273 110.301H35.7088L40.7682 97.129H44.5101L49.4703 110.301ZM44.0365 105.4L42.6199 101.201L41.181 105.4H44.0365ZM65.8929 110.301H61.643L58.3707 105.242V110.301H54.9364V97.129H60.2649C61.8218 97.129 62.9733 97.5951 63.7194 98.5274C64.3235 99.2788 64.6444 100.218 64.626 101.182C64.626 102.347 64.2786 103.276 63.5838 103.971C63.0742 104.449 62.4378 104.771 61.7503 104.898L65.8929 110.301ZM61.0764 101.371C61.0803 101.148 61.0366 100.928 60.9483 100.723C60.86 100.519 60.7291 100.336 60.5644 100.187C60.2406 99.8846 59.7205 99.7342 59.0041 99.7355H58.3646V103.016H59.0041C59.7286 103.016 60.2467 102.864 60.5644 102.563C60.7286 102.411 60.859 102.227 60.9469 102.021C61.0348 101.816 61.0782 101.594 61.0744 101.371H61.0764ZM82.8336 103.71C82.8148 105.073 82.3831 106.399 81.5955 107.511C80.8078 108.624 79.7013 109.472 78.4219 109.943C77.752 110.178 77.0473 110.298 76.3374 110.299H71.2781V97.129H76.3374C77.5612 97.1243 78.7587 97.4835 79.7778 98.1611C80.8009 98.8183 81.6241 99.7437 82.1577 100.836C82.6004 101.73 82.8317 102.713 82.8336 103.71ZM79.282 103.71C79.2992 102.854 79.0299 102.016 78.517 101.33C77.8424 100.433 76.8305 99.9851 75.4814 99.9864H74.6982V107.446H75.4814C76.8305 107.446 77.8424 106.997 78.517 106.1C79.0279 105.409 79.2955 104.569 79.2779 103.71H79.282ZM99.9018 110.301H96.2449L95.395 108.004H90.6655L89.7589 110.301H86.1404L91.1998 97.129H94.9417L99.9018 110.301ZM94.4681 105.4L93.0515 101.201L91.6227 105.4H94.4681ZM116.324 110.301H112.062L108.792 105.242V110.301H105.37V97.129H110.696C112.253 97.129 113.405 97.5951 114.151 98.5274C114.755 99.2788 115.076 100.218 115.058 101.182C115.058 102.347 114.71 103.276 114.015 103.971C113.506 104.449 112.869 104.771 112.182 104.898L116.324 110.301ZM111.51 101.371C111.513 101.148 111.469 100.927 111.381 100.723C111.292 100.519 111.161 100.336 110.996 100.187C110.672 99.8853 110.154 99.7355 109.438 99.7355H108.798V103.016H109.432C110.155 103.016 110.674 102.865 110.99 102.563C111.156 102.412 111.287 102.228 111.377 102.022C111.466 101.817 111.511 101.595 111.508 101.371H111.51ZM125.142 110.301H121.714V97.129H125.14L125.142 110.301ZM144.38 110.301H140.721L139.871 108.004H135.143L134.237 110.301H130.616L135.675 97.129H139.409L144.38 110.301ZM138.948 105.4L137.531 101.201L136.092 105.4H138.948ZM163 110.301H159.574L153.272 102.235V110.301H149.846V97.129H153.272L159.574 105.187V97.129H163V110.301Z" fill="url(#paint5_linear_179_4492)"/>
<defs>
<linearGradient id="paint0_linear_179_4492" x1="108.395" y1="32.8348" x2="76.2065" y2="62.6615" gradientUnits="userSpaceOnUse">
<stop stop-color="#000756"/>
<stop offset="1" stop-color="#0042B8"/>
</linearGradient>
<linearGradient id="paint1_linear_179_4492" x1="98.2939" y1="3.84805e-06" x2="26.9794" y2="15.6841" gradientUnits="userSpaceOnUse">
<stop stop-color="#000756"/>
<stop offset="1" stop-color="#0042B8"/>
</linearGradient>
<linearGradient id="paint2_linear_179_4492" x1="121.056" y1="32.8348" x2="74.0652" y2="48.0733" gradientUnits="userSpaceOnUse">
<stop stop-color="#000756"/>
<stop offset="1" stop-color="#0042B8"/>
</linearGradient>
<linearGradient id="paint3_linear_179_4492" x1="121.5" y1="0.00665351" x2="93.6651" y2="40.4004" gradientUnits="userSpaceOnUse">
<stop stop-color="#000756"/>
<stop offset="1" stop-color="#0042B8"/>
</linearGradient>
<linearGradient id="paint4_linear_179_4492" x1="121.5" y1="14.3228" x2="104.577" y2="20.1212" gradientUnits="userSpaceOnUse">
<stop stop-color="#000756"/>
<stop offset="1" stop-color="#0042B8"/>
</linearGradient>
<linearGradient id="paint5_linear_179_4492" x1="163" y1="96.7081" x2="148.274" y2="150.958" gradientUnits="userSpaceOnUse">
<stop stop-color="#000756"/>
<stop offset="1" stop-color="#0042B8"/>
</linearGradient>
</defs>
</svg>
