<svg width="333" height="38" viewBox="0 0 333 38" fill="none" xmlns="http://www.w3.org/2000/svg">
<path d="M30.4528 15.1794C32.7668 18.2684 25.9909 24.2379 27.5133 21.7726H13.0775C11.5589 19.8309 10.4831 17.5806 9.92578 15.1794H30.4528Z" fill="url(#paint0_linear_179_4490)"/>
<path d="M26.2696 32.9754C24.2182 34.6112 22.0003 36.0264 19.6524 37.1975L18.5028 37.7732L17.3458 37.1975C6.48621 31.7501 0 22.3631 0 12.0756V0H6.62461V12.0756C6.62387 12.846 6.67689 13.6155 6.7833 14.3785C7.61737 20.6285 11.8376 26.3932 18.4732 30.2757C18.4797 30.2819 18.4872 30.2869 18.4954 30.2905L18.512 30.2794L18.5397 30.2628C20.9412 31.6048 23.5562 32.5224 26.2696 32.9754V32.9754Z" fill="url(#paint1_linear_179_4490)"/>
<path d="M36.7933 15.1794C36.4873 17.5696 35.8314 19.9018 34.8465 22.1011C33.0307 26.1829 30.1133 29.8956 26.2695 32.9883C23.5593 32.5343 20.9475 31.6167 18.5488 30.2757C19.4172 29.7652 20.2592 29.2109 21.0713 28.615C21.1524 28.5626 21.2307 28.5059 21.3057 28.4452C25.7914 25.2125 29.0226 20.5296 30.4528 15.1886L36.7933 15.1794Z" fill="url(#paint2_linear_179_4490)"/>
<path d="M37 0H6.63379V6.62091H37V0Z" fill="url(#paint3_linear_179_4490)"/>
<path d="M36.9981 6.61908V12.0756C36.9981 12.3007 36.9981 12.5277 36.9852 12.7528H30.3569C30.3569 12.5277 30.368 12.3007 30.368 12.0756V6.61908H36.9981Z" fill="url(#paint4_linear_179_4490)"/>
<path d="M84.0414 17.7647C84.0414 20.2093 83.7735 22.2052 83.2377 23.7525C82.5134 25.9745 81.087 27.8842 79.1853 29.1782C77.2592 30.4241 75.0172 31.0566 72.7419 30.996C68.7052 30.996 65.6084 29.5852 63.4516 26.7637C61.804 24.5747 60.9395 21.8701 61.0033 19.1038C61.0033 15.8174 61.959 13.0548 63.8704 10.816C66.0385 8.27202 69.0665 7 72.9546 7C75.5504 7 77.7512 7.68459 79.5567 9.05374C80.8445 10.0205 81.9443 11.4532 82.8561 13.352L77.4528 15.652C77.0933 14.7486 76.5417 13.9391 75.8386 13.2826C74.9519 12.5353 73.8345 12.1379 72.6878 12.1621C70.2001 12.1621 68.4665 13.4769 67.4872 16.1065C67.1217 17.0635 66.935 18.0827 66.9367 19.1108C66.9069 20.097 67.0672 21.0795 67.4086 22.0018C67.75 22.924 68.2656 23.7678 68.9258 24.4845C69.9074 25.5529 71.2166 26.086 72.8533 26.0837C74.3054 26.0837 75.457 25.6501 76.308 24.7828C76.9297 24.0802 77.3155 23.1914 77.4089 22.2469H72.7047V17.7647H84.0414ZM113.442 20.7413C113.456 21.907 113.343 23.0706 113.104 24.2104C112.734 25.7876 111.909 27.2131 110.737 28.3005C108.954 30.0328 106.57 30.8989 103.584 30.8989C100.547 30.8989 98.1755 30.0166 96.4689 28.2519C95.5469 27.2885 94.9048 26.0798 94.6149 24.762C94.3476 23.4459 94.2287 22.1026 94.2604 20.7586V7.72159H99.9777V19.9364C99.9777 20.9193 99.9946 21.6513 100.028 22.1324C100.132 23.6657 100.807 24.7354 102.055 25.3413C102.589 25.5982 103.173 25.7275 103.763 25.7195C105.157 25.7195 106.208 25.2187 106.917 24.2173C107.444 23.4796 107.708 22.0526 107.708 19.9364V7.72159H113.425L113.442 20.7413ZM143.552 30.3022H137.446L136.031 26.3647H128.139L126.626 30.3022H120.588L129.03 7.72159H135.274L143.552 30.3022ZM134.484 21.8999L132.12 14.7015L129.719 21.8999H134.484ZM170.956 30.3022H163.864L158.404 21.6294V30.3022H152.673V7.72159H161.565C164.163 7.72159 166.084 8.52066 167.329 10.1188C168.337 11.4068 168.873 13.0178 168.842 14.6703C168.842 16.6662 168.263 18.2597 167.103 19.4507C166.253 20.2709 165.191 20.8225 164.043 21.0396L170.956 30.3022ZM162.919 14.9929C162.925 14.6116 162.852 14.2334 162.705 13.8834C162.558 13.5334 162.339 13.2197 162.065 12.9634C161.524 12.4454 160.656 12.1875 159.461 12.1898H158.394V17.8133H159.461C160.67 17.8133 161.534 17.5531 162.065 17.0362C162.339 16.7765 162.556 16.4602 162.703 16.1081C162.849 15.7559 162.922 15.3759 162.916 14.9929H162.919ZM199.225 19.0032C199.194 21.3401 198.474 23.6122 197.159 25.5198C195.845 27.4274 193.998 28.8808 191.863 29.6882C190.746 30.0912 189.57 30.2976 188.385 30.2987H179.943V7.72159H188.385C190.427 7.71346 192.426 8.32933 194.126 9.49086C195.833 10.6176 197.207 12.2039 198.098 14.077C198.836 15.6085 199.222 17.294 199.225 19.0032ZM193.299 19.0032C193.327 17.5352 192.878 16.0994 192.022 14.9235C190.897 13.3855 189.208 12.6177 186.957 12.62H185.65V25.4072H186.957C189.208 25.4072 190.897 24.6383 192.022 23.1003C192.875 21.9163 193.321 20.4756 193.292 19.0032H193.299ZM227.707 30.3022H221.605L220.187 26.3647H212.295L210.782 30.3022H204.743L213.186 7.72159H219.43L227.707 30.3022ZM218.64 21.8999L216.276 14.7015L213.892 21.8999H218.64ZM255.112 30.3022H248L242.543 21.6294V30.3022H236.832V7.72159H245.72C248.319 7.72159 250.24 8.52066 251.485 10.1188C252.493 11.4068 253.029 13.0178 252.998 14.6703C252.998 16.6662 252.418 18.2597 251.259 19.4507C250.408 20.2709 249.346 20.8225 248.199 21.0396L255.112 30.3022ZM247.078 14.9929C247.084 14.6114 247.01 14.233 246.862 13.8831C246.714 13.5331 246.496 13.2196 246.22 12.9634C245.68 12.4465 244.815 12.1898 243.62 12.1898H242.553V17.8133H243.61C244.817 17.8133 245.683 17.5543 246.21 17.0362C246.486 16.7776 246.706 16.4618 246.855 16.1097C247.004 15.7575 247.079 15.3769 247.075 14.9929H247.078ZM269.826 30.3022H264.105V7.72159H269.822L269.826 30.3022ZM301.928 30.3022H295.822L294.404 26.3647H286.515L285.002 30.3022H278.961L287.403 7.72159H293.634L301.928 30.3022ZM292.864 21.8999L290.5 14.7015L288.099 21.8999H292.864ZM333 30.3022H327.283L316.767 16.4742V30.3022H311.049V7.72159H316.767L327.283 21.5357V7.72159H333V30.3022Z" fill="url(#paint5_linear_179_4490)"/>
<defs>
<linearGradient id="paint0_linear_179_4490" x1="37.142" y1="22.6215" x2="11.8836" y2="15.8142" gradientUnits="userSpaceOnUse">
<stop offset="0.14" stop-color="#1B0067"/>
<stop offset="0.21" stop-color="#251277"/>
<stop offset="0.34" stop-color="#363092"/>
<stop offset="0.48" stop-color="#4347A7"/>
<stop offset="0.62" stop-color="#4C57B6"/>
<stop offset="0.79" stop-color="#5161BF"/>
<stop offset="1" stop-color="#5364C2"/>
</linearGradient>
<linearGradient id="paint1_linear_179_4490" x1="27.8178" y1="44.1893" x2="-7.88678" y2="-5.60786" gradientUnits="userSpaceOnUse">
<stop stop-color="#1B0067"/>
<stop offset="0.08" stop-color="#251277"/>
<stop offset="0.23" stop-color="#363092"/>
<stop offset="0.39" stop-color="#4347A7"/>
<stop offset="0.56" stop-color="#4C57B6"/>
<stop offset="0.75" stop-color="#5161BF"/>
<stop offset="1" stop-color="#5364C2"/>
</linearGradient>
<linearGradient id="paint2_linear_179_4490" x1="18.964" y1="36.6531" x2="35.9223" y2="15.1572" gradientUnits="userSpaceOnUse">
<stop offset="0.15" stop-color="#1B0067"/>
<stop offset="0.22" stop-color="#251277"/>
<stop offset="0.35" stop-color="#363092"/>
<stop offset="0.48" stop-color="#4347A7"/>
<stop offset="0.63" stop-color="#4C57B6"/>
<stop offset="0.79" stop-color="#5161BF"/>
<stop offset="1" stop-color="#5364C2"/>
</linearGradient>
<linearGradient id="paint3_linear_179_4490" x1="3.71453" y1="20.5067" x2="18.0451" y2="6.89216" gradientUnits="userSpaceOnUse">
<stop offset="0.14" stop-color="#1B0067"/>
<stop offset="0.53" stop-color="#352E91"/>
<stop offset="1" stop-color="#5364C2"/>
</linearGradient>
<linearGradient id="paint4_linear_179_4490" x1="3918.06" y1="2113.07" x2="3892.38" y2="2546.01" gradientUnits="userSpaceOnUse">
<stop offset="0.14" stop-color="#1B0067"/>
<stop offset="0.21" stop-color="#251277"/>
<stop offset="0.34" stop-color="#363092"/>
<stop offset="0.48" stop-color="#4347A7"/>
<stop offset="0.62" stop-color="#4C57B6"/>
<stop offset="0.79" stop-color="#5161BF"/>
<stop offset="1" stop-color="#5364C2"/>
</linearGradient>
<linearGradient id="paint5_linear_179_4490" x1="333" y1="7" x2="307.164" y2="99.647" gradientUnits="userSpaceOnUse">
<stop stop-color="#000756"/>
<stop offset="1" stop-color="#0042B8"/>
</linearGradient>
</defs>
</svg>
