<svg width="333" height="38" viewBox="0 0 333 38" fill="none" xmlns="http://www.w3.org/2000/svg">
<path d="M30.452 15.1876C32.7668 18.2769 25.988 24.2487 27.5112 21.7822H13.0717C11.5096 19.7395 10.4357 17.5056 9.91943 15.1876H30.452Z" fill="url(#paint0_linear_25_1238)"/>
<path d="M26.2672 32.9885C24.2152 34.6245 21.9967 36.0399 19.6485 37.2115L18.5 37.79L17.3445 37.2138C6.48106 31.7623 0 22.3723 0 12.0819V0H6.62569V12.0819C6.6245 12.8526 6.67646 13.6224 6.78121 14.3859C7.61554 20.6375 11.8354 26.4048 18.4751 30.288C18.4813 30.2939 18.4884 30.2989 18.4961 30.3028C18.5031 30.2989 18.507 30.295 18.514 30.2919L18.542 30.274C20.9418 31.6162 23.5552 32.5345 26.2672 32.9885V32.9885Z" fill="url(#paint1_linear_25_1238)"/>
<path d="M36.7948 15.1876C36.4881 17.5757 35.8332 19.9059 34.8509 22.1041C33.0345 26.1856 30.1155 29.9001 26.2704 32.9901C23.5597 32.5357 20.9477 31.6174 18.5491 30.2756C19.4156 29.7648 20.2556 29.2105 21.0661 28.6147C21.1468 28.5624 21.2247 28.5058 21.2993 28.4452C25.7874 25.2133 29.0208 20.5298 30.4522 15.1876H36.7948Z" fill="url(#paint2_linear_25_1238)"/>
<path d="M37 0.00244141H6.62573V6.62503H37V0.00244141Z" fill="url(#paint3_linear_25_1238)"/>
<path d="M37 6.62509V12.0821C37 12.3076 36.993 12.5339 36.986 12.7601H30.3564C30.3632 12.5336 30.3666 12.3076 30.3666 12.0821V6.62509H37Z" fill="url(#paint4_linear_25_1238)"/>
<path d="M84.0001 17.4582C84.0001 19.8336 83.7327 21.7729 83.1978 23.2763C82.4748 25.4354 81.051 27.291 79.1526 28.5484C77.23 29.7589 74.9921 30.3735 72.7208 30.3147C68.6914 30.3147 65.6002 28.9439 63.4473 26.2022C61.8025 24.0753 60.9396 21.4473 61.0033 18.7594C61.0033 15.5661 61.9573 12.8817 63.8653 10.7064C66.0294 8.23445 69.0521 6.99847 72.9332 6.99847C75.5243 6.99847 77.7211 7.66367 79.5235 8.99403C80.8089 9.93338 81.9067 11.3255 82.8169 13.1705L77.4233 15.4054C77.0644 14.5275 76.5139 13.741 75.812 13.1031C74.9269 12.377 73.8115 11.9909 72.6669 12.0143C70.1836 12.0143 68.4532 13.2919 67.4756 15.847C67.1108 16.7769 66.9243 17.7672 66.9261 18.7661C66.8963 19.7244 67.0564 20.6791 67.3971 21.5752C67.7379 22.4714 68.2526 23.2912 68.9116 23.9876C69.8914 25.0258 71.1983 25.5438 72.8321 25.5415C74.2816 25.5415 75.4311 25.1202 76.2806 24.2775C76.9011 23.5948 77.2863 22.7312 77.3795 21.8134H72.6837V17.4582H84.0001ZM113.348 20.3504C113.362 21.4831 113.249 22.6138 113.011 23.7213C112.641 25.2538 111.818 26.6389 110.648 27.6955C108.868 29.3787 106.488 30.2203 103.508 30.2203C100.476 30.2203 98.1088 29.363 96.4053 27.6483C95.4849 26.7122 94.844 25.5378 94.5547 24.2572C94.2878 22.9785 94.1691 21.6732 94.2007 20.3673V7.69962H99.9078V19.5684C99.9078 20.5235 99.9246 21.2347 99.9583 21.7021C100.062 23.192 100.736 24.2314 101.981 24.8202C102.514 25.0698 103.098 25.1954 103.687 25.1876C105.078 25.1876 106.127 24.7011 106.835 23.728C107.361 23.0111 107.624 21.6246 107.624 19.5684V7.69962H113.331L113.348 20.3504ZM143.404 29.6405H137.309L135.896 25.8146H128.018L126.508 29.6405H120.481L128.908 7.69962H135.141L143.404 29.6405ZM134.352 21.4763L131.993 14.4818L129.596 21.4763H134.352ZM170.759 29.6405H163.68L158.229 21.2134V29.6405H152.509V7.69962H161.384C163.978 7.69962 165.896 8.47605 167.139 10.0289C168.145 11.2805 168.679 12.8458 168.649 14.4514C168.649 16.3908 168.07 17.9391 166.913 19.0965C166.064 19.8934 165.004 20.4294 163.859 20.6403L170.759 29.6405ZM162.736 14.7649C162.743 14.3945 162.67 14.0269 162.523 13.6868C162.376 13.3468 162.158 13.042 161.883 12.793C161.344 12.2896 160.478 12.039 159.284 12.0413H158.219V17.5054H159.284C160.491 17.5054 161.354 17.2526 161.883 16.7504C162.157 16.498 162.374 16.1907 162.52 15.8485C162.667 15.5063 162.739 15.1371 162.733 14.7649H162.736ZM198.977 18.6616C198.946 20.9323 198.227 23.1401 196.915 24.9936C195.603 26.8472 193.76 28.2594 191.629 29.0439C190.513 29.4355 189.339 29.636 188.157 29.6371H179.729V7.69962H188.157C190.195 7.69172 192.19 8.29014 193.887 9.41876C195.592 10.5135 196.963 12.0549 197.852 13.875C198.589 15.3631 198.974 17.0009 198.977 18.6616ZM193.061 18.6616C193.09 17.2352 192.642 15.8401 191.787 14.6975C190.664 13.2031 188.978 12.457 186.731 12.4593H185.426V24.8842H186.731C188.978 24.8842 190.664 24.137 191.787 22.6426C192.638 21.4922 193.084 20.0923 193.055 18.6616H193.061ZM227.408 29.6405H221.317L219.901 25.8146H212.023L210.513 29.6405H204.486L212.913 7.69962H219.146L227.408 29.6405ZM218.357 21.4763L215.998 14.4818L213.618 21.4763H218.357ZM254.764 29.6405H247.665L242.217 21.2134V29.6405H236.517V7.69962H245.389C247.983 7.69962 249.901 8.47605 251.143 10.0289C252.15 11.2805 252.684 12.8458 252.654 14.4514C252.654 16.3908 252.075 17.9391 250.918 19.0965C250.069 19.8934 249.009 20.4294 247.863 20.6403L254.764 29.6405ZM246.744 14.7649C246.75 14.3942 246.677 14.0266 246.529 13.6865C246.381 13.3465 246.163 13.0418 245.888 12.793C245.349 12.2907 244.486 12.0413 243.292 12.0413H242.227V17.5054H243.282C244.487 17.5054 245.352 17.2537 245.878 16.7504C246.154 16.4991 246.373 16.1923 246.522 15.85C246.671 15.5078 246.745 15.138 246.741 14.7649H246.744ZM269.451 29.6405H263.741V7.69962H269.448L269.451 29.6405ZM301.496 29.6405H295.401L293.985 25.8146H286.111L284.6 29.6405H278.57L286.997 7.69962H293.217L301.496 29.6405ZM292.448 21.4763L290.088 14.4818L287.692 21.4763H292.448ZM332.512 29.6405H326.805L316.308 16.2043V29.6405H310.601V7.69962H316.308L326.805 21.1224V7.69962H332.512V29.6405Z" fill="url(#paint5_linear_25_1238)"/>
<defs>
<linearGradient id="paint0_linear_25_1238" x1="37.1438" y1="22.6305" x2="11.8789" y2="15.8213" gradientUnits="userSpaceOnUse">
<stop offset="0.14" stop-color="#ADADAD"/>
<stop offset="0.29" stop-color="#CBCBCB"/>
<stop offset="0.43" stop-color="#E2E2E2"/>
<stop offset="0.59" stop-color="#F2F2F2"/>
<stop offset="0.77" stop-color="#FCFCFC"/>
<stop offset="1" stop-color="white"/>
</linearGradient>
<linearGradient id="paint1_linear_25_1238" x1="27.8161" y1="44.205" x2="-7.89702" y2="-5.60552" gradientUnits="userSpaceOnUse">
<stop stop-color="#ADADAD"/>
<stop offset="0.17" stop-color="#CBCBCB"/>
<stop offset="0.34" stop-color="#E2E2E2"/>
<stop offset="0.52" stop-color="#F2F2F2"/>
<stop offset="0.73" stop-color="#FCFCFC"/>
<stop offset="1" stop-color="white"/>
</linearGradient>
<linearGradient id="paint2_linear_25_1238" x1="18.9604" y1="36.6665" x2="35.9231" y2="15.1643" gradientUnits="userSpaceOnUse">
<stop offset="0.15" stop-color="#ADADAD"/>
<stop offset="0.29" stop-color="#CBCBCB"/>
<stop offset="0.44" stop-color="#E2E2E2"/>
<stop offset="0.6" stop-color="#F2F2F2"/>
<stop offset="0.77" stop-color="#FCFCFC"/>
<stop offset="1" stop-color="white"/>
</linearGradient>
<linearGradient id="paint3_linear_25_1238" x1="3.70595" y1="20.5156" x2="18.0413" y2="6.89797" gradientUnits="userSpaceOnUse">
<stop offset="0.14" stop-color="#ADADAD"/>
<stop offset="0.43" stop-color="#C9C9C9"/>
<stop offset="1" stop-color="white"/>
</linearGradient>
<linearGradient id="paint4_linear_25_1238" x1="33.6782" y1="3.14917" x2="33.6782" y2="12.7601" gradientUnits="userSpaceOnUse">
<stop offset="0.0895638" stop-color="#ADADAD"/>
<stop offset="0.240189" stop-color="#CBCBCB"/>
<stop offset="0.425047" stop-color="#E2E2E2"/>
<stop offset="0.536875" stop-color="#F2F2F2"/>
<stop offset="1" stop-color="white"/>
</linearGradient>
<linearGradient id="paint5_linear_25_1238" x1="196.763" y1="47.8735" x2="196.763" y2="-12.7884" gradientUnits="userSpaceOnUse">
<stop offset="0.18" stop-color="#ADADAD"/>
<stop offset="0.32" stop-color="#CBCBCB"/>
<stop offset="0.46" stop-color="#E2E2E2"/>
<stop offset="0.61" stop-color="#F2F2F2"/>
<stop offset="0.78" stop-color="#FCFCFC"/>
<stop offset="1" stop-color="white"/>
</linearGradient>
</defs>
</svg>
