<svg width="343" height="241" viewBox="0 0 343 241" fill="none" xmlns="http://www.w3.org/2000/svg">
<g clip-path="url(#clip0_4046_59266)">
<path fill-rule="evenodd" clip-rule="evenodd" d="M194.432 44.977L264.383 85.8046C267.32 87.5197 269.722 92.1426 269.722 96.0804V214.861C269.722 217.116 268.934 218.676 267.709 219.275L267.703 219.278C267.663 219.297 267.622 219.316 267.581 219.334C267.113 219.555 265.393 220.397 262.423 221.861C261.606 220.895 261.474 219.525 262.092 218.421C262.215 218.201 262.363 218 262.532 217.821L194.432 178.075C191.496 176.361 189.092 171.736 189.092 167.799V49.4839C188.957 49.4808 188.822 49.4679 188.686 49.4458C187.433 49.2425 186.443 48.2686 186.22 47.0176L190.837 44.7554C191.009 44.645 191.192 44.5559 191.383 44.4882L191.387 44.4859L191.388 44.4866C192.252 44.1821 193.303 44.3183 194.432 44.977Z" fill="#617BD8"/>
<path fill-rule="evenodd" clip-rule="evenodd" d="M189.258 47.5108L259.209 88.3387C262.145 90.0523 264.548 94.6766 264.548 98.6137V217.395C264.548 221.332 262.145 223.151 259.209 221.436L189.258 180.608C186.321 178.895 183.918 174.271 183.918 170.333V51.5525C183.918 47.6151 186.321 45.7968 189.258 47.5108Z" fill="#1B3284"/>
<path fill-rule="evenodd" clip-rule="evenodd" d="M189.258 47.5108L201.357 54.5723C193.933 85.7443 194.821 119.301 205.699 151.935C212.749 173.083 223.391 192.016 236.71 208.306L189.258 180.609C186.321 178.895 183.918 174.271 183.918 170.333V51.5532C183.918 47.6151 186.321 45.7968 189.258 47.5108Z" fill="#1A224E"/>
<path fill-rule="evenodd" clip-rule="evenodd" d="M191.745 55.4221L256.721 93.3468C257.567 93.8397 258.259 95.1707 258.259 96.3038V204.515C258.259 205.649 257.567 206.172 256.721 205.679L191.745 167.754C190.9 167.261 190.208 165.93 190.208 164.797V56.5856C190.208 55.4526 190.9 54.9287 191.745 55.4221Z" fill="#FFFCF2"/>
<path fill-rule="evenodd" clip-rule="evenodd" d="M196.228 64.758L252.916 97.1789C253.914 97.7498 254.732 99.3008 254.732 100.626V126.619C254.732 127.944 253.914 128.562 252.916 127.991L196.228 95.5697C195.229 94.9988 194.412 93.4478 194.412 92.1219V66.1293C194.412 64.8037 195.229 64.187 196.228 64.758Z" fill="#80AECF"/>
<path fill-rule="evenodd" clip-rule="evenodd" d="M205.926 75.8818C209.19 77.7875 211.862 82.9268 211.862 87.3032V90.9843C211.862 95.3614 209.19 97.3825 205.926 95.4776V95.4769C202.662 93.572 199.99 88.4319 199.99 84.0555V80.3744C199.99 75.9981 202.662 73.9762 205.926 75.8818Z" fill="#FFFCF2"/>
<path fill-rule="evenodd" clip-rule="evenodd" d="M216.927 81.9966L248.228 99.8987C248.496 100.051 248.714 100.466 248.714 100.821V102.105C248.714 102.459 248.496 102.624 248.228 102.472L216.927 84.5696C216.66 84.4173 216.441 84.0024 216.441 83.647V82.3631C216.441 82.0084 216.66 81.8436 216.927 81.9966Z" fill="white"/>
<path fill-rule="evenodd" clip-rule="evenodd" d="M216.927 86.858L248.228 104.759C248.496 104.912 248.714 105.327 248.714 105.681V106.966C248.714 107.321 248.496 107.485 248.228 107.332L216.927 89.431C216.66 89.2779 216.441 88.863 216.441 88.5083V87.2244C216.441 86.8697 216.66 86.7049 216.927 86.858Z" fill="white"/>
<path fill-rule="evenodd" clip-rule="evenodd" d="M216.927 92.0297L248.228 109.932C248.496 110.084 248.714 110.499 248.714 110.854V112.138C248.714 112.492 248.496 112.657 248.228 112.505L216.927 94.6027C216.66 94.4504 216.441 94.0355 216.441 93.6808V92.3962C216.441 92.0422 216.66 91.8767 216.927 92.0297Z" fill="white"/>
<path fill-rule="evenodd" clip-rule="evenodd" d="M216.927 96.8911L248.228 114.792C248.496 114.945 248.714 115.36 248.714 115.714V116.999C248.714 117.354 248.496 117.518 248.228 117.365L216.927 99.4641C216.66 99.311 216.441 98.8961 216.441 98.5414V97.2575C216.441 96.9036 216.66 96.738 216.927 96.8911Z" fill="white"/>
<path fill-rule="evenodd" clip-rule="evenodd" d="M195.507 119.629L208.586 127.263C209.641 127.879 210.505 129.541 210.505 130.957V153.737C210.505 155.153 209.641 155.807 208.586 155.191L195.507 147.556C194.451 146.941 193.588 145.278 193.588 143.862V121.083C193.588 119.666 194.451 119.012 195.507 119.629Z" fill="#80AECF"/>
<path fill-rule="evenodd" clip-rule="evenodd" d="M215.277 130.617L252.705 152.023C253.025 152.205 253.286 152.701 253.286 153.125V154.66C253.286 155.085 253.025 155.282 252.705 155.1L215.277 133.694C214.958 133.511 214.696 133.015 214.696 132.592V131.055C214.696 130.632 214.958 130.434 215.277 130.617Z" fill="#80AECF"/>
<path fill-rule="evenodd" clip-rule="evenodd" d="M215.277 136.427L252.705 157.833C253.025 158.015 253.286 158.511 253.286 158.935V160.471C253.286 160.895 253.025 161.092 252.705 160.91L215.277 139.504C214.958 139.321 214.696 138.825 214.696 138.402V136.866C214.696 136.442 214.958 136.245 215.277 136.427Z" fill="#80AECF"/>
<path fill-rule="evenodd" clip-rule="evenodd" d="M215.277 142.615L252.705 164.02C253.025 164.203 253.286 164.699 253.286 165.123V166.659C253.286 167.083 253.025 167.28 252.705 167.097L215.277 145.692C214.958 145.509 214.696 145.013 214.696 144.59V143.053C214.696 142.63 214.958 142.432 215.277 142.615Z" fill="#80AECF"/>
<path fill-rule="evenodd" clip-rule="evenodd" d="M215.277 148.426L252.705 169.831C253.025 170.014 253.286 170.51 253.286 170.934V172.469C253.286 172.893 253.025 173.09 252.705 172.908L215.277 151.503C214.958 151.32 214.696 150.823 214.696 150.4V148.864C214.696 148.441 214.958 148.243 215.277 148.426Z" fill="#80AECF"/>
<path fill-rule="evenodd" clip-rule="evenodd" d="M215.277 154.248L252.705 175.654C253.025 175.836 253.286 176.332 253.286 176.756V178.291C253.286 178.716 253.025 178.913 252.705 178.73L215.277 157.325C214.958 157.142 214.696 156.646 214.696 156.223V154.686C214.696 154.262 214.958 154.065 215.277 154.248Z" fill="#80AECF"/>
<path fill-rule="evenodd" clip-rule="evenodd" d="M203.868 0.417116L231.876 16.7795C233.745 17.8713 235.274 20.7861 235.274 23.2569V46.4142C235.274 47.6614 234.885 48.5653 234.26 49.0161C234.265 49.013 234.254 49.0206 234.226 49.0396L234.218 49.0457L234.215 49.048L234.211 49.0503C234.186 49.0663 234.163 49.0815 234.138 49.096C233.706 49.3823 230.596 51.3132 227.658 52.843C226.111 52.1424 227.061 49.8315 227.494 48.2074C227.638 47.6698 227.905 47.1947 228.259 46.8087L203.868 32.5593C201.998 31.4674 200.469 28.5526 200.469 26.0818V6.00371C200.281 6.02275 200.087 6.02351 199.892 6.00524C198.443 5.87275 195.885 5.16081 195.69 3.71867L201.477 0.32727C201.511 0.302904 201.545 0.280059 201.58 0.257977L201.582 0.256455C202.187 -0.118929 202.991 -0.0960869 203.868 0.417116Z" fill="#4666B8"/>
<path fill-rule="evenodd" clip-rule="evenodd" d="M204.333 7.91797L225.684 20.3909C227.553 21.4821 229.083 24.3976 229.083 26.8684V50.0257C229.083 51.9582 228.147 53.0692 226.844 52.939C224.117 50.1004 221.06 47.6592 217.768 45.6521C217.068 45.1213 216.353 44.6104 215.622 44.1201C215.314 43.9008 215.003 43.6861 214.69 43.4752C213.506 42.5066 212.273 41.5967 210.994 40.75C210.181 40.0312 209.347 39.3467 208.496 38.6957C207.071 37.3137 205.554 36.0238 203.959 34.8352C202.386 33.5774 200.75 32.4391 199.062 31.4202C198.975 31.2222 198.887 31.0258 198.797 30.8301C197.874 28.4818 196.757 26.228 195.469 24.0877C195.25 23.6575 195.023 23.2326 194.794 22.8115C198.97 18.5445 202.209 13.465 204.333 7.91797Z" fill="#1C58CD"/>
<path fill-rule="evenodd" clip-rule="evenodd" d="M197.675 4.02815L206.054 8.92261C206.043 9.33074 206.035 9.74042 206.035 10.1516C206.035 26.9273 215.347 41.6838 229.083 49.4565V50.026C229.083 52.4969 227.553 53.6253 225.684 52.5335L197.675 36.1703C195.807 35.0784 194.277 32.1637 194.277 29.6929V6.53554C194.277 4.06471 195.807 2.93627 197.675 4.02815Z" fill="#0047B0"/>
<path fill-rule="evenodd" clip-rule="evenodd" d="M204.638 14.5066C205.846 15.224 206.834 17.1481 206.834 18.7821V30.5279C206.834 32.1619 205.846 32.9112 204.638 32.1939C203.429 31.4766 202.441 29.5533 202.441 27.9185V16.1735C202.441 14.5387 203.429 13.7894 204.638 14.5066Z" fill="white"/>
<path fill-rule="evenodd" clip-rule="evenodd" d="M211.668 22.9656C212.876 23.6829 213.865 25.6063 213.865 27.2411V34.7016C213.865 36.3363 212.876 37.0856 211.668 36.3683C210.46 35.6511 209.471 33.7269 209.471 32.0929V24.6317C209.471 22.9977 210.46 22.2484 211.668 22.9656Z" fill="white"/>
<path fill-rule="evenodd" clip-rule="evenodd" d="M218.412 30.5223C219.62 31.2395 220.608 33.1637 220.608 34.7977V38.7061C220.608 40.3402 219.62 41.0901 218.412 40.3729C217.203 39.6556 216.215 37.7315 216.215 36.0975V32.1891C216.215 30.5542 217.203 29.805 218.412 30.5223Z" fill="white"/>
<path fill-rule="evenodd" clip-rule="evenodd" d="M201.93 129.478C204.637 131.058 206.853 135.32 206.853 138.949V142.003C206.853 145.632 204.637 147.308 201.93 145.728C199.222 144.148 197.008 139.886 197.008 136.257V133.204C197.008 129.575 199.222 127.898 201.93 129.478Z" fill="#FFFCF2"/>
<path fill-rule="evenodd" clip-rule="evenodd" d="M282.854 107.074L334.768 136.764C335.682 137.287 336.43 138.707 336.43 139.921V163.725C336.43 164.396 336.2 164.869 335.84 165.069V165.07L335.838 165.07L335.834 165.073L335.826 165.078L335.823 165.079L335.822 165.08C335.624 165.188 333.74 166.23 330.17 168.207C328.394 167.319 327.558 165.245 328.223 163.375C328.44 162.764 328.795 162.236 329.242 161.819L282.854 135.29C281.94 134.768 281.192 133.347 281.192 132.133V114.108C280.586 114.286 279.93 114.317 279.276 114.178C277.373 113.769 276.061 112.022 276.199 110.08C276.206 110.077 278.017 109.08 281.635 107.088C281.729 107.008 281.834 106.949 281.949 106.916L281.95 106.915C282.211 106.837 282.522 106.884 282.854 107.074Z" fill="#4666B8"/>
<path fill-rule="evenodd" clip-rule="evenodd" d="M289.914 117.398L329.182 139.856C330.095 140.38 330.844 141.8 330.844 143.014V166.817C330.844 166.978 330.831 167.129 330.806 167.265C328.266 165.42 325.596 163.836 322.834 162.507C321.581 161.855 320.308 161.259 319.017 160.716C318.287 160.157 317.542 159.619 316.782 159.099C316.242 158.629 315.691 158.172 315.134 157.728C313.588 156.319 311.977 155.021 310.312 153.832C309.346 153.017 308.349 152.237 307.323 151.493C306.735 151.034 306.139 150.588 305.535 150.156C303.926 148.801 302.234 147.542 300.467 146.386C299.339 145.606 298.186 144.877 297.011 144.196C295.527 143.198 294.003 142.283 292.445 141.454C290.966 140.553 289.439 139.725 287.868 138.972L287.292 138.678C286.159 137.041 284.939 135.479 283.641 133.999C286.717 128.796 288.808 123.174 289.914 117.398Z" fill="#1C58CD"/>
<path fill-rule="evenodd" clip-rule="evenodd" d="M277.27 110.17L291.177 118.124C293.853 137.033 306.883 153.756 326.231 160.206C327.762 160.717 329.303 161.149 330.844 161.511V166.82C330.844 168.034 330.096 168.599 329.182 168.076L277.27 138.387C276.355 137.864 275.607 136.443 275.607 135.229V111.426C275.607 110.212 276.355 109.647 277.27 110.17Z" fill="#0047B0"/>
<path fill-rule="evenodd" clip-rule="evenodd" d="M282.179 120.344L323.884 144.193C324.81 144.724 325.567 146.162 325.567 147.391C325.567 148.62 324.81 149.191 323.884 148.661L282.179 124.813C281.252 124.283 280.496 122.845 280.496 121.616C280.496 120.386 281.252 119.815 282.179 120.344Z" fill="white"/>
<path fill-rule="evenodd" clip-rule="evenodd" d="M282.179 128.647L310.285 144.719C311.21 145.249 311.968 146.687 311.968 147.916C311.968 149.145 311.21 149.717 310.285 149.188L282.179 133.115C281.252 132.586 280.496 131.147 280.496 129.919V129.918C280.496 128.689 281.252 128.118 282.179 128.647Z" fill="white"/>
<path fill-rule="evenodd" clip-rule="evenodd" d="M283.881 149.164L308.871 163.53C310.806 164.642 312.388 167.658 312.388 170.231V191.454C312.388 192.82 311.942 193.799 311.235 194.248C311.205 194.267 311.177 194.284 311.147 194.301C310.759 194.538 309.113 195.588 306.208 197.447C304.931 196.626 304.385 195.036 304.885 193.604C305.062 193.096 305.354 192.655 305.726 192.304L283.881 179.746C281.946 178.633 280.364 175.618 280.364 173.044V153.892C280.112 153.953 279.85 153.979 279.582 153.966C278.388 153.908 277.366 153.092 277.046 151.94C277.046 151.94 278.522 150.978 281.474 149.055C282.105 148.628 282.952 148.63 283.881 149.164Z" fill="#E06A43"/>
<path fill-rule="evenodd" clip-rule="evenodd" d="M279.204 152.191L304.193 166.558C306.128 167.67 307.711 170.686 307.711 173.259V194.482C307.711 195.353 307.529 196.066 307.214 196.585C306.918 196.351 306.621 196.12 306.32 195.893C304.767 194.579 303.129 193.364 301.411 192.26C299.44 190.901 297.36 189.688 295.185 188.64C293.472 186.97 291.644 185.446 289.721 184.074C286.474 181.524 282.967 179.464 279.301 177.893L279.09 177.553C278.744 176.797 278.379 176.051 277.995 175.317C277.861 174.975 277.724 174.637 277.583 174.301L277.522 173.829V171.798C277.522 169.249 277.316 166.749 276.924 164.311C276.778 162.69 276.552 161.09 276.246 159.521L276.204 159.216C276.555 156.851 276.722 154.489 276.709 152.146C277.347 151.656 278.231 151.632 279.204 152.191Z" fill="#BD250D"/>
<path fill-rule="evenodd" clip-rule="evenodd" d="M279.204 152.191L280.249 152.792C280.555 156.426 281.292 160.08 282.495 163.693C286.802 176.611 296.198 186.398 307.711 191.576V194.482C307.711 197.055 306.128 198.251 304.193 197.139L279.204 182.773C277.269 181.66 275.687 178.645 275.687 176.072V154.849C275.687 152.275 277.269 151.079 279.204 152.191Z" fill="#961400"/>
<path fill-rule="evenodd" clip-rule="evenodd" d="M0.00533 275.14C-0.0989856 277.104 1.92869 279.173 5.97569 281.516C5.97569 281.516 28.2178 294.351 72.7027 320.022C78.1905 323.037 82.781 322.862 87.0117 320.442C87.0117 320.442 135.819 292.081 233.435 235.361C236.318 233.682 237.777 231.832 237.841 229.967H237.842V229.955C237.844 229.872 237.844 229.789 237.841 229.705L237.808 221.215C236.075 220.938 234.34 221.712 233.386 223.187C233.23 223.428 233.101 223.68 232.996 223.941C232.87 223.867 232.741 223.794 232.609 223.722C232.609 223.722 210.034 210.654 164.884 184.514C161.364 182.551 157.162 182.674 152.486 185.267L5.79904 269.723C5.64827 269.292 5.42746 268.88 5.13583 268.504C3.92593 266.943 1.81448 266.398 0 267.178C0 267.058 0.00152286 269.712 0.00456857 275.14L0.00533 275.14Z" fill="#4666B8"/>
<path fill-rule="evenodd" clip-rule="evenodd" d="M3.96155 262.672C-2.0149 266.022 -1.13697 269.291 5.9763 273.409C5.9763 273.409 28.2176 286.244 72.7026 311.914C78.1898 314.929 82.781 314.754 87.011 312.335C87.011 312.335 135.819 283.974 233.435 227.252C239.616 223.652 239.259 219.268 232.609 215.614C232.609 215.614 210.034 202.546 164.884 176.407C161.364 174.444 157.162 174.566 152.486 177.159L3.96155 262.672Z" fill="#1C58CD"/>
<path fill-rule="evenodd" clip-rule="evenodd" d="M3.96155 262.672C-2.0149 266.022 -1.13697 269.291 5.9763 273.409L69.5008 310.066C69.5579 297.163 71.6252 284.049 75.9273 271.141C91.9921 222.94 134.623 191.074 182.115 186.383L164.884 176.407C161.364 174.444 157.162 174.566 152.486 177.159L3.96155 262.672Z" fill="#0047B0"/>
<path fill-rule="evenodd" clip-rule="evenodd" d="M27.4851 256.928C22.4528 259.747 23.1921 262.5 29.1815 265.968L85.3687 298.391C89.9894 300.93 93.8551 300.783 97.417 298.746C97.417 298.746 138.516 274.865 220.713 227.103C225.918 224.07 225.616 220.379 220.017 217.302C220.017 217.302 201.008 206.298 162.989 184.288C160.025 182.635 156.487 182.737 152.55 184.922C69.1733 232.926 27.4851 256.928 27.4851 256.928Z" fill="white"/>
<path fill-rule="evenodd" clip-rule="evenodd" d="M168.856 196.663L163.077 200.163C161.252 201.193 161.453 202.418 163.543 203.637L204.854 227.644C206.58 228.688 208.026 228.391 210.02 227.241L214.854 224.367C217.233 222.947 217.226 221.981 215.145 220.823L173.71 196.849C172.045 195.811 170.458 195.716 168.856 196.663Z" fill="#5E7CB5"/>
<path fill-rule="evenodd" clip-rule="evenodd" d="M157.783 187.818C161.583 187.818 164.663 190.093 164.663 192.899C164.663 195.704 161.583 197.979 157.783 197.979C153.984 197.979 150.905 195.704 150.905 192.899C150.905 190.093 153.984 187.818 157.783 187.818Z" fill="#4666B8"/>
<path fill-rule="evenodd" clip-rule="evenodd" d="M138.922 198.259L133.144 201.759C131.318 202.789 131.519 204.014 133.61 205.232L174.92 229.24C176.646 230.283 178.093 229.987 180.086 228.836L184.92 225.963C187.3 224.543 187.292 223.577 185.212 222.418L143.776 198.444C142.11 197.407 140.524 197.312 138.922 198.259Z" fill="#5E7CB5"/>
<path fill-rule="evenodd" clip-rule="evenodd" d="M190.34 226.053C194.139 226.053 197.219 228.327 197.219 231.133C197.219 233.938 194.139 236.213 190.34 236.213C186.54 236.213 183.46 233.938 183.46 231.133C183.46 228.327 186.54 226.053 190.34 226.053Z" fill="#4666B8"/>
<path fill-rule="evenodd" clip-rule="evenodd" d="M122.274 208.261L116.496 211.761C114.67 212.791 114.872 214.016 116.961 215.234L158.272 239.243C159.999 240.285 161.445 239.989 163.439 238.839L168.272 235.966C170.651 234.545 170.644 233.579 168.563 232.42L127.128 208.446C125.463 207.409 123.876 207.314 122.274 208.261Z" fill="#5E7CB5"/>
<path fill-rule="evenodd" clip-rule="evenodd" d="M173.692 236.057C177.491 236.057 180.57 238.331 180.57 241.136C180.57 243.942 177.491 246.216 173.692 246.216C169.892 246.216 166.812 243.942 166.812 241.136C166.812 238.331 169.892 236.057 173.692 236.057Z" fill="#4666B8"/>
<path fill-rule="evenodd" clip-rule="evenodd" d="M84.3666 227.99L148.432 265.247L143.862 268.021L79.8019 230.808L84.3666 227.99Z" fill="#4666B8"/>
<path fill-rule="evenodd" clip-rule="evenodd" d="M75.218 232.852L139.283 270.107L134.713 272.881L70.6532 235.669L75.218 232.852Z" fill="#4666B8"/>
<path fill-rule="evenodd" clip-rule="evenodd" d="M66.1131 238.277L130.178 275.532L125.608 278.306L61.5484 241.095L66.1131 238.277Z" fill="#4666B8"/>
<path fill-rule="evenodd" clip-rule="evenodd" d="M157.174 113.863C158.184 113.863 159.011 114.69 159.011 115.7V193.074C159.011 194.083 158.184 194.909 157.174 194.909C156.163 194.909 155.338 194.083 155.338 193.074V115.7C155.338 114.69 156.163 113.863 157.174 113.863Z" fill="#0047B0"/>
<path fill-rule="evenodd" clip-rule="evenodd" d="M179.334 51.5476L180.018 49.7605H180.019C181.747 45.2293 183.405 40.6737 185.009 36.0967C186.037 34.8548 185.838 33.0068 184.571 32.0109C183.588 30.6365 183.568 28.7939 184.522 27.3989C185.376 26.0969 185.064 25.4672 183.589 25.5098C180.415 26.891 179.304 30.8513 181.296 33.6815C181.296 33.6815 177.975 40.4879 171.423 52.4042C170.824 53.4954 170.228 54.5873 169.634 55.6806C173.022 57.8675 175.241 58.7941 176.291 58.4621C176.487 57.2027 176.886 55.986 177.468 54.8606C177.908 53.6598 178.533 52.5459 179.334 51.5476Z" fill="#FFC44F"/>
<path fill-rule="evenodd" clip-rule="evenodd" d="M176.32 58.4522C176.477 58.6495 176.557 58.7644 176.557 58.7644C177.645 55.9502 178.727 53.1344 179.805 50.3164C177.463 53.1763 173.925 54.7692 170.219 54.6024L169.634 55.6799C173.052 57.8857 175.281 58.8101 176.32 58.4522Z" fill="#F79823"/>
<path fill-rule="evenodd" clip-rule="evenodd" d="M210.411 123.942L214.768 120.988L217.471 124.972L213.113 127.927L210.411 123.942Z" fill="#FFC44F"/>
<path fill-rule="evenodd" clip-rule="evenodd" d="M210.411 123.94L213.891 121.58C213.502 123.414 213.548 125.358 214.099 127.257L213.113 127.925L210.411 123.94Z" fill="#F79823"/>
<path fill-rule="evenodd" clip-rule="evenodd" d="M220.977 76.2225L221.041 72.9297L225.853 73.0233L225.752 78.2871L224.759 78.2679C223.621 77.3453 222.335 76.6588 220.977 76.2225Z" fill="#FFC44F"/>
<path fill-rule="evenodd" clip-rule="evenodd" d="M220.569 78.4648C220.663 74.8779 220.624 72.6524 220.624 72.6524L197.269 71.9131C193.432 71.7219 191.058 72.5572 188.627 74.8559L175.232 88.3279C174.231 97.8752 176.253 102.245 181.297 101.437L182.993 98.9752C183.427 95.6091 185.299 92.6645 187.999 90.8155C188.77 89.4028 189.836 88.1447 191.148 87.1403L193.843 83.229C194.582 82.1356 195.747 81.5808 196.843 81.3432C212.615 79.3058 220.569 78.4648 220.569 78.4648Z" fill="#C25604"/>
<path fill-rule="evenodd" clip-rule="evenodd" d="M220.938 78.1937L221.041 72.9297L221.685 72.9426C222.543 75.0336 223.975 76.7869 225.756 78.0458L225.751 78.2871L220.938 78.1937Z" fill="#F79823"/>
<path fill-rule="evenodd" clip-rule="evenodd" d="M176.848 86.7029L175.232 88.3282C174.23 97.8748 176.253 102.245 181.297 101.437L192.371 85.3652C188.565 89.3936 182.354 90.228 177.589 87.19C177.334 87.0354 177.092 86.8721 176.848 86.7029Z" fill="#A34002"/>
<path fill-rule="evenodd" clip-rule="evenodd" d="M219.515 78.2591L219.939 72.7646C219.983 72.1874 220.491 71.7519 221.069 71.796C221.646 71.8402 222.082 72.3488 222.038 72.926L221.614 78.4202C221.57 78.9978 221.061 79.4334 220.484 79.3892C219.907 79.3451 219.471 78.8359 219.515 78.2591Z" fill="white"/>
<path fill-rule="evenodd" clip-rule="evenodd" d="M224.248 78.5773C226.045 79.522 228.103 79.7869 229.757 78.8716C229.757 78.8716 229.796 73.7557 229.921 64.0207C229.038 63.7565 228.071 64.4289 227.02 66.0393C227.02 66.0393 225.904 67.5888 223.673 70.6871C223.526 71.0769 223.562 71.5337 223.772 71.9259C223.981 72.3172 224.339 72.5982 224.742 72.6881C225.517 74.7049 225.331 76.9137 224.248 78.5773Z" fill="#542E13"/>
<path fill-rule="evenodd" clip-rule="evenodd" d="M209.976 123.799C212.96 121.805 214.755 120.487 214.755 120.487L201.876 100.991C199.817 97.7474 197.765 96.2906 194.484 95.6328L175.751 92.4727C169.518 95.9668 166.594 99.1711 166.981 102.088C167.268 102.068 167.562 102.07 167.858 102.098C168.117 102.122 168.387 102.141 168.645 102.178C169.061 102.199 169.481 102.21 169.893 102.266C170.275 102.26 170.662 102.294 171.046 102.374C171.162 102.394 171.281 102.414 171.397 102.427C171.762 102.454 172.113 102.502 172.468 102.594C172.772 102.65 173.054 102.695 173.355 102.782C173.901 102.83 174.449 102.964 174.979 103.191C175.104 103.227 175.226 103.269 175.349 103.316C175.464 103.35 175.579 103.387 175.693 103.429C175.801 103.454 175.91 103.483 176.018 103.515C176.107 103.528 176.196 103.542 176.285 103.56C176.778 103.6 177.271 103.71 177.754 103.895C177.963 103.955 178.169 104.029 178.37 104.116C178.459 104.138 178.537 104.16 178.628 104.174C178.965 104.178 179.306 104.213 179.644 104.283C179.815 104.306 179.985 104.338 180.154 104.38C180.244 104.392 180.335 104.407 180.424 104.425C180.487 104.43 180.549 104.438 180.611 104.447C180.812 104.456 181.016 104.479 181.218 104.498C181.501 104.462 181.784 104.45 182.064 104.458C182.796 104.415 183.547 104.525 184.271 104.802L190.658 104.725C191.978 104.698 193.103 105.329 193.93 106.087C204.698 117.788 209.976 123.799 209.976 123.799Z" fill="#E0770D"/>
<path fill-rule="evenodd" clip-rule="evenodd" d="M172.41 96.5556C170.34 96.3863 168.387 97.5312 167.521 99.4192C166.657 101.308 167.067 103.535 168.548 104.99C181.319 104.836 187.705 104.759 187.705 104.759C177.552 103.963 172.454 101.228 172.41 96.5556Z" fill="#C25604"/>
<path fill-rule="evenodd" clip-rule="evenodd" d="M176.905 58.9411L168.929 54.8477L164.84 63.215C163.483 65.9904 165.018 69.3018 167.983 70.0846C168.09 70.0458 168.198 70.01 168.307 69.9757L168.31 69.9742C168.638 69.8075 168.961 69.6803 169.302 69.5485C169.441 69.4488 169.583 69.3536 169.729 69.2631C169.897 69.1077 170.073 68.96 170.256 68.8191C170.354 68.7285 170.454 68.6402 170.558 68.5541C170.673 68.4468 170.793 68.3417 170.916 68.2404C170.985 68.1719 171.055 68.1033 171.127 68.0364C171.28 67.849 171.45 67.6526 171.614 67.4759C171.782 67.2506 171.959 67.0442 172.146 66.8349C172.477 66.266 172.884 65.7521 173.335 65.2739C173.416 65.165 173.496 65.0546 173.578 64.9465C173.719 64.7333 173.872 64.5254 174.035 64.3244L174.696 63.1907L174.585 63.7191L174.613 63.6924C174.663 63.5195 174.72 63.3474 174.783 63.1769C175.025 61.5924 175.783 60.0863 176.905 58.9411Z" fill="#38646E"/>
<path fill-rule="evenodd" clip-rule="evenodd" d="M177.621 59.3089L168.929 54.8477L168.135 56.4733C171.79 58.6007 173.037 63.2697 170.907 66.9277C170.108 68.3013 168.946 69.333 167.613 69.9711C169.938 70.7858 172.53 69.7359 173.62 67.5026L177.621 59.3089Z" fill="#2F7165"/>
<path fill-rule="evenodd" clip-rule="evenodd" d="M176.707 59.9208L168.72 56.02C168.228 55.7801 168.022 55.1801 168.262 54.6882V54.6874C168.504 54.1948 169.103 53.9893 169.596 54.2291L177.581 58.1299C178.074 58.3705 178.28 58.9697 178.039 59.4624C177.799 59.955 177.2 60.1614 176.707 59.9208Z" fill="white"/>
<path fill-rule="evenodd" clip-rule="evenodd" d="M155.961 67.415C160.718 66.9368 165.307 65.0059 165.689 63.1152C169.874 64.8353 172.01 74.6449 178.583 85.9825C180.628 89.6238 178.066 93.1643 174.216 95.3974C170.02 97.8107 167.999 100.586 168.54 103.951C168.772 105.42 168.206 106.071 166.841 105.903C161.091 104.452 157.227 99.5758 155.247 91.2756C154.674 89.0138 154.182 86.9397 153.772 85.051C158.069 79.9396 157.429 73.943 155.961 67.415Z" fill="#2F7165"/>
<path fill-rule="evenodd" clip-rule="evenodd" d="M155.307 67.1329C156.142 67.101 158.966 67.2571 158.986 67.672C159.629 80.9716 164.594 96.2631 175.751 92.4695C173.715 94.5554 169.681 96.1447 168.281 97.859C166.056 100.58 166.789 102.871 164.892 103.106C161.924 103.474 157.418 96.6501 155.203 87.5089C152.554 76.5069 151.015 70.385 155.307 67.1329Z" fill="#18453A"/>
<path fill-rule="evenodd" clip-rule="evenodd" d="M154.567 60.4265C154.027 55.2891 156.464 54.9823 161.879 59.5021C161.552 59.5379 161.265 59.7396 161.119 60.0336L160.79 60.0998L160.317 60.1379C160.158 60.1455 160.033 60.1485 159.877 60.1805C159.692 60.1835 159.51 60.2072 159.326 60.23C159.206 60.246 159.119 60.2376 158.996 60.2369L158.727 60.2346C158.599 60.2315 158.457 60.2216 158.33 60.2278L158.062 60.2414C157.772 60.2224 157.484 60.2041 157.194 60.2117C157.012 60.2155 156.837 60.2186 156.656 60.2019C156.429 59.7739 155.912 59.5745 155.45 59.7549L155.139 59.8752V59.876C154.894 59.9711 154.674 60.1866 154.567 60.4265ZM156.303 65.659C156.338 65.6841 156.369 65.7123 156.399 65.7413C156.495 65.6095 156.582 65.4732 156.689 65.3468C156.864 65.3568 157.043 65.3194 157.21 65.2281C157.446 65.0978 157.69 64.9623 157.918 64.8161C158.079 64.74 158.352 64.6219 158.498 64.4971C158.538 64.4773 158.578 64.4552 158.621 64.4262L158.597 64.4362C158.656 64.4118 158.713 64.3805 158.769 64.344C158.922 64.242 159.085 64.1849 159.237 64.0767C159.344 64.0227 159.416 63.9778 159.502 63.9032C159.638 63.8445 159.824 63.7372 159.933 63.6344C159.982 63.5887 160.035 63.5506 160.082 63.5049C160.151 63.4676 160.217 63.4204 160.278 63.3648C160.509 63.4905 160.794 63.5248 161.085 63.4113L161.563 63.2255C161.643 63.1942 161.717 63.1531 161.784 63.1044C161.864 63.0489 161.953 62.9978 162.027 62.9361L162.175 62.8128C162.294 62.7336 162.408 62.6551 162.524 62.573C162.68 62.4625 162.769 62.324 162.88 62.1739L163.052 61.9531C163.12 61.8686 163.198 61.781 163.254 61.6874C163.407 61.43 163.515 61.2709 163.553 60.9663C163.789 61.1803 164.028 61.4011 164.272 61.6303C166.312 63.1425 167.219 65.2889 166.575 67.0859C165.932 68.8814 163.863 69.9801 161.318 69.8773C159.016 69.7852 156.725 68.7245 155.306 67.1347C155.44 66.5339 155.797 66.007 156.303 65.659ZM158.478 62.2508C158.412 62.295 158.346 62.3377 158.286 62.3909C158.313 62.3658 158.278 62.3872 158.237 62.4138C158.195 62.3308 158.139 62.2516 158.07 62.1801C158.177 62.1801 158.28 62.1717 158.39 62.1663L158.616 62.1717C158.567 62.1945 158.521 62.2212 158.478 62.2508Z" fill="white"/>
<path fill-rule="evenodd" clip-rule="evenodd" d="M156.202 61.9331C155.249 56.4075 157.683 56.3739 163.505 61.8333C165.071 62.9945 165.766 64.6415 165.273 66.0197C164.778 67.3979 163.191 68.2408 161.239 68.1624C159.285 68.0832 157.343 67.0979 156.303 65.658C156.901 64.445 156.867 63.2032 156.202 61.9331Z" fill="#FAB041"/>
<path fill-rule="evenodd" clip-rule="evenodd" d="M164.169 63.0331C161.554 64.3724 158.36 63.7031 156.502 61.4272C155.983 60.7511 155.895 59.8381 156.277 59.0751C156.658 58.3129 157.441 57.8348 158.293 57.8439C159.145 57.853 159.917 58.348 160.282 59.1185C161.662 61.2125 163.132 62.6264 164.169 63.0331Z" fill="#E88B09"/>
<path fill-rule="evenodd" clip-rule="evenodd" d="M158.794 59.0876C162.814 60.2579 165.163 59.4957 165.842 56.8018C166.695 55.5432 167.122 54.2419 164.143 53.4843C163.684 53.3091 163.52 52.8622 163.65 52.1441C163.859 51.1177 162.404 50.2284 160.072 48.5769C158.209 47.2604 155.643 47.616 154.208 49.3893C152.774 51.1627 152.96 53.7462 154.637 55.2934C154.32 58.2668 154.94 59.9632 156.497 60.3835C156.928 60.8313 157.606 60.9303 158.148 60.6249C158.688 60.3204 158.954 59.6876 158.794 59.0876Z" fill="#FFC44F"/>
<path fill-rule="evenodd" clip-rule="evenodd" d="M158.873 56.344C158.83 55.9847 158.842 55.6321 158.908 55.2857C159.206 53.9402 158.087 53.3988 156.129 53.5389C153.793 53.7232 154.937 52.0983 158.442 51.0224C160.413 50.4407 161.22 48.3772 160.766 46.5025C160.314 44.6272 158.555 43.3678 156.635 43.5413C154.715 43.715 153.46 45.1275 153.101 47.1955C152.751 48.8051 152.206 49.9221 151.34 50.765C151.041 51.059 150.772 51.3505 150.53 51.6384C151.189 52.6831 151.568 53.9151 151.572 55.2186C153.031 54.8928 154.517 55.0671 155.82 55.6504C157.42 56.3463 158.754 57.656 159.437 59.4111L159.546 59.6897C159.666 59.7895 159.777 59.8946 159.892 59.9973C159.982 60.0659 160.07 60.136 160.157 60.2098C160.481 60.3796 160.766 60.5746 161.071 60.7717C161.114 60.7968 161.195 60.854 161.235 60.8715C161.516 60.9157 161.796 60.978 162.074 61.0596C163.24 61.3161 164.324 61.8766 165.21 62.6883C165.344 62.6274 165.48 62.5596 165.616 62.4849C166.715 61.8697 166.89 60.3834 166.407 57.774C166.157 56.4179 164.71 56.1423 164.018 57.3278C163.418 58.3352 162.252 58.859 161.101 58.639C159.95 58.4189 159.059 57.5014 158.873 56.344Z" fill="#1F2917"/>
<path fill-rule="evenodd" clip-rule="evenodd" d="M158.873 56.3457C158.83 55.9863 158.841 55.6338 158.908 55.2873C158.984 54.9469 158.968 54.6576 158.872 54.4185C155.773 55.5294 152.344 54.2624 150.705 51.4375C147.748 54.7939 148.568 57.7002 150.084 59.07C151.854 60.784 153.175 62.0998 154.046 63.0173C154.792 63.8145 155.803 63.8907 156.392 62.5414C156.906 61.3391 156.877 60.7856 156.224 60.015C153.865 57.3401 156.605 54.8327 158.057 57.6873L158.095 57.7619C160.409 62.4227 162.556 64.1458 165.616 62.4866C165.781 62.3952 165.923 62.284 166.046 62.1531C163.979 61.8356 162.109 60.5686 161.083 58.6368C159.939 58.4099 159.058 57.497 158.873 56.3457Z" fill="#17170C"/>
<path fill-rule="evenodd" clip-rule="evenodd" d="M209.537 122.818L214.267 119.992C214.764 119.695 215.413 119.859 215.71 120.355V120.356C216.007 120.853 215.844 121.503 215.347 121.799L210.616 124.626C210.119 124.922 209.47 124.758 209.173 124.262C208.875 123.764 209.039 123.115 209.537 122.818Z" fill="white"/>
<path fill-rule="evenodd" clip-rule="evenodd" d="M211.105 125.347C210.32 127.22 210.233 129.294 211.289 130.864C211.289 130.864 216.388 130.457 226.098 129.739C226.285 128.836 225.53 127.931 223.835 127.024C223.835 127.024 222.195 126.046 218.915 124.092C218.514 123.98 218.062 124.055 217.69 124.298C217.318 124.54 217.069 124.921 217.015 125.331C215.072 126.277 212.855 126.283 211.105 125.347Z" fill="#542E13"/>
<path fill-rule="evenodd" clip-rule="evenodd" d="M150.49 92.0343L150.739 94.1556C151.364 99.434 152.158 106.973 152.924 112.232C151.618 113.779 151.382 116.404 152.774 117.875C154.166 119.345 156.761 119.6 158.379 118.381C160.123 117.236 159.379 115.573 157.683 116.448C157.14 116.763 156.451 116.67 156.01 116.222C155.569 115.775 155.486 115.085 155.81 114.546C156.134 114.007 156.781 113.755 157.384 113.935C159.746 114.676 160.765 113.408 158.029 112.208C157.979 109.777 157.614 99.5583 157.867 87.0914C157.894 85.7037 157.918 84.3153 157.939 82.9269C153.457 82.5193 150.785 82.7526 149.918 83.6245C150.377 84.9709 150.613 86.3807 150.619 87.7933C150.806 89.2082 150.766 90.6334 150.49 92.0343Z" fill="#FFC44F"/>
<path fill-rule="evenodd" clip-rule="evenodd" d="M149.764 83.0558C149.507 82.9418 149.498 83.4642 149.498 83.4642C149.88 86.8083 150.268 90.1523 150.661 93.4957C151.496 89.4563 154.169 86.0497 157.918 84.2956L157.939 82.9285C153.417 82.5165 150.606 82.1648 149.764 83.0558Z" fill="#F79823"/>
<path fill-rule="evenodd" clip-rule="evenodd" d="M149.538 82.799L158.502 82.6114L158.123 73.3066C157.998 70.219 155.074 68.0344 152.093 68.7555C152.017 68.84 151.94 68.923 151.86 69.0045L151.858 69.0075C151.649 69.3098 151.426 69.5755 151.187 69.8534C151.112 70.0073 151.033 70.158 150.947 70.3081C150.872 70.5235 150.789 70.7375 150.694 70.9491C150.651 71.0755 150.605 71.2004 150.555 71.3245C150.505 71.4746 150.449 71.6238 150.388 71.7715C150.361 71.8644 150.332 71.958 150.301 72.0501C150.255 72.2885 150.199 72.5421 150.138 72.7758C150.097 73.0545 150.039 73.3195 149.975 73.5923C149.954 74.25 149.839 74.8953 149.669 75.531C149.65 75.6657 149.633 75.8003 149.612 75.935C149.589 76.1895 149.554 76.4441 149.505 76.6987L149.463 78.0106L149.308 77.4933L149.297 77.5294C149.335 77.706 149.366 77.8833 149.393 78.0643C149.932 79.5734 149.981 81.259 149.538 82.799Z" fill="#38646E"/>
<path fill-rule="evenodd" clip-rule="evenodd" d="M148.733 82.8147L158.502 82.6094L158.428 80.8016C154.201 80.6663 150.884 77.1515 151.02 72.9204C151.071 71.332 151.604 69.8724 152.473 68.6777C150.04 69.0645 148.258 71.2209 148.361 73.7029L148.733 82.8147Z" fill="#2F7165"/>
<path fill-rule="evenodd" clip-rule="evenodd" d="M149.247 81.844L158.129 81.4813C158.676 81.4592 159.142 81.8882 159.164 82.4356V82.4363C159.187 82.9837 158.758 83.4502 158.209 83.473L149.329 83.835C148.781 83.8578 148.314 83.4289 148.293 82.8807C148.27 82.3333 148.7 81.8661 149.247 81.844Z" fill="white"/>
<path fill-rule="evenodd" clip-rule="evenodd" d="M133.349 95.7652L14.1918 163.912C12.0926 165.113 10.3756 168.375 10.3756 171.16V225.797C10.3756 227.412 10.9421 228.354 11.8466 228.944C16.6901 232.336 19.1244 234.042 19.1503 234.063C21.213 232.948 22.2196 230.546 21.5686 228.294C21.2404 227.158 20.5338 226.214 19.6155 225.578L133.349 160.532C135.448 159.331 137.166 156.071 137.166 153.286V104.213C137.686 104.381 138.242 104.461 138.812 104.436C140.943 104.345 142.744 102.832 143.204 100.75C143.204 100.75 140.837 99.0865 136.105 95.7593L136.098 95.7534C135.402 95.1854 134.43 95.1471 133.349 95.7652Z" fill="#004585"/>
<path fill-rule="evenodd" clip-rule="evenodd" d="M140.945 101.051L30.1294 164.428C33.2253 172.595 35.0163 181.406 35.2394 190.604C37.564 190.738 39.8734 190.976 42.163 191.311H54.1836C58.0502 191.311 61.9 191.593 65.7033 192.151H76.6204L73.5201 193.701L74.0945 193.848C81.7068 189.798 90.0563 186.953 98.8892 185.564C102.863 184.341 106.972 183.426 111.186 182.838L140.945 165.818C143.044 164.618 144.762 161.357 144.762 158.571V103.933C144.762 101.148 143.044 99.8512 140.945 101.051ZM29.304 190.47L28.4169 188.697C28.6972 189.283 28.9698 189.875 29.2354 190.47H29.304Z" fill="#3762D1"/>
<path fill-rule="evenodd" clip-rule="evenodd" d="M32.7695 162.919L21.7882 169.199C19.6889 170.399 17.9711 173.66 17.9711 176.446V231.084C17.9711 233.869 19.6889 235.167 21.7882 233.966L140.945 165.819C143.044 164.618 144.762 161.357 144.762 158.572V153.328C137.99 161.386 129.502 168.226 119.489 173.231C90.2403 187.856 56.2832 182.731 32.7695 162.919Z" fill="#2457A3"/>
<path fill-rule="evenodd" clip-rule="evenodd" d="M129.803 137.036L64.1064 174.604C62.6483 175.438 61.4551 177.705 61.4551 179.641C61.4551 181.576 62.6483 182.477 64.1064 181.642L129.803 144.075C131.262 143.241 132.455 140.975 132.455 139.039V139.038C132.455 137.103 131.262 136.201 129.803 137.036Z" fill="white"/>
<path fill-rule="evenodd" clip-rule="evenodd" d="M108.165 161.59L63.891 186.908C62.4321 187.743 61.2389 190.01 61.2389 191.945C61.2389 193.881 62.4321 194.781 63.891 193.948L108.165 168.629C109.623 167.795 110.817 165.529 110.817 163.594V163.593C110.817 161.657 109.623 160.757 108.165 161.59Z" fill="white"/>
<path fill-rule="evenodd" clip-rule="evenodd" d="M129.803 124.647L64.1064 162.215C62.6483 163.049 61.4551 165.315 61.4551 167.252C61.4551 169.188 62.6483 170.088 64.1064 169.255L129.803 131.686C131.262 130.852 132.455 128.586 132.455 126.65V126.649C132.455 124.714 131.262 123.813 129.803 124.647Z" fill="white"/>
<path fill-rule="evenodd" clip-rule="evenodd" d="M40.9548 173.47V173.471C35.787 176.486 31.5588 184.622 31.5588 191.55V197.376C31.5588 204.304 35.787 207.504 40.9548 204.488C46.1219 201.473 50.3501 193.337 50.3501 186.409V180.582C50.3501 173.654 46.1219 170.454 40.9548 173.47Z" fill="#FFFCF2"/>
<path fill-rule="evenodd" clip-rule="evenodd" d="M247.553 22.3648L277.229 39.4247C279.526 40.7457 281.406 44.3267 281.406 47.3823V72.5856C281.406 74.208 280.876 75.3705 280.035 75.9047C280.001 75.9268 279.966 75.9466 279.931 75.9665C279.471 76.249 277.516 77.494 274.067 79.702C272.55 78.7278 271.901 76.8399 272.496 75.1388C272.705 74.5354 273.052 74.0116 273.494 73.5944L247.553 58.6811C245.254 57.3609 243.375 53.7799 243.375 50.7235V27.9804C243.077 28.052 242.765 28.0832 242.448 28.0679C241.03 27.9994 239.816 27.0294 239.436 25.6626L244.694 22.2362C245.443 21.729 246.449 21.7306 247.553 22.3648Z" fill="#E06A43"/>
<path fill-rule="evenodd" clip-rule="evenodd" d="M241.998 25.9584L271.674 43.0182C273.971 44.3393 275.851 47.9203 275.851 50.9758V76.1793C275.851 77.213 275.636 78.0607 275.262 78.6765C274.91 78.3984 274.556 78.1247 274.199 77.8561C272.355 76.2955 270.409 74.8527 268.371 73.5408C266.029 71.9273 263.558 70.4875 260.975 69.2418C258.942 67.259 256.771 65.4491 254.487 63.8196C250.632 60.7914 246.467 58.345 242.113 56.4795L241.862 56.0759C241.452 55.1782 241.018 54.2919 240.561 53.4201C240.403 53.015 240.241 52.6129 240.074 52.2132L240.002 51.6543V49.2421C240.002 46.2154 239.757 43.2466 239.29 40.3509C239.118 38.4253 238.848 36.527 238.486 34.6623L238.434 34.3006C238.852 31.4924 239.049 28.6866 239.035 25.9051C239.793 25.3241 240.842 25.2944 241.998 25.9584Z" fill="#BD250D"/>
<path fill-rule="evenodd" clip-rule="evenodd" d="M241.998 25.9586L243.24 26.6721C243.604 30.9871 244.477 35.3273 245.907 39.6164C251.021 54.9576 262.179 66.5808 275.851 72.7278V76.1795C275.851 79.2359 273.971 80.656 271.674 79.3353L241.998 62.2749C239.7 60.9547 237.822 57.3736 237.822 54.3173V29.1148C237.822 26.0584 239.7 24.6383 241.998 25.9586Z" fill="#961400"/>
<path d="M249.33 57.2063L252.309 58.921V40.4625L249.726 38.9754V50.0238L249.673 49.9933L246.746 37.2607L243.107 35.166V53.6246L245.717 55.1269V41.7577L245.769 41.7881L249.33 57.2063ZM257.294 45.9676L262.303 48.8504V46.2143L254.393 41.661V60.1195L262.303 64.6721V62.0353L257.294 59.1525V53.7464L261.275 56.0383V53.4007L257.294 51.1095V45.9676ZM263.252 49.3971L266.285 51.1423V66.964L269.185 68.6331V52.8121L272.218 54.5573V51.9204L263.252 46.7602V49.3971Z" fill="white"/>
<path fill-rule="evenodd" clip-rule="evenodd" d="M221.171 277.268L257.553 298.383C266.518 303.353 272.34 303.773 283.323 297.63L357.62 255.726C359.57 254.602 360.782 253.289 361.302 251.849C361.544 251.181 361.707 250.529 361.764 249.881H361.765V249.877C361.793 249.546 361.795 249.215 361.765 248.884L361.765 240.061C360.993 239.938 360.314 239.399 360.05 238.605C359.983 238.402 359.928 238.231 359.905 238.014C357.824 237.951 355.939 238.921 354.726 240.602C353.029 239.448 350.972 238.196 348.497 236.81L310.397 215.613C305.218 212.697 300.386 213.049 293.907 216.606L221.07 258.442C220.235 257.04 218.918 255.984 217.364 255.478C217.313 256.132 216.965 256.719 216.434 257.097L216.432 257.098C216.205 257.279 215.926 257.407 215.671 257.545C215.625 257.58 215.577 257.614 215.528 257.646C215.258 257.982 214.86 258.312 214.505 258.526C213.808 258.944 212.802 258.945 212.106 258.525L212.12 266.95C212.092 267.259 212.092 267.569 212.123 267.88V267.893H212.124C212.423 270.91 215.488 274.059 221.171 277.268Z" fill="#004585"/>
<path fill-rule="evenodd" clip-rule="evenodd" d="M269.917 293.544C273.799 293.451 277.941 292.018 283.323 289.01L357.62 247.105C359.571 245.98 360.781 244.668 361.303 243.227C362.887 238.854 361.066 235.221 348.496 228.189L310.397 206.993C305.217 204.076 300.386 204.428 293.907 207.984L291.669 209.27C284.659 225.7 273.356 240.238 258.653 251.096C258.583 254.818 258.305 258.549 257.817 262.275C258.915 264.191 259.951 266.148 260.925 268.14C264.991 276.059 268.044 284.585 269.917 293.544Z" fill="#3762D1"/>
<path fill-rule="evenodd" clip-rule="evenodd" d="M221.171 268.648L257.553 289.763C264.234 293.467 269.171 294.642 275.799 292.458C274.662 286.38 274.062 280.115 274.062 273.708C274.062 247.368 284.105 223.377 300.57 205.348C298.508 205.78 296.322 206.66 293.907 207.985L217.756 251.726C209.068 256.836 210.527 262.638 221.171 268.648Z" fill="#2457A3"/>
<path fill-rule="evenodd" clip-rule="evenodd" d="M280.499 283.508L280.533 283.496L280.641 283.461C282.506 282.848 284.53 281.911 286.831 280.625L347.943 246.156C349.549 245.232 350.544 244.152 350.974 242.967C352.278 239.37 350.779 236.383 340.44 230.598L309.101 213.162C306.429 211.658 303.869 211.211 301.017 211.809V211.808L300.858 211.842L300.834 211.848L300.822 211.85L300.636 211.894L300.619 211.898H300.618L300.601 211.903L300.416 211.949L300.403 211.951L300.376 211.959L300.216 212.002L300.186 212.01L300.169 212.014L299.978 212.068L299.97 212.071L299.968 212.072L299.956 212.076L299.763 212.132L299.749 212.137L299.725 212.144L299.533 212.204L299.523 212.207L299.312 212.276L299.306 212.279C299.16 212.329 299.013 212.38 298.865 212.434L298.846 212.441C298.554 212.549 298.257 212.666 297.958 212.794L297.942 212.8L297.936 212.803C297.861 212.834 297.785 212.868 297.71 212.901L297.697 212.906L297.476 213.004L297.474 213.005C297.318 213.076 297.161 213.15 297.002 213.224L296.993 213.229L296.777 213.333L296.762 213.341L296.726 213.359L296.546 213.448L296.521 213.46L296.513 213.465L296.278 213.585L296.273 213.586L296.041 213.707L296.032 213.712L295.999 213.729L295.815 213.827L295.786 213.844L295.766 213.853L295.537 213.978L293.696 215.035L232.898 249.957C225.752 254.16 226.953 258.933 235.708 263.876L265.634 281.244C271.081 284.264 275.119 285.239 280.499 283.508ZM297.474 213.005C297.318 213.076 297.161 213.149 297.002 213.224L297.474 213.005Z" fill="white"/>
<path fill-rule="evenodd" clip-rule="evenodd" d="M298.575 217.219L292.907 220.652C291.117 221.662 291.315 222.863 293.365 224.058L333.88 247.603C335.573 248.627 336.991 248.336 338.947 247.208L343.687 244.39C346.021 242.996 346.013 242.049 343.974 240.915L303.336 217.401C301.702 216.383 300.146 216.29 298.575 217.219Z" fill="#68A1F7"/>
<path fill-rule="evenodd" clip-rule="evenodd" d="M284.019 224.733L278.352 228.166C276.562 229.175 276.759 230.377 278.808 231.572L319.324 255.117C321.017 256.14 322.435 255.85 324.391 254.722L329.131 251.904C331.465 250.51 331.457 249.563 329.417 248.427L288.78 224.914C287.145 223.897 285.59 223.803 284.019 224.733Z" fill="#68A1F7"/>
<path fill-rule="evenodd" clip-rule="evenodd" d="M265.99 234.754L311.875 261.437L308.601 263.424L262.72 236.771L265.99 234.754Z" fill="#3696CC"/>
<path fill-rule="evenodd" clip-rule="evenodd" d="M259.207 238.48L305.092 265.164L301.819 267.151L255.937 240.499L259.207 238.48Z" fill="#3696CC"/>
</g>
<defs>
<clipPath id="clip0_4046_59266">
<rect width="362" height="322.268" fill="white"/>
</clipPath>
</defs>
</svg>
