<svg width="120" height="120" viewBox="0 0 120 120" fill="none" xmlns="http://www.w3.org/2000/svg">
    <g clip-path="url(#clip0)">
        <path d="M60.029 119.136L59.3416 118.793C32.536 103.099 12.26 77.2097 4.01212 46.2801C2.69475 41.4116 1.72104 36.4285 1.03372 31.3881C0.403669 26.3477 0.0600065 21.2501 0.00272905 16.1524C0.00272896 15.2933 -0.111825 15.4078 0.690052 15.0069C10.7708 9.27917 21.4243 5.09795 32.7079 2.46321C36.8891 1.4895 41.0703 0.744898 45.3088 0.229405C51.151 -0.457919 56.9933 -0.744304 62.8928 -0.62975C66.2149 -0.572473 69.4796 -0.343365 72.7444 0.000297248C89.1829 1.77588 104.59 6.7017 119.024 14.7778C119.253 14.8923 119.425 15.0069 119.654 15.1214C119.883 15.236 119.998 15.4078 119.998 15.6942L119.998 16.5533C119.941 19.5317 119.826 22.4529 119.597 25.4313C119.253 29.6698 118.681 33.851 117.879 38.0322C116.16 47.0247 113.468 55.6735 109.745 63.9787C103.846 77.2097 95.7698 89.0087 85.5745 99.3186C78.243 106.765 70.0524 113.18 61.0027 118.506C60.659 118.735 60.3726 118.907 60.029 119.136ZM5.50131 19.0735L5.50132 19.7609C5.50132 23.9421 5.7877 28.1806 6.30319 32.3045C6.76141 36.0848 7.39146 39.8078 8.25061 43.5308C8.42244 44.1609 8.59427 44.7909 8.88066 45.4209C14.0356 56.3609 25.9492 62.2031 37.7482 59.5111C46.7407 57.4491 54.0722 50.5186 56.5351 41.6407C57.2224 39.1778 57.4515 36.6576 57.566 34.1374C57.6233 32.4763 57.7952 30.8153 58.0815 29.1543C60.029 19.0735 66.7304 10.7684 76.181 6.81626C76.6965 6.58715 77.2693 6.41532 77.7848 6.18621C77.8421 6.12893 77.9566 6.12893 77.9566 6.01438C76.4674 5.49889 67.5895 4.58246 62.2628 4.4679C50.8074 4.23879 39.5811 5.728 28.6412 9.05006C20.5079 11.513 12.8328 14.835 5.50131 19.0735ZM89.9848 87.6914C90.2712 87.5195 90.443 87.2904 90.5576 87.1186C92.8486 84.2547 95.0252 81.2763 97.0298 78.1834C104.189 67.0716 109.23 55.1008 112.036 42.1562C113.01 37.7458 113.64 33.3355 114.041 28.8679C114.327 25.8322 114.442 22.7965 114.442 19.7036C114.442 19.4745 114.442 19.3026 114.385 19.0735L113.526 18.558C111.177 17.2407 108.772 15.9806 106.366 14.835C102.815 13.174 99.2637 11.6848 95.5407 10.482C91.0158 9.05006 86.4336 8.87823 81.8515 10.0238C68.735 13.174 60.3153 26.0613 62.8355 39.2923C64.2102 46.6238 68.1623 52.3515 74.4627 56.3609C74.8637 56.6472 75.3219 56.8763 75.7228 57.1627C80.3623 59.9693 83.9707 63.8069 86.5482 68.5608C89.2975 73.5439 90.5003 78.928 90.1566 84.5984C90.2139 85.5721 90.0994 86.6031 89.9848 87.6914ZM60.029 113.294C60.2581 113.18 60.5445 113.008 60.7736 112.836C67.9905 108.597 74.6346 103.557 80.7059 97.8294C81.1069 97.4857 81.3933 97.0275 81.6224 96.5693C82.0233 95.8247 82.4242 95.0228 82.7679 94.2782C85.6317 88.3214 86.2618 82.1355 84.3717 75.7205C80.6487 63.3486 68.735 56.2463 56.7642 57.7355C53.3276 58.1364 50.1773 59.2247 47.1989 60.943C41.5285 64.1505 35.4572 65.4679 28.9276 64.8378C25.7201 64.5515 22.6844 63.6923 19.7633 62.4322C17.4722 61.4012 15.2957 60.1411 13.3483 58.5947C13.2337 58.4801 13.0619 58.4228 12.7755 58.251C12.8328 58.5374 12.89 58.7092 12.9473 58.8238C15.5248 65.3533 18.675 71.5392 22.398 77.4388C26.4647 83.7965 31.1041 89.6961 36.3736 95.0801C41.6431 100.464 47.428 105.275 53.6712 109.457C56.5351 111.289 59.2271 112.951 60.029 113.294Z" fill="black"/>
        <path d="M5.50064 19.0725C12.8321 14.834 20.5072 11.5119 28.5832 9.10629C39.5804 5.84151 50.7494 4.29503 62.2048 4.52414C67.5316 4.63869 76.4095 5.49785 77.8987 6.07062C77.956 6.18517 77.8414 6.24245 77.7269 6.24245C77.2114 6.47156 76.6386 6.64339 76.1231 6.87249C66.6724 10.8246 59.971 19.1298 58.0236 29.2105C57.7372 30.8715 57.5654 32.5326 57.5081 34.1936C57.4508 36.7138 57.2217 39.234 56.4771 41.6969C53.9569 50.5748 46.6828 57.5053 37.6903 59.5673C25.8912 62.2593 13.9776 56.417 8.8227 45.4771C8.53632 44.8471 8.30721 44.217 8.19266 43.587C7.3335 39.864 6.70346 36.141 6.24524 32.3607C5.72975 28.1795 5.44336 23.9983 5.44336 19.8171C5.50064 19.5307 5.50064 19.3589 5.50064 19.0725Z" fill="#F7A800"/>
        <path d="M89.9839 87.6906C90.0985 86.6024 90.213 85.6286 90.2703 84.5977C90.5567 78.9272 89.3539 73.5432 86.6618 68.5601C84.0844 63.8061 80.4759 60.0259 75.8365 57.162C75.4356 56.8756 74.9773 56.6465 74.5764 56.3601C68.2187 52.3508 64.3238 46.6803 62.9492 39.2916C60.4863 26.0034 68.8487 13.1733 81.9651 10.0231C86.6046 8.93485 91.1294 9.0494 95.6543 10.4813C99.3773 11.6269 102.928 13.1733 106.48 14.8344C108.943 15.9799 111.291 17.24 113.639 18.5574C113.926 18.7292 114.155 18.8438 114.498 19.0729C114.498 19.302 114.556 19.4738 114.556 19.7029C114.556 22.7386 114.384 25.8315 114.155 28.8672C113.754 33.3348 113.066 37.8024 112.15 42.1555C109.343 55.1 104.36 67.0709 97.1435 78.1826C95.1388 81.2756 92.9623 84.254 90.6712 87.1179C90.4421 87.2897 90.3276 87.5188 89.9839 87.6906Z" fill="#67B2E8"/>
        <path d="M60.0282 113.293C59.1691 112.95 56.5343 111.346 53.7278 109.456C47.4846 105.275 41.6996 100.463 36.4301 95.0793C31.1607 89.6953 26.4639 83.7958 22.4546 77.4381C18.6743 71.5386 15.524 65.3527 13.0039 58.8231C12.9466 58.6513 12.8893 58.5367 12.832 58.2504C13.1184 58.4222 13.233 58.4795 13.4048 58.594C15.4095 60.1405 17.5287 61.4579 19.8198 62.4316C22.7409 63.6917 25.7766 64.5508 28.9841 64.8372C35.4564 65.4672 41.5278 64.1499 47.2555 60.9424C50.2339 59.2813 53.4414 58.1931 56.8207 57.7349C68.7916 56.2457 80.7052 63.348 84.4282 75.7198C86.3183 82.0775 85.7456 88.2634 82.8244 94.2774C82.4235 95.0793 82.0798 95.8239 81.6789 96.5685C81.4498 97.0267 81.1634 97.4849 80.7625 97.8286C74.6911 103.556 68.047 108.597 60.8301 112.835C60.5437 113.007 60.2573 113.179 60.0282 113.293Z" fill="#00C4B3"/>
    </g>
    <defs>
        <clipPath id="clip0">
            <rect width="120" height="120" fill="white"/>
        </clipPath>
    </defs>
</svg>
