<svg width="400" height="400" viewBox="0 0 400 400" fill="none" xmlns="http://www.w3.org/2000/svg">
    <g clip-path="url(#clip0)">
        <path d="M200.096 397.121L197.805 395.975C108.452 343.662 40.8657 257.365 13.3727 154.266C8.98152 138.038 5.73582 121.428 3.44474 104.626C1.34459 87.825 0.199045 70.8329 0.00812026 53.8407C0.00811996 50.9769 -0.373726 51.3587 2.2992 50.0222C35.9017 30.9299 71.4134 16.9925 109.025 8.21004C122.963 4.96434 136.9 2.48234 151.028 0.764033C170.502 -1.52705 189.977 -2.48166 209.642 -2.09982C220.715 -1.90889 231.598 -1.1452 242.48 0.000339508C297.275 5.91896 348.634 22.3384 396.746 49.2585C397.51 49.6404 398.083 50.0222 398.846 50.4041C399.61 50.7859 399.992 51.3587 399.992 52.3133L399.992 55.1772C399.801 65.1052 399.419 74.8423 398.656 84.7703C397.51 98.8986 395.601 112.836 392.928 126.773C387.2 156.748 378.227 185.578 365.817 213.262C346.152 257.365 319.232 296.695 285.247 331.061C260.809 355.881 233.507 377.265 203.341 395.021C202.196 395.784 201.241 396.357 200.096 397.121ZM18.3367 63.5778L18.3367 65.8689C18.3367 79.8063 19.2914 93.9346 21.0097 107.681C22.5371 120.282 24.6372 132.692 27.5011 145.102C28.0738 147.202 28.6466 149.302 29.6012 151.402C46.7843 187.869 86.4963 207.343 125.826 198.37C155.801 191.496 180.24 168.395 188.449 138.802C190.74 130.592 191.504 122.191 191.886 113.791C192.077 108.254 192.65 102.717 193.604 97.1803C200.096 63.5778 222.434 35.8939 253.936 22.7202C255.654 21.9565 257.563 21.3837 259.282 20.6201C259.473 20.4291 259.854 20.4291 259.854 20.0473C254.89 18.329 225.297 15.2742 207.542 14.8924C169.357 14.1287 131.936 19.0927 95.4697 30.1662C68.3586 38.3759 42.7749 49.4495 18.3367 63.5778ZM299.948 292.304C300.903 291.731 301.476 290.967 301.858 290.395C309.495 280.848 316.75 270.92 323.432 260.611C347.297 223.571 364.099 183.669 373.454 140.52C376.699 125.819 378.8 111.118 380.136 96.2257C381.091 86.1067 381.472 75.9878 381.472 65.6779C381.472 64.9143 381.472 64.3415 381.282 63.5778L378.418 61.8595C370.59 57.4682 362.571 53.2679 354.552 49.4495C342.715 43.9127 330.878 38.9487 318.468 34.9393C303.385 30.1662 288.111 29.5934 272.837 33.4119C229.116 43.9127 201.05 86.8704 209.451 130.974C214.033 155.412 227.207 174.504 248.208 187.869C249.545 188.823 251.072 189.587 252.408 190.542C267.873 199.897 279.901 212.689 288.493 228.535C297.657 245.146 301.667 263.093 300.521 281.994C300.712 285.24 300.33 288.676 299.948 292.304ZM200.096 377.647C200.859 377.265 201.814 376.692 202.578 376.119C226.634 361.991 248.781 345.19 269.019 326.097C270.355 324.952 271.31 323.424 272.074 321.897C273.41 319.415 274.746 316.742 275.892 314.26C285.438 294.404 287.538 273.784 281.238 252.401C268.828 211.161 229.116 187.487 189.213 192.451C177.758 193.787 167.257 197.415 157.329 203.143C138.427 213.834 118.19 218.226 96.4243 216.125C85.7326 215.171 75.6137 212.307 65.8766 208.107C58.2397 204.67 50.9846 200.47 44.4932 195.315C44.1114 194.933 43.5386 194.742 42.584 194.169C42.7749 195.124 42.9658 195.697 43.1568 196.079C51.7483 217.844 62.2491 238.463 74.6591 258.129C88.2146 279.321 103.679 298.986 121.244 316.933C138.809 334.88 158.092 350.917 178.903 364.855C188.449 370.964 197.423 376.501 200.096 377.647Z" fill="black"/>
        <path d="M18.3364 63.5762C42.7746 49.4479 68.3583 38.3744 95.2785 30.3556C131.936 19.473 169.166 14.3181 207.35 15.0818C225.106 15.4636 254.699 18.3275 259.663 20.2367C259.854 20.6185 259.472 20.8095 259.091 20.8095C257.372 21.5732 255.463 22.1459 253.745 22.9096C222.242 36.0833 199.904 63.7672 193.413 97.3696C192.458 102.906 191.886 108.443 191.695 113.98C191.504 122.381 190.74 130.781 188.258 138.991C179.857 168.584 155.61 191.686 125.635 198.559C86.3051 207.532 46.5931 188.058 29.41 151.592C28.4554 149.492 27.6917 147.391 27.3098 145.291C24.446 132.881 22.3458 120.471 20.8184 107.87C19.1001 93.933 18.1455 79.9956 18.1455 66.0582C18.3364 65.1036 18.3364 64.5308 18.3364 63.5762Z" fill="#F7A800"/>
        <path d="M299.948 292.303C300.33 288.676 300.712 285.43 300.903 281.994C301.858 263.092 297.848 245.145 288.875 228.535C280.283 212.688 268.255 200.088 252.79 190.541C251.454 189.587 249.926 188.823 248.59 187.868C227.397 174.504 214.415 155.602 209.833 130.973C201.623 86.6792 229.498 43.9124 273.219 33.4117C288.684 29.7841 303.767 30.166 318.85 34.939C331.26 38.7575 343.097 43.9124 354.934 49.4492C363.144 53.2677 370.972 57.468 378.799 61.8592C379.754 62.432 380.518 62.8138 381.663 63.5775C381.663 64.3412 381.854 64.914 381.854 65.6777C381.854 75.7966 381.282 86.1064 380.518 96.2254C379.181 111.117 376.89 126.009 373.836 140.52C364.48 183.668 347.87 223.571 323.814 260.61C317.131 270.92 309.876 280.848 302.239 290.394C301.476 290.967 301.094 291.731 299.948 292.303Z" fill="#67B2E8"/>
        <path d="M200.096 377.646C197.232 376.501 188.45 371.155 179.094 364.854C158.284 350.917 139.001 334.88 121.436 316.933C103.871 298.986 88.2151 279.321 74.8505 258.129C62.2496 238.464 51.7488 217.844 43.3482 196.079C43.1572 195.506 42.9663 195.124 42.7754 194.17C43.73 194.743 44.1119 194.934 44.6846 195.315C51.3669 200.47 58.4311 204.861 66.068 208.107C75.8051 212.307 85.924 215.171 96.6157 216.126C118.19 218.226 138.428 213.835 157.52 203.143C167.448 197.606 178.14 193.979 189.404 192.452C229.307 187.488 269.019 211.162 281.429 252.401C287.73 273.594 285.82 294.213 276.083 314.26C274.747 316.933 273.601 319.415 272.265 321.897C271.501 323.424 270.547 324.952 269.21 326.097C248.972 345.189 226.825 361.991 202.769 376.119C201.814 376.692 200.86 377.264 200.096 377.646Z" fill="#00C4B3"/>
    </g>
    <defs>
        <clipPath id="clip0">
            <rect width="400" height="400" fill="white"/>
        </clipPath>
    </defs>
</svg>
