<svg width="120" height="120" viewBox="0 0 120 120" fill="none" xmlns="http://www.w3.org/2000/svg">
<mask id="mask0_5057_49372" style="mask-type:luminance" maskUnits="userSpaceOnUse" x="0" y="0" width="120" height="120">
<path d="M120 0L0 0L1.25639e-05 120L120 120L120 0Z" fill="white"/>
</mask>
<g mask="url(#mask0_5057_49372)">
<path d="M118.638 56.6767L97.7194 35.753C97.2866 35.3161 96.7715 34.9693 96.2038 34.7326C95.6362 34.4959 95.0272 34.3741 94.4122 34.3741C93.7972 34.3741 93.1882 34.4959 92.6205 34.7326C92.0529 34.9693 91.5378 35.3161 91.1049 35.753L77.2227 49.6496C76.3008 50.5064 75.0825 50.9723 73.8241 50.9494C72.5656 50.9264 71.3651 50.4163 70.4751 49.5265C69.5851 48.6366 69.0749 47.4362 69.0519 46.1779C69.029 44.9197 69.495 43.7015 70.3519 42.7798L84.2504 28.8751C84.6874 28.4423 85.0343 27.9273 85.271 27.3597C85.5077 26.7921 85.6296 26.1832 85.6296 25.5683C85.6296 24.9533 85.5077 24.3445 85.271 23.7769C85.0343 23.2093 84.6874 22.6943 84.2504 22.2615L63.3244 1.37899C62.8916 0.942075 62.3764 0.595251 61.8088 0.358559C61.2411 0.121867 60.6322 0 60.0171 0C59.4021 0 58.7931 0.121867 58.2255 0.358559C57.6578 0.595251 57.1427 0.942075 56.7099 1.37899L35.7829 22.2944C35.3459 22.7272 34.999 23.2422 34.7623 23.8098C34.5256 24.3774 34.4037 24.9862 34.4037 25.6012C34.4037 26.2162 34.5256 26.825 34.7623 27.3926C34.999 27.9602 35.3459 28.4752 35.7829 28.908L49.6814 42.8127C50.1331 43.2634 50.4915 43.7988 50.736 44.3882C50.9806 44.9776 51.1064 45.6095 51.1064 46.2476C51.1064 46.8857 50.9806 47.5175 50.736 48.1069C50.4915 48.6963 50.1331 49.2317 49.6814 49.6825C49.2306 50.1342 48.6951 50.4925 48.1056 50.737C47.5161 50.9815 46.8842 51.1073 46.246 51.1073C45.6078 51.1073 44.9758 50.9815 44.3863 50.737C43.7968 50.4925 43.2614 50.1342 42.8106 49.6825L28.9121 35.786C28.4787 35.35 27.9634 35.0041 27.3958 34.768C26.8282 34.5319 26.2195 34.4104 25.6048 34.4104C24.9901 34.4104 24.3814 34.5319 23.8138 34.768C23.2462 35.0041 22.7309 35.35 22.2976 35.786L1.37916 56.7098C0.94219 57.1425 0.595326 57.6576 0.358607 58.2252C0.121888 58.7927 6.2193e-06 59.4016 6.28369e-06 60.0166C6.34807e-06 60.6315 0.121888 61.2404 0.358607 61.8079C0.595327 62.3755 0.94219 62.8906 1.37916 63.3233L56.6847 118.621C57.1175 119.058 57.6327 119.405 58.2003 119.641C58.768 119.878 59.3769 120 59.992 120C60.607 120 61.216 119.878 61.7836 119.641C62.3513 119.405 62.8664 119.058 63.2992 118.621L84.2258 97.7056C84.6618 97.2723 85.0078 96.7571 85.2439 96.1896C85.48 95.6221 85.6016 95.0135 85.6016 94.3988C85.6016 93.7842 85.48 93.1756 85.2439 92.6081C85.0078 92.0406 84.6618 91.5254 84.2258 91.0921L70.3518 77.1787C69.9 76.728 69.5416 76.1926 69.2971 75.6032C69.0526 75.0138 68.9267 74.3819 68.9267 73.7438C68.9267 73.1057 69.0526 72.4739 69.2971 71.8845C69.5416 71.2951 69.9 70.7597 70.3518 70.3089C70.8026 69.8572 71.3381 69.4989 71.9275 69.2544C72.517 69.0099 73.149 68.884 73.7872 68.884C74.4254 68.884 75.0573 69.0099 75.6468 69.2544C76.2363 69.4989 76.7718 69.8572 77.2226 70.3089L91.1292 84.2055C91.562 84.6424 92.0772 84.9892 92.6449 85.2259C93.2125 85.4626 93.8215 85.5844 94.4365 85.5844C95.0516 85.5844 95.6605 85.4626 96.2282 85.2259C96.7959 84.9892 97.311 84.6424 97.7438 84.2055L118.637 63.2569C119.51 62.3842 120 61.2008 120 59.9669C120 58.733 119.51 57.5495 118.638 56.6767Z" fill="#884FF0"/>
</g>
</svg>
