<svg width="321" height="138" viewBox="0 0 321 138" fill="none" xmlns="http://www.w3.org/2000/svg">
<g clip-path="url(#clip0_5057_18905)">
<path d="M69.75 138C107.858 138 138.75 107.108 138.75 69C138.75 30.8924 107.858 0 69.75 0C31.6424 0 0.75 30.8924 0.75 69C0.75 107.108 31.6424 138 69.75 138Z" fill="#F0F0F0"/>
<path d="M66.75 69.0001H138.75C138.75 62.7723 137.92 56.7391 136.373 51H66.75V69.0001Z" fill="#D80027"/>
<path d="M66.75 33.0001H128.623C124.399 26.1076 118.998 20.0154 112.701 15H66.75V33.0001Z" fill="#D80027"/>
<path d="M69.7503 138C85.9892 138 100.915 132.387 112.702 123H26.7988C38.5854 132.387 53.5113 138 69.7503 138Z" fill="#D80027"/>
<path d="M10.8773 105H128.623C132.014 99.4669 134.643 93.4186 136.373 87H3.12695C4.85654 93.4186 7.48635 99.4669 10.8773 105Z" fill="#D80027"/>
<path d="M32.7121 10.7753H39L33.1512 15.0245L35.3853 21.9L29.5367 17.6508L23.6882 21.9L25.618 15.9603C20.4684 20.2499 15.9548 25.2756 12.2353 30.8753H14.25L10.527 33.5801C9.94695 34.5477 9.39063 35.5307 8.8575 36.5282L10.6353 42L7.31848 39.5901C6.49398 41.3369 5.73983 43.1231 5.06196 44.9465L7.02064 50.9754H14.25L8.40118 55.2245L10.6353 62.1L4.78677 57.8508L1.2834 60.3963C0.932742 63.215 0.75 66.0861 0.75 69H69.75C69.75 30.8926 69.75 26.4 69.75 0C56.1193 0 43.4128 3.95402 32.7121 10.7753ZM35.3853 62.1L29.5367 57.8508L23.6882 62.1L25.9223 55.2245L20.0735 50.9754H27.3029L29.5367 44.0999L31.7706 50.9754H39L33.1512 55.2245L35.3853 62.1ZM33.1512 35.1245L35.3853 42L29.5367 37.7508L23.6882 42L25.9223 35.1245L20.0735 30.8753H27.3029L29.5367 23.9999L31.7706 30.8753H39L33.1512 35.1245ZM60.1353 62.1L54.2867 57.8508L48.4382 62.1L50.6723 55.2245L44.8235 50.9754H52.0528L54.2867 44.0999L56.5206 50.9754H63.75L57.9011 55.2245L60.1353 62.1ZM57.9011 35.1245L60.1353 42L54.2867 37.7508L48.4382 42L50.6723 35.1245L44.8235 30.8753H52.0528L54.2867 23.9999L56.5206 30.8753H63.75L57.9011 35.1245ZM57.9011 15.0245L60.1353 21.9L54.2867 17.6508L48.4382 21.9L50.6723 15.0245L44.8235 10.7753H52.0528L54.2867 3.89985L56.5206 10.7753H63.75L57.9011 15.0245Z" fill="#0052B4"/>
</g>
<g clip-path="url(#clip1_5057_18905)">
<path d="M160.75 138C198.858 138 229.75 107.108 229.75 69C229.75 30.8924 198.858 0 160.75 0C122.642 0 91.75 30.8924 91.75 69C91.75 107.108 122.642 138 160.75 138Z" fill="url(#paint0_linear_5057_18905)"/>
<path d="M183.372 66.9453C187.725 72.754 174.979 83.9825 177.843 79.3449H150.693C147.756 75.5041 145.736 71.3037 144.766 66.9453H183.372Z" fill="url(#paint1_linear_5057_18905)"/>
<path d="M175.503 100.414C171.644 103.49 167.473 106.152 163.058 108.354L160.898 109.442L158.726 108.359C138.299 98.1084 126.113 80.4527 126.113 61.104V38.3867H138.571V61.104C138.569 62.553 138.667 64.0005 138.864 65.4361C140.433 77.1909 148.367 88.0349 160.852 95.3364C160.863 95.3476 160.877 95.3569 160.891 95.3642C160.904 95.3569 160.911 95.3495 160.925 95.3437L160.977 95.3101C165.49 97.8338 170.403 99.5604 175.503 100.414Z" fill="url(#paint2_linear_5057_18905)"/>
<path d="M195.297 66.9453C194.721 71.4355 193.489 75.817 191.642 79.9502C188.227 87.6245 182.738 94.6087 175.508 100.419C170.412 99.5644 165.5 97.8378 160.99 95.3149C162.619 94.3544 164.199 93.3121 165.723 92.1919C165.875 92.0936 166.021 91.9872 166.161 91.8732C174.6 85.7964 180.68 76.9901 183.371 66.9453H195.297Z" fill="url(#paint3_linear_5057_18905)"/>
<path d="M195.684 38.3906L138.572 38.3906V50.8429L195.684 50.8429V38.3906Z" fill="url(#paint4_linear_5057_18905)"/>
<path d="M195.683 50.8438V61.1044C195.683 61.5284 195.67 61.9538 195.657 62.3793H183.191C183.204 61.9534 183.21 61.5284 183.21 61.1044V50.8438H195.683Z" fill="url(#paint5_linear_5057_18905)"/>
</g>
<g clip-path="url(#clip2_5057_18905)">
<mask id="mask0_5057_18905" style="mask-type:luminance" maskUnits="userSpaceOnUse" x="182" y="0" width="139" height="138">
<path d="M320.75 0H182.75V138H320.75V0Z" fill="white"/>
</mask>
<g mask="url(#mask0_5057_18905)">
<path d="M319.184 65.1782L295.127 41.116C294.63 40.6135 294.037 40.2147 293.384 39.9425C292.732 39.6703 292.031 39.5302 291.324 39.5302C290.617 39.5302 289.916 39.6703 289.264 39.9425C288.611 40.2147 288.018 40.6135 287.521 41.116L271.556 57.097C270.496 58.0824 269.095 58.6182 267.648 58.5918C266.2 58.5654 264.82 57.9788 263.796 56.9554C262.773 55.932 262.186 54.5517 262.16 53.1046C262.133 51.6576 262.669 50.2567 263.655 49.1967L279.638 33.2063C280.141 32.7087 280.539 32.1163 280.812 31.4636C281.084 30.8109 281.224 30.1107 281.224 29.4035C281.224 28.6963 281.084 27.9962 280.812 27.3434C280.539 26.6907 280.141 26.0984 279.638 25.6007L255.573 1.58584C255.075 1.08339 254.483 0.684539 253.83 0.412343C253.177 0.140147 252.477 0 251.77 0C251.062 0 250.362 0.140147 249.709 0.412343C249.056 0.684539 248.464 1.08339 247.966 1.58584L223.9 25.6386C223.398 26.1362 222.999 26.7286 222.727 27.3813C222.454 28.034 222.314 28.7342 222.314 29.4414C222.314 30.1486 222.454 30.8488 222.727 31.5015C222.999 32.1542 223.398 32.7465 223.9 33.2442L239.884 49.2346C240.403 49.7529 240.815 50.3686 241.096 51.0465C241.378 51.7243 241.522 52.4509 241.522 53.1847C241.522 53.9185 241.378 54.6452 241.096 55.323C240.815 56.0008 240.403 56.6165 239.884 57.1349C239.365 57.6543 238.749 58.0664 238.071 58.3475C237.393 58.6287 236.667 58.7734 235.933 58.7734C235.199 58.7734 234.472 58.6287 233.794 58.3475C233.116 58.0664 232.501 57.6543 231.982 57.1349L215.999 41.1538C215.5 40.6525 214.908 40.2547 214.255 39.9832C213.602 39.7117 212.902 39.572 212.196 39.572C211.489 39.572 210.789 39.7117 210.136 39.9832C209.483 40.2547 208.891 40.6525 208.392 41.1538L184.336 65.2162C183.834 65.7139 183.435 66.3062 183.162 66.9589C182.89 67.6116 182.75 68.3118 182.75 69.019C182.75 69.7262 182.89 70.4264 183.162 71.0791C183.435 71.7318 183.834 72.3242 184.336 72.8218L247.937 136.414C248.435 136.917 249.028 137.315 249.68 137.588C250.333 137.86 251.033 138 251.741 138C252.448 138 253.148 137.86 253.801 137.588C254.454 137.315 255.046 136.917 255.544 136.414L279.61 112.361C280.111 111.863 280.509 111.271 280.781 110.618C281.052 109.965 281.192 109.265 281.192 108.559C281.192 107.852 281.052 107.152 280.781 106.499C280.509 105.847 280.111 105.254 279.61 104.756L263.655 88.7555C263.135 88.2372 262.723 87.6215 262.442 86.9436C262.16 86.2658 262.016 85.5392 262.016 84.8054C262.016 84.0716 262.16 83.3449 262.442 82.6671C262.723 81.9893 263.135 81.3736 263.655 80.8552C264.173 80.3358 264.789 79.9237 265.467 79.6426C266.145 79.3614 266.871 79.2167 267.605 79.2167C268.339 79.2167 269.066 79.3614 269.744 79.6426C270.422 79.9237 271.038 80.3358 271.556 80.8552L287.549 96.8363C288.046 97.3387 288.639 97.7376 289.292 98.0098C289.944 98.282 290.645 98.4221 291.352 98.4221C292.059 98.4221 292.76 98.282 293.412 98.0098C294.065 97.7376 294.658 97.3387 295.155 96.8363L319.183 72.7455C320.186 71.7419 320.75 70.381 320.75 68.962C320.75 67.543 320.187 66.182 319.184 65.1782Z" fill="#884FF0"/>
</g>
</g>
<defs>
<linearGradient id="paint0_linear_5057_18905" x1="229.75" y1="6.49911e-06" x2="64.6178" y2="52.2489" gradientUnits="userSpaceOnUse">
<stop stop-color="#000756"/>
<stop offset="1" stop-color="#0042B8"/>
</linearGradient>
<linearGradient id="paint1_linear_5057_18905" x1="195.955" y1="80.94" x2="148.45" y2="68.1369" gradientUnits="userSpaceOnUse">
<stop offset="0.14" stop-color="#ADADAD"/>
<stop offset="0.29" stop-color="#CBCBCB"/>
<stop offset="0.43" stop-color="#E2E2E2"/>
<stop offset="0.59" stop-color="#F2F2F2"/>
<stop offset="0.77" stop-color="#FCFCFC"/>
<stop offset="1" stop-color="white"/>
</linearGradient>
<linearGradient id="paint2_linear_5057_18905" x1="178.415" y1="121.504" x2="111.265" y2="27.8468" gradientUnits="userSpaceOnUse">
<stop stop-color="#ADADAD"/>
<stop offset="0.17" stop-color="#CBCBCB"/>
<stop offset="0.34" stop-color="#E2E2E2"/>
<stop offset="0.52" stop-color="#F2F2F2"/>
<stop offset="0.73" stop-color="#FCFCFC"/>
<stop offset="1" stop-color="white"/>
</linearGradient>
<linearGradient id="paint3_linear_5057_18905" x1="161.764" y1="107.331" x2="193.658" y2="66.9014" gradientUnits="userSpaceOnUse">
<stop offset="0.15" stop-color="#ADADAD"/>
<stop offset="0.29" stop-color="#CBCBCB"/>
<stop offset="0.44" stop-color="#E2E2E2"/>
<stop offset="0.6" stop-color="#F2F2F2"/>
<stop offset="0.77" stop-color="#FCFCFC"/>
<stop offset="1" stop-color="white"/>
</linearGradient>
<linearGradient id="paint4_linear_5057_18905" x1="133.082" y1="76.9609" x2="160.037" y2="51.3561" gradientUnits="userSpaceOnUse">
<stop offset="0.14" stop-color="#ADADAD"/>
<stop offset="0.43" stop-color="#C9C9C9"/>
<stop offset="1" stop-color="white"/>
</linearGradient>
<linearGradient id="paint5_linear_5057_18905" x1="189.437" y1="44.3081" x2="189.437" y2="62.3793" gradientUnits="userSpaceOnUse">
<stop offset="0.0895638" stop-color="#ADADAD"/>
<stop offset="0.240189" stop-color="#CBCBCB"/>
<stop offset="0.425047" stop-color="#E2E2E2"/>
<stop offset="0.536875" stop-color="#F2F2F2"/>
<stop offset="1" stop-color="white"/>
</linearGradient>
<clipPath id="clip0_5057_18905">
<rect x="0.75" width="138" height="138" rx="69" fill="white"/>
</clipPath>
<clipPath id="clip1_5057_18905">
<rect x="91.75" width="138" height="138" rx="69" fill="white"/>
</clipPath>
<clipPath id="clip2_5057_18905">
<rect width="138" height="138" fill="white" transform="translate(182.75)"/>
</clipPath>
</defs>
</svg>
