<svg width="400" height="400" viewBox="0 0 400 400" fill="none" xmlns="http://www.w3.org/2000/svg">
<path d="M395.459 188.922L325.731 119.177C324.289 117.72 322.572 116.564 320.679 115.775C318.787 114.986 316.758 114.58 314.707 114.58C312.657 114.58 310.627 114.986 308.735 115.775C306.843 116.564 305.126 117.72 303.683 119.177L257.409 165.499C254.336 168.355 250.275 169.908 246.08 169.831C241.885 169.755 237.884 168.054 234.917 165.088C231.95 162.122 230.25 158.121 230.173 153.926C230.097 149.732 231.65 145.672 234.506 142.599L280.835 96.2502C282.291 94.8077 283.448 93.0909 284.237 91.1989C285.026 89.307 285.432 87.2775 285.432 85.2276C285.432 83.1778 285.026 81.1483 284.237 79.2563C283.448 77.3644 282.291 75.6476 280.835 74.205L211.081 4.59663C209.639 3.14025 207.921 1.98417 206.029 1.1952C204.137 0.406225 202.107 0 200.057 0C198.007 0 195.977 0.406225 194.085 1.1952C192.193 1.98417 190.476 3.14025 189.033 4.59663L119.276 74.3147C117.82 75.7572 116.663 77.4741 115.874 79.366C115.085 81.2579 114.679 83.2875 114.679 85.3373C114.679 87.3872 115.085 89.4167 115.874 91.3087C116.663 93.2006 117.82 94.9174 119.276 96.3599L165.605 142.709C167.11 144.211 168.305 145.996 169.12 147.961C169.935 149.925 170.355 152.032 170.355 154.159C170.355 156.286 169.935 158.392 169.12 160.356C168.305 162.321 167.11 164.106 165.605 165.608C164.102 167.114 162.317 168.308 160.352 169.123C158.387 169.938 156.281 170.358 154.153 170.358C152.026 170.358 149.919 169.938 147.954 169.123C145.989 168.308 144.205 167.114 142.702 165.608L96.3735 119.287C94.9289 117.833 93.2112 116.68 91.3193 115.893C89.4273 115.106 87.3985 114.701 85.3493 114.701C83.3002 114.701 81.2713 115.106 79.3794 115.893C77.4874 116.68 75.7698 117.833 74.3252 119.287L4.59719 189.033C3.14063 190.475 1.98442 192.192 1.19536 194.084C0.406292 195.976 2.0731e-05 198.005 2.09456e-05 200.055C2.11602e-05 202.105 0.406293 204.135 1.19536 206.026C1.98442 207.918 3.14064 209.635 4.59719 211.078L188.949 395.403C190.392 396.86 192.109 398.016 194.001 398.805C195.893 399.594 197.923 400 199.973 400C202.023 400 204.053 399.594 205.945 398.805C207.838 398.016 209.555 396.86 210.997 395.403L280.753 325.685C282.206 324.241 283.359 322.524 284.146 320.632C284.933 318.74 285.339 316.712 285.339 314.663C285.339 312.614 284.933 310.585 284.146 308.694C283.359 306.802 282.206 305.085 280.753 303.64L234.506 257.262C233 255.76 231.805 253.975 230.99 252.011C230.175 250.046 229.756 247.94 229.756 245.813C229.756 243.686 230.175 241.58 230.99 239.615C231.805 237.65 233 235.865 234.506 234.363C236.009 232.857 237.794 231.663 239.759 230.848C241.723 230.033 243.83 229.613 245.957 229.613C248.085 229.613 250.191 230.033 252.156 230.848C254.121 231.663 255.906 232.857 257.409 234.363L303.764 280.685C305.207 282.141 306.924 283.297 308.816 284.086C310.708 284.875 312.738 285.281 314.788 285.281C316.839 285.281 318.868 284.875 320.761 284.086C322.653 283.297 324.37 282.141 325.813 280.685L395.458 210.856C398.366 207.947 400 204.003 400 199.89C400 195.777 398.367 191.832 395.459 188.922Z" fill="#884FF0"/>
</svg>
