<svg width="327" height="216" viewBox="0 0 327 216" fill="none" xmlns="http://www.w3.org/2000/svg">
<g clip-path="url(#clip0_5057_18935)">
<path d="M72.25 177C110.358 177 141.25 146.108 141.25 108C141.25 69.8924 110.358 39 72.25 39C34.1424 39 3.25 69.8924 3.25 108C3.25 146.108 34.1424 177 72.25 177Z" fill="#0052B4"/>
<path d="M72.2504 66L74.4845 72.8755H81.7133L75.8648 77.1246L78.0989 84.0001L72.2504 79.7507L66.4015 84.0001L68.6357 77.1246L62.7871 72.8755H70.0162L72.2504 66Z" fill="#FFDA44"/>
<path d="M42.552 78.3022L48.9938 81.584L54.1054 76.4727L52.9742 83.6125L59.4157 86.8946L52.2756 88.0256L51.1446 95.166L47.8625 88.7245L40.7227 89.8557L45.8343 84.744L42.552 78.3022Z" fill="#FFDA44"/>
<path d="M30.25 107.998L37.1255 105.764V98.5352L41.3744 104.384L48.2501 102.15L44.0004 107.998L48.2501 113.847L41.3744 111.613L37.1255 117.462V110.233L30.25 107.998Z" fill="#FFDA44"/>
<path d="M42.552 137.699L45.834 131.258L40.7227 126.146L47.8628 127.277L51.1444 120.836L52.2756 127.976L59.4155 129.107L52.9747 132.389L54.1054 139.529L48.9938 134.417L42.552 137.699Z" fill="#FFDA44"/>
<path d="M72.2504 150L70.0159 143.124H62.7871L68.6359 138.875L66.4015 132L72.2504 136.249L78.0989 132L75.8648 138.875L81.7133 143.124H74.4842L72.2504 150Z" fill="#FFDA44"/>
<path d="M101.949 137.699L95.5076 134.418L90.3957 139.529L91.5269 132.389L85.0859 129.107L92.2258 127.976L93.3568 120.836L96.6386 127.277L103.778 126.146L98.6668 131.258L101.949 137.699Z" fill="#FFDA44"/>
<path d="M114.25 107.998L107.374 110.233V117.462L103.125 111.613L96.25 113.847L100.499 107.998L96.25 102.15L103.125 104.384L107.374 98.5352V105.765L114.25 107.998Z" fill="#FFDA44"/>
<path d="M101.949 78.302L98.6671 84.7438L103.779 89.8554L96.6383 88.7239L93.3568 95.1655L92.2258 88.0253L85.0859 86.8941L91.5269 83.6123L90.3957 76.4727L95.5079 81.584L101.949 78.302Z" fill="#FFDA44"/>
</g>
<g clip-path="url(#clip1_5057_18935)">
<path d="M163.25 177C201.358 177 232.25 146.108 232.25 108C232.25 69.8924 201.358 39 163.25 39C125.142 39 94.25 69.8924 94.25 108C94.25 146.108 125.142 177 163.25 177Z" fill="url(#paint0_linear_5057_18935)"/>
<path d="M185.872 105.945C190.225 111.754 177.479 122.983 180.343 118.345H153.193C150.256 114.504 148.236 110.304 147.266 105.945H185.872Z" fill="url(#paint1_linear_5057_18935)"/>
<path d="M178.003 139.414C174.144 142.49 169.973 145.152 165.558 147.354L163.398 148.442L161.226 147.359C140.799 137.108 128.613 119.453 128.613 100.104V77.3867H141.071V100.104C141.069 101.553 141.167 103 141.364 104.436C142.933 116.191 150.867 127.035 163.352 134.336C163.363 134.348 163.377 134.357 163.391 134.364C163.404 134.357 163.411 134.35 163.425 134.344L163.477 134.31C167.99 136.834 172.903 138.56 178.003 139.414V139.414Z" fill="url(#paint2_linear_5057_18935)"/>
<path d="M197.797 105.945C197.221 110.436 195.989 114.817 194.142 118.95C190.727 126.625 185.238 133.609 178.008 139.419C172.912 138.564 168 136.838 163.49 134.315C165.119 133.354 166.699 132.312 168.223 131.192C168.375 131.094 168.521 130.987 168.661 130.873C177.1 124.796 183.18 115.99 185.871 105.945H197.797Z" fill="url(#paint3_linear_5057_18935)"/>
<path d="M198.184 77.3906H141.072V89.8429H198.184V77.3906Z" fill="url(#paint4_linear_5057_18935)"/>
<path d="M198.183 89.8438V100.104C198.183 100.528 198.17 100.954 198.157 101.379H185.691C185.704 100.953 185.71 100.528 185.71 100.104V89.8438H198.183Z" fill="url(#paint5_linear_5057_18935)"/>
</g>
<g clip-path="url(#clip2_5057_18935)">
<mask id="mask0_5057_18935" style="mask-type:luminance" maskUnits="userSpaceOnUse" x="185" y="39" width="139" height="138">
<path d="M323.25 39H185.25V177H323.25V39Z" fill="white"/>
</mask>
<g mask="url(#mask0_5057_18935)">
<path d="M321.684 104.178L297.627 80.116C297.13 79.6135 296.537 79.2147 295.884 78.9425C295.232 78.6703 294.531 78.5302 293.824 78.5302C293.117 78.5302 292.416 78.6703 291.764 78.9425C291.111 79.2147 290.518 79.6135 290.021 80.116L274.056 96.097C272.996 97.0824 271.595 97.6182 270.148 97.5918C268.7 97.5654 267.32 96.9788 266.296 95.9554C265.273 94.932 264.686 93.5517 264.66 92.1046C264.633 90.6576 265.169 89.2567 266.155 88.1967L282.138 72.2063C282.641 71.7087 283.039 71.1163 283.312 70.4636C283.584 69.8109 283.724 69.1107 283.724 68.4035C283.724 67.6963 283.584 66.9962 283.312 66.3434C283.039 65.6907 282.641 65.0984 282.138 64.6007L258.073 40.5858C257.575 40.0834 256.983 39.6845 256.33 39.4123C255.677 39.1401 254.977 39 254.27 39C253.562 39 252.862 39.1401 252.209 39.4123C251.556 39.6845 250.964 40.0834 250.466 40.5858L226.4 64.6386C225.898 65.1362 225.499 65.7286 225.227 66.3813C224.954 67.034 224.814 67.7342 224.814 68.4414C224.814 69.1486 224.954 69.8488 225.227 70.5015C225.499 71.1542 225.898 71.7465 226.4 72.2442L242.384 88.2346C242.903 88.7529 243.315 89.3686 243.596 90.0465C243.878 90.7243 244.022 91.4509 244.022 92.1847C244.022 92.9185 243.878 93.6452 243.596 94.323C243.315 95.0008 242.903 95.6165 242.384 96.1349C241.865 96.6543 241.249 97.0664 240.571 97.3475C239.893 97.6287 239.167 97.7734 238.433 97.7734C237.699 97.7734 236.972 97.6287 236.294 97.3475C235.616 97.0664 235.001 96.6543 234.482 96.1349L218.499 80.1538C218 79.6525 217.408 79.2547 216.755 78.9832C216.102 78.7117 215.402 78.572 214.696 78.572C213.989 78.572 213.289 78.7117 212.636 78.9832C211.983 79.2547 211.391 79.6525 210.892 80.1538L186.836 104.216C186.334 104.714 185.935 105.306 185.662 105.959C185.39 106.612 185.25 107.312 185.25 108.019C185.25 108.726 185.39 109.426 185.662 110.079C185.935 110.732 186.334 111.324 186.836 111.822L250.437 175.414C250.935 175.917 251.528 176.315 252.18 176.588C252.833 176.86 253.533 177 254.241 177C254.948 177 255.648 176.86 256.301 176.588C256.954 176.315 257.546 175.917 258.044 175.414L282.11 151.361C282.611 150.863 283.009 150.271 283.281 149.618C283.552 148.965 283.692 148.265 283.692 147.559C283.692 146.852 283.552 146.152 283.281 145.499C283.009 144.847 282.611 144.254 282.11 143.756L266.155 127.756C265.635 127.237 265.223 126.621 264.942 125.944C264.66 125.266 264.516 124.539 264.516 123.805C264.516 123.072 264.66 122.345 264.942 121.667C265.223 120.989 265.635 120.374 266.155 119.855C266.673 119.336 267.289 118.924 267.967 118.643C268.645 118.361 269.371 118.217 270.105 118.217C270.839 118.217 271.566 118.361 272.244 118.643C272.922 118.924 273.538 119.336 274.056 119.855L290.049 135.836C290.546 136.339 291.139 136.738 291.792 137.01C292.444 137.282 293.145 137.422 293.852 137.422C294.559 137.422 295.26 137.282 295.912 137.01C296.565 136.738 297.158 136.339 297.655 135.836L321.683 111.745C322.686 110.742 323.25 109.381 323.25 107.962C323.25 106.543 322.687 105.182 321.684 104.178Z" fill="#884FF0"/>
</g>
</g>
<defs>
<linearGradient id="paint0_linear_5057_18935" x1="232.25" y1="39" x2="67.1178" y2="91.2489" gradientUnits="userSpaceOnUse">
<stop stop-color="#000756"/>
<stop offset="1" stop-color="#0042B8"/>
</linearGradient>
<linearGradient id="paint1_linear_5057_18935" x1="198.455" y1="119.94" x2="150.95" y2="107.137" gradientUnits="userSpaceOnUse">
<stop offset="0.14" stop-color="#ADADAD"/>
<stop offset="0.29" stop-color="#CBCBCB"/>
<stop offset="0.43" stop-color="#E2E2E2"/>
<stop offset="0.59" stop-color="#F2F2F2"/>
<stop offset="0.77" stop-color="#FCFCFC"/>
<stop offset="1" stop-color="white"/>
</linearGradient>
<linearGradient id="paint2_linear_5057_18935" x1="180.915" y1="160.504" x2="113.765" y2="66.8468" gradientUnits="userSpaceOnUse">
<stop stop-color="#ADADAD"/>
<stop offset="0.17" stop-color="#CBCBCB"/>
<stop offset="0.34" stop-color="#E2E2E2"/>
<stop offset="0.52" stop-color="#F2F2F2"/>
<stop offset="0.73" stop-color="#FCFCFC"/>
<stop offset="1" stop-color="white"/>
</linearGradient>
<linearGradient id="paint3_linear_5057_18935" x1="164.264" y1="146.331" x2="196.158" y2="105.901" gradientUnits="userSpaceOnUse">
<stop offset="0.15" stop-color="#ADADAD"/>
<stop offset="0.29" stop-color="#CBCBCB"/>
<stop offset="0.44" stop-color="#E2E2E2"/>
<stop offset="0.6" stop-color="#F2F2F2"/>
<stop offset="0.77" stop-color="#FCFCFC"/>
<stop offset="1" stop-color="white"/>
</linearGradient>
<linearGradient id="paint4_linear_5057_18935" x1="135.582" y1="115.961" x2="162.537" y2="90.3561" gradientUnits="userSpaceOnUse">
<stop offset="0.14" stop-color="#ADADAD"/>
<stop offset="0.43" stop-color="#C9C9C9"/>
<stop offset="1" stop-color="white"/>
</linearGradient>
<linearGradient id="paint5_linear_5057_18935" x1="191.937" y1="83.3081" x2="191.937" y2="101.379" gradientUnits="userSpaceOnUse">
<stop offset="0.0895638" stop-color="#ADADAD"/>
<stop offset="0.240189" stop-color="#CBCBCB"/>
<stop offset="0.425047" stop-color="#E2E2E2"/>
<stop offset="0.536875" stop-color="#F2F2F2"/>
<stop offset="1" stop-color="white"/>
</linearGradient>
<clipPath id="clip0_5057_18935">
<rect x="3.25" y="39" width="138" height="138" rx="69" fill="white"/>
</clipPath>
<clipPath id="clip1_5057_18935">
<rect x="94.25" y="39" width="138" height="138" rx="69" fill="white"/>
</clipPath>
<clipPath id="clip2_5057_18935">
<rect width="138" height="138" fill="white" transform="translate(185.25 39)"/>
</clipPath>
</defs>
</svg>
