<svg width="321" height="138" viewBox="0 0 321 138" fill="none" xmlns="http://www.w3.org/2000/svg">
<g clip-path="url(#clip0_4591_15416)">
<path d="M69.75 138C107.858 138 138.75 107.108 138.75 69C138.75 30.8924 107.858 0 69.75 0C31.6424 0 0.75 30.8924 0.75 69C0.75 107.108 31.6424 138 69.75 138Z" fill="#F0F0F0"/>
<path d="M66.75 69.0001H138.75C138.75 62.7723 137.92 56.7391 136.373 51H66.75V69.0001Z" fill="#D80027"/>
<path d="M66.75 33.0001H128.623C124.399 26.1076 118.998 20.0154 112.701 15H66.75V33.0001Z" fill="#D80027"/>
<path d="M69.7503 138C85.9892 138 100.915 132.387 112.702 123H26.7988C38.5854 132.387 53.5113 138 69.7503 138Z" fill="#D80027"/>
<path d="M10.8773 105H128.623C132.014 99.4669 134.643 93.4186 136.373 87H3.12695C4.85654 93.4186 7.48635 99.4669 10.8773 105Z" fill="#D80027"/>
<path d="M32.7121 10.7753H39L33.1512 15.0245L35.3853 21.9L29.5367 17.6508L23.6882 21.9L25.618 15.9603C20.4684 20.2499 15.9548 25.2756 12.2353 30.8753H14.25L10.527 33.5801C9.94695 34.5477 9.39063 35.5307 8.8575 36.5282L10.6353 42L7.31848 39.5901C6.49398 41.3369 5.73983 43.1231 5.06196 44.9465L7.02064 50.9754H14.25L8.40118 55.2245L10.6353 62.1L4.78677 57.8508L1.2834 60.3963C0.932742 63.215 0.75 66.0861 0.75 69H69.75C69.75 30.8926 69.75 26.4 69.75 0C56.1193 0 43.4128 3.95402 32.7121 10.7753ZM35.3853 62.1L29.5367 57.8508L23.6882 62.1L25.9223 55.2245L20.0735 50.9754H27.3029L29.5367 44.0999L31.7706 50.9754H39L33.1512 55.2245L35.3853 62.1ZM33.1512 35.1245L35.3853 42L29.5367 37.7508L23.6882 42L25.9223 35.1245L20.0735 30.8753H27.3029L29.5367 23.9999L31.7706 30.8753H39L33.1512 35.1245ZM60.1353 62.1L54.2867 57.8508L48.4382 62.1L50.6723 55.2245L44.8235 50.9754H52.0528L54.2867 44.0999L56.5206 50.9754H63.75L57.9011 55.2245L60.1353 62.1ZM57.9011 35.1245L60.1353 42L54.2867 37.7508L48.4382 42L50.6723 35.1245L44.8235 30.8753H52.0528L54.2867 23.9999L56.5206 30.8753H63.75L57.9011 35.1245ZM57.9011 15.0245L60.1353 21.9L54.2867 17.6508L48.4382 21.9L50.6723 15.0245L44.8235 10.7753H52.0528L54.2867 3.89985L56.5206 10.7753H63.75L57.9011 15.0245Z" fill="#0052B4"/>
</g>
<g clip-path="url(#clip1_4591_15416)">
<path d="M160.75 138C198.858 138 229.75 107.108 229.75 69C229.75 30.8924 198.858 0 160.75 0C122.642 0 91.75 30.8924 91.75 69C91.75 107.108 122.642 138 160.75 138Z" fill="url(#paint0_linear_4591_15416)"/>
<path d="M183.372 66.9424C187.725 72.7511 174.979 83.9796 177.843 79.342H150.693C147.756 75.5012 145.736 71.3007 144.766 66.9424H183.372Z" fill="url(#paint1_linear_4591_15416)"/>
<path d="M175.503 100.413C171.644 103.489 167.473 106.151 163.058 108.353L160.898 109.441L158.726 108.358C138.299 98.1075 126.113 80.4518 126.113 61.103V38.3857H138.571V61.103C138.569 62.5521 138.667 63.9995 138.864 65.4351C140.433 77.1899 148.367 88.0339 160.852 95.3354C160.863 95.3466 160.877 95.3559 160.891 95.3632C160.904 95.3559 160.911 95.3486 160.925 95.3427L160.977 95.3091C165.49 97.8328 170.403 99.5594 175.503 100.413Z" fill="url(#paint2_linear_4591_15416)"/>
<path d="M195.297 66.9424C194.721 71.4326 193.489 75.8141 191.642 79.9473C188.227 87.6216 182.738 94.6058 175.508 100.416C170.412 99.5615 165.5 97.8349 160.99 95.312C162.619 94.3515 164.199 93.3092 165.723 92.189C165.875 92.0906 166.021 91.9842 166.161 91.8703C174.6 85.7934 180.68 76.9872 183.371 66.9424H195.297Z" fill="url(#paint3_linear_4591_15416)"/>
<path d="M195.684 38.3906L138.572 38.3906V50.8429L195.684 50.8429V38.3906Z" fill="url(#paint4_linear_4591_15416)"/>
<path d="M195.683 50.8428V61.1034C195.683 61.5274 195.67 61.9529 195.657 62.3783H183.191C183.204 61.9524 183.21 61.5274 183.21 61.1034V50.8428H195.683Z" fill="url(#paint5_linear_4591_15416)"/>
</g>
<g clip-path="url(#clip2_4591_15416)">
<path d="M251.75 138C289.858 138 320.75 107.108 320.75 69C320.75 30.8924 289.858 0 251.75 0C213.642 0 182.75 30.8924 182.75 69C182.75 107.108 213.642 138 251.75 138Z" fill="#2E3148"/>
<path d="M251.75 109.037C273.862 109.037 291.787 91.1119 291.787 69C291.787 46.8881 273.862 28.9629 251.75 28.9629C229.638 28.9629 211.713 46.8881 211.713 69C211.713 91.1119 229.638 109.037 251.75 109.037Z" fill="#1B1E36"/>
<path d="M251.892 8.80273C244.444 8.80273 238.404 35.8176 238.404 69.1424C238.404 102.467 244.444 129.482 251.892 129.482C259.34 129.482 265.379 102.467 265.379 69.1424C265.379 35.8176 259.34 8.80273 251.892 8.80273ZM252.823 126.077C251.971 127.213 251.12 126.361 251.12 126.361C247.689 122.386 245.974 115.003 245.974 115.003C239.975 95.6942 241.403 54.2373 241.403 54.2373C244.222 21.3249 249.352 13.5499 251.097 11.8238C251.275 11.6477 251.51 11.54 251.76 11.5198C252.009 11.4996 252.258 11.5682 252.463 11.7134C254.995 13.508 257.119 21.013 257.119 21.013C263.392 44.2969 262.824 66.1611 262.824 66.1611C263.392 85.1857 259.681 106.482 259.681 106.482C256.824 122.667 252.823 126.077 252.823 126.077Z" fill="#6F7390"/>
<path d="M304.23 39.1143C300.521 32.6515 274.086 40.8575 245.166 57.4407C216.246 74.0239 195.846 92.7074 199.552 99.1675C203.257 105.628 229.696 97.4243 258.616 80.8411C287.536 64.2579 307.935 45.5744 304.23 39.1143ZM202.973 98.281C201.553 98.1021 201.874 96.9352 201.874 96.9352C203.616 91.9832 209.158 86.8209 209.158 86.8209C222.926 72.0074 259.599 52.6162 259.599 52.6162C289.547 38.6827 298.849 39.2705 301.209 39.9202C301.451 39.9879 301.662 40.139 301.803 40.3469C301.945 40.5549 302.008 40.8061 301.982 41.0563C301.698 44.1475 296.232 49.7227 296.232 49.7227C279.168 66.7568 259.92 77.1466 259.92 77.1466C243.7 87.1102 223.381 94.4843 223.381 94.4843C207.92 100.056 202.974 98.281 202.974 98.281H202.973Z" fill="#6F7390"/>
<path d="M304.098 99.3829C307.835 92.9372 287.487 74.1681 258.668 57.4602C229.85 40.7523 203.418 32.4447 199.684 38.9014C195.95 45.3581 216.295 64.1162 245.13 80.8241C273.965 97.5321 300.364 105.84 304.098 99.3829ZM202.16 41.392C201.608 40.0832 202.774 39.768 202.774 39.768C207.932 38.7938 215.179 41.0139 215.179 41.0139C234.894 45.5033 270.048 67.5237 270.048 67.5237C297.114 86.4634 301.265 94.8058 301.887 97.1738C301.951 97.4167 301.926 97.6741 301.818 97.9007C301.71 98.1272 301.525 98.3083 301.297 98.412C298.474 99.7042 290.915 97.7788 290.915 97.7788C267.617 91.5318 248.984 80.0861 248.984 80.0861C232.243 71.0565 215.688 57.1627 215.688 57.1627C203.109 46.5714 202.164 41.4064 202.164 41.4064L202.16 41.392Z" fill="#6F7390"/>
<path d="M251.749 76.0988C255.67 76.0988 258.848 72.9206 258.848 69.0001C258.848 65.0796 255.67 61.9014 251.749 61.9014C247.829 61.9014 244.65 65.0796 244.65 69.0001C244.65 72.9206 247.829 76.0988 251.749 76.0988Z" fill="#B7B9C8"/>
<path d="M280.856 45.9999C283.13 45.9999 284.973 44.093 284.973 41.7407C284.973 39.3884 283.13 37.4814 280.856 37.4814C278.582 37.4814 276.738 39.3884 276.738 41.7407C276.738 44.093 278.582 45.9999 280.856 45.9999Z" fill="#B7B9C8"/>
<path d="M213.274 60.4814C215.548 60.4814 217.391 58.5744 217.391 56.2221C217.391 53.8698 215.548 51.9629 213.274 51.9629C211 51.9629 209.156 53.8698 209.156 56.2221C209.156 58.5744 211 60.4814 213.274 60.4814Z" fill="#B7B9C8"/>
<path d="M243.373 112.728C245.647 112.728 247.491 110.822 247.491 108.469C247.491 106.117 245.647 104.21 243.373 104.21C241.099 104.21 239.256 106.117 239.256 108.469C239.256 110.822 241.099 112.728 243.373 112.728Z" fill="#B7B9C8"/>
</g>
<defs>
<linearGradient id="paint0_linear_4591_15416" x1="229.75" y1="6.49911e-06" x2="64.6178" y2="52.2489" gradientUnits="userSpaceOnUse">
<stop stop-color="#000756"/>
<stop offset="1" stop-color="#0042B8"/>
</linearGradient>
<linearGradient id="paint1_linear_4591_15416" x1="195.955" y1="80.9371" x2="148.45" y2="68.134" gradientUnits="userSpaceOnUse">
<stop offset="0.14" stop-color="#ADADAD"/>
<stop offset="0.29" stop-color="#CBCBCB"/>
<stop offset="0.43" stop-color="#E2E2E2"/>
<stop offset="0.59" stop-color="#F2F2F2"/>
<stop offset="0.77" stop-color="#FCFCFC"/>
<stop offset="1" stop-color="white"/>
</linearGradient>
<linearGradient id="paint2_linear_4591_15416" x1="178.415" y1="121.503" x2="111.265" y2="27.8458" gradientUnits="userSpaceOnUse">
<stop stop-color="#ADADAD"/>
<stop offset="0.17" stop-color="#CBCBCB"/>
<stop offset="0.34" stop-color="#E2E2E2"/>
<stop offset="0.52" stop-color="#F2F2F2"/>
<stop offset="0.73" stop-color="#FCFCFC"/>
<stop offset="1" stop-color="white"/>
</linearGradient>
<linearGradient id="paint3_linear_4591_15416" x1="161.764" y1="107.329" x2="193.658" y2="66.8985" gradientUnits="userSpaceOnUse">
<stop offset="0.15" stop-color="#ADADAD"/>
<stop offset="0.29" stop-color="#CBCBCB"/>
<stop offset="0.44" stop-color="#E2E2E2"/>
<stop offset="0.6" stop-color="#F2F2F2"/>
<stop offset="0.77" stop-color="#FCFCFC"/>
<stop offset="1" stop-color="white"/>
</linearGradient>
<linearGradient id="paint4_linear_4591_15416" x1="133.082" y1="76.9609" x2="160.037" y2="51.3561" gradientUnits="userSpaceOnUse">
<stop offset="0.14" stop-color="#ADADAD"/>
<stop offset="0.43" stop-color="#C9C9C9"/>
<stop offset="1" stop-color="white"/>
</linearGradient>
<linearGradient id="paint5_linear_4591_15416" x1="189.437" y1="44.3071" x2="189.437" y2="62.3783" gradientUnits="userSpaceOnUse">
<stop offset="0.0895638" stop-color="#ADADAD"/>
<stop offset="0.240189" stop-color="#CBCBCB"/>
<stop offset="0.425047" stop-color="#E2E2E2"/>
<stop offset="0.536875" stop-color="#F2F2F2"/>
<stop offset="1" stop-color="white"/>
</linearGradient>
<clipPath id="clip0_4591_15416">
<rect x="0.75" width="138" height="138" rx="69" fill="white"/>
</clipPath>
<clipPath id="clip1_4591_15416">
<rect x="91.75" width="138" height="138" rx="69" fill="white"/>
</clipPath>
<clipPath id="clip2_4591_15416">
<rect width="138" height="138" fill="white" transform="translate(182.75)"/>
</clipPath>
</defs>
</svg>
