<svg width="321" height="138" viewBox="0 0 321 138" fill="none" xmlns="http://www.w3.org/2000/svg">
<g clip-path="url(#clip0_4591_15453)">
<path d="M69.25 138C107.358 138 138.25 107.108 138.25 69C138.25 30.8924 107.358 0 69.25 0C31.1424 0 0.25 30.8924 0.25 69C0.25 107.108 31.1424 138 69.25 138Z" fill="#0052B4"/>
<path d="M69.2504 27L71.4845 33.8755H78.7133L72.8648 38.1246L75.0989 45.0001L69.2504 40.7507L63.4015 45.0001L65.6357 38.1246L59.7871 33.8755H67.0162L69.2504 27Z" fill="#FFDA44"/>
<path d="M39.552 39.3013L45.9938 42.5831L51.1054 37.4717L49.9742 44.6116L56.4157 47.8936L49.2756 49.0246L48.1446 56.165L44.8625 49.7235L37.7227 50.8547L42.8343 45.7431L39.552 39.3013Z" fill="#FFDA44"/>
<path d="M27.25 69.0004L34.1255 66.7662V59.5371L38.3744 65.3859L45.2501 63.1518L41.0004 69.0004L45.2501 74.8489L38.3744 72.615L34.1255 78.4636V71.2345L27.25 69.0004Z" fill="#FFDA44"/>
<path d="M39.552 98.6985L42.834 92.2567L37.7227 87.145L44.8628 88.2765L48.1444 81.835L49.2756 88.9751L56.4155 90.1061L49.9747 93.3882L51.1054 100.528L45.9938 95.4164L39.552 98.6985Z" fill="#FFDA44"/>
<path d="M69.2504 111L67.0159 104.124H59.7871L65.6359 99.8749L63.4015 93L69.2504 97.2489L75.0989 93L72.8648 99.8749L78.7133 104.124H71.4842L69.2504 111Z" fill="#FFDA44"/>
<path d="M98.9492 98.6985L92.5076 95.4166L87.3957 100.528L88.5269 93.3879L82.0859 90.1061L89.2258 88.9751L90.3568 81.835L93.6386 88.2765L100.778 87.145L95.6668 92.2572L98.9492 98.6985Z" fill="#FFDA44"/>
<path d="M111.25 69.0004L104.374 71.2345V78.4636L100.125 72.6148L93.25 74.8489L97.4992 69.0004L93.25 63.1518L100.125 65.3859L104.374 59.5371V66.7665L111.25 69.0004Z" fill="#FFDA44"/>
<path d="M98.9492 39.301L95.6671 45.7428L100.779 50.8544L93.6383 49.723L90.3568 56.1645L89.2258 49.0243L82.0859 47.8931L88.5269 44.6113L87.3957 37.4717L92.5079 42.5831L98.9492 39.301Z" fill="#FFDA44"/>
</g>
<g clip-path="url(#clip1_4591_15453)">
<path d="M160.25 138C198.358 138 229.25 107.108 229.25 69C229.25 30.8924 198.358 0 160.25 0C122.142 0 91.25 30.8924 91.25 69C91.25 107.108 122.142 138 160.25 138Z" fill="url(#paint0_linear_4591_15453)"/>
<path d="M182.872 66.9424C187.225 72.7511 174.479 83.9796 177.343 79.342H150.193C147.256 75.5012 145.236 71.3007 144.266 66.9424H182.872Z" fill="url(#paint1_linear_4591_15453)"/>
<path d="M175.003 100.413C171.144 103.489 166.973 106.151 162.558 108.353L160.398 109.441L158.226 108.358C137.799 98.1075 125.613 80.4518 125.613 61.103V38.3857H138.071V61.103C138.069 62.5521 138.167 63.9995 138.364 65.4351C139.933 77.1899 147.867 88.0339 160.352 95.3354C160.363 95.3466 160.377 95.3559 160.391 95.3632C160.404 95.3559 160.411 95.3486 160.425 95.3427L160.477 95.3091C164.99 97.8328 169.903 99.5594 175.003 100.413Z" fill="url(#paint2_linear_4591_15453)"/>
<path d="M194.797 66.9424C194.221 71.4326 192.989 75.8141 191.142 79.9473C187.727 87.6216 182.238 94.6058 175.008 100.416C169.912 99.5615 165 97.8349 160.49 95.312C162.119 94.3515 163.699 93.3092 165.223 92.189C165.375 92.0906 165.521 91.9842 165.661 91.8703C174.1 85.7934 180.18 76.9872 182.871 66.9424H194.797Z" fill="url(#paint3_linear_4591_15453)"/>
<path d="M195.184 38.3906L138.072 38.3906V50.8429L195.184 50.8429V38.3906Z" fill="url(#paint4_linear_4591_15453)"/>
<path d="M195.183 50.8428V61.1034C195.183 61.5274 195.17 61.9529 195.157 62.3783H182.691C182.704 61.9524 182.71 61.5274 182.71 61.1034V50.8428H195.183Z" fill="url(#paint5_linear_4591_15453)"/>
</g>
<g clip-path="url(#clip2_4591_15453)">
<path d="M251.25 138C289.358 138 320.25 107.108 320.25 69C320.25 30.8924 289.358 0 251.25 0C213.142 0 182.25 30.8924 182.25 69C182.25 107.108 213.142 138 251.25 138Z" fill="#2E3148"/>
<path d="M251.25 109.037C273.362 109.037 291.287 91.1119 291.287 69C291.287 46.8881 273.362 28.9629 251.25 28.9629C229.138 28.9629 211.213 46.8881 211.213 69C211.213 91.1119 229.138 109.037 251.25 109.037Z" fill="#1B1E36"/>
<path d="M251.392 8.80273C243.944 8.80273 237.904 35.8176 237.904 69.1424C237.904 102.467 243.944 129.482 251.392 129.482C258.84 129.482 264.879 102.467 264.879 69.1424C264.879 35.8176 258.84 8.80273 251.392 8.80273ZM252.323 126.077C251.471 127.213 250.62 126.361 250.62 126.361C247.189 122.386 245.474 115.003 245.474 115.003C239.475 95.6942 240.903 54.2373 240.903 54.2373C243.722 21.3249 248.852 13.5499 250.597 11.8238C250.775 11.6477 251.01 11.54 251.26 11.5198C251.509 11.4996 251.758 11.5682 251.963 11.7134C254.495 13.508 256.619 21.013 256.619 21.013C262.892 44.2969 262.324 66.1611 262.324 66.1611C262.892 85.1857 259.181 106.482 259.181 106.482C256.324 122.667 252.323 126.077 252.323 126.077Z" fill="#6F7390"/>
<path d="M303.73 39.1143C300.021 32.6515 273.586 40.8575 244.666 57.4407C215.746 74.0239 195.346 92.7074 199.052 99.1675C202.757 105.628 229.196 97.4243 258.116 80.8411C287.036 64.2579 307.435 45.5744 303.73 39.1143ZM202.473 98.281C201.053 98.1021 201.374 96.9352 201.374 96.9352C203.116 91.9832 208.658 86.8209 208.658 86.8209C222.426 72.0074 259.099 52.6162 259.099 52.6162C289.047 38.6827 298.349 39.2705 300.709 39.9202C300.951 39.9879 301.162 40.139 301.303 40.3469C301.445 40.5549 301.508 40.8061 301.482 41.0563C301.198 44.1475 295.732 49.7227 295.732 49.7227C278.668 66.7568 259.42 77.1466 259.42 77.1466C243.2 87.1102 222.881 94.4843 222.881 94.4843C207.42 100.056 202.474 98.281 202.474 98.281H202.473Z" fill="#6F7390"/>
<path d="M303.598 99.3829C307.335 92.9372 286.987 74.1681 258.168 57.4602C229.35 40.7523 202.918 32.4447 199.184 38.9014C195.45 45.3581 215.795 64.1162 244.63 80.8241C273.465 97.5321 299.864 105.84 303.598 99.3829ZM201.66 41.392C201.108 40.0832 202.274 39.768 202.274 39.768C207.432 38.7938 214.679 41.0139 214.679 41.0139C234.394 45.5033 269.548 67.5237 269.548 67.5237C296.614 86.4634 300.765 94.8058 301.387 97.1738C301.451 97.4167 301.426 97.6741 301.318 97.9007C301.21 98.1272 301.025 98.3083 300.797 98.412C297.974 99.7042 290.415 97.7788 290.415 97.7788C267.117 91.5318 248.484 80.0861 248.484 80.0861C231.743 71.0565 215.188 57.1627 215.188 57.1627C202.609 46.5714 201.664 41.4064 201.664 41.4064L201.66 41.392Z" fill="#6F7390"/>
<path d="M251.249 76.0988C255.17 76.0988 258.348 72.9206 258.348 69.0001C258.348 65.0796 255.17 61.9014 251.249 61.9014C247.329 61.9014 244.15 65.0796 244.15 69.0001C244.15 72.9206 247.329 76.0988 251.249 76.0988Z" fill="#B7B9C8"/>
<path d="M280.356 45.9999C282.63 45.9999 284.473 44.093 284.473 41.7407C284.473 39.3884 282.63 37.4814 280.356 37.4814C278.082 37.4814 276.238 39.3884 276.238 41.7407C276.238 44.093 278.082 45.9999 280.356 45.9999Z" fill="#B7B9C8"/>
<path d="M212.774 60.4814C215.048 60.4814 216.891 58.5744 216.891 56.2221C216.891 53.8698 215.048 51.9629 212.774 51.9629C210.5 51.9629 208.656 53.8698 208.656 56.2221C208.656 58.5744 210.5 60.4814 212.774 60.4814Z" fill="#B7B9C8"/>
<path d="M242.873 112.728C245.147 112.728 246.991 110.822 246.991 108.469C246.991 106.117 245.147 104.21 242.873 104.21C240.599 104.21 238.756 106.117 238.756 108.469C238.756 110.822 240.599 112.728 242.873 112.728Z" fill="#B7B9C8"/>
</g>
<defs>
<linearGradient id="paint0_linear_4591_15453" x1="229.25" y1="6.49911e-06" x2="64.1178" y2="52.2489" gradientUnits="userSpaceOnUse">
<stop stop-color="#000756"/>
<stop offset="1" stop-color="#0042B8"/>
</linearGradient>
<linearGradient id="paint1_linear_4591_15453" x1="195.455" y1="80.9371" x2="147.95" y2="68.134" gradientUnits="userSpaceOnUse">
<stop offset="0.14" stop-color="#ADADAD"/>
<stop offset="0.29" stop-color="#CBCBCB"/>
<stop offset="0.43" stop-color="#E2E2E2"/>
<stop offset="0.59" stop-color="#F2F2F2"/>
<stop offset="0.77" stop-color="#FCFCFC"/>
<stop offset="1" stop-color="white"/>
</linearGradient>
<linearGradient id="paint2_linear_4591_15453" x1="177.915" y1="121.503" x2="110.765" y2="27.8458" gradientUnits="userSpaceOnUse">
<stop stop-color="#ADADAD"/>
<stop offset="0.17" stop-color="#CBCBCB"/>
<stop offset="0.34" stop-color="#E2E2E2"/>
<stop offset="0.52" stop-color="#F2F2F2"/>
<stop offset="0.73" stop-color="#FCFCFC"/>
<stop offset="1" stop-color="white"/>
</linearGradient>
<linearGradient id="paint3_linear_4591_15453" x1="161.264" y1="107.329" x2="193.158" y2="66.8985" gradientUnits="userSpaceOnUse">
<stop offset="0.15" stop-color="#ADADAD"/>
<stop offset="0.29" stop-color="#CBCBCB"/>
<stop offset="0.44" stop-color="#E2E2E2"/>
<stop offset="0.6" stop-color="#F2F2F2"/>
<stop offset="0.77" stop-color="#FCFCFC"/>
<stop offset="1" stop-color="white"/>
</linearGradient>
<linearGradient id="paint4_linear_4591_15453" x1="132.582" y1="76.9609" x2="159.537" y2="51.3561" gradientUnits="userSpaceOnUse">
<stop offset="0.14" stop-color="#ADADAD"/>
<stop offset="0.43" stop-color="#C9C9C9"/>
<stop offset="1" stop-color="white"/>
</linearGradient>
<linearGradient id="paint5_linear_4591_15453" x1="188.937" y1="44.3071" x2="188.937" y2="62.3783" gradientUnits="userSpaceOnUse">
<stop offset="0.0895638" stop-color="#ADADAD"/>
<stop offset="0.240189" stop-color="#CBCBCB"/>
<stop offset="0.425047" stop-color="#E2E2E2"/>
<stop offset="0.536875" stop-color="#F2F2F2"/>
<stop offset="1" stop-color="white"/>
</linearGradient>
<clipPath id="clip0_4591_15453">
<rect x="0.25" width="138" height="138" rx="69" fill="white"/>
</clipPath>
<clipPath id="clip1_4591_15453">
<rect x="91.25" width="138" height="138" rx="69" fill="white"/>
</clipPath>
<clipPath id="clip2_4591_15453">
<rect width="138" height="138" fill="white" transform="translate(182.25)"/>
</clipPath>
</defs>
</svg>
