<svg width="400" height="400" viewBox="0 0 400 400" fill="none" xmlns="http://www.w3.org/2000/svg">
<g clip-path="url(#clip0_4519_61656)">
<path d="M200 400C310.457 400 400 310.457 400 200C400 89.543 310.457 0 200 0C89.5431 0 9.37509e-06 89.543 2.09398e-05 200C3.25046e-05 310.457 89.5431 400 200 400Z" fill="#2E3148"/>
<path d="M200.001 316.049C264.093 316.049 316.05 264.092 316.05 200C316.05 135.907 264.093 83.9502 200.001 83.9502C135.908 83.9502 83.9512 135.907 83.9512 200C83.9512 264.092 135.908 316.049 200.001 316.049Z" fill="#1B1E36"/>
<path d="M200.411 25.5156C178.822 25.5156 161.316 103.82 161.316 200.413C161.316 297.007 178.822 375.311 200.411 375.311C222 375.311 239.505 297.007 239.505 200.413C239.505 103.82 222 25.5156 200.411 25.5156ZM203.11 365.44C200.641 368.733 198.172 366.263 198.172 366.263C188.23 354.743 183.259 333.341 183.259 333.341C165.868 277.375 170.008 157.21 170.008 157.21C178.18 61.8116 193.048 39.2756 198.107 34.2724C198.623 33.7618 199.304 33.4498 200.028 33.3912C200.752 33.3327 201.473 33.5314 202.065 33.9524C209.406 39.154 215.563 60.9076 215.563 60.9076C233.744 128.397 232.097 191.772 232.097 191.772C233.744 246.916 222.987 308.644 222.987 308.644C214.707 355.556 203.11 365.44 203.11 365.44Z" fill="#6F7390"/>
<path d="M352.116 113.375C341.367 94.642 264.741 118.428 180.915 166.495C97.0899 214.562 37.9603 268.717 48.7011 287.442C59.4419 306.167 136.076 282.389 219.901 234.322C303.727 186.255 362.856 132.1 352.116 113.375ZM58.6179 284.872C54.5027 284.354 55.4323 280.972 55.4323 280.972C60.4803 266.618 76.5443 251.655 76.5443 251.655C116.453 208.717 222.751 152.511 222.751 152.511C309.557 112.124 336.52 113.828 343.36 115.711C344.062 115.907 344.672 116.345 345.082 116.948C345.492 117.55 345.676 118.279 345.6 119.004C344.778 127.964 328.933 144.124 328.933 144.124C279.474 193.498 223.68 223.613 223.68 223.613C176.668 252.493 117.771 273.868 117.771 273.868C72.9571 290.016 58.6195 284.872 58.6195 284.872H58.6179Z" fill="#6F7390"/>
<path d="M351.737 288.065C362.569 269.382 303.588 214.979 220.057 166.55C136.526 118.121 59.9095 94.0413 49.0872 112.756C38.2648 131.472 97.236 185.843 180.815 234.272C264.394 282.7 340.914 306.782 351.737 288.065ZM56.2647 119.976C54.6647 116.182 58.0424 115.268 58.0424 115.268C72.996 112.444 94.0008 118.88 94.0008 118.88C151.145 131.892 253.041 195.72 253.041 195.72C331.494 250.617 343.526 274.798 345.329 281.662C345.512 282.366 345.441 283.112 345.128 283.769C344.814 284.426 344.279 284.95 343.617 285.251C335.436 288.996 313.526 283.416 313.526 283.416C245.994 265.308 191.986 232.132 191.986 232.132C143.46 205.96 95.476 165.688 95.476 165.688C59.0151 134.988 56.276 120.017 56.276 120.017L56.2647 119.976Z" fill="#6F7390"/>
<path d="M200 220.576C211.364 220.576 220.576 211.364 220.576 200C220.576 188.636 211.364 179.424 200 179.424C188.636 179.424 179.424 188.636 179.424 200C179.424 211.364 188.636 220.576 200 220.576Z" fill="#B7B9C8"/>
<path d="M284.362 133.333C290.953 133.333 296.297 127.805 296.297 120.987C296.297 114.169 290.953 108.642 284.362 108.642C277.771 108.642 272.428 114.169 272.428 120.987C272.428 127.805 277.771 133.333 284.362 133.333Z" fill="#B7B9C8"/>
<path d="M88.4774 175.308C95.0686 175.308 100.412 169.781 100.412 162.963C100.412 156.145 95.0686 150.617 88.4774 150.617C81.8862 150.617 76.543 156.145 76.543 162.963C76.543 169.781 81.8862 175.308 88.4774 175.308Z" fill="#B7B9C8"/>
<path d="M175.72 326.749C182.311 326.749 187.654 321.222 187.654 314.403C187.654 307.585 182.311 302.058 175.72 302.058C169.128 302.058 163.785 307.585 163.785 314.403C163.785 321.222 169.128 326.749 175.72 326.749Z" fill="#B7B9C8"/>
</g>
<defs>
<clipPath id="clip0_4519_61656">
<rect width="400" height="400" fill="white"/>
</clipPath>
</defs>
</svg>
