<svg width="40" height="40" viewBox="0 0 40 40" fill="none" xmlns="http://www.w3.org/2000/svg">
<rect width="40" height="40" rx="15" fill="white" fill-opacity="0.31"/>
<path d="M18.3047 20.3203L16.5078 19.8906L17.1562 14.125H23.5469V15.9453H19.0078L18.7266 18.4688C18.8776 18.3802 19.1068 18.2865 19.4141 18.1875C19.7214 18.0833 20.0651 18.0312 20.4453 18.0312C20.9974 18.0312 21.487 18.1172 21.9141 18.2891C22.3411 18.4609 22.7031 18.7109 23 19.0391C23.3021 19.3672 23.5312 19.7682 23.6875 20.2422C23.8438 20.7161 23.9219 21.2526 23.9219 21.8516C23.9219 22.3568 23.8438 22.8385 23.6875 23.2969C23.5312 23.75 23.2943 24.1562 22.9766 24.5156C22.6589 24.8698 22.2604 25.1484 21.7812 25.3516C21.3021 25.5547 20.7344 25.6562 20.0781 25.6562C19.5885 25.6562 19.1146 25.5833 18.6562 25.4375C18.2031 25.2917 17.7943 25.0755 17.4297 24.7891C17.0703 24.5026 16.7812 24.1562 16.5625 23.75C16.349 23.3385 16.237 22.8698 16.2266 22.3438H18.4609C18.4922 22.6667 18.5755 22.9453 18.7109 23.1797C18.8516 23.4089 19.0365 23.5859 19.2656 23.7109C19.4948 23.8359 19.763 23.8984 20.0703 23.8984C20.3568 23.8984 20.6016 23.8438 20.8047 23.7344C21.0078 23.625 21.1719 23.474 21.2969 23.2812C21.4219 23.0833 21.513 22.8542 21.5703 22.5938C21.6328 22.3281 21.6641 22.0417 21.6641 21.7344C21.6641 21.4271 21.6276 21.1484 21.5547 20.8984C21.4818 20.6484 21.3698 20.4323 21.2188 20.25C21.0677 20.0677 20.875 19.9271 20.6406 19.8281C20.4115 19.7292 20.1432 19.6797 19.8359 19.6797C19.4193 19.6797 19.0964 19.7448 18.8672 19.875C18.6432 20.0052 18.4557 20.1536 18.3047 20.3203Z" fill="white"/>
</svg>
