<svg width="40" height="40" viewBox="0 0 40 40" fill="none" xmlns="http://www.w3.org/2000/svg">
<rect width="40" height="40" rx="15" fill="url(#paint0_linear_822_3157)"/>
<path d="M18.4922 18.8359H19.6953C20.0807 18.8359 20.3984 18.7708 20.6484 18.6406C20.8984 18.5052 21.0833 18.3177 21.2031 18.0781C21.3281 17.8333 21.3906 17.5495 21.3906 17.2266C21.3906 16.9349 21.3333 16.6771 21.2188 16.4531C21.1094 16.224 20.9401 16.0469 20.7109 15.9219C20.4818 15.7917 20.1927 15.7266 19.8438 15.7266C19.5677 15.7266 19.3125 15.7812 19.0781 15.8906C18.8438 16 18.6562 16.1536 18.5156 16.3516C18.375 16.5495 18.3047 16.7891 18.3047 17.0703H16.0469C16.0469 16.4453 16.2135 15.901 16.5469 15.4375C16.8854 14.974 17.3385 14.612 17.9062 14.3516C18.474 14.0911 19.099 13.9609 19.7812 13.9609C20.5521 13.9609 21.2266 14.0859 21.8047 14.3359C22.3828 14.5807 22.8333 14.9427 23.1562 15.4219C23.4792 15.901 23.6406 16.4948 23.6406 17.2031C23.6406 17.5625 23.5573 17.9115 23.3906 18.25C23.224 18.5833 22.9844 18.8854 22.6719 19.1562C22.3646 19.4219 21.9896 19.6354 21.5469 19.7969C21.1042 19.9531 20.6068 20.0312 20.0547 20.0312H18.4922V18.8359ZM18.4922 20.5469V19.3828H20.0547C20.6745 19.3828 21.2188 19.4531 21.6875 19.5938C22.1562 19.7344 22.5495 19.9375 22.8672 20.2031C23.1849 20.4635 23.4245 20.7734 23.5859 21.1328C23.7474 21.487 23.8281 21.8802 23.8281 22.3125C23.8281 22.8438 23.7266 23.3177 23.5234 23.7344C23.3203 24.1458 23.0339 24.4948 22.6641 24.7812C22.2995 25.0677 21.8724 25.2865 21.3828 25.4375C20.8932 25.5833 20.3594 25.6562 19.7812 25.6562C19.3021 25.6562 18.8307 25.5911 18.3672 25.4609C17.9089 25.3255 17.4922 25.125 17.1172 24.8594C16.7474 24.5885 16.4505 24.25 16.2266 23.8438C16.0078 23.4323 15.8984 22.9453 15.8984 22.3828H18.1562C18.1562 22.6745 18.2292 22.9349 18.375 23.1641C18.5208 23.3932 18.7214 23.5729 18.9766 23.7031C19.237 23.8333 19.526 23.8984 19.8438 23.8984C20.2031 23.8984 20.5104 23.8333 20.7656 23.7031C21.026 23.5677 21.224 23.3802 21.3594 23.1406C21.5 22.8958 21.5703 22.612 21.5703 22.2891C21.5703 21.8724 21.4948 21.5391 21.3438 21.2891C21.1927 21.0339 20.9766 20.8464 20.6953 20.7266C20.4141 20.6068 20.0807 20.5469 19.6953 20.5469H18.4922Z" fill="white"/>
<defs>
<linearGradient id="paint0_linear_822_3157" x1="40" y1="1.8838e-06" x2="-7.8644" y2="15.1446" gradientUnits="userSpaceOnUse">
<stop stop-color="#687AEB"/>
<stop offset="1" stop-color="#35CBD7"/>
</linearGradient>
</defs>
</svg>
