<svg width="40" height="40" viewBox="0 0 40 40" fill="none" xmlns="http://www.w3.org/2000/svg">
<rect width="40" height="40" rx="15" fill="url(#paint0_linear_822_3151)"/>
<path d="M23.9688 23.7422V25.5H16.1875V24L19.8672 20.0547C20.237 19.6432 20.5286 19.2812 20.7422 18.9688C20.9557 18.651 21.1094 18.3672 21.2031 18.1172C21.3021 17.862 21.3516 17.6198 21.3516 17.3906C21.3516 17.0469 21.2943 16.7526 21.1797 16.5078C21.0651 16.2578 20.8958 16.0651 20.6719 15.9297C20.4531 15.7943 20.1823 15.7266 19.8594 15.7266C19.5156 15.7266 19.2188 15.8099 18.9688 15.9766C18.724 16.1432 18.5365 16.375 18.4062 16.6719C18.2812 16.9688 18.2188 17.3047 18.2188 17.6797H15.9609C15.9609 17.0026 16.1224 16.3828 16.4453 15.8203C16.7682 15.2526 17.224 14.8021 17.8125 14.4688C18.401 14.1302 19.099 13.9609 19.9062 13.9609C20.7031 13.9609 21.375 14.0911 21.9219 14.3516C22.474 14.6068 22.8906 14.9766 23.1719 15.4609C23.4583 15.9401 23.6016 16.513 23.6016 17.1797C23.6016 17.5547 23.5417 17.9219 23.4219 18.2812C23.3021 18.6354 23.1302 18.9896 22.9062 19.3438C22.6875 19.6927 22.4219 20.0469 22.1094 20.4062C21.7969 20.7656 21.4505 21.138 21.0703 21.5234L19.0938 23.7422H23.9688Z" fill="white"/>
<defs>
<linearGradient id="paint0_linear_822_3151" x1="40" y1="1.8838e-06" x2="-7.8644" y2="15.1446" gradientUnits="userSpaceOnUse">
<stop stop-color="#FCAB4C"/>
<stop offset="1" stop-color="#F53C82"/>
</linearGradient>
</defs>
</svg>
