<svg width="400" height="400" viewBox="0 0 400 400" fill="none" xmlns="http://www.w3.org/2000/svg">
<path d="M58.8301 284.687C72.0579 271.459 93.4577 271.459 106.686 284.687C119.913 297.915 119.913 319.315 106.686 332.543C93.4577 345.771 72.1168 345.83 58.8889 332.602C45.6611 319.374 45.6023 297.915 58.8301 284.687Z" fill="#FDBA4D"/>
<path d="M290.075 65.2421C303.303 52.0141 324.703 52.0141 337.931 65.242C351.159 78.4699 351.159 99.8699 337.931 113.098C324.703 126.326 303.303 126.326 290.075 113.098C276.965 99.8698 276.906 78.4112 290.075 65.2421Z" fill="#FDBA4D"/>
<path d="M102.246 258.679L137.932 294.365L170.62 261.677C162.801 258.561 155.511 253.858 149.102 247.45C142.812 241.159 138.05 233.81 134.875 225.933L102.246 258.679Z" fill="#FDBA4D"/>
<path d="M262.62 171.426L295.308 138.739L259.622 103.052L226.934 135.74C234.753 138.856 242.043 143.559 248.452 149.968C254.801 156.317 259.504 163.607 262.62 171.426Z" fill="#FDBA4D"/>
<path d="M288.937 330.859C275.709 317.631 275.709 296.231 288.937 283.003C302.165 269.775 323.565 269.775 336.793 283.003C350.021 296.231 350.021 317.631 336.793 330.859C323.624 344.028 302.106 344.028 288.937 330.859Z" fill="#5DA9DD"/>
<path d="M62.2783 110.003C49.0504 96.7752 49.0504 75.3754 62.2782 62.1475C75.5061 48.9197 96.906 48.9197 110.134 62.1475C123.362 75.3754 123.362 96.7752 110.134 110.003C96.906 123.231 75.5061 123.231 62.2783 110.003Z" fill="#5DA9DD"/>
<path d="M256.92 292.967L292.606 257.281L259.918 224.593C256.802 232.412 252.099 239.702 245.69 246.111C239.4 252.401 232.051 257.163 224.173 260.338L256.92 292.967Z" fill="#5DA9DD"/>
<path d="M173.326 133.873L140.639 101.186L104.953 136.871L137.64 169.559C140.756 161.74 145.459 154.45 151.868 148.042C158.158 141.751 165.507 136.989 173.326 133.873Z" fill="#5DA9DD"/>
<path d="M233.066 38.4132C233.066 57.1202 217.934 72.2521 199.227 72.2521C180.52 72.2521 165.388 57.1202 165.388 38.4132C165.388 19.7062 180.52 4.57422 199.227 4.57422C217.934 4.57422 233.066 19.7062 233.066 38.4132Z" fill="#18568C"/>
<path d="M233.066 361.618C233.066 380.325 217.934 395.457 199.227 395.457C180.52 395.457 165.388 380.325 165.388 361.618C165.388 342.911 180.52 327.779 199.227 327.779C217.934 327.779 233.066 342.911 233.066 361.618Z" fill="#18568C"/>
<path d="M211.539 89.9639H190.254L190.254 131.868C193.746 131.286 197.238 130.953 200.897 130.953C204.555 130.953 208.047 131.286 211.539 131.868L211.539 89.9639Z" fill="#18568C"/>
<path d="M211.539 270.02C208.047 270.602 204.555 270.934 200.897 270.934C197.238 270.934 193.746 270.601 190.254 270.02L190.254 311.924H211.539L211.539 270.02Z" fill="#18568C"/>
<path d="M348.91 224.625C330.203 224.625 315.071 209.493 315.071 190.786C315.071 172.079 330.203 156.947 348.91 156.947C367.617 156.947 382.749 172.079 382.749 190.786C382.749 209.493 367.617 224.625 348.91 224.625Z" fill="#18578C"/>
<path d="M38.2596 230.362C19.5526 230.362 4.42056 215.23 4.42056 196.523C4.42055 177.816 19.5526 162.684 38.2596 162.684C56.9666 162.684 72.0986 177.816 72.0986 196.523C72.0986 215.23 56.9666 230.362 38.2596 230.362Z" fill="#18578C"/>
<path d="M262.856 207.173H304.759L304.759 185.889H262.856C263.438 189.381 263.77 192.873 263.77 196.531C263.77 200.189 263.438 203.681 262.856 207.173Z" fill="#18578C"/>
<path d="M132.686 207.172C132.104 203.68 131.771 200.188 131.771 196.53C131.771 192.872 132.104 189.38 132.686 185.888H90.7826L90.7826 207.172H132.686Z" fill="#18578C"/>
<path d="M246.182 198.998C246.182 225.438 224.732 246.972 198.209 246.972C171.687 246.972 150.236 225.521 150.236 198.998C150.236 172.475 171.687 151.024 198.209 151.024C224.732 151.024 246.182 172.559 246.182 198.998Z" fill="#18568B"/>
</svg>
