<svg width="120" height="120" viewBox="0 0 120 120" fill="none" xmlns="http://www.w3.org/2000/svg">
<path d="M17.649 85.4066C21.6174 81.4382 28.0373 81.4382 32.0057 85.4066C35.974 89.375 35.974 95.795 32.0057 99.7633C28.0373 103.732 21.635 103.749 17.6667 99.781C13.6983 95.8126 13.6807 89.375 17.649 85.4066Z" fill="#FDBA4D"/>
<path d="M87.0231 19.5726C90.9914 15.6042 97.4114 15.6042 101.38 19.5726C105.348 23.541 105.348 29.961 101.38 33.9293C97.4114 37.8977 90.9914 37.8977 87.0231 33.9293C83.09 29.9609 83.0723 23.5234 87.0231 19.5726Z" fill="#FDBA4D"/>
<path d="M30.6739 77.6036L41.3797 88.3094L51.186 78.5031C48.8402 77.5683 46.6532 76.1574 44.7307 74.2349C42.8435 72.3477 41.4149 70.143 40.4625 67.7797L30.6739 77.6036Z" fill="#FDBA4D"/>
<path d="M78.786 51.4275L88.5924 41.6212L77.8865 30.9154L68.0801 40.7217C70.4259 41.6565 72.6129 43.0674 74.5354 44.9899C76.4402 46.8948 77.8512 49.0818 78.786 51.4275Z" fill="#FDBA4D"/>
<path d="M86.681 99.2578C82.7126 95.2894 82.7126 88.8694 86.681 84.901C90.6494 80.9326 97.0693 80.9326 101.038 84.901C105.006 88.8694 105.006 95.2894 101.038 99.2578C97.087 103.208 90.6317 103.208 86.681 99.2578Z" fill="#5DA9DD"/>
<path d="M18.683 33.0008C14.7146 29.0325 14.7146 22.6125 18.683 18.6442C22.6513 14.6758 29.0713 14.6758 33.0397 18.6442C37.008 22.6125 37.008 29.0325 33.0397 33.0008C29.0713 36.9692 22.6513 36.9692 18.683 33.0008Z" fill="#5DA9DD"/>
<path d="M77.0761 87.8903L87.782 77.1843L77.9756 67.3779C77.0408 69.7237 75.6298 71.9108 73.7073 73.8332C71.8201 75.7205 69.6154 77.1491 67.252 78.1015L77.0761 87.8903Z" fill="#5DA9DD"/>
<path d="M51.9977 40.1617L42.1914 30.3555L31.4856 41.0612L41.2919 50.8675C42.2267 48.5217 43.6376 46.3347 45.5601 44.4123C47.4473 42.5251 49.652 41.0965 51.9977 40.1617Z" fill="#5DA9DD"/>
<path d="M69.9196 11.5238C69.9196 17.1359 65.38 21.6754 59.7679 21.6754C54.1558 21.6754 49.6162 17.1359 49.6162 11.5238C49.6162 5.91166 54.1558 1.37207 59.7679 1.37207C65.38 1.37207 69.9196 5.91166 69.9196 11.5238Z" fill="#18568C"/>
<path d="M69.9196 108.486C69.9196 114.098 65.38 118.637 59.7679 118.637C54.1558 118.637 49.6162 114.098 49.6162 108.486C49.6162 102.874 54.1558 98.334 59.7679 98.334C65.38 98.334 69.9196 102.874 69.9196 108.486Z" fill="#18568C"/>
<path d="M63.4615 26.9893H57.0762L57.0762 39.5604C58.1238 39.3858 59.1714 39.286 60.2688 39.286C61.3663 39.286 62.4139 39.3858 63.4615 39.5604L63.4615 26.9893Z" fill="#18568C"/>
<path d="M63.4615 81.0059C62.4139 81.1805 61.3663 81.2802 60.2688 81.2802C59.1714 81.2802 58.1238 81.1804 57.0762 81.0059L57.0762 93.5771H63.4615L63.4615 81.0059Z" fill="#18568C"/>
<path d="M104.673 67.3873C99.0614 67.3873 94.5218 62.8478 94.5218 57.2357C94.5218 51.6236 99.0614 47.084 104.673 47.084C110.286 47.084 114.825 51.6236 114.825 57.2357C114.825 62.8478 110.286 67.3873 104.673 67.3873Z" fill="#18578C"/>
<path d="M11.4782 69.1083C5.86606 69.1083 1.32646 64.5687 1.32646 58.9565C1.32646 53.3443 5.86606 48.8047 11.4782 48.8047C17.0903 48.8047 21.6299 53.3443 21.6299 58.9565C21.6299 64.5687 17.0903 69.1083 11.4782 69.1083Z" fill="#18578C"/>
<path d="M78.8568 62.152H91.4277L91.4277 55.7666H78.8568C79.0314 56.8142 79.1312 57.8618 79.1312 58.9593C79.1312 60.0568 79.0314 61.1044 78.8568 62.152Z" fill="#18578C"/>
<path d="M39.8057 62.152C39.6311 61.1044 39.5313 60.0568 39.5313 58.9593C39.5313 57.8618 39.631 56.8142 39.8057 55.7666H27.2346L27.2346 62.152H39.8057Z" fill="#18578C"/>
<path d="M73.8543 59.6997C73.8543 67.6316 67.419 74.0918 59.4623 74.0918C51.5056 74.0918 45.0703 67.6565 45.0703 59.6997C45.0703 51.7429 51.5055 45.3076 59.4623 45.3076C67.4191 45.3076 73.8542 51.7679 73.8543 59.6997Z" fill="#18568B"/>
</svg>
