<svg width="400" height="400" viewBox="0 0 400 400" fill="none" xmlns="http://www.w3.org/2000/svg">
    <g clip-path="url(#clip0)">
        <path d="M250.836 10.7615C224.554 26.2015 208.992 54.0835 208.992 83.4856C208.992 98.9256 215.192 114.486 222.954 128.368C229.154 140.768 232.194 162.41 210.554 173.25C195.112 182.49 174.91 176.33 165.67 160.85C156.428 148.45 145.588 136.05 131.626 126.808C105.344 111.368 74.34 111.368 48.056 126.808C21.772 142.248 6.25002 170.2 6.25002 199.61C6.25002 229.02 21.692 256.892 48.05 272.374C74.332 287.814 105.336 287.814 131.62 272.374C145.582 264.614 156.42 252.294 164.104 238.332C170.304 227.492 187.346 213.532 208.988 225.932C224.43 235.172 229.07 255.374 221.388 270.814C213.628 284.774 208.988 300.256 208.988 315.696C208.988 345.138 224.43 372.978 250.832 388.42C277.114 403.86 308.118 403.86 334.402 388.42C360.686 372.98 376.25 345.098 376.25 315.696C376.25 286.294 360.768 258.414 334.406 242.932C320.444 235.172 304.962 232.092 287.96 232.092C273.998 232.092 255.476 222.852 255.476 199.61C255.476 181.01 269.438 167.128 287.96 167.128C303.402 167.128 320.444 164.048 334.406 156.288C360.688 140.848 376.25 112.966 376.25 83.5656C376.25 54.1655 360.768 26.2835 334.406 10.8415C322.006 3.08148 306.562 0.00147908 292.606 0.00147908C278.724 -0.078521 263.162 3.08148 250.842 10.7615" fill="url(#paint0_linear)"/>
    </g>
    <defs>
        <linearGradient id="paint0_linear" x1="6.25" y1="-0.00052929" x2="376.25" y2="-0.000568028" gradientUnits="userSpaceOnUse">
            <stop stop-color="#11AAE2"/>
            <stop offset="0.59" stop-color="#0880B7"/>
            <stop offset="1" stop-color="#016197"/>
        </linearGradient>
        <clipPath id="clip0">
            <rect width="400" height="400" fill="white"/>
        </clipPath>
    </defs>
</svg>
