<svg width="120" height="120" viewBox="0 0 120 120" fill="none" xmlns="http://www.w3.org/2000/svg">
    <g clip-path="url(#clip0)">
        <path d="M75.2508 3.22845C67.3662 7.86045 62.6976 16.2251 62.6976 25.0457C62.6976 29.6777 64.5576 34.3457 66.8862 38.5103C68.7462 42.2303 69.6582 48.7229 63.1662 51.9749C58.5336 54.7469 52.473 52.8989 49.701 48.2549C46.9284 44.5349 43.6764 40.8149 39.4878 38.0423C31.6032 33.4103 22.302 33.4103 14.4168 38.0423C6.5316 42.6743 1.87501 51.0599 1.87501 59.8829C1.87501 68.7059 6.50761 77.0675 14.415 81.7121C22.2996 86.3441 31.6008 86.3441 39.486 81.7121C43.6746 79.3841 46.926 75.6881 49.2312 71.4995C51.0912 68.2475 56.2038 64.0595 62.6964 67.7795C67.329 70.5515 68.721 76.6121 66.4164 81.2441C64.0884 85.4321 62.6964 90.0767 62.6964 94.7087C62.6964 103.541 67.329 111.893 75.2496 116.526C83.1342 121.158 92.4354 121.158 100.321 116.526C108.206 111.894 112.875 103.529 112.875 94.7087C112.875 85.8881 108.23 77.5241 100.322 72.8795C96.1332 70.5515 91.4886 69.6275 86.388 69.6275C82.1994 69.6275 76.6428 66.8555 76.6428 59.8829C76.6428 54.3029 80.8314 50.1383 86.388 50.1383C91.0206 50.1383 96.1332 49.2143 100.322 46.8863C108.206 42.2543 112.875 33.8897 112.875 25.0697C112.875 16.2497 108.23 7.88505 100.322 3.25245C96.6018 0.924444 91.9686 0.000443725 87.7818 0.000443725C83.6172 -0.0235563 78.9486 0.924444 75.2526 3.22845" fill="url(#paint0_linear)"/>
    </g>
    <defs>
        <linearGradient id="paint0_linear" x1="1.875" y1="-0.000158787" x2="112.875" y2="-0.000170409" gradientUnits="userSpaceOnUse">
            <stop stop-color="#11AAE2"/>
            <stop offset="0.59" stop-color="#0880B7"/>
            <stop offset="1" stop-color="#016197"/>
        </linearGradient>
        <clipPath id="clip0">
            <rect width="120" height="120" fill="white"/>
        </clipPath>
    </defs>
</svg>
