<svg width="70" height="62" viewBox="0 0 70 62" fill="none" xmlns="http://www.w3.org/2000/svg">
<path d="M64.5312 61.2517H5.46877C5.32482 61.2526 5.18212 61.225 5.04886 61.1705C4.9156 61.1161 4.79441 61.0359 4.69221 60.9345L0.317215 56.5595C0.215845 56.4573 0.135625 56.3361 0.081195 56.2029C0.026765 56.0696 -0.000813938 55.9269 1.82882e-05 55.783V53.5955C1.82882e-05 53.3054 0.115268 53.0272 0.320386 52.8221C0.525504 52.617 0.803687 52.5017 1.09377 52.5017H27.3438C27.4877 52.5009 27.6304 52.5285 27.7637 52.5829C27.8969 52.6374 28.0181 52.7175 28.1203 52.8189L29.9797 54.6892H40.0203L41.8797 52.8189C41.9819 52.7175 42.1031 52.6374 42.2363 52.5829C42.3696 52.5285 42.5123 52.5009 42.6562 52.5017H68.9062C69.1963 52.5017 69.4745 52.617 69.6796 52.8221C69.8847 53.0272 70 53.3054 70 53.5955V55.783C70.0008 55.9269 69.9732 56.0696 69.9188 56.2029C69.8644 56.3361 69.7842 56.4573 69.6828 56.5595L65.3078 60.9345C65.2056 61.0359 65.0844 61.1161 64.9511 61.1705C64.8179 61.225 64.6752 61.2526 64.5312 61.2517ZM5.91721 59.0642H64.0828L67.8125 55.3345V54.6892H43.1047L41.2453 56.5595C41.1431 56.6609 41.0219 56.7411 40.8887 56.7955C40.7554 56.85 40.6127 56.8776 40.4688 56.8767H29.5313C29.3873 56.8776 29.2446 56.85 29.1114 56.7955C28.9781 56.7411 28.8569 56.6609 28.7547 56.5595L26.8953 54.6892H2.18752V55.3345L5.91721 59.0642Z" fill="#0034A0"/>
<path d="M6.5625 50.3142H4.375V17.5017C4.375 16.3414 4.83593 15.2286 5.6564 14.4081C6.47688 13.5876 7.58968 13.1267 8.75 13.1267H16.4062V15.3142H8.75C8.16984 15.3142 7.61344 15.5447 7.2032 15.9549C6.79297 16.3651 6.5625 16.9215 6.5625 17.5017V50.3142Z" fill="#0034A0"/>
<path d="M65.625 50.3142H63.4375V17.5017C63.4375 16.9215 63.207 16.3651 62.7968 15.9549C62.3866 15.5447 61.8302 15.3142 61.25 15.3142H53.5938V13.1267H61.25C62.4103 13.1267 63.5231 13.5876 64.3436 14.4081C65.1641 15.2286 65.625 16.3414 65.625 17.5017V50.3142Z" fill="#0034A0"/>
<path d="M31.7187 45.9392H29.5312V48.1267H31.7187V45.9392Z" fill="#0034A0"/>
<path d="M27.3437 45.9392H25.1562V48.1267H27.3437V45.9392Z" fill="#0034A0"/>
<path d="M36.0937 45.9392H33.9062V48.1267H36.0937V45.9392Z" fill="#0034A0"/>
<path d="M40.4687 45.9392H38.2812V48.1267H40.4687V45.9392Z" fill="#0034A0"/>
<path d="M44.8437 45.9392H42.6562V48.1267H44.8437V45.9392Z" fill="#0034A0"/>
<path d="M60.1562 48.1267H47.0312V45.9392H59.0625V19.6892H53.5937V17.5017H60.1562C60.4463 17.5017 60.7245 17.6169 60.9296 17.8221C61.1347 18.0272 61.25 18.3054 61.25 18.5955V47.0329C61.25 47.323 61.1347 47.6012 60.9296 47.8063C60.7245 48.0115 60.4463 48.1267 60.1562 48.1267Z" fill="#0034A0"/>
<path d="M22.9687 48.1267H9.84375C9.55367 48.1267 9.27549 48.0115 9.07037 47.8063C8.86525 47.6012 8.75 47.323 8.75 47.0329V18.5955C8.75 18.3054 8.86525 18.0272 9.07037 17.8221C9.27549 17.6169 9.55367 17.5017 9.84375 17.5017H16.4062V19.6892H10.9375V45.9392H22.9687V48.1267Z" fill="#0034A0"/>
<path d="M35 43.7517C34.772 43.7502 34.5503 43.6775 34.3656 43.5439L19.0531 32.6064C18.9118 32.5057 18.7964 32.3729 18.7165 32.2188C18.6366 32.0648 18.5946 31.894 18.5938 31.7204V1.09544C18.594 0.91911 18.637 0.745457 18.7189 0.589292C18.8007 0.433126 18.9192 0.299072 19.0641 0.198562C19.2087 0.0970172 19.3758 0.0320463 19.551 0.00918839C19.7263 -0.0136695 19.9045 0.00627172 20.0703 0.0673172L28.1641 3.10794L30.9422 0.318875C31.0444 0.217505 31.1656 0.137318 31.2988 0.0828883C31.4321 0.0284583 31.5748 0.00086267 31.7187 0.0016949H38.2812C38.4252 0.00086267 38.5679 0.0284583 38.7011 0.0828883C38.8344 0.137318 38.9556 0.217505 39.0578 0.318875L41.8359 3.10794L49.9297 0.0673172C50.0955 0.00627172 50.2737 -0.0136695 50.4489 0.00918839C50.6242 0.0320463 50.7913 0.0970172 50.9359 0.198562C51.0808 0.299072 51.1992 0.433126 51.2811 0.589292C51.363 0.745457 51.4059 0.91911 51.4062 1.09544V31.7204C51.4054 31.894 51.3633 32.0648 51.2835 32.2188C51.2036 32.3729 51.0882 32.5057 50.9468 32.6064L35.6344 43.5439C35.4497 43.6775 35.2279 43.7502 35 43.7517ZM20.7812 31.1626L35 41.3126L49.2187 31.1626V2.67045L41.9453 5.40482C41.7483 5.47886 41.5342 5.4945 41.3285 5.44988C41.1229 5.40526 40.9345 5.30228 40.7859 5.15326L37.8328 2.18919H32.1672L29.214 5.15326C29.0655 5.30228 28.8771 5.40526 28.6714 5.44988C28.4658 5.4945 28.2516 5.47886 28.0547 5.40482L20.7812 2.67045V31.1626Z" fill="#4C9DE8"/>
<path d="M29.5312 4.37671H27.3438V8.75171H29.5312V4.37671Z" fill="#4C9DE8"/>
<path d="M42.6562 4.37671H40.4688V8.75171H42.6562V4.37671Z" fill="#4C9DE8"/>
<path d="M33.9064 25.1579C33.7625 25.1587 33.6198 25.1312 33.4865 25.0767C33.3533 25.0223 33.2321 24.9421 33.1299 24.8407L29.8486 21.5595L31.4017 20.0063L33.9064 22.522L38.5986 17.8188L40.1517 19.372L34.683 24.8407C34.5808 24.9421 34.4596 25.0223 34.3263 25.0767C34.1931 25.1312 34.0504 25.1587 33.9064 25.1579Z" fill="#4C9DE8"/>
<path d="M35 30.6267C33.0531 30.6267 31.1499 30.0494 29.5311 28.9677C27.9123 27.8861 26.6506 26.3487 25.9056 24.55C25.1605 22.7513 24.9656 20.772 25.3454 18.8625C25.7252 16.953 26.6627 15.199 28.0394 13.8224C29.4161 12.4457 31.1701 11.5082 33.0796 11.1284C34.9891 10.7485 36.9683 10.9435 38.767 11.6885C40.5657 12.4336 42.1031 13.6953 43.1848 15.3141C44.2664 16.9329 44.8437 18.8361 44.8437 20.783C44.8437 23.3937 43.8066 25.8975 41.9606 27.7435C40.1145 29.5896 37.6107 30.6267 35 30.6267ZM35 13.1267C33.4857 13.1267 32.0055 13.5758 30.7464 14.417C29.4874 15.2583 28.506 16.454 27.9265 17.853C27.3471 19.252 27.1954 20.7915 27.4908 22.2766C27.7863 23.7618 28.5155 25.126 29.5862 26.1967C30.657 27.2675 32.0212 27.9967 33.5063 28.2921C34.9915 28.5875 36.5309 28.4359 37.9299 27.8564C39.3289 27.2769 40.5246 26.2956 41.3659 25.0365C42.2072 23.7775 42.6562 22.2972 42.6562 20.783C42.6562 18.7524 41.8496 16.805 40.4138 15.3692C38.9779 13.9333 37.0306 13.1267 35 13.1267Z" fill="#4C9DE8"/>
</svg>
