<svg width="70" height="70" viewBox="0 0 70 70" fill="none" xmlns="http://www.w3.org/2000/svg">
<path d="M52.5003 59.0624H50.0003V50.3124C49.9941 50.2469 49.9941 50.1811 50.0003 50.1156L52.5003 38.1828V28.4374C52.5003 23.4937 44.7253 17.1171 41.7378 15.0828L43.2628 13.3546C43.7503 13.6827 55.0003 21.4156 55.0003 28.4374V38.2812C55.0064 38.3467 55.0064 38.4125 55.0003 38.4781L52.5003 50.4109V59.0624Z" fill="#0034A0"/>
<path d="M36.25 39.375H15C14.337 39.375 13.7011 39.1445 13.2322 38.7343C12.7634 38.3241 12.5 37.7677 12.5 37.1875V2.1875C12.5 1.60734 12.7634 1.05094 13.2322 0.640702C13.7011 0.230466 14.337 0 15 0H41.25C41.913 0 42.5489 0.230466 43.0177 0.640702C43.4866 1.05094 43.75 1.60734 43.75 2.1875V29.5312H41.25V2.1875H15V37.1875H36.25V39.375Z" fill="#4C9DE8"/>
<path d="M31.25 59.0625H28.75V52.8719C27.6625 51.5922 23.75 46.6484 23.75 41.5625H26.25C26.25 46.5938 30.925 51.7672 30.975 51.8219C31.1514 52.0143 31.2484 52.2533 31.25 52.5V59.0625Z" fill="#0034A0"/>
<path d="M43.75 49.2188C38.4375 49.2188 35.275 39.3094 35 35.4703L26.6 28.1203C26.5434 28.0665 26.4932 28.0079 26.45 27.9453C25.3875 26.5563 24.05 23.3297 26.6 21.0985C29.15 18.8672 32.85 20.0047 34.425 20.9672C34.4965 21.005 34.5635 21.049 34.625 21.0985L45.875 30.9422L44.1 32.4953L32.95 22.7391C32.4375 22.4657 29.95 21.2625 28.375 22.6516C26.8 24.0406 28.1625 26.2172 28.475 26.6547L37.125 34.2235C37.2409 34.3257 37.3325 34.4469 37.3947 34.5801C37.4569 34.7134 37.4884 34.8561 37.4875 35C37.4875 38.8719 40.9875 47.0313 43.7375 47.0313L43.75 49.2188Z" fill="#0034A0"/>
<path d="M22.5 1.09375H20V38.2812H22.5V1.09375Z" fill="#4C9DE8"/>
<path d="M27.5 4.375H25V17.5H27.5V4.375Z" fill="#4C9DE8"/>
<path d="M55 70H52.5V59.0625H28.75V70H26.25V57.9688C26.25 57.6787 26.3817 57.4005 26.6161 57.1954C26.8506 56.9902 27.1685 56.875 27.5 56.875H53.75C54.0815 56.875 54.3994 56.9902 54.6339 57.1954C54.8683 57.4005 55 57.6787 55 57.9688V70Z" fill="#0034A0"/>
<path d="M33.75 61.25H31.25V63.4375H33.75V61.25Z" fill="#0034A0"/>
<path d="M33.75 65.625H31.25V67.8125H33.75V65.625Z" fill="#0034A0"/>
<path d="M32.5 4.375H30V8.75H32.5V4.375Z" fill="#4C9DE8"/>
<path d="M32.5 10.9375H30V13.125H32.5V10.9375Z" fill="#4C9DE8"/>
<path d="M23.75 65.625H5C3.67392 65.625 2.40214 65.1641 1.46446 64.3436C0.52678 63.5231 0 62.4103 0 61.25V8.75C0 7.58968 0.52678 6.47688 1.46446 5.6564C2.40214 4.83593 3.67392 4.375 5 4.375H10V6.5625H5C4.33696 6.5625 3.70107 6.79297 3.23223 7.2032C2.76339 7.61344 2.5 8.16984 2.5 8.75V61.25C2.5 61.8302 2.76339 62.3866 3.23223 62.7968C3.70107 63.207 4.33696 63.4375 5 63.4375H23.75V65.625Z" fill="#0034A0"/>
<path d="M65 65.625H57.5V63.4375H65C65.663 63.4375 66.2989 63.207 66.7677 62.7968C67.2366 62.3866 67.5 61.8302 67.5 61.25V8.75C67.5 8.16984 67.2366 7.61344 66.7677 7.2032C66.2989 6.79297 65.663 6.5625 65 6.5625H46.25V4.375H65C66.3261 4.375 67.5979 4.83593 68.5355 5.6564C69.4732 6.47688 70 7.58968 70 8.75V61.25C70 62.4103 69.4732 63.5231 68.5355 64.3436C67.5979 65.1641 66.3261 65.625 65 65.625Z" fill="#0034A0"/>
<path d="M68.75 8.75H46.25V10.9375H68.75V8.75Z" fill="#0034A0"/>
<path d="M23.75 59.0625H1.25V61.25H23.75V59.0625Z" fill="#0034A0"/>
</svg>
