<svg width="70" height="70" viewBox="0 0 70 70" fill="none" xmlns="http://www.w3.org/2000/svg">
<path d="M33.871 40.6451V42.9032H30.4839V58.7097H33.871V60.9677H36.129V58.7097C38.6198 58.7097 40.6452 56.6842 40.6452 54.1935C40.6452 52.8467 40.0525 51.6339 39.1132 50.8064C40.0525 49.979 40.6452 48.7661 40.6452 47.4193C40.6452 44.9286 38.6198 42.9032 36.129 42.9032V40.6451H33.871ZM36.129 56.4516H32.742V51.9355H36.129C37.3744 51.9355 38.3871 52.9482 38.3871 54.1935C38.3871 55.4389 37.3744 56.4516 36.129 56.4516ZM38.3871 47.4193C38.3871 48.6647 37.3744 49.6774 36.129 49.6774H32.742V45.1613H36.129C37.3744 45.1613 38.3871 46.174 38.3871 47.4193Z" fill="#4C9DE8"/>
<path d="M70 29.3548C70 19.3948 61.8956 11.2903 51.9355 11.2903C49.5396 11.2903 47.2556 11.7688 45.1613 12.6206V9.03226H42.9032V13.7347C42.1116 14.1939 41.3552 14.7055 40.6452 15.2756V6.77419H38.3871V17.4471C37.5276 18.4234 36.7636 19.4835 36.129 20.6296V0H33.871V20.6285C33.2364 19.4824 32.4724 18.4223 31.6129 17.446V6.77419H29.3548V15.2756C28.6448 14.7055 27.8884 14.1939 27.0968 13.7347V9.03226H24.8387V12.6206C22.7444 11.7688 20.4604 11.2903 18.0645 11.2903C8.10444 11.2903 0 19.3948 0 29.3548C0 33.2679 1.26465 36.8843 3.3871 39.8458V55.3226H5.64516V42.439C6.3497 43.1078 7.09835 43.7296 7.90323 44.2798V59.8387H10.1613V45.5737C10.8895 45.9303 11.6404 46.2462 12.4194 46.5037V65.4839H14.6774V47.0897C15.522 47.2512 16.3903 47.3405 17.2707 47.3786C17.0562 48.49 16.9355 49.6333 16.9355 50.8065C16.9355 60.7665 25.0399 68.871 35 68.871C44.9601 68.871 53.0645 60.7665 53.0645 50.8065C53.0645 49.6333 52.9438 48.49 52.7293 47.3786C53.6108 47.3405 54.478 47.2501 55.3226 47.0897V65.4839H57.5806V46.5037C58.3596 46.2462 59.1105 45.9303 59.8387 45.5748V59.8387H62.0968V44.2781C62.9016 43.7285 63.6503 43.1078 64.3548 42.4379V55.3226H66.6129V39.8458C68.7354 36.8843 70 33.2679 70 29.3548ZM18.0645 13.5484C26.0118 13.5484 32.5898 19.4499 33.6901 27.0968H24.1408L22.6595 30.0605L19.1572 21.8899L14.926 32.4685L11.6459 19.3457L7.2053 28.2258H2.3154C2.89811 20.037 9.73019 13.5484 18.0645 13.5484ZM2.3154 30.4839H8.60226L10.9358 25.8156L14.4299 39.7896L19.231 27.7875L22.5029 35.4234L25.5366 29.3548H33.871C33.871 30.5247 33.7354 31.6862 33.4823 32.8186C26.1662 33.4316 20.0833 38.4152 17.8556 45.1514C9.61607 45.0417 2.8937 38.6027 2.3154 30.4839ZM35 66.6129C26.2836 66.6129 19.1935 59.5228 19.1935 50.8065C19.1935 42.0901 26.2836 35 35 35C43.7164 35 50.8064 42.0901 50.8064 50.8065C50.8064 59.5228 43.7164 66.6129 35 66.6129ZM52.1444 45.1514C49.9167 38.4163 43.8338 33.4316 36.5177 32.8197C36.2646 31.6873 36.129 30.5269 36.129 29.3548C36.129 20.6385 43.2191 13.5484 51.9355 13.5484C60.6519 13.5484 67.7419 20.6385 67.7419 29.3548C67.7419 38.0001 60.7632 45.0373 52.1444 45.1514Z" fill="#0034A0"/>
<path d="M35 37.2581C31.8389 37.2581 28.7611 38.3722 26.3311 40.3965L27.7776 42.1309C29.8019 40.4456 32.366 39.5161 35 39.5161C41.2257 39.5161 46.2903 44.5808 46.2903 50.8064C46.2903 53.4405 45.3609 56.0056 43.6756 58.0288L45.4088 59.4754C47.4343 57.0464 48.5484 53.9686 48.5484 50.8064C48.5484 43.3354 42.471 37.2581 35 37.2581Z" fill="#4C9DE8"/>
<path d="M35 62.0967C28.7744 62.0967 23.7097 57.0321 23.7097 50.8064C23.7097 48.1724 24.6392 45.6072 26.3245 43.584L24.5912 42.1375C22.5658 44.5664 21.4517 47.6442 21.4517 50.8064C21.4517 58.2774 27.529 64.3548 35 64.3548C38.1611 64.3548 41.2389 63.2407 43.669 61.2163L42.2224 59.482C40.1981 61.1673 37.6341 62.0967 35 62.0967Z" fill="#4C9DE8"/>
<path d="M43.8042 29.3548L51.9357 41.552L60.0671 29.3548L51.9357 17.1576L43.8042 29.3548ZM50.8066 30.0455L46.9217 28.7506L50.8066 22.9229V30.0455ZM50.8066 32.4271V35.7866L47.9267 31.4662L50.8066 32.4271ZM53.0647 32.4271L55.9446 31.4673L53.0647 35.7866V32.4271ZM53.0647 30.0455V22.9213L56.9496 28.7495L53.0647 30.0455Z" fill="#4C9DE8"/>
<path d="M3.38721 57.5807H5.64527V59.8388H3.38721V57.5807Z" fill="#0034A0"/>
<path d="M7.90332 62.0968H10.1614V64.3549H7.90332V62.0968Z" fill="#0034A0"/>
<path d="M12.4194 67.7419H14.6775V70H12.4194V67.7419Z" fill="#0034A0"/>
<path d="M64.355 57.5807H66.613V59.8388H64.355V57.5807Z" fill="#0034A0"/>
<path d="M59.8389 62.0968H62.0969V64.3549H59.8389V62.0968Z" fill="#0034A0"/>
<path d="M55.3228 67.7419H57.5808V70H55.3228V67.7419Z" fill="#0034A0"/>
<path d="M29.355 2.25806H31.613V4.51612H29.355V2.25806Z" fill="#0034A0"/>
<path d="M38.3872 2.25806H40.6453V4.51612H38.3872V2.25806Z" fill="#0034A0"/>
</svg>
