<svg width="120" height="120" viewBox="0 0 120 120" fill="none" xmlns="http://www.w3.org/2000/svg">
<path d="M101.643 49.5787L84.3648 57.2824L38.5279 80.6136L84.3648 102.652L84.3648 66.2242L101.643 58.438L101.643 112.254L84.3648 119.957L16.875 87.657L16.875 70.4888L63.5923 47.5703L16.875 25.1195L16.875 7.70369L34.4284 0L101.643 32.3555L101.643 49.5787Z" fill="#49C1BF"/>
<path d="M16.875 7.70368L84.3648 40.0591L101.643 32.3555L34.4284 0L16.875 7.70368Z" fill="#077A8F"/>
<path d="M84.3652 39.9859L101.644 32.2822L101.644 49.5055L84.3652 57.2091L84.3652 39.9859Z" fill="#298E97"/>
<path d="M16.875 7.71875L16.875 25.1346L63.5923 47.5853L16.875 70.5037L16.875 87.6719L84.3648 119.972L84.3648 102.694L38.5279 80.6285L84.3648 57.2974L84.3648 40.0742L16.875 7.71875Z" fill="#49C1BF"/>
<path d="M84.3652 119.845L101.644 112.141L101.644 58.3252L84.3652 66.1114L84.3652 119.845Z" fill="#298E97"/>
</svg>
