<svg width="400" height="400" viewBox="0 0 400 400" fill="none" xmlns="http://www.w3.org/2000/svg">
<path d="M338.81 165.262L281.216 190.941L128.426 268.712L281.216 342.172L281.216 220.747L338.81 194.793L338.81 374.179L281.216 399.858L56.25 292.19L56.25 234.963L211.974 158.568L56.25 83.7318L56.25 25.679L114.761 0L338.81 107.852L338.81 165.262Z" fill="#49C1BF"/>
<path d="M56.25 25.6789L281.216 133.53L338.81 107.852L114.761 0L56.25 25.6789Z" fill="#077A8F"/>
<path d="M281.217 133.287L338.812 107.608L338.812 165.019L281.217 190.698L281.217 133.287Z" fill="#298E97"/>
<path d="M56.25 25.7305L56.25 83.7831L211.974 158.619L56.25 235.014L56.25 292.241L281.216 399.909L281.216 342.315L128.426 268.763L281.216 190.993L281.216 133.582L56.25 25.7305Z" fill="#49C1BF"/>
<path d="M281.217 399.481L338.812 373.802L338.812 194.416L281.217 220.37L281.217 399.481Z" fill="#298E97"/>
</svg>
