<svg width="150" height="151" viewBox="0 0 150 151" fill="none" xmlns="http://www.w3.org/2000/svg">
<g clip-path="url(#clip0)">
<path d="M69.8725 122.033L30.4688 150.324L55.4835 35.2118L69.8725 122.033ZM70.6695 121.767L94.6659 122.077L56.4133 35.6546L70.6695 121.767ZM96.9239 119.864L115.298 51.7703L108.347 43.2697L96.9239 119.864ZM88.0691 13.1191L57.83 33.4851L102.015 19.1847L88.0691 13.1191ZM84.2616 13.1191L65.4894 13.739L62.7444 21.5755L84.2616 13.1191Z" fill="white"/>
<path d="M107.018 40.6576L58.627 34.0166L102.237 20.2917L107.018 40.6576ZM95.5514 15.0673L98.2078 7.85068L84.2615 1.78516L95.5514 15.0673ZM99.5803 7.1423L102.724 18.4764L121.319 13.562L99.5803 7.1423Z" fill="#F79534"/>
<path d="M95.7288 121.635L56.9448 34.8579L107.506 41.9417L95.7288 121.635ZM86.6083 13.1194L62.7004 22.4612L56.9448 33.0869L86.6083 13.1194ZM71.7766 6.03555L65.7996 12.6324L85.6343 12.1454L71.7766 6.03555ZM82.2252 0.899779L72.7506 5.2829L94.3563 14.8018L82.2252 0.899779ZM93.0281 0.324219H82.8451L98.6066 6.43402L93.0281 0.324219ZM98.9165 8.42634L96.4814 15.6873L101.352 18.0338L98.9165 8.42634Z" fill="#F0513A"/>
</g>
<defs>
<clipPath id="clip0">
<rect width="150" height="150" fill="white" transform="translate(0 0.324219)"/>
</clipPath>
</defs>
</svg>
