<svg width="400" height="400" viewBox="0 0 400 400" fill="none" xmlns="http://www.w3.org/2000/svg">
    <g clip-path="url(#clip0)">
        <path d="M393.678 248.674C366.967 355.818 258.448 421.023 151.291 394.305C44.1793 367.594 -21.0264 259.068 5.69675 151.932C32.3965 44.7768 140.916 -20.4338 248.039 6.27765C355.188 32.9891 420.39 141.527 393.675 248.676L393.677 248.674H393.678Z" fill="#F7931A"/>
        <path d="M288.119 171.506C292.1 144.89 271.836 130.583 244.128 121.039L253.117 84.9857L231.17 79.5171L222.42 114.621C216.65 113.182 210.725 111.826 204.836 110.482L213.65 75.1463L191.717 69.6777L182.723 105.719C177.948 104.632 173.259 103.558 168.709 102.426L168.735 102.312L138.47 94.7547L132.632 118.195C132.632 118.195 148.914 121.928 148.571 122.157C157.458 124.375 159.065 130.258 158.799 134.922L148.559 175.995C149.171 176.15 149.965 176.375 150.841 176.727C150.109 176.545 149.33 176.347 148.521 176.153L134.169 233.691C133.083 236.391 130.326 240.443 124.113 238.904C124.333 239.223 108.162 234.923 108.162 234.923L97.2656 260.045L125.826 267.165C131.139 268.497 136.345 269.891 141.473 271.202L132.391 307.669L154.312 313.138L163.306 277.058C169.295 278.684 175.107 280.183 180.796 281.597L171.833 317.506L193.78 322.975L202.861 286.577C240.285 293.659 268.425 290.804 280.269 256.954C289.813 229.701 279.794 213.981 260.105 203.731C274.445 200.423 285.247 190.992 288.127 171.509L288.12 171.504L288.119 171.506ZM237.976 241.819C231.193 269.072 185.308 254.34 170.431 250.646L182.482 202.334C197.358 206.047 245.064 213.397 237.977 241.819H237.976ZM244.763 171.111C238.576 195.9 200.385 183.306 187.996 180.218L198.922 136.402C211.311 139.49 251.208 145.254 244.765 171.111H244.763Z" fill="white"/>
    </g>
    <defs>
        <clipPath id="clip0">
            <rect width="400" height="400" fill="white"/>
        </clipPath>
    </defs>
</svg>
