<svg width="120" height="120" viewBox="0 0 120 120" fill="none" xmlns="http://www.w3.org/2000/svg">
    <g clip-path="url(#clip0)">
        <path d="M118.104 74.6022C110.09 106.745 77.5343 126.307 45.3873 118.292C13.2538 110.278 -6.30792 77.7203 1.70903 45.5797C9.71894 13.433 42.2748 -6.13014 74.4118 1.8833C106.556 9.89673 126.117 42.4581 118.103 74.6028L118.103 74.6022H118.104Z" fill="#F7931A"/>
        <path d="M86.4357 51.4507C87.6299 43.466 81.5509 39.1739 73.2383 36.3107L75.935 25.4947L69.351 23.8542L66.7259 34.3853C64.995 33.9536 63.2174 33.5469 61.4507 33.1436L64.0949 22.5429L57.515 20.9023L54.8169 31.7148C53.3845 31.3887 51.9777 31.0664 50.6128 30.7267L50.6204 30.6927L41.5409 28.4254L39.7895 35.4576C39.7895 35.4576 44.6743 36.5773 44.5713 36.6462C47.2375 37.3116 47.7196 39.0766 47.6396 40.4755L44.5678 52.7974C44.7514 52.844 44.9895 52.9115 45.2523 53.0171C45.0326 52.9625 44.7989 52.903 44.5564 52.8449L40.2508 70.1062C39.925 70.9162 39.0979 72.1318 37.2339 71.6702C37.2999 71.7658 32.4485 70.476 32.4485 70.476L29.1797 78.0126L37.7477 80.1485C39.3417 80.5482 40.9036 80.9664 42.4419 81.3597L39.7173 92.2997L46.2937 93.9403L48.9919 83.1164C50.7885 83.6041 52.532 84.054 54.2388 84.4781L51.5498 95.2509L58.1341 96.8915L60.8583 85.972C72.0855 88.0968 80.5274 87.2402 84.0807 77.0852C86.9439 68.9093 83.9381 64.1935 78.0316 61.1182C82.3336 60.126 85.574 57.2965 86.438 51.4516L86.436 51.4501L86.4357 51.4507ZM71.3928 72.5448C69.358 80.7207 55.5923 76.301 51.1292 75.1927L54.7447 60.6991C59.2075 61.8133 73.5193 64.0181 71.393 72.5448H71.3928ZM73.429 51.3322C71.5728 58.7691 60.1155 54.9908 56.3988 54.0644L59.6767 40.9195C63.3934 41.846 75.3625 43.5751 73.4295 51.3322H73.429Z" fill="white"/>
    </g>
    <defs>
        <clipPath id="clip0">
            <rect width="120" height="120" fill="white"/>
        </clipPath>
    </defs>
</svg>
