<svg width="120" height="120" viewBox="0 0 120 120" fill="none" xmlns="http://www.w3.org/2000/svg">
    <g clip-path="url(#clip0)">
        <path fill-rule="evenodd" clip-rule="evenodd" d="M21.9721 8.01269L0.0919125 53.9721C0.00865197 54.143 -0.0177327 54.3361 0.0166168 54.5232C0.0509664 54.7102 0.144248 54.8813 0.282821 55.0115L59.376 111.637C59.5439 111.798 59.7674 111.888 60 111.888C60.2326 111.888 60.4561 111.798 60.624 111.637L119.717 55.015C119.856 54.8848 119.949 54.7137 119.983 54.5267C120.018 54.3397 119.991 54.1466 119.908 53.9756L98.0279 8.01623C97.9573 7.86188 97.8437 7.73112 97.7008 7.63959C97.5578 7.54806 97.3915 7.49962 97.2218 7.50007L22.7852 7.50007C22.6147 7.49795 22.4472 7.54522 22.3029 7.63618C22.1586 7.72714 22.0437 7.8579 21.9721 8.01269Z" fill="#50AF95"/>
        <path fill-rule="evenodd" clip-rule="evenodd" d="M67.5921 58.6917C67.1679 58.7235 64.976 58.8543 60.0866 58.8543C56.1977 58.8543 53.4366 58.7377 52.4679 58.6917C37.4392 58.0306 26.2216 55.4144 26.2216 52.2821C26.2216 49.1498 37.4392 46.5372 52.4679 45.8655L52.4679 56.0861C53.4508 56.1568 56.2649 56.323 60.1538 56.323C64.8204 56.323 67.1573 56.1286 67.578 56.0897L67.578 45.8726C82.5749 46.5407 93.7678 49.1569 93.7678 52.2821C93.7678 55.4074 82.5784 58.0235 67.578 58.6882L67.5921 58.6917ZM67.5921 44.8155L67.5921 35.6696H88.5213L88.5213 21.7227L31.5387 21.7227L31.5387 35.6696H52.4644L52.4644 44.812C35.4559 45.5933 22.665 48.9624 22.665 52.9998C22.665 57.0372 35.4559 60.4028 52.4644 61.1876L52.4644 90.4956H67.5886L67.5886 61.177C84.5582 60.3957 97.3278 57.0301 97.3278 52.9963C97.3278 48.9624 84.5688 45.5968 67.5886 44.812L67.5921 44.8155Z" fill="white"/>
    </g>
    <defs>
        <clipPath id="clip0">
            <rect width="120" height="120" fill="white"/>
        </clipPath>
    </defs>
</svg>
