<svg width="400" height="400" viewBox="0 0 400 400" fill="none" xmlns="http://www.w3.org/2000/svg">
    <g clip-path="url(#clip0)">
        <path fill-rule="evenodd" clip-rule="evenodd" d="M73.2397 26.709L0.305724 179.907C0.0281888 180.477 -0.0597602 181.12 0.0547384 181.744C0.169237 182.367 0.480177 182.938 0.942085 183.372L197.919 372.123C198.479 372.66 199.224 372.96 199.999 372.96C200.775 372.96 201.52 372.66 202.079 372.123L399.057 183.383C399.519 182.949 399.829 182.379 399.944 181.756C400.058 181.132 399.971 180.489 399.693 179.919L326.759 26.7208C326.524 26.2063 326.145 25.7704 325.669 25.4653C325.192 25.1602 324.638 24.9987 324.072 25.0002L75.9502 25.0002C75.3817 24.9932 74.8233 25.1507 74.3424 25.4539C73.8614 25.7571 73.4785 26.193 73.2397 26.709Z" fill="#50AF95"/>
        <path fill-rule="evenodd" clip-rule="evenodd" d="M225.307 195.64C223.893 195.746 216.586 196.182 200.288 196.182C187.325 196.182 178.122 195.793 174.893 195.64C124.797 193.437 87.405 184.716 87.405 174.275C87.405 163.834 124.797 155.125 174.893 152.886L174.893 186.955C178.169 187.191 187.549 187.745 200.512 187.745C216.068 187.745 223.857 187.097 225.26 186.967L225.26 152.91C275.249 155.137 312.559 163.858 312.559 174.275C312.559 184.692 275.261 193.413 225.26 195.628L225.307 195.64ZM225.307 149.386L225.307 118.9L295.071 118.9L295.071 72.4102L105.129 72.4102L105.129 118.9L174.881 118.9L174.881 149.374C118.186 151.979 75.5498 163.209 75.5498 176.667C75.5498 190.125 118.186 201.344 174.881 203.96L174.881 301.653H225.295L225.295 203.925C281.86 201.32 324.426 190.102 324.426 176.656C324.426 163.209 281.896 151.991 225.295 149.374L225.307 149.386Z" fill="white"/>
    </g>
    <defs>
        <clipPath id="clip0">
            <rect width="400" height="400" fill="white"/>
        </clipPath>
    </defs>
</svg>
