<svg width="120" height="120" viewBox="0 0 120 120" fill="none" xmlns="http://www.w3.org/2000/svg">
<g clip-path="url(#clip0_49_42841)">
<mask id="mask0_49_42841" style="mask-type:alpha" maskUnits="userSpaceOnUse" x="0" y="0" width="120" height="120">
<path fill-rule="evenodd" clip-rule="evenodd" d="M0 0L120 0L120 120L1.25639e-05 120L0 0Z" fill="white"/>
</mask>
<g mask="url(#mask0_49_42841)">
<path fill-rule="evenodd" clip-rule="evenodd" d="M60 120.001C27 120.001 9.73729e-06 93.0005 6.2508e-06 59.7005C0.300003 26.7005 27 -0.299477 60.3 0.000522947C93.3 0.300523 120 27.0005 120 60.6005C119.7 93.3005 93 120.001 60 120.001Z" fill="#0090FF"/>
<path fill-rule="evenodd" clip-rule="evenodd" d="M65.7002 52.7995L63.9002 62.3995L81.0002 64.7995L79.8002 69.2995L63.0002 66.8995C61.8002 70.7995 61.2002 74.9995 59.7002 78.5995C58.2002 82.7995 56.7002 86.9995 54.9002 90.8995C52.5002 95.9995 48.3002 99.5995 42.6002 100.5C39.3002 101.1 35.7002 100.8 33.0002 98.6995C32.1002 98.0995 31.2002 96.8995 31.2002 95.9995C31.2002 94.7995 31.8002 93.2995 32.7002 92.6995C33.3002 92.3995 34.8002 92.6995 35.7002 92.9995C36.6002 93.8995 37.5002 95.0995 38.1002 96.2995C39.9002 98.6995 42.3002 98.9995 44.7002 97.1995C47.4002 94.7995 48.9002 91.4995 49.8002 88.1995C51.6002 80.9995 53.4002 74.0995 54.9002 66.8995L54.9002 65.6995L39.0002 63.2995L39.6002 58.7995L56.1002 61.1995L58.2002 51.8995L41.1002 49.1995L41.7002 44.3995L59.4002 46.7995C60.0002 44.9995 60.3002 43.4995 60.9002 41.9995C62.4002 36.5995 63.9002 31.1995 67.5002 26.3995C71.1002 21.5995 75.3002 18.5995 81.6002 18.8995C84.3002 18.8995 87.0002 19.7995 88.8002 21.8995C89.1002 22.1995 89.7002 22.7995 89.7002 23.3995C89.7002 24.5995 89.7002 26.0995 88.8002 26.9995C87.6002 27.8995 86.1002 27.5995 84.9002 26.3995C84.0002 25.4995 83.4002 24.5995 82.5002 23.6995C80.7002 21.2995 78.0002 20.9995 75.9002 23.0995C74.4002 24.5995 72.9002 26.6995 72.0002 28.7995C69.9002 35.0995 68.4002 41.6995 66.3002 48.2995L82.8002 50.6995L81.6002 55.1995L65.7002 52.7995Z" fill="white"/>
</g>
</g>
<defs>
<clipPath id="clip0_49_42841">
<rect width="120" height="120" fill="white"/>
</clipPath>
</defs>
</svg>
