<svg width="400" height="400" viewBox="0 0 400 400" fill="none" xmlns="http://www.w3.org/2000/svg">
    <mask id="mask0" mask-type="alpha" maskUnits="userSpaceOnUse" x="0" y="0" width="400" height="400">
        <path fill-rule="evenodd" clip-rule="evenodd" d="M0 0L400 0L400 400L4.18797e-05 400L0 0Z" fill="white"/>
    </mask>
    <g mask="url(#mask0)">
        <path fill-rule="evenodd" clip-rule="evenodd" d="M200 400.002C90.0001 400.002 3.24576e-05 310.002 2.0836e-05 199.002C1.00001 89.0024 90 -0.997606 201 0.0023942C311 1.00239 400 90.0024 400 202.002C399 311.002 310 400.002 200 400.002Z" fill="#0090FF"/>
        <path fill-rule="evenodd" clip-rule="evenodd" d="M219 176L213 208L270 216L266 231L210 223C206 236 204 250 199 262C194 276 189 290 183 303C175 320 161 332 142 335C131 337 119 336 110 329C107 327 104 323 104 320C104 316 106 311 109 309C111 308 116 309 119 310C122 313 125 317 127 321C133 329 141 330 149 324C158 316 163 305 166 294C172 270 178 247 183 223L183 219L130 211L132 196L187 204L194 173L137 164L139 148L198 156C200 150 201 145 203 140C208 122 213 104 225 88.0003C237 72.0003 251 62.0003 272 63.0003C281 63.0003 290 66.0003 296 73.0003C297 74.0003 299 76.0003 299 78.0003C299 82.0003 299 87.0003 296 90.0003C292 93.0003 287 92.0003 283 88.0003C280 85.0003 278 82.0003 275 79.0003C269 71.0003 260 70.0003 253 77.0003C248 82.0003 243 89.0003 240 96.0003C233 117 228 139 221 161L276 169L272 184L219 176Z" fill="white"/>
    </g>
</svg>
