<svg width="321" height="138" viewBox="0 0 321 138" fill="none" xmlns="http://www.w3.org/2000/svg">
<g clip-path="url(#clip0_4591_17054)">
<path d="M69.25 138C107.358 138 138.25 107.108 138.25 69C138.25 30.8924 107.358 0 69.25 0C31.1424 0 0.25 30.8924 0.25 69C0.25 107.108 31.1424 138 69.25 138Z" fill="#0052B4"/>
<path d="M69.2504 27L71.4845 33.8755H78.7133L72.8648 38.1246L75.0989 45.0001L69.2504 40.7507L63.4015 45.0001L65.6357 38.1246L59.7871 33.8755H67.0162L69.2504 27Z" fill="#FFDA44"/>
<path d="M39.552 39.3013L45.9938 42.5831L51.1054 37.4717L49.9742 44.6116L56.4157 47.8936L49.2756 49.0246L48.1446 56.165L44.8625 49.7235L37.7227 50.8547L42.8343 45.7431L39.552 39.3013Z" fill="#FFDA44"/>
<path d="M27.25 69.0004L34.1255 66.7662V59.5371L38.3744 65.3859L45.2501 63.1518L41.0004 69.0004L45.2501 74.8489L38.3744 72.615L34.1255 78.4636V71.2345L27.25 69.0004Z" fill="#FFDA44"/>
<path d="M39.552 98.6985L42.834 92.2567L37.7227 87.145L44.8628 88.2765L48.1444 81.835L49.2756 88.9751L56.4155 90.1061L49.9747 93.3882L51.1054 100.528L45.9938 95.4164L39.552 98.6985Z" fill="#FFDA44"/>
<path d="M69.2504 111L67.0159 104.124H59.7871L65.6359 99.8749L63.4015 93L69.2504 97.2489L75.0989 93L72.8648 99.8749L78.7133 104.124H71.4842L69.2504 111Z" fill="#FFDA44"/>
<path d="M98.9492 98.6985L92.5076 95.4166L87.3957 100.528L88.5269 93.3879L82.0859 90.1061L89.2258 88.9751L90.3568 81.835L93.6386 88.2765L100.778 87.145L95.6668 92.2572L98.9492 98.6985Z" fill="#FFDA44"/>
<path d="M111.25 69.0004L104.374 71.2345V78.4636L100.125 72.6148L93.25 74.8489L97.4992 69.0004L93.25 63.1518L100.125 65.3859L104.374 59.5371V66.7665L111.25 69.0004Z" fill="#FFDA44"/>
<path d="M98.9492 39.301L95.6671 45.7428L100.779 50.8544L93.6383 49.723L90.3568 56.1645L89.2258 49.0243L82.0859 47.8931L88.5269 44.6113L87.3957 37.4717L92.5079 42.5831L98.9492 39.301Z" fill="#FFDA44"/>
</g>
<g clip-path="url(#clip1_4591_17054)">
<path d="M160.25 138C198.358 138 229.25 107.108 229.25 69C229.25 30.8924 198.358 0 160.25 0C122.142 0 91.25 30.8924 91.25 69C91.25 107.108 122.142 138 160.25 138Z" fill="url(#paint0_linear_4591_17054)"/>
<path d="M182.872 66.9424C187.225 72.7511 174.479 83.9796 177.343 79.342H150.193C147.256 75.5012 145.236 71.3007 144.266 66.9424H182.872Z" fill="url(#paint1_linear_4591_17054)"/>
<path d="M175.003 100.413C171.144 103.489 166.973 106.151 162.558 108.353L160.398 109.441L158.226 108.358C137.799 98.1075 125.613 80.4518 125.613 61.103V38.3857H138.071V61.103C138.069 62.5521 138.167 63.9995 138.364 65.4351C139.933 77.1899 147.867 88.0339 160.352 95.3354C160.363 95.3466 160.377 95.3559 160.391 95.3632C160.404 95.3559 160.411 95.3486 160.425 95.3427L160.477 95.3091C164.99 97.8328 169.903 99.5594 175.003 100.413Z" fill="url(#paint2_linear_4591_17054)"/>
<path d="M194.797 66.9424C194.221 71.4326 192.989 75.8141 191.142 79.9473C187.727 87.6216 182.238 94.6058 175.008 100.416C169.912 99.5615 165 97.8349 160.49 95.312C162.119 94.3515 163.699 93.3092 165.223 92.189C165.375 92.0906 165.521 91.9842 165.661 91.8703C174.1 85.7934 180.18 76.9872 182.871 66.9424H194.797Z" fill="url(#paint3_linear_4591_17054)"/>
<path d="M195.184 38.3906L138.072 38.3906V50.8429L195.184 50.8429V38.3906Z" fill="url(#paint4_linear_4591_17054)"/>
<path d="M195.183 50.8428V61.1034C195.183 61.5274 195.17 61.9529 195.157 62.3783H182.691C182.704 61.9524 182.71 61.5274 182.71 61.1034V50.8428H195.183Z" fill="url(#paint5_linear_4591_17054)"/>
</g>
<g clip-path="url(#clip2_4591_17054)">
<path d="M251.251 130.532C285.234 130.532 312.783 102.983 312.783 68.9997C312.783 35.0166 285.234 7.46777 251.251 7.46777C217.268 7.46777 189.719 35.0166 189.719 68.9997C189.719 102.983 217.268 130.532 251.251 130.532Z" fill="white"/>
<path d="M251.25 0C237.603 0 224.263 4.04678 212.916 11.6286C201.569 19.2104 192.725 29.9867 187.502 42.5948C182.28 55.2029 180.913 69.0766 183.576 82.4612C186.238 95.8459 192.81 108.141 202.46 117.79C212.109 127.44 224.404 134.012 237.789 136.674C251.173 139.337 265.047 137.97 277.655 132.748C290.263 127.525 301.04 118.681 308.621 107.334C316.203 95.9874 320.25 82.6469 320.25 69C320.276 59.9651 318.523 51.0135 315.09 42.6563C311.657 34.299 306.611 26.6998 300.241 20.2926C293.871 13.8853 286.301 8.79551 277.964 5.3137C269.627 1.83189 260.686 0.0262896 251.651 0H251.25ZM252.42 71.339L245.236 95.5642H283.662C283.916 95.5552 284.17 95.5966 284.409 95.6858C284.647 95.775 284.866 95.9104 285.052 96.0842C285.238 96.258 285.388 96.4668 285.494 96.6986C285.599 96.9305 285.658 97.1808 285.667 97.4354V98.0702L282.325 109.598C282.178 110.143 281.849 110.622 281.394 110.956C280.939 111.29 280.383 111.459 279.819 111.436H221.01L230.867 77.8547L219.841 81.1961L222.347 73.5109L233.374 70.1695L247.24 23.0557C247.393 22.5136 247.723 22.0382 248.177 21.7051C248.631 21.3721 249.183 21.2006 249.746 21.2179H264.616C264.87 21.209 265.124 21.2503 265.363 21.3396C265.601 21.4288 265.82 21.5642 266.006 21.7379C266.192 21.9117 266.342 22.1205 266.448 22.3524C266.553 22.5842 266.612 22.8346 266.62 23.0891V23.724L254.926 63.4867L265.952 60.1453L263.613 68.1647L252.42 71.339Z" fill="#345D9D"/>
</g>
<defs>
<linearGradient id="paint0_linear_4591_17054" x1="229.25" y1="6.49911e-06" x2="64.1178" y2="52.2489" gradientUnits="userSpaceOnUse">
<stop stop-color="#000756"/>
<stop offset="1" stop-color="#0042B8"/>
</linearGradient>
<linearGradient id="paint1_linear_4591_17054" x1="195.455" y1="80.9371" x2="147.95" y2="68.134" gradientUnits="userSpaceOnUse">
<stop offset="0.14" stop-color="#ADADAD"/>
<stop offset="0.29" stop-color="#CBCBCB"/>
<stop offset="0.43" stop-color="#E2E2E2"/>
<stop offset="0.59" stop-color="#F2F2F2"/>
<stop offset="0.77" stop-color="#FCFCFC"/>
<stop offset="1" stop-color="white"/>
</linearGradient>
<linearGradient id="paint2_linear_4591_17054" x1="177.915" y1="121.503" x2="110.765" y2="27.8458" gradientUnits="userSpaceOnUse">
<stop stop-color="#ADADAD"/>
<stop offset="0.17" stop-color="#CBCBCB"/>
<stop offset="0.34" stop-color="#E2E2E2"/>
<stop offset="0.52" stop-color="#F2F2F2"/>
<stop offset="0.73" stop-color="#FCFCFC"/>
<stop offset="1" stop-color="white"/>
</linearGradient>
<linearGradient id="paint3_linear_4591_17054" x1="161.264" y1="107.329" x2="193.158" y2="66.8985" gradientUnits="userSpaceOnUse">
<stop offset="0.15" stop-color="#ADADAD"/>
<stop offset="0.29" stop-color="#CBCBCB"/>
<stop offset="0.44" stop-color="#E2E2E2"/>
<stop offset="0.6" stop-color="#F2F2F2"/>
<stop offset="0.77" stop-color="#FCFCFC"/>
<stop offset="1" stop-color="white"/>
</linearGradient>
<linearGradient id="paint4_linear_4591_17054" x1="132.582" y1="76.9609" x2="159.537" y2="51.3561" gradientUnits="userSpaceOnUse">
<stop offset="0.14" stop-color="#ADADAD"/>
<stop offset="0.43" stop-color="#C9C9C9"/>
<stop offset="1" stop-color="white"/>
</linearGradient>
<linearGradient id="paint5_linear_4591_17054" x1="188.937" y1="44.3071" x2="188.937" y2="62.3783" gradientUnits="userSpaceOnUse">
<stop offset="0.0895638" stop-color="#ADADAD"/>
<stop offset="0.240189" stop-color="#CBCBCB"/>
<stop offset="0.425047" stop-color="#E2E2E2"/>
<stop offset="0.536875" stop-color="#F2F2F2"/>
<stop offset="1" stop-color="white"/>
</linearGradient>
<clipPath id="clip0_4591_17054">
<rect x="0.25" width="138" height="138" rx="69" fill="white"/>
</clipPath>
<clipPath id="clip1_4591_17054">
<rect x="91.25" width="138" height="138" rx="69" fill="white"/>
</clipPath>
<clipPath id="clip2_4591_17054">
<rect width="138" height="138" fill="white" transform="translate(182.25)"/>
</clipPath>
</defs>
</svg>
