<svg width="120" height="120" viewBox="0 0 120 120" fill="none" xmlns="http://www.w3.org/2000/svg">
<g clip-path="url(#clip0_4545_41589)">
<path d="M60.0002 113.506C89.5508 113.506 113.506 89.5508 113.506 60.0002C113.506 30.4496 89.5508 6.49414 60.0002 6.49414C30.4496 6.49414 6.49414 30.4496 6.49415 60.0002C6.49415 89.5508 30.4496 113.506 60.0002 113.506Z" fill="white"/>
<path d="M60 0C48.1331 0 36.5328 3.51894 26.6658 10.1118C16.7989 16.7047 9.10852 26.0754 4.56726 37.039C0.0260019 48.0026 -1.1622 60.0666 1.15292 71.7054C3.46803 83.3443 9.18248 94.0353 17.5736 102.426C25.9648 110.818 36.6558 116.532 48.2946 118.847C59.9335 121.162 71.9975 119.974 82.961 115.433C93.9246 110.892 103.295 103.201 109.888 93.3342C116.481 83.4673 120 71.8669 120 60C120.023 52.1436 118.498 44.3596 115.513 37.0924C112.528 29.8252 108.14 23.2173 102.601 17.6457C97.0617 12.0742 90.4794 7.64827 83.2298 4.6206C75.9801 1.59294 68.2051 0.0228606 60.3487 0L60 0ZM61.017 62.0339L54.77 83.0993L88.1841 83.0993C88.4054 83.0915 88.6261 83.1274 88.8335 83.205C89.041 83.2826 89.2311 83.4004 89.393 83.5515C89.5549 83.7026 89.6855 83.8841 89.7771 84.0857C89.8688 84.2873 89.9199 84.505 89.9274 84.7264L89.9274 85.2785L87.0218 95.3027C86.8937 95.7767 86.6082 96.1931 86.2122 96.4835C85.8163 96.7739 85.3333 96.921 84.8427 96.9007L33.7046 96.9007L42.2761 67.6998L32.6877 70.6053L34.8669 63.9225L44.4552 61.017L56.5134 20.0484C56.6461 19.577 56.9327 19.1636 57.3277 18.874C57.7226 18.5844 58.203 18.4353 58.6925 18.4504H71.6223C71.8436 18.4426 72.0644 18.4785 72.2718 18.5561C72.4792 18.6337 72.6693 18.7514 72.8313 18.9026C72.9932 19.0537 73.1237 19.2352 73.2154 19.4368C73.3071 19.6384 73.3582 19.8561 73.3657 20.0775L73.3657 20.6295L63.1962 55.2058L72.7845 52.3002L70.7506 59.2736L61.017 62.0339Z" fill="#345D9D"/>
</g>
<defs>
<clipPath id="clip0_4545_41589">
<rect width="120" height="120" fill="white"/>
</clipPath>
</defs>
</svg>
