<svg width="400" height="400" viewBox="0 0 400 400" fill="none" xmlns="http://www.w3.org/2000/svg">
<path d="M200 0C160.444 0 121.776 11.7298 88.8861 33.7061C55.9962 55.6824 30.3617 86.9181 15.2242 123.463C0.086673 160.009 -3.87399 200.222 3.84306 239.018C11.5601 277.814 30.6083 313.451 58.5788 341.421C86.5493 369.392 122.186 388.44 160.982 396.157C199.778 403.874 239.992 399.913 276.537 384.776C313.082 369.638 344.318 344.004 366.294 311.114C388.27 278.224 400 239.556 400 200C400.077 173.812 394.994 147.865 385.043 123.641C375.092 99.4175 360.467 77.3908 342.003 58.8191C323.539 40.2474 301.598 25.4942 277.433 15.402C253.267 5.30981 227.35 0.0762018 201.162 0L200 0ZM203.39 206.78L182.567 276.998L293.947 276.998C294.685 276.972 295.42 277.092 296.112 277.35C296.803 277.609 297.437 278.001 297.977 278.505C298.516 279.009 298.951 279.614 299.257 280.286C299.563 280.958 299.733 281.683 299.758 282.421L299.758 284.262L290.073 317.676C289.646 319.256 288.694 320.644 287.374 321.612C286.054 322.58 284.444 323.07 282.809 323.002L112.349 323.002L140.92 225.666L108.959 235.351L116.223 213.075L148.184 203.39L188.378 66.8281C188.82 65.2568 189.776 63.8787 191.092 62.9134C192.409 61.948 194.01 61.4509 195.642 61.5012L238.741 61.5012C239.479 61.4753 240.215 61.5951 240.906 61.8538C241.597 62.1124 242.231 62.5048 242.771 63.0085C243.311 63.5123 243.746 64.1174 244.051 64.7894C244.357 65.4614 244.527 66.1871 244.552 66.9249L244.552 68.7651L210.654 184.019L242.615 174.334L235.835 197.579L203.39 206.78Z" fill="#345D9D"/>
</svg>
