<svg width="977" height="31" viewBox="0 0 977 31" fill="none" xmlns="http://www.w3.org/2000/svg">
<path d="M266.328 -65.9082C272.501 13.4074 379.527 69.1455 440.1 -39.0047" stroke="#B9B3B8" stroke-width="1.63115"/>
<path d="M424.549 -49.0096C439.851 -21.7306 488.466 28.2406 529.21 21.7763C569.924 15.3388 600.162 -29.9385 615.932 -64.5937" stroke="#B9B3B8" stroke-width="1.85381"/>
<path d="M323.358 12.9246C325.072 13.6488 325.945 15.6069 325.774 17.2431C325.604 18.8793 324.384 19.9254 322.671 19.228C320.957 18.5306 320.112 16.5189 320.283 14.9095C320.425 13.2733 321.644 12.2272 323.358 12.9246Z" fill="#F3705A"/>
<path d="M367.552 19.7378C369.484 19.8183 370.952 21.2131 371.072 23.0102C371.164 24.8074 369.747 26.0949 367.816 26.0412C365.883 25.9607 364.473 24.5391 364.382 22.7688C364.29 20.9985 365.619 19.6573 367.552 19.7378Z" fill="#5BA092"/>
<path d="M408.79 1.39059C410.777 1.31012 412.644 2.49033 412.795 4.39477C412.947 6.2992 411.271 7.61352 409.284 7.69399C407.297 7.77446 405.431 6.59424 405.279 4.68981C405.127 2.75856 406.803 1.47106 408.79 1.39059Z" fill="#F2B08F"/>
<path d="M469.468 -0.996724C471.654 -1.26495 473.296 0.263957 473.593 2.22204C473.861 4.18012 473.028 5.84314 470.928 6.08455C468.83 6.35278 466.783 4.82387 466.517 2.91944C466.221 1.015 467.283 -0.728494 469.468 -0.996724Z" fill="#F3705A"/>
<path d="M515.983 23.3058C517.943 23.3594 518.962 25.398 519.107 26.9805C519.252 28.5631 518.539 30.4675 516.607 30.4139C514.675 30.3602 513.629 28.3485 513.483 26.7659C513.338 25.1834 514.051 23.2521 515.983 23.3058Z" fill="#5BA092"/>
<path d="M563.403 8.7936C565.449 8.76677 567.511 9.59828 567.723 11.6905C567.936 13.7827 566.093 15.3652 563.993 15.553C561.893 15.7676 560.36 13.9436 560.209 12.0928C560.088 10.242 561.358 8.82042 563.403 8.7936Z" fill="#F2B08F"/>
<path d="M490.524 -0.0583212C492.541 -0.0851442 493.73 1.87293 493.963 3.50914C494.196 5.14534 493.484 7.10342 491.496 7.13024C489.508 7.15707 488.233 5.27945 487.971 3.61643C487.738 1.9534 488.507 -0.0314982 490.524 -0.0583212Z" fill="#F2B08F"/>
<path d="M539.132 7.02388C541.181 7.18482 542.256 9.1429 542.345 10.8327C542.436 12.5494 541.431 14.2929 539.411 14.132C537.419 13.971 536.345 12.0398 536.226 10.3231C536.108 8.63326 537.083 6.86294 539.132 7.02388Z" fill="#E74B33"/>
<path d="M599.197 -3.38311C601.551 -3.86593 603.335 -2.47113 603.407 -0.218001C603.449 2.03513 601.645 4.12733 599.29 4.58332C596.936 5.06613 595.068 3.80545 595.025 1.55232C595.011 -0.700813 596.843 -2.9003 599.197 -3.38311Z" fill="#5BA092"/>
<path d="M625.328 -68.9082C631.501 10.4074 738.527 66.1455 799.1 -42.0047" stroke="#B9B3B8" stroke-width="1.63115"/>
<path d="M783.55 -52.0096C798.852 -24.7306 847.467 25.2406 888.21 18.7763C928.925 12.3388 959.163 -32.9385 974.932 -67.5937" stroke="#B9B3B8" stroke-width="1.85381"/>
<path d="M682.359 9.92458C684.073 10.6488 684.946 12.6069 684.775 14.2431C684.605 15.8793 683.385 16.9254 681.672 16.228C679.958 15.5306 679.113 13.5189 679.284 11.9095C679.426 10.2733 680.645 9.22719 682.359 9.92458Z" fill="#F3705A"/>
<path d="M726.553 16.7378C728.485 16.8183 729.953 18.2131 730.073 20.0102C730.165 21.8074 728.748 23.0949 726.816 23.0412C724.884 22.9607 723.474 21.5391 723.383 19.7688C723.291 17.9985 724.62 16.6573 726.553 16.7378Z" fill="#5BA092"/>
<path d="M767.791 -1.60941C769.778 -1.68988 771.645 -0.509666 771.796 1.39477C771.948 3.2992 770.272 4.61352 768.285 4.69399C766.298 4.77446 764.432 3.59424 764.28 1.68981C764.128 -0.241442 765.804 -1.52894 767.791 -1.60941Z" fill="#F2B08F"/>
<path d="M828.468 -3.99672C830.654 -4.26495 832.296 -2.73604 832.593 -0.777963C832.861 1.18012 832.028 2.84314 829.928 3.08455C827.83 3.35278 825.783 1.82387 825.517 -0.0805637C825.221 -1.985 826.283 -3.72849 828.468 -3.99672Z" fill="#F3705A"/>
<path d="M874.982 20.3058C876.942 20.3594 877.961 22.398 878.106 23.9805C878.252 25.5631 877.538 27.4675 875.606 27.4139C873.674 27.3602 872.628 25.3485 872.482 23.7659C872.337 22.1834 873.05 20.2521 874.982 20.3058Z" fill="#5BA092"/>
<path d="M922.403 5.7936C924.449 5.76677 926.511 6.59828 926.723 8.69047C926.936 10.7827 925.093 12.3652 922.993 12.553C920.893 12.7676 919.36 10.9436 919.209 9.09281C919.088 7.24203 920.358 5.82042 922.403 5.7936Z" fill="#F2B08F"/>
<path d="M849.524 -3.05832C851.541 -3.08514 852.73 -1.12707 852.963 0.509137C853.196 2.14534 852.484 4.10342 850.496 4.13024C848.508 4.15707 847.233 2.27945 846.971 0.616427C846.738 -1.0466 847.507 -3.0315 849.524 -3.05832Z" fill="#F2B08F"/>
<path d="M898.133 4.02388C900.182 4.18482 901.257 6.1429 901.346 7.83274C901.437 9.54941 900.432 11.2929 898.412 11.132C896.42 10.971 895.346 9.03977 895.227 7.3231C895.109 5.63326 896.084 3.86294 898.133 4.02388Z" fill="#E74B33"/>
<path d="M958.196 -6.38311C960.55 -6.86593 962.334 -5.47113 962.406 -3.218C962.449 -0.964868 960.644 1.12733 958.289 1.58332C955.935 2.06613 954.067 0.805452 954.024 -1.44768C954.01 -3.70081 955.842 -5.9003 958.196 -6.38311Z" fill="#5BA092"/>
<path d="M9.32812 -65.9082C15.5012 13.4074 122.527 69.1455 183.1 -39.0047" stroke="#B9B3B8" stroke-width="1.63115"/>
<path d="M167.549 -49.0096C182.851 -21.7306 231.466 28.2406 272.21 21.7763C312.924 15.3388 343.162 -29.9385 358.932 -64.5937" stroke="#B9B3B8" stroke-width="1.85381"/>
<path d="M66.358 12.9246C68.072 13.6488 68.945 15.6069 68.7742 17.2431C68.6035 18.8793 67.3842 19.9254 65.6706 19.228C63.957 18.5306 63.1119 16.5189 63.2831 14.9095C63.425 13.2733 64.6444 12.2272 66.358 12.9246Z" fill="#F3705A"/>
<path d="M110.552 19.7378C112.484 19.8183 113.952 21.2131 114.072 23.0102C114.164 24.8074 112.747 26.0949 110.816 26.0412C108.883 25.9607 107.473 24.5391 107.382 22.7688C107.29 20.9985 108.619 19.6573 110.552 19.7378Z" fill="#5BA092"/>
<path d="M151.79 1.39059C153.777 1.31012 155.644 2.49033 155.795 4.39477C155.947 6.2992 154.271 7.61352 152.284 7.69399C150.297 7.77446 148.431 6.59424 148.279 4.68981C148.127 2.75856 149.803 1.47106 151.79 1.39059Z" fill="#F2B08F"/>
<path d="M212.468 -0.996724C214.654 -1.26495 216.296 0.263957 216.593 2.22204C216.861 4.18012 216.028 5.84314 213.928 6.08455C211.83 6.35278 209.783 4.82387 209.517 2.91944C209.221 1.015 210.283 -0.728494 212.468 -0.996724Z" fill="#F3705A"/>
<path d="M258.983 23.3058C260.943 23.3594 261.962 25.398 262.107 26.9805C262.252 28.5631 261.539 30.4675 259.607 30.4139C257.675 30.3602 256.629 28.3485 256.483 26.7659C256.338 25.1834 257.051 23.2521 258.983 23.3058Z" fill="#5BA092"/>
<path d="M306.403 8.7936C308.449 8.76677 310.511 9.59828 310.723 11.6905C310.936 13.7827 309.093 15.3652 306.993 15.553C304.893 15.7676 303.36 13.9436 303.209 12.0928C303.088 10.242 304.358 8.82042 306.403 8.7936Z" fill="#F2B08F"/>
<path d="M233.524 -0.0583212C235.541 -0.0851442 236.73 1.87293 236.963 3.50914C237.196 5.14534 236.484 7.10342 234.496 7.13024C232.508 7.15707 231.233 5.27945 230.971 3.61643C230.738 1.9534 231.507 -0.0314982 233.524 -0.0583212Z" fill="#F2B08F"/>
<path d="M282.132 7.02388C284.181 7.18482 285.256 9.1429 285.345 10.8327C285.436 12.5494 284.431 14.2929 282.411 14.132C280.419 13.971 279.345 12.0398 279.226 10.3231C279.108 8.63326 280.083 6.86294 282.132 7.02388Z" fill="#E74B33"/>
<path d="M342.197 -3.38311C344.551 -3.86593 346.335 -2.47113 346.407 -0.218001C346.449 2.03513 344.645 4.12733 342.29 4.58332C339.936 5.06613 338.068 3.80545 338.025 1.55232C338.011 -0.700813 339.843 -2.9003 342.197 -3.38311Z" fill="#5BA092"/>
</svg>
