<svg width="200" height="250" viewBox="0 0 200 250" fill="none" xmlns="http://www.w3.org/2000/svg">
<path d="M-275.341 136.4C-150.893 163.075 74.4133 17.3332 135.923 -83.6811" stroke="#B9B3B8" stroke-width="2.42187"/>
<path d="M-76.191 42.1496C-39.4761 62.2974 51.1661 84.6186 92.873 48.4024C134.567 12.2368 136.834 -60.6292 130.192 -111.176" stroke="#B9B3B8" stroke-width="2.48221"/>
<path d="M32.3894 18.5293C34.7734 16.746 37.94 16.8027 39.6314 19.0494C41.3423 21.3262 40.553 24.3583 38.169 26.1416C35.785 27.9249 32.6185 27.8682 30.9075 25.5915C29.1638 23.3351 30.0055 20.3127 32.3894 18.5293Z" fill="#F3705A"/>
<path d="M8.86313 64.8662C11.1556 63.013 14.1055 63.5857 15.8299 65.6002C17.5216 67.635 17.7537 70.1147 15.5398 71.8765C13.3456 73.6685 9.93733 73.3816 8.28481 71.407C6.59955 69.4528 6.57065 66.7194 8.86313 64.8662Z" fill="#F3705A"/>
<path d="M78.9278 59.5132C81.1934 58.1847 83.7951 59.7789 85.0816 61.4739C86.3681 63.1688 86.9074 65.8378 84.6746 67.1459C82.4418 68.454 79.8269 66.9103 78.5403 65.2154C77.2538 63.5204 76.6949 60.8213 78.9278 59.5132Z" fill="#5BA092"/>
<path d="M122.519 9.4235C124.824 7.9434 127.756 7.42689 129.48 9.65314C131.204 11.8794 130.231 14.9835 127.978 16.6851C125.745 18.4168 122.71 17.4311 121.228 15.4351C119.778 13.4186 120.214 10.9036 122.519 9.4235Z" fill="#F2B08F"/>
<path d="M33.4498 51.0116C35.7221 49.5519 38.4615 50.9333 39.8854 52.6272C41.3094 54.3211 41.8879 57.0503 39.6483 58.4896C37.4087 59.9288 34.6299 58.6991 33.1536 56.9955C31.7101 55.2715 31.1775 52.4713 33.4498 51.0116Z" fill="#F2B08F"/>
<path d="M93.6913 24.6108C96.1334 23.3415 98.7418 24.8045 100.041 26.6607C101.36 28.5471 101.455 31.2396 99.0452 32.4885C96.6685 33.717 94.0797 32.284 92.728 30.4181C91.3959 28.5823 91.2491 25.8801 93.6913 24.6108Z" fill="#E74B33"/>
</svg>
