<svg width="292" height="181" viewBox="0 0 292 181" fill="none" xmlns="http://www.w3.org/2000/svg">
<path d="M68.7344 -151.719C26.7424 -53.8227 119.008 78.8169 258.081 -11.7763" stroke="#B9B3B8" stroke-width="2.18407"/>
<path d="M63.8364 -157.45C103.76 -36.5994 343.433 84.0672 461.685 86.0466" stroke="#B9B3B8" stroke-width="2.42187"/>
<path d="M245.86 -33.3087C247.046 8.55437 273.629 98.0394 325.965 115.705C378.25 133.384 442.258 98.4902 482.505 67.1976" stroke="#B9B3B8" stroke-width="2.48221"/>
<path d="M135.526 12.7799C137.768 14.0768 138.641 16.6431 137.666 18.8493C136.658 21.0375 134.177 21.6836 131.92 20.4189C129.678 19.122 128.89 16.5593 129.882 14.4032C130.874 12.2472 133.284 11.483 135.526 12.7799Z" fill="#5BA092"/>
<path d="M195.836 16.6618C198.243 17.8018 199.723 20.362 198.718 22.7146C197.714 25.0671 194.91 25.5841 192.503 24.4442C190.097 23.3042 188.617 20.744 189.621 18.3914C190.642 16.0067 193.43 15.5219 195.836 16.6618Z" fill="#F2B08F"/>
<path d="M269.277 51.5557C272.035 52.5962 273.033 55.4307 272.167 57.9371C271.267 60.4256 269.245 61.8798 266.605 60.861C263.95 59.8742 262.474 56.7889 263.342 54.3646C264.175 51.9225 266.519 50.5152 269.277 51.5557Z" fill="#F3705A"/>
<path d="M293.663 65.7598C296.071 66.9819 296.265 70.0438 295.523 72.1288C294.782 74.2139 292.72 76.0932 290.346 74.889C287.972 73.6848 287.627 70.6655 288.351 68.5304C289.108 66.4133 291.254 64.5377 293.663 65.7598Z" fill="#F2B08F"/>
</svg>
