<svg width="402" height="435" viewBox="0 0 402 435" fill="none" xmlns="http://www.w3.org/2000/svg">
    <path style="mix-blend-mode:multiply" opacity="0.5"
          d="M152.134 420.09C101.017 420.09 59.4434 396.817 59.4434 368.204C59.4434 339.59 100.934 316.318 152.134 316.318C203.333 316.318 244.824 339.59 244.824 368.204C244.824 396.817 203.14 420.09 152.134 420.09Z"
          fill="url(#paint0_linear)" fill-opacity="0.25"/>
    <path d="M10.3745 14.5773L11.066 131.3C11.0716 135.317 12.1101 139.265 14.0817 142.764C16.0533 146.263 18.8917 149.195 22.3238 151.28L165.965 236.816C168.044 238.006 170.403 238.618 172.799 238.59C175.194 238.561 177.538 237.893 179.588 236.654C181.639 235.416 183.321 233.651 184.461 231.544C185.602 229.436 186.159 227.062 186.074 224.667L185.549 109.522C185.547 104.871 184.347 100.299 182.065 96.2464C179.783 92.1942 176.496 88.7988 172.52 86.3876L30.4283 2.42904C28.3505 1.25332 25.9973 0.652326 23.6104 0.687818C21.2236 0.723311 18.8892 1.39401 16.8473 2.63099C14.8053 3.86797 13.1294 5.62661 11.9918 7.72616C10.8542 9.8257 10.296 12.1904 10.3745 14.5773Z"
          fill="#C71B48"/>
    <path d="M6.1953 17.5113C6.11385 15.1205 6.67137 12.7511 7.8103 10.6476C8.94923 8.54413 10.6284 6.78264 12.6746 5.54478C14.7208 4.30693 17.06 3.63752 19.451 3.60558C21.8421 3.57364 24.1983 4.18033 26.2769 5.36309L47.0223 17.6774L114.984 211.911L46.4138 171.149L6.41663 55.7548L6.1953 17.5113Z"
          fill="#FF4A59"/>
    <path d="M46.4151 171.038L18.0906 154.213C14.6567 152.131 11.8169 149.198 9.84506 145.699C7.8732 142.199 6.83581 138.251 6.83286 134.233L6.41797 55.6433L46.4151 171.038Z"
          fill="#F32249"/>
    <path d="M170.085 90.4271C173.526 92.5105 176.373 95.4461 178.349 98.9506C180.326 102.455 181.367 106.41 181.371 110.434L182.007 227.517C182.091 229.912 181.535 232.286 180.394 234.393C179.254 236.501 177.572 238.265 175.521 239.504C173.471 240.743 171.126 241.411 168.731 241.439C166.336 241.468 163.977 240.855 161.898 239.665L114.875 211.799L47.0234 17.6759L170.085 90.4271Z"
          fill="#F32249"/>
    <path d="M164.608 168.989V161.822C164.613 161.01 164.407 160.21 164.009 159.501C163.611 158.793 163.036 158.2 162.34 157.782L140.847 145.495C140.426 145.271 139.955 145.159 139.478 145.171C139.001 145.183 138.536 145.318 138.126 145.563C137.717 145.809 137.378 146.155 137.143 146.57C136.907 146.985 136.783 147.453 136.781 147.93V155.181C136.787 155.994 137.001 156.793 137.403 157.5C137.805 158.207 138.381 158.8 139.077 159.221L160.514 171.59C160.948 171.83 161.439 171.947 161.934 171.932C162.43 171.916 162.912 171.768 163.33 171.502C163.749 171.236 164.088 170.862 164.313 170.42C164.538 169.978 164.639 169.484 164.608 168.989Z"
          fill="#E8EEFC"/>
    <path d="M125.443 146.021V138.854C125.443 138.042 125.234 137.244 124.837 136.537C124.439 135.829 123.867 135.236 123.175 134.814L101.71 122.389C101.287 122.163 100.813 122.052 100.334 122.065C99.8546 122.078 99.3871 122.216 98.9772 122.464C98.5672 122.712 98.2289 123.063 97.9951 123.481C97.7614 123.9 97.6403 124.372 97.6438 124.851V132.074C97.6357 132.887 97.8409 133.688 98.2389 134.397C98.6369 135.106 99.2138 135.698 99.912 136.114L121.377 148.484C121.8 148.709 122.274 148.821 122.753 148.807C123.232 148.794 123.699 148.657 124.109 148.408C124.519 148.16 124.858 147.81 125.091 147.391C125.325 146.972 125.446 146.5 125.443 146.021Z"
          fill="#E8EEFC"/>
    <path d="M86.2998 123.055V115.887C86.2942 115.074 86.0801 114.275 85.6782 113.568C85.2763 112.861 84.6999 112.268 84.004 111.847L62.5671 99.4223C62.1441 99.1969 61.6698 99.0854 61.1908 99.0986C60.7117 99.1118 60.2444 99.2493 59.8344 99.4976C59.4245 99.7459 59.086 100.097 58.8522 100.515C58.6185 100.934 58.4975 101.406 58.5011 101.885V109.108C58.5046 109.925 58.7174 110.729 59.1193 111.441C59.5212 112.153 60.0987 112.75 60.7968 113.176L82.2337 125.518C82.6567 125.743 83.1309 125.854 83.6099 125.841C84.089 125.828 84.5565 125.69 84.9664 125.442C85.3764 125.194 85.7148 124.843 85.9485 124.425C86.1823 124.006 86.3034 123.534 86.2998 123.055Z"
          fill="#E8EEFC"/>
    <path d="M47.0244 100.114V92.9191C47.0271 92.1071 46.8195 91.3082 46.4221 90.6002C46.0246 89.8922 45.4507 89.2992 44.7563 88.8789L23.2917 76.4262C22.8687 76.2009 22.3945 76.0894 21.9154 76.1026C21.4364 76.1158 20.969 76.2533 20.5591 76.5016C20.1491 76.7499 19.8106 77.1005 19.5768 77.519C19.3431 77.9376 19.2221 78.4097 19.2257 78.8891V86.1393C19.2257 86.9508 19.4344 87.7486 19.8316 88.4562C20.2288 89.1637 20.8012 89.7572 21.4938 90.1795L42.9584 102.521C43.3773 102.745 43.8464 102.856 44.3209 102.846C44.7953 102.835 45.259 102.702 45.6674 102.46C46.0758 102.219 46.4152 101.876 46.6529 101.465C46.8905 101.054 47.0185 100.589 47.0244 100.114Z"
          fill="#E8EEFC"/>
    <path d="M140.27 201.949C145.636 211.441 154.626 216.339 160.379 212.852C166.132 209.365 166.464 199.016 161.126 189.386C156.396 181.084 147.489 174.553 140.989 178.317C135.235 181.942 134.904 192.541 140.27 201.949Z"
          fill="#E8EEFC"/>
    <path d="M93.4892 175.327V170.871C93.4863 170.37 93.3551 169.878 93.1081 169.442C92.8612 169.006 92.5067 168.641 92.0785 168.381L72.4672 156.869C72.2067 156.722 71.9115 156.646 71.6121 156.65C71.3128 156.655 71.02 156.739 70.7638 156.894C70.5076 157.049 70.2971 157.269 70.1542 157.532C70.0112 157.795 69.9407 158.092 69.95 158.391V162.874C69.9509 163.379 70.0809 163.876 70.3279 164.317C70.5748 164.757 70.9304 165.128 71.3608 165.392L90.9721 176.849C91.2327 176.996 91.5277 177.071 91.8271 177.067C92.1264 177.063 92.4192 176.979 92.6754 176.824C92.9316 176.669 93.1421 176.449 93.2851 176.186C93.4281 175.922 93.4985 175.626 93.4892 175.327Z"
          fill="#E8EEFC"/>
    <path d="M65.4667 158.696V154.269C65.486 153.76 65.3644 153.255 65.1155 152.811C64.8666 152.367 64.5 152 64.056 151.751L21.8461 126.845C21.5856 126.698 21.2904 126.622 20.991 126.627C20.6917 126.631 20.3989 126.715 20.1427 126.87C19.8865 127.025 19.6761 127.245 19.5331 127.508C19.3901 127.771 19.3196 128.068 19.3289 128.367V132.85C19.3298 133.356 19.4599 133.852 19.7068 134.293C19.9537 134.734 20.3093 135.104 20.7397 135.368L62.9496 160.108C63.2021 160.251 63.487 160.326 63.7771 160.327C64.0671 160.327 64.3523 160.253 64.6053 160.111C64.8583 159.969 65.0705 159.764 65.2214 159.517C65.3723 159.269 65.4567 158.986 65.4667 158.696Z"
          fill="#E8EEFC"/>
    <path d="M19.363 58.1883V31.4566C19.3511 30.9096 19.484 30.3691 19.7485 29.8902C20.0129 29.4113 20.3996 29.0109 20.8688 28.7298C21.338 28.4487 21.8733 28.2969 22.4202 28.2898C22.967 28.2827 23.5059 28.4205 23.9823 28.6894L48.2406 42.9684C49.017 43.4601 49.6587 44.1376 50.1079 44.9396C50.557 45.7416 50.7993 46.6429 50.813 47.5621V74.1831C50.8309 74.7293 50.7027 75.2703 50.4418 75.7504C50.1809 76.2306 49.7966 76.6323 49.3287 76.9143C48.8608 77.1963 48.3261 77.3483 47.7799 77.3547C47.2337 77.361 46.6958 77.2214 46.2215 76.9504L22.1291 62.7543C21.3081 62.3029 20.6204 61.6434 20.1349 60.8419C19.6494 60.0405 19.3831 59.1253 19.363 58.1883Z"
          fill="#E8EEFC"/>
    <path d="M19.3623 48.1996V49.5556L28.6562 55.0901V60.0988C28.6763 61.0505 28.9415 61.9809 29.426 62.8002C29.9106 63.6194 30.5981 64.2997 31.4223 64.7755L38.5864 68.8157C38.8966 68.9982 39.25 69.0944 39.6098 69.0944C39.9697 69.0944 40.323 68.9982 40.6333 68.8157C40.9525 68.6248 41.2155 68.3527 41.3953 68.0269C41.5751 67.7012 41.6653 67.3336 41.6567 66.9616V62.4787L50.9506 68.0132V66.6295L41.6844 61.095V50.9115L50.9506 56.446V55.0901L41.6567 49.5556V46.5669C41.6366 45.6152 41.3714 44.6848 40.8868 43.8656C40.4023 43.0464 39.7148 42.366 38.8906 41.8903L32.0861 37.8777C31.7365 37.6627 31.3347 37.5478 30.9244 37.5457C30.5228 37.5486 30.1301 37.6636 29.7904 37.8777C29.4391 38.0903 29.1494 38.3912 28.9505 38.7504C28.7515 39.1097 28.6501 39.5148 28.6562 39.9255V42.1393L19.3623 36.6048V37.9607L28.6285 43.4953V53.6511L19.3623 48.1996ZM29.7073 39.8978C29.7076 39.6931 29.7607 39.492 29.8615 39.3138C29.9622 39.1356 30.1073 38.9865 30.2825 38.8807C30.4577 38.775 30.6572 38.7163 30.8617 38.7102C31.0663 38.7042 31.2688 38.7511 31.4499 38.8463L38.2545 42.8588C38.8778 43.2502 39.3923 43.7928 39.7501 44.4362C40.1079 45.0796 40.2975 45.803 40.3013 46.5393V66.7956C40.3071 66.9639 40.2661 67.1305 40.1832 67.277C40.1002 67.4235 39.9784 67.5442 39.8312 67.6258C39.6788 67.6785 39.5131 67.6785 39.3608 67.6258C39.2162 67.6673 39.0629 67.6673 38.9183 67.6258L31.7819 63.5856C31.1466 63.2187 30.6201 62.6899 30.2557 62.0531C29.8912 61.4163 29.702 60.6942 29.7073 59.9604V39.8978Z"
          fill="#C71B48"/>
    <path d="M285.041 261.72V262.633C285.038 264.017 285.4 265.377 286.09 266.577C286.779 267.777 287.772 268.774 288.969 269.468L396.07 331.344C396.552 331.623 397.099 331.768 397.656 331.767C398.212 331.765 398.758 331.616 399.239 331.335C399.719 331.054 400.117 330.651 400.391 330.167C400.665 329.682 400.806 329.134 400.8 328.577V327.636C400.802 326.252 400.441 324.892 399.751 323.692C399.062 322.492 398.069 321.495 396.872 320.801L289.743 258.953C289.263 258.672 288.717 258.524 288.161 258.525C287.606 258.526 287.06 258.675 286.581 258.957C286.102 259.239 285.707 259.644 285.436 260.129C285.165 260.615 285.029 261.164 285.041 261.72Z"
          fill="#D2EBFF"/>
    <path d="M285.04 336.88V337.793C285.038 339.177 285.4 340.537 286.089 341.737C286.778 342.937 287.771 343.934 288.968 344.628L396.069 406.504C396.551 406.783 397.098 406.929 397.655 406.927C398.211 406.925 398.758 406.777 399.238 406.496C399.719 406.214 400.116 405.811 400.39 405.327C400.664 404.842 400.806 404.294 400.799 403.737V402.852C400.797 401.472 400.433 400.118 399.744 398.923C399.054 397.729 398.064 396.736 396.872 396.044L289.742 334.168C289.267 333.89 288.726 333.743 288.175 333.741C287.624 333.74 287.082 333.884 286.605 334.159C286.127 334.434 285.731 334.831 285.456 335.309C285.182 335.787 285.038 336.329 285.04 336.88Z"
          fill="#D2EBFF"/>
    <path d="M330.875 311.947V312.86C330.877 314.239 331.241 315.594 331.93 316.788C332.62 317.983 333.61 318.976 334.802 319.668L396.624 355.642C397.106 355.92 397.653 356.066 398.209 356.065C398.766 356.063 399.312 355.914 399.792 355.633C400.273 355.352 400.67 354.949 400.945 354.464C401.219 353.98 401.36 353.431 401.354 352.875V351.961C401.356 350.577 400.994 349.217 400.305 348.018C399.615 346.818 398.622 345.821 397.426 345.126L335.605 309.152C335.121 308.872 334.571 308.726 334.012 308.729C333.453 308.732 332.905 308.883 332.424 309.167C331.942 309.452 331.545 309.859 331.273 310.347C331.001 310.836 330.863 311.388 330.875 311.947Z"
          fill="#D2EBFF"/>
    <path d="M392.254 373.573C392.254 370.474 394.107 369.063 396.624 370.53C397.919 371.424 398.977 372.618 399.709 374.011C400.442 375.404 400.826 376.953 400.829 378.527C400.829 381.654 399.003 383.148 396.541 381.737C395.22 380.824 394.14 379.605 393.393 378.183C392.647 376.761 392.256 375.18 392.254 373.573Z"
          fill="#D2EBFF"/>
    <path d="M376.761 364.247C376.761 361.148 378.614 359.736 381.131 361.175C382.431 362.07 383.493 363.269 384.226 364.667C384.959 366.066 385.339 367.621 385.335 369.2C385.335 372.3 383.538 373.794 381.076 372.383C379.755 371.474 378.673 370.26 377.922 368.844C377.171 367.427 376.772 365.85 376.761 364.247Z"
          fill="#D2EBFF"/>
    <path d="M361.305 355.475C361.305 352.348 363.158 350.964 365.675 352.403C366.971 353.294 368.03 354.488 368.758 355.882C369.486 357.276 369.861 358.828 369.852 360.401C369.852 363.528 368.054 365.022 365.592 363.611C364.273 362.702 363.194 361.488 362.447 360.071C361.701 358.654 361.309 357.077 361.305 355.475Z"
          fill="#D2EBFF"/>
    <path d="M400.799 423.578C400.615 423.575 400.435 423.528 400.273 423.439L325.424 380.021C325.18 379.877 325.002 379.642 324.929 379.367C324.857 379.093 324.895 378.801 325.037 378.555C325.105 378.431 325.198 378.322 325.31 378.235C325.422 378.148 325.55 378.085 325.687 378.048C325.824 378.012 325.967 378.004 326.107 378.024C326.247 378.045 326.382 378.093 326.503 378.167L401.352 421.558C401.596 421.702 401.774 421.937 401.847 422.211C401.919 422.486 401.881 422.778 401.739 423.024C401.648 423.194 401.512 423.335 401.346 423.433C401.181 423.53 400.991 423.581 400.799 423.578Z"
          fill="#D2EBFF"/>
    <path d="M400.799 312.584C400.611 312.584 400.427 312.526 400.273 312.418L325.424 269.028C325.18 268.883 325.002 268.648 324.929 268.374C324.857 268.099 324.895 267.807 325.037 267.561C325.187 267.354 325.407 267.209 325.657 267.153C325.906 267.097 326.168 267.134 326.392 267.257L401.241 310.647C401.486 310.791 401.664 311.026 401.736 311.301C401.809 311.576 401.77 311.868 401.629 312.114C401.537 312.252 401.414 312.367 401.27 312.449C401.126 312.53 400.965 312.577 400.799 312.584Z"
          fill="#D2EBFF"/>
    <path d="M400.8 434.314C400.616 434.311 400.436 434.263 400.274 434.175L297.377 374.486C297.133 374.341 296.955 374.106 296.882 373.832C296.81 373.557 296.849 373.265 296.99 373.019C297.134 372.774 297.369 372.597 297.643 372.524C297.918 372.452 298.21 372.49 298.456 372.632L401.353 432.321C401.549 432.445 401.701 432.629 401.785 432.845C401.868 433.062 401.88 433.3 401.818 433.524C401.756 433.747 401.623 433.945 401.44 434.087C401.256 434.23 401.032 434.309 400.8 434.314Z"
          fill="#D2EBFF"/>
    <path d="M0 166.223V167.219C0.000216172 168.727 0.396422 170.208 1.14886 171.514C1.90131 172.821 2.98354 173.906 4.28735 174.663L79.7453 217.86C80.268 218.162 80.861 218.32 81.4645 218.319C82.068 218.319 82.6607 218.159 83.1826 217.855C83.7045 217.552 84.1372 217.117 84.437 216.593C84.7368 216.069 84.8931 215.475 84.8901 214.871V213.875C84.8914 212.346 84.4845 210.845 83.7112 209.526C82.938 208.208 81.8265 207.12 80.492 206.376L5.03424 163.206C4.51279 162.93 3.92897 162.793 3.33922 162.809C2.74946 162.825 2.17371 162.992 1.66758 163.295C1.16145 163.599 0.74204 164.027 0.449922 164.54C0.157805 165.053 0.00284753 165.632 0 166.223Z"
          fill="#D2EBFF"/>
    <path d="M35.0703 211.911V212.907C35.0761 214.417 35.4777 215.899 36.2349 217.205C36.992 218.511 38.0783 219.596 39.3853 220.351L80.2123 244.426C80.737 244.726 81.3312 244.883 81.9355 244.881C82.5398 244.88 83.1332 244.72 83.6565 244.418C84.1798 244.115 84.6147 243.681 84.918 243.158C85.2212 242.635 85.3822 242.042 85.3848 241.437V240.441C85.3818 238.931 84.9814 237.448 84.224 236.141C83.4665 234.834 82.3787 233.75 81.0698 232.997L40.2428 209.143C39.7341 208.851 39.1594 208.693 38.5728 208.684C37.9862 208.675 37.4069 208.815 36.8896 209.092C36.3722 209.369 35.9339 209.773 35.6156 210.266C35.2973 210.759 35.1096 211.325 35.0703 211.911Z"
          fill="#D2EBFF"/>
    <path d="M226.098 18.8403L226.818 135.563C226.812 139.579 227.843 143.528 229.811 147.028C231.778 150.528 234.615 153.461 238.048 155.543L381.882 240.968C383.962 242.158 386.321 242.77 388.716 242.742C391.111 242.714 393.455 242.045 395.506 240.807C397.556 239.568 399.239 237.804 400.379 235.696C401.519 233.589 402.076 231.215 401.992 228.82L401.355 113.84C401.359 109.188 400.162 104.614 397.879 100.561C395.597 96.5076 392.307 93.1131 388.327 90.706L246.18 6.69206C244.103 5.49987 241.745 4.88567 239.35 4.91323C236.955 4.94078 234.612 5.60909 232.563 6.84876C230.513 8.08842 228.833 9.85425 227.697 11.9629C226.56 14.0716 226.008 16.4463 226.098 18.8403Z"
          fill="#8C96E3"/>
    <path d="M221.893 21.8012C221.806 19.408 222.36 17.0351 223.497 14.9276C224.634 12.8202 226.312 11.0546 228.359 9.8134C230.406 8.57219 232.748 7.90033 235.141 7.86725C237.535 7.83417 239.894 8.44108 241.974 9.62525L262.775 21.9395L330.654 216.063L262.083 175.329L222.114 59.9063L221.893 21.8012Z"
          fill="#CDD9FF"/>
    <path d="M262.139 175.328L233.787 158.476C230.349 156.4 227.507 153.469 225.539 149.967C223.571 146.465 222.544 142.513 222.557 138.496L222.114 59.9059L262.139 175.328Z"
          fill="#B8C9FF"/>
    <path d="M385.783 94.6887C389.226 96.7701 392.074 99.7052 394.051 103.21C396.028 106.715 397.067 110.671 397.068 114.696L397.704 231.779C397.789 234.174 397.232 236.548 396.092 238.655C394.952 240.762 393.269 242.527 391.219 243.766C389.168 245.004 386.824 245.672 384.429 245.701C382.034 245.729 379.674 245.117 377.595 243.927L330.572 216.061L262.776 21.9375L385.783 94.6887Z"
          fill="#B8C9FF"/>
    <path d="M380.303 173.171V166.003C380.295 165.194 380.083 164.399 379.686 163.692C379.29 162.986 378.722 162.391 378.035 161.963L356.57 149.538C356.149 149.314 355.677 149.203 355.201 149.214C354.724 149.226 354.258 149.361 353.849 149.607C353.44 149.852 353.101 150.198 352.865 150.613C352.63 151.028 352.505 151.496 352.504 151.973V159.334C352.507 160.149 352.72 160.948 353.122 161.656C353.524 162.364 354.102 162.956 354.8 163.375L376.237 175.744C376.668 175.975 377.153 176.087 377.641 176.069C378.13 176.051 378.605 175.903 379.019 175.642C379.432 175.38 379.769 175.014 379.994 174.58C380.22 174.146 380.326 173.659 380.303 173.171Z"
          fill="#E8EEFC"/>
    <path d="M341.168 150.283V143.116C341.174 142.304 340.967 141.504 340.569 140.795C340.172 140.087 339.596 139.494 338.9 139.076L317.435 126.651C317.012 126.426 316.538 126.314 316.059 126.327C315.58 126.341 315.113 126.478 314.703 126.726C314.293 126.975 313.954 127.325 313.721 127.744C313.487 128.162 313.366 128.635 313.369 129.114V136.336C313.364 137.149 313.57 137.949 313.968 138.657C314.366 139.366 314.941 139.958 315.637 140.377L337.102 152.746C337.525 152.972 337.999 153.083 338.478 153.07C338.957 153.057 339.425 152.919 339.835 152.671C340.245 152.423 340.583 152.072 340.817 151.654C341.051 151.235 341.172 150.763 341.168 150.283Z"
          fill="#E8EEFC"/>
    <path d="M301.996 127.342V120.175C301.993 119.364 301.784 118.567 301.387 117.86C300.99 117.153 300.419 116.559 299.728 116.135L278.263 103.682C277.84 103.457 277.366 103.345 276.887 103.358C276.408 103.371 275.941 103.509 275.531 103.757C275.121 104.006 274.782 104.356 274.549 104.775C274.315 105.193 274.194 105.665 274.197 106.145V113.395C274.203 114.209 274.417 115.007 274.819 115.715C275.221 116.422 275.797 117.014 276.493 117.435L297.93 129.777C298.351 130.001 298.823 130.113 299.299 130.101C299.776 130.089 300.242 129.954 300.651 129.709C301.06 129.464 301.399 129.117 301.635 128.702C301.87 128.288 301.995 127.819 301.996 127.342Z"
          fill="#E8EEFC"/>
    <path d="M262.776 104.374V97.2065C262.784 96.3935 262.579 95.5925 262.181 94.8836C261.783 94.1746 261.206 93.5825 260.508 93.1663L239.043 80.7137C238.621 80.4949 238.15 80.3887 237.675 80.4052C237.2 80.4217 236.737 80.5604 236.331 80.8079C235.925 81.0555 235.59 81.4034 235.358 81.8183C235.125 82.2332 235.004 82.701 235.005 83.1765V90.4267C235.005 91.2382 235.214 92.0361 235.611 92.7436C236.008 93.4511 236.58 94.0446 237.273 94.4669L258.793 106.754C259.207 106.957 259.665 107.053 260.125 107.034C260.586 107.016 261.034 106.882 261.43 106.645C261.826 106.409 262.156 106.077 262.391 105.681C262.626 105.284 262.759 104.835 262.776 104.374Z"
          fill="#E8EEFC"/>
    <path d="M355.961 206.209C361.327 215.701 370.344 220.599 376.098 217.278C381.851 213.957 382.155 203.276 376.817 193.784C372.087 185.482 363.18 178.952 356.68 182.715C350.927 186.202 350.623 196.717 355.961 206.209Z"
          fill="#E8EEFC"/>
    <path d="M309.192 179.589V175.162C309.191 174.656 309.061 174.16 308.814 173.719C308.568 173.278 308.212 172.908 307.782 172.643L288.17 161.132C287.91 160.984 287.615 160.909 287.315 160.913C287.016 160.917 286.723 161.001 286.467 161.156C286.211 161.311 286 161.531 285.857 161.795C285.714 162.058 285.644 162.354 285.653 162.654V167.137C285.654 167.642 285.784 168.138 286.031 168.579C286.278 169.02 286.634 169.39 287.064 169.655L306.675 181.111C306.934 181.268 307.231 181.352 307.534 181.352C307.837 181.352 308.135 181.269 308.394 181.112C308.654 180.956 308.865 180.731 309.006 180.462C309.146 180.194 309.211 179.892 309.192 179.589Z"
          fill="#E8EEFC"/>
    <path d="M281.193 162.986V158.53C281.185 158.027 281.051 157.533 280.805 157.093C280.559 156.654 280.208 156.282 279.783 156.012L237.573 131.107C237.312 130.96 237.017 130.884 236.718 130.888C236.418 130.893 236.125 130.977 235.869 131.132C235.613 131.287 235.403 131.507 235.26 131.77C235.117 132.033 235.046 132.33 235.056 132.629V137.195C235.062 137.702 235.197 138.2 235.449 138.64C235.701 139.081 236.06 139.45 236.494 139.713L278.676 164.452C278.934 164.589 279.222 164.658 279.514 164.652C279.805 164.646 280.09 164.566 280.342 164.419C280.594 164.272 280.805 164.063 280.953 163.813C281.102 163.562 281.185 163.277 281.193 162.986Z"
          fill="#E8EEFC"/>
    <path d="M235.114 62.4786V35.7469C235.096 35.2007 235.224 34.6597 235.485 34.1796C235.746 33.6994 236.13 33.2977 236.598 33.0157C237.066 32.7337 237.601 32.5817 238.147 32.5754C238.693 32.569 239.231 32.7086 239.706 32.9797L263.964 47.2587C264.74 47.7504 265.382 48.4279 265.831 49.2299C266.28 50.0319 266.523 50.9332 266.536 51.8524V78.4734C266.554 79.0196 266.426 79.5606 266.165 80.0407C265.904 80.5208 265.52 80.9226 265.052 81.2046C264.584 81.4866 264.049 81.6386 263.503 81.6449C262.957 81.6513 262.419 81.5117 261.945 81.2406L237.88 67.0169C237.059 66.5723 236.371 65.9181 235.885 65.121C235.399 64.3238 235.133 63.4121 235.114 62.4786Z"
          fill="#E8EEFC"/>
    <path d="M235.112 52.4612V53.8172L244.406 59.3517V64.3604C244.426 65.3121 244.692 66.2425 245.176 67.0618C245.661 67.881 246.348 68.5614 247.172 69.0371L254.336 73.0773C254.647 73.2598 255 73.356 255.36 73.356C255.72 73.356 256.073 73.2598 256.383 73.0773C256.703 72.8865 256.966 72.6143 257.145 72.2886C257.325 71.9628 257.415 71.5952 257.407 71.2232V66.7956L266.701 72.3301V70.7805L257.407 65.246V55.0624L266.701 60.597V59.2687L257.434 53.7342V50.8285C257.414 49.8769 257.149 48.9464 256.665 48.1272C256.18 47.308 255.492 46.6276 254.668 46.1519L247.864 42.1394C247.514 41.9243 247.112 41.8094 246.702 41.8073C246.301 41.8102 245.908 41.9252 245.568 42.1394C245.216 42.3584 244.927 42.6645 244.729 43.0281C244.53 43.3917 244.428 43.8005 244.434 44.2148V46.4009L235.168 40.8664V42.2224L244.462 47.7569V57.9127L235.112 52.4612ZM245.457 44.1595C245.458 43.9547 245.511 43.7536 245.611 43.5754C245.712 43.3972 245.857 43.2481 246.033 43.1423C246.208 43.0366 246.407 42.9779 246.612 42.9719C246.816 42.9658 247.019 43.0127 247.2 43.1079L254.004 47.1481C254.633 47.5271 255.152 48.0632 255.511 48.7036C255.87 49.344 256.056 50.0667 256.051 50.8009V71.0572C256.057 71.2223 256.019 71.3859 255.941 71.5316C255.864 71.6773 255.749 71.8 255.609 71.8874C255.465 71.9952 255.29 72.0534 255.111 72.0534C254.965 72.0857 254.814 72.0857 254.668 72.0534L247.643 68.0132C247.011 67.6355 246.488 67.1005 246.124 66.4603C245.76 65.8202 245.569 65.0967 245.568 64.3604L245.457 44.1595Z"
          fill="#8C96E3"/>
    <path d="M96.1997 122.362L96.8358 239.085C96.8278 243.102 97.8576 247.052 99.8252 250.552C101.793 254.053 104.632 256.985 108.066 259.065L251.901 344.518C253.98 345.708 256.339 346.32 258.734 346.292C261.129 346.263 263.474 345.595 265.524 344.356C267.575 343.118 269.257 341.353 270.397 339.246C271.538 337.138 272.094 334.764 272.01 332.37L271.346 217.445C271.35 212.797 270.153 208.226 267.87 204.177C265.588 200.129 262.297 196.739 258.318 194.339L116.17 110.214C114.096 109.05 111.75 108.459 109.372 108.501C106.994 108.542 104.67 109.216 102.638 110.452C100.606 111.688 98.9387 113.442 97.8074 115.535C96.6761 117.628 96.1212 119.984 96.1997 122.362Z"
          fill="#445393"/>
    <path d="M92.0029 125.322C91.9164 122.929 92.4701 120.556 93.607 118.448C94.7438 116.341 96.4226 114.575 98.4697 113.334C100.517 112.093 102.858 111.421 105.251 111.388C107.645 111.355 110.004 111.962 112.084 113.146L132.94 125.488L200.819 319.583L132.249 278.849L92.2243 163.427L92.0029 125.322Z"
          fill="#2183DF"/>
    <path d="M132.242 278.85L103.89 261.997C100.452 259.922 97.6108 256.99 95.6426 253.489C93.6744 249.987 92.6469 246.035 92.6603 242.018L92.2178 163.428L132.242 278.85Z"
          fill="#4C9DE8"/>
    <path d="M255.884 198.213C259.327 200.294 262.175 203.229 264.152 206.734C266.129 210.239 267.168 214.195 267.169 218.22L267.805 335.303C267.89 337.697 267.333 340.071 266.193 342.179C265.053 344.286 263.37 346.051 261.32 347.289C259.269 348.528 256.925 349.196 254.53 349.225C252.135 349.253 249.775 348.641 247.696 347.451L200.811 319.585L132.933 125.489L255.884 198.213Z"
          fill="#4C9DE8"/>
    <path d="M250.41 276.774V269.607C250.405 268.793 250.191 267.995 249.789 267.288C249.387 266.58 248.81 265.988 248.114 265.567L226.678 253.142C226.255 252.916 225.78 252.805 225.301 252.818C224.822 252.831 224.355 252.969 223.945 253.217C223.535 253.465 223.196 253.816 222.963 254.235C222.729 254.653 222.608 255.125 222.611 255.605V262.827C222.614 263.641 222.827 264.441 223.229 265.149C223.632 265.856 224.21 266.448 224.907 266.867L246.344 279.237C246.767 279.462 247.241 279.574 247.72 279.561C248.199 279.548 248.667 279.41 249.077 279.162C249.487 278.913 249.825 278.563 250.059 278.144C250.293 277.726 250.414 277.254 250.41 276.774Z"
          fill="#E8EEFC"/>
    <path d="M211.271 253.837V246.642C211.277 245.833 211.07 245.037 210.672 244.332C210.274 243.628 209.698 243.041 209.002 242.629L187.538 230.177C187.115 229.951 186.641 229.84 186.161 229.853C185.682 229.866 185.215 230.004 184.805 230.252C184.395 230.5 184.057 230.851 183.823 231.269C183.589 231.688 183.468 232.16 183.472 232.639V239.89C183.472 240.701 183.68 241.499 184.078 242.207C184.475 242.914 185.047 243.508 185.74 243.93L207.204 256.272C207.625 256.496 208.097 256.608 208.574 256.596C209.051 256.584 209.516 256.449 209.925 256.204C210.334 255.959 210.673 255.612 210.909 255.197C211.145 254.782 211.269 254.314 211.271 253.837Z"
          fill="#E8EEFC"/>
    <path d="M172.104 230.865V223.698C172.101 222.887 171.891 222.09 171.494 221.383C171.097 220.676 170.526 220.082 169.836 219.657L148.371 207.205C147.948 206.979 147.474 206.868 146.995 206.881C146.516 206.894 146.048 207.032 145.638 207.28C145.228 207.528 144.89 207.879 144.656 208.297C144.422 208.716 144.301 209.188 144.305 209.668V216.918C144.31 217.731 144.524 218.53 144.926 219.237C145.328 219.945 145.905 220.537 146.601 220.958L168.038 233.328C168.461 233.553 168.935 233.664 169.414 233.651C169.893 233.638 170.36 233.501 170.77 233.252C171.18 233.004 171.519 232.653 171.752 232.235C171.986 231.816 172.107 231.344 172.104 230.865Z"
          fill="#E8EEFC"/>
    <path d="M132.965 207.898V200.731C132.97 199.919 132.764 199.119 132.366 198.41C131.969 197.702 131.393 197.109 130.697 196.691L109.177 184.238C108.757 184.021 108.288 183.914 107.816 183.93C107.343 183.945 106.882 184.081 106.477 184.325C106.072 184.57 105.736 184.914 105.502 185.325C105.267 185.736 105.142 186.2 105.139 186.673V193.924C105.139 194.735 105.347 195.533 105.745 196.241C106.142 196.948 106.714 197.542 107.407 197.964L128.871 210.334C129.293 210.564 129.768 210.681 130.249 210.673C130.729 210.664 131.199 210.53 131.613 210.284C132.026 210.039 132.368 209.689 132.605 209.271C132.842 208.852 132.966 208.379 132.965 207.898Z"
          fill="#E8EEFC"/>
    <path d="M226.068 309.734C231.435 319.226 240.452 324.124 246.205 320.803C251.959 317.482 252.263 306.801 246.925 297.309C242.195 289.007 233.288 282.477 226.788 286.406C221.034 289.727 220.73 300.242 226.068 309.734Z"
          fill="#E8EEFC"/>
    <path d="M179.292 283.139V278.683C179.291 278.178 179.161 277.681 178.914 277.24C178.667 276.8 178.312 276.429 177.881 276.165L158.27 264.653C158.009 264.506 157.714 264.43 157.415 264.435C157.116 264.439 156.823 264.523 156.567 264.678C156.31 264.833 156.1 265.053 155.957 265.316C155.814 265.579 155.743 265.876 155.753 266.175V270.658C155.754 271.163 155.884 271.66 156.131 272.101C156.378 272.542 156.733 272.912 157.163 273.176L176.775 284.66C177.035 284.808 177.33 284.883 177.63 284.879C177.929 284.875 178.222 284.791 178.478 284.636C178.734 284.481 178.945 284.261 179.088 283.997C179.231 283.734 179.301 283.438 179.292 283.139Z"
          fill="#E8EEFC"/>
    <path d="M151.277 266.509V262.053C151.272 261.553 151.139 261.062 150.893 260.626C150.646 260.191 150.293 259.825 149.867 259.563L107.657 234.657C107.396 234.51 107.101 234.435 106.802 234.439C106.502 234.443 106.209 234.527 105.953 234.682C105.697 234.837 105.487 235.057 105.344 235.321C105.201 235.584 105.13 235.88 105.139 236.179V240.662C105.146 241.17 105.281 241.667 105.533 242.108C105.785 242.548 106.144 242.918 106.578 243.181L148.76 267.92C149.013 268.063 149.298 268.138 149.588 268.139C149.878 268.139 150.163 268.065 150.416 267.923C150.669 267.781 150.881 267.577 151.032 267.329C151.183 267.081 151.267 266.799 151.277 266.509Z"
          fill="#E8EEFC"/>
    <path d="M105.275 165.973V139.242C105.257 138.695 105.385 138.154 105.646 137.674C105.907 137.194 106.291 136.792 106.759 136.51C107.227 136.228 107.762 136.076 108.308 136.07C108.854 136.064 109.392 136.203 109.867 136.474L134.125 150.781C134.897 151.27 135.537 151.943 135.986 152.74C136.435 153.537 136.679 154.433 136.697 155.347V181.996C136.715 182.542 136.587 183.083 136.326 183.563C136.065 184.043 135.681 184.445 135.213 184.727C134.745 185.009 134.21 185.161 133.664 185.167C133.118 185.174 132.58 185.034 132.106 184.763L107.875 170.539C107.081 170.071 106.424 169.404 105.968 168.603C105.512 167.802 105.273 166.895 105.275 165.973Z"
          fill="#E8EEFC"/>
    <path d="M105.108 155.984V157.34L114.402 162.874V167.883C114.422 168.835 114.688 169.765 115.172 170.584C115.657 171.404 116.344 172.084 117.168 172.56L124.333 176.6C124.637 176.798 124.993 176.903 125.356 176.903C125.719 176.903 126.075 176.798 126.379 176.6C126.699 176.409 126.962 176.137 127.141 175.811C127.321 175.485 127.411 175.118 127.403 174.746V170.401L136.697 175.936V174.58L127.403 169.045V158.862L136.697 164.396V163.068L127.43 157.534V154.351C127.425 153.413 127.181 152.491 126.721 151.673C126.261 150.855 125.601 150.167 124.803 149.675L117.998 145.662C117.649 145.447 117.247 145.332 116.836 145.33C116.437 145.346 116.047 145.46 115.702 145.662C115.351 145.881 115.062 146.187 114.863 146.551C114.664 146.914 114.563 147.323 114.568 147.737V149.924L105.302 144.389V145.745L114.596 151.28V161.463L105.108 155.984ZM115.453 147.682C115.456 147.476 115.51 147.274 115.612 147.095C115.714 146.916 115.859 146.766 116.034 146.658C116.209 146.55 116.41 146.493 116.615 146.493C116.82 146.493 117.021 146.55 117.196 146.658L124.001 150.671C124.625 151.054 125.141 151.591 125.5 152.23C125.858 152.87 126.047 153.59 126.047 154.324V174.608C126.048 174.768 126.008 174.926 125.93 175.066C125.853 175.207 125.741 175.325 125.605 175.41C125.461 175.518 125.286 175.576 125.107 175.576C124.96 175.598 124.811 175.598 124.664 175.576L117.528 171.536C116.891 171.164 116.363 170.631 115.999 169.989C115.634 169.348 115.446 168.621 115.453 167.883V147.682Z"
          fill="#000857"/>
    <path d="M188.475 325.645C175.171 318.09 153.595 317.177 138.106 323.985C136.59 324.631 135.121 325.38 133.708 326.226L122.92 332.425V341.418C123.103 344.041 123.905 346.582 125.261 348.833C126.617 351.085 128.488 352.982 130.72 354.369C143.527 363.778 167.509 365.438 184.326 358.077C194.256 353.733 199.457 347.174 199.401 340.616V331.124L188.475 325.645Z"
          fill="#EC8E41"/>
    <path d="M184.326 349.056C167.536 356.416 143.555 354.756 130.748 345.32C128.518 343.941 126.646 342.054 125.285 339.813C123.925 337.571 123.114 335.04 122.92 332.424V334.5C123.106 337.125 123.912 339.668 125.273 341.919C126.634 344.171 128.511 346.067 130.748 347.451C143.527 356.859 167.536 358.52 184.326 351.159C194.284 346.814 199.457 340.256 199.401 333.697V331.594C199.484 338.153 194.284 344.739 184.326 349.056Z"
          fill="#FFD474"/>
    <path d="M199.149 329.547C198.999 328.715 198.767 327.899 198.457 327.112C197.385 324.512 195.717 322.199 193.589 320.36C192.955 319.781 192.29 319.236 191.597 318.727C178.791 309.263 154.781 307.658 137.936 314.936C136.996 315.351 136.083 315.794 135.17 316.265C132.237 317.748 129.572 319.712 127.287 322.076C126.622 322.785 126.012 323.544 125.461 324.345C121.284 330.405 121.976 337.351 128.033 343.162C128.839 343.939 129.689 344.669 130.578 345.348C143.385 354.785 167.394 356.417 184.24 349.14C185.484 348.586 186.646 347.977 187.753 347.368C196.383 342.581 200.393 335.967 199.149 329.547Z"
          fill="#FFBC56"/>
    <path d="M142.34 322.378L143.53 321.796C156.364 316.262 174.675 317.48 184.439 324.564C185.916 325.518 187.189 326.755 188.186 328.203C189.183 329.652 189.884 331.283 190.248 333.004C190.426 330.768 189.974 328.527 188.942 326.536C187.91 324.545 186.341 322.884 184.412 321.741C174.648 314.546 156.336 313.246 143.502 318.835L142.285 319.444C134.816 323.069 131.221 328.438 132.133 333.64C132.77 329.517 136.172 325.366 142.34 322.378Z"
          fill="#EC8E41"/>
    <path d="M137.941 342.194C147.374 349.14 164.8 350.496 177.551 345.57C177.994 345.404 178.436 345.266 178.851 345.072C185.739 342.056 189.611 337.684 190.248 333.145C189.883 331.425 189.183 329.793 188.186 328.345C187.189 326.896 185.915 325.659 184.439 324.705C174.675 317.483 156.363 316.21 143.529 321.938L142.34 322.519C136.171 325.508 132.714 329.659 132.133 333.92C132.928 337.325 135.009 340.291 137.941 342.194Z"
          fill="#FFD474"/>
    <path d="M140.237 342.164C127.015 334.471 105.44 333.336 89.8949 339.95C88.374 340.593 86.8959 341.332 85.4693 342.164L74.6816 348.224V357.246C74.8436 359.867 75.625 362.414 76.9618 364.675C78.2986 366.936 80.1526 368.847 82.3713 370.252C95.0675 379.826 119.049 381.736 135.922 374.541C145.908 370.307 151.163 363.804 151.163 357.246V347.754L140.237 342.164Z"
          fill="#EC8E41"/>
    <path d="M135.868 365.521C118.995 372.716 95.0138 370.779 82.3176 361.232C80.0989 359.827 78.2449 357.916 76.9081 355.655C75.5713 353.394 74.7899 350.848 74.6279 348.226V350.274C74.7899 352.896 75.5713 355.442 76.9081 357.703C78.2449 359.964 80.0989 361.875 82.3176 363.28C95.0138 372.827 118.995 374.764 135.868 367.569C145.854 363.335 151.109 356.832 151.109 350.274V348.171C151.109 354.785 145.854 361.343 135.868 365.521Z"
          fill="#FFD474"/>
    <path d="M150.942 346.149C150.798 345.318 150.576 344.503 150.278 343.714C149.211 341.117 147.565 338.798 145.465 336.934C144.837 336.339 144.172 335.785 143.473 335.274C130.777 325.672 106.796 323.735 89.8949 330.902C88.9268 331.317 88.014 331.76 87.1289 332.202C84.1721 333.651 81.4867 335.598 79.1903 337.958C78.5258 338.656 77.9068 339.395 77.3371 340.172C73.1051 346.205 73.7135 353.151 79.6882 359.045C80.4864 359.83 81.3365 360.56 82.2329 361.231C94.9291 370.833 118.938 372.77 135.839 365.603C137.111 365.05 138.273 364.469 139.38 363.888C148.037 359.183 152.131 352.597 150.942 346.149Z"
          fill="#FFBC56"/>
    <path d="M94.0469 338.428C94.4618 338.234 94.8214 338.013 95.264 337.847C108.154 332.312 126.465 333.862 136.146 341.167C139.092 343.136 141.141 346.189 141.844 349.663C142.453 345.761 140.627 341.721 136.146 338.345C126.465 331.039 108.154 329.545 95.264 335.024L94.0469 335.605C86.5233 339.175 82.9828 344.488 83.7296 349.691C84.4488 345.457 87.9616 341.333 94.0469 338.428Z"
          fill="#EC8E41"/>
    <path d="M89.5363 358.16C98.8855 365.216 116.312 366.821 129.091 361.978C129.533 361.812 129.976 361.674 130.419 361.48C137.334 358.547 141.261 354.202 141.925 349.664C141.222 346.191 139.173 343.137 136.227 341.169C126.546 333.863 108.235 332.369 95.3449 337.848C94.9024 338.014 94.5429 338.235 94.128 338.429C87.9597 341.335 84.4467 345.458 83.8105 349.692C84.5249 353.161 86.5837 356.205 89.5363 358.16Z"
          fill="#FFD474"/>
    <path d="M140.237 333.034C127.015 325.341 105.44 324.206 89.8949 330.82C88.374 331.463 86.8959 332.202 85.4693 333.034L74.6816 339.205V348.226C74.8436 350.848 75.625 353.394 76.9618 355.655C78.2986 357.916 80.1526 359.827 82.3713 361.232C95.0675 370.807 119.049 372.716 135.922 365.521C145.908 361.287 151.163 354.784 151.163 348.226V338.734L140.237 333.034Z"
          fill="#EC8E41"/>
    <path d="M135.867 356.389C118.994 363.583 95.0121 361.646 82.316 352.099C80.122 350.699 78.2878 348.803 76.9616 346.562C75.6355 344.322 74.8545 341.802 74.6816 339.204V341.307C74.8436 343.929 75.625 346.475 76.9618 348.736C78.2986 350.997 80.1526 352.908 82.3713 354.313C95.0675 363.86 119.049 365.797 135.922 358.602C145.908 354.368 151.163 347.865 151.163 341.307V339.204C151.108 345.652 145.852 352.127 135.867 356.389Z"
          fill="#FFD474"/>
    <path d="M150.942 337.019C150.798 336.188 150.576 335.373 150.278 334.584C149.211 331.986 147.565 329.668 145.465 327.804C144.837 327.209 144.172 326.654 143.473 326.144C130.777 316.541 106.796 314.604 89.8949 321.771C88.9268 322.186 88.014 322.629 87.1289 323.072C84.1721 324.521 81.4867 326.468 79.1903 328.828C78.5258 329.525 77.9068 330.265 77.3371 331.042C73.1051 337.074 73.7135 344.02 79.6882 349.914C80.4864 350.699 81.3365 351.43 82.2329 352.1C94.9291 361.703 118.938 363.64 135.839 356.473C137.111 355.919 138.273 355.338 139.38 354.757C148.037 350.053 152.131 343.467 150.942 337.019Z"
          fill="#FFBC56"/>
    <path d="M94.0469 329.299C94.4618 329.106 94.8214 328.884 95.264 328.718C108.154 323.184 126.465 324.733 136.146 332.039C137.607 333.011 138.862 334.262 139.84 335.72C140.818 337.177 141.499 338.813 141.844 340.534C142.453 336.632 140.627 332.592 136.146 329.216C126.465 321.911 108.154 320.416 95.264 325.896L94.0469 326.477C86.5233 330.046 82.9828 335.36 83.7296 340.562C84.4488 336.439 87.9616 332.205 94.0469 329.299Z"
          fill="#EC8E41"/>
    <path d="M89.5363 349.028C98.8855 356.085 116.312 357.69 129.091 352.847L130.419 352.349C137.334 349.415 141.261 345.071 141.925 340.533C141.58 338.812 140.899 337.175 139.921 335.718C138.943 334.26 137.688 333.009 136.227 332.037C126.546 324.732 108.235 323.237 95.3449 328.716C94.9024 328.882 94.5429 329.104 94.128 329.298C87.9597 332.203 84.4467 336.299 83.8105 340.56C84.5389 344.023 86.5944 347.063 89.5363 349.028Z"
          fill="#FFD474"/>
    <path d="M140.237 323.9C127.015 316.207 105.44 315.073 89.8949 321.686C88.374 322.329 86.8959 323.069 85.4693 323.9L74.6816 329.961V338.982C74.8436 341.604 75.625 344.15 76.9618 346.411C78.2986 348.672 80.1526 350.583 82.3713 351.988C95.0675 361.563 119.049 363.472 135.922 356.277C145.908 352.043 151.163 345.54 151.163 338.982V329.49L140.237 323.9Z"
          fill="#EC8E41"/>
    <path d="M135.868 347.257C118.995 354.452 95.0138 352.515 82.3176 342.968C80.0989 341.563 78.2449 339.652 76.9081 337.391C75.5713 335.13 74.7899 332.584 74.6279 329.962V332.065C74.7899 334.687 75.5713 337.233 76.9081 339.494C78.2449 341.755 80.0989 343.666 82.3176 345.071C95.0138 354.618 118.995 356.555 135.868 349.36C145.854 345.126 151.109 338.623 151.109 332.065V329.962C151.109 336.437 145.854 342.996 135.868 347.257Z"
          fill="#FFD474"/>
    <path d="M150.942 327.885C150.798 327.055 150.576 326.239 150.278 325.45C149.218 322.849 147.571 320.529 145.465 318.671C144.837 318.075 144.172 317.521 143.473 317.01C130.777 307.408 106.796 305.471 89.8949 312.638C88.9268 313.053 88.014 313.496 87.1289 313.938C84.1721 315.387 81.4867 317.334 79.1903 319.694C78.5258 320.392 77.9068 321.131 77.3371 321.908C73.1051 327.941 73.7135 334.887 79.6882 340.753C80.4789 341.555 81.3296 342.295 82.2329 342.967C94.9291 352.542 118.938 354.507 135.839 347.339C137.111 346.786 138.273 346.205 139.38 345.624C148.037 340.919 152.131 334.333 150.942 327.885Z"
          fill="#FFBC56"/>
    <path d="M94.0469 320.138C94.4618 319.972 94.8214 319.751 95.264 319.585C108.154 314.05 126.465 315.6 136.146 322.906C137.607 323.878 138.862 325.129 139.84 326.586C140.818 328.044 141.499 329.68 141.844 331.401C142.453 327.499 140.627 323.459 136.146 320.083C126.465 312.777 108.154 311.283 95.264 316.762C94.8214 316.928 94.4618 317.15 94.0469 317.343C86.5233 320.913 82.9828 326.226 83.7296 331.429C84.4488 327.167 87.9616 323.072 94.0469 320.138Z"
          fill="#EC8E41"/>
    <path d="M89.5363 339.898C98.8855 346.954 116.312 348.559 129.091 343.716L130.419 343.218C137.334 340.285 141.261 335.94 141.925 331.402C141.58 329.681 140.899 328.045 139.921 326.587C138.943 325.13 137.688 323.879 136.227 322.907C126.546 315.601 108.235 314.107 95.3449 319.586C94.9024 319.752 94.5429 319.973 94.128 320.139C87.9597 323.073 84.4467 327.168 83.8105 331.43C84.5389 334.893 86.5944 337.933 89.5363 339.898Z"
          fill="#FFD474"/>
    <path d="M140.237 314.772C127.015 307.079 105.44 305.944 89.8949 312.558C88.374 313.201 86.8959 313.94 85.4693 314.772L74.6816 320.832V329.853C74.8436 332.475 75.625 335.021 76.9618 337.282C78.2986 339.543 80.1526 341.455 82.3713 342.859C95.0675 352.406 119.049 354.344 135.922 347.149C145.908 342.915 151.163 336.412 151.163 329.853V320.362L140.237 314.772Z"
          fill="#EC8E41"/>
    <path d="M135.868 338.125C118.995 345.32 95.0138 343.383 82.3176 333.836C80.0989 332.431 78.2449 330.519 76.9081 328.258C75.5713 325.997 74.7899 323.451 74.6279 320.829V322.933C74.7899 325.554 75.5713 328.1 76.9081 330.361C78.2449 332.622 80.0989 334.534 82.3176 335.939C95.0138 345.486 118.995 347.423 135.868 340.228C145.854 335.994 151.109 329.491 151.109 322.933V320.829C151.109 327.388 145.854 333.863 135.868 338.125Z"
          fill="#FFD474"/>
    <path d="M150.942 318.755C150.798 317.924 150.576 317.109 150.278 316.32C149.218 313.719 147.571 311.398 145.465 309.54C144.837 308.945 144.172 308.39 143.473 307.88C130.777 298.277 106.796 296.34 89.8949 303.508C88.9268 303.923 88.014 304.365 87.1289 304.808C84.1721 306.257 81.4867 308.204 79.1903 310.564C78.5258 311.261 77.9068 312.001 77.3371 312.778C73.1051 318.81 73.7135 325.756 79.6882 331.623C80.4789 332.424 81.3296 333.165 82.2329 333.837C94.9291 343.411 118.938 345.376 135.839 338.209C137.111 337.655 138.273 337.074 139.38 336.493C148.037 331.789 152.131 325.203 150.942 318.755Z"
          fill="#FFBC56"/>
    <path d="M94.0469 311.004C94.4618 310.838 94.8214 310.617 95.264 310.45C108.154 304.916 126.465 306.466 136.146 313.771C137.607 314.744 138.862 315.994 139.84 317.452C140.818 318.91 141.499 320.546 141.844 322.267C142.453 318.365 140.627 314.325 136.146 310.949C126.465 303.643 108.154 302.149 95.264 307.628C94.8214 307.794 94.4618 308.015 94.0469 308.209C86.5233 311.751 82.9828 317.092 83.7296 322.294C84.4488 318.033 87.9616 313.937 94.0469 311.004Z"
          fill="#EC8E41"/>
    <path d="M89.5363 330.902C98.8855 337.958 116.312 339.563 129.091 334.721L130.419 334.223C137.334 331.289 141.261 326.945 141.925 322.406C141.58 320.685 140.899 319.049 139.921 317.592C138.943 316.134 137.688 314.883 136.227 313.911C126.546 306.605 108.235 305.111 95.3449 310.59C94.9024 310.756 94.5429 310.978 94.128 311.144C87.9597 314.077 84.4467 318.172 83.8105 322.434C84.5389 325.897 86.5944 328.937 89.5363 330.902Z"
          fill="#FFD474"/>
    <path d="M140.237 305.637C127.015 297.916 105.44 296.809 89.8949 303.423C88.374 304.066 86.8959 304.805 85.4693 305.637L74.6816 311.697V320.718C74.8436 323.34 75.625 325.886 76.9618 328.147C78.2986 330.408 80.1526 332.32 82.3713 333.725C95.0675 343.272 119.049 345.209 135.922 338.014C145.908 333.78 151.163 327.277 151.163 320.718V311.227L140.237 305.637Z"
          fill="#EC8E41"/>
    <path d="M135.868 328.994C118.995 336.189 95.0138 334.252 82.3176 324.705C80.0989 323.3 78.2449 321.389 76.9081 319.128C75.5713 316.867 74.7899 314.321 74.6279 311.699V313.802C74.7899 316.424 75.5713 318.97 76.9081 321.231C78.2449 323.492 80.0989 325.403 82.3176 326.808C95.0138 336.355 118.995 338.292 135.868 331.097C145.854 326.836 151.109 320.36 151.109 313.802V311.699C151.109 318.257 145.854 324.733 135.868 328.994Z"
          fill="#FFD474"/>
    <path d="M150.942 309.622C150.798 308.791 150.576 307.975 150.278 307.186C149.218 304.585 147.571 302.265 145.465 300.407C144.837 299.812 144.172 299.257 143.473 298.746C130.777 289.144 106.796 287.207 89.8949 294.374C88.9268 294.789 88.014 295.232 87.1289 295.675C84.1721 297.123 81.4867 299.07 79.1903 301.431C78.5258 302.128 77.9068 302.867 77.3371 303.644C73.1051 309.677 73.7135 316.623 79.6882 322.489C80.486 323.283 81.3362 324.023 82.2329 324.703C94.9291 334.278 118.938 336.243 135.839 329.075C137.111 328.522 138.273 327.941 139.38 327.36C148.037 322.6 152.131 316.069 150.942 309.622Z"
          fill="#FFBC56"/>
    <path d="M94.0469 301.874C94.4618 301.708 94.8214 301.487 95.264 301.321C108.154 295.786 126.465 297.336 136.146 304.642C137.607 305.614 138.862 306.865 139.84 308.322C140.818 309.78 141.499 311.416 141.844 313.137C142.453 309.235 140.627 305.195 136.146 301.819C126.465 294.514 108.154 293.019 95.264 298.498C94.8214 298.664 94.4618 298.886 94.0469 299.08C86.5233 302.622 82.9828 307.962 83.7296 313.165C84.4488 308.903 87.9616 304.808 94.0469 301.874Z"
          fill="#EC8E41"/>
    <path d="M89.5363 321.634C98.8855 328.69 116.312 330.295 129.091 325.453L130.419 324.955C137.334 322.021 141.261 317.677 141.925 313.138C141.58 311.417 140.899 309.781 139.921 308.324C138.943 306.866 137.688 305.615 136.227 304.643C126.546 297.337 108.235 295.843 95.3449 301.322C94.9024 301.488 94.5429 301.71 94.128 301.876C87.9597 304.809 84.4467 308.904 83.8105 313.166C84.5389 316.629 86.5944 319.669 89.5363 321.634Z"
          fill="#FFD474"/>
    <path d="M140.237 296.506C127.015 288.786 105.44 287.679 89.8949 294.293C88.374 294.935 86.8959 295.675 85.4693 296.506L74.6816 302.567V311.533C74.8436 314.154 75.625 316.701 76.9618 318.962C78.2986 321.222 80.1526 323.134 82.3713 324.539C95.0675 334.086 119.049 336.023 135.922 328.828C145.908 324.594 151.163 318.091 151.163 311.533V302.041L140.237 296.506Z"
          fill="#EC8E41"/>
    <path d="M135.868 319.835C118.995 327.002 95.0138 325.093 82.3176 315.546C80.0989 314.141 78.2449 312.23 76.9081 309.969C75.5713 307.708 74.7899 305.161 74.6279 302.54V304.643C74.7899 307.265 75.5713 309.811 76.9081 312.072C78.2449 314.333 80.0989 316.244 82.3176 317.649C95.0138 327.196 118.995 329.133 135.868 321.938C145.854 317.676 151.109 311.201 151.109 304.643V302.54C151.109 309.126 145.854 315.601 135.868 319.835Z"
          fill="#FFD474"/>
    <path d="M150.942 300.463C150.798 299.632 150.576 298.817 150.278 298.028C149.218 295.427 147.571 293.107 145.465 291.248C144.838 290.644 144.172 290.08 143.473 289.56C130.777 279.986 106.796 278.048 89.8949 285.216C88.9268 285.631 88.014 286.074 87.1289 286.516C84.1721 287.965 81.4867 289.912 79.1903 292.272C78.5258 292.97 77.9068 293.709 77.3371 294.486C73.1051 300.519 73.7135 307.464 79.6882 313.331C80.486 314.125 81.3362 314.865 82.2329 315.545C94.9291 325.119 118.938 327.084 135.839 319.917C137.111 319.364 138.273 318.782 139.38 318.201C148.037 313.525 152.131 306.939 150.942 300.463Z"
          fill="#FFBC56"/>
    <path d="M94.0469 292.74C94.4618 292.574 94.8214 292.353 95.264 292.187C108.154 286.652 126.465 288.202 136.146 295.507C137.607 296.48 138.862 297.73 139.84 299.188C140.818 300.646 141.499 302.282 141.844 304.003C142.453 300.101 140.627 296.061 136.146 292.685C126.465 285.379 108.154 283.885 95.264 289.364C94.8214 289.53 94.4618 289.751 94.0469 289.945C86.5233 293.487 82.9828 298.828 83.7296 304.03C84.4488 299.769 87.9616 295.673 94.0469 292.74Z"
          fill="#EC8E41"/>
    <path d="M89.5363 312.5C98.8855 319.557 116.312 321.162 129.091 316.319L130.419 315.821C137.334 312.888 141.261 308.543 141.925 304.005C141.58 302.284 140.899 300.648 139.921 299.19C138.943 297.732 137.688 296.482 136.227 295.509C126.546 288.204 108.235 286.71 95.3449 292.189C94.9024 292.355 94.5429 292.576 94.128 292.742C87.9597 295.675 84.4467 299.771 83.8105 304.033C84.5389 307.496 86.5944 310.535 89.5363 312.5Z"
          fill="#FFD474"/>
    <path d="M140.237 287.373C127.015 279.652 105.44 278.545 89.8949 285.159C88.374 285.802 86.8959 286.541 85.4693 287.373L74.6816 293.433V302.454C74.8436 305.076 75.625 307.622 76.9618 309.883C78.2986 312.144 80.1526 314.056 82.3713 315.461C95.0675 325.008 119.049 326.945 135.922 319.75C145.908 315.516 151.163 309.013 151.163 302.454V292.963L140.237 287.373Z"
          fill="#EC8E41"/>
    <path d="M135.868 310.73C118.995 317.898 95.0138 315.988 82.3176 306.441C80.0989 305.036 78.2449 303.125 76.9081 300.864C75.5713 298.603 74.7899 296.057 74.6279 293.435V295.538C74.7899 298.16 75.5713 300.706 76.9081 302.967C78.2449 305.228 80.0989 307.14 82.3176 308.544C95.0138 318.091 118.995 320.028 135.868 312.834C145.854 308.572 151.109 302.097 151.109 295.538V293.435C151.109 299.994 145.854 306.469 135.868 310.73Z"
          fill="#FFD474"/>
    <path d="M150.942 291.361C150.798 290.53 150.576 289.714 150.278 288.926C149.218 286.324 147.571 284.004 145.465 282.146C144.838 281.541 144.172 280.978 143.473 280.458C130.777 270.883 106.796 268.946 89.8949 276.113C88.9268 276.528 88.014 276.971 87.1289 277.414C84.1795 278.863 81.4956 280.799 79.1903 283.142C78.532 283.855 77.9133 284.603 77.3371 285.383C73.1051 291.416 73.7135 298.362 79.6882 304.228C80.486 305.022 81.3362 305.762 82.2329 306.442C94.9291 316.017 118.938 317.982 135.839 310.815C137.111 310.261 138.273 309.68 139.38 309.099C148.037 304.394 152.131 297.698 150.942 291.361Z"
          fill="#FFBC56"/>
    <path d="M94.0469 283.612C94.4618 283.418 94.8214 283.224 95.264 283.058C108.154 277.524 126.465 279.073 136.146 286.379C137.607 287.351 138.862 288.602 139.84 290.059C140.818 291.517 141.499 293.153 141.844 294.874C142.453 290.972 140.627 286.932 136.146 283.556C126.465 276.251 108.154 274.756 95.264 280.235C94.8214 280.401 94.4618 280.623 94.0469 280.789C86.5233 284.359 82.9828 289.699 83.7296 294.902C84.4488 290.64 87.9616 286.628 94.0469 283.612Z"
          fill="#EC8E41"/>
    <path d="M89.5363 303.368C98.8855 310.425 116.312 312.029 129.091 307.187L130.419 306.689C137.334 303.755 141.261 299.411 141.925 294.872C141.58 293.151 140.899 291.515 139.921 290.058C138.943 288.6 137.688 287.349 136.227 286.377C126.546 279.071 108.235 277.577 95.3449 283.056C94.9024 283.222 94.5429 283.416 94.128 283.61C87.9597 286.543 84.4467 290.639 83.8105 294.9C84.5389 298.363 86.5944 301.403 89.5363 303.368Z"
          fill="#FFD474"/>
    <path d="M140.239 278.325C127.017 270.632 105.442 269.525 89.8966 276.139C88.3764 276.773 86.8982 277.503 85.471 278.325L74.6279 284.413V293.434C74.7899 296.056 75.5713 298.602 76.9081 300.863C78.2449 303.124 80.0989 305.036 82.3176 306.44C95.0138 315.987 118.995 317.924 135.868 310.73C145.854 306.468 151.109 299.993 151.109 293.434V283.86L140.239 278.325Z"
          fill="#EC8E41"/>
    <path d="M135.868 301.597C118.995 308.764 95.0138 306.855 82.3176 297.308C80.0989 295.903 78.2449 293.992 76.9081 291.731C75.5713 289.47 74.7899 286.924 74.6279 284.302V286.405C74.7899 289.027 75.5713 291.573 76.9081 293.834C78.2449 296.095 80.0989 298.006 82.3176 299.411C95.0138 308.958 118.995 310.895 135.868 303.7C145.854 299.439 151.109 292.963 151.109 286.405V284.302C151.109 290.86 145.854 297.336 135.868 301.597Z"
          fill="#FFD474"/>
    <path d="M150.942 282.225C150.798 281.394 150.576 280.579 150.278 279.79C149.218 277.189 147.571 274.869 145.465 273.01C144.838 272.406 144.172 271.842 143.473 271.322C130.777 261.748 106.796 259.811 89.8949 266.978C88.9268 267.393 88.014 267.836 87.1289 268.278C84.1795 269.727 81.4956 271.664 79.1903 274.007C78.532 274.719 77.9133 275.467 77.3371 276.248C73.1051 282.281 73.7135 289.227 79.6882 295.093C80.486 295.887 81.3362 296.627 82.2329 297.307C94.9291 306.882 118.938 308.846 135.839 301.679C137.111 301.126 138.273 300.545 139.38 299.936C148.037 295.259 152.131 288.673 150.942 282.225Z"
          fill="#FFBC56"/>
    <path d="M94.0469 274.478C94.4618 274.284 94.8214 274.091 95.264 273.925C108.154 268.39 126.465 269.94 136.146 277.245C137.607 278.218 138.862 279.468 139.84 280.926C140.818 282.384 141.499 284.02 141.844 285.741C142.453 281.839 140.627 277.799 136.146 274.423C126.465 267.117 108.154 265.623 95.264 271.102C94.8214 271.268 94.4618 271.49 94.0469 271.656C86.5233 275.225 82.9828 280.566 83.7296 285.769C84.4488 281.507 87.9616 277.411 94.0469 274.478Z"
          fill="#EC8E41"/>
    <path d="M89.5363 294.238C98.8855 301.294 116.312 302.899 129.091 298.056L130.419 297.558C137.334 294.625 141.261 290.28 141.925 285.742C141.58 284.021 140.899 282.385 139.921 280.927C138.943 279.47 137.688 278.219 136.227 277.247C126.546 269.941 108.235 268.447 95.3449 273.926C94.9024 274.092 94.5429 274.286 94.128 274.479C87.9597 277.413 84.4467 281.508 83.8105 285.77C84.5389 289.233 86.5944 292.273 89.5363 294.238Z"
          fill="#FFD474"/>
    <path d="M140.239 269.083C127.017 261.39 105.442 260.283 89.8966 266.897C88.3764 267.531 86.8982 268.261 85.471 269.083L74.6279 275.171V284.192C74.7899 286.814 75.5713 289.36 76.9081 291.621C78.2449 293.882 80.0989 295.794 82.3176 297.198C95.0138 306.745 118.995 308.682 135.868 301.487C145.854 297.226 151.109 290.751 151.109 284.192V274.673L140.239 269.083Z"
          fill="#EC8E41"/>
    <path d="M135.868 292.465C118.995 299.632 95.0138 297.723 82.3176 288.175C80.0989 286.771 78.2449 284.859 76.9081 282.598C75.5713 280.337 74.7899 277.791 74.6279 275.169V277.272C74.7899 279.894 75.5713 282.44 76.9081 284.701C78.2449 286.962 80.0989 288.874 82.3176 290.279C95.0138 299.826 118.995 301.763 135.868 294.568C145.854 290.306 151.109 283.831 151.109 277.272V275.169C151.109 281.728 145.854 288.203 135.868 292.465Z"
          fill="#FFD474"/>
    <path d="M150.942 273.097C150.798 272.266 150.576 271.45 150.278 270.662C149.218 268.061 147.571 265.74 145.465 263.882C144.838 263.278 144.172 262.714 143.473 262.194C130.777 252.619 106.796 250.682 89.8949 257.849C88.9268 258.264 88.014 258.707 87.1289 259.15C84.1795 260.599 81.4956 262.536 79.1903 264.878C78.532 265.591 77.9133 266.339 77.3371 267.12C73.1051 273.152 73.7135 280.098 79.6882 285.965C80.486 286.759 81.3362 287.498 82.2329 288.178C94.9291 297.753 118.938 299.718 135.839 292.551C137.111 291.997 138.273 291.416 139.38 290.807C148.037 286.131 152.131 279.545 150.942 273.097Z"
          fill="#FFBC56"/>
    <path d="M94.0469 265.348C94.4618 265.154 94.8214 264.96 95.264 264.794C108.154 259.26 126.465 260.809 136.146 268.115C137.607 269.087 138.862 270.338 139.84 271.796C140.818 273.253 141.499 274.889 141.844 276.61C142.453 272.709 140.627 268.668 136.146 265.292C126.465 257.987 108.154 256.492 95.264 261.972C94.8214 262.138 94.4618 262.359 94.0469 262.525C86.5233 266.095 82.9828 271.436 83.7296 276.638C84.4488 272.377 87.9616 268.281 94.0469 265.348Z"
          fill="#EC8E41"/>
    <path d="M89.5363 285.104C98.8855 292.161 116.312 293.766 129.091 288.923L130.419 288.425C137.334 285.492 141.261 281.147 141.925 276.609C141.58 274.888 140.899 273.252 139.921 271.794C138.943 270.336 137.688 269.086 136.227 268.113C126.546 260.808 108.235 259.313 95.3449 264.793C94.9024 264.959 94.5429 265.152 94.128 265.346C87.9597 268.279 84.4467 272.375 83.8105 276.636C84.5389 280.099 86.5944 283.139 89.5363 285.104Z"
          fill="#FFD474"/>
    <path d="M140.239 259.95C127.017 252.257 105.442 251.15 89.8966 257.763C88.3764 258.397 86.8982 259.127 85.471 259.95L74.6279 266.037V275.059C74.7899 277.681 75.5713 280.227 76.9081 282.488C78.2449 284.749 80.0989 286.66 82.3176 288.065C95.0138 297.612 118.995 299.549 135.868 292.354C145.854 288.093 151.109 281.617 151.109 275.059V265.539L140.239 259.95Z"
          fill="#EC8E41"/>
    <path d="M135.868 283.334C118.995 290.501 95.0138 288.592 82.3176 279.045C80.0989 277.64 78.2449 275.729 76.9081 273.468C75.5713 271.207 74.7899 268.661 74.6279 266.039V268.142C74.7899 270.764 75.5713 273.31 76.9081 275.571C78.2449 277.832 80.0989 279.743 82.3176 281.148C95.0138 290.695 118.995 292.632 135.868 285.437C145.854 281.176 151.109 274.7 151.109 268.142V266.039C151.109 272.597 145.854 279.073 135.868 283.334Z"
          fill="#FFD474"/>
    <path d="M150.942 263.962C150.798 263.131 150.576 262.315 150.278 261.526C149.218 258.925 147.571 256.605 145.465 254.747C144.838 254.142 144.172 253.578 143.473 253.059C130.777 243.484 106.796 241.547 89.8949 248.714C88.9268 249.129 88.014 249.572 87.1289 250.015C84.1795 251.464 81.4956 253.4 79.1903 255.743C78.532 256.455 77.9133 257.204 77.3371 257.984C73.1051 264.017 73.7135 270.963 79.6882 276.829C80.486 277.623 81.3362 278.363 82.2329 279.043C94.9291 288.618 118.938 290.583 135.839 283.388C137.05 282.883 138.232 282.31 139.38 281.672C148.037 276.995 152.131 270.409 150.942 263.962Z"
          fill="#FFBC56"/>
    <path d="M94.0469 256.186C94.4618 255.993 94.8214 255.799 95.264 255.633C108.154 250.098 126.465 251.648 136.146 258.954C137.607 259.926 138.862 261.177 139.84 262.634C140.818 264.092 141.499 265.728 141.844 267.449C142.453 263.547 140.627 259.507 136.146 256.131C126.465 248.826 108.154 247.331 95.264 252.81C94.8214 252.976 94.4618 253.17 94.0469 253.364C86.5233 256.934 82.9828 262.274 83.7296 267.477C84.4488 263.243 87.9616 259.147 94.0469 256.186Z"
          fill="#EC8E41"/>
    <path d="M89.5363 275.974C98.8855 283.03 116.312 284.635 129.091 279.793L130.419 279.294C137.334 276.361 141.261 272.017 141.925 267.478C141.58 265.757 140.899 264.121 139.921 262.663C138.943 261.206 137.688 259.955 136.227 258.983C126.546 251.677 108.235 250.183 95.3449 255.662C94.9024 255.828 94.5429 256.022 94.128 256.215C87.9597 259.149 84.4467 263.244 83.8105 267.506C84.5389 270.969 86.5944 274.009 89.5363 275.974Z"
          fill="#FFD474"/>
    <path d="M140.239 250.818C127.017 243.125 105.442 241.99 89.8966 248.632C88.3764 249.266 86.8982 249.996 85.471 250.818L74.6279 256.906V265.927C74.7899 268.549 75.5713 271.095 76.9081 273.356C78.2449 275.617 80.0989 277.529 82.3176 278.933C95.0138 288.48 118.995 290.417 135.868 283.223C145.854 278.961 151.109 272.486 151.109 265.927V256.408L140.239 250.818Z"
          fill="#EC8E41"/>
    <path d="M135.868 274.201C118.995 281.369 95.0138 279.459 82.3176 269.912C80.0989 268.507 78.2449 266.596 76.9081 264.335C75.5713 262.074 74.7899 259.528 74.6279 256.906V258.954C74.7899 261.576 75.5713 264.122 76.9081 266.383C78.2449 268.644 80.0989 270.555 82.3176 271.96C95.0138 281.507 118.995 283.444 135.868 276.249C145.854 271.988 151.109 265.512 151.109 258.954V256.851C151.109 263.464 145.854 270.023 135.868 274.201Z"
          fill="#FFD474"/>
    <path d="M150.942 254.83C150.798 254 150.576 253.184 150.278 252.395C149.218 249.794 147.571 247.474 145.465 245.616C144.838 245.011 144.172 244.447 143.473 243.928C130.777 234.353 106.796 232.388 89.8949 239.583C88.9268 239.97 88.014 240.441 87.1289 240.884C84.1795 242.333 81.4956 244.269 79.1903 246.612C78.532 247.324 77.9133 248.073 77.3371 248.853C73.1051 254.858 73.7135 261.832 79.6882 267.698C80.4931 268.485 81.3428 269.224 82.2329 269.912C94.9291 279.487 118.938 281.451 135.839 274.257C137.05 273.751 138.232 273.179 139.38 272.541C148.037 267.864 152.131 261.278 150.942 254.83Z"
          fill="#FFBC56"/>
    <path d="M94.0469 247.082C94.4618 246.888 94.8214 246.694 95.264 246.528C108.154 240.994 126.465 242.544 136.146 249.849C137.607 250.822 138.862 252.072 139.84 253.53C140.818 254.988 141.499 256.624 141.844 258.345C142.453 254.443 140.627 250.403 136.146 247.027C126.465 239.721 108.154 238.227 95.264 243.706C94.8214 243.872 94.4618 244.066 94.0469 244.259C86.5233 247.829 82.9828 253.142 83.7296 258.372C84.4488 254.111 87.9616 250.015 94.0469 247.082Z"
          fill="#EC8E41"/>
    <path d="M89.5363 266.84C98.8855 273.897 116.312 275.502 129.091 270.659L130.419 270.161C137.334 267.228 141.261 262.855 141.925 258.345C141.58 256.624 140.899 254.988 139.921 253.53C138.943 252.072 137.688 250.822 136.227 249.849C126.546 242.544 108.235 241.049 95.3449 246.529C94.9024 246.695 94.5429 246.888 94.128 247.082C87.9597 250.015 84.4467 254.111 83.8105 258.372C84.5389 261.836 86.5944 264.875 89.5363 266.84Z"
          fill="#FFD474"/>
    <path d="M140.237 241.77C127.015 234.077 105.44 232.943 89.8949 239.584C88.3747 240.218 86.8966 240.948 85.4693 241.77L74.6816 247.886V256.88C74.8393 259.506 75.6188 262.058 76.9557 264.324C78.2927 266.59 80.1489 268.506 82.3713 269.913C95.0675 279.46 119.049 281.37 135.922 274.203C145.908 269.941 151.163 263.466 151.163 256.88V247.388L140.237 241.77Z"
          fill="#EC8E41"/>
    <path d="M135.867 265.124C118.994 272.319 95.0121 270.409 82.316 260.835C80.1147 259.429 78.276 257.524 76.9495 255.273C75.6229 253.023 74.846 250.491 74.6816 247.884V249.959C74.8393 252.586 75.6188 255.138 76.9557 257.404C78.2927 259.67 80.1489 261.586 82.3713 262.993C95.0675 272.54 119.049 274.449 135.922 267.255C145.908 263.021 151.163 256.545 151.163 249.959V247.884C151.108 254.387 145.852 260.89 135.867 265.124Z"
          fill="#FFD474"/>
    <path d="M150.942 245.781C150.798 244.941 150.576 244.116 150.278 243.318C149.21 240.729 147.563 238.42 145.465 236.566C144.838 235.962 144.172 235.398 143.473 234.878C130.777 225.303 106.796 223.338 89.8949 230.533C88.9268 230.921 88.014 231.363 87.1289 231.806C84.178 233.265 81.4942 235.21 79.1903 237.562C78.5187 238.263 77.8994 239.012 77.3371 239.804C73.1051 245.808 73.7135 252.754 79.6882 258.649C80.4931 259.435 81.3428 260.174 82.2329 260.862C94.9291 270.437 118.938 272.374 135.839 265.207C137.05 264.702 138.232 264.129 139.38 263.491C148.037 258.787 152.131 252.229 150.942 245.781Z"
          fill="#FFBC56"/>
    <path d="M94.0469 238.034L95.264 237.453C108.154 231.918 126.465 233.468 136.146 240.773C139.098 242.748 141.147 245.813 141.844 249.296C142.453 245.367 140.627 241.354 136.146 237.951C126.465 230.645 108.154 229.178 95.264 234.63L94.0469 235.211C86.5233 238.781 82.9828 244.094 83.7296 249.324C84.4488 245.118 87.9616 240.939 94.0469 238.034Z"
          fill="#EC8E41"/>
    <path d="M89.5363 257.765C98.8855 264.849 116.312 266.426 129.091 261.584C129.533 261.417 129.976 261.279 130.419 261.085C137.334 258.152 141.261 253.808 141.925 249.297C141.228 245.813 139.179 242.748 136.227 240.774C126.546 233.468 108.235 231.974 95.3449 237.453L94.128 238.034C87.9597 240.94 84.4467 245.063 83.8105 249.325C84.5344 252.782 86.5918 255.815 89.5363 257.765Z"
          fill="#FFD474"/>
    <path d="M57.8581 319.668C44.581 327.305 32.9637 345.431 30.8062 362.228C30.6126 363.863 30.5111 365.508 30.502 367.154V379.579L38.3298 384.09C40.6808 385.259 43.2757 385.854 45.9011 385.825C48.5266 385.796 51.1077 385.144 53.4325 383.924C68.0372 377.67 81.6739 357.856 83.859 339.647C85.1591 328.883 82.1716 321.079 76.5012 317.814L68.2031 313.054L57.8581 319.668Z"
          fill="#EC8E41"/>
    <path d="M75.8984 335.138C73.7132 353.346 60.0766 373.16 45.4718 379.414C43.1471 380.635 40.5659 381.286 37.9405 381.315C35.3151 381.344 32.7202 380.749 30.3691 379.58L32.1948 380.631C34.5459 381.801 37.1406 382.396 39.766 382.367C42.3915 382.338 44.9726 381.686 47.2974 380.465C61.9021 374.211 75.5388 354.398 77.7239 336.189C79.0516 325.397 76.0644 317.593 70.3663 314.328L68.5408 313.276C74.2389 316.542 77.2261 324.345 75.8984 335.138Z"
          fill="#FFD474"/>
    <path d="M66.6613 312.391C65.8713 312.104 65.0564 311.891 64.2272 311.754C61.4384 311.369 58.5984 311.634 55.9291 312.529C55.1021 312.78 54.2897 313.075 53.4951 313.415C38.8627 319.641 25.1984 339.482 23.0685 357.691C23.0685 358.742 22.8748 359.738 22.8195 360.735C22.6178 364.016 22.9636 367.308 23.8429 370.475C24.1064 371.425 24.4487 372.35 24.8663 373.243C27.9367 379.912 34.2709 382.873 42.3478 380.604C43.4351 380.317 44.4987 379.947 45.5288 379.497C60.1613 373.27 73.8532 353.457 75.9554 335.221C76.1135 333.916 76.2057 332.605 76.2319 331.291C76.5086 321.412 72.802 314.66 66.6613 312.391Z"
          fill="#FFBC56"/>
    <path d="M31.6175 357.774C31.6175 357.331 31.6175 356.889 31.6175 356.446C33.3048 342.609 43.7329 327.417 54.8801 322.658C58.0631 321.077 61.7415 320.818 65.1143 321.938C62.0163 319.475 57.6184 319.171 52.4459 321.246C41.3817 326.006 30.8706 341.115 29.1556 355.034C29.1556 355.477 29.1556 355.92 29.1556 356.363C28.4918 364.665 31.3132 370.448 36.2367 372.33C32.8621 369.646 31.0643 364.582 31.6175 357.774Z"
          fill="#EC8E41"/>
    <path d="M46.4128 371.608C57.2004 367.014 67.2964 352.735 69.4816 339.203C69.4816 338.76 69.6476 338.29 69.7029 337.819C70.6157 330.376 68.7901 324.786 65.2219 321.935C61.8491 320.815 58.1705 321.074 54.9875 322.655C43.9233 327.415 33.4122 342.524 31.7249 356.443C31.7249 356.886 31.7249 357.329 31.7249 357.771C31.1717 364.579 32.9697 369.671 36.3443 372.327C39.665 373.417 43.2806 373.158 46.4128 371.608Z"
          fill="#FFD474"/>
    <path d="M202.552 387.467C189.248 379.913 167.673 379.027 152.183 385.807C150.667 386.453 149.198 387.202 147.785 388.048L136.997 394.247V403.268C137.184 405.886 137.988 408.422 139.344 410.668C140.7 412.914 142.569 414.807 144.797 416.191C157.604 425.6 181.613 427.26 198.403 419.899C208.333 415.555 213.534 409.024 213.478 402.438V392.946L202.552 387.467Z"
          fill="#EC8E41"/>
    <path d="M198.431 410.877C181.613 418.237 157.632 416.577 144.825 407.168C142.591 405.787 140.717 403.896 139.356 401.649C137.995 399.403 137.187 396.865 136.997 394.245V396.348C137.187 398.968 137.995 401.506 139.356 403.752C140.717 405.999 142.591 407.891 144.825 409.272C157.604 418.68 181.613 420.341 198.403 412.98C208.361 408.635 213.534 402.104 213.478 395.518V393.415C213.561 400.084 208.361 406.532 198.431 410.877Z"
          fill="#FFD474"/>
    <path d="M213.287 391.369C213.138 390.536 212.906 389.72 212.596 388.933C211.529 386.338 209.86 384.033 207.728 382.209C207.101 381.612 206.436 381.058 205.736 380.549C192.929 371.112 168.92 369.48 152.075 376.757C151.134 377.172 150.221 377.615 149.309 378.086C146.368 379.569 143.702 381.544 141.425 383.925C140.754 384.619 140.144 385.369 139.6 386.166C135.423 392.226 136.115 399.172 142.172 404.983C142.97 405.769 143.821 406.499 144.717 407.17C157.524 416.606 181.533 418.239 198.378 410.961C199.579 410.432 200.752 409.84 201.891 409.19C210.549 404.43 214.477 397.789 213.287 391.369Z"
          fill="#FFBC56"/>
    <path d="M156.419 384.228C156.806 384.035 157.194 383.813 157.609 383.647C170.443 378.113 188.754 379.33 198.519 386.415C199.994 387.37 201.267 388.607 202.264 390.056C203.26 391.504 203.962 393.135 204.327 394.855C204.88 390.953 203.027 386.94 198.491 383.592C188.727 376.397 170.415 375.096 157.581 380.825C157.166 380.991 156.779 381.212 156.364 381.406C148.896 385.059 145.3 390.399 146.213 395.602C146.793 391.34 150.279 387.217 156.419 384.228Z"
          fill="#EC8E41"/>
    <path d="M152.132 404.012C161.564 410.986 178.99 412.314 191.742 407.416L193.042 406.89C199.929 403.874 203.802 399.502 204.438 394.964C204.072 393.244 203.371 391.613 202.374 390.164C201.377 388.716 200.105 387.479 198.629 386.523C188.865 379.329 170.554 378.028 157.719 383.756C157.304 383.922 156.917 384.144 156.53 384.337C150.389 387.326 146.904 391.449 146.323 395.711C147.106 399.129 149.19 402.107 152.132 404.012Z"
          fill="#FFD474"/>
    <defs>
        <linearGradient id="paint0_linear" x1="59.3327" y1="368.204" x2="244.714" y2="368.204"
                        gradientUnits="userSpaceOnUse">
            <stop offset="0.01" stop-color="#DBE0FF"/>
            <stop offset="0.69" stop-color="#F1F4FD"/>
            <stop offset="1" stop-color="#FCFDFF"/>
        </linearGradient>
    </defs>
</svg>
