<svg width="321" height="138" viewBox="0 0 321 138" fill="none" xmlns="http://www.w3.org/2000/svg">
<g clip-path="url(#clip0_4591_16735)">
<path d="M69.75 138C107.858 138 138.75 107.108 138.75 69C138.75 30.8924 107.858 0 69.75 0C31.6424 0 0.75 30.8924 0.75 69C0.75 107.108 31.6424 138 69.75 138Z" fill="#F0F0F0"/>
<path d="M66.75 69.0001H138.75C138.75 62.7723 137.92 56.7391 136.373 51H66.75V69.0001Z" fill="#D80027"/>
<path d="M66.75 33.0001H128.623C124.399 26.1076 118.998 20.0154 112.701 15H66.75V33.0001Z" fill="#D80027"/>
<path d="M69.7503 138C85.9892 138 100.915 132.387 112.702 123H26.7988C38.5854 132.387 53.5113 138 69.7503 138Z" fill="#D80027"/>
<path d="M10.8773 105H128.623C132.014 99.4669 134.643 93.4186 136.373 87H3.12695C4.85654 93.4186 7.48635 99.4669 10.8773 105Z" fill="#D80027"/>
<path d="M32.7121 10.7753H39L33.1512 15.0245L35.3853 21.9L29.5367 17.6508L23.6882 21.9L25.618 15.9603C20.4684 20.2499 15.9548 25.2756 12.2353 30.8753H14.25L10.527 33.5801C9.94695 34.5477 9.39063 35.5307 8.8575 36.5282L10.6353 42L7.31848 39.5901C6.49398 41.3369 5.73983 43.1231 5.06196 44.9465L7.02064 50.9754H14.25L8.40118 55.2245L10.6353 62.1L4.78677 57.8508L1.2834 60.3963C0.932742 63.215 0.75 66.0861 0.75 69H69.75C69.75 30.8926 69.75 26.4 69.75 0C56.1193 0 43.4128 3.95402 32.7121 10.7753ZM35.3853 62.1L29.5367 57.8508L23.6882 62.1L25.9223 55.2245L20.0735 50.9754H27.3029L29.5367 44.0999L31.7706 50.9754H39L33.1512 55.2245L35.3853 62.1ZM33.1512 35.1245L35.3853 42L29.5367 37.7508L23.6882 42L25.9223 35.1245L20.0735 30.8753H27.3029L29.5367 23.9999L31.7706 30.8753H39L33.1512 35.1245ZM60.1353 62.1L54.2867 57.8508L48.4382 62.1L50.6723 55.2245L44.8235 50.9754H52.0528L54.2867 44.0999L56.5206 50.9754H63.75L57.9011 55.2245L60.1353 62.1ZM57.9011 35.1245L60.1353 42L54.2867 37.7508L48.4382 42L50.6723 35.1245L44.8235 30.8753H52.0528L54.2867 23.9999L56.5206 30.8753H63.75L57.9011 35.1245ZM57.9011 15.0245L60.1353 21.9L54.2867 17.6508L48.4382 21.9L50.6723 15.0245L44.8235 10.7753H52.0528L54.2867 3.89985L56.5206 10.7753H63.75L57.9011 15.0245Z" fill="#0052B4"/>
</g>
<g clip-path="url(#clip1_4591_16735)">
<path d="M160.75 138C198.858 138 229.75 107.108 229.75 69C229.75 30.8924 198.858 0 160.75 0C122.642 0 91.75 30.8924 91.75 69C91.75 107.108 122.642 138 160.75 138Z" fill="url(#paint0_linear_4591_16735)"/>
<path d="M183.372 66.9424C187.725 72.7511 174.979 83.9796 177.843 79.342H150.693C147.756 75.5012 145.736 71.3007 144.766 66.9424H183.372Z" fill="url(#paint1_linear_4591_16735)"/>
<path d="M175.503 100.413C171.644 103.489 167.473 106.151 163.058 108.353L160.898 109.441L158.726 108.358C138.299 98.1075 126.113 80.4518 126.113 61.103V38.3857H138.571V61.103C138.569 62.5521 138.667 63.9995 138.864 65.4351C140.433 77.1899 148.367 88.0339 160.852 95.3354C160.863 95.3466 160.877 95.3559 160.891 95.3632C160.904 95.3559 160.911 95.3486 160.925 95.3427L160.977 95.3091C165.49 97.8328 170.403 99.5594 175.503 100.413Z" fill="url(#paint2_linear_4591_16735)"/>
<path d="M195.297 66.9424C194.721 71.4326 193.489 75.8141 191.642 79.9473C188.227 87.6216 182.738 94.6058 175.508 100.416C170.412 99.5615 165.5 97.8349 160.99 95.312C162.619 94.3515 164.199 93.3092 165.723 92.189C165.875 92.0906 166.021 91.9842 166.161 91.8703C174.6 85.7934 180.68 76.9872 183.371 66.9424H195.297Z" fill="url(#paint3_linear_4591_16735)"/>
<path d="M195.684 38.3906L138.572 38.3906V50.8429L195.684 50.8429V38.3906Z" fill="url(#paint4_linear_4591_16735)"/>
<path d="M195.683 50.8428V61.1034C195.683 61.5274 195.67 61.9529 195.657 62.3783H183.191C183.204 61.9524 183.21 61.5274 183.21 61.1034V50.8428H195.683Z" fill="url(#paint5_linear_4591_16735)"/>
</g>
<path d="M251.75 0C213.701 0 182.75 30.9519 182.75 69C182.75 107.048 213.701 138 251.75 138C289.795 138 320.75 107.044 320.75 69C320.75 30.9561 289.795 0 251.75 0ZM257.852 130.79C215.313 135.045 180.308 95.9035 191.88 52.3927C194.651 42.1232 200.058 32.771 207.556 25.2782C215.083 17.7594 224.428 12.3546 234.666 9.59963C278.173 -1.97143 317.316 33.0246 313.069 75.5644C310.179 104.494 286.784 127.894 257.852 130.786V130.79ZM267.116 40.1884H292.329L263.988 103.19V103.08L238.85 103.059L223.321 68.5525H248.387L251.381 75.2013L267.116 40.1884ZM250.695 53.752H213.043L210.287 47.5887H214.186L210.857 40.1884H235.538L238.867 47.5845H253.48L250.695 53.752ZM246.624 64.8545H217.135L214.371 58.6869H249.384L246.619 64.8503L246.624 64.8545Z" fill="#ED0A4B"/>
<defs>
<linearGradient id="paint0_linear_4591_16735" x1="229.75" y1="6.49911e-06" x2="64.6178" y2="52.2489" gradientUnits="userSpaceOnUse">
<stop stop-color="#000756"/>
<stop offset="1" stop-color="#0042B8"/>
</linearGradient>
<linearGradient id="paint1_linear_4591_16735" x1="195.955" y1="80.9371" x2="148.45" y2="68.134" gradientUnits="userSpaceOnUse">
<stop offset="0.14" stop-color="#ADADAD"/>
<stop offset="0.29" stop-color="#CBCBCB"/>
<stop offset="0.43" stop-color="#E2E2E2"/>
<stop offset="0.59" stop-color="#F2F2F2"/>
<stop offset="0.77" stop-color="#FCFCFC"/>
<stop offset="1" stop-color="white"/>
</linearGradient>
<linearGradient id="paint2_linear_4591_16735" x1="178.415" y1="121.503" x2="111.265" y2="27.8458" gradientUnits="userSpaceOnUse">
<stop stop-color="#ADADAD"/>
<stop offset="0.17" stop-color="#CBCBCB"/>
<stop offset="0.34" stop-color="#E2E2E2"/>
<stop offset="0.52" stop-color="#F2F2F2"/>
<stop offset="0.73" stop-color="#FCFCFC"/>
<stop offset="1" stop-color="white"/>
</linearGradient>
<linearGradient id="paint3_linear_4591_16735" x1="161.764" y1="107.329" x2="193.658" y2="66.8985" gradientUnits="userSpaceOnUse">
<stop offset="0.15" stop-color="#ADADAD"/>
<stop offset="0.29" stop-color="#CBCBCB"/>
<stop offset="0.44" stop-color="#E2E2E2"/>
<stop offset="0.6" stop-color="#F2F2F2"/>
<stop offset="0.77" stop-color="#FCFCFC"/>
<stop offset="1" stop-color="white"/>
</linearGradient>
<linearGradient id="paint4_linear_4591_16735" x1="133.082" y1="76.9609" x2="160.037" y2="51.3561" gradientUnits="userSpaceOnUse">
<stop offset="0.14" stop-color="#ADADAD"/>
<stop offset="0.43" stop-color="#C9C9C9"/>
<stop offset="1" stop-color="white"/>
</linearGradient>
<linearGradient id="paint5_linear_4591_16735" x1="189.437" y1="44.3071" x2="189.437" y2="62.3783" gradientUnits="userSpaceOnUse">
<stop offset="0.0895638" stop-color="#ADADAD"/>
<stop offset="0.240189" stop-color="#CBCBCB"/>
<stop offset="0.425047" stop-color="#E2E2E2"/>
<stop offset="0.536875" stop-color="#F2F2F2"/>
<stop offset="1" stop-color="white"/>
</linearGradient>
<clipPath id="clip0_4591_16735">
<rect x="0.75" width="138" height="138" rx="69" fill="white"/>
</clipPath>
<clipPath id="clip1_4591_16735">
<rect x="91.75" width="138" height="138" rx="69" fill="white"/>
</clipPath>
</defs>
</svg>
