<svg width="400" height="400" viewBox="0 0 400 400" fill="none" xmlns="http://www.w3.org/2000/svg">
<path d="M200 0C89.7117 0 9.39315e-06 89.7155 2.09398e-05 200C3.24865e-05 310.285 89.7117 400 200 400C310.276 400 400 310.272 400 200C400 89.7278 310.276 0 200 0ZM217.687 379.101C94.3855 391.435 -7.07736 277.981 26.4644 151.863C34.4963 122.096 50.1687 94.9884 71.9029 73.2701C93.7182 51.4766 120.807 35.8103 150.483 27.825C276.589 -5.71429 390.046 95.7235 377.736 219.027C369.36 302.882 301.548 370.707 217.687 379.088L217.687 379.101ZM244.54 116.488H317.621L235.472 299.101L235.472 298.783L162.61 298.721L117.596 198.703L190.252 198.703L198.932 217.975L244.54 116.488ZM196.941 155.803L87.8058 155.803L79.8179 137.938H91.1199L81.4689 116.488H153.008L162.659 137.926H205.014L196.941 155.803ZM185.141 187.984L99.6662 187.984L91.654 170.107L193.141 170.107L185.129 187.972L185.141 187.984Z" fill="#ED0A4B"/>
</svg>
