<svg width="120" height="120" viewBox="0 0 120 120" fill="none" xmlns="http://www.w3.org/2000/svg">
<path d="M60 0C26.9135 0 2.81794e-06 26.9147 6.28195e-06 60C9.74596e-06 93.0854 26.9135 120 60 120C93.0829 120 120 93.0817 120 60C120 26.9183 93.0829 0 60 0ZM65.3062 113.73C28.3156 117.43 -2.12321 83.3943 7.93931 45.5589C10.3489 36.6288 15.0506 28.4965 21.5709 21.981C28.1155 15.443 36.2421 10.7431 45.1448 8.34751C82.9766 -1.71429 117.014 28.717 113.321 65.7082C110.808 90.8645 90.4644 111.212 65.3062 113.727L65.3062 113.73ZM73.3621 34.9465H95.2862L70.6416 89.7302L70.6416 89.6348L48.783 89.6164L35.2789 59.6109H57.0756L59.6795 65.3925L73.3621 34.9465ZM59.0823 46.7409L26.3417 46.7409L23.9454 41.3815H27.336L24.4407 34.9465L45.9023 34.9465L48.7976 41.3778H61.5041L59.0823 46.7409ZM55.5423 56.3952L29.8999 56.3952L27.4962 51.0321L57.9423 51.0321L55.5387 56.3916L55.5423 56.3952Z" fill="#ED0A4B"/>
</svg>
