<svg width="400" height="400" viewBox="0 0 400 400" fill="none" xmlns="http://www.w3.org/2000/svg">
    <g clip-path="url(#clip0)">
        <path d="M109.663 195.982C108.809 210.809 120.223 223.502 135.049 224.356C135.583 224.356 136.116 224.356 136.649 224.356C151.583 224.356 163.636 212.302 163.529 197.369C163.529 182.436 151.476 170.382 136.543 170.489C122.249 170.489 110.409 181.689 109.663 195.982Z" fill="#0033AD"/>
        <path d="M9.18228 189.05C4.38228 188.73 0.222281 192.464 0.00894775 197.264C-0.204385 202.064 3.42228 206.224 8.22228 206.437C13.0223 206.757 17.0756 203.024 17.3956 198.224C17.7156 193.424 13.9823 189.37 9.18228 189.05Z" fill="#0033AD"/>
        <path d="M107.955 39.6089C112.222 37.4756 113.928 32.1423 111.795 27.8756C109.662 23.6089 104.328 21.9023 100.062 24.0356C95.795 26.1689 94.0883 31.3956 96.2216 35.6623C98.355 40.0356 103.582 41.849 107.955 39.6089C107.848 39.6089 107.955 39.6089 107.955 39.6089Z" fill="#0033AD"/>
        <path d="M135.262 87.2903C141.876 83.9836 144.542 75.8769 141.236 69.2636C137.929 62.6503 129.822 59.9836 123.209 63.2903C116.596 66.5969 113.929 74.7036 117.236 81.3169C120.542 87.9303 128.649 90.5969 135.262 87.2903Z" fill="#0033AD"/>
        <path d="M43.3156 120.035C48.4356 123.342 55.2623 121.955 58.6756 116.835C61.9823 111.715 60.5956 104.889 55.4756 101.475C50.3556 98.1686 43.529 99.5553 40.1156 104.675C36.7023 109.795 38.1956 116.729 43.3156 120.035Z" fill="#0033AD"/>
        <path d="M59.6356 184.249C52.1689 183.823 45.8756 189.476 45.4489 196.943C45.0222 204.409 50.6756 210.703 58.1423 211.129C65.6089 211.556 71.9023 205.903 72.3289 198.436C72.7556 191.076 67.1022 184.676 59.6356 184.249Z" fill="#0033AD"/>
        <path d="M44.8088 274.595C39.3688 277.368 37.1288 283.981 39.9022 289.528C42.6755 294.968 49.2888 297.208 54.8355 294.435C60.2755 291.661 62.5155 285.048 59.7422 279.501C56.9688 274.061 50.2488 271.821 44.8088 274.595Z" fill="#0033AD"/>
        <path d="M97.0755 156.409C104.436 161.209 114.249 159.182 118.942 151.822C123.742 144.462 121.716 134.649 114.356 129.956C106.996 125.156 97.1822 127.182 92.4889 134.542C87.6889 141.796 89.7155 151.609 97.0755 156.409Z" fill="#0033AD"/>
        <path d="M262.942 86.2209C269.129 90.2742 277.555 88.5675 281.609 82.3809C285.662 76.1942 283.955 67.7675 277.769 63.7142C271.582 59.6609 263.155 61.3675 259.102 67.5542C254.942 73.8475 256.649 82.1675 262.942 86.2209Z" fill="#0033AD"/>
        <path d="M290.463 38.7575C294.516 41.4242 299.85 40.2508 302.516 36.1975C305.183 32.1442 304.01 26.8108 299.956 24.1442C295.903 21.4775 290.57 22.6508 287.903 26.5975C285.343 30.6508 286.516 36.0908 290.463 38.7575Z" fill="#0033AD"/>
        <path d="M264.969 170.275C250.142 169.422 237.342 180.835 236.596 195.662C235.742 210.489 247.156 223.289 261.982 224.035C262.516 224.035 263.049 224.035 263.476 224.035C278.302 224.035 290.356 211.982 290.356 197.049C290.462 182.862 279.262 171.022 264.969 170.275Z" fill="#0033AD"/>
        <path d="M144.115 154.488C148.702 163.554 157.982 169.314 168.222 169.314C183.049 169.314 195.102 157.261 195.102 142.328C195.102 138.168 194.142 134.008 192.222 130.168C185.502 116.834 169.289 111.501 156.062 118.221C142.729 125.048 137.395 141.261 144.115 154.488Z" fill="#0033AD"/>
        <path d="M355.209 120.038C360.649 117.264 362.782 110.544 360.009 105.104C357.236 99.6644 350.516 97.531 345.076 100.304C339.636 103.078 337.502 109.691 340.169 115.131C343.049 120.571 349.662 122.811 355.209 120.038Z" fill="#0033AD"/>
        <path d="M286.943 128.568C279.156 132.515 275.956 142.008 279.903 149.795C283.85 157.581 293.343 160.781 301.13 156.835C308.916 152.888 312.116 143.395 308.17 135.608C304.223 127.821 294.73 124.728 286.943 128.568Z" fill="#0033AD"/>
        <path d="M198.942 34.7024C205.022 35.0224 210.249 30.3291 210.676 24.2491C211.102 18.1691 206.302 12.9424 200.222 12.5158C194.142 12.1958 188.916 16.7824 188.489 22.8624C188.169 29.0491 192.862 34.2758 198.942 34.7024Z" fill="#0033AD"/>
        <path d="M198.836 104.357C207.582 104.89 215.049 98.1703 215.476 89.4236C216.009 80.6769 209.289 73.2102 200.542 72.7836C191.796 72.2502 184.329 78.9703 183.902 87.7169C183.476 96.4636 190.089 103.93 198.836 104.357Z" fill="#0033AD"/>
        <path d="M113.075 266.061C120.862 262.114 124.062 252.621 120.115 244.835C116.169 237.048 106.675 233.848 98.8887 237.795C91.1021 241.741 87.9021 251.234 91.8487 259.021C95.7954 266.808 105.289 270.008 113.075 266.061Z" fill="#0033AD"/>
        <path d="M209.075 127.504C200.969 139.984 204.382 156.624 216.862 164.73C229.342 172.837 245.982 169.424 254.089 156.944C262.196 144.464 258.782 127.824 246.302 119.717C241.929 116.837 236.809 115.344 231.582 115.344C222.515 115.344 214.089 119.93 209.075 127.504Z" fill="#0033AD"/>
        <path d="M255.903 240.14C249.183 226.807 232.969 221.474 219.743 228.194C206.409 234.914 201.076 251.127 207.796 264.354C214.516 277.687 230.729 283.02 243.956 276.3C257.183 269.687 262.623 253.687 256.009 240.354C256.009 240.247 256.009 240.247 255.903 240.14Z" fill="#0033AD"/>
        <path d="M302.943 238.221C295.582 233.421 285.769 235.448 281.076 242.808C276.276 250.168 278.302 259.981 285.662 264.675C293.022 269.475 302.836 267.448 307.529 260.088C312.329 252.835 310.303 243.021 302.943 238.221Z" fill="#0033AD"/>
        <path d="M354.569 197.795C354.996 190.329 349.343 184.035 341.876 183.609C334.41 183.182 328.116 188.835 327.69 196.302C327.263 203.769 332.916 210.062 340.383 210.489C347.743 210.915 354.143 205.155 354.569 197.795Z" fill="#0033AD"/>
        <path d="M391.796 188.195C386.996 187.875 382.836 191.608 382.622 196.408C382.409 201.208 386.036 205.368 390.836 205.582C395.636 205.902 399.689 202.168 400.009 197.368C400.222 192.568 396.596 188.515 391.796 188.195Z" fill="#0033AD"/>
        <path d="M356.701 274.596C351.581 271.29 344.755 272.676 341.341 277.796C338.035 282.916 339.421 289.743 344.541 293.156C349.661 296.463 356.488 295.076 359.901 289.956C363.315 284.836 361.821 277.903 356.701 274.596Z" fill="#0033AD"/>
        <path d="M109.449 355.875C105.396 353.208 100.062 354.381 97.3956 358.328C94.729 362.381 95.9023 367.715 99.849 370.381C103.902 373.048 109.236 371.875 111.902 367.928C114.676 363.981 113.502 358.541 109.449 355.875Z" fill="#0033AD"/>
        <path d="M292.063 355.021C287.796 357.155 286.09 362.488 288.223 366.755C290.356 371.021 295.69 372.728 299.956 370.595C304.223 368.461 305.93 363.235 303.796 358.968C301.663 354.595 296.436 352.781 292.063 355.021C292.17 355.021 292.063 355.021 292.063 355.021Z" fill="#0033AD"/>
        <path d="M190.943 267.128C199.049 254.648 195.636 238.008 183.156 229.794C170.676 221.688 154.036 225.101 145.823 237.581C137.609 250.061 141.129 266.701 153.609 274.914C157.983 277.794 163.103 279.288 168.329 279.288C177.503 279.394 185.929 274.808 190.943 267.128Z" fill="#0033AD"/>
        <path d="M137.076 308.409C130.889 304.356 122.462 306.063 118.409 312.25C114.356 318.436 116.062 326.863 122.249 330.916C128.436 334.969 136.862 333.263 140.916 327.076C145.076 320.889 143.369 312.463 137.076 308.409Z" fill="#0033AD"/>
        <path d="M199.902 359.93C193.822 359.61 188.596 364.303 188.169 370.383C187.742 376.463 192.542 381.689 198.622 382.116C204.702 382.436 209.929 377.849 210.356 371.769C210.676 365.583 205.982 360.356 199.902 359.93Z" fill="#0033AD"/>
        <path d="M200.01 290.276C191.263 289.742 183.796 296.462 183.37 305.209C182.836 313.956 189.556 321.422 198.303 321.849C207.049 322.276 214.516 315.662 214.943 306.916C215.476 298.276 208.756 290.702 200.01 290.276Z" fill="#0033AD"/>
        <path d="M264.756 307.341C258.143 310.754 255.476 318.861 258.89 325.474C262.303 332.088 270.41 334.754 277.023 331.341C283.636 328.034 286.303 319.928 282.996 313.314C279.583 306.701 271.476 303.928 264.756 307.341Z" fill="#0033AD"/>
    </g>
    <defs>
        <clipPath id="clip0">
            <rect width="400" height="400" fill="white"/>
        </clipPath>
    </defs>
</svg>
