<svg width="120" height="120" viewBox="0 0 120 120" fill="none" xmlns="http://www.w3.org/2000/svg">
    <g clip-path="url(#clip0)">
        <path d="M32.8992 58.7967C32.6432 63.2447 36.0672 67.0527 40.5152 67.3087C40.6752 67.3087 40.8352 67.3087 40.9952 67.3087C45.4752 67.3087 49.0912 63.6927 49.0592 59.2127C49.0592 54.7326 45.4432 51.1166 40.9632 51.1486C36.6752 51.1486 33.1232 54.5086 32.8992 58.7967Z" fill="#0033AD"/>
        <path d="M2.75468 56.7128C1.31468 56.6168 0.0666842 57.7368 0.00268433 59.1768C-0.0613155 60.6168 1.02668 61.8648 2.46668 61.9288C3.90668 62.0248 5.12268 60.9048 5.21868 59.4648C5.31468 58.0248 4.19468 56.8088 2.75468 56.7128Z" fill="#0033AD"/>
        <path d="M32.3864 11.8811C33.6664 11.2411 34.1784 9.64112 33.5384 8.36112C32.8984 7.08112 31.2984 6.56912 30.0184 7.20912C28.7384 7.84912 28.2263 9.41712 28.8663 10.6971C29.5063 12.0091 31.0744 12.5531 32.3864 11.8811C32.3544 11.8811 32.3864 11.8811 32.3864 11.8811Z" fill="#0033AD"/>
        <path d="M40.5789 26.1883C42.5629 25.1963 43.3629 22.7643 42.3709 20.7803C41.3789 18.7963 38.9469 17.9963 36.9629 18.9883C34.9789 19.9803 34.1789 22.4123 35.1709 24.3963C36.1629 26.3803 38.5949 27.1803 40.5789 26.1883Z" fill="#0033AD"/>
        <path d="M12.995 36.0118C14.531 37.0038 16.579 36.5878 17.603 35.0518C18.595 33.5158 18.179 31.4678 16.643 30.4438C15.107 29.4518 13.059 29.8678 12.035 31.4038C11.011 32.9398 11.459 35.0198 12.995 36.0118Z" fill="#0033AD"/>
        <path d="M17.8907 55.2763C15.6507 55.1483 13.7627 56.8443 13.6347 59.0843C13.5067 61.3243 15.2027 63.2123 17.4427 63.3403C19.6827 63.4683 21.5707 61.7723 21.6987 59.5323C21.8267 57.3243 20.1307 55.4043 17.8907 55.2763Z" fill="#0033AD"/>
        <path d="M13.4429 82.3772C11.8109 83.2092 11.1389 85.1932 11.9709 86.8572C12.8029 88.4892 14.7869 89.1612 16.4509 88.3292C18.0829 87.4972 18.7549 85.5132 17.9229 83.8492C17.0909 82.2172 15.0749 81.5452 13.4429 82.3772Z" fill="#0033AD"/>
        <path d="M29.1229 46.9231C31.3309 48.3631 34.2749 47.7551 35.6829 45.5471C37.1229 43.3391 36.5149 40.3951 34.3069 38.9871C32.0989 37.5471 29.1549 38.1551 27.7469 40.3631C26.3069 42.5391 26.9149 45.4831 29.1229 46.9231Z" fill="#0033AD"/>
        <path d="M78.8827 25.8686C80.7387 27.0846 83.2667 26.5726 84.4827 24.7166C85.6987 22.8606 85.1867 20.3326 83.3307 19.1166C81.4747 17.9006 78.9467 18.4126 77.7307 20.2686C76.4827 22.1566 76.9947 24.6526 78.8827 25.8686Z" fill="#0033AD"/>
        <path d="M87.1393 11.6276C88.3553 12.4276 89.9553 12.0756 90.7553 10.8596C91.5553 9.64364 91.2033 8.04364 89.9873 7.24364C88.7713 6.44364 87.1713 6.79564 86.3713 7.97964C85.6033 9.19564 85.9553 10.8276 87.1393 11.6276Z" fill="#0033AD"/>
        <path d="M79.4903 51.0838C75.0423 50.8278 71.2023 54.2518 70.9783 58.6998C70.7223 63.1478 74.1463 66.9878 78.5943 67.2118C78.7543 67.2118 78.9143 67.2118 79.0423 67.2118C83.4903 67.2118 87.1064 63.5958 87.1064 59.1158C87.1384 54.8598 83.7783 51.3078 79.4903 51.0838Z" fill="#0033AD"/>
        <path d="M43.2346 46.3451C44.6106 49.0651 47.3946 50.7931 50.4666 50.7931C54.9146 50.7931 58.5306 47.1771 58.5306 42.6971C58.5306 41.4491 58.2426 40.2011 57.6666 39.0491C55.6506 35.0491 50.7866 33.4491 46.8186 35.4651C42.8186 37.5131 41.2186 42.3771 43.2346 46.3451Z" fill="#0033AD"/>
        <path d="M106.563 36.0109C108.195 35.1789 108.835 33.1629 108.003 31.5309C107.171 29.8989 105.155 29.2589 103.523 30.0909C101.891 30.9229 101.251 32.9069 102.051 34.5389C102.915 36.1709 104.899 36.8429 106.563 36.0109Z" fill="#0033AD"/>
        <path d="M86.0828 38.572C83.7468 39.756 82.7868 42.604 83.9708 44.94C85.1548 47.276 88.0028 48.236 90.3388 47.052C92.6748 45.868 93.6348 43.02 92.4508 40.684C91.2668 38.348 88.4188 37.42 86.0828 38.572Z" fill="#0033AD"/>
        <path d="M59.6826 10.4107C61.5066 10.5067 63.0746 9.09873 63.2026 7.27473C63.3306 5.45073 61.8906 3.88273 60.0666 3.75473C58.2426 3.65873 56.6746 5.03473 56.5466 6.85873C56.4506 8.71473 57.8586 10.2827 59.6826 10.4107Z" fill="#0033AD"/>
        <path d="M59.6509 31.3051C62.2749 31.4651 64.5149 29.4491 64.6429 26.8251C64.8029 24.2011 62.7869 21.9611 60.1629 21.8331C57.5389 21.6731 55.2989 23.6891 55.1709 26.3131C55.0429 28.9371 57.0269 31.1771 59.6509 31.3051Z" fill="#0033AD"/>
        <path d="M33.9228 79.8199C36.2588 78.6359 37.2188 75.7879 36.0348 73.4519C34.8508 71.1159 32.0028 70.1559 29.6668 71.3399C27.3308 72.5239 26.3708 75.3719 27.5548 77.7079C28.7388 80.0439 31.5868 81.0039 33.9228 79.8199Z" fill="#0033AD"/>
        <path d="M62.7228 38.2496C60.2908 41.9936 61.3148 46.9856 65.0588 49.4176C68.8028 51.8496 73.7948 50.8256 76.2268 47.0816C78.6588 43.3376 77.6348 38.3456 73.8908 35.9136C72.5788 35.0496 71.0428 34.6016 69.4748 34.6016C66.7548 34.6016 64.2268 35.9776 62.7228 38.2496Z" fill="#0033AD"/>
        <path d="M76.7711 72.0413C74.7551 68.0413 69.8911 66.4413 65.9231 68.4573C61.9231 70.4733 60.3231 75.3373 62.3391 79.3053C64.3551 83.3053 69.2191 84.9053 73.1871 82.8893C77.1551 80.9053 78.7871 76.1053 76.8031 72.1053C76.8031 72.0733 76.8031 72.0733 76.7711 72.0413Z" fill="#0033AD"/>
        <path d="M90.883 71.4676C88.675 70.0276 85.731 70.6356 84.323 72.8436C82.883 75.0516 83.491 77.9956 85.699 79.4036C87.907 80.8436 90.851 80.2356 92.259 78.0276C93.699 75.8516 93.0911 72.9076 90.883 71.4676Z" fill="#0033AD"/>
        <path d="M106.371 59.337C106.499 57.097 104.803 55.209 102.563 55.081C100.323 54.953 98.4346 56.649 98.3066 58.889C98.1786 61.129 99.8746 63.017 102.115 63.145C104.323 63.273 106.243 61.545 106.371 59.337Z" fill="#0033AD"/>
        <path d="M117.539 56.4589C116.099 56.3629 114.851 57.4829 114.787 58.9229C114.723 60.3629 115.811 61.6109 117.251 61.6749C118.691 61.7709 119.907 60.6509 120.003 59.2109C120.067 57.7709 118.979 56.5549 117.539 56.4589Z" fill="#0033AD"/>
        <path d="M107.011 82.3774C105.475 81.3853 103.427 81.8013 102.403 83.3374C101.411 84.8734 101.827 86.9214 103.363 87.9454C104.899 88.9374 106.947 88.5214 107.971 86.9854C108.995 85.4494 108.547 83.3694 107.011 82.3774Z" fill="#0033AD"/>
        <path d="M32.8352 106.763C31.6192 105.963 30.0192 106.315 29.2192 107.499C28.4192 108.715 28.7712 110.315 29.9552 111.115C31.1712 111.915 32.7712 111.563 33.5712 110.379C34.4032 109.195 34.0512 107.563 32.8352 106.763Z" fill="#0033AD"/>
        <path d="M87.6189 106.508C86.3389 107.148 85.8269 108.748 86.4669 110.028C87.1069 111.308 88.7069 111.82 89.9869 111.18C91.2669 110.54 91.7789 108.972 91.1389 107.692C90.4989 106.38 88.9309 105.836 87.6189 106.508C87.6509 106.508 87.6189 106.508 87.6189 106.508Z" fill="#0033AD"/>
        <path d="M57.2827 80.1387C59.7147 76.3947 58.6907 71.4027 54.9467 68.9387C51.2027 66.5067 46.2107 67.5307 43.7467 71.2747C41.2827 75.0187 42.3387 80.0107 46.0827 82.4747C47.3947 83.3387 48.9307 83.7867 50.4987 83.7867C53.2507 83.8187 55.7787 82.4427 57.2827 80.1387Z" fill="#0033AD"/>
        <path d="M41.1229 92.5228C39.2669 91.3069 36.7389 91.8189 35.5229 93.6748C34.3069 95.5308 34.8189 98.0588 36.6749 99.2748C38.5309 100.491 41.0589 99.9788 42.2749 98.1228C43.5229 96.2668 43.0109 93.7388 41.1229 92.5228Z" fill="#0033AD"/>
        <path d="M59.9703 107.977C58.1463 107.881 56.5783 109.289 56.4503 111.113C56.3223 112.937 57.7623 114.505 59.5863 114.633C61.4103 114.729 62.9783 113.353 63.1063 111.529C63.2023 109.673 61.7943 108.105 59.9703 107.977Z" fill="#0033AD"/>
        <path d="M60.0029 87.0831C57.3789 86.9231 55.1389 88.9391 55.0109 91.5631C54.8509 94.1871 56.8669 96.4271 59.4909 96.5551C62.1149 96.6831 64.3549 94.6991 64.4829 92.0751C64.6429 89.4831 62.6269 87.2111 60.0029 87.0831Z" fill="#0033AD"/>
        <path d="M79.4272 92.2015C77.4432 93.2255 76.6432 95.6575 77.6672 97.6415C78.6912 99.6255 81.1232 100.425 83.1072 99.4015C85.0912 98.4095 85.8912 95.9775 84.8992 93.9935C83.8752 92.0095 81.4432 91.1775 79.4272 92.2015Z" fill="#0033AD"/>
    </g>
    <defs>
        <clipPath id="clip0">
            <rect width="120" height="120" fill="white"/>
        </clipPath>
    </defs>
</svg>
