<svg width="32" height="32" viewBox="0 0 32 32" fill="none" xmlns="http://www.w3.org/2000/svg">
<path fill-rule="evenodd" clip-rule="evenodd" d="M6.6665 8C6.6665 7.26362 7.26346 6.66666 7.99984 6.66666H18.6665C20.081 6.66666 21.4375 7.22857 22.4377 8.22876C23.4379 9.22896 23.9998 10.5855 23.9998 12C23.9998 13.4145 23.4379 14.771 22.4377 15.7712C22.3587 15.8502 22.2775 15.9265 22.1942 16C22.2775 16.0735 22.3587 16.1497 22.4377 16.2288C23.4379 17.229 23.9998 18.5855 23.9998 20C23.9998 21.4145 23.4379 22.771 22.4377 23.7712C21.4375 24.7714 20.081 25.3333 18.6665 25.3333H7.99984C7.26346 25.3333 6.6665 24.7364 6.6665 24C6.6665 23.2636 7.26346 22.6667 7.99984 22.6667H18.6665C19.3737 22.6667 20.052 22.3857 20.5521 21.8856C21.0522 21.3855 21.3332 20.7072 21.3332 20C21.3332 19.2928 21.0522 18.6145 20.5521 18.1144C20.052 17.6143 19.3737 17.3333 18.6665 17.3333C17.9301 17.3333 17.3332 16.7364 17.3332 16C17.3332 15.2636 17.9301 14.6667 18.6665 14.6667C19.3737 14.6667 20.052 14.3857 20.5521 13.8856C21.0522 13.3855 21.3332 12.7072 21.3332 12C21.3332 11.2928 21.0522 10.6145 20.5521 10.1144C20.052 9.61428 19.3737 9.33333 18.6665 9.33333H7.99984C7.26346 9.33333 6.6665 8.73638 6.6665 8Z" fill="white"/>
<path fill-rule="evenodd" clip-rule="evenodd" d="M10.6668 6.66666C11.4032 6.66666 12.0002 7.26362 12.0002 8V24C12.0002 24.7364 11.4032 25.3333 10.6668 25.3333C9.93045 25.3333 9.3335 24.7364 9.3335 24V8C9.3335 7.26362 9.93045 6.66666 10.6668 6.66666Z" fill="white"/>
<path fill-rule="evenodd" clip-rule="evenodd" d="M9.3335 16C9.3335 15.2636 9.93045 14.6667 10.6668 14.6667H18.6668C19.4032 14.6667 20.0002 15.2636 20.0002 16C20.0002 16.7364 19.4032 17.3333 18.6668 17.3333H10.6668C9.93045 17.3333 9.3335 16.7364 9.3335 16Z" fill="white"/>
<path fill-rule="evenodd" clip-rule="evenodd" d="M11.9998 2.66666C12.7362 2.66666 13.3332 3.26362 13.3332 4V8C13.3332 8.73638 12.7362 9.33333 11.9998 9.33333C11.2635 9.33333 10.6665 8.73638 10.6665 8V4C10.6665 3.26362 11.2635 2.66666 11.9998 2.66666Z" fill="white"/>
<path fill-rule="evenodd" clip-rule="evenodd" d="M17.3333 2.66666C18.0697 2.66666 18.6667 3.26362 18.6667 4V8C18.6667 8.73638 18.0697 9.33333 17.3333 9.33333C16.597 9.33333 16 8.73638 16 8V4C16 3.26362 16.597 2.66666 17.3333 2.66666Z" fill="white"/>
<path fill-rule="evenodd" clip-rule="evenodd" d="M11.9998 22.6667C12.7362 22.6667 13.3332 23.2636 13.3332 24V28C13.3332 28.7364 12.7362 29.3333 11.9998 29.3333C11.2635 29.3333 10.6665 28.7364 10.6665 28V24C10.6665 23.2636 11.2635 22.6667 11.9998 22.6667Z" fill="white"/>
<path fill-rule="evenodd" clip-rule="evenodd" d="M17.3333 22.6667C18.0697 22.6667 18.6667 23.2636 18.6667 24V28C18.6667 28.7364 18.0697 29.3333 17.3333 29.3333C16.597 29.3333 16 28.7364 16 28V24C16 23.2636 16.597 22.6667 17.3333 22.6667Z" fill="white"/>
</svg>
