<svg width="32" height="32" viewBox="0 0 32 32" fill="none" xmlns="http://www.w3.org/2000/svg">
<path fill-rule="evenodd" clip-rule="evenodd" d="M7.99984 8C7.29259 8 6.61432 8.28095 6.11422 8.78105C5.61412 9.28115 5.33317 9.95943 5.33317 10.6667V21.3333C5.33317 22.0406 5.61412 22.7189 6.11422 23.219C6.61432 23.7191 7.29259 24 7.99984 24H23.9998C24.7071 24 25.3854 23.7191 25.8855 23.219C26.3855 22.7189 26.6665 22.0406 26.6665 21.3333V10.6667C26.6665 9.95942 26.3855 9.28115 25.8855 8.78105C25.3854 8.28095 24.7071 8 23.9998 8H7.99984ZM4.2286 6.89543C5.22879 5.89524 6.58535 5.33334 7.99984 5.33334H23.9998C25.4143 5.33334 26.7709 5.89524 27.7711 6.89543C28.7713 7.89563 29.3332 9.25218 29.3332 10.6667V21.3333C29.3332 22.7478 28.7713 24.1044 27.7711 25.1046C26.7709 26.1048 25.4143 26.6667 23.9998 26.6667H7.99984C6.58535 26.6667 5.2288 26.1048 4.2286 25.1046C3.22841 24.1044 2.6665 22.7478 2.6665 21.3333V10.6667C2.6665 9.25218 3.22841 7.89563 4.2286 6.89543Z" fill="white"/>
<path fill-rule="evenodd" clip-rule="evenodd" d="M2.6665 13.3333C2.6665 12.597 3.26346 12 3.99984 12H27.9998C28.7362 12 29.3332 12.597 29.3332 13.3333C29.3332 14.0697 28.7362 14.6667 27.9998 14.6667H3.99984C3.26346 14.6667 2.6665 14.0697 2.6665 13.3333Z" fill="white"/>
<path fill-rule="evenodd" clip-rule="evenodd" d="M8 20C8 19.2636 8.59695 18.6667 9.33333 18.6667H9.34667C10.083 18.6667 10.68 19.2636 10.68 20C10.68 20.7364 10.083 21.3333 9.34667 21.3333H9.33333C8.59695 21.3333 8 20.7364 8 20Z" fill="white"/>
<path fill-rule="evenodd" clip-rule="evenodd" d="M13.3335 20C13.3335 19.2636 13.9304 18.6667 14.6668 18.6667H17.3335C18.0699 18.6667 18.6668 19.2636 18.6668 20C18.6668 20.7364 18.0699 21.3333 17.3335 21.3333H14.6668C13.9304 21.3333 13.3335 20.7364 13.3335 20Z" fill="white"/>
</svg>
