<svg width="32" height="32" viewBox="0 0 32 32" fill="none" xmlns="http://www.w3.org/2000/svg">
<path fill-rule="evenodd" clip-rule="evenodd" d="M6.57175 6.57191C9.07223 4.07142 12.4636 2.66666 15.9998 2.66666C19.5361 2.66666 22.9274 4.07142 25.4279 6.57191C27.9284 9.07239 29.3332 12.4638 29.3332 16C29.3332 17.751 28.9883 19.4848 28.3182 21.1024C27.6482 22.7201 26.666 24.19 25.4279 25.4281C24.1898 26.6662 22.72 27.6483 21.1023 28.3184C19.4846 28.9885 17.7508 29.3333 15.9998 29.3333C14.2489 29.3333 12.5151 28.9885 10.8974 28.3184C9.27972 27.6483 7.80986 26.6662 6.57175 25.4281C5.33363 24.19 4.35151 22.7201 3.68144 21.1024C3.01138 19.4848 2.6665 17.751 2.6665 16C2.6665 12.4638 4.07126 9.07239 6.57175 6.57191ZM15.9998 5.33333C13.1709 5.33333 10.4578 6.45714 8.45736 8.45753C6.45698 10.4579 5.33317 13.171 5.33317 16C5.33317 17.4008 5.60907 18.7878 6.14512 20.082C6.68117 21.3761 7.46687 22.552 8.45736 23.5425C9.44786 24.533 10.6237 25.3187 11.9179 25.8547C13.212 26.3908 14.5991 26.6667 15.9998 26.6667C17.4006 26.6667 18.7877 26.3908 20.0818 25.8547C21.3759 25.3187 22.5518 24.533 23.5423 23.5425C24.5328 22.552 25.3185 21.3761 25.8546 20.082C26.3906 18.7878 26.6665 17.4008 26.6665 16C26.6665 13.171 25.5427 10.4579 23.5423 8.45753C21.5419 6.45714 18.8288 5.33333 15.9998 5.33333Z" fill="white"/>
<path fill-rule="evenodd" clip-rule="evenodd" d="M3.4668 12C3.4668 11.2636 4.06375 10.6667 4.80013 10.6667H27.2001C27.9365 10.6667 28.5335 11.2636 28.5335 12C28.5335 12.7364 27.9365 13.3333 27.2001 13.3333H4.80013C4.06375 13.3333 3.4668 12.7364 3.4668 12Z" fill="white"/>
<path fill-rule="evenodd" clip-rule="evenodd" d="M3.4668 20C3.4668 19.2636 4.06375 18.6667 4.80013 18.6667H27.2001C27.9365 18.6667 28.5335 19.2636 28.5335 20C28.5335 20.7364 27.9365 21.3333 27.2001 21.3333H4.80013C4.06375 21.3333 3.4668 20.7364 3.4668 20Z" fill="white"/>
<path fill-rule="evenodd" clip-rule="evenodd" d="M16.0393 2.86885C16.664 3.2587 16.8544 4.08116 16.4645 4.70588C14.3505 8.09363 13.2297 12.0067 13.2297 16C13.2297 19.9933 14.3505 23.9064 16.4645 27.2941C16.8544 27.9188 16.664 28.7413 16.0393 29.1312C15.4145 29.521 14.5921 29.3306 14.2022 28.7059C11.8239 24.8947 10.563 20.4924 10.563 16C10.563 11.5076 11.8239 7.10534 14.2022 3.29412C14.5921 2.6694 15.4145 2.479 16.0393 2.86885Z" fill="white"/>
<path fill-rule="evenodd" clip-rule="evenodd" d="M15.9606 2.86885C16.5854 2.479 17.4078 2.6694 17.7977 3.29412C20.176 7.10534 21.4369 11.5076 21.4369 16C21.4369 20.4924 20.176 24.8947 17.7977 28.7059C17.4078 29.3306 16.5854 29.521 15.9606 29.1312C15.3359 28.7413 15.1455 27.9188 15.5354 27.2941C17.6494 23.9064 18.7702 19.9933 18.7702 16C18.7702 12.0067 17.6494 8.09363 15.5354 4.70588C15.1455 4.08116 15.3359 3.2587 15.9606 2.86885Z" fill="white"/>
</svg>
