<svg width="32" height="32" viewBox="0 0 32 32" fill="none" xmlns="http://www.w3.org/2000/svg">
<path fill-rule="evenodd" clip-rule="evenodd" d="M5.17157 5.17157C5.92172 4.42143 6.93913 4 8 4H21.3333C22.0406 4 22.7189 4.28095 23.219 4.78105C23.719 5.28115 24 5.95942 24 6.66667V9.33333C24.7072 9.33333 25.3855 9.61429 25.8856 10.1144C26.3857 10.6145 26.6667 11.2928 26.6667 12V16C26.6667 16.7364 26.0697 17.3333 25.3333 17.3333C24.597 17.3333 24 16.7364 24 16V12H8C7.54141 12 7.09094 11.9213 6.66667 11.7712V24C6.66667 24.3536 6.80714 24.6928 7.05719 24.9428C7.30724 25.1929 7.64638 25.3333 8 25.3333H24V21.3333C24 20.597 24.597 20 25.3333 20C26.0697 20 26.6667 20.597 26.6667 21.3333V25.3333C26.6667 26.0406 26.3857 26.7189 25.8856 27.219C25.3855 27.7191 24.7072 28 24 28H8C6.93913 28 5.92172 27.5786 5.17157 26.8284C4.42143 26.0783 4 25.0609 4 24V8C4 6.93913 4.42143 5.92172 5.17157 5.17157ZM6.66667 8C6.66667 8.35362 6.80714 8.69276 7.05719 8.94281C7.30724 9.19286 7.64638 9.33333 8 9.33333H21.3333L21.3333 6.66667L8 6.66667C7.64638 6.66667 7.30724 6.80714 7.05719 7.05719C6.80714 7.30724 6.66667 7.64638 6.66667 8Z" fill="white"/>
<path fill-rule="evenodd" clip-rule="evenodd" d="M21.3335 17.3333C20.9799 17.3333 20.6407 17.4738 20.3907 17.7239C20.1406 17.9739 20.0002 18.313 20.0002 18.6667C20.0002 19.0203 20.1406 19.3594 20.3907 19.6095C20.6407 19.8595 20.9799 20 21.3335 20H25.3335V17.3333H21.3335ZM18.5051 15.8382C19.2552 15.0881 20.2726 14.6667 21.3335 14.6667H26.6668C27.4032 14.6667 28.0002 15.2636 28.0002 16V21.3333C28.0002 22.0697 27.4032 22.6667 26.6668 22.6667H21.3335C20.2726 22.6667 19.2552 22.2452 18.5051 21.4951C17.7549 20.7449 17.3335 19.7275 17.3335 18.6667C17.3335 17.6058 17.7549 16.5884 18.5051 15.8382Z" fill="white"/>
</svg>
