<svg width="368" height="317" viewBox="0 0 368 317" fill="none" xmlns="http://www.w3.org/2000/svg">
    <path fill-rule="evenodd" clip-rule="evenodd" d="M142.975 130.864C143.903 130.367 145.02 130.373 145.943 130.881L307.936 220.026V225.569C307.936 226.124 307.64 226.637 307.16 226.915L204.574 286.284C203.61 286.842 202.422 286.842 201.457 286.285L40.32 193.077C39.8392 192.799 39.5431 192.285 39.5431 191.73L39.5431 186.187L142.975 130.864Z" fill="url(#paint0_linear)"/>
    <path fill-rule="evenodd" clip-rule="evenodd" d="M142.975 129.597C143.903 129.1 145.02 129.107 145.943 129.614L307.936 218.759V224.302C307.936 224.857 307.64 225.37 307.16 225.649L204.574 285.017C203.61 285.575 202.422 285.575 201.457 285.018L40.32 191.81C39.8392 191.532 39.5431 191.018 39.5431 190.463L39.5431 184.921L142.975 129.597Z" fill="url(#paint1_linear)"/>
    <path fill-rule="evenodd" clip-rule="evenodd" d="M142.907 124.179C143.87 123.623 145.057 123.623 146.02 124.179L307.444 217.412C308.481 218.011 308.481 219.508 307.444 220.107L204.572 279.501C203.609 280.057 202.423 280.057 201.46 279.501L40.0357 186.268C38.9986 185.669 38.9987 184.172 40.0359 183.573L142.907 124.179Z" fill="url(#paint2_linear)"/>
    <path opacity="0.246257" fill-rule="evenodd" clip-rule="evenodd" d="M150.936 137.429C150.085 136.93 149.03 136.939 148.188 137.452L115.742 157.209C115.161 157.563 115.173 158.411 115.765 158.748L247.352 233.698C248.987 234.629 250.991 234.634 252.631 233.712L283.216 216.504C283.817 216.166 283.825 215.304 283.23 214.956L150.936 137.429Z" fill="url(#paint3_linear)"/>
    <path fill-rule="evenodd" clip-rule="evenodd" d="M138.374 185.237C138.718 185.041 139.14 185.041 139.484 185.237L197.911 218.537C198.288 218.752 198.288 219.296 197.91 219.511L160.677 240.725C160.333 240.921 159.911 240.921 159.567 240.725L101.141 207.424C100.764 207.209 100.764 206.666 101.141 206.451L138.374 185.237Z" fill="url(#paint4_linear)"/>
    <mask id="mask0" mask-type="alpha" maskUnits="userSpaceOnUse" x="100" y="185" width="99" height="56">
        <path fill-rule="evenodd" clip-rule="evenodd" d="M138.374 185.237C138.718 185.041 139.14 185.041 139.484 185.237L197.911 218.537C198.288 218.752 198.288 219.296 197.91 219.511L160.677 240.725C160.333 240.921 159.911 240.921 159.567 240.725L101.141 207.424C100.764 207.209 100.764 206.666 101.141 206.451L138.374 185.237Z" fill="white"/>
    </mask>
    <g mask="url(#mask0)">
        <path fill-rule="evenodd" clip-rule="evenodd" d="M138.374 187.996C138.718 187.801 139.14 187.801 139.484 187.997L197.911 221.297C198.288 221.512 198.288 222.056 197.91 222.27L160.677 243.485C160.333 243.68 159.911 243.68 159.567 243.484L101.141 210.184C100.764 209.969 100.764 209.425 101.141 209.211L138.374 187.996Z" fill="url(#paint5_linear)"/>
    </g>
    <path fill-rule="evenodd" clip-rule="evenodd" d="M148.367 0.279865C148.808 0.103457 149.306 0.1383 149.718 0.374469L310.973 92.7428C311.941 93.2973 312.538 94.3275 312.538 95.4431V214.199C312.538 214.745 312.252 215.252 311.783 215.533L309.137 217.12C308.398 217.563 307.475 217.563 306.736 217.12L148.696 122.323C147.78 121.774 147.21 120.794 147.185 119.726L144.501 3.46021C144.479 2.48628 145.063 1.60083 145.968 1.23915L148.367 0.279865Z" fill="#80B1FF"/>
    <path fill-rule="evenodd" clip-rule="evenodd" d="M144.464 2.69558C144.464 1.49765 145.761 0.749032 146.798 1.34816L308.222 94.5803C309.184 95.1363 309.777 96.1635 309.777 97.2751V216.064C309.777 217.261 308.48 218.01 307.443 217.411L146.019 124.179C145.057 123.623 144.464 122.596 144.464 121.484V2.69558Z" fill="url(#paint6_linear)"/>
    <path fill-rule="evenodd" clip-rule="evenodd" d="M150.906 11.9602L302.765 99.8976V207.001L150.906 119.063V11.9602Z" fill="url(#paint7_linear)"/>
    <path fill-rule="evenodd" clip-rule="evenodd" d="M132.897 10.5016C130.902 9.33121 128.389 10.7704 128.389 13.084V88.3412C128.389 91.5341 130.084 94.4869 132.842 96.097L222.275 148.321C224.27 149.487 226.778 148.047 226.778 145.736V70.6994C226.778 67.5124 225.089 64.5641 222.34 62.9519L132.897 10.5016Z" fill="#C7DCFF"/>
    <path fill-rule="evenodd" clip-rule="evenodd" d="M136.626 27.791L146.535 33.4394V84.6967L136.626 79.0483L136.626 27.791Z" fill="#528BE1"/>
    <path fill-rule="evenodd" clip-rule="evenodd" d="M154.321 38.4695L164.231 44.1179V94.6632L154.321 89.0148L154.321 38.4695Z" fill="#528BE1"/>
    <path fill-rule="evenodd" clip-rule="evenodd" d="M172.017 47.7249L181.927 53.3733V104.631L172.017 98.9821L172.017 47.7249Z" fill="#528BE1"/>
    <path fill-rule="evenodd" clip-rule="evenodd" d="M189.713 57.6914L199.623 63.3398V114.597L189.713 108.949L189.713 57.6914Z" fill="#528BE1"/>
    <path fill-rule="evenodd" clip-rule="evenodd" d="M207.409 66.946L217.318 72.5944V122.428L207.409 116.779L207.409 66.946Z" fill="#528BE1"/>
    <path fill-rule="evenodd" clip-rule="evenodd" d="M136.626 74.0205L146.535 79.6689V93.2396L136.626 87.5912L136.626 74.0205Z" fill="white"/>
    <path fill-rule="evenodd" clip-rule="evenodd" d="M154.321 60.9614L164.231 66.6098V103.206L154.321 97.5578L154.321 60.9614Z" fill="white"/>
    <path fill-rule="evenodd" clip-rule="evenodd" d="M172.017 79.0486L181.927 84.697V113.173L172.017 107.525L172.017 79.0486Z" fill="white"/>
    <path fill-rule="evenodd" clip-rule="evenodd" d="M189.713 80.4724L199.623 86.1208V123.14L189.713 117.492L189.713 80.4724Z" fill="white"/>
    <path fill-rule="evenodd" clip-rule="evenodd" d="M207.409 75.4888L217.318 81.1372V130.971L207.409 125.322L207.409 75.4888Z" fill="white"/>
    <path fill-rule="evenodd" clip-rule="evenodd" d="M243.602 76.6715C241.606 75.5011 239.094 76.9403 239.094 79.254V154.511C239.094 157.704 240.789 160.657 243.546 162.267L332.979 214.491C334.975 215.657 337.483 214.217 337.483 211.906V136.869C337.483 133.682 335.794 130.734 333.044 129.122L243.602 76.6715Z" fill="#C7DCFF"/>
    <path fill-rule="evenodd" clip-rule="evenodd" d="M247.33 147.644L257.24 153.292V159.41L247.33 153.761L247.33 147.644Z" fill="#98BDF4"/>
    <path fill-rule="evenodd" clip-rule="evenodd" d="M265.026 149.49L274.936 155.138V169.377L265.026 163.728L265.026 149.49Z" fill="#98BDF4"/>
    <path fill-rule="evenodd" clip-rule="evenodd" d="M282.722 163.85L292.631 169.499V179.343L282.722 173.695V163.85Z" fill="#98BDF4"/>
    <path fill-rule="evenodd" clip-rule="evenodd" d="M300.418 157.821L310.327 163.47V189.31L300.418 183.661L300.418 157.821Z" fill="#98BDF4"/>
    <path fill-rule="evenodd" clip-rule="evenodd" d="M318.113 152.838L328.023 158.487V197.141L318.113 191.493L318.113 152.838Z" fill="#98BDF4"/>
    <path d="M328.023 145.575C328.023 145.575 320.855 142.399 307.822 145.575C294.789 148.751 291.995 157.645 281.889 147.644C271.784 137.642 269.981 139.013 247.33 141.227" stroke="white" stroke-width="3.15" stroke-linecap="round"/>
    <path d="M189.763 173.561C180.752 173.561 173.446 168.974 173.446 163.317C173.446 162.495 173.446 160.191 173.446 160.191C173.446 160.191 182.06 153.073 189.763 153.073C198.775 153.073 206.08 157.659 206.08 163.317C206.08 168.974 198.775 173.561 189.763 173.561Z" fill="#C06100"/>
    <path fill-rule="evenodd" clip-rule="evenodd" d="M189.763 171.477C180.752 171.477 173.446 166.89 173.446 161.233C173.446 155.575 180.752 150.989 189.763 150.989C198.775 150.989 206.08 155.575 206.08 161.233C206.08 166.89 198.775 171.477 189.763 171.477Z" fill="white"/>
    <path fill-rule="evenodd" clip-rule="evenodd" d="M189.763 171.13C180.752 171.13 173.446 166.543 173.446 160.886C173.446 155.228 180.752 150.642 189.763 150.642C198.775 150.642 206.08 155.228 206.08 160.886C206.08 166.543 198.775 171.13 189.763 171.13Z" fill="#FBC642"/>
    <path d="M189.763 170.435C180.752 170.435 173.446 165.849 173.446 160.191C173.446 154.533 180.752 149.947 189.763 149.947C198.775 149.947 206.08 154.533 206.08 160.191C206.08 165.849 198.775 170.435 189.763 170.435Z" fill="#FFB74F"/>
    <path d="M189.588 168.699C182.224 168.699 176.254 164.968 176.254 160.365C176.254 155.762 182.224 152.031 189.588 152.031C196.952 152.031 202.922 155.762 202.922 160.365C202.922 164.968 196.952 168.699 189.588 168.699Z" fill="#C06100"/>
    <mask id="mask1" mask-type="alpha" maskUnits="userSpaceOnUse" x="176" y="152" width="27" height="17">
        <path d="M189.588 168.699C182.224 168.699 176.254 164.968 176.254 160.365C176.254 155.762 182.224 152.031 189.588 152.031C196.952 152.031 202.922 155.762 202.922 160.365C202.922 164.968 196.952 168.699 189.588 168.699Z" fill="white"/>
    </mask>
    <g mask="url(#mask1)">
        <path d="M189.588 170.088C182.224 170.088 176.254 166.357 176.254 161.754C176.254 157.151 182.224 153.42 189.588 153.42C196.952 153.42 202.922 157.151 202.922 161.754C202.922 166.357 196.952 170.088 189.588 170.088Z" fill="#FF8900"/>
        <path fill-rule="evenodd" clip-rule="evenodd" d="M192.756 163.73C193.91 163.809 195.119 163.577 196.041 163.024C197.711 162.026 197.823 160.358 196.293 159.305L195.829 158.986L197.042 158.261V157.147L195.719 157.351L194.506 158.076L191.383 155.927L189.94 155.677V156.79L191.12 157.602L183.341 162.255L182.161 161.444L180.718 161.233V162.307L183.842 164.455L182.629 164.137V165.18L183.952 166.09L185.165 165.365L185.628 165.684C187.159 166.737 189.761 166.781 191.43 165.783C192.353 165.231 192.799 164.474 192.756 163.73ZM187.071 164.821L184.663 163.165L187.832 161.27L190.239 162.926C191.04 163.477 190.981 164.35 190.108 164.872C189.234 165.395 187.872 165.372 187.071 164.821ZM189.275 160.407L191.682 162.063C192.483 162.614 193.845 162.637 194.719 162.114C195.592 161.592 195.651 160.719 194.85 160.167L192.443 158.512L189.275 160.407Z" fill="#C06100"/>
        <path fill-rule="evenodd" clip-rule="evenodd" d="M192.756 162.616C193.91 162.695 195.119 162.463 196.041 161.911C197.711 160.912 197.823 159.244 196.293 158.191L195.829 157.872L197.042 157.147L195.719 156.237L194.506 156.962L191.383 154.813L189.94 155.676L191.12 156.488L183.341 161.141L182.161 160.33L180.718 161.193L183.842 163.341L182.629 164.067L183.952 164.977L185.165 164.251L185.628 164.57C187.159 165.623 189.761 165.667 191.43 164.669C192.353 164.117 192.799 163.36 192.756 162.616ZM187.071 163.708L184.663 162.052L187.832 160.156L190.239 161.812C191.04 162.364 190.981 163.237 190.108 163.759C189.234 164.282 187.872 164.259 187.071 163.708ZM189.275 159.293L191.682 160.949C192.483 161.5 193.845 161.523 194.719 161.001C195.592 160.478 195.651 159.605 194.85 159.054L192.443 157.398L189.275 159.293Z" fill="#FFB74F"/>
    </g>
    <path fill-rule="evenodd" clip-rule="evenodd" d="M118.783 189.161C118.783 189.161 116.783 189.837 117.164 192.599C117.546 195.361 119.004 194.398 119.708 196.946C120.412 199.494 122.702 201.618 123.976 201.986C125.25 202.355 127.74 202.825 128.238 200.771C128.735 198.717 118.783 189.161 118.783 189.161Z" fill="#30334F"/>
    <path fill-rule="evenodd" clip-rule="evenodd" d="M119.44 188.43C119.44 188.43 116.469 190.765 118.957 194.347C121.446 197.929 121.505 201.189 125.757 201.556C130.008 201.923 128.033 199.201 126.697 197.187C125.125 195.061 124.519 190.405 124.519 190.405L119.44 188.43Z" fill="#181E36"/>
    <path fill-rule="evenodd" clip-rule="evenodd" d="M139.613 129.99C139.613 129.99 143.753 156.021 143.296 165.103C142.839 174.185 124.417 192.41 124.417 192.41C124.417 192.41 119.758 192.083 118.821 188.065L131.137 165.103L125.139 131.052L139.613 129.99Z" fill="#092965"/>
    <mask id="mask2" mask-type="alpha" maskUnits="userSpaceOnUse" x="118" y="129" width="26" height="64">
        <path fill-rule="evenodd" clip-rule="evenodd" d="M139.613 129.99C139.613 129.99 143.753 156.021 143.296 165.103C142.839 174.185 124.417 192.41 124.417 192.41C124.417 192.41 119.758 192.083 118.821 188.065L131.137 165.103L125.139 131.052L139.613 129.99Z" fill="white"/>
    </mask>
    <g mask="url(#mask2)">
        <g style="mix-blend-mode:multiply">
            <path fill-rule="evenodd" clip-rule="evenodd" d="M139.464 177.838L150.578 162.42L141.458 129.259L128.981 133.071L139.464 177.838Z" fill="#A9AAC4"/>
        </g>
        <g style="mix-blend-mode:multiply">
            <path fill-rule="evenodd" clip-rule="evenodd" d="M125.022 173.875L131.963 187.699L134.741 181.744L129.179 167.976L125.022 173.875Z" fill="#A9AAC4"/>
        </g>
    </g>
    <path fill-rule="evenodd" clip-rule="evenodd" d="M139.198 208.481C139.198 208.481 138.898 209.346 138.998 210.473C139.098 211.601 142.515 212.647 143.257 212.967C143.998 213.288 144.805 216.432 148.945 217.139C153.084 217.845 154.78 216.575 154.461 215.153C154.142 213.73 139.198 208.481 139.198 208.481Z" fill="#30334F"/>
    <path fill-rule="evenodd" clip-rule="evenodd" d="M145.994 203.021C145.994 203.021 149.628 209.193 153.212 212.732C156.796 216.271 151.868 217.084 148.463 216.271C145.058 215.458 144.385 212.053 142.614 211.505C141.921 211.29 139.321 210.184 139.035 208.826C138.834 207.871 139.737 204.268 139.737 204.268" fill="#181E36"/>
    <path fill-rule="evenodd" clip-rule="evenodd" d="M116.44 132.999C116.44 132.999 116.434 143.892 119.595 151.021C120.585 153.256 126.27 161.14 128.888 168.378C131.837 176.531 138.973 204.483 138.973 204.483C138.973 204.483 140.034 206.588 143.257 206.245C146.48 205.901 147.004 203.923 147.004 203.923C147.004 203.923 142.227 171.041 139.406 162.187C136.586 153.334 131.903 130.464 131.903 130.464L116.44 132.999Z" fill="url(#paint8_linear)"/>
    <path d="M117.82 141.167C117.82 141.167 124.862 158.414 131.301 168.457C133.202 171.589 140.243 206.06 140.243 206.06" stroke="#1C478A" stroke-width="0.5"/>
    <path fill-rule="evenodd" clip-rule="evenodd" d="M138.332 96.9765C139.932 97.1447 148.363 123.635 148.363 123.635L159.498 138.153C159.498 138.153 158.32 137.579 157.058 138.335C155.797 139.091 154.247 140.132 154.247 140.132C154.247 140.132 144.336 130.818 142.713 128.955C141.089 127.091 135.089 107.051 135.435 103.76C135.781 100.468 136.732 96.8084 138.332 96.9765Z" fill="url(#paint9_linear)"/>
    <mask id="mask3" mask-type="alpha" maskUnits="userSpaceOnUse" x="131" y="96" width="33" height="45">
        <path fill-rule="evenodd" clip-rule="evenodd" d="M138.332 96.9765C139.932 97.1447 148.363 123.635 148.363 123.635L159.498 138.153C159.498 138.153 158.32 137.579 157.058 138.335C155.797 139.091 154.247 140.132 154.247 140.132C154.247 140.132 144.336 130.818 142.713 128.955C141.089 127.091 135.089 107.051 135.435 103.76C135.781 100.468 136.732 96.8084 138.332 96.9765Z" fill="white"/>
    </mask>
    <g mask="url(#mask3)">
        <g style="mix-blend-mode:multiply">
            <path fill-rule="evenodd" clip-rule="evenodd" d="M137.564 125.183C137.564 125.183 142.546 117.715 141.493 113.563C140.44 109.41 138.495 103.413 138.718 101.297C138.94 99.1798 133.292 102.856 133.292 102.856L137.564 125.183Z" fill="#D8D8D8"/>
        </g>
    </g>
    <path fill-rule="evenodd" clip-rule="evenodd" d="M125.777 98.9034C122.133 100.952 115.726 105.152 114.52 106.725C113.314 108.299 115.286 115.717 116.942 119.134C118.597 122.551 117.208 131.909 116.166 134.436C115.883 135.124 125.882 138.634 132.869 135.64C138.881 133.064 138.662 130.033 138.125 127.184C137.588 124.335 138.028 120.151 138.028 120.151C138.028 120.151 139.244 108.879 138.864 106.291C138.484 103.704 139.839 97.9562 138.676 97.1625C137.513 96.3689 129.42 96.8549 125.777 98.9034Z" fill="white"/>
    <mask id="mask4" mask-type="alpha" maskUnits="userSpaceOnUse" x="114" y="96" width="26" height="41">
        <path fill-rule="evenodd" clip-rule="evenodd" d="M125.777 98.9034C122.133 100.952 115.726 105.152 114.52 106.725C113.314 108.299 115.286 115.717 116.942 119.134C118.597 122.551 117.208 131.909 116.166 134.436C115.883 135.124 125.882 138.634 132.869 135.64C138.881 133.064 138.662 130.033 138.125 127.184C137.588 124.335 138.028 120.151 138.028 120.151C138.028 120.151 139.244 108.879 138.864 106.291C138.484 103.704 139.839 97.9562 138.676 97.1625C137.513 96.3689 129.42 96.8549 125.777 98.9034Z" fill="white"/>
    </mask>
    <g mask="url(#mask4)">
        <path fill-rule="evenodd" clip-rule="evenodd" d="M131.217 104.522L136.029 105.755C136.029 105.755 134.217 100.776 132.662 99.3258C131.107 97.8761 131.224 99.3279 131.224 99.3279C131.224 99.3279 131.597 99.7315 131.662 101.292C131.728 102.853 131.217 104.522 131.217 104.522Z" fill="url(#paint10_linear)" fill-opacity="0.2"/>
        <g style="mix-blend-mode:multiply">
            <path fill-rule="evenodd" clip-rule="evenodd" d="M130.018 97.408C132.559 98.3103 134.689 103.554 136.091 109.625C137.493 115.695 136.957 119.584 135.863 124.351C135.328 126.686 134.644 129.155 134.55 131.104C134.452 133.134 134.467 135.016 134.917 135.91C135.797 137.663 139.547 140.91 139.547 140.91C139.547 140.91 136.349 136.813 136.635 133.462C136.921 130.11 140.749 118.9 140.678 115.093C140.608 111.286 139.068 107.594 138.996 104.555C138.923 101.515 139.823 98.1012 138.711 97.1799C137.599 96.2585 133.665 96.7133 130.018 97.408Z" fill="url(#paint11_linear)" fill-opacity="0.2"/>
        </g>
        <path fill-rule="evenodd" clip-rule="evenodd" d="M123.228 98.7861C121.051 100.035 123.016 103.004 126.353 103.987C128.726 104.686 131.095 106.006 131.095 106.006C131.095 106.006 131.802 103.202 131.804 101.899C131.811 97.3691 128.052 95.6377 128.052 95.6377C128.052 95.6377 125.405 97.5378 123.228 98.7861Z" fill="url(#paint12_linear)"/>
        <path fill-rule="evenodd" clip-rule="evenodd" d="M130.099 106.637L131 128.657L134.09 131.363L135.269 127.231L131.915 105.884L130.099 106.637Z" fill="url(#paint13_linear)"/>
        <path fill-rule="evenodd" clip-rule="evenodd" d="M129.567 104.895L131.542 104.513L132.654 104.89L132.069 106.82L130.099 107.246L128.51 106.043L129.567 104.895Z" fill="#092965"/>
        <path fill-rule="evenodd" clip-rule="evenodd" d="M129.567 104.895L126.541 108.847C126.541 108.847 122.739 101.877 123.95 99.0874C123.95 99.0874 124.112 102.101 125.93 103.211C127.747 104.32 129.567 104.895 129.567 104.895Z" fill="url(#paint14_linear)"/>
    </g>
    <path fill-rule="evenodd" clip-rule="evenodd" d="M124.26 99.7721C123.598 100.963 127.292 109.994 128.267 115.208C129.242 120.423 129.518 129.44 129.758 134.613C129.884 137.317 131.339 143.063 131.339 143.063C131.339 143.063 119.457 145.796 114.867 139.396C115.521 137.279 115.526 133.987 116.296 130.377C117.066 126.768 117.492 119.659 114.888 113.342C113.98 107.351 113.801 107.059 113.801 107.059C113.801 107.059 116.386 104.22 124.26 99.7721Z" fill="#092965"/>
    <mask id="mask5" mask-type="alpha" maskUnits="userSpaceOnUse" x="113" y="99" width="19" height="45">
        <path fill-rule="evenodd" clip-rule="evenodd" d="M124.26 99.7721C123.598 100.963 127.292 109.994 128.267 115.208C129.242 120.423 129.518 129.44 129.758 134.613C129.884 137.317 131.339 143.063 131.339 143.063C131.339 143.063 119.457 145.796 114.867 139.396C115.521 137.279 115.526 133.987 116.296 130.377C117.066 126.768 117.492 119.659 114.888 113.342C113.98 107.351 113.801 107.059 113.801 107.059C113.801 107.059 116.386 104.22 124.26 99.7721Z" fill="white"/>
    </mask>
    <g mask="url(#mask5)">
        <g style="mix-blend-mode:multiply">
            <path fill-rule="evenodd" clip-rule="evenodd" d="M128.949 129.441C128.446 120.759 122.525 117.594 122.525 117.594L124.727 112.578L121.609 111.483C121.609 111.483 122.774 105.264 122.896 103.04C123.017 100.816 123.195 100.292 123.195 100.292L124.122 98.7397C124.122 98.7397 125.874 97.6456 127.127 97.5281C128.38 97.4107 125.36 99.3136 125.36 99.3136C125.36 99.3136 124.891 99.2985 124.551 99.6398C124.212 99.9811 130.593 116.317 130.593 116.317C130.593 116.317 129.453 138.122 128.949 129.441Z" fill="url(#paint15_linear)"/>
        </g>
    </g>
    <path fill-rule="evenodd" clip-rule="evenodd" d="M122.896 103.04C122.815 104.523 122.377 106.783 121.582 109.819L124.907 111.792L122.886 116.02C125.338 120.669 129.281 124.985 129.618 130.769C129.368 125.033 129.196 120.176 128.267 115.208C127.292 109.994 123.596 100.982 124.257 99.7908C124.786 98.6196 125.581 98.3527 125.581 98.3527C125.581 98.3527 125.742 98.0734 125.386 98.2382C125.03 98.4031 124.384 98.6972 123.95 99.0874C123.536 99.4592 123.288 99.789 123.164 100.398C123.059 100.808 122.969 101.688 122.896 103.04Z" fill="url(#paint16_linear)"/>
    <path fill-rule="evenodd" clip-rule="evenodd" d="M130.018 97.4081C132.559 98.3104 135.405 103.478 136.457 109.4C137.509 115.321 136.956 119.584 135.863 124.351C134.77 129.118 136.713 133.285 137.594 135.038C138.474 136.791 140.026 139.716 140.026 139.716C140.026 139.716 140.778 137.173 140.816 133.766C140.854 130.359 138.805 122.644 138.734 118.837C138.663 115.03 139.068 107.594 138.996 104.555C138.923 101.515 139.823 98.1012 138.711 97.1799C137.599 96.2586 133.665 96.7133 130.018 97.4081Z" fill="#092965"/>
    <path fill-rule="evenodd" clip-rule="evenodd" d="M130.018 97.4081C132.559 98.3104 135.405 103.478 136.457 109.4C137.509 115.321 136.956 119.584 135.863 124.351C135.641 125.32 135.676 126.691 135.704 127.777L135.704 127.777C135.713 128.108 135.72 128.412 135.72 128.671C135.72 128.821 135.717 128.969 135.713 129.115C135.774 129.193 135.813 129.161 135.825 129.004C136.045 126.265 139.607 115.888 139.607 115.888L137.603 109.544L138.53 108.475C138.53 108.475 133.733 99.2687 130.906 97.2449C130.609 97.2973 130.313 97.3519 130.018 97.4081Z" fill="url(#paint17_linear)"/>
    <path fill-rule="evenodd" clip-rule="evenodd" d="M123.839 91.8613C123.839 91.8613 123.941 93.7889 124.235 95.8795C124.53 97.97 124.221 99.3574 124.221 99.3574C124.221 99.3574 124.685 101.683 127.438 102.66C130.192 103.636 131.151 101.656 131.151 101.656L130.723 96.2876L123.839 91.8613Z" fill="#FCCBCB"/>
    <mask id="mask6" mask-type="alpha" maskUnits="userSpaceOnUse" x="123" y="91" width="9" height="12">
        <path fill-rule="evenodd" clip-rule="evenodd" d="M123.839 91.8613C123.839 91.8613 123.941 93.7889 124.235 95.8795C124.53 97.97 124.221 99.3574 124.221 99.3574C124.221 99.3574 124.685 101.683 127.438 102.66C130.192 103.636 131.151 101.656 131.151 101.656L130.723 96.2876L123.839 91.8613Z" fill="white"/>
    </mask>
    <g mask="url(#mask6)">
        <path fill-rule="evenodd" clip-rule="evenodd" d="M131.012 101.282C131.012 101.282 127.901 101.098 126.34 99.3049C124.779 97.5122 124.967 94.3037 124.967 94.3037L131.141 95.5824L131.012 101.282Z" fill="url(#paint18_linear)"/>
    </g>
    <path fill-rule="evenodd" clip-rule="evenodd" d="M133.769 87.2168C133.769 87.2168 134.037 88.6267 133.884 92.3266C133.731 96.0265 133.491 98.6075 133.164 99.1782C132.837 99.7489 130.63 100.413 128.576 99.5155C126.522 98.6175 125.494 97.5201 125.137 96.6606C124.78 95.8011 124.374 94.4949 123.771 92.7527C123.167 91.0105 121.51 88.2867 122.203 86.2481C122.896 84.2094 125.104 82.4285 128.481 83.0774C131.857 83.7262 133.769 87.2168 133.769 87.2168Z" fill="#FCCBCB"/>
    <mask id="mask7" mask-type="alpha" maskUnits="userSpaceOnUse" x="120" y="82" width="15" height="19">
        <path fill-rule="evenodd" clip-rule="evenodd" d="M133.769 87.2168C133.769 87.2168 134.037 88.6267 133.884 92.3266C133.731 96.0265 133.491 98.6075 133.164 99.1782C132.837 99.7489 130.63 100.413 128.576 99.5155C126.522 98.6175 125.494 97.5201 125.137 96.6606C124.78 95.8011 124.374 94.4949 123.771 92.7527C123.167 91.0105 121.51 88.2867 122.203 86.2481C122.896 84.2094 125.104 82.4285 128.481 83.0774C131.857 83.7262 133.769 87.2168 133.769 87.2168Z" fill="white"/>
    </mask>
    <g mask="url(#mask7)">
    </g>
    <path fill-rule="evenodd" clip-rule="evenodd" d="M129.708 92.8957C129.562 92.8804 129.461 92.7081 129.481 92.5109C129.502 92.3137 129.637 92.1662 129.783 92.1815C129.928 92.1968 130.029 92.3691 130.009 92.5663C129.988 92.7635 129.853 92.911 129.708 92.8957Z" fill="#031120"/>
    <path fill-rule="evenodd" clip-rule="evenodd" d="M133.183 92.2865C133.057 92.2732 132.969 92.1186 132.988 91.9411C133.007 91.7636 133.124 91.6305 133.25 91.6437C133.376 91.657 133.464 91.8116 133.445 91.9891C133.426 92.1666 133.309 92.2997 133.183 92.2865Z" fill="#031120"/>
    <path fill-rule="evenodd" clip-rule="evenodd" d="M126.578 87.3959C126.578 87.3959 128.87 88.7997 131.434 88.8169C133.997 88.834 135.091 87.7503 134.781 86.0426C134.47 84.335 132.259 82.0589 128.071 81.7417C123.883 81.4244 122.854 84.5697 122.854 84.5697C122.854 84.5697 121.644 84.6648 121.453 85.9898C121.261 87.3149 122.426 91.6093 123.172 92.5247C123.917 93.4401 124.407 91.7954 124.407 91.7954C124.407 91.7954 124.36 93.4472 124.721 93.0579C125.082 92.6686 125.304 92.7195 125.224 91.5752C125.145 90.4308 125.339 89.7278 125.865 89.7293C126.392 89.7309 127.026 88.816 126.915 88.1922C126.804 87.5684 126.578 87.3959 126.578 87.3959Z" fill="#30334F"/>
    <mask id="mask8" mask-type="alpha" maskUnits="userSpaceOnUse" x="120" y="81" width="16" height="14">
        <path fill-rule="evenodd" clip-rule="evenodd" d="M126.578 87.3959C126.578 87.3959 128.87 88.7997 131.434 88.8169C133.997 88.834 135.091 87.7503 134.781 86.0426C134.47 84.335 132.259 82.0589 128.071 81.7417C123.883 81.4244 122.854 84.5697 122.854 84.5697C122.854 84.5697 121.644 84.6648 121.453 85.9898C121.261 87.3149 122.426 91.6093 123.172 92.5247C123.917 93.4401 124.407 91.7954 124.407 91.7954C124.407 91.7954 124.36 93.4472 124.721 93.0579C125.082 92.6686 125.304 92.7195 125.224 91.5752C125.145 90.4308 125.339 89.7278 125.865 89.7293C126.392 89.7309 127.026 88.816 126.915 88.1922C126.804 87.5684 126.578 87.3959 126.578 87.3959Z" fill="white"/>
    </mask>
    <g mask="url(#mask8)">
        <path fill-rule="evenodd" clip-rule="evenodd" d="M125.678 89.979C125.678 89.979 123.541 88.5214 122.344 88.6372C121.146 88.7531 121.039 89.7735 121.039 89.7735C121.039 89.7735 123.165 94.4152 123.384 94.4382C123.602 94.4612 125.959 94.2221 125.959 94.2221L125.678 89.979Z" fill="url(#paint19_linear)"/>
        <path fill-rule="evenodd" clip-rule="evenodd" d="M123.109 84.8585L126.285 87.2648C126.285 87.2648 125.045 86.602 124.125 86.0015C123.204 85.4009 123.109 84.8585 123.109 84.8585Z" fill="#031120"/>
        <path fill-rule="evenodd" clip-rule="evenodd" d="M128.063 86.7689C128.063 86.7689 131.826 88.312 133.637 86.2986C131.502 87.8133 128.063 86.7689 128.063 86.7689Z" fill="#031120"/>
    </g>
    <path fill-rule="evenodd" clip-rule="evenodd" d="M124.381 90.9932C124.381 90.9932 124.26 90.5129 123.592 90.2288C122.924 89.9446 122.297 90.9905 122.737 92.053C123.01 92.7091 123.237 93.1667 123.703 93.5567C123.819 93.6535 124.056 93.5939 124.056 93.5939C124.056 93.5939 124.15 93.874 124.206 94.0283C124.328 93.4765 124.387 92.5902 124.396 92.2273C124.412 91.5234 124.381 90.9932 124.381 90.9932Z" fill="#FCCBCB"/>
    <path fill-rule="evenodd" clip-rule="evenodd" d="M123.976 91.167C123.976 91.167 123.621 90.7832 123.332 90.8655C123.044 90.9479 122.873 91.5697 123.256 92.1496C123.638 92.7296 123.866 92.7783 123.866 92.7783L123.976 91.167Z" fill="url(#paint20_linear)"/>
    <path d="M130.397 91.051C130.397 91.051 129.376 91.0779 128.522 91.5798" stroke="#031120" stroke-width="0.5" stroke-linecap="round"/>
    <path d="M132.731 90.7206C132.731 90.7206 133.409 90.488 134.07 90.6588" stroke="#031120" stroke-width="0.5" stroke-linecap="round"/>
    <path d="M132.073 91.5201C132.073 91.5201 132.382 92.9931 132.821 93.509C133.261 94.0248 133.659 94.8077 132.307 94.7544" stroke="#E77575" stroke-width="0.5" stroke-linecap="round"/>
    <path d="M133.03 95.938C133.03 95.938 132.822 96.1561 132.146 96.2862C131.469 96.4163 130.606 96.1244 130.606 96.1244" stroke="#E77575" stroke-width="0.5" stroke-linecap="round"/>
    <path fill-rule="evenodd" clip-rule="evenodd" d="M137.336 145.301C137.394 145.301 138.765 150.866 147.833 150.979C156.9 151.092 138.155 142.266 138.155 142.266C138.155 142.266 137.277 145.301 137.336 145.301Z" fill="url(#paint21_linear)"/>
    <path fill-rule="evenodd" clip-rule="evenodd" d="M114.264 106.82C110.184 107.29 109.92 119.022 115.011 127.574C120.101 136.126 117.764 134.044 121.587 136.741C125.411 139.438 137.869 147.204 137.869 147.204C137.869 147.204 138.601 143.84 141.804 143.84L125.538 129.743C125.538 129.743 118.343 106.35 114.264 106.82Z" fill="url(#paint22_linear)"/>
    <path fill-rule="evenodd" clip-rule="evenodd" d="M137.574 144.927C137.872 144.927 138.114 144.682 138.114 144.379C138.114 144.077 137.872 143.831 137.574 143.831C137.276 143.831 137.034 144.077 137.034 144.379C137.034 144.682 137.276 144.927 137.574 144.927Z" fill="#D8D8D8"/>
    <path d="M160 161.658C150.453 161.658 142.713 156.745 142.713 150.684C142.713 149.804 142.713 147.336 142.713 147.336C142.713 147.336 151.839 139.71 160 139.71C169.548 139.71 177.288 144.623 177.288 150.684C177.288 156.745 169.548 161.658 160 161.658Z" fill="#C06100"/>
    <path fill-rule="evenodd" clip-rule="evenodd" d="M160 159.426C150.453 159.426 142.713 154.513 142.713 148.452C142.713 142.391 150.453 137.478 160 137.478C169.548 137.478 177.288 142.391 177.288 148.452C177.288 154.513 169.548 159.426 160 159.426Z" fill="white"/>
    <path d="M160 158.694C150.453 158.694 142.713 153.695 142.713 147.528C142.713 141.361 150.453 136.362 160 136.362C169.548 136.362 177.288 141.361 177.288 147.528C177.288 153.695 169.548 158.694 160 158.694Z" fill="#FFB74F"/>
    <path d="M159.815 156.45C152.012 156.45 145.687 152.453 145.687 147.522C145.687 142.591 152.012 138.594 159.815 138.594C167.617 138.594 173.942 142.591 173.942 147.522C173.942 152.453 167.617 156.45 159.815 156.45Z" fill="#C06100"/>
    <mask id="mask9" mask-type="alpha" maskUnits="userSpaceOnUse" x="145" y="138" width="29" height="19">
        <path d="M159.815 156.45C152.012 156.45 145.687 152.453 145.687 147.522C145.687 142.591 152.012 138.594 159.815 138.594C167.617 138.594 173.942 142.591 173.942 147.522C173.942 152.453 167.617 156.45 159.815 156.45Z" fill="white"/>
    </mask>
    <g mask="url(#mask9)">
        <path d="M159.815 157.938C152.012 157.938 145.687 153.941 145.687 149.01C145.687 144.079 152.012 140.082 159.815 140.082C167.617 140.082 173.942 144.079 173.942 149.01C173.942 153.941 167.617 157.938 159.815 157.938Z" fill="#FF8900"/>
        <path fill-rule="evenodd" clip-rule="evenodd" d="M168.387 147.04C168.387 147.04 167.455 146.53 167.031 146.218L168.321 145.713L168.321 144.225L167.031 144.73L166.255 145.646C165.848 145.415 165.378 145.221 164.844 145.063C164.31 144.905 163.753 144.8 163.174 144.747C162.596 144.695 161.998 144.705 161.383 144.778C160.767 144.851 160.17 145.001 159.593 145.227C159.123 145.41 158.71 145.362 158.388 145.324C158.068 145.287 157.837 145.26 157.725 145.477C157.501 145.915 157.669 147.365 157.97 147.919C157.97 147.919 154.82 149.413 154.695 149.135C154.571 148.856 154.604 148.564 154.793 148.26L151.296 147.039C151.135 147.544 151.258 149.19 151.551 149.655C151.843 150.12 151.476 149.942 151.476 149.942L151.476 151.43L152.252 152.002L153.542 151.497C153.988 151.757 154.481 151.975 155.023 152.152C155.565 152.33 156.137 152.447 156.739 152.503C157.342 152.559 157.964 152.546 158.604 152.463C159.245 152.381 159.89 152.212 160.541 151.957C161.401 151.621 161.956 151.229 162.205 150.782C162.454 150.334 162.399 148.539 162.399 148.539L161.558 148.36L164.488 147.213C164.714 147.408 164.891 147.618 165.017 147.842C165.144 148.067 165.172 148.3 165.102 148.539L168.387 148.528L168.387 147.04ZM156.637 150.691C156.448 150.628 156.276 150.56 156.122 150.488L158.886 149.406L158.981 149.621C159.021 149.721 159.055 149.818 159.081 149.914C159.108 150.01 159.11 150.102 159.089 150.19C159.067 150.278 159.01 150.364 158.918 150.449C158.826 150.534 158.682 150.614 158.485 150.691C158.277 150.773 158.066 150.822 157.854 150.839C157.641 150.856 157.433 150.851 157.228 150.825C157.023 150.799 156.826 150.754 156.637 150.691Z" fill="#C06100"/>
        <path fill-rule="evenodd" clip-rule="evenodd" d="M167.031 144.73C167.455 145.042 167.808 145.4 168.091 145.802C168.373 146.205 168.472 146.617 168.387 147.04L165.102 147.052C165.172 146.812 165.144 146.58 165.017 146.355C164.891 146.13 164.714 145.92 164.488 145.725L161.558 146.872L162.171 147.907C162.443 148.384 162.454 148.847 162.205 149.294C161.956 149.741 161.401 150.133 160.541 150.469C159.89 150.724 159.245 150.893 158.604 150.975C157.964 151.058 157.342 151.071 156.739 151.015C156.137 150.959 155.565 150.842 155.023 150.665C154.481 150.487 153.988 150.269 153.542 150.01L152.252 150.515L151.476 149.942L152.766 149.437C152.248 149.056 151.843 148.633 151.551 148.167C151.258 147.702 151.192 147.217 151.353 146.711L154.793 146.772C154.604 147.076 154.571 147.368 154.695 147.647C154.82 147.926 155.024 148.191 155.309 148.442L158.423 147.223L157.97 146.432C157.669 145.877 157.631 145.381 157.855 144.943C158.08 144.506 158.659 144.104 159.593 143.739C160.17 143.513 160.767 143.363 161.383 143.291C161.998 143.218 162.596 143.207 163.174 143.26C163.753 143.312 164.31 143.417 164.844 143.575C165.378 143.733 165.848 143.928 166.255 144.158L167.545 143.653L168.321 144.225L167.031 144.73ZM163.657 145.175C163.363 145.042 163.038 144.948 162.681 144.893C162.325 144.838 161.95 144.887 161.557 145.041C161.274 145.152 161.088 145.264 160.999 145.379C160.91 145.493 160.866 145.603 160.868 145.709C160.87 145.814 160.9 145.909 160.957 145.992C161.014 146.076 161.054 146.14 161.077 146.185L163.657 145.175ZM156.637 149.203C156.448 149.14 156.276 149.072 156.122 149L158.886 147.918L158.981 148.133C159.021 148.233 159.055 148.33 159.081 148.426C159.108 148.522 159.11 148.614 159.089 148.702C159.067 148.79 159.01 148.876 158.918 148.961C158.826 149.046 158.682 149.126 158.485 149.203C158.277 149.285 158.066 149.334 157.854 149.351C157.641 149.368 157.433 149.363 157.228 149.337C157.023 149.311 156.826 149.266 156.637 149.203Z" fill="#FFB74F"/>
    </g>
    <path fill-rule="evenodd" clip-rule="evenodd" d="M141.579 147.369C141.579 147.369 144.773 146.943 145.855 147.369C146.938 147.794 144.44 148.202 143.879 148.834C143.318 149.465 141.579 148.153 141.579 148.153V147.369Z" fill="#FCCBCB"/>
    <path fill-rule="evenodd" clip-rule="evenodd" d="M214.127 201.166L213.747 203.807C213.747 203.807 215.263 208.281 215.74 213.923C216.217 219.565 215.448 229.322 216.359 231.098C217.27 232.873 216.625 234.106 215.856 234.43C215.088 234.755 214.067 233.953 211.768 232.118C209.468 230.284 206.58 229.199 207.032 228.198C207.484 227.197 211.597 229.191 212.077 228.463C212.557 227.734 208.037 205.034 208.325 203.523C208.613 202.011 209.051 197.285 209.051 197.285L214.127 201.166Z" fill="#FFBBB0"/>
    <path fill-rule="evenodd" clip-rule="evenodd" d="M211.83 201.977L211.235 205.427C211.235 205.427 212.235 212.55 212.671 217.03C213.107 221.511 213.928 232.394 213.928 232.394L212.832 232.948L208.416 202.608L211.83 201.977Z" fill="#F29E98"/>
    <path fill-rule="evenodd" clip-rule="evenodd" d="M216.433 230.051C216.433 230.051 215.88 229.654 215.553 230.005C215.225 230.356 213.117 231.184 211.737 230.746C210.358 230.307 208.741 228.981 208.765 228.514C208.79 228.046 210.797 227.146 210.797 227.146C210.797 227.146 208.182 226.381 207.166 226.956C206.15 227.531 207.154 229.635 208.083 230.119C209.013 230.603 213.909 234.105 214.256 234.123C214.603 234.141 215.184 237.031 215.184 237.031C215.184 237.031 215.563 237.228 215.925 237.07C215.925 237.07 216.862 233.514 216.932 232.182C217.002 230.851 216.433 230.051 216.433 230.051Z" fill="#181E36"/>
    <path fill-rule="evenodd" clip-rule="evenodd" d="M209.82 200.53L209.422 204.699C209.422 204.699 210.97 210.455 211.566 214.539C212.163 218.622 212.673 229.744 213.077 230.779C213.482 231.815 213.892 234.525 212.682 235.128C211.911 235.511 212.62 234.759 210.511 234.683C209.307 234.639 205.189 236.066 203.997 236.004C200.717 235.832 200.754 234.839 201.264 234.369C201.529 234.124 203.998 233.02 203.998 233.02C203.998 233.02 207.271 232.113 207.71 231.534C208.624 230.328 208.819 228.723 208.587 226.895C208.355 225.068 203.123 205.643 202.911 203.865C202.698 202.088 202.718 197.196 202.718 197.196L209.82 200.53Z" fill="#FFBBB0"/>
    <rect width="1.85885" height="0.743999" rx="0.27216" transform="matrix(-0.99863 -0.052336 -0.052336 0.99863 202.833 138.402)" fill="#30334F"/>
    <path fill-rule="evenodd" clip-rule="evenodd" d="M202.451 135.91C202.451 135.91 201.29 138.203 201.58 139.292C201.87 140.382 201.53 141.555 200.855 141.955C200.18 142.355 201.386 142.993 201.386 142.993C201.386 142.993 201.409 144.319 201.796 145.416C202.182 146.513 202.04 147.366 203.278 147.43C204.517 147.495 205.954 147.312 205.954 147.312C205.954 147.312 206.833 148.565 206.485 149.337C206.137 150.109 204.38 150.499 204.717 151.006C205.053 151.514 214.054 152.949 214.574 152.176C215.094 151.404 211.025 149.496 211.18 146.532C211.335 143.569 211.665 134.077 207.968 133.883C204.272 133.689 202.451 135.91 202.451 135.91Z" fill="#FFBBB0"/>
    <path fill-rule="evenodd" clip-rule="evenodd" d="M205.551 142.132C205.551 142.132 206.007 141.549 206.306 141.767C206.604 141.985 206.68 142.524 206.231 143.19C205.782 143.855 205.382 143.291 205.382 143.291L205.551 142.132Z" fill="url(#paint23_linear)"/>
    <path fill-rule="evenodd" clip-rule="evenodd" d="M202.801 171.82C202.801 171.82 200.909 181.309 201.01 187.502C201.111 193.694 201.957 202.033 201.957 202.033C201.957 202.033 204.474 203.66 208.212 203.856C211.95 204.052 214.575 202.201 214.575 202.201C214.575 202.201 216.611 191.575 218.193 189.195C219.774 186.816 221.752 182.518 220.637 177.432C219.521 172.346 216.566 169.542 216.566 169.542C216.566 169.542 212.631 168.18 210.75 168.659C208.868 169.139 202.801 171.82 202.801 171.82Z" fill="url(#paint24_linear)"/>
    <mask id="mask10" mask-type="alpha" maskUnits="userSpaceOnUse" x="201" y="168" width="20" height="36">
        <path fill-rule="evenodd" clip-rule="evenodd" d="M202.801 171.82C202.801 171.82 200.909 181.309 201.01 187.502C201.111 193.694 201.957 202.033 201.957 202.033C201.957 202.033 204.474 203.66 208.212 203.856C211.95 204.052 214.575 202.201 214.575 202.201C214.575 202.201 216.611 191.575 218.193 189.195C219.774 186.816 221.752 182.518 220.637 177.432C219.521 172.346 216.566 169.542 216.566 169.542C216.566 169.542 212.631 168.18 210.75 168.659C208.868 169.139 202.801 171.82 202.801 171.82Z" fill="white"/>
    </mask>
    <g mask="url(#mask10)">
        <path d="M204.373 172.673C204.373 172.673 203.093 181.172 203.325 184.714C203.556 188.255 203.271 202.961 203.271 202.961" stroke="#1C478A" stroke-width="0.5"/>
    </g>
    <path fill-rule="evenodd" clip-rule="evenodd" d="M216.287 169.218C216.287 169.218 216.515 171.752 212.079 173.009C207.643 174.266 202.323 173.377 202.423 171.455C202.524 169.533 216.287 169.218 216.287 169.218Z" fill="#092965"/>
    <path fill-rule="evenodd" clip-rule="evenodd" d="M203.438 152.261C203.438 152.261 204.387 149.881 205.823 149.138C207.259 148.395 211.737 146.438 212.158 149.246L203.438 152.261Z" fill="#D8D8D8"/>
    <path fill-rule="evenodd" clip-rule="evenodd" d="M202.598 137.115C202.598 137.115 201.615 134.914 202.066 133.293C202.517 131.673 204.241 129.65 207.026 130.624C210.562 130.232 214.704 131.766 215.522 136.781C216.341 141.796 215.123 146.305 211.53 146.894C207.937 147.484 206.103 144.608 206.103 144.608C206.103 144.608 207.785 143.289 207.143 141.958C206.502 140.627 204.915 141.698 204.915 141.698L202.598 137.115Z" fill="#30334F"/>
    <path fill-rule="evenodd" clip-rule="evenodd" d="M214.931 149.766C214.931 149.766 217.246 150.07 218.04 155.082C218.835 160.094 221.488 165.683 218.821 167.477C216.155 169.271 213.572 161.512 213.572 161.512L214.931 149.766Z" fill="#F0F0F0"/>
    <mask id="mask11" mask-type="alpha" maskUnits="userSpaceOnUse" x="213" y="149" width="8" height="19">
        <path fill-rule="evenodd" clip-rule="evenodd" d="M214.931 149.766C214.931 149.766 217.246 150.07 218.04 155.082C218.835 160.094 221.488 165.683 218.821 167.477C216.155 169.271 213.572 161.512 213.572 161.512L214.931 149.766Z" fill="white"/>
    </mask>
    <g mask="url(#mask11)">
        <path fill-rule="evenodd" clip-rule="evenodd" d="M214.337 149.109C214.337 149.109 216.652 149.412 217.447 154.424C218.241 159.436 220.894 165.026 218.228 166.819C215.561 168.613 212.978 160.855 212.978 160.855L214.337 149.109Z" fill="#D8D8D8"/>
    </g>
    <path fill-rule="evenodd" clip-rule="evenodd" d="M216.825 153.347C216.55 152.821 216.126 150.398 214.716 149.865C212.947 149.197 210.395 149.15 208.863 149.558C206.016 150.318 201.339 152.732 200.889 153.49C200.44 154.248 199.692 157.307 199.263 158.999C198.834 160.692 197.801 165.056 201.242 164.998C201.242 164.998 202.106 166.742 202.026 168.263C201.946 169.784 201.556 170.651 202.857 171.884C204.158 173.117 209.834 173.129 212.373 172.383C214.912 171.637 216.371 169.991 217.103 169.053C217.835 168.115 216.073 164.079 216.073 164.079C216.073 164.079 217.446 154.532 216.825 153.347Z" fill="url(#paint25_linear)"/>
    <mask id="mask12" mask-type="alpha" maskUnits="userSpaceOnUse" x="198" y="149" width="20" height="24">
        <path fill-rule="evenodd" clip-rule="evenodd" d="M216.825 153.347C216.55 152.821 216.126 150.398 214.716 149.865C212.947 149.197 210.395 149.15 208.863 149.558C206.016 150.318 201.339 152.732 200.889 153.49C200.44 154.248 199.692 157.307 199.263 158.999C198.834 160.692 197.801 165.056 201.242 164.998C201.242 164.998 202.106 166.742 202.026 168.263C201.946 169.784 201.556 170.651 202.857 171.884C204.158 173.117 209.834 173.129 212.373 172.383C214.912 171.637 216.371 169.991 217.103 169.053C217.835 168.115 216.073 164.079 216.073 164.079C216.073 164.079 217.446 154.532 216.825 153.347Z" fill="white"/>
    </mask>
    <g mask="url(#mask12)">
        <path fill-rule="evenodd" clip-rule="evenodd" d="M201.38 154.967C201.38 154.967 202.779 162.523 199.585 166.251C196.391 169.979 200.598 169.889 200.598 169.889C200.598 169.889 202.256 165.911 202.645 162.398C203.034 158.885 201.38 154.967 201.38 154.967Z" fill="#D8D8D8"/>
    </g>
    <path fill-rule="evenodd" clip-rule="evenodd" d="M183.653 166.608C183.017 166.319 181.561 165.117 180.741 166.29C179.194 166.137 177.55 166.141 176.838 166.233C175.624 166.391 174.525 167.056 173.923 167.163C173.321 167.269 174.141 168.181 174.892 167.909C175.643 167.638 176.982 167.275 177.396 167.337C177.809 167.399 178.618 167.619 178.618 167.619C178.618 167.619 177.071 167.946 176.705 168.286C176.338 168.626 176.399 169.925 176.141 170.455C175.884 170.985 176.746 171.072 176.922 170.665C176.922 170.665 177.021 171.162 177.056 171.388C177.1 171.679 177.086 172.031 177.204 172.064C177.521 172.152 178.099 171.806 177.944 171.078C177.944 171.078 178.251 171.357 178.523 171.745C178.795 172.132 179.216 171.611 179.087 171.19C178.958 170.768 178.752 170.484 178.752 170.484C178.752 170.484 181.323 171.428 182.331 171.415C183.34 171.403 184.606 170.469 184.606 170.469L192.703 173.117L193.641 169.506C193.641 169.506 185.193 167.306 183.653 166.608Z" fill="#FFBBB0"/>
    <mask id="mask13" mask-type="alpha" maskUnits="userSpaceOnUse" x="173" y="165" width="21" height="9">
        <path fill-rule="evenodd" clip-rule="evenodd" d="M183.653 166.608C183.017 166.319 181.561 165.117 180.741 166.29C179.194 166.137 177.55 166.141 176.838 166.233C175.624 166.391 174.525 167.056 173.923 167.163C173.321 167.269 174.141 168.181 174.892 167.909C175.643 167.638 176.982 167.275 177.396 167.337C177.809 167.399 178.618 167.619 178.618 167.619C178.618 167.619 177.071 167.946 176.705 168.286C176.338 168.626 176.399 169.925 176.141 170.455C175.884 170.985 176.746 171.072 176.922 170.665C176.922 170.665 177.021 171.162 177.056 171.388C177.1 171.679 177.086 172.031 177.204 172.064C177.521 172.152 178.099 171.806 177.944 171.078C177.944 171.078 178.251 171.357 178.523 171.745C178.795 172.132 179.216 171.611 179.087 171.19C178.958 170.768 178.752 170.484 178.752 170.484C178.752 170.484 181.323 171.428 182.331 171.415C183.34 171.403 184.606 170.469 184.606 170.469L192.703 173.117L193.641 169.506C193.641 169.506 185.193 167.306 183.653 166.608Z" fill="white"/>
    </mask>
    <g mask="url(#mask13)">
        <path fill-rule="evenodd" clip-rule="evenodd" d="M176.923 170.665C176.923 170.665 176.591 168.83 177.32 168.517C178.049 168.204 178.466 168.05 178.466 168.05C178.466 168.05 177.041 168.067 176.794 168.561C176.684 168.781 176.373 170.331 176.45 170.887C176.807 170.929 176.923 170.665 176.923 170.665Z" fill="#F29E98"/>
        <path fill-rule="evenodd" clip-rule="evenodd" d="M177.945 171.063C177.945 171.063 177.091 169.888 177.28 169.448C177.468 169.008 178.559 168.645 178.559 168.645C178.559 168.645 177.574 168.531 177.195 169.171C176.993 169.511 177.231 170.206 177.535 171.189C177.611 171.436 177.625 171.96 177.625 171.96C177.625 171.96 177.85 171.823 177.917 171.532C177.984 171.241 177.945 171.063 177.945 171.063Z" fill="#F29E98"/>
        <path fill-rule="evenodd" clip-rule="evenodd" d="M180.741 166.29L181.883 166.331L180.726 165.593L180.741 166.29Z" fill="#F29E98"/>
    </g>
    <path fill-rule="evenodd" clip-rule="evenodd" d="M188.159 167.361C188.142 167.367 186.816 166.277 185.719 167.36C184.623 168.443 184.752 171.212 186.381 171.186C188.01 171.16 188.177 167.356 188.159 167.361Z" fill="#D8D8D8"/>
    <path fill-rule="evenodd" clip-rule="evenodd" d="M201.03 153.791C201.03 153.791 198.977 156.141 199.104 161.65C199.231 167.159 198.53 168.722 198.53 168.722C198.53 168.722 190.692 168.291 188.99 167.305C187.289 166.32 186.318 168.316 186.18 169.531C186.042 170.745 185.731 172.202 189.131 173.249C192.53 174.295 201.736 175.463 203.326 172.718C204.915 169.973 205.003 160.651 204.323 158.426C203.643 156.201 201.03 153.791 201.03 153.791Z" fill="#FFFEFE"/>
    <mask id="mask14" mask-type="alpha" maskUnits="userSpaceOnUse" x="182" y="153" width="27" height="25">
        <path fill-rule="evenodd" clip-rule="evenodd" d="M201.03 153.791C201.03 153.791 198.977 156.141 199.104 161.65C199.231 167.159 198.53 168.722 198.53 168.722C198.53 168.722 190.692 168.291 188.99 167.305C187.289 166.32 186.318 168.316 186.18 169.531C186.042 170.745 185.731 172.202 189.131 173.249C192.53 174.295 201.736 175.463 203.326 172.718C204.915 169.973 205.003 160.651 204.323 158.426C203.643 156.201 201.03 153.791 201.03 153.791Z" fill="white"/>
    </mask>
    <g mask="url(#mask14)">
        <path fill-rule="evenodd" clip-rule="evenodd" d="M204.601 159.795C204.601 159.795 204.34 160.919 204.467 166.427C204.16 169.417 203.932 173.468 201.173 173.822C198.415 174.176 194.902 174.319 191.029 173.42C187.157 172.521 186.472 171.22 185.842 171.235C185.705 172.45 190.287 177.863 193.686 178.909C197.085 179.956 206.292 181.124 207.881 178.379C209.471 175.633 209.559 166.311 208.878 164.086C208.198 161.862 204.601 159.795 204.601 159.795Z" fill="#D8D8D8"/>
    </g>
    <path fill-rule="evenodd" clip-rule="evenodd" d="M213.911 146.53C211.348 146.396 209.379 144.208 209.513 141.643C209.648 139.078 211.834 137.108 214.397 137.243C216.96 137.377 218.929 139.565 218.795 142.129C218.66 144.694 216.474 146.664 213.911 146.53Z" fill="#181E36"/>
    <path fill-rule="evenodd" clip-rule="evenodd" d="M213.347 231.539C213.109 231.213 212.92 231.203 212.173 231.778C211.286 232.459 208.006 233.542 206.595 233.83C205.692 234.015 203.445 234.013 203.536 233.67C203.631 233.308 204.031 233.299 204.133 233.184C204.332 232.962 200.693 234.482 199.868 235.075C199.042 235.667 198.983 236.796 203.021 237.887C203.432 237.998 205.715 237.848 206.507 237.582C208.285 236.984 209.115 235.799 210.989 235.657L211.612 239.298C211.612 239.298 212.196 239.657 212.688 239.234C212.688 239.234 213.662 233.953 213.707 233.084C213.753 232.215 213.472 231.71 213.347 231.539Z" fill="#181E36"/>
    <path fill-rule="evenodd" clip-rule="evenodd" d="M288.745 292.528L315.343 307.899L311.925 309.372V314.959L355.516 317V311.433L351.324 292.769L343.404 297.372L311.925 279.537L288.745 286.719V292.528Z" fill="#80B1FF"/>
    <path fill-rule="evenodd" clip-rule="evenodd" d="M288.745 286.719L319.802 304.844L311.925 309.372L355.516 311.433L351.324 286.962L343.404 291.611L311.925 273.599L288.745 286.719Z" fill="#CBDFFF"/>
    <path fill-rule="evenodd" clip-rule="evenodd" d="M0 136.202L26.5981 151.572L23.1794 153.045V158.632L66.7707 160.673V155.106L62.579 136.442L54.6583 141.045L23.1794 123.21L0 130.392V136.202Z" fill="#80B1FF"/>
    <path fill-rule="evenodd" clip-rule="evenodd" d="M0 130.392L31.0568 148.517L23.1794 153.045L66.7707 155.106L62.579 130.635L54.6583 135.283L23.1794 117.272L0 130.392Z" fill="#CBDFFF"/>
    <path fill-rule="evenodd" clip-rule="evenodd" d="M312.867 267.059L343.825 285.236L367.385 271.684V266.846L335.972 253.902L343.825 249.426V244.587L302.79 245.767V272.82L312.867 267.059Z" fill="url(#paint26_linear)"/>
    <path fill-rule="evenodd" clip-rule="evenodd" d="M312.867 262.22L343.825 280.397L367.385 266.845L335.972 249.063L343.825 244.587L302.79 240.928V267.981L312.867 262.22Z" fill="#80B1FF"/>
    <path fill-rule="evenodd" clip-rule="evenodd" d="M24.1213 110.732L55.0795 128.909L78.6396 115.357V110.519L47.2271 97.5749L55.0795 93.0985V88.2598L14.0446 89.4395V116.492L24.1213 110.732Z" fill="url(#paint27_linear)"/>
    <path fill-rule="evenodd" clip-rule="evenodd" d="M24.1213 105.893L55.0795 124.07L78.6396 110.518L47.2271 92.736L55.0795 88.2596L14.0446 84.6006V111.654L24.1213 105.893Z" fill="#80B1FF"/>
    <defs>
        <linearGradient id="paint0_linear" x1="296.673" y1="126.039" x2="35.0273" y2="144.462" gradientUnits="userSpaceOnUse">
            <stop stop-color="#7187B5"/>
            <stop offset="1" stop-color="#BFCDED"/>
        </linearGradient>
        <linearGradient id="paint1_linear" x1="93.1949" y1="276.839" x2="314.261" y2="245.364" gradientUnits="userSpaceOnUse">
            <stop stop-color="#C4D5FF"/>
            <stop offset="0.499857" stop-color="#C9DDFF"/>
            <stop offset="0.5319" stop-color="#E1ECFF"/>
            <stop offset="1" stop-color="#D5E1FF"/>
        </linearGradient>
        <linearGradient id="paint2_linear" x1="243.883" y1="86.1146" x2="40.4102" y2="218.925" gradientUnits="userSpaceOnUse">
            <stop stop-color="#C0E1FF"/>
            <stop offset="1" stop-color="white"/>
        </linearGradient>
        <linearGradient id="paint3_linear" x1="127.469" y1="249.788" x2="316.456" y2="232.264" gradientUnits="userSpaceOnUse">
            <stop stop-color="#6D94E7"/>
            <stop offset="1" stop-color="#7E9EEF"/>
        </linearGradient>
        <linearGradient id="paint4_linear" x1="174.942" y1="191.335" x2="167.579" y2="239.698" gradientUnits="userSpaceOnUse">
            <stop stop-color="#6D7FE7"/>
            <stop offset="1" stop-color="#4E60CD"/>
        </linearGradient>
        <linearGradient id="paint5_linear" x1="195.102" y1="176.795" x2="71.8081" y2="200.93" gradientUnits="userSpaceOnUse">
            <stop stop-color="#4F6FCE"/>
            <stop offset="1" stop-color="#3B3B5D"/>
        </linearGradient>
        <linearGradient id="paint6_linear" x1="269.74" y1="-51.7466" x2="106.668" y2="-5.29682" gradientUnits="userSpaceOnUse">
            <stop stop-color="#C0E1FF"/>
            <stop offset="1" stop-color="white"/>
        </linearGradient>
        <linearGradient id="paint7_linear" x1="297.116" y1="-24.1431" x2="101.222" y2="-6.90916" gradientUnits="userSpaceOnUse">
            <stop stop-color="#4F6FCE"/>
            <stop offset="1" stop-color="#3B3B5D"/>
        </linearGradient>
        <linearGradient id="paint8_linear" x1="110.623" y1="160.245" x2="147.797" y2="178.069" gradientUnits="userSpaceOnUse">
            <stop stop-color="#15539E"/>
            <stop offset="1" stop-color="#092965"/>
        </linearGradient>
        <linearGradient id="paint9_linear" x1="142.828" y1="136.438" x2="135.521" y2="111.252" gradientUnits="userSpaceOnUse">
            <stop stop-color="#15539E"/>
            <stop offset="1" stop-color="#092965"/>
        </linearGradient>
        <linearGradient id="paint10_linear" x1="132.149" y1="107.242" x2="129.414" y2="102.666" gradientUnits="userSpaceOnUse">
            <stop stop-color="#BED4EB"/>
            <stop offset="1" stop-color="#0041AE"/>
        </linearGradient>
        <linearGradient id="paint11_linear" x1="130.219" y1="148.912" x2="114.844" y2="139.223" gradientUnits="userSpaceOnUse">
            <stop stop-color="#1B4A7A"/>
            <stop offset="1" stop-color="#0041AE"/>
        </linearGradient>
        <linearGradient id="paint12_linear" x1="128.944" y1="99.1806" x2="128.088" y2="100.769" gradientUnits="userSpaceOnUse">
            <stop stop-color="#F3A6A6"/>
            <stop offset="1" stop-color="#FCCBCB"/>
        </linearGradient>
        <linearGradient id="paint13_linear" x1="137.451" y1="106.466" x2="134.826" y2="131.44" gradientUnits="userSpaceOnUse">
            <stop stop-color="#15539E"/>
            <stop offset="1" stop-color="#092965"/>
        </linearGradient>
        <linearGradient id="paint14_linear" x1="124.583" y1="111.331" x2="120.43" y2="105.743" gradientUnits="userSpaceOnUse">
            <stop stop-color="#BED4EB"/>
            <stop offset="1" stop-color="#CEDBF0"/>
        </linearGradient>
        <linearGradient id="paint15_linear" x1="132.438" y1="98.0612" x2="129.196" y2="128.903" gradientUnits="userSpaceOnUse">
            <stop stop-color="#ABBEE7"/>
            <stop offset="1" stop-color="#A5B6DC" stop-opacity="0.01"/>
        </linearGradient>
        <linearGradient id="paint16_linear" x1="132.962" y1="98.9524" x2="129.618" y2="130.769" gradientUnits="userSpaceOnUse">
            <stop stop-color="#15539E"/>
            <stop offset="1" stop-color="#092965"/>
        </linearGradient>
        <linearGradient id="paint17_linear" x1="141.45" y1="98.353" x2="138.185" y2="129.41" gradientUnits="userSpaceOnUse">
            <stop stop-color="#15539E"/>
            <stop offset="1" stop-color="#092965"/>
        </linearGradient>
        <linearGradient id="paint18_linear" x1="129.03" y1="91.128" x2="134.156" y2="99.5741" gradientUnits="userSpaceOnUse">
            <stop stop-color="#FCCBCB"/>
            <stop offset="1" stop-color="#E77575"/>
        </linearGradient>
        <linearGradient id="paint19_linear" x1="126.982" y1="87.2567" x2="127.531" y2="93.2016" gradientUnits="userSpaceOnUse">
            <stop stop-color="#0C3564"/>
            <stop offset="1" stop-color="#BFA5B1"/>
        </linearGradient>
        <linearGradient id="paint20_linear" x1="123.589" y1="92.3313" x2="122.32" y2="92.1356" gradientUnits="userSpaceOnUse">
            <stop stop-color="#FCCBCB"/>
            <stop offset="1" stop-color="#E77575"/>
        </linearGradient>
        <linearGradient id="paint21_linear" x1="141.738" y1="145.257" x2="142.147" y2="146.852" gradientUnits="userSpaceOnUse">
            <stop stop-color="#F3A6A6"/>
            <stop offset="1" stop-color="#FCCBCB"/>
        </linearGradient>
        <linearGradient id="paint22_linear" x1="129.83" y1="144.775" x2="138.647" y2="120.212" gradientUnits="userSpaceOnUse">
            <stop stop-color="#15539E"/>
            <stop offset="1" stop-color="#092965"/>
        </linearGradient>
        <linearGradient id="paint23_linear" x1="205.682" y1="141.963" x2="206.604" y2="141.923" gradientUnits="userSpaceOnUse">
            <stop stop-color="#F8A29B"/>
            <stop offset="1" stop-color="#C47770"/>
        </linearGradient>
        <linearGradient id="paint24_linear" x1="221.579" y1="169.034" x2="219.723" y2="204.459" gradientUnits="userSpaceOnUse">
            <stop stop-color="#8EBBFF"/>
            <stop offset="1" stop-color="#5586FF"/>
        </linearGradient>
        <linearGradient id="paint25_linear" x1="218.295" y1="149.653" x2="217.051" y2="173.398" gradientUnits="userSpaceOnUse">
            <stop stop-color="white"/>
            <stop offset="1" stop-color="#F0F0F0"/>
        </linearGradient>
        <linearGradient id="paint26_linear" x1="364.982" y1="236.703" x2="283.569" y2="251.134" gradientUnits="userSpaceOnUse">
            <stop stop-color="#4F6FCE"/>
            <stop offset="1" stop-color="#3B3B5D"/>
        </linearGradient>
        <linearGradient id="paint27_linear" x1="76.2369" y1="80.3755" x2="-5.17587" y2="94.8072" gradientUnits="userSpaceOnUse">
            <stop stop-color="#4F6FCE"/>
            <stop offset="1" stop-color="#3B3B5D"/>
        </linearGradient>
    </defs>
</svg>
