<svg width="397" height="396" viewBox="0 0 397 396" fill="none" xmlns="http://www.w3.org/2000/svg">
<path d="M310.64 0.399902C263.52 0.399902 225.28 38.4799 225.2 85.5999L225.2 180C216.4 180.56 207.44 180.96 198.08 180.96C188.72 180.96 179.76 181.36 170.96 181.84L170.96 85.5999C170.16 38.9599 132.16 1.5199 85.5201 1.5199C38.8801 1.5199 0.800082 38.9599 0.080087 85.5999L0.0801107 311.28C0.800116 357.92 38.8001 395.36 85.5201 395.36C132.24 395.36 170.24 357.92 170.96 311.28L170.96 216.88C179.76 216.32 188.72 215.92 198.08 215.92C207.44 215.92 216.4 215.52 225.2 215.04L225.2 311.36C225.92 358 264 395.44 310.64 395.44C357.28 395.44 395.36 358 396.08 311.36L396.08 85.5999C395.92 38.4799 357.76 0.399902 310.64 0.399902ZM85.5201 35.3599C113.28 35.3599 135.84 57.8399 135.92 85.5999L135.92 185.6C110.96 189.2 86.4801 196.16 63.2801 206.16C53.2001 210.56 43.7601 216.24 35.1201 222.96L35.1201 85.5999C35.2001 57.8399 57.7601 35.3599 85.5201 35.3599ZM135.92 311.28C135.92 339.12 113.36 361.68 85.5201 361.68C57.6801 361.68 35.1201 339.12 35.1201 311.28L35.1201 288.64C35.1201 268.64 50.9601 249.68 77.5201 237.92C96.2401 229.84 115.84 224.08 136 220.8L136 311.28H135.92ZM310.64 361.52C282.88 361.52 260.32 339.04 260.24 311.28L260.24 211.28C285.2 207.68 309.68 200.72 332.88 190.72C342.96 186.32 352.4 180.64 361.04 173.92L361.04 311.28C360.88 339.04 338.4 361.52 310.64 361.52ZM318.64 158.8C299.92 166.88 280.32 172.64 260.16 175.92L260.16 85.5999C260.16 57.7599 282.72 35.1999 310.56 35.1999C338.4 35.1999 360.96 57.7599 360.96 85.5999L360.96 108.24C361.04 128.16 345.2 147.12 318.64 158.8Z" fill="url(#paint0_linear_61_12065)"/>
<defs>
<linearGradient id="paint0_linear_61_12065" x1="25.0625" y1="371.44" x2="370.114" y2="24.5048" gradientUnits="userSpaceOnUse">
<stop stop-color="#00AEE9"/>
<stop offset="1" stop-color="#69FABD"/>
</linearGradient>
</defs>
</svg>
