<svg width="120" height="120" viewBox="0 0 120 120" fill="none" xmlns="http://www.w3.org/2000/svg">
<path d="M93.7911 0.720215C79.655 0.720215 68.1831 12.1442 68.1591 26.2802L68.1591 54.6002C65.5191 54.7682 62.8311 54.8882 60.0231 54.8882C57.2151 54.8882 54.5271 55.0082 51.8871 55.1522L51.8871 26.2802C51.6471 12.2882 40.2471 1.05621 26.2551 1.05621C12.263 1.05621 0.839048 12.2882 0.62305 26.2802L0.623057 93.9842C0.839058 107.976 12.2391 119.208 26.2551 119.208C40.2711 119.208 51.6711 107.976 51.8871 93.9842L51.8871 65.6642C54.5271 65.4962 57.2151 65.3762 60.0231 65.3762C62.8311 65.3762 65.5191 65.2562 68.1591 65.1122L68.1591 94.0082C68.3751 108 79.7991 119.232 93.7911 119.232C107.783 119.232 119.207 108 119.423 94.0082L119.423 26.2802C119.375 12.1442 107.927 0.720215 93.7911 0.720215ZM26.2551 11.2082C34.5831 11.2082 41.3511 17.9522 41.375 26.2802L41.3751 56.2802C33.8871 57.3602 26.5431 59.4482 19.5831 62.4482C16.5591 63.7682 13.7271 65.4722 11.1351 67.4882L11.1351 26.2802C11.1591 17.9522 17.927 11.2082 26.2551 11.2082ZM41.3751 93.9842C41.3751 102.336 34.6071 109.104 26.2551 109.104C17.9031 109.104 11.1351 102.336 11.1351 93.9842L11.1351 87.1922C11.1351 81.1922 15.8871 75.5042 23.8551 71.9762C29.4711 69.5522 35.3511 67.8242 41.3991 66.8402L41.3991 93.9842H41.3751ZM93.7911 109.056C85.4631 109.056 78.6951 102.312 78.6711 93.9842L78.6711 63.9842C86.1591 62.9042 93.5031 60.8162 100.463 57.8162C103.487 56.4962 106.319 54.7922 108.911 52.7762L108.911 93.9842C108.863 102.312 102.119 109.056 93.7911 109.056ZM96.1911 48.2402C90.5751 50.6642 84.6951 52.3922 78.6471 53.3762L78.6471 26.2802C78.6471 17.9282 85.4151 11.1602 93.7671 11.1602C102.119 11.1602 108.887 17.9282 108.887 26.2802L108.887 33.0722C108.911 39.0482 104.159 44.7362 96.1911 48.2402Z" fill="url(#paint0_linear_61_21953)"/>
<defs>
<linearGradient id="paint0_linear_61_21953" x1="8.11778" y1="112.032" x2="111.633" y2="7.95168" gradientUnits="userSpaceOnUse">
<stop stop-color="#00AEE9"/>
<stop offset="1" stop-color="#69FABD"/>
</linearGradient>
</defs>
</svg>
