<svg width="400" height="400" viewBox="0 0 400 400" fill="none" xmlns="http://www.w3.org/2000/svg">
<g clip-path="url(#clip0_162_69999)">
<path d="M200 380C299.411 380 380 299.411 380 200C380 100.589 299.411 20 200 20C100.589 20 20 100.589 20 200C20 299.411 100.589 380 200 380Z" fill="white"/>
<path fill-rule="evenodd" clip-rule="evenodd" d="M218.926 50.5755C236.678 53.4317 242.996 54.9927 253.084 59.0223C317.44 84.7203 355.994 147.03 349.462 214.79C348.598 223.776 347.2 233.23 346.36 235.798C335.094 270.226 326.38 285.692 307.296 305.132C286.556 326.256 264.982 338.564 233.676 347.134C231.114 347.834 222.586 349.216 214.724 350.202C183.566 354.116 142.573 343.914 117.825 326.09C113.648 323.084 109.854 320.622 109.391 320.622C108.928 320.622 105.669 317.996 102.148 314.786C75.7852 290.756 59.5722 263.666 53.0122 232.684C48.9738 213.616 47.7146 198.415 49.4862 190.135C50.4488 185.632 51.2376 179.821 51.2376 177.22C51.2376 169.66 57.2868 149.715 63.8234 135.724C79.7818 101.564 110.765 72.8527 146.65 58.9693C157.069 54.9397 160.264 54.3531 167.116 55.2105C174.24 56.1025 175.441 55.8457 176.902 53.1063C177.939 51.1651 181.521 49.8265 186.807 49.1407C194.666 48.1213 206.292 48.5443 218.926 50.5755ZM178.466 98.5445C175.295 88.9445 181.078 77.3009 190.979 73.3429C199.981 69.7445 211.236 72.6877 217.112 80.1771C220.996 85.1251 221.72 97.8363 218.484 104.247C216.1 108.974 205.676 115.114 199.978 115.15C190.814 115.204 181.626 108.112 178.466 98.5445ZM199.488 144.747C199.845 144.747 204.19 142.297 209.144 139.304C214.096 136.309 219.024 133.858 220.09 133.856C221.58 133.853 222.032 141.249 222.032 165.667C222.032 183.165 222.656 197.867 223.416 198.34C225.092 199.379 234.586 195.229 269.964 177.993C284.804 170.764 297.668 165.091 298.552 165.386C299.434 165.682 300.372 167.347 300.638 169.088C301.034 171.682 297.39 174.406 280.45 184.182C269.082 190.74 259.308 196.109 258.73 196.109C258.152 196.109 254.902 197.867 251.506 200.016C248.112 202.164 241.314 206.088 236.4 208.734C230.4 211.966 226.896 213.554 224.854 216.248C221.692 220.418 222.032 227.24 222.032 246.912C222.032 262.604 221.252 278.778 220.298 282.858C215.648 302.748 205.032 317.26 190.201 324.004C183.983 326.83 179.79 327.512 169.133 327.43C157.191 327.34 154.853 326.81 146.327 322.256C130.594 313.85 123.312 300.348 124.679 282.114C125.604 269.786 130.914 258.204 139.246 250.348C145.936 244.038 167.007 229.322 178.427 222.978C184.049 219.858 189.162 216.562 189.79 215.656C190.417 214.748 190.94 204.004 190.954 191.78C190.973 173.48 190.567 169.394 188.658 168.66C187.381 168.168 176.725 171.947 164.98 177.055C153.232 182.163 142.851 186.054 141.91 185.701C139.277 184.711 141.157 178.264 144.734 176.024C148.161 173.88 154.951 169.989 166.135 163.763C169.978 161.623 178.907 156.47 185.979 152.309C193.05 148.151 199.129 144.747 199.488 144.747Z" fill="#F6931E"/>
<path fill-rule="evenodd" clip-rule="evenodd" d="M216.596 10.8958C217.158 13.4639 218.176 15.5651 218.854 15.5651C219.534 15.5651 222.26 15.9993 224.91 16.5316C229.104 17.3721 229.932 16.9643 231.292 13.3783C232.15 11.1137 233.944 8.83978 235.28 8.32618C237.266 7.56196 261.626 13.2849 263.808 15.0281C264.154 15.3036 264.852 18.0367 265.36 21.0981C266.002 24.9767 267.61 27.4593 270.66 29.2865C274.886 31.8141 275.142 31.7831 277.898 28.4055C281.76 23.6693 286.768 24.0009 295.532 29.5729C299.572 32.1409 303.444 34.2421 304.136 34.2421C304.826 34.2421 306.66 35.6461 308.21 37.3613C310.592 40.0009 310.74 41.1121 309.16 44.5829C307.534 48.1597 307.738 49.1589 310.738 52.3589C314.686 56.5737 318.614 57.0655 321.402 53.6973C322.466 52.4133 323.852 51.3627 324.484 51.3627C326.408 51.3627 335.94 59.5293 342.32 66.6405C348.34 73.3549 348.344 73.3627 345.672 77.8951C341.358 85.2133 347.14 93.1869 354.676 90.3137C359.942 88.3075 363.43 91.7877 370.962 106.561L376.27 116.974L371.93 120.443C367.65 123.864 367.626 123.981 370.156 128.882C372.248 132.941 373.654 133.853 377.814 133.853C382.232 133.853 383.262 134.648 385.54 139.823C386.984 143.107 388.166 147.52 388.166 149.629C388.166 151.738 388.92 154.219 389.84 155.142C392.976 158.286 390.816 165.582 386.08 167.848C382.062 169.77 381.762 170.466 382.73 175.638C383.852 181.633 385.852 183.853 389.032 182.63C390.092 182.223 391.474 182.728 392.106 183.753C393.488 185.993 393.45 214.067 392.064 216.319C391.528 217.189 389.384 217.899 387.298 217.899C385.214 217.899 383.508 218.513 383.508 219.261C383.508 220.011 383.07 222.819 382.534 225.499C381.654 229.915 382.02 230.537 386.416 232.073C390.55 233.515 391.272 234.543 391.272 238.973C391.272 241.835 390.572 244.609 389.718 245.137C388.864 245.667 388.132 247.983 388.092 250.287C388.052 252.591 386.826 256.927 385.37 259.923C383.348 264.081 381.62 265.485 378.07 265.857C369.622 266.739 366.724 274.997 373.028 280.215L376.522 283.107L371.086 293.485C363.364 308.231 359.898 311.679 354.764 309.721C354.446 309.599 354.15 309.485 353.874 309.379C351.942 308.633 350.926 308.241 350.082 308.473C349.146 308.731 348.422 309.757 346.892 311.927C346.694 312.209 346.482 312.509 346.254 312.829C343.198 317.131 343.13 317.751 345.372 320.957C346.706 322.867 347.796 325.233 347.796 326.215C347.796 328.637 327.706 348.639 325.272 348.639C324.206 348.639 322.466 347.589 321.402 346.305C318.71 343.053 316.044 343.383 311.186 347.571C307.624 350.643 307.268 351.659 308.766 354.463C311.446 359.485 309.652 361.893 298.1 368.771C286 375.977 283.384 376.391 278.572 371.865C275.32 368.799 274.886 368.761 270.322 371.125C266.736 372.983 265.5 374.707 265.482 377.863C265.446 384.229 264.256 385.117 250.564 388.981C236.832 392.855 231.348 391.987 231.348 385.939C231.348 383.799 230.298 382.887 227.854 382.903C220.682 382.945 217.558 384.677 217.074 388.875L216.596 392.997L200.04 393.437L183.483 393.879L182.485 389.317C180.901 382.093 170.152 380.277 167.673 386.811C165.771 391.825 162.345 393.113 156.236 391.115C153.568 390.241 148.241 388.605 144.398 387.479C135.202 384.785 133.138 383.037 133.974 378.653C134.481 375.987 133.516 374.193 130.357 371.939C126.305 369.045 121.108 369.135 121.108 372.097C121.108 372.833 119.649 374.215 117.863 375.173C115.106 376.653 112.758 375.787 102.201 369.391L89.7847 361.869L90.7319 355.921C91.5221 350.965 91.0921 349.483 88.1497 347.023C83.7759 343.367 81.6721 343.257 78.4223 346.515C74.9211 350.025 70.4167 347.437 59.5575 335.679C51.3981 326.847 51.1823 326.389 53.4973 322.847C56.7875 317.815 56.5205 315.527 52.1605 311.423C49.1267 308.565 47.8363 308.223 45.2869 309.591C40.7251 312.037 38.0467 310.391 33.9337 302.621C31.9261 298.825 29.8689 295.721 29.3643 295.721C28.8581 295.721 27.5197 292.911 26.3893 289.479C24.4859 283.693 24.5805 282.973 27.6937 279.649C31.1731 275.939 32.2197 270.819 29.5009 270.819C28.6469 270.819 27.9483 269.767 27.9483 268.483C27.9483 266.939 26.4081 266.149 23.4005 266.149C18.0469 266.149 14.3345 262.893 13.0706 257.091C12.5707 254.797 11.2276 249.981 10.0864 246.391C7.52918 238.349 8.59896 233.661 13.4107 231.827C20.3961 229.163 16.915 216.343 9.20606 216.343C6.44076 216.343 6.21096 215.107 6.21096 200.195L6.21096 184.047L10.6671 183.154C15.1838 182.248 17.0144 178.938 17.0579 171.596C17.0734 169.201 16.1589 168.094 14.1637 168.094C8.26357 168.094 7.00591 164.077 9.87679 154.393C10.3669 152.739 10.8151 151.218 11.2274 149.818C14.6769 138.11 15.6157 134.923 17.561 134.092C18.2885 133.781 19.1566 133.799 20.3495 133.825C20.7305 133.833 21.1447 133.842 21.5979 133.84C26.1269 133.831 27.5353 133.044 29.1127 129.64C31.7243 124.002 31.5971 123.12 27.7139 119.968C23.4703 116.524 24.2839 112.991 32.3997 99.6117C38.5173 89.5277 39.0669 89.1901 47.1377 90.5613C48.8627 90.8539 51.3377 89.3177 53.2815 86.7479C56.4211 82.5971 56.4413 82.2811 53.8451 77.8733L51.1513 73.3037L61.4749 62.3325C70.5845 52.6531 77.6335 48.5005 77.6335 52.8149C77.6335 56.1877 84.1625 56.2749 87.6949 52.9487C90.5797 50.2313 91.1277 48.4335 90.5005 43.7441C89.7319 37.9993 89.8593 37.8359 99.5821 32.0289C109.732 25.9683 119.555 23.1029 119.555 26.2017C119.555 27.1401 120.971 28.6671 122.701 29.5947C126.8 31.7939 135.164 26.3449 134.085 22.1783C132.84 17.3659 137.139 14.0818 148.977 10.8024C161.777 7.25848 167.688 7.75964 167.688 12.39C167.688 16.5098 170.056 17.6071 176.383 16.4164C180.774 15.5915 181.941 14.5534 182.687 10.8149L183.603 6.22656L199.589 6.22656L215.574 6.22656L216.596 10.8958ZM53.1821 127.607C76.2299 78.9083 126.291 43.0545 179.333 37.2569C199.532 35.0499 231.95 37.7099 247.65 42.8631C274.798 51.7737 296.116 64.9269 316.538 85.3659C336.97 105.817 348.588 126.286 358.194 158.756C361.68 170.538 362.12 174.88 362.212 198.444C362.304 222.521 361.928 226.375 358.036 241.237C355.684 250.221 353.236 258.275 352.596 259.135C351.954 259.997 349.84 264.553 347.894 269.261C342.916 281.309 329.526 301.051 318.832 312.107C297.43 334.235 277.876 346.627 249.156 356.265C226.018 364.027 196.888 365.689 168.465 360.865C157.276 358.967 136.253 352.251 129.26 348.345C115.946 340.907 112.191 338.627 104.15 333.091C94.7051 326.587 78.1303 310.737 71.6481 302.005C69.3981 298.977 67.2043 296.149 66.7695 295.721C62.7839 291.793 53.3405 274.167 46.3381 257.589C38.9303 240.047 35.0813 208.659 37.3465 184.258C38.2689 174.325 39.7237 164.348 40.5823 162.088C41.4393 159.826 42.0667 157.795 41.9765 157.571C41.3399 156.002 47.3489 139.932 53.1821 127.607Z" fill="#F6931E"/>
<path fill-rule="evenodd" clip-rule="evenodd" d="M177.004 7.1144C177.004 5.8926 178.102 3.79144 179.443 2.44514C181.384 0.501166 185.609 0 200.094 0C218.882 0 222.032 0.938518 222.032 6.53696C222.032 10.2817 225.468 10.0996 227.882 6.22568C229.426 3.7463 231.476 3.12062 237.958 3.1533C247.022 3.19844 267.244 9.45058 268.818 12.6957C269.374 13.8459 270.63 16.7984 271.604 19.2576C273.262 23.4412 273.558 23.5674 276.164 21.2032C280.898 16.9058 287.298 18.2599 301.606 26.5836C315.18 34.481 315.986 35.502 315.326 43.9688C314.95 48.7876 315.024 48.8264 320.524 46.7316C322.872 45.8366 325.958 45.7666 328.038 46.5588C332.996 48.4482 344.996 59.505 350.096 66.884C354.166 72.7688 354.384 74.758 351.688 81.323C350.738 83.6374 351.468 84.0498 356.558 84.07C359.852 84.084 363.262 84.6086 364.136 85.2374C366.454 86.9058 370.962 93.975 378.266 107.393C381.074 112.551 380.974 120.543 378.074 122.957C374.444 125.978 375.266 127.377 381.686 129.11C389.1 131.111 391.752 136.181 395.898 156.272C397.414 163.609 395.268 170.713 391.142 172.026C387.21 173.276 387.31 177.432 391.272 177.432C392.98 177.432 395.726 178.784 397.376 180.437C400.034 183.102 400.306 185.233 399.778 199.211C399.038 218.818 398.39 220.908 392.7 222.048C387.296 223.132 386.814 225.906 391.66 228.036C396.292 230.074 397.004 239.546 393.558 253.322C390.214 266.684 387.452 270.818 381.868 270.818C376.34 270.818 374.71 273.316 377.922 276.874C379.286 278.386 380.402 281.518 380.402 283.832C380.402 288.858 374.026 302 367.648 310.116C363.744 315.084 362.158 315.954 356.982 315.954C353.638 315.954 350.902 316.2 350.902 316.5C350.902 316.8 351.664 319.238 352.598 321.92C354.738 328.074 351.536 333.748 339.456 345.198C330.688 353.512 323.988 356.522 320.978 353.506C317.644 350.164 314.774 351.462 315.624 355.924C316.954 362.902 313.83 366.71 300.646 374.174C287.494 381.62 278.632 383.42 276.936 378.988C275.76 375.916 271.716 375.976 271.716 379.066C271.716 385.04 267.012 390.55 260.45 392.258C256.826 393.204 251.714 394.63 249.092 395.432C239.844 398.256 231.81 397.252 227.65 392.754L223.828 388.622L221.454 394.312L219.084 400H199.564H180.042L178.209 395.72C177.201 393.366 176.204 391.184 175.995 390.874C175.786 390.562 173.737 391.786 171.442 393.596C168.775 395.702 165.03 396.888 161.059 396.888C154.501 396.888 143.078 394.134 140.594 391.954C139.782 391.244 137.911 390.662 136.434 390.662C132.36 390.662 128.871 386.304 128.871 381.212C128.871 376.2 125.861 375.122 122.661 378.988C119.231 383.132 111.824 381.612 98.7464 374.084C91.8308 370.102 85.6372 366.076 84.9836 365.134C84.3284 364.194 83.9588 360.972 84.1638 357.976C84.527 352.642 83.771 352.028 78.4096 353.306C72.0638 354.818 68.0408 352.668 57.4516 342.094L46.2228 330.882L47.0938 323.504L47.9664 316.124L41.45 315.65C35.3542 315.206 34.5282 314.554 28.614 305.534C19.8943 292.238 17.483 284.58 20.256 278.986C23.4096 272.628 23.0368 271.67 17.0793 270.818C11.8965 270.074 11.4509 269.498 7.47301 258.366C1.85081 242.64 1.76074 233.008 7.1842 227.968C10.968 224.454 11.0519 224.102 8.3487 223.136C0.731327 220.414 2.28638e-05 218.376 2.09262e-05 199.869C1.89767e-05 181.25 1.33997 177.432 7.87358 177.432C11.9214 177.432 11.6403 175.553 6.98702 171.497C2.10078 167.239 1.85546 158.987 6.20448 145.085C10.5209 131.279 11.645 129.675 17.8137 128.515C23.883 127.374 24.2308 126.671 20.9112 122.271C17.5871 117.865 18.0653 114.35 23.436 103.695C31.4694 87.7572 34.9396 84.0466 41.8102 84.0466H47.7506L46.9758 77.1486C46.2756 70.9276 46.774 69.547 52.053 63.0894C63.6064 48.9556 71.8278 44.358 80.3504 47.267C83.465 48.33 83.8438 47.9486 83.8438 43.7572C83.8438 35.3214 86.6852 31.9626 99.5522 25.1876C113.129 18.0374 116.271 17.4693 121.87 21.1456C126.583 24.2412 128.871 22.9074 128.871 17.0693C128.871 11.7946 133.382 8.86692 146.978 5.31674C159.482 2.05136 168.77 2.40156 171.153 6.22568C173.397 9.82568 177.004 10.3735 177.004 7.1144ZM218.854 15.5642C218.176 15.5642 217.158 13.463 216.596 10.8949L215.574 6.22568L199.589 6.22568L183.603 6.22568L182.687 10.814C181.941 14.5525 180.774 15.5907 176.383 16.4156C170.056 17.6062 167.688 16.5089 167.688 12.3891C167.688 7.75876 161.777 7.2576 148.977 10.8016C137.139 14.0809 132.84 17.365 134.085 22.1774C135.164 26.344 126.8 31.793 122.701 29.5938C120.971 28.6662 119.555 27.1392 119.555 26.2008C119.555 23.102 109.731 25.9674 99.5818 32.028C89.859 37.835 89.7316 37.9984 90.5002 43.7432C91.1274 48.4326 90.5794 50.2304 87.6946 52.9478C84.1622 56.274 77.6332 56.1868 77.6332 52.814C77.6332 48.4996 70.5842 52.6522 61.4746 62.3316L51.151 73.3028L53.8448 77.8724C56.441 82.2802 56.4208 82.5962 53.2812 86.747C51.3374 89.3168 48.8624 90.853 47.1374 90.5604C39.0666 89.1892 38.517 89.5268 32.3994 99.6108C24.2836 112.99 23.47 116.523 27.7136 119.967C31.5968 123.119 31.724 124.002 29.1124 129.639C27.535 133.043 26.1266 133.83 21.5976 133.84C21.1444 133.841 20.7302 133.832 20.3492 133.824C19.1564 133.799 18.2882 133.78 17.5608 134.091C15.6154 134.923 14.6766 138.109 11.2272 149.818C10.8148 151.217 10.3666 152.739 9.87652 154.392C7.00564 164.076 8.2633 168.093 14.1634 168.093C16.1586 168.093 17.0731 169.2 17.0576 171.595C17.0141 178.937 15.1835 182.247 10.6668 183.153L6.21068 184.047L6.21068 200.194C6.21068 215.106 6.44048 216.342 9.20578 216.342C16.9148 216.342 20.3958 229.162 13.4104 231.826C8.59868 233.66 7.52891 238.348 10.0861 246.39C11.2273 249.98 12.5704 254.796 13.0703 257.09C14.3342 262.892 18.0466 266.148 23.4002 266.148C26.4078 266.148 27.948 266.938 27.948 268.482C27.948 269.766 28.6466 270.818 29.5006 270.818C32.2194 270.818 31.1728 275.938 27.6934 279.648C24.5802 282.972 24.4856 283.692 26.389 289.478C27.5194 292.91 28.8578 295.72 29.364 295.72C29.8686 295.72 31.9258 298.824 33.9334 302.62C38.0464 310.39 40.7248 312.036 45.2866 309.59C47.836 308.222 49.1264 308.564 52.1602 311.422C56.5202 315.526 56.7872 317.814 53.497 322.846C51.182 326.388 51.3978 326.846 59.5572 335.678C70.4164 347.436 74.9208 350.024 78.422 346.514C81.6718 343.256 83.7756 343.366 88.1494 347.022C91.0918 349.482 91.5218 350.964 90.7316 355.92L89.7844 361.868L102.201 369.39C112.758 375.786 115.105 376.652 117.863 375.172C119.648 374.214 121.108 372.832 121.108 372.096C121.108 369.134 126.305 369.044 130.357 371.938C133.515 374.192 134.481 375.986 133.973 378.652C133.138 383.036 135.201 384.784 144.398 387.478C148.241 388.604 153.568 390.24 156.235 391.114C162.345 393.112 165.77 391.824 167.672 386.81C170.152 380.276 180.901 382.092 182.485 389.316L183.483 393.878L200.04 393.436L216.596 392.996L217.074 388.874C217.558 384.676 220.682 382.944 227.854 382.902C230.298 382.886 231.348 383.798 231.348 385.938C231.348 391.986 236.832 392.854 250.564 388.98C264.256 385.116 265.446 384.228 265.482 377.862C265.5 374.706 266.736 372.982 270.322 371.124C274.886 368.76 275.32 368.798 278.572 371.864C283.384 376.39 286 375.976 298.1 368.77C309.652 361.892 311.446 359.484 308.766 354.462C307.268 351.658 307.624 350.642 311.186 347.57C316.044 343.382 318.71 343.052 321.402 346.304C322.466 347.588 324.206 348.638 325.272 348.638C327.706 348.638 347.796 328.636 347.796 326.214C347.796 325.232 346.706 322.866 345.372 320.956C343.13 317.75 343.198 317.13 346.254 312.828C346.482 312.508 346.694 312.208 346.892 311.926C348.422 309.756 349.146 308.73 350.082 308.472C350.926 308.24 351.942 308.632 353.874 309.378C354.15 309.484 354.446 309.598 354.764 309.72C359.898 311.678 363.364 308.23 371.086 293.484L376.522 283.106L373.028 280.214C366.724 274.996 369.622 266.738 378.07 265.856C381.62 265.484 383.348 264.08 385.37 259.922C386.826 256.926 388.052 252.59 388.092 250.286C388.132 247.982 388.864 245.666 389.718 245.136C390.572 244.608 391.272 241.834 391.272 238.972C391.272 234.542 390.55 233.514 386.416 232.072C382.02 230.536 381.654 229.914 382.534 225.498C383.07 222.818 383.508 220.01 383.508 219.26C383.508 218.512 385.214 217.898 387.298 217.898C389.384 217.898 391.528 217.188 392.064 216.318C393.45 214.066 393.488 185.992 392.106 183.753C391.474 182.727 390.092 182.223 389.032 182.629C385.852 183.852 383.852 181.633 382.73 175.637C381.762 170.465 382.062 169.77 386.08 167.847C390.816 165.581 392.976 158.285 389.84 155.141C388.92 154.218 388.166 151.737 388.166 149.628C388.166 147.519 386.984 143.107 385.54 139.823C383.262 134.647 382.232 133.852 377.814 133.852C373.654 133.852 372.248 132.94 370.156 128.881C367.626 123.98 367.65 123.863 371.93 120.442L376.27 116.973L370.962 106.56C363.43 91.7868 359.942 88.3066 354.676 90.3128C347.14 93.186 341.358 85.2124 345.672 77.8942C348.344 73.3618 348.34 73.354 342.32 66.6396C335.94 59.5284 326.408 51.3618 324.484 51.3618C323.852 51.3618 322.466 52.4124 321.402 53.6964C318.614 57.0646 314.686 56.5728 310.738 52.358C307.738 49.158 307.534 48.1588 309.16 44.582C310.74 41.1112 310.592 40 308.21 37.3604C306.66 35.6452 304.826 34.2412 304.136 34.2412C303.444 34.2412 299.572 32.14 295.532 29.572C286.768 24 281.76 23.6684 277.898 28.4046C275.142 31.7822 274.886 31.8132 270.66 29.2856C267.61 27.4584 266.002 24.9758 265.36 21.0972C264.852 18.0358 264.154 15.3027 263.808 15.0272C261.626 13.284 237.266 7.56108 235.28 8.3253C233.944 8.8389 232.15 11.1128 231.292 13.3774C229.932 16.9634 229.104 17.3712 224.91 16.5307C222.26 15.9984 219.534 15.5642 218.854 15.5642Z" fill="#F6931E"/>
<path d="M190.36 257.91C189.172 276.336 185.371 287.092 177.133 295.35C172.877 299.618 170.995 300.382 164.851 300.34C156.498 300.284 153.711 298.578 149.91 291.204C142.968 277.74 153.448 259.428 176.908 244.032C191.271 234.608 191.827 235.178 190.36 257.91Z" fill="#F6931E"/>
<path d="M146.65 58.9692C157.069 54.9396 160.264 54.353 167.116 55.2104C174.24 56.1024 175.441 55.8456 176.902 53.1062C177.939 51.165 181.521 49.8264 186.807 49.1406C167.14 50.4392 152.795 55.5452 146.65 58.9692Z" fill="#F6931E"/>
</g>
<defs>
<clipPath id="clip0_162_69999">
<rect width="400" height="400" fill="white"/>
</clipPath>
</defs>
</svg>
