<svg width="327" height="216" viewBox="0 0 327 216" fill="none" xmlns="http://www.w3.org/2000/svg">
<g clip-path="url(#clip0_169_68876)">
<path d="M72.25 177C110.358 177 141.25 146.108 141.25 108C141.25 69.8924 110.358 39 72.25 39C34.1424 39 3.25 69.8924 3.25 108C3.25 146.108 34.1424 177 72.25 177Z" fill="#0052B4"/>
<path d="M72.2504 66L74.4845 72.8755H81.7133L75.8648 77.1246L78.0989 84.0001L72.2504 79.7507L66.4015 84.0001L68.6357 77.1246L62.7871 72.8755H70.0162L72.2504 66Z" fill="#FFDA44"/>
<path d="M42.552 78.3022L48.9938 81.584L54.1054 76.4727L52.9742 83.6125L59.4157 86.8946L52.2756 88.0256L51.1446 95.166L47.8625 88.7245L40.7227 89.8557L45.8343 84.744L42.552 78.3022Z" fill="#FFDA44"/>
<path d="M30.25 108L37.1255 105.766V98.5371L41.3744 104.386L48.2501 102.152L44.0004 108L48.2501 113.849L41.3744 111.615L37.1255 117.464V110.234L30.25 108Z" fill="#FFDA44"/>
<path d="M42.552 137.699L45.834 131.258L40.7227 126.146L47.8628 127.277L51.1444 120.836L52.2756 127.976L59.4155 129.107L52.9747 132.389L54.1054 139.529L48.9938 134.417L42.552 137.699Z" fill="#FFDA44"/>
<path d="M72.2504 150L70.0159 143.124H62.7871L68.6359 138.875L66.4015 132L72.2504 136.249L78.0989 132L75.8648 138.875L81.7133 143.124H74.4842L72.2504 150Z" fill="#FFDA44"/>
<path d="M101.949 137.699L95.5076 134.418L90.3957 139.529L91.5269 132.389L85.0859 129.107L92.2258 127.976L93.3568 120.836L96.6386 127.277L103.778 126.146L98.6668 131.258L101.949 137.699Z" fill="#FFDA44"/>
<path d="M114.25 108L107.374 110.234V117.464L103.125 111.615L96.25 113.849L100.499 108L96.25 102.152L103.125 104.386L107.374 98.5371V105.766L114.25 108Z" fill="#FFDA44"/>
<path d="M101.949 78.302L98.6671 84.7438L103.779 89.8554L96.6383 88.7239L93.3568 95.1655L92.2258 88.0253L85.0859 86.8941L91.5269 83.6123L90.3957 76.4727L95.5079 81.584L101.949 78.302Z" fill="#FFDA44"/>
</g>
<g clip-path="url(#clip1_169_68876)">
<path d="M163.25 177C201.358 177 232.25 146.108 232.25 108C232.25 69.8924 201.358 39 163.25 39C125.142 39 94.25 69.8924 94.25 108C94.25 146.108 125.142 177 163.25 177Z" fill="url(#paint0_linear_169_68876)"/>
<path d="M185.872 105.941C190.225 111.75 177.479 122.979 180.343 118.341H153.193C150.256 114.5 148.236 110.3 147.266 105.941H185.872Z" fill="url(#paint1_linear_169_68876)"/>
<path d="M178.003 139.412C174.144 142.488 169.973 145.15 165.558 147.353L163.398 148.44L161.226 147.357C140.799 137.106 128.613 119.451 128.613 100.102V77.3848H141.071V100.102C141.069 101.551 141.167 102.999 141.364 104.434C142.933 116.189 150.867 127.033 163.352 134.334C163.363 134.346 163.377 134.355 163.391 134.362C163.404 134.355 163.411 134.348 163.425 134.342L163.477 134.308C167.99 136.832 172.903 138.558 178.003 139.412Z" fill="url(#paint2_linear_169_68876)"/>
<path d="M197.797 105.941C197.221 110.432 195.989 114.813 194.142 118.946C190.727 126.621 185.238 133.605 178.008 139.415C172.912 138.561 168 136.834 163.49 134.311C165.119 133.351 166.699 132.308 168.223 131.188C168.375 131.09 168.521 130.983 168.661 130.869C177.1 124.792 183.18 115.986 185.871 105.941H197.797Z" fill="url(#paint3_linear_169_68876)"/>
<path d="M198.184 77.3887H141.072V89.8409H198.184V77.3887Z" fill="url(#paint4_linear_169_68876)"/>
<path d="M198.183 89.8418V100.102C198.183 100.526 198.17 100.952 198.157 101.377H185.691C185.704 100.951 185.71 100.526 185.71 100.102V89.8418H198.183Z" fill="url(#paint5_linear_169_68876)"/>
</g>
<g clip-path="url(#clip2_169_68876)">
<path d="M254.25 170.1C288.547 170.1 316.35 142.297 316.35 108C316.35 73.7035 288.547 45.9004 254.25 45.9004C219.954 45.9004 192.15 73.7035 192.15 108C192.15 142.297 219.954 170.1 254.25 170.1Z" fill="white"/>
<path fill-rule="evenodd" clip-rule="evenodd" d="M260.779 56.4485C266.904 57.4339 269.084 57.9724 272.564 59.3626C294.767 68.2285 308.068 89.7253 305.814 113.102C305.516 116.203 305.034 119.464 304.744 120.35C300.857 132.228 297.851 137.564 291.267 144.27C284.112 151.558 276.669 155.804 265.868 158.761C264.984 159.003 262.042 159.479 259.33 159.82C248.581 161.17 234.438 157.65 225.9 151.501C224.459 150.464 223.15 149.614 222.99 149.614C222.83 149.614 221.706 148.708 220.491 147.601C211.396 139.311 205.803 129.965 203.539 119.276C202.146 112.697 201.712 107.453 202.323 104.597C202.655 103.043 202.927 101.038 202.927 100.141C202.927 97.5328 205.014 90.6516 207.269 85.8248C212.775 74.0395 223.464 64.1341 235.845 59.3444C239.439 57.9542 240.541 57.7518 242.905 58.0476C245.363 58.3553 245.777 58.2667 246.281 57.3216C246.639 56.6519 247.875 56.1901 249.699 55.9535C252.41 55.6018 256.421 55.7477 260.779 56.4485ZM246.821 72.9978C245.727 69.6858 247.722 65.6688 251.138 64.3033C254.244 63.0618 258.126 64.0772 260.154 66.6611C261.494 68.3681 261.743 72.7535 260.627 74.9652C259.805 76.596 256.208 78.7143 254.243 78.7267C251.081 78.7454 247.911 76.2985 246.821 72.9978ZM254.073 88.9376C254.197 88.9376 255.696 88.0924 257.405 87.0598C259.113 86.0267 260.813 85.181 261.181 85.1804C261.695 85.1794 261.851 87.731 261.851 96.155C261.851 102.192 262.066 107.264 262.329 107.427C262.907 107.786 266.182 106.354 278.388 100.408C283.507 97.9135 287.945 95.9562 288.25 96.0583C288.555 96.1603 288.878 96.7348 288.97 97.3352C289.107 98.2304 287.85 99.17 282.005 102.543C278.083 104.805 274.711 106.657 274.512 106.657C274.312 106.657 273.191 107.264 272.02 108.005C270.849 108.746 268.503 110.1 266.808 111.013C264.738 112.128 263.529 112.676 262.825 113.605C261.734 115.044 261.851 117.398 261.851 124.184C261.851 129.598 261.582 135.178 261.253 136.586C259.649 143.448 255.986 148.455 250.869 150.781C248.724 151.756 247.278 151.991 243.601 151.963C239.481 151.932 238.674 151.749 235.733 150.178C230.305 147.278 227.793 142.62 228.264 136.329C228.584 132.076 230.415 128.08 233.29 125.37C235.598 123.193 242.868 118.116 246.808 115.927C248.747 114.851 250.511 113.714 250.728 113.401C250.944 113.088 251.124 109.381 251.129 105.164C251.136 98.8505 250.996 97.441 250.337 97.1875C249.897 97.0178 246.22 98.3216 242.168 100.084C238.115 101.846 234.534 103.189 234.209 103.067C233.301 102.725 233.949 100.501 235.184 99.7284C236.366 98.9885 238.708 97.6461 242.567 95.4982C243.892 94.7599 246.973 92.982 249.413 91.5467C251.852 90.1119 253.95 88.9376 254.073 88.9376Z" fill="#F6931E"/>
<path fill-rule="evenodd" clip-rule="evenodd" d="M259.976 42.7593C260.169 43.6453 260.521 44.3702 260.755 44.3702C260.989 44.3702 261.93 44.52 262.844 44.7037C264.291 44.9936 264.576 44.853 265.046 43.6158C265.342 42.8345 265.961 42.05 266.422 41.8728C267.107 41.6092 275.511 43.5836 276.264 44.185C276.383 44.28 276.624 45.2229 276.799 46.2791C277.021 47.6172 277.575 48.4737 278.628 49.1041C280.086 49.9761 280.174 49.9654 281.125 48.8002C282.457 47.1662 284.185 47.2806 287.208 49.2029C288.602 50.0889 289.938 50.8138 290.177 50.8138C290.415 50.8138 291.048 51.2982 291.582 51.8899C292.404 52.8006 292.455 53.1839 291.91 54.3814C291.349 55.6154 291.42 55.9601 292.455 57.0641C293.817 58.5182 295.172 58.6879 296.134 57.5258C296.501 57.0829 296.979 56.7204 297.197 56.7204C297.861 56.7204 301.149 59.5379 303.35 61.9912C305.427 64.3077 305.429 64.3104 304.507 65.8741C303.018 68.3989 305.013 71.1497 307.613 70.1585C309.43 69.4664 310.633 70.667 313.232 75.7639L315.063 79.3562L313.566 80.5531C312.089 81.7333 312.081 81.7736 312.954 83.4645C313.675 84.8649 314.161 85.1796 315.596 85.1796C317.12 85.1796 317.475 85.4539 318.261 87.2394C318.759 88.3724 319.167 89.8946 319.167 90.6222C319.167 91.3498 319.427 92.2057 319.745 92.5242C320.827 93.6088 320.081 96.1262 318.447 96.9079C317.061 97.5711 316.958 97.8111 317.292 99.5955C317.679 101.664 318.369 102.43 319.466 102.008C319.832 101.867 320.308 102.041 320.526 102.395C321.003 103.168 320.99 112.853 320.512 113.63C320.327 113.93 319.587 114.175 318.868 114.175C318.149 114.175 317.56 114.387 317.56 114.645C317.56 114.904 317.409 115.873 317.224 116.797C316.921 118.321 317.047 118.535 318.563 119.065C319.99 119.563 320.239 119.918 320.239 121.446C320.239 122.433 319.997 123.39 319.703 123.572C319.408 123.755 319.155 124.554 319.142 125.349C319.128 126.144 318.705 127.64 318.203 128.674C317.505 130.108 316.909 130.593 315.684 130.721C312.769 131.025 311.77 133.874 313.945 135.674L315.15 136.672L313.275 140.253C310.61 145.34 309.415 146.529 307.643 145.854C307.534 145.812 307.432 145.773 307.336 145.736C306.67 145.479 306.319 145.343 306.028 145.423C305.705 145.512 305.455 145.866 304.928 146.615C304.859 146.712 304.786 146.816 304.708 146.926C303.653 148.41 303.63 148.624 304.403 149.73C304.863 150.389 305.24 151.206 305.24 151.544C305.24 152.38 298.308 159.281 297.469 159.281C297.101 159.281 296.501 158.918 296.134 158.475C295.205 157.354 294.285 157.467 292.609 158.912C291.38 159.972 291.257 160.323 291.774 161.29C292.699 163.023 292.08 163.853 288.094 166.226C283.92 168.712 283.017 168.855 281.357 167.294C280.235 166.236 280.086 166.223 278.511 167.038C277.274 167.679 276.847 168.274 276.841 169.363C276.829 171.559 276.418 171.866 271.694 173.199C266.957 174.535 265.065 174.236 265.065 172.149C265.065 171.411 264.703 171.096 263.86 171.102C261.385 171.116 260.307 171.714 260.14 173.162L259.976 174.584L254.264 174.736L248.552 174.888L248.207 173.315C247.661 170.822 243.952 170.196 243.097 172.45C242.441 174.18 241.259 174.624 239.151 173.935C238.231 173.633 236.393 173.069 235.067 172.68C231.894 171.751 231.182 171.148 231.471 169.636C231.646 168.716 231.313 168.097 230.223 167.319C228.825 166.321 227.032 166.352 227.032 167.374C227.032 167.628 226.529 168.104 225.913 168.435C224.961 168.946 224.151 168.647 220.509 166.44L216.226 163.845L216.552 161.793C216.825 160.083 216.677 159.572 215.661 158.723C214.152 157.462 213.427 157.424 212.305 158.548C211.098 159.759 209.544 158.866 205.797 154.809C202.982 151.762 202.908 151.604 203.706 150.382C204.841 148.646 204.749 147.857 203.245 146.441C202.199 145.455 201.753 145.337 200.874 145.809C199.3 146.653 198.376 146.085 196.957 143.404C196.264 142.095 195.555 141.024 195.38 141.024C195.206 141.024 194.744 140.055 194.354 138.87C193.697 136.874 193.73 136.626 194.804 135.479C196.005 134.199 196.366 132.433 195.428 132.433C195.133 132.433 194.892 132.07 194.892 131.627C194.892 131.094 194.361 130.822 193.323 130.822C191.476 130.822 190.195 129.698 189.759 127.697C189.587 126.905 189.123 125.244 188.73 124.005C187.847 121.231 188.216 119.613 189.876 118.981C192.286 118.061 191.085 113.639 188.426 113.639C187.472 113.639 187.393 113.212 187.393 108.068V102.497L188.93 102.188C190.488 101.876 191.12 100.734 191.135 98.201C191.14 97.3746 190.825 96.9928 190.136 96.9928C188.101 96.9928 187.667 95.6069 188.657 92.2659C188.826 91.6954 188.981 91.1705 189.123 90.6876C190.313 86.6483 190.637 85.5489 191.308 85.262C191.559 85.1547 191.859 85.1611 192.27 85.1699C192.402 85.1726 192.545 85.1757 192.701 85.1752C194.264 85.1721 194.749 84.9003 195.294 83.726C196.195 81.7811 196.151 81.4766 194.811 80.3893C193.347 79.201 193.628 77.9821 196.428 73.3663C198.538 69.8873 198.728 69.7709 201.512 70.2439C202.107 70.3449 202.961 69.8149 203.632 68.9283C204.715 67.4963 204.722 67.3872 203.826 65.8666L202.897 64.29L206.459 60.505C209.601 57.1656 212.033 55.7329 212.033 57.2214C212.033 58.385 214.286 58.4151 215.505 57.2676C216.5 56.3301 216.689 55.7098 216.472 54.092C216.207 52.11 216.251 52.0537 219.606 50.0502C223.107 47.9593 226.496 46.9708 226.496 48.0399C226.496 48.3636 226.985 48.8904 227.582 49.2104C228.996 49.9692 231.882 48.0893 231.509 46.6518C231.08 44.9915 232.563 43.8585 236.647 42.7271C241.063 41.5044 243.102 41.6773 243.102 43.2748C243.102 44.6962 243.919 45.0747 246.102 44.6639C247.617 44.3794 248.02 44.0212 248.277 42.7314L248.593 41.1484H254.108H259.623L259.976 42.7593ZM203.598 83.0247C211.549 66.2236 228.82 53.8541 247.12 51.8539C254.088 51.0925 265.273 52.0102 270.689 53.788C280.055 56.8622 287.41 61.4 294.456 68.4515C301.505 75.5072 305.513 82.5688 308.827 93.771C310.029 97.8358 310.181 99.334 310.213 107.464C310.245 115.77 310.115 117.1 308.772 122.227C307.961 125.326 307.116 128.105 306.896 128.402C306.674 128.699 305.945 130.271 305.273 131.895C303.556 136.052 298.936 142.863 295.247 146.677C287.863 154.311 281.117 158.587 271.209 161.912C263.226 164.59 253.176 165.163 243.37 163.499C239.51 162.844 232.257 160.527 229.844 159.179C225.251 156.613 223.956 155.827 221.182 153.917C217.923 151.673 212.205 146.204 209.968 143.192C209.192 142.147 208.435 141.172 208.285 141.024C206.91 139.669 203.652 133.588 201.236 127.868C198.681 121.816 197.353 110.988 198.134 102.569C198.453 99.1423 198.954 95.7003 199.251 94.9207C199.546 94.1404 199.763 93.4397 199.732 93.3624C199.512 92.8211 201.585 87.277 203.598 83.0247Z" fill="#F6931E"/>
<path fill-rule="evenodd" clip-rule="evenodd" d="M246.316 41.4545C246.316 41.0329 246.695 40.308 247.158 39.8436C247.827 39.1729 249.285 39 254.282 39C260.764 39 261.851 39.3238 261.851 41.2553C261.851 42.5472 263.036 42.4844 263.869 41.1479C264.402 40.2925 265.109 40.0766 267.346 40.0879C270.473 40.1035 277.449 42.2605 277.992 43.38C278.184 43.7768 278.617 44.7955 278.953 45.6439C279.525 47.0872 279.628 47.1308 280.527 46.3151C282.16 44.8325 284.368 45.2997 289.304 48.1713C293.987 50.8959 294.265 51.2482 294.037 54.1692C293.908 55.8317 293.933 55.8451 295.831 55.1224C296.641 54.8136 297.706 54.7895 298.423 55.0628C300.134 55.7146 304.274 59.5292 306.033 62.075C307.437 64.1052 307.512 64.7915 306.582 67.0564C306.255 67.8549 306.506 67.9972 308.263 68.0041C309.399 68.009 310.575 68.19 310.877 68.4069C311.677 68.9825 313.232 71.4214 315.752 76.0506C316.721 77.8301 316.686 80.5874 315.686 81.4202C314.433 82.4625 314.717 82.9452 316.932 83.5429C319.49 84.2334 320.404 85.9823 321.835 92.914C322.358 95.4452 321.617 97.8959 320.194 98.3491C318.837 98.7803 318.872 100.214 320.239 100.214C320.828 100.214 321.775 100.681 322.345 101.251C323.262 102.17 323.356 102.905 323.173 107.728C322.918 114.492 322.695 115.213 320.732 115.607C318.867 115.981 318.701 116.938 320.373 117.672C321.971 118.376 322.216 121.643 321.028 126.396C319.874 131.006 318.921 132.432 316.994 132.432C315.087 132.432 314.525 133.294 315.633 134.522C316.104 135.043 316.489 136.124 316.489 136.922C316.489 138.656 314.289 143.19 312.089 145.99C310.742 147.704 310.195 148.004 308.409 148.004C307.255 148.004 306.311 148.089 306.311 148.192C306.311 148.296 306.574 149.137 306.896 150.062C307.635 152.186 306.53 154.143 302.362 158.093C299.337 160.962 297.026 162 295.987 160.96C294.837 159.807 293.847 160.254 294.14 161.794C294.599 164.201 293.521 165.515 288.973 168.09C284.435 170.659 281.378 171.28 280.793 169.751C280.387 168.691 278.992 168.712 278.992 169.778C278.992 171.839 277.369 173.74 275.105 174.329C273.855 174.655 272.091 175.147 271.187 175.424C267.996 176.398 265.224 176.052 263.789 174.5L262.471 173.075L261.652 175.038L260.834 177H254.1H247.365L246.732 175.523C246.384 174.711 246.04 173.958 245.968 173.852C245.896 173.744 245.189 174.166 244.398 174.791C243.477 175.517 242.185 175.926 240.815 175.926C238.553 175.926 234.612 174.976 233.755 174.224C233.475 173.979 232.829 173.778 232.32 173.778C230.914 173.778 229.711 172.275 229.711 170.518C229.711 168.789 228.672 168.417 227.568 169.751C226.385 171.181 223.829 170.656 219.318 168.059C216.932 166.685 214.795 165.296 214.569 164.971C214.343 164.647 214.216 163.535 214.287 162.502C214.412 160.661 214.151 160.45 212.301 160.891C210.112 161.412 208.724 160.67 205.071 157.022L201.197 153.154L201.497 150.609L201.798 148.063L199.55 147.899C197.447 147.746 197.162 147.521 195.122 144.409C192.114 139.822 191.282 137.18 192.238 135.25C193.326 133.057 193.198 132.726 191.142 132.432C189.354 132.176 189.201 131.977 187.828 128.136C185.889 122.711 185.857 119.388 187.729 117.649C189.034 116.437 189.063 116.315 188.13 115.982C185.502 115.043 185.25 114.34 185.25 107.955C185.25 101.531 185.712 100.214 187.966 100.214C189.363 100.214 189.266 99.5659 187.661 98.1665C185.975 96.6975 185.89 93.8504 187.391 89.0543C188.88 84.2914 189.268 83.7378 191.396 83.3377C193.49 82.9442 193.61 82.7014 192.464 81.1834C191.318 79.6633 191.483 78.4508 193.335 74.7748C196.107 69.2762 197.304 67.9961 199.675 67.9961H201.724L201.457 65.6163C201.215 63.47 201.387 62.9937 203.208 60.7658C207.194 55.8897 210.031 54.3035 212.971 55.3071C214.045 55.6738 214.176 55.5423 214.176 54.0962C214.176 51.1859 215.156 50.0271 219.596 47.6897C224.279 45.2229 225.364 45.0269 227.295 46.2952C228.921 47.3632 229.711 46.9031 229.711 44.8889C229.711 43.0691 231.267 42.0591 235.958 40.8343C240.271 39.7077 243.476 39.8285 244.298 41.1479C245.072 42.3899 246.316 42.5789 246.316 41.4545ZM260.755 44.3696C260.521 44.3696 260.17 43.6447 259.976 42.7588L259.623 41.1479H254.108H248.593L248.277 42.7308C248.02 44.0206 247.617 44.3788 246.102 44.6634C243.919 45.0741 243.102 44.6956 243.102 43.2742C243.102 41.6768 241.063 41.5039 236.647 42.7265C232.563 43.8579 231.08 44.9909 231.509 46.6512C231.882 48.0887 228.996 49.9686 227.582 49.2099C226.985 48.8898 226.497 48.363 226.497 48.0393C226.497 46.9702 223.107 47.9588 219.606 50.0497C216.251 52.0531 216.207 52.1094 216.473 54.0914C216.689 55.7092 216.5 56.3295 215.505 57.267C214.286 58.4145 212.033 58.3844 212.033 57.2208C212.033 55.7324 209.602 57.165 206.459 60.5044L202.897 64.2895L203.826 65.866C204.722 67.3867 204.715 67.4957 203.632 68.9277C202.961 69.8143 202.108 70.3443 201.512 70.2433C198.728 69.7703 198.538 69.8867 196.428 73.3657C193.628 77.9815 193.347 79.2004 194.811 80.3888C196.151 81.4761 196.195 81.7806 195.294 83.7255C194.75 84.8998 194.264 85.1715 192.701 85.1747C192.545 85.1751 192.402 85.172 192.27 85.1693C191.859 85.1605 191.559 85.1542 191.308 85.2615C190.637 85.5483 190.313 86.6477 189.123 90.6871C188.981 91.1699 188.826 91.6948 188.657 92.2653C187.667 95.6063 188.101 96.9922 190.136 96.9922C190.825 96.9922 191.14 97.374 191.135 98.2004C191.12 100.733 190.488 101.875 188.93 102.188L187.393 102.496V108.067C187.393 113.212 187.472 113.638 188.426 113.638C191.086 113.638 192.287 118.061 189.877 118.98C188.217 119.613 187.847 121.23 188.73 124.005C189.123 125.243 189.587 126.905 189.759 127.696C190.195 129.698 191.476 130.821 193.323 130.821C194.361 130.821 194.892 131.094 194.892 131.626C194.892 132.069 195.133 132.432 195.428 132.432C196.366 132.432 196.005 134.199 194.804 135.479C193.73 136.625 193.698 136.874 194.354 138.87C194.744 140.054 195.206 141.023 195.381 141.023C195.555 141.023 196.264 142.094 196.957 143.404C198.376 146.085 199.3 146.652 200.874 145.809C201.753 145.337 202.199 145.455 203.245 146.441C204.749 147.856 204.842 148.646 203.706 150.382C202.908 151.604 202.982 151.762 205.797 154.809C209.544 158.865 211.098 159.758 212.306 158.547C213.427 157.423 214.153 157.461 215.662 158.723C216.677 159.571 216.825 160.083 216.552 161.792L216.226 163.844L220.509 166.44C224.151 168.646 224.961 168.945 225.913 168.434C226.529 168.104 227.032 167.627 227.032 167.373C227.032 166.351 228.825 166.32 230.223 167.319C231.313 168.096 231.646 168.715 231.471 169.635C231.183 171.147 231.894 171.75 235.067 172.68C236.393 173.068 238.231 173.633 239.151 173.934C241.259 174.624 242.441 174.179 243.097 172.449C243.952 170.195 247.661 170.822 248.207 173.314L248.552 174.888L254.264 174.735L259.976 174.584L260.141 173.162C260.308 171.713 261.385 171.116 263.86 171.101C264.703 171.096 265.065 171.41 265.065 172.149C265.065 174.235 266.957 174.535 271.695 173.198C276.418 171.865 276.829 171.559 276.841 169.362C276.848 168.274 277.274 167.679 278.511 167.038C280.086 166.222 280.235 166.235 281.357 167.293C283.017 168.855 283.92 168.712 288.094 166.226C292.08 163.853 292.699 163.022 291.774 161.289C291.257 160.322 291.38 159.971 292.609 158.912C294.285 157.467 295.205 157.353 296.134 158.475C296.501 158.918 297.101 159.28 297.469 159.28C298.309 159.28 305.24 152.379 305.24 151.544C305.24 151.205 304.864 150.389 304.403 149.73C303.63 148.624 303.653 148.41 304.708 146.926C304.786 146.815 304.859 146.712 304.928 146.614C305.456 145.866 305.705 145.512 306.028 145.423C306.319 145.343 306.67 145.478 307.337 145.735C307.432 145.772 307.534 145.811 307.644 145.853C309.415 146.529 310.611 145.339 313.275 140.252L315.15 136.672L313.945 135.674C311.77 133.874 312.77 131.025 315.684 130.72C316.909 130.592 317.505 130.108 318.203 128.673C318.705 127.639 319.128 126.144 319.142 125.349C319.156 124.554 319.408 123.755 319.703 123.572C319.997 123.39 320.239 122.433 320.239 121.445C320.239 119.917 319.99 119.562 318.564 119.065C317.047 118.535 316.921 118.32 317.224 116.797C317.409 115.872 317.56 114.903 317.56 114.645C317.56 114.387 318.149 114.175 318.868 114.175C319.587 114.175 320.327 113.93 320.512 113.63C320.99 112.853 321.003 103.167 320.527 102.395C320.309 102.041 319.832 101.867 319.466 102.007C318.369 102.429 317.679 101.663 317.292 99.5949C316.958 97.8106 317.061 97.5705 318.448 96.9074C320.082 96.1256 320.827 93.6083 319.745 92.5236C319.427 92.2051 319.167 91.3493 319.167 90.6217C319.167 89.8941 318.759 88.3718 318.261 87.2388C317.475 85.4534 317.12 85.179 315.596 85.179C314.161 85.179 313.676 84.8643 312.954 83.4639C312.081 81.773 312.089 81.7327 313.566 80.5525L315.063 79.3556L313.232 75.7633C310.633 70.6664 309.43 69.4658 307.613 70.1579C305.013 71.1492 303.019 68.3983 304.507 65.8735C305.429 64.3098 305.427 64.3071 303.35 61.9907C301.149 59.5373 297.861 56.7198 297.197 56.7198C296.979 56.7198 296.501 57.0823 296.134 57.5253C295.172 58.6873 293.817 58.5176 292.455 57.0635C291.42 55.9595 291.349 55.6148 291.91 54.3808C292.455 53.1834 292.404 52.8 291.582 51.8893C291.048 51.2976 290.415 50.8132 290.177 50.8132C289.938 50.8132 288.602 50.0883 287.209 49.2023C284.185 47.28 282.457 47.1656 281.125 48.7996C280.174 49.9649 280.086 49.9756 278.628 49.1035C277.575 48.4731 277.021 47.6167 276.799 46.2785C276.624 45.2224 276.383 44.2794 276.264 44.1844C275.511 43.583 267.107 41.6086 266.422 41.8722C265.961 42.0494 265.342 42.8339 265.046 43.6152C264.577 44.8524 264.291 44.9931 262.844 44.7031C261.93 44.5195 260.989 44.3696 260.755 44.3696Z" fill="#F6931E"/>
<path d="M250.924 127.979C250.514 134.336 249.203 138.047 246.36 140.896C244.892 142.369 244.243 142.632 242.123 142.618C239.241 142.598 238.28 142.01 236.969 139.466C234.574 134.821 238.189 128.503 246.283 123.192C251.238 119.94 251.43 120.137 250.924 127.979Z" fill="#F6931E"/>
<path d="M235.844 59.344C239.438 57.9538 240.54 57.7514 242.904 58.0472C245.362 58.3549 245.777 58.2663 246.281 57.3213C246.638 56.6515 247.874 56.1897 249.698 55.9531C242.913 56.4011 237.964 58.1627 235.844 59.344Z" fill="#F6931E"/>
</g>
<defs>
<linearGradient id="paint0_linear_169_68876" x1="232.25" y1="39" x2="67.1178" y2="91.2489" gradientUnits="userSpaceOnUse">
<stop stop-color="#000756"/>
<stop offset="1" stop-color="#0042B8"/>
</linearGradient>
<linearGradient id="paint1_linear_169_68876" x1="198.455" y1="119.936" x2="150.95" y2="107.133" gradientUnits="userSpaceOnUse">
<stop offset="0.14" stop-color="#ADADAD"/>
<stop offset="0.29" stop-color="#CBCBCB"/>
<stop offset="0.43" stop-color="#E2E2E2"/>
<stop offset="0.59" stop-color="#F2F2F2"/>
<stop offset="0.77" stop-color="#FCFCFC"/>
<stop offset="1" stop-color="white"/>
</linearGradient>
<linearGradient id="paint2_linear_169_68876" x1="180.915" y1="160.502" x2="113.765" y2="66.8449" gradientUnits="userSpaceOnUse">
<stop stop-color="#ADADAD"/>
<stop offset="0.17" stop-color="#CBCBCB"/>
<stop offset="0.34" stop-color="#E2E2E2"/>
<stop offset="0.52" stop-color="#F2F2F2"/>
<stop offset="0.73" stop-color="#FCFCFC"/>
<stop offset="1" stop-color="white"/>
</linearGradient>
<linearGradient id="paint3_linear_169_68876" x1="164.264" y1="146.328" x2="196.158" y2="105.898" gradientUnits="userSpaceOnUse">
<stop offset="0.15" stop-color="#ADADAD"/>
<stop offset="0.29" stop-color="#CBCBCB"/>
<stop offset="0.44" stop-color="#E2E2E2"/>
<stop offset="0.6" stop-color="#F2F2F2"/>
<stop offset="0.77" stop-color="#FCFCFC"/>
<stop offset="1" stop-color="white"/>
</linearGradient>
<linearGradient id="paint4_linear_169_68876" x1="135.582" y1="115.959" x2="162.537" y2="90.3541" gradientUnits="userSpaceOnUse">
<stop offset="0.14" stop-color="#ADADAD"/>
<stop offset="0.43" stop-color="#C9C9C9"/>
<stop offset="1" stop-color="white"/>
</linearGradient>
<linearGradient id="paint5_linear_169_68876" x1="191.937" y1="83.3061" x2="191.937" y2="101.377" gradientUnits="userSpaceOnUse">
<stop offset="0.0895638" stop-color="#ADADAD"/>
<stop offset="0.240189" stop-color="#CBCBCB"/>
<stop offset="0.425047" stop-color="#E2E2E2"/>
<stop offset="0.536875" stop-color="#F2F2F2"/>
<stop offset="1" stop-color="white"/>
</linearGradient>
<clipPath id="clip0_169_68876">
<rect x="3.25" y="39" width="138" height="138" rx="69" fill="white"/>
</clipPath>
<clipPath id="clip1_169_68876">
<rect x="94.25" y="39" width="138" height="138" rx="69" fill="white"/>
</clipPath>
<clipPath id="clip2_169_68876">
<rect width="138" height="138" fill="white" transform="translate(185.25 39)"/>
</clipPath>
</defs>
</svg>
