<svg width="120" height="120" viewBox="0 0 120 120" fill="none" xmlns="http://www.w3.org/2000/svg">
<g clip-path="url(#clip0_162_70190)">
<path d="M60 114C89.8234 114 114 89.8234 114 60C114 30.1766 89.8234 6 60 6C30.1766 6 6 30.1766 6.00001 60C6.00001 89.8234 30.1766 114 60 114Z" fill="white"/>
<path fill-rule="evenodd" clip-rule="evenodd" d="M65.6781 15.1724C71.0037 16.0293 72.8991 16.4976 75.9255 17.7065C95.2323 25.4159 106.798 44.1088 104.839 64.4367C104.58 67.1325 104.16 69.9687 103.908 70.7391C100.528 81.0675 97.9143 85.7073 92.1891 91.5393C85.9671 97.8765 79.4949 101.569 70.1031 104.14C69.3345 104.35 66.7761 104.764 64.4175 105.06C55.0703 106.234 42.7723 103.174 35.348 97.8267C34.0949 96.9249 32.9565 96.1863 32.8177 96.1863C32.6789 96.1863 31.7012 95.3985 30.6447 94.4355C22.736 87.2265 17.8721 79.0995 15.9041 69.8049C14.6925 64.0845 14.3148 59.5244 14.8463 57.0403C15.135 55.6895 15.3717 53.946 15.3717 53.1658C15.3717 50.8979 17.1864 44.9143 19.1474 40.7171C23.9349 30.469 33.2299 21.8556 43.9955 17.6906C47.121 16.4817 48.0796 16.3057 50.1352 16.5629C52.2723 16.8305 52.6328 16.7535 53.0711 15.9317C53.3821 15.3493 54.4566 14.9477 56.0426 14.742C58.4001 14.4362 61.8879 14.5631 65.6781 15.1724ZM53.5402 29.5631C52.589 26.6831 54.3237 23.1901 57.2941 22.0027C59.9947 20.9231 63.3711 21.8061 65.1339 24.0529C66.2991 25.5373 66.5163 29.3507 65.5455 31.2739C64.8303 32.692 61.7031 34.534 59.9939 34.5448C57.2447 34.5611 54.4881 32.4333 53.5402 29.5631ZM59.8467 43.4238C59.9538 43.4238 61.2573 42.6889 62.7435 41.791C64.2291 40.8926 65.7075 40.1572 66.0273 40.1567C66.4743 40.1558 66.6099 42.3746 66.6099 49.6998C66.6099 54.9494 66.7971 59.36 67.0251 59.5019C67.5279 59.8134 70.3761 58.5686 80.9895 53.3978C85.4415 51.229 89.3007 49.527 89.5659 49.6157C89.8305 49.7044 90.1119 50.204 90.1917 50.7261C90.3105 51.5045 89.2173 52.3216 84.1353 55.2544C80.7249 57.2219 77.7927 58.8324 77.6193 58.8324C77.4459 58.8324 76.4709 59.36 75.4521 60.0045C74.4339 60.6489 72.3945 61.8261 70.9203 62.6199C69.1203 63.5895 68.0691 64.0659 67.4565 64.8741C66.5079 66.1251 66.6099 68.1717 66.6099 74.0733C66.6099 78.7809 66.3759 83.6331 66.0897 84.8571C64.6947 90.8241 61.5099 95.1777 57.0607 97.2009C55.1952 98.0487 53.9375 98.2533 50.7403 98.2287C47.1578 98.2017 46.4563 98.0427 43.8986 96.6765C39.1787 94.1547 36.9941 90.1041 37.404 84.6339C37.6816 80.9355 39.2746 77.4609 41.7741 75.1041C43.7813 73.2111 50.1026 68.7963 53.5286 66.8931C55.2152 65.9571 56.7491 64.9683 56.9373 64.6965C57.1254 64.4241 57.2824 61.2009 57.2866 57.5339C57.2922 52.0438 57.1706 50.8181 56.5977 50.5977C56.2148 50.4501 53.018 51.5838 49.4943 53.1163C45.97 54.6487 42.8557 55.816 42.5734 55.7101C41.7834 55.4131 42.3475 53.4791 43.4207 52.8071C44.4487 52.1638 46.4856 50.9965 49.8408 49.1287C50.9937 48.4867 53.6725 46.9407 55.7942 45.6926C57.9155 44.445 59.739 43.4238 59.8467 43.4238Z" fill="#F6931E"/>
<path fill-rule="evenodd" clip-rule="evenodd" d="M64.9789 3.26797C65.1475 4.0384 65.4529 4.66874 65.6563 4.66874C65.8603 4.66874 66.6781 4.79902 67.4731 4.95871C68.7313 5.21084 68.9797 5.08851 69.3877 4.01272C69.6451 3.33334 70.1833 2.65115 70.5841 2.49707C71.1799 2.26781 78.4879 3.9847 79.1425 4.50766C79.2463 4.5903 79.4557 5.41022 79.6081 6.32864C79.8007 7.49222 80.2831 8.237 81.1981 8.78516C82.4659 9.54344 82.5427 9.53414 83.3695 8.52086C84.5281 7.1 86.0305 7.19948 88.6597 8.87108C89.8717 9.64148 91.0333 10.2718 91.2409 10.2718C91.4479 10.2718 91.9981 10.693 92.4631 11.2076C93.1777 11.9995 93.2221 12.3328 92.7481 13.3741C92.2603 14.4471 92.3215 14.7469 93.2215 15.7069C94.4059 16.9713 95.5843 17.1189 96.4207 16.1084C96.7399 15.7232 97.1557 15.408 97.3453 15.408C97.9225 15.408 100.782 17.858 102.696 19.9914C104.502 22.0057 104.503 22.008 103.702 23.3677C102.407 25.5632 104.142 27.9553 106.403 27.0933C107.983 26.4915 109.029 27.5355 111.289 31.9676L112.881 35.0913L111.579 36.1321C110.295 37.1584 110.288 37.1934 111.047 38.6638C111.674 39.8815 112.096 40.1551 113.344 40.1551C114.67 40.1551 114.979 40.3937 115.662 41.9463C116.095 42.9315 116.45 44.2552 116.45 44.8879C116.45 45.5206 116.676 46.2648 116.952 46.5417C117.893 47.4849 117.245 49.6739 115.824 50.3537C114.619 50.9304 114.529 51.1391 114.819 52.6907C115.156 54.4893 115.756 55.1551 116.71 54.7881C117.028 54.6663 117.442 54.8175 117.632 55.1253C118.046 55.7971 118.035 64.2193 117.619 64.8949C117.459 65.1559 116.815 65.3689 116.189 65.3689C115.564 65.3689 115.052 65.5531 115.052 65.7775C115.052 66.0025 114.921 66.8449 114.76 67.6489C114.496 68.9737 114.606 69.1603 115.925 69.6211C117.165 70.0537 117.382 70.3621 117.382 71.6911C117.382 72.5497 117.172 73.3819 116.916 73.5403C116.659 73.6993 116.44 74.3941 116.428 75.0853C116.416 75.7765 116.048 77.0773 115.611 77.9761C115.004 79.2235 114.486 79.6447 113.421 79.7563C110.887 80.0209 110.017 82.4983 111.908 84.0637L112.957 84.9313L111.326 88.0447C109.009 92.4685 107.969 93.5029 106.429 92.9155C106.334 92.8789 106.245 92.8447 106.162 92.8129C105.583 92.5891 105.278 92.4715 105.025 92.5411C104.744 92.6185 104.527 92.9263 104.068 93.5773C104.008 93.6619 103.945 93.7519 103.876 93.8479C102.959 95.1385 102.939 95.3245 103.612 96.2863C104.012 96.8593 104.339 97.5691 104.339 97.8637C104.339 98.5903 98.3119 104.591 97.5817 104.591C97.2619 104.591 96.7399 104.276 96.4207 103.891C95.6131 102.915 94.8133 103.014 93.3559 104.27C92.2873 105.192 92.1805 105.497 92.6299 106.338C93.4339 107.845 92.8957 108.567 89.4301 110.63C85.8001 112.792 85.0153 112.916 83.5717 111.559C82.5961 110.639 82.4659 110.627 81.0967 111.337C80.0209 111.894 79.6501 112.411 79.6447 113.358C79.6339 115.268 79.2769 115.534 75.1693 116.693C71.0497 117.856 69.4045 117.595 69.4045 115.781C69.4045 115.139 69.0895 114.865 68.3563 114.87C66.2047 114.883 65.2675 115.402 65.1223 116.662L64.9789 117.898L60.0121 118.03L55.045 118.163L54.7455 116.794C54.2704 114.627 51.0456 114.082 50.3018 116.042C49.7312 117.547 48.7036 117.933 46.8707 117.334C46.0704 117.071 44.4723 116.581 43.3194 116.243C40.5605 115.435 39.9414 114.91 40.1921 113.595C40.3444 112.795 40.0547 112.257 39.1072 111.581C37.8915 110.713 36.3324 110.74 36.3324 111.628C36.3324 111.849 35.8946 112.264 35.3589 112.551C34.5317 112.995 33.8274 112.735 30.6604 110.816L26.9354 108.56L27.2196 106.775C27.4566 105.289 27.3276 104.844 26.4449 104.106C25.1328 103.009 24.5016 102.976 23.5267 103.954C22.4763 105.007 21.125 104.23 17.8673 100.703C15.4194 98.0533 15.3547 97.9159 16.0492 96.8533C17.0363 95.3437 16.9562 94.6573 15.6482 93.4261C14.738 92.5687 14.3509 92.4661 13.5861 92.8765C12.2175 93.6103 11.414 93.1165 10.1801 90.7855C9.57783 89.6467 8.96067 88.7155 8.80929 88.7155C8.65743 88.7155 8.25591 87.8725 7.91679 86.8429C7.34577 85.1071 7.37415 84.8911 8.30811 83.8939C9.35193 82.7809 9.66591 81.2449 8.85027 81.2449C8.59407 81.2449 8.38449 80.9293 8.38449 80.5441C8.38449 80.0809 7.92243 79.8439 7.02015 79.8439C5.41408 79.8439 4.30035 78.8671 3.92119 77.1265C3.77121 76.4383 3.36829 74.9935 3.02593 73.9165C2.25875 71.5039 2.57969 70.0975 4.0232 69.5473C6.11883 68.7481 5.07451 64.9021 2.76182 64.9021C1.93223 64.9021 1.86329 64.5313 1.86329 60.0577L1.86329 55.2135L3.20013 54.9454C4.55514 54.6737 5.10432 53.6806 5.11736 51.4781C5.12202 50.7595 4.84766 50.4275 4.24911 50.4275C2.47907 50.4275 2.10177 49.2223 2.96304 46.3171C3.11007 45.8211 3.24453 45.3646 3.36823 44.9448C4.40306 41.4322 4.6847 40.4763 5.26831 40.2268C5.48654 40.1335 5.74699 40.1391 6.10485 40.1467C6.21915 40.1491 6.34341 40.1517 6.47937 40.1514C7.83807 40.1486 8.26059 39.9123 8.73381 38.8912C9.51729 37.2 9.47913 36.9352 8.31417 35.9897C7.04109 34.9564 7.28517 33.8964 9.71991 29.8827C11.5552 26.8575 11.7201 26.7562 14.1413 27.1676C14.6588 27.2554 15.4013 26.7945 15.9844 26.0236C16.9263 24.7783 16.9324 24.6835 16.1535 23.3612L15.3454 21.9903L18.4425 18.699C21.1753 15.7951 23.29 14.5494 23.29 15.8437C23.29 16.8555 25.2487 16.8817 26.3085 15.8838C27.1739 15.0686 27.3383 14.5293 27.1501 13.1224C26.9196 11.399 26.9578 11.35 29.8746 9.60788C32.9195 7.7897 35.8666 6.93008 35.8666 7.85972C35.8666 8.14124 36.2914 8.59934 36.8103 8.87762C38.0401 9.53738 40.5493 7.90268 40.2256 6.6527C39.852 5.20898 41.1418 4.22377 44.6931 3.23995C48.5331 2.17676 50.3064 2.32711 50.3064 3.71621C50.3064 4.95217 51.0168 5.28135 52.9149 4.92415C54.2322 4.67668 54.5825 4.36524 54.8061 3.24368L55.0809 1.86719L59.8767 1.86719L64.6723 1.86719L64.9789 3.26797ZM15.9546 38.2813C22.869 23.6717 37.8873 12.9156 53.7999 11.1763C59.8595 10.5142 69.5851 11.3122 74.2951 12.8581C82.4395 15.5313 88.8349 19.4773 94.9615 25.609C101.091 31.7444 104.576 37.8849 107.458 47.6259C108.504 51.1606 108.636 52.4633 108.664 59.5326C108.691 66.7555 108.578 67.9117 107.411 72.3703C106.705 75.0655 105.971 77.4817 105.779 77.7397C105.586 77.9983 104.952 79.3651 104.368 80.7775C102.875 84.3919 98.8579 90.3145 95.6497 93.6313C89.2291 100.27 83.3629 103.987 74.7469 106.879C67.8055 109.207 59.0663 109.706 50.5394 108.259C47.1828 107.689 40.8759 105.674 38.7779 104.503C34.7837 102.271 33.6573 101.587 31.245 99.9265C28.4115 97.9753 23.4391 93.2203 21.4944 90.6007C20.8194 89.6923 20.1613 88.8439 20.0309 88.7155C18.8352 87.5371 16.0022 82.2493 13.9014 77.2759C11.6791 72.0133 10.5244 62.5969 11.204 55.2765C11.4807 52.2966 11.9171 49.3036 12.1747 48.6256C12.4318 47.9472 12.62 47.3379 12.5929 47.2706C12.402 46.8 14.2047 41.979 15.9546 38.2813Z" fill="#F6931E"/>
<path fill-rule="evenodd" clip-rule="evenodd" d="M53.1011 2.13432C53.1011 1.76778 53.4305 1.13743 53.8329 0.733542C54.4151 0.15035 55.6826 0 60.0282 0C65.6646 0 66.6096 0.281555 66.6096 1.96109C66.6096 3.08451 67.6404 3.02989 68.3646 1.8677C68.8278 1.12389 69.4428 0.936186 71.3874 0.94599C74.1066 0.959532 80.1732 2.83517 80.6454 3.80872C80.8122 4.15378 81.189 5.03953 81.4812 5.77727C81.9786 7.03236 82.0674 7.07022 82.8492 6.36096C84.2694 5.07175 86.1894 5.47798 90.4818 7.97508C94.554 10.3443 94.7958 10.6506 94.5978 13.1906C94.485 14.6363 94.5072 14.6479 96.1572 14.0195C96.8616 13.751 97.7874 13.73 98.4114 13.9676C99.8988 14.5345 103.499 17.8515 105.029 20.0652C106.25 21.8306 106.315 22.4274 105.506 24.3969C105.221 25.0912 105.44 25.2149 106.967 25.221C107.956 25.2252 108.979 25.3826 109.241 25.5712C109.936 26.0717 111.289 28.1925 113.48 32.2179C114.322 33.7653 114.292 36.163 113.422 36.8872C112.333 37.7935 112.58 38.2132 114.506 38.7329C116.73 39.3334 117.526 40.8542 118.769 46.8817C119.224 49.0828 118.58 51.2138 117.343 51.6079C116.163 51.9829 116.193 53.2296 117.382 53.2296C117.894 53.2296 118.718 53.6353 119.213 54.1312C120.01 54.9306 120.092 55.5698 119.933 59.7632C119.711 65.6454 119.517 66.2724 117.81 66.6144C116.189 66.9396 116.044 67.7718 117.498 68.4108C118.888 69.0222 119.101 71.8638 118.067 75.9966C117.064 80.0052 116.236 81.2454 114.56 81.2454C112.902 81.2454 112.413 81.9948 113.377 83.0622C113.786 83.5158 114.121 84.4554 114.121 85.1496C114.121 86.6574 112.208 90.6 110.294 93.0348C109.123 94.5252 108.647 94.7862 107.095 94.7862C106.091 94.7862 105.271 94.86 105.271 94.95C105.271 95.04 105.499 95.7714 105.779 96.576C106.421 98.4222 105.461 100.124 101.837 103.559C99.2064 106.054 97.1964 106.957 96.2934 106.052C95.2932 105.049 94.4322 105.439 94.6872 106.777C95.0862 108.871 94.149 110.013 90.1938 112.252C86.2482 114.486 83.5896 115.026 83.0808 113.696C82.728 112.775 81.5148 112.793 81.5148 113.72C81.5148 115.512 80.1036 117.165 78.135 117.677C77.0478 117.961 75.5142 118.389 74.7276 118.63C71.9532 119.477 69.543 119.176 68.295 117.826L67.1484 116.587L66.4362 118.294L65.7252 120L59.8692 120H54.0127L53.4626 118.716C53.1603 118.01 52.8613 117.355 52.7984 117.262C52.7359 117.169 52.1211 117.536 51.4327 118.079C50.6324 118.711 49.5089 119.066 48.3178 119.066C46.3503 119.066 42.9234 118.24 42.1782 117.586C41.9346 117.373 41.3733 117.199 40.9303 117.199C39.708 117.199 38.6614 115.891 38.6614 114.364C38.6614 112.86 37.7582 112.537 36.7982 113.696C35.7692 114.94 33.5473 114.484 29.6239 112.225C27.5493 111.031 25.6912 109.823 25.4951 109.54C25.2985 109.258 25.1877 108.292 25.2492 107.393C25.3581 105.793 25.1313 105.608 23.5229 105.992C21.6192 106.445 20.4123 105.8 17.2355 102.628L13.8669 99.2646L14.1282 97.0512L14.3899 94.8372L12.435 94.695C10.6063 94.5618 10.3585 94.3662 8.58421 91.6602C5.9683 87.6714 5.24491 85.374 6.07681 83.6958C7.02289 81.7884 6.91105 81.501 5.1238 81.2454C3.56896 81.0222 3.43528 80.8494 2.2419 77.5098C0.555242 72.792 0.528223 69.9024 2.15526 68.3904C3.29041 67.3362 3.31557 67.2306 2.50461 66.9408C0.219398 66.1242 6.85914e-06 65.5128 6.27784e-06 59.9608C5.69301e-06 54.3749 0.40199 53.2296 2.36207 53.2296C3.57641 53.2296 3.4921 52.666 2.09611 51.4492C0.630233 50.1717 0.556637 47.696 1.86134 43.5254C3.15626 39.3838 3.4935 38.9024 5.34412 38.5546C7.1649 38.2123 7.26924 38.0012 6.27336 36.6812C5.27612 35.3594 5.41958 34.3051 7.0308 31.1085C9.44082 26.3272 10.4819 25.214 12.5431 25.214H14.3252L14.0927 23.1446C13.8827 21.2783 14.0322 20.8641 15.6159 18.9268C19.0819 14.6867 21.5483 13.3074 24.1051 14.1801C25.0395 14.499 25.1531 14.3846 25.1531 13.1272C25.1531 10.5964 26.0056 9.58878 29.8657 7.55628C33.9386 5.41121 34.8814 5.24078 36.5611 6.34368C37.9748 7.27236 38.6614 6.87222 38.6614 5.12078C38.6614 3.53837 40.0145 2.66008 44.0935 1.59502C47.8446 0.615408 50.631 0.720468 51.346 1.8677C52.0191 2.9477 53.1011 3.11206 53.1011 2.13432ZM65.6562 4.66926C65.4528 4.66926 65.1474 4.03891 64.9788 3.26848L64.6722 1.8677L59.8766 1.8677L55.0808 1.8677L54.806 3.2442C54.5824 4.36576 54.2321 4.6772 52.9148 4.92467C51.0167 5.28187 50.3063 4.95268 50.3063 3.71673C50.3063 2.32763 48.533 2.17728 44.693 3.24047C41.1418 4.22428 39.8519 5.20949 40.2255 6.65322C40.5493 7.9032 38.04 9.5379 36.8102 8.87814C36.2914 8.59986 35.8666 8.14176 35.8666 7.86024C35.8666 6.9306 32.9194 7.79022 29.8745 9.6084C26.9577 11.3505 26.9195 11.3995 27.1501 13.123C27.3382 14.5298 27.1738 15.0691 26.3084 15.8843C25.2487 16.8822 23.29 16.856 23.29 15.8442C23.29 14.5499 21.1753 15.7957 18.4424 18.6995L15.3453 21.9908L16.1534 23.3617C16.9323 24.6841 16.9262 24.7789 15.9844 26.0241C15.4012 26.795 14.6587 27.2559 14.1412 27.1681C11.72 26.7568 11.5551 26.858 9.71982 29.8832C7.28508 33.8969 7.041 34.9569 8.31408 35.9902C9.47904 36.9357 9.5172 37.2005 8.73372 38.8917C8.2605 39.9128 7.83798 40.1491 6.47928 40.1519C6.34332 40.1522 6.21906 40.1496 6.10476 40.1472C5.74691 40.1396 5.48645 40.1341 5.26823 40.2274C4.68461 40.4768 4.40298 41.4328 3.36815 44.9453C3.24445 45.3652 3.10998 45.8216 2.96295 46.3177C2.10169 49.2229 2.47899 50.428 4.24903 50.428C4.84758 50.428 5.12194 50.76 5.11728 51.4786C5.10424 53.6811 4.55506 54.6742 3.20005 54.946L1.8632 55.214L1.8632 60.0582C1.8632 64.5318 1.93214 64.9026 2.76173 64.9026C5.07443 64.9026 6.11875 68.7486 4.02312 69.5478C2.57961 70.098 2.25867 71.5044 3.02584 73.917C3.3682 74.994 3.77112 76.4388 3.9211 77.127C4.30027 78.8676 5.41399 79.8444 7.02007 79.8444C7.92235 79.8444 8.38441 80.0814 8.38441 80.5446C8.38441 80.9298 8.59399 81.2454 8.85019 81.2454C9.66583 81.2454 9.35185 82.7814 8.30803 83.8944C7.37407 84.8916 7.34569 85.1076 7.91671 86.8434C8.25583 87.873 8.65735 88.716 8.80921 88.716C8.96059 88.716 9.57775 89.6472 10.18 90.786C11.4139 93.117 12.2174 93.6108 13.586 92.877C14.3508 92.4666 14.7379 92.5692 15.6481 93.4266C16.9561 94.6578 17.0362 95.3442 16.0491 96.8538C15.3546 97.9164 15.4194 98.0538 17.8672 100.703C21.1249 104.231 22.4763 105.007 23.5266 103.954C24.5016 102.977 25.1327 103.01 26.4448 104.107C27.3276 104.845 27.4566 105.289 27.2195 106.776L26.9353 108.56L30.6603 110.817C33.8273 112.736 34.5316 112.996 35.3589 112.552C35.8945 112.264 36.3324 111.85 36.3324 111.629C36.3324 110.74 37.8914 110.713 39.1071 111.581C40.0546 112.258 40.3443 112.796 40.192 113.596C39.9414 114.911 40.5604 115.435 43.3194 116.243C44.4722 116.581 46.0704 117.072 46.8706 117.334C48.7035 117.934 49.7311 117.547 50.3017 116.043C51.0456 114.083 54.2703 114.628 54.7454 116.795L55.0449 118.163L60.012 118.031L64.9788 117.899L65.1222 116.662C65.2674 115.403 66.2046 114.883 68.3562 114.871C69.0894 114.866 69.4044 115.139 69.4044 115.781C69.4044 117.596 71.0496 117.856 75.1692 116.694C79.2768 115.535 79.6338 115.268 79.6446 113.359C79.65 112.412 80.0208 111.895 81.0966 111.337C82.4658 110.628 82.596 110.639 83.5716 111.559C85.0152 112.917 85.8 112.793 89.43 110.631C92.8956 108.568 93.4338 107.845 92.6298 106.339C92.1804 105.497 92.2872 105.193 93.3558 104.271C94.8132 103.015 95.613 102.916 96.4206 103.891C96.7398 104.276 97.2618 104.591 97.5816 104.591C98.3118 104.591 104.339 98.5908 104.339 97.8642C104.339 97.5696 104.012 96.8598 103.612 96.2868C102.939 95.325 102.959 95.139 103.876 93.8484C103.945 93.7524 104.008 93.6624 104.068 93.5778C104.527 92.9268 104.744 92.619 105.025 92.5416C105.278 92.472 105.583 92.5896 106.162 92.8134C106.245 92.8452 106.334 92.8794 106.429 92.916C107.969 93.5034 109.009 92.469 111.326 88.0452L112.957 84.9318L111.908 84.0642C110.017 82.4988 110.887 80.0214 113.421 79.7568C114.486 79.6452 115.004 79.224 115.611 77.9766C116.048 77.0778 116.416 75.777 116.428 75.0858C116.44 74.3946 116.659 73.6998 116.915 73.5408C117.172 73.3824 117.382 72.5502 117.382 71.6916C117.382 70.3626 117.165 70.0542 115.925 69.6216C114.606 69.1608 114.496 68.9742 114.76 67.6494C114.921 66.8454 115.052 66.003 115.052 65.778C115.052 65.5536 115.564 65.3694 116.189 65.3694C116.815 65.3694 117.458 65.1564 117.619 64.8954C118.035 64.2198 118.046 55.7977 117.632 55.1258C117.442 54.818 117.028 54.6668 116.71 54.7886C115.756 55.1557 115.156 54.4898 114.819 52.6912C114.529 51.1396 114.619 50.9309 115.824 50.3542C117.245 49.6744 117.893 47.4854 116.952 46.5422C116.676 46.2653 116.45 45.5211 116.45 44.8884C116.45 44.2557 116.095 42.932 115.662 41.9468C114.979 40.3942 114.67 40.1557 113.344 40.1557C112.096 40.1557 111.674 39.882 111.047 38.6643C110.288 37.1939 110.295 37.1589 111.579 36.1326L112.881 35.0918L111.289 31.9681C109.029 27.536 107.983 26.492 106.403 27.0938C104.142 27.9558 102.407 25.5637 103.702 23.3683C104.503 22.0085 104.502 22.0062 102.696 19.9919C100.782 17.8585 97.9224 15.4085 97.3452 15.4085C97.1556 15.4085 96.7398 15.7237 96.4206 16.1089C95.5842 17.1194 94.4058 16.9718 93.2214 15.7074C92.3214 14.7474 92.2602 14.4476 92.748 13.3746C93.222 12.3334 93.1776 12 92.463 11.2081C91.998 10.6936 91.4478 10.2724 91.2408 10.2724C91.0332 10.2724 89.8716 9.642 88.6596 8.8716C86.0304 7.2 84.528 7.10052 83.3694 8.52138C82.5426 9.53466 82.4658 9.54396 81.198 8.78568C80.283 8.23752 79.8006 7.49274 79.608 6.32916C79.4556 5.41074 79.2462 4.59082 79.1424 4.50817C78.4878 3.98521 71.1798 2.26832 70.584 2.49759C70.1832 2.65167 69.645 3.33385 69.3876 4.01323C68.9796 5.08903 68.7312 5.21136 67.473 4.95922C66.678 4.79953 65.8602 4.66926 65.6562 4.66926Z" fill="#F6931E"/>
<path d="M57.1082 77.3737C56.7518 82.9015 55.6115 86.1283 53.14 88.6057C51.8633 89.8861 51.2987 90.1153 49.4555 90.1027C46.9496 90.0859 46.1135 89.5741 44.9732 87.3619C42.8906 83.3227 46.0347 77.8291 53.0725 73.2103C57.3816 70.3831 57.5483 70.5541 57.1082 77.3737Z" fill="#F6931E"/>
<path d="M43.9961 17.6908C47.1216 16.4819 48.0802 16.3059 50.1358 16.5631C52.2729 16.8307 52.6334 16.7537 53.0717 15.9319C53.3827 15.3495 54.4572 14.9479 56.0432 14.7422C50.1429 15.1318 45.8395 16.6636 43.9961 17.6908Z" fill="#F6931E"/>
</g>
<defs>
<clipPath id="clip0_162_70190">
<rect width="120" height="120" fill="white"/>
</clipPath>
</defs>
</svg>
