<svg width="327" height="216" viewBox="0 0 327 216" fill="none" xmlns="http://www.w3.org/2000/svg">
<g clip-path="url(#clip0_169_68842)">
<path d="M72.75 177C110.858 177 141.75 146.108 141.75 108C141.75 69.8924 110.858 39 72.75 39C34.6424 39 3.75 69.8924 3.75 108C3.75 146.108 34.6424 177 72.75 177Z" fill="#F0F0F0"/>
<path d="M69.75 108H141.75C141.75 101.772 140.92 95.7391 139.373 90H69.75V108Z" fill="#D80027"/>
<path d="M69.75 72.0001H131.623C127.399 65.1076 121.998 59.0154 115.701 54H69.75V72.0001Z" fill="#D80027"/>
<path d="M72.7503 177C88.9892 177 103.915 171.387 115.702 162H29.7988C41.5854 171.387 56.5113 177 72.7503 177Z" fill="#D80027"/>
<path d="M13.8773 144H131.623C135.014 138.467 137.643 132.419 139.373 126H6.12695C7.85654 132.419 10.4864 138.467 13.8773 144Z" fill="#D80027"/>
<path d="M35.7121 49.7753H42L36.1512 54.0245L38.3853 60.9L32.5367 56.6508L26.6882 60.9L28.618 54.9603C23.4684 59.2499 18.9548 64.2756 15.2353 69.8753H17.25L13.527 72.5801C12.9469 73.5477 12.3906 74.5307 11.8575 75.5282L13.6353 81L10.3185 78.5901C9.49398 80.3369 8.73983 82.1231 8.06196 83.9465L10.0206 89.9754H17.25L11.4012 94.2245L13.6353 101.1L7.78677 96.8508L4.2834 99.3963C3.93274 102.215 3.75 105.086 3.75 108H72.75C72.75 69.8926 72.75 65.4 72.75 39C59.1193 39 46.4128 42.954 35.7121 49.7753ZM38.3853 101.1L32.5367 96.8508L26.6882 101.1L28.9223 94.2245L23.0735 89.9754H30.3029L32.5367 83.0999L34.7706 89.9754H42L36.1512 94.2245L38.3853 101.1ZM36.1512 74.1245L38.3853 81L32.5367 76.7508L26.6882 81L28.9223 74.1245L23.0735 69.8753H30.3029L32.5367 62.9999L34.7706 69.8753H42L36.1512 74.1245ZM63.1353 101.1L57.2867 96.8508L51.4382 101.1L53.6723 94.2245L47.8235 89.9754H55.0528L57.2867 83.0999L59.5206 89.9754H66.75L60.9011 94.2245L63.1353 101.1ZM60.9011 74.1245L63.1353 81L57.2867 76.7508L51.4382 81L53.6723 74.1245L47.8235 69.8753H55.0528L57.2867 62.9999L59.5206 69.8753H66.75L60.9011 74.1245ZM60.9011 54.0245L63.1353 60.9L57.2867 56.6508L51.4382 60.9L53.6723 54.0245L47.8235 49.7753H55.0528L57.2867 42.8998L59.5206 49.7753H66.75L60.9011 54.0245Z" fill="#0052B4"/>
</g>
<g clip-path="url(#clip1_169_68842)">
<path d="M163.75 177C201.858 177 232.75 146.108 232.75 108C232.75 69.8924 201.858 39 163.75 39C125.642 39 94.75 69.8924 94.75 108C94.75 146.108 125.642 177 163.75 177Z" fill="url(#paint0_linear_169_68842)"/>
<path d="M186.372 105.941C190.725 111.75 177.979 122.979 180.843 118.341H153.693C150.756 114.5 148.736 110.3 147.766 105.941H186.372Z" fill="url(#paint1_linear_169_68842)"/>
<path d="M178.503 139.412C174.644 142.488 170.473 145.15 166.058 147.353L163.898 148.44L161.726 147.357C141.299 137.106 129.113 119.451 129.113 100.102V77.3848H141.571V100.102C141.569 101.551 141.667 102.999 141.864 104.434C143.433 116.189 151.367 127.033 163.852 134.334C163.863 134.346 163.877 134.355 163.891 134.362C163.904 134.355 163.911 134.348 163.925 134.342L163.977 134.308C168.49 136.832 173.403 138.558 178.503 139.412Z" fill="url(#paint2_linear_169_68842)"/>
<path d="M198.297 105.941C197.721 110.432 196.489 114.813 194.642 118.946C191.227 126.621 185.738 133.605 178.508 139.415C173.412 138.561 168.5 136.834 163.99 134.311C165.619 133.351 167.199 132.308 168.723 131.188C168.875 131.09 169.021 130.983 169.161 130.869C177.6 124.792 183.68 115.986 186.371 105.941H198.297Z" fill="url(#paint3_linear_169_68842)"/>
<path d="M198.684 77.3887H141.572V89.8409H198.684V77.3887Z" fill="url(#paint4_linear_169_68842)"/>
<path d="M198.683 89.8418V100.102C198.683 100.526 198.67 100.952 198.657 101.377H186.191C186.204 100.951 186.21 100.526 186.21 100.102V89.8418H198.683Z" fill="url(#paint5_linear_169_68842)"/>
</g>
<g clip-path="url(#clip2_169_68842)">
<path d="M254.75 170.1C289.047 170.1 316.85 142.297 316.85 108C316.85 73.7035 289.047 45.9004 254.75 45.9004C220.454 45.9004 192.65 73.7035 192.65 108C192.65 142.297 220.454 170.1 254.75 170.1Z" fill="white"/>
<path fill-rule="evenodd" clip-rule="evenodd" d="M261.279 56.4485C267.404 57.4339 269.584 57.9724 273.064 59.3626C295.267 68.2285 308.568 89.7253 306.314 113.102C306.016 116.203 305.534 119.464 305.244 120.35C301.357 132.228 298.351 137.564 291.767 144.27C284.612 151.558 277.169 155.804 266.368 158.761C265.484 159.003 262.542 159.479 259.83 159.82C249.081 161.17 234.938 157.65 226.4 151.501C224.959 150.464 223.65 149.614 223.49 149.614C223.33 149.614 222.206 148.708 220.991 147.601C211.896 139.311 206.303 129.965 204.039 119.276C202.646 112.697 202.212 107.453 202.823 104.597C203.155 103.043 203.427 101.038 203.427 100.141C203.427 97.5328 205.514 90.6516 207.769 85.8248C213.275 74.0395 223.964 64.1341 236.345 59.3444C239.939 57.9542 241.041 57.7518 243.405 58.0476C245.863 58.3553 246.277 58.2667 246.781 57.3216C247.139 56.6519 248.375 56.1901 250.199 55.9535C252.91 55.6018 256.921 55.7477 261.279 56.4485ZM247.321 72.9978C246.227 69.6858 248.222 65.6688 251.638 64.3033C254.744 63.0618 258.626 64.0772 260.654 66.6611C261.994 68.3681 262.243 72.7535 261.127 74.9652C260.305 76.596 256.708 78.7143 254.743 78.7267C251.581 78.7454 248.411 76.2985 247.321 72.9978ZM254.573 88.9376C254.697 88.9376 256.196 88.0924 257.905 87.0598C259.613 86.0267 261.313 85.181 261.681 85.1804C262.195 85.1794 262.351 87.731 262.351 96.155C262.351 102.192 262.566 107.264 262.829 107.427C263.407 107.786 266.682 106.354 278.888 100.408C284.007 97.9135 288.445 95.9562 288.75 96.0583C289.055 96.1603 289.378 96.7348 289.47 97.3352C289.607 98.2304 288.35 99.17 282.505 102.543C278.583 104.805 275.211 106.657 275.012 106.657C274.812 106.657 273.691 107.264 272.52 108.005C271.349 108.746 269.003 110.1 267.308 111.013C265.238 112.128 264.029 112.676 263.325 113.605C262.234 115.044 262.351 117.398 262.351 124.184C262.351 129.598 262.082 135.178 261.753 136.586C260.149 143.448 256.486 148.455 251.369 150.781C249.224 151.756 247.778 151.991 244.101 151.963C239.981 151.932 239.174 151.749 236.233 150.178C230.805 147.278 228.293 142.62 228.764 136.329C229.084 132.076 230.915 128.08 233.79 125.37C236.098 123.193 243.368 118.116 247.308 115.927C249.247 114.851 251.011 113.714 251.228 113.401C251.444 113.088 251.624 109.381 251.629 105.164C251.636 98.8505 251.496 97.441 250.837 97.1875C250.397 97.0178 246.72 98.3216 242.668 100.084C238.615 101.846 235.034 103.189 234.709 103.067C233.801 102.725 234.449 100.501 235.684 99.7284C236.866 98.9885 239.208 97.6461 243.067 95.4982C244.392 94.7599 247.473 92.982 249.913 91.5467C252.352 90.1119 254.45 88.9376 254.573 88.9376Z" fill="#F6931E"/>
<path fill-rule="evenodd" clip-rule="evenodd" d="M260.476 42.7593C260.669 43.6453 261.021 44.3702 261.255 44.3702C261.489 44.3702 262.43 44.52 263.344 44.7037C264.791 44.9936 265.076 44.853 265.546 43.6158C265.842 42.8345 266.461 42.05 266.922 41.8728C267.607 41.6092 276.011 43.5836 276.764 44.185C276.883 44.28 277.124 45.2229 277.299 46.2791C277.521 47.6172 278.075 48.4737 279.128 49.1041C280.586 49.9761 280.674 49.9654 281.625 48.8002C282.957 47.1662 284.685 47.2806 287.708 49.2029C289.102 50.0889 290.438 50.8138 290.677 50.8138C290.915 50.8138 291.548 51.2982 292.082 51.8899C292.904 52.8006 292.955 53.1839 292.41 54.3814C291.849 55.6154 291.92 55.9601 292.955 57.0641C294.317 58.5182 295.672 58.6879 296.634 57.5258C297.001 57.0829 297.479 56.7204 297.697 56.7204C298.361 56.7204 301.649 59.5379 303.85 61.9912C305.927 64.3077 305.929 64.3104 305.007 65.8741C303.518 68.3989 305.513 71.1497 308.113 70.1585C309.93 69.4664 311.133 70.667 313.732 75.7639L315.563 79.3562L314.066 80.5531C312.589 81.7333 312.581 81.7736 313.454 83.4645C314.175 84.8649 314.661 85.1796 316.096 85.1796C317.62 85.1796 317.975 85.4539 318.761 87.2394C319.259 88.3724 319.667 89.8946 319.667 90.6222C319.667 91.3498 319.927 92.2057 320.245 92.5242C321.327 93.6088 320.581 96.1262 318.947 96.9079C317.561 97.5711 317.458 97.8111 317.792 99.5955C318.179 101.664 318.869 102.43 319.966 102.008C320.332 101.867 320.808 102.041 321.026 102.395C321.503 103.168 321.49 112.853 321.012 113.63C320.827 113.93 320.087 114.175 319.368 114.175C318.649 114.175 318.06 114.387 318.06 114.645C318.06 114.904 317.909 115.873 317.724 116.797C317.421 118.321 317.547 118.535 319.063 119.065C320.49 119.563 320.739 119.918 320.739 121.446C320.739 122.433 320.497 123.39 320.203 123.572C319.908 123.755 319.655 124.554 319.642 125.349C319.628 126.144 319.205 127.64 318.703 128.674C318.005 130.108 317.409 130.593 316.184 130.721C313.269 131.025 312.27 133.874 314.445 135.674L315.65 136.672L313.775 140.253C311.11 145.34 309.915 146.529 308.143 145.854C308.034 145.812 307.932 145.773 307.836 145.736C307.17 145.479 306.819 145.343 306.528 145.423C306.205 145.512 305.955 145.866 305.428 146.615C305.359 146.712 305.286 146.816 305.208 146.926C304.153 148.41 304.13 148.624 304.903 149.73C305.363 150.389 305.74 151.206 305.74 151.544C305.74 152.38 298.808 159.281 297.969 159.281C297.601 159.281 297.001 158.918 296.634 158.475C295.705 157.354 294.785 157.467 293.109 158.912C291.88 159.972 291.757 160.323 292.274 161.29C293.199 163.023 292.58 163.853 288.594 166.226C284.42 168.712 283.517 168.855 281.857 167.294C280.735 166.236 280.586 166.223 279.011 167.038C277.774 167.679 277.347 168.274 277.341 169.363C277.329 171.559 276.918 171.866 272.194 173.199C267.457 174.535 265.565 174.236 265.565 172.149C265.565 171.411 265.203 171.096 264.36 171.102C261.885 171.116 260.807 171.714 260.64 173.162L260.476 174.584L254.764 174.736L249.052 174.888L248.707 173.315C248.161 170.822 244.452 170.196 243.597 172.45C242.941 174.18 241.759 174.624 239.651 173.935C238.731 173.633 236.893 173.069 235.567 172.68C232.394 171.751 231.682 171.148 231.971 169.636C232.146 168.716 231.813 168.097 230.723 167.319C229.325 166.321 227.532 166.352 227.532 167.374C227.532 167.628 227.029 168.104 226.413 168.435C225.461 168.946 224.651 168.647 221.009 166.44L216.726 163.845L217.052 161.793C217.325 160.083 217.177 159.572 216.161 158.723C214.652 157.462 213.927 157.424 212.805 158.548C211.598 159.759 210.044 158.866 206.297 154.809C203.482 151.762 203.408 151.604 204.206 150.382C205.341 148.646 205.249 147.857 203.745 146.441C202.699 145.455 202.253 145.337 201.374 145.809C199.8 146.653 198.876 146.085 197.457 143.404C196.764 142.095 196.055 141.024 195.88 141.024C195.706 141.024 195.244 140.055 194.854 138.87C194.197 136.874 194.23 136.626 195.304 135.479C196.505 134.199 196.866 132.433 195.928 132.433C195.633 132.433 195.392 132.07 195.392 131.627C195.392 131.094 194.861 130.822 193.823 130.822C191.976 130.822 190.695 129.698 190.259 127.697C190.087 126.905 189.623 125.244 189.23 124.005C188.347 121.231 188.716 119.613 190.376 118.981C192.786 118.061 191.585 113.639 188.926 113.639C187.972 113.639 187.893 113.212 187.893 108.068V102.497L189.43 102.188C190.988 101.876 191.62 100.734 191.635 98.201C191.64 97.3746 191.325 96.9928 190.636 96.9928C188.601 96.9928 188.167 95.6069 189.157 92.2659C189.326 91.6954 189.481 91.1705 189.623 90.6876C190.813 86.6483 191.137 85.5489 191.808 85.262C192.059 85.1547 192.359 85.1611 192.77 85.1699C192.902 85.1726 193.045 85.1757 193.201 85.1752C194.764 85.1721 195.249 84.9003 195.794 83.726C196.695 81.7811 196.651 81.4766 195.311 80.3893C193.847 79.201 194.128 77.9821 196.928 73.3663C199.038 69.8873 199.228 69.7709 202.012 70.2439C202.607 70.3449 203.461 69.8149 204.132 68.9283C205.215 67.4963 205.222 67.3872 204.326 65.8666L203.397 64.29L206.959 60.505C210.101 57.1656 212.533 55.7329 212.533 57.2214C212.533 58.385 214.786 58.4151 216.005 57.2676C217 56.3301 217.189 55.7098 216.972 54.092C216.707 52.11 216.751 52.0537 220.106 50.0502C223.607 47.9593 226.996 46.9708 226.996 48.0399C226.996 48.3636 227.485 48.8904 228.082 49.2104C229.496 49.9692 232.382 48.0893 232.009 46.6518C231.58 44.9915 233.063 43.8585 237.147 42.7271C241.563 41.5044 243.602 41.6773 243.602 43.2748C243.602 44.6962 244.419 45.0747 246.602 44.6639C248.117 44.3794 248.52 44.0212 248.777 42.7314L249.093 41.1484H254.608H260.123L260.476 42.7593ZM204.098 83.0247C212.049 66.2236 229.32 53.8541 247.62 51.8539C254.588 51.0925 265.773 52.0102 271.189 53.788C280.555 56.8622 287.91 61.4 294.956 68.4515C302.005 75.5072 306.013 82.5688 309.327 93.771C310.529 97.8358 310.681 99.334 310.713 107.464C310.745 115.77 310.615 117.1 309.272 122.227C308.461 125.326 307.616 128.105 307.396 128.402C307.174 128.699 306.445 130.271 305.773 131.895C304.056 136.052 299.436 142.863 295.747 146.677C288.363 154.311 281.617 158.587 271.709 161.912C263.726 164.59 253.676 165.163 243.87 163.499C240.01 162.844 232.757 160.527 230.344 159.179C225.751 156.613 224.456 155.827 221.682 153.917C218.423 151.673 212.705 146.204 210.468 143.192C209.692 142.147 208.935 141.172 208.785 141.024C207.41 139.669 204.152 133.588 201.736 127.868C199.181 121.816 197.853 110.988 198.634 102.569C198.953 99.1423 199.454 95.7003 199.751 94.9207C200.046 94.1404 200.263 93.4397 200.232 93.3624C200.012 92.8211 202.085 87.277 204.098 83.0247Z" fill="#F6931E"/>
<path fill-rule="evenodd" clip-rule="evenodd" d="M246.816 41.4545C246.816 41.0329 247.195 40.308 247.658 39.8436C248.327 39.1729 249.785 39 254.782 39C261.264 39 262.351 39.3238 262.351 41.2553C262.351 42.5472 263.536 42.4844 264.369 41.1479C264.902 40.2925 265.609 40.0766 267.846 40.0879C270.973 40.1035 277.949 42.2605 278.492 43.38C278.684 43.7768 279.117 44.7955 279.453 45.6439C280.025 47.0872 280.128 47.1308 281.027 46.3151C282.66 44.8325 284.868 45.2997 289.804 48.1713C294.487 50.8959 294.765 51.2482 294.537 54.1692C294.408 55.8317 294.433 55.8451 296.331 55.1224C297.141 54.8136 298.206 54.7895 298.923 55.0628C300.634 55.7146 304.774 59.5292 306.533 62.075C307.937 64.1052 308.012 64.7915 307.082 67.0564C306.755 67.8549 307.006 67.9972 308.763 68.0041C309.899 68.009 311.075 68.19 311.377 68.4069C312.177 68.9825 313.732 71.4214 316.252 76.0506C317.221 77.8301 317.186 80.5874 316.186 81.4202C314.933 82.4625 315.217 82.9452 317.432 83.5429C319.99 84.2334 320.904 85.9823 322.335 92.914C322.858 95.4452 322.117 97.8959 320.694 98.3491C319.337 98.7803 319.372 100.214 320.739 100.214C321.328 100.214 322.275 100.681 322.845 101.251C323.762 102.17 323.856 102.905 323.673 107.728C323.418 114.492 323.195 115.213 321.232 115.607C319.367 115.981 319.201 116.938 320.873 117.672C322.471 118.376 322.716 121.643 321.528 126.396C320.374 131.006 319.421 132.432 317.494 132.432C315.587 132.432 315.025 133.294 316.133 134.522C316.604 135.043 316.989 136.124 316.989 136.922C316.989 138.656 314.789 143.19 312.589 145.99C311.242 147.704 310.695 148.004 308.909 148.004C307.755 148.004 306.811 148.089 306.811 148.192C306.811 148.296 307.074 149.137 307.396 150.062C308.135 152.186 307.03 154.143 302.862 158.093C299.837 160.962 297.526 162 296.487 160.96C295.337 159.807 294.347 160.254 294.64 161.794C295.099 164.201 294.021 165.515 289.473 168.09C284.935 170.659 281.878 171.28 281.293 169.751C280.887 168.691 279.492 168.712 279.492 169.778C279.492 171.839 277.869 173.74 275.605 174.329C274.355 174.655 272.591 175.147 271.687 175.424C268.496 176.398 265.724 176.052 264.289 174.5L262.971 173.075L262.152 175.038L261.334 177H254.6H247.865L247.232 175.523C246.884 174.711 246.54 173.958 246.468 173.852C246.396 173.744 245.689 174.166 244.898 174.791C243.977 175.517 242.685 175.926 241.315 175.926C239.053 175.926 235.112 174.976 234.255 174.224C233.975 173.979 233.329 173.778 232.82 173.778C231.414 173.778 230.211 172.275 230.211 170.518C230.211 168.789 229.172 168.417 228.068 169.751C226.885 171.181 224.329 170.656 219.818 168.059C217.432 166.685 215.295 165.296 215.069 164.971C214.843 164.647 214.716 163.535 214.787 162.502C214.912 160.661 214.651 160.45 212.801 160.891C210.612 161.412 209.224 160.67 205.571 157.022L201.697 153.154L201.997 150.609L202.298 148.063L200.05 147.899C197.947 147.746 197.662 147.521 195.622 144.409C192.614 139.822 191.782 137.18 192.738 135.25C193.826 133.057 193.698 132.726 191.642 132.432C189.854 132.176 189.701 131.977 188.328 128.136C186.389 122.711 186.357 119.388 188.229 117.649C189.534 116.437 189.563 116.315 188.63 115.982C186.002 115.043 185.75 114.34 185.75 107.955C185.75 101.531 186.212 100.214 188.466 100.214C189.863 100.214 189.766 99.5659 188.161 98.1665C186.475 96.6975 186.39 93.8504 187.891 89.0543C189.38 84.2914 189.768 83.7378 191.896 83.3377C193.99 82.9442 194.11 82.7014 192.964 81.1834C191.818 79.6633 191.983 78.4508 193.835 74.7748C196.607 69.2762 197.804 67.9961 200.175 67.9961H202.224L201.957 65.6163C201.715 63.47 201.887 62.9937 203.708 60.7658C207.694 55.8897 210.531 54.3035 213.471 55.3071C214.545 55.6738 214.676 55.5423 214.676 54.0962C214.676 51.1859 215.656 50.0271 220.096 47.6897C224.779 45.2229 225.864 45.0269 227.795 46.2952C229.421 47.3632 230.211 46.9031 230.211 44.8889C230.211 43.0691 231.767 42.0591 236.458 40.8343C240.771 39.7077 243.976 39.8285 244.798 41.1479C245.572 42.3899 246.816 42.5789 246.816 41.4545ZM261.255 44.3696C261.021 44.3696 260.67 43.6447 260.476 42.7588L260.123 41.1479H254.608H249.093L248.777 42.7308C248.52 44.0206 248.117 44.3788 246.602 44.6634C244.419 45.0741 243.602 44.6956 243.602 43.2742C243.602 41.6768 241.563 41.5039 237.147 42.7265C233.063 43.8579 231.58 44.9909 232.009 46.6512C232.382 48.0887 229.496 49.9686 228.082 49.2099C227.485 48.8898 226.997 48.363 226.997 48.0393C226.997 46.9702 223.607 47.9588 220.106 50.0497C216.751 52.0531 216.707 52.1094 216.973 54.0914C217.189 55.7092 217 56.3295 216.005 57.267C214.786 58.4145 212.533 58.3844 212.533 57.2208C212.533 55.7324 210.102 57.165 206.959 60.5044L203.397 64.2895L204.326 65.866C205.222 67.3867 205.215 67.4957 204.132 68.9277C203.461 69.8143 202.608 70.3443 202.012 70.2433C199.228 69.7703 199.038 69.8867 196.928 73.3657C194.128 77.9815 193.847 79.2004 195.311 80.3888C196.651 81.4761 196.695 81.7806 195.794 83.7255C195.25 84.8998 194.764 85.1715 193.201 85.1747C193.045 85.1751 192.902 85.172 192.77 85.1693C192.359 85.1605 192.059 85.1542 191.808 85.2615C191.137 85.5483 190.813 86.6477 189.623 90.6871C189.481 91.1699 189.326 91.6948 189.157 92.2653C188.167 95.6063 188.601 96.9922 190.636 96.9922C191.325 96.9922 191.64 97.374 191.635 98.2004C191.62 100.733 190.988 101.875 189.43 102.188L187.893 102.496V108.067C187.893 113.212 187.972 113.638 188.926 113.638C191.586 113.638 192.787 118.061 190.377 118.98C188.717 119.613 188.347 121.23 189.23 124.005C189.623 125.243 190.087 126.905 190.259 127.696C190.695 129.698 191.976 130.821 193.823 130.821C194.861 130.821 195.392 131.094 195.392 131.626C195.392 132.069 195.633 132.432 195.928 132.432C196.866 132.432 196.505 134.199 195.304 135.479C194.23 136.625 194.198 136.874 194.854 138.87C195.244 140.054 195.706 141.023 195.881 141.023C196.055 141.023 196.764 142.094 197.457 143.404C198.876 146.085 199.8 146.652 201.374 145.809C202.253 145.337 202.699 145.455 203.745 146.441C205.249 147.856 205.342 148.646 204.206 150.382C203.408 151.604 203.482 151.762 206.297 154.809C210.044 158.865 211.598 159.758 212.806 158.547C213.927 157.423 214.653 157.461 216.162 158.723C217.177 159.571 217.325 160.083 217.052 161.792L216.726 163.844L221.009 166.44C224.651 168.646 225.461 168.945 226.413 168.434C227.029 168.104 227.532 167.627 227.532 167.373C227.532 166.351 229.325 166.32 230.723 167.319C231.813 168.096 232.146 168.715 231.971 169.635C231.683 171.147 232.394 171.75 235.567 172.68C236.893 173.068 238.731 173.633 239.651 173.934C241.759 174.624 242.941 174.179 243.597 172.449C244.452 170.195 248.161 170.822 248.707 173.314L249.052 174.888L254.764 174.735L260.476 174.584L260.641 173.162C260.808 171.713 261.885 171.116 264.36 171.101C265.203 171.096 265.565 171.41 265.565 172.149C265.565 174.235 267.457 174.535 272.195 173.198C276.918 171.865 277.329 171.559 277.341 169.362C277.348 168.274 277.774 167.679 279.011 167.038C280.586 166.222 280.735 166.235 281.857 167.293C283.517 168.855 284.42 168.712 288.594 166.226C292.58 163.853 293.199 163.022 292.274 161.289C291.757 160.322 291.88 159.971 293.109 158.912C294.785 157.467 295.705 157.353 296.634 158.475C297.001 158.918 297.601 159.28 297.969 159.28C298.809 159.28 305.74 152.379 305.74 151.544C305.74 151.205 305.364 150.389 304.903 149.73C304.13 148.624 304.153 148.41 305.208 146.926C305.286 146.815 305.359 146.712 305.428 146.614C305.956 145.866 306.205 145.512 306.528 145.423C306.819 145.343 307.17 145.478 307.837 145.735C307.932 145.772 308.034 145.811 308.144 145.853C309.915 146.529 311.111 145.339 313.775 140.252L315.65 136.672L314.445 135.674C312.27 133.874 313.27 131.025 316.184 130.72C317.409 130.592 318.005 130.108 318.703 128.673C319.205 127.639 319.628 126.144 319.642 125.349C319.656 124.554 319.908 123.755 320.203 123.572C320.497 123.39 320.739 122.433 320.739 121.445C320.739 119.917 320.49 119.562 319.064 119.065C317.547 118.535 317.421 118.32 317.724 116.797C317.909 115.872 318.06 114.903 318.06 114.645C318.06 114.387 318.649 114.175 319.368 114.175C320.087 114.175 320.827 113.93 321.012 113.63C321.49 112.853 321.503 103.167 321.027 102.395C320.809 102.041 320.332 101.867 319.966 102.007C318.869 102.429 318.179 101.663 317.792 99.5949C317.458 97.8106 317.561 97.5705 318.948 96.9074C320.582 96.1256 321.327 93.6083 320.245 92.5236C319.927 92.2051 319.667 91.3493 319.667 90.6217C319.667 89.8941 319.259 88.3718 318.761 87.2388C317.975 85.4534 317.62 85.179 316.096 85.179C314.661 85.179 314.176 84.8643 313.454 83.4639C312.581 81.773 312.589 81.7327 314.066 80.5525L315.563 79.3556L313.732 75.7633C311.133 70.6664 309.93 69.4658 308.113 70.1579C305.513 71.1492 303.519 68.3983 305.007 65.8735C305.929 64.3098 305.927 64.3071 303.85 61.9907C301.649 59.5373 298.361 56.7198 297.697 56.7198C297.479 56.7198 297.001 57.0823 296.634 57.5253C295.672 58.6873 294.317 58.5176 292.955 57.0635C291.92 55.9595 291.849 55.6148 292.41 54.3808C292.955 53.1834 292.904 52.8 292.082 51.8893C291.548 51.2976 290.915 50.8132 290.677 50.8132C290.438 50.8132 289.102 50.0883 287.709 49.2023C284.685 47.28 282.957 47.1656 281.625 48.7996C280.674 49.9649 280.586 49.9756 279.128 49.1035C278.075 48.4731 277.521 47.6167 277.299 46.2785C277.124 45.2224 276.883 44.2794 276.764 44.1844C276.011 43.583 267.607 41.6086 266.922 41.8722C266.461 42.0494 265.842 42.8339 265.546 43.6152C265.077 44.8524 264.791 44.9931 263.344 44.7031C262.43 44.5195 261.489 44.3696 261.255 44.3696Z" fill="#F6931E"/>
<path d="M251.424 127.979C251.014 134.336 249.703 138.047 246.86 140.896C245.392 142.369 244.743 142.632 242.623 142.618C239.741 142.598 238.78 142.01 237.469 139.466C235.074 134.821 238.689 128.503 246.783 123.192C251.738 119.94 251.93 120.137 251.424 127.979Z" fill="#F6931E"/>
<path d="M236.344 59.344C239.938 57.9538 241.04 57.7514 243.404 58.0472C245.862 58.3549 246.277 58.2663 246.781 57.3213C247.138 56.6515 248.374 56.1897 250.198 55.9531C243.413 56.4011 238.464 58.1627 236.344 59.344Z" fill="#F6931E"/>
</g>
<defs>
<linearGradient id="paint0_linear_169_68842" x1="232.75" y1="39" x2="67.6178" y2="91.2489" gradientUnits="userSpaceOnUse">
<stop stop-color="#000756"/>
<stop offset="1" stop-color="#0042B8"/>
</linearGradient>
<linearGradient id="paint1_linear_169_68842" x1="198.955" y1="119.936" x2="151.45" y2="107.133" gradientUnits="userSpaceOnUse">
<stop offset="0.14" stop-color="#ADADAD"/>
<stop offset="0.29" stop-color="#CBCBCB"/>
<stop offset="0.43" stop-color="#E2E2E2"/>
<stop offset="0.59" stop-color="#F2F2F2"/>
<stop offset="0.77" stop-color="#FCFCFC"/>
<stop offset="1" stop-color="white"/>
</linearGradient>
<linearGradient id="paint2_linear_169_68842" x1="181.415" y1="160.502" x2="114.265" y2="66.8449" gradientUnits="userSpaceOnUse">
<stop stop-color="#ADADAD"/>
<stop offset="0.17" stop-color="#CBCBCB"/>
<stop offset="0.34" stop-color="#E2E2E2"/>
<stop offset="0.52" stop-color="#F2F2F2"/>
<stop offset="0.73" stop-color="#FCFCFC"/>
<stop offset="1" stop-color="white"/>
</linearGradient>
<linearGradient id="paint3_linear_169_68842" x1="164.764" y1="146.328" x2="196.658" y2="105.898" gradientUnits="userSpaceOnUse">
<stop offset="0.15" stop-color="#ADADAD"/>
<stop offset="0.29" stop-color="#CBCBCB"/>
<stop offset="0.44" stop-color="#E2E2E2"/>
<stop offset="0.6" stop-color="#F2F2F2"/>
<stop offset="0.77" stop-color="#FCFCFC"/>
<stop offset="1" stop-color="white"/>
</linearGradient>
<linearGradient id="paint4_linear_169_68842" x1="136.082" y1="115.959" x2="163.037" y2="90.3541" gradientUnits="userSpaceOnUse">
<stop offset="0.14" stop-color="#ADADAD"/>
<stop offset="0.43" stop-color="#C9C9C9"/>
<stop offset="1" stop-color="white"/>
</linearGradient>
<linearGradient id="paint5_linear_169_68842" x1="192.437" y1="83.3061" x2="192.437" y2="101.377" gradientUnits="userSpaceOnUse">
<stop offset="0.0895638" stop-color="#ADADAD"/>
<stop offset="0.240189" stop-color="#CBCBCB"/>
<stop offset="0.425047" stop-color="#E2E2E2"/>
<stop offset="0.536875" stop-color="#F2F2F2"/>
<stop offset="1" stop-color="white"/>
</linearGradient>
<clipPath id="clip0_169_68842">
<rect x="3.75" y="39" width="138" height="138" rx="69" fill="white"/>
</clipPath>
<clipPath id="clip1_169_68842">
<rect x="94.75" y="39" width="138" height="138" rx="69" fill="white"/>
</clipPath>
<clipPath id="clip2_169_68842">
<rect width="138" height="138" fill="white" transform="translate(185.75 39)"/>
</clipPath>
</defs>
</svg>
