<svg width="120" height="120" viewBox="0 0 120 120" fill="none" xmlns="http://www.w3.org/2000/svg">
    <g clip-path="url(#clip0)">
        <path d="M119.999 59.9941C119.999 93.1268 93.139 119.988 60.0005 119.988C26.862 119.988 0.00196288 93.1268 0.00195941 59.9941C0.00195594 26.8614 26.8627 0 60.0005 0C93.1384 0 119.999 26.8588 119.999 59.9941Z" fill="white"/>
        <path d="M60.0006 0C26.8739 0 -0.0338184 26.8994 0.00835657 59.9922C0.0166638 66.613 1.07255 72.9819 3.05429 78.9392H21.0053L21.0053 28.4707L60.0006 67.4615L98.9939 28.4707L98.9939 78.9402H116.949C118.933 72.9831 119.984 66.6143 119.996 59.9931C120.052 26.8658 93.1308 0.00798618 60.0006 0.00798618L60.0006 0Z" fill="#F26822"/>
        <path d="M51.0318 76.4271L34.014 59.4102L34.014 91.1676H21.0032L8.72583 91.1699C19.2569 108.446 38.289 120.002 59.9997 120.002C81.7103 120.002 100.743 108.443 111.276 91.1673L85.9815 91.1673L85.9815 59.4102L68.9627 76.4271L59.9978 85.3911L51.0325 76.4271H51.0318Z" fill="#4D4D4D"/>
    </g>
    <defs>
        <clipPath id="clip0">
            <rect width="120" height="120" fill="white"/>
        </clipPath>
    </defs>
</svg>
