<svg width="400" height="400" viewBox="0 0 400 400" fill="none" xmlns="http://www.w3.org/2000/svg">
    <g clip-path="url(#clip0)">
        <path d="M399.997 199.98C399.997 310.423 310.463 399.959 200.001 399.959C89.5397 399.959 0.00613602 310.423 0.00612445 199.98C0.00611289 89.5378 89.5418 0 200.001 0C310.461 0 399.997 89.5293 399.997 199.98Z" fill="white"/>
        <path d="M200.002 0C89.5793 0 -0.112932 89.6646 0.0276518 199.974C0.0553425 222.043 3.57496 243.273 10.1808 263.131H70.0175L70.0175 94.9024L200.002 224.872L329.979 94.9024L329.979 263.134H389.829C396.444 243.277 399.946 222.048 399.985 199.977C400.174 89.5527 310.436 0.0266206 200.002 0.0266206L200.002 0Z" fill="#F26822"/>
        <path d="M170.106 254.75L113.38 198.027L113.38 303.886H70.0108L29.0863 303.893C64.1898 361.479 127.63 400 199.999 400C272.368 400 335.812 361.47 370.922 303.885L286.605 303.885L286.605 198.027L229.876 254.75L199.993 284.63L170.108 254.75H170.106Z" fill="#4D4D4D"/>
    </g>
    <defs>
        <clipPath id="clip0">
            <rect width="400" height="400" fill="white"/>
        </clipPath>
    </defs>
</svg>
