<svg width="400" height="400" viewBox="0 0 286 286" fill="none" xmlns="http://www.w3.org/2000/svg">
<path fill-rule="evenodd" clip-rule="evenodd" d="M143 0C221.965 0 286 64.0354 286 143C286 221.965 221.965 286 143 286C64.0354 286 0 221.965 0 143C0 64.0354 64.0354 0 143 0Z" fill="#0055D5"/>
<path fill-rule="evenodd" clip-rule="evenodd" d="M77.7922 94.6088C77.7922 94.6088 62.4055 82.3108 61.3473 112.684C60.2891 136.222 60.3177 181.925 71.2143 203.518C75.8189 211.64 81.9679 209.152 93.4079 201.058C103.361 193.708 139.368 160.532 154.612 145.974C169.856 131.417 200.772 89.661 207.207 118.032C209.753 129.958 212.899 140.083 210.496 166.538C209.753 174.689 206.263 180.866 190.362 169.827C178.35 162.105 166.938 153.811 166.938 153.811C166.938 153.811 164.736 149.864 159.531 156.27C155.441 161.39 153.382 162.648 159.931 166.538C166.509 170.427 199.771 193.365 212.527 196.94C223.052 200 229.058 199.943 229.372 179.265C229.315 162.848 228.371 115.859 222.394 95.8386C217.875 83.369 211.24 77.7062 196.911 91.7202C182.583 105.734 137.395 149.549 112.684 169.398C96.2964 181.696 89.2895 192.793 83.1119 172.286C78.7647 156.757 73.1304 108.423 90.9196 117.632C102.045 122.951 107.593 122.923 103.246 126.269C98.899 129.587 86.4009 141.055 86.4009 141.055C86.4009 141.055 82.5398 144.173 84.3416 150.922C86.1434 155.641 86.1435 157.986 95.8389 148.863C105.534 139.74 112.684 132.847 112.684 132.847C112.684 132.847 114.229 130.416 118.833 134.906C123.438 139.396 124.181 140.655 124.181 140.655C124.181 140.655 125.411 144.001 130.33 138.195C135.278 132.389 138.453 128.843 129.101 123.409C119.777 117.918 77.7922 94.6088 77.7922 94.6088Z" fill="white"/>
</svg>
