<svg width="78" height="33" viewBox="0 0 78 33" fill="none" xmlns="http://www.w3.org/2000/svg">
<path d="M15.0531 4.35458C15.9597 3.22072 16.5748 1.69827 16.4126 0.142517C15.0856 0.208502 13.4662 1.018 12.5286 2.15275C11.6868 3.12449 10.9418 4.71068 11.136 6.20122C12.6257 6.33043 14.1139 5.45663 15.0531 4.35458Z" fill="black"/>
<path d="M16.3948 6.49026C14.2315 6.3614 12.3921 7.71805 11.359 7.71805C10.3253 7.71805 8.74333 6.5552 7.03225 6.58654C4.80517 6.61925 2.73871 7.87845 1.60856 9.88118C-0.71596 13.8876 0.995119 19.8306 3.25559 23.0936C4.35333 24.7079 5.67629 26.4854 7.41949 26.4216C9.06652 26.3569 9.71209 25.3551 11.7141 25.3551C13.7147 25.3551 14.2962 26.4216 16.0397 26.3893C17.8477 26.3569 18.9781 24.7741 20.0758 23.1582C21.3351 21.318 21.8506 19.5411 21.8831 19.4435C21.8506 19.4112 18.3967 18.0862 18.3646 14.1131C18.332 10.7863 21.0764 9.2039 21.2055 9.10576C19.6558 6.81365 17.2343 6.5552 16.3948 6.49026Z" fill="black"/>
<path d="M35.2353 1.98878C39.9373 1.98878 43.2114 5.22988 43.2114 9.94868C43.2114 14.6843 39.8699 17.9423 35.1174 17.9423H29.9114V26.2212H26.1501V1.98877H35.2353V1.98878ZM29.9114 14.7851H34.2273C37.5021 14.7851 39.3659 13.022 39.3659 9.96552C39.3659 6.90938 37.5021 5.16283 34.2441 5.16283H29.9114V14.7851Z" fill="black"/>
<path d="M44.1943 21.2004C44.1943 18.1102 46.5621 16.2127 50.7607 15.9776L55.5967 15.6922V14.3321C55.5967 12.3672 54.27 11.1917 52.0538 11.1917C49.9541 11.1917 48.6442 12.1991 48.3255 13.7778H44.8997C45.1012 10.5869 47.8215 8.23596 52.1879 8.23596C56.47 8.23596 59.2071 10.503 59.2071 14.0464V26.2214H55.7309V23.3162H55.6473C54.6231 25.2811 52.3893 26.5236 50.072 26.5236C46.6126 26.5236 44.1943 24.3741 44.1943 21.2004ZM55.5967 19.6051V18.2113L51.2472 18.4798C49.0809 18.6311 47.8552 19.5882 47.8552 21.0996C47.8552 22.6444 49.1314 23.6521 51.0794 23.6521C53.615 23.6521 55.5967 21.9055 55.5967 19.6051Z" fill="black"/>
<path d="M62.4871 32.7219V29.783C62.7553 29.85 63.3598 29.85 63.6623 29.85C65.3415 29.85 66.2484 29.1449 66.8023 27.3313C66.8023 27.2976 67.1217 26.2565 67.1217 26.2397L60.7406 8.55646H64.6697L69.1371 22.9315H69.2039L73.6713 8.55646H77.5L70.883 27.1463C69.3723 31.4288 67.6257 32.8058 63.9648 32.8058C63.6623 32.8058 62.7553 32.7721 62.4871 32.7219Z" fill="black"/>
</svg>
