<svg width="30" height="30" viewBox="0 0 30 30" fill="none" xmlns="http://www.w3.org/2000/svg">
<circle cx="15" cy="15" r="15" fill="#F32249" fill-opacity="0.3"/>
<path d="M16.2811 18.2406H13.5467L13.1593 6.74479H16.6685L16.2811 18.2406ZM14.9139 20.0407C15.4684 20.0407 15.9127 20.204 16.2469 20.5306C16.5887 20.8572 16.7596 21.275 16.7596 21.7838C16.7596 22.2852 16.5887 22.6991 16.2469 23.0257C15.9127 23.3523 15.4684 23.5156 14.9139 23.5156C14.367 23.5156 13.9227 23.3523 13.5809 23.0257C13.2467 22.6991 13.0796 22.2852 13.0796 21.7838C13.0796 21.2825 13.2467 20.8686 13.5809 20.542C13.9227 20.2078 14.367 20.0407 14.9139 20.0407Z" fill="white"/>
</svg>
