<svg width="37" height="38" viewBox="0 0 37 38" fill="none" xmlns="http://www.w3.org/2000/svg">
<path d="M18.5 0.5V6.66667H6.16667V19H0C0 29.2367 8.26333 37.5 18.5 37.5C28.7367 37.5 37 29.2367 37 19C37 8.76333 28.7367 0.5 18.5 0.5Z" fill="#2A5F9E"/>
<path d="M18.5 0.5C15.6017 0.5 12.8883 1.19163 10.4217 2.38627V6.15882H5.55V11.126H1.85C0.678333 13.641 0 16.4076 0 19.3627H7.4V9.93137L14.8 19.3627H18.5V14.6471L13.32 8.0451H18.5V0.5Z" fill="white"/>
<path d="M8.38086 7.77734L17.347 18.9998H18.5753V15.9448L12.0656 7.77734H8.38086Z" fill="#ED4C5C"/>
<path d="M18.5754 2.16797H10.5304C6.8457 3.97603 3.77509 7.09337 1.99414 10.8342V19.0016H5.67887V5.90878H18.5754V2.16797Z" fill="#ED4C5C"/>
<path d="M3.8007 21.395L5.15933 19.6461L4.72704 21.9132L6.88851 21.978L4.97407 23.0144L6.27095 24.8281L4.3565 23.9213L3.8007 26.1237L3.24489 23.9213L1.33045 24.8281L2.62733 23.0144L0.712891 21.978L2.87436 21.9132L2.44206 19.6461L3.8007 21.395ZM30.9734 11.3548L32.085 9.92969L31.7145 11.7434L33.4437 11.8082L31.8998 12.6503L32.9496 14.0753L31.4057 13.298L30.9734 15.1118L30.5411 13.298L28.9972 14.0753L30.0471 12.6503L28.5032 11.8082L30.2323 11.7434L29.8618 9.92969L30.9734 11.3548ZM30.9734 24.3099L32.085 22.8849L31.7145 24.6986L33.4437 24.7634L31.8998 25.6055L32.9496 27.0305L31.4057 26.2532L30.9734 28.0669L30.5411 26.2532L28.9972 27.0305L30.0471 25.6055L28.5032 24.7634L30.2323 24.6986L29.8618 22.8849L30.9734 24.3099ZM24.7978 15.2413L25.9094 13.8162L25.5389 15.63L27.268 15.6947L25.7241 16.5368L26.774 17.9619L25.2301 17.1846L24.7978 18.9983L24.3655 17.1846L22.8216 17.9619L23.8715 16.5368L22.3276 15.6947L24.0567 15.63L23.6862 13.8162L24.7978 15.2413Z" fill="white"/>
</svg>
