<svg width="40" height="40" viewBox="0 0 40 40" fill="none" xmlns="http://www.w3.org/2000/svg">
<path d="M22.5 23.75C22.5 23.4185 22.6317 23.1005 22.8661 22.8661C23.1005 22.6317 23.4185 22.5 23.75 22.5H28.75C29.0815 22.5 29.3995 22.6317 29.6339 22.8661C29.8683 23.1005 30 23.4185 30 23.75V28.75C30 29.0815 29.8683 29.3995 29.6339 29.6339C29.3995 29.8683 29.0815 30 28.75 30H23.75C23.4185 30 23.1005 29.8683 22.8661 29.6339C22.6317 29.3995 22.5 29.0815 22.5 28.75V23.75ZM25 27.5H27.5V25H25V27.5ZM10.47 2.775L4.22 7.775C3.805 8.105 3.75 8.675 3.75 9.175V13.75C3.75 15.1575 4.215 16.455 5 17.5V36.25C5 36.5815 5.1317 36.8995 5.36612 37.1339C5.60054 37.3683 5.91848 37.5 6.25 37.5H33.75C34.0815 37.5 34.3995 37.3683 34.6339 37.1339C34.8683 36.8995 35 36.5815 35 36.25V17.5C35.785 16.455 36.25 15.1575 36.25 13.75V9.165C36.25 8.665 36.195 8.105 35.78 7.775L29.53 2.775C29.3087 2.59748 29.0337 2.50051 28.75 2.5H11.25C10.9663 2.50051 10.6913 2.59748 10.47 2.775ZM13.75 10V13.75C13.75 14.7446 13.3549 15.6984 12.6517 16.4017C11.9484 17.1049 10.9946 17.5 10 17.5C9.00544 17.5 8.05161 17.1049 7.34835 16.4017C6.64509 15.6984 6.25 14.7446 6.25 13.75V10H13.75ZM23.75 10V13.75C23.75 14.7446 23.3549 15.6984 22.6517 16.4017C21.9484 17.1049 20.9946 17.5 20 17.5C19.0054 17.5 18.0516 17.1049 17.3483 16.4017C16.6451 15.6984 16.25 14.7446 16.25 13.75V10H23.75ZM33.75 10V13.75C33.75 14.7446 33.3549 15.6984 32.6517 16.4017C31.9484 17.1049 30.9946 17.5 30 17.5C29.0054 17.5 28.0516 17.1049 27.3483 16.4017C26.6451 15.6984 26.25 14.7446 26.25 13.75V10H33.75ZM15.0725 5L14.135 7.5H8.5625L11.6875 5H15.075H15.0725ZM16.805 7.5L17.7425 5H22.225L23.0575 7.5H16.805ZM24.86 5H28.31L31.435 7.5H25.6925L24.86 5ZM32.5 19.48V35H20V23.75C20 23.4185 19.8683 23.1005 19.6339 22.8661C19.3995 22.6317 19.0815 22.5 18.75 22.5H11.25C10.9185 22.5 10.6005 22.6317 10.3661 22.8661C10.1317 23.1005 10 23.4185 10 23.75V35H7.5V19.48C8.79013 20.0447 10.2334 20.1565 11.595 19.797C12.9567 19.4375 14.1567 18.628 15 17.5C16.14 19.0175 17.955 20 20 20C22.045 20 23.86 19.0175 25 17.5C25.8433 18.628 27.0433 19.4375 28.405 19.797C29.7666 20.1565 31.2099 20.0447 32.5 19.48ZM17.5 35H12.5V25H17.5V35Z" fill="#5583FF"/>
</svg>
