<svg width="498" height="500" viewBox="0 0 498 500" fill="none" xmlns="http://www.w3.org/2000/svg">
<g clip-path="url(#clip0_822_3367)">
<path d="M216.231 124.653C213.086 132.268 194.669 131.743 175.345 123.773C156.021 115.804 142.903 103.169 146.048 95.5538C146.77 93.7813 148.796 87.2014 150.964 86.2797C158.175 83.245 171.86 90.0943 186.707 96.2062C200.52 101.878 216.302 105.565 218.753 113.081C220.241 117.647 217.124 122.483 216.231 124.653Z" fill="#407BFF"/>
<path opacity="0.2" d="M218.754 113.095C219.929 119.065 217.337 121.93 216.218 124.653C215.098 127.375 211.84 129.162 207.264 129.786C206.712 129.871 206.131 129.928 205.536 129.984C202.022 130.191 198.496 130.006 195.024 129.431C194.528 129.431 194.032 129.275 193.607 129.19C189.525 128.463 185.504 127.425 181.579 126.085L180.162 125.617C178.576 125.05 176.961 124.454 175.36 123.773C173.759 123.093 172.201 122.426 170.685 121.703L169.396 121.079C165.818 119.318 162.375 117.294 159.096 115.024C158.685 114.754 158.317 114.471 157.934 114.216C155.057 112.159 152.424 109.78 150.086 107.125C149.732 106.742 149.406 106.345 149.108 105.962C146.062 102.091 144.858 98.4183 146.062 95.4829C146.842 93.5827 148.556 87.1305 150.978 86.2088C153.981 85.3661 157.156 85.3661 160.159 86.2088L161.575 86.5491C168.659 88.3501 177.584 92.3915 186.693 96.1636C197.446 100.602 210.154 105.197 216.373 110.514C216.744 110.832 217.099 111.168 217.436 111.521C217.924 112.003 218.366 112.53 218.754 113.095Z" fill="black"/>
<g opacity="0.2">
<path d="M162.227 85.4147L161.575 86.6059L150.071 107.196C149.717 106.813 149.391 106.416 149.094 106.033L160.087 86.2655L160.937 84.734L162.227 85.4147Z" fill="black"/>
</g>
<g opacity="0.2">
<path d="M170.925 93.8096L159.082 115.081C158.671 114.811 158.302 114.528 157.92 114.272L169.707 93.1006L170.925 93.8096Z" fill="black"/>
</g>
<g opacity="0.2">
<path d="M192.671 106.005L181.451 126.085L180.034 125.617L191.368 105.296L192.671 106.005Z" fill="black"/>
</g>
<g opacity="0.2">
<path d="M182.599 100.333L170.67 121.703L169.381 121.079L181.338 99.6379L182.599 100.333Z" fill="black"/>
</g>
<g opacity="0.2">
<path d="M205.945 109.876L195.022 129.431C194.526 129.431 194.03 129.275 193.605 129.19L204.783 109.181L205.945 109.876Z" fill="black"/>
</g>
<path d="M218.668 117.959C215.537 125.574 197.333 125.276 178.009 117.293C158.685 109.309 145.581 96.6883 148.754 89.0733C151.927 81.4583 170.09 81.7561 189.413 89.7398C208.737 97.7235 221.813 110.344 218.668 117.959Z" fill="#407BFF"/>
<path opacity="0.2" d="M212.108 115.251C209.883 120.625 195.702 119.859 180.416 113.549C165.13 107.239 154.519 97.766 156.743 92.3916C158.967 87.0171 173.148 87.7687 188.435 94.0791C203.721 100.389 214.318 109.876 212.108 115.251Z" fill="white"/>
<path d="M313.871 55.8197C318.9 62.3286 309.295 78.0691 292.776 90.8884C276.257 103.708 258.775 108.799 253.732 102.233C252.57 100.73 247.867 95.6815 248.15 93.3417C249.099 85.5849 261.849 77.0907 274.543 67.2635C286.344 58.1028 297.38 46.2194 305.101 47.8218C309.791 48.857 312.426 53.962 313.871 55.8197Z" fill="#407BFF"/>
<path opacity="0.2" d="M305.115 47.8785C310.867 49.8213 312.057 53.5508 313.856 55.8197C315.656 58.0886 315.585 61.8748 313.856 66.1574C313.658 66.6821 313.417 67.2209 313.162 67.7598C311.602 70.908 309.702 73.8753 307.495 76.6085C307.184 77.0056 306.872 77.3885 306.532 77.7855C303.869 80.9628 300.976 83.9393 297.876 86.691L296.785 87.6269C295.51 88.733 294.178 89.8249 292.804 90.8884C291.43 91.952 290.056 92.9588 288.682 93.9089C288.285 94.1925 287.888 94.4478 287.492 94.7172C284.188 96.9462 280.727 98.9319 277.135 100.659L275.846 101.269C272.675 102.743 269.349 103.857 265.929 104.587C265.405 104.7 264.909 104.785 264.413 104.856C259.554 105.58 255.772 104.785 253.831 102.29C252.57 100.673 247.824 95.9651 248.164 93.3984C248.915 90.3724 250.489 87.6138 252.711 85.4289C253.037 85.0744 253.363 84.7057 253.717 84.3512C258.846 79.0476 266.751 73.3612 274.543 67.3344C283.737 60.2441 294.051 51.4662 301.758 48.701C302.222 48.5344 302.695 48.3924 303.175 48.2756C303.809 48.0894 304.459 47.9566 305.115 47.8785Z" fill="black"/>
<g opacity="0.2">
<path d="M253.009 83.1742L253.704 84.337L265.845 104.573C265.321 104.686 264.825 104.771 264.329 104.842L252.698 85.4147L251.791 83.9116L253.009 83.1742Z" fill="black"/>
</g>
<g opacity="0.2">
<path d="M264.597 79.8134L277.107 100.659L275.818 101.269L263.379 80.5224L264.597 79.8134Z" fill="black"/>
</g>
<g opacity="0.2">
<path d="M286.018 66.9373L297.847 86.691L296.756 87.6269L284.757 67.6747L286.018 66.9373Z" fill="black"/>
</g>
<g opacity="0.2">
<path d="M276.058 72.9216L288.653 93.9089C288.256 94.1925 287.859 94.4478 287.463 94.7172L274.84 73.659L276.058 72.9216Z" fill="black"/>
</g>
<g opacity="0.2">
<path d="M295.949 57.3937L307.424 76.6085C307.112 77.0056 306.801 77.3884 306.461 77.7855L294.674 58.1311L295.949 57.3937Z" fill="black"/>
</g>
<path d="M288.472 85.3245C304.995 72.5149 314.306 56.8553 309.271 50.3479C304.235 43.8405 286.759 48.9494 270.237 61.7591C253.715 74.5687 244.403 90.2283 249.439 96.7357C254.475 103.243 271.95 98.1341 288.472 85.3245Z" fill="#407BFF"/>
<path opacity="0.2" d="M303.672 54.7136C307.227 59.3223 299.506 71.2624 286.43 81.4016C273.354 91.5407 259.881 96.0218 256.311 91.4273C252.741 86.8328 260.476 74.8785 273.552 64.7393C286.629 54.6002 300.101 50.1191 303.672 54.7136Z" fill="white"/>
<path d="M245.474 25.3313C243.816 34.6622 222.962 38.6186 199.261 34.3927C175.559 30.1669 157.709 19.1911 159.366 9.86022C159.763 7.69058 160.415 -0.222221 162.639 -1.78209C169.992 -6.97221 187.077 -2.64711 205.282 0.600256C222.211 3.62073 240.841 3.8618 245.474 11.7037C248.265 16.5251 245.941 22.6653 245.474 25.3313Z" fill="#407BFF"/>
<path opacity="0.2" d="M245.485 11.7037C248.319 18.1275 246.066 21.9847 245.485 25.3313C244.904 28.6779 241.66 31.4715 236.659 33.315C236.064 33.5419 235.427 33.7546 234.761 33.9531C230.86 35.0505 226.85 35.7116 222.804 35.9242C222.237 35.9242 221.656 35.9242 221.061 36.0093C216.314 36.189 211.559 36.0137 206.838 35.4846L205.18 35.2861C203.268 35.045 201.298 34.7614 199.329 34.4069C197.36 34.0524 195.447 33.6553 193.563 33.2157L191.962 32.8329C187.508 31.7284 183.138 30.3067 178.886 28.5787L177.313 27.8696C173.582 26.2896 170.041 24.2916 166.759 21.9138C166.263 21.5593 165.81 21.2047 165.342 20.836C160.965 17.2342 158.712 13.3912 159.35 9.8035C159.761 7.47788 160.101 -0.20803 162.594 -1.8388C165.087 -3.46958 168.657 -4.09353 172.922 -4.12189H174.622C183.122 -3.83827 194.059 -1.47011 205.237 0.515183C218.412 2.86917 233.84 4.91118 242.156 9.37809C242.643 9.63725 243.115 9.92124 243.573 10.2289C244.252 10.6635 244.892 11.157 245.485 11.7037Z" fill="black"/>
<g opacity="0.2">
<path d="M175.091 -5.52577L174.651 -4.10771L166.76 21.8996C166.265 21.5451 165.811 21.1906 165.344 20.8219L172.923 -4.13607L173.504 -6.06464L175.091 -5.52577Z" fill="black"/>
</g>
<g opacity="0.2">
<path d="M187.005 1.76311L178.887 28.5645L177.314 27.8697L185.39 1.22424L187.005 1.76311Z" fill="black"/>
</g>
<g opacity="0.2">
<path d="M214.46 10.1155L206.838 35.4847L205.181 35.2861L212.958 9.64752L214.46 10.1155Z" fill="black"/>
</g>
<g opacity="0.2">
<path d="M201.669 6.24415L193.494 33.1874L191.894 32.8045L200.096 5.73364L201.669 6.24415Z" fill="black"/>
</g>
<g opacity="0.2">
<path d="M230.286 11.2357L222.791 35.9242C222.225 35.9242 221.644 35.9242 221.049 36.0093L228.713 10.7536L230.286 11.2357Z" fill="black"/>
</g>
<path d="M246.576 17.1974C248.234 7.86758 230.37 -3.11717 206.675 -7.33769C182.98 -11.5582 162.426 -7.4163 160.768 1.91355C159.109 11.2434 176.973 22.2282 200.668 26.4487C224.364 30.6692 244.917 26.5273 246.576 17.1974Z" fill="#407BFF"/>
<path opacity="0.2" d="M238.53 15.7594C237.354 22.3534 221.204 24.991 202.461 21.6443C183.718 18.2977 169.451 10.2998 170.627 3.66329C171.803 -2.97325 187.954 -5.56831 206.697 -2.23586C225.44 1.09659 239.706 9.16538 238.53 15.7594Z" fill="white"/>
<path d="M369.151 263.538L223.372 272.046C218.2 272.348 213.127 273.588 208.398 275.705L50.0382 346.608C47.2623 347.833 44.99 349.974 43.6004 352.673C42.2108 355.372 41.7878 358.467 42.4022 361.441L68.5971 485.337C69.0359 487.334 69.9256 489.204 71.1979 490.804C72.4702 492.404 74.0914 493.691 75.9374 494.567C77.7834 495.443 79.8052 495.885 81.8479 495.858C83.8907 495.831 85.9002 495.337 87.7226 494.413L244.028 416.277L388.361 411.385C390.138 411.337 391.884 410.912 393.484 410.136C395.083 409.361 396.499 408.254 397.638 406.888C398.777 405.523 399.613 403.93 400.09 402.217C400.567 400.503 400.674 398.707 400.403 396.949L381.094 278.342C380.088 272.23 375.427 263.353 369.151 263.538Z" fill="#407BFF"/>
<path opacity="0.1" d="M369.151 263.538L223.372 272.046C218.2 272.348 213.127 273.588 208.398 275.705L50.0382 346.608C47.2623 347.833 44.99 349.974 43.6004 352.673C42.2108 355.372 41.7878 358.467 42.4022 361.441L68.5971 485.337C69.0359 487.334 69.9256 489.204 71.1979 490.804C72.4702 492.404 74.0914 493.691 75.9374 494.567C77.7834 495.443 79.8052 495.885 81.8479 495.858C83.8907 495.831 85.9002 495.337 87.7226 494.413L244.028 416.277L388.361 411.385C390.138 411.337 391.884 410.912 393.484 410.136C395.083 409.361 396.499 408.254 397.638 406.888C398.777 405.523 399.613 403.93 400.09 402.217C400.567 400.503 400.674 398.707 400.403 396.949L381.094 278.342C380.088 272.23 375.427 263.353 369.151 263.538Z" fill="black"/>
<path d="M76.5182 182.908L0.00830078 253.503L137.308 402.593L213.818 331.998L76.5182 182.908Z" fill="#407BFF"/>
<path opacity="0.5" d="M213.795 332.002L137.293 402.593L0 253.498L50.208 207.17L76.5162 182.907L80.908 187.657L213.795 332.002Z" fill="#FAFAFA"/>
<path d="M77.0119 192.022L9.50195 254.313L137.93 393.769L205.44 331.478L77.0119 192.022Z" stroke="#407BFF" stroke-width="1.82783" stroke-miterlimit="10"/>
<path d="M122.671 309.396C130.415 302.251 129.435 288.58 120.484 278.859C111.532 269.139 97.9981 267.051 90.2546 274.196C82.5112 281.341 83.4906 295.013 92.4422 304.733C101.394 314.453 114.928 316.541 122.671 309.396Z" fill="#407BFF"/>
<path opacity="0.1" d="M136.47 342.084L109.284 351.486L50.207 207.17L76.5152 182.907L80.907 187.657L136.47 342.084Z" fill="black"/>
<path d="M141.757 124.475L43.9316 159.979L112.984 350.604L210.809 315.1L141.757 124.475Z" fill="#407BFF"/>
<path opacity="0.5" d="M141.757 124.475L43.9316 159.979L112.984 350.604L210.809 315.1L141.757 124.475Z" fill="#FAFAFA"/>
<path d="M138.697 133.085L52.3794 164.412L116.969 342.719L203.287 311.392L138.697 133.085Z" stroke="#407BFF" stroke-width="1.82783" stroke-miterlimit="10"/>
<path d="M135.469 258.995C145.37 255.402 149.746 242.414 145.244 229.986C140.742 217.557 129.067 210.395 119.166 213.989C109.265 217.582 104.889 230.57 109.391 242.998C113.893 255.426 125.569 262.589 135.469 258.995Z" fill="#407BFF"/>
<path d="M370.1 268.586L226.305 276.683C221.211 276.975 216.213 278.196 211.557 280.285L55.5212 350.82C52.772 352.061 50.5297 354.206 49.1665 356.899C47.8033 359.592 47.4011 362.671 48.0268 365.624L74.1934 489.492C74.6141 491.475 75.4837 493.334 76.7354 494.927C77.9871 496.521 79.5874 497.805 81.4131 498.682C83.2387 499.559 85.2411 500.004 87.2659 499.984C89.2907 499.965 91.284 499.48 93.0922 498.568L247.074 420.915L389.438 416.419C391.2 416.364 392.93 415.932 394.512 415.154C396.094 414.376 397.491 413.268 398.611 411.905C399.731 410.543 400.547 408.957 401.006 407.253C401.464 405.549 401.553 403.767 401.268 402.026L381.902 283.405C380.91 277.279 376.306 268.416 370.1 268.586Z" fill="#407BFF"/>
<path opacity="0.2" d="M232.154 298.394L355.535 290.779" stroke="black" stroke-width="3.65567" stroke-linecap="round" stroke-linejoin="round"/>
<path opacity="0.2" d="M217.378 301.584L239.918 405.217" stroke="black" stroke-width="3.65567" stroke-linecap="round" stroke-linejoin="round"/>
<path opacity="0.2" d="M67.0942 395.148L82.9897 474.858C82.9897 474.858 95.1733 443.221 67.0942 395.148Z" fill="#FAFAFA"/>
<path opacity="0.2" d="M69.1914 396.084C69.7298 397.502 210.366 337.093 210.366 337.093C210.745 350.788 207.324 364.321 200.481 376.187C193.638 388.053 183.643 397.788 171.605 404.309C129.274 428.062 69.1914 396.084 69.1914 396.084Z" fill="#FAFAFA"/>
<path d="M162.61 398.424C165.975 398.424 168.702 395.694 168.702 392.326C168.702 388.959 165.975 386.229 162.61 386.229C159.246 386.229 156.519 388.959 156.519 392.326C156.519 395.694 159.246 398.424 162.61 398.424Z" fill="#407BFF"/>
<path opacity="0.2" d="M210.436 337.093C210.436 337.093 227.875 363.355 223.668 408.124L210.436 337.093Z" fill="black"/>
<g opacity="0.2">
<path d="M60.3647 363.838L63.609 362.405" stroke="#FAFAFA" stroke-width="1.82783" stroke-linecap="round" stroke-linejoin="round"/>
<path d="M70.3369 359.413L201.665 301.315" stroke="#FAFAFA" stroke-width="1.82783" stroke-linecap="round" stroke-linejoin="round" stroke-dasharray="9.5 9.5"/>
<path d="M205.037 299.826L208.281 298.394" stroke="#FAFAFA" stroke-width="1.82783" stroke-linecap="round" stroke-linejoin="round"/>
</g>
<path opacity="0.2" d="M236.291 321.693L359.672 314.078" stroke="black" stroke-width="3.65567" stroke-linecap="round" stroke-linejoin="round"/>
<path opacity="0.2" d="M241.847 350.735L365.227 343.134" stroke="black" stroke-width="3.65567" stroke-linecap="round" stroke-linejoin="round"/>
<path d="M346.297 171.789L316.391 276.031C315.393 279.517 313.376 282.624 310.599 284.952C307.821 287.28 304.411 288.721 300.807 289.091C298.512 289.325 296.193 289.113 293.978 288.467L236.729 272.004C232.11 270.668 228.207 267.554 225.878 263.343C223.549 259.133 222.983 254.169 224.305 249.541L254.226 145.342C254.873 143.045 255.966 140.897 257.443 139.023C258.92 137.149 260.752 135.585 262.834 134.421C264.916 133.256 267.207 132.514 269.575 132.237C271.944 131.96 274.344 132.154 276.638 132.806L333.887 149.256C336.182 149.917 338.324 151.024 340.191 152.515C342.058 154.006 343.612 155.851 344.765 157.944C345.918 160.037 346.647 162.338 346.91 164.714C347.172 167.089 346.964 169.494 346.297 171.789Z" fill="#407BFF"/>
<path opacity="0.2" d="M346.297 171.789L316.391 276.031C315.393 279.517 313.376 282.624 310.599 284.952C307.821 287.28 304.411 288.721 300.807 289.091C298.512 289.325 296.193 289.113 293.978 288.467L236.729 272.004C232.11 270.668 228.207 267.554 225.878 263.343C223.549 259.133 222.983 254.169 224.305 249.541L254.226 145.342C254.873 143.045 255.966 140.897 257.443 139.023C258.92 137.149 260.752 135.585 262.834 134.421C264.916 133.256 267.207 132.514 269.575 132.237C271.944 131.96 274.344 132.154 276.638 132.806L333.887 149.256C336.182 149.917 338.324 151.024 340.191 152.515C342.058 154.006 343.612 155.851 344.765 157.944C345.918 160.037 346.647 162.338 346.91 164.714C347.172 167.089 346.964 169.494 346.297 171.789Z" fill="black"/>
<path d="M341.326 173.037L311.419 277.208C310.66 279.859 309.307 282.301 307.463 284.351C305.62 286.4 303.334 288.002 300.78 289.035C298.484 289.268 296.166 289.057 293.951 288.411L236.702 271.947C232.082 270.612 228.18 267.497 225.851 263.287C223.522 259.076 222.956 254.112 224.277 249.485L254.198 145.285C254.958 142.636 256.311 140.195 258.154 138.148C259.998 136.102 262.284 134.502 264.838 133.473C267.133 133.253 269.449 133.465 271.666 134.097L328.901 150.546C331.193 151.206 333.332 152.311 335.197 153.798C337.062 155.285 338.616 157.126 339.769 159.215C340.923 161.303 341.655 163.599 341.922 165.971C342.189 168.342 341.986 170.744 341.326 173.037Z" fill="#407BFF"/>
<path opacity="0.5" d="M341.326 173.037L311.419 277.208C310.66 279.859 309.307 282.301 307.463 284.351C305.62 286.4 303.334 288.002 300.78 289.035C298.484 289.268 296.166 289.057 293.951 288.411L236.702 271.947C232.082 270.612 228.18 267.497 225.851 263.287C223.522 259.076 222.956 254.112 224.277 249.485L254.198 145.285C254.958 142.636 256.311 140.195 258.154 138.148C259.998 136.102 262.284 134.502 264.838 133.473C267.133 133.253 269.449 133.465 271.666 134.097L328.901 150.546C331.193 151.206 333.332 152.311 335.197 153.798C337.062 155.285 338.616 157.126 339.769 159.215C340.923 161.303 341.655 163.599 341.922 165.971C342.189 168.342 341.986 170.744 341.326 173.037Z" fill="#FAFAFA"/>
<path d="M260.893 181.882L254.771 180.155L232.734 258.417L238.856 260.145L260.893 181.882Z" fill="#FAFAFA"/>
<path d="M247.64 262.63L241.52 260.872L263.549 182.637L269.669 184.396L247.64 262.63Z" fill="#FAFAFA"/>
<path d="M256.535 265.197L250.429 263.438L272.444 185.19L278.564 186.948L256.535 265.197Z" fill="#FAFAFA"/>
<path opacity="0.5" d="M314.213 197.219L308.091 195.491L286.054 273.754L292.177 275.481L314.213 197.219Z" fill="black"/>
<path d="M313.416 175.093L310.37 185.714L306.743 184.693C304.986 184.194 303.498 183.019 302.606 181.424C301.714 179.829 301.49 177.945 301.983 176.185L303.966 169.095L311.291 171.193C311.687 171.307 312.058 171.499 312.38 171.757C312.702 172.016 312.97 172.336 313.168 172.698C313.365 173.061 313.489 173.46 313.532 173.871C313.574 174.282 313.535 174.697 313.416 175.093Z" fill="#FAFAFA"/>
<path d="M311.674 169.889L304.35 167.79L306.546 160.019C306.791 159.147 307.205 158.332 307.765 157.621C308.325 156.91 309.02 156.316 309.809 155.873C310.598 155.431 311.467 155.148 312.366 155.042C313.264 154.936 314.175 155.008 315.046 155.254L318.814 156.318L315.527 167.762C315.418 168.157 315.231 168.527 314.977 168.849C314.723 169.172 314.408 169.44 314.048 169.638C313.689 169.836 313.294 169.96 312.887 170.004C312.479 170.047 312.066 170.008 311.674 169.889Z" fill="#FAFAFA"/>
<path d="M318.615 173.363L325.982 175.476L324.026 182.439C323.785 183.312 323.372 184.13 322.813 184.843C322.254 185.556 321.559 186.152 320.769 186.595C319.978 187.038 319.108 187.32 318.208 187.424C317.309 187.529 316.397 187.454 315.526 187.203L311.701 186.126L314.747 175.518C314.856 175.121 315.044 174.749 315.298 174.424C315.553 174.1 315.869 173.83 316.229 173.629C316.589 173.428 316.986 173.301 317.395 173.256C317.805 173.21 318.219 173.247 318.615 173.363Z" fill="#FAFAFA"/>
<path d="M328.59 166.23L326.366 174.115L318.999 172.002C318.211 171.771 317.545 171.238 317.147 170.518C316.749 169.798 316.651 168.95 316.874 168.159L320.161 156.715L323.83 157.75C324.699 157.994 325.512 158.407 326.221 158.965C326.93 159.523 327.523 160.216 327.965 161.003C328.407 161.791 328.69 162.658 328.797 163.554C328.904 164.451 328.834 165.361 328.59 166.23Z" fill="#FAFAFA"/>
</g>
<defs>
<clipPath id="clip0_822_3367">
<rect width="498" height="509" fill="white" transform="translate(0 -9)"/>
</clipPath>
</defs>
</svg>
