<svg width="12" height="14" viewBox="0 0 12 14" fill="none" xmlns="http://www.w3.org/2000/svg">
<path d="M5.9974 7.20182C6.36406 7.20182 6.67806 7.07116 6.9394 6.80982C7.20028 6.54893 7.33073 6.23516 7.33073 5.86849C7.33073 5.50182 7.20028 5.18782 6.9394 4.92649C6.67806 4.6656 6.36406 4.53516 5.9974 4.53516C5.63073 4.53516 5.31695 4.6656 5.05606 4.92649C4.79473 5.18782 4.66406 5.50182 4.66406 5.86849C4.66406 6.23516 4.79473 6.54893 5.05606 6.80982C5.31695 7.07116 5.63073 7.20182 5.9974 7.20182ZM5.9974 12.1018C7.35295 10.8574 8.35851 9.72671 9.01406 8.70982C9.66962 7.69338 9.9974 6.79071 9.9974 6.00182C9.9974 4.79071 9.61117 3.79893 8.83873 3.02649C8.06673 2.25449 7.11962 1.86849 5.9974 1.86849C4.87517 1.86849 3.92784 2.25449 3.1554 3.02649C2.3834 3.79893 1.9974 4.79071 1.9974 6.00182C1.9974 6.79071 2.32517 7.69338 2.98073 8.70982C3.63628 9.72671 4.64184 10.8574 5.9974 12.1018ZM5.9974 13.6185C5.90851 13.6185 5.81962 13.6018 5.73073 13.5685C5.64184 13.5352 5.56406 13.4907 5.4974 13.4352C3.87517 12.0018 2.66406 10.6714 1.86406 9.44382C1.06406 8.21582 0.664062 7.06849 0.664062 6.00182C0.664062 4.33516 1.20028 3.00738 2.27273 2.01849C3.34473 1.0296 4.58628 0.535156 5.9974 0.535156C7.40851 0.535156 8.65006 1.0296 9.72206 2.01849C10.7945 3.00738 11.3307 4.33516 11.3307 6.00182C11.3307 7.06849 10.9307 8.21582 10.1307 9.44382C9.33073 10.6714 8.11962 12.0018 6.4974 13.4352C6.43073 13.4907 6.35295 13.5352 6.26406 13.5685C6.17517 13.6018 6.08629 13.6185 5.9974 13.6185Z" fill="#699BF7"/>
</svg>
