<svg width="17" height="18" viewBox="0 0 17 18" fill="none" xmlns="http://www.w3.org/2000/svg">
<path d="M16.6225 6.85133C16.5701 6.69705 16.4737 6.56149 16.3452 6.46138C16.2166 6.36127 16.0616 6.30099 15.8992 6.28799L11.1484 5.91049L9.09252 1.35966C9.02705 1.21309 8.92056 1.0886 8.78589 1.00121C8.65123 0.913822 8.49416 0.867276 8.33363 0.867188C8.17309 0.8671 8.01597 0.913473 7.88121 1.00071C7.74645 1.08795 7.63982 1.21233 7.57419 1.35883L5.51835 5.91049L0.767522 6.28799C0.607901 6.30064 0.455304 6.359 0.327984 6.4561C0.200665 6.5532 0.104016 6.68493 0.0495995 6.83552C-0.00481698 6.98611 -0.0146966 7.14919 0.0211427 7.30525C0.056982 7.4613 0.137023 7.60373 0.251689 7.71549L3.76252 11.138L2.52086 16.5147C2.48315 16.6774 2.49524 16.8477 2.55554 17.0035C2.61584 17.1593 2.72158 17.2934 2.85902 17.3884C2.99647 17.4833 3.15929 17.5348 3.32634 17.536C3.4934 17.5373 3.65698 17.4883 3.79586 17.3955L8.33335 14.3705L12.8709 17.3955C13.0128 17.4897 13.1802 17.5383 13.3505 17.5345C13.5209 17.5308 13.686 17.475 13.8237 17.3746C13.9614 17.2742 14.065 17.1341 14.1207 16.9731C14.1763 16.812 14.1813 16.6378 14.135 16.4738L12.6109 11.1405L16.3909 7.73883C16.6384 7.51549 16.7292 7.16716 16.6225 6.85133Z" fill="#5583FF"/>
</svg>
