<svg width="40" height="40" viewBox="0 0 40 40" fill="none" xmlns="http://www.w3.org/2000/svg">
<path d="M33.3359 13.3346H6.66927V10.0013H33.3359M33.3359 30.0013H6.66927V20.0013H33.3359M33.3359 6.66797H6.66927C4.81927 6.66797 3.33594 8.1513 3.33594 10.0013V30.0013C3.33594 30.8854 3.68713 31.7332 4.31225 32.3583C4.93737 32.9834 5.78522 33.3346 6.66927 33.3346H33.3359C34.22 33.3346 35.0678 32.9834 35.693 32.3583C36.3181 31.7332 36.6693 30.8854 36.6693 30.0013V10.0013C36.6693 9.11725 36.3181 8.2694 35.693 7.64428C35.0678 7.01916 34.22 6.66797 33.3359 6.66797Z" fill="#5583FF"/>
</svg>
