<svg width="64" height="64" viewBox="0 0 64 64" fill="none" xmlns="http://www.w3.org/2000/svg">
<g clip-path="url(#clip0_1272_24842)">
<mask id="mask0_1272_24842" style="mask-type:luminance" maskUnits="userSpaceOnUse" x="0" y="0" width="64" height="64">
<path d="M0 0.00018692H63.9998V64H0V0.00018692Z" fill="white"/>
</mask>
<g mask="url(#mask0_1272_24842)">
<path d="M20.7671 13.0425V7.21612C20.7671 4.62326 22.8691 2.52126 25.4621 2.52126H38.5382C41.131 2.52126 43.2331 4.62326 43.2331 7.21612V13.0425" stroke="#5583FE" stroke-width="2" stroke-miterlimit="10" stroke-linecap="round" stroke-linejoin="round"/>
<path d="M38.6878 39.4028H25.3124C24.3232 39.4028 23.5215 38.601 23.5215 37.612V33.7936C23.5215 32.8046 24.3232 32.0027 25.3124 32.0027H38.6878C39.6768 32.0027 40.4787 32.8046 40.4787 33.7936V37.612C40.4787 38.601 39.6768 39.4028 38.6878 39.4028Z" stroke="#5583FE" stroke-width="2" stroke-miterlimit="10" stroke-linecap="round" stroke-linejoin="round"/>
<path d="M0.9375 26.8505V54.338C0.9375 58.282 4.13474 61.4792 8.07873 61.4792H55.9211C59.8651 61.4792 63.0623 58.282 63.0623 54.338V26.851" stroke="#5583FE" stroke-width="2" stroke-miterlimit="10" stroke-linecap="round" stroke-linejoin="round"/>
<path d="M44.8614 35.8821H52.2479C53.8071 35.882 55.3368 35.4567 56.6723 34.652L59.6787 32.8402C60.7111 32.2181 61.5651 31.3396 62.1579 30.2902C62.7508 29.2407 63.0623 28.0558 63.0623 26.8505V20.1835C63.0623 16.2395 59.8651 13.0424 55.9212 13.0424H8.07873C4.13487 13.0424 0.9375 16.2395 0.9375 20.1836V26.8505C0.937524 28.0558 1.24908 29.2407 1.84195 30.2902C2.43482 31.3396 3.28887 32.2181 4.32124 32.8402L7.32761 34.652C8.66312 35.4567 10.1928 35.882 11.7521 35.8821H19.1386" stroke="#5583FE" stroke-width="2" stroke-miterlimit="10" stroke-linecap="round" stroke-linejoin="round"/>
</g>
</g>
<defs>
<clipPath id="clip0_1272_24842">
<rect width="64" height="64" fill="white"/>
</clipPath>
</defs>
</svg>
