<svg width="62" height="36" viewBox="0 0 62 36" fill="none" xmlns="http://www.w3.org/2000/svg">
<path d="M7.95445 6.71864C7.58754 6.27489 7.125 5.92007 6.60199 5.68099C6.1054 5.45679 5.56899 5.3351 5.02458 5.32301C4.42268 5.30347 3.82301 5.40562 3.26154 5.62368C2.75703 5.82202 2.29895 6.12288 1.91612 6.50765C1.54175 6.88851 1.25224 7.34454 1.06676 7.84597C0.678268 8.94092 0.678268 10.1365 1.06676 11.2315C1.2509 11.7366 1.54046 12.1966 1.91612 12.5806C2.29854 12.9657 2.75675 13.2668 3.26154 13.4646C3.82301 13.6824 4.42268 13.7846 5.02458 13.7651C5.56899 13.753 6.1054 13.6313 6.60199 13.4073C7.12519 13.1682 7.58754 12.8134 7.95445 12.3694L7.03011 11.6537C6.82098 11.9653 6.54245 12.2237 6.21647 12.4089C5.8544 12.6182 5.44228 12.7246 5.02458 12.7166C4.59348 12.7354 4.1635 12.6597 3.76478 12.4946C3.40449 12.3512 3.07856 12.1328 2.80831 11.854C2.53993 11.5582 2.33577 11.2097 2.20875 10.8305C1.93487 9.99978 1.93487 9.10261 2.20875 8.27186C2.33631 7.89397 2.54046 7.54678 2.80831 7.25188C3.07385 6.96386 3.39744 6.73575 3.75752 6.58263C4.15643 6.41778 4.58641 6.34224 5.01732 6.36084C5.43521 6.35284 5.84733 6.45927 6.2094 6.66859C6.53519 6.85372 6.81372 7.11234 7.02304 7.4238L7.94738 6.70803L7.95445 6.71864ZM10.6596 13.5719H11.791V9.44924C11.7659 8.8559 11.8885 8.26553 12.1478 7.73154C12.3346 7.36798 12.6005 7.05131 12.9258 6.8046C13.1665 6.61612 13.4454 6.48309 13.7429 6.41443C13.9037 6.38634 14.0655 6.36736 14.2283 6.35731C15.0611 6.35731 15.6322 6.59584 15.9414 7.07308C16.2875 7.69972 16.4482 8.41214 16.4052 9.12717V13.5719H17.5367V8.46871C17.5915 7.62828 17.3292 6.7979 16.8014 6.1426C16.3042 5.60805 15.5417 5.34087 14.5139 5.34087C14.2447 5.34162 13.9772 5.37901 13.718 5.45195C13.4525 5.52451 13.1963 5.62778 12.9544 5.75969C12.7187 5.88882 12.5004 6.04752 12.3049 6.23209C12.117 6.40792 11.9558 6.61054 11.8265 6.83325H11.791V0.584839H10.6596V13.5719ZM26.5406 9.57092V10.1542C26.5425 10.4949 26.4932 10.8339 26.3944 11.1599C26.3039 11.465 26.1482 11.7469 25.9381 11.9854C25.7279 12.2239 25.4682 12.4137 25.1773 12.5412C24.8393 12.6863 24.4742 12.757 24.1068 12.7488C23.8785 12.7484 23.6509 12.722 23.4286 12.6701C23.2128 12.621 23.0073 12.5337 22.822 12.4124C22.6419 12.2943 22.4927 12.1348 22.3867 11.9471C22.2726 11.7392 22.2159 11.5044 22.2224 11.2672C22.2144 11.0877 22.248 10.9089 22.3212 10.7448C22.3943 10.5807 22.5048 10.4361 22.6436 10.3224C22.9409 10.0841 23.2851 9.91085 23.6535 9.81428C24.0571 9.70339 24.4707 9.63381 24.8882 9.60664C25.3165 9.57799 25.6734 9.56366 25.959 9.56366L26.5406 9.57092ZM25.9767 8.64397C25.5009 8.64397 24.9727 8.66667 24.3922 8.71207C23.8362 8.75803 23.289 8.87841 22.7649 9.06986C22.28 9.23806 21.8447 9.52459 21.4978 9.90378C21.1401 10.3334 20.9588 10.8836 20.9912 11.4425C20.9828 11.7977 21.0627 12.1493 21.2232 12.466C21.3739 12.7533 21.5846 13.0046 21.8406 13.2033C22.1033 13.4071 22.4025 13.5589 22.7221 13.6506C23.0559 13.7485 23.402 13.798 23.7499 13.7972C24.3213 13.8125 24.8878 13.6897 25.4021 13.4395C25.8918 13.1676 26.2978 12.7667 26.5763 12.2799H26.612C26.612 12.4971 26.6202 12.7201 26.637 12.9492C26.6535 13.1782 26.6809 13.3859 26.719 13.5719H27.7896C27.7563 13.3548 27.7254 13.0768 27.697 12.738C27.6683 12.3992 27.6588 12.0807 27.6683 11.7826V8.20394C27.6793 7.76819 27.5978 7.33505 27.4292 6.93335C27.282 6.59714 27.0655 6.29591 26.794 6.04957C26.5229 5.81067 26.204 5.63261 25.8589 5.52693C25.4964 5.41232 25.1186 5.35427 24.7384 5.3552C23.2301 5.3552 22.0999 5.74406 21.3481 6.52197L22.0333 7.33058C22.6985 6.71305 23.5748 6.3748 24.4815 6.38596C25.8518 6.38596 26.5371 7.07903 26.5371 8.46517V8.67262L25.9767 8.64397ZM31.4226 5.53419C31.4464 5.83244 31.4667 6.14725 31.4834 6.47899C31.5 6.81055 31.5084 7.08499 31.5084 7.30212V13.5719H32.6396V9.44924C32.6147 8.8559 32.7373 8.26553 32.9965 7.73154C33.1833 7.36798 33.4492 7.05131 33.7746 6.8046C34.0151 6.61612 34.2942 6.48309 34.5917 6.41443C34.7497 6.38299 34.9093 6.36029 35.0699 6.34652C35.9027 6.34652 36.4737 6.58505 36.7829 7.06229C37.129 7.68893 37.29 8.40135 37.247 9.11638V13.5719H38.3782V8.46871C38.4331 7.62828 38.1708 6.7979 37.6431 6.1426C37.1506 5.60805 36.3904 5.34087 35.3626 5.34087C35.0935 5.34162 34.8258 5.37901 34.5668 5.45195C34.3013 5.52451 34.0449 5.62778 33.803 5.75969C33.5643 5.88472 33.3423 6.03989 33.1429 6.2213C32.955 6.39713 32.7938 6.59974 32.6645 6.82246H32.629C32.629 6.60533 32.629 6.39062 32.629 6.17832C32.629 5.96603 32.6147 5.75132 32.586 5.53419H31.4226ZM43.3032 8.25753C43.4519 7.89378 43.6673 7.56111 43.9384 7.277C44.2074 6.99624 44.5271 6.76906 44.8804 6.60775C45.249 6.43936 45.6498 6.35377 46.0546 6.35731C46.4896 6.35136 46.9213 6.43676 47.3215 6.60775C47.6836 6.76311 48.0101 6.99084 48.2816 7.277C48.5454 7.55981 48.7495 7.89341 48.881 8.25753C49.0206 8.64044 49.0905 9.04512 49.0881 9.45277C49.1054 9.88666 49.0325 10.3192 48.874 10.7232C48.7264 11.0906 48.5013 11.4216 48.2136 11.6931C47.6333 12.2386 46.8681 12.543 46.0725 12.5447C45.6674 12.5484 45.2667 12.4628 44.8983 12.2943C44.5449 12.1331 44.2251 11.906 43.9563 11.625C43.685 11.3411 43.4695 11.0084 43.3209 10.6445C43.0128 9.87885 43.0128 9.02316 43.3209 8.25753H43.3032ZM42.0255 16.077C42.5033 16.6013 43.0874 17.0174 43.7386 17.2972C44.419 17.5701 45.147 17.7039 45.8797 17.6909C46.6318 17.721 47.3809 17.5804 48.0709 17.2793C48.5817 17.0429 49.0303 16.6899 49.3808 16.2488C49.6893 15.8489 49.9062 15.3858 50.016 14.8924C50.1208 14.4356 50.1758 13.969 50.1801 13.5003V5.53419H49.0489V6.87251H49.0131C48.6222 6.32866 48.092 5.90091 47.4785 5.63429C47.2199 5.52321 46.9492 5.44283 46.672 5.39464C46.4199 5.35055 46.1644 5.32785 45.9084 5.32655C45.3476 5.32059 44.7915 5.42906 44.2739 5.64508C43.7895 5.84825 43.3523 6.14911 42.9891 6.52904C42.6252 6.9127 42.337 7.36203 42.1398 7.85322C41.9319 8.37177 41.8276 8.92622 41.8328 9.48496C41.8277 10.0456 41.9383 10.6011 42.1574 11.1169C42.3643 11.6049 42.6678 12.0457 43.0498 12.4124C43.434 12.7786 43.8846 13.0677 44.3773 13.2642C44.8972 13.4718 45.4522 13.5764 46.0118 13.5719C46.5849 13.5699 47.1513 13.448 47.6748 13.2139C48.2239 12.9641 48.6877 12.5586 49.0096 12.0474H49.0453V13.4789C49.0474 13.8936 48.9921 14.3067 48.881 14.7063C48.7817 15.0788 48.6012 15.4247 48.3528 15.719C48.0886 16.0192 47.7573 16.2521 47.3857 16.3991C46.9215 16.577 46.4267 16.6622 45.9298 16.6495C45.3113 16.6594 44.6994 16.5208 44.1453 16.2452C43.6366 15.9938 43.194 15.6262 42.8535 15.1715L42.0255 16.077ZM54.7518 8.91953C54.7523 8.58481 54.8318 8.25511 54.9836 7.95686C55.1386 7.64763 55.3477 7.36891 55.6011 7.13392C55.864 6.88925 56.1686 6.69426 56.5003 6.5577C56.8393 6.4148 57.2035 6.34168 57.5711 6.34298C57.9231 6.32215 58.2755 6.37499 58.6062 6.49816C58.9368 6.62151 59.238 6.81222 59.491 7.05875C59.7205 7.30882 59.8981 7.60204 60.0139 7.9215C60.1298 8.24078 60.1811 8.58016 60.1655 8.91953H54.7518ZM61.3967 9.84647V9.34541C61.3996 8.81682 61.3128 8.29158 61.1397 7.79238C60.9784 7.32314 60.7246 6.89111 60.394 6.52197C60.0583 6.15209 59.6501 5.85607 59.1948 5.65233C58.6817 5.42869 58.1269 5.31762 57.5674 5.32655C57.0207 5.32227 56.4789 5.43055 55.9758 5.64508C55.493 5.85067 55.0561 6.15134 54.6911 6.52904C54.3207 6.91437 54.0295 7.36928 53.8345 7.86755C53.6257 8.40321 53.5215 8.97423 53.5277 9.54952C53.5221 10.1256 53.63 10.6971 53.8453 11.2315C54.0449 11.7288 54.3382 12.1834 54.709 12.5698C55.0802 12.9516 55.5261 13.2525 56.0186 13.4538C56.5429 13.6685 57.1047 13.7768 57.671 13.7723C58.3118 13.7773 58.9463 13.643 59.5303 13.3786C60.1549 13.0763 60.6982 12.6284 61.1148 12.0725L60.2405 11.3567C59.983 11.7512 59.6403 12.0827 59.2376 12.3264C58.7671 12.6161 58.2229 12.7629 57.671 12.7488C57.2885 12.7527 56.9095 12.6772 56.5575 12.5268C55.869 12.2317 55.3181 11.6857 55.0158 10.9987C54.8543 10.6402 54.7553 10.2565 54.7231 9.86433L61.3967 9.84647Z" fill="#2B2B35"/>
<path d="M1.75923 35.0437H4.63559V22.6079H4.6821L12.6761 35.0437H16.3305V18.8289H13.4505V30.8747H13.4077L5.55639 18.8289H1.75923V35.0437ZM20.9235 30.4631C21.3206 31.4666 21.9232 32.3756 22.692 33.1312C23.461 33.887 24.3794 34.4727 25.388 34.8506C26.486 35.2655 27.6514 35.4718 28.8247 35.459C30.0123 35.4583 31.1895 35.2374 32.2971 34.8076C33.3115 34.4113 34.2362 33.8152 35.0166 33.054C35.788 32.2925 36.3954 31.3802 36.8009 30.3736C37.234 29.2725 37.4461 28.0965 37.4255 26.9131C37.4428 25.7065 37.2258 24.508 36.7867 23.3845C36.3852 22.3696 35.7775 21.4493 35.0022 20.6826C34.2273 19.9259 33.3002 19.3439 32.2828 18.9755C31.1698 18.5758 29.9926 18.3853 28.8104 18.4138C27.6371 18.401 26.4718 18.6071 25.3737 19.022C24.3656 19.4044 23.448 19.9931 22.6794 20.7505C21.9043 21.5217 21.2968 22.4453 20.8949 23.4632C20.4696 24.5945 20.266 25.7975 20.2954 27.0062C20.2796 28.1893 20.4965 29.3641 20.9341 30.4631H20.9235ZM23.6999 24.5547C23.9543 23.8726 24.3385 23.2467 24.8313 22.7117C25.3222 22.1817 25.9177 21.7601 26.5799 21.4735C27.3007 21.1662 28.0775 21.0138 28.8604 21.0262C29.6443 21.0158 30.422 21.168 31.1445 21.4735C31.811 21.7582 32.4102 22.18 32.9039 22.7117C33.3964 23.2468 33.7806 23.8727 34.0351 24.5547C34.2995 25.2777 34.4301 26.0429 34.4206 26.8129C34.4292 27.6319 34.2937 28.4459 34.021 29.2177C33.7724 29.9197 33.3878 30.5655 32.8895 31.1181C32.397 31.6561 31.7977 32.0854 31.1302 32.3777C30.4096 32.6904 29.6313 32.8466 28.8461 32.8358C28.0645 32.8475 27.2894 32.6914 26.5728 32.3777C25.9095 32.0833 25.3142 31.6545 24.8241 31.1181C24.3256 30.5657 23.941 29.9198 23.6928 29.2177C23.421 28.4457 23.2869 27.6315 23.2967 26.8129C23.2902 26.0385 23.4258 25.2693 23.6964 24.5441L23.6999 24.5547ZM44.3524 35.0437H47.0004L50.7476 22.6974H50.7942L54.5555 35.0437H57.2964L61.9999 18.8289H59.0771L55.9009 30.5097H55.8546L52.2858 18.8289H49.4523L45.8156 30.5097H45.7693L42.7322 18.8289H39.5668L44.3524 35.0437Z" fill="#00C26F"/>
</svg>
