<svg width="64" height="64" viewBox="0 0 64 64" fill="none" xmlns="http://www.w3.org/2000/svg">
<path d="M40.0448 54.6683H8.71942C7.14336 54.6683 5.86572 53.3907 5.86572 51.8146V10.9162C5.86572 9.34014 7.14337 8.0625 8.71942 8.0625H49.6178C51.1939 8.0625 52.4715 9.34015 52.4715 10.9162V35.8587" stroke="#5583FE" stroke-width="2" stroke-linecap="round" stroke-linejoin="round"/>
<path d="M32.7671 16.0997C33.6466 16.0997 34.3595 15.3868 34.3595 14.5074C34.3595 13.6279 33.6466 12.915 32.7671 12.915C31.8877 12.915 31.1748 13.6279 31.1748 14.5074C31.1748 15.3868 31.8877 16.0997 32.7671 16.0997Z" stroke="#5583FE" stroke-width="2" stroke-linecap="round" stroke-linejoin="round"/>
<path d="M39.3873 16.0997C40.2667 16.0997 40.9796 15.3868 40.9796 14.5074C40.9796 13.6279 40.2667 12.915 39.3873 12.915C38.5078 12.915 37.7949 13.6279 37.7949 14.5074C37.7949 15.3868 38.5078 16.0997 39.3873 16.0997Z" stroke="#5583FE" stroke-width="2" stroke-linecap="round" stroke-linejoin="round"/>
<path d="M46.0079 16.0997C46.8873 16.0997 47.6002 15.3868 47.6002 14.5074C47.6002 13.6279 46.8873 12.915 46.0079 12.915C45.1284 12.915 44.4155 13.6279 44.4155 14.5074C44.4155 15.3868 45.1284 16.0997 46.0079 16.0997Z" stroke="#5583FE" stroke-width="2" stroke-linecap="round" stroke-linejoin="round"/>
<path d="M5.86572 21.1045H52.4715" stroke="#5583FE" stroke-width="2" stroke-linecap="round" stroke-linejoin="round"/>
<path d="M19.6689 29.4216H37.795" stroke="#5583FE" stroke-width="2" stroke-linecap="round" stroke-linejoin="round"/>
<path d="M10.7739 29.4216H12.4692" stroke="#5583FE" stroke-width="2" stroke-linecap="round" stroke-linejoin="round"/>
<path d="M35.2456 37.7356H37.7952" stroke="#5583FE" stroke-width="2" stroke-linecap="round" stroke-linejoin="round"/>
<path d="M10.7739 37.7356H27.6221" stroke="#5583FE" stroke-width="2" stroke-linecap="round" stroke-linejoin="round"/>
<path d="M24.563 46.0498H37.7949" stroke="#5583FE" stroke-width="2" stroke-linecap="round" stroke-linejoin="round"/>
<path d="M10.7739 46.0498H16.9398" stroke="#5583FE" stroke-width="2" stroke-linecap="round" stroke-linejoin="round"/>
<path d="M16.0932 32.7339C17.9225 32.7339 19.4055 31.2509 19.4055 29.4215C19.4055 27.5921 17.9225 26.1091 16.0932 26.1091C14.2638 26.1091 12.7808 27.5921 12.7808 29.4215C12.7808 31.2509 14.2638 32.7339 16.0932 32.7339Z" stroke="#5583FE" stroke-width="2" stroke-linecap="round" stroke-linejoin="round"/>
<path d="M31.2274 41.104C33.0568 41.104 34.5398 39.621 34.5398 37.7916C34.5398 35.9623 33.0568 34.4792 31.2274 34.4792C29.398 34.4792 27.915 35.9623 27.915 37.7916C27.915 39.621 29.398 41.104 31.2274 41.104Z" stroke="#5583FE" stroke-width="2" stroke-linecap="round" stroke-linejoin="round"/>
<path d="M20.7523 49.3621C22.5817 49.3621 24.0647 47.8791 24.0647 46.0497C24.0647 44.2203 22.5817 42.7373 20.7523 42.7373C18.9229 42.7373 17.4399 44.2203 17.4399 46.0497C17.4399 47.8791 18.9229 49.3621 20.7523 49.3621Z" stroke="#5583FE" stroke-width="2" stroke-linecap="round" stroke-linejoin="round"/>
<path d="M62.8283 50.2762L44.0905 33.7305L44.0903 58.7278L50.2399 55.9541L52.3595 60.6534L58.7983 57.7493L56.6787 53.0499L62.8283 50.2762Z" stroke="#5583FE" stroke-width="2" stroke-linecap="round" stroke-linejoin="round"/>
</svg>
