<svg width="116" height="33" viewBox="0 0 116 33" fill="none" xmlns="http://www.w3.org/2000/svg">
<g clip-path="url(#clip0_1974_26987)">
<path d="M20.9427 11.8387C18.4738 9.42891 14.56 9.42891 12.1102 11.8387C9.67001 14.2963 9.70829 18.2839 12.1389 20.7319C14.5695 23.1799 18.5408 23.2086 20.9906 20.7606C21.0288 20.7223 21.2011 20.5311 21.5073 20.1964L18.5695 17.232C18.2729 17.5954 18.1006 17.7771 18.091 17.7771C17.2681 18.5994 15.9188 18.5994 15.0863 17.7771C14.2633 16.9547 14.2633 15.5872 15.0576 14.7744C15.8614 13.9711 17.2107 13.9711 18.0432 14.8031C18.0432 14.8031 20.6748 17.4328 25.9188 22.7018C23.7561 25.8383 20.1389 27.8082 16.2442 27.8082C9.79441 27.8082 4.5504 22.5297 4.5504 16.008C4.5504 9.48629 9.80398 4.2173 16.2442 4.2173C20.0049 4.2173 23.4595 6.03419 25.6126 8.98903C25.2681 9.39066 24.3877 10.4043 22.9523 12.0299L25.8614 14.937L30.6748 9.48629C28.1772 3.79655 22.5504 0.0384521 16.2346 0.0384521C7.48819 0.0384521 0.387726 7.20083 0.387726 16.0175C0.387726 24.8342 7.47862 32.0062 16.225 32.0062C20.2059 32.0062 23.4977 30.7535 26.713 27.9899C29.6317 25.4941 31.0193 22.0324 31.0193 22.0324L20.9427 11.8387Z" fill="url(#paint0_linear_1974_26987)"/>
<path d="M85.9416 18.1774V25.837H82.822V18.0244C82.5062 16.2266 80.9273 14.8592 79.023 14.8592C77.09 14.8592 75.4823 16.2553 75.2048 18.1104V25.8466H72.0852V11.933L74.4871 13.4535C75.712 12.4016 77.3005 11.7704 79.023 11.7704C82.688 11.7896 85.7024 14.6105 85.9416 18.1774ZM53.1666 10.1735C52.1235 10.7186 51.2048 11.4358 50.4297 12.3059C49.2814 10.709 47.3962 9.66667 45.2814 9.66667C41.7694 9.66667 38.9273 12.5068 38.9273 16.0258C38.9273 19.5448 41.7694 22.3849 45.2814 22.3849C46.4201 22.3849 47.5015 22.0885 48.4201 21.5625C48.7646 22.7005 49.3101 23.7237 50.0182 24.6417C48.6211 25.4163 47.0039 25.8657 45.2814 25.8657C39.8651 25.8657 35.4632 21.4669 35.4632 16.0545C35.4632 10.6421 39.8651 6.22414 45.291 6.22414C48.5063 6.19545 51.3771 7.77328 53.1666 10.1735ZM57.8077 25.8466C53.9799 25.8466 50.8699 22.7483 50.8699 18.9137C50.8699 15.0791 53.9704 11.9808 57.8077 11.9808C61.645 11.9808 64.7455 15.0791 64.7455 18.9137C64.7455 22.7483 61.6546 25.8466 57.8077 25.8466ZM57.8077 22.7483C59.9417 22.7483 61.6546 21.0175 61.6546 18.9041C61.6546 16.7908 59.9225 15.06 57.8077 15.06C55.7024 15.06 53.9608 16.7908 53.9608 18.9041C53.9608 21.0175 55.6929 22.7483 57.8077 22.7483ZM66.6881 11.9713H69.7694V25.8274H66.6881V11.9713ZM100.21 9.52323H91.3866V14.5532H99.9512V17.6801H91.3866V22.71H100.21V25.8466H88.0756V6.39627H100.21V9.52323ZM106.678 18.885L101.932 11.9904H105.855C105.98 12.1912 106.152 12.4589 106.363 12.7936C106.631 13.1761 106.899 13.5969 107.166 14.0176C107.444 14.448 107.712 14.8592 107.97 15.2417C108.219 15.6242 108.41 15.9206 108.516 16.1214L108.678 16.3987L111.511 11.9808H115.243L110.573 18.7703L115.406 25.837H111.54L108.564 21.3139L108.401 21.553C108.267 21.7538 108.085 22.0502 107.817 22.4423C107.549 22.8439 107.272 23.2647 106.975 23.7332C106.678 24.1827 106.401 24.613 106.133 25.0242C105.922 25.3684 105.75 25.6362 105.626 25.8274H101.932L106.678 18.885Z" fill="#4A4A4A"/>
<path fill-rule="evenodd" clip-rule="evenodd" d="M66.0945 8.2896C66.0945 7.72541 66.305 7.23772 66.726 6.8074C67.1471 6.37708 67.6351 6.17627 68.2093 6.17627C68.793 6.17627 69.3002 6.38665 69.7212 6.8074C70.1327 7.20903 70.3528 7.69672 70.3528 8.2896C70.3528 8.88248 70.1423 9.37974 69.7212 9.80049C69.3193 10.2117 68.8313 10.4316 68.238 10.4316C67.6447 10.4316 67.1471 10.2212 66.726 9.80049C66.3145 9.3893 66.0945 8.89204 66.0945 8.2896Z" fill="url(#paint1_linear_1974_26987)"/>
</g>
<defs>
<linearGradient id="paint0_linear_1974_26987" x1="31.0358" y1="16.0221" x2="0.393775" y2="16.0221" gradientUnits="userSpaceOnUse">
<stop stop-color="#22E6B8"/>
<stop offset="1" stop-color="#00C1CE"/>
</linearGradient>
<linearGradient id="paint1_linear_1974_26987" x1="70.3419" y1="8.30492" x2="66.0979" y2="8.30492" gradientUnits="userSpaceOnUse">
<stop stop-color="#22E6B8"/>
<stop offset="1" stop-color="#00C1CE"/>
</linearGradient>
<clipPath id="clip0_1974_26987">
<rect width="115.014" height="31.9677" fill="white" transform="translate(0.387695 0.0384521)"/>
</clipPath>
</defs>
</svg>
