<svg width="36" height="24" viewBox="0 0 36 24" fill="none" xmlns="http://www.w3.org/2000/svg">
<path d="M32.3199 0H30.9688H28.2639H17.4577H16.1066C14.6164 0 13.4044 1.10563 13.4044 2.46518V7.39553H17.4577L18.8088 11.0933C20.2991 11.0933 18.1333 11.5826 18.1333 12.9422H20.8355L19.7253 14.7911H32.3199C33.8102 14.7911 35.0221 13.6854 35.0221 12.3259V11.0933V6.16294V3.69777V2.46518C35.0221 1.10563 33.8102 0 32.3199 0Z" fill="#FFCC00"/>
<path d="M2.70221 18.5139H4.05332H5.40443V24L12.2964 18.5139H13.5111H18.9155C20.4058 18.5139 21.6177 17.3081 21.6177 15.8253V5.07093C21.6177 3.58816 20.4058 2.38232 18.9155 2.38232H2.70221C1.21194 2.38232 0 3.58816 0 5.07093V15.8253C0 17.3081 1.21194 18.5139 2.70221 18.5139Z" fill="white"/>
</svg>
