<svg width="71" height="71" viewBox="0 0 71 71" fill="none" xmlns="http://www.w3.org/2000/svg">
<g clip-path="url(#clip0)">
<path d="M34.0453 41.0432V43.3013H30.6582V59.1077H34.0453V61.3658H36.3034V59.1077C38.7941 59.1077 40.8195 57.0823 40.8195 54.5916C40.8195 53.2448 40.2269 52.032 39.2875 51.2045C40.2269 50.377 40.8195 49.1642 40.8195 47.8174C40.8195 45.3267 38.7941 43.3013 36.3034 43.3013V41.0432H34.0453ZM36.3034 56.8497H32.9163V52.3335H36.3034C37.5487 52.3335 38.5614 53.3462 38.5614 54.5916C38.5614 55.837 37.5487 56.8497 36.3034 56.8497ZM38.5614 47.8174C38.5614 49.0628 37.5487 50.0755 36.3034 50.0755H32.9163V45.5593H36.3034C37.5487 45.5593 38.5614 46.5721 38.5614 47.8174Z" fill="#4C9DE8"/>
<path d="M70.1743 29.7528C70.1743 19.7927 62.0699 11.6883 52.1098 11.6883C49.7139 11.6883 47.4299 12.1668 45.3356 13.0185V9.43021H43.0775V14.1327C42.2859 14.5919 41.5295 15.1035 40.8195 15.6735V7.17214H38.5614V17.845C37.702 18.8214 36.9379 19.8815 36.3033 21.0276V0.397949H34.0453V21.0265C33.4108 19.8804 32.6467 18.8203 31.7872 17.8439V7.17214H29.5292V15.6735C28.8191 15.1035 28.0627 14.5919 27.2711 14.1327V9.43021H25.013V13.0185C22.9187 12.1668 20.6347 11.6883 18.2388 11.6883C8.27876 11.6883 0.174316 19.7927 0.174316 29.7528C0.174316 33.6658 1.43896 37.2822 3.56141 40.2438V55.7205H5.81948V42.837C6.52402 43.5057 7.27267 44.1276 8.07754 44.6777V60.2367H10.3356V45.9716C11.0639 46.3283 11.8147 46.6442 12.5937 46.9016V65.8818H14.8517V47.4876C15.6963 47.6492 16.5646 47.7385 17.445 47.7765C17.2305 48.8879 17.1098 50.0313 17.1098 51.2044C17.1098 61.1645 25.2142 69.2689 35.1743 69.2689C45.1344 69.2689 53.2388 61.1645 53.2388 51.2044C53.2388 50.0313 53.1181 48.8879 52.9037 47.7765C53.7852 47.7385 54.6523 47.6481 55.4969 47.4876V65.8818H57.755V46.9016C58.5339 46.6442 59.2848 46.3283 60.013 45.9727V60.2367H62.2711V44.6761C63.076 44.1265 63.8246 43.5057 64.5292 42.8359V55.7205H66.7872V40.2438C68.9097 37.2822 70.1743 33.6658 70.1743 29.7528ZM18.2388 13.9463C26.1862 13.9463 32.7641 19.8478 33.8645 27.4947H24.3151L22.8338 30.4584L19.3315 22.2878L15.1004 32.8665L11.8202 19.7437L7.37961 28.6238H2.48971C3.07242 20.435 9.9045 13.9463 18.2388 13.9463ZM2.48971 30.8818H8.77657L11.1102 26.2135L14.6042 40.1875L19.4054 28.1855L22.6772 35.8213L25.711 29.7528H34.0453C34.0453 30.9226 33.9097 32.0842 33.6566 33.2165C26.3405 33.8295 20.2576 38.8132 18.0299 45.5493C9.79039 45.4396 3.06801 39.0006 2.48971 30.8818ZM35.1743 67.0109C26.4579 67.0109 19.3679 59.9208 19.3679 51.2044C19.3679 42.488 26.4579 35.398 35.1743 35.398C43.8907 35.398 50.9808 42.488 50.9808 51.2044C50.9808 59.9208 43.8907 67.0109 35.1743 67.0109ZM52.3187 45.5493C50.091 38.8143 44.0081 33.8295 36.692 33.2176C36.439 32.0853 36.3033 30.9248 36.3033 29.7528C36.3033 21.0364 43.3934 13.9463 52.1098 13.9463C60.8262 13.9463 67.9163 21.0364 67.9163 29.7528C67.9163 38.398 60.9375 45.4352 52.3187 45.5493Z" fill="#0034A0"/>
<path d="M35.1743 37.656C32.0133 37.656 28.9354 38.7702 26.5054 40.7945L27.9519 42.5288C29.9763 40.8435 32.5403 39.9141 35.1743 39.9141C41.4 39.9141 46.4647 44.9787 46.4647 51.2044C46.4647 53.8384 45.5352 56.4036 43.8499 58.4268L45.5831 59.8734C47.6086 57.4444 48.7227 54.3666 48.7227 51.2044C48.7227 43.7334 42.6453 37.656 35.1743 37.656Z" fill="#4C9DE8"/>
<path d="M35.1744 62.4947C28.9487 62.4947 23.884 57.43 23.884 51.2044C23.884 48.5703 24.8135 46.0052 26.4988 43.982L24.7655 42.5354C22.7401 44.9644 21.626 48.0422 21.626 51.2044C21.626 58.6754 27.7033 64.7528 35.1744 64.7528C38.3354 64.7528 41.4133 63.6386 43.8433 61.6143L42.3968 59.8799C40.3724 61.5652 37.8084 62.4947 35.1744 62.4947Z" fill="#4C9DE8"/>
<path d="M43.9785 29.7529L52.11 41.95L60.2414 29.7529L52.11 17.5557L43.9785 29.7529ZM50.9809 30.4436L47.096 29.1486L50.9809 23.321V30.4436ZM50.9809 32.8252V36.1847L48.101 31.8643L50.9809 32.8252ZM53.239 32.8252L56.1189 31.8654L53.239 36.1847V32.8252ZM53.239 30.4436V23.3194L57.1239 29.1475L53.239 30.4436Z" fill="#4C9DE8"/>
<path d="M3.56152 57.9785H5.81959V60.2366H3.56152V57.9785Z" fill="#0034A0"/>
<path d="M8.07764 62.4946H10.3357V64.7527H8.07764V62.4946Z" fill="#0034A0"/>
<path d="M12.5938 68.1399H14.8518V70.398H12.5938V68.1399Z" fill="#0034A0"/>
<path d="M64.5293 57.9785H66.7874V60.2366H64.5293V57.9785Z" fill="#0034A0"/>
<path d="M60.0132 62.4946H62.2712V64.7527H60.0132V62.4946Z" fill="#0034A0"/>
<path d="M55.4971 68.1399H57.7551V70.398H55.4971V68.1399Z" fill="#0034A0"/>
<path d="M29.5293 2.65601H31.7874V4.91407H29.5293V2.65601Z" fill="#0034A0"/>
<path d="M38.5615 2.65601H40.8196V4.91407H38.5615V2.65601Z" fill="#0034A0"/>
</g>
<defs>
<clipPath id="clip0">
<rect width="70" height="70" fill="white" transform="translate(0.174316 0.397949)"/>
</clipPath>
</defs>
</svg>
