<svg width="64" height="64" viewBox="0 0 64 64" fill="none" xmlns="http://www.w3.org/2000/svg">
<g clip-path="url(#clip0_1697_25735)">
<path d="M464 -31.5H0C-17.397 -31.5 -31.5 -17.397 -31.5 0V212C-31.5 229.397 -17.397 243.5 0 243.5H464C481.397 243.5 495.5 229.397 495.5 212V0C495.5 -17.397 481.397 -31.5 464 -31.5Z" stroke="black"/>
<path d="M12.0946 44.8114C8.22207 40.4521 5.86719 34.716 5.86719 28.4401C5.86719 14.8326 16.9371 3.7627 30.5441 3.7627C39.7084 3.7627 47.7218 8.7837 51.9778 16.2193M34.1252 52.8579C32.9558 53.0286 31.7601 53.117 30.5441 53.117C25.1728 53.117 20.1968 51.392 16.141 48.4669M12.1118 21.0965C11.2032 23.3689 10.7033 25.8472 10.7033 28.4401C10.7033 39.3801 19.6041 48.2809 30.5441 48.2809C32.5105 48.2809 34.411 47.9934 36.2057 47.4581M48.7085 20.459C45.6309 13.4816 38.6471 8.59929 30.5441 8.59929C24.017 8.59929 18.2158 11.7674 14.5977 16.6468" stroke="#5583FE" stroke-width="2" stroke-linecap="round" stroke-linejoin="round"/>
<path d="M32.2793 27.4926L40.4769 18.4885" stroke="#5583FE" stroke-width="2" stroke-linecap="round" stroke-linejoin="round"/>
<path d="M22.8291 24.7551L27.7723 28.1979" stroke="#5583FE" stroke-width="2" stroke-linecap="round" stroke-linejoin="round"/>
<path d="M30.353 31.8606C31.7059 31.8606 32.8027 30.7638 32.8027 29.4109C32.8027 28.0579 31.7059 26.9612 30.353 26.9612C29.0001 26.9612 27.9033 28.0579 27.9033 29.4109C27.9033 30.7638 29.0001 31.8606 30.353 31.8606Z" stroke="#5583FE" stroke-width="2" stroke-linecap="round" stroke-linejoin="round"/>
<path d="M41.5403 39.1906L39.3012 42.5721C38.9974 43.0306 39.0269 43.6328 39.3736 44.0598C39.72 44.4864 40.3038 44.6387 40.8151 44.4348L45.336 42.6335L36.7985 60.3581C36.5152 60.9464 36.7294 61.6534 37.291 61.9863C37.4916 62.1046 37.7123 62.1615 37.9309 62.1615C38.3252 62.1615 38.7112 61.9764 38.9556 61.6346L60.4111 31.5713C60.7349 31.1173 60.721 30.504 60.3775 30.0651C60.0336 29.6267 59.442 29.4658 58.9233 29.6717L52.0414 32.4024L60.6145 14.9225C60.9064 14.3269 60.6862 13.6072 60.111 13.2776C59.5362 12.9476 58.8034 13.1204 58.437 13.6743L44.4861 34.7421" stroke="#5583FE" stroke-width="2" stroke-linecap="round" stroke-linejoin="round"/>
</g>
<defs>
<clipPath id="clip0_1697_25735">
<rect width="64" height="64" fill="white"/>
</clipPath>
</defs>
</svg>
