<svg width="64" height="64" viewBox="0 0 64 64" fill="none" xmlns="http://www.w3.org/2000/svg">
<g clip-path="url(#clip0_1272_24826)">
<mask id="mask0_1272_24826" style="mask-type:luminance" maskUnits="userSpaceOnUse" x="0" y="0" width="64" height="64">
<path d="M0 0.00018692H63.9998V64H0V0.00018692Z" fill="white"/>
</mask>
<g mask="url(#mask0_1272_24826)">
<path d="M44.0242 28.9941V16.9699H51.0383L35.0061 0.937681L18.9739 16.9699H25.988V63.0625" stroke="#5583FE" stroke-width="2" stroke-miterlimit="10" stroke-linecap="round" stroke-linejoin="round"/>
<path d="M21.982 26.9922L19.9759 24.9861L3.9436 41.0183H10.9577V63.0625" stroke="#5583FE" stroke-width="2" stroke-miterlimit="10" stroke-linecap="round" stroke-linejoin="round"/>
<path d="M60.0565 48.0323C60.0565 56.3333 53.3273 63.0625 45.0263 63.0625C36.7253 63.0625 29.9961 56.3333 29.9961 48.0323C29.9961 39.7313 36.7253 33.0021 45.0263 33.0021C53.3273 33.0021 60.0565 39.7313 60.0565 48.0323Z" stroke="#5583FE" stroke-width="2" stroke-miterlimit="10" stroke-linecap="round" stroke-linejoin="round"/>
<path d="M48.2669 40.3913L41.9883 55.3521" stroke="#5583FE" stroke-width="2" stroke-miterlimit="10" stroke-linecap="round" stroke-linejoin="round"/>
<path d="M43.5606 42.9177C43.5606 44.6982 42.3185 46.1416 40.7863 46.1416C39.2541 46.1416 38.012 44.6982 38.012 42.9177C38.012 41.1372 39.2541 39.6939 40.7863 39.6939C42.3185 39.6939 43.5606 41.1372 43.5606 42.9177Z" stroke="#5583FE" stroke-width="2" stroke-miterlimit="10" stroke-linecap="round" stroke-linejoin="round"/>
<path d="M52.0403 53.1467C52.0403 54.9272 50.7982 56.3706 49.2661 56.3706C47.7338 56.3706 46.4917 54.9272 46.4917 53.1467C46.4917 51.3662 47.7338 49.9229 49.2661 49.9229C50.7982 49.9229 52.0403 51.3662 52.0403 53.1467Z" stroke="#5583FE" stroke-width="2" stroke-miterlimit="10" stroke-linecap="round" stroke-linejoin="round"/>
</g>
</g>
<defs>
<clipPath id="clip0_1272_24826">
<rect width="64" height="64" fill="white"/>
</clipPath>
</defs>
</svg>
