<svg width="104" height="104" viewBox="0 0 104 104" fill="none" xmlns="http://www.w3.org/2000/svg">
<path d="M30.2445 23.2612L28.0185 22.8462C27.9517 22.8339 27.8897 22.8026 27.8401 22.7562C27.7904 22.7097 27.7551 22.65 27.7384 22.5841C27.5018 21.6426 27.128 20.741 26.629 19.9083C26.5942 19.8498 26.5769 19.7826 26.5791 19.7146C26.5813 19.6466 26.603 19.5806 26.6416 19.5246L27.9228 17.6561C27.97 17.5874 27.9916 17.5043 27.9839 17.4213C27.9762 17.3383 27.9398 17.2606 27.8808 17.2016L25.8944 15.2152C25.8355 15.1563 25.7578 15.1198 25.6748 15.1121C25.5918 15.1045 25.5087 15.1261 25.4399 15.1732L23.5714 16.4545C23.5154 16.4931 23.4494 16.5147 23.3814 16.517C23.3134 16.5192 23.2462 16.5018 23.1877 16.467C22.355 15.968 21.4534 15.5942 20.512 15.3576C20.446 15.3409 20.3863 15.3056 20.3398 15.256C20.2934 15.2063 20.2621 15.1444 20.2498 15.0775L19.8348 12.8515C19.8195 12.7695 19.776 12.6955 19.7119 12.6422C19.6478 12.589 19.5671 12.5598 19.4837 12.5598H16.6745C16.5912 12.5598 16.5104 12.589 16.4463 12.6423C16.3822 12.6955 16.3387 12.7695 16.3235 12.8515L15.9085 15.0775C15.8961 15.1444 15.8649 15.2063 15.8184 15.256C15.772 15.3056 15.7122 15.3409 15.6463 15.3576C14.7048 15.5942 13.8032 15.968 12.9705 16.467C12.9121 16.5018 12.8448 16.5192 12.7768 16.5169C12.7088 16.5147 12.6428 16.493 12.5868 16.4545L10.7183 15.1732C10.6496 15.126 10.5665 15.1044 10.4835 15.1121C10.4005 15.1198 10.3228 15.1562 10.2638 15.2152L8.27744 17.2016C8.2185 17.2605 8.18203 17.3382 8.17436 17.4212C8.16669 17.5043 8.18829 17.5873 8.23544 17.6561L9.51672 19.5246C9.55531 19.5806 9.577 19.6466 9.57922 19.7146C9.58144 19.7826 9.5641 19.8498 9.52925 19.9083C9.03025 20.741 8.65646 21.6425 8.41988 22.584C8.40315 22.65 8.36786 22.7097 8.31821 22.7562C8.26856 22.8026 8.20662 22.8339 8.13974 22.8462L5.91374 23.2612C5.83179 23.2765 5.75777 23.3199 5.7045 23.3841C5.65123 23.4482 5.62207 23.5289 5.62207 23.6123V26.4215C5.62207 26.5048 5.65123 26.5855 5.7045 26.6497C5.75777 26.7138 5.83179 26.7573 5.91374 26.7725L8.13974 27.1875C8.20662 27.1999 8.26856 27.2311 8.31821 27.2776C8.36786 27.324 8.40315 27.3838 8.41988 27.4497C8.65646 28.3912 9.03025 29.2928 9.52925 30.1255C9.56409 30.1839 9.58143 30.2512 9.57921 30.3192C9.57699 30.3872 9.5553 30.4531 9.51672 30.5092L8.23543 32.3777C8.18828 32.4464 8.16667 32.5295 8.17434 32.6125C8.18202 32.6955 8.21848 32.7732 8.27743 32.8322L10.2638 34.8186C10.3228 34.8775 10.4005 34.914 10.4835 34.9217C10.5665 34.9293 10.6496 34.9077 10.7183 34.8606L12.5868 33.5793C12.6428 33.5408 12.7088 33.5191 12.7768 33.5168C12.8448 33.5146 12.9121 33.532 12.9705 33.5668C13.8032 34.0658 14.7048 34.4396 15.6463 34.6762C15.7122 34.6929 15.7719 34.7282 15.8184 34.7779C15.8649 34.8275 15.8961 34.8895 15.9085 34.9563L16.3235 37.1823C16.3387 37.2643 16.3822 37.3383 16.4463 37.3916C16.5104 37.4448 16.5912 37.474 16.6745 37.474H19.4837C19.5671 37.474 19.6478 37.4448 19.7119 37.3916C19.7761 37.3383 19.8195 37.2643 19.8348 37.1823L20.2498 34.9563C20.2621 34.8895 20.2934 34.8275 20.3399 34.7779C20.3863 34.7282 20.446 34.6929 20.512 34.6762C21.4535 34.4396 22.355 34.0658 23.1877 33.5668C23.2462 33.532 23.3134 33.5146 23.3814 33.5168C23.4494 33.5191 23.5154 33.5408 23.5714 33.5793L25.4399 34.8606C25.5087 34.9077 25.5917 34.9293 25.6747 34.9217C25.7578 34.914 25.8355 34.8775 25.8944 34.8186L27.8808 32.8322C27.9397 32.7733 27.9762 32.6955 27.9839 32.6125C27.9916 32.5295 27.9699 32.4465 27.9228 32.3777L26.6416 30.5092C26.603 30.4532 26.5813 30.3872 26.5791 30.3192C26.5768 30.2512 26.5942 30.184 26.629 30.1255C27.128 29.2928 27.5018 28.3912 27.7384 27.4497C27.7551 27.3838 27.7904 27.3241 27.8401 27.2776C27.8897 27.2311 27.9517 27.1999 28.0185 27.1876L30.2445 26.7726C30.3265 26.7573 30.4005 26.7138 30.4538 26.6497C30.507 26.5856 30.5362 26.5048 30.5362 26.4215V23.6123C30.5362 23.5289 30.507 23.4482 30.4538 23.3841C30.4005 23.32 30.3265 23.2765 30.2445 23.2612ZM18.0791 29.1563C17.2604 29.1563 16.4601 28.9135 15.7794 28.4587C15.0987 28.0038 14.5681 27.3574 14.2548 26.601C13.9415 25.8446 13.8595 25.0123 14.0192 24.2093C14.179 23.4064 14.5732 22.6688 15.1521 22.0899C15.731 21.511 16.4686 21.1167 17.2716 20.957C18.0745 20.7973 18.9068 20.8792 19.6632 21.1926C20.4196 21.5059 21.0661 22.0364 21.5209 22.7171C21.9758 23.3979 22.2186 24.1982 22.2186 25.0169C22.2186 25.5605 22.1115 26.0988 21.9035 26.601C21.6954 27.1032 21.3905 27.5595 21.0062 27.9439C20.6218 28.3283 20.1654 28.6332 19.6632 28.8412C19.161 29.0492 18.6227 29.1563 18.0791 29.1563Z" fill="#30D0C0" stroke="#0E65E5" stroke-width="0.75" stroke-miterlimit="10"/>
<path d="M20.5549 43.964L19.2049 43.7123C19.1643 43.7048 19.1268 43.6858 19.0966 43.6577C19.0665 43.6295 19.0451 43.5932 19.035 43.5533C18.8915 42.9823 18.6648 42.4355 18.3622 41.9305C18.3411 41.895 18.3305 41.8543 18.3319 41.813C18.3332 41.7718 18.3464 41.7318 18.3698 41.6978L19.1468 40.5646C19.1754 40.5229 19.1885 40.4725 19.1838 40.4222C19.1792 40.3719 19.1571 40.3247 19.1213 40.289L17.9166 39.0843C17.8809 39.0485 17.8338 39.0264 17.7834 39.0218C17.7331 39.0171 17.6827 39.0302 17.641 39.0588L16.5078 39.8358C16.4738 39.8592 16.4338 39.8724 16.3926 39.8737C16.3513 39.8751 16.3106 39.8645 16.2751 39.8434C15.7701 39.5408 15.2233 39.3141 14.6523 39.1706C14.6124 39.1605 14.5761 39.1391 14.548 39.109C14.5198 39.0788 14.5008 39.0413 14.4933 39.0007L14.2417 37.6507C14.2324 37.601 14.206 37.5562 14.1671 37.5239C14.1283 37.4916 14.0793 37.4739 14.0288 37.4739H12.3251C12.2745 37.4739 12.2256 37.4916 12.1867 37.5239C12.1478 37.5562 12.1215 37.6011 12.1122 37.6508L11.8605 39.0008C11.853 39.0413 11.8341 39.0789 11.8059 39.109C11.7777 39.1391 11.7415 39.1605 11.7015 39.1707C11.1305 39.3141 10.5837 39.5408 10.0787 39.8435C10.0433 39.8646 10.0025 39.8751 9.96125 39.8738C9.92 39.8724 9.88 39.8593 9.846 39.8359L8.71283 39.0589C8.67114 39.0303 8.62075 39.0172 8.57041 39.0218C8.52007 39.0265 8.47295 39.0486 8.4372 39.0843L7.23252 40.289C7.19677 40.3247 7.17466 40.3719 7.17 40.4222C7.16535 40.4725 7.17846 40.5229 7.20705 40.5646L7.98405 41.6978C8.00745 41.7318 8.0206 41.7718 8.02195 41.813C8.0233 41.8543 8.01278 41.8951 7.99165 41.9305C7.68902 42.4355 7.46233 42.9823 7.31885 43.5533C7.30871 43.5932 7.28731 43.6295 7.2572 43.6577C7.22708 43.6858 7.18952 43.7048 7.14896 43.7123L5.79896 43.964C5.74926 43.9732 5.70437 43.9996 5.67206 44.0385C5.63976 44.0774 5.62207 44.1263 5.62207 44.1769V45.8805C5.62207 45.9311 5.63975 45.9801 5.67206 46.019C5.70436 46.0578 5.74925 46.0842 5.79895 46.0935L7.14895 46.3452C7.18951 46.3526 7.22708 46.3716 7.25719 46.3998C7.28731 46.428 7.30871 46.4642 7.31885 46.5042C7.46233 47.0752 7.68903 47.6219 7.99165 48.1269C8.01278 48.1624 8.0233 48.2032 8.02195 48.2444C8.0206 48.2857 8.00745 48.3257 7.98405 48.3597L7.20705 49.4928C7.17846 49.5345 7.16535 49.5849 7.17 49.6352C7.17465 49.6856 7.19677 49.7327 7.23252 49.7685L8.4372 50.9731C8.47295 51.0089 8.52008 51.031 8.57042 51.0357C8.62076 51.0403 8.67114 51.0272 8.71284 50.9986L9.84601 50.2216C9.88001 50.1982 9.92 50.1851 9.96126 50.1837C10.0025 50.1824 10.0433 50.1929 10.0787 50.214C10.5837 50.5166 11.1305 50.7433 11.7015 50.8868C11.7415 50.897 11.7777 50.9184 11.8059 50.9485C11.8341 50.9786 11.853 51.0162 11.8605 51.0567L12.1122 52.4067C12.1215 52.4564 12.1478 52.5013 12.1867 52.5336C12.2256 52.5659 12.2746 52.5836 12.3251 52.5836H14.0288C14.0793 52.5836 14.1283 52.5659 14.1672 52.5336C14.2061 52.5013 14.2324 52.4564 14.2417 52.4067L14.4934 51.0567C14.5009 51.0162 14.5198 50.9786 14.548 50.9485C14.5762 50.9184 14.6124 50.897 14.6524 50.8868C15.2234 50.7433 15.7702 50.5166 16.2752 50.214C16.3106 50.1929 16.3514 50.1824 16.3926 50.1837C16.4339 50.1851 16.4739 50.1982 16.5079 50.2216L17.6411 50.9986C17.6827 51.0272 17.7331 51.0403 17.7835 51.0357C17.8338 51.031 17.8809 51.0089 17.9167 50.9731L19.1214 49.7685C19.1571 49.7327 19.1792 49.6856 19.1839 49.6352C19.1885 49.5849 19.1754 49.5345 19.1468 49.4928L18.3698 48.3597C18.3464 48.3257 18.3333 48.2857 18.3319 48.2444C18.3306 48.2032 18.3411 48.1624 18.3622 48.1269C18.6649 47.6219 18.8916 47.0752 19.035 46.5042C19.0452 46.4642 19.0666 46.428 19.0967 46.3998C19.1268 46.3716 19.1644 46.3526 19.2049 46.3452L20.5549 46.0935C20.6046 46.0842 20.6495 46.0578 20.6818 46.019C20.7141 45.9801 20.7318 45.9311 20.7318 45.8806V44.1769C20.7318 44.1263 20.7141 44.0773 20.6818 44.0385C20.6495 43.9996 20.6046 43.9732 20.5549 43.964ZM13.1769 47.5391C12.6804 47.5391 12.1951 47.3919 11.7822 47.1161C11.3694 46.8402 11.0476 46.4481 10.8576 45.9894C10.6676 45.5307 10.6179 45.0259 10.7147 44.5389C10.8116 44.052 11.0507 43.6047 11.4018 43.2536C11.7529 42.9025 12.2002 42.6634 12.6872 42.5665C13.1741 42.4696 13.6789 42.5194 14.1376 42.7094C14.5964 42.8994 14.9884 43.2211 15.2643 43.634C15.5401 44.0468 15.6874 44.5322 15.6874 45.0287C15.6874 45.3584 15.6224 45.6848 15.4963 45.9894C15.3701 46.294 15.1852 46.5707 14.9521 46.8039C14.719 47.037 14.4422 47.2219 14.1376 47.3481C13.8331 47.4742 13.5066 47.5391 13.1769 47.5391Z" fill="#30D0C0" stroke="#0E65E5" stroke-width="0.75" stroke-miterlimit="10"/>
<path d="M83.9983 37.32H18.0791V28.4719C18.0791 28.1911 18.1344 27.913 18.2419 27.6536C18.3493 27.3941 18.5069 27.1584 18.7054 26.9598C18.904 26.7612 19.1397 26.6037 19.3992 26.4963C19.6586 26.3888 19.9367 26.3335 20.2175 26.3335H81.8599C82.4271 26.3335 82.971 26.5588 83.372 26.9598C83.773 27.3609 83.9983 27.9048 83.9983 28.4719V37.32Z" fill="#0E65E5"/>
<path d="M81.8599 80.0319H20.2175C19.9367 80.0319 19.6586 79.9765 19.3991 79.8691C19.1397 79.7616 18.904 79.6041 18.7054 79.4055C18.5068 79.2069 18.3493 78.9711 18.2418 78.7117C18.1344 78.4522 18.0791 78.1742 18.0791 77.8933V37.3201H83.9983V77.8933C83.9983 78.1742 83.943 78.4522 83.8356 78.7117C83.7281 78.9711 83.5706 79.2069 83.372 79.4055C83.1735 79.604 82.9377 79.7616 82.6783 79.869C82.4188 79.9765 82.1408 80.0318 81.8599 80.0319Z" fill="#D7E9FF"/>
<path d="M83.9983 37.32H18.0791V28.4719C18.0791 28.1911 18.1344 27.913 18.2419 27.6536C18.3493 27.3941 18.5069 27.1584 18.7054 26.9598C18.904 26.7612 19.1397 26.6037 19.3992 26.4963C19.6586 26.3888 19.9367 26.3335 20.2175 26.3335H81.8599C82.4271 26.3335 82.971 26.5588 83.372 26.9598C83.773 27.3609 83.9983 27.9048 83.9983 28.4719V37.32Z" fill="#0E65E5" stroke="#0E65E5" stroke-width="0.75" stroke-miterlimit="10"/>
<path d="M81.8599 80.0319H20.2175C19.9367 80.0319 19.6586 79.9765 19.3991 79.8691C19.1397 79.7616 18.904 79.6041 18.7054 79.4055C18.5068 79.2069 18.3493 78.9711 18.2418 78.7117C18.1344 78.4522 18.0791 78.1742 18.0791 77.8933V37.3201H83.9983V77.8933C83.9983 78.1742 83.943 78.4522 83.8356 78.7117C83.7281 78.9711 83.5706 79.2069 83.372 79.4055C83.1735 79.604 82.9377 79.7616 82.6783 79.869C82.4188 79.9765 82.1408 80.0318 81.8599 80.0319Z" fill="#D7E9FF" stroke="#0E65E5" stroke-width="0.75" stroke-miterlimit="10"/>
<path d="M25.2212 34.2381C25.6981 34.2381 26.1643 34.0967 26.5608 33.8317C26.9573 33.5668 27.2663 33.1902 27.4488 32.7496C27.6313 32.3091 27.6791 31.8243 27.586 31.3565C27.493 30.8888 27.2634 30.4592 26.9262 30.122C26.589 29.7848 26.1593 29.5551 25.6916 29.4621C25.2239 29.3691 24.7391 29.4168 24.2985 29.5993C23.8579 29.7818 23.4814 30.0909 23.2164 30.4874C22.9515 30.8839 22.8101 31.35 22.8101 31.8269C22.8101 32.1436 22.8724 32.4571 22.9936 32.7496C23.1148 33.0422 23.2924 33.308 23.5163 33.5319C23.7402 33.7558 24.006 33.9334 24.2985 34.0546C24.5911 34.1757 24.9046 34.2381 25.2212 34.2381Z" fill="#94C1FF"/>
<path d="M34.0113 34.2381C34.4881 34.2381 34.9543 34.0967 35.3508 33.8317C35.7473 33.5668 36.0564 33.1902 36.2389 32.7496C36.4214 32.3091 36.4691 31.8243 36.3761 31.3565C36.2831 30.8888 36.0534 30.4592 35.7162 30.122C35.379 29.7848 34.9494 29.5551 34.4817 29.4621C34.0139 29.3691 33.5291 29.4168 33.0885 29.5993C32.648 29.7818 32.2714 30.0908 32.0065 30.4874C31.7415 30.8839 31.6001 31.35 31.6001 31.8269C31.6001 32.4664 31.8541 33.0797 32.3063 33.5319C32.7585 33.9841 33.3718 34.2381 34.0113 34.2381Z" fill="#94C1FF"/>
<path d="M42.8018 34.2381C43.2787 34.2381 43.7448 34.0967 44.1414 33.8317C44.5379 33.5668 44.8469 33.1902 45.0294 32.7496C45.2119 32.3091 45.2596 31.8243 45.1666 31.3565C45.0736 30.8888 44.8439 30.4592 44.5067 30.122C44.1695 29.7848 43.7399 29.5551 43.2722 29.4621C42.8045 29.3691 42.3197 29.4168 41.8791 29.5993C41.4385 29.7818 41.0619 30.0908 40.797 30.4874C40.532 30.8839 40.3906 31.35 40.3906 31.8269C40.3906 32.1436 40.453 32.4571 40.5742 32.7496C40.6953 33.0422 40.8729 33.308 41.0968 33.5319C41.3207 33.7558 41.5865 33.9334 41.8791 34.0546C42.1716 34.1757 42.4851 34.2381 42.8018 34.2381Z" fill="#94C1FF"/>
<path d="M60.6779 45.9C60.2465 45.5573 59.7975 45.2372 59.3328 44.9411C59.2574 44.8929 59.1667 44.8747 59.0785 44.8901C58.9904 44.9056 58.9112 44.9535 58.8567 45.0245C58.0357 46.092 57.0685 47.1305 56.1329 48.135C55.4382 48.8809 54.7198 49.6525 54.0633 50.4329C54.0278 50.4752 54.0025 50.5252 53.9895 50.5789C53.9765 50.6326 53.9761 50.6886 53.9883 50.7424C54.0005 50.7963 54.0251 50.8466 54.06 50.8894C54.0949 50.9323 54.1392 50.9664 54.1896 50.9892C55.3874 51.5695 56.422 52.4388 57.1999 53.5189C57.9777 54.5989 58.4744 55.8557 58.6451 57.1757C58.7501 58.2613 58.6288 59.3569 58.2891 60.3934C57.9493 61.4298 57.3984 62.3845 56.6712 63.1974C55.9439 64.0102 55.0561 64.6635 54.0637 65.116C53.0713 65.5685 51.9959 65.8104 50.9053 65.8264C50.2688 65.8182 49.6359 65.7286 49.0222 65.5597C48.4698 68.1551 47.7637 70.5967 47.0986 73.0794C47.1731 73.0969 47.2421 73.1136 47.3233 73.132C47.3366 73.1352 47.3502 73.1372 47.3639 73.1381C48.5538 73.4225 49.7731 73.5659 50.9966 73.5653C54.2296 73.5943 57.3914 72.6102 60.0366 70.7511C62.6817 68.8921 64.6783 66.2514 65.7462 63.1997C66.814 60.148 66.8994 56.8386 65.9904 53.7359C65.0814 50.6332 63.2237 47.893 60.6779 45.9Z" fill="#0E65E5"/>
<path d="M60.9008 45.6202C60.4597 45.2693 60.0005 44.9418 59.5251 44.639C59.3743 44.5429 59.1929 44.5067 59.0166 44.5377C58.8404 44.5686 58.6822 44.6645 58.5731 44.8063C57.7622 45.8609 56.8004 46.8935 55.8702 47.8922C55.1728 48.641 54.4516 49.4154 53.7899 50.2023C53.7188 50.2869 53.6682 50.3868 53.6422 50.4942C53.6161 50.6016 53.6153 50.7136 53.6398 50.8213C53.6642 50.9291 53.7133 51.0297 53.7832 51.1154C53.8531 51.201 53.9419 51.2692 54.0425 51.3148C55.1836 51.8694 56.1689 52.6988 56.9102 53.7284C57.6514 54.758 58.1253 55.9555 58.2893 57.2136C58.3891 58.2493 58.2732 59.2945 57.949 60.2832C57.6248 61.272 57.0993 62.1828 56.4056 62.9584C55.7119 63.7339 54.865 64.3574 53.9184 64.7894C52.9718 65.2214 51.9459 65.4527 50.9055 65.4686C50.2926 65.4607 49.6833 65.3736 49.0928 65.2094C49.0428 65.4519 48.9901 65.6914 48.9374 65.9312C49.5801 66.0985 50.2414 66.1835 50.9055 66.1842C52.1295 66.177 53.336 65.893 54.4347 65.3532C55.5333 64.8135 56.4955 64.0321 57.2492 63.0677C58.0012 62.1039 58.5276 60.9839 58.7896 59.7899C59.0517 58.5958 59.0427 57.3583 58.7634 56.1682C58.4841 54.9781 57.9415 53.8658 57.1756 52.913C56.4097 51.9603 55.4399 51.1914 54.3376 50.6629C55.8713 48.839 57.6971 47.1194 59.1404 45.2425C62.1693 47.1742 64.4144 50.118 65.4763 53.5499C66.5382 56.9819 66.3478 60.6792 64.9392 63.9839C63.5306 67.2887 60.9951 69.9864 57.7839 71.597C54.5727 73.2075 50.8942 73.6264 47.4032 72.7791L47.4024 72.7829C47.3264 72.7658 47.2622 72.7502 47.1923 72.7338C47.1301 72.9644 47.0668 73.1939 47.0054 73.4252C47.0834 73.4436 47.1593 73.4618 47.2449 73.481C47.2661 73.4858 47.2873 73.4896 47.3087 73.4924C50.8297 74.3596 54.5415 73.9941 57.8257 72.4568C61.11 70.9195 63.7682 68.3032 65.3577 65.0439C66.9471 61.7846 67.3717 58.0791 66.5607 54.5447C65.7498 51.0103 63.7522 47.8606 60.9008 45.6202Z" fill="#D7E9FF"/>
<path d="M39.3638 68.1289C39.3097 68.129 39.2563 68.1168 39.2076 68.0931C39.1589 68.0695 39.1163 68.035 39.0829 67.9924C38.8933 67.752 38.7097 67.5139 38.5354 67.2782C38.2652 66.912 38.0159 66.5523 37.7951 66.2005C36.1879 63.587 35.3922 60.5554 35.5088 57.4895C35.6253 54.4236 36.6489 51.4612 38.45 48.9773C40.2511 46.4934 42.7486 44.5997 45.6264 43.5359C48.5043 42.4722 51.633 42.2862 54.6166 43.0015C54.6309 43.0029 54.645 43.0053 54.659 43.0085C55.2503 43.1422 55.6784 43.261 55.6784 43.261L55.8094 42.592C55.8416 42.4184 55.9341 42.2618 56.0704 42.1498C56.2068 42.0377 56.3783 41.9773 56.5548 41.9793C56.6633 41.9794 56.7705 42.0023 56.8695 42.0466C56.9685 42.091 57.057 42.1556 57.1293 42.2365L62.1976 47.8946C62.2725 47.9781 62.3275 48.0776 62.3582 48.1856C62.389 48.2935 62.3948 48.407 62.3752 48.5175C62.3556 48.628 62.311 48.7326 62.245 48.8233C62.1789 48.9141 62.0931 48.9886 61.994 49.0412L55.2922 52.5906C55.1814 52.6493 55.0579 52.6802 54.9325 52.6805C54.8193 52.6799 54.7075 52.6547 54.6049 52.6068C54.5022 52.5588 54.4112 52.4893 54.338 52.4028C54.2686 52.3202 54.2181 52.2233 54.1902 52.1191C54.1622 52.0148 54.1575 51.9057 54.1763 51.7995L54.29 51.1588C54.3021 51.0903 54.167 51.0023 54.085 50.9557C53.8467 50.8475 53.6032 50.7525 53.3545 50.671C51.8545 50.1918 50.2444 50.1797 48.7374 50.6363C47.2304 51.0929 45.8978 51.9968 44.9162 53.228C43.8524 54.5648 43.2583 56.2147 43.2257 57.9228C43.1931 59.631 43.7238 61.3023 44.7359 62.6787C45.0773 63.1521 45.4766 63.581 45.9245 63.9553L46.0153 64.0368C46.058 64.0752 46.0908 64.1233 46.111 64.1769C46.1312 64.2306 46.1381 64.2884 46.1313 64.3454C46.1245 64.4023 46.1041 64.4568 46.0719 64.5042C46.0396 64.5516 45.9964 64.5906 45.9459 64.6178L39.5339 68.0861C39.4817 68.1143 39.4232 68.129 39.3638 68.1289Z" fill="#0E65E5"/>
<path d="M56.5551 42.3373C56.6133 42.3371 56.6708 42.3492 56.7239 42.373C56.7769 42.3967 56.8243 42.4315 56.8629 42.4749L61.9313 48.1333C61.97 48.1764 61.9984 48.2277 62.0143 48.2834C62.0302 48.3391 62.0332 48.3977 62.0231 48.4547C62.013 48.5117 61.99 48.5657 61.9559 48.6125C61.9218 48.6593 61.8776 48.6977 61.8264 48.7249L55.1252 52.2741C55.0661 52.3058 55 52.3224 54.9329 52.3225C54.8746 52.3235 54.8168 52.3118 54.7635 52.2883C54.7102 52.2647 54.6626 52.2298 54.6242 52.1859C54.5857 52.1421 54.5573 52.0904 54.5408 52.0345C54.5244 51.9786 54.5203 51.9197 54.5289 51.862L54.6426 51.2214C54.6799 51.0106 54.5774 50.8241 54.2621 50.6444C54.0036 50.5238 53.7378 50.4192 53.4664 50.3312L53.4666 50.3293C51.8306 49.8063 50.0709 49.815 48.4401 50.3543C46.8093 50.8936 45.3913 51.9356 44.3896 53.3309C43.3879 54.7262 42.854 56.403 42.8646 58.1206C42.8751 59.8382 43.4295 61.5083 44.4482 62.8912C44.8302 63.4153 45.2762 63.8896 45.7759 64.3029L39.3642 67.7711C39.1766 67.5337 38.9963 67.2984 38.8232 67.0651C38.5587 66.7073 38.3145 66.3549 38.098 66.0103C36.5264 63.4535 35.7497 60.4875 35.8666 57.4886C35.9834 54.4897 36.9886 51.5931 38.7544 49.1664C40.5203 46.7398 42.9673 44.8924 45.7849 43.8588C48.6024 42.8251 51.6635 42.6519 54.5797 43.3609L54.5804 43.3577C55.1617 43.4889 55.5828 43.6056 55.5828 43.6056C55.6074 43.6101 55.6323 43.6123 55.6574 43.6123C55.7493 43.6137 55.8389 43.5828 55.9103 43.5248C55.9818 43.4669 56.0305 43.3856 56.048 43.2953L56.1617 42.6546C56.1789 42.5636 56.228 42.4817 56.3001 42.4236C56.3722 42.3655 56.4626 42.3349 56.5551 42.3373ZM56.5551 41.6216C56.2945 41.6196 56.0415 41.7095 55.8407 41.8756C55.6398 42.0417 55.504 42.2733 55.457 42.5296L55.4056 42.8194C55.2291 42.7748 54.9992 42.7187 54.7379 42.6597C54.7192 42.6554 54.7003 42.652 54.6814 42.6492C51.6296 41.9195 48.4298 42.1116 45.4871 43.2011C42.5444 44.2907 39.9911 46.2288 38.1504 48.77C36.3097 51.3113 35.2642 54.3416 35.1464 57.4773C35.0286 60.613 35.8437 63.7132 37.4886 66.3854C37.7097 66.7374 37.9569 67.0971 38.2478 67.4906C38.4245 67.7297 38.6102 67.9713 38.8028 68.2148C38.9073 68.347 39.055 68.438 39.2199 68.472C39.3849 68.506 39.5566 68.4807 39.7047 68.4005L46.1164 64.9323C46.2172 64.8778 46.3035 64.7998 46.3679 64.705C46.4323 64.6102 46.473 64.5013 46.4865 64.3875C46.5001 64.2736 46.4861 64.1582 46.4457 64.0509C46.4054 63.9436 46.3398 63.8476 46.2546 63.7709L46.1633 63.6889C45.7385 63.3344 45.3594 62.9286 45.0346 62.4808C44.1053 61.2238 43.5971 59.7052 43.5827 58.142C43.5683 56.5789 44.0484 55.0512 44.9543 53.7772C45.8603 52.5033 47.1458 51.5484 48.6271 51.0489C50.1084 50.5494 51.7096 50.531 53.202 50.9962C53.2156 51.0016 53.2294 51.0066 53.2434 51.0112C53.4692 51.085 53.6908 51.171 53.9073 51.2686L53.8242 51.7371C53.7962 51.8948 53.8031 52.0567 53.8446 52.2114C53.886 52.3661 53.9609 52.5099 54.064 52.6324C54.23 52.8313 54.4593 52.967 54.7135 53.017C54.9677 53.0669 55.2313 53.0279 55.4602 52.9066L62.1614 49.3573C62.3085 49.2793 62.436 49.1688 62.5341 49.0341C62.6323 48.8995 62.6984 48.7443 62.7276 48.5803C62.7568 48.4164 62.7483 48.2479 62.7027 48.0876C62.657 47.9274 62.5755 47.7797 62.4643 47.6557L57.396 41.9975C57.2901 41.8793 57.1605 41.7848 57.0156 41.72C56.8707 41.6553 56.7138 41.6217 56.5551 41.6216Z" fill="#D7E9FF"/>
<path d="M48.4755 65.421C48.1354 65.3004 47.8991 65.1857 47.8977 65.1857C47.7976 65.1284 47.6816 65.0469 47.6927 64.9817L47.8064 64.341C47.8253 64.2348 47.8206 64.1258 47.7926 64.0216C47.7647 63.9174 47.7142 63.8207 47.6447 63.7381C47.5715 63.6517 47.4805 63.5821 47.3779 63.5342C47.2753 63.4863 47.1635 63.4611 47.0502 63.4604C46.9248 63.4608 46.8014 63.4916 46.6905 63.5504L39.9888 67.0993C39.8897 67.1519 39.8038 67.2264 39.7378 67.3172C39.6717 67.4079 39.6272 67.5125 39.6076 67.623C39.588 67.7335 39.5938 67.847 39.6245 67.9549C39.6553 68.0629 39.7102 68.1624 39.7852 68.2459L44.8534 73.9045C44.9257 73.9853 45.0143 74.05 45.1132 74.0943C45.2122 74.1386 45.3195 74.1616 45.4279 74.1617C45.6045 74.1635 45.776 74.1031 45.9124 73.9909C46.0487 73.8788 46.1411 73.7221 46.1734 73.5485L46.3048 72.8799C46.3048 72.8799 46.6324 72.9696 47.099 73.0793C47.764 70.5967 48.4702 68.1551 49.0226 65.5597C48.8404 65.5121 48.6543 65.4824 48.4755 65.421Z" fill="#0E65E5"/>
<path d="M46.4001 72.5351C46.3754 72.5307 46.3505 72.5284 46.3255 72.5285C46.2335 72.527 46.1439 72.5579 46.0725 72.6159C46.0011 72.6738 45.9523 72.7551 45.9348 72.8454L45.8212 73.4861C45.8039 73.5771 45.7548 73.659 45.6827 73.7171C45.6106 73.7752 45.5203 73.8058 45.4277 73.8034C45.3696 73.8037 45.312 73.7915 45.259 73.7677C45.2059 73.744 45.1585 73.7092 45.1199 73.6658L40.0515 68.0074C40.0128 67.9643 39.9845 67.913 39.9686 67.8573C39.9527 67.8016 39.9497 67.743 39.9598 67.686C39.9699 67.629 39.9929 67.575 40.027 67.5282C40.0611 67.4814 40.1054 67.4429 40.1565 67.4158L46.8577 63.8666C46.9168 63.8349 46.9829 63.8183 47.05 63.8182C47.1082 63.8172 47.1661 63.8288 47.2194 63.8524C47.2727 63.876 47.3202 63.9109 47.3587 63.9547C47.3972 63.9985 47.4256 64.0502 47.4421 64.1061C47.4585 64.162 47.4626 64.2209 47.454 64.2785L47.3404 64.9193C47.303 65.1301 47.4055 65.3166 47.7208 65.4963C47.9276 65.5949 48.1396 65.6824 48.3558 65.7584C48.5484 65.8244 48.7426 65.8808 48.9376 65.9312C48.9902 65.6914 49.043 65.4519 49.0929 65.2094C48.9248 65.1652 48.7533 65.1381 48.5879 65.0814C48.3432 64.9943 48.1528 64.9087 48.0754 64.8726L48.1587 64.4035C48.1867 64.2458 48.1798 64.084 48.1383 63.9293C48.0969 63.7746 48.022 63.6309 47.919 63.5084C47.753 63.3095 47.5236 63.1737 47.2694 63.1237C47.0153 63.0738 46.7516 63.1127 46.5227 63.234L39.8215 66.7833C39.6743 66.8613 39.5469 66.9718 39.4488 67.1064C39.3506 67.2411 39.2845 67.3963 39.2553 67.5603C39.2261 67.7243 39.2346 67.8928 39.2802 68.053C39.3258 68.2132 39.4073 68.3609 39.5185 68.4849L44.5868 74.1432C44.6928 74.2613 44.8224 74.3559 44.9673 74.4206C45.1121 74.4854 45.269 74.5189 45.4277 74.5191C45.6883 74.5211 45.9413 74.4311 46.1422 74.2651C46.343 74.099 46.4789 73.8674 46.5259 73.6111L46.5772 73.3213C46.6959 73.3513 46.8451 73.3874 47.0055 73.4252C47.0669 73.1938 47.1302 72.9644 47.1924 72.7337C46.7274 72.6245 46.4001 72.5351 46.4001 72.5351Z" fill="#D7E9FF"/>
<path d="M73.6122 90.9924L60.9886 77.2219C60.8687 77.0917 60.8053 76.9192 60.8126 76.7423C60.8198 76.5653 60.897 76.3986 61.0273 76.2786L66.5623 71.1793C66.6925 71.0593 66.865 70.996 67.0419 71.0032C67.2188 71.0105 67.3856 71.0877 67.5056 71.2179L75.864 80.3585C75.9317 80.432 76.0149 80.4893 76.1077 80.5263C76.2004 80.5633 76.3003 80.579 76.3999 80.5723C76.4995 80.5656 76.5964 80.5366 76.6833 80.4875C76.7703 80.4384 76.8451 80.3704 76.9023 80.2885L94.0816 55.6979C94.1318 55.626 94.1957 55.5647 94.2696 55.5175C94.3435 55.4703 94.4259 55.4382 94.5123 55.4229C94.5986 55.4075 94.6871 55.4094 94.7727 55.4283C94.8583 55.4472 94.9394 55.4827 95.0113 55.5329L101.181 59.8432C101.326 59.9446 101.425 60.0995 101.456 60.2739C101.487 60.4482 101.447 60.6277 101.346 60.7728L80.5607 90.5239C80.178 91.0717 79.6773 91.5266 79.0954 91.8553C78.5136 92.1839 77.8654 92.3779 77.1987 92.4228C76.532 92.4678 75.8637 92.3626 75.243 92.115C74.6223 91.8675 74.065 91.4838 73.6122 90.9924Z" fill="#30D0C0" stroke="#0E65E5" stroke-width="0.75" stroke-miterlimit="10"/>
</svg>
