<svg width="368" height="288" viewBox="0 0 368 288" fill="none" xmlns="http://www.w3.org/2000/svg">
<path fill-rule="evenodd" clip-rule="evenodd" d="M217.466 118.999C216.537 118.502 215.42 118.509 214.498 119.017L67.4158 199.955V204.911C67.4158 205.466 67.7118 205.979 68.1925 206.257L161.207 260.087C162.171 260.645 163.36 260.645 164.324 260.088L310.55 175.505C311.031 175.227 311.327 174.714 311.327 174.159L311.327 169.203L217.466 118.999Z" fill="url(#paint0_linear)"/>
<path fill-rule="evenodd" clip-rule="evenodd" d="M217.466 117.848C216.537 117.351 215.42 117.358 214.498 117.866L67.4158 198.804V203.76C67.4158 204.315 67.7118 204.828 68.1925 205.106L161.207 258.936C162.171 259.494 163.36 259.494 164.324 258.937L310.55 174.354C311.031 174.076 311.327 173.563 311.327 173.008L311.327 168.052L217.466 117.848Z" fill="url(#paint1_linear)"/>
<path fill-rule="evenodd" clip-rule="evenodd" d="M217.533 112.934C216.57 112.378 215.384 112.378 214.421 112.934L68.0764 197.457C67.0392 198.056 67.0393 199.553 68.0766 200.152L161.209 253.923C162.172 254.479 163.359 254.479 164.322 253.923L310.666 169.4C311.703 168.801 311.703 167.304 310.666 166.705L217.533 112.934Z" fill="url(#paint2_linear)"/>
<path opacity="0.246257" fill-rule="evenodd" clip-rule="evenodd" d="M209.969 124.967C210.82 124.468 211.875 124.477 212.717 124.99L241.96 142.797C242.542 143.151 242.529 143.999 241.938 144.335L122.715 212.243C121.079 213.174 119.076 213.18 117.435 212.257L90.0047 196.825C89.404 196.487 89.3964 195.625 89.9911 195.276L209.969 124.967Z" fill="url(#paint3_linear)"/>
<path fill-rule="evenodd" clip-rule="evenodd" d="M221.561 168.369C221.218 168.173 220.796 168.173 220.452 168.369L167.483 198.558C167.106 198.773 167.106 199.317 167.483 199.532L201.192 218.737C201.536 218.933 201.958 218.933 202.301 218.737L255.27 188.548C255.647 188.333 255.647 187.789 255.27 187.574L221.561 168.369Z" fill="url(#paint4_linear)"/>
<mask id="mask0" mask-type="alpha" maskUnits="userSpaceOnUse" x="167" y="168" width="89" height="51">
<path fill-rule="evenodd" clip-rule="evenodd" d="M221.561 168.369C221.218 168.173 220.796 168.173 220.452 168.369L167.483 198.558C167.106 198.773 167.106 199.317 167.483 199.532L201.192 218.737C201.536 218.933 201.958 218.933 202.301 218.737L255.27 188.548C255.647 188.333 255.647 187.789 255.27 187.574L221.561 168.369Z" fill="white"/>
</mask>
<g mask="url(#mask0)">
<path fill-rule="evenodd" clip-rule="evenodd" d="M221.561 170.877C221.218 170.681 220.796 170.681 220.452 170.877L167.483 201.066C167.106 201.281 167.106 201.825 167.483 202.04L201.192 221.246C201.536 221.442 201.958 221.442 202.301 221.246L255.27 191.056C255.647 190.841 255.647 190.297 255.27 190.083L221.561 170.877Z" fill="url(#paint5_linear)"/>
</g>
<path fill-rule="evenodd" clip-rule="evenodd" d="M212.493 0.278595C212.052 0.102188 211.555 0.137031 211.142 0.373199L64.7992 84.1999C63.8312 84.7544 63.234 85.7847 63.234 86.9003V194.578C63.234 195.125 63.5209 195.631 63.9897 195.913L66.2155 197.248C66.9545 197.691 67.8775 197.691 68.6165 197.247L211.997 111.244C212.913 110.695 213.483 109.715 213.507 108.647L215.94 3.29109C215.962 2.31717 215.377 1.43172 214.473 1.07004L212.493 0.278595Z" fill="#80B1FF"/>
<path fill-rule="evenodd" clip-rule="evenodd" d="M215.977 2.69558C215.977 1.49766 214.68 0.749032 213.643 1.34816L67.2986 85.8709C66.336 86.4269 65.7431 87.4541 65.7431 88.5657V196.109C65.7431 197.307 67.0399 198.055 68.0773 197.456L214.421 112.933C215.384 112.377 215.977 111.35 215.977 110.239V2.69558Z" fill="url(#paint6_linear)"/>
<path fill-rule="evenodd" clip-rule="evenodd" d="M210.122 10.8691L72.1158 90.785V188.118L210.122 108.203V10.8691Z" fill="url(#paint7_linear)"/>
<path fill-rule="evenodd" clip-rule="evenodd" d="M226.077 9.78458C228.073 8.61423 230.585 10.0534 230.585 12.3671V79.8124C230.585 83.0053 228.89 85.9581 226.133 87.5681L145.675 134.552C143.679 135.717 141.171 134.277 141.171 131.966V64.7194C141.171 61.5324 142.86 58.5841 145.609 56.972L226.077 9.78458Z" fill="#C7DCFF"/>
<path fill-rule="evenodd" clip-rule="evenodd" d="M223.1 25.256L214.094 30.3892V76.9708L223.1 71.8377L223.1 25.256Z" fill="#528BE1"/>
<path fill-rule="evenodd" clip-rule="evenodd" d="M207.018 34.9605L198.013 40.0937V86.0284L207.018 80.8952L207.018 34.9605Z" fill="#528BE1"/>
<path fill-rule="evenodd" clip-rule="evenodd" d="M190.937 43.3711L181.931 48.5043V95.0859L190.937 89.9527L190.937 43.3711Z" fill="#528BE1"/>
<path fill-rule="evenodd" clip-rule="evenodd" d="M174.855 52.4286L165.849 57.5618V104.143L174.855 99.0103L174.855 52.4286Z" fill="#528BE1"/>
<path fill-rule="evenodd" clip-rule="evenodd" d="M158.773 60.8392L149.768 65.9724V111.26L158.773 106.127L158.773 60.8392Z" fill="#528BE1"/>
<path fill-rule="evenodd" clip-rule="evenodd" d="M223.1 67.2685L214.094 72.4017V84.7345L223.1 79.6013L223.1 67.2685Z" fill="white"/>
<path fill-rule="evenodd" clip-rule="evenodd" d="M207.018 55.4007L198.013 60.5339V93.792L207.018 88.6589L207.018 55.4007Z" fill="white"/>
<path fill-rule="evenodd" clip-rule="evenodd" d="M190.937 71.8376L181.931 76.9708V102.85L190.937 97.7163L190.937 71.8376Z" fill="white"/>
<path fill-rule="evenodd" clip-rule="evenodd" d="M174.855 73.1316L165.849 78.2648V111.907L174.855 106.774L174.855 73.1316Z" fill="white"/>
<path fill-rule="evenodd" clip-rule="evenodd" d="M158.773 68.6028L149.768 73.7359V119.024L158.773 113.89L158.773 68.6028Z" fill="white"/>
<path fill-rule="evenodd" clip-rule="evenodd" d="M125.471 69.9189C127.467 68.7486 129.979 70.1878 129.979 72.5014V139.947C129.979 143.14 128.284 146.092 125.527 147.702L45.0685 194.686C43.0727 195.851 40.5651 194.412 40.5651 192.101V124.854C40.5651 121.667 42.254 118.718 45.0032 117.106L125.471 69.9189Z" fill="#C7DCFF"/>
<path fill-rule="evenodd" clip-rule="evenodd" d="M122.494 134.176L113.488 139.309V144.869L122.494 139.736L122.494 134.176Z" fill="#98BDF4"/>
<path fill-rule="evenodd" clip-rule="evenodd" d="M106.412 135.854L97.4066 140.987V153.926L106.412 148.793L106.412 135.854Z" fill="#98BDF4"/>
<path fill-rule="evenodd" clip-rule="evenodd" d="M90.3307 148.904L81.325 154.037V162.984L90.3307 157.851V148.904Z" fill="#98BDF4"/>
<path fill-rule="evenodd" clip-rule="evenodd" d="M74.249 143.425L65.2433 148.558V172.041L74.249 166.908L74.249 143.425Z" fill="#98BDF4"/>
<path fill-rule="evenodd" clip-rule="evenodd" d="M58.1674 138.897L49.1617 144.03V179.158L58.1674 174.025L58.1674 138.897Z" fill="#98BDF4"/>
<path d="M49.1617 132.295C49.1617 132.295 55.676 129.409 67.5203 132.295C79.3646 135.182 81.9038 143.265 91.0872 134.176C100.271 125.086 101.909 126.333 122.494 128.344" stroke="white" stroke-width="3.15" stroke-linecap="round"/>
<path d="M174.809 157.729C166.62 157.729 159.981 153.561 159.981 148.419C159.981 147.672 159.981 145.579 159.981 145.579C159.981 145.579 167.809 139.109 174.809 139.109C182.999 139.109 189.638 143.277 189.638 148.419C189.638 153.561 182.999 157.729 174.809 157.729Z" fill="#C06100"/>
<path fill-rule="evenodd" clip-rule="evenodd" d="M174.809 155.835C166.62 155.835 159.981 151.667 159.981 146.526C159.981 141.384 166.62 137.216 174.809 137.216C182.999 137.216 189.638 141.384 189.638 146.526C189.638 151.667 182.999 155.835 174.809 155.835Z" fill="white"/>
<path fill-rule="evenodd" clip-rule="evenodd" d="M174.809 155.52C166.62 155.52 159.981 151.351 159.981 146.21C159.981 141.068 166.62 136.9 174.809 136.9C182.999 136.9 189.638 141.068 189.638 146.21C189.638 151.351 182.999 155.52 174.809 155.52Z" fill="#FBC642"/>
<path d="M174.809 154.888C166.62 154.888 159.981 150.72 159.981 145.579C159.981 140.437 166.62 136.269 174.809 136.269C182.999 136.269 189.638 140.437 189.638 145.579C189.638 150.72 182.999 154.888 174.809 154.888Z" fill="#FFB74F"/>
<path d="M174.65 153.311C167.957 153.311 162.532 149.92 162.532 145.737C162.532 141.554 167.957 138.163 174.65 138.163C181.342 138.163 186.768 141.554 186.768 145.737C186.768 149.92 181.342 153.311 174.65 153.311Z" fill="#C06100"/>
<mask id="mask1" mask-type="alpha" maskUnits="userSpaceOnUse" x="162" y="138" width="25" height="16">
<path d="M174.65 153.311C167.957 153.311 162.532 149.92 162.532 145.737C162.532 141.554 167.957 138.163 174.65 138.163C181.342 138.163 186.768 141.554 186.768 145.737C186.768 149.92 181.342 153.311 174.65 153.311Z" fill="white"/>
</mask>
<g mask="url(#mask1)">
<path d="M174.65 154.573C167.958 154.573 162.532 151.182 162.532 146.999C162.532 142.816 167.958 139.425 174.65 139.425C181.343 139.425 186.768 142.816 186.768 146.999C186.768 151.182 181.343 154.573 174.65 154.573Z" fill="#FF8900"/>
<path fill-rule="evenodd" clip-rule="evenodd" d="M177.529 148.794C178.578 148.867 179.676 148.655 180.515 148.154C182.032 147.246 182.134 145.73 180.743 144.773L180.322 144.483L181.424 143.824V142.812L180.222 142.997L179.12 143.656L176.281 141.704L174.97 141.476V142.488L176.042 143.225L168.973 147.454L167.901 146.717L166.589 146.526V147.501L169.428 149.454L168.326 149.164V150.113L169.528 150.94L170.63 150.281L171.051 150.57C172.442 151.527 174.808 151.568 176.325 150.66C177.163 150.158 177.569 149.471 177.529 148.794ZM172.363 149.786L170.175 148.281L173.054 146.559L175.242 148.064C175.97 148.565 175.916 149.358 175.122 149.833C174.329 150.308 173.091 150.287 172.363 149.786ZM174.365 145.775L176.553 147.28C177.281 147.781 178.519 147.801 179.313 147.327C180.106 146.852 180.16 146.058 179.432 145.557L177.245 144.053L174.365 145.775Z" fill="#C06100"/>
<path fill-rule="evenodd" clip-rule="evenodd" d="M177.529 147.782C178.578 147.855 179.676 147.643 180.515 147.142C182.032 146.234 182.134 144.718 180.743 143.761L180.322 143.471L181.424 142.812L180.222 141.985L179.12 142.644L176.281 140.692L174.97 141.476L176.042 142.214L168.973 146.442L167.901 145.705L166.589 146.489L169.428 148.442L168.326 149.101L169.528 149.928L170.63 149.269L171.051 149.559C172.442 150.515 174.808 150.556 176.325 149.648C177.163 149.147 177.569 148.459 177.529 147.782ZM172.363 148.774L170.175 147.27L173.054 145.547L175.242 147.052C175.97 147.553 175.916 148.347 175.122 148.821C174.329 149.296 173.091 149.275 172.363 148.774ZM174.365 144.763L176.553 146.268C177.281 146.769 178.519 146.789 179.313 146.315C180.106 145.84 180.16 145.046 179.432 144.546L177.245 143.041L174.365 144.763Z" fill="#FFB74F"/>
</g>
<path fill-rule="evenodd" clip-rule="evenodd" d="M239.315 171.905C239.315 171.905 241.133 172.52 240.786 175.03C240.439 177.54 239.114 176.665 238.474 178.981C237.835 181.296 235.754 183.226 234.596 183.561C233.438 183.896 231.175 184.323 230.723 182.457C230.271 180.59 239.315 171.905 239.315 171.905Z" fill="#30334F"/>
<path fill-rule="evenodd" clip-rule="evenodd" d="M238.718 171.241C238.718 171.241 241.418 173.363 239.157 176.618C236.896 179.874 236.841 182.837 232.978 183.17C229.114 183.504 230.909 181.03 232.123 179.199C233.552 177.267 234.102 173.037 234.102 173.037L238.718 171.241Z" fill="#181E36"/>
<path fill-rule="evenodd" clip-rule="evenodd" d="M220.385 118.132C220.385 118.132 216.622 141.789 217.038 150.042C217.453 158.296 234.195 174.858 234.195 174.858C234.195 174.858 238.429 174.561 239.281 170.91L228.088 150.042L233.539 119.097L220.385 118.132Z" fill="#092965"/>
<mask id="mask2" mask-type="alpha" maskUnits="userSpaceOnUse" x="217" y="118" width="23" height="57">
<path fill-rule="evenodd" clip-rule="evenodd" d="M220.385 118.132C220.385 118.132 216.622 141.789 217.038 150.042C217.453 158.296 234.195 174.858 234.195 174.858C234.195 174.858 238.429 174.561 239.281 170.91L228.088 150.042L233.539 119.097L220.385 118.132Z" fill="white"/>
</mask>
<g mask="url(#mask2)">
<g style="mix-blend-mode:multiply">
<path fill-rule="evenodd" clip-rule="evenodd" d="M220.521 161.615L210.42 147.604L218.708 117.468L230.047 120.933L220.521 161.615Z" fill="#A9AAC4"/>
</g>
<g style="mix-blend-mode:multiply">
<path fill-rule="evenodd" clip-rule="evenodd" d="M233.645 158.014L227.338 170.578L224.813 165.166L229.867 152.653L233.645 158.014Z" fill="#A9AAC4"/>
</g>
</g>
<path fill-rule="evenodd" clip-rule="evenodd" d="M220.762 189.464C220.762 189.464 221.035 190.25 220.944 191.274C220.853 192.299 217.748 193.249 217.074 193.541C216.4 193.832 215.667 196.69 211.905 197.332C208.143 197.974 206.602 196.82 206.892 195.527C207.182 194.234 220.762 189.464 220.762 189.464Z" fill="#30334F"/>
<path fill-rule="evenodd" clip-rule="evenodd" d="M214.586 184.502C214.586 184.502 211.284 190.11 208.027 193.327C204.77 196.544 209.248 197.282 212.343 196.544C215.437 195.805 216.048 192.71 217.658 192.212C218.288 192.017 220.651 191.012 220.911 189.777C221.093 188.909 220.272 185.635 220.272 185.635" fill="#181E36"/>
<path fill-rule="evenodd" clip-rule="evenodd" d="M241.444 120.866C241.444 120.866 241.45 130.767 238.578 137.245C237.677 139.276 232.511 146.441 230.132 153.019C227.452 160.428 220.967 185.83 220.967 185.83C220.967 185.83 220.003 187.743 217.074 187.431C214.145 187.119 213.668 185.321 213.668 185.321C213.668 185.321 218.01 155.439 220.573 147.393C223.137 139.347 227.392 118.563 227.392 118.563L241.444 120.866Z" fill="url(#paint8_linear)"/>
<path d="M240.19 128.29C240.19 128.29 233.791 143.964 227.939 153.09C226.212 155.937 219.813 187.264 219.813 187.264" stroke="#1C478A" stroke-width="0.5"/>
<path fill-rule="evenodd" clip-rule="evenodd" d="M221.549 88.1301C220.095 88.2829 212.434 112.356 212.434 112.356L202.314 125.551C202.314 125.551 203.385 125.029 204.531 125.716C205.677 126.403 207.086 127.349 207.086 127.349C207.086 127.349 216.093 118.885 217.568 117.191C219.044 115.498 224.497 97.286 224.182 94.2945C223.868 91.303 223.003 87.9773 221.549 88.1301Z" fill="url(#paint9_linear)"/>
<mask id="mask3" mask-type="alpha" maskUnits="userSpaceOnUse" x="202" y="88" width="23" height="40">
<path fill-rule="evenodd" clip-rule="evenodd" d="M221.549 88.1301C220.095 88.2829 212.434 112.356 212.434 112.356L202.314 125.551C202.314 125.551 203.385 125.029 204.531 125.716C205.677 126.403 207.086 127.349 207.086 127.349C207.086 127.349 216.093 118.885 217.568 117.191C219.044 115.498 224.497 97.286 224.182 94.2945C223.868 91.303 223.003 87.9773 221.549 88.1301Z" fill="white"/>
</mask>
<g mask="url(#mask3)">
<g style="mix-blend-mode:multiply">
<path fill-rule="evenodd" clip-rule="evenodd" d="M222.247 113.764C222.247 113.764 217.72 106.977 218.677 103.203C219.634 99.4296 221.401 93.9801 221.199 92.0564C220.997 90.1327 226.13 93.4739 226.13 93.4739L222.247 113.764Z" fill="#D8D8D8"/>
</g>
</g>
<path fill-rule="evenodd" clip-rule="evenodd" d="M232.96 89.8814C236.271 91.743 242.093 95.5602 243.189 96.99C244.285 98.4197 242.493 105.161 240.988 108.267C239.484 111.372 240.746 119.876 241.693 122.173C241.951 122.798 232.864 125.988 226.514 123.267C221.05 120.926 221.249 118.172 221.737 115.583C222.225 112.993 221.826 109.191 221.826 109.191C221.826 109.191 220.72 98.9467 221.066 96.5953C221.411 94.2438 220.18 89.0206 221.237 88.2993C222.294 87.5781 229.648 88.0197 232.96 89.8814Z" fill="white"/>
<mask id="mask4" mask-type="alpha" maskUnits="userSpaceOnUse" x="220" y="87" width="24" height="38">
<path fill-rule="evenodd" clip-rule="evenodd" d="M232.96 89.8814C236.271 91.743 242.093 95.5602 243.189 96.99C244.285 98.4197 242.493 105.161 240.988 108.267C239.484 111.372 240.746 119.876 241.693 122.173C241.951 122.798 232.864 125.988 226.514 123.267C221.05 120.926 221.249 118.172 221.737 115.583C222.225 112.993 221.826 109.191 221.826 109.191C221.826 109.191 220.72 98.9467 221.066 96.5953C221.411 94.2438 220.18 89.0206 221.237 88.2993C222.294 87.5781 229.648 88.0197 232.96 89.8814Z" fill="white"/>
</mask>
<g mask="url(#mask4)">
<path fill-rule="evenodd" clip-rule="evenodd" d="M228.015 94.9872L223.642 96.1082C223.642 96.1082 225.289 91.5826 226.702 90.2651C228.115 88.9477 228.009 90.267 228.009 90.267C228.009 90.267 227.67 90.6339 227.611 92.0522C227.551 93.4705 228.015 94.9872 228.015 94.9872Z" fill="url(#paint10_linear)" fill-opacity="0.2"/>
<g style="mix-blend-mode:multiply">
<path fill-rule="evenodd" clip-rule="evenodd" d="M229.105 88.5226C226.796 89.3427 224.86 94.1078 223.586 99.6248C222.311 105.142 222.799 108.676 223.793 113.008C224.279 115.13 224.901 117.374 224.987 119.145C225.076 120.99 225.062 122.7 224.653 123.513C223.853 125.106 220.445 128.057 220.445 128.057C220.445 128.057 223.352 124.333 223.092 121.287C222.832 118.242 219.353 108.054 219.417 104.594C219.481 101.135 220.88 97.7799 220.946 95.0175C221.012 92.2551 220.194 89.1526 221.205 88.3153C222.215 87.478 225.79 87.8913 229.105 88.5226Z" fill="url(#paint11_linear)" fill-opacity="0.2"/>
</g>
<path fill-rule="evenodd" clip-rule="evenodd" d="M235.276 89.7752C237.254 90.9096 235.468 93.6082 232.435 94.5016C230.279 95.1367 228.126 96.3363 228.126 96.3363C228.126 96.3363 227.483 93.7878 227.482 92.6045C227.476 88.4874 230.891 86.9139 230.891 86.9139C230.891 86.9139 233.298 88.6407 235.276 89.7752Z" fill="url(#paint12_linear)"/>
<path fill-rule="evenodd" clip-rule="evenodd" d="M229.031 96.9097L228.213 116.921L225.405 119.379L224.333 115.625L227.381 96.2249L229.031 96.9097Z" fill="url(#paint13_linear)"/>
<path fill-rule="evenodd" clip-rule="evenodd" d="M229.515 95.326L227.72 94.9788L226.709 95.3219L227.241 97.0759L229.032 97.4625L230.476 96.3694L229.515 95.326Z" fill="#092965"/>
<path fill-rule="evenodd" clip-rule="evenodd" d="M229.515 95.326L232.265 98.9174C232.265 98.9174 235.72 92.584 234.62 90.0485C234.62 90.0485 234.472 92.7877 232.82 93.7955C231.169 94.8033 229.515 95.326 229.515 95.326Z" fill="url(#paint14_linear)"/>
</g>
<path fill-rule="evenodd" clip-rule="evenodd" d="M234.338 90.6709C234.939 91.753 231.582 99.96 230.696 104.699C229.81 109.438 229.56 117.632 229.341 122.334C229.227 124.791 227.905 130.013 227.905 130.013C227.905 130.013 238.703 132.497 242.874 126.68C242.28 124.756 242.275 121.764 241.575 118.484C240.876 115.204 240.488 108.743 242.854 103.003C243.68 97.5585 243.843 97.2929 243.843 97.2929C243.843 97.2929 241.494 94.7126 234.338 90.6709Z" fill="#092965"/>
<mask id="mask5" mask-type="alpha" maskUnits="userSpaceOnUse" x="227" y="90" width="17" height="41">
<path fill-rule="evenodd" clip-rule="evenodd" d="M234.338 90.6709C234.939 91.753 231.582 99.96 230.696 104.699C229.81 109.438 229.56 117.632 229.341 122.334C229.227 124.791 227.905 130.013 227.905 130.013C227.905 130.013 238.703 132.497 242.874 126.68C242.28 124.756 242.275 121.764 241.575 118.484C240.876 115.204 240.488 108.743 242.854 103.003C243.68 97.5585 243.843 97.2929 243.843 97.2929C243.843 97.2929 241.494 94.7126 234.338 90.6709Z" fill="white"/>
</mask>
<g mask="url(#mask5)">
<g style="mix-blend-mode:multiply">
<path fill-rule="evenodd" clip-rule="evenodd" d="M230.076 117.633C230.533 109.744 235.914 106.867 235.914 106.867L233.913 102.309L236.747 101.313C236.747 101.313 235.688 95.6621 235.578 93.6407C235.467 91.6193 235.305 91.1435 235.305 91.1435L234.463 89.7327C234.463 89.7327 232.871 88.7384 231.732 88.6317C230.594 88.5249 233.338 90.2543 233.338 90.2543C233.338 90.2543 233.764 90.2406 234.073 90.5507C234.381 90.8609 228.583 105.707 228.583 105.707C228.583 105.707 229.619 125.523 230.076 117.633Z" fill="url(#paint15_linear)"/>
</g>
</g>
<path fill-rule="evenodd" clip-rule="evenodd" d="M235.578 93.6407C235.651 94.9883 236.049 97.0418 236.772 99.8011L233.749 101.594L235.586 105.437C233.358 109.662 229.775 113.584 229.469 118.84C229.695 113.627 229.852 109.214 230.696 104.699C231.582 99.96 234.942 91.77 234.34 90.6878C233.86 89.6234 233.138 89.3809 233.138 89.3809C233.138 89.3809 232.991 89.1271 233.315 89.2769C233.638 89.4267 234.225 89.694 234.62 90.0486C234.996 90.3865 235.221 90.6862 235.334 91.2398C235.429 91.6121 235.511 92.4124 235.578 93.6407Z" fill="url(#paint16_linear)"/>
<path fill-rule="evenodd" clip-rule="evenodd" d="M229.105 88.5226C226.796 89.3427 224.209 94.039 223.253 99.4205C222.297 104.802 222.799 108.676 223.793 113.008C224.786 117.34 223.021 121.127 222.22 122.72C221.42 124.313 220.01 126.971 220.01 126.971C220.01 126.971 219.327 124.661 219.292 121.564C219.257 118.468 221.12 111.456 221.184 107.997C221.249 104.537 220.88 97.7799 220.946 95.0175C221.012 92.2551 220.194 89.1526 221.205 88.3153C222.215 87.478 225.79 87.8913 229.105 88.5226Z" fill="#092965"/>
<path fill-rule="evenodd" clip-rule="evenodd" d="M229.105 88.5227C226.796 89.3427 224.209 94.039 223.253 99.4205C222.297 104.802 222.799 108.676 223.793 113.008C223.995 113.888 223.963 115.135 223.938 116.121C223.93 116.422 223.923 116.699 223.923 116.934C223.923 117.071 223.925 117.206 223.929 117.339C223.874 117.41 223.839 117.381 223.828 117.238C223.628 114.749 220.391 105.318 220.391 105.318L222.212 99.5535L221.369 98.582C221.369 98.582 225.731 90.2112 228.3 88.3747C228.569 88.4222 228.838 88.4717 229.105 88.5227Z" fill="url(#paint17_linear)"/>
<path fill-rule="evenodd" clip-rule="evenodd" d="M234.721 83.4816C234.721 83.4816 234.628 85.2333 234.36 87.1332C234.092 89.0331 234.373 90.2939 234.373 90.2939C234.373 90.2939 233.951 92.4073 231.449 93.2948C228.947 94.1822 228.075 92.3825 228.075 92.3825L228.464 87.5041L234.721 83.4816Z" fill="#FCCBCB"/>
<mask id="mask6" mask-type="alpha" maskUnits="userSpaceOnUse" x="228" y="83" width="7" height="11">
<path fill-rule="evenodd" clip-rule="evenodd" d="M234.721 83.4816C234.721 83.4816 234.628 85.2333 234.36 87.1332C234.092 89.0331 234.373 90.2939 234.373 90.2939C234.373 90.2939 233.951 92.4073 231.449 93.2948C228.947 94.1822 228.075 92.3825 228.075 92.3825L228.464 87.5041L234.721 83.4816Z" fill="white"/>
</mask>
<g mask="url(#mask6)">
<path fill-rule="evenodd" clip-rule="evenodd" d="M228.202 92.0428C228.202 92.0428 231.029 91.8754 232.447 90.2463C233.866 88.6171 233.695 85.7013 233.695 85.7013L228.084 86.8634L228.202 92.0428Z" fill="url(#paint18_linear)"/>
</g>
<path fill-rule="evenodd" clip-rule="evenodd" d="M225.696 79.2609C225.696 79.2609 225.452 80.5422 225.591 83.9046C225.731 87.267 225.948 89.6126 226.246 90.1312C226.543 90.6498 228.549 91.2538 230.415 90.4378C232.282 89.6217 233.217 88.6244 233.541 87.8433C233.865 87.0622 234.234 85.8751 234.782 84.2918C235.331 82.7085 236.837 80.2332 236.207 78.3806C235.577 76.5279 233.571 74.9095 230.502 75.4991C227.434 76.0888 225.696 79.2609 225.696 79.2609Z" fill="#FCCBCB"/>
<mask id="mask7" mask-type="alpha" maskUnits="userSpaceOnUse" x="225" y="75" width="12" height="16">
<path fill-rule="evenodd" clip-rule="evenodd" d="M225.696 79.2609C225.696 79.2609 225.452 80.5422 225.591 83.9046C225.731 87.267 225.948 89.6126 226.246 90.1312C226.543 90.6498 228.549 91.2538 230.415 90.4378C232.282 89.6217 233.217 88.6244 233.541 87.8433C233.865 87.0622 234.234 85.8751 234.782 84.2918C235.331 82.7085 236.837 80.2332 236.207 78.3806C235.577 76.5279 233.571 74.9095 230.502 75.4991C227.434 76.0888 225.696 79.2609 225.696 79.2609Z" fill="white"/>
</mask>
<g mask="url(#mask7)">
</g>
<path fill-rule="evenodd" clip-rule="evenodd" d="M229.387 84.422C229.519 84.4081 229.611 84.2515 229.593 84.0723C229.574 83.893 229.451 83.759 229.319 83.7729C229.187 83.7868 229.095 83.9434 229.114 84.1226C229.132 84.3018 229.255 84.4359 229.387 84.422Z" fill="#031120"/>
<path fill-rule="evenodd" clip-rule="evenodd" d="M226.229 83.868C226.344 83.856 226.423 83.7155 226.406 83.5542C226.389 83.3928 226.282 83.2719 226.168 83.2839C226.053 83.296 225.974 83.4365 225.991 83.5978C226.008 83.7591 226.114 83.8801 226.229 83.868Z" fill="#031120"/>
<path fill-rule="evenodd" clip-rule="evenodd" d="M232.231 79.4235C232.231 79.4235 230.148 80.6993 227.818 80.7149C225.489 80.7304 224.495 79.7456 224.777 78.1937C225.059 76.6418 227.069 74.5734 230.875 74.2851C234.681 73.9968 235.616 76.8551 235.616 76.8551C235.616 76.8551 236.715 76.9415 236.889 78.1457C237.063 79.3499 236.004 83.2525 235.327 84.0845C234.649 84.9164 234.204 83.4217 234.204 83.4217C234.204 83.4217 234.246 84.9228 233.918 84.569C233.59 84.2152 233.389 84.2615 233.461 83.2215C233.534 82.1816 233.357 81.5427 232.879 81.5441C232.4 81.5455 231.824 80.714 231.925 80.1472C232.026 79.5803 232.231 79.4235 232.231 79.4235Z" fill="#30334F"/>
<mask id="mask8" mask-type="alpha" maskUnits="userSpaceOnUse" x="224" y="74" width="13" height="11">
<path fill-rule="evenodd" clip-rule="evenodd" d="M232.231 79.4235C232.231 79.4235 230.148 80.6993 227.818 80.7149C225.489 80.7304 224.495 79.7456 224.777 78.1937C225.059 76.6418 227.069 74.5734 230.875 74.2851C234.681 73.9968 235.616 76.8551 235.616 76.8551C235.616 76.8551 236.715 76.9415 236.889 78.1457C237.063 79.3499 236.004 83.2525 235.327 84.0845C234.649 84.9164 234.204 83.4217 234.204 83.4217C234.204 83.4217 234.246 84.9228 233.918 84.569C233.59 84.2152 233.389 84.2615 233.461 83.2215C233.534 82.1816 233.357 81.5427 232.879 81.5441C232.4 81.5455 231.824 80.714 231.925 80.1472C232.026 79.5803 232.231 79.4235 232.231 79.4235Z" fill="white"/>
</mask>
<g mask="url(#mask8)">
<path fill-rule="evenodd" clip-rule="evenodd" d="M233.049 81.7715C233.049 81.7715 234.991 80.4468 236.079 80.5521C237.167 80.6574 237.265 81.5847 237.265 81.5847C237.265 81.5847 235.333 85.8031 235.134 85.8239C234.936 85.8448 232.794 85.6276 232.794 85.6276L233.049 81.7715Z" fill="url(#paint19_linear)"/>
<path fill-rule="evenodd" clip-rule="evenodd" d="M235.383 77.1177L232.498 79.3045C232.498 79.3045 233.624 78.7022 234.461 78.1564C235.297 77.6107 235.383 77.1177 235.383 77.1177Z" fill="#031120"/>
<path fill-rule="evenodd" clip-rule="evenodd" d="M230.882 78.8537C230.882 78.8537 227.462 80.2561 225.816 78.4263C227.757 79.8028 230.882 78.8537 230.882 78.8537Z" fill="#031120"/>
</g>
<path fill-rule="evenodd" clip-rule="evenodd" d="M234.228 82.6928C234.228 82.6928 234.338 82.2562 234.945 81.998C235.552 81.7398 236.122 82.6903 235.722 83.6559C235.474 84.2521 235.267 84.668 234.844 85.0224C234.739 85.1104 234.523 85.0562 234.523 85.0562C234.523 85.0562 234.438 85.3108 234.386 85.451C234.276 84.9495 234.222 84.1441 234.214 83.8143C234.2 83.1745 234.228 82.6928 234.228 82.6928Z" fill="#FCCBCB"/>
<path fill-rule="evenodd" clip-rule="evenodd" d="M234.596 82.8506C234.596 82.8506 234.919 82.5018 235.181 82.5766C235.443 82.6515 235.598 83.2166 235.25 83.7436C234.903 84.2706 234.696 84.3149 234.696 84.3149L234.596 82.8506Z" fill="url(#paint20_linear)"/>
<path d="M228.76 82.7451C228.76 82.7451 229.688 82.7695 230.464 83.2256" stroke="#031120" stroke-width="0.5" stroke-linecap="round"/>
<path d="M226.64 82.4451C226.64 82.4451 226.023 82.2337 225.422 82.3889" stroke="#031120" stroke-width="0.5" stroke-linecap="round"/>
<path d="M227.238 83.1714C227.238 83.1714 226.957 84.5101 226.558 84.9789C226.158 85.4476 225.797 86.1592 227.025 86.1107" stroke="#E77575" stroke-width="0.5" stroke-linecap="round"/>
<path d="M226.368 87.1868C226.368 87.1868 226.557 87.3851 227.171 87.5033C227.786 87.6215 228.571 87.3562 228.571 87.3562" stroke="#E77575" stroke-width="0.5" stroke-linecap="round"/>
<path fill-rule="evenodd" clip-rule="evenodd" d="M222.455 132.047C222.402 132.047 221.156 137.104 212.915 137.206C204.675 137.309 221.71 129.289 221.71 129.289C221.71 129.289 222.508 132.047 222.455 132.047Z" fill="url(#paint21_linear)"/>
<path fill-rule="evenodd" clip-rule="evenodd" d="M243.422 97.076C247.13 97.5032 247.369 108.165 242.743 115.937C238.117 123.709 240.241 121.817 236.767 124.268C233.292 126.718 221.97 133.776 221.97 133.776C221.97 133.776 221.305 130.719 218.394 130.719L233.176 117.908C233.176 117.908 239.715 96.6487 243.422 97.076Z" fill="url(#paint22_linear)"/>
<path fill-rule="evenodd" clip-rule="evenodd" d="M222.238 131.707C221.967 131.707 221.748 131.484 221.748 131.209C221.748 130.934 221.967 130.711 222.238 130.711C222.509 130.711 222.729 130.934 222.729 131.209C222.729 131.484 222.509 131.707 222.238 131.707Z" fill="#D8D8D8"/>
<path d="M201.858 146.912C193.181 146.912 186.147 142.447 186.147 136.939C186.147 136.139 186.147 133.896 186.147 133.896C186.147 133.896 194.441 126.966 201.858 126.966C210.534 126.966 217.568 131.431 217.568 136.939C217.568 142.447 210.534 146.912 201.858 146.912Z" fill="#C06100"/>
<path fill-rule="evenodd" clip-rule="evenodd" d="M201.858 144.883C193.181 144.883 186.147 140.418 186.147 134.91C186.147 129.402 193.181 124.937 201.858 124.937C210.534 124.937 217.568 129.402 217.568 134.91C217.568 140.418 210.534 144.883 201.858 144.883Z" fill="white"/>
<path d="M201.858 144.218C193.181 144.218 186.147 139.675 186.147 134.071C186.147 128.466 193.181 123.923 201.858 123.923C210.534 123.923 217.568 128.466 217.568 134.071C217.568 139.675 210.534 144.218 201.858 144.218Z" fill="#FFB74F"/>
<path d="M201.689 142.179C194.598 142.179 188.85 138.546 188.85 134.065C188.85 129.584 194.598 125.951 201.689 125.951C208.779 125.951 214.527 129.584 214.527 134.065C214.527 138.546 208.779 142.179 201.689 142.179Z" fill="#C06100"/>
<mask id="mask9" mask-type="alpha" maskUnits="userSpaceOnUse" x="188" y="125" width="27" height="18">
<path d="M201.689 142.179C194.598 142.179 188.85 138.546 188.85 134.065C188.85 129.584 194.598 125.951 201.689 125.951C208.779 125.951 214.527 129.584 214.527 134.065C214.527 138.546 208.779 142.179 201.689 142.179Z" fill="white"/>
</mask>
<g mask="url(#mask9)">
<path d="M201.689 143.531C194.598 143.531 188.85 139.898 188.85 135.417C188.85 130.936 194.598 127.304 201.689 127.304C208.779 127.304 214.527 130.936 214.527 135.417C214.527 139.898 208.779 143.531 201.689 143.531Z" fill="#FF8900"/>
<path fill-rule="evenodd" clip-rule="evenodd" d="M209.479 133.627C209.479 133.627 208.632 133.164 208.247 132.88L209.419 132.422L209.419 131.069L208.247 131.528L207.541 132.36C207.172 132.151 206.745 131.975 206.259 131.831C205.773 131.687 205.268 131.592 204.742 131.544C204.216 131.497 203.673 131.506 203.113 131.572C202.554 131.638 202.012 131.774 201.487 131.98C201.06 132.147 200.685 132.103 200.392 132.068C200.102 132.034 199.891 132.01 199.79 132.207C199.586 132.605 199.738 133.923 200.012 134.427C200.012 134.427 197.149 135.784 197.036 135.531C196.923 135.278 196.953 135.013 197.125 134.736L193.947 133.627C193.8 134.086 193.913 135.581 194.179 136.004C194.444 136.427 194.11 136.265 194.11 136.265L194.11 137.617L194.816 138.137L195.988 137.678C196.393 137.914 196.842 138.112 197.334 138.274C197.826 138.435 198.346 138.541 198.894 138.592C199.442 138.643 200.007 138.631 200.589 138.556C201.171 138.481 201.757 138.328 202.349 138.096C203.131 137.79 203.635 137.434 203.861 137.028C204.088 136.621 204.037 134.99 204.037 134.99L203.273 134.827L205.936 133.785C206.141 133.962 206.302 134.152 206.417 134.357C206.531 134.561 206.557 134.772 206.494 134.99L209.479 134.98L209.479 133.627ZM198.801 136.945C198.629 136.888 198.473 136.826 198.333 136.761L200.845 135.778L200.931 135.973C200.967 136.063 200.998 136.152 201.022 136.239C201.046 136.326 201.048 136.41 201.029 136.49C201.009 136.57 200.958 136.648 200.874 136.725C200.79 136.802 200.659 136.876 200.481 136.946C200.291 137.02 200.099 137.065 199.906 137.08C199.713 137.095 199.524 137.091 199.338 137.067C199.152 137.043 198.973 137.003 198.801 136.945Z" fill="#C06100"/>
<path fill-rule="evenodd" clip-rule="evenodd" d="M208.247 131.528C208.632 131.812 208.953 132.137 209.21 132.503C209.467 132.868 209.556 133.243 209.479 133.627L206.494 133.638C206.557 133.42 206.531 133.209 206.417 133.005C206.302 132.8 206.141 132.61 205.936 132.433L203.273 133.475L203.83 134.415C204.077 134.849 204.088 135.269 203.861 135.676C203.635 136.082 203.131 136.438 202.349 136.744C201.757 136.975 201.171 137.129 200.589 137.204C200.007 137.279 199.442 137.291 198.894 137.24C198.346 137.189 197.826 137.083 197.334 136.921C196.842 136.76 196.393 136.562 195.988 136.326L194.816 136.785L194.11 136.265L195.283 135.806C194.812 135.459 194.444 135.075 194.179 134.652C193.913 134.229 193.853 133.788 193.999 133.329L197.125 133.384C196.953 133.661 196.923 133.925 197.036 134.179C197.149 134.432 197.335 134.673 197.594 134.902L200.424 133.794L200.012 133.074C199.738 132.57 199.704 132.119 199.908 131.722C200.112 131.324 200.638 130.959 201.487 130.627C202.012 130.422 202.554 130.286 203.113 130.22C203.673 130.154 204.216 130.144 204.742 130.192C205.268 130.239 205.773 130.335 206.259 130.479C206.745 130.622 207.172 130.799 207.541 131.008L208.714 130.549L209.419 131.069L208.247 131.528ZM205.18 131.932C204.914 131.812 204.618 131.726 204.294 131.676C203.97 131.626 203.629 131.671 203.272 131.811C203.015 131.911 202.846 132.014 202.765 132.118C202.684 132.222 202.644 132.322 202.646 132.417C202.648 132.513 202.675 132.599 202.727 132.675C202.779 132.752 202.815 132.81 202.836 132.85L205.18 131.932ZM198.801 135.593C198.629 135.536 198.473 135.474 198.333 135.409L200.845 134.425L200.931 134.621C200.967 134.711 200.998 134.8 201.022 134.887C201.046 134.974 201.048 135.057 201.029 135.137C201.009 135.218 200.958 135.296 200.874 135.373C200.79 135.45 200.659 135.523 200.481 135.593C200.291 135.668 200.099 135.712 199.906 135.728C199.713 135.743 199.524 135.739 199.338 135.715C199.152 135.691 198.973 135.651 198.801 135.593Z" fill="#FFB74F"/>
</g>
<path fill-rule="evenodd" clip-rule="evenodd" d="M218.598 133.926C218.598 133.926 215.696 133.539 214.712 133.926C213.729 134.313 215.998 134.684 216.508 135.257C217.018 135.831 218.598 134.639 218.598 134.639V133.926Z" fill="#FCCBCB"/>
<path fill-rule="evenodd" clip-rule="evenodd" d="M152.668 182.816L153.013 185.216C153.013 185.216 151.636 189.282 151.202 194.409C150.769 199.537 151.468 208.404 150.64 210.017C149.812 211.631 150.398 212.751 151.097 213.046C151.795 213.341 152.723 212.612 154.812 210.945C156.902 209.278 159.527 208.292 159.116 207.382C158.706 206.472 154.967 208.285 154.531 207.623C154.095 206.961 158.203 186.332 157.941 184.958C157.679 183.584 157.281 179.289 157.281 179.289L152.668 182.816Z" fill="#FFBBB0"/>
<path fill-rule="evenodd" clip-rule="evenodd" d="M154.756 183.553L155.296 186.688C155.296 186.688 154.387 193.162 153.991 197.233C153.595 201.305 152.849 211.196 152.849 211.196L153.845 211.699L157.858 184.127L154.756 183.553Z" fill="#F29E98"/>
<path fill-rule="evenodd" clip-rule="evenodd" d="M150.573 209.066C150.573 209.066 151.075 208.706 151.373 209.025C151.67 209.343 153.586 210.096 154.84 209.697C156.094 209.299 157.563 208.094 157.541 207.669C157.519 207.244 155.695 206.426 155.695 206.426C155.695 206.426 158.071 205.731 158.994 206.253C159.917 206.776 159.006 208.688 158.161 209.128C157.316 209.568 152.866 212.75 152.551 212.767C152.236 212.783 151.707 215.41 151.707 215.41C151.707 215.41 151.363 215.588 151.034 215.445C151.034 215.445 150.182 212.213 150.119 211.003C150.056 209.793 150.573 209.066 150.573 209.066Z" fill="#181E36"/>
<path fill-rule="evenodd" clip-rule="evenodd" d="M156.583 182.238L156.944 186.026C156.944 186.026 155.537 191.258 154.995 194.969C154.453 198.679 153.99 208.787 153.622 209.728C153.254 210.669 152.882 213.132 153.982 213.68C154.682 214.028 154.037 213.344 155.955 213.275C157.049 213.236 160.791 214.533 161.874 214.476C164.855 214.32 164.821 213.418 164.358 212.99C164.117 212.768 161.873 211.764 161.873 211.764C161.873 211.764 158.898 210.94 158.5 210.414C157.669 209.318 157.492 207.86 157.703 206.198C157.914 204.537 162.668 186.884 162.861 185.269C163.054 183.654 163.036 179.208 163.036 179.208L156.583 182.238Z" fill="#FFBBB0"/>
<rect x="162.932" y="125.777" width="1.68929" height="0.676133" rx="0.27216" transform="rotate(-3 162.932 125.777)" fill="#30334F"/>
<path fill-rule="evenodd" clip-rule="evenodd" d="M163.279 123.513C163.279 123.513 164.334 125.596 164.071 126.586C163.808 127.576 164.116 128.642 164.729 129.006C165.343 129.369 164.247 129.95 164.247 129.95C164.247 129.95 164.226 131.154 163.875 132.151C163.524 133.148 163.653 133.923 162.527 133.982C161.402 134.041 160.096 133.874 160.096 133.874C160.096 133.874 159.297 135.013 159.613 135.715C159.93 136.416 161.526 136.771 161.22 137.232C160.914 137.693 152.735 138.997 152.262 138.295C151.789 137.593 155.488 135.859 155.347 133.166C155.205 130.473 154.905 121.846 158.265 121.67C161.625 121.494 163.279 123.513 163.279 123.513Z" fill="#FFBBB0"/>
<path fill-rule="evenodd" clip-rule="evenodd" d="M160.462 129.167C160.462 129.167 160.048 128.637 159.776 128.835C159.505 129.033 159.436 129.523 159.844 130.128C160.252 130.733 160.616 130.22 160.616 130.22L160.462 129.167Z" fill="url(#paint23_linear)"/>
<path fill-rule="evenodd" clip-rule="evenodd" d="M162.961 156.147C162.961 156.147 164.681 164.77 164.589 170.398C164.497 176.026 163.728 183.604 163.728 183.604C163.728 183.604 161.441 185.082 158.044 185.26C154.647 185.439 152.261 183.756 152.261 183.756C152.261 183.756 150.411 174.1 148.973 171.937C147.536 169.775 145.739 165.869 146.753 161.247C147.766 156.625 150.452 154.077 150.452 154.077C150.452 154.077 154.028 152.838 155.738 153.274C157.447 153.71 162.961 156.147 162.961 156.147Z" fill="url(#paint24_linear)"/>
<mask id="mask10" mask-type="alpha" maskUnits="userSpaceOnUse" x="146" y="153" width="19" height="33">
<path fill-rule="evenodd" clip-rule="evenodd" d="M162.961 156.147C162.961 156.147 164.681 164.77 164.589 170.398C164.497 176.026 163.728 183.604 163.728 183.604C163.728 183.604 161.441 185.082 158.044 185.26C154.647 185.439 152.261 183.756 152.261 183.756C152.261 183.756 150.411 174.1 148.973 171.937C147.536 169.775 145.739 165.869 146.753 161.247C147.766 156.625 150.452 154.077 150.452 154.077C150.452 154.077 154.028 152.838 155.738 153.274C157.447 153.71 162.961 156.147 162.961 156.147Z" fill="white"/>
</mask>
<g mask="url(#mask10)">
<path d="M161.532 156.922C161.532 156.922 162.696 164.646 162.485 167.865C162.275 171.083 162.534 184.447 162.534 184.447" stroke="#1C478A" stroke-width="0.5"/>
</g>
<path fill-rule="evenodd" clip-rule="evenodd" d="M150.705 153.782C150.705 153.782 150.498 156.085 154.529 157.227C158.561 158.369 163.396 157.562 163.304 155.815C163.213 154.068 150.705 153.782 150.705 153.782Z" fill="#092965"/>
<path fill-rule="evenodd" clip-rule="evenodd" d="M162.383 138.372C162.383 138.372 161.52 136.209 160.215 135.534C158.909 134.858 154.841 133.08 154.458 135.632L162.383 138.372Z" fill="#D8D8D8"/>
<path fill-rule="evenodd" clip-rule="evenodd" d="M163.145 124.608C163.145 124.608 164.039 122.607 163.629 121.135C163.219 119.662 161.653 117.823 159.122 118.709C155.908 118.353 152.144 119.747 151.4 124.304C150.656 128.862 151.763 132.959 155.028 133.495C158.293 134.031 159.96 131.417 159.96 131.417C159.96 131.417 158.432 130.219 159.015 129.009C159.598 127.799 161.04 128.773 161.04 128.773L163.145 124.608Z" fill="#30334F"/>
<path fill-rule="evenodd" clip-rule="evenodd" d="M151.938 136.105C151.938 136.105 149.834 136.381 149.112 140.936C148.39 145.491 145.979 150.57 148.402 152.2C150.825 153.83 153.173 146.779 153.173 146.779L151.938 136.105Z" fill="#F0F0F0"/>
<mask id="mask11" mask-type="alpha" maskUnits="userSpaceOnUse" x="147" y="136" width="7" height="17">
<path fill-rule="evenodd" clip-rule="evenodd" d="M151.938 136.105C151.938 136.105 149.834 136.381 149.112 140.936C148.39 145.491 145.979 150.57 148.402 152.2C150.825 153.83 153.173 146.779 153.173 146.779L151.938 136.105Z" fill="white"/>
</mask>
<g mask="url(#mask11)">
<path fill-rule="evenodd" clip-rule="evenodd" d="M152.477 135.507C152.477 135.507 150.374 135.783 149.652 140.338C148.929 144.893 146.518 149.973 148.942 151.603C151.365 153.233 153.712 146.182 153.712 146.182L152.477 135.507Z" fill="#D8D8D8"/>
</g>
<path fill-rule="evenodd" clip-rule="evenodd" d="M150.216 139.358C150.466 138.881 150.852 136.678 152.133 136.194C153.741 135.587 156.059 135.544 157.452 135.916C160.039 136.606 164.29 138.8 164.698 139.488C165.107 140.177 165.786 142.957 166.176 144.495C166.567 146.033 167.505 149.999 164.378 149.946C164.378 149.946 163.593 151.532 163.665 152.914C163.738 154.296 164.092 155.084 162.91 156.205C161.728 157.326 156.57 157.336 154.263 156.658C151.955 155.98 150.629 154.485 149.964 153.632C149.298 152.779 150.9 149.112 150.9 149.112C150.9 149.112 149.652 140.435 150.216 139.358Z" fill="url(#paint25_linear)"/>
<mask id="mask12" mask-type="alpha" maskUnits="userSpaceOnUse" x="149" y="135" width="18" height="23">
<path fill-rule="evenodd" clip-rule="evenodd" d="M150.216 139.358C150.466 138.881 150.852 136.678 152.133 136.194C153.741 135.587 156.059 135.544 157.452 135.916C160.039 136.606 164.29 138.8 164.698 139.488C165.107 140.177 165.786 142.957 166.176 144.495C166.567 146.033 167.505 149.999 164.378 149.946C164.378 149.946 163.593 151.532 163.665 152.914C163.738 154.296 164.092 155.084 162.91 156.205C161.728 157.326 156.57 157.336 154.263 156.658C151.955 155.98 150.629 154.485 149.964 153.632C149.298 152.779 150.9 149.112 150.9 149.112C150.9 149.112 149.652 140.435 150.216 139.358Z" fill="white"/>
</mask>
<g mask="url(#mask12)">
<path fill-rule="evenodd" clip-rule="evenodd" d="M164.253 140.831C164.253 140.831 162.982 147.698 165.884 151.086C168.787 154.473 164.964 154.392 164.964 154.392C164.964 154.392 163.456 150.777 163.103 147.584C162.75 144.392 164.253 140.831 164.253 140.831Z" fill="#D8D8D8"/>
</g>
<path fill-rule="evenodd" clip-rule="evenodd" d="M180.362 151.41C180.94 151.147 182.264 150.055 183.008 151.121C184.415 150.981 185.909 150.985 186.556 151.069C187.659 151.212 188.658 151.817 189.205 151.914C189.752 152.011 189.007 152.839 188.324 152.593C187.642 152.346 186.425 152.016 186.049 152.073C185.674 152.129 184.939 152.329 184.939 152.329C184.939 152.329 186.344 152.626 186.677 152.935C187.01 153.244 186.955 154.424 187.189 154.906C187.423 155.387 186.64 155.467 186.479 155.097C186.479 155.097 186.39 155.548 186.358 155.754C186.318 156.019 186.331 156.339 186.223 156.369C185.935 156.448 185.41 156.134 185.551 155.473C185.551 155.473 185.272 155.726 185.025 156.078C184.778 156.43 184.395 155.957 184.512 155.574C184.629 155.191 184.817 154.932 184.817 154.932C184.817 154.932 182.48 155.79 181.564 155.779C180.647 155.767 179.496 154.919 179.496 154.919L172.138 157.326L171.285 154.044C171.285 154.044 178.963 152.045 180.362 151.41Z" fill="#FFBBB0"/>
<mask id="mask13" mask-type="alpha" maskUnits="userSpaceOnUse" x="171" y="150" width="19" height="8">
<path fill-rule="evenodd" clip-rule="evenodd" d="M180.362 151.41C180.94 151.147 182.264 150.055 183.008 151.121C184.415 150.981 185.909 150.985 186.556 151.069C187.659 151.212 188.658 151.817 189.205 151.914C189.752 152.011 189.007 152.839 188.324 152.593C187.642 152.346 186.425 152.016 186.049 152.073C185.674 152.129 184.939 152.329 184.939 152.329C184.939 152.329 186.344 152.626 186.677 152.935C187.01 153.244 186.955 154.424 187.189 154.906C187.423 155.387 186.64 155.467 186.479 155.097C186.479 155.097 186.39 155.548 186.358 155.754C186.318 156.019 186.331 156.339 186.223 156.369C185.935 156.448 185.41 156.134 185.551 155.473C185.551 155.473 185.272 155.726 185.025 156.078C184.778 156.43 184.395 155.957 184.512 155.574C184.629 155.191 184.817 154.932 184.817 154.932C184.817 154.932 182.48 155.79 181.564 155.779C180.647 155.767 179.496 154.919 179.496 154.919L172.138 157.326L171.285 154.044C171.285 154.044 178.963 152.045 180.362 151.41Z" fill="white"/>
</mask>
<g mask="url(#mask13)">
<path fill-rule="evenodd" clip-rule="evenodd" d="M186.479 155.097C186.479 155.097 186.781 153.429 186.118 153.145C185.456 152.86 185.077 152.72 185.077 152.72C185.077 152.72 186.371 152.736 186.596 153.184C186.696 153.385 186.978 154.793 186.909 155.299C186.584 155.337 186.479 155.097 186.479 155.097Z" fill="#F29E98"/>
<path fill-rule="evenodd" clip-rule="evenodd" d="M185.55 155.459C185.55 155.459 186.326 154.391 186.155 153.991C185.983 153.591 184.992 153.261 184.992 153.261C184.992 153.261 185.887 153.158 186.232 153.739C186.415 154.048 186.199 154.679 185.923 155.573C185.853 155.798 185.84 156.274 185.84 156.274C185.84 156.274 185.636 156.149 185.576 155.885C185.515 155.621 185.55 155.459 185.55 155.459Z" fill="#F29E98"/>
<path fill-rule="evenodd" clip-rule="evenodd" d="M183.008 151.121L181.971 151.158L183.023 150.488L183.008 151.121Z" fill="#F29E98"/>
</g>
<path fill-rule="evenodd" clip-rule="evenodd" d="M176.267 152.095C176.283 152.099 177.488 151.109 178.485 152.093C179.481 153.077 179.364 155.594 177.883 155.57C176.403 155.547 176.251 152.09 176.267 152.095Z" fill="#D8D8D8"/>
<path fill-rule="evenodd" clip-rule="evenodd" d="M164.571 139.763C164.571 139.763 166.436 141.898 166.321 146.905C166.205 151.911 166.843 153.331 166.843 153.331C166.843 153.331 173.966 152.94 175.512 152.044C177.058 151.148 177.941 152.963 178.066 154.066C178.191 155.17 178.474 156.494 175.384 157.445C172.295 158.396 163.929 159.458 162.484 156.963C161.04 154.468 160.96 145.996 161.578 143.974C162.196 141.952 164.571 139.763 164.571 139.763Z" fill="#FFFEFE"/>
<mask id="mask14" mask-type="alpha" maskUnits="userSpaceOnUse" x="161" y="139" width="18" height="20">
<path fill-rule="evenodd" clip-rule="evenodd" d="M164.571 139.763C164.571 139.763 166.436 141.898 166.321 146.905C166.205 151.911 166.843 153.331 166.843 153.331C166.843 153.331 173.966 152.94 175.512 152.044C177.058 151.148 177.941 152.963 178.066 154.066C178.191 155.17 178.474 156.494 175.384 157.445C172.295 158.396 163.929 159.458 162.484 156.963C161.04 154.468 160.96 145.996 161.578 143.974C162.196 141.952 164.571 139.763 164.571 139.763Z" fill="white"/>
</mask>
<g mask="url(#mask14)">
<path fill-rule="evenodd" clip-rule="evenodd" d="M161.325 145.218C161.325 145.218 161.563 146.24 161.447 151.246C161.726 153.963 161.933 157.644 164.44 157.966C166.947 158.288 170.14 158.417 173.659 157.6C177.178 156.783 177.801 155.601 178.373 155.615C178.498 156.719 174.334 161.638 171.245 162.589C168.155 163.54 159.789 164.602 158.344 162.107C156.9 159.612 156.82 151.14 157.438 149.118C158.056 147.096 161.325 145.218 161.325 145.218Z" fill="#D8D8D8"/>
</g>
<path fill-rule="evenodd" clip-rule="evenodd" d="M152.865 133.164C155.194 133.042 156.983 131.053 156.861 128.723C156.739 126.392 154.752 124.601 152.423 124.723C150.093 124.846 148.304 126.834 148.426 129.165C148.548 131.495 150.536 133.286 152.865 133.164Z" fill="#181E36"/>
<path fill-rule="evenodd" clip-rule="evenodd" d="M153.377 210.418C153.594 210.122 153.765 210.113 154.444 210.635C155.25 211.255 158.231 212.238 159.513 212.501C160.334 212.668 162.376 212.667 162.293 212.355C162.207 212.026 161.844 212.017 161.751 211.914C161.57 211.712 164.877 213.093 165.627 213.631C166.377 214.169 166.431 215.196 162.761 216.187C162.388 216.288 160.313 216.152 159.593 215.91C157.978 215.366 157.223 214.29 155.52 214.161L154.954 217.469C154.954 217.469 154.423 217.795 153.976 217.411C153.976 217.411 153.091 212.612 153.05 211.822C153.008 211.032 153.263 210.573 153.377 210.418Z" fill="#181E36"/>
<path fill-rule="evenodd" clip-rule="evenodd" d="M113.425 265.062L89.2529 279.03L92.3597 280.369V285.447L52.7449 287.301V282.242L56.5542 265.281L63.7524 269.464L92.3597 253.256L113.425 259.782V265.062Z" fill="#80B1FF"/>
<path fill-rule="evenodd" clip-rule="evenodd" d="M113.425 259.782L85.201 276.254L92.3597 280.369L52.7449 282.242L56.5542 260.004L63.7524 264.228L92.3597 247.859L113.425 259.782Z" fill="#CBDFFF"/>
<path fill-rule="evenodd" clip-rule="evenodd" d="M367.425 121.954L343.253 135.923L346.36 137.261V142.339L306.745 144.194V139.134L310.554 122.173L317.753 126.356L346.36 110.148L367.425 116.675V121.954Z" fill="#80B1FF"/>
<path fill-rule="evenodd" clip-rule="evenodd" d="M367.425 116.675L339.201 133.146L346.36 137.261L306.745 139.134L310.554 116.896L317.753 121.12L346.36 104.752L367.425 116.675Z" fill="#CBDFFF"/>
<path fill-rule="evenodd" clip-rule="evenodd" d="M49.5453 245.855L21.411 262.374L3.43323e-05 250.059V245.661L28.5471 233.898L21.411 229.83V225.433L58.7027 226.505V251.09L49.5453 245.855Z" fill="url(#paint26_linear)"/>
<path fill-rule="evenodd" clip-rule="evenodd" d="M49.5453 241.458L21.411 257.977L3.43323e-05 245.661L28.5471 229.501L21.411 225.433L58.7027 222.108V246.693L49.5453 241.458Z" fill="#80B1FF"/>
<path fill-rule="evenodd" clip-rule="evenodd" d="M303.545 102.748L275.411 119.266L254 106.951V102.553L282.547 90.7905L275.411 86.7224V82.3251L312.703 83.3972V107.982L303.545 102.748Z" fill="url(#paint27_linear)"/>
<path fill-rule="evenodd" clip-rule="evenodd" d="M303.545 98.3504L275.411 114.869L254 102.554L282.547 86.3933L275.411 82.3252L312.703 79V103.585L303.545 98.3504Z" fill="#80B1FF"/>
<defs>
<linearGradient id="paint0_linear" x1="77.652" y1="114.542" x2="315.431" y2="131.285" gradientUnits="userSpaceOnUse">
<stop stop-color="#7187B5"/>
<stop offset="1" stop-color="#BFCDED"/>
</linearGradient>
<linearGradient id="paint1_linear" x1="262.569" y1="251.586" x2="61.6678" y2="222.983" gradientUnits="userSpaceOnUse">
<stop stop-color="#C4D5FF"/>
<stop offset="0.499857" stop-color="#C9DDFF"/>
<stop offset="0.5319" stop-color="#E1ECFF"/>
<stop offset="1" stop-color="#D5E1FF"/>
</linearGradient>
<linearGradient id="paint2_linear" x1="125.626" y1="78.2593" x2="310.539" y2="198.955" gradientUnits="userSpaceOnUse">
<stop stop-color="#C0E1FF"/>
<stop offset="1" stop-color="white"/>
</linearGradient>
<linearGradient id="paint3_linear" x1="231.422" y1="227.003" x2="59.673" y2="211.078" gradientUnits="userSpaceOnUse">
<stop stop-color="#6D94E7"/>
<stop offset="1" stop-color="#7E9EEF"/>
</linearGradient>
<linearGradient id="paint4_linear" x1="188.279" y1="173.881" x2="194.97" y2="217.833" gradientUnits="userSpaceOnUse">
<stop stop-color="#6D7FE7"/>
<stop offset="1" stop-color="#4E60CD"/>
</linearGradient>
<linearGradient id="paint5_linear" x1="169.958" y1="160.669" x2="282.005" y2="182.601" gradientUnits="userSpaceOnUse">
<stop stop-color="#4F6FCE"/>
<stop offset="1" stop-color="#3B3B5D"/>
</linearGradient>
<linearGradient id="paint6_linear" x1="102.128" y1="-47.0264" x2="250.325" y2="-4.81365" gradientUnits="userSpaceOnUse">
<stop stop-color="#C0E1FF"/>
<stop offset="1" stop-color="white"/>
</linearGradient>
<linearGradient id="paint7_linear" x1="77.2491" y1="-21.9409" x2="255.274" y2="-6.27904" gradientUnits="userSpaceOnUse">
<stop stop-color="#4F6FCE"/>
<stop offset="1" stop-color="#3B3B5D"/>
</linearGradient>
<linearGradient id="paint8_linear" x1="246.731" y1="145.627" x2="212.948" y2="161.825" gradientUnits="userSpaceOnUse">
<stop stop-color="#15539E"/>
<stop offset="1" stop-color="#092965"/>
</linearGradient>
<linearGradient id="paint9_linear" x1="217.463" y1="123.992" x2="224.104" y2="101.103" gradientUnits="userSpaceOnUse">
<stop stop-color="#15539E"/>
<stop offset="1" stop-color="#092965"/>
</linearGradient>
<linearGradient id="paint10_linear" x1="227.168" y1="97.4595" x2="229.654" y2="93.3002" gradientUnits="userSpaceOnUse">
<stop stop-color="#BED4EB"/>
<stop offset="1" stop-color="#0041AE"/>
</linearGradient>
<linearGradient id="paint11_linear" x1="228.922" y1="135.329" x2="242.895" y2="126.524" gradientUnits="userSpaceOnUse">
<stop stop-color="#1B4A7A"/>
<stop offset="1" stop-color="#0041AE"/>
</linearGradient>
<linearGradient id="paint12_linear" x1="230.081" y1="90.1336" x2="230.859" y2="91.5767" gradientUnits="userSpaceOnUse">
<stop stop-color="#F3A6A6"/>
<stop offset="1" stop-color="#FCCBCB"/>
</linearGradient>
<linearGradient id="paint13_linear" x1="222.35" y1="96.7537" x2="224.735" y2="119.45" gradientUnits="userSpaceOnUse">
<stop stop-color="#15539E"/>
<stop offset="1" stop-color="#092965"/>
</linearGradient>
<linearGradient id="paint14_linear" x1="234.044" y1="101.175" x2="237.818" y2="96.0971" gradientUnits="userSpaceOnUse">
<stop stop-color="#BED4EB"/>
<stop offset="1" stop-color="#CEDBF0"/>
</linearGradient>
<linearGradient id="paint15_linear" x1="226.906" y1="89.1161" x2="229.852" y2="117.144" gradientUnits="userSpaceOnUse">
<stop stop-color="#ABBEE7"/>
<stop offset="1" stop-color="#A5B6DC" stop-opacity="0.01"/>
</linearGradient>
<linearGradient id="paint16_linear" x1="226.43" y1="89.9259" x2="229.469" y2="118.84" gradientUnits="userSpaceOnUse">
<stop stop-color="#15539E"/>
<stop offset="1" stop-color="#092965"/>
</linearGradient>
<linearGradient id="paint17_linear" x1="218.716" y1="89.382" x2="221.683" y2="117.607" gradientUnits="userSpaceOnUse">
<stop stop-color="#15539E"/>
<stop offset="1" stop-color="#092965"/>
</linearGradient>
<linearGradient id="paint18_linear" x1="230.003" y1="82.8153" x2="225.345" y2="90.4909" gradientUnits="userSpaceOnUse">
<stop stop-color="#FCCBCB"/>
<stop offset="1" stop-color="#E77575"/>
</linearGradient>
<linearGradient id="paint19_linear" x1="231.864" y1="79.2975" x2="231.365" y2="84.7001" gradientUnits="userSpaceOnUse">
<stop stop-color="#0C3564"/>
<stop offset="1" stop-color="#BFA5B1"/>
</linearGradient>
<linearGradient id="paint20_linear" x1="234.947" y1="83.9086" x2="236.1" y2="83.7308" gradientUnits="userSpaceOnUse">
<stop stop-color="#FCCBCB"/>
<stop offset="1" stop-color="#E77575"/>
</linearGradient>
<linearGradient id="paint21_linear" x1="218.454" y1="132.007" x2="218.082" y2="133.457" gradientUnits="userSpaceOnUse">
<stop stop-color="#F3A6A6"/>
<stop offset="1" stop-color="#FCCBCB"/>
</linearGradient>
<linearGradient id="paint22_linear" x1="229.276" y1="131.569" x2="221.263" y2="109.247" gradientUnits="userSpaceOnUse">
<stop stop-color="#15539E"/>
<stop offset="1" stop-color="#092965"/>
</linearGradient>
<linearGradient id="paint23_linear" x1="160.343" y1="129.013" x2="159.505" y2="128.977" gradientUnits="userSpaceOnUse">
<stop stop-color="#F8A29B"/>
<stop offset="1" stop-color="#C47770"/>
</linearGradient>
<linearGradient id="paint24_linear" x1="145.896" y1="153.615" x2="147.583" y2="185.809" gradientUnits="userSpaceOnUse">
<stop stop-color="#8EBBFF"/>
<stop offset="1" stop-color="#5586FF"/>
</linearGradient>
<linearGradient id="paint25_linear" x1="148.88" y1="136.002" x2="150.011" y2="157.581" gradientUnits="userSpaceOnUse">
<stop stop-color="white"/>
<stop offset="1" stop-color="#F0F0F0"/>
</linearGradient>
<linearGradient id="paint26_linear" x1="2.18356" y1="218.268" x2="76.17" y2="231.383" gradientUnits="userSpaceOnUse">
<stop stop-color="#4F6FCE"/>
<stop offset="1" stop-color="#3B3B5D"/>
</linearGradient>
<linearGradient id="paint27_linear" x1="256.184" y1="75.16" x2="330.17" y2="88.2752" gradientUnits="userSpaceOnUse">
<stop stop-color="#4F6FCE"/>
<stop offset="1" stop-color="#3B3B5D"/>
</linearGradient>
</defs>
</svg>
