<svg width="40" height="40" viewBox="0 0 40 40" fill="none" xmlns="http://www.w3.org/2000/svg">
<g clip-path="url(#clip0_1984_20554)">
<path d="M3.33599 20.1319C3.32599 18.6953 4.85265 17.8719 6.03265 18.5069L6.19099 18.6036L10.6543 21.6103C12.2743 22.7019 11.2827 25.1819 9.43099 24.9553L9.23599 24.9219L7.46432 24.5319C8.36482 27.0234 9.98689 29.1902 12.1237 30.756C14.2606 32.3219 16.8153 33.2159 19.4623 33.3241C22.1092 33.4323 24.7284 32.7497 26.9859 31.3634C29.2434 29.9771 31.0369 27.9499 32.1377 25.5403C32.3269 25.148 32.6621 24.8453 33.0717 24.6971C33.4813 24.5489 33.9326 24.5669 34.329 24.7473C34.7254 24.9277 35.0355 25.256 35.1929 25.6622C35.3503 26.0683 35.3424 26.5199 35.171 26.9203C31.8593 34.2036 23.6777 38.2419 15.6927 36.1019C12.1697 35.1581 9.05346 33.085 6.82156 30.2005C4.58965 27.3159 3.36524 23.779 3.33599 20.1319ZM20.0027 9.99861C20.4447 9.99861 20.8686 10.1742 21.1812 10.4868C21.4937 10.7993 21.6693 11.2233 21.6693 11.6653V13.3319H23.336C24.1098 13.3319 24.8683 13.5474 25.5265 13.9542C26.1848 14.361 26.7167 14.9431 27.0628 15.6352C27.4088 16.3273 27.5553 17.1021 27.4858 17.8728C27.4163 18.6435 27.1336 19.3796 26.6693 19.9986C27.1336 20.6177 27.4163 21.3538 27.4858 22.1244C27.5553 22.8951 27.4088 23.6699 27.0628 24.362C26.7167 25.0541 26.1848 25.6362 25.5265 26.043C24.8683 26.4498 24.1098 26.6653 23.336 26.6653H21.6693V28.3319C21.6693 28.774 21.4937 29.1979 21.1812 29.5105C20.8686 29.823 20.4447 29.9986 20.0027 29.9986C19.5606 29.9986 19.1367 29.823 18.8241 29.5105C18.5116 29.1979 18.336 28.774 18.336 28.3319V26.6653H15.1693C14.6831 26.6653 14.2168 26.4721 13.873 26.1283C13.5291 25.7845 13.336 25.3182 13.336 24.8319V15.1653C13.336 14.6791 13.5291 14.2127 13.873 13.8689C14.2168 13.5251 14.6831 13.3319 15.1693 13.3319H18.336V11.6653C18.336 11.2233 18.5116 10.7993 18.8241 10.4868C19.1367 10.1742 19.5606 9.99861 20.0027 9.99861ZM23.336 21.6653H16.6693V23.3319H23.336C23.557 23.3319 23.769 23.2442 23.9252 23.0879C24.0815 22.9316 24.1693 22.7196 24.1693 22.4986C24.1693 22.2776 24.0815 22.0656 23.9252 21.9094C23.769 21.7531 23.557 21.6653 23.336 21.6653ZM4.84099 13.0853C8.15265 5.80195 16.3343 1.76528 24.3193 3.90361C27.8421 4.84715 30.9583 6.91991 33.1903 9.80418C35.4222 12.6885 36.6466 16.2251 36.676 19.8719C36.6877 21.3103 35.1593 22.1353 33.981 21.4986L33.821 21.4019L29.3577 18.3953C27.7377 17.3036 28.7293 14.8236 30.581 15.0503L30.776 15.0836L32.5477 15.4736C31.6472 12.9822 30.0251 10.8154 27.8882 9.24952C25.7514 7.68364 23.1966 6.78961 20.5497 6.68144C17.9027 6.57327 15.2835 7.25585 13.0261 8.64215C10.7686 10.0284 8.97511 12.0557 7.87432 14.4653C7.78694 14.6694 7.65966 14.854 7.49996 15.0082C7.34026 15.1624 7.15135 15.2832 6.94433 15.3634C6.73731 15.4436 6.51635 15.4817 6.29442 15.4753C6.07249 15.469 5.85407 15.4183 5.65198 15.3264C5.4499 15.2344 5.26821 15.1031 5.11761 14.9399C4.967 14.7768 4.8505 14.5852 4.77495 14.3765C4.6994 14.1677 4.66633 13.9459 4.67767 13.7242C4.68901 13.5025 4.74453 13.2853 4.84099 13.0853ZM23.336 16.6653H16.6693V18.3319H23.336C23.557 18.3319 23.769 18.2442 23.9252 18.0879C24.0815 17.9316 24.1693 17.7196 24.1693 17.4986C24.1693 17.2776 24.0815 17.0656 23.9252 16.9094C23.769 16.7531 23.557 16.6653 23.336 16.6653Z" fill="#5583FF"/>
</g>
<defs>
<clipPath id="clip0_1984_20554">
<rect width="40" height="40" fill="white"/>
</clipPath>
</defs>
</svg>
