<svg width="55" height="38" viewBox="0 0 55 38" fill="none" xmlns="http://www.w3.org/2000/svg">
<path d="M48.3043 32.4849C50.1098 31.5977 51.3652 29.7573 51.3891 27.6113C51.425 24.578 48.9978 22.0902 45.9668 22.0542C45.7038 22.0482 45.4408 22.0662 45.1897 22.1022C43.9103 22.27 42.7625 22.8815 41.9196 23.7807C41.0049 24.7518 40.4429 26.0527 40.425 27.4854C40.419 28.0669 40.5027 28.6244 40.6641 29.1519C41.0946 30.5786 42.0929 31.7596 43.3962 32.431C43.4321 32.4489 43.4739 32.4669 43.5098 32.4849H41.3995C40.5206 31.6816 39.863 30.6505 39.5223 29.5056C39.4864 29.3977 39.4565 29.2838 39.4326 29.1759H29.2217C29.2337 30.5726 29.981 31.7955 31.0989 32.4789H29.2755C28.5103 31.5917 28.0321 30.4467 28.0261 29.1879V29.1759H21.2408L20.7087 30.4527C20.619 30.7045 20.3619 30.8783 20.069 30.8783H13.6842C13.3913 30.8783 13.1342 30.7045 13.0446 30.4527L12.5065 29.1759H3.59293C3.59293 31.2377 5.7372 33.511 7.77172 33.6539C14.019 33.6599 31.3799 33.6838 44.2391 33.6958C44.8369 33.6958 47.7902 32.9704 48.3043 32.4849ZM47.7902 29.6734C47.6348 29.9072 47.4076 30.099 47.1206 30.2369C46.8815 30.3568 46.6005 30.4347 46.2897 30.4707L46.1223 30.4887V31.1061C46.1223 31.1661 46.1043 31.214 46.0685 31.244C46.0326 31.28 45.9848 31.298 45.925 31.298C45.8652 31.298 45.8234 31.28 45.7875 31.244C45.7516 31.208 45.7337 31.1601 45.7337 31.1061V30.4827L45.5603 30.4707C45.0043 30.4287 44.4842 30.3029 44 30.093C43.9342 30.0631 43.8744 30.0211 43.8326 29.9612C43.7848 29.9012 43.7668 29.8353 43.7668 29.7633C43.7668 29.6674 43.7967 29.5835 43.8625 29.5176C43.9223 29.4516 44.0179 29.4157 44.1136 29.4157C44.1674 29.4157 44.2212 29.4276 44.269 29.4456C44.6456 29.6135 45.0701 29.7154 45.5304 29.7514L45.7337 29.7693L45.7277 27.917L45.5902 27.881C45.2614 27.7911 44.9804 27.6952 44.7533 27.5993C44.4902 27.4914 44.269 27.3235 44.0897 27.1137C43.9103 26.9039 43.8147 26.6221 43.8147 26.2864C43.8147 25.9927 43.8864 25.717 44.0359 25.4712C44.1853 25.2254 44.4005 25.0216 44.6935 24.8657C44.9386 24.7338 45.2255 24.6499 45.5603 24.6139L45.7277 24.596V23.9785C45.7277 23.9186 45.7456 23.8706 45.7815 23.8346C45.8114 23.7987 45.8652 23.7807 45.919 23.7807C45.9728 23.7807 46.0266 23.7987 46.0625 23.8346C46.0984 23.8706 46.1223 23.9186 46.1223 23.9785V24.59L46.3016 24.602C46.75 24.6319 47.1744 24.7159 47.563 24.8597C47.7185 24.9137 47.8022 25.0276 47.8022 25.1954C47.8022 25.2853 47.7723 25.3633 47.7125 25.4352C47.6408 25.5131 47.581 25.5491 47.5033 25.5491C47.4554 25.5491 47.3956 25.5371 47.3299 25.5071C47.0071 25.3932 46.6723 25.3213 46.3315 25.2973L46.1283 25.2853L46.1342 27.2096L46.2777 27.2456C46.6065 27.3295 46.8875 27.4134 47.1087 27.5094C47.3717 27.6173 47.5929 27.7791 47.7723 27.9949C47.9516 28.2107 48.0473 28.5045 48.0473 28.8641C48.0234 29.1759 47.9456 29.4396 47.7902 29.6734Z" fill="white"/>
<path d="M14.7902 9.59138H41.9196V22.1741C42.8283 21.4967 43.9043 21.0591 45.0342 20.9093C45.0821 20.9033 45.1359 20.8973 45.1897 20.8913V8.49436C45.1897 7.28944 44.2152 6.31232 43.0076 6.31232H13.7022C12.4946 6.31232 11.5201 7.28944 11.5201 8.49436V28.1088H14.7902V9.59138Z" fill="white"/>
<path d="M19.1484 22.8695C18.8016 22.8695 18.5266 23.1513 18.5266 23.4929V26.5023C18.5266 26.8499 18.8076 27.1257 19.1484 27.1257H21.1212C21.4679 27.1257 21.7429 26.844 21.7429 26.5023V23.4929C21.7429 23.1453 21.4619 22.8695 21.1212 22.8695H19.1484Z" fill="#FFCC00"/>
<path d="M24.5049 21.9343C24.1581 21.9343 23.8831 22.2161 23.8831 22.5578V26.4962C23.8831 26.8439 24.1641 27.1197 24.5049 27.1197H26.4777C26.8245 27.1197 27.0995 26.8379 27.0995 26.4962V22.5578C27.0995 22.2101 26.8185 21.9343 26.4777 21.9343H24.5049Z" fill="#FFCC00"/>
<path d="M29.7 20.3578C29.3532 20.3578 29.0782 20.6395 29.0782 20.9812V26.4963C29.0782 26.844 29.3592 27.1197 29.7 27.1197H31.6728C32.0195 27.1197 32.2945 26.838 32.2945 26.4963V20.9812C32.2945 20.6335 32.0136 20.3578 31.6728 20.3578H29.7Z" fill="#FFCC00"/>
<path d="M34.9907 27.1257H36.9636C37.3103 27.1257 37.5853 26.844 37.5853 26.5023V18.1397C37.5853 17.7921 37.3043 17.5163 36.9636 17.5163H34.9907C34.644 17.5163 34.369 17.798 34.369 18.1397V26.5023C34.363 26.8499 34.644 27.1257 34.9907 27.1257Z" fill="#FFCC00"/>
<path d="M45.4766 25.3573C45.2375 25.4052 45.0342 25.4892 44.8728 25.615C44.6576 25.7769 44.556 25.9807 44.556 26.2385C44.556 26.4843 44.6576 26.6701 44.8549 26.796C45.0043 26.8919 45.2136 26.9818 45.4706 27.0597L45.7158 27.1377L45.7098 25.3153L45.4766 25.3573Z" fill="white"/>
<path d="M46.9712 28.3426C46.8217 28.2527 46.6125 28.1688 46.3554 28.0848L46.1103 28.0069L46.1163 29.7633L46.3375 29.7274C46.9592 29.6314 47.2701 29.3257 47.2701 28.8222C47.2641 28.6243 47.1685 28.4625 46.9712 28.3426Z" fill="white"/>
</svg>
