<svg width="104" height="104" viewBox="0 0 104 104" fill="none" xmlns="http://www.w3.org/2000/svg">
<path d="M51.8179 79.3008C51.8179 79.1694 51.8486 79.0398 51.9075 78.9223C51.9665 78.8048 52.052 78.7027 52.1574 78.6241C52.2628 78.5455 52.385 78.4927 52.5144 78.4697C52.6438 78.4467 52.7768 78.4542 52.9028 78.4917L54.461 78.9552V78.9537C55.1036 79.2334 55.8051 79.3507 56.5038 79.2953C57.2024 79.2399 57.8767 79.0135 58.4672 78.636C59.0577 78.2586 59.5463 77.7416 59.8899 77.1308C60.2335 76.5199 60.4216 75.834 60.4375 75.1333C60.4535 74.4326 60.2968 73.7388 59.9814 73.113C59.6659 72.4871 59.2014 71.9485 58.6286 71.5445C58.0559 71.1406 57.3926 70.8837 56.6972 70.7966C56.0018 70.7095 55.2956 70.7947 54.641 71.0449L54.6411 71.0404L52.8239 71.3952C52.7016 71.4191 52.5756 71.4156 52.4548 71.385C52.334 71.3544 52.2215 71.2975 52.1254 71.2183C52.0292 71.1391 51.9518 71.0396 51.8986 70.9269C51.8454 70.8143 51.8179 70.6912 51.8179 70.5667L51.9407 59.1348L63.9044 58.6006C64.0324 58.6065 64.1574 58.6414 64.2699 58.7028C64.3825 58.7642 64.4795 58.8504 64.5538 58.9548C64.628 59.0593 64.6775 59.1793 64.6985 59.3058C64.7194 59.4322 64.7113 59.5617 64.6748 59.6846L63.934 62.1747H63.9355C63.5636 63.0333 63.482 63.9898 63.703 64.8991C63.8416 65.4663 64.0951 65.9991 64.4476 66.4646C64.8001 66.9301 65.2444 67.3184 65.7528 67.6055C66.2612 67.8927 66.8231 68.0726 67.4038 68.1341C67.9845 68.1957 68.5716 68.1375 69.129 67.9634C69.6863 67.7892 70.202 67.5026 70.6443 67.1214C71.0866 66.7401 71.4461 66.2723 71.7005 65.7467C71.955 65.2211 72.099 64.649 72.1237 64.0656C72.1485 63.4822 72.0534 62.8999 71.8443 62.3546L71.8488 62.3548L71.3869 59.9891C71.3624 59.8636 71.3668 59.7342 71.3996 59.6106C71.4324 59.4871 71.4928 59.3726 71.5763 59.2758C71.6599 59.179 71.7643 59.1024 71.8817 59.0519C71.9991 59.0013 72.1265 58.9781 72.2542 58.984L84.2418 59.5345V90.8055C84.2418 90.9852 84.2065 91.1631 84.1377 91.3291C84.0689 91.4951 83.9681 91.646 83.8411 91.773C83.714 91.9001 83.5632 92.0009 83.3972 92.0696C83.2312 92.1384 83.0532 92.1738 82.8735 92.1738H51.8179V79.3008Z" fill="#D7E9FF" stroke="#0E65E5" stroke-width="0.81499" stroke-miterlimit="10"/>
<path d="M63.7032 64.8991C63.4821 63.9898 63.5637 63.0333 63.9357 62.1747H63.9342L64.675 59.6846C64.7115 59.5617 64.7196 59.4322 64.6986 59.3058C64.6776 59.1793 64.6282 59.0593 64.5539 58.9548C64.4797 58.8504 64.3826 58.7642 64.2701 58.7028C64.1576 58.6414 64.0326 58.6065 63.9045 58.6006L51.7391 59.1255L51.6163 47.2081C51.6163 47.0766 51.647 46.947 51.7059 46.8295C51.7648 46.712 51.8504 46.6099 51.9558 46.5314C52.0611 46.4528 52.1834 46.3999 52.3128 46.3769C52.4422 46.3539 52.5752 46.3614 52.7012 46.3989L54.461 46.9225V46.921C55.1036 47.2006 55.8051 47.3179 56.5038 47.2625C57.2024 47.2071 57.8767 46.9806 58.4672 46.6032C59.0576 46.2257 59.5462 45.7088 59.8898 45.098C60.2334 44.4871 60.4214 43.8012 60.4374 43.1005C60.4533 42.3999 60.2967 41.7061 59.9812 41.0803C59.6658 40.4544 59.2012 39.9158 58.6285 39.5119C58.0559 39.1079 57.3926 38.8511 56.6972 38.7639C56.0018 38.6768 55.2957 38.762 54.641 39.0122L54.6411 39.0077L52.6222 39.4018C52.4999 39.4257 52.3739 39.4222 52.2531 39.3916C52.1324 39.361 52.0199 39.3041 51.9237 39.2249C51.8276 39.1457 51.7501 39.0462 51.6969 38.9335C51.6438 38.8209 51.6162 38.6978 51.6162 38.5733V26.7673H82.8588C83.2649 26.7673 83.6545 26.9287 83.9417 27.2159C84.2289 27.5031 84.3902 27.8926 84.3902 28.2988V59.5413L72.2543 58.984C72.1266 58.9781 71.9992 59.0013 71.8818 59.0519C71.7644 59.1024 71.66 59.179 71.5765 59.2758C71.4929 59.3726 71.4325 59.4871 71.3997 59.6106C71.3669 59.7342 71.3625 59.8636 71.387 59.9891L71.8489 62.3548L71.8444 62.3546C72.0523 62.8996 72.1463 63.4813 72.1209 64.064C72.0954 64.6466 71.9509 65.2179 71.6963 65.7427C71.4417 66.2674 71.0824 66.7344 70.6404 67.115C70.1985 67.4956 69.6833 67.7817 69.1267 67.9557C68.57 68.1297 67.9836 68.1879 67.4036 68.1266C66.8236 68.0654 66.2623 67.8861 65.7542 67.5998C65.2461 67.3134 64.802 66.9261 64.4492 66.4616C64.0965 65.9971 63.8426 65.4654 63.7032 64.8991Z" fill="#D7E9FF" stroke="#0E65E5" stroke-width="0.81499" stroke-miterlimit="10"/>
<path d="M51.9544 79.4299V92.1738H21.6842C21.0513 92.1787 20.4423 91.9321 19.9912 91.4881C19.5401 91.0441 19.2839 90.4391 19.2788 89.8061V60.0299L31.0056 59.4999C31.1386 59.4923 31.2714 59.5168 31.3929 59.5713C31.5144 59.6257 31.621 59.7086 31.7038 59.8128C31.7867 59.917 31.8433 60.0396 31.8689 60.1703C31.8945 60.301 31.8883 60.4359 31.8509 60.5637L31.2284 62.6233H31.23C30.8593 63.4643 30.7778 64.4045 30.9982 65.2969C31.2589 66.2952 31.8723 67.1653 32.725 67.7463C33.5777 68.3273 34.6119 68.5798 35.6364 68.4572C36.6609 68.3345 37.6063 67.845 38.2977 67.0791C38.9891 66.3132 39.3798 65.3229 39.3975 64.2912C39.3966 63.7809 39.3008 63.2752 39.115 62.7999L39.1195 62.8L38.5855 60.1079C38.5631 59.9901 38.5665 59.8689 38.5953 59.7526C38.6241 59.6362 38.6778 59.5275 38.7526 59.4338C38.8274 59.3401 38.9215 59.2637 39.0286 59.2098C39.1357 59.1559 39.2532 59.1258 39.373 59.1216L51.8761 59.6512V59.6325L52.0772 59.6234L51.9544 70.8587C51.9557 70.982 51.9841 71.1035 52.0377 71.2146C52.0914 71.3256 52.1688 71.4235 52.2646 71.5011C52.3605 71.5788 52.4722 71.6344 52.592 71.6639C52.7117 71.6934 52.8365 71.696 52.9574 71.6718L54.7691 71.3236L54.7691 71.328C55.6283 71.0024 56.5695 70.9616 57.4538 71.2114C58.4398 71.4777 59.2944 72.0955 59.8565 72.9482C60.4187 73.8009 60.6496 74.8298 60.5058 75.8409C60.362 76.8521 59.8534 77.7758 59.0758 78.438C58.2982 79.1002 57.3053 79.4552 56.2842 79.4361C55.7017 79.4364 55.1251 79.3185 54.5896 79.0893V79.0908L53.0361 78.6359C52.9115 78.5983 52.7798 78.5902 52.6515 78.6122C52.5233 78.6342 52.4019 78.6858 52.297 78.7628C52.192 78.8398 52.1065 78.9402 52.047 79.056C51.9876 79.1718 51.9559 79.2998 51.9544 79.4299Z" fill="#D7E9FF" stroke="#0E65E5" stroke-width="0.81499" stroke-miterlimit="10"/>
<path d="M26.5828 60.2838C26.3609 59.3713 26.4429 58.4113 26.8161 57.5496H26.8146L27.4412 55.4434C27.4797 55.3138 27.4867 55.1769 27.4615 55.044C27.4364 54.9112 27.3798 54.7863 27.2965 54.6798C27.2132 54.5734 27.1056 54.4883 26.9828 54.4319C26.8599 54.3755 26.7253 54.3493 26.5903 54.3555L14.584 54.9068V24.0954C14.584 23.8223 14.6378 23.552 14.7422 23.2998C14.8467 23.0475 14.9999 22.8183 15.1929 22.6253C15.386 22.4322 15.6151 22.2791 15.8674 22.1746C16.1196 22.0701 16.39 22.0164 16.663 22.0164H47.4744V33.8643C47.4744 33.9893 47.5021 34.1128 47.5554 34.2258C47.6088 34.3389 47.6865 34.4388 47.783 34.5182C47.8795 34.5977 47.9924 34.6549 48.1136 34.6856C48.2347 34.7163 48.3612 34.7198 48.4839 34.6958L50.5099 34.3047C51.0975 34.0804 51.7273 33.988 52.3546 34.0343C52.9819 34.0806 53.5913 34.2643 54.1396 34.5725C54.6879 34.8807 55.1617 35.3058 55.5273 35.8176C55.8929 36.3294 56.1415 36.9154 56.2552 37.534C56.369 38.1526 56.3453 38.7887 56.1857 39.3971C56.0261 40.0055 55.7346 40.5713 55.3318 41.0545C54.9291 41.5376 54.4249 41.9261 53.8551 42.1926C53.2854 42.4591 52.664 42.5969 52.035 42.5962C51.4549 42.5433 50.8827 42.4249 50.3293 42.2432L48.5632 41.7178C48.4367 41.6801 48.3033 41.6726 48.1734 41.6956C48.0435 41.7187 47.9208 41.7718 47.8151 41.8507C47.7094 41.9295 47.6235 42.032 47.5644 42.1499C47.5052 42.2678 47.4744 42.3979 47.4744 42.5298L47.5972 54.4856L35.0127 53.9686C34.8911 53.9742 34.7721 54.0059 34.6638 54.0617C34.5556 54.1174 34.4606 54.1958 34.3854 54.2915C34.3102 54.3872 34.2565 54.498 34.228 54.6163C34.1994 54.7347 34.1967 54.8578 34.22 54.9773L34.7575 57.7303L34.753 57.7302C34.9616 58.277 35.056 58.8608 35.0304 59.4456C35.0049 60.0303 34.8599 60.6036 34.6044 61.1302C34.3489 61.6567 33.9883 62.1254 33.5448 62.5074C33.1013 62.8893 32.5843 63.1765 32.0257 63.3511C31.4671 63.5257 30.8786 63.5841 30.2965 63.5227C29.7145 63.4613 29.1511 63.2813 28.6412 62.994C28.1313 62.7067 27.6857 62.318 27.3317 61.8519C26.9776 61.3858 26.7228 60.8521 26.5828 60.2838Z" fill="#0E65E5" stroke="#0E65E5" stroke-width="0.81499" stroke-miterlimit="10"/>
<path d="M41.7143 12.3927L43.8824 5.42354C43.929 5.2737 43.9389 5.11486 43.9113 4.96039C43.8836 4.80592 43.8193 4.66035 43.7236 4.53596C43.6279 4.41158 43.5038 4.312 43.3616 4.24565C43.2194 4.17929 43.0633 4.14809 42.9065 4.15467L37.9935 4.36107C37.8368 4.36765 37.6838 4.41183 37.5477 4.48988C37.4116 4.56793 37.2962 4.67756 37.2113 4.80953C37.1264 4.94151 37.0745 5.09196 37.0599 5.2482C37.0453 5.40445 37.0685 5.56191 37.1275 5.70731L39.8725 12.4701C39.9484 12.6571 40.0802 12.816 40.2499 12.9252C40.4197 13.0344 40.619 13.0885 40.8206 13.08C41.0223 13.0715 41.2164 13.0009 41.3764 12.8779C41.5363 12.7549 41.6544 12.5854 41.7143 12.3927Z" fill="#30D0C0" stroke="#0E65E5" stroke-width="0.81499" stroke-linecap="round" stroke-linejoin="round"/>
<path d="M50.7956 15.2208L56.3006 10.4287C56.4189 10.3257 56.5108 10.1957 56.5684 10.0498C56.626 9.90381 56.6477 9.74613 56.6316 9.59004C56.6155 9.43395 56.5621 9.28401 56.476 9.15286C56.3898 9.02171 56.2734 8.91319 56.1365 8.83646L51.8472 6.43193C51.7103 6.35519 51.557 6.31248 51.4002 6.3074C51.2433 6.30232 51.0875 6.33502 50.946 6.40275C50.8044 6.47047 50.6812 6.57124 50.5868 6.69655C50.4923 6.82186 50.4293 6.96804 50.4032 7.12278L49.1875 14.3194C49.1539 14.5184 49.1826 14.7229 49.2697 14.905C49.3568 15.0871 49.498 15.2378 49.6741 15.3364C49.8501 15.4351 50.0524 15.477 50.2531 15.4563C50.4539 15.4356 50.6433 15.3534 50.7956 15.2208Z" fill="#30D0C0" stroke="#0E65E5" stroke-width="0.81499" stroke-linecap="round" stroke-linejoin="round"/>
<path d="M57.039 22.3967L64.2404 21.2098C64.3952 21.1843 64.5417 21.1219 64.6673 21.0279C64.793 20.934 64.8943 20.8112 64.9626 20.6699C65.0309 20.5286 65.0642 20.373 65.0597 20.2161C65.0553 20.0593 65.0132 19.9058 64.937 19.7686L62.5496 15.4697C62.4734 15.3325 62.3654 15.2157 62.2346 15.129C62.1038 15.0423 61.954 14.9883 61.798 14.9716C61.642 14.9549 61.4842 14.976 61.338 15.033C61.1918 15.09 61.0615 15.1814 60.958 15.2993L56.144 20.7852C56.0109 20.9368 55.9279 21.126 55.9064 21.3266C55.885 21.5273 55.926 21.7297 56.024 21.9061C56.122 22.0825 56.2721 22.2244 56.4538 22.3122C56.6355 22.4 56.8398 22.4295 57.039 22.3967Z" fill="#30D0C0" stroke="#0E65E5" stroke-width="0.81499" stroke-linecap="round" stroke-linejoin="round"/>
</svg>
