<svg width="37" height="38" viewBox="0 0 37 38" fill="none" xmlns="http://www.w3.org/2000/svg">
<mask id="mask0_4976_71788" style="mask-type:alpha" maskUnits="userSpaceOnUse" x="0" y="0" width="37" height="38">
<path d="M18.5 37.5C28.7173 37.5 37 29.2173 37 19C37 8.78273 28.7173 0.5 18.5 0.5C8.28273 0.5 0 8.78273 0 19C0 29.2173 8.28273 37.5 18.5 37.5Z" fill="white"/>
</mask>
<g mask="url(#mask0_4976_71788)">
<path d="M0 0.5L0.578125 2.08984L0 3.75195V5.41406L2.3125 9.31641L0 13.2188V15.5312L2.3125 19L0 22.4688V24.7812L2.3125 28.6836L0 32.5859V37.5L1.58984 36.9219L3.25195 37.5H4.91406L8.81641 35.1875L12.7188 37.5H15.0312L18.5 35.1875L21.9688 37.5H24.2812L28.1836 35.1875L32.0859 37.5H37L36.4219 35.9102L37 34.248V32.5859L34.6875 28.6836L37 24.7812V22.4688L34.6875 19L37 15.5312V13.2188L34.6875 9.31641L37 5.41406V0.5L35.4102 1.07812L33.748 0.5H32.0859L28.1836 2.8125L24.2812 0.5H21.9688L18.5 2.8125L15.0312 0.5H12.7188L8.81641 2.8125L4.91406 0.5H0Z" fill="#EEEEEE"/>
<path d="M24.2812 0.5V8.30469L32.0859 0.5H24.2812ZM37 5.41406L29.1953 13.2188H37V5.41406ZM0 13.2188H7.80469L0 5.41406V13.2188ZM4.91406 0.5L12.7188 8.30469V0.5H4.91406ZM12.7188 37.5V29.6953L4.91406 37.5H12.7188ZM0 32.5859L7.80469 24.7812H0V32.5859ZM37 24.7812H29.1953L37 32.5859V24.7812ZM32.0859 37.5L24.2812 29.6953V37.5H32.0859Z" fill="#0052B4"/>
<path d="M0 0.5V3.75195L9.4668 13.2188H12.7188L0 0.5ZM15.0312 0.5V15.5312H0V22.4688H15.0312V37.5H21.9688V22.4688H37V15.5312H21.9688V0.5H15.0312ZM33.748 0.5L24.2812 9.9668V13.2188L37 0.5H33.748ZM12.7188 24.7812L0 37.5H3.25195L12.7188 28.0332V24.7812ZM24.2812 24.7812L37 37.5V34.248L27.5332 24.7812H24.2812Z" fill="#D80027"/>
</g>
</svg>
