<svg width="77" height="37" viewBox="0 0 77 37" fill="none" xmlns="http://www.w3.org/2000/svg">
<g clip-path="url(#clip0_2011_45465)">
<path d="M36.389 19.0999V28.0512H33.5015V5.9137H41.009C42.8378 5.9137 44.5703 6.58745 45.9178 7.8387C47.2653 8.9937 47.939 10.7262 47.939 12.5549C47.939 14.3837 47.2653 16.0199 45.9178 17.2712C44.5703 18.5224 42.934 19.1962 41.009 19.1962L36.389 19.0999ZM36.389 8.6087V16.3087H41.2015C42.2603 16.3087 43.319 15.9237 43.9928 15.1537C45.5328 13.7099 45.5328 11.3037 44.089 9.85995L43.9928 9.7637C43.2228 8.9937 42.2603 8.51245 41.2015 8.6087H36.389Z" fill="black"/>
<path d="M54.5786 12.4592C56.6961 12.4592 58.3324 13.0367 59.5836 14.1917C60.8349 15.3467 61.4124 16.8867 61.4124 18.8117V28.0517H58.7174V25.9342H58.6211C57.4661 27.6667 55.8299 28.533 53.9049 28.533C52.2686 28.533 50.8249 28.0517 49.6699 27.0892C48.6111 26.1267 47.9374 24.7792 47.9374 23.3355C47.9374 21.7955 48.5149 20.5442 49.6699 19.5817C50.8249 18.6192 52.4611 18.2342 54.3861 18.2342C56.1186 18.2342 57.4661 18.523 58.5249 19.1967V18.523C58.5249 17.5605 58.1399 16.598 57.3699 16.0205C56.5999 15.3467 55.6374 14.9617 54.5786 14.9617C52.9424 14.9617 51.6911 15.6355 50.8249 16.983L48.3224 15.443C49.8624 13.4217 51.8836 12.4592 54.5786 12.4592ZM50.9211 23.4317C50.9211 24.2017 51.3061 24.8755 51.8836 25.2605C52.5574 25.7417 53.3274 26.0305 54.0974 26.0305C55.2524 26.0305 56.4074 25.5492 57.2736 24.683C58.2361 23.8167 58.7174 22.758 58.7174 21.603C57.8511 20.9292 56.5999 20.5442 54.9636 20.5442C53.8086 20.5442 52.8461 20.833 52.0761 21.4105C51.3061 21.8917 50.9211 22.5655 50.9211 23.4317Z" fill="black"/>
<path d="M77.0059 12.9386L67.4771 34.7873H64.5896L68.1509 27.1836L61.8946 13.0348H64.9746L69.4984 23.9111H69.5946L74.0221 13.0348H77.0059V12.9386Z" fill="black"/>
<path d="M24.9369 17.1739C24.9369 16.3077 24.8406 15.4414 24.7444 14.5752H12.7131V19.4839H19.5469C19.2581 21.0239 18.3919 22.4677 17.0444 23.3339V26.5102H21.1831C23.5894 24.2964 24.9369 21.0239 24.9369 17.1739Z" fill="#4285F4"/>
<path d="M12.704 29.5892C16.169 29.5892 19.0565 28.4342 21.174 26.5092L17.0353 23.3329C15.8803 24.1029 14.4365 24.5842 12.704 24.5842C9.43151 24.5842 6.54401 22.3704 5.58151 19.2904H1.34651V22.5629C3.56026 26.8942 7.89151 29.5892 12.704 29.5892Z" fill="#34A853"/>
<path d="M5.58808 19.2903C5.01058 17.7503 5.01058 16.0178 5.58808 14.3816V11.1091H1.35308C-0.475666 14.6703 -0.475666 18.9053 1.35308 22.5628L5.58808 19.2903Z" fill="#FBBC04"/>
<path d="M12.7089 9.18614C14.5377 9.18614 16.2702 9.85989 17.6177 11.1111L21.2752 7.45364C18.9652 5.33614 15.8852 4.08489 12.8052 4.18114C7.99268 4.18114 3.56518 6.87614 1.44768 11.2074L5.68268 14.4799C6.54893 11.3999 9.43643 9.18614 12.7089 9.18614Z" fill="#EA4335"/>
</g>
<defs>
<clipPath id="clip0_2011_45465">
<rect width="77" height="36.6712" fill="white" transform="translate(0 0.13855)"/>
</clipPath>
</defs>
</svg>
