<svg width="274" height="24" viewBox="0 0 274 24" fill="none" xmlns="http://www.w3.org/2000/svg">
<path d="M23.2109 10.7647C23.2109 13.2093 22.941 15.2052 22.4012 16.7525C21.6716 18.9745 20.2347 20.8842 18.319 22.1782C16.3787 23.4241 14.1203 24.0566 11.8282 23.996C7.76185 23.996 4.64233 22.5852 2.46967 19.7637C0.809882 17.5747 -0.0609628 14.8701 0.00332019 12.1038C0.00332019 8.81739 0.966051 6.0548 2.89151 3.81605C5.07551 1.27202 8.12585 0 12.0425 0C14.6574 0 16.8743 0.684591 18.6932 2.05374C19.9904 3.02048 21.0983 4.45321 22.0168 6.35199L16.5738 8.65203C16.2116 7.74858 15.656 6.93908 14.9477 6.28262C14.0545 5.53534 12.9289 5.13794 11.7738 5.16208C9.26774 5.16208 7.52145 6.47688 6.53491 9.10648C6.16675 10.0635 5.97864 11.0827 5.9804 12.1108C5.9503 13.097 6.11185 14.0795 6.45574 15.0018C6.79962 15.924 7.31906 16.7678 7.98411 17.4845C8.97292 18.5529 10.2917 19.086 11.9405 19.0837C13.4033 19.0837 14.5633 18.6501 15.4206 17.7828C16.0468 17.0802 16.4355 16.1914 16.5296 15.2469H11.7908V10.7647H23.2109ZM52.8275 13.7413C52.8415 14.907 52.7274 16.0706 52.4873 17.2104C52.1145 18.7876 51.2833 20.2131 50.1026 21.3005C48.3064 23.0328 45.9047 23.8989 42.8975 23.8989C39.8381 23.8989 37.4488 23.0166 35.7297 21.2519C34.8009 20.2885 34.1541 19.0798 33.8621 17.762C33.5928 16.4459 33.473 15.1026 33.5049 13.7586V0.721586H39.2643V12.9364C39.2643 13.9193 39.2813 14.6513 39.3153 15.1324C39.4196 16.6657 40.1 17.7354 41.3564 18.3413C41.8949 18.5982 42.4834 18.7275 43.0778 18.7195C44.4816 18.7195 45.5407 18.2187 46.2551 17.2173C46.7858 16.4796 47.0512 15.0526 47.0512 12.9364V0.721586H52.8105L52.8275 13.7413ZM83.1586 23.3022H77.008L75.5826 19.3647H67.6325L66.1084 23.3022H60.0259L68.5306 0.721586H74.8206L83.1586 23.3022ZM74.0246 14.8999L71.6433 7.70149L69.2245 14.8999H74.0246ZM110.765 23.3022H103.621L98.12 14.6294V23.3022H92.347V0.721586H101.304C103.921 0.721586 105.857 1.52066 107.111 3.11877C108.127 4.40684 108.666 6.01783 108.635 7.67028C108.635 9.66619 108.051 11.2597 106.883 12.4507C106.027 13.2709 104.957 13.8225 103.801 14.0396L110.765 23.3022ZM102.668 7.9929C102.675 7.61164 102.601 7.23336 102.453 6.88337C102.305 6.53338 102.085 6.21974 101.808 5.96345C101.263 5.44539 100.389 5.18752 99.1848 5.18984H98.1098V10.8133H99.1848C100.403 10.8133 101.274 10.5531 101.808 10.0362C102.084 9.77653 102.303 9.46022 102.451 9.10807C102.598 8.75592 102.671 8.37588 102.665 7.9929H102.668ZM139.242 12.0032C139.21 14.3401 138.484 16.6122 137.16 18.5198C135.836 20.4274 133.976 21.8808 131.826 22.6882C130.7 23.0912 129.515 23.2976 128.322 23.2987H119.817V0.721586H128.322C130.379 0.713463 132.392 1.32933 134.105 2.49086C135.825 3.61755 137.209 5.20386 138.106 7.07705C138.85 8.60851 139.239 10.294 139.242 12.0032ZM133.272 12.0032C133.3 10.5352 132.848 9.0994 131.986 7.92352C130.852 6.38553 129.151 5.61769 126.883 5.62H125.566V18.4072H126.883C129.151 18.4072 130.852 17.6383 131.986 16.1003C132.844 14.9163 133.294 13.4756 133.265 12.0032H133.272ZM167.933 23.3022H161.786L160.357 19.3647H152.407L150.883 23.3022H144.8L153.305 0.721586H159.595L167.933 23.3022ZM158.799 14.8999L156.418 7.70149L154.016 14.8999H158.799ZM195.539 23.3022H188.375L182.878 14.6294V23.3022H177.125V0.721586H186.079C188.696 0.721586 190.632 1.52066 191.886 3.11877C192.901 4.40684 193.441 6.01783 193.41 7.67028C193.41 9.66619 192.826 11.2597 191.658 12.4507C190.801 13.2709 189.731 13.8225 188.576 14.0396L195.539 23.3022ZM187.446 7.9929C187.452 7.61141 187.378 7.23304 187.229 6.88307C187.08 6.5331 186.859 6.21957 186.582 5.96345C186.038 5.44654 185.167 5.18984 183.963 5.18984H182.888V10.8133H183.953C185.168 10.8133 186.041 10.5543 186.572 10.0362C186.85 9.77764 187.072 9.46184 187.222 9.10966C187.372 8.75747 187.447 8.37689 187.443 7.9929H187.446ZM210.361 23.3022H204.598V0.721586H210.358L210.361 23.3022ZM242.699 23.3022H236.549L235.12 19.3647H227.173L225.649 23.3022H219.563L228.068 0.721586H234.344L242.699 23.3022ZM233.569 14.8999L231.187 7.70149L228.769 14.8999H233.569ZM274 23.3022H268.241L257.647 9.47421V23.3022H251.888V0.721586H257.647L268.241 14.5357V0.721586H274V23.3022Z" fill="url(#paint0_linear)"/>
<defs>
<linearGradient id="paint0_linear" x1="137.007" y1="42.0668" x2="137.007" y2="-20.3638" gradientUnits="userSpaceOnUse">
<stop offset="0.18" stop-color="#ADADAD"/>
<stop offset="0.32" stop-color="#CBCBCB"/>
<stop offset="0.46" stop-color="#E2E2E2"/>
<stop offset="0.61" stop-color="#F2F2F2"/>
<stop offset="0.78" stop-color="#FCFCFC"/>
<stop offset="1" stop-color="white"/>
</linearGradient>
</defs>
</svg>
