<svg width="105" height="104" viewBox="0 0 105 104" fill="none" xmlns="http://www.w3.org/2000/svg">
<path d="M92.7145 17.7456H11.9869C10.4403 17.7456 9.18652 18.9994 9.18652 20.5461V85.2689C9.18652 86.8157 10.4403 88.0695 11.9869 88.0695H92.7145C94.261 88.0695 95.5149 86.8157 95.5149 85.2689V20.5461C95.5149 18.9994 94.261 17.7456 92.7145 17.7456Z" stroke="#0E65E5" stroke-width="1.68966" stroke-miterlimit="10"/>
<path d="M95.515 32.1337H9.18652V20.5461C9.18652 18.9994 10.4403 17.7456 11.987 17.7456H92.7145C94.2611 17.7456 95.515 18.9994 95.515 20.5461V32.1337Z" fill="#0E65E5"/>
<path d="M92.7145 88.0696H11.987C10.4403 88.0696 9.18652 86.8157 9.18652 85.2689V32.1338H95.515V85.2689C95.515 86.8157 94.2611 88.0696 92.7145 88.0696Z" fill="#D7E9FF"/>
<path d="M18.5395 28.0974C20.2835 28.0974 21.6972 26.6836 21.6972 24.9397C21.6972 23.1957 20.2835 21.782 18.5395 21.782C16.7956 21.782 15.3818 23.1957 15.3818 24.9397C15.3818 26.6836 16.7956 28.0974 18.5395 28.0974Z" fill="#94C1FF"/>
<path d="M30.0512 28.0974C31.7952 28.0974 33.2089 26.6836 33.2089 24.9397C33.2089 23.1957 31.7952 21.782 30.0512 21.782C28.3073 21.782 26.8936 23.1957 26.8936 24.9397C26.8936 26.6836 28.3073 28.0974 30.0512 28.0974Z" fill="#94C1FF"/>
<path d="M41.5639 28.0974C43.3079 28.0974 44.7216 26.6836 44.7216 24.9397C44.7216 23.1957 43.3079 21.782 41.5639 21.782C39.82 21.782 38.4062 23.1957 38.4062 24.9397C38.4062 26.6836 39.82 28.0974 41.5639 28.0974Z" fill="#94C1FF"/>
<path d="M52.3499 80.6968C64.2169 80.6968 73.837 71.0767 73.837 59.2097C73.837 47.3428 64.2169 37.7227 52.3499 37.7227C40.4829 37.7227 30.8628 47.3428 30.8628 59.2097C30.8628 71.0767 40.4829 80.6968 52.3499 80.6968Z" fill="#0E65E5"/>
<path d="M52.3497 79.6201C63.622 79.6201 72.76 70.4821 72.76 59.2098C72.76 47.9375 63.622 38.7996 52.3497 38.7996C41.0774 38.7996 31.9395 47.9375 31.9395 59.2098C31.9395 70.4821 41.0774 79.6201 52.3497 79.6201Z" fill="#94C1FF"/>
<path d="M52.4532 65.4189C48.1131 65.4189 44.5947 61.9006 44.5947 57.5606C44.5947 53.2205 48.1131 49.7021 52.4532 49.7021C56.7931 49.7021 60.3114 53.2205 60.3114 57.5606C60.3114 61.9006 56.7931 65.4189 52.4532 65.4189ZM65.0416 75.1981C62.9222 70.2898 58.0435 66.8489 52.35 66.8489C46.6566 66.8489 41.7776 70.2898 39.6582 75.1981C43.1503 77.9592 47.5526 79.62 52.35 79.62C57.1474 79.62 61.5496 77.9592 65.0416 75.1981Z" fill="white"/>
<path d="M56.9725 76.7434L56.9716 76.7425C56.8674 76.6294 56.8746 76.4532 56.9877 76.349L63.4418 70.403C63.5547 70.2989 63.7306 70.306 63.8348 70.4187C63.835 70.4188 63.8351 70.419 63.8352 70.4191L73.5802 81.0761L73.5815 81.0775C74.1349 81.6782 75.102 81.6129 75.5698 80.9434L95.6016 52.2697C95.6897 52.1436 95.8633 52.1128 95.9894 52.2009L103.183 57.2269C103.309 57.3149 103.34 57.4885 103.252 57.6146L79.0159 92.3055C77.2929 94.7718 73.7308 95.0122 71.6919 92.8001C71.6917 92.7998 71.6915 92.7996 71.6913 92.7994L56.9725 76.7434Z" fill="#30D0C0" stroke="#0E65E5"/>
</svg>
