<svg width="104" height="104" viewBox="0 0 104 104" fill="none" xmlns="http://www.w3.org/2000/svg">
<g clip-path="url(#clip0_1261_24987)">
<path d="M30.893 46.8154L30.8932 46.8154L68.1412 46.8551H68.1413C69.3544 46.8561 70.3393 45.875 70.343 44.6619L70.3669 36.9268C70.3697 36.0064 71.4724 35.5362 72.1386 36.1712L103.175 65.7572C103.61 66.1722 103.608 66.8677 103.17 67.2797L71.9515 96.6358C71.2813 97.266 70.1822 96.7889 70.185 95.8688L70.2115 87.2938C70.2152 86.0762 69.2293 85.0871 68.0117 85.087L30.7928 85.0824C30.2128 85.0824 29.7431 84.6113 29.7446 84.0313L29.8431 47.8609C29.8446 47.2824 30.3145 46.8146 30.893 46.8154Z" fill="#30D0C0" stroke="#0E65E5"/>
<path d="M73.1069 18.0134H73.1071C73.6856 18.0126 74.1554 18.4804 74.157 19.0589L74.2554 55.2293C74.257 55.8093 73.7873 56.2803 73.2073 56.2804L35.9884 56.285C34.7708 56.2851 33.7848 57.2742 33.7886 58.4918L33.815 67.0668C33.8179 67.9869 32.7188 68.464 32.0486 67.8338L0.830184 38.4777C0.391995 38.0656 0.389627 37.3702 0.824999 36.9552L31.8615 7.36924C32.5277 6.73419 33.6303 7.20443 33.6332 8.1248L33.657 15.8599C33.6608 17.073 34.6457 18.0541 35.8588 18.0531H35.8589L73.1069 18.0134Z" fill="#94C1FF" stroke="#0E65E5"/>
<path d="M19.5129 37.4005C19.5129 35.0063 20.0351 32.7299 21.0798 30.5701C22.124 28.4107 23.7203 26.7499 25.8681 25.5879C28.016 24.4262 30.5565 23.8452 33.4909 23.8452C37.8095 23.8452 41.2131 25.0775 43.7013 27.5422C46.189 30.0066 47.4335 33.2931 47.4335 37.4005C47.4335 41.5321 46.189 44.8296 43.7013 47.2941C41.2131 49.7588 37.8095 50.991 33.4909 50.991C30.5565 50.991 28.016 50.41 25.8681 49.2483C23.7203 48.0864 22.124 46.426 21.0798 44.2661C20.0351 42.1068 19.5129 39.8184 19.5129 37.4005ZM29.4065 37.471C29.4065 40.3816 29.876 42.4942 30.8151 43.8085C31.4251 44.677 32.3169 45.1112 33.4909 45.1112C34.6643 45.1112 35.5444 44.677 36.1316 43.8085C37.07 42.4942 37.5399 40.3816 37.5399 37.471C37.5399 34.5839 37.07 32.4713 36.1316 31.1333C35.5444 30.2882 34.6643 29.8658 33.4909 29.8658C32.3169 29.8658 31.4251 30.2882 30.8151 31.1333C29.876 32.448 29.4065 34.5606 29.4065 37.471ZM63.3357 23.8452H70.7768L40.9579 78.9821H33.5964L63.3357 23.8452ZM56.7286 65.321C56.7286 62.9036 57.2446 60.6207 58.2777 58.4729C59.3104 56.3251 60.9062 54.6649 63.0661 53.4909C65.2254 52.3175 67.7604 51.7305 70.6712 51.7305C75.0134 51.7305 78.4287 52.9687 80.917 55.4449C83.4047 57.9216 84.6492 61.2137 84.6492 65.321C84.6492 69.4288 83.4047 72.7209 80.917 75.1971C78.4287 77.6731 75.0134 78.9115 70.6712 78.9115C67.7604 78.9115 65.2254 78.3245 63.0661 77.1511C60.9062 75.9776 59.3104 74.3167 58.2777 72.1692C57.2446 70.0213 56.7286 67.7387 56.7286 65.321ZM66.6222 65.3913C66.6222 68.3022 67.0916 70.4147 68.0305 71.729C68.617 72.5741 69.4973 72.9965 70.6712 72.9965C71.8447 72.9965 72.7366 72.5741 73.347 71.729C74.2857 70.4147 74.7553 68.3022 74.7553 65.3913C74.7553 62.4812 74.2857 60.3566 73.347 59.0186C72.7366 58.1735 71.8447 57.7511 70.6712 57.7511C69.4973 57.7511 68.617 58.1858 68.0305 59.0539C67.0916 60.3686 66.6222 62.4812 66.6222 65.3913Z" fill="#D7E9FF"/>
<path d="M19.5129 37.4005C19.5129 35.0063 20.0351 32.7299 21.0798 30.5701C22.124 28.4107 23.7203 26.7499 25.8681 25.5879C28.016 24.4262 30.5565 23.8452 33.4909 23.8452C37.8095 23.8452 41.2131 25.0775 43.7013 27.5422C46.189 30.0066 47.4335 33.2931 47.4335 37.4005C47.4335 41.5321 46.189 44.8296 43.7013 47.2941C41.2131 49.7588 37.8095 50.991 33.4909 50.991C30.5565 50.991 28.016 50.41 25.8681 49.2483C23.7203 48.0864 22.124 46.426 21.0798 44.2661C20.0351 42.1068 19.5129 39.8184 19.5129 37.4005ZM29.4065 37.471C29.4065 40.3816 29.876 42.4942 30.8151 43.8085C31.4251 44.677 32.3169 45.1112 33.4909 45.1112C34.6643 45.1112 35.5444 44.677 36.1316 43.8085C37.07 42.4942 37.5399 40.3816 37.5399 37.471C37.5399 34.5839 37.07 32.4713 36.1316 31.1333C35.5444 30.2882 34.6643 29.8658 33.4909 29.8658C32.3169 29.8658 31.4251 30.2882 30.8151 31.1333C29.876 32.448 29.4065 34.5606 29.4065 37.471ZM63.3357 23.8452H70.7768L40.9579 78.9821H33.5964L63.3357 23.8452ZM56.7286 65.321C56.7286 62.9036 57.2446 60.6207 58.2777 58.4729C59.3104 56.3251 60.9062 54.6649 63.0661 53.4909C65.2254 52.3175 67.7604 51.7305 70.6712 51.7305C75.0134 51.7305 78.4287 52.9687 80.917 55.4449C83.4047 57.9216 84.6492 61.2137 84.6492 65.321C84.6492 69.4288 83.4047 72.7209 80.917 75.1971C78.4287 77.6731 75.0134 78.9115 70.6712 78.9115C67.7604 78.9115 65.2254 78.3245 63.0661 77.1511C60.9062 75.9776 59.3104 74.3167 58.2777 72.1692C57.2446 70.0213 56.7286 67.7387 56.7286 65.321ZM66.6222 65.3913C66.6222 68.3022 67.0916 70.4147 68.0305 71.729C68.617 72.5741 69.4973 72.9965 70.6712 72.9965C71.8447 72.9965 72.7366 72.5741 73.347 71.729C74.2857 70.4147 74.7553 68.3022 74.7553 65.3913C74.7553 62.4812 74.2857 60.3566 73.347 59.0186C72.7366 58.1735 71.8447 57.7511 70.6712 57.7511C69.4973 57.7511 68.617 58.1858 68.0305 59.0539C67.0916 60.3686 66.6222 62.4812 66.6222 65.3913Z" stroke="#0E65E5" stroke-width="0.86275" stroke-linecap="round" stroke-linejoin="round"/>
</g>
<defs>
<clipPath id="clip0_1261_24987">
<rect width="104" height="104" fill="white"/>
</clipPath>
</defs>
</svg>
