<svg width="105" height="104" viewBox="0 0 105 104" fill="none" xmlns="http://www.w3.org/2000/svg">
<g opacity="0.2">
<path d="M51.6924 99.7888C23.6244 99.7259 2.2188 95.7923 1.90014 90.7332C1.90086 90.7221 1.90562 90.7113 1.90657 90.7002H0.433041C0.432248 90.7103 0.428127 90.7199 0.42749 90.73C0.901028 98.4221 28.3381 101.213 51.6899 101.265C51.8765 101.265 52.0631 101.266 52.2523 101.266C71.5771 101.266 103.689 99.0575 104.24 90.7338L104.242 90.7002H102.759C102.238 95.9502 80.37 99.8623 51.6924 99.7888Z" fill="#30D0C0"/>
<path d="M104.24 90.6392C103.765 82.9471 76.328 80.1567 52.9762 80.1046C52.7896 80.104 52.603 80.104 52.4138 80.104C33.1136 80.104 1.05978 82.3082 0.43335 90.7002H1.90687C2.34248 85.477 23.9108 81.5799 52.2767 81.5799C52.5065 81.5799 52.7414 81.5799 52.9737 81.5805C80.9567 81.6433 102.318 85.5535 102.763 90.6837C102.763 90.6892 102.76 90.6946 102.76 90.7002H104.243L104.244 90.6869L104.24 90.6392Z" fill="#30D0C0"/>
</g>
<g opacity="0.5">
<path d="M98.6421 82.2093L97.159 82.2267C96.6831 86.8562 77.254 90.2784 51.7741 90.2404C26.8163 90.1852 7.78227 86.7143 7.50171 82.2614C7.50432 82.2221 7.51916 82.1836 7.52448 82.1445H6.05C6.04595 82.183 6.03159 82.2194 6.02905 82.2582C6.45561 89.1658 30.936 91.6705 51.7715 91.7162C51.9328 91.7169 52.0965 91.7169 52.2616 91.7169C69.4929 91.7169 98.1437 89.7339 98.6388 82.262L98.6426 82.2151L98.6421 82.2093Z" fill="#30D0C0"/>
<path d="M52.2789 74.1853C52.482 74.1853 52.6877 74.186 52.8921 74.1866C77.7647 74.2412 96.7518 77.688 97.1619 82.2119C97.1614 82.2169 97.159 82.2218 97.1586 82.2268L98.6417 82.2093L98.6384 82.1675C98.2118 75.2606 73.7302 72.7564 52.8946 72.7101C52.7334 72.7101 52.5696 72.7095 52.4059 72.7095C35.2628 72.7095 6.82706 74.675 6.04956 82.1446H7.52405C8.14485 77.5807 27.2261 74.1853 52.2789 74.1853Z" fill="#30D0C0"/>
</g>
<path d="M52.3572 82.8906C52.1947 82.8906 52.0309 82.8906 51.8671 82.89C31.2006 82.8444 15.4387 80.0147 15.169 76.4001H13.697C14.2225 84.0611 48.0107 84.3576 51.8646 84.3665H52.1223C57.1124 84.3665 90.422 84.0762 90.9698 76.4001H89.4808C88.919 80.0645 72.7735 82.8906 52.3572 82.8906Z" fill="#30D0C0"/>
<path d="M90.973 76.2921C90.4982 68.6146 56.6588 68.3182 52.802 68.3093C48.8322 68.3182 14.2133 68.4502 13.6941 76.3829C13.6945 76.3888 13.6971 76.3942 13.6975 76.4C14.1192 76.5765 14.5627 76.697 15.1695 76.4C15.1692 76.3954 15.1671 76.3908 15.1667 76.3861C15.413 72.6683 31.6859 69.7852 52.3094 69.7852H52.7994C73.4039 69.8309 89.136 72.6435 89.4965 76.3359C89.4943 76.3574 89.4845 76.3785 89.4813 76.4C89.9506 76.6187 90.1973 76.6623 90.9703 76.4C90.9706 76.3954 90.9727 76.3913 90.973 76.3867L90.9768 76.3398L90.973 76.2921Z" fill="#30D0C0"/>
<path d="M102.686 39.1069C102.686 52.0265 92.2123 62.4999 79.2929 62.4999C66.373 62.4999 55.8999 52.0265 55.8999 39.1069C55.8999 26.1873 66.3736 15.7139 79.2929 15.7139C92.2123 15.7139 102.686 26.1873 102.686 39.1069Z" fill="#D7E9FF" stroke="#B8D5FB" stroke-miterlimit="10"/>
<path d="M98.229 39.1068C98.229 49.5649 89.7508 58.043 79.2928 58.043C68.8344 58.043 60.3567 49.5649 60.3567 39.1068C60.3567 28.6487 68.8349 20.1707 79.2928 20.1707C89.7508 20.1707 98.229 28.6487 98.229 39.1068Z" fill="#D7E9FF" stroke="#B8D5FB" stroke-miterlimit="10"/>
<mask id="mask0_1261_24933" style="mask-type:alpha" maskUnits="userSpaceOnUse" x="59" y="19" width="40" height="40">
<path d="M98.2302 39.1068C98.2302 49.5649 89.752 58.043 79.2941 58.043C68.8356 58.043 60.3579 49.5649 60.3579 39.1068C60.3579 28.6487 68.8361 20.1707 79.2941 20.1707C89.752 20.1707 98.2302 28.6487 98.2302 39.1068Z" fill="#D7E9FF" stroke="#D7E9FF" stroke-miterlimit="10"/>
</mask>
<g mask="url(#mask0_1261_24933)">
<rect x="36.8735" y="61.7043" width="86.709" height="7.73361" transform="rotate(-45 36.8735 61.7043)" fill="#B8D5FB"/>
<rect x="40.5786" y="72.8208" width="86.709" height="2.13317" transform="rotate(-45 40.5786 72.8208)" fill="#B8D5FB"/>
</g>
<path d="M47.7682 39.1069C47.7682 52.0265 37.2946 62.4999 24.3752 62.4999C11.4552 62.4999 0.982178 52.0265 0.982178 39.1069C0.982178 26.1873 11.4558 15.7139 24.3752 15.7139C37.2946 15.7139 47.7682 26.1873 47.7682 39.1069Z" fill="#D7E9FF" stroke="#B8D5FB" stroke-miterlimit="10"/>
<path d="M43.3113 39.1068C43.3113 49.5649 34.8331 58.043 24.3751 58.043C13.9167 58.043 5.43896 49.5649 5.43896 39.1068C5.43896 28.6487 13.9172 20.1707 24.3751 20.1707C34.8331 20.1707 43.3113 28.6487 43.3113 39.1068Z" fill="#D7E9FF" stroke="#B8D5FB" stroke-miterlimit="10"/>
<mask id="mask1_1261_24933" style="mask-type:alpha" maskUnits="userSpaceOnUse" x="4" y="19" width="40" height="40">
<path d="M43.3125 39.1068C43.3125 49.5649 34.8343 58.043 24.3763 58.043C13.9179 58.043 5.44019 49.5649 5.44019 39.1068C5.44019 28.6487 13.9184 20.1707 24.3763 20.1707C34.8343 20.1707 43.3125 28.6487 43.3125 39.1068Z" fill="#D7E9FF" stroke="#D7E9FF" stroke-miterlimit="10"/>
</mask>
<g mask="url(#mask1_1261_24933)">
<rect x="-18.0449" y="61.7043" width="86.709" height="7.73361" transform="rotate(-45 -18.0449 61.7043)" fill="#B8D5FB"/>
<rect x="-14.3401" y="72.8208" width="86.709" height="2.13317" transform="rotate(-45 -14.3401 72.8208)" fill="#B8D5FB"/>
</g>
<path d="M80.2542 30.2293C80.2542 46.096 67.3914 58.9585 51.5249 58.9585C35.6577 58.9585 22.7957 46.096 22.7957 30.2293C22.7957 14.3625 35.6585 1.5 51.5249 1.5C67.3914 1.5 80.2542 14.3625 80.2542 30.2293Z" fill="#0E65E5" stroke="#73A6F2" stroke-miterlimit="10"/>
<path d="M74.8028 30.2291C74.8028 43.0847 64.3811 53.5061 51.5258 53.5061C38.6699 53.5061 28.2488 43.0847 28.2488 30.2291C28.2488 17.3736 38.6705 6.95215 51.5258 6.95215C64.3811 6.95215 74.8028 17.3736 74.8028 30.2291Z" fill="#0E65E5" stroke="#73A6F2" stroke-miterlimit="10"/>
<mask id="mask2_1261_24933" style="mask-type:alpha" maskUnits="userSpaceOnUse" x="27" y="6" width="49" height="49">
<path d="M74.8037 30.2291C74.8037 43.0847 64.382 53.5061 51.5267 53.5061C38.6709 53.5061 28.2498 43.0847 28.2498 30.2291C28.2498 17.3736 38.6714 6.95215 51.5267 6.95215C64.382 6.95215 74.8037 17.3736 74.8037 30.2291Z" fill="#D7E9FF" stroke="#D7E9FF" stroke-miterlimit="10"/>
</mask>
<g mask="url(#mask2_1261_24933)">
<rect x="-0.368408" y="57.8735" width="106.074" height="9.46082" transform="rotate(-45 -0.368408 57.8735)" fill="#73A6F2"/>
<rect x="4.16406" y="71.4727" width="106.074" height="2.60959" transform="rotate(-45 4.16406 71.4727)" fill="#73A6F2"/>
</g>
<path d="M52.252 17.0271L55.6389 24.2143C55.7922 24.5397 56.0886 24.7652 56.4315 24.8174L64.0049 25.9699C64.8683 26.1013 65.2131 27.2125 64.5883 27.8503L59.1081 33.4447C58.86 33.698 58.7468 34.0629 58.8054 34.4205L60.0991 42.3199C60.2466 43.2205 59.344 43.9073 58.5717 43.4821L51.7979 39.7525C51.4912 39.5836 51.1248 39.5836 50.8182 39.7525L44.0443 43.4821C43.2721 43.9073 42.3695 43.2205 42.517 42.3199L43.8107 34.4205C43.8693 34.0629 43.756 33.698 43.5079 33.4447L38.0278 27.8503C37.403 27.2125 37.7478 26.1013 38.6112 25.9699L46.1846 24.8174C46.5274 24.7652 46.8238 24.5396 46.9772 24.2143L50.3641 17.0271C50.7502 16.2078 51.8658 16.2078 52.252 17.0271Z" fill="#D7E9FF"/>
</svg>
