<svg width="64" height="64" viewBox="0 0 64 64" fill="none" xmlns="http://www.w3.org/2000/svg">
<g clip-path="url(#clip0_1272_24805)">
<path d="M63.0607 59.0564H58.7435V41.4779C58.7435 41.2288 58.6445 40.9899 58.4684 40.8137C58.2922 40.6376 58.0533 40.5386 57.8041 40.5386C57.555 40.5386 57.3161 40.6376 57.1399 40.8137C56.9638 40.9899 56.8648 41.2288 56.8648 41.4779V59.0564H49.549V28.1373C49.549 27.9647 49.6894 27.8241 49.8621 27.8241H56.5517C56.7243 27.8241 56.8648 27.9647 56.8648 28.1373V37.7206C56.8648 37.9697 56.9638 38.2086 57.1399 38.3848C57.3161 38.561 57.555 38.6599 57.8041 38.6599C58.0533 38.6599 58.2922 38.561 58.4684 38.3848C58.6445 38.2086 58.7435 37.9697 58.7435 37.7206V28.1373C58.7435 26.9288 57.7603 25.9455 56.5517 25.9455H49.8621C48.6537 25.9455 47.6704 26.9288 47.6704 28.1373V59.0565H44.6055V34.9734C44.6055 33.7649 43.6222 32.7816 42.4137 32.7816H35.7241C34.5155 32.7816 33.5324 33.7649 33.5324 34.9734V59.0565H30.4675V41.8095C30.4675 40.601 29.4843 39.6177 28.2757 39.6177H21.5862C20.3777 39.6177 19.3944 40.601 19.3944 41.8095V50.0233C19.3944 50.2724 19.4933 50.5113 19.6695 50.6875C19.8457 50.8636 20.0846 50.9626 20.3337 50.9626C20.5828 50.9626 20.8218 50.8636 20.9979 50.6875C21.1741 50.5113 21.2731 50.2724 21.2731 50.0233V41.8095C21.2731 41.6367 21.4136 41.4963 21.5862 41.4963H28.2757C28.4484 41.4963 28.5888 41.6367 28.5888 41.8095V59.0564H21.2731V53.7806C21.2731 53.5315 21.1741 53.2925 20.9979 53.1164C20.8218 52.9402 20.5828 52.8413 20.3337 52.8413C20.0846 52.8413 19.8457 52.9402 19.6695 53.1164C19.4933 53.2925 19.3944 53.5315 19.3944 53.7806V59.0564H16.3295V48.6456C16.3295 47.4371 15.3463 46.4538 14.1377 46.4538H7.4483C6.23981 46.4538 5.25652 47.4371 5.25652 48.6456V59.0564H0.939335C0.690208 59.0564 0.451284 59.1554 0.275125 59.3315C0.0989653 59.5077 0 59.7466 0 59.9957C0 60.2449 0.0989653 60.4838 0.275125 60.6599C0.451284 60.8361 0.690208 60.9351 0.939335 60.9351H63.0607C63.3098 60.9351 63.5487 60.8361 63.7249 60.6599C63.901 60.4838 64 60.2449 64 59.9957C64 59.7466 63.901 59.5077 63.7249 59.3315C63.5487 59.1554 63.3098 59.0564 63.0607 59.0564ZM35.411 34.9734C35.411 34.8008 35.5516 34.6602 35.7241 34.6602H42.4137C42.5863 34.6602 42.7268 34.8008 42.7268 34.9734V59.0565H35.411V34.9734ZM7.13519 48.6456C7.13519 48.473 7.27571 48.3324 7.4483 48.3324H14.1379C14.3106 48.3324 14.451 48.473 14.451 48.6456V59.0564H7.13519V48.6456ZM10.0307 35.2398C10.0822 35.2398 10.1342 35.2379 10.1863 35.2344C17.1138 34.7532 23.6281 33.2413 29.5486 30.7408C37.5207 27.3738 44.1204 22.2983 49.1781 15.6477L52.344 17.849C52.9677 18.3141 53.9181 17.7551 53.8149 16.984L52.5027 3.91244C52.46 3.35422 51.8697 2.94355 51.3313 3.09722L38.6092 6.41069C37.8497 6.58203 37.6563 7.6679 38.3096 8.09098L41.5044 10.3123C40.8688 11.311 39.4683 13.2913 37.0264 15.7135C36.8496 15.8889 36.7497 16.1274 36.7487 16.3765C36.7476 16.6257 36.8456 16.865 37.0211 17.0418C37.1965 17.2187 37.435 17.3186 37.6841 17.3196C37.9332 17.3206 38.1725 17.2226 38.3494 17.0472C42.1139 13.3131 43.5352 10.5827 43.5938 10.4684C43.6975 10.266 43.7243 10.0328 43.6692 9.8122C43.6141 9.59155 43.4809 9.39838 43.2942 9.26853L41.0586 7.71411L50.7431 5.19181L51.7421 15.1421L49.5046 13.5865C49.3032 13.4464 49.055 13.3907 48.8131 13.4312C48.5711 13.4718 48.3547 13.6053 48.2099 13.8034C43.288 20.5378 36.7634 25.6542 28.8177 29.0101C21.6816 32.024 14.6763 33.0391 10.0563 33.3601C9.78636 33.4292 9.70458 32.9336 9.97335 32.9048C20.2653 29.7287 28.8605 25.2638 35.5201 19.634C35.6143 19.5544 35.6919 19.457 35.7485 19.3474C35.8051 19.2378 35.8395 19.1181 35.8498 18.9952C35.8601 18.8722 35.8461 18.7485 35.8086 18.631C35.771 18.5135 35.7107 18.4045 35.6311 18.3103C35.5515 18.2161 35.4541 18.1385 35.3444 18.0819C35.2348 18.0254 35.1151 17.991 34.9922 17.9806C34.8693 17.9703 34.7456 17.9844 34.628 18.0219C34.5105 18.0594 34.4016 18.1197 34.3074 18.1993C27.842 23.6649 19.4685 28.0085 9.41952 31.1097C8.37598 31.4317 7.76366 32.4438 7.96355 33.5161C8.15355 34.5359 9.00985 35.2398 10.0307 35.2398Z" fill="#5583FE"/>
</g>
<defs>
<clipPath id="clip0_1272_24805">
<rect width="64" height="64" fill="white"/>
</clipPath>
</defs>
</svg>
