<svg width="30" height="31" viewBox="0 0 30 31" fill="none" xmlns="http://www.w3.org/2000/svg">
<g clip-path="url(#clip0)">
<path fill-rule="evenodd" clip-rule="evenodd" d="M25.6126 5.33552C31.4625 11.1867 31.4625 20.7086 25.6126 26.5598C19.7611 32.411 10.2404 32.411 4.38744 26.5598C-1.46248 20.7086 -1.46248 11.1867 4.38744 5.33552C10.2404 -0.514184 19.7611 -0.514184 25.6126 5.33552ZM23.5018 7.46108C28.1841 12.1442 28.1841 19.7653 23.5018 24.4484C18.8183 29.1315 11.1979 29.1315 6.51321 24.4484C1.83093 19.7653 1.83093 12.1442 6.51321 7.46108C11.1979 2.77915 18.8183 2.77915 23.5018 7.46108Z" fill="#1A88EE"/>
<path d="M15.0001 2.3125C7.48104 2.3125 1.36377 8.42977 1.36377 15.9489C1.36377 23.468 7.48104 29.5852 15.0001 29.5852C22.5192 29.5852 28.6365 23.468 28.6365 15.9489C28.6365 8.42977 22.5192 2.3125 15.0001 2.3125ZM12.2742 21.9666L7.21104 16.9143L9.1365 14.9834L12.2715 18.113L19.4906 10.8939L21.4188 12.822L12.2742 21.9666Z" fill="#1A88EE"/>
</g>
<defs>
<clipPath id="clip0">
<rect width="30" height="30" fill="white" transform="translate(0 0.948242)"/>
</clipPath>
</defs>
</svg>
