<svg width="32" height="32" viewBox="0 0 32 32" fill="none" xmlns="http://www.w3.org/2000/svg">
<path fill-rule="evenodd" clip-rule="evenodd" d="M5.3335 16.0001C5.3335 15.2637 5.93045 14.6667 6.66683 14.6667H25.3335C26.0699 14.6667 26.6668 15.2637 26.6668 16.0001C26.6668 16.7365 26.0699 17.3334 25.3335 17.3334H6.66683C5.93045 17.3334 5.3335 16.7365 5.3335 16.0001Z" fill="black"/>
<path fill-rule="evenodd" clip-rule="evenodd" d="M5.72402 15.0573C6.24472 14.5366 7.08894 14.5366 7.60964 15.0573L12.943 20.3906C13.4637 20.9113 13.4637 21.7555 12.943 22.2762C12.4223 22.7969 11.5781 22.7969 11.0574 22.2762L5.72402 16.9429C5.20332 16.4222 5.20332 15.578 5.72402 15.0573Z" fill="black"/>
<path fill-rule="evenodd" clip-rule="evenodd" d="M12.943 9.72378C13.4637 10.2445 13.4637 11.0887 12.943 11.6094L7.60964 16.9427C7.08894 17.4634 6.24472 17.4634 5.72402 16.9427C5.20332 16.422 5.20332 15.5778 5.72402 15.0571L11.0574 9.72378C11.5781 9.20308 12.4223 9.20308 12.943 9.72378Z" fill="black"/>
</svg>
