<svg width="104" height="104" viewBox="0 0 104 104" fill="none" xmlns="http://www.w3.org/2000/svg">
<path d="M80.9136 90.4499H23.0852C22.6859 90.4499 22.3029 90.2912 22.0206 90.0089C21.7382 89.7265 21.5796 89.3436 21.5796 88.9442V15.0557C21.5796 14.6564 21.7382 14.2734 22.0206 13.991C22.3029 13.7087 22.6859 13.55 23.0852 13.55H71.3691L82.4192 24.6002V88.9442C82.4193 89.1419 82.3803 89.3377 82.3046 89.5204C82.229 89.7031 82.1181 89.8691 81.9783 90.0089C81.8385 90.1487 81.6725 90.2596 81.4898 90.3353C81.3071 90.4109 81.1113 90.4499 80.9136 90.4499Z" fill="white" stroke="#0E65E5" stroke-width="0.75" stroke-linecap="round" stroke-linejoin="round"/>
<path d="M72.8758 24.6002H82.4203L71.3701 13.55V23.0946C71.3701 23.2923 71.4091 23.4881 71.4847 23.6707C71.5604 23.8534 71.6713 24.0194 71.8111 24.1592C71.9509 24.299 72.1169 24.4099 72.2996 24.4856C72.4823 24.5613 72.678 24.6002 72.8758 24.6002Z" fill="#D7E9FF" stroke="#0E65E5" stroke-width="0.75" stroke-linecap="round" stroke-linejoin="round"/>
<path d="M58.0432 34.0508H40.73V35.5805H58.0432V34.0508Z" fill="#D7E9FF"/>
<path d="M75.3565 30.8762H40.73V32.406H75.3565V30.8762Z" fill="#D7E9FF"/>
<path d="M75.3565 27.7019H40.73V29.2316H75.3565V27.7019Z" fill="#D7E9FF"/>
<path d="M34.0602 32.5842L36.3696 30.9063C36.4164 30.8723 36.4513 30.8243 36.4692 30.7692C36.487 30.7142 36.487 30.6549 36.4692 30.5998C36.4513 30.5447 36.4164 30.4968 36.3696 30.4627C36.3227 30.4287 36.2663 30.4104 36.2084 30.4104H33.3538C33.2959 30.4104 33.2395 30.3921 33.1927 30.358C33.1459 30.324 33.111 30.276 33.0931 30.221L32.211 27.5061C32.1931 27.451 32.1582 27.403 32.1114 27.369C32.0646 27.335 32.0082 27.3167 31.9503 27.3167C31.8924 27.3167 31.836 27.335 31.7891 27.369C31.7423 27.403 31.7074 27.451 31.6895 27.5061L30.8074 30.2209C30.7895 30.276 30.7547 30.324 30.7078 30.358C30.661 30.392 30.6046 30.4103 30.5467 30.4103H27.6921C27.6342 30.4103 27.5778 30.4287 27.531 30.4627C27.4841 30.4967 27.4493 30.5447 27.4314 30.5998C27.4135 30.6548 27.4135 30.7141 27.4314 30.7692C27.4493 30.8243 27.4841 30.8722 27.531 30.9063L29.8404 32.5841C29.8872 32.6182 29.9221 32.6662 29.94 32.7212C29.9579 32.7763 29.9579 32.8356 29.94 32.8906L29.0579 35.6055C29.04 35.6606 29.04 35.7199 29.0579 35.7749C29.0757 35.83 29.1106 35.878 29.1574 35.912C29.2043 35.946 29.2607 35.9644 29.3186 35.9644C29.3765 35.9644 29.4329 35.946 29.4797 35.912L31.7891 34.2341C31.836 34.2001 31.8924 34.1818 31.9503 34.1818C32.0082 34.1818 32.0646 34.2001 32.1114 34.2341L34.4208 35.912C34.4676 35.946 34.5241 35.9644 34.5819 35.9644C34.6398 35.9644 34.6962 35.946 34.7431 35.912C34.7899 35.878 34.8248 35.83 34.8427 35.7749C34.8606 35.7199 34.8606 35.6606 34.8427 35.6055L33.9606 32.8906C33.9427 32.8356 33.9427 32.7763 33.9606 32.7212C33.9785 32.6662 34.0133 32.6182 34.0602 32.5842Z" fill="#30D0C0"/>
<path d="M58.0432 49.5771H40.73V51.1069H58.0432V49.5771Z" fill="#D7E9FF"/>
<path d="M75.3565 46.4028H40.73V47.9326H75.3565V46.4028Z" fill="#D7E9FF"/>
<path d="M75.3565 43.2283H40.73V44.758H75.3565V43.2283Z" fill="#D7E9FF"/>
<path d="M34.0602 48.1106L36.3696 46.4327C36.4164 46.3987 36.4513 46.3507 36.4692 46.2956C36.487 46.2405 36.487 46.1812 36.4692 46.1262C36.4513 46.0711 36.4164 46.0231 36.3696 45.9891C36.3227 45.9551 36.2663 45.9367 36.2084 45.9367H33.3538C33.2959 45.9367 33.2395 45.9184 33.1927 45.8844C33.1459 45.8504 33.111 45.8024 33.0931 45.7473L32.211 43.0324C32.1931 42.9774 32.1582 42.9294 32.1114 42.8954C32.0646 42.8613 32.0082 42.843 31.9503 42.843C31.8924 42.843 31.836 42.8613 31.7891 42.8954C31.7423 42.9294 31.7074 42.9774 31.6895 43.0324L30.8074 45.7473C30.7895 45.8024 30.7547 45.8504 30.7078 45.8844C30.661 45.9184 30.6046 45.9367 30.5467 45.9367H27.6921C27.6342 45.9367 27.5778 45.9551 27.531 45.9891C27.4841 46.0231 27.4493 46.0711 27.4314 46.1262C27.4135 46.1812 27.4135 46.2405 27.4314 46.2956C27.4493 46.3507 27.4841 46.3987 27.531 46.4327L29.8404 48.1106C29.8872 48.1446 29.9221 48.1926 29.94 48.2476C29.9579 48.3027 29.9579 48.362 29.94 48.4171L29.0579 51.1319C29.04 51.1869 29.04 51.2463 29.0579 51.3013C29.0757 51.3564 29.1106 51.4044 29.1574 51.4384C29.2043 51.4724 29.2607 51.4907 29.3186 51.4907C29.3765 51.4907 29.4329 51.4724 29.4797 51.4384L31.7891 49.7605C31.836 49.7265 31.8924 49.7081 31.9503 49.7081C32.0082 49.7081 32.0646 49.7265 32.1114 49.7605L34.4208 51.4384C34.4676 51.4724 34.5241 51.4907 34.5819 51.4907C34.6398 51.4907 34.6962 51.4724 34.7431 51.4384C34.7899 51.4044 34.8248 51.3564 34.8427 51.3013C34.8606 51.2463 34.8606 51.1869 34.8427 51.1319L33.9606 48.417C33.9427 48.362 33.9427 48.3027 33.9606 48.2476C33.9785 48.1926 34.0133 48.1446 34.0602 48.1106Z" fill="#30D0C0"/>
<path d="M58.0432 65.1035H40.73V66.6333H58.0432V65.1035Z" fill="#D7E9FF"/>
<path d="M75.3565 61.9292H40.73V63.4589H75.3565V61.9292Z" fill="#D7E9FF"/>
<path d="M75.3565 58.7549H40.73V60.2846H75.3565V58.7549Z" fill="#D7E9FF"/>
<path d="M34.0602 63.6371L36.3696 61.9593C36.4164 61.9252 36.4513 61.8772 36.4692 61.8222C36.487 61.7671 36.487 61.7078 36.4692 61.6527C36.4513 61.5977 36.4164 61.5497 36.3696 61.5157C36.3227 61.4816 36.2663 61.4633 36.2084 61.4633H33.3538C33.2959 61.4633 33.2395 61.445 33.1927 61.411C33.1459 61.3769 33.111 61.329 33.0931 61.2739L32.211 58.5591C32.1931 58.504 32.1582 58.456 32.1114 58.422C32.0646 58.388 32.0082 58.3696 31.9503 58.3696C31.8924 58.3696 31.836 58.388 31.7891 58.422C31.7423 58.456 31.7074 58.504 31.6895 58.5591L30.8074 61.2739C30.7895 61.329 30.7547 61.377 30.7078 61.411C30.661 61.445 30.6046 61.4634 30.5467 61.4634H27.6921C27.6342 61.4634 27.5778 61.4817 27.531 61.5157C27.4841 61.5497 27.4493 61.5977 27.4314 61.6528C27.4135 61.7078 27.4135 61.7672 27.4314 61.8222C27.4493 61.8773 27.4841 61.9253 27.531 61.9593L29.8404 63.6372C29.8872 63.6712 29.9221 63.7192 29.94 63.7742C29.9579 63.8293 29.9579 63.8886 29.94 63.9437L29.0579 66.6585C29.04 66.7136 29.04 66.7729 29.0579 66.828C29.0757 66.883 29.1106 66.931 29.1574 66.965C29.2043 66.9991 29.2607 67.0174 29.3186 67.0174C29.3765 67.0174 29.4329 66.9991 29.4797 66.965L31.7891 65.2871C31.836 65.2531 31.8924 65.2348 31.9503 65.2348C32.0082 65.2348 32.0646 65.2531 32.1114 65.2871L34.4208 66.965C34.4676 66.9991 34.5241 67.0174 34.5819 67.0174C34.6398 67.0174 34.6962 66.9991 34.7431 66.965C34.7899 66.931 34.8248 66.883 34.8427 66.828C34.8606 66.7729 34.8606 66.7136 34.8427 66.6585L33.9606 63.9437C33.9427 63.8886 33.9427 63.8293 33.9606 63.7742C33.9784 63.7192 34.0133 63.6712 34.0602 63.6371Z" fill="#30D0C0"/>
<path d="M58.0432 80.6299H40.73V82.1596H58.0432V80.6299Z" fill="#D7E9FF"/>
<path d="M75.3565 77.4556H40.73V78.9853H75.3565V77.4556Z" fill="#D7E9FF"/>
<path d="M75.3565 74.2812H40.73V75.811H75.3565V74.2812Z" fill="#D7E9FF"/>
<path d="M34.0602 79.1635L36.3696 77.4857C36.4164 77.4516 36.4513 77.4036 36.4692 77.3486C36.487 77.2935 36.487 77.2342 36.4692 77.1792C36.4513 77.1241 36.4164 77.0761 36.3696 77.0421C36.3227 77.0081 36.2663 76.9897 36.2084 76.9897H33.3538C33.2959 76.9897 33.2395 76.9714 33.1927 76.9374C33.1459 76.9033 33.111 76.8554 33.0931 76.8003L32.211 74.0854C32.1931 74.0304 32.1582 73.9824 32.1114 73.9484C32.0646 73.9143 32.0082 73.896 31.9503 73.896C31.8924 73.896 31.836 73.9143 31.7891 73.9484C31.7423 73.9824 31.7074 74.0304 31.6895 74.0854L30.8074 76.8003C30.7895 76.8554 30.7547 76.9033 30.7078 76.9374C30.661 76.9714 30.6046 76.9897 30.5467 76.9897H27.6921C27.6342 76.9897 27.5778 77.0081 27.531 77.0421C27.4841 77.0761 27.4493 77.1241 27.4314 77.1792C27.4135 77.2342 27.4135 77.2935 27.4314 77.3486C27.4493 77.4036 27.4841 77.4516 27.531 77.4857L29.8404 79.1635C29.8872 79.1976 29.9221 79.2456 29.94 79.3006C29.9579 79.3557 29.9579 79.415 29.94 79.47L29.0579 82.1849C29.04 82.24 29.04 82.2993 29.0579 82.3543C29.0757 82.4094 29.1106 82.4574 29.1574 82.4914C29.2043 82.5254 29.2607 82.5438 29.3186 82.5438C29.3765 82.5438 29.4329 82.5254 29.4797 82.4914L31.7891 80.8135C31.836 80.7795 31.8924 80.7612 31.9503 80.7612C32.0082 80.7612 32.0646 80.7795 32.1114 80.8135L34.4208 82.4914C34.4676 82.5254 34.5241 82.5437 34.5819 82.5437C34.6398 82.5437 34.6962 82.5254 34.7431 82.4914C34.7899 82.4574 34.8248 82.4094 34.8427 82.3543C34.8606 82.2993 34.8606 82.24 34.8427 82.1849L33.9606 79.4701C33.9427 79.415 33.9427 79.3557 33.9606 79.3006C33.9784 79.2456 34.0133 79.1976 34.0602 79.1635Z" fill="#30D0C0"/>
<path d="M92.5607 79.4102V102.672C92.5607 102.851 92.5049 103.025 92.4013 103.17C92.2976 103.315 92.1512 103.425 91.9824 103.483C91.8136 103.541 91.631 103.544 91.4599 103.494C91.2888 103.443 91.1378 103.34 91.0281 103.199L82.7104 92.5332C82.6303 92.4304 82.5278 92.3473 82.4107 92.2901C82.2936 92.233 82.165 92.2033 82.0347 92.2033C81.9044 92.2033 81.7758 92.233 81.6588 92.2901C81.5417 92.3473 81.4392 92.4304 81.359 92.5332L73.0414 103.199C72.9316 103.34 72.7807 103.443 72.6096 103.494C72.4385 103.544 72.2558 103.541 72.0871 103.483C71.9183 103.425 71.7719 103.315 71.6682 103.17C71.5645 103.025 71.5088 102.851 71.5088 102.672V79.4102" fill="#30D0C0"/>
<path d="M92.5607 79.4102V102.672C92.5607 102.851 92.5049 103.025 92.4013 103.17C92.2976 103.315 92.1512 103.425 91.9824 103.483C91.8136 103.541 91.631 103.544 91.4599 103.494C91.2888 103.443 91.1378 103.34 91.0281 103.199L82.7104 92.5332C82.6303 92.4304 82.5278 92.3473 82.4107 92.2901C82.2936 92.233 82.165 92.2033 82.0347 92.2033C81.9044 92.2033 81.7758 92.233 81.6588 92.2901C81.5417 92.3473 81.4392 92.4304 81.359 92.5332L73.0414 103.199C72.9316 103.34 72.7807 103.443 72.6096 103.494C72.4385 103.544 72.2558 103.541 72.0871 103.483C71.9183 103.425 71.7719 103.315 71.6682 103.17C71.5645 103.025 71.5088 102.851 71.5088 102.672V79.4102" stroke="#0E65E5" stroke-width="0.75" stroke-linecap="round" stroke-linejoin="round"/>
<path d="M99.8324 68.3618C99.8324 70.0786 95.8864 71.1504 95.3834 72.6996C94.8621 74.3051 97.4061 77.4884 96.4335 78.8248C95.4512 80.1746 91.6311 78.7333 90.2814 79.7156C88.945 80.6881 89.1411 84.7714 87.5356 85.2927C85.9864 85.7957 83.7515 82.3934 82.0346 82.3934C80.3177 82.3934 78.0828 85.7957 76.5336 85.2927C74.9281 84.7713 75.1241 80.6881 73.7877 79.7155C72.438 78.7332 68.6179 80.1745 67.6356 78.8247C66.6631 77.4883 69.2071 74.3051 68.6858 72.6996C68.1828 71.1504 64.2368 70.0786 64.2368 68.3618C64.2368 66.6449 68.1828 65.5731 68.6858 64.024C69.2071 62.4184 66.6631 59.2351 67.6357 57.8987C68.6181 56.549 72.4381 57.9903 73.7879 57.008C75.1242 56.0354 74.9282 51.9522 76.5337 51.4309C78.0828 50.9279 80.3177 54.3302 82.0346 54.3302C83.7514 54.3302 85.9864 50.9279 87.5355 51.4309C89.1411 51.9522 88.9451 56.0355 90.2815 57.0081C91.6312 57.9904 95.4513 56.5491 96.4336 57.8989C97.4061 59.2352 94.8621 62.4185 95.3834 64.024C95.8864 65.5731 99.8324 66.645 99.8324 68.3618Z" fill="#D7E9FF" stroke="#0E65E5" stroke-width="0.75" stroke-miterlimit="10"/>
<path d="M93.63 68.3618C93.63 69.4804 91.0591 70.1786 90.7314 71.1879C90.3918 72.2339 92.0492 74.3078 91.4156 75.1785C90.7756 76.0579 88.2868 75.1189 87.4075 75.7588C86.5368 76.3924 86.6646 79.0527 85.6186 79.3923C84.6093 79.72 83.1533 77.5034 82.0347 77.5034C80.9162 77.5034 79.4601 79.72 78.4509 79.3923C77.4049 79.0527 77.5326 76.3924 76.6619 75.7588C75.7825 75.1188 73.2938 76.0578 72.6538 75.1784C72.0202 74.3078 73.6776 72.2339 73.338 71.1879C73.0103 70.1787 70.4395 69.4804 70.4395 68.3618C70.4395 67.2433 73.0103 66.545 73.338 65.5358C73.6776 64.4898 72.0202 62.4159 72.6539 61.5452C73.2939 60.6658 75.7826 61.6048 76.662 60.9649C77.5326 60.3313 77.4049 57.671 78.4509 57.3314C79.4601 57.0037 80.9162 59.2203 82.0347 59.2203C83.1532 59.2203 84.6093 57.0037 85.6186 57.3314C86.6646 57.671 86.5369 60.3313 87.4076 60.9649C88.2869 61.6049 90.7757 60.6659 91.4156 61.5453C92.0493 62.4159 90.3918 64.4898 90.7314 65.5358C91.0591 66.545 93.63 67.2433 93.63 68.3618Z" fill="white" stroke="#0E65E5" stroke-width="0.75" stroke-miterlimit="10"/>
<path d="M77.8867 69.4169L81.4797 72.6969L87.2527 65.5959" stroke="#00D1BF" stroke-width="1.96345" stroke-linecap="round" stroke-linejoin="round"/>
</svg>
