<svg width="487" height="329" viewBox="0 0 487 329" fill="none" xmlns="http://www.w3.org/2000/svg">
<path fill-rule="evenodd" clip-rule="evenodd" d="M119.697 322.748C126.072 326.39 134.35 328.167 142.642 328.167C150.912 328.167 159.212 326.296 165.486 322.59L476.705 140.795C483.023 137.103 486.496 132.145 486.474 126.747C486.452 121.35 482.901 116.348 476.475 112.664L366.799 49.8081C354.134 42.5394 333.559 42.5898 320.995 49.9376L9.77602 231.732C3.45078 235.453 0 240.411 0 245.809C0 251.206 3.60207 256.201 9.99935 259.893L119.697 322.748ZM322.393 52.4061C328.286 48.9661 336.044 47.2101 343.825 47.2101C351.605 47.1885 359.4 48.8797 365.358 52.2981L475.034 115.146C480.516 118.306 483.628 122.48 483.643 126.791C483.657 131.101 480.689 135.218 475.272 138.384L164.053 320.179C152.267 327.066 132.988 327.117 121.087 320.294L11.4114 257.439C5.90019 254.279 2.86004 250.113 2.83843 245.802C2.81682 241.491 5.76331 237.367 11.1736 234.201L322.393 52.4061Z" fill="url(#paint0_linear)"/>
<path d="M70.4421 270.206C69.888 270.207 69.3558 269.989 68.9627 269.599C68.5695 269.209 68.3476 268.679 68.3457 268.126L68.2376 227.414C68.2365 226.67 68.6317 225.982 69.275 225.608L126.332 192.503C126.977 192.131 127.772 192.13 128.417 192.501C129.063 192.872 129.463 193.558 129.466 194.302L129.581 234.964C129.581 236.116 128.646 237.051 127.492 237.051C126.338 237.051 125.402 236.116 125.402 234.964L125.302 197.908L72.416 228.566L72.5241 268.068C72.5377 268.629 72.3245 269.172 71.9328 269.574C71.5411 269.976 71.0038 270.204 70.4421 270.206Z" fill="url(#paint1_linear)"/>
<path d="M136.699 200.758L234.632 143.544L333.516 200.218L235.583 257.424L136.699 200.758Z" fill="url(#paint2_linear)"/>
<path d="M150.127 125.927L248.06 68.7136L248.053 151.245L150.12 208.458L150.127 125.927Z" fill="url(#paint3_linear)"/>
<path d="M136.691 87.4321L150.127 125.927L150.12 208.458L136.684 200.758L136.691 87.4321Z" fill="url(#paint4_linear)"/>
<path d="M128.061 255.935L251.18 184.472L251.252 197.908L128.133 269.371C124.905 271.242 122.276 269.752 122.254 266.046C122.233 262.34 124.841 257.806 128.061 255.935Z" fill="url(#paint5_linear)"/>
<path d="M125.799 266.636C125.759 266.432 125.74 266.225 125.741 266.017C125.741 263.556 127.672 260.181 129.811 258.936L247.736 190.495V195.915L126.389 266.363C126.203 266.474 126.005 266.566 125.799 266.636Z" fill="#DDDCF9"/>
<path d="M186.479 146.409L62.993 218.059C62.7913 218.174 62.5896 218.31 62.3879 218.447L62.1934 218.591L61.7971 218.893L61.581 219.073L61.228 219.383L61.0119 219.584L60.875 219.707L60.7381 219.851L60.3203 220.304L60.1834 220.448L60.0753 220.577L59.8304 220.88L59.6719 221.074L59.5494 221.239L59.3765 221.477L59.2541 221.643L59.0596 221.93L58.9371 222.117L58.8867 222.197C58.7762 222.374 58.6681 222.554 58.5625 222.736V222.772L58.5048 222.88L58.2887 223.269L58.1951 223.456L58.1014 223.643L58.015 223.809C57.9429 223.96 57.8781 224.111 57.8132 224.255L57.7772 224.334C57.6956 224.521 57.6187 224.711 57.5467 224.903L57.5107 225.011L57.4386 225.219L57.3378 225.5L57.2729 225.723L57.1937 225.982L57.1433 226.14C57.1433 226.241 57.1 226.335 57.0712 226.435C57.0424 226.536 57.0136 226.651 56.992 226.759V226.874C56.992 226.954 56.992 227.033 56.9559 227.105C56.9199 227.177 56.8911 227.443 56.8695 227.609C56.8695 227.652 56.8695 227.702 56.8695 227.745C56.8695 227.788 56.8695 227.954 56.8695 228.062C56.8695 228.17 56.8695 228.213 56.8695 228.285C56.8695 228.522 56.8695 228.753 56.8695 229.005V229.365C56.8695 231.365 57.5899 232.769 58.7282 233.423L123.421 270.745C122.283 270.09 121.57 268.68 121.563 266.686V266.327C121.563 266.096 121.563 265.859 121.563 265.607C121.563 265.535 121.563 265.456 121.563 265.384C121.563 265.312 121.563 265.081 121.613 264.923C121.664 264.765 121.664 264.585 121.7 264.419C121.736 264.254 121.743 264.189 121.764 264.074C121.786 263.959 121.815 263.858 121.844 263.75C121.872 263.642 121.923 263.448 121.966 263.297L122.045 263.038C122.098 262.87 122.153 262.699 122.211 262.527L122.283 262.318C122.37 262.088 122.463 261.85 122.564 261.598V261.519C122.658 261.31 122.751 261.109 122.852 260.9L122.946 260.713C123.047 260.521 123.15 260.332 123.256 260.145L123.313 260.037C123.438 259.816 123.57 259.6 123.71 259.389L123.832 259.202L124.149 258.748L124.322 258.511L124.61 258.144L124.855 257.842L125.093 257.568L125.518 257.115L125.784 256.849L126 256.647L126.353 256.338L126.57 256.158L126.966 255.855L127.16 255.711C127.362 255.575 127.564 255.445 127.765 255.323L251.259 183.644L186.479 146.409Z" fill="url(#paint6_linear)"/>
<path d="M127.513 264.117C128.071 262.518 129.117 261.134 130.503 260.159L246.382 192.87V195.087L127.513 264.117Z" fill="url(#paint7_linear)"/>
<path d="M251.18 183.731V184.45L128.061 255.913C124.833 257.784 122.233 262.311 122.254 265.988C122.276 269.666 124.905 271.184 128.133 269.313L251.259 197.908V198.628L127.765 270.306C124.264 272.336 121.411 270.724 121.39 266.708V266.348C121.39 262.325 124.185 257.417 127.686 255.388L251.18 183.731Z" fill="#DDDCF9"/>
<path d="M133.824 213.964L133.947 229.048L128.853 226.126L128.774 216.914L112.846 216.957L107.752 214.036L133.824 213.964Z" fill="#DDDCF9"/>
<path d="M112.385 226.486L112.514 241.57L107.421 238.648L107.342 229.436L91.4134 229.48L86.32 226.558L112.385 226.486Z" fill="white"/>
<path d="M155.256 201.442L155.386 216.526L150.286 213.604L150.206 204.392L134.285 204.435L129.192 201.513L155.256 201.442Z" fill="#DDDCF9"/>
<path d="M198.128 176.397L198.251 191.481L193.157 188.559L193.078 179.348L177.157 179.391L172.057 176.469L198.128 176.397Z" fill="white"/>
<path d="M176.689 188.919L176.818 204.003L171.725 201.082L171.646 191.87L155.718 191.913L150.624 188.991L176.689 188.919Z" fill="#DDDCF9"/>
<path d="M219.561 163.875L219.69 178.959L214.597 176.037L214.511 166.826L198.589 166.869L193.496 163.947L219.561 163.875Z" fill="white"/>
<path d="M240.993 151.353L241.123 166.437L236.029 163.515L235.95 154.303L220.022 154.347L214.928 151.425L240.993 151.353Z" fill="#DDDCF9"/>
<path d="M127.946 257.122C125.077 258.994 123.277 262.123 123.104 265.542C123.104 268.629 125.316 269.86 128.003 268.313C130.871 266.438 132.668 263.305 132.837 259.886C132.83 256.805 130.64 255.568 127.946 257.122Z" fill="#DDDCF9"/>
<path d="M146.964 246.126C144.096 247.997 142.296 251.127 142.123 254.546C142.123 257.633 144.335 258.864 147.022 257.316C149.89 255.442 151.687 252.309 151.856 248.889C151.849 245.78 149.659 244.535 146.964 246.126Z" fill="#DDDCF9"/>
<path d="M165.983 235.072C163.115 236.943 161.315 240.073 161.142 243.492C161.142 246.579 163.354 247.81 166.041 246.262C168.909 244.388 170.706 241.255 170.875 237.835C170.868 234.755 168.678 233.51 165.983 235.072Z" fill="#DDDCF9"/>
<path d="M185.002 224.046C182.133 225.918 180.334 229.048 180.161 232.466C180.161 235.554 182.373 236.784 185.06 235.237C187.928 233.362 189.725 230.23 189.894 226.81C189.887 223.73 187.697 222.485 185.002 224.046Z" fill="#DDDCF9"/>
<path d="M204.021 213.021C201.152 214.893 199.353 218.022 199.18 221.441C199.18 224.528 201.392 225.759 204.079 224.212C206.948 222.34 208.747 219.21 208.92 215.792C208.92 212.704 206.716 211.459 204.021 213.021Z" fill="#DDDCF9"/>
<path d="M223.04 201.996C220.171 203.867 218.372 206.997 218.199 210.416C218.199 213.503 220.411 214.734 223.098 213.186C225.966 211.312 227.763 208.179 227.932 204.759C227.925 201.679 225.735 200.434 223.04 201.996Z" fill="#DDDCF9"/>
<path d="M125.828 268.298C124.574 268.298 123.818 267.269 123.81 265.542C123.973 262.369 125.644 259.465 128.306 257.727C128.858 257.378 129.491 257.177 130.143 257.144C131.396 257.144 132.146 258.173 132.16 259.9C131.997 263.073 130.327 265.977 127.665 267.715C127.113 268.064 126.48 268.265 125.828 268.298Z" fill="url(#paint8_linear)"/>
<path d="M144.846 257.273C143.593 257.273 142.837 256.244 142.829 254.517C142.992 251.344 144.663 248.44 147.325 246.701C147.867 246.361 148.486 246.163 149.126 246.126C150.379 246.126 151.128 247.155 151.143 248.882C150.982 252.053 149.314 254.957 146.655 256.697C146.103 257.046 145.47 257.247 144.818 257.28L144.846 257.273Z" fill="url(#paint9_linear)"/>
<path d="M163.865 246.248C162.612 246.248 161.855 245.219 161.848 243.492C162.011 240.319 163.682 237.414 166.344 235.676C166.896 235.327 167.528 235.127 168.181 235.093C169.434 235.093 170.183 236.122 170.198 237.849C170.033 241.024 168.36 243.928 165.695 245.665C165.143 246.014 164.511 246.215 163.858 246.248H163.865Z" fill="url(#paint10_linear)"/>
<path d="M182.884 235.223C181.631 235.223 180.874 234.194 180.867 232.466C181.03 229.293 182.701 226.389 185.363 224.651C185.915 224.302 186.547 224.101 187.2 224.068C188.453 224.068 189.202 225.097 189.217 226.817C189.047 229.982 187.378 232.877 184.721 234.611C184.169 234.96 183.537 235.161 182.884 235.194V235.223Z" fill="url(#paint11_linear)"/>
<path d="M201.903 224.197C200.65 224.197 199.893 223.168 199.886 221.441C200.049 218.268 201.719 215.364 204.382 213.625C204.934 213.277 205.566 213.076 206.219 213.043C207.472 213.043 208.221 214.072 208.236 215.792C208.075 218.963 206.407 221.867 203.748 223.607C203.196 223.956 202.563 224.157 201.91 224.19L201.903 224.197Z" fill="url(#paint12_linear)"/>
<path d="M220.922 213.172C219.669 213.172 218.912 212.143 218.905 210.416C219.068 207.243 220.738 204.339 223.4 202.6C223.953 202.251 224.585 202.051 225.238 202.017C226.491 202.017 227.24 203.046 227.255 204.766C227.093 207.938 225.426 210.842 222.766 212.582C222.215 212.931 221.582 213.132 220.929 213.165L220.922 213.172Z" fill="url(#paint13_linear)"/>
<path d="M246.266 180.895L122.917 252.653L122.571 252.854C116.232 256.64 116.088 263.412 116.498 266.888L115.057 266.039C114.791 262.102 115.446 255.719 121.541 251.861L121.865 251.66L244.876 180.103L246.266 180.895Z" fill="#DDDCF9"/>
<path d="M192.79 150.05L69.4479 221.808L69.1021 222.01C62.7625 225.795 62.6184 232.567 63.029 236.043L61.5882 235.194C61.3217 231.257 61.9772 224.874 68.0719 221.016L68.3961 220.815L191.407 149.259L192.79 150.05Z" fill="#DDDCF9"/>
<path d="M235.575 144.099L235.568 257.424L222.133 249.731L222.14 167.2L235.575 144.099Z" fill="url(#paint14_linear)"/>
<path d="M136.691 87.4321L235.575 144.099L222.14 167.2L150.127 125.927L136.691 87.4321Z" fill="url(#paint15_linear)"/>
<path d="M425.527 83.3012C428.755 81.4301 431.384 82.9198 431.406 86.6261C431.427 90.3323 428.834 94.859 425.599 96.7014L303.892 167.38C303.114 167.833 302.451 167.473 302.451 166.581L302.394 156.383C302.444 155.396 302.963 154.492 303.791 153.951L425.527 83.3012Z" fill="url(#paint16_linear)"/>
<path d="M429.799 86.3598C429.747 85.8859 429.57 85.4342 429.288 85.05L422.451 89.0226L410.283 96.0825L403.432 100.084L391.286 107.129L384.406 111.124L372.274 118.169L365.372 122.17L353.255 129.202L346.346 133.21L334.272 140.248L332.457 141.299C330.095 142.92 328.597 145.525 328.386 148.381C328.386 148.588 328.405 148.795 328.444 149C328.652 148.925 328.852 148.831 329.042 148.719L333.905 145.898L345.964 138.895L352.902 134.865L364.976 127.863L371.921 123.826L383.981 116.802L390.94 112.757L403.007 105.791L409.98 101.739L422.004 94.7583L428.999 90.6994C429.298 90.0619 429.525 89.3934 429.677 88.7059C429.791 88.1981 429.849 87.6792 429.85 87.1587C429.854 86.8915 429.837 86.6243 429.799 86.3598Z" fill="#DDDCF9"/>
<path d="M429.857 87.1227C429.856 87.6432 429.798 88.1621 429.684 88.67L421.55 93.391L410.636 99.7097L402.517 104.431L391.617 110.749L383.505 115.463L372.598 121.782L364.53 126.503L353.623 132.829L345.511 137.542L334.611 143.868L330.166 146.445C330.723 144.845 331.769 143.461 333.156 142.487L334.748 141.565L345.662 135.232L353.723 130.533L364.645 124.2L372.757 119.464L383.678 113.131L391.768 108.432L402.712 102.121L410.802 97.4283L421.738 91.0881L429.799 86.3599C429.838 86.6123 429.857 86.8673 429.857 87.1227Z" fill="url(#paint17_linear)"/>
<path d="M330.569 139.478C327.7 141.35 325.901 144.48 325.728 147.898C325.728 150.986 327.94 152.216 330.627 150.669C333.495 148.794 335.292 145.662 335.461 142.242C335.446 139.162 333.256 137.917 330.569 139.478Z" fill="#DDDCF9"/>
<path d="M349.588 128.453C346.719 130.325 344.92 133.454 344.747 136.873C344.747 139.96 346.959 141.191 349.646 139.644C352.514 137.769 354.311 134.636 354.48 131.216C354.444 128.1 352.283 126.891 349.588 128.453Z" fill="#DDDCF9"/>
<path d="M368.607 117.428C365.738 119.299 363.939 122.429 363.766 125.848C363.766 128.935 365.978 130.166 368.665 128.619C371.535 126.742 373.332 123.607 373.499 120.184C373.484 117.111 371.294 115.866 368.607 117.428Z" fill="#DDDCF9"/>
<path d="M387.626 106.402C384.757 108.274 382.958 111.404 382.785 114.823C382.785 117.91 384.997 119.141 387.684 117.593C390.552 115.718 392.349 112.586 392.518 109.166C392.503 106.086 390.313 104.841 387.626 106.402Z" fill="#DDDCF9"/>
<path d="M406.645 95.3773C403.776 97.249 401.977 100.379 401.804 103.797C401.804 106.885 404.015 108.115 406.703 106.568C409.571 104.693 411.368 101.561 411.537 98.1408C411.522 95.0534 409.332 93.8156 406.645 95.3773Z" fill="#DDDCF9"/>
<path d="M425.664 84.352C422.795 86.2237 420.996 89.3534 420.823 92.772C420.823 95.8594 423.034 97.09 425.722 95.5428C428.59 93.668 430.387 90.5353 430.556 87.1155C430.541 84.0281 428.351 82.7615 425.664 84.352Z" fill="#DDDCF9"/>
<path d="M328.444 150.655C327.191 150.655 326.434 149.626 326.427 147.898C326.59 144.725 328.26 141.821 330.922 140.083C331.474 139.734 332.107 139.533 332.759 139.5C334.013 139.5 334.762 140.529 334.776 142.256C334.615 145.428 332.948 148.332 330.288 150.072C329.736 150.421 329.104 150.621 328.451 150.655H328.444Z" fill="url(#paint18_linear)"/>
<path d="M347.463 139.615C346.209 139.615 345.453 138.586 345.446 136.859C345.609 133.686 347.279 130.782 349.941 129.043C350.493 128.694 351.126 128.493 351.778 128.46C353.032 128.46 353.781 129.489 353.795 131.217C353.634 134.388 351.967 137.292 349.307 139.032C348.755 139.381 348.123 139.582 347.47 139.615H347.463Z" fill="url(#paint19_linear)"/>
<path d="M366.482 128.604C365.228 128.604 364.472 127.575 364.465 125.848C364.624 122.674 366.292 119.767 368.953 118.025C369.505 117.676 370.138 117.476 370.79 117.442C372.043 117.442 372.793 118.471 372.807 120.198C372.646 123.37 370.978 126.274 368.319 128.014C367.767 128.363 367.134 128.564 366.482 128.597V128.604Z" fill="url(#paint20_linear)"/>
<path d="M385.501 117.572C384.247 117.572 383.491 116.543 383.484 114.815C383.647 111.642 385.317 108.738 387.979 107C388.531 106.651 389.164 106.45 389.816 106.417C391.07 106.417 391.819 107.446 391.833 109.166C391.672 112.338 390.004 115.242 387.345 116.982C386.793 117.33 386.16 117.531 385.508 117.564L385.501 117.572Z" fill="url(#paint21_linear)"/>
<path d="M404.52 106.546C403.266 106.546 402.51 105.517 402.503 103.79C402.665 100.617 404.336 97.7129 406.998 95.9745C407.55 95.6259 408.183 95.4251 408.835 95.3916C410.089 95.3916 410.838 96.4207 410.852 98.1407C410.691 101.312 409.023 104.216 406.364 105.956C405.812 106.305 405.179 106.506 404.527 106.539L404.52 106.546Z" fill="url(#paint22_linear)"/>
<path d="M429.857 87.1227C429.856 87.6432 429.798 88.1621 429.684 88.67C429.099 91.2351 427.552 93.4785 425.361 94.9383C424.81 95.2875 424.177 95.4883 423.524 95.5212C422.912 95.54 422.335 95.2368 422.004 94.7224C421.751 94.3194 421.593 93.8641 421.543 93.391C421.52 93.1831 421.508 92.9741 421.507 92.7649C421.507 92.1928 421.575 91.6227 421.709 91.0665C422.332 88.5567 423.874 86.3715 426.031 84.9421C426.584 84.594 427.216 84.3933 427.868 84.3592C428.439 84.3434 428.98 84.6135 429.309 85.0788C429.592 85.463 429.768 85.9147 429.821 86.3886C429.851 86.6321 429.863 86.8774 429.857 87.1227Z" fill="url(#paint23_linear)"/>
<path d="M425.894 82.3441C429.396 80.3146 432.249 81.9267 432.27 85.9424V86.3022C432.27 90.3252 429.475 95.2333 425.974 97.2627L303.9 168.128C303.121 168.582 302.459 168.222 302.459 167.322V166.603C302.459 167.495 303.1 167.855 303.9 167.401L425.606 96.759C428.834 94.8879 431.434 90.3612 431.413 86.6837C431.391 83.0062 428.762 81.4805 425.534 83.3588L303.82 153.944C302.992 154.485 302.473 155.389 302.423 156.376V155.656C302.473 154.669 302.992 153.765 303.82 153.224L425.894 82.3441Z" fill="white"/>
<path d="M430.411 81.8907C430.278 81.8124 430.138 81.745 429.994 81.6892H429.893C429.777 81.6484 429.659 81.6148 429.54 81.5884H429.432C429.277 81.5556 429.121 81.534 428.963 81.5237H428.459H428.272L427.94 81.574L427.674 81.6316L427.393 81.718C427.249 81.7612 427.098 81.8187 426.939 81.8691L426.629 81.9986L426.485 82.0706C426.291 82.1642 426.096 82.2577 425.902 82.3729L421.197 79.6525L419.8 78.8465L361.223 45.0222C361.417 44.9071 361.612 44.8135 361.799 44.72L361.95 44.648L362.102 44.5688L362.26 44.5185C362.412 44.4537 362.556 44.4033 362.707 44.3601L362.851 44.3098H362.988L363.247 44.2522H363.406H363.579H363.773H363.874H364.292C364.42 44.2593 364.547 44.2738 364.674 44.2954H364.738H364.847L365.034 44.3386L365.192 44.3961L365.3 44.4393H365.365C365.466 44.4897 365.581 44.5329 365.682 44.5904L422.775 77.5295L425.016 78.8249L430.411 81.8907Z" fill="url(#paint24_linear)"/>
<path d="M425.894 82.3369L303.813 153.195L299.231 150.554L297.848 149.755L239.12 115.866L361.201 45.0222L419.778 78.8465L421.176 79.6525L425.894 82.3369Z" fill="url(#paint25_linear)"/>
<path d="M425.044 78.7961C423.703 78.6185 422.342 78.9082 421.19 79.6165L420.83 79.818C393.519 95.4132 318.661 139.198 299.246 150.547L297.862 149.748C316.067 139.097 391.855 94.7655 419.793 78.8033L420.138 78.609C420.965 78.0989 421.867 77.7224 422.811 77.4935L425.044 78.7961Z" fill="#DDDCF9"/>
<path d="M371.107 47.6778C369.766 47.5002 368.405 47.79 367.253 48.4983L366.893 48.6998C339.574 64.3021 264.716 108.087 245.301 119.464L243.918 118.666C262.123 108.015 337.91 63.6832 365.848 47.721L366.194 47.5267C367.014 47.0104 367.912 46.6267 368.852 46.3896L371.107 47.6778Z" fill="#DDDCF9"/>
<path d="M285.342 127.258L285.464 142.343L280.371 139.421L280.292 130.209L264.37 130.252L259.27 127.33L285.342 127.258Z" fill="#DDDCF9"/>
<path d="M263.902 139.781L264.032 154.865L258.938 151.943L258.859 142.731L242.931 142.774L237.838 139.853L263.902 139.781Z" fill="#DDDCF9"/>
<path d="M306.774 114.736L306.904 129.82L301.81 126.899L301.724 117.687L285.803 117.73L280.709 114.808L306.774 114.736Z" fill="#DDDCF9"/>
<path d="M349.646 89.6919L349.768 104.776L344.675 101.854L344.596 92.6425L328.675 92.6857L323.581 89.7639L349.646 89.6919Z" fill="white"/>
<path d="M328.206 102.214L328.336 117.298L323.243 114.376L323.163 105.165L307.235 105.208L302.142 102.286L328.206 102.214Z" fill="#DDDCF9"/>
<path d="M371.078 77.1697L371.208 92.2539L366.115 89.332L366.028 80.1203L350.107 80.1635L345.014 77.2416L371.078 77.1697Z" fill="#DDDCF9"/>
<path d="M392.518 64.6476L392.64 79.7318L387.547 76.8099L387.468 67.5982L371.539 67.6342L366.446 64.7195L392.518 64.6476Z" fill="#DDDCF9"/>
<path d="M395.19 73.341V80.4585C395.19 83.3804 393.843 86.3382 391.019 89.0082C382.835 96.7517 365.358 99.1914 351.98 94.456C350.184 93.8287 348.448 93.0411 346.793 92.1027C341.339 88.9794 338.4 84.7405 338.4 80.4225V73.3051C338.4 77.623 341.339 81.8619 346.793 84.9852C348.448 85.9236 350.184 86.7112 351.98 87.3385C365.358 92.0739 382.835 89.6343 391.019 81.8907C393.843 79.2135 395.19 76.2845 395.19 73.341Z" fill="url(#paint26_linear)"/>
<path d="M395.003 75.1978C394.897 75.7367 394.748 76.2662 394.556 76.781C394.358 77.3336 394.117 77.8701 393.836 78.3859C393.5 78.9777 393.12 79.5431 392.698 80.0771C392.191 80.7193 391.637 81.323 391.041 81.8834L390.911 82.0058C389.806 83.0257 388.599 83.93 387.309 84.7045C385.264 85.9167 383.089 86.8944 380.825 87.6192C379.054 88.1931 377.247 88.6476 375.415 88.9793C374.219 89.1952 373.002 89.368 371.77 89.4975C370.732 89.6031 369.685 89.675 368.629 89.7134C367.668 89.747 366.708 89.747 365.747 89.7134C364.787 89.6798 363.862 89.6318 362.973 89.5695C362.056 89.4975 361.144 89.3991 360.236 89.2744C359.328 89.1497 358.394 88.9889 357.434 88.7922C356.425 88.5859 355.431 88.346 354.451 88.0726C353.635 87.8423 352.832 87.588 352.045 87.3097L350.979 86.9139C349.558 86.3644 348.181 85.7101 346.858 84.9564C341.404 81.8331 338.465 77.5942 338.465 73.2762V80.3937C338.465 84.7117 341.404 88.9506 346.858 92.0739C348.181 92.8275 349.558 93.4818 350.979 94.0314L352.045 94.4272C352.832 94.7055 353.635 94.9598 354.451 95.1901C355.412 95.4683 356.408 95.7082 357.441 95.9097C358.368 96.0968 359.302 96.2576 360.243 96.3919C361.184 96.5262 362.097 96.6246 362.981 96.687C363.903 96.7589 364.827 96.8069 365.754 96.8309C366.681 96.8549 367.642 96.8549 368.636 96.8309C369.693 96.7925 370.74 96.7205 371.777 96.615C373.009 96.4855 374.226 96.3127 375.422 96.0968C377.254 95.7652 379.062 95.3107 380.833 94.7367C383.097 94.0121 385.272 93.0344 387.316 91.822C388.606 91.0475 389.813 90.1432 390.918 89.1233L391.048 89.0009C391.644 88.4405 392.198 87.8368 392.705 87.1946C393.127 86.6605 393.507 86.0952 393.843 85.5034C394.124 84.9878 394.365 84.4512 394.564 83.8985C394.755 83.3837 394.904 82.8542 395.01 82.3152C395.116 81.7839 395.176 81.2446 395.19 80.7032V73.5857C395.174 74.1274 395.111 74.6666 395.003 75.1978Z" fill="url(#paint27_linear)"/>
<path d="M386.79 61.6537C395.932 66.8928 398.014 75.2625 391.012 81.8907C382.828 89.6343 365.351 92.0739 351.973 87.3385C350.177 86.7112 348.441 85.9236 346.786 84.9852C337.644 79.7461 335.562 71.3763 342.564 64.7482C350.741 57.0118 368.218 54.565 381.596 59.3004C383.395 59.9273 385.133 60.7149 386.79 61.6537Z" fill="url(#paint28_linear)"/>
<path d="M383.707 63.165C391.444 67.5982 393.202 74.6797 387.309 80.2859C380.386 86.8348 365.589 88.9219 354.271 84.8917C352.749 84.3605 351.278 83.6933 349.876 82.8983C342.139 78.4651 340.381 71.3836 346.274 65.7774C353.197 59.2285 367.988 57.1414 379.313 61.1716C380.834 61.7028 382.305 62.37 383.707 63.165Z" fill="white"/>
<path d="M382.792 63.6976C390.111 67.8932 391.776 74.5861 386.171 79.8972C379.622 86.0936 365.625 88.0439 354.919 84.2512C353.48 83.7488 352.089 83.1177 350.762 82.3657C343.443 78.17 341.779 71.4772 347.384 66.166C353.932 59.9697 367.923 58.0194 378.635 61.8121C380.075 62.3145 381.466 62.9456 382.792 63.6976Z" fill="url(#paint29_linear)"/>
<path fill-rule="evenodd" clip-rule="evenodd" d="M372.966 77.8102C370.69 79.5424 367.692 80.0081 364.998 79.048C364.282 78.7974 363.606 78.5063 362.921 78.2114L362.921 78.2114L362.921 78.2114C362.525 78.0406 362.125 77.8685 361.713 77.7022L361.511 77.6231C361.036 77.8912 360.507 78.197 359.967 78.5092L359.967 78.5093C359.376 78.8508 358.772 79.2 358.212 79.5158L356.23 78.3859C356.59 78.1757 356.976 77.9513 357.369 77.723C358.092 77.3024 358.838 76.8685 359.487 76.486L357.945 75.5504C357.387 75.8652 356.76 76.2285 356.129 76.594L356.129 76.5941C355.621 76.8886 355.11 77.1845 354.631 77.4575L352.65 76.3277L356 74.3846L352.023 72.0601L354.754 70.9302L356.079 71.6498C356.603 72.0063 357.292 72.0063 357.815 71.6498C360.311 70.2016 362.84 68.7476 365.354 67.3031L365.354 67.303L366.28 66.7705C366.95 66.3747 367.001 65.9501 366.338 65.5183C366.201 65.4319 366.057 65.3456 365.906 65.2592L365.596 65.0865C365.38 64.9426 365.12 64.7914 364.832 64.6331L366.936 63.4169C367.557 63.7806 368.172 64.1351 368.786 64.4889L368.787 64.489L368.787 64.4891C369.497 64.8982 370.205 65.3064 370.92 65.727C371.376 65.4697 371.911 65.1602 372.462 64.8417L372.462 64.8416C373.051 64.501 373.658 64.1501 374.205 63.8415L376.172 64.9642C375.636 65.2826 375.029 65.633 374.44 65.9733L374.44 65.9733C373.91 66.279 373.395 66.5765 372.958 66.8353L374.551 67.7421C374.929 67.5288 375.351 67.2831 375.789 67.0278C376.445 66.6457 377.139 66.242 377.778 65.8925L379.759 67.0224C379.438 67.2097 379.091 67.4109 378.738 67.6158L378.738 67.6159C377.953 68.0722 377.135 68.5471 376.488 68.9295C376.942 69.2821 377.382 69.6492 377.792 70.0018C378.327 70.4504 378.726 71.0384 378.945 71.7002C379.385 73.2259 376.352 75.2266 373.182 74.6508H372.98C373.244 74.9815 373.485 75.3302 373.7 75.6944C374.046 76.4716 373.787 77.1769 372.966 77.8102ZM365.25 76.4428C366.2 76.7043 367.213 76.599 368.088 76.1477C368.903 75.6656 369.032 75.097 368.622 74.4997C367.915 73.6247 367.024 72.9148 366.014 72.4199L364.717 71.7002L360.337 74.2118L361.317 74.7948C362.533 75.5511 363.86 76.1121 365.25 76.4572V76.4428ZM366.763 70.5272L370.682 68.2602L370.732 68.2674L371.835 68.8863C372.635 69.2763 373.339 69.8392 373.895 70.5344C374.32 71.1461 374.097 71.7074 373.319 72.1032C372.42 72.5416 371.385 72.6088 370.437 72.2903C369.491 72.0097 368.584 71.6133 367.735 71.1101C367.411 70.923 367.087 70.7287 366.763 70.5272Z" fill="white"/>
<path d="M333.509 101.552L367.836 116.039L333.501 136.038L333.509 101.552Z" fill="url(#paint30_linear)"/>
<path d="M136.691 87.4321L234.624 30.2188L333.509 86.8852L235.575 144.099L136.691 87.4321Z" fill="url(#paint31_linear)"/>
<path d="M370.055 164.99C369.501 164.992 368.969 164.774 368.576 164.384C368.183 163.994 367.961 163.464 367.959 162.911L367.844 122.206C367.842 121.463 368.238 120.774 368.881 120.4L425.938 87.2954C426.583 86.9233 427.377 86.9225 428.023 87.2933C428.669 87.6641 429.069 88.3504 429.072 89.0945L429.187 129.756C429.187 130.908 428.251 131.843 427.098 131.843C425.944 131.843 425.008 130.908 425.008 129.756L424.908 92.7001L372.022 123.358L372.13 162.86C372.142 163.419 371.929 163.958 371.539 164.359C371.149 164.759 370.614 164.987 370.055 164.99Z" fill="url(#paint32_linear)"/>
<path d="M235.575 144.099L333.509 86.8853L333.494 200.218L235.568 257.424L235.575 144.099Z" fill="url(#paint33_linear)"/>
<path d="M324.871 146.761C324.772 148.646 323.779 150.37 322.198 151.403L247.995 194.461C247.023 195.022 246.166 194.928 245.697 194.317C245.41 193.918 245.268 193.433 245.294 192.942L245.063 152.569C245.162 150.683 246.155 148.956 247.736 147.92L321.939 104.862C322.306 104.636 322.725 104.507 323.156 104.488C324.028 104.488 324.597 105.208 324.597 106.402L324.871 146.761Z" fill="url(#paint34_linear)"/>
<path d="M323.79 146.243C323.698 148.128 322.706 149.854 321.125 150.885L246.922 193.943C246.554 194.173 246.131 194.302 245.697 194.317C245.41 193.918 245.268 193.433 245.294 192.942L245.063 152.569C245.162 150.683 246.155 148.956 247.736 147.92L321.939 104.862C322.306 104.636 322.725 104.507 323.156 104.488C323.443 104.893 323.586 105.382 323.56 105.877L323.79 146.243Z" fill="url(#paint35_linear)"/>
<path d="M311.219 129.209C311.493 129.05 311.716 129.209 311.723 129.489C311.706 129.84 311.521 130.162 311.226 130.353C309.648 131.267 308.344 135.83 307.105 140.248C305.304 146.617 303.258 153.85 299.181 156.211C295.939 158.089 293.807 155.584 291.544 152.936C289.167 150.151 286.71 147.272 282.899 149.482C279.571 151.418 277.1 155.62 274.708 159.687C272.317 163.753 269.954 167.776 266.784 169.632C261.02 172.986 258.333 169.078 258.218 168.913C258.109 168.602 258.184 168.257 258.413 168.02C258.479 167.94 258.56 167.872 258.65 167.819C258.83 167.718 258.996 167.725 259.09 167.862C259.183 167.999 261.611 171.46 266.784 168.495C269.572 166.876 271.74 163.184 274.038 159.276C276.574 154.958 279.189 150.511 282.914 148.345C287.236 145.819 289.988 149.014 292.395 151.828C294.498 154.303 296.494 156.635 299.195 155.066C302.588 153.094 304.505 146.337 306.198 140.371C307.689 135.074 308.978 130.511 311.219 129.209Z" fill="#F79C82"/>
<path d="M299.087 132.656C303.035 130.367 305.139 131.749 307.012 132.965C308.402 133.865 309.598 134.657 311.291 133.685C311.565 133.527 311.788 133.649 311.795 133.966C311.778 134.317 311.593 134.638 311.298 134.829C309.137 136.067 307.775 135.146 306.291 134.174C304.49 132.994 302.624 131.771 299.087 133.815C296.386 135.383 294.433 140.004 292.366 144.897C290.003 150.475 287.323 156.808 283 159.334C279.276 161.493 276.617 160.097 274.06 158.744C271.733 157.52 269.543 156.362 266.748 157.981C261.64 160.946 259.212 172.619 259.183 172.734C259.13 173.029 258.958 173.289 258.708 173.454L258.578 173.504C258.319 173.569 258.16 173.353 258.225 173.008C258.333 172.489 260.884 160.262 266.741 156.858C269.932 155.009 272.381 156.297 274.744 157.578C277.107 158.859 279.665 160.176 282.993 158.247C286.811 156.031 289.217 150.331 291.544 144.811C293.756 139.493 295.845 134.534 299.087 132.656Z" fill="#FFD100"/>
<path d="M258.629 163.091C260.876 161.788 262.231 164.825 263.758 168.344C265.501 172.317 267.483 176.822 270.876 174.821C273.577 173.252 275.53 168.632 277.597 163.738C279.953 158.154 282.64 151.821 286.963 149.295C290.687 147.136 293.345 148.532 295.903 149.885C298.223 151.115 300.42 152.267 303.215 150.648C308.388 147.647 310.751 141.385 310.844 141.126C310.924 140.899 311.075 140.704 311.277 140.572C311.348 140.528 311.43 140.506 311.514 140.507C311.759 140.507 311.846 140.81 311.716 141.162C311.586 141.515 309.058 148.467 303.251 151.849C300.06 153.699 297.61 152.411 295.247 151.13C292.884 149.849 290.327 148.539 286.999 150.468C283.18 152.684 280.767 158.384 278.447 163.904C276.228 169.15 274.125 174.109 270.897 175.987C266.834 178.347 264.716 173.54 262.85 169.294C261.561 166.351 260.221 163.306 258.643 164.256C258.369 164.415 258.146 164.256 258.146 163.976C258.153 163.62 258.333 163.29 258.629 163.091Z" fill="#6B49FF"/>
<path d="M305.312 118.881L305.52 156.275L313.416 151.691V152.144L256.741 185.04V184.587L264.637 180.003L264.428 142.609L264.824 142.379L265.033 179.772L272.734 175.303L272.525 137.909L272.922 137.679L273.131 175.073L280.832 170.604L280.623 133.21L281.019 132.987L281.228 170.374L288.929 165.904L288.72 128.511L289.117 128.28L289.326 165.674L297.027 161.205L296.811 123.818L297.214 123.588L297.423 160.975L305.124 156.506L304.915 119.112L305.312 118.881Z" fill="white"/>
<path d="M346.231 168.797C348.961 170.366 348.983 172.914 346.281 174.49L279.283 213.611C276.192 215.184 272.533 215.184 269.442 213.611L247.39 200.988L324.186 156.167L346.231 168.797Z" fill="url(#paint36_linear)"/>
<path d="M348.291 171.655C348.291 171.719 348.291 171.791 348.291 171.856C348.291 171.921 348.291 172 348.291 172.072C348.291 172.144 348.291 172.194 348.248 172.252C348.205 172.309 348.248 172.389 348.191 172.461C348.133 172.533 348.147 172.576 348.119 172.633C348.09 172.691 348.054 172.777 348.018 172.849L347.924 173C347.874 173.079 347.823 173.166 347.758 173.245L347.643 173.389C347.55 173.5 347.452 173.605 347.348 173.706L347.232 173.821L347.016 174.001L346.822 174.152L346.57 174.317L346.303 174.49L279.305 213.611C279.092 213.732 278.873 213.843 278.649 213.942L278.454 214.028C278.277 214.105 278.094 214.175 277.907 214.237L277.705 214.309L277.345 214.41L277.071 214.482L276.682 214.568L276.423 214.619C276.164 214.662 275.897 214.705 275.63 214.734H275.386H274.917H273.916H273.563H273.239L272.893 214.698L272.583 214.655L272.216 214.59L271.928 214.532L271.495 214.424L271.258 214.359C271.005 214.288 270.753 214.201 270.537 214.108L270.436 214.064C270.112 213.938 269.796 213.789 269.493 213.618L247.39 200.988V203.665L269.471 216.317C269.775 216.487 270.09 216.636 270.415 216.763H270.48H270.516C270.76 216.857 271.005 216.936 271.236 217.015H271.294L271.474 217.058L271.906 217.159H272.021H272.194L272.562 217.224H272.706H272.871L273.217 217.26H273.383H273.541H273.894H274.896H275.364H275.551H275.609C275.875 217.26 276.142 217.195 276.401 217.145H276.437L276.661 217.094L277.042 217.008L277.316 216.936L277.676 216.835H277.756L277.878 216.785L278.426 216.576L278.627 216.49C278.851 216.391 279.07 216.28 279.283 216.159L346.281 177.038L346.368 176.987L346.519 177.038L346.764 176.872L346.959 176.714L347.168 176.541H347.211L347.283 176.462C347.387 176.362 347.486 176.256 347.578 176.145L347.643 176.073L347.693 176.001C347.751 175.922 347.809 175.843 347.859 175.757L347.931 175.656V175.606C347.967 175.534 348.003 175.462 348.032 175.39C348.061 175.318 348.075 175.303 348.09 175.26V175.217C348.09 175.145 348.133 175.08 348.147 175.008C348.162 174.936 348.147 174.915 348.191 174.871C348.234 174.828 348.191 174.871 348.191 174.835C348.191 174.799 348.191 174.692 348.191 174.612C348.191 174.533 348.191 174.519 348.191 174.468C348.191 174.418 348.191 174.425 348.191 174.411L348.291 171.655Z" fill="url(#paint37_linear)"/>
<path d="M279.449 191.877C279.569 191.92 279.648 192.034 279.648 192.161C279.648 192.289 279.569 192.402 279.449 192.446L275.919 194.49C275.611 194.646 275.247 194.646 274.939 194.49L271.394 192.46C271.275 192.417 271.195 192.303 271.195 192.176C271.195 192.049 271.275 191.935 271.394 191.892L274.903 189.841C275.211 189.685 275.575 189.685 275.883 189.841L279.449 191.877Z" fill="url(#paint38_linear)"/>
<path d="M292.884 191.798C293.004 191.841 293.084 191.955 293.084 192.082C293.084 192.21 293.004 192.323 292.884 192.367L289.376 194.418C289.068 194.573 288.704 194.573 288.396 194.418L284.852 192.388C284.732 192.345 284.652 192.231 284.652 192.104C284.652 191.977 284.732 191.863 284.852 191.82L288.36 189.769C288.668 189.613 289.032 189.613 289.34 189.769L292.884 191.798Z" fill="url(#paint39_linear)"/>
<path d="M292.877 199.57C292.997 199.614 293.077 199.727 293.077 199.855C293.077 199.982 292.997 200.096 292.877 200.139L289.369 202.19C289.061 202.346 288.697 202.346 288.389 202.19L284.845 200.161C284.725 200.117 284.645 200.004 284.645 199.876C284.645 199.749 284.725 199.635 284.845 199.592L288.353 197.541C288.661 197.386 289.025 197.386 289.333 197.541L292.877 199.57Z" fill="url(#paint40_linear)"/>
<path d="M286.163 195.749C286.283 195.792 286.363 195.906 286.363 196.033C286.363 196.161 286.283 196.274 286.163 196.318L282.655 198.369C282.347 198.525 281.983 198.525 281.675 198.369L278.13 196.339C278.01 196.296 277.931 196.182 277.931 196.055C277.931 195.928 278.01 195.814 278.13 195.771L281.639 193.72C281.947 193.564 282.31 193.564 282.618 193.72L286.163 195.749Z" fill="url(#paint41_linear)"/>
<path d="M279.441 199.65C279.561 199.693 279.641 199.807 279.641 199.934C279.641 200.061 279.561 200.175 279.441 200.218L275.919 202.269C275.611 202.424 275.247 202.424 274.939 202.269L271.394 200.24C271.275 200.196 271.195 200.083 271.195 199.955C271.195 199.828 271.275 199.714 271.394 199.671L274.903 197.62C275.211 197.464 275.575 197.464 275.883 197.62L279.441 199.65Z" fill="url(#paint42_linear)"/>
<path d="M272.72 203.579C272.84 203.622 272.92 203.736 272.92 203.863C272.92 203.991 272.84 204.104 272.72 204.147L269.212 206.199C268.903 206.354 268.54 206.354 268.232 206.199L264.687 204.169C264.568 204.126 264.488 204.012 264.488 203.885C264.488 203.757 264.568 203.644 264.687 203.601L268.196 201.549C268.504 201.394 268.867 201.394 269.176 201.549L272.72 203.579Z" fill="url(#paint43_linear)"/>
<path d="M266.006 199.729C266.126 199.772 266.205 199.886 266.205 200.013C266.205 200.14 266.126 200.254 266.006 200.297L262.497 202.348C262.189 202.504 261.826 202.504 261.518 202.348L257.973 200.319C257.853 200.276 257.773 200.162 257.773 200.035C257.773 199.907 257.853 199.794 257.973 199.75L261.482 197.699C261.79 197.544 262.153 197.544 262.461 197.699L266.006 199.729Z" fill="url(#paint44_linear)"/>
<path d="M272.727 195.799C272.847 195.843 272.927 195.956 272.927 196.084C272.927 196.211 272.847 196.325 272.727 196.368L269.219 198.419C268.911 198.574 268.547 198.574 268.239 198.419L264.695 196.389C264.575 196.346 264.495 196.233 264.495 196.105C264.495 195.978 264.575 195.864 264.695 195.821L268.203 193.77C268.511 193.613 268.875 193.613 269.183 193.77L272.727 195.799Z" fill="url(#paint45_linear)"/>
<path d="M286.17 187.948C286.29 187.991 286.37 188.105 286.37 188.232C286.37 188.359 286.29 188.473 286.17 188.516L282.662 190.567C282.354 190.723 281.99 190.723 281.682 190.567L278.145 188.552C278.025 188.509 277.945 188.395 277.945 188.268C277.945 188.141 278.025 188.027 278.145 187.984L281.653 185.933C281.961 185.777 282.325 185.777 282.633 185.933L286.17 187.948Z" fill="url(#paint46_linear)"/>
<path d="M299.613 180.096C299.733 180.14 299.813 180.253 299.813 180.381C299.813 180.508 299.733 180.622 299.613 180.665L296.09 182.709C295.782 182.865 295.418 182.865 295.11 182.709L291.566 180.679C291.446 180.636 291.366 180.522 291.366 180.395C291.366 180.268 291.446 180.154 291.566 180.111L295.074 178.06C295.383 177.904 295.746 177.904 296.054 178.06L299.613 180.096Z" fill="url(#paint47_linear)"/>
<path d="M340.576 171.705C340.696 171.748 340.776 171.862 340.776 171.989C340.776 172.117 340.696 172.23 340.576 172.273L323.776 182.075C323.468 182.232 323.104 182.232 322.796 182.075L305.823 172.345C305.703 172.302 305.623 172.188 305.623 172.061C305.623 171.934 305.703 171.82 305.823 171.777L322.63 161.961C322.938 161.805 323.302 161.805 323.61 161.961L340.576 171.705Z" fill="url(#paint48_linear)"/>
<path d="M319.821 183.896C319.934 183.929 320.012 184.033 320.012 184.152C320.012 184.27 319.934 184.374 319.821 184.407L316.219 186.516C315.942 186.655 315.616 186.655 315.34 186.516L309.065 182.917L304.533 180.319L302.372 179.067L298.251 176.728C298.145 176.688 298.075 176.586 298.075 176.473C298.075 176.359 298.145 176.258 298.251 176.217L301.854 174.109C302.132 173.966 302.461 173.966 302.74 174.109L306.824 176.448L308.986 177.7L313.517 180.298L319.821 183.896Z" fill="url(#paint49_linear)"/>
<path d="M313.877 181.017C313.991 181.051 314.069 181.155 314.069 181.273C314.069 181.391 313.991 181.495 313.877 181.528L311.219 183.097C310.943 183.237 310.616 183.237 310.34 183.097L308.179 181.852L306.414 180.845L305.564 180.355L304.245 179.636C304.139 179.595 304.069 179.494 304.069 179.38C304.069 179.267 304.139 179.165 304.245 179.125L306.932 177.556C307.211 177.415 307.54 177.415 307.819 177.556L309.137 178.276L309.987 178.765L311.752 179.772L313.877 181.017Z" fill="url(#paint50_linear)"/>
<path d="M313.042 187.789C313.161 187.833 313.241 187.946 313.241 188.074C313.241 188.201 313.161 188.315 313.042 188.358L309.533 190.409C309.225 190.565 308.861 190.565 308.553 190.409L305.009 188.38C304.889 188.336 304.809 188.223 304.809 188.095C304.809 187.968 304.889 187.854 305.009 187.811L308.517 185.76C308.825 185.605 309.189 185.605 309.497 185.76L313.042 187.789Z" fill="url(#paint51_linear)"/>
<path d="M306.327 183.939C306.447 183.983 306.527 184.096 306.527 184.224C306.527 184.351 306.447 184.465 306.327 184.508L302.819 186.559C302.511 186.715 302.147 186.715 301.839 186.559L298.295 184.529C298.175 184.486 298.095 184.372 298.095 184.245C298.095 184.118 298.175 184.004 298.295 183.961L301.803 181.91C302.111 181.755 302.475 181.755 302.783 181.91L306.327 183.939Z" fill="url(#paint52_linear)"/>
<path d="M306.32 191.719C306.44 191.762 306.52 191.876 306.52 192.003C306.52 192.13 306.44 192.244 306.32 192.287L302.819 194.31C302.511 194.465 302.147 194.465 301.839 194.31L298.295 192.28C298.175 192.237 298.095 192.123 298.095 191.996C298.095 191.869 298.175 191.755 298.295 191.712L301.803 189.661C302.111 189.504 302.475 189.504 302.783 189.661L306.32 191.719Z" fill="url(#paint53_linear)"/>
<path d="M299.606 187.869C299.726 187.912 299.806 188.026 299.806 188.153C299.806 188.28 299.726 188.394 299.606 188.437L296.09 190.488C295.782 190.643 295.419 190.643 295.11 190.488L291.566 188.459C291.446 188.415 291.366 188.302 291.366 188.174C291.366 188.047 291.446 187.933 291.566 187.89L295.074 185.839C295.382 185.683 295.746 185.683 296.054 185.839L299.606 187.869Z" fill="url(#paint54_linear)"/>
<path d="M292.892 184.018C293.011 184.062 293.091 184.175 293.091 184.303C293.091 184.43 293.011 184.544 292.892 184.587L289.383 186.638C289.075 186.793 288.712 186.793 288.403 186.638L284.859 184.609C284.739 184.565 284.659 184.452 284.659 184.324C284.659 184.197 284.739 184.083 284.859 184.04L288.367 181.989C288.675 181.833 289.039 181.833 289.347 181.989L292.892 184.018Z" fill="url(#paint55_linear)"/>
<path d="M286.156 203.5C286.276 203.543 286.355 203.657 286.355 203.784C286.355 203.911 286.276 204.025 286.156 204.068L282.647 206.119C282.339 206.275 281.976 206.275 281.668 206.119L278.123 204.09C278.003 204.047 277.923 203.933 277.923 203.806C277.923 203.678 278.003 203.565 278.123 203.521L281.632 201.47C281.939 201.314 282.303 201.314 282.611 201.47L286.156 203.5Z" fill="url(#paint56_linear)"/>
<path d="M279.434 207.422C279.554 207.465 279.634 207.579 279.634 207.706C279.634 207.834 279.554 207.947 279.434 207.99L275.919 210.042C275.611 210.197 275.247 210.197 274.939 210.042L271.409 207.983C271.289 207.94 271.209 207.826 271.209 207.699C271.209 207.572 271.289 207.458 271.409 207.415L274.917 205.364C275.225 205.208 275.589 205.208 275.897 205.364L279.434 207.422Z" fill="url(#paint57_linear)"/>
<path d="M299.599 195.641C299.719 195.684 299.798 195.798 299.798 195.925C299.798 196.053 299.719 196.166 299.599 196.21L296.09 198.261C295.782 198.416 295.419 198.416 295.11 198.261L291.566 196.231C291.446 196.188 291.366 196.074 291.366 195.947C291.366 195.82 291.446 195.706 291.566 195.663L295.074 193.612C295.383 193.456 295.746 193.456 296.054 193.612L299.599 195.641Z" fill="url(#paint58_linear)"/>
<path d="M181.465 204.291L151.899 221.556L150.552 222.348L149.832 222.765L144.616 225.809L143.888 226.241L142.556 227.018L117.305 241.764L86.3488 224.025L150.509 186.544L181.465 204.291Z" fill="url(#paint59_linear)"/>
<path fill-rule="evenodd" clip-rule="evenodd" d="M140.992 217.065L142.613 217.994L140.942 218.973L139.335 218.059C137.468 218.973 135.414 219.441 133.334 219.426L132.765 217.533C134.241 217.565 135.71 217.309 137.088 216.778L134.278 215.166C132.009 215.957 129.358 216.72 126.944 215.338C125.15 214.309 125.028 212.611 127.153 211.078L125.518 210.142L127.189 209.164L128.875 210.128C130.496 209.388 132.251 208.986 134.033 208.948L134.487 210.819C133.35 210.847 132.224 211.053 131.151 211.43L133.658 212.87C135.935 212.078 138.701 211.301 141.086 212.69C143.053 213.805 143.298 215.41 140.992 217.065ZM136.389 214.46L136.432 214.485L136.396 214.496L136.389 214.46ZM136.432 214.485C137.412 214.192 138.283 214.111 138.831 214.388C139.386 214.669 139.458 215.223 138.773 215.828L136.432 214.485ZM131.54 213.64C130.589 213.949 129.811 214.072 129.3 213.777H129.307C128.702 213.431 128.695 212.92 129.379 212.395L131.54 213.64Z" fill="black"/>
<path fill-rule="evenodd" clip-rule="evenodd" d="M179.527 204.291L150.516 187.667L88.2796 224.025L117.291 240.649L179.527 204.291ZM178.749 204.291L117.283 240.203L89.0504 224.025L150.516 188.113L178.749 204.291Z" fill="#2E90E1"/>
<path d="M181.458 202.881L117.298 240.361L86.3488 222.621L150.502 185.141L181.458 202.881Z" fill="url(#paint60_linear)"/>
<path fill-rule="evenodd" clip-rule="evenodd" d="M140.992 215.662L142.642 216.619L140.971 217.598L139.335 216.619C137.468 217.533 135.414 218.001 133.334 217.987L132.765 216.094C134.241 216.126 135.71 215.869 137.088 215.338L134.278 213.726C132.009 214.518 129.358 215.281 126.944 213.899C125.15 212.87 125.028 211.171 127.153 209.639L125.511 208.703L127.182 207.724L128.868 208.689C130.489 207.949 132.244 207.547 134.026 207.508L134.48 209.379C133.343 209.408 132.217 209.614 131.144 209.991L133.651 211.43C135.928 210.639 138.694 209.862 141.079 211.251C143.053 212.402 143.29 214.007 140.992 215.662ZM136.389 213.021L136.432 213.046L136.396 213.057L136.389 213.021ZM136.432 213.046C137.412 212.753 138.283 212.672 138.831 212.949C139.386 213.23 139.458 213.784 138.773 214.388L136.432 213.046ZM131.54 212.201C130.589 212.51 129.811 212.632 129.3 212.337H129.307C128.702 211.992 128.695 211.481 129.379 210.955L131.54 212.201Z" fill="black"/>
<path fill-rule="evenodd" clip-rule="evenodd" d="M179.527 202.881L150.516 186.257L88.2796 222.614L117.291 239.238L179.527 202.881ZM178.749 202.881L117.283 238.792L89.0504 222.614L150.516 186.703L178.749 202.881Z" fill="#2E90E1"/>
<path d="M181.451 201.477L117.298 238.958L86.3416 221.218L150.502 183.738L181.451 201.477Z" fill="url(#paint61_linear)"/>
<path fill-rule="evenodd" clip-rule="evenodd" d="M140.985 214.259L142.606 215.187L140.935 216.166L139.335 215.245C137.468 216.159 135.414 216.627 133.334 216.612L132.765 214.719C134.241 214.751 135.71 214.495 137.088 213.964L134.278 212.352C132.009 213.143 129.358 213.906 126.944 212.524C125.15 211.495 125.028 209.797 127.153 208.264L125.503 207.321L127.175 206.342L128.86 207.307C130.482 206.567 132.237 206.165 134.019 206.127L134.473 207.998C133.335 208.026 132.21 208.232 131.137 208.609L133.644 210.049C135.921 209.257 138.687 208.48 141.072 209.869C143.045 210.999 143.29 212.604 140.985 214.259ZM136.382 211.625L136.425 211.65L136.389 211.661L136.382 211.625ZM136.425 211.65C137.405 211.356 138.276 211.276 138.824 211.553C139.379 211.833 139.451 212.388 138.766 212.992L136.425 211.65ZM131.533 210.804C130.582 211.114 129.804 211.236 129.293 210.941H129.3C128.695 210.596 128.688 210.085 129.372 209.559L131.533 210.804Z" fill="black"/>
<path fill-rule="evenodd" clip-rule="evenodd" d="M179.52 201.506L150.509 184.853L88.2724 221.239L117.283 237.864L179.52 201.506ZM178.749 201.506L117.276 237.389L117.283 237.418L89.0504 221.239L150.516 185.328L178.749 201.506Z" fill="#2E90E1"/>
<path d="M181.451 200.074L117.291 237.554L86.3344 219.815L150.495 182.334L181.451 200.074Z" fill="url(#paint62_linear)"/>
<path fill-rule="evenodd" clip-rule="evenodd" d="M140.985 212.855L142.606 213.784L140.935 214.763L139.335 213.841C137.468 214.755 135.414 215.223 133.334 215.209L132.765 213.316C134.241 213.348 135.71 213.091 137.088 212.56L134.278 210.948C132.009 211.74 129.358 212.503 126.944 211.121C125.15 210.092 125.028 208.393 127.153 206.861L125.503 205.918L127.175 204.939L128.86 205.903C130.482 205.164 132.237 204.762 134.019 204.723L134.473 206.594C133.335 206.623 132.21 206.829 131.137 207.206L133.644 208.645C135.921 207.854 138.687 207.077 141.072 208.465C143.045 209.595 143.283 211.2 140.985 212.855ZM136.382 210.221L136.425 210.246L136.389 210.257L136.382 210.221ZM136.425 210.246C137.405 209.953 138.276 209.872 138.824 210.149C139.379 210.43 139.451 210.984 138.766 211.589L136.425 210.246ZM131.533 209.401C130.582 209.71 129.804 209.833 129.293 209.538H129.3C128.695 209.192 128.688 208.681 129.372 208.156L131.533 209.401Z" fill="black"/>
<path fill-rule="evenodd" clip-rule="evenodd" d="M179.52 200.067L150.509 183.45L88.2724 219.815L117.283 236.439L179.52 200.067ZM178.742 200.067L117.276 235.985V235.978L89.0432 219.8L150.509 183.889L178.742 200.067Z" fill="#2E90E1"/>
<path d="M181.444 198.671L117.291 236.151L86.3344 218.411L150.495 180.931L181.444 198.671Z" fill="url(#paint63_linear)"/>
<path fill-rule="evenodd" clip-rule="evenodd" d="M140.978 211.452L142.599 212.38L140.927 213.359L139.328 212.438C137.461 213.352 135.406 213.82 133.327 213.805L132.758 211.913C134.234 211.945 135.703 211.688 137.08 211.157L134.271 209.545C132.001 210.337 129.35 211.099 126.937 209.718C125.143 208.689 125.021 206.99 127.146 205.457L125.496 204.514L127.168 203.536L128.853 204.5C130.474 203.76 132.23 203.359 134.011 203.32L134.465 205.191C133.322 205.225 132.192 205.438 131.115 205.824L133.622 207.264C135.899 206.472 138.665 205.695 141.05 207.084C143.038 208.192 143.283 209.797 140.978 211.452ZM136.374 208.818L136.418 208.843L136.382 208.854L136.374 208.818ZM136.418 208.843C137.397 208.55 138.269 208.469 138.817 208.746C139.371 209.027 139.443 209.581 138.759 210.185L136.418 208.843ZM131.526 207.998C130.575 208.307 129.797 208.429 129.286 208.134H129.293C128.688 207.789 128.68 207.278 129.365 206.753L131.526 207.998Z" fill="black"/>
<path fill-rule="evenodd" clip-rule="evenodd" d="M179.513 198.7L150.502 182.075L88.2724 218.411L117.283 235.035L179.513 198.7ZM117.273 234.609L117.269 234.611H117.276L117.273 234.609ZM178.735 198.7L117.273 234.609L89.036 218.433L150.502 182.522L178.735 198.7Z" fill="#2E90E1"/>
<path d="M181.444 197.267L117.283 234.748L86.3272 217.008L150.487 179.528L181.444 197.267Z" fill="url(#paint64_linear)"/>
<path fill-rule="evenodd" clip-rule="evenodd" d="M140.978 210.049L142.599 210.977L140.927 211.956L139.328 211.035C137.461 211.949 135.406 212.417 133.327 212.402L132.758 210.509C134.234 210.541 135.703 210.285 137.08 209.754L134.271 208.142C132.001 208.933 129.35 209.696 126.937 208.314C125.143 207.285 125.021 205.587 127.146 204.054L125.496 203.111L127.168 202.132L128.853 203.097C130.474 202.357 132.23 201.955 134.011 201.917L134.465 203.788C133.324 203.81 132.194 204.011 131.115 204.385L133.622 205.824C135.899 205.033 138.665 204.255 141.05 205.644C143.038 206.789 143.276 208.393 140.978 210.049ZM136.374 207.415L136.418 207.44L136.382 207.451L136.374 207.415ZM136.418 207.44C137.397 207.146 138.269 207.066 138.817 207.343C139.371 207.623 139.443 208.178 138.759 208.782L136.418 207.44ZM131.526 206.594C130.575 206.904 129.797 207.026 129.286 206.731H129.293C128.688 206.386 128.68 205.875 129.365 205.349L131.526 206.594Z" fill="black"/>
<path fill-rule="evenodd" clip-rule="evenodd" d="M179.513 197.26L150.502 180.636L88.2652 216.993L117.276 233.618L179.513 197.26ZM178.735 197.26L117.269 233.172L89.036 216.993L150.502 181.082L178.735 197.26Z" fill="#2E90E1"/>
<path d="M181.436 195.864L117.283 233.344L86.3272 215.605L150.48 178.124L181.436 195.864Z" fill="url(#paint65_linear)"/>
<path fill-rule="evenodd" clip-rule="evenodd" d="M140.971 208.645L142.592 209.574L140.92 210.553L139.321 209.631C137.454 210.545 135.399 211.013 133.32 210.999L132.751 209.106C134.227 209.138 135.695 208.881 137.073 208.35L134.264 206.738C131.994 207.53 129.343 208.293 126.93 206.911C125.136 205.882 125.013 204.183 127.139 202.651L125.489 201.708L127.16 200.729L128.846 201.693C130.467 200.954 132.222 200.552 134.004 200.513L134.458 202.384C133.321 202.413 132.196 202.619 131.123 202.996L133.63 204.435C135.906 203.644 138.673 202.866 141.057 204.255C143.031 205.385 143.276 206.99 140.971 208.645ZM136.367 206.011L136.411 206.036L136.374 206.047L136.367 206.011ZM136.411 206.036C137.39 205.743 138.261 205.662 138.809 205.939C139.364 206.22 139.436 206.774 138.752 207.379L136.411 206.036ZM131.519 205.191C130.568 205.5 129.79 205.623 129.278 205.328H129.286C128.68 204.982 128.673 204.471 129.358 203.946L131.519 205.191Z" fill="black"/>
<path fill-rule="evenodd" clip-rule="evenodd" d="M179.506 195.864L150.495 179.24L88.2579 215.597L117.269 232.222L179.506 195.864ZM178.728 195.864L117.262 231.775L89.0288 215.597L150.495 179.686L178.728 195.864Z" fill="#2E90E1"/>
<path d="M181.436 194.461L117.276 231.941L86.32 214.201L150.48 176.721L181.436 194.461Z" fill="url(#paint66_linear)"/>
<path fill-rule="evenodd" clip-rule="evenodd" d="M140.963 207.264L142.584 208.192L140.913 209.171L139.314 208.25C137.446 209.164 135.392 209.632 133.313 209.617L132.744 207.724C134.22 207.756 135.688 207.5 137.066 206.969L134.256 205.357C131.987 206.148 129.336 206.911 126.923 205.529C125.129 204.5 125.006 202.802 127.131 201.269L125.482 200.326L127.153 199.347L128.839 200.312C130.46 199.572 132.215 199.17 133.997 199.131L134.451 201.003C133.314 201.031 132.188 201.237 131.115 201.614L133.622 203.054C135.899 202.262 138.665 201.485 141.05 202.874C143.024 203.982 143.269 205.587 140.963 207.264ZM136.36 204.63L136.404 204.655L136.367 204.666L136.36 204.63ZM136.404 204.655C137.383 204.361 138.254 204.28 138.802 204.558C139.357 204.838 139.429 205.392 138.745 205.997L136.404 204.655ZM131.512 203.809C130.561 204.119 129.783 204.241 129.271 203.946H129.278C128.673 203.601 128.666 203.09 129.35 202.564L131.512 203.809Z" fill="black"/>
<path fill-rule="evenodd" clip-rule="evenodd" d="M179.506 194.461L150.495 177.836L88.2579 214.194L117.269 230.818L179.506 194.461ZM178.728 194.461L117.262 230.372L89.0288 214.194L150.495 178.283L178.728 194.461Z" fill="#2E90E1"/>
<path d="M181.429 193.057L117.276 230.538L86.32 212.798L150.473 175.31L181.429 193.057Z" fill="url(#paint67_linear)"/>
<path fill-rule="evenodd" clip-rule="evenodd" d="M140.963 205.824L142.584 206.753L140.913 207.731L139.314 206.81C137.446 207.724 135.392 208.192 133.313 208.178L132.744 206.285C134.22 206.317 135.688 206.06 137.066 205.529L134.256 203.917C131.987 204.709 129.336 205.472 126.923 204.09C125.129 203.061 125.006 201.362 127.131 199.829L125.482 198.887L127.153 197.908L128.839 198.872C130.46 198.132 132.215 197.731 133.997 197.692L134.451 199.563C133.314 199.591 132.188 199.798 131.115 200.175L133.622 201.614C135.899 200.823 138.665 200.045 141.05 201.434C143.024 202.579 143.269 204.183 140.963 205.824ZM136.36 203.19L136.404 203.215L136.367 203.226L136.36 203.19ZM136.404 203.215C137.383 202.922 138.254 202.841 138.802 203.118C139.357 203.399 139.429 203.953 138.745 204.558L136.404 203.215ZM131.512 202.37C130.561 202.679 129.783 202.802 129.271 202.507H129.278C128.673 202.161 128.666 201.65 129.35 201.125L131.512 202.37Z" fill="black"/>
<path fill-rule="evenodd" clip-rule="evenodd" d="M179.498 193.057L150.487 176.433L88.2507 212.791L117.262 229.415L179.498 193.057ZM117.258 228.967L117.255 228.969H117.262L117.258 228.967ZM178.72 193.057L117.258 228.967L89.0288 212.791L150.495 176.879L178.72 193.057Z" fill="#2E90E1"/>
<path d="M181.429 191.654L117.269 229.127L86.3128 211.387L150.473 173.907L181.429 191.654Z" fill="url(#paint68_linear)"/>
<path d="M170.796 188.675C168.462 190.445 168.476 192.928 170.846 194.684L122.406 222.981C119.079 221.619 115.351 221.619 112.024 222.981L96.9389 214.345C99.2731 212.575 99.2587 210.092 96.8885 208.336L145.329 180.039C148.655 181.4 152.384 181.4 155.71 180.039L170.796 188.675Z" fill="url(#paint69_linear)"/>
<path d="M143.362 195.979C149.363 199.419 149.983 204.687 144.746 207.746C139.508 210.804 130.402 210.495 124.401 207.026C118.4 203.557 117.781 198.318 123.018 195.26C128.255 192.201 137.354 192.539 143.362 195.979Z" fill="#E3F4FC"/>
<path fill-rule="evenodd" clip-rule="evenodd" d="M140.956 204.435L142.577 205.364L140.906 206.342L139.306 205.421C137.439 206.335 135.385 206.803 133.305 206.789L132.736 204.896C134.213 204.928 135.681 204.671 137.059 204.14L134.249 202.528C131.98 203.32 129.329 204.083 126.915 202.701C125.122 201.672 124.999 199.973 127.124 198.441L125.475 197.498L127.146 196.519L128.832 197.483C130.453 196.743 132.208 196.342 133.99 196.303L134.444 198.174C133.307 198.202 132.181 198.409 131.108 198.786L133.615 200.225C135.892 199.434 138.658 198.656 141.043 200.045C143.017 201.175 143.262 202.78 140.956 204.435ZM136.353 201.801L136.396 201.826L136.36 201.837L136.353 201.801ZM136.396 201.826C137.376 201.533 138.247 201.452 138.795 201.729C139.35 202.01 139.422 202.564 138.737 203.169L136.396 201.826ZM131.504 200.981C130.553 201.29 129.775 201.413 129.264 201.118H129.271C128.666 200.772 128.659 200.261 129.343 199.736L131.504 200.981Z" fill="url(#paint70_linear)"/>
<path d="M157.302 187.833C159.233 188.941 159.248 190.711 157.302 191.863C155.114 192.977 152.524 192.977 150.336 191.863C148.405 190.755 148.391 188.984 150.336 187.833C152.525 186.72 155.114 186.72 157.302 187.833Z" fill="#E3F4FC"/>
<path d="M117.377 211.157C119.308 212.265 119.329 214.036 117.377 215.187C115.189 216.301 112.599 216.301 110.411 215.187C108.48 214.079 108.466 212.308 110.411 211.157C112.599 210.043 115.189 210.043 117.377 211.157Z" fill="#E3F4FC"/>
<path fill-rule="evenodd" clip-rule="evenodd" d="M179.498 191.654L150.487 175.03L88.2507 211.387L117.262 228.012L179.498 191.654ZM178.72 191.654L117.255 227.565L89.0216 211.387L150.487 175.476L178.72 191.654Z" fill="#2E90E1"/>
<path d="M128.796 305.095C128.242 305.097 127.709 304.879 127.316 304.489C126.923 304.099 126.701 303.569 126.699 303.015L126.584 262.311C126.583 261.567 126.978 260.879 127.621 260.504L184.678 227.4C185.323 227.028 186.118 227.027 186.764 227.398C187.41 227.769 187.809 228.455 187.812 229.199L187.927 269.86C187.927 271.013 186.992 271.947 185.838 271.947C184.684 271.947 183.749 271.013 183.749 269.86L183.648 232.805L130.762 263.462L130.87 302.965C130.882 303.523 130.669 304.063 130.279 304.463C129.889 304.864 129.355 305.091 128.796 305.095Z" fill="url(#paint71_linear)"/>
<path d="M299.505 76.155L235.093 113.779L170.061 76.5076L234.466 38.8835L299.505 76.155Z" fill="url(#paint72_linear)"/>
<path d="M299.505 76.155L299.498 87.4826L235.093 125.114V113.779L299.505 76.155Z" fill="url(#paint73_linear)"/>
<path d="M237.881 115.377L296.717 80.9984V85.8921L237.881 120.263V115.377Z" fill="#DDDCF9"/>
<path d="M235.093 113.779V125.114L170.061 87.8424V76.5077L235.093 113.779Z" fill="url(#paint74_linear)"/>
<path d="M172.842 86.2304V81.3079L232.312 115.391V120.314L172.842 86.2304Z" fill="#DDDCF9"/>
<path fill-rule="evenodd" clip-rule="evenodd" d="M209.684 72.6861L234.661 58.1057L259.875 72.5422L234.898 87.1298L209.684 72.6861ZM216.621 72.6861L234.855 83.1213L252.923 72.5998L234.675 62.143L216.621 72.6861Z" fill="#DDDCF9"/>
<path d="M234.747 69.0807L228.645 72.643L234.797 76.1622L240.892 72.607L234.747 69.0807Z" fill="#DDDCF9"/>
<path d="M232.319 115.391L232.305 123.516L222.053 136.348L232.319 115.391Z" fill="url(#paint75_linear)"/>
<path d="M237.866 115.377L237.924 123.495L248.24 136.276L237.866 115.377Z" fill="url(#paint76_linear)"/>
<g opacity="0.39">
<path d="M209.893 72.8301L203.971 57.091L265.206 56.8823L259.608 72.6502L234.869 87.1586L209.893 72.8301Z" fill="url(#paint77_linear)"/>
<path d="M228.681 72.7582L234.783 76.2557L240.813 72.715L240.568 0L228.436 0.0431799L228.681 72.7582Z" fill="url(#paint78_linear)"/>
<path d="M216.773 72.7941L234.855 83.1717L252.729 72.679L252.534 15.4872L216.578 15.6095L216.773 72.7941Z" fill="url(#paint79_linear)"/>
</g>
<path d="M232.319 115.391L222.053 136.348L150.041 95.2189L173.288 81.3365L232.319 115.391Z" fill="url(#paint80_linear)"/>
<path d="M237.866 115.377L248.24 136.276L320.03 94.7583L296.703 80.9983L237.866 115.377Z" fill="url(#paint81_linear)"/>
<path d="M221.751 167.034L221.837 200.564L165.191 233.244L221.751 167.034Z" fill="url(#paint82_linear)"/>
<path d="M150.127 125.927L150.358 167.128L93.7043 199.808L150.127 125.927Z" fill="url(#paint83_linear)"/>
<defs>
<linearGradient id="paint0_linear" x1="385" y1="-20.5" x2="196" y2="302.5" gradientUnits="userSpaceOnUse">
<stop stop-color="white"/>
<stop offset="0.0001" stop-color="white" stop-opacity="0.47"/>
<stop offset="0.328125" stop-color="white" stop-opacity="0.751538"/>
<stop offset="1" stop-color="white"/>
</linearGradient>
<linearGradient id="paint1_linear" x1="68.3225" y1="270.294" x2="129.644" y2="270.188" gradientUnits="userSpaceOnUse">
<stop offset="0.12" stop-color="#5C90FE"/>
<stop offset="0.56" stop-color="#466CF5"/>
<stop offset="0.69" stop-color="#4265F3"/>
<stop offset="0.87" stop-color="#3853EF"/>
<stop offset="1" stop-color="#2E42EB"/>
</linearGradient>
<linearGradient id="paint2_linear" x1="137.178" y1="257.696" x2="333.985" y2="256.056" gradientUnits="userSpaceOnUse">
<stop offset="0.0833333" stop-color="#5178DC"/>
<stop offset="1" stop-color="#5566AA"/>
</linearGradient>
<linearGradient id="paint3_linear" x1="147.98" y1="205.804" x2="246.295" y2="205.804" gradientUnits="userSpaceOnUse">
<stop offset="0.12" stop-color="#586DFF"/>
<stop offset="1" stop-color="#586DFF" stop-opacity="0"/>
</linearGradient>
<linearGradient id="paint4_linear" x1="150.264" y1="206.95" x2="124.155" y2="91.7199" gradientUnits="userSpaceOnUse">
<stop offset="0.12" stop-color="#DDDCF9"/>
<stop offset="0.56" stop-color="white"/>
<stop offset="0.71" stop-color="#F9F8FE"/>
<stop offset="0.91" stop-color="#E6E6FB"/>
<stop offset="1" stop-color="#DDDCF9"/>
</linearGradient>
<linearGradient id="paint5_linear" x1="119.956" y1="267.286" x2="249.141" y2="267.286" gradientUnits="userSpaceOnUse">
<stop offset="0.12" stop-color="#DDDCF9"/>
<stop offset="0.56" stop-color="white"/>
<stop offset="0.71" stop-color="#F9F8FE"/>
<stop offset="0.91" stop-color="#E6E6FB"/>
<stop offset="1" stop-color="#DDDCF9"/>
</linearGradient>
<linearGradient id="paint6_linear" x1="90.9618" y1="121.59" x2="60.2527" y2="251.468" gradientUnits="userSpaceOnUse">
<stop offset="0.119792" stop-color="#5089FF"/>
<stop offset="0.994792" stop-color="#5178DC"/>
</linearGradient>
<linearGradient id="paint7_linear" x1="125.222" y1="261.218" x2="244.264" y2="261.218" gradientUnits="userSpaceOnUse">
<stop offset="0.12" stop-color="#DDDCF9"/>
<stop offset="0.56" stop-color="white"/>
<stop offset="0.71" stop-color="#F9F8FE"/>
<stop offset="0.91" stop-color="#E6E6FB"/>
<stop offset="1" stop-color="#DDDCF9"/>
</linearGradient>
<linearGradient id="paint8_linear" x1="123.817" y1="268.309" x2="132.173" y2="268.296" gradientUnits="userSpaceOnUse">
<stop stop-color="white"/>
<stop offset="0.33" stop-color="#F9F8FE"/>
<stop offset="0.81" stop-color="#E6E6FB"/>
<stop offset="1" stop-color="#DDDCF9"/>
</linearGradient>
<linearGradient id="paint9_linear" x1="140.553" y1="254.241" x2="148.917" y2="254.241" gradientUnits="userSpaceOnUse">
<stop stop-color="white"/>
<stop offset="0.33" stop-color="#F9F8FE"/>
<stop offset="0.81" stop-color="#E6E6FB"/>
<stop offset="1" stop-color="#DDDCF9"/>
</linearGradient>
<linearGradient id="paint10_linear" x1="159.601" y1="243.242" x2="167.965" y2="243.242" gradientUnits="userSpaceOnUse">
<stop stop-color="white"/>
<stop offset="0.33" stop-color="#F9F8FE"/>
<stop offset="0.81" stop-color="#E6E6FB"/>
<stop offset="1" stop-color="#DDDCF9"/>
</linearGradient>
<linearGradient id="paint11_linear" x1="178.656" y1="232.262" x2="187.012" y2="232.262" gradientUnits="userSpaceOnUse">
<stop stop-color="white"/>
<stop offset="0.33" stop-color="#F9F8FE"/>
<stop offset="0.81" stop-color="#E6E6FB"/>
<stop offset="1" stop-color="#DDDCF9"/>
</linearGradient>
<linearGradient id="paint12_linear" x1="197.703" y1="221.288" x2="206.06" y2="221.288" gradientUnits="userSpaceOnUse">
<stop stop-color="white"/>
<stop offset="0.33" stop-color="#F9F8FE"/>
<stop offset="0.81" stop-color="#E6E6FB"/>
<stop offset="1" stop-color="#DDDCF9"/>
</linearGradient>
<linearGradient id="paint13_linear" x1="216.751" y1="210.313" x2="225.108" y2="210.313" gradientUnits="userSpaceOnUse">
<stop stop-color="white"/>
<stop offset="0.33" stop-color="#F9F8FE"/>
<stop offset="0.81" stop-color="#E6E6FB"/>
<stop offset="1" stop-color="#DDDCF9"/>
</linearGradient>
<linearGradient id="paint14_linear" x1="233.465" y1="254.603" x2="233.465" y2="141.277" gradientUnits="userSpaceOnUse">
<stop offset="0.12" stop-color="#DDDCF9"/>
<stop offset="0.56" stop-color="white"/>
<stop offset="0.71" stop-color="#F9F8FE"/>
<stop offset="0.91" stop-color="#E6E6FB"/>
<stop offset="1" stop-color="#DDDCF9"/>
</linearGradient>
<linearGradient id="paint15_linear" x1="233.835" y1="164.336" x2="233.835" y2="84.3304" gradientUnits="userSpaceOnUse">
<stop offset="0.12" stop-color="#DDDCF9"/>
<stop offset="0.56" stop-color="white"/>
<stop offset="0.71" stop-color="#F9F8FE"/>
<stop offset="0.91" stop-color="#E6E6FB"/>
<stop offset="1" stop-color="#DDDCF9"/>
</linearGradient>
<linearGradient id="paint16_linear" x1="429.59" y1="79.9727" x2="300.42" y2="79.9727" gradientUnits="userSpaceOnUse">
<stop offset="0.12" stop-color="#DDDCF9"/>
<stop offset="0.56" stop-color="white"/>
<stop offset="0.71" stop-color="#F9F8FE"/>
<stop offset="0.91" stop-color="#E6E6FB"/>
<stop offset="1" stop-color="#DDDCF9"/>
</linearGradient>
<linearGradient id="paint17_linear" x1="428.049" y1="83.8868" x2="328.163" y2="83.8868" gradientUnits="userSpaceOnUse">
<stop offset="0.12" stop-color="#DDDCF9"/>
<stop offset="0.56" stop-color="white"/>
<stop offset="0.71" stop-color="#F9F8FE"/>
<stop offset="0.91" stop-color="#E6E6FB"/>
<stop offset="1" stop-color="#DDDCF9"/>
</linearGradient>
<linearGradient id="paint18_linear" x1="332.803" y1="136.933" x2="324.446" y2="136.933" gradientUnits="userSpaceOnUse">
<stop stop-color="white"/>
<stop offset="0.33" stop-color="#F9F8FE"/>
<stop offset="0.81" stop-color="#E6E6FB"/>
<stop offset="1" stop-color="#DDDCF9"/>
</linearGradient>
<linearGradient id="paint19_linear" x1="351.85" y1="125.958" x2="343.493" y2="125.958" gradientUnits="userSpaceOnUse">
<stop stop-color="white"/>
<stop offset="0.33" stop-color="#F9F8FE"/>
<stop offset="0.81" stop-color="#E6E6FB"/>
<stop offset="1" stop-color="#DDDCF9"/>
</linearGradient>
<linearGradient id="paint20_linear" x1="370.905" y1="114.97" x2="362.541" y2="114.97" gradientUnits="userSpaceOnUse">
<stop stop-color="white"/>
<stop offset="0.33" stop-color="#F9F8FE"/>
<stop offset="0.81" stop-color="#E6E6FB"/>
<stop offset="1" stop-color="#DDDCF9"/>
</linearGradient>
<linearGradient id="paint21_linear" x1="389.953" y1="104.004" x2="381.589" y2="104.004" gradientUnits="userSpaceOnUse">
<stop stop-color="white"/>
<stop offset="0.33" stop-color="#F9F8FE"/>
<stop offset="0.81" stop-color="#E6E6FB"/>
<stop offset="1" stop-color="#DDDCF9"/>
</linearGradient>
<linearGradient id="paint22_linear" x1="409.001" y1="93.0335" x2="400.644" y2="93.0335" gradientUnits="userSpaceOnUse">
<stop stop-color="white"/>
<stop offset="0.33" stop-color="#F9F8FE"/>
<stop offset="0.81" stop-color="#E6E6FB"/>
<stop offset="1" stop-color="#DDDCF9"/>
</linearGradient>
<linearGradient id="paint23_linear" x1="429.861" y1="84.3369" x2="421.504" y2="84.3499" gradientUnits="userSpaceOnUse">
<stop offset="0.12" stop-color="#5C90FE"/>
<stop offset="1" stop-color="#4C9DE8"/>
</linearGradient>
<linearGradient id="paint24_linear" x1="463.082" y1="80.7301" x2="452.267" y2="19.0896" gradientUnits="userSpaceOnUse">
<stop offset="0.0248861" stop-color="#56A1FF"/>
<stop offset="0.082685" stop-color="#548DEE"/>
<stop offset="0.644593" stop-color="#5385E7"/>
<stop offset="1" stop-color="#527EE1"/>
</linearGradient>
<linearGradient id="paint25_linear" x1="395.264" y1="115.198" x2="383.615" y2="55.1117" gradientUnits="userSpaceOnUse">
<stop stop-color="#56A1FF"/>
<stop offset="0.682292" stop-color="#5187DC"/>
</linearGradient>
<linearGradient id="paint26_linear" x1="338.597" y1="96.9061" x2="395.397" y2="95.986" gradientUnits="userSpaceOnUse">
<stop offset="0.01" stop-color="#835C1F"/>
<stop offset="1" stop-color="#D4A835"/>
</linearGradient>
<linearGradient id="paint27_linear" x1="338.597" y1="96.9224" x2="395.396" y2="96.0049" gradientUnits="userSpaceOnUse">
<stop stop-color="#FFB200"/>
<stop offset="0.45" stop-color="#FFD100"/>
<stop offset="1" stop-color="#FFB200"/>
</linearGradient>
<linearGradient id="paint28_linear" x1="336.614" y1="87.2959" x2="393.418" y2="87.2959" gradientUnits="userSpaceOnUse">
<stop stop-color="#FFB200"/>
<stop offset="0.45" stop-color="#FFD100"/>
<stop offset="1" stop-color="#FFB200"/>
</linearGradient>
<linearGradient id="paint29_linear" x1="342.269" y1="83.7276" x2="387.741" y2="83.7276" gradientUnits="userSpaceOnUse">
<stop stop-color="#FFB200"/>
<stop offset="0.45" stop-color="#FFD100"/>
<stop offset="1" stop-color="#FFB200"/>
</linearGradient>
<linearGradient id="paint30_linear" x1="318.028" y1="128.677" x2="350.185" y2="146.939" gradientUnits="userSpaceOnUse">
<stop stop-color="#5C90FE"/>
<stop stop-color="#5C8FFE" stop-opacity="0.98"/>
<stop offset="0.05" stop-color="#588AFD" stop-opacity="0.8"/>
<stop offset="0.1" stop-color="#5585FD" stop-opacity="0.63"/>
<stop offset="0.15" stop-color="#5280FC" stop-opacity="0.48"/>
<stop offset="0.2" stop-color="#4F7CFB" stop-opacity="0.35"/>
<stop offset="0.27" stop-color="#4D79FB" stop-opacity="0.24"/>
<stop offset="0.34" stop-color="#4B77FB" stop-opacity="0.15"/>
<stop offset="0.42" stop-color="#4A74FA" stop-opacity="0.08"/>
<stop offset="0.52" stop-color="#4973FA" stop-opacity="0.04"/>
<stop offset="0.65" stop-color="#4872FA" stop-opacity="0.01"/>
<stop offset="1" stop-color="#4872FA" stop-opacity="0.01"/>
</linearGradient>
<linearGradient id="paint31_linear" x1="331.707" y1="141.277" x2="331.707" y2="27.3905" gradientUnits="userSpaceOnUse">
<stop offset="0.12" stop-color="#DDDCF9"/>
<stop offset="0.56" stop-color="white"/>
<stop offset="0.71" stop-color="#F9F8FE"/>
<stop offset="0.91" stop-color="#E6E6FB"/>
<stop offset="1" stop-color="#DDDCF9"/>
</linearGradient>
<linearGradient id="paint32_linear" x1="435" y1="129.5" x2="432" y2="81.5" gradientUnits="userSpaceOnUse">
<stop stop-color="#4D9EEA"/>
<stop offset="0.0116789" stop-color="#0074E1"/>
<stop offset="1" stop-color="white"/>
</linearGradient>
<linearGradient id="paint33_linear" x1="233.595" y1="84.3304" x2="233.595" y2="254.603" gradientUnits="userSpaceOnUse">
<stop offset="0.12" stop-color="#DDDCF9"/>
<stop offset="0.56" stop-color="white"/>
<stop offset="0.71" stop-color="#F9F8FE"/>
<stop offset="0.91" stop-color="#E6E6FB"/>
<stop offset="1" stop-color="#DDDCF9"/>
</linearGradient>
<linearGradient id="paint34_linear" x1="243.082" y1="192.154" x2="322.897" y2="192.154" gradientUnits="userSpaceOnUse">
<stop offset="0.12" stop-color="#DDDCF9"/>
<stop offset="0.56" stop-color="white"/>
<stop offset="0.71" stop-color="#F9F8FE"/>
<stop offset="0.91" stop-color="#E6E6FB"/>
<stop offset="1" stop-color="#DDDCF9"/>
</linearGradient>
<linearGradient id="paint35_linear" x1="321.725" y1="191.524" x2="321.725" y2="101.905" gradientUnits="userSpaceOnUse">
<stop offset="0.12" stop-color="#2E90E1"/>
<stop offset="1" stop-color="#69ECDA"/>
</linearGradient>
<linearGradient id="paint36_linear" x1="245.265" y1="212.158" x2="346.245" y2="212.158" gradientUnits="userSpaceOnUse">
<stop stop-color="white"/>
<stop offset="0.33" stop-color="#F9F8FE"/>
<stop offset="0.81" stop-color="#E6E6FB"/>
<stop offset="1" stop-color="#DDDCF9"/>
</linearGradient>
<linearGradient id="paint37_linear" x1="245.258" y1="214.793" x2="346.245" y2="214.793" gradientUnits="userSpaceOnUse">
<stop offset="0.12" stop-color="#DDDCF9"/>
<stop offset="0.56" stop-color="white"/>
<stop offset="0.71" stop-color="#F9F8FE"/>
<stop offset="0.91" stop-color="#E6E6FB"/>
<stop offset="1" stop-color="#DDDCF9"/>
</linearGradient>
<linearGradient id="paint38_linear" x1="269.118" y1="191.888" x2="277.554" y2="191.888" gradientUnits="userSpaceOnUse">
<stop offset="0.12" stop-color="#DDDCF9"/>
<stop offset="0.56" stop-color="white"/>
<stop offset="0.71" stop-color="#F9F8FE"/>
<stop offset="0.91" stop-color="#E6E6FB"/>
<stop offset="1" stop-color="#DDDCF9"/>
</linearGradient>
<linearGradient id="paint39_linear" x1="282.554" y1="191.858" x2="290.99" y2="191.858" gradientUnits="userSpaceOnUse">
<stop offset="0.12" stop-color="#DDDCF9"/>
<stop offset="0.56" stop-color="white"/>
<stop offset="0.71" stop-color="#F9F8FE"/>
<stop offset="0.91" stop-color="#E6E6FB"/>
<stop offset="1" stop-color="#DDDCF9"/>
</linearGradient>
<linearGradient id="paint40_linear" x1="284.673" y1="202.311" x2="293.109" y2="202.241" gradientUnits="userSpaceOnUse">
<stop stop-color="#00DCF3"/>
<stop offset="0.38" stop-color="#00D9F2"/>
<stop offset="0.6" stop-color="#00D1F0"/>
<stop offset="0.79" stop-color="#00C3EB"/>
<stop offset="0.96" stop-color="#00AFE5"/>
<stop offset="1" stop-color="#00A8E3"/>
</linearGradient>
<linearGradient id="paint41_linear" x1="275.818" y1="195.768" x2="284.261" y2="195.768" gradientUnits="userSpaceOnUse">
<stop stop-color="#00DCF3"/>
<stop offset="0.38" stop-color="#00D9F2"/>
<stop offset="0.6" stop-color="#00D1F0"/>
<stop offset="0.79" stop-color="#00C3EB"/>
<stop offset="0.96" stop-color="#00AFE5"/>
<stop offset="1" stop-color="#00A8E3"/>
</linearGradient>
<linearGradient id="paint42_linear" x1="269.082" y1="199.672" x2="277.525" y2="199.672" gradientUnits="userSpaceOnUse">
<stop offset="0.12" stop-color="#DDDCF9"/>
<stop offset="0.56" stop-color="white"/>
<stop offset="0.71" stop-color="#F9F8FE"/>
<stop offset="0.91" stop-color="#E6E6FB"/>
<stop offset="1" stop-color="#DDDCF9"/>
</linearGradient>
<linearGradient id="paint43_linear" x1="262.353" y1="203.581" x2="270.789" y2="203.581" gradientUnits="userSpaceOnUse">
<stop offset="0.12" stop-color="#DDDCF9"/>
<stop offset="0.56" stop-color="white"/>
<stop offset="0.71" stop-color="#F9F8FE"/>
<stop offset="0.91" stop-color="#E6E6FB"/>
<stop offset="1" stop-color="#DDDCF9"/>
</linearGradient>
<linearGradient id="paint44_linear" x1="255.646" y1="199.719" x2="264.089" y2="199.719" gradientUnits="userSpaceOnUse">
<stop offset="0.12" stop-color="#DDDCF9"/>
<stop offset="0.56" stop-color="white"/>
<stop offset="0.71" stop-color="#F9F8FE"/>
<stop offset="0.91" stop-color="#E6E6FB"/>
<stop offset="1" stop-color="#DDDCF9"/>
</linearGradient>
<linearGradient id="paint45_linear" x1="262.382" y1="195.809" x2="270.818" y2="195.809" gradientUnits="userSpaceOnUse">
<stop offset="0.12" stop-color="#DDDCF9"/>
<stop offset="0.56" stop-color="white"/>
<stop offset="0.71" stop-color="#F9F8FE"/>
<stop offset="0.91" stop-color="#E6E6FB"/>
<stop offset="1" stop-color="#DDDCF9"/>
</linearGradient>
<linearGradient id="paint46_linear" x1="275.847" y1="187.981" x2="284.283" y2="187.981" gradientUnits="userSpaceOnUse">
<stop stop-color="#00DCF3"/>
<stop offset="0.38" stop-color="#00D9F2"/>
<stop offset="0.6" stop-color="#00D1F0"/>
<stop offset="0.79" stop-color="#00C3EB"/>
<stop offset="0.96" stop-color="#00AFE5"/>
<stop offset="1" stop-color="#00A8E3"/>
</linearGradient>
<linearGradient id="paint47_linear" x1="289.311" y1="180.169" x2="297.754" y2="180.169" gradientUnits="userSpaceOnUse">
<stop offset="0.12" stop-color="#DDDCF9"/>
<stop offset="0.56" stop-color="white"/>
<stop offset="0.71" stop-color="#F9F8FE"/>
<stop offset="0.91" stop-color="#E6E6FB"/>
<stop offset="1" stop-color="#DDDCF9"/>
</linearGradient>
<linearGradient id="paint48_linear" x1="303.568" y1="179.632" x2="338.739" y2="179.632" gradientUnits="userSpaceOnUse">
<stop offset="0.12" stop-color="#DDDCF9"/>
<stop offset="0.56" stop-color="white"/>
<stop offset="0.71" stop-color="#F9F8FE"/>
<stop offset="0.91" stop-color="#E6E6FB"/>
<stop offset="1" stop-color="#DDDCF9"/>
</linearGradient>
<linearGradient id="paint49_linear" x1="296.018" y1="183.986" x2="317.926" y2="183.986" gradientUnits="userSpaceOnUse">
<stop offset="0.12" stop-color="#DDDCF9"/>
<stop offset="0.56" stop-color="white"/>
<stop offset="0.71" stop-color="#F9F8FE"/>
<stop offset="0.91" stop-color="#E6E6FB"/>
<stop offset="1" stop-color="#DDDCF9"/>
</linearGradient>
<linearGradient id="paint50_linear" x1="301.954" y1="180.572" x2="311.99" y2="180.572" gradientUnits="userSpaceOnUse">
<stop stop-color="#00DCF3"/>
<stop offset="0.38" stop-color="#00D9F2"/>
<stop offset="0.6" stop-color="#00D1F0"/>
<stop offset="0.79" stop-color="#00C3EB"/>
<stop offset="0.96" stop-color="#00AFE5"/>
<stop offset="1" stop-color="#00A8E3"/>
</linearGradient>
<linearGradient id="paint51_linear" x1="302.718" y1="187.91" x2="311.161" y2="187.91" gradientUnits="userSpaceOnUse">
<stop offset="0.12" stop-color="#DDDCF9"/>
<stop offset="0.56" stop-color="white"/>
<stop offset="0.71" stop-color="#F9F8FE"/>
<stop offset="0.91" stop-color="#E6E6FB"/>
<stop offset="1" stop-color="#DDDCF9"/>
</linearGradient>
<linearGradient id="paint52_linear" x1="296.018" y1="184.036" x2="304.454" y2="184.036" gradientUnits="userSpaceOnUse">
<stop offset="0.12" stop-color="#DDDCF9"/>
<stop offset="0.56" stop-color="white"/>
<stop offset="0.71" stop-color="#F9F8FE"/>
<stop offset="0.91" stop-color="#E6E6FB"/>
<stop offset="1" stop-color="#DDDCF9"/>
</linearGradient>
<linearGradient id="paint53_linear" x1="295.989" y1="191.817" x2="304.425" y2="191.817" gradientUnits="userSpaceOnUse">
<stop offset="0.12" stop-color="#DDDCF9"/>
<stop offset="0.56" stop-color="white"/>
<stop offset="0.71" stop-color="#F9F8FE"/>
<stop offset="0.91" stop-color="#E6E6FB"/>
<stop offset="1" stop-color="#DDDCF9"/>
</linearGradient>
<linearGradient id="paint54_linear" x1="289.282" y1="187.943" x2="297.726" y2="187.943" gradientUnits="userSpaceOnUse">
<stop offset="0.12" stop-color="#DDDCF9"/>
<stop offset="0.56" stop-color="white"/>
<stop offset="0.71" stop-color="#F9F8FE"/>
<stop offset="0.91" stop-color="#E6E6FB"/>
<stop offset="1" stop-color="#DDDCF9"/>
</linearGradient>
<linearGradient id="paint55_linear" x1="282.582" y1="184.079" x2="291.019" y2="184.079" gradientUnits="userSpaceOnUse">
<stop stop-color="#00DCF3"/>
<stop offset="0.38" stop-color="#00D9F2"/>
<stop offset="0.6" stop-color="#00D1F0"/>
<stop offset="0.79" stop-color="#00C3EB"/>
<stop offset="0.96" stop-color="#00AFE5"/>
<stop offset="1" stop-color="#00A8E3"/>
</linearGradient>
<linearGradient id="paint56_linear" x1="275.789" y1="203.541" x2="284.232" y2="203.541" gradientUnits="userSpaceOnUse">
<stop stop-color="#00DCF3"/>
<stop offset="0.38" stop-color="#00D9F2"/>
<stop offset="0.6" stop-color="#00D1F0"/>
<stop offset="0.79" stop-color="#00C3EB"/>
<stop offset="0.96" stop-color="#00AFE5"/>
<stop offset="1" stop-color="#00A8E3"/>
</linearGradient>
<linearGradient id="paint57_linear" x1="269.06" y1="207.462" x2="277.496" y2="207.462" gradientUnits="userSpaceOnUse">
<stop offset="0.12" stop-color="#DDDCF9"/>
<stop offset="0.56" stop-color="white"/>
<stop offset="0.71" stop-color="#F9F8FE"/>
<stop offset="0.91" stop-color="#E6E6FB"/>
<stop offset="1" stop-color="#DDDCF9"/>
</linearGradient>
<linearGradient id="paint58_linear" x1="289.254" y1="195.725" x2="297.697" y2="195.725" gradientUnits="userSpaceOnUse">
<stop offset="0.12" stop-color="#DDDCF9"/>
<stop offset="0.56" stop-color="white"/>
<stop offset="0.71" stop-color="#F9F8FE"/>
<stop offset="0.91" stop-color="#E6E6FB"/>
<stop offset="1" stop-color="#DDDCF9"/>
</linearGradient>
<linearGradient id="paint59_linear" x1="86.562" y1="241.914" x2="181.724" y2="241.126" gradientUnits="userSpaceOnUse">
<stop stop-color="#6ECAF9"/>
<stop offset="0.24" stop-color="#64C1F5"/>
<stop offset="0.65" stop-color="#4AA9EB"/>
<stop offset="1" stop-color="#2E90E1"/>
</linearGradient>
<linearGradient id="paint60_linear" x1="84.166" y1="237.27" x2="179.326" y2="237.27" gradientUnits="userSpaceOnUse">
<stop stop-color="#6ECAF9"/>
<stop offset="0.24" stop-color="#64C1F5"/>
<stop offset="0.65" stop-color="#4AA9EB"/>
<stop offset="1" stop-color="#2E90E1"/>
</linearGradient>
<linearGradient id="paint61_linear" x1="84.166" y1="235.867" x2="179.326" y2="235.867" gradientUnits="userSpaceOnUse">
<stop stop-color="#6ECAF9"/>
<stop offset="0.24" stop-color="#64C1F5"/>
<stop offset="0.65" stop-color="#4AA9EB"/>
<stop offset="1" stop-color="#2E90E1"/>
</linearGradient>
<linearGradient id="paint62_linear" x1="84.166" y1="234.462" x2="179.326" y2="234.462" gradientUnits="userSpaceOnUse">
<stop stop-color="#6ECAF9"/>
<stop offset="0.24" stop-color="#64C1F5"/>
<stop offset="0.65" stop-color="#4AA9EB"/>
<stop offset="1" stop-color="#2E90E1"/>
</linearGradient>
<linearGradient id="paint63_linear" x1="84.166" y1="233.06" x2="179.326" y2="233.06" gradientUnits="userSpaceOnUse">
<stop stop-color="#6ECAF9"/>
<stop offset="0.24" stop-color="#64C1F5"/>
<stop offset="0.65" stop-color="#4AA9EB"/>
<stop offset="1" stop-color="#2E90E1"/>
</linearGradient>
<linearGradient id="paint64_linear" x1="84.166" y1="231.655" x2="179.326" y2="231.655" gradientUnits="userSpaceOnUse">
<stop stop-color="#6ECAF9"/>
<stop offset="0.24" stop-color="#64C1F5"/>
<stop offset="0.65" stop-color="#4AA9EB"/>
<stop offset="1" stop-color="#2E90E1"/>
</linearGradient>
<linearGradient id="paint65_linear" x1="84.166" y1="230.254" x2="179.326" y2="230.254" gradientUnits="userSpaceOnUse">
<stop stop-color="#6ECAF9"/>
<stop offset="0.24" stop-color="#64C1F5"/>
<stop offset="0.65" stop-color="#4AA9EB"/>
<stop offset="1" stop-color="#2E90E1"/>
</linearGradient>
<linearGradient id="paint66_linear" x1="84.166" y1="228.848" x2="179.326" y2="228.848" gradientUnits="userSpaceOnUse">
<stop stop-color="#6ECAF9"/>
<stop offset="0.24" stop-color="#64C1F5"/>
<stop offset="0.65" stop-color="#4AA9EB"/>
<stop offset="1" stop-color="#2E90E1"/>
</linearGradient>
<linearGradient id="paint67_linear" x1="84.166" y1="227.45" x2="179.326" y2="227.45" gradientUnits="userSpaceOnUse">
<stop stop-color="#6ECAF9"/>
<stop offset="0.24" stop-color="#64C1F5"/>
<stop offset="0.65" stop-color="#4AA9EB"/>
<stop offset="1" stop-color="#2E90E1"/>
</linearGradient>
<linearGradient id="paint68_linear" x1="84.166" y1="226.041" x2="179.325" y2="226.041" gradientUnits="userSpaceOnUse">
<stop stop-color="#6ECAF9"/>
<stop offset="0.24" stop-color="#64C1F5"/>
<stop offset="0.65" stop-color="#4AA9EB"/>
<stop offset="1" stop-color="#2E90E1"/>
</linearGradient>
<linearGradient id="paint69_linear" x1="94.8449" y1="176.987" x2="94.8449" y2="219.843" gradientUnits="userSpaceOnUse">
<stop stop-color="#6ECAF9"/>
<stop offset="0.24" stop-color="#64C1F5"/>
<stop offset="0.65" stop-color="#4AA9EB"/>
<stop offset="1" stop-color="#2E90E1"/>
</linearGradient>
<linearGradient id="paint70_linear" x1="123.371" y1="203.677" x2="140.481" y2="203.677" gradientUnits="userSpaceOnUse">
<stop stop-color="#6ECAF9"/>
<stop offset="0.24" stop-color="#64C1F5"/>
<stop offset="0.65" stop-color="#4AA9EB"/>
<stop offset="1" stop-color="#2E90E1"/>
</linearGradient>
<linearGradient id="paint71_linear" x1="185.562" y1="301.972" x2="185.562" y2="224.176" gradientUnits="userSpaceOnUse">
<stop offset="0.125" stop-color="#96B3FF"/>
<stop offset="0.786458" stop-color="#C5D5FF"/>
</linearGradient>
<linearGradient id="paint72_linear" x1="297.718" y1="36.0609" x2="168.282" y2="36.0609" gradientUnits="userSpaceOnUse">
<stop offset="0.12" stop-color="#DDDCF9"/>
<stop offset="0.56" stop-color="white"/>
<stop offset="0.71" stop-color="#F9F8FE"/>
<stop offset="0.91" stop-color="#E6E6FB"/>
<stop offset="1" stop-color="#DDDCF9"/>
</linearGradient>
<linearGradient id="paint73_linear" x1="297.718" y1="73.3674" x2="233.176" y2="73.3674" gradientUnits="userSpaceOnUse">
<stop offset="0.12" stop-color="#DDDCF9"/>
<stop offset="0.56" stop-color="white"/>
<stop offset="0.71" stop-color="#F9F8FE"/>
<stop offset="0.91" stop-color="#E6E6FB"/>
<stop offset="1" stop-color="#DDDCF9"/>
</linearGradient>
<linearGradient id="paint74_linear" x1="233.212" y1="73.6173" x2="168.246" y2="73.6173" gradientUnits="userSpaceOnUse">
<stop offset="0.12" stop-color="#DDDCF9"/>
<stop offset="0.56" stop-color="white"/>
<stop offset="0.71" stop-color="#F9F8FE"/>
<stop offset="0.91" stop-color="#E6E6FB"/>
<stop offset="1" stop-color="#DDDCF9"/>
</linearGradient>
<linearGradient id="paint75_linear" x1="229.124" y1="104.551" x2="212.072" y2="111.678" gradientUnits="userSpaceOnUse">
<stop stop-color="#6ECAF9"/>
<stop offset="0.07" stop-color="#89D4FA" stop-opacity="0.82"/>
<stop offset="0.16" stop-color="#A4DEFB" stop-opacity="0.63"/>
<stop offset="0.25" stop-color="#BDE7FC" stop-opacity="0.46"/>
<stop offset="0.35" stop-color="#D1EEFD" stop-opacity="0.32"/>
<stop offset="0.45" stop-color="#E2F4FE" stop-opacity="0.2"/>
<stop offset="0.56" stop-color="#EFF9FE" stop-opacity="0.11"/>
<stop offset="0.68" stop-color="#F8FCFF" stop-opacity="0.05"/>
<stop offset="0.81" stop-color="#FDFEFF" stop-opacity="0.01"/>
<stop offset="1" stop-color="white" stop-opacity="0.01"/>
</linearGradient>
<linearGradient id="paint76_linear" x1="229.225" y1="125.297" x2="246.355" y2="132.601" gradientUnits="userSpaceOnUse">
<stop stop-color="#6ECAF9"/>
<stop offset="0.07" stop-color="#89D4FA" stop-opacity="0.82"/>
<stop offset="0.16" stop-color="#A4DEFB" stop-opacity="0.63"/>
<stop offset="0.25" stop-color="#BDE7FC" stop-opacity="0.46"/>
<stop offset="0.35" stop-color="#D1EEFD" stop-opacity="0.32"/>
<stop offset="0.45" stop-color="#E2F4FE" stop-opacity="0.2"/>
<stop offset="0.56" stop-color="#EFF9FE" stop-opacity="0.11"/>
<stop offset="0.68" stop-color="#F8FCFF" stop-opacity="0.05"/>
<stop offset="0.81" stop-color="#FDFEFF" stop-opacity="0.01"/>
<stop offset="1" stop-color="white" stop-opacity="0.01"/>
</linearGradient>
<linearGradient id="paint77_linear" x1="264.752" y1="87.9143" x2="264.752" y2="57.7387" gradientUnits="userSpaceOnUse">
<stop stop-color="#6ECAF9"/>
<stop offset="0.1" stop-color="#71CBF9" stop-opacity="0.98"/>
<stop offset="0.23" stop-color="#7ACFFA" stop-opacity="0.91"/>
<stop offset="0.37" stop-color="#89D4FA" stop-opacity="0.81"/>
<stop offset="0.52" stop-color="#9FDCFB" stop-opacity="0.66"/>
<stop offset="0.67" stop-color="#BAE6FC" stop-opacity="0.48"/>
<stop offset="0.84" stop-color="#DAF2FD" stop-opacity="0.25"/>
<stop offset="1" stop-color="white" stop-opacity="0.01"/>
</linearGradient>
<linearGradient id="paint78_linear" x1="240.53" y1="77.0114" x2="240.53" y2="0.777236" gradientUnits="userSpaceOnUse">
<stop stop-color="#5C90FE"/>
<stop offset="0.05" stop-color="#5A8DFE" stop-opacity="0.89"/>
<stop offset="0.15" stop-color="#5686FD" stop-opacity="0.68"/>
<stop offset="0.26" stop-color="#5281FC" stop-opacity="0.5"/>
<stop offset="0.37" stop-color="#4F7CFB" stop-opacity="0.35"/>
<stop offset="0.48" stop-color="#4C79FB" stop-opacity="0.22"/>
<stop offset="0.6" stop-color="#4A76FA" stop-opacity="0.12"/>
<stop offset="0.72" stop-color="#4974FA" stop-opacity="0.05"/>
<stop offset="0.85" stop-color="#4872FA" stop-opacity="0.01"/>
<stop offset="1" stop-color="#4872FA" stop-opacity="0.01"/>
</linearGradient>
<linearGradient id="paint79_linear" x1="243.54" y1="79.8468" x2="243.54" y2="12.2271" gradientUnits="userSpaceOnUse">
<stop stop-color="#5C90FE"/>
<stop offset="0.05" stop-color="#5A8DFE" stop-opacity="0.89"/>
<stop offset="0.15" stop-color="#5686FD" stop-opacity="0.68"/>
<stop offset="0.26" stop-color="#5281FC" stop-opacity="0.5"/>
<stop offset="0.37" stop-color="#4F7CFB" stop-opacity="0.35"/>
<stop offset="0.48" stop-color="#4C79FB" stop-opacity="0.22"/>
<stop offset="0.6" stop-color="#4A76FA" stop-opacity="0.12"/>
<stop offset="0.72" stop-color="#4974FA" stop-opacity="0.05"/>
<stop offset="0.85" stop-color="#4872FA" stop-opacity="0.01"/>
<stop offset="1" stop-color="#4872FA" stop-opacity="0.01"/>
</linearGradient>
<linearGradient id="paint80_linear" x1="182.464" y1="91.4347" x2="169.827" y2="112.496" gradientUnits="userSpaceOnUse">
<stop stop-color="#586DFF" stop-opacity="0.18"/>
<stop offset="0.5625" stop-color="#586DFF" stop-opacity="0"/>
</linearGradient>
<linearGradient id="paint81_linear" x1="257.135" y1="99.1485" x2="274.95" y2="131.92" gradientUnits="userSpaceOnUse">
<stop stop-color="#586DFF" stop-opacity="0.18"/>
<stop offset="0.624339" stop-color="#586DFF" stop-opacity="0"/>
</linearGradient>
<linearGradient id="paint82_linear" x1="188.331" y1="139.329" x2="135.86" y2="205.787" gradientUnits="userSpaceOnUse">
<stop stop-color="#5C90FE"/>
<stop stop-color="#5C8FFE" stop-opacity="0.98"/>
<stop offset="0.05" stop-color="#588AFD" stop-opacity="0.8"/>
<stop offset="0.1" stop-color="#5585FD" stop-opacity="0.63"/>
<stop offset="0.15" stop-color="#5280FC" stop-opacity="0.48"/>
<stop offset="0.2" stop-color="#4F7CFB" stop-opacity="0.35"/>
<stop offset="0.27" stop-color="#4D79FB" stop-opacity="0.24"/>
<stop offset="0.34" stop-color="#4B77FB" stop-opacity="0.15"/>
<stop offset="0.42" stop-color="#4A74FA" stop-opacity="0.08"/>
<stop offset="0.52" stop-color="#4973FA" stop-opacity="0.04"/>
<stop offset="0.65" stop-color="#4872FA" stop-opacity="0.01"/>
<stop offset="1" stop-color="#4872FA" stop-opacity="0.01"/>
</linearGradient>
<linearGradient id="paint83_linear" x1="123.216" y1="98.1349" x2="60.8694" y2="161.974" gradientUnits="userSpaceOnUse">
<stop stop-color="#586DFF" stop-opacity="0.94"/>
<stop offset="0.822917" stop-color="#586DFF" stop-opacity="0.03"/>
</linearGradient>
</defs>
</svg>
