<svg width="146" height="16" viewBox="0 0 146 16" fill="none" xmlns="http://www.w3.org/2000/svg">
<path d="M12.893 6.43018C13.8731 7.73816 11.003 10.2666 11.6479 9.22227H5.53436C4.87296 8.35742 4.41831 7.41157 4.19971 6.43018H12.893Z" fill="black"/>
<path d="M11.1213 13.9671C10.2525 14.6597 9.31326 15.259 8.31901 15.7551L7.83276 16L7.34354 15.7561C2.74403 13.4479 0 9.47226 0 5.11539V0H2.80527V5.11539C2.80476 5.44168 2.82677 5.76761 2.87111 6.09086C3.22436 8.73778 5.01103 11.1796 7.82222 12.8237C7.82486 12.8262 7.82785 12.8283 7.83111 12.83C7.83407 12.8283 7.83572 12.8267 7.83868 12.8253L7.85054 12.8178C8.86662 13.3861 9.97309 13.7749 11.1213 13.9671Z" fill="black"/>
<path d="M15.5786 6.43018C15.4488 7.44127 15.1715 8.42788 14.7556 9.35857C13.9865 11.0866 12.7506 12.6593 11.1227 13.9676C9.975 13.7752 8.86909 13.3864 7.85352 12.8183C8.22038 12.6021 8.57606 12.3673 8.9192 12.1151C8.95337 12.093 8.98634 12.069 9.01796 12.0433C10.9182 10.675 12.2872 8.69203 12.8932 6.43018H15.5786Z" fill="black"/>
<path d="M15.6654 0.000976562H2.80518V2.80493H15.6654V0.000976562Z" fill="black"/>
<path d="M15.6654 2.80493V5.11538C15.6654 5.21086 15.6624 5.30666 15.6595 5.40246H12.8525C12.8554 5.30655 12.8568 5.21086 12.8568 5.11538V2.80493H15.6654Z" fill="black"/>
<path d="M44.8708 7.51954C44.8708 8.47021 44.7638 9.2464 44.5497 9.8481C44.2603 10.7122 43.6905 11.4549 42.9307 11.9581C42.1612 12.4426 41.2656 12.6886 40.3565 12.665C38.7438 12.665 37.5066 12.1164 36.645 11.0191C35.9867 10.1679 35.6413 9.11606 35.6668 8.04029C35.6668 6.76224 36.0487 5.6879 36.8123 4.81727C37.6784 3.82793 38.8882 3.33325 40.4415 3.33325C41.4786 3.33325 42.3578 3.59948 43.0791 4.13193C43.5936 4.50788 44.033 5.06506 44.3973 5.80347L42.2386 6.69793C42.0949 6.34659 41.8746 6.03178 41.5937 5.77649C41.2394 5.48588 40.793 5.33134 40.3349 5.34073C39.3411 5.34073 38.6485 5.85204 38.2572 6.87466C38.1112 7.24684 38.0366 7.6432 38.0373 8.04299C38.0254 8.42652 38.0894 8.80862 38.2258 9.16727C38.3622 9.52593 38.5682 9.85406 38.832 10.1328C39.2241 10.5483 39.7472 10.7556 40.401 10.7547C40.9812 10.7547 41.4412 10.5861 41.7812 10.2488C42.0296 9.97557 42.1837 9.62991 42.2211 9.26259H40.3417V7.51954H44.8708ZM56.6166 8.67708C56.6221 9.13041 56.5769 9.58293 56.4817 10.0262C56.3338 10.6395 56.0042 11.1939 55.5359 11.6168C54.8236 12.2904 53.8711 12.6273 52.6784 12.6273C51.4651 12.6273 50.5175 12.2841 49.8357 11.5979C49.4674 11.2232 49.2108 10.7532 49.095 10.2407C48.9882 9.72888 48.9407 9.20649 48.9534 8.68382V3.61387H51.2375V8.36408C51.2375 8.74633 51.2442 9.03099 51.2577 9.21806C51.2991 9.81437 51.5689 10.2303 52.0672 10.466C52.2808 10.5659 52.5142 10.6162 52.7499 10.613C53.3067 10.613 53.7267 10.4183 54.01 10.0289C54.2205 9.74197 54.3257 9.18704 54.3257 8.36408V3.61387H56.6098L56.6166 8.67708ZM68.6457 12.3952H66.2064L65.6411 10.864H62.4881L61.8837 12.3952H59.4714L62.8443 3.61387H65.3389L68.6457 12.3952ZM65.0232 9.12767L64.0788 6.32827L63.1195 9.12767H65.0232ZM79.5941 12.3952H76.7609L74.5793 9.02245V12.3952H72.2898V3.61387H75.8421C76.8801 3.61387 77.6477 3.92462 78.1451 4.54611C78.5479 5.04702 78.7618 5.67352 78.7496 6.31614C78.7496 7.09232 78.518 7.71201 78.0547 8.1752C77.715 8.49418 77.2907 8.70867 76.8324 8.7931L79.5941 12.3952ZM76.3831 6.4416C76.3857 6.29334 76.3566 6.14622 76.2977 6.01012C76.2388 5.87401 76.1516 5.75204 76.0418 5.65237C75.8259 5.4509 75.4792 5.35062 75.0016 5.35152H74.5753V7.53843H75.0016C75.4846 7.53843 75.83 7.43725 76.0418 7.23623C76.1513 7.13524 76.2382 7.01223 76.2968 6.87528C76.3554 6.73833 76.3843 6.59054 76.3818 6.4416H76.3831ZM90.8879 8.00117C90.8754 8.90995 90.5876 9.79357 90.0625 10.5354C89.5374 11.2773 88.7997 11.8425 87.9468 12.1564C87.5002 12.3132 87.0304 12.3934 86.5571 12.3939H83.1842V3.61387H86.5571C87.373 3.61071 88.1713 3.85021 88.8507 4.30192C89.5328 4.74008 90.0816 5.35697 90.4373 6.08544C90.7325 6.681 90.8867 7.33649 90.8879 8.00117ZM88.5202 8.00117C88.5316 7.43028 88.3522 6.87191 88.0102 6.41462C87.5605 5.81651 86.8859 5.51791 85.9864 5.51881H85.4643V10.4916H85.9864C86.8859 10.4916 87.5605 10.1926 88.0102 9.59447C88.3508 9.13405 88.5292 8.57374 88.5175 8.00117H88.5202ZM102.267 12.3952H99.8288L99.2622 10.864H96.1092L95.5048 12.3952H93.0925L96.4654 3.61387H98.96L102.267 12.3952ZM98.6443 9.12767L97.6998 6.32827L96.7473 9.12767H98.6443ZM113.215 12.3952H110.374L108.194 9.02245V12.3952H105.912V3.61387H109.463C110.501 3.61387 111.269 3.92462 111.766 4.54611C112.169 5.04702 112.383 5.67352 112.371 6.31614C112.371 7.09232 112.139 7.71201 111.676 8.1752C111.336 8.49418 110.912 8.70867 110.453 8.7931L113.215 12.3952ZM110.006 6.4416C110.008 6.29325 109.978 6.1461 109.919 6.01C109.86 5.8739 109.773 5.75197 109.663 5.65237C109.447 5.45135 109.102 5.35152 108.624 5.35152H108.198V7.53843H108.62C109.102 7.53843 109.448 7.4377 109.659 7.23623C109.769 7.13567 109.857 7.01286 109.917 6.8759C109.976 6.73894 110.006 6.59093 110.004 6.4416H110.006ZM119.093 12.3952H116.808V3.61387H119.092L119.093 12.3952ZM131.919 12.3952H129.479L128.913 10.864H125.761L125.157 12.3952H122.743L126.116 3.61387H128.605L131.919 12.3952ZM128.297 9.12767L127.353 6.32827L126.394 9.12767H128.297ZM144.332 12.3952H142.048L137.847 7.01767V12.3952H135.563V3.61387H137.847L142.048 8.98602V3.61387H144.332V12.3952Z" fill="black"/>
</svg>
