<svg width="185" height="16" viewBox="0 0 185 16" fill="none" xmlns="http://www.w3.org/2000/svg">
    <path d="M12.8933 6.4303C13.8734 7.73828 11.0032 10.2667 11.6482 9.2224H5.5346C4.8732 8.35754 4.41855 7.4117 4.19995 6.4303H12.8933Z"
          fill="url(#paint0_linear)"/>
    <path d="M11.1213 13.9671C10.2525 14.6597 9.31326 15.259 8.31901 15.7551L7.83276 16L7.34354 15.7561C2.74403 13.4479 0 9.47226 0 5.11539V0H2.80527V5.11539C2.80476 5.44168 2.82677 5.76761 2.87111 6.09086C3.22436 8.73778 5.01103 11.1796 7.82222 12.8237C7.82486 12.8262 7.82785 12.8283 7.83111 12.83C7.83407 12.8283 7.83572 12.8267 7.83868 12.8253L7.85054 12.8178C8.86662 13.3861 9.97309 13.7749 11.1213 13.9671Z"
          fill="url(#paint1_linear)"/>
    <path d="M15.5786 6.4303C15.4488 7.44139 15.1715 8.428 14.7556 9.35869C13.9865 11.0868 12.7506 12.6594 11.1227 13.9677C9.975 13.7753 8.86909 13.3865 7.85352 12.8184C8.22038 12.6022 8.57606 12.3675 8.9192 12.1152C8.95337 12.0931 8.98634 12.0691 9.01796 12.0435C10.9182 10.6751 12.2872 8.69215 12.8932 6.4303H15.5786Z"
          fill="url(#paint2_linear)"/>
    <path d="M15.6654 0.00109863H2.80518V2.80505H15.6654V0.00109863Z" fill="url(#paint3_linear)"/>
    <path d="M15.6654 2.80493V5.11538C15.6654 5.21086 15.6624 5.30666 15.6595 5.40246H12.8525C12.8554 5.30655 12.8568 5.21086 12.8568 5.11538V2.80493H15.6654Z"
          fill="url(#paint4_linear)"/>
    <path d="M48.2875 7.3309C48.2875 8.65505 48.1407 9.73617 47.8472 10.5743C47.4504 11.7779 46.6691 12.8123 45.6273 13.5132C44.5722 14.188 43.3441 14.5306 42.0977 14.4978C39.8864 14.4978 38.19 13.7337 37.0085 12.2053C36.1059 11.0196 35.6324 9.55463 35.6673 8.05624C35.6673 6.27609 36.1909 4.77968 37.2379 3.56703C38.4256 2.18901 40.0843 1.5 42.2142 1.5C43.6362 1.5 44.8417 1.87082 45.8308 2.61244C46.5362 3.13609 47.1387 3.91216 47.6382 4.94066L44.6783 6.18651C44.4813 5.69715 44.1792 5.25867 43.794 4.90309C43.3083 4.49831 42.6962 4.28305 42.0681 4.29612C40.7053 4.29612 39.7557 5.00831 39.2192 6.43268C39.019 6.95107 38.9167 7.50314 38.9176 8.06C38.9013 8.5942 38.9891 9.1264 39.1761 9.62596C39.3631 10.1255 39.6456 10.5826 40.0072 10.9707C40.545 11.5495 41.2621 11.8383 42.1587 11.837C42.9542 11.837 43.585 11.6021 44.0512 11.1323C44.3917 10.7518 44.6031 10.2703 44.6543 9.75871H42.0773V7.3309H48.2875ZM64.3929 8.94318C64.4005 9.57461 64.3385 10.2049 64.2079 10.8223C64.0051 11.6766 63.5532 12.4488 62.9111 13.0378C61.9344 13.9761 60.6283 14.4452 58.993 14.4452C57.3293 14.4452 56.03 13.9673 55.0952 13.0115C54.5901 12.4896 54.2384 11.8349 54.0796 11.1211C53.9332 10.4082 53.868 9.68059 53.8854 8.95258V1.89086H57.0173V8.50723C57.0173 9.03964 57.0265 9.43613 57.045 9.6967C57.1018 10.5273 57.4717 11.1067 58.155 11.4349C58.4478 11.574 58.7678 11.6441 59.091 11.6397C59.8544 11.6397 60.4304 11.3685 60.8189 10.8261C61.1074 10.4264 61.2517 9.65349 61.2517 8.50723V1.89086H64.3837L64.3929 8.94318ZM80.8868 14.122H77.5421L76.767 11.9892H72.4438L71.615 14.122H68.3073L72.9321 1.89086H76.3526L80.8868 14.122ZM75.9198 9.5708L74.6248 5.67164L73.3095 9.5708H75.9198ZM95.8989 14.122H92.0141L89.0228 9.42424V14.122H85.8834V1.89086H90.7543C92.1775 1.89086 93.2301 2.32369 93.9121 3.18933C94.4643 3.88704 94.7577 4.75966 94.7409 5.65473C94.7409 6.73585 94.4233 7.59899 93.7882 8.24415C93.3223 8.68843 92.7405 8.9872 92.1121 9.10479L95.8989 14.122ZM91.4961 5.82949C91.4996 5.62297 91.4597 5.41807 91.379 5.22849C91.2983 5.03891 91.1786 4.86903 91.0281 4.7302C90.7321 4.44959 90.2567 4.30991 89.6018 4.31116H89.0172V7.35721H89.6018C90.2641 7.35721 90.7376 7.21628 91.0281 6.93629C91.1782 6.79562 91.2974 6.62429 91.3777 6.43354C91.458 6.24279 91.4978 6.03693 91.4943 5.82949H91.4961ZM111.385 8.00175C111.367 9.26754 110.973 10.4983 110.253 11.5316C109.533 12.5649 108.521 13.3521 107.352 13.7894C106.739 14.0077 106.095 14.1195 105.446 14.1201H100.822V1.89086H105.446C106.565 1.88646 107.66 2.22005 108.591 2.84921C109.526 3.45951 110.279 4.31876 110.767 5.3334C111.171 6.16294 111.383 7.07593 111.385 8.00175ZM108.138 8.00175C108.154 7.20658 107.908 6.42884 107.439 5.7919C106.822 4.95883 105.897 4.54292 104.664 4.54417H103.948V11.4706H104.664C105.897 11.4706 106.822 11.0541 107.439 10.221C107.906 9.57968 108.15 8.79926 108.134 8.00175H108.138ZM126.987 14.122H123.644L122.867 11.9892H118.544L117.715 14.122H114.407L119.032 1.89086H122.453L126.987 14.122ZM122.02 9.5708L120.725 5.67164L119.419 9.5708H122.02ZM141.999 14.122H138.103L135.114 9.42424V14.122H131.985V1.89086H136.854C138.278 1.89086 139.33 2.32369 140.012 3.18933C140.564 3.88704 140.858 4.75966 140.841 5.65473C140.841 6.73585 140.523 7.59899 139.888 8.24415C139.422 8.68843 138.841 8.9872 138.212 9.10479L141.999 14.122ZM137.598 5.82949C137.601 5.62285 137.561 5.4179 137.48 5.22833C137.399 5.03876 137.279 4.86893 137.128 4.7302C136.832 4.45021 136.359 4.31116 135.704 4.31116H135.119V7.35721H135.698C136.359 7.35721 136.834 7.21691 137.123 6.93629C137.274 6.79622 137.394 6.62516 137.476 6.4344C137.558 6.24363 137.599 6.03748 137.596 5.82949H137.598ZM150.059 14.122H146.925V1.89086H150.057L150.059 14.122ZM167.644 14.122H164.3L163.523 11.9892H159.201L158.373 14.122H155.063L159.688 1.89086H163.101L167.644 14.122ZM162.679 9.5708L161.384 5.67164L160.069 9.5708H162.679ZM184.666 14.122H181.534L175.773 6.63186V14.122H172.641V1.89086H175.773L181.534 9.3735V1.89086H184.666V14.122Z"
          fill="url(#paint5_linear)"/>
    <defs>
        <linearGradient id="paint0_linear" x1="15.7265" y1="9.58157" x2="5.02958" y2="6.69861"
                        gradientUnits="userSpaceOnUse">
            <stop offset="0.14" stop-color="#ADADAD"/>
            <stop offset="0.29" stop-color="#CBCBCB"/>
            <stop offset="0.43" stop-color="#E2E2E2"/>
            <stop offset="0.59" stop-color="#F2F2F2"/>
            <stop offset="0.77" stop-color="#FCFCFC"/>
            <stop offset="1" stop-color="white"/>
        </linearGradient>
        <linearGradient id="paint1_linear" x1="11.7771" y1="18.716" x2="-3.34354" y2="-2.37334"
                        gradientUnits="userSpaceOnUse">
            <stop stop-color="#ADADAD"/>
            <stop offset="0.17" stop-color="#CBCBCB"/>
            <stop offset="0.34" stop-color="#E2E2E2"/>
            <stop offset="0.52" stop-color="#F2F2F2"/>
            <stop offset="0.73" stop-color="#FCFCFC"/>
            <stop offset="1" stop-color="white"/>
        </linearGradient>
        <linearGradient id="paint2_linear" x1="8.02767" y1="15.5243" x2="15.2096" y2="6.42042"
                        gradientUnits="userSpaceOnUse">
            <stop offset="0.15" stop-color="#ADADAD"/>
            <stop offset="0.29" stop-color="#CBCBCB"/>
            <stop offset="0.44" stop-color="#E2E2E2"/>
            <stop offset="0.6" stop-color="#F2F2F2"/>
            <stop offset="0.77" stop-color="#FCFCFC"/>
            <stop offset="1" stop-color="white"/>
        </linearGradient>
        <linearGradient id="paint3_linear" x1="1.56896" y1="8.68621" x2="7.63843" y2="2.92061"
                        gradientUnits="userSpaceOnUse">
            <stop offset="0.14" stop-color="#ADADAD"/>
            <stop offset="0.43" stop-color="#C9C9C9"/>
            <stop offset="1" stop-color="white"/>
        </linearGradient>
        <linearGradient id="paint4_linear" x1="1989.41" y1="690.163" x2="1963.61" y2="1125.38"
                        gradientUnits="userSpaceOnUse">
            <stop offset="0.14" stop-color="#ADADAD"/>
            <stop offset="0.29" stop-color="#CBCBCB"/>
            <stop offset="0.43" stop-color="#E2E2E2"/>
            <stop offset="0.59" stop-color="#F2F2F2"/>
            <stop offset="0.77" stop-color="#FCFCFC"/>
            <stop offset="1" stop-color="white"/>
        </linearGradient>
        <linearGradient id="paint5_linear" x1="110.169" y1="24.2862" x2="110.169" y2="-9.53041"
                        gradientUnits="userSpaceOnUse">
            <stop offset="0.18" stop-color="#ADADAD"/>
            <stop offset="0.32" stop-color="#CBCBCB"/>
            <stop offset="0.46" stop-color="#E2E2E2"/>
            <stop offset="0.61" stop-color="#F2F2F2"/>
            <stop offset="0.78" stop-color="#FCFCFC"/>
            <stop offset="1" stop-color="white"/>
        </linearGradient>
    </defs>
</svg>
