<svg width="61" height="37" viewBox="0 0 61 37" fill="none" xmlns="http://www.w3.org/2000/svg">
<path d="M37.9975 32.7453H22.2687V3.96405H37.9975V32.7453Z" fill="#FF5F00"/>
<path d="M23.2772 18.3489C23.2772 12.5105 25.962 7.30984 30.1429 3.95831C27.0855 1.5075 23.227 0.0446938 19.0335 0.0446938C9.10589 0.0446938 1.05843 8.23965 1.05843 18.3489C1.05843 28.4582 9.10589 36.6532 19.0335 36.6532C23.227 36.6532 27.0855 35.1904 30.1429 32.7396C25.962 29.3881 23.2772 24.1874 23.2772 18.3489Z" fill="#EB001B"/>
<path d="M59.2046 18.3489C59.2046 28.4582 51.1572 36.6532 41.2296 36.6532C37.0361 36.6532 33.1775 35.1904 30.119 32.7396C34.301 29.3881 36.9858 24.1874 36.9858 18.3489C36.9858 12.5105 34.301 7.30984 30.119 3.95831C33.1775 1.5075 37.0361 0.0446938 41.2296 0.0446938C51.1572 0.0446938 59.2046 8.23965 59.2046 18.3489Z" fill="#F79E1B"/>
</svg>
