<svg width="151" height="96" viewBox="0 0 151 96" fill="none" xmlns="http://www.w3.org/2000/svg">
<path d="M95.9157 85.373H55.0742V10.6393H95.9157V85.373Z" fill="#FF5F00"/>
<path d="M57.6936 47.9998C57.6936 32.8397 64.6649 19.3355 75.5211 10.6329C67.5823 4.26906 57.563 0.470732 46.6743 0.470732C20.8961 0.470732 0 21.7499 0 47.9998C0 74.2497 20.8961 95.5288 46.6743 95.5288C57.563 95.5288 67.5823 91.7304 75.5211 85.3667C64.6649 76.664 57.6936 63.1598 57.6936 47.9998Z" fill="#EB001B"/>
<path d="M150.999 47.9998C150.999 74.2497 130.103 95.5288 104.324 95.5288C93.4356 95.5288 83.4164 91.7304 75.4746 85.3667C86.3337 76.664 93.305 63.1598 93.305 47.9998C93.305 32.8397 86.3337 19.3355 75.4746 10.6329C83.4164 4.26906 93.4356 0.470732 104.324 0.470732C130.103 0.470732 150.999 21.7499 150.999 47.9998Z" fill="#F79E1B"/>
<path d="M35.1245 48.3C35.1245 46.2239 36.4606 44.5184 38.6441 44.5184C40.7303 44.5184 42.1386 46.1504 42.1386 48.3C42.1386 50.4496 40.7303 52.0816 38.6441 52.0816C36.4606 52.0816 35.1245 50.376 35.1245 48.3ZM44.5165 48.3V42.3943H41.9942V43.8283C41.1942 42.7648 39.9802 42.0973 38.3302 42.0973C35.0772 42.0973 32.5271 44.6938 32.5271 48.3C32.5271 51.909 35.0772 54.5027 38.3302 54.5027C39.9802 54.5027 41.1942 53.8352 41.9942 52.7717V54.2057H44.5165V48.3ZM129.754 48.3C129.754 46.2239 131.09 44.5184 133.273 44.5184C135.362 44.5184 136.768 46.1504 136.768 48.3C136.768 50.4496 135.362 52.0816 133.273 52.0816C131.09 52.0816 129.754 50.376 129.754 48.3ZM139.148 48.3V37.651H136.623V43.8283C135.823 42.7648 134.609 42.0973 132.959 42.0973C129.706 42.0973 127.156 44.6938 127.156 48.3C127.156 51.909 129.706 54.5027 132.959 54.5027C134.609 54.5027 135.823 53.8352 136.623 52.7717V54.2057H139.148V48.3ZM75.8262 44.3968C77.4513 44.3968 78.4958 45.4348 78.7625 47.262H72.7428C73.0122 45.5564 74.0289 44.3968 75.8262 44.3968ZM75.8762 42.0973C72.4761 42.0973 70.0982 44.6174 70.0982 48.3C70.0982 52.0561 72.5733 54.5027 76.0457 54.5027C77.793 54.5027 79.3931 54.0586 80.8015 52.8481L79.5653 50.9446C78.593 51.7337 77.3541 52.1806 76.1901 52.1806C74.5651 52.1806 73.0845 51.4141 72.7206 49.2871H81.3348C81.3598 48.9675 81.3848 48.6451 81.3848 48.3C81.3598 44.6174 79.1264 42.0973 75.8762 42.0973ZM106.333 48.3C106.333 46.2239 107.669 44.5184 109.853 44.5184C111.939 44.5184 113.347 46.1504 113.347 48.3C113.347 50.4496 111.939 52.0816 109.853 52.0816C107.669 52.0816 106.333 50.376 106.333 48.3ZM115.725 48.3V42.3943H113.203V43.8283C112.4 42.7648 111.189 42.0973 109.539 42.0973C106.286 42.0973 103.736 44.6938 103.736 48.3C103.736 51.909 106.286 54.5027 109.539 54.5027C111.189 54.5027 112.4 53.8352 113.203 52.7717V54.2057H115.725V48.3ZM92.0881 48.3C92.0881 51.8836 94.5382 54.5027 98.2772 54.5027C100.025 54.5027 101.188 54.1067 102.45 53.0942L101.238 51.0181C100.291 51.7111 99.2967 52.0816 98.2022 52.0816C96.1882 52.0561 94.7076 50.574 94.7076 48.3C94.7076 46.0259 96.1882 44.5439 98.2022 44.5184C99.2967 44.5184 100.291 44.8889 101.238 45.5819L102.45 43.5058C101.188 42.4933 100.025 42.0973 98.2772 42.0973C94.5382 42.0973 92.0881 44.7164 92.0881 48.3ZM124.609 42.0973C123.153 42.0973 122.206 42.7902 121.55 43.8283V42.3943H119.05V54.2057H121.575V47.5844C121.575 45.63 122.401 44.5439 124.051 44.5439C124.562 44.5439 125.095 44.6174 125.628 44.8408L126.406 42.4197C125.848 42.1963 125.12 42.0973 124.609 42.0973ZM56.9921 43.3333C55.7781 42.5187 54.1058 42.0973 52.2613 42.0973C49.3223 42.0973 47.4306 43.5313 47.4306 45.8789C47.4306 47.805 48.8389 48.993 51.4335 49.3635L52.6252 49.536C54.0086 49.734 54.6614 50.1045 54.6614 50.772C54.6614 51.6856 53.7392 52.206 52.0169 52.206C50.2696 52.206 49.0084 51.6375 48.1584 50.97L46.9694 52.9697C48.3528 54.0077 50.1001 54.5027 51.9919 54.5027C55.342 54.5027 57.2838 52.8962 57.2838 50.6476C57.2838 48.5715 55.7559 47.4854 53.2308 47.1149L52.0419 46.9395C50.9502 46.7924 50.0751 46.5718 50.0751 45.7799C50.0751 44.9144 50.9001 44.3968 52.2835 44.3968C53.7642 44.3968 55.1976 44.9653 55.9004 45.4094L56.9921 43.3333ZM89.538 42.0973C88.0823 42.0973 87.1351 42.7902 86.4823 43.8283V42.3943H83.9822V54.2057H86.5045V47.5844C86.5045 45.63 87.3295 44.5439 88.9796 44.5439C89.4907 44.5439 90.0241 44.6174 90.5574 44.8408L91.3353 42.4197C90.7769 42.1963 90.0491 42.0973 89.538 42.0973ZM68.012 42.3943H63.8868V38.8107H61.3367V42.3943H58.9838V44.7419H61.3367V50.13C61.3367 52.8707 62.3812 54.5027 65.3647 54.5027C66.4592 54.5027 67.7203 54.1576 68.5204 53.5891L67.7926 51.3886C67.0397 51.8327 66.2147 52.0561 65.5591 52.0561C64.298 52.0561 63.8868 51.2642 63.8868 50.0791V44.7419H68.012V42.3943ZM30.2965 54.2057V46.7924C30.2965 44.0008 28.5492 42.1227 25.7324 42.0973C24.2518 42.0718 22.7239 42.5413 21.6544 44.1988C20.8544 42.8892 19.5932 42.0973 17.8209 42.0973C16.582 42.0973 15.3708 42.4678 14.4235 43.8509V42.3943H11.8984V54.2057H14.4458V47.6579C14.4458 45.6073 15.5625 44.5184 17.2876 44.5184C18.9626 44.5184 19.8099 45.63 19.8099 47.6325V54.2057H22.36V47.6579C22.36 45.6073 23.5239 44.5184 25.199 44.5184C26.9213 44.5184 27.7464 45.63 27.7464 47.6325V54.2057H30.2965Z" fill="white"/>
</svg>
