<svg width="48" height="48" viewBox="0 0 48 48" fill="none" xmlns="http://www.w3.org/2000/svg">
<g clip-path="url(#clip0_1272_25025)">
<path d="M24.0403 36.3486L38.103 25.0985C38.7704 24.5629 38.7704 23.4367 38.103 22.9011L24.0403 11.651C23.4332 11.1662 22.5489 11.2651 22.0627 11.8707C21.5738 12.4805 21.6781 13.3635 22.2824 13.8483L34.9732 23.9998L22.2824 34.1513C21.6748 34.6408 21.5796 35.5241 22.0627 36.1289C22.5489 36.7346 23.4332 36.8334 24.0403 36.3486Z" fill="#008AA0"/>
<path d="M14.9416 36.3487L29.0043 25.0986C29.6717 24.563 29.6717 23.4368 29.0043 22.9013L14.9416 11.6512C14.0219 10.9166 12.6564 11.5728 12.6564 12.7499V16.9687L1.40625 16.9687C0.628952 16.9687 -2.28882e-05 17.5976 -2.28882e-05 18.3749V29.6251C-2.28882e-05 30.4024 0.628952 31.0314 1.40625 31.0314H12.6564V35.2502C12.6564 36.4272 14.0219 37.0833 14.9416 36.3487ZM31.4592 11.8709C30.9717 12.4807 31.0733 13.3637 31.6789 13.8485L44.3696 24L31.6789 34.1515C31.0713 34.641 30.9761 35.5244 31.4592 36.1291C31.9454 36.7347 32.8297 36.8336 33.4367 36.3488L47.4994 25.0987C48.1669 24.5631 48.1669 23.4369 47.4994 22.9014L33.4367 11.6513C32.8297 11.1664 31.9453 11.2653 31.4592 11.8709Z" fill="#00EBB2"/>
</g>
<defs>
<clipPath id="clip0_1272_25025">
<rect width="48" height="48" fill="white" transform="matrix(0 1 -1 0 48 0)"/>
</clipPath>
</defs>
</svg>
