<svg width="278" height="121" viewBox="0 0 278 121" fill="none" xmlns="http://www.w3.org/2000/svg">
<g clip-path="url(#clip0_2003_30159)">
<rect x="0.666626" y="0.809814" width="277.333" height="120" rx="20" fill="white"/>
<g filter="url(#filter0_d_2003_30159)">
<rect x="25" y="21.9443" width="228" height="235.793" rx="4.88571" fill="white" shape-rendering="crispEdges"/>
<g filter="url(#filter1_d_2003_30159)">
<rect x="121.086" y="12.1729" width="35.8286" height="35.8286" rx="17.9143" fill="white"/>
<path d="M137.284 34.0589L133.709 30.4836L132.173 32.0188L137.284 37.1293L147.823 26.5903L146.288 25.0551L137.284 34.0589Z" fill="#30D0C0"/>
</g>
<path d="M118.217 68.1634C118.217 67.998 118.191 67.8495 118.14 67.7181C118.094 67.5824 118.005 67.4594 117.873 67.3491C117.742 67.2346 117.557 67.1222 117.32 67.0119C117.082 66.9017 116.775 66.7872 116.397 66.6684C115.977 66.5327 115.579 66.38 115.201 66.2104C114.828 66.0407 114.497 65.8435 114.209 65.6187C113.925 65.3897 113.7 65.1247 113.534 64.8235C113.373 64.5224 113.293 64.1725 113.293 63.7739C113.293 63.3879 113.378 63.0381 113.547 62.7242C113.717 62.4061 113.954 62.1347 114.26 61.9099C114.565 61.6809 114.926 61.5049 115.341 61.3819C115.761 61.2589 116.221 61.1974 116.722 61.1974C117.404 61.1974 118 61.3204 118.509 61.5664C119.018 61.8124 119.413 62.1495 119.693 62.5779C119.977 63.0062 120.119 63.4961 120.119 64.0474H118.223C118.223 63.776 118.166 63.5385 118.051 63.3349C117.941 63.1271 117.771 62.9638 117.542 62.8451C117.318 62.7263 117.033 62.667 116.69 62.667C116.359 62.667 116.083 62.7178 115.863 62.8196C115.642 62.9172 115.477 63.0508 115.367 63.2204C115.256 63.3858 115.201 63.5724 115.201 63.7802C115.201 63.9372 115.239 64.0792 115.316 64.2065C115.396 64.3337 115.515 64.4524 115.672 64.5627C115.829 64.673 116.022 64.7769 116.251 64.8744C116.48 64.972 116.745 65.0674 117.046 65.1607C117.551 65.3134 117.994 65.4851 118.376 65.676C118.762 65.8668 119.084 66.081 119.343 66.3185C119.601 66.556 119.796 66.8253 119.928 67.1264C120.059 67.4276 120.125 67.769 120.125 68.1507C120.125 68.5536 120.047 68.9141 119.89 69.2321C119.733 69.5502 119.506 69.8195 119.209 70.0401C118.912 70.2606 118.558 70.4281 118.147 70.5426C117.735 70.6571 117.275 70.7144 116.766 70.7144C116.308 70.7144 115.856 70.655 115.411 70.5363C114.966 70.4133 114.561 70.2288 114.196 69.9828C113.836 69.7368 113.547 69.423 113.331 69.0413C113.115 68.6596 113.006 68.2079 113.006 67.6863H114.921C114.921 67.9747 114.966 68.2185 115.055 68.4179C115.144 68.6172 115.269 68.7783 115.43 68.9013C115.596 69.0243 115.791 69.1134 116.016 69.1685C116.245 69.2237 116.495 69.2512 116.766 69.2512C117.097 69.2512 117.368 69.2046 117.58 69.1113C117.797 69.018 117.956 68.8886 118.058 68.7232C118.164 68.5578 118.217 68.3712 118.217 68.1634ZM125.38 68.9395V63.7039H127.212V70.5872H125.488L125.38 68.9395ZM125.583 67.5272L126.124 67.5145C126.124 67.9725 126.071 68.3988 125.965 68.7932C125.859 69.1834 125.7 69.5226 125.488 69.811C125.276 70.0952 125.009 70.3179 124.686 70.479C124.364 70.6359 123.984 70.7144 123.548 70.7144C123.213 70.7144 122.903 70.6677 122.619 70.5744C122.339 70.4769 122.097 70.3263 121.894 70.1228C121.694 69.9149 121.537 69.6499 121.423 69.3276C121.313 69.001 121.257 68.6087 121.257 68.1507V63.7039H123.09V68.1634C123.09 68.367 123.113 68.5387 123.16 68.6787C123.21 68.8186 123.28 68.9331 123.37 69.0222C123.459 69.1113 123.563 69.1749 123.681 69.2131C123.804 69.2512 123.94 69.2703 124.088 69.2703C124.466 69.2703 124.763 69.194 124.979 69.0413C125.2 68.8886 125.354 68.6808 125.443 68.4179C125.537 68.1507 125.583 67.8538 125.583 67.5272ZM131.455 69.283C131.68 69.283 131.879 69.2406 132.053 69.1558C132.227 69.0667 132.363 68.9437 132.46 68.7868C132.562 68.6257 132.615 68.4369 132.619 68.2206H134.343C134.339 68.7041 134.21 69.1346 133.955 69.512C133.701 69.8853 133.359 70.18 132.931 70.3963C132.503 70.6084 132.023 70.7144 131.493 70.7144C130.959 70.7144 130.492 70.6253 130.094 70.4472C129.699 70.2691 129.371 70.0231 129.108 69.7093C128.845 69.3912 128.648 69.0222 128.516 68.6023C128.385 68.1782 128.319 67.7244 128.319 67.241V67.0565C128.319 66.5687 128.385 66.1149 128.516 65.6951C128.648 65.271 128.845 64.902 129.108 64.5882C129.371 64.2701 129.699 64.022 130.094 63.8439C130.488 63.6657 130.95 63.5767 131.481 63.5767C132.045 63.5767 132.539 63.6848 132.963 63.9011C133.391 64.1174 133.726 64.427 133.968 64.8299C134.214 65.2286 134.339 65.7014 134.343 66.2485H132.619C132.615 66.0195 132.566 65.8117 132.473 65.6251C132.384 65.4385 132.252 65.2901 132.079 65.1798C131.909 65.0653 131.699 65.008 131.449 65.008C131.182 65.008 130.963 65.0653 130.794 65.1798C130.624 65.2901 130.492 65.4427 130.399 65.6378C130.306 65.8287 130.24 66.0471 130.202 66.2931C130.168 66.5348 130.151 66.7893 130.151 67.0565V67.241C130.151 67.5081 130.168 67.7647 130.202 68.0107C130.236 68.2567 130.299 68.4751 130.393 68.666C130.49 68.8568 130.624 69.0074 130.794 69.1176C130.963 69.2279 131.184 69.283 131.455 69.283ZM138.249 69.283C138.474 69.283 138.673 69.2406 138.847 69.1558C139.021 69.0667 139.157 68.9437 139.254 68.7868C139.356 68.6257 139.409 68.4369 139.414 68.2206H141.138C141.133 68.7041 141.004 69.1346 140.749 69.512C140.495 69.8853 140.154 70.18 139.725 70.3963C139.297 70.6084 138.818 70.7144 138.288 70.7144C137.753 70.7144 137.287 70.6253 136.888 70.4472C136.494 70.2691 136.165 70.0231 135.902 69.7093C135.639 69.3912 135.442 69.0222 135.31 68.6023C135.179 68.1782 135.113 67.7244 135.113 67.241V67.0565C135.113 66.5687 135.179 66.1149 135.31 65.6951C135.442 65.271 135.639 64.902 135.902 64.5882C136.165 64.2701 136.494 64.022 136.888 63.8439C137.282 63.6657 137.745 63.5767 138.275 63.5767C138.839 63.5767 139.333 63.6848 139.757 63.9011C140.185 64.1174 140.52 64.427 140.762 64.8299C141.008 65.2286 141.133 65.7014 141.138 66.2485H139.414C139.409 66.0195 139.36 65.8117 139.267 65.6251C139.178 65.4385 139.047 65.2901 138.873 65.1798C138.703 65.0653 138.493 65.008 138.243 65.008C137.976 65.008 137.757 65.0653 137.588 65.1798C137.418 65.2901 137.287 65.4427 137.193 65.6378C137.1 65.8287 137.034 66.0471 136.996 66.2931C136.962 66.5348 136.945 66.7893 136.945 67.0565V67.241C136.945 67.5081 136.962 67.7647 136.996 68.0107C137.03 68.2567 137.094 68.4751 137.187 68.666C137.284 68.8568 137.418 69.0074 137.588 69.1176C137.757 69.2279 137.978 69.283 138.249 69.283ZM145.368 70.7144C144.834 70.7144 144.354 70.6296 143.93 70.4599C143.506 70.286 143.146 70.0464 142.849 69.7411C142.556 69.4357 142.331 69.0816 142.174 68.6787C142.018 68.2715 141.939 67.8389 141.939 67.3809V67.1264C141.939 66.6048 142.013 66.1277 142.162 65.6951C142.31 65.2625 142.522 64.8872 142.798 64.5691C143.078 64.251 143.417 64.0071 143.816 63.8375C144.214 63.6636 144.664 63.5767 145.164 63.5767C145.652 63.5767 146.085 63.6572 146.462 63.8184C146.84 63.9796 147.156 64.2086 147.41 64.5055C147.669 64.8023 147.864 65.1586 147.995 65.5742C148.127 65.9856 148.193 66.4436 148.193 66.9483V67.7117H142.722V66.4903H146.392V66.3503C146.392 66.0959 146.346 65.869 146.252 65.6696C146.163 65.4661 146.027 65.3049 145.845 65.1862C145.663 65.0674 145.429 65.008 145.145 65.008C144.904 65.008 144.696 65.061 144.522 65.1671C144.348 65.2731 144.206 65.4215 144.096 65.6124C143.99 65.8032 143.909 66.028 143.854 66.2867C143.803 66.5412 143.778 66.8211 143.778 67.1264V67.3809C143.778 67.6566 143.816 67.911 143.892 68.1443C143.973 68.3776 144.085 68.579 144.229 68.7487C144.378 68.9183 144.556 69.0498 144.764 69.1431C144.976 69.2364 145.215 69.283 145.482 69.283C145.813 69.283 146.121 69.2194 146.405 69.0922C146.693 68.9607 146.941 68.7635 147.149 68.5006L148.04 69.4675C147.896 69.6753 147.698 69.8747 147.448 70.0655C147.202 70.2564 146.905 70.4133 146.558 70.5363C146.21 70.655 145.813 70.7144 145.368 70.7144ZM152.957 68.685C152.957 68.5536 152.919 68.4348 152.843 68.3288C152.767 68.2228 152.624 68.1252 152.417 68.0362C152.213 67.9429 151.918 67.858 151.532 67.7817C151.185 67.7054 150.86 67.6099 150.559 67.4954C150.262 67.3767 150.003 67.2346 149.783 67.0692C149.567 66.9038 149.397 66.7087 149.274 66.4839C149.151 66.2549 149.09 65.9941 149.09 65.7014C149.09 65.4131 149.151 65.1416 149.274 64.8872C149.401 64.6327 149.581 64.4079 149.815 64.2128C150.052 64.0135 150.341 63.8587 150.68 63.7484C151.023 63.6339 151.409 63.5767 151.838 63.5767C152.436 63.5767 152.949 63.6721 153.377 63.8629C153.81 64.0538 154.141 64.3167 154.37 64.6518C154.603 64.9826 154.72 65.36 154.72 65.7841H152.887C152.887 65.606 152.849 65.447 152.773 65.307C152.701 65.1628 152.586 65.0504 152.429 64.9699C152.277 64.885 152.077 64.8426 151.831 64.8426C151.628 64.8426 151.452 64.8787 151.303 64.9508C151.155 65.0186 151.04 65.1119 150.96 65.2307C150.883 65.3452 150.845 65.4724 150.845 65.6124C150.845 65.7184 150.867 65.8138 150.909 65.8987C150.956 65.9792 151.03 66.0535 151.132 66.1213C151.233 66.1892 151.365 66.2528 151.526 66.3122C151.691 66.3673 151.895 66.4182 152.137 66.4648C152.633 66.5666 153.076 66.7002 153.466 66.8656C153.856 67.0268 154.166 67.2473 154.395 67.5272C154.624 67.8029 154.739 68.1655 154.739 68.6151C154.739 68.9204 154.671 69.2003 154.535 69.4548C154.399 69.7093 154.204 69.9319 153.95 70.1228C153.695 70.3094 153.39 70.4557 153.034 70.5617C152.682 70.6635 152.285 70.7144 151.844 70.7144C151.204 70.7144 150.661 70.5999 150.216 70.3709C149.774 70.1418 149.439 69.8513 149.21 69.4993C148.986 69.1431 148.873 68.7783 148.873 68.4051H150.61C150.618 68.6554 150.682 68.8568 150.801 69.0095C150.924 69.1622 151.079 69.2724 151.265 69.3403C151.456 69.4081 151.662 69.4421 151.882 69.4421C152.12 69.4421 152.317 69.4103 152.474 69.3466C152.631 69.2788 152.75 69.1897 152.83 69.0795C152.915 68.9649 152.957 68.8335 152.957 68.685ZM159.65 68.685C159.65 68.5536 159.612 68.4348 159.535 68.3288C159.459 68.2228 159.317 68.1252 159.109 68.0362C158.905 67.9429 158.611 67.858 158.225 67.7817C157.877 67.7054 157.553 67.6099 157.251 67.4954C156.955 67.3767 156.696 67.2346 156.475 67.0692C156.259 66.9038 156.089 66.7087 155.966 66.4839C155.843 66.2549 155.782 65.9941 155.782 65.7014C155.782 65.4131 155.843 65.1416 155.966 64.8872C156.094 64.6327 156.274 64.4079 156.507 64.2128C156.745 64.0135 157.033 63.8587 157.372 63.7484C157.716 63.6339 158.102 63.5767 158.53 63.5767C159.128 63.5767 159.641 63.6721 160.07 63.8629C160.502 64.0538 160.833 64.3167 161.062 64.6518C161.295 64.9826 161.412 65.36 161.412 65.7841H159.58C159.58 65.606 159.542 65.447 159.465 65.307C159.393 65.1628 159.279 65.0504 159.122 64.9699C158.969 64.885 158.77 64.8426 158.524 64.8426C158.32 64.8426 158.144 64.8787 157.996 64.9508C157.847 65.0186 157.733 65.1119 157.652 65.2307C157.576 65.3452 157.538 65.4724 157.538 65.6124C157.538 65.7184 157.559 65.8138 157.601 65.8987C157.648 65.9792 157.722 66.0535 157.824 66.1213C157.926 66.1892 158.057 66.2528 158.218 66.3122C158.384 66.3673 158.587 66.4182 158.829 66.4648C159.325 66.5666 159.769 66.7002 160.159 66.8656C160.549 67.0268 160.858 67.2473 161.088 67.5272C161.317 67.8029 161.431 68.1655 161.431 68.6151C161.431 68.9204 161.363 69.2003 161.227 69.4548C161.092 69.7093 160.897 69.9319 160.642 70.1228C160.388 70.3094 160.082 70.4557 159.726 70.5617C159.374 70.6635 158.978 70.7144 158.537 70.7144C157.896 70.7144 157.353 70.5999 156.908 70.3709C156.467 70.1418 156.132 69.8513 155.903 69.4993C155.678 69.1431 155.566 68.7783 155.566 68.4051H157.302C157.311 68.6554 157.374 68.8568 157.493 69.0095C157.616 69.1622 157.771 69.2724 157.958 69.3403C158.148 69.4081 158.354 69.4421 158.575 69.4421C158.812 69.4421 159.009 69.4103 159.166 69.3466C159.323 69.2788 159.442 69.1897 159.523 69.0795C159.607 68.9649 159.65 68.8335 159.65 68.685ZM164.688 61.3247L164.478 67.7562H162.951L162.735 61.3247H164.688ZM162.684 69.7474C162.684 69.476 162.778 69.2512 162.964 69.0731C163.155 68.8907 163.405 68.7995 163.715 68.7995C164.029 68.7995 164.279 68.8907 164.466 69.0731C164.652 69.2512 164.745 69.476 164.745 69.7474C164.745 70.0104 164.652 70.233 164.466 70.4154C164.279 70.5978 164.029 70.6889 163.715 70.6889C163.405 70.6889 163.155 70.5978 162.964 70.4154C162.778 70.233 162.684 70.0104 162.684 69.7474Z" fill="#1B2125"/>
<path d="M105.55 80.4206L106.602 82.4551L107.657 80.4206H108.266L106.869 82.9588V84.4729H106.332V82.9588L104.935 80.4206H105.55ZM108.43 83.0006V82.9366C108.43 82.7195 108.461 82.5182 108.524 82.3326C108.587 82.1452 108.678 81.9829 108.797 81.8456C108.916 81.7064 109.059 81.5988 109.228 81.5227C109.397 81.4448 109.586 81.4058 109.796 81.4058C110.008 81.4058 110.198 81.4448 110.367 81.5227C110.537 81.5988 110.682 81.7064 110.801 81.8456C110.921 81.9829 111.013 82.1452 111.076 82.3326C111.139 82.5182 111.171 82.7195 111.171 82.9366V83.0006C111.171 83.2177 111.139 83.419 111.076 83.6045C111.013 83.7901 110.921 83.9524 110.801 84.0916C110.682 84.2289 110.538 84.3365 110.369 84.4145C110.202 84.4905 110.013 84.5286 109.802 84.5286C109.59 84.5286 109.4 84.4905 109.231 84.4145C109.062 84.3365 108.918 84.2289 108.797 84.0916C108.678 83.9524 108.587 83.7901 108.524 83.6045C108.461 83.419 108.43 83.2177 108.43 83.0006ZM108.944 82.9366V83.0006C108.944 83.1509 108.962 83.2928 108.997 83.4264C109.033 83.5582 109.085 83.675 109.156 83.7771C109.228 83.8792 109.318 83.9599 109.426 84.0192C109.534 84.0768 109.659 84.1055 109.802 84.1055C109.943 84.1055 110.066 84.0768 110.172 84.0192C110.279 83.9599 110.369 83.8792 110.439 83.7771C110.51 83.675 110.562 83.5582 110.598 83.4264C110.635 83.2928 110.653 83.1509 110.653 83.0006V82.9366C110.653 82.7881 110.635 82.648 110.598 82.5163C110.562 82.3827 110.509 82.2649 110.436 82.1628C110.366 82.0589 110.277 81.9773 110.169 81.9179C110.063 81.8585 109.939 81.8289 109.796 81.8289C109.655 81.8289 109.531 81.8585 109.423 81.9179C109.317 81.9773 109.228 82.0589 109.156 82.1628C109.085 82.2649 109.033 82.3827 108.997 82.5163C108.962 82.648 108.944 82.7881 108.944 82.9366ZM113.7 83.7771V81.4615H114.218V84.4729H113.725L113.7 83.7771ZM113.797 83.1425L114.012 83.137C114.012 83.3374 113.99 83.5229 113.948 83.6936C113.907 83.8625 113.84 84.009 113.747 84.1333C113.654 84.2577 113.533 84.3551 113.383 84.4256C113.232 84.4942 113.05 84.5286 112.834 84.5286C112.688 84.5286 112.553 84.5072 112.431 84.4646C112.31 84.4219 112.206 84.356 112.119 84.2669C112.032 84.1779 111.964 84.0619 111.916 83.919C111.869 83.7762 111.846 83.6045 111.846 83.4042V81.4615H112.361V83.4097C112.361 83.5452 112.376 83.6574 112.406 83.7465C112.437 83.8337 112.479 83.9033 112.531 83.9552C112.585 84.0053 112.644 84.0406 112.709 84.061C112.776 84.0814 112.845 84.0916 112.915 84.0916C113.134 84.0916 113.307 84.0499 113.435 83.9664C113.564 83.881 113.655 83.7669 113.711 83.624C113.769 83.4793 113.797 83.3188 113.797 83.1425ZM115.558 81.9346V84.4729H115.043V81.4615H115.544L115.558 81.9346ZM116.499 81.4448L116.496 81.9235C116.453 81.9142 116.412 81.9086 116.374 81.9068C116.336 81.9031 116.294 81.9012 116.245 81.9012C116.127 81.9012 116.022 81.9198 115.931 81.9569C115.84 81.994 115.763 82.0459 115.7 82.1127C115.637 82.1795 115.587 82.2593 115.55 82.3521C115.514 82.443 115.491 82.5432 115.48 82.6527L115.335 82.7362C115.335 82.5543 115.353 82.3836 115.388 82.2241C115.425 82.0645 115.482 81.9235 115.558 81.801C115.634 81.6767 115.731 81.5802 115.847 81.5116C115.966 81.4411 116.107 81.4058 116.271 81.4058C116.308 81.4058 116.35 81.4104 116.399 81.4197C116.447 81.4271 116.48 81.4355 116.499 81.4448ZM119.72 84.5286C119.51 84.5286 119.32 84.4933 119.149 84.4228C118.98 84.3504 118.835 84.2493 118.712 84.1194C118.592 83.9896 118.499 83.8355 118.434 83.6574C118.369 83.4793 118.336 83.2845 118.336 83.0729V82.9561C118.336 82.7111 118.373 82.4931 118.445 82.302C118.517 82.109 118.616 81.9458 118.74 81.8122C118.864 81.6786 119.005 81.5774 119.163 81.5088C119.321 81.4401 119.484 81.4058 119.653 81.4058C119.868 81.4058 120.054 81.4429 120.209 81.5171C120.367 81.5914 120.496 81.6953 120.596 81.8289C120.697 81.9606 120.771 82.1165 120.819 82.2964C120.867 82.4746 120.891 82.6694 120.891 82.8809V83.1119H118.643V82.6917H120.376V82.6527C120.369 82.5191 120.341 82.3892 120.293 82.263C120.247 82.1369 120.172 82.033 120.07 81.9513C119.968 81.8697 119.829 81.8289 119.653 81.8289C119.536 81.8289 119.428 81.8539 119.33 81.904C119.232 81.9522 119.147 82.0246 119.077 82.1211C119.006 82.2176 118.951 82.3354 118.913 82.4746C118.874 82.6137 118.854 82.7742 118.854 82.9561V83.0729C118.854 83.2158 118.874 83.3503 118.913 83.4765C118.953 83.6008 119.012 83.7103 119.088 83.8049C119.166 83.8996 119.259 83.9738 119.369 84.0276C119.48 84.0814 119.606 84.1083 119.747 84.1083C119.929 84.1083 120.083 84.0712 120.209 83.997C120.336 83.9228 120.446 83.8235 120.541 83.6992L120.852 83.9469C120.787 84.0452 120.705 84.1389 120.605 84.228C120.505 84.317 120.381 84.3894 120.235 84.4451C120.09 84.5007 119.918 84.5286 119.72 84.5286ZM121.881 81.4615L122.541 82.5581L123.209 81.4615H123.813L122.827 82.9477L123.843 84.4729H123.248L122.552 83.3429L121.856 84.4729H121.258L122.271 82.9477L121.288 81.4615H121.881ZM125.551 84.1055C125.674 84.1055 125.787 84.0805 125.891 84.0304C125.995 83.9803 126.08 83.9116 126.147 83.8244C126.214 83.7354 126.252 83.6342 126.261 83.521H126.751C126.741 83.6992 126.681 83.8652 126.57 84.0192C126.46 84.1714 126.317 84.2948 126.138 84.3894C125.96 84.4822 125.765 84.5286 125.551 84.5286C125.325 84.5286 125.127 84.4887 124.958 84.4089C124.791 84.3291 124.652 84.2196 124.541 84.0805C124.431 83.9413 124.349 83.7817 124.293 83.6018C124.239 83.4199 124.212 83.2279 124.212 83.0256V82.9087C124.212 82.7065 124.239 82.5154 124.293 82.3354C124.349 82.1536 124.431 81.9931 124.541 81.8539C124.652 81.7147 124.791 81.6053 124.958 81.5255C125.127 81.4457 125.325 81.4058 125.551 81.4058C125.787 81.4058 125.993 81.4541 126.169 81.5505C126.345 81.6452 126.484 81.775 126.584 81.9402C126.686 82.1035 126.741 82.289 126.751 82.4968H126.261C126.252 82.3725 126.216 82.2603 126.155 82.1601C126.096 82.0599 126.014 81.9801 125.91 81.9207C125.808 81.8595 125.688 81.8289 125.551 81.8289C125.393 81.8289 125.261 81.8604 125.153 81.9235C125.047 81.9847 124.963 82.0682 124.9 82.174C124.839 82.2779 124.794 82.3938 124.766 82.5219C124.74 82.648 124.727 82.777 124.727 82.9087V83.0256C124.727 83.1574 124.74 83.2873 124.766 83.4153C124.792 83.5433 124.836 83.6593 124.897 83.7632C124.96 83.8671 125.045 83.9506 125.15 84.0137C125.258 84.0749 125.392 84.1055 125.551 84.1055ZM127.885 80.1979V84.4729H127.37V80.1979H127.885ZM127.763 82.8531L127.548 82.8447C127.55 82.6388 127.581 82.4486 127.64 82.2742C127.7 82.0979 127.783 81.9448 127.891 81.8149C127.998 81.6851 128.126 81.5849 128.275 81.5144C128.425 81.442 128.591 81.4058 128.773 81.4058C128.922 81.4058 129.055 81.4262 129.174 81.467C129.293 81.506 129.394 81.5691 129.477 81.6563C129.563 81.7435 129.628 81.8567 129.672 81.9958C129.717 82.1332 129.739 82.3011 129.739 82.4996V84.4729H129.221V82.494C129.221 82.3363 129.198 82.2102 129.152 82.1155C129.105 82.019 129.037 81.9495 128.948 81.9068C128.859 81.8623 128.75 81.84 128.62 81.84C128.492 81.84 128.375 81.8669 128.269 81.9207C128.165 81.9745 128.075 82.0487 127.999 82.1434C127.925 82.238 127.867 82.3465 127.824 82.469C127.783 82.5896 127.763 82.7176 127.763 82.8531ZM132.326 83.958V82.4078C132.326 82.289 132.302 82.186 132.254 82.0988C132.207 82.0098 132.137 81.9411 132.042 81.8929C131.948 81.8446 131.831 81.8205 131.692 81.8205C131.562 81.8205 131.448 81.8428 131.349 81.8873C131.253 81.9318 131.177 81.9903 131.121 82.0626C131.067 82.135 131.04 82.2129 131.04 82.2964H130.525C130.525 82.1888 130.553 82.0821 130.609 81.9764C130.665 81.8706 130.744 81.775 130.848 81.6897C130.954 81.6025 131.08 81.5338 131.227 81.4837C131.375 81.4318 131.54 81.4058 131.722 81.4058C131.941 81.4058 132.134 81.4429 132.301 81.5171C132.47 81.5914 132.602 81.7036 132.696 81.8539C132.793 82.0023 132.841 82.1888 132.841 82.4133V83.8161C132.841 83.9163 132.849 84.0229 132.866 84.1361C132.885 84.2493 132.912 84.3467 132.947 84.4284V84.4729H132.41C132.384 84.4135 132.363 84.3347 132.348 84.2363C132.334 84.1361 132.326 84.0434 132.326 83.958ZM132.415 82.6471L132.421 83.0089H131.9C131.754 83.0089 131.623 83.021 131.508 83.0451C131.393 83.0674 131.296 83.1017 131.218 83.1481C131.141 83.1945 131.081 83.2529 131.04 83.3234C131 83.3921 130.979 83.4728 130.979 83.5656C130.979 83.6602 131 83.7465 131.043 83.8244C131.086 83.9023 131.15 83.9645 131.235 84.0109C131.322 84.0554 131.429 84.0777 131.555 84.0777C131.713 84.0777 131.852 84.0443 131.973 83.9775C132.093 83.9107 132.189 83.8291 132.259 83.7326C132.332 83.6361 132.371 83.5424 132.376 83.4515L132.596 83.6992C132.583 83.7771 132.548 83.8634 132.49 83.958C132.433 84.0526 132.356 84.1436 132.259 84.2308C132.165 84.3161 132.052 84.3875 131.92 84.4451C131.79 84.5007 131.643 84.5286 131.48 84.5286C131.276 84.5286 131.097 84.4887 130.943 84.4089C130.791 84.3291 130.672 84.2224 130.587 84.0888C130.503 83.9534 130.461 83.8021 130.461 83.6352C130.461 83.4737 130.493 83.3318 130.556 83.2093C130.619 83.085 130.71 82.982 130.829 82.9004C130.948 82.8169 131.09 82.7538 131.257 82.7111C131.424 82.6685 131.611 82.6471 131.817 82.6471H132.415ZM134.207 82.1044V84.4729H133.692V81.4615H134.179L134.207 82.1044ZM134.084 82.8531L133.87 82.8447C133.872 82.6388 133.902 82.4486 133.962 82.2742C134.021 82.0979 134.105 81.9448 134.212 81.8149C134.32 81.6851 134.448 81.5849 134.596 81.5144C134.747 81.442 134.913 81.4058 135.094 81.4058C135.243 81.4058 135.376 81.4262 135.495 81.467C135.614 81.506 135.715 81.5691 135.799 81.6563C135.884 81.7435 135.949 81.8567 135.993 81.9958C136.038 82.1332 136.06 82.3011 136.06 82.4996V84.4729H135.543V82.494C135.543 82.3363 135.519 82.2102 135.473 82.1155C135.427 82.019 135.359 81.9495 135.27 81.9068C135.181 81.8623 135.071 81.84 134.941 81.84C134.813 81.84 134.696 81.8669 134.591 81.9207C134.487 81.9745 134.397 82.0487 134.321 82.1434C134.247 82.238 134.188 82.3465 134.145 82.469C134.105 82.5896 134.084 82.7176 134.084 82.8531ZM138.834 81.4615H139.302V84.4089C139.302 84.6742 139.248 84.9006 139.14 85.088C139.033 85.2754 138.882 85.4173 138.689 85.5138C138.498 85.6122 138.277 85.6613 138.027 85.6613C137.923 85.6613 137.801 85.6446 137.66 85.6112C137.52 85.5797 137.383 85.525 137.248 85.447C137.114 85.3709 137.002 85.268 136.911 85.1381L137.181 84.8319C137.307 84.9841 137.439 85.0898 137.576 85.1492C137.715 85.2086 137.853 85.2383 137.988 85.2383C138.151 85.2383 138.292 85.2077 138.411 85.1464C138.53 85.0852 138.622 84.9943 138.687 84.8737C138.753 84.7549 138.787 84.6083 138.787 84.4339V82.1239L138.834 81.4615ZM136.761 83.0006V82.9421C136.761 82.7121 136.787 82.5033 136.841 82.3159C136.897 82.1267 136.976 81.9643 137.078 81.8289C137.182 81.6934 137.307 81.5895 137.454 81.5171C137.6 81.4429 137.765 81.4058 137.949 81.4058C138.138 81.4058 138.303 81.4392 138.444 81.506C138.587 81.5709 138.708 81.6665 138.806 81.7927C138.906 81.917 138.985 82.0673 139.043 82.2436C139.1 82.4198 139.14 82.6193 139.162 82.8419V83.098C139.142 83.3188 139.102 83.5173 139.043 83.6936C138.985 83.8699 138.906 84.0202 138.806 84.1445C138.708 84.2688 138.587 84.3644 138.444 84.4312C138.302 84.4961 138.135 84.5286 137.943 84.5286C137.763 84.5286 137.6 84.4905 137.454 84.4145C137.309 84.3384 137.185 84.2317 137.081 84.0944C136.977 83.9571 136.897 83.7957 136.841 83.6101C136.787 83.4227 136.761 83.2195 136.761 83.0006ZM137.275 82.9421V83.0006C137.275 83.1509 137.29 83.2919 137.32 83.4236C137.352 83.5554 137.399 83.6713 137.462 83.7715C137.527 83.8717 137.609 83.9506 137.71 84.0081C137.81 84.0638 137.93 84.0916 138.069 84.0916C138.239 84.0916 138.38 84.0554 138.492 83.9831C138.603 83.9107 138.691 83.8151 138.756 83.6964C138.823 83.5776 138.875 83.4487 138.912 83.3095V82.6388C138.892 82.5367 138.86 82.4384 138.817 82.3438C138.777 82.2473 138.723 82.1619 138.656 82.0877C138.591 82.0116 138.51 81.9513 138.414 81.9068C138.317 81.8623 138.204 81.84 138.074 81.84C137.933 81.84 137.812 81.8697 137.71 81.9291C137.609 81.9866 137.527 82.0664 137.462 82.1684C137.399 82.2686 137.352 82.3855 137.32 82.5191C137.29 82.6508 137.275 82.7918 137.275 82.9421ZM141.374 84.5286C141.164 84.5286 140.974 84.4933 140.804 84.4228C140.635 84.3504 140.489 84.2493 140.367 84.1194C140.246 83.9896 140.153 83.8355 140.088 83.6574C140.023 83.4793 139.991 83.2845 139.991 83.0729V82.9561C139.991 82.7111 140.027 82.4931 140.099 82.302C140.172 82.109 140.27 81.9458 140.394 81.8122C140.519 81.6786 140.66 81.5774 140.817 81.5088C140.975 81.4401 141.138 81.4058 141.307 81.4058C141.523 81.4058 141.708 81.4429 141.864 81.5171C142.022 81.5914 142.151 81.6953 142.251 81.8289C142.351 81.9606 142.425 82.1165 142.473 82.2964C142.522 82.4746 142.546 82.6694 142.546 82.8809V83.1119H140.297V82.6917H142.031V82.6527C142.023 82.5191 141.996 82.3892 141.947 82.263C141.901 82.1369 141.827 82.033 141.725 81.9513C141.623 81.8697 141.484 81.8289 141.307 81.8289C141.19 81.8289 141.083 81.8539 140.984 81.904C140.886 81.9522 140.802 82.0246 140.731 82.1211C140.661 82.2176 140.606 82.3354 140.567 82.4746C140.528 82.6137 140.509 82.7742 140.509 82.9561V83.0729C140.509 83.2158 140.528 83.3503 140.567 83.4765C140.608 83.6008 140.666 83.7103 140.742 83.8049C140.82 83.8996 140.914 83.9738 141.023 84.0276C141.135 84.0814 141.261 84.1083 141.402 84.1083C141.584 84.1083 141.738 84.0712 141.864 83.997C141.99 83.9228 142.1 83.8235 142.195 83.6992L142.507 83.9469C142.442 84.0452 142.359 84.1389 142.259 84.228C142.159 84.317 142.036 84.3894 141.889 84.4451C141.744 84.5007 141.573 84.5286 141.374 84.5286ZM145.847 84.1055C145.97 84.1055 146.083 84.0805 146.187 84.0304C146.291 83.9803 146.376 83.9116 146.443 83.8244C146.51 83.7354 146.548 83.6342 146.557 83.521H147.047C147.038 83.6992 146.977 83.8652 146.866 84.0192C146.757 84.1714 146.613 84.2948 146.435 84.3894C146.257 84.4822 146.061 84.5286 145.847 84.5286C145.621 84.5286 145.423 84.4887 145.255 84.4089C145.088 84.3291 144.948 84.2196 144.837 84.0805C144.728 83.9413 144.645 83.7817 144.589 83.6018C144.536 83.4199 144.509 83.2279 144.509 83.0256V82.9087C144.509 82.7065 144.536 82.5154 144.589 82.3354C144.645 82.1536 144.728 81.9931 144.837 81.8539C144.948 81.7147 145.088 81.6053 145.255 81.5255C145.423 81.4457 145.621 81.4058 145.847 81.4058C146.083 81.4058 146.289 81.4541 146.465 81.5505C146.642 81.6452 146.78 81.775 146.88 81.9402C146.982 82.1035 147.038 82.289 147.047 82.4968H146.557C146.548 82.3725 146.513 82.2603 146.451 82.1601C146.392 82.0599 146.31 81.9801 146.206 81.9207C146.104 81.8595 145.985 81.8289 145.847 81.8289C145.69 81.8289 145.557 81.8604 145.449 81.9235C145.344 81.9847 145.259 82.0682 145.196 82.174C145.135 82.2779 145.09 82.3938 145.063 82.5219C145.037 82.648 145.024 82.777 145.024 82.9087V83.0256C145.024 83.1574 145.037 83.2873 145.063 83.4153C145.089 83.5433 145.132 83.6593 145.193 83.7632C145.256 83.8671 145.341 83.9506 145.447 84.0137C145.554 84.0749 145.688 84.1055 145.847 84.1055ZM147.53 83.0006V82.9366C147.53 82.7195 147.562 82.5182 147.625 82.3326C147.688 82.1452 147.779 81.9829 147.898 81.8456C148.016 81.7064 148.16 81.5988 148.329 81.5227C148.498 81.4448 148.687 81.4058 148.897 81.4058C149.108 81.4058 149.298 81.4448 149.467 81.5227C149.638 81.5988 149.783 81.7064 149.902 81.8456C150.022 81.9829 150.114 82.1452 150.177 82.3326C150.24 82.5182 150.272 82.7195 150.272 82.9366V83.0006C150.272 83.2177 150.24 83.419 150.177 83.6045C150.114 83.7901 150.022 83.9524 149.902 84.0916C149.783 84.2289 149.639 84.3365 149.47 84.4145C149.303 84.4905 149.114 84.5286 148.902 84.5286C148.691 84.5286 148.501 84.4905 148.332 84.4145C148.163 84.3365 148.018 84.2289 147.898 84.0916C147.779 83.9524 147.688 83.7901 147.625 83.6045C147.562 83.419 147.53 83.2177 147.53 83.0006ZM148.045 82.9366V83.0006C148.045 83.1509 148.063 83.2928 148.098 83.4264C148.133 83.5582 148.186 83.675 148.257 83.7771C148.329 83.8792 148.419 83.9599 148.527 84.0192C148.634 84.0768 148.759 84.1055 148.902 84.1055C149.043 84.1055 149.167 84.0768 149.272 84.0192C149.38 83.9599 149.469 83.8792 149.54 83.7771C149.61 83.675 149.663 83.5582 149.698 83.4264C149.735 83.2928 149.754 83.1509 149.754 83.0006V82.9366C149.754 82.7881 149.735 82.648 149.698 82.5163C149.663 82.3827 149.609 82.2649 149.537 82.1628C149.466 82.0589 149.377 81.9773 149.27 81.9179C149.164 81.8585 149.04 81.8289 148.897 81.8289C148.756 81.8289 148.631 81.8585 148.524 81.9179C148.418 81.9773 148.329 82.0589 148.257 82.1628C148.186 82.2649 148.133 82.3827 148.098 82.5163C148.063 82.648 148.045 82.7881 148.045 82.9366ZM151.47 82.0599V84.4729H150.953V81.4615H151.442L151.47 82.0599ZM151.364 82.8531L151.125 82.8447C151.127 82.6388 151.154 82.4486 151.206 82.2742C151.258 82.0979 151.335 81.9448 151.437 81.8149C151.539 81.6851 151.666 81.5849 151.818 81.5144C151.97 81.442 152.147 81.4058 152.347 81.4058C152.488 81.4058 152.618 81.4262 152.737 81.467C152.855 81.506 152.958 81.5682 153.045 81.6535C153.133 81.7389 153.2 81.8483 153.249 81.9819C153.297 82.1155 153.321 82.277 153.321 82.4662V84.4729H152.806V82.4913C152.806 82.3335 152.779 82.2074 152.725 82.1127C152.673 82.0181 152.599 81.9495 152.503 81.9068C152.406 81.8623 152.293 81.84 152.163 81.84C152.011 81.84 151.884 81.8669 151.782 81.9207C151.68 81.9745 151.598 82.0487 151.537 82.1434C151.476 82.238 151.431 82.3465 151.403 82.469C151.377 82.5896 151.364 82.7176 151.364 82.8531ZM153.315 82.5692L152.97 82.675C152.972 82.5098 152.999 82.3512 153.051 82.199C153.105 82.0469 153.182 81.9114 153.282 81.7927C153.384 81.6739 153.509 81.5802 153.658 81.5116C153.806 81.4411 153.976 81.4058 154.167 81.4058C154.329 81.4058 154.471 81.4271 154.596 81.4698C154.722 81.5125 154.828 81.5784 154.913 81.6674C155 81.7546 155.066 81.8669 155.111 82.0042C155.155 82.1415 155.177 82.3048 155.177 82.494V84.4729H154.66V82.4885C154.66 82.3196 154.633 82.1888 154.579 82.096C154.527 82.0014 154.453 81.9355 154.356 81.8984C154.262 81.8595 154.149 81.84 154.017 81.84C153.904 81.84 153.803 81.8595 153.716 81.8984C153.629 81.9374 153.556 81.9912 153.496 82.0599C153.437 82.1267 153.392 82.2037 153.36 82.2909C153.33 82.3781 153.315 82.4708 153.315 82.5692ZM156.512 82.0404V85.6307H155.995V81.4615H156.468L156.512 82.0404ZM158.541 82.9421V83.0006C158.541 83.2195 158.515 83.4227 158.463 83.6101C158.411 83.7957 158.335 83.9571 158.235 84.0944C158.137 84.2317 158.015 84.3384 157.871 84.4145C157.726 84.4905 157.56 84.5286 157.372 84.5286C157.181 84.5286 157.012 84.497 156.866 84.4339C156.719 84.3708 156.595 84.279 156.493 84.1584C156.391 84.0378 156.309 83.8931 156.248 83.7242C156.189 83.5554 156.148 83.3652 156.125 83.1537V82.8419C156.148 82.6193 156.189 82.4198 156.251 82.2436C156.312 82.0673 156.393 81.917 156.493 81.7927C156.595 81.6665 156.718 81.5709 156.863 81.506C157.008 81.4392 157.175 81.4058 157.364 81.4058C157.553 81.4058 157.721 81.4429 157.868 81.5171C158.014 81.5895 158.138 81.6934 158.238 81.8289C158.338 81.9643 158.413 82.1267 158.463 82.3159C158.515 82.5033 158.541 82.7121 158.541 82.9421ZM158.024 83.0006V82.9421C158.024 82.7918 158.008 82.6508 157.976 82.5191C157.945 82.3855 157.896 82.2686 157.829 82.1684C157.764 82.0664 157.68 81.9866 157.578 81.9291C157.476 81.8697 157.355 81.84 157.214 81.84C157.084 81.84 156.971 81.8623 156.874 81.9068C156.78 81.9513 156.699 82.0116 156.632 82.0877C156.565 82.1619 156.51 82.2473 156.468 82.3438C156.427 82.4384 156.396 82.5367 156.376 82.6388V83.3596C156.413 83.4895 156.465 83.612 156.532 83.727C156.599 83.8402 156.688 83.932 156.799 84.0025C156.91 84.0712 157.05 84.1055 157.219 84.1055C157.358 84.1055 157.478 84.0768 157.578 84.0192C157.68 83.9599 157.764 83.8792 157.829 83.7771C157.896 83.675 157.945 83.5582 157.976 83.4264C158.008 83.2928 158.024 83.1509 158.024 83.0006ZM159.798 80.1979V84.4729H159.281V80.1979H159.798ZM161.915 84.5286C161.706 84.5286 161.515 84.4933 161.345 84.4228C161.176 84.3504 161.03 84.2493 160.908 84.1194C160.787 83.9896 160.694 83.8355 160.629 83.6574C160.564 83.4793 160.532 83.2845 160.532 83.0729V82.9561C160.532 82.7111 160.568 82.4931 160.641 82.302C160.713 82.109 160.811 81.9458 160.936 81.8122C161.06 81.6786 161.201 81.5774 161.359 81.5088C161.516 81.4401 161.68 81.4058 161.848 81.4058C162.064 81.4058 162.249 81.4429 162.405 81.5171C162.563 81.5914 162.692 81.6953 162.792 81.8289C162.892 81.9606 162.966 82.1165 163.015 82.2964C163.063 82.4746 163.087 82.6694 163.087 82.8809V83.1119H160.838V82.6917H162.572V82.6527C162.565 82.5191 162.537 82.3892 162.489 82.263C162.442 82.1369 162.368 82.033 162.266 81.9513C162.164 81.8697 162.025 81.8289 161.848 81.8289C161.732 81.8289 161.624 81.8539 161.526 81.904C161.427 81.9522 161.343 82.0246 161.272 82.1211C161.202 82.2176 161.147 82.3354 161.108 82.4746C161.069 82.6137 161.05 82.7742 161.05 82.9561V83.0729C161.05 83.2158 161.069 83.3503 161.108 83.4765C161.149 83.6008 161.207 83.7103 161.283 83.8049C161.361 83.8996 161.455 83.9738 161.565 84.0276C161.676 84.0814 161.802 84.1083 161.943 84.1083C162.125 84.1083 162.279 84.0712 162.405 83.997C162.531 83.9228 162.642 83.8235 162.736 83.6992L163.048 83.9469C162.983 84.0452 162.9 84.1389 162.8 84.228C162.7 84.317 162.577 84.3894 162.43 84.4451C162.285 84.5007 162.114 84.5286 161.915 84.5286ZM164.99 81.4615V81.8567H163.361V81.4615H164.99ZM163.913 80.7295H164.427V83.727C164.427 83.8291 164.443 83.9061 164.475 83.958C164.506 84.01 164.547 84.0443 164.597 84.061C164.647 84.0777 164.701 84.086 164.759 84.086C164.801 84.086 164.846 84.0823 164.892 84.0749C164.94 84.0656 164.977 84.0582 165.001 84.0526L165.004 84.4729C164.963 84.4859 164.909 84.4979 164.842 84.5091C164.777 84.5221 164.698 84.5286 164.606 84.5286C164.479 84.5286 164.363 84.5035 164.258 84.4534C164.152 84.4033 164.067 84.3198 164.004 84.2029C163.943 84.0842 163.913 83.9246 163.913 83.7242V80.7295ZM166.884 84.5286C166.674 84.5286 166.484 84.4933 166.313 84.4228C166.145 84.3504 165.999 84.2493 165.876 84.1194C165.756 83.9896 165.663 83.8355 165.598 83.6574C165.533 83.4793 165.501 83.2845 165.501 83.0729V82.9561C165.501 82.7111 165.537 82.4931 165.609 82.302C165.682 82.109 165.78 81.9458 165.904 81.8122C166.029 81.6786 166.17 81.5774 166.327 81.5088C166.485 81.4401 166.648 81.4058 166.817 81.4058C167.032 81.4058 167.218 81.4429 167.374 81.5171C167.532 81.5914 167.66 81.6953 167.761 81.8289C167.861 81.9606 167.935 82.1165 167.983 82.2964C168.032 82.4746 168.056 82.6694 168.056 82.8809V83.1119H165.807V82.6917H167.541V82.6527C167.533 82.5191 167.506 82.3892 167.457 82.263C167.411 82.1369 167.337 82.033 167.235 81.9513C167.133 81.8697 166.993 81.8289 166.817 81.8289C166.7 81.8289 166.593 81.8539 166.494 81.904C166.396 81.9522 166.312 82.0246 166.241 82.1211C166.171 82.2176 166.116 82.3354 166.077 82.4746C166.038 82.6137 166.018 82.7742 166.018 82.9561V83.0729C166.018 83.2158 166.038 83.3503 166.077 83.4765C166.118 83.6008 166.176 83.7103 166.252 83.8049C166.33 83.8996 166.424 83.9738 166.533 84.0276C166.645 84.0814 166.771 84.1083 166.912 84.1083C167.094 84.1083 167.248 84.0712 167.374 83.997C167.5 83.9228 167.61 83.8235 167.705 83.6992L168.017 83.9469C167.952 84.0452 167.869 84.1389 167.769 84.228C167.669 84.317 167.545 84.3894 167.399 84.4451C167.254 84.5007 167.083 84.5286 166.884 84.5286ZM170.596 83.8884V80.1979H171.113V84.4729H170.64L170.596 83.8884ZM168.57 83.0006V82.9421C168.57 82.7121 168.597 82.5033 168.653 82.3159C168.711 82.1267 168.791 81.9643 168.895 81.8289C169.001 81.6934 169.126 81.5895 169.271 81.5171C169.418 81.4429 169.581 81.4058 169.761 81.4058C169.95 81.4058 170.115 81.4392 170.256 81.506C170.399 81.5709 170.52 81.6665 170.618 81.7927C170.718 81.917 170.797 82.0673 170.855 82.2436C170.912 82.4198 170.952 82.6193 170.974 82.8419V83.098C170.954 83.3188 170.914 83.5173 170.855 83.6936C170.797 83.8699 170.718 84.0202 170.618 84.1445C170.52 84.2688 170.399 84.3644 170.256 84.4312C170.113 84.4961 169.946 84.5286 169.755 84.5286C169.579 84.5286 169.418 84.4905 169.271 84.4145C169.126 84.3384 169.001 84.2317 168.895 84.0944C168.791 83.9571 168.711 83.7957 168.653 83.6101C168.597 83.4227 168.57 83.2195 168.57 83.0006ZM169.087 82.9421V83.0006C169.087 83.1509 169.102 83.2919 169.132 83.4236C169.163 83.5554 169.212 83.6713 169.276 83.7715C169.341 83.8717 169.424 83.9506 169.524 84.0081C169.624 84.0638 169.744 84.0916 169.883 84.0916C170.054 84.0916 170.194 84.0554 170.303 83.9831C170.415 83.9107 170.504 83.8151 170.571 83.6964C170.637 83.5776 170.689 83.4487 170.727 83.3095V82.6388C170.704 82.5367 170.672 82.4384 170.629 82.3438C170.588 82.2473 170.535 82.1619 170.468 82.0877C170.403 82.0116 170.322 81.9513 170.226 81.9068C170.131 81.8623 170.019 81.84 169.889 81.84C169.748 81.84 169.626 81.8697 169.524 81.9291C169.424 81.9866 169.341 82.0664 169.276 82.1684C169.212 82.2686 169.163 82.3855 169.132 82.5191C169.102 82.6508 169.087 82.7918 169.087 82.9421ZM171.964 84.2001C171.964 84.1129 171.991 84.0396 172.045 83.9803C172.1 83.919 172.18 83.8884 172.284 83.8884C172.388 83.8884 172.467 83.919 172.521 83.9803C172.576 84.0396 172.604 84.1129 172.604 84.2001C172.604 84.2855 172.576 84.3579 172.521 84.4172C172.467 84.4766 172.388 84.5063 172.284 84.5063C172.18 84.5063 172.1 84.4766 172.045 84.4172C171.991 84.3579 171.964 84.2855 171.964 84.2001Z" fill="#1B2125"/>
<path d="M66.3345 98.4809V103.112H65.7302V98.4809H66.3345ZM67.8232 98.4809V98.9835H64.2447V98.4809H67.8232ZM68.7679 100.211V103.112H68.1794V99.6706H68.7519L68.7679 100.211ZM69.843 99.6515L69.8398 100.199C69.791 100.188 69.7444 100.182 69.6998 100.179C69.6574 100.175 69.6086 100.173 69.5535 100.173C69.4178 100.173 69.298 100.194 69.1941 100.237C69.0902 100.279 69.0022 100.339 68.9301 100.415C68.858 100.491 68.8007 100.582 68.7583 100.688C68.718 100.792 68.6915 100.907 68.6788 101.032L68.5134 101.127C68.5134 100.92 68.5335 100.724 68.5738 100.542C68.6162 100.36 68.6809 100.199 68.7679 100.059C68.8548 99.9165 68.9651 99.8063 69.0987 99.7278C69.2344 99.6472 69.3955 99.6069 69.5821 99.6069C69.6245 99.6069 69.6733 99.6122 69.7285 99.6228C69.7836 99.6313 69.8218 99.6409 69.843 99.6515ZM72.289 102.524V100.752C72.289 100.616 72.2614 100.499 72.2063 100.399C72.1533 100.297 72.0727 100.219 71.9646 100.164C71.8564 100.108 71.7228 100.081 71.5638 100.081C71.4153 100.081 71.2849 100.106 71.1725 100.157C71.0623 100.208 70.9753 100.275 70.9117 100.358C70.8502 100.44 70.8195 100.529 70.8195 100.625H70.231C70.231 100.502 70.2628 100.38 70.3264 100.259C70.3901 100.138 70.4812 100.029 70.6 99.9314C70.7209 99.8317 70.8651 99.7533 71.0326 99.696C71.2022 99.6366 71.391 99.6069 71.5988 99.6069C71.849 99.6069 72.0695 99.6493 72.2604 99.7342C72.4533 99.819 72.6039 99.9473 72.712 100.119C72.8223 100.289 72.8775 100.502 72.8775 100.758V102.362C72.8775 102.476 72.887 102.598 72.9061 102.727C72.9273 102.857 72.958 102.968 72.9983 103.061V103.112H72.3844C72.3547 103.044 72.3314 102.954 72.3144 102.842C72.2975 102.727 72.289 102.621 72.289 102.524ZM72.3908 101.026L72.3971 101.439H71.8023C71.6348 101.439 71.4853 101.453 71.3538 101.48C71.2224 101.506 71.1121 101.545 71.023 101.598C70.934 101.651 70.8661 101.718 70.8195 101.799C70.7728 101.877 70.7495 101.969 70.7495 102.075C70.7495 102.183 70.7739 102.282 70.8227 102.371C70.8714 102.46 70.9446 102.531 71.0421 102.584C71.1418 102.635 71.2637 102.661 71.4079 102.661C71.5882 102.661 71.7472 102.622 71.885 102.546C72.0229 102.47 72.1321 102.376 72.2127 102.266C72.2954 102.156 72.3399 102.049 72.3463 101.945L72.5975 102.228C72.5827 102.317 72.5424 102.416 72.4767 102.524C72.4109 102.632 72.3229 102.736 72.2127 102.835C72.1045 102.933 71.9752 103.015 71.8246 103.08C71.6762 103.144 71.5086 103.176 71.322 103.176C71.0888 103.176 70.8841 103.13 70.7081 103.039C70.5343 102.948 70.3985 102.826 70.301 102.673C70.2056 102.518 70.1579 102.346 70.1579 102.155C70.1579 101.97 70.1939 101.808 70.266 101.668C70.3381 101.526 70.442 101.408 70.5777 101.315C70.7134 101.22 70.8767 101.148 71.0676 101.099C71.2584 101.05 71.4715 101.026 71.7069 101.026H72.3908ZM74.3915 100.405V103.112H73.8031V99.6706H74.3597L74.3915 100.405ZM74.2516 101.261L74.0066 101.251C74.0088 101.016 74.0437 100.799 74.1116 100.599C74.1795 100.398 74.2749 100.223 74.3979 100.075C74.5209 99.9261 74.6672 99.8116 74.8368 99.731C75.0086 99.6483 75.1984 99.6069 75.4062 99.6069C75.5758 99.6069 75.7285 99.6303 75.8642 99.6769C75.9999 99.7214 76.1155 99.7935 76.2109 99.8932C76.3085 99.9929 76.3827 100.122 76.4336 100.281C76.4845 100.438 76.5099 100.63 76.5099 100.857V103.112H75.9183V100.851C75.9183 100.67 75.8918 100.526 75.8388 100.418C75.7858 100.308 75.7084 100.228 75.6066 100.179C75.5048 100.129 75.3797 100.103 75.2312 100.103C75.0849 100.103 74.9513 100.134 74.8305 100.195C74.7117 100.257 74.6089 100.342 74.5219 100.45C74.4371 100.558 74.3703 100.682 74.3215 100.822C74.2749 100.96 74.2516 101.106 74.2516 101.261ZM79.4076 102.199C79.4076 102.114 79.3886 102.036 79.3504 101.964C79.3143 101.89 79.2391 101.823 79.1245 101.764C79.0122 101.702 78.8425 101.649 78.6156 101.604C78.4248 101.564 78.2519 101.516 78.0971 101.461C77.9445 101.406 77.8141 101.339 77.7059 101.261C77.5999 101.182 77.5182 101.09 77.461 100.984C77.4037 100.878 77.3751 100.754 77.3751 100.612C77.3751 100.476 77.4048 100.348 77.4642 100.227C77.5257 100.106 77.6115 99.9992 77.7218 99.9059C77.8342 99.8126 77.9689 99.7395 78.1258 99.6865C78.2827 99.6334 78.4576 99.6069 78.6506 99.6069C78.9263 99.6069 79.1617 99.6557 79.3567 99.7533C79.5518 99.8508 79.7013 99.9812 79.8052 100.144C79.9091 100.306 79.9611 100.485 79.9611 100.682H79.3727C79.3727 100.587 79.344 100.494 79.2868 100.405C79.2316 100.314 79.15 100.239 79.0418 100.179C78.9358 100.12 78.8054 100.09 78.6506 100.09C78.4873 100.09 78.3548 100.116 78.253 100.167C78.1533 100.216 78.0802 100.278 78.0335 100.354C77.989 100.431 77.9667 100.511 77.9667 100.596C77.9667 100.66 77.9773 100.717 77.9985 100.768C78.0219 100.817 78.0622 100.862 78.1194 100.905C78.1767 100.945 78.2572 100.983 78.3612 101.019C78.4651 101.055 78.5976 101.091 78.7588 101.127C79.0408 101.191 79.273 101.267 79.4554 101.356C79.6377 101.445 79.7734 101.555 79.8625 101.684C79.9516 101.813 79.9961 101.97 79.9961 102.155C79.9961 102.305 79.9643 102.443 79.9007 102.568C79.8392 102.693 79.749 102.802 79.6303 102.893C79.5137 102.982 79.3737 103.052 79.2104 103.103C79.0493 103.151 78.868 103.176 78.6665 103.176C78.3633 103.176 78.1067 103.122 77.8968 103.014C77.6868 102.905 77.5278 102.765 77.4196 102.594C77.3115 102.422 77.2574 102.241 77.2574 102.05H77.849C77.8575 102.211 77.9042 102.339 77.989 102.435C78.0738 102.528 78.1777 102.595 78.3007 102.635C78.4237 102.673 78.5456 102.692 78.6665 102.692C78.8277 102.692 78.9623 102.671 79.0705 102.629C79.1807 102.586 79.2645 102.528 79.3218 102.454C79.379 102.38 79.4076 102.295 79.4076 102.199ZM82.7984 102.524V100.752C82.7984 100.616 82.7708 100.499 82.7157 100.399C82.6627 100.297 82.5821 100.219 82.4739 100.164C82.3658 100.108 82.2322 100.081 82.0732 100.081C81.9247 100.081 81.7943 100.106 81.6819 100.157C81.5716 100.208 81.4847 100.275 81.4211 100.358C81.3596 100.44 81.3288 100.529 81.3288 100.625H80.7404C80.7404 100.502 80.7722 100.38 80.8358 100.259C80.8994 100.138 80.9906 100.029 81.1094 99.9314C81.2302 99.8317 81.3744 99.7533 81.542 99.696C81.7116 99.6366 81.9003 99.6069 82.1081 99.6069C82.3584 99.6069 82.5789 99.6493 82.7697 99.7342C82.9627 99.819 83.1133 99.9473 83.2214 100.119C83.3317 100.289 83.3868 100.502 83.3868 100.758V102.362C83.3868 102.476 83.3964 102.598 83.4155 102.727C83.4367 102.857 83.4674 102.968 83.5077 103.061V103.112H82.8938C82.8641 103.044 82.8408 102.954 82.8238 102.842C82.8069 102.727 82.7984 102.621 82.7984 102.524ZM82.9002 101.026L82.9065 101.439H82.3117C82.1442 101.439 81.9947 101.453 81.8632 101.48C81.7317 101.506 81.6215 101.545 81.5324 101.598C81.4434 101.651 81.3755 101.718 81.3288 101.799C81.2822 101.877 81.2589 101.969 81.2589 102.075C81.2589 102.183 81.2833 102.282 81.332 102.371C81.3808 102.46 81.454 102.531 81.5515 102.584C81.6512 102.635 81.7731 102.661 81.9173 102.661C82.0975 102.661 82.2566 102.622 82.3944 102.546C82.5322 102.47 82.6415 102.376 82.722 102.266C82.8047 102.156 82.8493 102.049 82.8556 101.945L83.1069 102.228C83.0921 102.317 83.0518 102.416 82.986 102.524C82.9203 102.632 82.8323 102.736 82.722 102.835C82.6139 102.933 82.4845 103.015 82.334 103.08C82.1855 103.144 82.018 103.176 81.8314 103.176C81.5982 103.176 81.3935 103.13 81.2175 103.039C81.0436 102.948 80.9079 102.826 80.8104 102.673C80.7149 102.518 80.6672 102.346 80.6672 102.155C80.6672 101.97 80.7033 101.808 80.7754 101.668C80.8475 101.526 80.9514 101.408 81.0871 101.315C81.2228 101.22 81.3861 101.148 81.5769 101.099C81.7678 101.05 81.9809 101.026 82.2163 101.026H82.9002ZM85.6897 102.692C85.8297 102.692 85.959 102.664 86.0778 102.606C86.1965 102.549 86.2941 102.471 86.3704 102.371C86.4468 102.269 86.4902 102.154 86.5008 102.024H87.0607C87.0501 102.228 86.9811 102.418 86.8539 102.594C86.7288 102.768 86.5644 102.909 86.3609 103.017C86.1573 103.123 85.9336 103.176 85.6897 103.176C85.431 103.176 85.2052 103.13 85.0122 103.039C84.8214 102.948 84.6623 102.823 84.5351 102.664C84.41 102.505 84.3156 102.322 84.252 102.117C84.1905 101.909 84.1598 101.689 84.1598 101.458V101.325C84.1598 101.093 84.1905 100.875 84.252 100.669C84.3156 100.462 84.41 100.278 84.5351 100.119C84.6623 99.96 84.8214 99.8349 85.0122 99.7437C85.2052 99.6525 85.431 99.6069 85.6897 99.6069C85.959 99.6069 86.1944 99.6621 86.3959 99.7723C86.5973 99.8805 86.7553 100.029 86.8698 100.218C86.9864 100.404 87.0501 100.616 87.0607 100.854H86.5008C86.4902 100.712 86.4499 100.583 86.38 100.469C86.3121 100.354 86.2188 100.263 86.1001 100.195C85.9834 100.125 85.8466 100.09 85.6897 100.09C85.5095 100.09 85.3579 100.126 85.2349 100.199C85.114 100.269 85.0175 100.364 84.9454 100.485C84.8754 100.604 84.8245 100.736 84.7927 100.882C84.7631 101.027 84.7482 101.174 84.7482 101.325V101.458C84.7482 101.609 84.7631 101.757 84.7927 101.903C84.8224 102.05 84.8723 102.182 84.9422 102.301C85.0143 102.42 85.1108 102.515 85.2317 102.587C85.3547 102.657 85.5074 102.692 85.6897 102.692ZM89.1632 99.6706V100.122H87.3024V99.6706H89.1632ZM87.9322 98.834H88.5206V102.26C88.5206 102.376 88.5387 102.464 88.5747 102.524C88.6108 102.583 88.6574 102.622 88.7147 102.641C88.7719 102.661 88.8334 102.67 88.8992 102.67C88.9479 102.67 88.9988 102.666 89.0518 102.657C89.107 102.647 89.1483 102.638 89.1759 102.632L89.1791 103.112C89.1324 103.127 89.0709 103.141 88.9946 103.154C88.9204 103.168 88.8302 103.176 88.7242 103.176C88.58 103.176 88.4475 103.147 88.3266 103.09C88.2057 103.033 88.1093 102.937 88.0372 102.804C87.9672 102.668 87.9322 102.486 87.9322 102.257V98.834ZM90.4927 99.6706V103.112H89.9011V99.6706H90.4927ZM89.8566 98.7577C89.8566 98.6622 89.8852 98.5817 89.9425 98.5159C90.0018 98.4502 90.0888 98.4173 90.2033 98.4173C90.3157 98.4173 90.4016 98.4502 90.4609 98.5159C90.5224 98.5817 90.5532 98.6622 90.5532 98.7577C90.5532 98.8488 90.5224 98.9273 90.4609 98.993C90.4016 99.0567 90.3157 99.0885 90.2033 99.0885C90.0888 99.0885 90.0018 99.0567 89.9425 98.993C89.8852 98.9273 89.8566 98.8488 89.8566 98.7577ZM91.2816 101.43V101.356C91.2816 101.108 91.3176 100.878 91.3897 100.666C91.4618 100.452 91.5657 100.266 91.7014 100.11C91.8372 99.9505 92.0015 99.8275 92.1945 99.7405C92.3874 99.6515 92.6037 99.6069 92.8434 99.6069C93.0851 99.6069 93.3025 99.6515 93.4954 99.7405C93.6905 99.8275 93.8559 99.9505 93.9916 100.11C94.1295 100.266 94.2344 100.452 94.3065 100.666C94.3786 100.878 94.4147 101.108 94.4147 101.356V101.43C94.4147 101.678 94.3786 101.908 94.3065 102.12C94.2344 102.332 94.1295 102.517 93.9916 102.676C93.8559 102.833 93.6916 102.956 93.4986 103.045C93.3078 103.132 93.0915 103.176 92.8497 103.176C92.608 103.176 92.3906 103.132 92.1977 103.045C92.0047 102.956 91.8393 102.833 91.7014 102.676C91.5657 102.517 91.4618 102.332 91.3897 102.12C91.3176 101.908 91.2816 101.678 91.2816 101.43ZM91.87 101.356V101.43C91.87 101.601 91.8902 101.764 91.9305 101.916C91.9708 102.067 92.0312 102.2 92.1118 102.317C92.1945 102.434 92.2973 102.526 92.4203 102.594C92.5433 102.659 92.6864 102.692 92.8497 102.692C93.0109 102.692 93.1519 102.659 93.2728 102.594C93.3958 102.526 93.4975 102.434 93.5781 102.317C93.6587 102.2 93.7191 102.067 93.7594 101.916C93.8018 101.764 93.823 101.601 93.823 101.43V101.356C93.823 101.187 93.8018 101.027 93.7594 100.876C93.7191 100.723 93.6576 100.589 93.5749 100.472C93.4944 100.353 93.3926 100.26 93.2696 100.192C93.1487 100.124 93.0066 100.09 92.8434 100.09C92.6822 100.09 92.5401 100.124 92.4171 100.192C92.2963 100.26 92.1945 100.353 92.1118 100.472C92.0312 100.589 91.9708 100.723 91.9305 100.876C91.8902 101.027 91.87 101.187 91.87 101.356ZM95.7411 100.405V103.112H95.1526V99.6706H95.7093L95.7411 100.405ZM95.6011 101.261L95.3562 101.251C95.3583 101.016 95.3933 100.799 95.4612 100.599C95.529 100.398 95.6244 100.223 95.7474 100.075C95.8704 99.9261 96.0167 99.8116 96.1864 99.731C96.3581 99.6483 96.5479 99.6069 96.7557 99.6069C96.9254 99.6069 97.0781 99.6303 97.2138 99.6769C97.3495 99.7214 97.4651 99.7935 97.5605 99.8932C97.658 99.9929 97.7322 100.122 97.7831 100.281C97.834 100.438 97.8595 100.63 97.8595 100.857V103.112H97.2679V100.851C97.2679 100.67 97.2413 100.526 97.1883 100.418C97.1353 100.308 97.0579 100.228 96.9561 100.179C96.8543 100.129 96.7292 100.103 96.5808 100.103C96.4345 100.103 96.3009 100.134 96.18 100.195C96.0613 100.257 95.9584 100.342 95.8715 100.45C95.7867 100.558 95.7199 100.682 95.6711 100.822C95.6244 100.96 95.6011 101.106 95.6011 101.261ZM102.538 102.444V98.2265H103.13V103.112H102.589L102.538 102.444ZM100.223 101.43V101.363C100.223 101.1 100.255 100.861 100.318 100.647C100.384 100.431 100.476 100.245 100.595 100.09C100.716 99.9356 100.859 99.8169 101.024 99.7342C101.192 99.6493 101.379 99.6069 101.584 99.6069C101.8 99.6069 101.989 99.6451 102.15 99.7214C102.314 99.7957 102.452 99.9049 102.564 100.049C102.678 100.191 102.769 100.363 102.834 100.564C102.9 100.766 102.946 100.994 102.971 101.248V101.541C102.948 101.793 102.902 102.02 102.834 102.222C102.769 102.423 102.678 102.595 102.564 102.737C102.452 102.879 102.314 102.988 102.15 103.064C101.987 103.139 101.796 103.176 101.578 103.176C101.376 103.176 101.192 103.132 101.024 103.045C100.859 102.958 100.716 102.837 100.595 102.68C100.476 102.523 100.384 102.338 100.318 102.126C100.255 101.912 100.223 101.68 100.223 101.43ZM100.814 101.363V101.43C100.814 101.601 100.831 101.762 100.865 101.913C100.901 102.064 100.957 102.196 101.031 102.311C101.105 102.425 101.199 102.515 101.314 102.581C101.428 102.645 101.565 102.676 101.724 102.676C101.919 102.676 102.079 102.635 102.204 102.552C102.332 102.47 102.433 102.36 102.51 102.225C102.586 102.089 102.646 101.942 102.688 101.783V101.016C102.662 100.899 102.625 100.787 102.577 100.679C102.53 100.569 102.468 100.471 102.392 100.386C102.318 100.299 102.226 100.23 102.115 100.179C102.007 100.129 101.879 100.103 101.731 100.103C101.569 100.103 101.43 100.137 101.314 100.205C101.199 100.271 101.105 100.362 101.031 100.478C100.957 100.593 100.901 100.727 100.865 100.879C100.831 101.03 100.814 101.191 100.814 101.363ZM105.474 103.176C105.235 103.176 105.017 103.136 104.822 103.055C104.629 102.972 104.463 102.857 104.323 102.708C104.185 102.56 104.079 102.384 104.005 102.18C103.931 101.977 103.893 101.754 103.893 101.512V101.379C103.893 101.099 103.935 100.85 104.018 100.631C104.1 100.411 104.213 100.224 104.355 100.071C104.497 99.9187 104.658 99.8031 104.838 99.7246C105.018 99.6462 105.205 99.6069 105.398 99.6069C105.644 99.6069 105.856 99.6493 106.034 99.7342C106.214 99.819 106.362 99.9377 106.476 100.09C106.591 100.241 106.676 100.419 106.731 100.625C106.786 100.828 106.813 101.051 106.813 101.293V101.557H104.243V101.076H106.225V101.032C106.217 100.879 106.185 100.731 106.13 100.587C106.077 100.442 105.992 100.324 105.875 100.23C105.758 100.137 105.599 100.09 105.398 100.09C105.264 100.09 105.141 100.119 105.029 100.176C104.917 100.231 104.82 100.314 104.74 100.424C104.659 100.535 104.596 100.669 104.552 100.828C104.507 100.987 104.485 101.171 104.485 101.379V101.512C104.485 101.676 104.507 101.829 104.552 101.973C104.599 102.116 104.665 102.241 104.752 102.349C104.841 102.457 104.948 102.542 105.074 102.603C105.201 102.665 105.345 102.695 105.506 102.695C105.714 102.695 105.89 102.653 106.034 102.568C106.178 102.483 106.305 102.37 106.413 102.228L106.769 102.511C106.695 102.623 106.6 102.73 106.486 102.832C106.371 102.934 106.23 103.017 106.063 103.08C105.897 103.144 105.701 103.176 105.474 103.176ZM108.941 99.6706V100.122H107.081V99.6706H108.941ZM107.71 98.834H108.299V102.26C108.299 102.376 108.317 102.464 108.353 102.524C108.389 102.583 108.436 102.622 108.493 102.641C108.55 102.661 108.612 102.67 108.677 102.67C108.726 102.67 108.777 102.666 108.83 102.657C108.885 102.647 108.927 102.638 108.954 102.632L108.957 103.112C108.911 103.127 108.849 103.141 108.773 103.154C108.699 103.168 108.608 103.176 108.502 103.176C108.358 103.176 108.226 103.147 108.105 103.09C107.984 103.033 107.887 102.937 107.815 102.804C107.745 102.668 107.71 102.486 107.71 102.257V98.834ZM111.661 102.524V100.752C111.661 100.616 111.633 100.499 111.578 100.399C111.525 100.297 111.445 100.219 111.337 100.164C111.228 100.108 111.095 100.081 110.936 100.081C110.787 100.081 110.657 100.106 110.545 100.157C110.434 100.208 110.347 100.275 110.284 100.358C110.222 100.44 110.191 100.529 110.191 100.625H109.603C109.603 100.502 109.635 100.38 109.698 100.259C109.762 100.138 109.853 100.029 109.972 99.9314C110.093 99.8317 110.237 99.7533 110.405 99.696C110.574 99.6366 110.763 99.6069 110.971 99.6069C111.221 99.6069 111.442 99.6493 111.632 99.7342C111.825 99.819 111.976 99.9473 112.084 100.119C112.194 100.289 112.249 100.502 112.249 100.758V102.362C112.249 102.476 112.259 102.598 112.278 102.727C112.299 102.857 112.33 102.968 112.37 103.061V103.112H111.756C111.727 103.044 111.703 102.954 111.686 102.842C111.669 102.727 111.661 102.621 111.661 102.524ZM111.763 101.026L111.769 101.439H111.174C111.007 101.439 110.857 101.453 110.726 101.48C110.594 101.506 110.484 101.545 110.395 101.598C110.306 101.651 110.238 101.718 110.191 101.799C110.145 101.877 110.121 101.969 110.121 102.075C110.121 102.183 110.146 102.282 110.195 102.371C110.243 102.46 110.317 102.531 110.414 102.584C110.514 102.635 110.636 102.661 110.78 102.661C110.96 102.661 111.119 102.622 111.257 102.546C111.395 102.47 111.504 102.376 111.585 102.266C111.667 102.156 111.712 102.049 111.718 101.945L111.97 102.228C111.955 102.317 111.914 102.416 111.849 102.524C111.783 102.632 111.695 102.736 111.585 102.835C111.477 102.933 111.347 103.015 111.197 103.08C111.048 103.144 110.881 103.176 110.694 103.176C110.461 103.176 110.256 103.13 110.08 103.039C109.906 102.948 109.771 102.826 109.673 102.673C109.578 102.518 109.53 102.346 109.53 102.155C109.53 101.97 109.566 101.808 109.638 101.668C109.71 101.526 109.814 101.408 109.95 101.315C110.085 101.22 110.249 101.148 110.44 101.099C110.63 101.05 110.844 101.026 111.079 101.026H111.763ZM113.814 99.6706V103.112H113.223V99.6706H113.814ZM113.178 98.7577C113.178 98.6622 113.207 98.5817 113.264 98.5159C113.323 98.4502 113.41 98.4173 113.525 98.4173C113.637 98.4173 113.723 98.4502 113.783 98.5159C113.844 98.5817 113.875 98.6622 113.875 98.7577C113.875 98.8488 113.844 98.9273 113.783 98.993C113.723 99.0567 113.637 99.0885 113.525 99.0885C113.41 99.0885 113.323 99.0567 113.264 98.993C113.207 98.9273 113.178 98.8488 113.178 98.7577ZM115.398 98.2265V103.112H114.807V98.2265H115.398ZM118.347 102.199C118.347 102.114 118.328 102.036 118.29 101.964C118.254 101.89 118.178 101.823 118.064 101.764C117.952 101.702 117.782 101.649 117.555 101.604C117.364 101.564 117.191 101.516 117.037 101.461C116.884 101.406 116.753 101.339 116.645 101.261C116.539 101.182 116.458 101.09 116.4 100.984C116.343 100.878 116.315 100.754 116.315 100.612C116.315 100.476 116.344 100.348 116.404 100.227C116.465 100.106 116.551 99.9992 116.661 99.9059C116.774 99.8126 116.908 99.7395 117.065 99.6865C117.222 99.6334 117.397 99.6069 117.59 99.6069C117.866 99.6069 118.101 99.6557 118.296 99.7533C118.491 99.8508 118.641 99.9812 118.745 100.144C118.849 100.306 118.9 100.485 118.9 100.682H118.312C118.312 100.587 118.283 100.494 118.226 100.405C118.171 100.314 118.089 100.239 117.981 100.179C117.875 100.12 117.745 100.09 117.59 100.09C117.427 100.09 117.294 100.116 117.192 100.167C117.093 100.216 117.02 100.278 116.973 100.354C116.928 100.431 116.906 100.511 116.906 100.596C116.906 100.66 116.917 100.717 116.938 100.768C116.961 100.817 117.002 100.862 117.059 100.905C117.116 100.945 117.197 100.983 117.301 101.019C117.404 101.055 117.537 101.091 117.698 101.127C117.98 101.191 118.212 101.267 118.395 101.356C118.577 101.445 118.713 101.555 118.802 101.684C118.891 101.813 118.935 101.97 118.935 102.155C118.935 102.305 118.904 102.443 118.84 102.568C118.779 102.693 118.688 102.802 118.57 102.893C118.453 102.982 118.313 103.052 118.15 103.103C117.989 103.151 117.807 103.176 117.606 103.176C117.303 103.176 117.046 103.122 116.836 103.014C116.626 102.905 116.467 102.765 116.359 102.594C116.251 102.422 116.197 102.241 116.197 102.05H116.788C116.797 102.211 116.844 102.339 116.928 102.435C117.013 102.528 117.117 102.595 117.24 102.635C117.363 102.673 117.485 102.692 117.606 102.692C117.767 102.692 117.902 102.671 118.01 102.629C118.12 102.586 118.204 102.528 118.261 102.454C118.318 102.38 118.347 102.295 118.347 102.199Z" fill="#4C9DE8"/>
<g filter="url(#filter2_d_2003_30159)">
<g clip-path="url(#clip1_2003_30159)">
<rect x="64.0857" y="109.866" width="149.829" height="48.8571" rx="3.25714" fill="white"/>
<rect x="64.0857" y="109.866" width="150" height="24.4286" rx="1.62857" fill="white"/>
<path fill-rule="evenodd" clip-rule="evenodd" d="M70.0571 122.08C70.0571 119.087 72.4924 116.651 75.4857 116.651C78.479 116.651 80.9143 119.087 80.9143 122.08C80.9143 125.073 78.479 127.509 75.4857 127.509C72.4924 127.509 70.0571 125.073 70.0571 122.08ZM77.4052 124.097C77.4844 124.273 77.5569 124.451 77.6282 124.63C77.6929 124.791 77.6506 124.921 77.487 124.998C77.3181 125.078 77.1413 125.143 76.9631 125.193C76.2783 125.386 75.5934 125.393 74.9139 125.167C74.0918 124.894 73.5455 124.32 73.2196 123.514C73.1741 123.4 73.14 123.281 73.1058 123.162C73.0933 123.118 73.0809 123.074 73.0678 123.031H72.4239C72.3157 123.031 72.2286 122.942 72.2286 122.831V122.386C72.2286 122.275 72.3157 122.186 72.4239 122.186H72.9583V121.823H72.4239C72.3157 121.823 72.2286 121.734 72.2286 121.623V121.178C72.2286 121.067 72.3157 120.978 72.4239 120.978H73.1021L73.1245 120.909C73.3066 120.312 73.6207 119.805 74.105 119.421C74.489 119.115 74.9337 118.947 75.41 118.869C76.087 118.758 76.7428 118.853 77.3788 119.107C77.4197 119.123 77.4593 119.142 77.4976 119.165C77.6506 119.257 77.6902 119.375 77.6229 119.541C77.5517 119.718 77.4804 119.894 77.4026 120.067C77.3353 120.217 77.2442 120.265 77.0872 120.228C76.9933 120.206 76.9001 120.181 76.807 120.156C76.6869 120.123 76.567 120.091 76.4459 120.066C75.9919 119.97 75.542 119.966 75.1012 120.144C74.7225 120.299 74.4916 120.595 74.3333 120.964C74.3306 120.967 74.3306 120.972 74.3306 120.978H75.6502C75.7584 120.978 75.8455 121.067 75.8455 121.178V121.623C75.8455 121.734 75.7584 121.823 75.6502 121.823H74.1406C74.1397 121.902 74.14 121.981 74.1403 122.062C74.1405 122.102 74.1406 122.144 74.1406 122.186H75.6502C75.7584 122.186 75.8455 122.275 75.8455 122.386V122.831C75.8455 122.942 75.7584 123.031 75.6502 123.031H74.2726C74.4388 123.518 74.7093 123.895 75.2174 124.059C75.6225 124.19 76.0342 124.182 76.4446 124.094C76.5651 124.069 76.6844 124.037 76.8039 124.004C76.895 123.98 76.9861 123.955 77.0779 123.933C77.2455 123.894 77.3353 123.94 77.4052 124.097Z" fill="#0039A6"/>
<path d="M87.4487 115.496L88.3505 117.24L89.2546 115.496H89.7771L88.5795 117.672V118.969H88.1191V117.672L86.9215 115.496H87.4487ZM89.882 117.707V117.653C89.882 117.466 89.9091 117.294 89.9631 117.135C90.0172 116.974 90.0951 116.835 90.1969 116.717C90.2987 116.598 90.422 116.506 90.5667 116.441C90.7114 116.374 90.8736 116.34 91.0534 116.34C91.2347 116.34 91.3977 116.374 91.5424 116.441C91.6887 116.506 91.8128 116.598 91.9146 116.717C92.0179 116.835 92.0967 116.974 92.1507 117.135C92.2048 117.294 92.2318 117.466 92.2318 117.653V117.707C92.2318 117.893 92.2048 118.066 92.1507 118.225C92.0967 118.384 92.0179 118.523 91.9146 118.643C91.8128 118.76 91.6895 118.852 91.5448 118.919C91.4017 118.984 91.2394 119.017 91.0581 119.017C90.8768 119.017 90.7138 118.984 90.5691 118.919C90.4244 118.852 90.3003 118.76 90.1969 118.643C90.0951 118.523 90.0172 118.384 89.9631 118.225C89.9091 118.066 89.882 117.893 89.882 117.707ZM90.3234 117.653V117.707C90.3234 117.836 90.3385 117.958 90.3687 118.072C90.3989 118.185 90.4442 118.285 90.5047 118.373C90.5667 118.46 90.6438 118.53 90.7361 118.581C90.8283 118.63 90.9357 118.654 91.0581 118.654C91.179 118.654 91.2848 118.63 91.3754 118.581C91.4677 118.53 91.544 118.46 91.6044 118.373C91.6649 118.285 91.7102 118.185 91.7404 118.072C91.7722 117.958 91.7881 117.836 91.7881 117.707V117.653C91.7881 117.525 91.7722 117.405 91.7404 117.292C91.7102 117.178 91.6641 117.077 91.602 116.989C91.5416 116.9 91.4653 116.83 91.373 116.779C91.2824 116.728 91.1758 116.703 91.0534 116.703C90.9325 116.703 90.8259 116.728 90.7337 116.779C90.643 116.83 90.5667 116.9 90.5047 116.989C90.4442 117.077 90.3989 117.178 90.3687 117.292C90.3385 117.405 90.3234 117.525 90.3234 117.653ZM94.3646 118.373V116.388H94.8083V118.969H94.386L94.3646 118.373ZM94.4481 117.829L94.6318 117.824C94.6318 117.996 94.6135 118.155 94.5769 118.301C94.5419 118.446 94.4847 118.572 94.4051 118.678C94.3256 118.785 94.2214 118.868 94.0926 118.929C93.9638 118.988 93.8071 119.017 93.6227 119.017C93.497 119.017 93.3817 118.999 93.2767 118.962C93.1734 118.926 93.0843 118.869 93.0096 118.793C92.9348 118.716 92.8768 118.617 92.8354 118.495C92.7956 118.372 92.7758 118.225 92.7758 118.053V116.388H93.2171V118.058C93.2171 118.174 93.2298 118.27 93.2553 118.347C93.2823 118.421 93.3181 118.481 93.3626 118.526C93.4087 118.569 93.4596 118.599 93.5153 118.616C93.5726 118.634 93.6314 118.643 93.6918 118.643C93.8795 118.643 94.0282 118.607 94.1379 118.535C94.2477 118.462 94.3264 118.364 94.3741 118.242C94.4234 118.118 94.4481 117.98 94.4481 117.829ZM98.6109 118.091C98.6109 118.01 98.5982 117.939 98.5728 117.877C98.5489 117.813 98.506 117.756 98.444 117.705C98.3835 117.654 98.2992 117.606 98.1911 117.559C98.0845 117.513 97.9493 117.466 97.7855 117.419C97.6138 117.368 97.4587 117.311 97.3203 117.249C97.182 117.186 97.0635 117.113 96.9649 117.032C96.8663 116.951 96.7907 116.858 96.7383 116.753C96.6858 116.648 96.6595 116.528 96.6595 116.393C96.6595 116.258 96.6874 116.133 96.743 116.018C96.7987 115.904 96.8782 115.804 96.9816 115.72C97.0865 115.634 97.2114 115.567 97.3561 115.52C97.5008 115.472 97.6623 115.448 97.8404 115.448C98.1012 115.448 98.3223 115.498 98.5036 115.599C98.6865 115.697 98.8257 115.827 98.9211 115.987C99.0165 116.146 99.0642 116.317 99.0642 116.498H98.6062C98.6062 116.367 98.5783 116.252 98.5227 116.152C98.467 116.05 98.3827 115.971 98.2698 115.913C98.1569 115.855 98.0138 115.825 97.8404 115.825C97.6766 115.825 97.5414 115.85 97.4348 115.899C97.3283 115.948 97.2488 116.015 97.1963 116.099C97.1454 116.184 97.1199 116.28 97.1199 116.388C97.1199 116.461 97.1351 116.528 97.1653 116.589C97.1971 116.647 97.2456 116.702 97.3108 116.753C97.3776 116.804 97.4619 116.851 97.5637 116.894C97.667 116.937 97.7903 116.978 97.9334 117.018C98.1306 117.074 98.3008 117.136 98.444 117.204C98.5871 117.272 98.7048 117.35 98.797 117.435C98.8909 117.52 98.96 117.616 99.0046 117.724C99.0507 117.831 99.0738 117.952 99.0738 118.087C99.0738 118.228 99.0451 118.356 98.9879 118.471C98.9306 118.585 98.8487 118.683 98.7422 118.764C98.6356 118.845 98.5076 118.908 98.3581 118.953C98.2102 118.996 98.0448 119.017 97.8619 119.017C97.7012 119.017 97.543 118.995 97.3871 118.95C97.2329 118.906 97.0921 118.839 96.9649 118.75C96.8392 118.661 96.7383 118.551 96.6619 118.421C96.5872 118.289 96.5498 118.136 96.5498 117.963H97.0078C97.0078 118.082 97.0309 118.184 97.077 118.27C97.1231 118.355 97.1859 118.425 97.2655 118.48C97.3466 118.536 97.438 118.577 97.5398 118.604C97.6432 118.63 97.7505 118.643 97.8619 118.643C98.0225 118.643 98.1585 118.62 98.2698 118.576C98.3811 118.531 98.4654 118.468 98.5227 118.385C98.5815 118.302 98.6109 118.204 98.6109 118.091ZM100.665 119.017C100.485 119.017 100.322 118.987 100.176 118.926C100.031 118.864 99.9063 118.778 99.8014 118.666C99.698 118.555 99.6185 118.423 99.5628 118.27C99.5071 118.118 99.4793 117.951 99.4793 117.769V117.669C99.4793 117.459 99.5103 117.272 99.5723 117.109C99.6344 116.943 99.7187 116.803 99.8252 116.689C99.9318 116.574 100.053 116.488 100.188 116.429C100.323 116.37 100.463 116.34 100.608 116.34C100.792 116.34 100.951 116.372 101.085 116.436C101.22 116.499 101.331 116.589 101.416 116.703C101.502 116.816 101.566 116.95 101.607 117.104C101.649 117.256 101.669 117.423 101.669 117.605V117.803H99.7417V117.443H101.228V117.409C101.222 117.295 101.198 117.183 101.156 117.075C101.117 116.967 101.053 116.878 100.966 116.808C100.878 116.738 100.759 116.703 100.608 116.703C100.508 116.703 100.415 116.725 100.331 116.767C100.247 116.809 100.174 116.871 100.114 116.954C100.053 117.036 100.007 117.137 99.9731 117.256C99.9397 117.376 99.923 117.513 99.923 117.669V117.769C99.923 117.892 99.9397 118.007 99.9731 118.115C100.008 118.222 100.058 118.316 100.123 118.397C100.19 118.478 100.271 118.542 100.364 118.588C100.46 118.634 100.568 118.657 100.689 118.657C100.845 118.657 100.977 118.625 101.085 118.561C101.193 118.498 101.288 118.413 101.369 118.306L101.636 118.518C101.58 118.603 101.509 118.683 101.424 118.759C101.338 118.836 101.232 118.898 101.106 118.946C100.982 118.993 100.835 119.017 100.665 119.017ZM102.626 116.939V118.969H102.185V116.388H102.602L102.626 116.939ZM102.521 117.581L102.337 117.574C102.339 117.397 102.365 117.234 102.416 117.085C102.467 116.934 102.538 116.802 102.631 116.691C102.723 116.58 102.833 116.494 102.96 116.433C103.089 116.371 103.231 116.34 103.387 116.34C103.514 116.34 103.629 116.358 103.73 116.393C103.832 116.426 103.919 116.48 103.99 116.555C104.064 116.63 104.119 116.727 104.157 116.846C104.196 116.964 104.215 117.108 104.215 117.278V118.969H103.771V117.273C103.771 117.138 103.751 117.03 103.711 116.949C103.672 116.866 103.614 116.806 103.537 116.77C103.461 116.732 103.367 116.713 103.256 116.713C103.146 116.713 103.046 116.736 102.955 116.782C102.866 116.828 102.789 116.892 102.724 116.973C102.66 117.054 102.61 117.147 102.573 117.252C102.538 117.355 102.521 117.465 102.521 117.581ZM105.966 116.388V116.727H104.57V116.388H105.966ZM105.043 115.761H105.484V118.33C105.484 118.417 105.497 118.483 105.524 118.528C105.551 118.573 105.586 118.602 105.629 118.616C105.672 118.631 105.718 118.638 105.768 118.638C105.804 118.638 105.843 118.635 105.882 118.628C105.924 118.62 105.955 118.614 105.975 118.609L105.978 118.969C105.943 118.98 105.897 118.991 105.839 119C105.784 119.012 105.716 119.017 105.637 119.017C105.528 119.017 105.429 118.996 105.338 118.953C105.248 118.91 105.175 118.838 105.121 118.738C105.069 118.636 105.043 118.499 105.043 118.328V115.761Z" fill="#4C9DE8"/>
</g>
<rect x="64.2893" y="110.069" width="149.421" height="48.45" rx="3.05357" stroke="#D7EAFC" stroke-width="0.407143"/>
</g>
<rect x="25.2036" y="22.1479" width="227.593" height="235.386" rx="4.68214" stroke="#DBE9FA" stroke-width="0.407143" shape-rendering="crispEdges"/>
</g>
</g>
<defs>
<filter id="filter0_d_2003_30159" x="2.2" y="-8.99858" width="273.6" height="291.164" filterUnits="userSpaceOnUse" color-interpolation-filters="sRGB">
<feFlood flood-opacity="0" result="BackgroundImageFix"/>
<feColorMatrix in="SourceAlpha" type="matrix" values="0 0 0 0 0 0 0 0 0 0 0 0 0 0 0 0 0 0 127 0" result="hardAlpha"/>
<feOffset dy="1.62857"/>
<feGaussianBlur stdDeviation="11.4"/>
<feComposite in2="hardAlpha" operator="out"/>
<feColorMatrix type="matrix" values="0 0 0 0 0.840937 0 0 0 0 0.901482 0 0 0 0 0.975 0 0 0 1 0"/>
<feBlend mode="normal" in2="BackgroundImageFix" result="effect1_dropShadow_2003_30159"/>
<feBlend mode="normal" in="SourceGraphic" in2="effect1_dropShadow_2003_30159" result="shape"/>
</filter>
<filter id="filter1_d_2003_30159" x="114.571" y="6.47285" width="48.8571" height="48.8572" filterUnits="userSpaceOnUse" color-interpolation-filters="sRGB">
<feFlood flood-opacity="0" result="BackgroundImageFix"/>
<feColorMatrix in="SourceAlpha" type="matrix" values="0 0 0 0 0 0 0 0 0 0 0 0 0 0 0 0 0 0 127 0" result="hardAlpha"/>
<feOffset dy="0.814286"/>
<feGaussianBlur stdDeviation="3.25714"/>
<feColorMatrix type="matrix" values="0 0 0 0 0 0 0 0 0 0.223529 0 0 0 0 0.65098 0 0 0 0.08 0"/>
<feBlend mode="normal" in2="BackgroundImageFix" result="effect1_dropShadow_2003_30159"/>
<feBlend mode="normal" in="SourceGraphic" in2="effect1_dropShadow_2003_30159" result="shape"/>
</filter>
<filter id="filter2_d_2003_30159" x="48.0857" y="95.8658" width="181.829" height="80.8572" filterUnits="userSpaceOnUse" color-interpolation-filters="sRGB">
<feFlood flood-opacity="0" result="BackgroundImageFix"/>
<feColorMatrix in="SourceAlpha" type="matrix" values="0 0 0 0 0 0 0 0 0 0 0 0 0 0 0 0 0 0 127 0" result="hardAlpha"/>
<feOffset dy="2"/>
<feGaussianBlur stdDeviation="8"/>
<feColorMatrix type="matrix" values="0 0 0 0 0 0 0 0 0 0.223529 0 0 0 0 0.65098 0 0 0 0.08 0"/>
<feBlend mode="normal" in2="BackgroundImageFix" result="effect1_dropShadow_2003_30159"/>
<feBlend mode="normal" in="SourceGraphic" in2="effect1_dropShadow_2003_30159" result="shape"/>
</filter>
<clipPath id="clip0_2003_30159">
<rect x="0.666626" y="0.809814" width="277.333" height="120" rx="20" fill="white"/>
</clipPath>
<clipPath id="clip1_2003_30159">
<rect x="64.0857" y="109.866" width="149.829" height="48.8571" rx="3.25714" fill="white"/>
</clipPath>
</defs>
</svg>
