<svg width="2000" height="2000" viewBox="0 0 2000 2000" fill="none" xmlns="http://www.w3.org/2000/svg">
<g clip-path="url(#clip0_399_5139)">
<path d="M2000 0H0V2000H2000V0Z" fill="#E6007A"/>
<path d="M1000 589.73C1140.43 589.73 1254.27 523.491 1254.27 441.78C1254.27 360.07 1140.43 293.83 1000 293.83C859.571 293.83 745.73 360.07 745.73 441.78C745.73 523.491 859.571 589.73 1000 589.73Z" fill="white"/>
<path d="M1000 1704.1C1140.43 1704.1 1254.27 1637.86 1254.27 1556.15C1254.27 1474.44 1140.43 1408.2 1000 1408.2C859.571 1408.2 745.73 1474.44 745.73 1556.15C745.73 1637.86 859.571 1704.1 1000 1704.1Z" fill="white"/>
<path d="M645.601 794.353C715.816 672.737 715.371 541.029 644.607 500.174C573.844 459.318 459.559 524.787 389.344 646.403C319.129 768.018 319.574 899.727 390.337 940.582C461.101 981.437 575.386 915.968 645.601 794.353Z" fill="white"/>
<path d="M1610.66 1351.54C1680.88 1229.92 1680.43 1098.21 1609.67 1057.36C1538.91 1016.5 1424.62 1081.97 1354.41 1203.59C1284.19 1325.2 1284.64 1456.91 1355.4 1497.77C1426.16 1538.62 1540.45 1473.15 1610.66 1351.54Z" fill="white"/>
<path d="M644.607 1497.76C715.37 1456.9 715.815 1325.2 645.601 1203.58C575.386 1081.96 461.101 1016.49 390.337 1057.35C319.574 1098.21 319.129 1229.91 389.344 1351.53C459.558 1473.15 573.844 1538.61 644.607 1497.76Z" fill="white"/>
<path d="M1609.66 940.587C1680.43 899.732 1680.87 768.023 1610.66 646.408C1540.44 524.792 1426.16 459.323 1355.39 500.178C1284.63 541.034 1284.19 672.742 1354.4 794.358C1424.61 915.973 1538.9 981.442 1609.66 940.587Z" fill="white"/>
</g>
<defs>
<clipPath id="clip0_399_5139">
<rect width="2000" height="2000" rx="1000" fill="white"/>
</clipPath>
</defs>
</svg>
