<svg width="77" height="31" viewBox="0 0 77 31" fill="none" xmlns="http://www.w3.org/2000/svg">
<path d="M0 6.59027C0 3.47024 2.52938 0.940857 5.64941 0.940857H19.7729C22.893 0.940857 25.4224 3.47024 25.4224 6.59027V20.7138C25.4224 23.8338 22.893 26.3632 19.7729 26.3632H5.64941C2.52938 26.3632 0 23.8338 0 20.7138V6.59027Z" fill="black"/>
<path fill-rule="evenodd" clip-rule="evenodd" d="M13.8091 4.22777C15.6733 4.32564 16.8479 4.54752 18.0779 5.23972C19.032 5.77613 19.76 6.59092 20.2757 7.58917C20.5487 8.12007 20.6865 8.65366 20.7887 9.31958C20.8713 9.86292 20.8906 10.4144 20.8411 10.9576C20.8134 11.3051 20.7638 11.6209 20.6865 11.9324C20.5293 12.5626 20.2563 13.1596 19.8896 13.7069C19.5284 14.2433 19.0872 14.7204 18.5714 15.1616L18.3867 15.3119L18.5135 15.6787C18.9824 17.0024 19.4181 17.9813 19.9393 18.8513L20.1405 19.1726L20.3087 19.4303C20.8411 20.2108 20.9292 20.9678 20.3087 21.6778C19.8455 22.2101 18.9078 22.9354 15.778 23.1022C14.4848 23.1711 13.4451 22.5878 12.7336 21.6778C12.6196 21.5155 12.3707 21.5287 12.2474 21.6842C11.9463 22.0639 11.5191 22.3886 11.0156 22.5906L10.7619 22.683L10.4918 22.7672C10.0036 22.905 9.40551 23.055 8.66897 23.0814C4.03461 23.2478 4.5699 19.549 4.5699 19.549H4.56171L5.39005 14.7053C5.39005 14.7053 5.56603 13.6124 5.67408 12.9115C5.7848 12.1936 5.9499 11.072 5.9499 11.072L6.09058 10.1L6.25597 8.69363L6.34424 7.79608C6.36359 7.392 6.36359 7.0625 6.34424 6.75913L6.46556 6.15252L6.52897 5.87401C6.6034 5.59408 6.67798 5.46033 6.82684 5.30045L6.9757 5.15286L7.0668 5.06741C7.39771 4.77929 7.64035 4.6841 7.98779 4.59173C8.1036 4.56136 8.21941 4.53651 8.34907 4.51448L8.73506 4.45939L9.57895 4.36971C10.9605 4.20842 12.4634 4.15602 13.8091 4.22777ZM8.41786 6.65165C8.41517 6.56804 9.3267 6.48089 9.75168 6.44022L9.81877 6.43372C11.0623 6.28896 12.4494 6.23514 13.6986 6.30279C14.8513 6.36338 16.0344 6.47369 17.0602 7.05007C17.6696 7.39341 18.1135 7.92842 18.4307 8.54194C18.5989 8.87003 18.6817 9.27411 18.7368 9.63807C18.7947 10.0159 18.8085 10.4006 18.7753 10.7825L18.7478 11.0306C18.7313 11.1658 18.7064 11.2996 18.6734 11.4305C18.5741 11.8317 18.3975 12.2081 18.1687 12.5515C17.8462 13.0286 17.4296 13.4339 16.9774 13.7856C16.6493 14.0419 16.2991 14.2723 15.9378 14.4819C16.6824 16.8878 17.4651 18.4132 18.5135 20.4217C18.348 20.6106 17.2229 20.9497 15.6676 21.0325C15.2512 21.0545 14.9285 20.9126 14.6804 20.7167C14.2061 20.3417 14.0185 19.7668 14.0185 19.7668L12.6493 15.802C12.5825 15.6085 12.4004 15.4787 12.1958 15.4787H11.1203C10.7701 17.7248 10.6239 19.0073 10.6239 20.4217C10.6239 20.4217 10.4584 20.8229 8.46742 21.0187C7.91873 21.0725 7.13558 21.0076 6.82952 20.4714C6.53985 19.9653 6.67233 19.3145 6.78814 18.7451L6.85706 18.3948L6.92924 17.989C7.1425 16.7901 7.35562 15.5925 7.54643 14.3895C7.75051 13.1003 7.96279 11.6745 8.15035 10.3827C8.15981 10.2989 8.17563 10.1647 8.19498 10.0003C8.27195 9.3491 8.40458 8.22444 8.41786 7.88971C8.43721 7.48027 8.44272 7.05968 8.41786 6.65165ZM11.4457 13.3886C11.4457 13.3886 11.8413 11.5052 12.2006 8.3959C13.6986 8.15058 15.3257 8.44689 14.9424 10.8432C14.5263 13.4349 12.7775 13.4065 11.7568 13.39H11.7545L11.4457 13.3886Z" fill="white"/>
<path d="M36.3539 23.5389V16.3641H41.1841C45.167 16.3641 47.7092 13.7936 47.7092 10.0085C47.7092 6.33641 45.2235 3.76593 41.1841 3.76593H33.8964V23.5389H36.3539ZM36.3539 5.99745H40.8734C43.5286 5.99745 45.167 7.46629 45.167 10.0085C45.167 12.6638 43.6134 14.1044 40.8734 14.1044H36.3539V5.99745ZM54.5986 23.7931C56.6324 23.7931 58.2425 22.9739 59.1182 21.5051H59.2312L59.4006 23.5389H61.4062V13.8219C61.4062 11.0819 59.4571 8.8504 55.7568 8.8504C52.5931 8.8504 50.2768 10.6865 50.2768 13.4547H52.5649C52.5931 12.0706 53.6382 10.8842 55.7568 10.8842C58.1013 10.8842 59.0899 12.2683 59.0899 13.8784V15.319C58.186 15.0648 57.0561 14.8105 55.5308 14.8105C51.2937 14.8105 49.5707 16.9008 49.5707 19.3301C49.5707 21.844 51.4632 23.7931 54.5986 23.7931ZM55.0224 21.8158C52.9321 21.8158 51.9717 20.7424 51.9717 19.3018C51.9717 17.607 53.1863 16.7031 55.5308 16.7031C56.8019 16.7031 57.9035 16.8443 59.0899 17.2115V17.946C59.0899 20.0362 57.4798 21.8158 55.0224 21.8158ZM69.0061 30.0074L77 9.38709V9.10462H74.5142L70.2772 20.4317H70.1642L65.7859 9.10462H63.2437V9.38709L69.0343 23.3694L69.0626 23.4259L66.6051 29.725V30.0074H69.0061Z" fill="black"/>
</svg>
