<svg width="45" height="33" viewBox="0 0 45 33" fill="none" xmlns="http://www.w3.org/2000/svg">
<path d="M15.6614 27.225C15.9341 27.225 16.1864 27.1219 16.3705 26.9294C16.425 26.8744 16.4727 26.8194 16.5136 26.7575H13.3023V27.225H15.6614Z" fill="#FFCC00"/>
<path d="M17.625 26.7575C17.5296 27.1012 17.3523 27.4106 17.0932 27.665C16.7659 28.0019 16.3227 28.2081 15.8318 28.2494V28.82C15.8318 29.1087 15.6 29.3425 15.3136 29.3425C15.0341 29.3425 14.8023 29.1087 14.8023 28.82V28.2631H14.0591V28.82C14.0591 29.1087 13.8341 29.3425 13.5477 29.3425C13.2682 29.3425 13.0364 29.1087 13.0364 28.82V28.2631H11.8364C11.55 28.2631 11.3182 28.0294 11.3182 27.7406C11.3182 27.4587 11.55 27.225 11.8364 27.225H12.2796V26.7575H9.90001C8.8841 26.7575 7.88183 26.6337 6.90683 26.3862C7.6841 29.8994 10.7932 32.5256 14.5091 32.5256C18.0955 32.5256 21.1159 30.085 22.0159 26.7575H17.625Z" fill="#FFCC00"/>
<path d="M3.42274 23.0656C5.14093 24.5987 7.40456 25.3619 9.70229 25.3688L35.7818 25.3825C40.3568 25.3275 44.2568 21.7044 44.3455 17.0775C44.4205 12.7256 41.2364 9.1025 37.0841 8.53875C36.45 8.44938 35.9659 7.95438 35.8773 7.315C35.3182 3.18313 31.8068 0 27.5591 0C24.5046 0 21.825 1.65 20.3591 4.11125C20.0727 4.59937 19.5341 4.85375 18.975 4.77125C18.5796 4.70937 18.1705 4.68187 17.7477 4.68187C15.0341 4.68187 12.6273 5.9675 11.1 7.98875C10.8205 8.36 10.3705 8.5525 9.90683 8.50437C9.62729 8.47688 9.34093 8.46313 9.04774 8.46313C4.35683 8.46313 0.572743 12.3337 0.654562 17.0775C0.702289 19.9237 2.00456 21.8006 3.42274 23.0656ZM23.3864 7.66562C27.2727 7.66562 30.4227 10.8419 30.4227 14.7606C30.4227 18.6725 27.2727 21.8556 23.3864 21.8556C19.5 21.8556 16.35 18.6725 16.35 14.7606C16.35 10.8419 19.5 7.66562 23.3864 7.66562Z" fill="white"/>
<path d="M20.9727 17.0637C20.7137 17.0637 20.5091 17.27 20.5091 17.5312C20.5091 17.7925 20.7205 17.9987 20.9727 17.9987H22.0568V18.5075C22.0568 18.7687 22.2614 18.975 22.5205 18.975C22.7796 18.975 22.9841 18.7619 22.9841 18.5075V17.9987H23.6523V18.5075C23.6523 18.7687 23.8568 18.975 24.1159 18.975C24.375 18.975 24.5796 18.7619 24.5796 18.5075V17.9919C25.0227 17.9575 25.425 17.7719 25.7182 17.4625C26.0727 17.1187 26.2637 16.6512 26.2637 16.1494C26.2637 15.6131 26.0387 15.1181 25.6364 14.7675C25.6637 14.7469 25.6909 14.7194 25.7182 14.6919C26.0727 14.3481 26.2637 13.8806 26.2637 13.3787C26.2637 12.4025 25.5273 11.6187 24.5727 11.5362V11.0206C24.5727 10.7594 24.3614 10.5531 24.1091 10.5531C23.8568 10.5531 23.6455 10.7594 23.6455 11.0206V11.5294H23.1682V11.0206C23.1682 10.7594 22.9637 10.5531 22.7046 10.5531C22.4455 10.5531 22.2409 10.7594 22.2409 11.0206V11.5294H20.9659C20.7068 11.5294 20.5023 11.7425 20.5023 11.9969C20.5023 12.2581 20.7137 12.4643 20.9659 12.4643H21.3682V17.0706H20.9727V17.0637ZM22.2955 12.4575H24.4296C24.9341 12.4575 25.3432 12.87 25.3432 13.3719C25.3432 13.6262 25.2477 13.8462 25.0705 14.025C24.9068 14.1969 24.6818 14.2931 24.4364 14.2931H22.2955V12.4575ZM22.2955 15.2212H24.4296C24.9341 15.2212 25.3432 15.6337 25.3432 16.1425C25.3432 16.3969 25.2477 16.6169 25.0705 16.7956C24.9068 16.9675 24.6818 17.0637 24.4364 17.0637H22.2955V15.2212Z" fill="white"/>
</svg>
