<svg width="64" height="64" viewBox="0 0 64 64" fill="none" xmlns="http://www.w3.org/2000/svg">
<path d="M6.51514 10.532V60.0848H58.3268" stroke="#5583FE" stroke-width="2" stroke-linecap="round" stroke-linejoin="round"/>
<path d="M22.8438 46.3252H12.8438V59.4496H22.8438V46.3252Z" stroke="#5583FE" stroke-width="2" stroke-linecap="round" stroke-linejoin="round"/>
<path d="M38.8359 35.3083H28.8359V59.4495H38.8359V35.3083Z" stroke="#5583FE" stroke-width="2" stroke-linecap="round" stroke-linejoin="round"/>
<path d="M54.8276 60.4495C54.2749 60.4495 53.8276 60.0017 53.8276 59.4495V54.0569C53.8276 53.5046 54.2749 53.0569 54.8276 53.0569C55.3804 53.0569 55.8276 53.5046 55.8276 54.0569V59.4495C55.8276 60.0017 55.3804 60.4495 54.8276 60.4495Z" fill="#5583FE"/>
<path d="M54.8276 51.1506C54.2749 51.1506 53.8276 50.7029 53.8276 50.1506V45.4636C53.8276 44.9114 54.2749 44.4636 54.8276 44.4636C55.3804 44.4636 55.8276 44.9114 55.8276 45.4636V50.1506C55.8276 50.7029 55.3804 51.1506 54.8276 51.1506ZM54.8276 42.5579C54.2749 42.5579 53.8276 42.1101 53.8276 41.5579V36.8704C53.8276 36.3181 54.2749 35.8704 54.8276 35.8704C55.3804 35.8704 55.8276 36.3181 55.8276 36.8704V41.5579C55.8276 42.1101 55.3804 42.5579 54.8276 42.5579Z" fill="#5583FE"/>
<path d="M54.8276 33.9651C54.2749 33.9651 53.8276 33.5173 53.8276 32.9651V30.9651H50.8276C50.2749 30.9651 49.8276 30.5173 49.8276 29.9651C49.8276 29.4128 50.2749 28.9651 50.8276 28.9651H54.8276C55.3804 28.9651 55.8276 29.4128 55.8276 29.9651V32.9651C55.8276 33.5173 55.3804 33.9651 54.8276 33.9651Z" fill="#5583FE"/>
<path d="M44.8276 34.4978C44.2749 34.4978 43.8276 34.05 43.8276 33.4978V29.9651C43.8276 29.4128 44.2749 28.9651 44.8276 28.9651H47.0464C47.5991 28.9651 48.0464 29.4128 48.0464 29.9651C48.0464 30.5173 47.5991 30.9651 47.0464 30.9651H45.8276V33.4978C45.8276 34.05 45.3804 34.4978 44.8276 34.4978Z" fill="#5583FE"/>
<path d="M44.8276 55.1003C44.2749 55.1003 43.8276 54.6526 43.8276 54.1003V46.8816C43.8276 46.3293 44.2749 45.8816 44.8276 45.8816C45.3804 45.8816 45.8276 46.3293 45.8276 46.8816V54.1003C45.8276 54.6526 45.3804 55.1003 44.8276 55.1003ZM44.8276 43.5325C44.2749 43.5325 43.8276 43.0847 43.8276 42.5325V37.3137C43.8276 36.7615 44.2749 36.3137 44.8276 36.3137C45.3804 36.3137 45.8276 36.7615 45.8276 37.3137V42.5325C45.8276 43.0847 45.3804 43.5325 44.8276 43.5325Z" fill="#5583FE"/>
<path d="M44.8276 60.4495C44.2749 60.4495 43.8276 60.0017 43.8276 59.4495V57.8406C43.8276 57.2883 44.2749 56.8406 44.8276 56.8406C45.3804 56.8406 45.8276 57.2883 45.8276 57.8406V59.4495C45.8276 60.0017 45.3804 60.4495 44.8276 60.4495Z" fill="#5583FE"/>
<path d="M43.7238 10.3029C45.2551 8.68376 47.4235 7.67358 49.8279 7.67358C54.4672 7.67358 58.228 11.4345 58.228 16.0737C58.228 20.713 54.4672 24.4739 49.8279 24.4739C45.1886 24.4739 41.4277 20.713 41.4277 16.0737C41.4277 15.2736 41.5396 14.4996 41.7486 13.7665" stroke="#5583FE" stroke-width="2" stroke-linecap="round" stroke-linejoin="round"/>
<path d="M46.5498 16.672L49.191 19.049L54.0583 12.7102" stroke="#5583FE" stroke-width="2" stroke-linecap="round" stroke-linejoin="round"/>
<path d="M7.28712 30.8684C17.5224 27.5508 15.6764 16.1488 28.7262 15.9735C28.7264 15.9574 28.7264 11.1912 28.7264 11.1912L37.4418 18.1107L28.7264 25.0303V20.9708L28.6848 20.9744C18.5068 21.7241 20.6988 33.2684 7.28711 37.0733" stroke="#5583FE" stroke-width="2" stroke-linecap="round" stroke-linejoin="round"/>
</svg>
