<svg width="32" height="32" viewBox="0 0 32 32" fill="none" xmlns="http://www.w3.org/2000/svg">
<path fill-rule="evenodd" clip-rule="evenodd" d="M26.6665 16.0001C26.6665 15.2637 26.0696 14.6667 25.3332 14.6667H6.6665C5.93012 14.6667 5.33317 15.2637 5.33317 16.0001C5.33317 16.7365 5.93012 17.3334 6.6665 17.3334H25.3332C26.0696 17.3334 26.6665 16.7365 26.6665 16.0001Z" fill="black"/>
<path fill-rule="evenodd" clip-rule="evenodd" d="M26.276 15.0573C25.7553 14.5366 24.9111 14.5366 24.3904 15.0573L19.057 20.3906C18.5363 20.9113 18.5363 21.7555 19.057 22.2762C19.5777 22.7969 20.4219 22.7969 20.9426 22.2762L26.276 16.9429C26.7967 16.4222 26.7967 15.578 26.276 15.0573Z" fill="black"/>
<path fill-rule="evenodd" clip-rule="evenodd" d="M19.057 9.72378C18.5363 10.2445 18.5363 11.0887 19.057 11.6094L24.3904 16.9427C24.9111 17.4634 25.7553 17.4634 26.276 16.9427C26.7967 16.422 26.7967 15.5778 26.276 15.0571L20.9426 9.72378C20.4219 9.20308 19.5777 9.20308 19.057 9.72378Z" fill="black"/>
</svg>
