<svg width="64" height="64" viewBox="0 0 64 64" fill="none" xmlns="http://www.w3.org/2000/svg">
<g clip-path="url(#clip0_1272_24812)">
<mask id="mask0_1272_24812" style="mask-type:luminance" maskUnits="userSpaceOnUse" x="0" y="0" width="64" height="64">
<path d="M0 0.00018692H63.9998V64H0V0.00018692Z" fill="white"/>
</mask>
<g mask="url(#mask0_1272_24812)">
<path d="M56.4947 25.7238V38.43C56.4947 45.6475 52.6435 52.3162 46.3935 55.9249L35.7873 62.0474C34.6359 62.7126 33.3296 63.0627 31.9998 63.0627C30.6701 63.0627 29.3638 62.7126 28.2123 62.0474L17.6061 55.9249C11.3561 52.3162 7.50488 45.6475 7.50488 38.43V12.2926C7.50488 10.9463 8.55613 9.82758 9.90113 9.75883C21.2661 9.18008 27.4373 4.55135 30.1936 1.70135C31.1786 0.682608 32.8211 0.682608 33.8061 1.70135C36.5623 4.55135 42.7335 9.18008 54.0985 9.75883C55.4435 9.82758 56.4947 10.9463 56.4947 12.2926V21.3488" stroke="#5583FE" stroke-width="2" stroke-miterlimit="10" stroke-linecap="round" stroke-linejoin="round"/>
<path d="M12.5562 25.7238V38.43C12.5562 43.825 15.4586 48.8525 20.1311 51.5512L30.7373 57.6737C31.1211 57.895 31.5573 58.0125 31.9998 58.0125C32.4423 58.0125 32.8786 57.895 33.2623 57.6737L43.8686 51.5512C48.541 48.8525 51.4435 43.825 51.4435 38.43V15.7476C51.4435 15.1138 50.9735 14.5751 50.3435 14.4963C41.9261 13.4376 36.2661 10.3076 32.7798 7.55635C32.5575 7.38143 32.2828 7.28634 31.9998 7.28634C31.7169 7.28634 31.4422 7.38143 31.2198 7.55635C27.7336 10.3076 22.0736 13.4376 13.6561 14.4963C13.0262 14.5751 12.5562 15.1138 12.5562 15.7476V21.3488" stroke="#5583FE" stroke-width="2" stroke-miterlimit="10" stroke-linecap="round" stroke-linejoin="round"/>
<path d="M36.6721 26.4076L40.6858 22.394C42.1646 20.9152 44.5633 20.9152 46.0421 22.394C47.5221 23.8739 47.5221 26.2726 46.0421 27.7513L30.8896 42.9039C30.1509 43.6439 29.1809 44.0139 28.2121 44.0139C27.2421 44.0139 26.2721 43.6439 25.5334 42.9039L17.9572 35.3276C16.4772 33.8488 16.4772 31.4501 17.9572 29.9701C19.4359 28.4913 21.8347 28.4913 23.3134 29.9701L28.2121 34.8676L33.5784 29.5013" stroke="#5583FE" stroke-width="2" stroke-miterlimit="10" stroke-linecap="round" stroke-linejoin="round"/>
</g>
</g>
<defs>
<clipPath id="clip0_1272_24812">
<rect width="64" height="64" fill="white"/>
</clipPath>
</defs>
</svg>
