<svg width="84" height="85" viewBox="0 0 84 85" fill="none" xmlns="http://www.w3.org/2000/svg">
<g clip-path="url(#clip0_2003_30067)">
<mask id="mask0_2003_30067" style="mask-type:luminance" maskUnits="userSpaceOnUse" x="-1" y="0" width="85" height="85">
<path d="M-0.000213623 0.29834H83.9995V84.2981H-0.000213623V0.29834Z" fill="white"/>
</mask>
<g mask="url(#mask0_2003_30067)">
<path d="M74.1493 34.0607V50.7376C74.1493 60.2105 69.0945 68.9632 60.8914 73.6997L46.9707 81.7354C45.4595 82.6084 43.745 83.0681 41.9997 83.0681C40.2544 83.0681 38.5399 82.6084 37.0286 81.7354L23.1079 73.6997C14.9048 68.9632 9.85007 60.2105 9.85007 50.7376V16.4322C9.85007 14.6653 11.2298 13.1969 12.9951 13.1067C27.9117 12.3471 36.0114 6.27185 39.629 2.53123C40.9218 1.19413 43.0775 1.19413 44.3704 2.53123C47.9879 6.27185 56.0877 12.3471 71.0042 13.1067C72.7695 13.1969 74.1493 14.6653 74.1493 16.4322V28.3185" stroke="#5583FE" stroke-width="2.5" stroke-miterlimit="10" stroke-linecap="round" stroke-linejoin="round"/>
<path d="M16.4798 34.0607V50.7376C16.4798 57.8185 20.2893 64.4171 26.422 67.9592L40.3426 75.9949C40.8463 76.2853 41.4189 76.4395 41.9997 76.4395C42.5804 76.4395 43.153 76.2853 43.6567 75.9949L57.5774 67.9592C63.71 64.4171 67.5195 57.8185 67.5195 50.7376V20.9669C67.5195 20.1351 66.9026 19.428 66.0758 19.3246C55.0278 17.935 47.5991 13.8269 43.0234 10.2159C42.7315 9.98632 42.371 9.8615 41.9997 9.8615C41.6283 9.8615 41.2678 9.98632 40.9759 10.2159C36.4002 13.8269 28.9715 17.935 17.9236 19.3246C17.0967 19.428 16.4798 20.1351 16.4798 20.9669V28.3185" stroke="#5583FE" stroke-width="2.5" stroke-miterlimit="10" stroke-linecap="round" stroke-linejoin="round"/>
<path d="M48.1323 34.9581L53.4003 29.6902C55.3412 27.7494 58.4895 27.7494 60.4304 29.6902C62.3729 31.6325 62.3729 34.7809 60.4304 36.7218L40.5428 56.6095C39.5732 57.5808 38.3001 58.0664 37.0286 58.0664C35.7555 58.0664 34.4823 57.5808 33.5127 56.6095L23.5689 46.6655C21.6264 44.7247 21.6264 41.5763 23.5689 39.6339C25.5098 37.693 28.6581 37.693 30.599 39.6339L37.0286 46.0618L44.0718 39.0186" stroke="#5583FE" stroke-width="2.5" stroke-miterlimit="10" stroke-linecap="round" stroke-linejoin="round"/>
</g>
</g>
<defs>
<clipPath id="clip0_2003_30067">
<rect width="84" height="84" fill="white" transform="translate(-0.000213623 0.298096)"/>
</clipPath>
</defs>
</svg>
