<svg width="37" height="38" viewBox="0 0 37 38" fill="none" xmlns="http://www.w3.org/2000/svg">
<g clip-path="url(#clip0_4976_71771)">
<path d="M35.9906 14.6833C34.0738 6.54333 27.0056 0.5 18.4997 0.5H17.9007V14.6833H35.9906ZM9.51464 2.96667C5.32162 5.495 2.2068 9.68833 1.00879 14.6833H9.51464V2.96667ZM1.00879 23.3167C2.2068 28.3117 5.32162 32.505 9.51464 35.0333V23.3167H1.00879ZM17.9007 37.5H18.4997C27.0056 37.5 34.0738 31.4567 35.9906 23.3167H17.9007V37.5Z" fill="#428BC1"/>
<path d="M36.1788 14.6833H17.8941V0.5C14.8063 0.623333 11.9001 1.48667 9.41776 2.96667V14.6833H0.820301C0.517574 16.04 0.335938 17.52 0.335938 19C0.335938 20.48 0.517574 21.96 0.820301 23.3167H9.41776V35.0333C11.9001 36.5133 14.8063 37.3767 17.8941 37.5V23.3167H36.1788C36.4816 21.96 36.6632 20.48 36.6632 19C36.6632 17.52 36.4816 16.04 36.1788 14.6833Z" fill="#FFE62E"/>
</g>
<defs>
<clipPath id="clip0_4976_71771">
<rect width="37" height="37" fill="white" transform="translate(0 0.5)"/>
</clipPath>
</defs>
</svg>
