<?xml version="1.0" standalone="no"?>
<!DOCTYPE svg PUBLIC "-//W3C//DTD SVG 20010904//EN"
 "http://www.w3.org/TR/2001/REC-SVG-20010904/DTD/svg10.dtd">
<svg version="1.0" xmlns="http://www.w3.org/2000/svg"
 width="569.000000pt" height="606.000000pt" viewBox="0 0 569.000000 606.000000"
 preserveAspectRatio="xMidYMid meet">

<g transform="translate(0.000000,606.000000) scale(0.100000,-0.100000)"
fill="#000000" stroke="none">
<path d="M2792 6035 c-122 -34 -186 -92 -253 -227 -26 -54 -51 -108 -55 -120
-3 -13 -132 -356 -286 -763 -1112 -2945 -1368 -3628 -1383 -3690 -31 -128 5
-265 94 -354 37 -37 200 -125 271 -146 14 -4 387 -144 830 -310 443 -167 836
-313 874 -324 222 -68 413 31 496 258 12 31 27 70 34 86 8 17 41 102 74 190
77 206 843 2240 1222 3245 398 1055 381 1007 381 1106 0 81 -21 146 -70 218
-39 56 -107 102 -222 150 -139 57 -1699 643 -1774 665 -94 29 -168 34 -233 16z
m21 -411 c26 -9 47 -20 47 -24 0 -13 -18 -21 -24 -11 -3 5 -19 14 -36 19 -27
10 -30 9 -30 -9 0 -11 4 -18 9 -14 12 7 61 -15 61 -27 0 -13 -47 -31 -65 -25
-22 9 -28 31 -21 72 4 19 8 35 10 35 1 0 23 -7 49 -16z m229 -108 c11 -16 0
-20 -16 -7 -8 7 -20 10 -26 6 -16 -10 -12 -45 6 -45 8 0 12 5 9 10 -3 6 1 10
9 10 23 0 19 -28 -4 -35 -40 -13 -68 43 -38 73 13 13 49 6 60 -12z m62 -51
c-7 -41 11 -49 26 -10 8 21 30 36 30 20 0 -14 -31 -65 -39 -65 -36 0 -51 32
-35 74 12 30 25 16 18 -19z m130 -38 c-1 -12 -3 -30 -3 -41 -1 -13 -4 -16 -13
-8 -7 5 -23 12 -35 14 l-23 3 26 32 c27 35 52 35 48 0z m102 -18 c6 -11 -17
-69 -28 -69 -5 0 -8 8 -8 18 0 14 -2 15 -10 2 -16 -25 -22 -3 -9 33 9 26 17
33 31 29 10 -2 21 -8 24 -13z m88 -32 c26 -19 18 -61 -12 -65 -43 -6 -52 3
-40 42 12 39 24 44 52 23z m96 -79 c0 -39 -1 -40 -19 -24 -10 9 -25 14 -35 10
-24 -9 -20 6 11 38 33 34 43 28 43 -24z m107 -6 c4 -8 -1 -20 -9 -26 -8 -6
-13 -17 -11 -23 3 -7 0 -13 -6 -13 -6 0 -11 5 -11 11 0 6 -7 9 -15 5 -18 -6
-19 1 -4 41 8 24 15 30 30 26 12 -3 23 -13 26 -21z m63 -22 c0 -16 -23 -60
-32 -60 -10 0 -10 1 3 39 10 29 29 43 29 21z m82 -43 c6 -30 -6 -65 -16 -49
-4 7 -19 12 -33 12 l-27 0 29 30 c35 36 41 37 47 7z m-844 -55 c2 -42 -1 -62
-8 -62 -7 0 -14 9 -17 21 -5 18 -11 20 -39 14 -19 -3 -34 -3 -34 0 0 14 75 95
85 92 5 -2 11 -31 13 -65z m78 24 c-3 -6 -10 -28 -17 -50 -12 -35 -33 -56 -45
-44 -2 3 5 30 17 61 15 39 25 54 36 50 7 -3 12 -11 9 -17z m855 -2 c9 -26 10
-26 24 -8 14 18 14 18 15 1 0 -23 -18 -57 -30 -57 -5 0 -13 12 -16 27 -7 25
-8 25 -20 8 -20 -27 -29 -11 -14 25 15 37 27 38 41 4z m-811 -8 c0 -24 -39
-106 -50 -106 -13 0 -13 11 4 51 7 19 16 42 19 52 8 20 27 23 27 3z m30 -56
c0 -18 3 -19 20 -8 34 21 34 0 0 -39 -41 -48 -59 -58 -73 -44 -7 7 -6 12 6 17
12 4 17 18 17 50 0 32 4 44 15 44 8 0 15 -9 15 -20z m93 14 c4 -4 3 -12 0 -18
-4 -6 -9 -19 -10 -29 -5 -33 -28 -66 -39 -59 -9 5 -6 22 10 59 21 52 27 59 39
47z m51 -54 c29 -10 32 -26 14 -65 -17 -37 -31 -31 -24 10 8 40 -10 49 -20 10
-3 -14 -12 -25 -20 -25 -17 0 -17 7 -3 49 12 34 16 36 53 21z m106 -40 c18 -9
18 -12 4 -48 -24 -56 -38 -68 -69 -54 -31 14 -34 36 -3 26 21 -6 21 -6 5 10
-20 21 -20 19 -5 51 12 26 36 32 68 15z m-300 -51 c0 -5 -4 -9 -10 -9 -5 0
-10 -7 -10 -15 0 -8 -4 -15 -9 -15 -5 0 -14 -13 -20 -30 -13 -39 -36 -41 -26
-2 4 15 8 34 8 42 1 33 67 62 67 29z m428 -1 c7 -7 12 -16 12 -20 0 -13 -28
-9 -33 5 -4 9 -8 8 -16 -3 -16 -22 -13 -30 9 -30 21 0 27 -15 10 -25 -17 -10
-47 4 -53 25 -11 41 42 77 71 48z m82 -29 c0 -5 5 -8 12 -6 6 1 14 -9 18 -23
6 -24 6 -24 17 -5 8 13 15 17 22 10 17 -16 -49 -94 -79 -94 -23 0 -24 1 -7 13
22 17 24 86 2 86 -9 0 -21 -11 -27 -25 -11 -25 -23 -32 -31 -17 -3 4 2 23 10
43 12 30 18 35 38 31 14 -2 25 -8 25 -13z m1100 -28 c41 -17 68 -30 60 -30
-19 -1 -122 37 -134 50 -15 14 -7 12 74 -20z m-1562 7 c17 -17 15 -53 -3 -68
-8 -7 -25 -10 -40 -6 -43 11 -30 86 15 86 9 0 21 -5 28 -12z m66 -24 c20 -8
21 -24 1 -24 -8 0 -17 -11 -21 -25 -3 -14 -12 -25 -20 -25 -17 0 -17 3 0 45
16 38 17 38 40 29z m523 0 c27 -8 35 -27 23 -59 -7 -19 -17 -25 -40 -25 -16 0
-30 -4 -30 -10 0 -5 -4 -10 -10 -10 -14 0 -12 18 6 67 18 46 18 46 51 37z m91
-27 c2 -9 -4 -24 -13 -33 -9 -10 -13 -24 -9 -36 5 -16 2 -19 -13 -16 -10 2
-17 10 -16 18 5 48 9 66 18 77 13 16 29 11 33 -10z m870 -7 c34 -13 60 -25 57
-28 -6 -6 -127 37 -140 51 -11 11 -12 11 83 -23z m-1391 -10 c4 -16 8 -18 20
-9 8 7 17 9 23 3 13 -13 -57 -94 -81 -94 -23 0 -25 15 -4 24 10 4 15 20 15 51
0 46 17 62 27 25z m593 -25 c15 -19 6 -61 -16 -69 -42 -16 -71 17 -52 59 13
28 48 34 68 10z m770 -11 c39 -15 68 -29 66 -32 -6 -6 -127 36 -140 49 -15 14
-2 11 74 -17z m-1246 -5 c27 -39 -8 -86 -50 -67 -28 13 -32 49 -8 72 21 22 40
20 58 -5z m50 -44 c-7 -40 10 -49 20 -10 4 14 13 25 21 25 18 0 18 -4 3 -47
-13 -35 -26 -40 -59 -23 -21 12 -24 27 -9 64 15 39 32 33 24 -9z m556 10 c10
-12 10 -21 0 -45 -14 -33 -17 -34 -54 -20 -28 10 -35 37 -12 46 8 3 12 12 9
20 -7 19 41 19 57 -1z m-434 -27 c3 -5 -3 -12 -14 -15 -11 -3 -23 -16 -26 -29
-6 -24 -20 -31 -30 -15 -3 5 1 25 9 44 11 28 19 34 35 30 11 -3 23 -10 26 -15z
m523 -3 c12 -11 12 -19 1 -44 -16 -40 -44 -44 -29 -4 6 16 6 30 1 35 -6 6 -14
-3 -20 -21 -10 -29 -22 -38 -34 -25 -3 3 1 23 10 45 13 33 19 38 36 33 12 -3
27 -12 35 -19z m-434 -5 c-4 -11 -2 -20 4 -20 6 0 15 -9 21 -21 18 -32 -13
-73 -48 -64 -15 3 -30 9 -33 13 -11 11 32 112 48 112 10 0 12 -6 8 -20z m547
-11 c-2 -8 -10 -33 -19 -57 -13 -36 -19 -41 -37 -36 -30 9 -46 24 -46 44 0 23
36 54 55 46 9 -3 18 1 22 10 7 18 29 12 25 -7z m108 -34 c0 -8 -4 -15 -10 -15
-5 0 -7 -7 -4 -15 4 -8 1 -15 -5 -15 -7 0 -17 -13 -22 -29 -6 -18 -16 -28 -23
-25 -17 6 2 83 24 101 21 17 40 16 40 -2z m-586 -40 c-8 -44 10 -47 25 -3 8
22 14 29 22 21 7 -7 6 -21 -5 -47 -17 -40 -15 -40 -50 -26 -28 10 -34 37 -16
71 17 32 32 22 24 -16z m623 21 c-3 -8 -11 -32 -18 -55 -7 -23 -18 -41 -26
-41 -17 0 -16 3 4 48 15 34 18 42 22 57 0 3 6 5 12 5 6 0 9 -6 6 -14z m-1369
-25 c22 -13 4 -61 -22 -61 -32 0 -35 7 -23 41 12 30 22 35 45 20z m882 -26 c0
-18 -11 -19 -30 -2 -8 6 -6 2 5 -11 17 -21 17 -24 3 -38 -23 -23 -62 -1 -54
29 3 12 6 27 6 34 0 15 30 22 53 11 9 -5 17 -15 17 -23z m53 29 c4 -4 3 -12 0
-18 -4 -6 -9 -18 -10 -27 -6 -41 -23 -68 -37 -63 -14 5 -14 10 0 42 9 21 18
45 21 55 6 18 15 22 26 11z m-893 -20 c0 -3 -5 -14 -10 -24 -7 -13 -7 -21 0
-25 6 -3 14 5 20 19 11 30 20 34 20 8 0 -29 -23 -54 -43 -46 -17 6 -22 30 -11
58 6 15 24 23 24 10z m1390 -9 c9 -11 9 -22 1 -48 -10 -29 -15 -33 -36 -29
-39 7 -51 29 -30 52 10 11 15 20 11 20 -4 0 -4 5 -1 10 9 15 41 12 55 -5z m73
-16 c3 -12 0 -22 -9 -26 -8 -3 -14 -18 -14 -35 0 -19 -4 -28 -12 -25 -12 4
-14 66 -3 95 7 19 32 14 38 -9z m-1384 -11 c10 3 8 -3 -5 -21 -26 -36 -34 -33
-34 11 1 31 3 34 13 21 7 -9 18 -14 26 -11z m885 -8 c12 -12 -5 -72 -22 -78
-10 -3 -12 5 -7 32 8 42 -11 51 -21 11 -3 -14 -12 -25 -20 -25 -17 0 -17 7 -3
49 10 28 15 32 38 26 14 -3 30 -10 35 -15z m-953 -226 c316 -119 577 -219 580
-223 10 -10 -122 -351 -136 -351 -18 0 -1127 419 -1152 436 -13 8 -23 23 -23
34 0 28 107 302 122 312 7 4 18 8 24 8 7 0 270 -97 585 -216z m1039 191 c15
-19 -7 -75 -30 -75 -22 0 -40 20 -40 45 0 41 45 60 70 30z m74 -21 c9 -3 16
-12 16 -20 0 -17 -12 -18 -28 -2 -7 7 -12 8 -12 4 0 -5 7 -14 17 -21 22 -17
10 -47 -18 -43 -31 4 -43 28 -30 61 10 27 25 33 55 21z m80 -30 c9 -3 16 -12
16 -20 0 -17 -12 -18 -28 -2 -7 7 -12 8 -12 4 0 -5 7 -14 17 -21 21 -15 11
-45 -15 -45 -21 0 -49 27 -39 37 4 3 14 0 24 -8 14 -12 14 -10 -2 14 -16 24
-16 30 -4 38 17 10 22 11 43 3z m-429 -99 c108 -41 200 -75 205 -75 6 0 10 -5
10 -11 0 -5 4 -7 10 -4 7 4 7 -2 0 -19 -8 -21 -6 -27 10 -36 15 -8 19 -17 14
-34 -3 -13 -1 -27 4 -30 5 -3 13 5 16 19 4 14 13 25 22 25 12 0 14 -7 9 -30
-4 -19 -3 -30 4 -30 6 0 11 -7 11 -15 0 -18 -2 -19 -46 0 -33 14 -79 10 -55
-4 8 -5 7 -12 -2 -24 -11 -16 -29 -12 -227 63 -118 44 -225 87 -237 96 -32 20
-38 57 -18 109 15 40 46 75 67 75 4 0 96 -34 203 -75z m-1409 -357 c10 -16 -2
-19 -30 -8 -15 5 -25 14 -22 19 7 11 44 3 52 -11z m166 -58 c-4 -33 -16 -44
-37 -32 -16 8 -15 11 6 26 13 9 18 16 11 16 -6 0 -12 5 -12 11 0 6 8 9 18 7
11 -3 16 -12 14 -28z m68 -44 c-9 -26 -11 -26 -27 -10 -16 16 -16 18 7 36 28
23 35 13 20 -26z m58 -3 c-2 -22 -9 -29 -28 -30 -14 -1 -20 0 -14 3 6 2 9 16
6 29 -3 20 0 25 17 25 18 0 22 -5 19 -27z m1072 7 c58 -58 -20 -142 -88 -94
-15 10 -22 25 -22 49 0 58 69 86 110 45z m-1000 -10 c13 -8 13 -10 -2 -10 -12
0 -15 -5 -11 -17 4 -11 3 -14 -5 -9 -7 4 -12 2 -12 -3 0 -6 5 -11 10 -11 6 0
10 -4 10 -9 0 -5 -9 -7 -20 -4 -22 6 -25 24 -10 54 12 21 18 23 40 9z m24 -40
c-8 -37 1 -38 20 -2 10 18 15 21 16 10 0 -29 -12 -48 -31 -48 -25 0 -34 23
-19 49 15 30 21 26 14 -9z m80 -3 c15 -11 16 -15 3 -41 -14 -26 -16 -26 -26
-9 -6 10 -11 13 -11 5 0 -7 -4 -11 -9 -8 -9 6 8 66 19 66 4 0 14 -6 24 -13z
m1029 1 c12 -7 29 -13 38 -15 37 -6 70 -24 66 -36 -2 -6 -11 -11 -19 -10 -8 2
-19 -11 -27 -33 -7 -19 -18 -33 -24 -31 -12 4 -12 12 -1 61 5 22 4 28 -7 24
-7 -2 -16 -15 -19 -29 -5 -20 -12 -24 -43 -23 -21 1 -40 3 -42 6 -3 3 2 26 11
51 17 49 29 56 67 35z m-1582 -48 c5 0 9 -9 9 -19 0 -17 -3 -18 -31 -8 -22 9
-26 13 -14 16 15 2 15 5 4 13 -11 8 -10 9 4 4 10 -3 23 -6 28 -6z m1740 -10
c22 -12 26 -50 5 -50 -8 0 -17 8 -20 17 -6 15 -8 15 -16 3 -16 -25 -12 -42 9
-35 23 7 39 -14 20 -26 -59 -37 -102 46 -46 86 25 18 23 18 48 5z m-1561 -54
c0 -29 -21 -48 -39 -37 -21 13 -5 61 19 61 14 0 20 -7 20 -24z m103 -26 c13 0
14 -5 6 -30 -6 -16 -15 -30 -20 -30 -5 0 -4 11 1 24 6 18 5 26 -5 29 -7 3 -15
-3 -18 -14 -3 -11 -14 -19 -27 -19 -19 0 -21 4 -15 27 9 36 25 46 46 27 8 -7
23 -14 32 -14z m90 -28 c11 -17 -6 -62 -24 -62 -25 0 -31 14 -19 44 9 25 33
35 43 18z m1597 -29 c27 7 26 -9 -2 -24 -18 -10 -24 -8 -35 7 -7 10 -13 25
-13 33 1 13 3 13 15 -3 9 -12 22 -17 35 -13z m-1527 2 c43 -18 57 -36 25 -32
-15 1 -23 -3 -23 -13 0 -9 7 -14 20 -12 16 3 17 1 8 -8 -6 -7 -19 -10 -29 -6
-12 5 -15 14 -10 36 3 17 1 30 -4 30 -6 0 -10 -4 -10 -8 0 -5 -6 -17 -14 -28
-14 -18 -15 -16 -13 18 2 43 2 43 50 23z m-528 -65 c8 0 11 -7 8 -20 -4 -15
-9 -18 -18 -10 -6 5 -14 7 -17 5 -3 -3 -3 7 0 22 3 15 7 22 9 16 3 -7 11 -13
18 -13z m1245 -5 c14 -19 14 -19 -2 -6 -10 7 -18 18 -18 24 0 6 1 8 3 6 1 -2
9 -13 17 -24z m0 -28 c11 -5 9 -6 -4 -4 -11 1 -21 9 -23 17 -3 10 -2 11 4 4 4
-6 15 -14 23 -17z m61 6 c0 -11 3 -13 6 -5 2 6 9 12 14 12 5 0 4 -9 -3 -20
-12 -19 -13 -19 -24 2 -11 20 -12 20 -22 2 -9 -15 -11 -16 -12 -3 0 31 39 43
41 12z m-1077 -39 c20 -8 21 -30 1 -38 -9 -3 -12 -12 -8 -22 5 -14 3 -15 -17
-4 l-23 12 24 19 c20 16 21 19 6 19 -10 0 -15 5 -12 10 7 12 8 12 29 4z m-54
-14 c8 -5 11 -12 8 -15 -4 -4 -17 0 -30 9 -24 17 -5 23 22 6z m1298 -8 c2 -7
-1 -12 -8 -12 -6 0 -8 5 -4 12 5 7 3 8 -5 4 -7 -5 -10 -15 -6 -25 5 -12 3 -13
-6 -4 -14 14 -4 46 13 41 6 -2 14 -10 16 -16z m-1191 -24 c-2 -41 -37 -54 -37
-14 0 19 18 42 37 46 1 0 1 -15 0 -32z m1229 -5 c-18 -33 -21 -26 -6 13 6 15
13 24 16 21 3 -3 -1 -18 -10 -34z m-1171 6 c9 -13 -23 -49 -44 -49 -11 0 -9 4
7 16 18 13 21 19 11 30 -9 11 -8 14 4 14 9 0 19 -5 22 -11z m133 -240 c288
-109 526 -200 528 -202 5 -4 -121 -346 -130 -354 -7 -7 -1151 428 -1168 444
-24 21 -23 30 11 115 15 40 41 106 56 146 33 90 48 98 125 69 30 -11 291 -109
578 -218z m1092 231 c3 -1 11 -3 19 -4 17 -1 28 -26 11 -26 -6 0 -8 5 -4 12 5
7 3 8 -5 4 -7 -5 -10 -15 -7 -25 3 -9 -2 -6 -10 7 -9 12 -23 22 -30 22 -8 0
-14 4 -14 9 0 8 21 8 40 1z m-1178 -35 c-6 -34 -20 -41 -37 -19 -12 17 -11 21
8 36 27 21 36 16 29 -17z m42 -7 c-14 -47 -23 -54 -22 -15 1 24 6 37 15 37 10
0 12 -7 7 -22z m80 -37 c-4 -14 -9 -29 -11 -33 -5 -9 -33 2 -33 13 0 4 7 6 15
3 8 -4 15 -2 15 4 0 6 -5 12 -12 14 -6 2 -9 12 -5 21 11 28 38 9 31 -22z m49
2 c-5 -2 -8 -15 -5 -28 3 -20 0 -25 -17 -25 -11 0 -21 4 -21 10 0 5 7 7 15 4
8 -4 15 -2 15 4 0 6 -5 12 -12 14 -6 2 -9 12 -5 21 4 11 12 14 24 10 9 -4 12
-8 6 -10z m637 -6 c0 -8 -4 -7 -12 1 -9 9 -15 9 -27 -1 -14 -10 -14 -10 -3 5
14 17 42 14 42 -5z m-595 -29 c-12 -38 -25 -44 -22 -10 1 19 8 32 15 32 9 0
11 -7 7 -22z m52 -20 c-2 -41 -37 -54 -37 -14 0 19 18 42 37 46 1 0 1 -15 0
-32z m583 15 c0 -15 2 -16 10 -3 8 13 11 13 22 1 8 -9 9 -12 1 -7 -6 3 -16 -2
-22 -11 -6 -11 -11 -13 -11 -5 0 7 -4 10 -10 7 -6 -3 -7 1 -4 9 3 9 1 16 -4
16 -6 0 -13 -8 -15 -17 -4 -14 -5 -12 -6 5 -1 16 5 22 19 22 12 0 20 -7 20
-17z m-491 -22 c9 -6 11 -18 7 -35 -8 -31 8 -35 24 -7 18 35 80 10 65 -26 -5
-10 -7 -21 -7 -25 1 -5 -2 -8 -8 -8 -5 0 -10 7 -10 16 0 14 -3 14 -15 4 -11
-9 -15 -9 -15 -1 0 7 -4 10 -9 7 -21 -13 -43 7 -39 35 4 24 1 29 -16 29 -17 0
-18 -2 -6 -10 12 -8 12 -10 -5 -10 -20 -1 -20 -1 -1 -15 20 -15 10 -20 -17 -9
-12 4 -13 11 -5 35 10 29 31 36 57 20z m609 -19 c2 -7 -10 -11 -32 -10 -20 1
-36 5 -36 10 0 5 4 7 9 3 5 -3 12 -1 15 4 8 12 39 7 44 -7z m30 -16 c-7 -8
-15 -12 -17 -11 -5 6 10 25 20 25 5 0 4 -6 -3 -14z m23 -22 c-5 -16 -10 -21
-10 -12 -1 18 10 51 15 45 2 -1 -1 -16 -5 -33z m35 7 c-4 -5 -3 -11 1 -14 5
-2 2 -2 -4 -1 -7 2 -13 -1 -13 -5 0 -5 6 -12 13 -14 9 -4 9 -6 0 -6 -6 -1 -15
4 -18 9 -9 14 1 40 15 40 6 0 9 -4 6 -9z m64 -19 c0 -5 -6 -16 -13 -26 -12
-17 -14 -17 -28 1 -13 16 -12 17 2 5 14 -10 18 -10 22 2 4 9 -1 17 -11 19 -12
3 -11 5 6 6 12 0 22 -3 22 -7z m59 -29 c6 -10 11 -13 11 -6 0 17 60 -8 60 -25
0 -11 3 -12 14 -3 10 8 16 9 21 1 4 -6 1 -9 -7 -8 -7 2 -12 -5 -12 -15 2 -13
-1 -15 -10 -7 -7 5 -15 7 -19 4 -3 -3 -3 3 0 15 5 20 -10 30 -20 14 -2 -5 -2
-2 -1 5 2 6 -3 12 -11 12 -8 0 -15 -5 -15 -10 0 -6 -6 -5 -14 2 -8 7 -12 16
-10 20 2 3 -2 9 -8 11 -10 4 -10 6 -1 6 7 1 17 -7 22 -16z m-482 -47 c-3 -8
-1 -17 6 -20 7 -2 4 -5 -5 -5 -10 -1 -18 1 -18 3 0 10 13 36 17 36 3 0 3 -6 0
-14z m632 -28 c6 11 10 10 15 -4 3 -9 4 -19 1 -22 -3 -3 -5 -1 -5 5 0 6 -7 10
-16 9 -9 0 -19 6 -21 14 -4 13 -3 13 6 0 9 -12 13 -13 20 -2z m50 -10 c0 -16
-2 -18 -6 -8 -3 8 -11 18 -17 22 -7 5 -4 8 7 8 11 0 17 -7 16 -22z m31 12 c0
-5 -5 -10 -11 -10 -5 0 -7 5 -4 10 3 6 8 10 11 10 2 0 4 -4 4 -10z m-660 -15
c-5 -6 -5 -17 -1 -24 6 -9 10 -7 14 8 6 24 25 28 33 7 3 -8 13 -12 25 -9 11 3
19 0 19 -7 0 -7 7 -10 15 -7 8 4 17 1 21 -6 4 -7 4 -9 -1 -5 -4 4 -14 3 -21
-3 -11 -9 -15 -7 -20 6 -7 17 -8 17 -21 -1 -7 -10 -13 -13 -13 -7 0 6 -9 9
-21 6 -12 -4 -27 2 -38 13 -20 22 -18 41 4 41 10 0 12 -4 5 -12z m-49 -13 c-7
-2 -18 1 -23 6 -8 8 -4 9 13 5 13 -4 18 -8 10 -11z m199 -59 c-11 -17 -11 -17
-6 0 3 10 6 24 7 30 0 9 2 9 5 0 3 -7 0 -20 -6 -30z m50 2 c0 -8 -5 -15 -11
-15 -5 0 -7 6 -3 13 5 9 3 9 -7 -1 -12 -11 -12 -14 1 -22 9 -6 10 -10 3 -10
-17 0 -24 15 -17 34 8 20 34 21 34 1z m49 -25 c-6 -16 -13 -30 -15 -30 -8 0 1
45 11 52 15 11 15 11 4 -22z m82 -23 c-1 -4 -1 -14 -1 -22 0 -8 -5 -15 -10
-15 -7 0 -7 6 0 19 7 13 7 21 0 24 -6 3 -6 5 0 4 7 -2 11 -6 11 -10z m-796
-365 c1110 -419 1005 -362 948 -515 -37 -100 -63 -131 -103 -124 -47 8 -1914
718 -1933 735 -26 23 -19 75 22 173 32 78 55 100 96 93 11 -2 448 -165 970
-362z m775 354 c0 -3 -4 -8 -10 -11 -5 -3 -10 -1 -10 4 0 6 5 11 10 11 6 0 10
-2 10 -4z m97 -20 c4 -4 4 -7 -2 -6 -22 5 -36 -1 -29 -12 4 -7 3 -8 -4 -4 -6
4 -9 13 -6 20 6 15 28 16 41 2z m-267 -202 c42 -17 50 -37 30 -74 -7 -13 -7
-21 0 -25 6 -4 17 10 25 29 17 40 22 42 69 22 45 -19 49 -28 34 -75 -14 -44
-38 -55 -38 -18 -1 20 -2 20 -13 5 -17 -22 -40 -8 -30 18 7 18 6 18 -11 2 -22
-23 -32 -22 -54 0 -10 10 -24 16 -31 14 -6 -2 -25 1 -41 8 -28 12 -28 12 -14
51 15 43 23 59 29 59 3 0 23 -7 45 -16z m-1664 -200 c9 3 14 -1 14 -12 0 -14
2 -15 10 -2 5 8 12 12 15 8 9 -9 -25 -59 -36 -52 -5 3 -6 10 -3 16 4 6 -1 8
-16 3 -20 -6 -22 -5 -17 16 4 13 7 31 8 39 1 10 3 9 6 -3 3 -11 11 -16 19 -13z
m2017 12 c4 -9 14 -12 26 -9 29 7 26 -11 -3 -25 -20 -9 -25 -7 -35 14 -13 30
-14 34 -2 34 5 0 11 -6 14 -14z m-1942 -46 c5 0 9 -8 9 -17 1 -15 3 -15 13 3
11 19 13 20 28 5 13 -14 14 -20 2 -41 l-13 -25 0 30 -1 30 -14 -25 c-8 -14
-14 -19 -15 -12 0 7 -5 10 -12 6 -8 -5 -9 0 -6 14 7 26 -7 30 -16 6 -4 -9 -9
-14 -13 -11 -3 4 0 21 8 39 10 24 15 28 17 16 2 -10 8 -18 13 -18z m107 -53
c4 -21 -25 -34 -40 -19 -8 8 -8 16 2 27 16 19 34 15 38 -8z m60 -22 c-6 -19
-15 -32 -19 -30 -8 6 12 65 22 65 4 0 2 -16 -3 -35z m-28 5 c0 -5 -2 -10 -4
-10 -3 0 -8 5 -11 10 -3 6 -1 10 4 10 6 0 11 -4 11 -10z m68 -23 c2 -10 -4
-20 -13 -23 -21 -9 -28 0 -20 26 8 24 28 22 33 -3z m50 -24 c-4 -20 -18 -26
-36 -14 -10 6 -11 13 -1 34 10 22 14 24 26 11 8 -8 13 -22 11 -31z m68 -30
c-18 -33 -21 -17 -5 24 6 15 13 23 16 16 2 -6 -3 -24 -11 -40z m-336 23 c0 -8
-5 -18 -11 -21 -6 -4 -8 -13 -5 -21 6 -16 -3 -18 -24 -4 -13 8 -12 11 5 24 17
14 18 17 5 26 -12 8 -11 10 8 10 12 0 22 -6 22 -14z m314 5 c7 -10 -3 -41 -13
-41 -17 1 -31 18 -25 33 7 18 29 23 38 8z m-264 -25 c0 -28 -12 -46 -31 -46
-19 0 -24 16 -13 44 8 20 44 21 44 2z m357 -16 c4 -16 8 -18 20 -9 18 15 36
-1 27 -24 -7 -19 -29 -23 -39 -7 -5 8 -11 7 -20 0 -19 -16 -35 -4 -30 20 8 43
33 55 42 20z m-307 -4 c0 -25 -12 -46 -25 -46 -19 0 -27 17 -20 40 7 23 45 28
45 6z m384 -28 c-8 -27 -12 -33 -19 -27 -7 8 7 49 17 49 5 0 6 -10 2 -22z
m-324 -8 c0 -5 -3 -9 -7 -9 -20 3 -27 -2 -13 -11 8 -5 11 -12 7 -16 -11 -12
-30 13 -24 30 7 17 37 22 37 6z m375 0 c4 -6 11 -8 16 -5 5 4 9 1 9 -5 0 -6 5
-8 10 -5 6 3 10 1 10 -5 0 -6 5 -8 10 -5 13 8 13 -6 -1 -25 -7 -11 -12 -12
-15 -3 -3 7 -12 9 -20 6 -9 -3 -14 2 -15 13 0 11 -3 14 -6 7 -6 -16 -29 -17
-38 -3 -10 16 2 40 19 40 8 0 18 -5 21 -10z m-305 -51 c-9 -16 -14 -18 -20 -9
-4 7 -12 10 -18 6 -13 -8 -36 20 -27 34 12 20 45 11 46 -12 0 -20 2 -19 12 7
8 21 12 25 15 13 2 -9 -2 -27 -8 -39z m48 -7 c2 -12 8 -22 13 -22 5 0 8 6 7
13 -2 6 4 12 12 12 13 0 16 -32 4 -44 -9 -10 -52 22 -47 35 3 8 0 14 -6 14 -6
0 -11 -7 -11 -16 0 -8 -5 -12 -10 -9 -14 8 8 47 23 42 7 -2 13 -13 15 -25z
m362 17 c0 -6 7 -9 15 -5 9 3 15 0 15 -10 0 -10 5 -12 13 -8 7 5 6 -2 -4 -16
-17 -26 -49 -44 -33 -19 12 20 14 39 3 39 -5 0 -9 -4 -9 -10 0 -12 -27 -13
-34 -1 -9 14 4 41 20 41 8 0 14 -5 14 -11z m-260 -45 c0 5 6 3 13 -3 8 -6 17
-7 22 -3 4 4 2 -3 -4 -15 -12 -24 -31 -31 -31 -12 0 5 -4 7 -10 4 -6 -4 -10 6
-10 22 0 22 2 25 10 13 5 -8 10 -11 10 -6z m410 -34 c-17 -32 -22 -19 -7 19 7
20 13 27 15 18 2 -9 -2 -26 -8 -37z m-345 30 c-3 -5 1 -10 10 -10 12 0 14 -7
10 -27 l-6 -28 17 29 c12 22 18 26 25 15 11 -18 11 -59 0 -59 -5 0 -7 10 -4
23 4 21 4 21 -11 3 -21 -25 -50 -14 -41 16 6 21 5 22 -8 6 -22 -28 -29 -21
-12 12 9 17 18 30 21 30 3 0 2 -4 -1 -10z m323 -12 c-3 -24 -29 -31 -35 -10
-3 6 3 12 14 12 15 0 16 2 3 10 -13 8 -12 10 3 10 13 0 18 -6 15 -22z m49 -18
c-6 -16 -13 -27 -15 -25 -7 7 8 55 17 55 5 0 4 -13 -2 -30z m-1087 -40 l5 -45
24 33 c14 17 30 32 37 32 29 0 22 -22 -24 -71 -67 -72 -84 -65 -80 31 2 56 6
70 18 68 10 -2 17 -19 20 -48z m1136 11 c-4 -6 -16 -11 -27 -11 -21 0 -27 35
-6 43 16 6 41 -18 33 -32z m34 1 c0 4 11 3 25 -2 18 -7 25 -6 25 2 0 6 2 9 5
6 8 -8 -5 -58 -15 -58 -5 0 -6 10 -3 23 4 22 4 22 -12 2 -12 -16 -18 -17 -24
-7 -5 8 -11 13 -15 13 -3 -1 -6 1 -6 4 0 40 0 40 10 25 5 -8 10 -12 10 -8z
m-290 -32 c0 -11 -5 -22 -11 -26 -8 -4 -9 1 -5 17 6 22 6 23 -7 7 -19 -24 -26
-23 -20 5 4 21 4 22 -11 3 -16 -20 -21 -11 -10 17 8 22 64 2 64 -23z m-747 14
c11 -12 -57 -124 -75 -124 -25 0 -23 10 14 74 30 52 46 65 61 50z m1137 -16
c0 -6 7 -8 15 -4 31 11 44 -3 33 -35 -11 -33 -45 -37 -40 -5 3 14 -1 17 -13
12 -13 -5 -15 -1 -10 17 6 21 6 21 -9 3 -16 -20 -21 -11 -10 18 6 16 34 11 34
-6z m-367 -8 c-3 -11 0 -20 6 -20 6 0 11 8 11 17 0 9 3 14 6 10 3 -3 3 -15 -1
-26 -5 -17 -10 -19 -26 -11 -15 9 -17 15 -9 30 14 26 20 25 13 0z m51 -14 c-3
-14 -10 -26 -15 -26 -4 0 -3 14 3 31 12 36 22 33 12 -5z m-725 1 c15 -19 3
-28 -25 -21 -28 7 -31 -10 -9 -40 20 -27 3 -56 -35 -56 -41 0 -60 10 -60 31 0
20 15 26 25 9 3 -5 13 -10 22 -10 11 0 13 5 8 18 -16 37 -17 64 -4 73 21 13
65 11 78 -4z m761 7 c0 -3 -5 -14 -10 -25 -6 -11 -7 -19 -1 -19 5 0 12 12 15
26 4 15 10 24 13 21 13 -14 -8 -57 -28 -57 -16 0 -19 5 -15 28 2 15 5 28 5 30
2 5 21 2 21 -4z m385 -21 c-4 -10 -8 -24 -8 -31 0 -7 -4 -9 -8 -5 -11 11 0 53
13 53 6 0 7 -8 3 -17z m-325 -27 c0 -17 -7 -25 -25 -28 -29 -6 -28 -7 -15 26
12 33 40 34 40 2z m29 -12 c-6 -16 -13 -24 -16 -17 -5 13 16 58 23 50 3 -2 -1
-17 -7 -33z m339 13 c4 -22 -27 -35 -38 -16 -10 15 7 42 24 36 6 -2 12 -11 14
-20z m-1102 -54 c-4 -38 -11 -72 -15 -76 -5 -5 -18 1 -29 13 -13 14 -28 21
-40 18 -11 -3 -26 -2 -33 3 -11 6 -2 20 36 59 27 27 58 50 69 50 17 0 18 -5
12 -67z m810 35 c4 -6 2 -14 -4 -16 -7 -2 -10 -8 -6 -13 3 -5 -2 -9 -10 -9
-19 0 -28 14 -20 34 7 19 30 21 40 4z m364 0 c0 -7 -5 -20 -10 -28 -12 -19
-35 2 -27 24 7 19 37 21 37 4z m-300 -48 c-6 -11 -16 -17 -25 -14 -8 4 -15 1
-15 -7 0 -7 -3 -9 -6 -6 -4 4 -1 20 6 36 10 26 15 29 31 20 15 -8 17 -14 9
-29z m343 29 c-6 -6 -9 -17 -6 -24 3 -9 -2 -12 -16 -8 -17 4 -18 8 -8 24 6 10
18 19 26 19 11 0 12 -3 4 -11z m45 -17 c2 -7 -2 -10 -12 -6 -9 3 -16 2 -16 -4
0 -6 6 -13 13 -15 7 -3 5 -6 -5 -6 -18 -1 -25 28 -11 43 9 9 26 2 31 -12z m42
-39 c-10 -16 -11 -15 -7 5 6 25 -8 30 -17 6 -4 -9 -9 -15 -12 -12 -2 3 0 18 6
33 l11 28 15 -21 c12 -17 12 -26 4 -39z m-370 27 c15 -11 31 -16 36 -12 4 4 1
-4 -7 -17 -22 -35 -37 -37 -33 -4 2 15 1 22 -2 16 -7 -15 -44 -18 -44 -4 0 14
11 41 17 41 3 0 17 -9 33 -20z m110 -46 c0 -7 10 -9 25 -6 25 4 30 -3 19 -32
-5 -13 -10 -14 -27 -4 -12 7 -26 11 -30 10 -5 -1 -6 8 -2 20 6 21 5 22 -8 6
-19 -24 -26 -23 -20 5 4 21 4 22 -11 3 -16 -20 -21 -11 -10 17 4 12 11 13 35
4 16 -6 29 -17 29 -23z m310 11 c0 -26 -7 -30 -28 -17 -16 10 -5 42 14 42 8 0
14 -10 14 -25z m50 -21 c0 -13 -4 -24 -9 -24 -5 0 -7 10 -4 23 4 21 4 22 -11
3 -16 -20 -21 -11 -10 18 8 22 34 8 34 -20z m-1016 -5 c36 -28 37 -89 1 -124
-28 -29 -54 -31 -97 -9 l-30 16 23 24 c12 13 21 25 18 27 -16 11 -85 40 -91
39 -5 -1 -8 3 -8 9 0 5 -4 8 -9 4 -5 -3 -13 0 -17 6 -5 9 1 10 22 5 16 -4 31
-11 34 -14 3 -4 14 -8 25 -9 11 -1 29 -3 40 -5 16 -2 19 2 17 25 -2 23 1 27
21 27 13 0 36 -9 51 -21z m1059 15 c22 -8 1 -66 -22 -62 -15 3 -17 22 -6 56 5
14 7 14 28 6z m-315 -22 c9 -6 10 -15 3 -33 -10 -24 -10 -24 -11 6 l-1 30 -14
-25 c-14 -25 -20 -16 -9 14 7 18 13 19 32 8z m367 -18 c0 -10 -8 -20 -17 -22
-18 -3 -26 27 -11 42 12 11 28 0 28 -20z m-329 0 c-3 -9 -6 -22 -6 -30 0 -9
-4 -13 -9 -10 -11 7 -2 56 11 56 6 0 7 -7 4 -16z m399 -29 c0 -28 -29 -25 -33
3 -3 19 0 23 15 20 10 -2 18 -12 18 -23z m-335 -4 c0 -22 -15 -35 -29 -27 -13
9 -1 46 15 46 8 0 14 -9 14 -19z m376 0 c11 9 14 9 14 -1 0 -7 7 -10 15 -6 9
3 18 -1 21 -8 3 -8 14 -12 26 -8 18 4 19 3 7 -17 -8 -11 -17 -21 -22 -21 -4 0
-6 4 -3 9 3 5 -1 12 -10 15 -8 3 -12 2 -9 -4 3 -6 -1 -10 -9 -10 -10 0 -16 9
-16 22 0 17 -3 19 -12 10 -19 -19 -28 -14 -27 16 1 17 3 21 6 9 4 -14 8 -16
19 -6z m-329 -17 c8 -21 -13 -42 -28 -27 -13 13 -5 43 11 43 6 0 13 -7 17 -16z
m27 -18 c-3 -14 -10 -26 -15 -26 -4 0 -3 14 3 31 12 36 22 33 12 -5z m-663 4
c23 -13 26 -40 4 -40 -8 0 -15 5 -15 10 0 6 -8 10 -17 10 -14 0 -11 -6 12 -24
25 -21 28 -28 19 -43 -8 -12 -22 -17 -40 -16 -34 3 -60 31 -43 47 7 8 14 6 24
-8 8 -10 19 -15 26 -11 8 6 3 12 -15 22 -27 14 -30 21 -20 47 7 18 36 21 65 6z
m686 -10 c-6 -24 8 -27 17 -4 4 9 9 14 12 11 11 -11 -16 -46 -31 -41 -15 6
-20 35 -8 47 12 12 15 7 10 -13z m54 -13 c-14 -14 -14 -27 -1 -27 6 0 10 6 10
14 0 8 5 18 10 21 14 9 12 -18 -2 -38 -19 -25 -41 -7 -33 26 4 15 12 24 17 21
6 -4 6 -10 -1 -17z m69 -38 c0 -12 -7 -19 -20 -19 -22 0 -29 35 -7 43 18 6 27
-2 27 -24z m-696 12 c3 -5 17 -8 31 -8 40 0 77 -30 70 -56 -6 -22 -6 -22 12 1
31 38 53 20 53 -43 0 -61 -9 -73 -33 -44 -13 14 -24 18 -43 13 -23 -6 -25 -4
-20 14 5 16 2 21 -16 24 -13 2 -31 -1 -42 -7 -14 -7 -20 -7 -23 3 -3 6 -15 12
-28 12 -28 0 -44 18 -49 58 -3 33 4 39 56 41 15 0 29 -3 32 -8z m746 -26 c0
-14 -4 -25 -9 -25 -5 0 -7 10 -4 23 4 21 4 22 -11 3 -13 -16 -16 -16 -16 -5 0
19 9 29 27 29 7 0 13 -11 13 -25z m-1957 -9 c-1 -12 4 -15 14 -12 11 5 13 2 9
-11 -4 -9 -1 -20 6 -25 9 -5 10 -8 1 -8 -6 0 -15 5 -18 10 -3 6 -15 10 -26 10
-25 0 -35 25 -19 45 16 19 36 14 33 -9z m1998 1 c-1 -4 -1 -14 -1 -23 0 -9 -6
-14 -12 -11 -13 4 -18 25 -10 40 5 10 24 5 23 -6z m-1912 -44 c7 -12 10 -14
11 -4 0 11 3 11 15 1 8 -6 23 -9 35 -5 19 6 19 4 9 -19 -14 -31 -39 -34 -39
-6 0 11 -4 20 -10 20 -5 0 -10 -4 -10 -8 0 -5 -7 -9 -15 -9 -8 0 -15 4 -15 9
0 5 -4 6 -10 3 -5 -3 -10 -1 -10 4 0 6 5 11 11 11 5 0 7 5 4 10 -3 6 -2 10 4
10 5 0 15 -8 20 -17z m106 -33 c11 -18 -9 -40 -25 -29 -11 8 -12 12 -2 16 6 2
10 9 6 14 -3 5 -1 9 5 9 5 0 13 -4 16 -10z m60 -40 c3 0 3 5 0 10 -3 6 -1 10
5 10 6 0 15 -10 20 -22 5 -13 9 -17 9 -10 1 6 8 12 16 12 9 0 15 -9 14 -22 -1
-18 -2 -19 -6 -5 -4 14 -8 16 -18 7 -15 -13 -55 -4 -55 11 0 6 -4 7 -10 4 -6
-3 -7 1 -4 9 3 9 1 16 -5 16 -6 0 -11 -5 -11 -12 0 -6 -2 -9 -5 -6 -3 3 -2 13
1 23 7 17 9 17 25 -3 9 -12 20 -22 24 -22z m-281 -2 c4 3 4 -1 0 -11 -3 -10
-1 -17 5 -17 6 0 11 5 11 12 0 6 3 9 6 5 3 -3 2 -13 -3 -22 -9 -15 -12 -15
-24 -3 -8 8 -19 13 -26 11 -16 -6 -25 14 -17 39 l7 22 17 -22 c10 -11 21 -18
24 -14z m69 -22 c14 2 17 -2 12 -19 -5 -19 -5 -20 5 -4 6 9 15 15 21 12 5 -4
2 -13 -7 -23 -15 -15 -18 -14 -31 4 -13 18 -15 18 -24 2 -6 -10 -15 -18 -21
-18 -9 0 -9 3 0 12 7 7 12 21 12 33 0 12 3 15 8 9 4 -6 15 -10 25 -8z m370
-19 c7 4 5 -4 -4 -17 -9 -13 -21 -25 -28 -26 -6 -1 -7 0 -1 3 5 2 10 17 11 31
0 15 3 21 6 14 2 -6 10 -9 16 -5z m1173 -7 c0 -20 -7 -25 -19 -14 -7 7 2 34
12 34 4 0 7 -9 7 -20z m70 -28 c18 -6 36 -6 40 -2 12 11 67 -37 59 -51 -4 -6
-13 -8 -21 -5 -8 3 -13 2 -13 -2 3 -20 -2 -32 -14 -32 -19 0 -67 24 -67 33 0
5 -5 5 -11 1 -7 -4 -10 -1 -7 7 2 7 15 16 29 19 22 6 22 7 -13 19 -34 11 -53
32 -41 45 3 3 11 0 17 -8 6 -7 25 -18 42 -24z m-1520 16 c5 -8 2 -9 -9 -5 -10
3 -17 2 -17 -2 0 -5 6 -11 13 -14 9 -3 9 -7 0 -17 -17 -18 -31 -4 -25 25 5 26
26 33 38 13z m319 2 c4 -6 11 -7 17 -4 6 4 8 -1 3 -15 -4 -12 -2 -21 4 -21 6
0 11 8 12 18 0 9 3 12 5 5 3 -7 12 -9 21 -6 13 5 13 3 2 -16 -8 -12 -15 -17
-17 -12 -2 6 -10 7 -18 4 -7 -3 -16 2 -20 10 -3 9 -13 13 -25 10 -12 -4 -19 0
-19 9 0 26 23 38 35 18z m-265 -35 c0 -26 -14 -33 -26 -13 -4 6 -2 14 4 16 7
2 10 8 6 13 -3 5 0 9 5 9 6 0 11 -11 11 -25z m-265 5 c4 -6 -1 -7 -11 -3 -15
6 -15 4 1 -20 19 -30 27 -35 19 -12 -4 9 0 15 10 15 9 0 16 -8 16 -20 0 -21
-24 -28 -35 -10 -4 6 -11 7 -17 4 -7 -5 -9 -1 -5 9 3 9 2 19 -3 22 -6 4 -10
10 -10 16 0 12 27 12 35 -1z m315 -10 c0 -6 11 -8 24 -6 22 4 24 2 17 -17 -12
-31 -29 -32 -41 -3 -10 26 -30 36 -30 14 0 -6 -3 -9 -6 -5 -9 9 5 27 22 27 8
0 14 -5 14 -10z m329 3 c0 -5 -4 -17 -9 -28 -8 -18 -9 -17 -9 8 -1 15 4 27 9
27 6 0 10 -3 9 -7z m36 -23 c3 -5 12 -7 20 -4 18 7 32 -23 17 -38 -8 -8 -9 -4
-5 12 4 16 3 21 -5 16 -7 -4 -12 -14 -12 -22 0 -8 -4 -14 -10 -14 -5 0 -7 6
-4 14 4 11 0 13 -15 9 -16 -4 -21 -1 -21 16 0 21 24 29 35 11z m-615 -32 c0
-5 -4 -8 -10 -8 -5 0 -10 10 -10 23 0 18 2 19 10 7 5 -8 10 -18 10 -22z m41
-1 c-1 -4 -1 -12 -1 -18 0 -18 -23 -4 -31 19 -7 18 -5 20 12 13 11 -4 20 -10
20 -14z m293 7 c-10 -8 -13 -13 -6 -9 6 3 12 1 12 -4 0 -6 -7 -11 -15 -11 -17
0 -18 2 -9 24 3 9 13 16 22 16 13 0 12 -3 -4 -16z m54 -6 c9 -9 12 -9 12 3 0
12 2 12 10 -1 8 -12 10 -12 10 -1 0 8 2 12 5 9 3 -3 1 -18 -5 -34 -11 -28 -12
-28 -25 -10 -8 11 -21 16 -30 13 -15 -6 -21 13 -8 26 9 10 17 9 31 -5z m328 0
c4 -6 3 -8 -4 -4 -6 3 -14 1 -18 -5 -3 -6 0 -15 7 -20 9 -6 10 -9 2 -9 -19 0
-26 20 -13 35 15 18 17 18 26 3z m29 2 c-3 -5 -1 -10 4 -10 6 0 11 -6 11 -14
0 -9 7 -12 20 -9 15 4 20 0 20 -13 0 -16 2 -17 10 -4 8 12 10 12 11 -5 0 -11
3 -14 6 -7 6 15 33 16 33 2 0 -6 7 -10 16 -8 10 2 19 -3 21 -9 3 -7 0 -13 -7
-13 -6 0 -8 -4 -5 -10 3 -5 0 -7 -8 -4 -8 3 -17 15 -20 26 -4 12 -10 17 -17
13 -9 -6 -9 -10 1 -16 10 -6 10 -9 2 -9 -6 0 -15 5 -18 10 -4 6 -11 8 -16 5
-5 -4 -9 -2 -9 4 0 6 -7 8 -15 5 -9 -4 -19 4 -27 21 -11 25 -13 25 -25 9 -8
-11 -13 -13 -13 -5 0 15 18 51 26 51 3 0 2 -4 -1 -10z m-656 -7 c0 -5 -4 -17
-9 -28 -8 -18 -9 -17 -9 8 -1 15 4 27 9 27 6 0 10 -3 9 -7z m1975 -2 c4 -5 -3
-7 -14 -4 -23 6 -26 13 -6 13 8 0 17 -4 20 -9z m-1936 -17 c37 -3 42 -5 42
-18 0 -9 7 -12 20 -9 21 6 29 -20 10 -32 -12 -7 -40 18 -40 37 -1 8 -7 6 -17
-7 -13 -16 -15 -17 -10 -2 4 9 2 17 -3 17 -6 0 -10 -6 -11 -12 0 -7 -4 -4 -9
7 -11 26 -12 44 -2 30 4 -5 13 -10 20 -11z m322 -7 c0 19 30 3 30 -16 0 -13 2
-13 9 -2 6 9 14 10 24 5 20 -12 4 -54 -20 -54 -17 1 -17 1 0 11 9 5 17 17 17
25 0 8 -5 12 -10 9 -6 -4 -8 -11 -5 -16 3 -5 -1 -6 -9 -3 -9 3 -16 13 -16 21
0 13 -3 13 -15 3 -8 -7 -15 -10 -15 -7 0 3 -3 14 -6 24 -5 15 -4 15 5 3 7 -10
11 -11 11 -3z m1550 -17 c-9 -6 -9 -9 1 -12 7 -2 9 -9 5 -16 -3 -6 -13 -9 -21
-6 -11 5 -12 11 -4 25 7 15 6 19 -5 19 -8 0 -17 -10 -19 -22 -3 -15 -4 -12 -4
8 1 30 2 31 30 21 19 -6 25 -12 17 -17z m-2105 -19 c3 -8 1 -19 -5 -25 -7 -7
-10 -6 -10 2 0 7 -6 12 -13 12 -8 0 -14 6 -14 14 0 19 35 16 42 -3z m337 -3
c-7 -7 -12 -8 -12 -2 0 6 3 14 7 17 3 4 9 5 12 2 2 -3 -1 -11 -7 -17z m1818
12 c8 -5 11 -10 5 -10 -5 0 -17 5 -25 10 -8 5 -10 10 -5 10 6 0 17 -5 25 -10z
m-2109 -10 c6 0 5 -8 -1 -20 -13 -24 -36 -17 -36 10 0 13 5 19 14 15 7 -3 18
-5 23 -5z m347 -8 c-19 -4 -25 -32 -7 -32 5 0 7 5 3 12 -5 7 -3 8 7 2 8 -5 22
-7 32 -6 10 2 17 -3 17 -12 0 -19 -23 -33 -28 -18 -2 7 -14 12 -27 12 -12 0
-25 7 -29 15 -7 18 22 48 37 38 8 -5 6 -9 -5 -11z m281 -3 c-16 -10 -23 -4
-14 10 3 6 11 8 17 5 6 -4 5 -9 -3 -15z m1516 11 c3 -5 1 -10 -4 -10 -6 0 -11
5 -11 10 0 6 2 10 4 10 3 0 8 -4 11 -10z m-2077 -32 c6 2 15 -4 18 -13 6 -13
9 -14 16 -3 6 9 7 6 3 -9 -7 -25 9 -32 19 -8 3 8 13 15 22 15 11 0 14 -5 10
-16 -3 -9 -6 -20 -6 -25 0 -5 -5 -9 -11 -9 -6 0 -8 9 -4 23 7 22 7 22 -9 2
-14 -18 -17 -18 -28 -5 -7 9 -21 14 -30 12 -12 -2 -18 3 -18 15 0 15 -2 16
-11 3 -9 -13 -10 -12 -5 3 6 19 -10 24 -17 5 -2 -7 -7 -11 -9 -8 -3 3 -1 16 4
30 l9 25 17 -21 c10 -11 23 -19 30 -16z m942 17 c-7 -9 -15 -13 -17 -11 -7 7
7 26 19 26 6 0 6 -6 -2 -15z m1098 2 c15 6 15 5 2 -11 -8 -11 -16 -14 -18 -7
-2 6 -8 9 -13 6 -5 -4 -6 2 -2 11 4 10 8 13 10 7 3 -7 12 -9 21 -6z m-1423 -7
c3 -5 17 -10 31 -10 20 0 25 -4 22 -22 -2 -11 -11 -22 -21 -24 -14 -2 -16 2
-11 19 7 22 6 22 -15 3 -11 -11 -24 -16 -28 -13 -3 4 -1 7 6 7 7 0 9 5 6 10
-3 6 0 10 7 10 9 0 9 3 -2 10 -10 7 -18 5 -25 -4 -6 -8 -17 -10 -30 -5 -19 7
-19 8 3 8 12 1 22 6 22 11 0 6 6 10 14 10 8 0 18 -4 21 -10z m384 -22 c12 4
12 3 0 -10 -8 -10 -16 -12 -20 -6 -4 7 -9 6 -13 -1 -11 -17 -26 -13 -26 7 0
27 11 34 29 18 9 -7 22 -11 30 -8z m1081 18 c0 -2 -7 -9 -15 -16 -13 -11 -14
-10 -9 4 5 14 24 23 24 12z m-1721 -13 c0 -5 -4 -17 -9 -28 -8 -18 -9 -17 -9
8 -1 15 4 27 9 27 6 0 10 -3 9 -7z m340 -10 c0 -5 -4 -17 -9 -28 -8 -17 -8
-16 -7 8 1 15 5 27 9 27 4 0 8 -3 7 -7z m1332 -26 c-10 -9 -11 -8 -5 6 3 10 9
15 12 12 3 -3 0 -11 -7 -18z m-1592 -2 c6 -3 11 -14 12 -23 0 -14 2 -14 10 3
9 19 9 18 5 -2 -4 -23 9 -33 16 -12 2 6 12 10 21 8 15 -3 16 -7 5 -21 -12 -16
-16 -17 -42 -3 -15 8 -35 15 -42 15 -8 0 -14 7 -14 16 0 14 -1 14 -16 0 -20
-21 -22 -20 -17 8 4 17 11 22 28 20 13 -1 29 -5 34 -9z m297 4 c10 -17 -13
-36 -27 -22 -12 12 -4 33 11 33 5 0 12 -5 16 -11z m-606 -13 c0 -3 -4 -8 -10
-11 -5 -3 -10 -1 -10 4 0 6 5 11 10 11 6 0 10 -2 10 -4z m1861 -14 c-7 -2 -18
1 -23 6 -8 8 -4 9 13 5 13 -4 18 -8 10 -11z m-1821 -2 c0 -5 7 -7 15 -4 9 4
18 -1 21 -11 5 -13 9 -14 15 -3 7 10 9 9 9 -5 0 -10 -11 -22 -26 -27 -30 -12
-34 -12 -33 -2 4 22 -3 34 -16 29 -16 -7 -29 8 -20 23 8 13 35 13 35 0z m414
-24 c-3 -8 -12 -12 -20 -9 -8 3 -14 0 -14 -7 0 -6 5 -8 10 -5 6 3 10 1 10 -4
0 -6 -7 -11 -15 -11 -35 0 -11 37 32 49 1 1 0 -5 -3 -13z m-319 -6 c3 -5 2
-10 -4 -10 -6 0 -8 -7 -4 -16 4 -11 2 -15 -6 -13 -7 3 -12 8 -12 12 1 4 1 14
1 22 0 17 16 20 25 5z m355 -21 c0 -5 -8 -9 -17 -9 -15 0 -16 -2 -3 -10 10 -7
11 -10 2 -10 -18 0 -27 31 -11 40 14 10 29 4 29 -11z m33 -5 c9 -10 -4 -34
-19 -34 -16 0 -16 2 -8 24 6 17 16 20 27 10z m-274 -14 c0 -3 -4 -14 -9 -25
l-9 -20 0 20 c-1 16 -3 17 -10 6 -5 -8 -16 -11 -26 -7 -13 5 -15 9 -6 20 11
13 62 18 60 6z m358 -26 c3 -9 11 -10 30 -3 21 8 24 7 19 -7 -3 -8 -6 -20 -6
-25 0 -15 -30 -10 -36 6 -4 10 -13 13 -27 9 -17 -5 -19 -3 -14 15 6 25 -8 29
-17 4 -5 -11 -10 -13 -17 -6 -5 5 -7 17 -4 26 5 13 12 14 37 5 16 -6 32 -16
35 -24z m-325 2 c6 4 17 -1 25 -11 8 -13 13 -14 13 -5 0 7 2 11 5 8 3 -3 3
-12 0 -20 -7 -16 -55 -13 -55 4 0 5 -4 6 -10 3 -5 -3 -10 0 -10 8 0 18 14 31
18 18 2 -6 9 -8 14 -5z m60 -48 c-8 -8 -9 -4 -5 13 4 13 8 18 11 10 2 -7 -1
-18 -6 -23z m368 12 c0 -5 -7 -7 -15 -4 -8 4 -15 2 -15 -4 0 -6 6 -13 13 -15
9 -4 9 -6 0 -6 -15 -1 -26 16 -18 29 8 13 35 13 35 0z m35 -12 c3 -7 17 -14
31 -14 31 -2 38 -9 31 -29 -10 -24 -40 -19 -34 6 l6 21 -23 -21 -23 -21 4 32
c4 31 3 32 -11 14 -17 -21 -20 -18 -10 8 7 19 23 21 29 4z m94 -25 c0 -5 -4
-17 -9 -28 -8 -18 -9 -17 -9 8 -1 15 4 27 9 27 6 0 10 -3 9 -7z m37 -24 c3 -6
1 -16 -5 -22 -9 -9 -11 -8 -6 6 4 10 2 17 -4 17 -6 0 -11 -7 -11 -17 0 -9 -3
-14 -6 -10 -9 8 3 37 15 37 5 0 13 -5 17 -11z m439 -25 c11 -8 5 -13 -23 -20
-36 -10 -37 -9 -37 16 0 21 4 26 18 22 10 -2 17 1 18 9 0 11 2 10 6 -1 3 -8
11 -20 18 -26z m-753 -330 c519 -195 953 -362 966 -370 44 -29 47 -55 17 -135
-31 -80 -54 -109 -87 -109 -25 0 -1900 704 -1936 726 -44 29 -47 55 -17 139
29 78 52 105 92 105 12 0 446 -160 965 -356z m844 301 c16 -12 16 -14 3 -15
-9 0 -21 -10 -27 -22 -9 -21 -10 -19 -9 14 2 42 5 44 33 23z m44 -60 c5 -28 6
-29 18 -10 l13 20 -3 -20 c-2 -12 -11 -20 -23 -20 -13 0 -21 7 -21 20 -3 38
-5 40 -19 21 -12 -15 -15 -16 -15 -5 0 41 43 36 50 -6z m-210 -1 c22 -9 40
-18 40 -20 0 -2 -7 -21 -16 -43 l-16 -39 -42 15 -42 16 15 43 c9 24 17 44 18
44 2 0 21 -7 43 -16z m286 -6 c5 -8 1 -9 -12 -4 -15 6 -17 5 -6 -5 13 -14 16
-39 5 -39 -20 1 -32 18 -26 38 6 24 27 29 39 10z m34 -4 c0 -3 -5 -14 -10 -24
-6 -11 -6 -21 -1 -25 5 -3 13 4 16 15 9 30 40 21 40 -10 0 -19 -5 -25 -20 -23
-11 1 -23 -4 -27 -10 -5 -8 -8 -7 -8 5 0 9 -4 18 -9 20 -12 4 -2 58 10 58 5 0
9 -3 9 -6z m-187 -87 c-9 -23 -17 -43 -18 -45 -2 -2 -77 27 -82 32 -2 1 4 21
13 43 l16 41 44 -15 43 -15 -16 -41z m285 45 c-4 -15 -1 -18 17 -14 26 4 38
-9 29 -32 -7 -18 -40 -22 -46 -6 -2 6 -13 12 -26 13 -15 1 -21 6 -17 15 3 7 5
18 5 24 0 6 7 8 15 4 8 -3 15 -1 15 4 0 6 3 10 6 10 4 0 4 -8 2 -18z m-171
-46 c2 -2 -5 -21 -14 -44 l-18 -40 -37 15 c-43 17 -43 18 -23 67 l15 36 37
-15 c20 -9 38 -17 40 -19z m247 2 c-4 -13 -7 -26 -6 -30 1 -5 -2 -8 -8 -8 -13
0 -13 12 0 46 13 32 25 25 14 -8z m-163 -30 l26 -9 -15 -43 -16 -43 -43 14
c-24 8 -43 17 -43 19 0 2 7 22 16 44 13 31 21 40 33 35 9 -4 28 -11 42 -17z
m119 -43 c10 -6 8 -22 -11 -72 -8 -21 -9 -21 -49 -6 -45 18 -45 18 -25 66 14
33 17 35 45 27 16 -5 34 -11 40 -15z"/>
<path d="M2776 5556 c3 -8 12 -12 21 -9 12 5 12 7 1 14 -20 13 -28 11 -22 -5z"/>
<path d="M3397 5363 c-11 -10 -8 -43 3 -43 15 0 24 30 13 41 -5 5 -12 6 -16 2z"/>
<path d="M3283 5025 c-3 -9 -3 -18 0 -21 9 -9 27 6 27 22 0 19 -19 18 -27 -1z"/>
<path d="M3037 4916 c-6 -16 2 -28 14 -20 12 7 11 34 0 34 -5 0 -11 -6 -14
-14z"/>
<path d="M3643 4885 c-3 -9 -3 -18 0 -21 9 -9 27 6 27 22 0 19 -19 18 -27 -1z"/>
<path d="M3787 4843 c-13 -12 -7 -33 8 -33 8 0 15 9 15 20 0 20 -11 26 -23 13z"/>
<path d="M3310 4810 c0 -24 15 -27 24 -4 9 22 8 24 -9 24 -8 0 -15 -9 -15 -20z"/>
<path d="M3594 4716 c-8 -22 3 -33 18 -18 9 9 9 15 0 24 -9 9 -13 7 -18 -6z"/>
<path d="M4090 4710 c0 -24 15 -27 24 -4 9 22 8 24 -9 24 -8 0 -15 -9 -15 -20z"/>
<path d="M3757 4629 c7 -7 15 -10 18 -7 3 3 -2 9 -12 12 -14 6 -15 5 -6 -5z"/>
<path d="M4325 4610 c3 -5 8 -10 11 -10 2 0 4 5 4 10 0 6 -5 10 -11 10 -5 0
-7 -4 -4 -10z"/>
<path d="M2389 4363 c-14 -38 -8 -58 20 -58 18 0 27 8 34 28 12 36 3 57 -23
57 -13 0 -24 -10 -31 -27z m31 -38 c-28 -34 -33 9 -6 44 9 12 12 10 14 -8 2
-12 -2 -29 -8 -36z"/>
<path d="M2496 4338 c-36 -51 -2 -105 36 -59 23 30 23 58 -1 71 -16 8 -23 6
-35 -12z m34 -12 c0 -25 -12 -46 -26 -46 -17 0 -17 2 -2 35 12 27 28 33 28 11z"/>
<path d="M2577 4314 c9 -4 9 -13 2 -30 -14 -39 -11 -64 5 -34 7 14 17 35 20
48 6 18 4 22 -16 21 -13 0 -18 -3 -11 -5z"/>
<path d="M2631 4281 c-6 -11 -11 -31 -11 -45 0 -21 5 -26 25 -26 27 0 49 37
43 69 -5 24 -45 26 -57 2z m35 -36 c-4 -14 -11 -25 -16 -25 -14 0 -12 44 2 58
16 16 22 0 14 -33z"/>
<path d="M2435 4280 c-3 -5 -2 -10 4 -10 5 0 13 5 16 10 3 6 2 10 -4 10 -5 0
-13 -4 -16 -10z"/>
<path d="M2722 4271 c-10 -6 -8 -10 10 -16 20 -6 20 -8 5 -12 -12 -3 -16 -11
-12 -24 7 -22 -19 -28 -29 -6 -3 6 -5 3 -3 -8 2 -14 10 -20 27 -20 19 0 26 7
33 34 9 38 -8 67 -31 52z"/>
<path d="M2786 4219 c-29 -23 -34 -39 -12 -39 8 0 16 -7 18 -15 5 -25 25 -2
32 38 8 42 0 46 -38 16z m14 -19 c0 -5 -5 -10 -11 -10 -5 0 -7 5 -4 10 3 6 8
10 11 10 2 0 4 -4 4 -10z"/>
<path d="M2850 4203 c0 -11 -5 -24 -11 -30 -17 -17 -3 -43 21 -43 22 0 43 40
38 69 -5 24 -48 27 -48 4z m35 -2 c3 -5 1 -12 -5 -16 -5 -3 -10 1 -10 9 0 18
6 21 15 7z m-15 -46 c0 -8 -4 -15 -10 -15 -5 0 -10 7 -10 15 0 8 5 15 10 15 6
0 10 -7 10 -15z"/>
<path d="M2925 4186 c-9 -6 -17 -27 -18 -46 -2 -27 2 -35 17 -38 24 -5 46 23
46 59 0 31 -21 43 -45 25z m27 -32 c-4 -23 -19 -40 -28 -31 -4 3 -3 18 0 32 8
30 33 28 28 -1z"/>
<path d="M3980 4546 c0 -2 7 -7 16 -10 8 -3 12 -2 9 4 -6 10 -25 14 -25 6z"/>
<path d="M4050 4526 c0 -2 8 -10 18 -17 15 -13 16 -12 3 4 -13 16 -21 21 -21
13z"/>
<path d="M2615 3980 c-3 -5 -1 -10 4 -10 6 0 11 5 11 10 0 6 -2 10 -4 10 -3 0
-8 -4 -11 -10z"/>
<path d="M2406 3805 c-3 -8 -1 -15 3 -15 5 0 11 7 15 15 3 8 1 15 -3 15 -5 0
-11 -7 -15 -15z"/>
<path d="M2487 3793 c-4 -3 -7 -13 -7 -22 1 -13 3 -13 11 2 11 19 8 33 -4 20z"/>
<path d="M2430 3539 c0 -5 5 -7 10 -4 6 3 10 8 10 11 0 2 -4 4 -10 4 -5 0 -10
-5 -10 -11z"/>
<path d="M2087 3303 c-13 -13 -7 -21 13 -16 31 8 24 -15 -10 -32 -16 -9 -30
-19 -30 -24 0 -13 49 -31 55 -21 4 6 -1 10 -9 10 -22 0 -20 7 12 36 26 23 27
24 8 39 -22 17 -29 18 -39 8z"/>
<path d="M1987 3293 c-10 -9 45 -35 62 -28 11 4 8 9 -13 20 -31 17 -40 18 -49
8z"/>
<path d="M2174 3267 c16 -12 15 -14 -8 -36 -27 -25 -33 -41 -17 -41 6 0 22 16
37 36 23 29 25 37 13 45 -8 5 -20 9 -28 9 -11 0 -11 -3 3 -13z"/>
<path d="M2224 3238 c-5 -8 -2 -9 9 -5 9 3 19 2 22 -4 4 -5 -1 -12 -10 -15
-11 -5 -13 -10 -5 -19 14 -16 0 -28 -17 -13 -15 12 -28 5 -18 -11 11 -19 55
-13 55 7 0 10 5 23 11 29 7 7 9 19 6 27 -7 19 -43 21 -53 4z"/>
<path d="M2342 3187 c-35 -24 -39 -35 -17 -43 8 -4 15 -13 15 -21 0 -12 3 -13
14 -4 13 11 32 79 24 87 -2 2 -18 -7 -36 -19z m11 -22 c-3 -9 -8 -14 -10 -11
-3 3 -2 9 2 15 9 16 15 13 8 -4z"/>
<path d="M2407 3169 c8 -8 8 -20 1 -41 -15 -43 -1 -47 17 -5 20 48 19 57 -7
57 -16 0 -19 -3 -11 -11z"/>
<path d="M2270 3150 c0 -5 5 -10 11 -10 5 0 7 5 4 10 -3 6 -8 10 -11 10 -2 0
-4 -4 -4 -10z"/>
<path d="M2463 3124 c-17 -34 -17 -37 1 -49 10 -8 24 -11 31 -9 20 8 35 57 23
77 -15 27 -37 20 -55 -19z m47 3 c0 -19 -27 -53 -35 -45 -12 12 4 58 20 58 8
0 15 -6 15 -13z"/>
<path d="M2540 3110 c-8 -16 -8 -20 4 -20 18 0 29 -16 21 -30 -5 -8 -11 -7
-21 1 -16 13 -30 6 -19 -10 10 -17 52 -13 59 5 4 9 0 24 -9 34 -21 23 -19 29
7 22 14 -3 19 -2 14 6 -11 19 -44 14 -56 -8z"/>
<path d="M2623 3103 c-21 -8 -15 -22 7 -16 31 8 24 -16 -10 -35 -16 -9 -30
-20 -30 -23 0 -12 49 -28 55 -19 4 6 -1 10 -9 10 -9 0 -16 5 -16 10 0 6 4 10
9 10 12 0 41 29 41 40 0 13 -32 28 -47 23z"/>
<path d="M2682 3058 c-22 -28 -23 -57 -3 -67 27 -15 29 -14 41 10 9 16 8 24
-5 39 -15 17 -15 19 2 23 15 4 15 5 -3 6 -12 0 -26 -5 -32 -11z m28 -37 c0
-12 -20 -25 -27 -18 -7 7 6 27 18 27 5 0 9 -4 9 -9z"/>
<path d="M2990 3360 c0 -5 5 -10 11 -10 5 0 7 5 4 10 -3 6 -8 10 -11 10 -2 0
-4 -4 -4 -10z"/>
<path d="M3330 3205 c0 -8 5 -15 10 -15 6 0 10 7 10 15 0 8 -4 15 -10 15 -5 0
-10 -7 -10 -15z"/>
<path d="M3430 2840 c8 -5 20 -10 25 -10 6 0 3 5 -5 10 -8 5 -19 10 -25 10 -5
0 -3 -5 5 -10z"/>
<path d="M3400 2809 c0 -7 26 -19 41 -19 5 0 9 6 9 13 0 6 -11 12 -25 12 -14
0 -25 -3 -25 -6z"/>
<path d="M3536 2805 c-9 -26 -7 -32 5 -12 6 10 9 21 6 23 -2 3 -7 -2 -11 -11z"/>
<path d="M2097 2533 c-4 -3 -7 -11 -7 -17 0 -6 5 -5 12 2 6 6 9 14 7 17 -3 3
-9 2 -12 -2z"/>
<path d="M1867 2480 c-3 -11 -1 -20 4 -20 5 0 9 2 9 4 0 2 3 11 6 20 3 9 2 16
-4 16 -5 0 -12 -9 -15 -20z"/>
<path d="M2230 2470 c0 -5 5 -10 10 -10 6 0 10 5 10 10 0 6 -4 10 -10 10 -5 0
-10 -4 -10 -10z"/>
<path d="M1917 2465 c-4 -8 -2 -17 3 -20 6 -4 10 -4 10 -1 0 2 3 11 6 20 3 9
2 16 -4 16 -5 0 -12 -7 -15 -15z"/>
<path d="M2030 2410 c0 -5 5 -10 10 -10 6 0 10 5 10 10 0 6 -4 10 -10 10 -5 0
-10 -4 -10 -10z"/>
<path d="M2685 2300 c-3 -5 -1 -10 4 -10 6 0 11 5 11 10 0 6 -2 10 -4 10 -3 0
-8 -4 -11 -10z"/>
<path d="M2870 2230 c0 -5 5 -10 10 -10 6 0 10 5 10 10 0 6 -4 10 -10 10 -5 0
-10 -4 -10 -10z"/>
<path d="M2605 2201 c-3 -5 -1 -12 5 -16 5 -3 10 1 10 9 0 18 -6 21 -15 7z"/>
<path d="M2970 2194 c0 -8 5 -12 10 -9 6 3 10 10 10 16 0 5 -4 9 -10 9 -5 0
-10 -7 -10 -16z"/>
<path d="M1847 2145 c-4 -8 -2 -17 2 -20 5 -2 11 4 14 15 6 23 -8 27 -16 5z"/>
<path d="M2745 2140 c-3 -5 -1 -10 4 -10 6 0 11 5 11 10 0 6 -2 10 -4 10 -3 0
-8 -4 -11 -10z"/>
<path d="M3320 2060 c0 -5 5 -10 10 -10 6 0 10 5 10 10 0 6 -4 10 -10 10 -5 0
-10 -4 -10 -10z"/>
<path d="M3440 2014 c0 -8 5 -12 10 -9 6 3 10 10 10 16 0 5 -4 9 -10 9 -5 0
-10 -7 -10 -16z"/>
<path d="M3150 1990 c0 -5 5 -10 10 -10 6 0 10 5 10 10 0 6 -4 10 -10 10 -5 0
-10 -4 -10 -10z"/>
<path d="M3320 1920 c0 -5 5 -10 10 -10 6 0 10 5 10 10 0 6 -4 10 -10 10 -5 0
-10 -4 -10 -10z"/>
<path d="M2610 1920 c0 -5 6 -10 14 -10 8 0 18 -5 22 -11 4 -8 -4 -9 -27 -5
-28 5 -30 4 -11 -4 28 -12 29 -24 1 -17 -12 3 -19 1 -16 -6 2 -6 15 -14 30
-18 22 -6 27 -3 36 23 9 26 8 33 -7 44 -20 16 -42 18 -42 4z"/>
<path d="M2697 1883 c-12 -11 -8 -23 8 -23 8 0 15 7 15 15 0 16 -12 20 -23 8z"/>
<path d="M2781 1836 c-7 -8 -8 -17 -3 -20 6 -3 12 3 15 14 6 24 4 25 -12 6z"/>
<path d="M1416 1894 c-8 -21 -8 -24 3 -24 12 0 22 28 12 35 -5 3 -12 -2 -15
-11z"/>
<path d="M1570 1819 c0 -5 5 -7 10 -4 6 3 10 8 10 11 0 2 -4 4 -10 4 -5 0 -10
-5 -10 -11z"/>
<path d="M1376 1781 c-4 -7 -5 -15 -2 -18 9 -9 19 4 14 18 -4 11 -6 11 -12 0z"/>
<path d="M3128 1663 c7 -3 16 -2 19 1 4 3 -2 6 -13 5 -11 0 -14 -3 -6 -6z"/>
<path d="M1870 1710 c0 -5 5 -10 10 -10 6 0 10 5 10 10 0 6 -4 10 -10 10 -5 0
-10 -4 -10 -10z"/>
<path d="M1690 1650 c0 -5 5 -10 10 -10 6 0 10 5 10 10 0 6 -4 10 -10 10 -5 0
-10 -4 -10 -10z"/>
<path d="M2020 1649 c0 -5 5 -7 10 -4 6 3 10 8 10 11 0 2 -4 4 -10 4 -5 0 -10
-5 -10 -11z"/>
<path d="M1831 1604 c0 -11 3 -14 6 -6 3 7 2 16 -1 19 -3 4 -6 -2 -5 -13z"/>
<path d="M2200 1580 c0 -5 5 -10 10 -10 6 0 10 5 10 10 0 6 -4 10 -10 10 -5 0
-10 -4 -10 -10z"/>
<path d="M1430 1510 c0 -5 5 -10 10 -10 6 0 10 5 10 10 0 6 -4 10 -10 10 -5 0
-10 -4 -10 -10z"/>
<path d="M2091 1504 c0 -11 3 -14 6 -6 3 7 2 16 -1 19 -3 4 -6 -2 -5 -13z"/>
<path d="M2391 1514 c0 -11 3 -14 6 -6 3 7 2 16 -1 19 -3 4 -6 -2 -5 -13z"/>
<path d="M1857 1474 c6 -15 23 -19 23 -5 0 5 -7 11 -14 14 -10 4 -13 1 -9 -9z"/>
<path d="M2150 1480 c0 -5 5 -10 10 -10 6 0 10 5 10 10 0 6 -4 10 -10 10 -5 0
-10 -4 -10 -10z"/>
<path d="M1620 1434 c0 -8 5 -12 10 -9 6 3 10 10 10 16 0 5 -4 9 -10 9 -5 0
-10 -7 -10 -16z"/>
<path d="M2190 1340 c0 -5 5 -10 10 -10 6 0 10 5 10 10 0 6 -4 10 -10 10 -5 0
-10 -4 -10 -10z"/>
<path d="M1850 1350 c0 -5 5 -10 10 -10 6 0 10 5 10 10 0 6 -4 10 -10 10 -5 0
-10 -4 -10 -10z"/>
<path d="M2355 1280 c-3 -5 -1 -10 4 -10 6 0 11 5 11 10 0 6 -2 10 -4 10 -3 0
-8 -4 -11 -10z"/>
<path d="M1642 953 c-13 -42 -13 -42 18 -45 18 -2 25 3 31 27 11 38 5 55 -19
55 -13 0 -22 -12 -30 -37z m45 1 c-9 -9 -28 6 -21 18 4 6 10 6 17 -1 6 -6 8
-13 4 -17z m-7 -24 c0 -5 -7 -10 -15 -10 -8 0 -15 5 -15 10 0 6 7 10 15 10 8
0 15 -4 15 -10z"/>
<path d="M1714 926 c-9 -23 3 -46 23 -45 17 1 17 2 1 6 -10 2 -18 9 -18 14 0
6 9 7 21 4 17 -6 20 -3 17 11 -4 24 -36 30 -44 10z"/>
<path d="M1777 914 c-4 -4 -7 -18 -7 -31 0 -18 5 -23 23 -22 16 1 18 2 5 6
-20 5 -24 28 -7 39 6 3 16 0 21 -7 8 -12 9 -11 5 1 -4 16 -29 25 -40 14z"/>
<path d="M1842 888 c-17 -17 -14 -45 5 -52 16 -7 43 16 43 36 0 15 -37 27 -48
16z m28 -23 c0 -8 -7 -15 -15 -15 -16 0 -20 12 -8 23 11 12 23 8 23 -8z"/>
<path d="M1899 853 c-12 -32 -5 -42 11 -14 16 30 31 26 25 -6 -5 -27 -5 -27 6
-5 18 33 33 27 25 -10 -5 -24 -3 -29 5 -21 20 20 6 54 -29 69 -32 13 -33 12
-43 -13z"/>
<path d="M1997 811 c-6 -23 16 -46 35 -38 8 4 7 6 -4 6 -10 1 -18 6 -18 12 0
6 9 8 21 4 17 -6 20 -3 17 12 -5 26 -44 29 -51 4z"/>
<path d="M2108 793 c15 -6 16 -43 1 -43 -6 0 -8 7 -5 16 4 10 1 14 -6 12 -20
-7 -15 -30 9 -39 17 -6 22 -3 27 17 8 30 1 44 -22 43 -11 0 -12 -3 -4 -6z"/>
<path d="M2177 729 c-9 -22 -11 -39 -6 -39 5 0 9 4 9 9 0 5 9 7 19 4 13 -3 23
2 31 16 13 25 8 37 -19 44 -15 3 -22 -4 -34 -34z m43 7 c0 -8 -4 -17 -9 -21
-12 -7 -24 12 -16 25 9 15 25 12 25 -4z"/>
<path d="M2263 733 c20 -5 21 -12 6 -33 -9 -12 -10 -12 -5 3 4 12 2 17 -6 15
-21 -7 -20 -26 1 -38 18 -9 23 -7 31 15 12 33 6 45 -23 44 -17 -1 -18 -2 -4
-6z"/>
<path d="M2310 699 c-6 -11 -9 -25 -6 -32 2 -7 8 -2 11 11 4 12 14 22 22 22 8
0 11 5 8 10 -10 16 -23 12 -35 -11z"/>
<path d="M2368 714 c-12 -22 -17 -63 -8 -69 6 -3 10 5 10 19 0 13 4 26 10 28
5 2 6 9 1 17 -5 7 -11 9 -13 5z"/>
<path d="M2391 660 c-5 -16 -6 -30 -2 -30 5 0 11 9 14 20 3 11 11 20 17 20 8
0 10 -9 6 -26 -4 -15 -3 -23 2 -20 20 12 20 46 2 56 -26 14 -27 14 -39 -20z"/>
<path d="M2455 641 c-8 -26 1 -41 23 -41 11 0 13 3 6 8 -13 9 -14 42 -1 42 5
0 7 -7 3 -15 -3 -9 0 -15 10 -15 24 0 12 35 -13 38 -14 2 -23 -3 -28 -17z"/>
<path d="M2520 619 c-6 -11 -9 -25 -7 -32 3 -7 8 -4 13 8 4 11 15 25 23 32 14
11 14 12 -1 13 -10 0 -22 -9 -28 -21z"/>
<path d="M3065 1120 c3 -5 8 -10 11 -10 2 0 4 5 4 10 0 6 -5 10 -11 10 -5 0
-7 -4 -4 -10z"/>
<path d="M3145 1101 c-6 -11 9 -23 19 -14 9 9 7 23 -3 23 -6 0 -12 -4 -16 -9z"/>
<path d="M3240 1065 c0 -8 5 -15 10 -15 6 0 10 7 10 15 0 8 -4 15 -10 15 -5 0
-10 -7 -10 -15z"/>
<path d="M2319 5314 c-41 -105 -59 -156 -59 -167 1 -20 17 15 50 103 17 46 28
85 26 88 -3 3 -11 -8 -17 -24z"/>
<path d="M2116 4777 c-38 -100 -71 -188 -73 -194 -3 -7 -1 -13 4 -13 4 0 29
57 55 128 26 70 58 157 72 195 14 37 22 67 18 67 -4 0 -38 -82 -76 -183z"/>
<path d="M1995 4459 c-2 -8 -34 -92 -70 -188 -60 -159 -78 -220 -56 -181 20
33 143 372 137 377 -3 3 -8 0 -11 -8z"/>
<path d="M4700 3824 c-6 -16 -31 -81 -55 -144 -127 -330 -174 -465 -151 -439
11 13 227 601 222 606 -3 3 -10 -7 -16 -23z"/>
</g>
</svg>
