<svg width="719" height="343" viewBox="0 0 719 343" fill="none" xmlns="http://www.w3.org/2000/svg">
<mask id="mask0" mask-type="alpha" maskUnits="userSpaceOnUse" x="0" y="0" width="719" height="343">
<rect width="719" height="343" fill="#C4C4C4"/>
</mask>
<g mask="url(#mask0)">
<path fill-rule="evenodd" clip-rule="evenodd" d="M266.11 315.863C273.604 319.824 281.986 321.806 290.46 321.619C298.919 321.765 307.274 319.735 314.724 315.725L531.517 188.941C538.187 185.012 541.892 179.739 541.857 173.983C541.823 168.227 538.118 162.902 531.224 158.99L464.015 120.457C450.556 112.736 428.739 112.788 415.4 120.595L198.607 247.379C191.938 251.308 188.233 256.581 188.268 262.337C188.302 268.093 192.007 273.418 198.9 277.33L266.11 315.863ZM417.055 123.283C424.029 119.53 431.85 117.631 439.768 117.768V117.682C447.704 117.506 455.552 119.363 462.567 123.076L529.777 161.61C535.602 164.953 538.807 169.347 538.841 173.914C538.876 178.481 535.722 182.841 530.001 186.184L313.191 313.054C300.714 320.344 280.293 320.413 267.678 313.175L200.469 274.642C194.644 271.298 191.421 266.904 191.404 262.337C191.387 257.77 194.54 253.41 200.262 250.067L417.055 123.283Z" fill="url(#paint0_linear)"/>
<path fill-rule="evenodd" clip-rule="evenodd" d="M179.218 415.798C188.604 421.159 200.791 423.776 212.998 423.776C225.174 423.776 237.392 421.021 246.63 415.565L704.807 147.926C714.109 142.491 719.221 135.191 719.189 127.245C719.157 119.299 713.928 111.935 704.468 106.511L543.003 13.9743C524.357 3.27343 494.067 3.3476 475.57 14.165L17.3923 281.804C8.08026 287.281 3 294.581 3 302.527C3 310.474 8.30298 317.827 17.7211 323.262L179.218 415.798ZM477.627 17.7991C486.303 12.7348 497.726 10.1496 509.18 10.1496C520.635 10.1178 532.11 12.6076 540.881 17.6402L702.347 110.166C710.418 114.817 715 120.962 715.021 127.308C715.042 133.655 710.672 139.715 702.697 144.377L244.519 412.016C227.168 422.155 198.786 422.229 181.265 412.185L19.7998 319.649C11.6863 314.998 7.21056 308.863 7.17874 302.517C7.14693 296.171 11.4848 290.1 19.4498 285.438L477.627 17.7991Z" fill="url(#paint1_linear)"/>
<path fill-rule="evenodd" clip-rule="evenodd" d="M223.623 366.746C230.718 370.798 239.929 372.776 249.156 372.776C258.359 372.776 267.594 370.694 274.576 366.57L620.89 164.275C627.92 160.167 631.784 154.649 631.76 148.643C631.736 142.637 627.784 137.071 620.633 132.971L498.59 63.0274C484.497 54.9391 461.602 54.9952 447.621 63.1715L101.307 265.466C94.2687 269.607 90.4288 275.124 90.4288 281.13C90.4288 287.136 94.4371 292.694 101.556 296.802L223.623 366.746ZM449.176 65.9184C455.733 62.0905 464.367 60.1365 473.025 60.1365C481.683 60.1124 490.357 61.9944 496.986 65.7983L619.03 135.734C625.13 139.249 628.594 143.894 628.61 148.691C628.626 153.488 625.323 158.069 619.294 161.592L272.981 363.887C259.866 371.551 238.414 371.607 225.17 364.015L103.127 294.072C96.9943 290.556 93.6113 285.919 93.5873 281.122C93.5632 276.325 96.842 271.737 102.862 268.213L449.176 65.9184Z" fill="url(#paint2_linear)"/>
<path fill-rule="evenodd" clip-rule="evenodd" d="M474.105 159.111C476.971 160.751 476.986 163.432 474.105 165.087L441.481 184.196C438.241 185.845 434.408 185.845 431.168 184.196L398.177 165.302C395.311 163.662 395.296 160.981 398.177 159.326L430.847 140.217C434.086 138.566 437.92 138.566 441.159 140.217L474.105 159.111Z" fill="url(#paint3_linear)"/>
<path fill-rule="evenodd" clip-rule="evenodd" d="M476.25 162.329C476.25 162.406 476.25 162.482 476.25 162.559C476.25 162.636 476.25 162.682 476.25 162.743C476.25 162.804 476.25 162.896 476.25 162.957V163.141L476.143 163.371L476.051 163.54L475.883 163.8L475.76 163.954L475.454 164.291L475.331 164.413L474.948 164.582L474.749 164.75L474.488 164.919L474.212 165.103L441.481 184.196C441.257 184.325 441.027 184.443 440.792 184.548L440.577 184.64L440.01 184.855H439.796L439.412 184.962L439.121 185.039L438.723 185.131H438.447L437.62 185.253H437.359H436.869H435.444H435.107H434.739H434.417H434.034H433.727L433.268 185.146H433.022L432.241 184.886H432.134C431.796 184.75 431.469 184.591 431.153 184.411L398.177 165.302C396.946 164.757 396.116 163.579 396.016 162.237V176.12C396.116 177.462 396.946 178.64 398.177 179.185L431.168 198.11C431.484 198.291 431.812 198.449 432.149 198.585L432.931 198.845H433.114L433.574 198.953H433.697H433.881H434.264H434.417H434.586H434.953H436.715H437.206H437.466L438.294 198.83H438.524L438.922 198.738L439.213 198.661L439.581 198.554H439.658H439.78L440.347 198.34L440.562 198.248C440.797 198.142 441.028 198.024 441.251 197.895L473.921 178.787H474.013L474.197 178.664L474.458 178.496L474.657 178.327L474.887 178.143V178.067L475.193 177.729L475.362 177.469V177.362L475.469 177.132V176.994C475.469 176.994 475.469 176.856 475.469 176.779V176.626C475.469 176.626 475.469 176.473 475.469 176.396C475.469 176.32 475.469 176.289 475.469 176.243C475.469 176.197 475.469 176.243 475.469 176.243V162.36C475.469 162.36 476.25 162.253 476.25 162.329Z" fill="url(#paint4_linear)"/>
<path fill-rule="evenodd" clip-rule="evenodd" d="M435.903 177.929C435.418 177.949 434.933 177.87 434.478 177.699L409.056 163.141C408.732 162.956 408.532 162.611 408.532 162.237C408.532 161.864 408.732 161.519 409.056 161.333L434.141 146.669C434.582 146.503 435.05 146.425 435.52 146.439C436.006 146.418 436.491 146.496 436.945 146.669L462.321 161.226C462.645 161.412 462.845 161.757 462.845 162.13C462.845 162.504 462.645 162.849 462.321 163.034L437.237 177.699C436.81 177.858 436.358 177.936 435.903 177.929Z" fill="url(#paint5_linear)"/>
<path fill-rule="evenodd" clip-rule="evenodd" d="M474.028 133.781C476.894 135.421 476.909 138.103 474.028 139.758L441.359 158.866C438.119 160.515 434.286 160.515 431.046 158.866L398.054 139.941C395.189 138.302 395.173 135.62 398.054 133.965L430.724 114.857C433.963 113.206 437.797 113.206 441.037 114.857L474.028 133.781Z" fill="url(#paint6_linear)"/>
<path fill-rule="evenodd" clip-rule="evenodd" d="M476.174 136.999C476.174 137.076 476.174 137.153 476.174 137.229C476.174 137.306 476.174 137.352 476.174 137.413C476.174 137.474 476.174 137.566 476.174 137.628V137.811L476.067 138.041L475.975 138.21L475.806 138.47L475.683 138.624L475.377 138.961L475.254 139.083L475.025 139.267L474.825 139.436L474.565 139.604L474.289 139.788L441.619 158.897C441.395 159.026 441.165 159.143 440.93 159.249L440.715 159.341L440.148 159.556H439.933L439.55 159.663L439.259 159.74L438.861 159.831H438.585L437.758 159.954H437.497H437.007H435.582H435.244H434.877H434.555H434.172H433.865L433.406 159.847H433.16L432.379 159.586H432.272C431.934 159.451 431.607 159.292 431.291 159.111L398.299 140.187C397.069 139.642 396.238 138.464 396.139 137.122V150.791C396.238 152.133 397.069 153.311 398.299 153.855L431.291 172.78C431.607 172.961 431.934 173.119 432.272 173.255L433.053 173.515H433.237L433.697 173.623H433.819H434.003H434.386H434.54H434.708H435.076H436.838H437.328H437.589L438.416 173.5H438.646L439.045 173.408L439.336 173.332L439.704 173.224H439.78H439.903L440.47 173.01L440.684 172.918C440.92 172.812 441.15 172.695 441.374 172.565L474.044 153.457H474.136L474.32 153.334L474.58 153.166L474.779 152.997L475.009 152.813V152.737L475.316 152.4L475.484 152.139V152.032L475.591 151.802V151.664C475.591 151.664 475.591 151.526 475.591 151.449V151.296C475.591 151.296 475.591 151.143 475.591 151.066C475.591 150.99 475.591 150.959 475.591 150.913C475.591 150.867 475.591 150.913 475.591 150.913V137.03C475.591 137.03 476.174 136.923 476.174 136.999Z" fill="url(#paint7_linear)"/>
<path fill-rule="evenodd" clip-rule="evenodd" d="M435.842 152.599C435.356 152.619 434.872 152.541 434.417 152.369L409.056 137.796C408.732 137.61 408.532 137.266 408.532 136.892C408.532 136.519 408.732 136.174 409.056 135.988L434.141 121.323C434.582 121.158 435.05 121.08 435.52 121.093C436.006 121.073 436.491 121.151 436.945 121.323L462.321 135.881C462.645 136.066 462.845 136.411 462.845 136.785C462.845 137.158 462.645 137.503 462.321 137.689L437.221 152.323C436.784 152.503 436.315 152.597 435.842 152.599Z" fill="url(#paint8_linear)"/>
<path fill-rule="evenodd" clip-rule="evenodd" d="M473.967 108.436C476.833 110.076 476.848 112.757 473.967 114.412L441.297 133.521C438.057 135.169 434.224 135.169 430.984 133.521L397.993 114.596C395.127 112.957 395.112 110.275 397.993 108.62L430.663 89.4962C433.902 87.8451 437.736 87.8451 440.975 89.4962L473.967 108.436Z" fill="url(#paint9_linear)"/>
<path fill-rule="evenodd" clip-rule="evenodd" d="M476.097 111.654C476.097 111.731 476.097 111.807 476.097 111.884C476.097 111.961 476.097 112.007 476.097 112.068C476.097 112.129 476.097 112.221 476.097 112.282V112.466L475.99 112.696L475.898 112.865L475.729 113.125L475.607 113.278L475.3 113.616L475.178 113.738L474.948 113.922L474.749 114.091L474.488 114.259L474.212 114.443L441.542 133.552C441.319 133.681 441.089 133.798 440.853 133.904L440.638 133.996L440.071 134.21H439.857L439.474 134.318L439.183 134.394L438.784 134.486H438.508L437.681 134.609H437.42H436.93H435.505H435.168H434.8H434.478H434.095H433.789L433.329 134.502H433.084L432.302 134.241H432.195C431.858 134.106 431.53 133.947 431.214 133.766L398.223 114.841C396.992 114.297 396.162 113.119 396.062 111.777V125.66C396.162 127.002 396.992 128.18 398.223 128.725L431.214 147.649C431.53 147.83 431.858 147.989 432.195 148.124L432.977 148.385H433.16L433.62 148.492H433.743H433.927H434.31H434.463H434.632H434.999H436.762H437.252H437.512L438.34 148.369H438.57L438.968 148.278L439.259 148.201L439.627 148.094H439.704H439.826L440.393 147.879L440.608 147.787C440.843 147.682 441.074 147.564 441.297 147.435L473.967 128.326H474.059L474.243 128.204L474.504 128.035L474.703 127.866L474.933 127.683V127.606L475.239 127.269L475.408 127.008V126.901L475.515 126.671V126.533C475.515 126.533 475.515 126.395 475.515 126.319V126.166C475.515 126.166 475.515 126.012 475.515 125.936C475.515 125.859 475.515 125.828 475.515 125.782C475.515 125.736 475.515 125.782 475.515 125.782V111.899C475.515 111.899 476.113 111.577 476.097 111.654Z" fill="url(#paint10_linear)"/>
<path fill-rule="evenodd" clip-rule="evenodd" d="M435.765 127.253C435.28 127.273 434.795 127.195 434.34 127.024L408.964 112.482C408.64 112.296 408.44 111.951 408.44 111.577C408.44 111.204 408.64 110.859 408.964 110.673L434.049 96.0087C434.49 95.8434 434.958 95.7654 435.428 95.7788C435.914 95.758 436.399 95.8362 436.853 96.0087L462.229 110.566C462.553 110.752 462.753 111.097 462.753 111.47C462.753 111.844 462.553 112.189 462.229 112.374L437.145 127.039C436.703 127.199 436.235 127.271 435.765 127.253Z" fill="url(#paint11_linear)"/>
<path fill-rule="evenodd" clip-rule="evenodd" d="M473.891 83.0908C476.757 84.7305 476.772 87.4121 473.891 89.067L441.236 108.176C437.996 109.824 434.164 109.824 430.924 108.176L397.932 89.2509C395.066 87.6113 395.051 84.9297 397.932 83.2747L430.602 64.1662C433.841 62.5151 437.675 62.5151 440.915 64.1662L473.891 83.0908Z" fill="url(#paint12_linear)"/>
<path fill-rule="evenodd" clip-rule="evenodd" d="M476.036 86.3088C476.036 86.3855 476.036 86.4621 476.036 86.5387C476.036 86.6153 476.036 86.6613 476.036 86.7226C476.036 86.7839 476.036 86.8758 476.036 86.9371V87.121L475.929 87.3508L475.837 87.5194L475.668 87.7799L475.546 87.9331L475.239 88.2703L475.116 88.3928L474.887 88.5767L474.687 88.7453L474.427 88.9138L474.151 89.0977L441.236 108.176C441.012 108.305 440.782 108.422 440.546 108.528L440.332 108.62L439.765 108.835H439.55L439.167 108.942L438.876 109.018L438.478 109.11H438.202L437.374 109.233H437.114H436.624H435.198H434.861H434.494H434.172H433.789H433.482L433.022 109.126H432.777L431.996 108.865H431.889C431.551 108.73 431.223 108.571 430.908 108.39L397.916 89.4655C396.686 88.9208 395.855 87.7427 395.755 86.4008V100.223C395.855 101.565 396.686 102.743 397.916 103.287L430.908 122.212C431.223 122.393 431.551 122.552 431.889 122.687L432.67 122.948H432.854L433.314 123.055H433.436H433.62H434.003H434.156H434.325H434.693H436.639H437.129H437.39L438.217 122.932H438.447L438.845 122.84L439.137 122.764L439.504 122.656H439.581H439.704L440.271 122.442L440.485 122.35C440.721 122.244 440.951 122.127 441.175 121.998L473.845 102.889H473.937L474.12 102.766L474.381 102.598L474.58 102.429L474.81 102.245V102.169L475.116 101.832L475.285 101.571V101.464L475.392 101.234V101.096C475.392 101.096 475.392 100.958 475.392 100.882V100.728C475.392 100.728 475.392 100.575 475.392 100.498C475.392 100.422 475.392 100.391 475.392 100.345C475.392 100.299 475.392 100.345 475.392 100.345V86.4621C475.392 86.4621 476.036 86.2322 476.036 86.3088Z" fill="url(#paint13_linear)"/>
<path fill-rule="evenodd" clip-rule="evenodd" d="M435.704 101.908C435.218 101.928 434.734 101.85 434.279 101.678L408.903 87.121C408.579 86.9353 408.379 86.5904 408.379 86.2169C408.379 85.8434 408.579 85.4985 408.903 85.3128L433.988 70.6481C434.428 70.4829 434.897 70.4048 435.367 70.4182C435.853 70.3975 436.338 70.4757 436.792 70.6481L462.168 85.2055C462.492 85.3912 462.692 85.7361 462.692 86.1096C462.692 86.4831 462.492 86.828 462.168 87.0137L437.083 101.755C436.638 101.894 436.169 101.946 435.704 101.908Z" fill="#DDDCF9"/>
<path fill-rule="evenodd" clip-rule="evenodd" d="M415.492 -9.84676L415.753 85.1596C415.751 85.4325 415.898 85.6848 416.136 85.8185L434.616 96.4224C435.278 96.6432 435.993 96.6432 436.654 96.4224L454.92 85.6959C455.162 85.553 455.304 85.2869 455.288 85.0063L455.027 -10L415.492 -9.84676Z" fill="url(#paint14_linear)"/>
<path fill-rule="evenodd" clip-rule="evenodd" d="M408.198 20.6778L408.382 86.2169C408.384 86.5852 408.583 86.9243 408.903 87.1057L434.279 101.663C435.189 101.968 436.173 101.968 437.083 101.663L462.168 86.9984C462.508 86.8066 462.71 86.4384 462.689 86.0483L462.505 20.5399L408.198 20.6778Z" fill="url(#paint15_linear)"/>
<path fill-rule="evenodd" clip-rule="evenodd" d="M455.671 65.714C455.671 65.4177 455.671 65.1215 455.671 64.8252C455.671 64.5289 455.671 64.2276 455.671 63.9211C455.671 63.6146 455.635 63.3082 455.564 63.0017C455.492 62.6952 455.446 62.3785 455.426 62.0516C455.426 61.8065 455.385 61.5562 455.303 61.3008V61.0862C455.242 60.7593 455.175 60.4324 455.104 60.1055C455.032 59.7786 454.956 59.4466 454.874 59.1095C454.792 58.7826 454.705 58.4506 454.613 58.1135C454.522 57.7763 454.424 57.4494 454.322 57.1327L454.016 56.1674L453.694 55.2326L453.357 54.3285L453.004 53.4398L452.621 52.551L452.223 51.6775L451.748 50.7122L451.181 49.6242C450.885 49.0623 450.573 48.5107 450.246 47.9692C449.756 47.1418 449.245 46.3347 448.714 45.5481C448.367 45.0373 448.009 44.5265 447.641 44.0157L446.86 43.0044L446.14 42.1156L445.419 41.2728L444.684 40.4607L443.918 39.6638L443.121 38.8823L442.293 38.1162L441.466 37.3959L440.638 36.7217L439.811 36.0934L439.014 35.5418L438.233 35.0361L437.466 34.5764L437.282 34.4691L436.7 34.1473L435.949 33.7643L435.198 33.4118L434.448 33.09L433.697 32.8142L432.992 32.5843L432.21 32.3698L431.429 32.2012L430.617 32.0633L429.789 31.9867H428.931H427.966C427.611 32.019 427.258 32.0702 426.908 32.1399C426.471 32.2265 426.041 32.3443 425.621 32.4924C425.09 32.673 424.577 32.9039 424.089 33.182L418.251 36.5838C418.738 36.3058 419.251 36.0749 419.783 35.8942C420.203 35.7461 420.633 35.6284 421.07 35.5418C421.42 35.4721 421.773 35.4209 422.127 35.3886H423.093H423.951L424.778 35.4652L425.591 35.6031L426.372 35.7716L427.154 35.9862L427.858 36.216L428.609 36.4919L429.36 36.8136L430.111 37.1661L430.862 37.5492L431.444 37.871L431.628 37.9782L432.394 38.438L433.176 38.959L433.973 39.5106L434.8 40.1389L435.628 40.8131L436.455 41.5333L437.282 42.2995L438.079 43.081L438.845 43.8778L439.581 44.69L440.301 45.5328L441.021 46.4215L441.803 47.4329C442.171 47.9233 442.528 48.434 442.876 48.9653C443.407 49.7519 443.918 50.5589 444.408 51.3864C444.735 51.9278 445.046 52.4795 445.343 53.0413L445.91 54.1293L446.385 55.0947L446.783 55.9682L447.166 56.8569L447.519 57.7457L447.856 58.6498L448.178 59.5845L448.484 60.5499C448.586 60.8768 448.683 61.2037 448.775 61.5306C448.867 61.8575 448.954 62.1895 449.036 62.5267C449.117 62.8536 449.194 63.1856 449.266 63.5227C449.337 63.8598 449.403 64.1867 449.465 64.5034V64.7179C449.465 64.9631 449.506 65.2134 449.587 65.4688C449.669 65.7242 449.715 66.0409 449.725 66.4189C449.725 66.7253 449.761 67.0318 449.832 67.3383C449.904 67.6447 449.904 67.9461 449.832 68.2424C449.832 68.5386 449.832 68.8349 449.832 69.1311C449.832 69.4274 449.832 69.7185 449.832 70.0046C449.832 70.3008 449.832 70.592 449.832 70.878C449.832 71.1641 449.832 71.4501 449.832 71.7361C449.832 72.0324 449.802 72.3287 449.741 72.6249C449.679 72.9212 449.638 73.2123 449.618 73.4984C449.567 73.815 449.506 74.1215 449.434 74.4178C449.363 74.714 449.281 75.0307 449.189 75.3678C449.087 75.705 448.979 76.0319 448.867 76.3486C448.755 76.6652 448.607 77.0228 448.423 77.4212C448.215 77.8645 447.979 78.2944 447.718 78.7084C446.92 80.0029 445.821 81.0857 444.515 81.865L450.17 78.5551C451.475 77.7758 452.574 76.693 453.372 75.3985C453.634 74.9845 453.869 74.5546 454.077 74.1113C454.241 73.764 454.389 73.4064 454.522 73.0387C454.654 72.6709 454.762 72.344 454.843 72.0579C454.935 71.7515 455.012 71.4297 455.088 71.1079C455.165 70.7861 455.211 70.5103 455.272 70.1885C455.334 69.8667 455.364 69.6062 455.395 69.315C455.426 69.0239 455.395 68.7327 455.487 68.4262C455.579 68.1198 455.487 67.8593 455.487 67.5681C455.487 67.277 455.487 66.9858 455.487 66.6947C455.487 66.4035 455.671 66.0051 455.671 65.714Z" fill="url(#paint16_linear)"/>
<path fill-rule="evenodd" clip-rule="evenodd" d="M431.46 37.8556C439.872 42.6825 447.503 53.6695 449.526 64.6412C451.886 77.4518 445.695 85.3894 435.735 82.3553C434.243 81.8901 432.809 81.2579 431.46 80.4705C423.047 75.6436 415.416 64.6566 413.393 53.6849C411.033 40.8743 417.224 32.952 427.184 35.9708C428.676 36.4359 430.11 37.0682 431.46 37.8556Z" fill="url(#paint17_linear)"/>
<path fill-rule="evenodd" clip-rule="evenodd" d="M431.536 41.2115C438.662 45.3029 445.113 54.589 446.86 63.8751C448.852 74.7089 443.611 81.4206 435.168 78.8616C433.904 78.4889 432.685 77.9749 431.536 77.3292C424.411 73.2378 417.959 63.9517 416.213 54.6656C414.22 43.8318 419.461 37.1201 427.904 39.6791C429.169 40.0517 430.387 40.5658 431.536 41.2115Z" fill="white"/>
<path fill-rule="evenodd" clip-rule="evenodd" d="M431.536 42.1769C438.278 46.0384 444.377 54.8342 446.002 63.6299C447.886 73.8814 442.937 80.2254 434.938 77.8196C433.739 77.4404 432.588 76.9263 431.505 76.2872C424.763 72.4257 418.664 63.6299 417.04 54.8342C415.155 44.5827 420.105 38.2234 428.104 40.6445C429.302 41.0236 430.454 41.5377 431.536 42.1769Z" fill="url(#paint18_linear)"/>
<path fill-rule="evenodd" clip-rule="evenodd" d="M438.57 65.9591C438.721 66.9273 438.626 67.918 438.294 68.8399C438.093 69.2854 437.723 69.6327 437.266 69.8052C436.809 69.9777 436.302 69.9612 435.857 69.7593C435.343 69.6002 434.811 69.3839 434.275 69.1663L434.275 69.1663C433.934 69.0277 433.592 68.8885 433.252 68.7633H433.099V72.2418L431.276 71.1998V67.7366L429.743 66.8479V70.3416L427.92 69.2996V65.7446L424.273 63.446L424.273 63.4459L424.273 63.4459C424.395 62.6797 424.518 61.9136 424.64 61.1781L425.851 61.8677C426.418 62.1895 426.663 62.0822 426.663 61.4233V52.4896C426.672 51.7819 426.304 51.1228 425.698 50.7581L425.008 50.3443L424.288 49.9153V47.6934L427.981 49.8387V46.3908L429.789 47.4175V50.8194L431.322 51.6622V48.2603L433.145 49.3023V52.7808C433.478 53.0228 433.797 53.2648 434.134 53.5199L434.134 53.5201C434.309 53.6526 434.489 53.7886 434.677 53.9301C435.391 54.5249 436.025 55.21 436.562 55.9681C437.987 57.9602 438.095 61.5152 436.21 61.5459H436.103C436.181 61.627 436.258 61.7064 436.334 61.7848C436.661 62.1214 436.969 62.4391 437.267 62.7871C438.003 63.6936 438.456 64.7968 438.57 65.9591ZM433.973 66.0816C434.647 66.0816 435.045 65.8058 435.061 64.9324C435.03 64.0245 434.651 63.1631 434.003 62.5266C433.165 61.648 432.193 60.9083 431.122 60.3353L429.942 59.6764V64.2735L430.08 64.3501L430.862 64.8098C431.81 65.4429 432.88 65.8709 434.003 66.0663L433.973 66.0816ZM430.004 57.4851V53.3477H430.034L431.076 53.93C431.91 54.3771 432.666 54.9568 433.314 55.6463C433.942 56.2517 434.296 57.0874 434.294 57.9601C434.248 58.7416 433.85 59.1094 433.114 58.9562C432.339 58.7697 431.599 58.4592 430.923 58.0367L430.004 57.4851Z" fill="white"/>
<path fill-rule="evenodd" clip-rule="evenodd" d="M404.046 199.826C406.911 201.466 406.926 204.147 404.046 205.802L371.376 224.911C368.136 226.559 364.303 226.559 361.063 224.911L328.071 205.986C325.206 204.347 325.19 201.665 328.071 200.01L360.741 180.901C363.98 179.25 367.815 179.25 371.054 180.901L404.046 199.826Z" fill="url(#paint19_linear)"/>
<path fill-rule="evenodd" clip-rule="evenodd" d="M406.191 203.075C406.191 203.151 406.191 203.228 406.191 203.305C406.191 203.381 406.191 203.427 406.191 203.488C406.191 203.55 406.191 203.642 406.191 203.703V203.887L406.084 204.117L405.992 204.285L405.823 204.546L405.701 204.699L405.394 205.036L405.271 205.159L405.042 205.343L404.842 205.511L404.582 205.68L404.306 205.864L371.636 224.972C371.412 225.101 371.182 225.219 370.947 225.325L370.732 225.417L370.165 225.631H369.951L369.567 225.738L369.276 225.815L368.878 225.907H368.602L367.775 226.029H367.514H367.024H365.599H365.262H364.894H364.572H364.189H363.882L363.423 225.922H363.178L362.396 225.662H362.289C361.951 225.526 361.624 225.367 361.308 225.187L328.316 206.262C327.086 205.717 326.255 204.539 326.156 203.197V217.081C326.255 218.422 327.086 219.6 328.316 220.145L361.308 239.07C361.624 239.251 361.951 239.409 362.289 239.545L363.07 239.805H363.254L363.714 239.913H363.836H364.02H364.403H364.557H364.725H365.093H366.855H367.346H367.606L368.434 239.79H368.663L369.062 239.698L369.353 239.622L369.721 239.514H369.797H369.92L370.487 239.3L370.701 239.208C370.937 239.102 371.167 238.985 371.391 238.855L404.107 219.747H404.199L404.383 219.624L404.643 219.456L404.842 219.287L405.072 219.103V219.027L405.379 218.689L405.547 218.429V218.322L405.655 218.092V217.954C405.655 217.954 405.655 217.816 405.655 217.739V217.586C405.655 217.586 405.655 217.433 405.655 217.356C405.655 217.28 405.655 217.249 405.655 217.203C405.655 217.157 405.655 217.203 405.655 217.203V202.891C405.655 202.891 406.206 202.998 406.191 203.075Z" fill="url(#paint20_linear)"/>
<path fill-rule="evenodd" clip-rule="evenodd" d="M365.859 218.674C365.374 218.694 364.889 218.616 364.434 218.444L339.058 203.887C338.734 203.701 338.534 203.356 338.534 202.983C338.534 202.609 338.734 202.264 339.058 202.079L364.143 187.414C364.583 187.249 365.052 187.171 365.522 187.184C366.008 187.163 366.493 187.242 366.947 187.414L392.323 201.971C392.647 202.157 392.847 202.502 392.847 202.876C392.847 203.249 392.647 203.594 392.323 203.78L367.238 218.444C366.798 218.609 366.329 218.687 365.859 218.674Z" fill="url(#paint21_linear)"/>
<path fill-rule="evenodd" clip-rule="evenodd" d="M403.985 174.527C406.85 176.166 406.866 178.848 403.985 180.503L371.361 199.596C368.121 201.245 364.288 201.245 361.048 199.596L328.056 180.672C325.191 179.032 325.175 176.35 328.056 174.695L360.726 155.587C363.966 153.936 367.8 153.936 371.039 155.587L403.985 174.527Z" fill="url(#paint22_linear)"/>
<path fill-rule="evenodd" clip-rule="evenodd" d="M406.13 177.729C406.13 177.806 406.13 177.883 406.13 177.959C406.13 178.036 406.13 178.082 406.13 178.143C406.13 178.205 406.13 178.296 406.13 178.358V178.542L406.022 178.772L405.93 178.94L405.762 179.201L405.639 179.354L405.333 179.691L405.21 179.814L404.98 179.997L404.781 180.166L404.521 180.335L404.245 180.518L371.36 199.596C371.137 199.725 370.906 199.843 370.671 199.949L370.456 200.041L369.889 200.255H369.675L369.292 200.362L369.001 200.439L368.602 200.531H368.326L367.499 200.654H367.238H366.748H365.323H364.986H364.618H364.296H363.913H363.607L363.147 200.546H362.902L362.12 200.286H362.013C361.675 200.15 361.348 199.992 361.032 199.811L328.041 180.886C326.81 180.341 325.98 179.163 325.88 177.821V191.705C325.98 193.047 326.81 194.225 328.041 194.769L361.032 213.694C361.348 213.875 361.675 214.033 362.013 214.169L362.794 214.43H362.978L363.438 214.537H363.561H363.745H364.128H364.281H364.618H364.986H366.748H367.238H367.499L368.326 214.414H368.556L368.955 214.322L369.246 214.246L369.613 214.138H369.69H369.813L370.38 213.924L370.594 213.832C370.83 213.726 371.06 213.609 371.284 213.479L403.954 194.371H404.046L404.229 194.248L404.49 194.08L404.689 193.911L404.919 193.727V193.651L405.226 193.314L405.394 193.053V192.946L405.501 192.716V192.578C405.501 192.578 405.501 192.44 405.501 192.364V192.21C405.501 192.21 405.501 192.057 405.501 191.98C405.501 191.904 405.501 191.873 405.501 191.827C405.501 191.781 405.501 191.827 405.501 191.827V177.944C405.501 177.944 406.13 177.668 406.13 177.729Z" fill="url(#paint23_linear)"/>
<path fill-rule="evenodd" clip-rule="evenodd" d="M365.798 193.344C365.312 193.364 364.827 193.286 364.373 193.114L338.997 178.557C338.673 178.371 338.473 178.026 338.473 177.653C338.473 177.279 338.673 176.935 338.997 176.749L364.082 162.084C364.522 161.919 364.99 161.841 365.461 161.854C365.946 161.833 366.431 161.912 366.886 162.084L392.262 176.642C392.586 176.827 392.786 177.172 392.786 177.546C392.786 177.919 392.586 178.264 392.262 178.45L367.177 193.114C366.736 193.279 366.268 193.357 365.798 193.344Z" fill="url(#paint24_linear)"/>
<path fill-rule="evenodd" clip-rule="evenodd" d="M403.909 149.182C406.774 150.821 406.789 153.503 403.909 155.158L371.239 174.266C367.999 175.915 364.166 175.915 360.926 174.266L327.98 155.388C325.115 153.748 325.099 151.066 327.98 149.411L360.65 130.303C363.889 128.652 367.723 128.652 370.963 130.303L403.909 149.182Z" fill="url(#paint25_linear)"/>
<path fill-rule="evenodd" clip-rule="evenodd" d="M405.992 152.323C405.992 152.4 405.992 152.476 405.992 152.553C405.992 152.629 405.992 152.675 405.992 152.737C405.992 152.798 405.992 152.89 405.992 152.951V153.135L405.884 153.365L405.792 153.533L405.624 153.794L405.501 153.947L405.195 154.284L405.072 154.407L404.842 154.591L404.643 154.759L404.383 154.928L404.107 155.112L371.437 174.22C371.213 174.349 370.983 174.467 370.747 174.573L370.533 174.665L369.966 174.879H369.751L369.368 174.987L369.077 175.063L368.679 175.155H368.403L367.575 175.278H367.315H366.825H365.399H365.062H364.695H364.373H363.99H363.683L363.224 175.17H362.978L362.197 174.91H362.09C361.752 174.774 361.424 174.616 361.109 174.435L327.979 155.388C326.749 154.843 325.918 153.665 325.819 152.323V166.206C325.918 167.548 326.749 168.726 327.979 169.271L360.971 188.195C361.287 188.376 361.614 188.535 361.952 188.671L362.733 188.931H362.917L363.377 189.038H363.499H363.683H364.066H364.22H364.618H364.986H366.748H367.238H367.499L368.326 188.916H368.556L368.955 188.824L369.246 188.747L369.613 188.64H369.69H369.813L370.38 188.425L370.594 188.333C370.83 188.228 371.06 188.11 371.284 187.981L403.954 168.872H404.046L404.229 168.75L404.49 168.581L404.689 168.413L404.919 168.229V168.152L405.226 167.815L405.394 167.555V167.447L405.501 167.217V167.08C405.501 167.08 405.501 166.942 405.501 166.865V166.712C405.501 166.712 405.501 166.559 405.501 166.482C405.501 166.405 405.501 166.375 405.501 166.329C405.501 166.283 405.501 166.329 405.501 166.329V152.446L405.992 152.323Z" fill="url(#paint26_linear)"/>
<path fill-rule="evenodd" clip-rule="evenodd" d="M365.721 167.999C365.236 168.019 364.751 167.941 364.296 167.769L338.92 153.212C338.596 153.026 338.396 152.681 338.396 152.308C338.396 151.934 338.596 151.589 338.92 151.404L364.005 136.739C364.445 136.574 364.914 136.496 365.384 136.509C365.87 136.488 366.355 136.566 366.809 136.739L392.185 151.296C392.509 151.482 392.709 151.827 392.709 152.2C392.709 152.574 392.509 152.919 392.185 153.104L367.1 167.769C366.66 167.934 366.191 168.012 365.721 167.999Z" fill="#DDDCF9"/>
<path fill-rule="evenodd" clip-rule="evenodd" d="M345.509 56.244L345.77 151.25C345.768 151.523 345.915 151.776 346.153 151.909L364.618 162.452C365.279 162.673 365.995 162.673 366.656 162.452L384.922 151.725C385.164 151.582 385.306 151.316 385.289 151.036L385.029 56.0294L345.509 56.244Z" fill="url(#paint27_linear)"/>
<path fill-rule="evenodd" clip-rule="evenodd" d="M338.215 86.7532L338.399 152.292C338.401 152.661 338.6 153 338.92 153.181L364.296 167.738C365.206 168.043 366.19 168.043 367.1 167.738L392.2 153.104C392.541 152.913 392.743 152.544 392.721 152.154L392.538 86.6153L338.215 86.7532Z" fill="url(#paint28_linear)"/>
<path fill-rule="evenodd" clip-rule="evenodd" d="M385.657 131.452C385.657 131.156 385.657 130.86 385.657 130.563C385.657 130.267 385.657 129.971 385.657 129.675C385.657 129.368 385.622 129.062 385.55 128.755C385.478 128.449 385.433 128.132 385.412 127.805C385.412 127.56 385.371 127.31 385.289 127.054V126.84C385.228 126.513 385.162 126.186 385.09 125.859C385.019 125.532 384.942 125.2 384.86 124.863C384.779 124.536 384.692 124.204 384.6 123.867C384.508 123.53 384.411 123.203 384.309 122.886L384.002 121.921L383.681 120.986L383.343 120.082L382.991 119.193L382.608 118.305L382.209 117.431L381.734 116.466L381.167 115.378C380.871 114.816 380.56 114.264 380.233 113.723C379.742 112.895 379.232 112.088 378.7 111.302C378.353 110.791 377.995 110.28 377.628 109.769L376.846 108.758L376.126 107.869L375.406 107.026L374.67 106.214L373.904 105.417L373.107 104.636L372.28 103.87L371.452 103.149L370.625 102.475L369.797 101.847L369 101.295L368.219 100.79L367.453 100.33L367.269 100.223L366.687 99.9009L365.936 99.5178L365.185 99.1654L364.434 98.8436L363.683 98.5677L362.978 98.3379L362.197 98.1233L361.415 97.9548L360.603 97.8169L359.776 97.7403H358.918H357.952C357.597 97.7725 357.244 97.8237 356.895 97.8935C356.458 97.98 356.028 98.0977 355.608 98.2459C355.076 98.4266 354.563 98.6575 354.075 98.9355L348.421 102.245C348.909 101.967 349.422 101.737 349.953 101.556C350.373 101.408 350.803 101.29 351.24 101.203C351.59 101.134 351.943 101.082 352.298 101.05H353.263H354.121L354.949 101.127L355.761 101.265L356.542 101.433L357.324 101.648L357.554 101.724L358.78 102.153L359.531 102.475L360.281 102.828L361.032 103.211L361.615 103.533L361.798 103.64L362.565 104.1L363.346 104.605L364.143 105.157L364.97 105.785L365.798 106.459L366.625 107.18L367.453 107.946L368.25 108.727L369.016 109.524L369.751 110.336L370.472 111.179L371.192 112.068L371.973 113.079C372.341 113.57 372.699 114.08 373.046 114.612C373.577 115.398 374.088 116.205 374.578 117.033C374.905 117.574 375.217 118.126 375.513 118.688L376.08 119.776L376.555 120.741L376.953 121.614L377.337 122.503L377.689 123.392L378.026 124.296L378.348 125.231L378.654 126.196C378.757 126.523 378.854 126.85 378.946 127.177C379.037 127.504 379.124 127.836 379.206 128.173C379.288 128.5 379.364 128.832 379.436 129.169C379.507 129.506 379.574 129.833 379.635 130.15V130.364C379.635 130.609 379.676 130.86 379.758 131.115C379.839 131.37 379.885 131.687 379.896 132.065C379.896 132.372 379.931 132.678 380.003 132.985C380.074 133.291 380.074 133.587 380.003 133.873C380.003 134.17 380.003 134.466 380.003 134.762C380.003 135.058 380.003 135.349 380.003 135.636C380.003 135.932 380.003 136.223 380.003 136.509C380.003 136.795 380.003 137.081 380.003 137.367C380.003 137.663 379.972 137.96 379.911 138.256C379.85 138.552 379.809 138.843 379.788 139.129C379.737 139.446 379.676 139.752 379.604 140.049C379.533 140.345 379.451 140.662 379.359 140.999C379.257 141.336 379.15 141.663 379.037 141.98C378.925 142.296 378.777 142.654 378.593 143.052C378.385 143.495 378.15 143.925 377.888 144.339C377.09 145.634 375.991 146.717 374.686 147.496L380.34 144.186C381.646 143.407 382.744 142.324 383.543 141.029C383.804 140.615 384.04 140.186 384.247 139.742C384.411 139.395 384.559 139.037 384.692 138.67C384.825 138.302 384.932 137.975 385.014 137.689C385.106 137.382 385.187 137.066 385.259 136.739C385.259 136.432 385.381 136.141 385.443 135.819C385.504 135.498 385.535 135.237 385.565 134.946C385.596 134.655 385.565 134.364 385.657 134.057C385.749 133.751 385.657 133.49 385.657 133.199C385.657 132.908 385.657 132.617 385.657 132.326C385.657 132.034 385.673 131.743 385.657 131.452Z" fill="url(#paint29_linear)"/>
<path fill-rule="evenodd" clip-rule="evenodd" d="M361.461 103.594C369.874 108.421 377.505 119.408 379.528 130.38C381.888 143.19 375.697 151.128 365.737 148.094C364.245 147.628 362.811 146.996 361.461 146.209C353.049 141.382 345.417 130.395 343.395 119.423C341.035 106.613 347.226 98.6903 357.186 101.709C358.678 102.174 360.112 102.807 361.461 103.594Z" fill="url(#paint30_linear)"/>
<path fill-rule="evenodd" clip-rule="evenodd" d="M361.553 106.934C368.679 111.026 375.13 120.312 376.877 129.598C378.869 140.432 373.628 147.144 365.185 144.585C363.921 144.212 362.702 143.698 361.553 143.052C354.428 138.961 347.977 129.675 346.23 120.389C344.238 109.555 349.478 102.843 357.922 105.402C359.186 105.775 360.404 106.289 361.553 106.934Z" fill="white"/>
<path fill-rule="evenodd" clip-rule="evenodd" d="M361.553 107.884C368.296 111.746 374.394 120.542 376.019 129.338C377.903 139.589 372.954 145.933 364.955 143.527C363.757 143.148 362.605 142.634 361.523 141.995C354.78 138.133 348.681 129.338 347.057 120.542C345.172 110.29 350.122 103.931 358.121 106.352C359.319 106.731 360.471 107.245 361.553 107.884Z" fill="url(#paint31_linear)"/>
<path fill-rule="evenodd" clip-rule="evenodd" d="M353.018 114.32L360.787 122.687L360.802 135.161L353.018 126.779V114.32Z" fill="white"/>
<path fill-rule="evenodd" clip-rule="evenodd" d="M369.859 124.327V136.8L362.074 128.418V122.917L369.859 124.327Z" fill="white"/>
<path fill-rule="evenodd" clip-rule="evenodd" d="M362.074 114.903L369.859 123.285L360.802 121.66L353.018 113.278L362.074 114.903Z" fill="white"/>
<path fill-rule="evenodd" clip-rule="evenodd" d="M333.971 240.556C336.836 242.196 336.852 244.877 333.971 246.532L301.331 265.641C298.092 267.29 294.259 267.29 291.019 265.641L258.027 246.716C255.161 245.077 255.146 242.395 258.027 240.74L290.697 221.632C293.936 219.98 297.77 219.98 301.01 221.632L333.971 240.556Z" fill="url(#paint32_linear)"/>
<path fill-rule="evenodd" clip-rule="evenodd" d="M336.101 243.774C336.101 243.851 336.101 243.927 336.101 244.004C336.101 244.081 336.101 244.127 336.101 244.188C336.101 244.249 336.101 244.341 336.101 244.402V244.586L335.993 244.816L335.902 244.985L335.733 245.245L335.61 245.398L335.304 245.736L335.181 245.858L334.951 246.042L334.752 246.211L334.492 246.379L334.216 246.563L301.331 265.641C301.108 265.77 300.878 265.888 300.642 265.993L300.427 266.085L299.86 266.3H299.646L299.263 266.407L298.972 266.484L298.573 266.576H298.297L297.47 266.698H297.194H296.704H295.279H294.942H294.574H294.252H293.869H293.562L293.103 266.591H292.858L292.076 266.331H291.969C291.654 266.147 291.352 265.943 291.065 265.718L258.073 246.793C256.842 246.248 256.012 245.07 255.912 243.728V257.611C256.012 258.953 256.842 260.131 258.073 260.676L291.065 279.509C291.38 279.69 291.708 279.848 292.045 279.984L292.827 280.244H293.011L293.47 280.352H293.593H293.777H294.16H294.313H294.482H294.85H296.612H297.102H297.363L298.19 280.229H298.42L298.818 280.137L299.11 280.06L299.477 279.953H299.554H299.677L300.243 279.739L300.458 279.647C300.694 279.541 300.924 279.423 301.148 279.294L333.971 260.416H334.063L334.247 260.293L334.507 260.124L334.706 259.956L334.936 259.772V259.695L335.243 259.358L335.411 259.098V258.991L335.518 258.761V258.623C335.518 258.623 335.518 258.485 335.518 258.408V258.255C335.518 258.255 335.518 258.102 335.518 258.025C335.518 257.949 335.518 257.918 335.518 257.872C335.518 257.826 335.518 257.872 335.518 257.872V243.989C335.518 243.989 336.101 243.698 336.101 243.774Z" fill="url(#paint33_linear)"/>
<path fill-rule="evenodd" clip-rule="evenodd" d="M295.769 259.374C295.283 259.394 294.799 259.315 294.344 259.144L268.968 244.586C268.644 244.401 268.444 244.056 268.444 243.682C268.444 243.309 268.644 242.964 268.968 242.778L294.053 228.113C294.493 227.948 294.962 227.87 295.432 227.884C295.918 227.863 296.402 227.941 296.857 228.113L322.233 242.671C322.557 242.857 322.757 243.202 322.757 243.575C322.757 243.948 322.557 244.293 322.233 244.479L297.194 259.144C296.739 259.315 296.255 259.393 295.769 259.374Z" fill="url(#paint34_linear)"/>
<path fill-rule="evenodd" clip-rule="evenodd" d="M333.88 215.15C336.745 216.789 336.761 219.471 333.88 221.126L301.21 240.235C297.97 241.883 294.137 241.883 290.897 240.235L257.967 221.402C255.101 219.762 255.086 217.081 257.967 215.426L290.637 196.317C293.876 194.666 297.71 194.666 300.949 196.317L333.88 215.15Z" fill="url(#paint35_linear)"/>
<path fill-rule="evenodd" clip-rule="evenodd" d="M336.024 218.429C336.024 218.506 336.024 218.582 336.024 218.659C336.024 218.736 336.024 218.782 336.024 218.843C336.024 218.904 336.024 218.996 336.024 219.057V219.241L335.917 219.471L335.825 219.64L335.656 219.9L335.534 220.053L335.227 220.39L335.105 220.513L334.875 220.697L334.676 220.866L334.415 221.034L334.139 221.218L301.469 240.327C301.246 240.456 301.015 240.573 300.78 240.679L300.565 240.771L299.998 240.985H299.784L299.401 241.093L299.11 241.169L298.711 241.261H298.435L297.608 241.384H297.194H296.704H295.279H294.942H294.574H294.252H293.869H293.562L293.103 241.277H292.858L292.076 241.016H291.969C291.631 240.881 291.304 240.722 290.988 240.541L257.966 221.402C256.735 220.857 255.905 219.679 255.805 218.337V232.22C255.905 233.562 256.735 234.74 257.966 235.285L290.957 254.21C291.273 254.39 291.601 254.549 291.938 254.685L292.72 254.945H292.904L293.363 255.052H293.486H293.67H294.053H294.206H294.375H294.742H296.505H296.995H297.255L298.083 254.93H298.313L298.711 254.838L299.002 254.761L299.37 254.654H299.447H299.569L300.136 254.44L300.351 254.348C300.587 254.242 300.817 254.124 301.04 253.995L333.971 235.071H334.063L334.247 234.948L334.507 234.779L334.706 234.611L334.936 234.427V234.35L335.243 234.013L335.411 233.753V233.645L335.518 233.416V233.278C335.518 233.278 335.518 233.14 335.518 233.063V232.91C335.518 232.91 335.518 232.757 335.518 232.68C335.518 232.603 335.518 232.573 335.518 232.527C335.518 232.481 335.518 232.527 335.518 232.527V218.215C335.518 218.215 336.039 218.368 336.024 218.429Z" fill="url(#paint36_linear)"/>
<path fill-rule="evenodd" clip-rule="evenodd" d="M295.662 234.028C295.176 234.048 294.691 233.97 294.237 233.799L268.861 219.241C268.537 219.055 268.337 218.711 268.337 218.337C268.337 217.964 268.537 217.619 268.861 217.433L293.945 202.768C294.386 202.603 294.854 202.525 295.325 202.538C295.81 202.518 296.295 202.596 296.75 202.768L322.126 217.326C322.45 217.511 322.65 217.856 322.65 218.23C322.65 218.603 322.45 218.948 322.126 219.134L297.041 233.799C296.6 233.963 296.132 234.041 295.662 234.028Z" fill="#DDDCF9"/>
<path fill-rule="evenodd" clip-rule="evenodd" d="M275.481 122.289L275.741 217.295C275.739 217.568 275.886 217.82 276.124 217.954L294.604 228.558C295.266 228.779 295.981 228.779 296.642 228.558L314.908 217.831C315.15 217.688 315.292 217.422 315.276 217.142L315.015 122.135L275.481 122.289Z" fill="url(#paint37_linear)"/>
<path fill-rule="evenodd" clip-rule="evenodd" d="M268.187 152.798L268.37 218.337C268.372 218.705 268.571 219.044 268.891 219.226L294.267 233.783C295.177 234.088 296.162 234.088 297.072 233.783L322.156 219.119C322.497 218.927 322.698 218.558 322.677 218.168L322.493 152.629L268.187 152.798Z" fill="url(#paint38_linear)"/>
<path fill-rule="evenodd" clip-rule="evenodd" d="M315.72 197.849C315.72 197.553 315.72 197.257 315.72 196.961C315.72 196.664 315.72 196.368 315.72 196.072C315.72 195.765 315.685 195.459 315.613 195.152C315.542 194.846 315.496 194.529 315.475 194.202C315.475 193.957 315.434 193.707 315.353 193.452V193.237C315.291 192.91 315.225 192.583 315.153 192.256C315.082 191.929 315.005 191.597 314.923 191.26C314.842 190.933 314.755 190.601 314.663 190.264C314.571 189.927 314.474 189.6 314.372 189.284L314.065 188.318L313.744 187.383L313.406 186.479L313.054 185.591L312.671 184.702L312.272 183.828L311.797 182.863L311.23 181.775C310.934 181.213 310.623 180.661 310.296 180.12C309.805 179.293 309.295 178.485 308.763 177.699C308.416 177.188 308.058 176.677 307.691 176.167L306.909 175.155L306.189 174.266L305.469 173.424L304.733 172.611L303.967 171.815L303.17 171.033L302.343 170.267L301.515 169.547L300.688 168.872L299.86 168.244L299.064 167.693L298.282 167.187L297.516 166.727L297.332 166.62L296.75 166.298L295.999 165.915C295.784 165.808 294.298 165.21 293.731 164.98H293.547L293.072 164.827L292.291 164.613L291.509 164.444L290.697 164.306L289.869 164.229H289.011H288.046C287.691 164.262 287.338 164.313 286.989 164.383C286.552 164.469 286.121 164.587 285.701 164.735C285.17 164.916 284.657 165.147 284.169 165.425L278.515 168.735C279.002 168.457 279.515 168.226 280.047 168.045C280.467 167.897 280.897 167.779 281.334 167.693C281.684 167.623 282.037 167.572 282.391 167.539H283.357H284.215L285.042 167.616L285.855 167.754L286.636 167.922L287.418 168.137L288.122 168.367C286.789 168.183 288.628 168.551 288.873 168.643L289.624 168.964L290.375 169.317L291.126 169.7L291.708 170.022L291.892 170.129L292.658 170.589L293.44 171.094L294.237 171.646L295.064 172.274L295.892 172.949L296.719 173.669L297.547 174.435L298.343 175.216L299.11 176.013L299.845 176.825L300.565 177.668L301.285 178.557L302.067 179.568C302.435 180.059 302.792 180.569 303.14 181.101C303.671 181.887 304.182 182.694 304.672 183.522C304.999 184.063 305.31 184.615 305.607 185.177L306.174 186.265L306.649 187.23L307.047 188.104L307.43 188.992L307.783 189.881L308.12 190.785L308.442 191.72C308.554 192.037 308.656 192.358 308.748 192.685C308.84 193.012 308.937 193.339 309.039 193.666C309.131 193.993 309.218 194.325 309.3 194.662C309.381 194.999 309.458 195.331 309.53 195.658C309.601 195.985 309.667 196.312 309.729 196.639V196.853C309.729 197.099 309.77 197.349 309.851 197.604C309.933 197.86 309.979 198.176 309.989 198.554C309.989 198.861 310.025 199.167 310.097 199.474C310.168 199.78 310.168 200.076 310.097 200.362C310.097 200.659 310.097 200.955 310.097 201.251C310.097 201.548 310.097 201.839 310.097 202.125C310.097 202.421 310.097 202.712 310.097 202.998C310.097 203.284 310.097 203.57 310.097 203.856C310.097 204.153 310.066 204.449 310.005 204.745C309.943 205.041 309.902 205.332 309.882 205.618C309.831 205.935 309.77 206.242 309.698 206.538C309.698 206.86 309.545 207.181 309.453 207.488C309.361 207.794 309.254 208.147 309.131 208.469C309.009 208.79 308.84 209.189 308.687 209.541C308.479 209.985 308.243 210.414 307.982 210.828C307.184 212.123 306.085 213.206 304.779 213.985L310.434 210.675C311.74 209.896 312.838 208.813 313.636 207.519C313.898 207.105 314.133 206.675 314.341 206.231C314.505 205.884 314.653 205.527 314.786 205.159C314.918 204.791 315.026 204.464 315.107 204.178C315.199 203.872 315.281 203.555 315.353 203.228C315.424 202.901 315.485 202.595 315.536 202.309C315.536 202.023 315.577 201.731 315.659 201.435C315.741 201.139 315.771 200.843 315.751 200.546C315.751 200.26 315.751 199.974 315.751 199.688C315.751 199.402 315.751 199.111 315.751 198.815C315.741 198.467 315.731 198.146 315.72 197.849Z" fill="url(#paint39_linear)"/>
<path fill-rule="evenodd" clip-rule="evenodd" d="M291.509 169.991C299.922 174.818 307.553 185.805 309.576 196.777C311.935 209.587 305.745 217.525 295.784 214.491C294.293 214.026 292.859 213.393 291.509 212.606C283.096 207.779 275.465 196.792 273.442 185.82C271.083 173.01 277.273 165.088 287.234 168.106C288.725 168.571 290.159 169.204 291.509 169.991Z" fill="url(#paint40_linear)"/>
<path fill-rule="evenodd" clip-rule="evenodd" d="M291.586 173.347C298.711 177.438 305.162 186.724 306.909 196.011C308.901 206.844 303.661 213.556 295.217 210.997C293.953 210.624 292.735 210.11 291.586 209.465C284.46 205.373 278.009 196.087 276.262 186.801C274.27 175.967 279.511 169.255 287.954 171.815C289.218 172.187 290.437 172.701 291.586 173.347Z" fill="white"/>
<path fill-rule="evenodd" clip-rule="evenodd" d="M291.586 174.312C298.328 178.174 304.427 186.97 306.051 195.765C307.936 206.017 302.986 212.361 294.987 209.955C293.789 209.576 292.637 209.062 291.555 208.423C284.813 204.561 278.714 195.765 277.089 186.97C275.205 176.718 280.154 170.359 288.153 172.78C289.352 173.159 290.503 173.673 291.586 174.312Z" fill="url(#paint41_linear)"/>
<path fill-rule="evenodd" clip-rule="evenodd" d="M297.638 196.777L291.34 203.32V197.497L297.638 196.777Z" fill="white"/>
<path fill-rule="evenodd" clip-rule="evenodd" d="M291.34 188.793L297.347 195.382L291.34 195.965V188.793Z" fill="white"/>
<path fill-rule="evenodd" clip-rule="evenodd" d="M291.34 179.722L297.409 194.754L291.34 188.119V179.722Z" fill="white"/>
<path fill-rule="evenodd" clip-rule="evenodd" d="M290.804 188.487V195.658L284.782 188.165L290.804 188.487Z" fill="white"/>
<path fill-rule="evenodd" clip-rule="evenodd" d="M284.491 189.222L290.789 197.175V203.013L284.491 189.222Z" fill="white"/>
<path fill-rule="evenodd" clip-rule="evenodd" d="M290.804 179.415V187.812L284.751 187.491L290.804 179.415Z" fill="white"/>
</g>
<defs>
<linearGradient id="paint0_linear" x1="541.857" y1="114.698" x2="188.25" y2="114.698" gradientUnits="userSpaceOnUse">
<stop offset="0.12" stop-color="#56A1FF"/>
<stop offset="1" stop-color="#5187DC"/>
</linearGradient>
<linearGradient id="paint1_linear" x1="719.189" y1="5.99005" x2="2.96589" y2="5.99005" gradientUnits="userSpaceOnUse">
<stop offset="0.12" stop-color="#56A1FF"/>
<stop offset="1" stop-color="#5187DC"/>
</linearGradient>
<linearGradient id="paint2_linear" x1="631.76" y1="56.9925" x2="90.403" y2="56.9925" gradientUnits="userSpaceOnUse">
<stop offset="0.12" stop-color="#56A1FF"/>
<stop offset="1" stop-color="#5187DC"/>
</linearGradient>
<linearGradient id="paint3_linear" x1="396.322" y1="179.016" x2="476.572" y2="179.016" gradientUnits="userSpaceOnUse">
<stop offset="0.12" stop-color="#DDDCF9"/>
<stop offset="0.56" stop-color="white"/>
<stop offset="0.71" stop-color="#F9F8FE"/>
<stop offset="0.91" stop-color="#E6E6FB"/>
<stop offset="1" stop-color="#DDDCF9"/>
</linearGradient>
<linearGradient id="paint4_linear" x1="476.572" y1="155.975" x2="396.292" y2="155.975" gradientUnits="userSpaceOnUse">
<stop offset="0.12" stop-color="#DDDCF9"/>
<stop offset="0.56" stop-color="white"/>
<stop offset="0.71" stop-color="#F9F8FE"/>
<stop offset="0.91" stop-color="#E6E6FB"/>
<stop offset="1" stop-color="#DDDCF9"/>
</linearGradient>
<linearGradient id="paint5_linear" x1="463.21" y1="140.02" x2="408.888" y2="140.02" gradientUnits="userSpaceOnUse">
<stop offset="0.12" stop-color="#DDDCF9"/>
<stop offset="0.56" stop-color="white"/>
<stop offset="0.71" stop-color="#F9F8FE"/>
<stop offset="0.91" stop-color="#E6E6FB"/>
<stop offset="1" stop-color="#DDDCF9"/>
</linearGradient>
<linearGradient id="paint6_linear" x1="396.322" y1="153.688" x2="476.572" y2="153.688" gradientUnits="userSpaceOnUse">
<stop offset="0.12" stop-color="#DDDCF9"/>
<stop offset="0.56" stop-color="white"/>
<stop offset="0.71" stop-color="#F9F8FE"/>
<stop offset="0.91" stop-color="#E6E6FB"/>
<stop offset="1" stop-color="#DDDCF9"/>
</linearGradient>
<linearGradient id="paint7_linear" x1="476.572" y1="130.616" x2="396.292" y2="130.616" gradientUnits="userSpaceOnUse">
<stop offset="0.12" stop-color="#DDDCF9"/>
<stop offset="0.56" stop-color="white"/>
<stop offset="0.71" stop-color="#F9F8FE"/>
<stop offset="0.91" stop-color="#E6E6FB"/>
<stop offset="1" stop-color="#DDDCF9"/>
</linearGradient>
<linearGradient id="paint8_linear" x1="463.21" y1="114.667" x2="408.888" y2="114.667" gradientUnits="userSpaceOnUse">
<stop offset="0.12" stop-color="#DDDCF9"/>
<stop offset="0.56" stop-color="white"/>
<stop offset="0.71" stop-color="#F9F8FE"/>
<stop offset="0.91" stop-color="#E6E6FB"/>
<stop offset="1" stop-color="#DDDCF9"/>
</linearGradient>
<linearGradient id="paint9_linear" x1="396.323" y1="128.351" x2="476.572" y2="128.351" gradientUnits="userSpaceOnUse">
<stop offset="0.12" stop-color="#DDDCF9"/>
<stop offset="0.56" stop-color="white"/>
<stop offset="0.71" stop-color="#F9F8FE"/>
<stop offset="0.91" stop-color="#E6E6FB"/>
<stop offset="1" stop-color="#DDDCF9"/>
</linearGradient>
<linearGradient id="paint10_linear" x1="476.572" y1="105.187" x2="396.292" y2="105.187" gradientUnits="userSpaceOnUse">
<stop offset="0.12" stop-color="#DDDCF9"/>
<stop offset="0.56" stop-color="white"/>
<stop offset="0.71" stop-color="#F9F8FE"/>
<stop offset="0.91" stop-color="#E6E6FB"/>
<stop offset="1" stop-color="#DDDCF9"/>
</linearGradient>
<linearGradient id="paint11_linear" x1="463.21" y1="89.3523" x2="408.888" y2="89.3523" gradientUnits="userSpaceOnUse">
<stop offset="0.12" stop-color="#DDDCF9"/>
<stop offset="0.56" stop-color="white"/>
<stop offset="0.71" stop-color="#F9F8FE"/>
<stop offset="0.91" stop-color="#E6E6FB"/>
<stop offset="1" stop-color="#DDDCF9"/>
</linearGradient>
<linearGradient id="paint12_linear" x1="396.323" y1="103.002" x2="476.573" y2="103.002" gradientUnits="userSpaceOnUse">
<stop offset="0.12" stop-color="#DDDCF9"/>
<stop offset="0.56" stop-color="white"/>
<stop offset="0.71" stop-color="#F9F8FE"/>
<stop offset="0.91" stop-color="#E6E6FB"/>
<stop offset="1" stop-color="#DDDCF9"/>
</linearGradient>
<linearGradient id="paint13_linear" x1="476.572" y1="79.9417" x2="396.292" y2="79.9417" gradientUnits="userSpaceOnUse">
<stop offset="0.12" stop-color="#DDDCF9"/>
<stop offset="0.56" stop-color="white"/>
<stop offset="0.71" stop-color="#F9F8FE"/>
<stop offset="0.91" stop-color="#E6E6FB"/>
<stop offset="1" stop-color="#DDDCF9"/>
</linearGradient>
<linearGradient id="paint14_linear" x1="455.283" y1="96.5847" x2="455.283" y2="-9.99666" gradientUnits="userSpaceOnUse">
<stop stop-color="#9AC1FF"/>
<stop offset="0.171875" stop-color="#9AC1FF" stop-opacity="0.8"/>
<stop offset="0.385417" stop-color="#9AC1FF" stop-opacity="0.5"/>
<stop offset="0.682292" stop-color="#9AC1FF" stop-opacity="0.2"/>
<stop offset="0.947917" stop-color="#9AC1FF" stop-opacity="0.01"/>
</linearGradient>
<linearGradient id="paint15_linear" x1="462.683" y1="101.889" x2="462.683" y2="20.5425" gradientUnits="userSpaceOnUse">
<stop stop-color="#9AC1FF"/>
<stop offset="0.171875" stop-color="#9AC1FF" stop-opacity="0.8"/>
<stop offset="0.385417" stop-color="#9AC1FF" stop-opacity="0.5"/>
<stop offset="0.682292" stop-color="#9AC1FF" stop-opacity="0.2"/>
<stop offset="0.947917" stop-color="#9AC1FF" stop-opacity="0.01"/>
</linearGradient>
<linearGradient id="paint16_linear" x1="418.253" y1="81.9435" x2="455.707" y2="81.9435" gradientUnits="userSpaceOnUse">
<stop stop-color="#FF9900"/>
<stop offset="1" stop-color="#FFB800"/>
</linearGradient>
<linearGradient id="paint17_linear" x1="412.893" y1="83.0767" x2="450.064" y2="83.0767" gradientUnits="userSpaceOnUse">
<stop stop-color="#FF9900"/>
<stop offset="1" stop-color="#FFB800"/>
</linearGradient>
<linearGradient id="paint18_linear" x1="416.641" y1="78.3891" x2="446.431" y2="78.3891" gradientUnits="userSpaceOnUse">
<stop stop-color="#FF9900"/>
<stop offset="1" stop-color="#FFB800"/>
</linearGradient>
<linearGradient id="paint19_linear" x1="326.171" y1="219.58" x2="406.421" y2="219.58" gradientUnits="userSpaceOnUse">
<stop offset="0.12" stop-color="#DDDCF9"/>
<stop offset="0.56" stop-color="white"/>
<stop offset="0.71" stop-color="#F9F8FE"/>
<stop offset="0.91" stop-color="#E6E6FB"/>
<stop offset="1" stop-color="#DDDCF9"/>
</linearGradient>
<linearGradient id="paint20_linear" x1="406.421" y1="196.333" x2="326.125" y2="196.333" gradientUnits="userSpaceOnUse">
<stop offset="0.12" stop-color="#DDDCF9"/>
<stop offset="0.56" stop-color="white"/>
<stop offset="0.71" stop-color="#F9F8FE"/>
<stop offset="0.91" stop-color="#E6E6FB"/>
<stop offset="1" stop-color="#DDDCF9"/>
</linearGradient>
<linearGradient id="paint21_linear" x1="393.043" y1="180.586" x2="338.736" y2="180.586" gradientUnits="userSpaceOnUse">
<stop offset="0.12" stop-color="#DDDCF9"/>
<stop offset="0.56" stop-color="white"/>
<stop offset="0.71" stop-color="#F9F8FE"/>
<stop offset="0.91" stop-color="#E6E6FB"/>
<stop offset="1" stop-color="#DDDCF9"/>
</linearGradient>
<linearGradient id="paint22_linear" x1="326.171" y1="194.248" x2="406.421" y2="194.248" gradientUnits="userSpaceOnUse">
<stop offset="0.12" stop-color="#DDDCF9"/>
<stop offset="0.56" stop-color="white"/>
<stop offset="0.71" stop-color="#F9F8FE"/>
<stop offset="0.91" stop-color="#E6E6FB"/>
<stop offset="1" stop-color="#DDDCF9"/>
</linearGradient>
<linearGradient id="paint23_linear" x1="406.421" y1="171.141" x2="326.125" y2="171.141" gradientUnits="userSpaceOnUse">
<stop offset="0.12" stop-color="#DDDCF9"/>
<stop offset="0.56" stop-color="white"/>
<stop offset="0.71" stop-color="#F9F8FE"/>
<stop offset="0.91" stop-color="#E6E6FB"/>
<stop offset="1" stop-color="#DDDCF9"/>
</linearGradient>
<linearGradient id="paint24_linear" x1="393.043" y1="155.241" x2="338.736" y2="155.241" gradientUnits="userSpaceOnUse">
<stop offset="0.12" stop-color="#DDDCF9"/>
<stop offset="0.56" stop-color="white"/>
<stop offset="0.71" stop-color="#F9F8FE"/>
<stop offset="0.91" stop-color="#E6E6FB"/>
<stop offset="1" stop-color="#DDDCF9"/>
</linearGradient>
<linearGradient id="paint25_linear" x1="326.172" y1="168.895" x2="406.422" y2="168.895" gradientUnits="userSpaceOnUse">
<stop offset="0.12" stop-color="#DDDCF9"/>
<stop offset="0.56" stop-color="white"/>
<stop offset="0.71" stop-color="#F9F8FE"/>
<stop offset="0.91" stop-color="#E6E6FB"/>
<stop offset="1" stop-color="#DDDCF9"/>
</linearGradient>
<linearGradient id="paint26_linear" x1="406.421" y1="145.828" x2="326.125" y2="145.828" gradientUnits="userSpaceOnUse">
<stop offset="0.12" stop-color="#DDDCF9"/>
<stop offset="0.56" stop-color="white"/>
<stop offset="0.71" stop-color="#F9F8FE"/>
<stop offset="0.91" stop-color="#E6E6FB"/>
<stop offset="1" stop-color="#DDDCF9"/>
</linearGradient>
<linearGradient id="paint27_linear" x1="385.285" y1="162.614" x2="385.285" y2="56.0328" gradientUnits="userSpaceOnUse">
<stop stop-color="#9AC1FF"/>
<stop offset="0.171875" stop-color="#9AC1FF" stop-opacity="0.8"/>
<stop offset="0.385417" stop-color="#9AC1FF" stop-opacity="0.5"/>
<stop offset="0.682292" stop-color="#9AC1FF" stop-opacity="0.2"/>
<stop offset="0.947917" stop-color="#9AC1FF" stop-opacity="0.01"/>
</linearGradient>
<linearGradient id="paint28_linear" x1="392.715" y1="167.965" x2="392.715" y2="86.6179" gradientUnits="userSpaceOnUse">
<stop stop-color="#9AC1FF"/>
<stop offset="0.171875" stop-color="#9AC1FF" stop-opacity="0.8"/>
<stop offset="0.385417" stop-color="#9AC1FF" stop-opacity="0.5"/>
<stop offset="0.682292" stop-color="#9AC1FF" stop-opacity="0.2"/>
<stop offset="0.947917" stop-color="#9AC1FF" stop-opacity="0.01"/>
</linearGradient>
<linearGradient id="paint29_linear" x1="341.177" y1="107.658" x2="377.27" y2="142.752" gradientUnits="userSpaceOnUse">
<stop offset="0.12" stop-color="#7F64FF"/>
<stop offset="1" stop-color="#6B49FF"/>
</linearGradient>
<linearGradient id="paint30_linear" x1="343.303" y1="142.086" x2="380.401" y2="142.086" gradientUnits="userSpaceOnUse">
<stop offset="0.12" stop-color="#7F64FF"/>
<stop offset="1" stop-color="#6B49FF"/>
</linearGradient>
<linearGradient id="paint31_linear" x1="347.072" y1="137.418" x2="376.785" y2="137.418" gradientUnits="userSpaceOnUse">
<stop offset="0.12" stop-color="#7F64FF"/>
<stop offset="1" stop-color="#6B49FF"/>
</linearGradient>
<linearGradient id="paint32_linear" x1="255.958" y1="260.089" x2="336.208" y2="260.089" gradientUnits="userSpaceOnUse">
<stop offset="0.12" stop-color="#DDDCF9"/>
<stop offset="0.56" stop-color="white"/>
<stop offset="0.71" stop-color="#F9F8FE"/>
<stop offset="0.91" stop-color="#E6E6FB"/>
<stop offset="1" stop-color="#DDDCF9"/>
</linearGradient>
<linearGradient id="paint33_linear" x1="336.208" y1="237.069" x2="255.912" y2="237.069" gradientUnits="userSpaceOnUse">
<stop offset="0.12" stop-color="#DDDCF9"/>
<stop offset="0.56" stop-color="white"/>
<stop offset="0.71" stop-color="#F9F8FE"/>
<stop offset="0.91" stop-color="#E6E6FB"/>
<stop offset="1" stop-color="#DDDCF9"/>
</linearGradient>
<linearGradient id="paint34_linear" x1="322.83" y1="221.086" x2="268.524" y2="221.086" gradientUnits="userSpaceOnUse">
<stop offset="0.12" stop-color="#DDDCF9"/>
<stop offset="0.56" stop-color="white"/>
<stop offset="0.71" stop-color="#F9F8FE"/>
<stop offset="0.91" stop-color="#E6E6FB"/>
<stop offset="1" stop-color="#DDDCF9"/>
</linearGradient>
<linearGradient id="paint35_linear" x1="255.959" y1="234.707" x2="336.209" y2="234.707" gradientUnits="userSpaceOnUse">
<stop offset="0.12" stop-color="#DDDCF9"/>
<stop offset="0.56" stop-color="white"/>
<stop offset="0.71" stop-color="#F9F8FE"/>
<stop offset="0.91" stop-color="#E6E6FB"/>
<stop offset="1" stop-color="#DDDCF9"/>
</linearGradient>
<linearGradient id="paint36_linear" x1="336.208" y1="211.623" x2="255.912" y2="211.623" gradientUnits="userSpaceOnUse">
<stop offset="0.12" stop-color="#DDDCF9"/>
<stop offset="0.56" stop-color="white"/>
<stop offset="0.71" stop-color="#F9F8FE"/>
<stop offset="0.91" stop-color="#E6E6FB"/>
<stop offset="1" stop-color="#DDDCF9"/>
</linearGradient>
<linearGradient id="paint37_linear" x1="315.271" y1="228.72" x2="315.271" y2="122.139" gradientUnits="userSpaceOnUse">
<stop stop-color="#9AC1FF"/>
<stop offset="0.171875" stop-color="#9AC1FF" stop-opacity="0.8"/>
<stop offset="0.385417" stop-color="#9AC1FF" stop-opacity="0.5"/>
<stop offset="0.682292" stop-color="#9AC1FF" stop-opacity="0.2"/>
<stop offset="0.947917" stop-color="#9AC1FF" stop-opacity="0.01"/>
</linearGradient>
<linearGradient id="paint38_linear" x1="322.671" y1="234.009" x2="322.671" y2="152.632" gradientUnits="userSpaceOnUse">
<stop stop-color="#9AC1FF"/>
<stop offset="0.171875" stop-color="#9AC1FF" stop-opacity="0.8"/>
<stop offset="0.385417" stop-color="#9AC1FF" stop-opacity="0.5"/>
<stop offset="0.682292" stop-color="#9AC1FF" stop-opacity="0.2"/>
<stop offset="0.947917" stop-color="#9AC1FF" stop-opacity="0.01"/>
</linearGradient>
<linearGradient id="paint39_linear" x1="278.517" y1="214.063" x2="315.793" y2="214.063" gradientUnits="userSpaceOnUse">
<stop stop-color="#9485F1"/>
<stop offset="0.45" stop-color="#0085FF"/>
<stop offset="1" stop-color="#7AEFFF"/>
</linearGradient>
<linearGradient id="paint40_linear" x1="272.943" y1="215.212" x2="310.113" y2="215.212" gradientUnits="userSpaceOnUse">
<stop stop-color="#9485F1"/>
<stop offset="0.45" stop-color="#0085FF"/>
<stop offset="1" stop-color="#7AEFFF"/>
</linearGradient>
<linearGradient id="paint41_linear" x1="276.691" y1="210.525" x2="306.48" y2="210.525" gradientUnits="userSpaceOnUse">
<stop stop-color="#9485F1"/>
<stop offset="0.45" stop-color="#0085FF"/>
<stop offset="1" stop-color="#7AEFFF"/>
</linearGradient>
</defs>
</svg>
