<svg width="77" height="22" viewBox="0 0 77 22" fill="none" xmlns="http://www.w3.org/2000/svg">
<path d="M17.1082 7.16168H11.8395C11.8395 6.26941 11.7378 5.67076 11.5354 5.36576C11.2218 4.91497 10.3566 4.68905 8.94036 4.68905C7.56469 4.68905 6.65292 4.81881 6.20806 5.07884C5.76319 5.33991 5.54026 5.90702 5.54026 6.78017C5.54026 7.5706 5.73764 8.0917 6.13291 8.34088C6.41596 8.51819 6.79019 8.6221 7.25609 8.65312L8.31866 8.73067C10.5961 8.88627 12.0183 8.99638 12.5854 9.05894C14.3864 9.24608 15.692 9.74029 16.5021 10.5411C17.1393 11.1661 17.5195 11.9829 17.6408 12.991C17.7119 13.5942 17.747 14.2772 17.747 15.0355C17.747 16.7839 17.5852 18.0639 17.262 18.875C16.6754 20.3639 15.3573 21.3042 13.3068 21.6992C12.4477 21.8662 11.1336 21.9494 9.36569 21.9494C6.41496 21.9494 4.35897 21.7685 3.19771 21.404C1.77294 20.9579 0.833118 20.0537 0.378736 18.6925C0.125243 17.9347 0 16.6722 0 14.9053H5.26873C5.26873 15.1022 5.26923 15.2532 5.26923 15.3571C5.26923 16.3 5.53174 16.9059 6.05626 17.1763C6.41947 17.3624 6.85782 17.4601 7.37332 17.472H9.31058C10.299 17.472 10.9297 17.4198 11.2018 17.3148C11.6862 17.1184 12.0043 16.802 12.1561 16.3641C12.2368 16.0943 12.2768 15.7458 12.2768 15.3188C12.2768 14.363 11.9387 13.7814 11.2634 13.5725C11.0104 13.4903 9.8361 13.3751 7.73903 13.2298C6.05476 13.1057 4.88499 12.9863 4.23022 12.8705C2.50537 12.5376 1.35563 11.8526 0.782019 10.813C0.277539 9.93002 0.0255496 8.59367 0.0255496 6.8055C0.0255496 5.44433 0.161814 4.35251 0.434344 3.53157C0.706873 2.71012 1.14623 2.08666 1.7524 1.66017C2.64063 1.00518 3.77734 0.621076 5.16052 0.50631C6.31176 0.402401 7.58874 0.34967 8.99347 0.34967C11.2048 0.34967 12.7808 0.480979 13.7201 0.741011C16.0131 1.37687 17.1593 3.15729 17.1593 6.0833C17.1593 6.32317 17.1423 6.68194 17.1082 7.16168Z" fill="#5583FE"/>
<path d="M40.2753 21.948V0.233521H48.5299H49.8254H50.8268C52.2741 0.233521 53.3783 0.355007 54.1373 0.599013C55.8726 1.15992 57.0369 2.30912 57.6336 4.04508C57.9412 4.95649 58.0955 6.32851 58.0955 8.16062C58.0955 10.3634 57.9246 11.9458 57.5865 12.91C56.9096 14.8155 55.5169 15.9135 53.4134 16.1978C53.1659 16.2407 52.1133 16.2785 50.2552 16.3095L49.3154 16.3415H45.9388V21.948H40.2753ZM45.9388 11.3043H49.4692C50.5889 11.2629 51.2697 11.174 51.5147 11.0349C51.8493 10.8452 52.0743 10.4647 52.186 9.89451C52.2576 9.51506 52.2932 8.95054 52.2932 8.20094C52.2932 7.2823 52.222 6.60146 52.0793 6.15688C51.8759 5.53394 51.3879 5.155 50.6154 5.01697C50.4621 4.99629 50.0964 4.98492 49.5168 4.98492H45.9388V11.3043Z" fill="#5583FE"/>
<path d="M70.1833 18.1954H62.611L61.5936 21.948H55.7342L62.057 0.233521H70.6001L77 21.948H71.2639L70.1833 18.1954ZM69.0586 13.9651L66.4049 4.55222L63.8299 13.9651H69.0586Z" fill="#5583FE"/>
<path d="M32.4638 3.2919C34.7993 3.2919 36.8844 4.40233 38.2545 6.14139L39.4754 3.44026C37.5662 1.57817 34.9676 0.429993 32.1016 0.429993C27.6389 0.429993 23.8215 3.21125 22.2549 7.14843H19.8743L18.4686 10.258H21.531C21.508 10.5464 21.493 10.8349 21.493 11.1296C21.493 11.4857 21.511 11.8383 21.5451 12.1862H20.0061L18.6008 15.2968H22.3281C23.9392 19.1342 27.709 21.8281 32.1016 21.8281C34.3154 21.8281 36.3694 21.1436 38.0702 19.9743V16.1622C36.7005 17.7715 34.6971 18.7884 32.4638 18.7884C29.8532 18.7884 27.5567 17.3993 26.2196 15.2968H34.0238L35.4295 12.1862H25.0714C25.0178 11.8119 24.9893 11.4294 24.9893 11.0396C24.9893 10.776 25.0023 10.5154 25.0273 10.258H36.3007L37.706 7.14843H26.0017C27.2962 4.8433 29.7049 3.2919 32.4638 3.2919Z" fill="#FFBE00"/>
<path d="M32.459 3.38462C34.6848 3.38462 36.7699 4.41131 38.1796 6.19999L38.2708 6.31579L38.3324 6.18087L39.5528 3.47974L39.5799 3.41822L39.5333 3.37169C37.5264 1.41448 34.8852 0.336609 32.0968 0.336609C29.9191 0.336609 27.824 0.993151 26.0371 2.23541C24.2922 3.4482 22.9536 5.13505 22.167 7.11243L22.2502 7.05453H19.8696H19.8115L19.7874 7.1083L18.3822 10.2183L18.3221 10.3512H18.4638H21.5263L21.4361 10.2499C21.4106 10.573 21.398 10.8599 21.398 11.1292C21.398 11.4782 21.4156 11.8375 21.4501 12.1952L21.5403 12.0928H20.0013H19.9442L19.9202 12.1466L18.5139 15.2567L18.4543 15.3895H18.5961H22.3233L22.2402 15.3332C23.9204 19.335 27.7895 21.9208 32.0968 21.9208C34.256 21.9208 36.3366 21.2751 38.1155 20.052L38.1551 20.0246V19.9739V16.1619V15.9142L37.9973 16.1003C36.5941 17.7489 34.5756 18.6939 32.459 18.6939C29.9692 18.6939 27.6632 17.4041 26.29 15.2448L26.2149 15.3895H34.0191H34.0772L34.1012 15.3363L35.5069 12.2252L35.5671 12.0928H35.4248H25.0667L25.1563 12.1725C25.1027 11.7956 25.0752 11.4151 25.0752 11.0393C25.0752 10.7834 25.0877 10.5239 25.1128 10.2669L25.0226 10.3512H36.296H36.3541L36.3781 10.2974L37.7834 7.18739L37.844 7.05453H37.7012H25.997L26.0751 7.19463C27.3947 4.84452 29.8414 3.38462 32.459 3.38462ZM25.997 7.24116H37.7012L37.619 7.1083L36.2143 10.2183L36.296 10.1646H25.0226H24.9409L24.9319 10.2488C24.9069 10.5115 24.8943 10.7777 24.8943 11.0393C24.8943 11.4239 24.9224 11.8147 24.977 12.1999L24.989 12.2795H25.0667H35.4248L35.3431 12.1466L33.9379 15.2567L34.0191 15.2029H26.2149H26.0471L26.1393 15.3466C27.5455 17.5602 29.9086 18.88 32.459 18.88C34.6272 18.88 36.6958 17.9123 38.1335 16.2234L37.9747 16.1619V19.9739L38.0148 19.8969C36.2659 21.0988 34.2199 21.7342 32.0968 21.7342C27.8611 21.7342 24.0577 19.1923 22.4065 15.2587L22.3825 15.2029H22.3233H18.5961L18.6788 15.3363L20.0835 12.2252L20.0013 12.2795H21.5403H21.64L21.6305 12.1766C21.5964 11.8251 21.5784 11.472 21.5784 11.1292C21.5784 10.8656 21.5909 10.5828 21.6165 10.2654L21.6245 10.1646H21.5263H18.4638L18.5455 10.2974L19.9512 7.18739L19.8696 7.24116H22.2502H22.3108L22.3334 7.18326C23.1074 5.24 24.4229 3.58261 26.1382 2.38998C27.8947 1.16943 29.9557 0.523749 32.0968 0.523749C34.8391 0.523749 37.4352 1.583 39.4085 3.50766L39.3885 3.40013L38.1686 6.10177L38.3204 6.08213C36.8751 4.2495 34.7395 3.19799 32.459 3.19799C29.7763 3.19799 27.2709 4.69357 25.9183 7.10106L25.8397 7.24116H25.997Z" fill="#FFBE00"/>
</svg>
