<svg width="242" height="227" viewBox="0 0 242 227" fill="none" xmlns="http://www.w3.org/2000/svg">
<path fill-rule="evenodd" clip-rule="evenodd" d="M53.5635 222.077C58.6708 224.776 64.383 226.126 70.1584 225.999C75.9234 226.098 81.6173 224.715 86.6945 221.983L234.439 135.579C238.984 132.901 241.509 129.307 241.486 125.385C241.463 121.462 238.937 117.833 234.24 115.167L188.436 88.9067C179.264 83.6452 164.396 83.6804 155.305 89.0006L7.56061 175.404C3.01552 178.082 0.490468 181.676 0.513956 185.598C0.537445 189.521 3.0625 193.15 7.76026 195.816L53.5635 222.077ZM156.433 90.8328C161.186 88.2751 166.516 86.981 171.912 87.0746V87.0159C177.32 86.8959 182.669 88.1613 187.45 90.6919L233.253 116.952C237.223 119.231 239.407 122.226 239.431 125.338C239.454 128.45 237.305 131.422 233.406 133.7L85.6495 220.162C77.1465 225.13 63.2293 225.177 54.6324 220.245L8.82919 193.984C4.85957 191.706 2.66337 188.711 2.65162 185.599C2.63988 182.486 4.78911 179.515 8.68825 177.237L156.433 90.8328Z" fill="url(#paint0_linear)"/>
<path fill-rule="evenodd" clip-rule="evenodd" d="M195.315 115.25C197.268 116.367 197.278 118.195 195.315 119.322L173.081 132.345C170.873 133.468 168.261 133.468 166.053 132.345L143.569 119.469C141.617 118.351 141.606 116.524 143.569 115.396L165.834 102.373C168.042 101.248 170.655 101.248 172.862 102.373L195.315 115.25Z" fill="url(#paint1_linear)"/>
<path fill-rule="evenodd" clip-rule="evenodd" d="M196.775 117.443C196.775 117.495 196.775 117.547 196.775 117.6C196.775 117.652 196.775 117.683 196.775 117.725C196.775 117.767 196.775 117.829 196.775 117.871V117.996L196.702 118.153L196.639 118.268L196.524 118.445L196.441 118.55L196.232 118.78L196.148 118.863L195.887 118.978L195.752 119.093L195.574 119.208L195.386 119.333L173.08 132.345C172.927 132.433 172.77 132.513 172.61 132.585L172.464 132.648L172.077 132.794H171.931L171.67 132.867L171.471 132.92L171.2 132.982H171.012L170.448 133.066H170.27H169.936H168.965H168.735H168.485H168.265H168.004H167.795L167.482 132.993H167.315L166.783 132.815H166.709C166.479 132.723 166.256 132.615 166.041 132.491L143.568 119.469C142.729 119.098 142.163 118.295 142.095 117.38V126.842C142.163 127.756 142.729 128.559 143.568 128.93L166.051 141.827C166.267 141.951 166.49 142.059 166.72 142.151L167.252 142.329H167.378L167.691 142.402H167.775H167.9H168.161H168.265H168.38H168.631H169.832H170.166H170.344L170.908 142.318H171.064L171.336 142.256L171.534 142.203L171.785 142.13H171.837H171.92L172.307 141.984L172.453 141.921C172.614 141.849 172.771 141.769 172.923 141.681L195.188 128.659H195.25L195.376 128.575L195.553 128.46L195.689 128.345L195.846 128.22V128.168L196.054 127.938L196.169 127.761V127.688L196.242 127.531V127.437C196.242 127.437 196.242 127.343 196.242 127.291V127.186C196.242 127.186 196.242 127.082 196.242 127.03C196.242 126.977 196.242 126.957 196.242 126.925C196.242 126.894 196.242 126.925 196.242 126.925V117.464C196.242 117.464 196.775 117.391 196.775 117.443Z" fill="url(#paint2_linear)"/>
<path fill-rule="evenodd" clip-rule="evenodd" d="M169.278 128.074C168.947 128.088 168.617 128.034 168.307 127.917L150.982 117.996C150.761 117.87 150.625 117.635 150.625 117.38C150.625 117.126 150.761 116.891 150.982 116.764L168.077 106.77C168.378 106.657 168.697 106.604 169.017 106.613C169.348 106.599 169.679 106.653 169.988 106.77L187.282 116.691C187.503 116.818 187.639 117.053 187.639 117.307C187.639 117.562 187.503 117.797 187.282 117.923L170.187 127.917C169.896 128.026 169.588 128.079 169.278 128.074Z" fill="url(#paint3_linear)"/>
<path fill-rule="evenodd" clip-rule="evenodd" d="M195.261 97.9871C197.214 99.1045 197.224 100.932 195.261 102.06L172.996 115.082C170.788 116.206 168.176 116.206 165.968 115.082L143.484 102.185C141.531 101.068 141.521 99.2403 143.484 98.1124L165.749 85.0899C167.956 83.9647 170.569 83.9647 172.777 85.0899L195.261 97.9871Z" fill="url(#paint4_linear)"/>
<path fill-rule="evenodd" clip-rule="evenodd" d="M196.723 100.18C196.723 100.232 196.723 100.284 196.723 100.337C196.723 100.389 196.723 100.42 196.723 100.462C196.723 100.504 196.723 100.566 196.723 100.608V100.734L196.65 100.89L196.587 101.005L196.472 101.183L196.389 101.287L196.18 101.517L196.096 101.6L195.94 101.726L195.804 101.841L195.626 101.955L195.438 102.081L173.174 115.103C173.021 115.191 172.864 115.271 172.704 115.343L172.558 115.406L172.171 115.552H172.025L171.764 115.625L171.566 115.678L171.294 115.74H171.106L170.542 115.824H170.365H170.03H169.059H168.829H168.579H168.359H168.098H167.89L167.576 115.751H167.409L166.877 115.573H166.803C166.573 115.481 166.35 115.373 166.135 115.249L143.651 102.352C142.813 101.981 142.247 101.178 142.179 100.264V109.579C142.247 110.493 142.813 111.296 143.651 111.667L166.135 124.565C166.35 124.688 166.573 124.796 166.803 124.888L167.336 125.066H167.461L167.775 125.139H167.858H167.984H168.245H168.349H168.464H168.715H169.916H170.25H170.427L170.991 125.055H171.148L171.419 124.993L171.618 124.941L171.868 124.867H171.921H172.004L172.391 124.721L172.537 124.659C172.697 124.587 172.854 124.506 173.007 124.418L195.271 111.396H195.334L195.459 111.312L195.637 111.197L195.773 111.083L195.929 110.957V110.905L196.138 110.675L196.253 110.498V110.425L196.326 110.268V110.174C196.326 110.174 196.326 110.08 196.326 110.028V109.923C196.326 109.923 196.326 109.819 196.326 109.767C196.326 109.715 196.326 109.694 196.326 109.662C196.326 109.631 196.326 109.662 196.326 109.662V100.201C196.326 100.201 196.723 100.128 196.723 100.18Z" fill="url(#paint5_linear)"/>
<path fill-rule="evenodd" clip-rule="evenodd" d="M169.237 110.811C168.906 110.825 168.575 110.772 168.265 110.655L150.982 100.723C150.761 100.597 150.625 100.362 150.625 100.107C150.625 99.8526 150.761 99.6176 150.982 99.491L168.077 89.497C168.378 89.3844 168.697 89.3312 169.017 89.3404C169.348 89.3262 169.679 89.3795 169.988 89.497L187.282 99.4179C187.503 99.5445 187.639 99.7795 187.639 100.034C187.639 100.289 187.503 100.524 187.282 100.65L170.176 110.623C169.878 110.746 169.559 110.81 169.237 110.811Z" fill="url(#paint6_linear)"/>
<path fill-rule="evenodd" clip-rule="evenodd" d="M195.219 80.7143C197.172 81.8317 197.182 83.6593 195.219 84.7871L172.954 97.8096C170.746 98.9331 168.134 98.9331 165.926 97.8096L143.442 84.9124C141.489 83.795 141.479 81.9675 143.442 80.8396L165.707 67.8067C167.914 66.6815 170.527 66.6815 172.735 67.8067L195.219 80.7143Z" fill="url(#paint7_linear)"/>
<path fill-rule="evenodd" clip-rule="evenodd" d="M196.67 82.9072C196.67 82.9594 196.67 83.0116 196.67 83.0639C196.67 83.1161 196.67 83.1474 196.67 83.1892C196.67 83.2309 196.67 83.2936 196.67 83.3354V83.4607L196.597 83.6173L196.535 83.7322L196.42 83.9097L196.336 84.0142L196.127 84.2439L196.044 84.3275L195.887 84.4528L195.751 84.5677L195.574 84.6825L195.386 84.8078L173.121 97.8304C172.969 97.9183 172.812 97.9985 172.651 98.0705L172.505 98.1332L172.119 98.2794H171.973L171.711 98.3525L171.513 98.4047L171.241 98.4674H171.054L170.49 98.5509H170.312H169.978H169.007H168.777H168.526H168.307H168.046H167.837L167.524 98.4778H167.357L166.824 98.3003H166.751C166.521 98.2079 166.298 98.0997 166.083 97.9766L143.599 85.0794C142.76 84.7081 142.194 83.9053 142.126 82.9908V92.4522C142.194 93.3667 142.76 94.1695 143.599 94.5408L166.083 107.438C166.298 107.561 166.521 107.669 166.751 107.762L167.284 107.939H167.409L167.722 108.012H167.806H167.931H168.192H168.297H168.411H168.662H169.863H170.197H170.375L170.939 107.929H171.095L171.367 107.866L171.565 107.814L171.816 107.741H171.868H171.952L172.338 107.595L172.484 107.532C172.645 107.46 172.802 107.38 172.954 107.292L195.219 94.2693H195.281L195.407 94.1857L195.584 94.0708L195.72 93.956L195.877 93.8307V93.7784L196.086 93.5487L196.2 93.3712V93.2981L196.274 93.1414V93.0474C196.274 93.0474 196.274 92.9534 196.274 92.9012V92.7968C196.274 92.7968 196.274 92.6924 196.274 92.6401C196.274 92.5879 196.274 92.567 196.274 92.5357C196.274 92.5044 196.274 92.5357 196.274 92.5357V83.0743C196.274 83.0743 196.681 82.855 196.67 82.9072Z" fill="url(#paint8_linear)"/>
<path fill-rule="evenodd" clip-rule="evenodd" d="M169.184 93.5384C168.853 93.5519 168.523 93.4987 168.213 93.3817L150.919 83.4712C150.699 83.3447 150.562 83.1096 150.562 82.8551C150.562 82.6006 150.699 82.3655 150.919 82.239L168.015 72.2449C168.315 72.1323 168.634 72.0791 168.955 72.0883C169.286 72.0741 169.616 72.1274 169.926 72.2449L187.22 82.1659C187.44 82.2924 187.577 82.5275 187.577 82.782C187.577 83.0365 187.44 83.2716 187.22 83.3981L170.124 93.3922C169.823 93.5009 169.504 93.5506 169.184 93.5384Z" fill="url(#paint9_linear)"/>
<path fill-rule="evenodd" clip-rule="evenodd" d="M195.167 63.4413C197.12 64.5587 197.13 66.3863 195.167 67.5141L172.913 80.5366C170.705 81.6601 168.093 81.6601 165.885 80.5366L143.401 67.6394C141.448 66.522 141.438 64.6945 143.401 63.5666L165.665 50.5441C167.873 49.4189 170.486 49.4189 172.694 50.5441L195.167 63.4413Z" fill="url(#paint10_linear)"/>
<path fill-rule="evenodd" clip-rule="evenodd" d="M196.629 65.6347C196.629 65.6869 196.629 65.7391 196.629 65.7913C196.629 65.8435 196.629 65.8749 196.629 65.9166C196.629 65.9584 196.629 66.0211 196.629 66.0628V66.1882L196.556 66.3448L196.493 66.4597L196.378 66.6372L196.295 66.7416L196.086 66.9714L196.002 67.0549L195.846 67.1803L195.71 67.2951L195.532 67.41L195.344 67.5353L172.913 80.5369C172.76 80.6249 172.603 80.705 172.443 80.7771L172.296 80.8398L171.91 80.986H171.764L171.503 81.0591L171.304 81.1113L171.033 81.174H170.845L170.281 81.2575H170.103H169.769H168.798H168.568H168.318H168.098H167.837H167.628L167.315 81.1844H167.148L166.615 81.0069H166.542C166.312 80.9145 166.089 80.8063 165.874 80.6831L143.39 67.786C142.552 67.4147 141.986 66.6119 141.918 65.6973V75.117C141.986 76.0315 142.552 76.8344 143.39 77.2056L165.874 90.1028C166.089 90.226 166.312 90.3341 166.542 90.4265L167.075 90.6041H167.2L167.514 90.6772H167.597H167.722H167.984H168.088H168.203H168.453H169.78H170.114H170.291L170.855 90.5936H171.012L171.284 90.531L171.482 90.4787L171.733 90.4056H171.785H171.868L172.255 90.2594L172.401 90.1968C172.562 90.1248 172.718 90.0446 172.871 89.9566L195.135 76.9341H195.198L195.323 76.8505L195.501 76.7357L195.637 76.6208L195.793 76.4955V76.4433L196.002 76.2135L196.117 76.036V75.9629L196.19 75.8062V75.7122C196.19 75.7122 196.19 75.6183 196.19 75.566V75.4616C196.19 75.4616 196.19 75.3572 196.19 75.305C196.19 75.2527 196.19 75.2319 196.19 75.2005C196.19 75.1692 196.19 75.2005 196.19 75.2005V65.7391C196.19 65.7391 196.629 65.5825 196.629 65.6347Z" fill="url(#paint11_linear)"/>
<path fill-rule="evenodd" clip-rule="evenodd" d="M169.143 76.2656C168.812 76.2792 168.481 76.2259 168.171 76.109L150.878 66.188C150.657 66.0615 150.521 65.8264 150.521 65.5719C150.521 65.3174 150.657 65.0823 150.878 64.9558L167.973 54.9617C168.273 54.8491 168.592 54.7959 168.913 54.8051C169.244 54.7909 169.574 54.8442 169.884 54.9617L187.178 64.8827C187.399 65.0092 187.535 65.2443 187.535 65.4988C187.535 65.7533 187.399 65.9884 187.178 66.1149L170.082 76.1612C169.779 76.2558 169.46 76.2913 169.143 76.2656Z" fill="#DDDCF9"/>
<path fill-rule="evenodd" clip-rule="evenodd" d="M155.368 0.104553L155.546 64.8516C155.545 65.0376 155.645 65.2095 155.807 65.3006L168.401 72.5272C168.852 72.6777 169.339 72.6777 169.79 72.5272L182.238 65.2171C182.403 65.1197 182.5 64.9383 182.489 64.7471L182.311 0.00012207L155.368 0.104553Z" fill="url(#paint12_linear)"/>
<path fill-rule="evenodd" clip-rule="evenodd" d="M150.397 20.9071L150.523 65.5721C150.524 65.8231 150.659 66.0542 150.878 66.1778L168.171 76.0987C168.791 76.3065 169.462 76.3065 170.082 76.0987L187.178 66.1047C187.41 65.974 187.547 65.723 187.533 65.4572L187.407 20.8131L150.397 20.9071Z" fill="url(#paint13_linear)"/>
<path fill-rule="evenodd" clip-rule="evenodd" d="M182.75 51.5995C182.75 51.3976 182.75 51.1957 182.75 50.9938C182.75 50.7919 182.75 50.5865 182.75 50.3776C182.75 50.1688 182.725 49.9599 182.677 49.751C182.628 49.5422 182.597 49.3263 182.583 49.1036C182.583 48.9365 182.555 48.7659 182.499 48.5918V48.4456C182.457 48.2229 182.412 48.0001 182.363 47.7773C182.315 47.5545 182.262 47.3282 182.207 47.0985C182.151 46.8757 182.092 46.6494 182.029 46.4197C181.967 46.1899 181.9 45.9672 181.831 45.7513L181.622 45.0934L181.403 44.4564L181.173 43.8403L180.933 43.2346L180.672 42.6289L180.4 42.0336L180.076 41.3757L179.69 40.6342C179.488 40.2513 179.276 39.8754 179.053 39.5064C178.719 38.9425 178.371 38.3925 178.009 37.8564C177.772 37.5083 177.528 37.1602 177.278 36.8121L176.745 36.1228L176.254 35.5171L175.763 34.9428L175.262 34.3893L174.74 33.8462L174.197 33.3136L173.633 32.7915L173.069 32.3007L172.505 31.8412L171.941 31.413L171.398 31.037L170.866 30.6924L170.343 30.3791L170.218 30.306L169.821 30.0867L169.31 29.8257L168.798 29.5855L168.286 29.3662L167.774 29.1782L167.294 29.0215L166.761 28.8753L166.229 28.7605L165.675 28.6665L165.111 28.6143H164.527H163.869C163.627 28.6363 163.386 28.6711 163.148 28.7187C162.85 28.7777 162.557 28.8579 162.271 28.9589C161.909 29.082 161.559 29.2393 161.227 29.4288L157.248 31.7472C157.58 31.5577 157.93 31.4004 158.292 31.2772C158.578 31.1763 158.872 31.096 159.169 31.037C159.408 30.9895 159.648 30.9547 159.89 30.9326H160.548H161.133L161.697 30.9848L162.25 31.0788L162.783 31.1937L163.315 31.3399L163.796 31.4965L164.307 31.6845L164.819 31.9038L165.331 32.144L165.842 32.4051L166.239 32.6244L166.365 32.6975L166.887 33.0108L167.419 33.3659L167.962 33.7418L168.526 34.17L169.09 34.6295L169.654 35.1203L170.218 35.6424L170.761 36.175L171.283 36.7181L171.785 37.2716L172.275 37.8459L172.766 38.4516L173.299 39.1409C173.549 39.475 173.793 39.8232 174.03 40.1852C174.392 40.7213 174.74 41.2713 175.074 41.8352C175.297 42.2042 175.509 42.5801 175.711 42.963L176.098 43.7045L176.421 44.3624L176.693 44.9577L176.954 45.5634L177.194 46.1691L177.424 46.7852L177.643 47.4222L177.852 48.0801C177.922 48.3029 177.988 48.5257 178.05 48.7485C178.113 48.9713 178.172 49.1975 178.228 49.4273C178.284 49.6501 178.336 49.8763 178.385 50.1061C178.433 50.3358 178.479 50.5586 178.52 50.7744V50.9207C178.52 51.0877 178.548 51.2583 178.604 51.4324C178.66 51.6064 178.691 51.8222 178.698 52.0798C178.698 52.2887 178.722 52.4976 178.771 52.7064C178.82 52.9153 178.82 53.1207 178.771 53.3226C178.771 53.5245 178.771 53.7264 178.771 53.9283C178.771 54.1302 178.771 54.3286 178.771 54.5235C178.771 54.7254 178.771 54.9238 178.771 55.1188C178.771 55.3137 178.771 55.5086 178.771 55.7036C178.771 55.9055 178.75 56.1074 178.708 56.3093C178.667 56.5112 178.639 56.7096 178.625 56.9045C178.59 57.1204 178.548 57.3292 178.499 57.5311C178.451 57.733 178.395 57.9488 178.332 58.1786C178.263 58.4083 178.19 58.6311 178.113 58.8469C178.036 59.0628 177.936 59.3064 177.81 59.578C177.669 59.8801 177.508 60.1731 177.33 60.4552C176.786 61.3374 176.037 62.0753 175.147 62.6064L179.001 60.3507C179.891 59.8196 180.639 59.0817 181.183 58.1995C181.362 57.9173 181.522 57.6244 181.664 57.3223C181.775 57.0855 181.876 56.8419 181.967 56.5912C182.057 56.3406 182.13 56.1178 182.186 55.9229C182.249 55.714 182.301 55.4947 182.353 55.2754C182.405 55.0561 182.436 54.8681 182.478 54.6488C182.52 54.4295 182.541 54.252 182.562 54.0536C182.583 53.8552 182.562 53.6567 182.624 53.4479C182.687 53.239 182.624 53.0615 182.624 52.8631C182.624 52.6646 182.624 52.4662 182.624 52.2678C182.624 52.0694 182.75 51.7979 182.75 51.5995Z" fill="url(#paint14_linear)"/>
<path fill-rule="evenodd" clip-rule="evenodd" d="M166.25 32.6136C171.983 35.9031 177.184 43.3908 178.562 50.868C180.17 59.5985 175.951 65.008 169.163 62.9402C168.147 62.6232 167.17 62.1923 166.25 61.6557C160.517 58.3662 155.316 50.8785 153.937 43.4013C152.329 34.6709 156.548 29.2718 163.336 31.3291C164.353 31.6461 165.33 32.077 166.25 32.6136Z" fill="url(#paint15_linear)"/>
<path fill-rule="evenodd" clip-rule="evenodd" d="M166.302 34.9008C171.158 37.6891 175.555 44.0176 176.745 50.3461C178.103 57.7293 174.531 62.3034 168.777 60.5594C167.915 60.3054 167.085 59.9551 166.302 59.5151C161.446 56.7268 157.049 50.3983 155.859 44.0698C154.501 36.6865 158.073 32.1125 163.827 33.8564C164.689 34.1104 165.519 34.4607 166.302 34.9008Z" fill="white"/>
<path fill-rule="evenodd" clip-rule="evenodd" d="M166.302 35.5585C170.897 38.1902 175.053 44.1845 176.16 50.1788C177.445 57.1652 174.072 61.4886 168.62 59.8491C167.804 59.5907 167.019 59.2404 166.281 58.8048C161.686 56.1731 157.53 50.1788 156.423 44.1845C155.138 37.1981 158.512 32.8642 163.963 34.5142C164.78 34.7726 165.564 35.1229 166.302 35.5585Z" fill="url(#paint16_linear)"/>
<path fill-rule="evenodd" clip-rule="evenodd" d="M171.095 51.7661C171.199 52.4259 171.134 53.1011 170.907 53.7294C170.771 54.033 170.519 54.2697 170.207 54.3873C169.896 54.5048 169.55 54.4936 169.247 54.356C168.896 54.2475 168.534 54.1001 168.169 53.9518C167.937 53.8573 167.703 53.7625 167.472 53.6772H167.367V56.0478L166.125 55.3376V52.9775L165.08 52.3718V54.7528L163.838 54.0427V51.6199L161.352 50.0534C161.436 49.5313 161.519 49.0091 161.603 48.5079L162.428 48.9778C162.814 49.1971 162.981 49.124 162.981 48.6749V42.5866C162.987 42.1043 162.737 41.6551 162.323 41.4066L161.853 41.1246L161.362 40.8322V39.318L163.879 40.78V38.4303L165.112 39.13V41.4483L166.156 42.0227V39.7044L167.399 40.4145V42.7851C167.625 42.95 167.843 43.1149 168.073 43.2887L168.073 43.2887C168.192 43.3791 168.314 43.4719 168.443 43.5683C168.929 43.9737 169.361 44.4406 169.727 44.9572C170.699 46.3148 170.772 48.7376 169.487 48.7585H169.414C169.467 48.8137 169.52 48.8679 169.572 48.9213L169.572 48.9213C169.794 49.1507 170.005 49.3672 170.208 49.6044C170.71 50.2221 171.018 50.974 171.095 51.7661ZM167.963 51.8495C168.422 51.8495 168.694 51.6615 168.704 51.0662C168.683 50.4475 168.425 49.8605 167.983 49.4267C167.412 48.8279 166.75 48.3238 166.02 47.9333L165.216 47.4843V50.6172L165.31 50.6694L165.843 50.9827C166.489 51.4142 167.218 51.7058 167.983 51.839L167.963 51.8495ZM165.258 45.9909V43.1713H165.279L165.989 43.5681C166.557 43.8728 167.072 44.2679 167.514 44.7377C167.942 45.1504 168.183 45.7199 168.182 46.3146C168.151 46.8472 167.879 47.0979 167.378 46.9934C166.849 46.8664 166.345 46.6548 165.884 46.3669L165.258 45.9909Z" fill="white"/>
<path fill-rule="evenodd" clip-rule="evenodd" d="M147.567 142.997C149.52 144.114 149.53 145.942 147.567 147.07L125.303 160.092C123.095 161.216 120.482 161.216 118.274 160.092L95.7905 147.195C93.8376 146.077 93.8272 144.25 95.7905 143.122L118.055 130.1C120.263 128.974 122.876 128.974 125.083 130.1L147.567 142.997Z" fill="url(#paint17_linear)"/>
<path fill-rule="evenodd" clip-rule="evenodd" d="M149.029 145.211C149.029 145.263 149.029 145.315 149.029 145.367C149.029 145.42 149.029 145.451 149.029 145.493C149.029 145.534 149.029 145.597 149.029 145.639V145.764L148.956 145.921L148.893 146.036L148.778 146.213L148.695 146.318L148.486 146.547L148.403 146.631L148.246 146.756L148.11 146.871L147.933 146.986L147.745 147.111L125.48 160.134C125.328 160.222 125.171 160.302 125.01 160.374L124.864 160.437L124.477 160.583H124.331L124.07 160.656L123.872 160.708L123.6 160.771H123.412L122.848 160.854H122.671H122.337H121.365H121.136H120.885H120.666H120.405H120.196L119.883 160.781H119.715L119.183 160.604H119.11C118.88 160.511 118.656 160.403 118.441 160.28L95.9575 147.383C95.1189 147.012 94.5529 146.209 94.485 145.294V154.756C94.5529 155.67 95.1189 156.473 95.9575 156.844L118.441 169.741C118.656 169.865 118.88 169.973 119.11 170.065L119.642 170.243H119.768L120.081 170.316H120.164H120.29H120.551H120.655H120.77H121.021H122.222H122.556H122.733L123.297 170.232H123.454L123.726 170.17L123.924 170.117L124.175 170.044H124.227H124.31L124.697 169.898L124.843 169.835C125.004 169.763 125.16 169.683 125.313 169.595L147.609 156.573H147.672L147.797 156.489L147.974 156.374L148.11 156.259L148.267 156.134V156.082L148.476 155.852L148.591 155.675V155.601L148.664 155.445V155.351C148.664 155.351 148.664 155.257 148.664 155.205V155.1C148.664 155.1 148.664 154.996 148.664 154.944C148.664 154.891 148.664 154.87 148.664 154.839C148.664 154.808 148.664 154.839 148.664 154.839V145.085C148.664 145.085 149.04 145.158 149.029 145.211Z" fill="url(#paint18_linear)"/>
<path fill-rule="evenodd" clip-rule="evenodd" d="M121.543 155.842C121.212 155.856 120.882 155.802 120.572 155.685L103.278 145.764C103.057 145.638 102.921 145.403 102.921 145.148C102.921 144.894 103.057 144.659 103.278 144.532L120.373 134.538C120.674 134.426 120.993 134.372 121.313 134.382C121.644 134.367 121.975 134.421 122.284 134.538L139.578 144.459C139.799 144.586 139.935 144.821 139.935 145.075C139.935 145.33 139.799 145.565 139.578 145.691L122.483 155.685C122.183 155.798 121.863 155.851 121.543 155.842Z" fill="url(#paint19_linear)"/>
<path fill-rule="evenodd" clip-rule="evenodd" d="M147.526 125.756C149.479 126.873 149.489 128.701 147.526 129.828L125.293 142.84C123.085 143.964 120.473 143.964 118.265 142.84L95.7807 129.943C93.8278 128.826 93.8174 126.998 95.7807 125.87L118.045 112.848C120.253 111.723 122.866 111.723 125.073 112.848L147.526 125.756Z" fill="url(#paint20_linear)"/>
<path fill-rule="evenodd" clip-rule="evenodd" d="M148.987 127.938C148.987 127.99 148.987 128.043 148.987 128.095C148.987 128.147 148.987 128.178 148.987 128.22C148.987 128.262 148.987 128.325 148.987 128.366V128.492L148.914 128.648L148.852 128.763L148.737 128.941L148.653 129.045L148.444 129.275L148.361 129.358L148.204 129.484L148.068 129.599L147.891 129.714L147.703 129.839L125.292 142.84C125.14 142.928 124.983 143.009 124.822 143.081L124.676 143.143L124.29 143.289H124.143L123.882 143.363L123.684 143.415L123.412 143.477H123.224L122.66 143.561H122.483H122.149H121.178H120.948H120.697H120.478H120.217H120.008L119.695 143.488H119.528L118.995 143.31H118.922C118.692 143.218 118.469 143.11 118.254 142.987L95.7696 130.089C94.931 129.718 94.365 128.915 94.2971 128.001V137.462C94.365 138.377 94.931 139.18 95.7696 139.551L118.254 152.448C118.469 152.571 118.692 152.679 118.922 152.772L119.454 152.949H119.58L119.893 153.022H119.977H120.102H120.363H120.467H120.697H120.948H122.149H122.483H122.66L123.224 152.939H123.381L123.653 152.876L123.851 152.824L124.102 152.751H124.154H124.237L124.624 152.605L124.77 152.542C124.931 152.47 125.087 152.39 125.24 152.302L147.505 139.279H147.567L147.693 139.196L147.87 139.081L148.006 138.966L148.162 138.841V138.789L148.371 138.559L148.486 138.381V138.308L148.559 138.152V138.058C148.559 138.058 148.559 137.964 148.559 137.911V137.807C148.559 137.807 148.559 137.702 148.559 137.65C148.559 137.598 148.559 137.577 148.559 137.546C148.559 137.514 148.559 137.546 148.559 137.546V128.084C148.559 128.084 148.987 127.896 148.987 127.938Z" fill="url(#paint21_linear)"/>
<path fill-rule="evenodd" clip-rule="evenodd" d="M121.501 138.58C121.17 138.593 120.84 138.54 120.53 138.423L103.236 128.502C103.016 128.375 102.879 128.14 102.879 127.886C102.879 127.631 103.016 127.396 103.236 127.27L120.332 117.276C120.632 117.163 120.951 117.11 121.272 117.119C121.603 117.105 121.933 117.158 122.243 117.276L139.537 127.197C139.757 127.323 139.894 127.558 139.894 127.813C139.894 128.067 139.757 128.302 139.537 128.429L122.441 138.423C122.141 138.535 121.822 138.588 121.501 138.58Z" fill="url(#paint22_linear)"/>
<path fill-rule="evenodd" clip-rule="evenodd" d="M147.474 108.482C149.427 109.6 149.437 111.427 147.474 112.555L125.209 125.578C123.001 126.701 120.389 126.701 118.181 125.578L95.7283 112.712C93.7755 111.595 93.765 109.767 95.7283 108.639L117.993 95.6166C120.201 94.4914 122.814 94.4914 125.021 95.6166L147.474 108.482Z" fill="url(#paint23_linear)"/>
<path fill-rule="evenodd" clip-rule="evenodd" d="M148.894 110.623C148.894 110.675 148.894 110.728 148.894 110.78C148.894 110.832 148.894 110.863 148.894 110.905C148.894 110.947 148.894 111.01 148.894 111.051V111.177L148.82 111.333L148.758 111.448L148.643 111.626L148.559 111.73L148.35 111.96L148.267 112.043L148.11 112.169L147.975 112.284L147.797 112.398L147.609 112.524L125.344 125.546C125.192 125.634 125.035 125.714 124.874 125.787L124.728 125.849L124.342 125.995H124.196L123.935 126.068L123.736 126.121L123.465 126.183H123.277L122.713 126.267H122.535H122.201H121.23H121H120.749H120.53H120.269H120.06L119.747 126.194H119.58L119.047 126.016H118.974C118.744 125.924 118.521 125.816 118.306 125.693L95.7278 112.712C94.8893 112.341 94.3233 111.538 94.2554 110.623V120.085C94.3233 120.999 94.8893 121.802 95.7278 122.173L118.212 135.07C118.427 135.194 118.65 135.302 118.88 135.394L119.413 135.572H119.538L119.851 135.645H119.935H120.06H120.321H120.426H120.697H120.948H122.149H122.483H122.661L123.224 135.561H123.381L123.653 135.499L123.851 135.446L124.102 135.373H124.154H124.237L124.624 135.227L124.77 135.164C124.931 135.092 125.088 135.012 125.24 134.924L147.505 121.902H147.567L147.693 121.818L147.87 121.703L148.006 121.588L148.162 121.463V121.411L148.371 121.181L148.486 121.004V120.93L148.559 120.774V120.68C148.559 120.68 148.559 120.586 148.559 120.534V120.429C148.559 120.429 148.559 120.325 148.559 120.273C148.559 120.22 148.559 120.199 148.559 120.168C148.559 120.137 148.559 120.168 148.559 120.168V110.707L148.894 110.623Z" fill="url(#paint24_linear)"/>
<path fill-rule="evenodd" clip-rule="evenodd" d="M121.449 121.307C121.118 121.32 120.788 121.267 120.478 121.15L103.184 111.229C102.963 111.103 102.827 110.867 102.827 110.613C102.827 110.358 102.963 110.123 103.184 109.997L120.279 100.003C120.58 99.8902 120.899 99.837 121.219 99.8461C121.55 99.8319 121.881 99.8852 122.19 100.003L139.484 109.924C139.705 110.05 139.841 110.285 139.841 110.54C139.841 110.794 139.705 111.029 139.484 111.156L122.389 121.15C122.089 121.262 121.769 121.316 121.449 121.307Z" fill="#DDDCF9"/>
<path fill-rule="evenodd" clip-rule="evenodd" d="M107.675 45.1455L107.852 109.892C107.851 110.079 107.951 110.25 108.113 110.342L120.697 117.526C121.148 117.677 121.635 117.677 122.086 117.526L134.534 110.216C134.699 110.119 134.796 109.938 134.785 109.746L134.607 44.9993L107.675 45.1455Z" fill="url(#paint25_linear)"/>
<path fill-rule="evenodd" clip-rule="evenodd" d="M102.704 65.9372L102.829 110.602C102.83 110.853 102.966 111.084 103.184 111.208L120.478 121.129C121.098 121.337 121.769 121.337 122.389 121.129L139.495 111.156C139.727 111.025 139.864 110.774 139.85 110.508L139.725 65.8433L102.704 65.9372Z" fill="url(#paint26_linear)"/>
<path fill-rule="evenodd" clip-rule="evenodd" d="M135.036 96.3999C135.036 96.198 135.036 95.9961 135.036 95.7942C135.036 95.5923 135.036 95.3904 135.036 95.1885C135.036 94.9797 135.011 94.7708 134.962 94.5619C134.914 94.3531 134.882 94.1373 134.869 93.9145C134.869 93.7474 134.841 93.5768 134.785 93.4028V93.2566C134.743 93.0338 134.698 92.811 134.649 92.5882C134.6 92.3654 134.548 92.1391 134.493 91.9094C134.437 91.6866 134.378 91.4603 134.315 91.2306C134.252 91.0009 134.186 90.7781 134.117 90.5622L133.908 89.9043L133.688 89.2673L133.459 88.6512L133.218 88.0455L132.957 87.4398L132.686 86.8445L132.362 86.1866L131.976 85.4451C131.774 85.0622 131.562 84.6863 131.339 84.3173C131.005 83.7534 130.656 83.2034 130.294 82.6673C130.058 82.3192 129.814 81.9711 129.563 81.623L129.031 80.9337L128.54 80.328L128.049 79.7537L127.548 79.2002L127.026 78.6571L126.483 78.1246L125.919 77.6024L125.355 77.1116L124.791 76.6521L124.227 76.2239L123.684 75.848L123.151 75.5033L122.629 75.19L122.504 75.1169L122.107 74.8976L121.595 74.6366L121.084 74.3964L120.572 74.1771L120.06 73.9891L119.58 73.8325L119.047 73.6862L118.515 73.5714L117.961 73.4774L117.397 73.4252H116.812H116.155C115.913 73.4472 115.672 73.482 115.434 73.5296C115.136 73.5885 114.843 73.6688 114.557 73.7698C114.195 73.8929 113.845 74.0503 113.512 74.2397L109.659 76.4954C109.991 76.306 110.341 76.1486 110.703 76.0255C110.99 75.9245 111.283 75.8443 111.58 75.7853C111.819 75.7377 112.059 75.7029 112.301 75.6809H112.959H113.544L114.108 75.7331L114.661 75.8271L115.194 75.942L115.726 76.0882L115.883 76.1404L116.718 76.4328L117.23 76.6521L117.742 76.8923L118.254 77.1533L118.65 77.3727L118.776 77.4458L119.298 77.759L119.83 78.1037L120.374 78.4796L120.937 78.9078L121.501 79.3673L122.065 79.8581L122.629 80.3803L123.172 80.9129L123.694 81.4559L124.196 82.0094L124.687 82.5837L125.177 83.1894L125.71 83.8787C125.961 84.2129 126.204 84.561 126.441 84.923C126.803 85.4591 127.151 86.0091 127.485 86.573C127.708 86.942 127.92 87.3179 128.122 87.7008L128.509 88.4423L128.832 89.1002L129.104 89.6955L129.365 90.3012L129.605 90.9069L129.835 91.523L130.054 92.16L130.263 92.8179C130.333 93.0407 130.399 93.2635 130.462 93.4863C130.524 93.7091 130.583 93.9354 130.639 94.1651C130.695 94.3879 130.747 94.6142 130.796 94.8439C130.844 95.0737 130.89 95.2964 130.931 95.5123V95.6585C130.931 95.8256 130.959 95.9961 131.015 96.1702C131.071 96.3442 131.102 96.56 131.109 96.8176C131.109 97.0265 131.133 97.2354 131.182 97.4442C131.231 97.6531 131.231 97.855 131.182 98.0499C131.182 98.2518 131.182 98.4537 131.182 98.6556C131.182 98.8575 131.182 99.0559 131.182 99.2509C131.182 99.4528 131.182 99.6512 131.182 99.8461C131.182 100.041 131.182 100.236 131.182 100.431C131.182 100.633 131.161 100.835 131.119 101.037C131.078 101.239 131.05 101.437 131.036 101.632C131.001 101.848 130.959 102.057 130.911 102.258C130.862 102.46 130.806 102.676 130.743 102.906C130.674 103.136 130.601 103.358 130.524 103.574C130.448 103.79 130.347 104.034 130.221 104.305C130.08 104.607 129.919 104.9 129.741 105.183C129.197 106.065 128.448 106.803 127.558 107.334L131.412 105.078C132.302 104.547 133.051 103.809 133.594 102.927C133.773 102.645 133.933 102.352 134.075 102.05C134.186 101.813 134.287 101.569 134.378 101.319C134.468 101.068 134.541 100.845 134.597 100.65C134.66 100.441 134.715 100.226 134.764 100.003C134.764 99.7939 134.848 99.5955 134.889 99.3762C134.931 99.1569 134.952 98.9794 134.973 98.7809C134.994 98.5825 134.973 98.3841 135.036 98.1752C135.098 97.9664 135.036 97.7888 135.036 97.5904C135.036 97.392 135.036 97.1936 135.036 96.9952C135.036 96.7968 135.046 96.5983 135.036 96.3999Z" fill="url(#paint27_linear)"/>
<path fill-rule="evenodd" clip-rule="evenodd" d="M118.546 77.4143C124.279 80.7039 129.48 88.1916 130.858 95.6688C132.467 104.399 128.248 109.809 121.46 107.741C120.443 107.424 119.466 106.993 118.546 106.457C112.813 103.167 107.612 95.6793 106.234 88.202C104.625 79.4716 108.844 74.0726 115.632 76.1298C116.649 76.4469 117.626 76.8778 118.546 77.4143Z" fill="url(#paint28_linear)"/>
<path fill-rule="evenodd" clip-rule="evenodd" d="M118.609 79.6909C123.465 82.4792 127.861 88.8077 129.052 95.1362C130.409 102.519 126.838 107.094 121.084 105.35C120.222 105.096 119.392 104.745 118.609 104.305C113.753 101.517 109.356 95.1884 108.165 88.8599C106.808 81.4767 110.379 76.9026 116.134 78.6466C116.995 78.9006 117.825 79.2509 118.609 79.6909Z" fill="white"/>
<path fill-rule="evenodd" clip-rule="evenodd" d="M118.609 80.3383C123.204 82.9699 127.36 88.9643 128.467 94.9586C129.751 101.945 126.378 106.268 120.927 104.629C120.11 104.37 119.325 104.02 118.588 103.585C113.993 100.953 109.836 94.9586 108.73 88.9643C107.445 81.9779 110.818 77.644 116.269 79.294C117.086 79.5524 117.871 79.9027 118.609 80.3383Z" fill="url(#paint29_linear)"/>
<path fill-rule="evenodd" clip-rule="evenodd" d="M112.792 84.7245L118.087 90.4264L118.097 98.9271L112.792 93.2147V84.7245Z" fill="white"/>
<path fill-rule="evenodd" clip-rule="evenodd" d="M124.269 91.544V100.045L118.964 94.3323V90.5833L124.269 91.544Z" fill="white"/>
<path fill-rule="evenodd" clip-rule="evenodd" d="M118.964 85.1212L124.269 90.8336L118.097 89.7266L112.792 84.0143L118.964 85.1212Z" fill="white"/>
<path fill-rule="evenodd" clip-rule="evenodd" d="M99.8111 170.755C101.764 171.872 101.774 173.7 99.8111 174.827L77.5673 187.85C75.3593 188.973 72.7472 188.973 70.5392 187.85L48.0552 174.953C46.1024 173.835 46.0919 172.008 48.0552 170.88L70.3198 157.857C72.5275 156.732 75.1404 156.732 77.348 157.857L99.8111 170.755Z" fill="url(#paint30_linear)"/>
<path fill-rule="evenodd" clip-rule="evenodd" d="M101.263 172.947C101.263 173 101.263 173.052 101.263 173.104C101.263 173.156 101.263 173.188 101.263 173.229C101.263 173.271 101.263 173.334 101.263 173.376V173.501L101.19 173.658L101.127 173.772L101.012 173.95L100.929 174.054L100.72 174.284L100.636 174.368L100.479 174.493L100.344 174.608L100.166 174.723L99.9782 174.848L77.5674 187.85C77.4149 187.938 77.258 188.018 77.0975 188.09L76.9512 188.153L76.5649 188.299H76.4187L76.1576 188.372L75.9592 188.424L75.6876 188.487H75.4997L74.9357 188.57H74.7478H74.4136H73.4424H73.2126H72.962H72.7427H72.4816H72.2728L71.9595 188.497H71.7924L71.2598 188.32H71.1867C70.9719 188.195 70.766 188.055 70.5705 187.902L48.0866 175.005C47.2481 174.634 46.6821 173.831 46.6141 172.916V182.378C46.6821 183.292 47.2481 184.095 48.0866 184.466L70.5705 197.301C70.7856 197.424 71.0089 197.532 71.2389 197.624L71.7715 197.802H71.8968L72.2101 197.875H72.2936H72.419H72.68H72.7845H72.8993H73.15H74.3509H74.6851H74.8626L75.4266 197.792H75.5832L75.8547 197.729L76.0531 197.677L76.3038 197.604H76.356H76.4395L76.8259 197.457L76.9721 197.395C77.1328 197.323 77.2896 197.243 77.4421 197.154L99.8111 184.289H99.8738L99.9991 184.205L100.177 184.09L100.312 183.975L100.469 183.85V183.798L100.678 183.568L100.793 183.391V183.317L100.866 183.161V183.067C100.866 183.067 100.866 182.973 100.866 182.921V182.816C100.866 182.816 100.866 182.712 100.866 182.66C100.866 182.607 100.866 182.586 100.866 182.555C100.866 182.524 100.866 182.555 100.866 182.555V173.094C100.866 173.094 101.263 172.895 101.263 172.947Z" fill="url(#paint31_linear)"/>
<path fill-rule="evenodd" clip-rule="evenodd" d="M73.7765 183.579C73.4456 183.592 73.1152 183.539 72.8053 183.422L55.5116 173.501C55.2908 173.375 55.1545 173.14 55.1545 172.885C55.1545 172.63 55.2908 172.395 55.5116 172.269L72.6069 162.275C72.9071 162.162 73.2263 162.109 73.5468 162.118C73.8778 162.104 74.2082 162.157 74.518 162.275L91.8117 172.196C92.0326 172.322 92.1688 172.557 92.1688 172.812C92.1688 173.066 92.0326 173.301 91.8117 173.428L74.7477 183.422C74.4377 183.538 74.1075 183.592 73.7765 183.579Z" fill="url(#paint32_linear)"/>
<path fill-rule="evenodd" clip-rule="evenodd" d="M99.7489 153.44C101.702 154.557 101.712 156.385 99.7489 157.513L77.4843 170.535C75.2763 171.659 72.6641 171.659 70.4561 170.535L48.014 157.701C46.0611 156.583 46.0507 154.756 48.014 153.628L70.2786 140.605C72.4862 139.48 75.0992 139.48 77.3068 140.605L99.7489 153.44Z" fill="url(#paint33_linear)"/>
<path fill-rule="evenodd" clip-rule="evenodd" d="M101.21 155.675C101.21 155.727 101.21 155.779 101.21 155.831C101.21 155.884 101.21 155.915 101.21 155.957C101.21 155.998 101.21 156.061 101.21 156.103V156.228L101.137 156.385L101.075 156.5L100.96 156.677L100.876 156.782L100.667 157.011L100.584 157.095L100.427 157.22L100.291 157.335L100.114 157.45L99.926 157.575L77.6614 170.598C77.5089 170.686 77.352 170.766 77.1914 170.838L77.0452 170.901L76.6588 171.047H76.5126L76.2515 171.12L76.0531 171.172L75.7816 171.235H75.5936L75.0297 171.318H74.7477H74.4136H73.4424H73.2126H72.962H72.7427H72.4816H72.2727L71.9594 171.245H71.7924L71.2598 171.068H71.1867C70.9567 170.975 70.7334 170.867 70.5183 170.744L48.0135 157.701C47.1749 157.329 46.6089 156.527 46.541 155.612V165.073C46.6089 165.988 47.1749 166.791 48.0135 167.162L70.4974 180.059C70.7125 180.182 70.9358 180.291 71.1658 180.383L71.6984 180.56H71.8237L72.137 180.634H72.2205H72.3458H72.6069H72.7113H72.8262H73.0769H74.2778H74.612H74.7895L75.3534 180.55H75.5101L75.7816 180.487L75.98 180.435L76.2307 180.362H76.2829H76.3664L76.7528 180.216L76.899 180.153C77.0597 180.081 77.2165 180.001 77.369 179.913L99.8111 167.016H99.8738L99.9991 166.932L100.177 166.817L100.312 166.703L100.469 166.577V166.525L100.678 166.295L100.793 166.118V166.045L100.866 165.888V165.794C100.866 165.794 100.866 165.7 100.866 165.648V165.543C100.866 165.543 100.866 165.439 100.866 165.387C100.866 165.334 100.866 165.314 100.866 165.282C100.866 165.251 100.866 165.282 100.866 165.282V155.528C100.866 155.528 101.221 155.633 101.21 155.675Z" fill="url(#paint34_linear)"/>
<path fill-rule="evenodd" clip-rule="evenodd" d="M73.7034 166.306C73.3724 166.32 73.0421 166.266 72.7322 166.149L55.4385 156.228C55.2176 156.102 55.0814 155.867 55.0814 155.612C55.0814 155.358 55.2176 155.123 55.4385 154.996L72.5338 145.002C72.834 144.89 73.1532 144.836 73.4737 144.845C73.8047 144.831 74.1351 144.885 74.4449 145.002L91.7386 154.923C91.9594 155.05 92.0957 155.285 92.0957 155.539C92.0957 155.794 91.9594 156.029 91.7386 156.155L74.6433 166.149C74.343 166.262 74.0239 166.315 73.7034 166.306Z" fill="#DDDCF9"/>
<path fill-rule="evenodd" clip-rule="evenodd" d="M59.95 90.1552L60.1275 154.902C60.1264 155.088 60.2264 155.26 60.3886 155.351L72.9829 162.578C73.4336 162.728 73.9211 162.728 74.3718 162.578L86.82 155.268C86.9849 155.17 87.0816 154.989 87.0706 154.798L86.8931 90.0508L59.95 90.1552Z" fill="url(#paint35_linear)"/>
<path fill-rule="evenodd" clip-rule="evenodd" d="M54.979 110.947L55.1043 155.612C55.1055 155.863 55.241 156.094 55.4594 156.218L72.7531 166.139C73.3732 166.347 74.0441 166.347 74.6642 166.139L91.7595 156.145C91.9914 156.014 92.129 155.763 92.1146 155.497L91.9892 110.832L54.979 110.947Z" fill="url(#paint36_linear)"/>
<path fill-rule="evenodd" clip-rule="evenodd" d="M87.3735 141.65C87.3735 141.448 87.3735 141.246 87.3735 141.044C87.3735 140.842 87.3735 140.64 87.3735 140.438C87.3735 140.23 87.3491 140.021 87.3004 139.812C87.2516 139.603 87.2203 139.387 87.2064 139.164C87.2064 138.997 87.1785 138.827 87.1228 138.653V138.506C87.0811 138.284 87.0358 138.061 86.9871 137.838C86.9383 137.615 86.8861 137.389 86.8304 137.159C86.7747 136.936 86.7156 136.71 86.6529 136.48C86.5902 136.251 86.5241 136.028 86.4545 135.812L86.2456 135.154L86.0263 134.517L85.7966 133.901L85.5564 133.295L85.2953 132.69L85.0238 132.094L84.7 131.436L84.3137 130.695C84.1118 130.312 83.8994 129.936 83.6766 129.567C83.3424 129.003 82.9943 128.453 82.6323 127.917C82.3956 127.569 82.1519 127.221 81.9013 126.873L81.3687 126.184L80.8779 125.578L80.3871 125.004L79.8858 124.45L79.3636 123.907L78.8206 123.374L78.2567 122.852L77.6927 122.361L77.1288 121.902L76.5649 121.474L76.0219 121.098L75.4893 120.753L74.9671 120.44L74.8418 120.367L74.445 120.147L73.9332 119.886C73.787 119.813 72.7741 119.406 72.3877 119.249H72.2624L71.9386 119.145L71.406 118.999L70.8734 118.884L70.3199 118.79L69.756 118.738H69.1712H68.5133C68.2714 118.76 68.0309 118.795 67.7927 118.842C67.4949 118.901 67.2018 118.981 66.9155 119.082C66.5532 119.205 66.2036 119.363 65.8712 119.552L62.0177 121.808C62.3501 121.618 62.6998 121.461 63.062 121.338C63.3483 121.237 63.6415 121.157 63.9392 121.098C64.1774 121.05 64.4179 121.015 64.6598 120.993H65.3177H65.9025L66.4664 121.046L67.0199 121.14L67.5525 121.254L68.0851 121.401L68.5655 121.557C67.657 121.432 68.9101 121.683 69.0772 121.745L69.5889 121.965L70.1006 122.205L70.6123 122.466L71.0092 122.685L71.1345 122.758L71.6567 123.072L72.1892 123.416L72.7323 123.792L73.2962 124.22L73.8601 124.68L74.4241 125.171L74.988 125.693L75.531 126.225L76.0532 126.768L76.5545 127.322L77.0453 127.896L77.5361 128.502L78.0687 129.191C78.3193 129.525 78.563 129.873 78.7997 130.235C79.1617 130.772 79.5098 131.322 79.844 131.885C80.0668 132.254 80.2791 132.63 80.481 133.013L80.8674 133.755L81.1912 134.413L81.4627 135.008L81.7238 135.614L81.964 136.219L82.1937 136.836L82.413 137.473C82.4896 137.688 82.5592 137.908 82.6219 138.13C82.6845 138.353 82.7507 138.576 82.8203 138.799C82.8829 139.022 82.9421 139.248 82.9978 139.478C83.0535 139.707 83.1057 139.934 83.1545 140.156C83.2032 140.379 83.2485 140.602 83.2902 140.825V140.971C83.2902 141.138 83.3181 141.309 83.3738 141.483C83.4295 141.657 83.4608 141.873 83.4678 142.13C83.4678 142.339 83.4921 142.548 83.5409 142.757C83.5896 142.966 83.5896 143.167 83.5409 143.362C83.5409 143.564 83.5409 143.766 83.5409 143.968C83.5409 144.17 83.5409 144.368 83.5409 144.563C83.5409 144.765 83.5409 144.964 83.5409 145.159C83.5409 145.354 83.5409 145.549 83.5409 145.743C83.5409 145.945 83.52 146.147 83.4782 146.349C83.4364 146.551 83.4086 146.749 83.3947 146.944C83.3598 147.16 83.3181 147.369 83.2693 147.571C83.2693 147.79 83.1649 148.01 83.1023 148.218C83.0396 148.427 82.9665 148.668 82.8829 148.887C82.7994 149.106 82.6845 149.378 82.5801 149.618C82.4384 149.92 82.2779 150.213 82.0997 150.495C81.5558 151.377 80.8071 152.115 79.9171 152.646L83.7706 150.391C84.6606 149.859 85.4093 149.122 85.9532 148.239C86.1314 147.957 86.2919 147.664 86.4336 147.362C86.545 147.125 86.6459 146.882 86.7364 146.631C86.827 146.38 86.9 146.158 86.9557 145.963C87.0184 145.754 87.0741 145.538 87.1228 145.315C87.1716 145.092 87.2133 144.884 87.2482 144.689C87.2482 144.494 87.276 144.295 87.3317 144.093C87.3874 143.892 87.4083 143.69 87.3944 143.488C87.3944 143.293 87.3944 143.098 87.3944 142.903C87.3944 142.708 87.3944 142.51 87.3944 142.308C87.3874 142.071 87.3804 141.852 87.3735 141.65Z" fill="url(#paint37_linear)"/>
<path fill-rule="evenodd" clip-rule="evenodd" d="M70.8734 122.664C76.6066 125.954 81.8072 133.441 83.1857 140.919C84.794 149.649 80.575 155.059 73.787 152.991C72.7705 152.674 71.7931 152.243 70.8734 151.706C65.1401 148.417 59.9395 140.929 58.561 133.452C56.9527 124.722 61.1717 119.322 67.9597 121.38C68.9762 121.697 69.9537 122.128 70.8734 122.664Z" fill="url(#paint38_linear)"/>
<path fill-rule="evenodd" clip-rule="evenodd" d="M70.9256 124.951C75.7816 127.739 80.1781 134.068 81.3687 140.396C82.7263 147.78 79.1547 152.354 73.4006 150.61C72.539 150.356 71.7087 150.006 70.9256 149.565C66.0696 146.777 61.673 140.449 60.4825 134.12C59.1249 126.737 62.6964 122.163 68.4506 123.907C69.3122 124.161 70.1425 124.511 70.9256 124.951Z" fill="white"/>
<path fill-rule="evenodd" clip-rule="evenodd" d="M70.9254 125.609C75.5204 128.241 79.6767 134.235 80.7837 140.229C82.0682 147.216 78.6951 151.539 73.2438 149.9C72.427 149.641 71.6422 149.291 70.9046 148.855C66.3096 146.224 62.1533 140.229 61.0463 134.235C59.7618 127.249 63.1349 122.915 68.5862 124.565C69.403 124.823 70.1878 125.174 70.9254 125.609Z" fill="url(#paint39_linear)"/>
<path fill-rule="evenodd" clip-rule="evenodd" d="M75.0505 140.919L70.7584 145.378V141.41L75.0505 140.919Z" fill="white"/>
<path fill-rule="evenodd" clip-rule="evenodd" d="M70.7584 135.478L74.8521 139.969L70.7584 140.366V135.478Z" fill="white"/>
<path fill-rule="evenodd" clip-rule="evenodd" d="M70.7584 129.296L74.8939 139.54L70.7584 135.018V129.296Z" fill="white"/>
<path fill-rule="evenodd" clip-rule="evenodd" d="M70.3929 135.269V140.157L66.2888 135.05L70.3929 135.269Z" fill="white"/>
<path fill-rule="evenodd" clip-rule="evenodd" d="M66.0903 135.77L70.3824 141.19V145.169L66.0903 135.77Z" fill="white"/>
<path fill-rule="evenodd" clip-rule="evenodd" d="M70.3928 129.087V134.809L66.2678 134.59L70.3928 129.087Z" fill="white"/>
<defs>
<linearGradient id="paint0_linear" x1="241.486" y1="84.982" x2="0.502317" y2="84.982" gradientUnits="userSpaceOnUse">
<stop offset="0.12" stop-color="#56A1FF"/>
<stop offset="1" stop-color="#5187DC"/>
</linearGradient>
<linearGradient id="paint1_linear" x1="142.306" y1="128.815" x2="196.996" y2="128.815" gradientUnits="userSpaceOnUse">
<stop offset="0.12" stop-color="#DDDCF9"/>
<stop offset="0.56" stop-color="white"/>
<stop offset="0.71" stop-color="#F9F8FE"/>
<stop offset="0.91" stop-color="#E6E6FB"/>
<stop offset="1" stop-color="#DDDCF9"/>
</linearGradient>
<linearGradient id="paint2_linear" x1="196.994" y1="113.112" x2="142.283" y2="113.112" gradientUnits="userSpaceOnUse">
<stop offset="0.12" stop-color="#DDDCF9"/>
<stop offset="0.56" stop-color="white"/>
<stop offset="0.71" stop-color="#F9F8FE"/>
<stop offset="0.91" stop-color="#E6E6FB"/>
<stop offset="1" stop-color="#DDDCF9"/>
</linearGradient>
<linearGradient id="paint3_linear" x1="187.888" y1="102.239" x2="150.867" y2="102.239" gradientUnits="userSpaceOnUse">
<stop offset="0.12" stop-color="#DDDCF9"/>
<stop offset="0.56" stop-color="white"/>
<stop offset="0.71" stop-color="#F9F8FE"/>
<stop offset="0.91" stop-color="#E6E6FB"/>
<stop offset="1" stop-color="#DDDCF9"/>
</linearGradient>
<linearGradient id="paint4_linear" x1="142.304" y1="111.554" x2="196.994" y2="111.554" gradientUnits="userSpaceOnUse">
<stop offset="0.12" stop-color="#DDDCF9"/>
<stop offset="0.56" stop-color="white"/>
<stop offset="0.71" stop-color="#F9F8FE"/>
<stop offset="0.91" stop-color="#E6E6FB"/>
<stop offset="1" stop-color="#DDDCF9"/>
</linearGradient>
<linearGradient id="paint5_linear" x1="196.994" y1="95.8299" x2="142.283" y2="95.8299" gradientUnits="userSpaceOnUse">
<stop offset="0.12" stop-color="#DDDCF9"/>
<stop offset="0.56" stop-color="white"/>
<stop offset="0.71" stop-color="#F9F8FE"/>
<stop offset="0.91" stop-color="#E6E6FB"/>
<stop offset="1" stop-color="#DDDCF9"/>
</linearGradient>
<linearGradient id="paint6_linear" x1="187.888" y1="84.9607" x2="150.867" y2="84.9607" gradientUnits="userSpaceOnUse">
<stop offset="0.12" stop-color="#DDDCF9"/>
<stop offset="0.56" stop-color="white"/>
<stop offset="0.71" stop-color="#F9F8FE"/>
<stop offset="0.91" stop-color="#E6E6FB"/>
<stop offset="1" stop-color="#DDDCF9"/>
</linearGradient>
<linearGradient id="paint7_linear" x1="142.304" y1="94.2861" x2="196.994" y2="94.2861" gradientUnits="userSpaceOnUse">
<stop offset="0.12" stop-color="#DDDCF9"/>
<stop offset="0.56" stop-color="white"/>
<stop offset="0.71" stop-color="#F9F8FE"/>
<stop offset="0.91" stop-color="#E6E6FB"/>
<stop offset="1" stop-color="#DDDCF9"/>
</linearGradient>
<linearGradient id="paint8_linear" x1="196.994" y1="78.4996" x2="142.283" y2="78.4996" gradientUnits="userSpaceOnUse">
<stop offset="0.12" stop-color="#DDDCF9"/>
<stop offset="0.56" stop-color="white"/>
<stop offset="0.71" stop-color="#F9F8FE"/>
<stop offset="0.91" stop-color="#E6E6FB"/>
<stop offset="1" stop-color="#DDDCF9"/>
</linearGradient>
<linearGradient id="paint9_linear" x1="187.888" y1="67.7086" x2="150.867" y2="67.7086" gradientUnits="userSpaceOnUse">
<stop offset="0.12" stop-color="#DDDCF9"/>
<stop offset="0.56" stop-color="white"/>
<stop offset="0.71" stop-color="#F9F8FE"/>
<stop offset="0.91" stop-color="#E6E6FB"/>
<stop offset="1" stop-color="#DDDCF9"/>
</linearGradient>
<linearGradient id="paint10_linear" x1="142.304" y1="77.0109" x2="196.995" y2="77.0109" gradientUnits="userSpaceOnUse">
<stop offset="0.12" stop-color="#DDDCF9"/>
<stop offset="0.56" stop-color="white"/>
<stop offset="0.71" stop-color="#F9F8FE"/>
<stop offset="0.91" stop-color="#E6E6FB"/>
<stop offset="1" stop-color="#DDDCF9"/>
</linearGradient>
<linearGradient id="paint11_linear" x1="196.994" y1="61.2955" x2="142.283" y2="61.2955" gradientUnits="userSpaceOnUse">
<stop offset="0.12" stop-color="#DDDCF9"/>
<stop offset="0.56" stop-color="white"/>
<stop offset="0.71" stop-color="#F9F8FE"/>
<stop offset="0.91" stop-color="#E6E6FB"/>
<stop offset="1" stop-color="#DDDCF9"/>
</linearGradient>
<linearGradient id="paint12_linear" x1="182.486" y1="72.6378" x2="182.486" y2="0.00239934" gradientUnits="userSpaceOnUse">
<stop stop-color="#9AC1FF"/>
<stop offset="0.171875" stop-color="#9AC1FF" stop-opacity="0.8"/>
<stop offset="0.385417" stop-color="#9AC1FF" stop-opacity="0.5"/>
<stop offset="0.682292" stop-color="#9AC1FF" stop-opacity="0.2"/>
<stop offset="0.947917" stop-color="#9AC1FF" stop-opacity="0.01"/>
</linearGradient>
<linearGradient id="paint13_linear" x1="187.528" y1="76.2528" x2="187.528" y2="20.8148" gradientUnits="userSpaceOnUse">
<stop stop-color="#9AC1FF"/>
<stop offset="0.171875" stop-color="#9AC1FF" stop-opacity="0.8"/>
<stop offset="0.385417" stop-color="#9AC1FF" stop-opacity="0.5"/>
<stop offset="0.682292" stop-color="#9AC1FF" stop-opacity="0.2"/>
<stop offset="0.947917" stop-color="#9AC1FF" stop-opacity="0.01"/>
</linearGradient>
<linearGradient id="paint14_linear" x1="157.249" y1="62.6599" x2="182.774" y2="62.6599" gradientUnits="userSpaceOnUse">
<stop stop-color="#FF9900"/>
<stop offset="1" stop-color="#FFB800"/>
</linearGradient>
<linearGradient id="paint15_linear" x1="153.597" y1="63.4319" x2="178.929" y2="63.4319" gradientUnits="userSpaceOnUse">
<stop stop-color="#FF9900"/>
<stop offset="1" stop-color="#FFB800"/>
</linearGradient>
<linearGradient id="paint16_linear" x1="156.151" y1="60.2373" x2="176.453" y2="60.2373" gradientUnits="userSpaceOnUse">
<stop stop-color="#FF9900"/>
<stop offset="1" stop-color="#FFB800"/>
</linearGradient>
<linearGradient id="paint17_linear" x1="94.4955" y1="156.459" x2="149.186" y2="156.459" gradientUnits="userSpaceOnUse">
<stop offset="0.12" stop-color="#DDDCF9"/>
<stop offset="0.56" stop-color="white"/>
<stop offset="0.71" stop-color="#F9F8FE"/>
<stop offset="0.91" stop-color="#E6E6FB"/>
<stop offset="1" stop-color="#DDDCF9"/>
</linearGradient>
<linearGradient id="paint18_linear" x1="149.186" y1="140.616" x2="94.4641" y2="140.616" gradientUnits="userSpaceOnUse">
<stop offset="0.12" stop-color="#DDDCF9"/>
<stop offset="0.56" stop-color="white"/>
<stop offset="0.71" stop-color="#F9F8FE"/>
<stop offset="0.91" stop-color="#E6E6FB"/>
<stop offset="1" stop-color="#DDDCF9"/>
</linearGradient>
<linearGradient id="paint19_linear" x1="140.069" y1="129.885" x2="103.059" y2="129.885" gradientUnits="userSpaceOnUse">
<stop offset="0.12" stop-color="#DDDCF9"/>
<stop offset="0.56" stop-color="white"/>
<stop offset="0.71" stop-color="#F9F8FE"/>
<stop offset="0.91" stop-color="#E6E6FB"/>
<stop offset="1" stop-color="#DDDCF9"/>
</linearGradient>
<linearGradient id="paint20_linear" x1="94.4962" y1="139.195" x2="149.187" y2="139.195" gradientUnits="userSpaceOnUse">
<stop offset="0.12" stop-color="#DDDCF9"/>
<stop offset="0.56" stop-color="white"/>
<stop offset="0.71" stop-color="#F9F8FE"/>
<stop offset="0.91" stop-color="#E6E6FB"/>
<stop offset="1" stop-color="#DDDCF9"/>
</linearGradient>
<linearGradient id="paint21_linear" x1="149.186" y1="123.448" x2="94.4642" y2="123.448" gradientUnits="userSpaceOnUse">
<stop offset="0.12" stop-color="#DDDCF9"/>
<stop offset="0.56" stop-color="white"/>
<stop offset="0.71" stop-color="#F9F8FE"/>
<stop offset="0.91" stop-color="#E6E6FB"/>
<stop offset="1" stop-color="#DDDCF9"/>
</linearGradient>
<linearGradient id="paint22_linear" x1="140.069" y1="112.612" x2="103.059" y2="112.612" gradientUnits="userSpaceOnUse">
<stop offset="0.12" stop-color="#DDDCF9"/>
<stop offset="0.56" stop-color="white"/>
<stop offset="0.71" stop-color="#F9F8FE"/>
<stop offset="0.91" stop-color="#E6E6FB"/>
<stop offset="1" stop-color="#DDDCF9"/>
</linearGradient>
<linearGradient id="paint23_linear" x1="94.496" y1="121.917" x2="149.186" y2="121.917" gradientUnits="userSpaceOnUse">
<stop offset="0.12" stop-color="#DDDCF9"/>
<stop offset="0.56" stop-color="white"/>
<stop offset="0.71" stop-color="#F9F8FE"/>
<stop offset="0.91" stop-color="#E6E6FB"/>
<stop offset="1" stop-color="#DDDCF9"/>
</linearGradient>
<linearGradient id="paint24_linear" x1="149.186" y1="106.197" x2="94.4642" y2="106.197" gradientUnits="userSpaceOnUse">
<stop offset="0.12" stop-color="#DDDCF9"/>
<stop offset="0.56" stop-color="white"/>
<stop offset="0.71" stop-color="#F9F8FE"/>
<stop offset="0.91" stop-color="#E6E6FB"/>
<stop offset="1" stop-color="#DDDCF9"/>
</linearGradient>
<linearGradient id="paint25_linear" x1="134.782" y1="117.637" x2="134.782" y2="45.0015" gradientUnits="userSpaceOnUse">
<stop stop-color="#9AC1FF"/>
<stop offset="0.171875" stop-color="#9AC1FF" stop-opacity="0.8"/>
<stop offset="0.385417" stop-color="#9AC1FF" stop-opacity="0.5"/>
<stop offset="0.682292" stop-color="#9AC1FF" stop-opacity="0.2"/>
<stop offset="0.947917" stop-color="#9AC1FF" stop-opacity="0.01"/>
</linearGradient>
<linearGradient id="paint26_linear" x1="139.845" y1="121.283" x2="139.845" y2="65.845" gradientUnits="userSpaceOnUse">
<stop stop-color="#9AC1FF"/>
<stop offset="0.171875" stop-color="#9AC1FF" stop-opacity="0.8"/>
<stop offset="0.385417" stop-color="#9AC1FF" stop-opacity="0.5"/>
<stop offset="0.682292" stop-color="#9AC1FF" stop-opacity="0.2"/>
<stop offset="0.947917" stop-color="#9AC1FF" stop-opacity="0.01"/>
</linearGradient>
<linearGradient id="paint27_linear" x1="104.723" y1="80.184" x2="129.32" y2="104.101" gradientUnits="userSpaceOnUse">
<stop offset="0.12" stop-color="#7F64FF"/>
<stop offset="1" stop-color="#6B49FF"/>
</linearGradient>
<linearGradient id="paint28_linear" x1="106.171" y1="103.647" x2="131.454" y2="103.647" gradientUnits="userSpaceOnUse">
<stop offset="0.12" stop-color="#7F64FF"/>
<stop offset="1" stop-color="#6B49FF"/>
</linearGradient>
<linearGradient id="paint29_linear" x1="108.74" y1="100.465" x2="128.989" y2="100.465" gradientUnits="userSpaceOnUse">
<stop offset="0.12" stop-color="#7F64FF"/>
<stop offset="1" stop-color="#6B49FF"/>
</linearGradient>
<linearGradient id="paint30_linear" x1="46.6454" y1="184.066" x2="101.336" y2="184.066" gradientUnits="userSpaceOnUse">
<stop offset="0.12" stop-color="#DDDCF9"/>
<stop offset="0.56" stop-color="white"/>
<stop offset="0.71" stop-color="#F9F8FE"/>
<stop offset="0.91" stop-color="#E6E6FB"/>
<stop offset="1" stop-color="#DDDCF9"/>
</linearGradient>
<linearGradient id="paint31_linear" x1="101.336" y1="168.378" x2="46.6141" y2="168.378" gradientUnits="userSpaceOnUse">
<stop offset="0.12" stop-color="#DDDCF9"/>
<stop offset="0.56" stop-color="white"/>
<stop offset="0.71" stop-color="#F9F8FE"/>
<stop offset="0.91" stop-color="#E6E6FB"/>
<stop offset="1" stop-color="#DDDCF9"/>
</linearGradient>
<linearGradient id="paint32_linear" x1="92.219" y1="157.486" x2="55.2088" y2="157.486" gradientUnits="userSpaceOnUse">
<stop offset="0.12" stop-color="#DDDCF9"/>
<stop offset="0.56" stop-color="white"/>
<stop offset="0.71" stop-color="#F9F8FE"/>
<stop offset="0.91" stop-color="#E6E6FB"/>
<stop offset="1" stop-color="#DDDCF9"/>
</linearGradient>
<linearGradient id="paint33_linear" x1="46.6459" y1="166.768" x2="101.336" y2="166.768" gradientUnits="userSpaceOnUse">
<stop offset="0.12" stop-color="#DDDCF9"/>
<stop offset="0.56" stop-color="white"/>
<stop offset="0.71" stop-color="#F9F8FE"/>
<stop offset="0.91" stop-color="#E6E6FB"/>
<stop offset="1" stop-color="#DDDCF9"/>
</linearGradient>
<linearGradient id="paint34_linear" x1="101.336" y1="151.036" x2="46.6141" y2="151.036" gradientUnits="userSpaceOnUse">
<stop offset="0.12" stop-color="#DDDCF9"/>
<stop offset="0.56" stop-color="white"/>
<stop offset="0.71" stop-color="#F9F8FE"/>
<stop offset="0.91" stop-color="#E6E6FB"/>
<stop offset="1" stop-color="#DDDCF9"/>
</linearGradient>
<linearGradient id="paint35_linear" x1="87.0675" y1="162.688" x2="87.0675" y2="90.0531" gradientUnits="userSpaceOnUse">
<stop stop-color="#9AC1FF"/>
<stop offset="0.171875" stop-color="#9AC1FF" stop-opacity="0.8"/>
<stop offset="0.385417" stop-color="#9AC1FF" stop-opacity="0.5"/>
<stop offset="0.682292" stop-color="#9AC1FF" stop-opacity="0.2"/>
<stop offset="0.947917" stop-color="#9AC1FF" stop-opacity="0.01"/>
</linearGradient>
<linearGradient id="paint36_linear" x1="92.1102" y1="166.293" x2="92.1102" y2="110.834" gradientUnits="userSpaceOnUse">
<stop stop-color="#9AC1FF"/>
<stop offset="0.171875" stop-color="#9AC1FF" stop-opacity="0.8"/>
<stop offset="0.385417" stop-color="#9AC1FF" stop-opacity="0.5"/>
<stop offset="0.682292" stop-color="#9AC1FF" stop-opacity="0.2"/>
<stop offset="0.947917" stop-color="#9AC1FF" stop-opacity="0.01"/>
</linearGradient>
<linearGradient id="paint37_linear" x1="62.0192" y1="152.7" x2="87.4231" y2="152.7" gradientUnits="userSpaceOnUse">
<stop stop-color="#9485F1"/>
<stop offset="0.45" stop-color="#0085FF"/>
<stop offset="1" stop-color="#7AEFFF"/>
</linearGradient>
<linearGradient id="paint38_linear" x1="58.2205" y1="153.483" x2="83.5522" y2="153.483" gradientUnits="userSpaceOnUse">
<stop stop-color="#9485F1"/>
<stop offset="0.45" stop-color="#0085FF"/>
<stop offset="1" stop-color="#7AEFFF"/>
</linearGradient>
<linearGradient id="paint39_linear" x1="60.7747" y1="150.288" x2="81.0762" y2="150.288" gradientUnits="userSpaceOnUse">
<stop stop-color="#9485F1"/>
<stop offset="0.45" stop-color="#0085FF"/>
<stop offset="1" stop-color="#7AEFFF"/>
</linearGradient>
</defs>
</svg>
