<svg width="17" height="18" viewBox="0 0 17 18" fill="none" xmlns="http://www.w3.org/2000/svg">
<path d="M16.9555 6.64918C16.9032 6.4949 16.8067 6.35934 16.6782 6.25923C16.5497 6.15912 16.3946 6.09884 16.2322 6.08584L11.4814 5.70834L9.42553 1.15751C9.36006 1.01094 9.25356 0.886447 9.1189 0.79906C8.98424 0.711673 8.82716 0.665127 8.66663 0.665039C8.5061 0.664951 8.34898 0.711325 8.21422 0.798564C8.07946 0.885802 7.97283 1.01018 7.9072 1.15668L5.85136 5.70834L1.10053 6.08584C0.940909 6.09849 0.788311 6.15685 0.660992 6.25395C0.533673 6.35105 0.437024 6.48278 0.382607 6.63337C0.328191 6.78396 0.318311 6.94704 0.35415 7.1031C0.38999 7.25916 0.47003 7.40158 0.584696 7.51334L4.09553 10.9358L2.85386 16.3125C2.81616 16.4753 2.82824 16.6456 2.88855 16.8014C2.94885 16.9572 3.05458 17.0913 3.19203 17.1862C3.32948 17.2812 3.4923 17.3326 3.65935 17.3339C3.8264 17.3352 3.98998 17.2862 4.12886 17.1933L8.66636 14.1683L13.2039 17.1933C13.3458 17.2876 13.5132 17.3361 13.6836 17.3324C13.8539 17.3286 14.019 17.2728 14.1567 17.1724C14.2944 17.0721 14.398 16.9319 14.4537 16.7709C14.5093 16.6099 14.5143 16.4356 14.468 16.2717L12.9439 10.9383L16.7239 7.53668C16.9714 7.31334 17.0622 6.96501 16.9555 6.64918Z" fill="#04C697"/>
</svg>
