<svg width="278" height="120" viewBox="0 0 278 120" fill="none" xmlns="http://www.w3.org/2000/svg">
<g clip-path="url(#clip0_1721_26838)">
<rect x="0.333496" width="277.333" height="120" rx="20" fill="white"/>
<g filter="url(#filter0_b_1721_26838)">
<rect x="35.3335" y="-96" width="202" height="203.287" rx="12.8936" fill="url(#paint0_linear_1721_26838)"/>
<g clip-path="url(#clip1_1721_26838)">
<rect x="48.2271" y="-5.53198" width="176.213" height="24.7128" rx="4.29787" fill="white"/>
<rect width="110.085" height="24.7128" transform="translate(48.2271 -5.53198)" fill="white"/>
<path d="M55.8086 -1.19286L56.9838 1.30077L58.1664 -1.19286H59.2755L57.498 2.19686V4.1543H56.4734V2.19686L54.6922 -1.19286H55.8086ZM59.3232 2.20787V2.13075C59.3232 1.8394 59.3648 1.57131 59.4481 1.32647C59.5313 1.07919 59.6525 0.864962 59.8117 0.683786C59.9708 0.502609 60.1654 0.36183 60.3956 0.261448C60.6257 0.158618 60.8877 0.107204 61.1815 0.107204C61.4802 0.107204 61.7446 0.158618 61.9748 0.261448C62.2073 0.36183 62.4032 0.502609 62.5624 0.683786C62.7215 0.864962 62.8427 1.07919 62.9259 1.32647C63.0092 1.57131 63.0508 1.8394 63.0508 2.13075V2.20787C63.0508 2.49678 63.0092 2.76487 62.9259 3.01215C62.8427 3.25698 62.7215 3.47121 62.5624 3.65484C62.4032 3.83601 62.2086 3.97679 61.9784 4.07717C61.7483 4.17756 61.4851 4.22775 61.1888 4.22775C60.895 4.22775 60.6318 4.17756 60.3993 4.07717C60.1667 3.97679 59.9708 3.83601 59.8117 3.65484C59.6525 3.47121 59.5313 3.25698 59.4481 3.01215C59.3648 2.76487 59.3232 2.49678 59.3232 2.20787ZM60.2928 2.13075V2.20787C60.2928 2.3817 60.3099 2.54452 60.3442 2.69631C60.3784 2.84811 60.4311 2.98155 60.5021 3.09662C60.5731 3.21169 60.6649 3.30228 60.7775 3.36838C60.8926 3.43204 61.0297 3.46387 61.1888 3.46387C61.3455 3.46387 61.4802 3.43204 61.5928 3.36838C61.7054 3.30228 61.7973 3.21169 61.8683 3.09662C61.9417 2.98155 61.9956 2.84811 62.0298 2.69631C62.0641 2.54452 62.0813 2.3817 62.0813 2.20787V2.13075C62.0813 1.95937 62.0641 1.799 62.0298 1.64965C61.9956 1.49786 61.9417 1.36442 61.8683 1.24935C61.7973 1.13183 61.7042 1.04002 61.5891 0.973913C61.4765 0.90536 61.3406 0.871083 61.1815 0.871083C61.0248 0.871083 60.8901 0.90536 60.7775 0.973913C60.6649 1.04002 60.5731 1.13183 60.5021 1.24935C60.4311 1.36442 60.3784 1.49786 60.3442 1.64965C60.3099 1.799 60.2928 1.95937 60.2928 2.13075ZM66.121 3.21046V0.180653H67.0979V4.1543H66.1798L66.121 3.21046ZM66.2459 2.38783L66.547 2.38048C66.547 2.64735 66.5176 2.89341 66.4589 3.11865C66.4001 3.3439 66.3083 3.53977 66.1834 3.70625C66.061 3.87029 65.9056 3.99883 65.717 4.09186C65.5285 4.18245 65.3057 4.22775 65.0486 4.22775C64.8528 4.22775 64.674 4.20082 64.5125 4.14695C64.3509 4.09064 64.2113 4.00372 64.0938 3.8862C63.9787 3.76624 63.8894 3.61322 63.8257 3.42714C63.762 3.23862 63.7302 3.01215 63.7302 2.74773V0.180653H64.6997V2.75507C64.6997 2.88728 64.7144 2.99746 64.7438 3.0856C64.7756 3.17374 64.8185 3.24597 64.8724 3.30228C64.9287 3.35614 64.9935 3.39531 65.067 3.4198C65.1429 3.44183 65.2237 3.45285 65.3094 3.45285C65.5444 3.45285 65.7293 3.40633 65.8639 3.31329C66.001 3.21781 66.099 3.0905 66.1577 2.93135C66.2165 2.76976 66.2459 2.58859 66.2459 2.38783ZM72.0154 3.06724C72.0154 2.98399 71.9933 2.90932 71.9493 2.84321C71.9052 2.77711 71.8219 2.71713 71.6995 2.66326C71.5796 2.60695 71.4033 2.55431 71.1707 2.50535C70.965 2.46128 70.7753 2.40619 70.6015 2.34008C70.4276 2.27398 70.2783 2.19441 70.1534 2.10137C70.0285 2.00589 69.9306 1.89449 69.8596 1.76717C69.7911 1.63741 69.7568 1.48806 69.7568 1.31913C69.7568 1.15509 69.7923 1.00084 69.8633 0.856393C69.9343 0.709493 70.0371 0.580956 70.1718 0.470781C70.3064 0.358158 70.4705 0.270018 70.6639 0.206361C70.8573 0.140256 71.0752 0.107204 71.3176 0.107204C71.6555 0.107204 71.9456 0.162291 72.188 0.272466C72.4328 0.382641 72.6201 0.534438 72.7499 0.727856C72.8796 0.918826 72.9445 1.13428 72.9445 1.37422H71.975C71.975 1.26894 71.9505 1.17345 71.9015 1.08776C71.855 1.00207 71.7828 0.933516 71.6848 0.882101C71.5869 0.828237 71.4633 0.801306 71.3139 0.801306C71.1793 0.801306 71.0654 0.823341 70.9724 0.867411C70.8818 0.911481 70.8132 0.969016 70.7667 1.04002C70.7202 1.11102 70.6969 1.18937 70.6969 1.27506C70.6969 1.33871 70.7092 1.39625 70.7337 1.44767C70.7606 1.49663 70.8034 1.54193 70.8622 1.58355C70.921 1.62517 71.0005 1.66312 71.1009 1.6974C71.2037 1.73167 71.3298 1.76472 71.4792 1.79655C71.7754 1.85531 72.0337 1.93366 72.2541 2.03159C72.4769 2.12708 72.6507 2.25439 72.7756 2.41353C72.9004 2.57267 72.9629 2.77589 72.9629 3.02317C72.9629 3.19945 72.9249 3.36104 72.849 3.50794C72.7731 3.65239 72.6629 3.77848 72.5185 3.8862C72.374 3.99393 72.2014 4.0784 72.0007 4.13961C71.7999 4.19837 71.5734 4.22775 71.3213 4.22775C70.9565 4.22775 70.648 4.16287 70.3958 4.0331C70.1436 3.90089 69.9526 3.73441 69.8229 3.53364C69.6931 3.33043 69.6282 3.11988 69.6282 2.90197H70.5574C70.5647 3.05622 70.6064 3.17986 70.6822 3.2729C70.7581 3.36593 70.8536 3.43326 70.9687 3.47488C71.0862 3.51406 71.2099 3.53364 71.3396 3.53364C71.4865 3.53364 71.6102 3.51406 71.7105 3.47488C71.8109 3.43326 71.8868 3.37818 71.9382 3.30962C71.9897 3.23862 72.0154 3.15783 72.0154 3.06724ZM75.4859 4.22775C75.1847 4.22775 74.9142 4.17878 74.6743 4.08085C74.4343 3.98291 74.2299 3.84703 74.0609 3.6732C73.8945 3.49692 73.7659 3.29248 73.6753 3.05989C73.5872 2.82485 73.5431 2.57267 73.5431 2.30336V2.15646C73.5431 1.85042 73.5872 1.57253 73.6753 1.3228C73.7635 1.07062 73.8883 0.853945 74.0499 0.672768C74.2115 0.491592 74.4049 0.352037 74.6302 0.254103C74.8554 0.15617 75.1039 0.107204 75.3757 0.107204C75.6573 0.107204 75.9058 0.154946 76.1212 0.250431C76.3367 0.343468 76.5166 0.475678 76.6611 0.647061C76.8055 0.818444 76.9145 1.0241 76.9879 1.26404C77.0614 1.50153 77.0981 1.76472 77.0981 2.05363V2.46128H73.9838V1.79288H76.1433V1.71943C76.1384 1.56519 76.109 1.42441 76.0551 1.29709C76.0013 1.16733 75.918 1.0645 75.8054 0.988603C75.6928 0.910257 75.5471 0.871083 75.3684 0.871083C75.2239 0.871083 75.0978 0.902912 74.9901 0.966568C74.8848 1.02778 74.7967 1.11592 74.7257 1.23099C74.6571 1.34361 74.6057 1.47827 74.5714 1.63496C74.5371 1.79166 74.52 1.96549 74.52 2.15646V2.30336C74.52 2.46984 74.542 2.62409 74.5861 2.76609C74.6326 2.9081 74.7 3.03174 74.7881 3.13701C74.8787 3.23984 74.9864 3.32064 75.1113 3.3794C75.2386 3.43571 75.383 3.46387 75.5446 3.46387C75.7478 3.46387 75.9315 3.42469 76.0955 3.34635C76.262 3.26555 76.4064 3.14681 76.5289 2.99011L77.0173 3.49692C76.9341 3.61934 76.8214 3.73686 76.6794 3.84948C76.5399 3.9621 76.3709 4.05392 76.1726 4.12492C75.9743 4.19347 75.7454 4.22775 75.4859 4.22775ZM78.6993 1.029V4.1543H77.7298V0.180653H78.6406L78.6993 1.029ZM78.5451 2.02425H78.2586C78.2611 1.73534 78.3002 1.47337 78.3761 1.23833C78.452 1.00329 78.5585 0.801306 78.6956 0.632371C78.8352 0.463436 79.0005 0.333674 79.1914 0.243086C79.3824 0.152498 79.5954 0.107204 79.8304 0.107204C80.0214 0.107204 80.194 0.134135 80.3483 0.187998C80.5025 0.241862 80.6347 0.327553 80.7449 0.445073C80.8575 0.562593 80.9432 0.716838 81.002 0.907808C81.0632 1.09633 81.0938 1.32892 81.0938 1.60558V4.1543H80.1169V1.59824C80.1169 1.41706 80.09 1.27383 80.0361 1.16856C79.9847 1.06328 79.9088 0.988603 79.8084 0.944533C79.7105 0.900463 79.5893 0.878428 79.4448 0.878428C79.2955 0.878428 79.1645 0.909032 79.0519 0.970241C78.9417 1.029 78.8487 1.11102 78.7728 1.2163C78.6993 1.32158 78.643 1.44277 78.6038 1.57988C78.5647 1.71698 78.5451 1.86511 78.5451 2.02425ZM84.3329 3.30962V-1.48666H85.3098V4.1543H84.4284L84.3329 3.30962ZM81.7805 2.21522V2.1381C81.7805 1.8345 81.8148 1.55906 81.8834 1.31178C81.9544 1.06205 82.0572 0.847824 82.1919 0.669096C82.3265 0.490368 82.4893 0.352037 82.6803 0.254103C82.8737 0.15617 83.0928 0.107204 83.3377 0.107204C83.5752 0.107204 83.7821 0.154946 83.9583 0.250431C84.1371 0.345916 84.2889 0.481798 84.4137 0.658078C84.541 0.834358 84.6426 1.04369 84.7185 1.28608C84.7944 1.52601 84.8495 1.79043 84.8838 2.07934V2.28867C84.8495 2.57023 84.7944 2.82852 84.7185 3.06356C84.6426 3.2986 84.541 3.50426 84.4137 3.68054C84.2889 3.85438 84.1371 3.98903 83.9583 4.08452C83.7796 4.18 83.5703 4.22775 83.3303 4.22775C83.0879 4.22775 82.87 4.17756 82.6766 4.07717C82.4857 3.97679 82.3228 3.83601 82.1882 3.65484C82.056 3.47366 81.9544 3.26066 81.8834 3.01582C81.8148 2.77099 81.7805 2.50412 81.7805 2.21522ZM82.7538 2.1381V2.21522C82.7538 2.3866 82.7684 2.54697 82.7978 2.69631C82.8272 2.84566 82.8749 2.97787 82.941 3.09294C83.0072 3.20557 83.0916 3.29371 83.1945 3.35736C83.2997 3.42102 83.427 3.45285 83.5764 3.45285C83.7674 3.45285 83.9241 3.41123 84.0465 3.32798C84.1713 3.24229 84.268 3.126 84.3366 2.9791C84.4052 2.82975 84.4492 2.66204 84.4688 2.47597V1.89938C84.459 1.75248 84.4333 1.6166 84.3917 1.49174C84.3525 1.36687 84.2962 1.25914 84.2228 1.16856C84.1517 1.07797 84.0636 1.00697 83.9583 0.955551C83.8531 0.904136 83.7282 0.878428 83.5837 0.878428C83.4344 0.878428 83.3071 0.911481 83.2018 0.977586C83.0965 1.04124 83.0108 1.13061 82.9447 1.24568C82.8786 1.36075 82.8297 1.49418 82.7978 1.64598C82.7684 1.79778 82.7538 1.96182 82.7538 2.1381Z" fill="#619BE2"/>
<path d="M59.5614 14.1509V15.1543H55.1198V14.2981L57.2202 12.0461C57.4313 11.8112 57.5977 11.6046 57.7196 11.4262C57.8415 11.2448 57.9292 11.0828 57.9827 10.9401C58.0392 10.7944 58.0675 10.6562 58.0675 10.5254C58.0675 10.3292 58.0348 10.1612 57.9694 10.0215C57.904 9.87875 57.8073 9.76875 57.6795 9.69146C57.5546 9.61416 57.4 9.57551 57.2157 9.57551C57.0195 9.57551 56.85 9.62308 56.7073 9.71821C56.5676 9.81335 56.4606 9.94564 56.3863 10.1151C56.3149 10.2846 56.2792 10.4763 56.2792 10.6904H54.9904C54.9904 10.3039 55.0826 9.9501 55.2669 9.62902C55.4513 9.30497 55.7114 9.04781 56.0473 8.85754C56.3833 8.66429 56.7817 8.56767 57.2425 8.56767C57.6973 8.56767 58.0809 8.64199 58.393 8.79064C58.7082 8.93632 58.946 9.1474 59.1065 9.42389C59.27 9.6974 59.3518 10.0244 59.3518 10.405C59.3518 10.619 59.3176 10.8286 59.2492 11.0338C59.1809 11.2359 59.0828 11.4381 58.9549 11.6402C58.83 11.8394 58.6784 12.0416 58.5 12.2467C58.3217 12.4519 58.124 12.6644 57.9069 12.8844L56.7787 14.1509H59.5614ZM64.7344 11.337V12.4608C64.7344 12.9483 64.6823 13.369 64.5783 13.7228C64.4742 14.0736 64.3241 14.362 64.1279 14.5879C63.9346 14.8109 63.7042 14.9759 63.4367 15.0829C63.1691 15.19 62.8718 15.2435 62.5448 15.2435C62.2832 15.2435 62.0394 15.2108 61.8134 15.1454C61.5875 15.077 61.3838 14.9715 61.2025 14.8288C61.0241 14.6861 60.8695 14.5062 60.7387 14.2892C60.6109 14.0692 60.5128 13.8075 60.4444 13.5043C60.376 13.2011 60.3418 12.8532 60.3418 12.4608V11.337C60.3418 10.8494 60.3938 10.4317 60.4979 10.0839C60.6049 9.73308 60.755 9.44618 60.9483 9.22321C61.1445 9.00024 61.3764 8.83672 61.644 8.73267C61.9115 8.62564 62.2088 8.57213 62.5359 8.57213C62.7975 8.57213 63.0398 8.60632 63.2628 8.6747C63.4887 8.7401 63.6923 8.84267 63.8737 8.9824C64.0551 9.12213 64.2096 9.302 64.3375 9.522C64.4653 9.73902 64.5634 9.99916 64.6318 10.3024C64.7002 10.6027 64.7344 10.9475 64.7344 11.337ZM63.4456 12.6302V11.1631C63.4456 10.9282 63.4322 10.7231 63.4055 10.5477C63.3817 10.3723 63.3445 10.2236 63.294 10.1017C63.2434 9.97686 63.181 9.87578 63.1067 9.79848C63.0323 9.72118 62.9476 9.6647 62.8525 9.62902C62.7573 9.59335 62.6518 9.57551 62.5359 9.57551C62.3902 9.57551 62.2609 9.60375 62.1479 9.66024C62.0379 9.71673 61.9442 9.8074 61.8669 9.93227C61.7896 10.0542 61.7302 10.2177 61.6886 10.4228C61.6499 10.625 61.6306 10.8717 61.6306 11.1631V12.6302C61.6306 12.8651 61.6425 13.0717 61.6663 13.2501C61.693 13.4285 61.7317 13.5816 61.7822 13.7094C61.8357 13.8343 61.8982 13.9369 61.9695 14.0171C62.0438 14.0944 62.1286 14.1509 62.2237 14.1866C62.3218 14.2223 62.4288 14.2401 62.5448 14.2401C62.6875 14.2401 62.8138 14.2119 62.9238 14.1554C63.0368 14.0959 63.1319 14.0038 63.2092 13.8789C63.2895 13.7511 63.349 13.5846 63.3876 13.3794C63.4263 13.1743 63.4456 12.9246 63.4456 12.6302ZM69.9787 11.337V12.4608C69.9787 12.9483 69.9267 13.369 69.8226 13.7228C69.7186 14.0736 69.5684 14.362 69.3722 14.5879C69.179 14.8109 68.9486 14.9759 68.681 15.0829C68.4134 15.19 68.1161 15.2435 67.7891 15.2435C67.5275 15.2435 67.2837 15.2108 67.0578 15.1454C66.8318 15.077 66.6282 14.9715 66.4468 14.8288C66.2684 14.6861 66.1138 14.5062 65.983 14.2892C65.8552 14.0692 65.7571 13.8075 65.6887 13.5043C65.6203 13.2011 65.5861 12.8532 65.5861 12.4608V11.337C65.5861 10.8494 65.6382 10.4317 65.7422 10.0839C65.8492 9.73308 65.9994 9.44618 66.1926 9.22321C66.3888 9.00024 66.6207 8.83672 66.8883 8.73267C67.1559 8.62564 67.4532 8.57213 67.7802 8.57213C68.0418 8.57213 68.2841 8.60632 68.5071 8.6747C68.733 8.7401 68.9367 8.84267 69.118 8.9824C69.2994 9.12213 69.454 9.302 69.5818 9.522C69.7096 9.73902 69.8078 9.99916 69.8761 10.3024C69.9445 10.6027 69.9787 10.9475 69.9787 11.337ZM68.6899 12.6302V11.1631C68.6899 10.9282 68.6765 10.7231 68.6498 10.5477C68.626 10.3723 68.5888 10.2236 68.5383 10.1017C68.4878 9.97686 68.4253 9.87578 68.351 9.79848C68.2767 9.72118 68.1919 9.6647 68.0968 9.62902C68.0017 9.59335 67.8961 9.57551 67.7802 9.57551C67.6345 9.57551 67.5052 9.60375 67.3922 9.66024C67.2822 9.71673 67.1886 9.8074 67.1113 9.93227C67.034 10.0542 66.9745 10.2177 66.9329 10.4228C66.8942 10.625 66.8749 10.8717 66.8749 11.1631V12.6302C66.8749 12.8651 66.8868 13.0717 66.9106 13.2501C66.9374 13.4285 66.976 13.5816 67.0265 13.7094C67.0801 13.8343 67.1425 13.9369 67.2138 14.0171C67.2882 14.0944 67.3729 14.1509 67.468 14.1866C67.5661 14.2223 67.6732 14.2401 67.7891 14.2401C67.9318 14.2401 68.0582 14.2119 68.1682 14.1554C68.2811 14.0959 68.3763 14.0038 68.4536 13.8789C68.5338 13.7511 68.5933 13.5846 68.6319 13.3794C68.6706 13.1743 68.6899 12.9246 68.6899 12.6302Z" fill="black"/>
<rect width="66.1277" height="24.7128" transform="translate(158.312 -5.53198)" fill="#5583FF"/>
<path d="M177.652 6.82449C177.652 9.79155 175.247 12.1968 172.28 12.1968C169.313 12.1968 166.908 9.79155 166.908 6.82449C166.908 3.85743 169.313 1.45215 172.28 1.45215C175.247 1.45215 177.652 3.85743 177.652 6.82449Z" fill="white"/>
<path fill-rule="evenodd" clip-rule="evenodd" d="M166.908 6.8245C166.908 3.86219 169.318 1.45216 172.28 1.45216C175.242 1.45216 177.652 3.86219 177.652 6.8245C177.652 9.78681 175.242 12.1968 172.28 12.1968C169.318 12.1968 166.908 9.78681 166.908 6.8245ZM174.18 8.82056C174.258 8.99459 174.33 9.1713 174.4 9.34801C174.464 9.50732 174.423 9.63583 174.261 9.71214C174.093 9.79112 173.918 9.85538 173.742 9.90491C173.064 10.0964 172.387 10.103 171.714 9.87948C170.901 9.60906 170.36 9.04145 170.037 8.24357C169.992 8.13078 169.959 8.01295 169.925 7.89483C169.912 7.85173 169.9 7.8086 169.887 7.76566H169.25C169.143 7.76566 169.057 7.6773 169.057 7.56753V7.12709C169.057 7.01732 169.143 6.92896 169.25 6.92896H169.779V6.57019H169.25C169.143 6.57019 169.057 6.48183 169.057 6.37206V5.93162C169.057 5.82185 169.143 5.73349 169.25 5.73349H169.921L169.943 5.66522C170.124 5.07485 170.434 4.57283 170.914 4.19264C171.294 3.89009 171.734 3.72409 172.205 3.64644C172.875 3.53667 173.524 3.63038 174.154 3.88206C174.194 3.89812 174.233 3.91686 174.271 3.93962C174.423 4.03065 174.462 4.14712 174.395 4.31178C174.325 4.48715 174.254 4.66119 174.177 4.83254C174.11 4.98114 174.02 5.02799 173.865 4.99185C173.772 4.97022 173.68 4.94527 173.588 4.92035C173.469 4.8882 173.35 4.85609 173.23 4.8312C172.781 4.73615 172.336 4.73214 171.9 4.90885C171.525 5.06146 171.296 5.35464 171.14 5.72011C171.137 5.72278 171.137 5.72814 171.137 5.73349H172.443C172.55 5.73349 172.636 5.82185 172.636 5.93162V6.37206C172.636 6.48183 172.55 6.57019 172.443 6.57019H170.949C170.948 6.64834 170.948 6.72649 170.949 6.8062C170.949 6.84665 170.949 6.8875 170.949 6.92896H172.443C172.55 6.92896 172.636 7.01732 172.636 7.12709V7.56753C172.636 7.6773 172.55 7.76566 172.443 7.76566H171.079C171.244 8.24759 171.512 8.62109 172.014 8.78308C172.415 8.91293 172.823 8.9049 173.229 8.81788C173.348 8.79281 173.466 8.76083 173.585 8.72881C173.675 8.70441 173.765 8.67999 173.856 8.65858C174.022 8.61975 174.11 8.66527 174.18 8.82056Z" fill="#0148FF"/>
<path d="M187.758 9.0968V10.3245H183.692V9.0968H187.758ZM184.206 2.68567V10.3245H182.632V2.68567H184.206ZM187.228 5.7968V6.99298H183.692V5.7968H187.228ZM187.753 2.68567V3.91858H183.692V2.68567H187.753ZM192.894 2.68567H194.463V7.73273C194.463 8.32033 194.337 8.81524 194.085 9.21747C193.837 9.61969 193.492 9.92224 193.052 10.1251C192.614 10.328 192.111 10.4294 191.541 10.4294C190.971 10.4294 190.463 10.328 190.019 10.1251C189.578 9.92224 189.232 9.61969 188.98 9.21747C188.732 8.81524 188.608 8.32033 188.608 7.73273V2.68567H190.182V7.73273C190.182 8.07549 190.236 8.3553 190.344 8.57216C190.453 8.78901 190.609 8.94815 190.811 9.04958C191.018 9.15101 191.261 9.20173 191.541 9.20173C191.827 9.20173 192.071 9.15101 192.27 9.04958C192.473 8.94815 192.627 8.78901 192.732 8.57216C192.84 8.3553 192.894 8.07549 192.894 7.73273V2.68567ZM195.759 2.68567H198.608C199.192 2.68567 199.694 2.77311 200.113 2.94799C200.537 3.12287 200.862 3.38169 201.089 3.72446C201.317 4.06722 201.43 4.48869 201.43 4.98885C201.43 5.39807 201.36 5.74958 201.22 6.04338C201.084 6.33368 200.89 6.57677 200.638 6.77263C200.39 6.965 200.098 7.1189 199.762 7.23432L199.263 7.49664H196.787L196.777 6.26898H198.618C198.894 6.26898 199.123 6.22001 199.305 6.12208C199.487 6.02414 199.624 5.88773 199.715 5.71285C199.809 5.53797 199.856 5.33511 199.856 5.10427C199.856 4.85944 199.811 4.64783 199.72 4.46945C199.629 4.29107 199.491 4.15467 199.305 4.06023C199.12 3.96579 198.887 3.91858 198.608 3.91858H197.333V10.3245H195.759V2.68567ZM200.029 10.3245L198.288 6.91953L199.951 6.90904L201.713 10.251V10.3245H200.029Z" fill="white"/>
<path d="M216.001 5.37012L213.695 7.67646L211.389 5.37012L210.629 6.12977L213.695 9.19576L216.761 6.12977L216.001 5.37012Z" fill="white" fill-opacity="0.6"/>
</g>
<g clip-path="url(#clip2_1721_26838)">
<rect x="48.2271" y="32.0745" width="176.213" height="24.7128" rx="4.29787" fill="white"/>
<rect width="110.085" height="24.7128" transform="translate(48.2271 32.0745)" fill="white"/>
<path d="M55.8086 36.4136L56.9838 38.9072L58.1664 36.4136H59.2755L57.498 39.8033V41.7607H56.4734V39.8033L54.6922 36.4136H55.8086ZM59.3232 39.8143V39.7372C59.3232 39.4458 59.3648 39.1778 59.4481 38.9329C59.5313 38.6856 59.6525 38.4714 59.8117 38.2902C59.9708 38.1091 60.1654 37.9683 60.3956 37.8679C60.6257 37.7651 60.8877 37.7136 61.1815 37.7136C61.4802 37.7136 61.7446 37.7651 61.9748 37.8679C62.2073 37.9683 62.4032 38.1091 62.5624 38.2902C62.7215 38.4714 62.8427 38.6856 62.9259 38.9329C63.0092 39.1778 63.0508 39.4458 63.0508 39.7372V39.8143C63.0508 40.1032 63.0092 40.3713 62.9259 40.6186C62.8427 40.8634 62.7215 41.0777 62.5624 41.2613C62.4032 41.4425 62.2086 41.5832 61.9784 41.6836C61.7483 41.784 61.4851 41.8342 61.1888 41.8342C60.895 41.8342 60.6318 41.784 60.3993 41.6836C60.1667 41.5832 59.9708 41.4425 59.8117 41.2613C59.6525 41.0777 59.5313 40.8634 59.4481 40.6186C59.3648 40.3713 59.3232 40.1032 59.3232 39.8143ZM60.2928 39.7372V39.8143C60.2928 39.9881 60.3099 40.151 60.3442 40.3028C60.3784 40.4546 60.4311 40.588 60.5021 40.7031C60.5731 40.8181 60.6649 40.9087 60.7775 40.9748C60.8926 41.0385 61.0297 41.0703 61.1888 41.0703C61.3455 41.0703 61.4802 41.0385 61.5928 40.9748C61.7054 40.9087 61.7973 40.8181 61.8683 40.7031C61.9417 40.588 61.9956 40.4546 62.0298 40.3028C62.0641 40.151 62.0813 39.9881 62.0813 39.8143V39.7372C62.0813 39.5658 62.0641 39.4054 62.0298 39.2561C61.9956 39.1043 61.9417 38.9709 61.8683 38.8558C61.7973 38.7383 61.7042 38.6465 61.5891 38.5804C61.4765 38.5118 61.3406 38.4775 61.1815 38.4775C61.0248 38.4775 60.8901 38.5118 60.7775 38.5804C60.6649 38.6465 60.5731 38.7383 60.5021 38.8558C60.4311 38.9709 60.3784 39.1043 60.3442 39.2561C60.3099 39.4054 60.2928 39.5658 60.2928 39.7372ZM66.121 40.8169V37.7871H67.0979V41.7607H66.1798L66.121 40.8169ZM66.2459 39.9943L66.547 39.9869C66.547 40.2538 66.5176 40.4999 66.4589 40.7251C66.4001 40.9503 66.3083 41.1462 66.1834 41.3127C66.061 41.4767 65.9056 41.6053 65.717 41.6983C65.5285 41.7889 65.3057 41.8342 65.0486 41.8342C64.8528 41.8342 64.674 41.8073 64.5125 41.7534C64.3509 41.6971 64.2113 41.6102 64.0938 41.4926C63.9787 41.3727 63.8894 41.2197 63.8257 41.0336C63.762 40.8451 63.7302 40.6186 63.7302 40.3542V37.7871H64.6997V40.3615C64.6997 40.4937 64.7144 40.6039 64.7438 40.692C64.7756 40.7802 64.8185 40.8524 64.8724 40.9087C64.9287 40.9626 64.9935 41.0018 65.067 41.0262C65.1429 41.0483 65.2237 41.0593 65.3094 41.0593C65.5444 41.0593 65.7293 41.0128 65.8639 40.9197C66.001 40.8243 66.099 40.6969 66.1577 40.5378C66.2165 40.3762 66.2459 40.195 66.2459 39.9943ZM72.3569 37.7871H73.2383V41.6395C73.2383 41.9995 73.16 42.3043 73.0033 42.554C72.849 42.8062 72.6323 42.9972 72.3532 43.1269C72.0741 43.2591 71.7497 43.3252 71.38 43.3252C71.2209 43.3252 71.0483 43.3032 70.8622 43.2591C70.6786 43.2151 70.5011 43.1453 70.3297 43.0498C70.1608 42.9568 70.02 42.8356 69.9074 42.6862L70.3444 42.1133C70.4766 42.2675 70.6259 42.3838 70.7924 42.4622C70.9589 42.543 71.1389 42.5834 71.3323 42.5834C71.5281 42.5834 71.6946 42.5467 71.8317 42.4732C71.9713 42.4022 72.0778 42.2969 72.1512 42.1574C72.2271 42.0203 72.2651 41.8513 72.2651 41.6506V38.6942L72.3569 37.7871ZM69.6723 39.8217V39.7445C69.6723 39.4409 69.709 39.1655 69.7825 38.9182C69.8559 38.6685 69.9612 38.4543 70.0983 38.2755C70.2379 38.0968 70.4056 37.9585 70.6015 37.8605C70.7998 37.7626 71.0226 37.7136 71.2698 37.7136C71.5318 37.7136 71.7522 37.7614 71.9309 37.8569C72.1121 37.9524 72.2614 38.0882 72.3789 38.2645C72.4989 38.4408 72.5919 38.6501 72.6581 38.8925C72.7266 39.1325 72.7792 39.3969 72.816 39.6858V39.8951C72.7817 40.1767 72.7266 40.435 72.6507 40.67C72.5773 40.9051 72.4793 41.1107 72.3569 41.287C72.2345 41.4608 72.0827 41.5955 71.9015 41.691C71.7203 41.7864 71.5073 41.8342 71.2625 41.8342C71.0177 41.8342 70.7973 41.784 70.6015 41.6836C70.4056 41.5832 70.2379 41.4425 70.0983 41.2613C69.9612 41.0801 69.8559 40.8671 69.7825 40.6223C69.709 40.3774 69.6723 40.1106 69.6723 39.8217ZM70.6419 39.7445V39.8217C70.6419 39.993 70.659 40.1534 70.6933 40.3028C70.7275 40.4521 70.7802 40.5843 70.8512 40.6994C70.9222 40.812 71.0115 40.9002 71.1193 40.9638C71.227 41.0275 71.3555 41.0593 71.5049 41.0593C71.7057 41.0593 71.8697 41.0177 71.997 40.9344C72.1268 40.8487 72.2247 40.7324 72.2908 40.5855C72.3594 40.4362 72.4034 40.2685 72.423 40.0824V39.5058C72.4108 39.3589 72.3838 39.223 72.3422 39.0982C72.303 38.9733 72.248 38.8656 72.177 38.775C72.106 38.6844 72.0154 38.6134 71.9052 38.562C71.795 38.5106 71.664 38.4849 71.5122 38.4849C71.3653 38.4849 71.2368 38.5179 71.1266 38.584C71.0164 38.6477 70.9259 38.7371 70.8549 38.8521C70.7839 38.9672 70.73 39.1006 70.6933 39.2524C70.659 39.4042 70.6419 39.5683 70.6419 39.7445ZM75.8972 41.8342C75.5961 41.8342 75.3255 41.7852 75.0856 41.6873C74.8456 41.5894 74.6412 41.4535 74.4723 41.2796C74.3058 41.1034 74.1772 40.8989 74.0867 40.6663C73.9985 40.4313 73.9544 40.1791 73.9544 39.9098V39.7629C73.9544 39.4569 73.9985 39.179 74.0867 38.9292C74.1748 38.6771 74.2997 38.4604 74.4612 38.2792C74.6228 38.098 74.8163 37.9585 75.0415 37.8605C75.2668 37.7626 75.5153 37.7136 75.787 37.7136C76.0686 37.7136 76.3171 37.7614 76.5325 37.8569C76.748 37.9499 76.9279 38.0821 77.0724 38.2535C77.2168 38.4249 77.3258 38.6305 77.3992 38.8705C77.4727 39.108 77.5094 39.3712 77.5094 39.6601V40.0677H74.3951V39.3993H76.5546V39.3259C76.5497 39.1716 76.5203 39.0309 76.4664 38.9035C76.4126 38.7738 76.3293 38.6709 76.2167 38.595C76.1041 38.5167 75.9584 38.4775 75.7797 38.4775C75.6352 38.4775 75.5091 38.5094 75.4014 38.573C75.2961 38.6342 75.208 38.7224 75.137 38.8374C75.0684 38.9501 75.017 39.0847 74.9827 39.2414C74.9485 39.3981 74.9313 39.5719 74.9313 39.7629V39.9098C74.9313 40.0763 74.9534 40.2305 74.9974 40.3725C75.044 40.5145 75.1113 40.6382 75.1994 40.7435C75.29 40.8463 75.3977 40.9271 75.5226 40.9858C75.6499 41.0422 75.7944 41.0703 75.956 41.0703C76.1592 41.0703 76.3428 41.0311 76.5068 40.9528C76.6733 40.872 76.8178 40.7533 76.9402 40.5966L77.4286 41.1034C77.3454 41.2258 77.2328 41.3433 77.0908 41.4559C76.9512 41.5685 76.7823 41.6604 76.584 41.7314C76.3856 41.7999 76.1567 41.8342 75.8972 41.8342ZM80.0398 37.7871V38.4849H77.7628V37.7871H80.0398ZM78.3725 36.8102H79.3457V40.6149C79.3457 40.7324 79.3616 40.823 79.3934 40.8867C79.4252 40.9503 79.473 40.9932 79.5366 41.0152C79.6003 41.0373 79.6762 41.0483 79.7643 41.0483C79.828 41.0483 79.8868 41.0446 79.9406 41.0373C79.9945 41.0299 80.0398 41.0226 80.0765 41.0152L80.0802 41.7424C79.9994 41.7693 79.9076 41.7913 79.8047 41.8085C79.7044 41.8256 79.5905 41.8342 79.4632 41.8342C79.2453 41.8342 79.0543 41.7975 78.8903 41.724C78.7262 41.6481 78.5989 41.5269 78.5083 41.3604C78.4178 41.1915 78.3725 40.9687 78.3725 40.692V36.8102Z" fill="#619BE2"/>
<path d="M59.49 48.9434V50.0672C59.49 50.5548 59.438 50.9755 59.334 51.3293C59.2299 51.6801 59.0798 51.9684 58.8836 52.1944C58.6903 52.4174 58.4599 52.5824 58.1923 52.6894C57.9248 52.7964 57.6275 52.8499 57.3005 52.8499C57.0388 52.8499 56.795 52.8172 56.5691 52.7518C56.3432 52.6834 56.1395 52.5779 55.9582 52.4352C55.7798 52.2925 55.6252 52.1126 55.4944 51.8956C55.3665 51.6756 55.2684 51.414 55.2 51.1107C55.1317 50.8075 55.0975 50.4597 55.0975 50.0672V48.9434C55.0975 48.4559 55.1495 48.0382 55.2536 47.6903C55.3606 47.3395 55.5107 47.0526 55.704 46.8297C55.9002 46.6067 56.1321 46.4432 56.3996 46.3391C56.6672 46.2321 56.9645 46.1786 57.2915 46.1786C57.5532 46.1786 57.7955 46.2128 58.0184 46.2811C58.2444 46.3465 58.448 46.4491 58.6294 46.5888C58.8107 46.7286 58.9653 46.9084 59.0932 47.1284C59.221 47.3455 59.3191 47.6056 59.3875 47.9088C59.4559 48.2091 59.49 48.554 59.49 48.9434ZM58.2013 50.2367V48.7695C58.2013 48.5347 58.1879 48.3295 58.1611 48.1541C58.1373 47.9787 58.1002 47.8301 58.0496 47.7082C57.9991 47.5833 57.9367 47.4822 57.8623 47.4049C57.788 47.3276 57.7033 47.2711 57.6082 47.2355C57.513 47.1998 57.4075 47.182 57.2915 47.182C57.1459 47.182 57.0165 47.2102 56.9036 47.2667C56.7936 47.3232 56.6999 47.4138 56.6226 47.5387C56.5453 47.6606 56.4859 47.8241 56.4442 48.0293C56.4056 48.2314 56.3863 48.4782 56.3863 48.7695V50.2367C56.3863 50.4716 56.3982 50.6782 56.4219 50.8566C56.4487 51.0349 56.4873 51.188 56.5379 51.3159C56.5914 51.4407 56.6538 51.5433 56.7252 51.6236C56.7995 51.7009 56.8842 51.7574 56.9794 51.793C57.0775 51.8287 57.1845 51.8466 57.3005 51.8466C57.4432 51.8466 57.5695 51.8183 57.6795 51.7618C57.7925 51.7024 57.8876 51.6102 57.9649 51.4853C58.0452 51.3575 58.1046 51.191 58.1433 50.9859C58.1819 50.7807 58.2013 50.531 58.2013 50.2367ZM60.48 52.1409C60.48 51.9506 60.5455 51.7916 60.6763 51.6637C60.81 51.5359 60.9869 51.472 61.2069 51.472C61.4269 51.472 61.6023 51.5359 61.7332 51.6637C61.8669 51.7916 61.9338 51.9506 61.9338 52.1409C61.9338 52.3311 61.8669 52.4902 61.7332 52.618C61.6023 52.7459 61.4269 52.8098 61.2069 52.8098C60.9869 52.8098 60.81 52.7459 60.6763 52.618C60.5455 52.4902 60.48 52.3311 60.48 52.1409ZM67.3833 48.9434V50.0672C67.3833 50.5548 67.3313 50.9755 67.2272 51.3293C67.1232 51.6801 66.973 51.9684 66.7768 52.1944C66.5836 52.4174 66.3532 52.5824 66.0856 52.6894C65.818 52.7964 65.5207 52.8499 65.1937 52.8499C64.9321 52.8499 64.6883 52.8172 64.4623 52.7518C64.2364 52.6834 64.0328 52.5779 63.8514 52.4352C63.673 52.2925 63.5184 52.1126 63.3876 51.8956C63.2598 51.6756 63.1617 51.414 63.0933 51.1107C63.0249 50.8075 62.9907 50.4597 62.9907 50.0672V48.9434C62.9907 48.4559 63.0428 48.0382 63.1468 47.6903C63.2538 47.3395 63.404 47.0526 63.5972 46.8297C63.7934 46.6067 64.0253 46.4432 64.2929 46.3391C64.5605 46.2321 64.8578 46.1786 65.1848 46.1786C65.4464 46.1786 65.6887 46.2128 65.9117 46.2811C66.1376 46.3465 66.3413 46.4491 66.5226 46.5888C66.704 46.7286 66.8586 46.9084 66.9864 47.1284C67.1142 47.3455 67.2124 47.6056 67.2807 47.9088C67.3491 48.2091 67.3833 48.554 67.3833 48.9434ZM66.0945 50.2367V48.7695C66.0945 48.5347 66.0811 48.3295 66.0544 48.1541C66.0306 47.9787 65.9934 47.8301 65.9429 47.7082C65.8923 47.5833 65.8299 47.4822 65.7556 47.4049C65.6813 47.3276 65.5965 47.2711 65.5014 47.2355C65.4063 47.1998 65.3007 47.182 65.1848 47.182C65.0391 47.182 64.9098 47.2102 64.7968 47.2667C64.6868 47.3232 64.5932 47.4138 64.5159 47.5387C64.4386 47.6606 64.3791 47.8241 64.3375 48.0293C64.2988 48.2314 64.2795 48.4782 64.2795 48.7695V50.2367C64.2795 50.4716 64.2914 50.6782 64.3152 50.8566C64.3419 51.0349 64.3806 51.188 64.4311 51.3159C64.4846 51.4407 64.5471 51.5433 64.6184 51.6236C64.6928 51.7009 64.7775 51.7574 64.8726 51.793C64.9707 51.8287 65.0778 51.8466 65.1937 51.8466C65.3364 51.8466 65.4628 51.8183 65.5728 51.7618C65.6857 51.7024 65.7809 51.6102 65.8582 51.4853C65.9384 51.3575 65.9979 51.191 66.0365 50.9859C66.0752 50.7807 66.0945 50.531 66.0945 50.2367ZM72.699 51.7574V52.7607H68.2574V51.9045L70.3578 49.6525C70.5688 49.4176 70.7353 49.211 70.8572 49.0326C70.9791 48.8513 71.0668 48.6893 71.1203 48.5466C71.1768 48.4009 71.2051 48.2626 71.2051 48.1318C71.2051 47.9356 71.1724 47.7676 71.1069 47.6279C71.0415 47.4852 70.9449 47.3752 70.8171 47.2979C70.6922 47.2206 70.5376 47.182 70.3533 47.182C70.1571 47.182 69.9876 47.2295 69.8449 47.3247C69.7052 47.4198 69.5982 47.5521 69.5238 47.7215C69.4525 47.891 69.4168 48.0828 69.4168 48.2968H68.128C68.128 47.9103 68.2202 47.5565 68.4045 47.2355C68.5888 46.9114 68.849 46.6543 69.1849 46.464C69.5209 46.2707 69.9192 46.1741 70.3801 46.1741C70.8349 46.1741 71.2184 46.2484 71.5306 46.3971C71.8457 46.5428 72.0836 46.7538 72.2441 47.0303C72.4076 47.3038 72.4894 47.6309 72.4894 48.0114C72.4894 48.2255 72.4552 48.4351 72.3868 48.6402C72.3184 48.8424 72.2203 49.0445 72.0925 49.2467C71.9676 49.4459 71.816 49.648 71.6376 49.8532C71.4592 50.0583 71.2615 50.2709 71.0445 50.4909L69.9163 51.7574H72.699ZM74.4114 51.7841H74.4961C74.8529 51.7841 75.1591 51.741 75.4148 51.6548C75.6734 51.5656 75.886 51.4378 76.0525 51.2713C76.219 51.1048 76.3424 50.9011 76.4226 50.6603C76.5029 50.4166 76.543 50.1401 76.543 49.8309V48.6001C76.543 48.3652 76.5192 48.1586 76.4717 47.9802C76.4271 47.8018 76.3617 47.6547 76.2755 47.5387C76.1922 47.4198 76.0941 47.3306 75.9811 47.2711C75.8711 47.2117 75.7492 47.182 75.6155 47.182C75.4728 47.182 75.3464 47.2176 75.2364 47.289C75.1264 47.3574 75.0328 47.451 74.9555 47.5699C74.8811 47.6888 74.8232 47.8256 74.7815 47.9802C74.7429 48.1318 74.7236 48.2909 74.7236 48.4574C74.7236 48.6238 74.7429 48.7829 74.7815 48.9345C74.8202 49.0832 74.8782 49.2155 74.9555 49.3314C75.0328 49.4444 75.1294 49.5351 75.2453 49.6034C75.3613 49.6688 75.498 49.7016 75.6556 49.7016C75.8072 49.7016 75.9425 49.6733 76.0614 49.6168C76.1833 49.5574 76.2859 49.4801 76.3691 49.3849C76.4553 49.2898 76.5207 49.1843 76.5653 49.0683C76.6129 48.9524 76.6367 48.8349 76.6367 48.716L77.0603 48.9479C77.0603 49.156 77.0157 49.3611 76.9265 49.5633C76.8374 49.7655 76.7125 49.9498 76.552 50.1163C76.3944 50.2798 76.2115 50.4106 76.0034 50.5087C75.7953 50.6068 75.5724 50.6559 75.3345 50.6559C75.0313 50.6559 74.7622 50.6009 74.5274 50.4909C74.2925 50.3779 74.0933 50.2233 73.9298 50.0271C73.7692 49.8279 73.6474 49.596 73.5641 49.3314C73.4809 49.0668 73.4392 48.7799 73.4392 48.4707C73.4392 48.1556 73.4898 47.8598 73.5909 47.5833C73.6949 47.3068 73.8421 47.063 74.0324 46.852C74.2256 46.6409 74.456 46.4759 74.7236 46.357C74.9941 46.2351 75.2944 46.1741 75.6244 46.1741C75.9544 46.1741 76.2547 46.238 76.5252 46.3659C76.7957 46.4937 77.0276 46.6751 77.2209 46.9099C77.4141 47.1418 77.5628 47.4198 77.6668 47.7438C77.7738 48.0679 77.8274 48.4276 77.8274 48.823V49.269C77.8274 49.6911 77.7813 50.0836 77.6891 50.4463C77.5999 50.809 77.4647 51.1375 77.2833 51.4318C77.1049 51.7232 76.882 51.9729 76.6144 52.181C76.3498 52.3891 76.0421 52.5482 75.6913 52.6582C75.3405 52.7682 74.948 52.8232 74.514 52.8232H74.4114V51.7841ZM80.0615 48.9568H80.7483C80.9683 48.9568 81.1497 48.9197 81.2924 48.8453C81.4351 48.768 81.5406 48.661 81.609 48.5243C81.6803 48.3845 81.716 48.2225 81.716 48.0382C81.716 47.8717 81.6833 47.7245 81.6179 47.5967C81.5555 47.4659 81.4588 47.3648 81.328 47.2934C81.1972 47.2191 81.0322 47.182 80.833 47.182C80.6755 47.182 80.5298 47.2132 80.396 47.2756C80.2622 47.338 80.1552 47.4257 80.0749 47.5387C79.9947 47.6517 79.9545 47.7884 79.9545 47.949H78.6657C78.6657 47.5922 78.7609 47.2815 78.9511 47.017C79.1444 46.7524 79.403 46.5457 79.7271 46.3971C80.0511 46.2484 80.4079 46.1741 80.7974 46.1741C81.2374 46.1741 81.6224 46.2455 81.9524 46.3882C82.2824 46.5279 82.5395 46.7345 82.7238 47.008C82.9082 47.2815 83.0003 47.6205 83.0003 48.0248C83.0003 48.2299 82.9528 48.4291 82.8576 48.6224C82.7625 48.8126 82.6257 48.9851 82.4474 49.1397C82.272 49.2913 82.0579 49.4132 81.8052 49.5053C81.5525 49.5945 81.2686 49.6391 80.9534 49.6391H80.0615V48.9568ZM80.0615 49.9334V49.269H80.9534C81.3072 49.269 81.6179 49.3091 81.8855 49.3894C82.153 49.4697 82.3775 49.5856 82.5588 49.7372C82.7402 49.8859 82.877 50.0628 82.9691 50.2679C83.0613 50.4701 83.1074 50.6945 83.1074 50.9413C83.1074 51.2445 83.0494 51.5151 82.9334 51.7529C82.8175 51.9878 82.654 52.187 82.4429 52.3505C82.2348 52.514 81.991 52.6389 81.7115 52.7251C81.4321 52.8083 81.1274 52.8499 80.7974 52.8499C80.5238 52.8499 80.2548 52.8128 79.9902 52.7384C79.7286 52.6611 79.4907 52.5467 79.2767 52.3951C79.0656 52.2405 78.8961 52.0472 78.7683 51.8153C78.6434 51.5805 78.581 51.3025 78.581 50.9814H79.8698C79.8698 51.1479 79.9114 51.2966 79.9947 51.4274C80.0779 51.5582 80.1924 51.6607 80.338 51.7351C80.4867 51.8094 80.6517 51.8466 80.833 51.8466C81.0382 51.8466 81.2136 51.8094 81.3593 51.7351C81.5079 51.6578 81.6209 51.5507 81.6982 51.414C81.7784 51.2743 81.8186 51.1122 81.8186 50.9279C81.8186 50.6901 81.7755 50.4998 81.6893 50.3571C81.603 50.2114 81.4797 50.1044 81.3191 50.036C81.1586 49.9676 80.9683 49.9334 80.7483 49.9334H80.0615ZM85.1989 49.8041L84.1732 49.5588L84.5433 46.2678H88.1911V47.3068H85.6002L85.4397 48.7472C85.5259 48.6967 85.6567 48.6432 85.8321 48.5867C86.0075 48.5272 86.2037 48.4975 86.4207 48.4975C86.7359 48.4975 87.0153 48.5466 87.2591 48.6447C87.5029 48.7428 87.7095 48.8855 87.879 49.0728C88.0514 49.2601 88.1822 49.489 88.2714 49.7595C88.3606 50.0301 88.4052 50.3363 88.4052 50.6782C88.4052 50.9666 88.3606 51.2416 88.2714 51.5032C88.1822 51.7618 88.047 51.9937 87.8656 52.1988C87.6843 52.401 87.4568 52.5601 87.1833 52.676C86.9098 52.792 86.5857 52.8499 86.2111 52.8499C85.9317 52.8499 85.6611 52.8083 85.3995 52.7251C85.1409 52.6418 84.9075 52.5184 84.6994 52.3549C84.4943 52.1914 84.3293 51.9937 84.2044 51.7618C84.0825 51.527 84.0186 51.2594 84.0126 50.9591H85.288C85.3059 51.1434 85.3534 51.3025 85.4307 51.4363C85.511 51.5671 85.6166 51.6682 85.7474 51.7395C85.8782 51.8109 86.0313 51.8466 86.2067 51.8466C86.3702 51.8466 86.5099 51.8153 86.6259 51.7529C86.7418 51.6905 86.8355 51.6043 86.9068 51.4943C86.9782 51.3813 87.0302 51.2505 87.0629 51.1018C87.0986 50.9502 87.1164 50.7867 87.1164 50.6113C87.1164 50.4359 87.0956 50.2768 87.054 50.1341C87.0124 49.9914 86.9484 49.868 86.8622 49.764C86.776 49.6599 86.666 49.5797 86.5322 49.5232C86.4014 49.4667 86.2483 49.4384 86.0729 49.4384C85.8351 49.4384 85.6507 49.4756 85.5199 49.5499C85.3921 49.6243 85.2851 49.709 85.1989 49.8041ZM90.4432 49.8041L89.4175 49.5588L89.7876 46.2678H93.4355V47.3068H90.8445L90.684 48.7472C90.7702 48.6967 90.901 48.6432 91.0764 48.5867C91.2518 48.5272 91.448 48.4975 91.6651 48.4975C91.9802 48.4975 92.2597 48.5466 92.5034 48.6447C92.7472 48.7428 92.9539 48.8855 93.1233 49.0728C93.2957 49.2601 93.4266 49.489 93.5157 49.7595C93.6049 50.0301 93.6495 50.3363 93.6495 50.6782C93.6495 50.9666 93.6049 51.2416 93.5157 51.5032C93.4266 51.7618 93.2913 51.9937 93.1099 52.1988C92.9286 52.401 92.7012 52.5601 92.4276 52.676C92.1541 52.792 91.8301 52.8499 91.4555 52.8499C91.176 52.8499 90.9055 52.8083 90.6439 52.7251C90.3852 52.6418 90.1518 52.5184 89.9437 52.3549C89.7386 52.1914 89.5736 51.9937 89.4487 51.7618C89.3268 51.527 89.2629 51.2594 89.257 50.9591H90.5324C90.5502 51.1434 90.5978 51.3025 90.6751 51.4363C90.7553 51.5671 90.8609 51.6682 90.9917 51.7395C91.1225 51.8109 91.2756 51.8466 91.451 51.8466C91.6145 51.8466 91.7543 51.8153 91.8702 51.7529C91.9862 51.6905 92.0798 51.6043 92.1512 51.4943C92.2225 51.3813 92.2745 51.2505 92.3072 51.1018C92.3429 50.9502 92.3607 50.7867 92.3607 50.6113C92.3607 50.4359 92.3399 50.2768 92.2983 50.1341C92.2567 49.9914 92.1928 49.868 92.1066 49.764C92.0203 49.6599 91.9103 49.5797 91.7766 49.5232C91.6457 49.4667 91.4926 49.4384 91.3172 49.4384C91.0794 49.4384 90.8951 49.4756 90.7643 49.5499C90.6364 49.6243 90.5294 49.709 90.4432 49.8041ZM95.6875 49.8041L94.6618 49.5588L95.032 46.2678H98.6798V47.3068H96.0889L95.9283 48.7472C96.0145 48.6967 96.1453 48.6432 96.3208 48.5867C96.4962 48.5272 96.6924 48.4975 96.9094 48.4975C97.2245 48.4975 97.504 48.5466 97.7478 48.6447C97.9916 48.7428 98.1982 48.8855 98.3676 49.0728C98.5401 49.2601 98.6709 49.489 98.7601 49.7595C98.8493 50.0301 98.8939 50.3363 98.8939 50.6782C98.8939 50.9666 98.8493 51.2416 98.7601 51.5032C98.6709 51.7618 98.5356 51.9937 98.3543 52.1988C98.1729 52.401 97.9455 52.5601 97.672 52.676C97.3985 52.792 97.0744 52.8499 96.6998 52.8499C96.4203 52.8499 96.1498 52.8083 95.8882 52.7251C95.6295 52.6418 95.3962 52.5184 95.188 52.3549C94.9829 52.1914 94.8179 51.9937 94.693 51.7618C94.5712 51.527 94.5072 51.2594 94.5013 50.9591H95.7767C95.7945 51.1434 95.8421 51.3025 95.9194 51.4363C95.9997 51.5671 96.1052 51.6682 96.236 51.7395C96.3668 51.8109 96.5199 51.8466 96.6953 51.8466C96.8589 51.8466 96.9986 51.8153 97.1145 51.7529C97.2305 51.6905 97.3241 51.6043 97.3955 51.4943C97.4668 51.3813 97.5189 51.2505 97.5516 51.1018C97.5872 50.9502 97.6051 50.7867 97.6051 50.6113C97.6051 50.4359 97.5843 50.2768 97.5426 50.1341C97.501 49.9914 97.4371 49.868 97.3509 49.764C97.2647 49.6599 97.1547 49.5797 97.0209 49.5232C96.8901 49.4667 96.737 49.4384 96.5616 49.4384C96.3237 49.4384 96.1394 49.4756 96.0086 49.5499C95.8808 49.6243 95.7737 49.709 95.6875 49.8041ZM102.854 46.2544V52.7607H101.57V47.7349L100.027 48.2255V47.2132L102.716 46.2544H102.854Z" fill="black"/>
<rect width="66.1277" height="24.7128" transform="translate(158.312 32.0745)" fill="#5583FF"/>
<path d="M177.652 44.4309C177.652 47.398 175.247 49.8033 172.28 49.8033C169.313 49.8033 166.908 47.398 166.908 44.4309C166.908 41.4639 169.313 39.0586 172.28 39.0586C175.247 39.0586 177.652 41.4639 177.652 44.4309Z" fill="white"/>
<path fill-rule="evenodd" clip-rule="evenodd" d="M167.069 43.1322C167.786 40.2537 170.701 38.5019 173.58 39.2193C176.457 39.9372 178.209 42.8522 177.491 45.7302C176.775 48.6087 173.858 50.3599 170.979 49.6426C168.103 48.9247 166.351 46.0096 167.069 43.1322ZM173.896 44.5314C174.281 44.4422 174.572 44.1891 174.65 43.6657C174.756 42.9511 174.212 42.5664 173.468 42.309L173.71 41.3407L173.12 41.194L172.885 42.137C172.73 42.0983 172.57 42.0618 172.412 42.0258L172.649 41.0769L172.059 40.9302L171.818 41.8984C171.689 41.8694 171.564 41.8404 171.442 41.8098L171.442 41.8071L170.629 41.604L170.472 42.2337C170.472 42.2337 170.91 42.3342 170.9 42.3401C171.14 42.3998 171.182 42.5578 171.175 42.6835L170.9 43.7866C170.917 43.7909 170.938 43.7969 170.961 43.8065L170.899 43.7909L170.513 45.3358C170.484 45.4089 170.41 45.5174 170.243 45.476C170.249 45.4846 169.815 45.3691 169.815 45.3691L169.521 46.044L170.289 46.2348C170.378 46.2568 170.466 46.2798 170.553 46.3025C170.605 46.3162 170.658 46.3299 170.71 46.3433L170.466 47.3229L171.054 47.4706L171.295 46.5013C171.457 46.5453 171.614 46.5856 171.766 46.6238L171.526 47.5878L172.115 47.7345L172.359 46.7565C173.365 46.9467 174.12 46.8699 174.438 45.9613C174.694 45.2289 174.425 44.8065 173.896 44.5314ZM171.959 43.8995L172.253 42.7227C172.287 42.7313 172.329 42.7405 172.376 42.751C172.792 42.8433 173.64 43.0317 173.484 43.6545C173.332 44.265 172.458 44.0319 172.056 43.9249C172.02 43.9152 171.987 43.9064 171.959 43.8995ZM171.487 45.7915L171.811 44.4938C171.851 44.5037 171.9 44.5146 171.955 44.527C172.453 44.6383 173.473 44.8667 173.302 45.5545C173.134 46.2265 172.081 45.948 171.601 45.821C171.558 45.8097 171.52 45.7996 171.487 45.7915Z" fill="#F7931A"/>
<path d="M185.623 44.5784H183.661L183.65 43.4977H185.297C185.588 43.4977 185.826 43.461 186.011 43.3875C186.196 43.3106 186.334 43.2004 186.425 43.057C186.52 42.9101 186.567 42.7317 186.567 42.5218C186.567 42.284 186.522 42.0916 186.431 41.9447C186.343 41.7978 186.205 41.6912 186.016 41.6247C185.831 41.5582 185.591 41.525 185.297 41.525H184.206V47.9309H182.632V40.2921H185.297C185.742 40.2921 186.139 40.3341 186.488 40.418C186.842 40.502 187.141 40.6296 187.385 40.801C187.63 40.9724 187.817 41.1893 187.947 41.4516C188.076 41.7104 188.141 42.0182 188.141 42.3749C188.141 42.6897 188.069 42.98 187.926 43.2458C187.786 43.5117 187.564 43.7285 187.26 43.8964C186.959 44.0643 186.565 44.157 186.079 44.1745L185.623 44.5784ZM185.554 47.9309H183.23L183.844 46.7032H185.554C185.831 46.7032 186.056 46.6595 186.231 46.5721C186.406 46.4811 186.536 46.3587 186.62 46.2048C186.703 46.0509 186.745 45.8743 186.745 45.6749C186.745 45.4511 186.707 45.257 186.63 45.0926C186.557 44.9282 186.438 44.8023 186.273 44.7148C186.109 44.6239 185.892 44.5784 185.623 44.5784H184.106L184.117 43.4977H186.006L186.368 43.9226C186.833 43.9156 187.207 43.9978 187.49 44.1692C187.777 44.3371 187.985 44.5557 188.115 44.825C188.248 45.0943 188.314 45.3829 188.314 45.6907C188.314 46.1804 188.207 46.5931 187.994 46.9288C187.781 47.2611 187.468 47.5112 187.055 47.6791C186.646 47.847 186.146 47.9309 185.554 47.9309ZM192.763 40.2921V47.9309H191.194V40.2921H192.763ZM195.113 40.2921V41.525H188.881V40.2921H195.113ZM200.292 45.3969H201.86C201.829 45.911 201.687 46.3675 201.435 46.7662C201.187 47.1649 200.839 47.4762 200.391 47.7001C199.947 47.9239 199.412 48.0358 198.786 48.0358C198.296 48.0358 197.857 47.9519 197.469 47.784C197.081 47.6126 196.749 47.3678 196.472 47.0495C196.199 46.7312 195.991 46.3465 195.848 45.8953C195.705 45.4441 195.633 44.9387 195.633 44.3791V43.8492C195.633 43.2896 195.706 42.7842 195.853 42.333C196.004 41.8783 196.217 41.4918 196.493 41.1735C196.773 40.8552 197.107 40.6104 197.495 40.439C197.884 40.2676 198.317 40.1819 198.796 40.1819C199.433 40.1819 199.97 40.2974 200.407 40.5282C200.848 40.759 201.189 41.0773 201.43 41.4831C201.675 41.8888 201.822 42.3505 201.871 42.8681H200.297C200.279 42.5603 200.218 42.2997 200.113 42.0864C200.008 41.8695 199.849 41.7069 199.636 41.5985C199.426 41.4865 199.146 41.4306 198.796 41.4306C198.534 41.4306 198.305 41.4796 198.109 41.5775C197.913 41.6754 197.749 41.8241 197.616 42.0234C197.483 42.2228 197.383 42.4746 197.317 42.7789C197.254 43.0797 197.223 43.433 197.223 43.8387V44.3791C197.223 44.7743 197.252 45.1223 197.312 45.4231C197.371 45.7204 197.462 45.9722 197.585 46.1786C197.71 46.3815 197.871 46.5354 198.067 46.6403C198.267 46.7417 198.506 46.7924 198.786 46.7924C199.115 46.7924 199.386 46.74 199.599 46.635C199.813 46.5301 199.975 46.3745 200.087 46.1681C200.203 45.9617 200.271 45.7047 200.292 45.3969Z" fill="white"/>
<path d="M216.001 42.9766L213.695 45.2829L211.389 42.9766L210.629 43.7362L213.695 46.8022L216.761 43.7362L216.001 42.9766Z" fill="white" fill-opacity="0.6"/>
</g>
<g filter="url(#filter1_d_1721_26838)">
<rect x="48.2271" y="69.6809" width="176.213" height="24.7128" rx="4.29787" fill="#00EBB2"/>
<path d="M120.686 82.9382C120.686 82.8291 120.67 82.7312 120.636 82.6444C120.605 82.5549 120.547 82.4738 120.46 82.401C120.373 82.3255 120.251 82.2513 120.095 82.1786C119.938 82.1058 119.735 82.0303 119.486 81.9519C119.209 81.8624 118.946 81.7616 118.697 81.6497C118.451 81.5378 118.232 81.4077 118.042 81.2594C117.855 81.1083 117.706 80.9334 117.597 80.7347C117.491 80.5361 117.438 80.3052 117.438 80.0422C117.438 79.7876 117.494 79.5567 117.606 79.3497C117.718 79.1398 117.874 78.9608 118.076 78.8125C118.277 78.6614 118.515 78.5452 118.789 78.4641C119.066 78.3829 119.37 78.3424 119.7 78.3424C120.151 78.3424 120.544 78.4235 120.879 78.5858C121.215 78.7481 121.475 78.9705 121.66 79.2532C121.848 79.5358 121.941 79.8589 121.941 80.2227H120.691C120.691 80.0436 120.653 79.8869 120.577 79.7526C120.505 79.6155 120.393 79.5078 120.242 79.4294C120.093 79.3511 119.906 79.3119 119.679 79.3119C119.461 79.3119 119.279 79.3455 119.133 79.4126C118.988 79.477 118.879 79.5651 118.806 79.6771C118.733 79.7862 118.697 79.9093 118.697 80.0464C118.697 80.1499 118.722 80.2437 118.773 80.3276C118.826 80.4116 118.904 80.4899 119.008 80.5627C119.111 80.6354 119.238 80.704 119.389 80.7683C119.541 80.8327 119.715 80.8956 119.914 80.9572C120.247 81.0579 120.54 81.1712 120.791 81.2972C121.046 81.4231 121.259 81.5644 121.429 81.7211C121.6 81.8778 121.729 82.0554 121.815 82.2541C121.902 82.4528 121.946 82.678 121.946 82.9298C121.946 83.1957 121.894 83.4335 121.79 83.6434C121.687 83.8532 121.537 84.0309 121.341 84.1764C121.145 84.3219 120.912 84.4324 120.64 84.508C120.369 84.5835 120.065 84.6213 119.729 84.6213C119.427 84.6213 119.129 84.5821 118.835 84.5038C118.542 84.4226 118.274 84.3009 118.034 84.1386C117.796 83.9763 117.606 83.7693 117.463 83.5174C117.32 83.2656 117.249 82.9676 117.249 82.6235H118.512C118.512 82.8137 118.542 82.9746 118.6 83.1061C118.659 83.2376 118.742 83.344 118.848 83.4251C118.957 83.5063 119.086 83.565 119.234 83.6014C119.385 83.6378 119.55 83.656 119.729 83.656C119.948 83.656 120.127 83.6252 120.267 83.5636C120.409 83.5021 120.514 83.4167 120.581 83.3076C120.651 83.1985 120.686 83.0753 120.686 82.9382ZM125.412 83.4503V79.996H126.621V84.5374H125.484L125.412 83.4503ZM125.547 82.5185L125.903 82.5101C125.903 82.8123 125.868 83.0935 125.799 83.3538C125.729 83.6112 125.624 83.835 125.484 84.0253C125.344 84.2128 125.168 84.3597 124.955 84.466C124.742 84.5695 124.492 84.6213 124.204 84.6213C123.983 84.6213 123.778 84.5905 123.591 84.529C123.406 84.4646 123.247 84.3653 123.112 84.231C122.981 84.0939 122.877 83.919 122.802 83.7063C122.729 83.4909 122.693 83.232 122.693 82.9298V79.996H123.901V82.9382C123.901 83.0726 123.917 83.1859 123.948 83.2782C123.981 83.3705 124.027 83.4461 124.086 83.5049C124.145 83.5636 124.213 83.6056 124.292 83.6308C124.373 83.656 124.462 83.6685 124.56 83.6685C124.809 83.6685 125.005 83.6182 125.148 83.5174C125.293 83.4167 125.396 83.2796 125.454 83.1061C125.516 82.9298 125.547 82.734 125.547 82.5185ZM127.545 78.0905H128.753V83.4965L128.632 84.5374H127.545V78.0905ZM131.628 82.2205V82.3087C131.628 82.6472 131.592 82.9578 131.519 83.2404C131.449 83.523 131.34 83.7679 131.192 83.9749C131.044 84.1792 130.859 84.3387 130.638 84.4534C130.42 84.5653 130.162 84.6213 129.866 84.6213C129.589 84.6213 129.348 84.5653 129.144 84.4534C128.942 84.3415 128.773 84.1834 128.636 83.9791C128.499 83.7749 128.388 83.5356 128.304 83.2614C128.22 82.9872 128.157 82.6878 128.115 82.3632V82.1702C128.157 81.8456 128.22 81.5462 128.304 81.272C128.388 80.9978 128.499 80.7585 128.636 80.5543C128.773 80.35 128.942 80.1919 129.144 80.08C129.345 79.9681 129.583 79.9121 129.857 79.9121C130.157 79.9121 130.417 79.9695 130.638 80.0842C130.862 80.1961 131.046 80.3556 131.192 80.5627C131.34 80.7669 131.449 81.0104 131.519 81.293C131.592 81.5728 131.628 81.882 131.628 82.2205ZM130.42 82.3087V82.2205C130.42 82.0359 130.406 81.8624 130.378 81.7001C130.352 81.535 130.308 81.3909 130.243 81.2678C130.179 81.1419 130.091 81.0425 129.979 80.9698C129.87 80.897 129.728 80.8607 129.555 80.8607C129.39 80.8607 129.25 80.8886 129.135 80.9446C129.021 81.0006 128.925 81.0789 128.85 81.1796C128.777 81.2804 128.723 81.4007 128.686 81.5406C128.65 81.6777 128.627 81.8288 128.619 81.9939V82.5437C128.627 82.7648 128.664 82.9606 128.728 83.1313C128.795 83.2992 128.896 83.4321 129.03 83.53C129.167 83.6252 129.345 83.6727 129.563 83.6727C129.734 83.6727 129.875 83.6392 129.987 83.572C130.099 83.5049 130.186 83.4097 130.247 83.2866C130.312 83.1635 130.357 83.0194 130.382 82.8543C130.407 82.6864 130.42 82.5045 130.42 82.3087ZM134.835 83.2824C134.835 83.1957 134.81 83.1173 134.759 83.0474C134.709 82.9774 134.615 82.9131 134.478 82.8543C134.344 82.7927 134.149 82.7368 133.895 82.6864C133.665 82.636 133.451 82.5731 133.253 82.4975C133.057 82.4192 132.886 82.3255 132.741 82.2163C132.598 82.1072 132.486 81.9785 132.405 81.8302C132.324 81.6791 132.283 81.507 132.283 81.3139C132.283 81.1237 132.324 80.9446 132.405 80.7767C132.489 80.6088 132.608 80.4605 132.762 80.3318C132.918 80.2003 133.109 80.0982 133.332 80.0254C133.559 79.9499 133.814 79.9121 134.096 79.9121C134.491 79.9121 134.829 79.9751 135.112 80.101C135.397 80.2269 135.616 80.4004 135.767 80.6214C135.921 80.8397 135.998 81.0887 135.998 81.3685H134.789C134.789 81.251 134.764 81.1461 134.713 81.0537C134.666 80.9586 134.59 80.8844 134.487 80.8313C134.386 80.7753 134.254 80.7473 134.092 80.7473C133.958 80.7473 133.842 80.7711 133.744 80.8187C133.646 80.8635 133.57 80.925 133.517 81.0034C133.467 81.0789 133.442 81.1629 133.442 81.2552C133.442 81.3251 133.456 81.3881 133.483 81.4441C133.514 81.4972 133.563 81.5462 133.63 81.591C133.698 81.6357 133.784 81.6777 133.891 81.7169C134 81.7532 134.134 81.7868 134.294 81.8176C134.621 81.8848 134.913 81.9729 135.171 82.082C135.428 82.1884 135.632 82.3339 135.784 82.5185C135.935 82.7004 136.01 82.9396 136.01 83.2362C136.01 83.4377 135.965 83.6224 135.876 83.7903C135.786 83.9581 135.658 84.105 135.49 84.231C135.322 84.3541 135.12 84.4506 134.885 84.5206C134.653 84.5877 134.391 84.6213 134.1 84.6213C133.678 84.6213 133.32 84.5457 133.026 84.3947C132.735 84.2436 132.514 84.0519 132.363 83.8196C132.215 83.5846 132.14 83.344 132.14 83.0977H133.286C133.292 83.2628 133.334 83.3957 133.412 83.4965C133.493 83.5972 133.595 83.6699 133.719 83.7147C133.844 83.7595 133.98 83.7819 134.126 83.7819C134.282 83.7819 134.412 83.7609 134.516 83.7189C134.62 83.6741 134.698 83.6154 134.751 83.5426C134.807 83.4671 134.835 83.3803 134.835 83.2824ZM138.671 83.6769C138.819 83.6769 138.951 83.649 139.066 83.593C139.18 83.5342 139.27 83.4531 139.334 83.3496C139.401 83.2432 139.436 83.1187 139.439 82.976H140.577C140.574 83.295 140.489 83.579 140.321 83.828C140.153 84.0743 139.927 84.2687 139.645 84.4114C139.362 84.5513 139.046 84.6213 138.696 84.6213C138.344 84.6213 138.036 84.5625 137.773 84.445C137.513 84.3275 137.296 84.1652 137.122 83.9581C136.949 83.7483 136.819 83.5049 136.732 83.2278C136.645 82.948 136.602 82.6486 136.602 82.3297V82.2079C136.602 81.8862 136.645 81.5868 136.732 81.3098C136.819 81.0299 136.949 80.7865 137.122 80.5794C137.296 80.3696 137.513 80.2059 137.773 80.0884C138.033 79.9709 138.338 79.9121 138.688 79.9121C139.06 79.9121 139.386 79.9835 139.666 80.1262C139.948 80.2689 140.17 80.4731 140.329 80.7389C140.491 81.002 140.574 81.3139 140.577 81.6749H139.439C139.436 81.5238 139.404 81.3867 139.343 81.2636C139.284 81.1405 139.197 81.0425 139.082 80.9698C138.971 80.8942 138.832 80.8565 138.667 80.8565C138.491 80.8565 138.347 80.8942 138.235 80.9698C138.123 81.0425 138.036 81.1433 137.974 81.272C137.913 81.3979 137.869 81.542 137.844 81.7043C137.822 81.8638 137.811 82.0317 137.811 82.2079V82.3297C137.811 82.5059 137.822 82.6752 137.844 82.8375C137.867 82.9998 137.909 83.1439 137.97 83.2698C138.035 83.3957 138.123 83.4951 138.235 83.5678C138.347 83.6406 138.492 83.6769 138.671 83.6769ZM142.486 80.9866V84.5374H141.278V79.996H142.415L142.486 80.9866ZM143.855 79.9667L143.834 81.0873C143.775 81.0789 143.704 81.0719 143.62 81.0663C143.538 81.0579 143.464 81.0537 143.397 81.0537C143.226 81.0537 143.078 81.0761 142.952 81.1209C142.829 81.1629 142.726 81.2258 142.642 81.3098C142.561 81.3937 142.499 81.4958 142.457 81.6161C142.418 81.7365 142.395 81.8736 142.39 82.0275L142.146 81.9519C142.146 81.6581 142.176 81.3881 142.235 81.1419C142.293 80.8928 142.379 80.676 142.491 80.4913C142.605 80.3066 142.745 80.1639 142.91 80.0632C143.075 79.9625 143.264 79.9121 143.477 79.9121C143.544 79.9121 143.613 79.9177 143.683 79.9289C143.752 79.9373 143.81 79.9499 143.855 79.9667ZM145.701 79.996V84.5374H144.488V79.996H145.701ZM144.413 78.8125C144.413 78.6362 144.474 78.4907 144.598 78.376C144.721 78.2612 144.886 78.2039 145.093 78.2039C145.297 78.2039 145.461 78.2612 145.584 78.376C145.71 78.4907 145.773 78.6362 145.773 78.8125C145.773 78.9887 145.71 79.1342 145.584 79.249C145.461 79.3637 145.297 79.421 145.093 79.421C144.886 79.421 144.721 79.3637 144.598 79.249C144.474 79.1342 144.413 78.9887 144.413 78.8125ZM146.7 78.0905H147.909V83.4965L147.787 84.5374H146.7V78.0905ZM150.784 82.2205V82.3087C150.784 82.6472 150.748 82.9578 150.675 83.2404C150.605 83.523 150.496 83.7679 150.348 83.9749C150.199 84.1792 150.015 84.3387 149.794 84.4534C149.575 84.5653 149.318 84.6213 149.021 84.6213C148.744 84.6213 148.504 84.5653 148.299 84.4534C148.098 84.3415 147.929 84.1834 147.792 83.9791C147.654 83.7749 147.544 83.5356 147.46 83.2614C147.376 82.9872 147.313 82.6878 147.271 82.3632V82.1702C147.313 81.8456 147.376 81.5462 147.46 81.272C147.544 80.9978 147.654 80.7585 147.792 80.5543C147.929 80.35 148.098 80.1919 148.299 80.08C148.501 79.9681 148.739 79.9121 149.013 79.9121C149.312 79.9121 149.573 79.9695 149.794 80.0842C150.017 80.1961 150.202 80.3556 150.348 80.5627C150.496 80.7669 150.605 81.0104 150.675 81.293C150.748 81.5728 150.784 81.882 150.784 82.2205ZM149.575 82.3087V82.2205C149.575 82.0359 149.561 81.8624 149.533 81.7001C149.508 81.535 149.463 81.3909 149.399 81.2678C149.335 81.1419 149.247 81.0425 149.135 80.9698C149.026 80.897 148.884 80.8607 148.711 80.8607C148.546 80.8607 148.406 80.8886 148.291 80.9446C148.176 81.0006 148.081 81.0789 148.006 81.1796C147.933 81.2804 147.878 81.4007 147.842 81.5406C147.806 81.6777 147.783 81.8288 147.775 81.9939V82.5437C147.783 82.7648 147.82 82.9606 147.884 83.1313C147.951 83.2992 148.052 83.4321 148.186 83.53C148.323 83.6252 148.501 83.6727 148.719 83.6727C148.89 83.6727 149.031 83.6392 149.143 83.572C149.255 83.5049 149.342 83.4097 149.403 83.2866C149.468 83.1635 149.512 83.0194 149.538 82.8543C149.563 82.6864 149.575 82.5045 149.575 82.3087ZM153.626 84.6213C153.273 84.6213 152.957 84.5653 152.677 84.4534C152.397 84.3387 152.159 84.1806 151.964 83.9791C151.77 83.7777 151.622 83.544 151.519 83.2782C151.415 83.0096 151.363 82.7242 151.363 82.422V82.2541C151.363 81.9099 151.412 81.5952 151.51 81.3098C151.608 81.0243 151.748 80.7767 151.93 80.5669C152.115 80.357 152.338 80.1961 152.601 80.0842C152.864 79.9695 153.161 79.9121 153.491 79.9121C153.813 79.9121 154.098 79.9653 154.347 80.0716C154.597 80.1779 154.805 80.329 154.973 80.5249C155.144 80.7208 155.272 80.9558 155.359 81.23C155.446 81.5014 155.489 81.8036 155.489 82.1366V82.6402H151.88V81.8344H154.301V81.7421C154.301 81.5742 154.271 81.4245 154.209 81.293C154.15 81.1587 154.061 81.0523 153.94 80.974C153.82 80.8956 153.666 80.8565 153.479 80.8565C153.319 80.8565 153.182 80.8914 153.067 80.9614C152.953 81.0313 152.859 81.1293 152.786 81.2552C152.716 81.3811 152.663 81.5294 152.627 81.7001C152.593 81.868 152.576 82.0526 152.576 82.2541V82.422C152.576 82.6039 152.601 82.7718 152.652 82.9257C152.705 83.0795 152.779 83.2125 152.874 83.3244C152.972 83.4363 153.09 83.523 153.227 83.5846C153.367 83.6462 153.525 83.6769 153.701 83.6769C153.919 83.6769 154.122 83.635 154.31 83.551C154.5 83.4643 154.664 83.3342 154.801 83.1607L155.388 83.7987C155.293 83.9358 155.163 84.0673 154.998 84.1932C154.836 84.3191 154.64 84.4226 154.41 84.5038C154.181 84.5821 153.919 84.6213 153.626 84.6213Z" fill="url(#paint1_linear_1721_26838)"/>
</g>
<rect x="35.6021" y="-95.7314" width="201.463" height="202.75" rx="12.625" stroke="white" stroke-opacity="0.2" stroke-width="0.537234"/>
</g>
<g filter="url(#filter2_d_1721_26838)">
<rect x="19.3335" y="61.6436" width="239" height="38" rx="5.82927" fill="#00EBB2"/>
<path d="M115.169 82.2251C115.169 82.0601 115.144 81.9119 115.093 81.7808C115.047 81.6453 114.958 81.5226 114.826 81.4126C114.695 81.2983 114.511 81.1862 114.274 81.0762C114.037 80.9661 113.73 80.8519 113.354 80.7334C112.935 80.598 112.537 80.4456 112.16 80.2764C111.788 80.1071 111.458 79.9103 111.17 79.686C110.887 79.4575 110.662 79.193 110.497 78.8926C110.337 78.5921 110.256 78.243 110.256 77.8452C110.256 77.4601 110.341 77.111 110.51 76.7979C110.679 76.4805 110.916 76.2096 111.221 75.9854C111.526 75.7568 111.885 75.5812 112.3 75.4585C112.719 75.3358 113.178 75.2744 113.678 75.2744C114.359 75.2744 114.953 75.3971 115.461 75.6426C115.969 75.888 116.363 76.2244 116.642 76.6519C116.925 77.0793 117.067 77.568 117.067 78.1182H115.176C115.176 77.8473 115.118 77.6104 115.004 77.4072C114.894 77.1999 114.725 77.0369 114.496 76.9185C114.272 76.8 113.989 76.7407 113.646 76.7407C113.316 76.7407 113.041 76.7915 112.821 76.8931C112.601 76.9904 112.436 77.1237 112.326 77.293C112.215 77.458 112.16 77.6442 112.16 77.8516C112.16 78.0081 112.199 78.1499 112.275 78.2769C112.355 78.4038 112.474 78.5223 112.63 78.6323C112.787 78.7424 112.979 78.846 113.208 78.9434C113.436 79.0407 113.701 79.1359 114.001 79.229C114.505 79.3813 114.947 79.5527 115.328 79.7432C115.713 79.9336 116.035 80.1473 116.293 80.3843C116.551 80.6213 116.746 80.89 116.877 81.1904C117.008 81.4909 117.074 81.8315 117.074 82.2124C117.074 82.6144 116.995 82.9741 116.839 83.2915C116.682 83.6089 116.456 83.8776 116.159 84.0977C115.863 84.3177 115.51 84.4849 115.099 84.5991C114.689 84.7134 114.23 84.7705 113.722 84.7705C113.265 84.7705 112.814 84.7113 112.37 84.5928C111.926 84.4701 111.521 84.286 111.158 84.0405C110.798 83.7951 110.51 83.4819 110.294 83.1011C110.078 82.7202 109.971 82.2695 109.971 81.749H111.881C111.881 82.0368 111.926 82.2801 112.014 82.479C112.103 82.6779 112.228 82.8387 112.389 82.9614C112.554 83.0841 112.749 83.173 112.973 83.228C113.201 83.283 113.451 83.3105 113.722 83.3105C114.052 83.3105 114.323 83.264 114.534 83.1709C114.75 83.0778 114.909 82.9487 115.011 82.7837C115.116 82.6187 115.169 82.4325 115.169 82.2251ZM122.317 82.9995V77.7754H124.145V84.6436H122.425L122.317 82.9995ZM122.52 81.5903L123.059 81.5776C123.059 82.0347 123.006 82.46 122.901 82.8535C122.795 83.2428 122.636 83.5814 122.425 83.8691C122.213 84.1527 121.946 84.3748 121.625 84.5356C121.303 84.6922 120.924 84.7705 120.489 84.7705C120.154 84.7705 119.845 84.724 119.562 84.6309C119.283 84.5335 119.041 84.3833 118.838 84.1802C118.639 83.9728 118.483 83.7083 118.368 83.3867C118.258 83.0609 118.203 82.6694 118.203 82.2124V77.7754H120.032V82.2251C120.032 82.4282 120.055 82.5996 120.101 82.7393C120.152 82.8789 120.222 82.9932 120.311 83.082C120.4 83.1709 120.503 83.2344 120.622 83.2725C120.745 83.3105 120.88 83.3296 121.028 83.3296C121.405 83.3296 121.701 83.2534 121.917 83.1011C122.137 82.9487 122.291 82.7414 122.38 82.479C122.473 82.2124 122.52 81.9162 122.52 81.5903ZM125.541 74.8936H127.369V83.0693L127.185 84.6436H125.541V74.8936ZM131.718 81.1396V81.2729C131.718 81.785 131.663 82.2547 131.553 82.6821C131.447 83.1095 131.282 83.4798 131.057 83.793C130.833 84.1019 130.554 84.3431 130.22 84.5166C129.889 84.6859 129.5 84.7705 129.052 84.7705C128.633 84.7705 128.269 84.6859 127.96 84.5166C127.655 84.3473 127.399 84.1082 127.192 83.7993C126.984 83.4904 126.817 83.1286 126.69 82.7139C126.563 82.2992 126.468 81.8464 126.405 81.3555V81.0635C126.468 80.5726 126.563 80.1198 126.69 79.7051C126.817 79.2904 126.984 78.9285 127.192 78.6196C127.399 78.3107 127.655 78.0716 127.96 77.9023C128.264 77.7331 128.624 77.6484 129.039 77.6484C129.492 77.6484 129.885 77.7352 130.22 77.9087C130.558 78.078 130.837 78.3192 131.057 78.6323C131.282 78.9412 131.447 79.3094 131.553 79.7368C131.663 80.16 131.718 80.6276 131.718 81.1396ZM129.889 81.2729V81.1396C129.889 80.8604 129.868 80.598 129.826 80.3525C129.788 80.1029 129.72 79.8849 129.623 79.6987C129.526 79.5083 129.392 79.3581 129.223 79.248C129.058 79.138 128.844 79.083 128.582 79.083C128.332 79.083 128.121 79.1253 127.947 79.21C127.774 79.2946 127.63 79.4131 127.515 79.5654C127.405 79.7178 127.323 79.8997 127.268 80.1113C127.213 80.3187 127.179 80.5472 127.166 80.7969V81.6284C127.179 81.9627 127.234 82.259 127.331 82.5171C127.433 82.771 127.585 82.972 127.788 83.1201C127.996 83.264 128.264 83.3359 128.595 83.3359C128.853 83.3359 129.066 83.2852 129.236 83.1836C129.405 83.082 129.536 82.9382 129.629 82.752C129.727 82.5658 129.794 82.3478 129.832 82.0981C129.87 81.8442 129.889 81.5692 129.889 81.2729ZM136.567 82.7456C136.567 82.6144 136.529 82.4959 136.453 82.3901C136.377 82.2843 136.235 82.187 136.028 82.0981C135.825 82.005 135.53 81.9204 135.145 81.8442C134.798 81.7681 134.475 81.6729 134.174 81.5586C133.878 81.4401 133.62 81.2983 133.4 81.1333C133.184 80.9683 133.015 80.7736 132.892 80.5493C132.769 80.3208 132.708 80.0605 132.708 79.7686C132.708 79.4808 132.769 79.21 132.892 78.9561C133.019 78.7021 133.199 78.4779 133.431 78.2832C133.668 78.0843 133.956 77.9299 134.295 77.8198C134.638 77.7056 135.023 77.6484 135.45 77.6484C136.047 77.6484 136.559 77.7437 136.986 77.9341C137.418 78.1245 137.748 78.3869 137.976 78.7212C138.209 79.0513 138.326 79.4279 138.326 79.8511H136.497C136.497 79.6733 136.459 79.5146 136.383 79.375C136.311 79.2311 136.197 79.119 136.04 79.0386C135.888 78.9539 135.689 78.9116 135.444 78.9116C135.241 78.9116 135.065 78.9476 134.917 79.0195C134.769 79.0872 134.654 79.1803 134.574 79.2988C134.498 79.4131 134.46 79.54 134.46 79.6797C134.46 79.7855 134.481 79.8807 134.523 79.9653C134.57 80.0457 134.644 80.1198 134.745 80.1875C134.847 80.2552 134.978 80.3187 135.139 80.3779C135.304 80.4329 135.507 80.4837 135.748 80.5303C136.243 80.6318 136.686 80.7651 137.075 80.9302C137.464 81.091 137.773 81.311 138.002 81.5903C138.23 81.8654 138.345 82.2272 138.345 82.6758C138.345 82.9805 138.277 83.2598 138.141 83.5137C138.006 83.7676 137.811 83.9897 137.557 84.1802C137.304 84.3664 136.999 84.5124 136.643 84.6182C136.292 84.7197 135.896 84.7705 135.456 84.7705C134.817 84.7705 134.276 84.6562 133.831 84.4277C133.391 84.1992 133.057 83.9093 132.828 83.5581C132.604 83.2026 132.492 82.8387 132.492 82.4663H134.225C134.233 82.716 134.297 82.917 134.415 83.0693C134.538 83.2217 134.693 83.3317 134.879 83.3994C135.069 83.4671 135.274 83.501 135.494 83.501C135.731 83.501 135.928 83.4692 136.085 83.4058C136.241 83.3381 136.36 83.2492 136.44 83.1392C136.525 83.0249 136.567 82.8937 136.567 82.7456ZM142.369 83.3423C142.593 83.3423 142.792 83.3 142.966 83.2153C143.139 83.1265 143.275 83.0037 143.372 82.8472C143.473 82.6864 143.526 82.498 143.531 82.2822H145.251C145.247 82.7646 145.118 83.1942 144.864 83.5708C144.61 83.9432 144.269 84.2373 143.842 84.4531C143.414 84.6647 142.936 84.7705 142.407 84.7705C141.874 84.7705 141.408 84.6816 141.011 84.5039C140.617 84.3262 140.289 84.0807 140.027 83.7676C139.764 83.4502 139.568 83.082 139.436 82.6631C139.305 82.2399 139.24 81.7871 139.24 81.3047V81.1206C139.24 80.634 139.305 80.1812 139.436 79.7622C139.568 79.339 139.764 78.9709 140.027 78.6577C140.289 78.3403 140.617 78.0928 141.011 77.915C141.404 77.7373 141.865 77.6484 142.394 77.6484C142.957 77.6484 143.45 77.7563 143.873 77.9722C144.301 78.188 144.635 78.4969 144.876 78.8989C145.122 79.2967 145.247 79.7686 145.251 80.3145H143.531C143.526 80.0859 143.478 79.8786 143.385 79.6924C143.296 79.5062 143.165 79.3581 142.991 79.248C142.822 79.1338 142.612 79.0767 142.363 79.0767C142.096 79.0767 141.878 79.1338 141.709 79.248C141.54 79.3581 141.408 79.5104 141.315 79.7051C141.222 79.8955 141.157 80.1134 141.118 80.3589C141.085 80.6001 141.068 80.854 141.068 81.1206V81.3047C141.068 81.5713 141.085 81.8273 141.118 82.0728C141.152 82.3182 141.216 82.5361 141.309 82.7266C141.406 82.917 141.54 83.0672 141.709 83.1772C141.878 83.2873 142.098 83.3423 142.369 83.3423ZM148.139 79.2734V84.6436H146.311V77.7754H148.031L148.139 79.2734ZM150.208 77.731L150.177 79.4258C150.088 79.4131 149.98 79.4025 149.853 79.394C149.73 79.3813 149.618 79.375 149.516 79.375C149.258 79.375 149.034 79.4089 148.844 79.4766C148.657 79.54 148.501 79.6353 148.374 79.7622C148.251 79.8892 148.158 80.0436 148.095 80.2256C148.035 80.4076 148.001 80.6149 147.993 80.8477L147.625 80.7334C147.625 80.2891 147.669 79.8807 147.758 79.5083C147.847 79.1317 147.976 78.8037 148.145 78.5244C148.319 78.2451 148.53 78.0293 148.78 77.877C149.03 77.7246 149.315 77.6484 149.637 77.6484C149.739 77.6484 149.842 77.6569 149.948 77.6738C150.054 77.6865 150.141 77.7056 150.208 77.731ZM153.001 77.7754V84.6436H151.167V77.7754H153.001ZM151.053 75.9854C151.053 75.7188 151.146 75.4987 151.332 75.3252C151.518 75.1517 151.768 75.0649 152.081 75.0649C152.39 75.0649 152.637 75.1517 152.824 75.3252C153.014 75.4987 153.109 75.7188 153.109 75.9854C153.109 76.252 153.014 76.472 152.824 76.6455C152.637 76.819 152.39 76.9058 152.081 76.9058C151.768 76.9058 151.518 76.819 151.332 76.6455C151.146 76.472 151.053 76.252 151.053 75.9854ZM154.512 74.8936H156.34V83.0693L156.156 84.6436H154.512V74.8936ZM160.688 81.1396V81.2729C160.688 81.785 160.633 82.2547 160.523 82.6821C160.417 83.1095 160.252 83.4798 160.028 83.793C159.804 84.1019 159.525 84.3431 159.19 84.5166C158.86 84.6859 158.471 84.7705 158.022 84.7705C157.603 84.7705 157.239 84.6859 156.93 84.5166C156.626 84.3473 156.37 84.1082 156.162 83.7993C155.955 83.4904 155.788 83.1286 155.661 82.7139C155.534 82.2992 155.439 81.8464 155.375 81.3555V81.0635C155.439 80.5726 155.534 80.1198 155.661 79.7051C155.788 79.2904 155.955 78.9285 156.162 78.6196C156.37 78.3107 156.626 78.0716 156.93 77.9023C157.235 77.7331 157.595 77.6484 158.01 77.6484C158.462 77.6484 158.856 77.7352 159.19 77.9087C159.529 78.078 159.808 78.3192 160.028 78.6323C160.252 78.9412 160.417 79.3094 160.523 79.7368C160.633 80.16 160.688 80.6276 160.688 81.1396ZM158.86 81.2729V81.1396C158.86 80.8604 158.839 80.598 158.797 80.3525C158.759 80.1029 158.691 79.8849 158.594 79.6987C158.496 79.5083 158.363 79.3581 158.194 79.248C158.029 79.138 157.815 79.083 157.553 79.083C157.303 79.083 157.091 79.1253 156.918 79.21C156.744 79.2946 156.6 79.4131 156.486 79.5654C156.376 79.7178 156.294 79.8997 156.239 80.1113C156.184 80.3187 156.15 80.5472 156.137 80.7969V81.6284C156.15 81.9627 156.205 82.259 156.302 82.5171C156.404 82.771 156.556 82.972 156.759 83.1201C156.966 83.264 157.235 83.3359 157.565 83.3359C157.823 83.3359 158.037 83.2852 158.206 83.1836C158.376 83.082 158.507 82.9382 158.6 82.752C158.697 82.5658 158.765 82.3478 158.803 82.0981C158.841 81.8442 158.86 81.5692 158.86 81.2729ZM164.986 84.7705C164.452 84.7705 163.974 84.6859 163.551 84.5166C163.128 84.3431 162.768 84.104 162.472 83.7993C162.18 83.4946 161.956 83.1413 161.799 82.7393C161.643 82.333 161.564 81.9014 161.564 81.4443V81.1904C161.564 80.6699 161.638 80.1938 161.786 79.7622C161.935 79.3306 162.146 78.9561 162.421 78.6387C162.701 78.3213 163.039 78.078 163.437 77.9087C163.835 77.7352 164.283 77.6484 164.783 77.6484C165.269 77.6484 165.701 77.7288 166.077 77.8896C166.454 78.0505 166.769 78.279 167.023 78.5752C167.281 78.8714 167.476 79.2269 167.607 79.6416C167.738 80.0521 167.804 80.5091 167.804 81.0127V81.7744H162.345V80.5557H166.008V80.416C166.008 80.1621 165.961 79.9357 165.868 79.7368C165.779 79.5337 165.644 79.3729 165.462 79.2544C165.28 79.1359 165.047 79.0767 164.763 79.0767C164.522 79.0767 164.315 79.1296 164.141 79.2354C163.968 79.3411 163.826 79.4893 163.716 79.6797C163.61 79.8701 163.53 80.0944 163.475 80.3525C163.424 80.6064 163.399 80.8857 163.399 81.1904V81.4443C163.399 81.7194 163.437 81.9733 163.513 82.2061C163.593 82.4388 163.706 82.6398 163.849 82.8091C163.998 82.9784 164.175 83.1095 164.383 83.2026C164.594 83.2957 164.833 83.3423 165.1 83.3423C165.43 83.3423 165.737 83.2788 166.02 83.1519C166.308 83.0207 166.556 82.8239 166.763 82.5615L167.652 83.5264C167.508 83.7337 167.311 83.9326 167.061 84.123C166.816 84.3135 166.52 84.4701 166.173 84.5928C165.826 84.7113 165.43 84.7705 164.986 84.7705Z" fill="url(#paint2_linear_1721_26838)"/>
</g>
</g>
<defs>
<filter id="filter0_b_1721_26838" x="-2.27289" y="-133.606" width="277.213" height="278.5" filterUnits="userSpaceOnUse" color-interpolation-filters="sRGB">
<feFlood flood-opacity="0" result="BackgroundImageFix"/>
<feGaussianBlur in="BackgroundImageFix" stdDeviation="18.8032"/>
<feComposite in2="SourceAlpha" operator="in" result="effect1_backgroundBlur_1721_26838"/>
<feBlend mode="normal" in="SourceGraphic" in2="effect1_backgroundBlur_1721_26838" result="shape"/>
</filter>
<filter id="filter1_d_1721_26838" x="39.6313" y="62.1596" width="193.404" height="41.9041" filterUnits="userSpaceOnUse" color-interpolation-filters="sRGB">
<feFlood flood-opacity="0" result="BackgroundImageFix"/>
<feColorMatrix in="SourceAlpha" type="matrix" values="0 0 0 0 0 0 0 0 0 0 0 0 0 0 0 0 0 0 127 0" result="hardAlpha"/>
<feOffset dy="1.07447"/>
<feGaussianBlur stdDeviation="4.29787"/>
<feColorMatrix type="matrix" values="0 0 0 0 0 0 0 0 0 0.223529 0 0 0 0 0.65098 0 0 0 0.08 0"/>
<feBlend mode="normal" in2="BackgroundImageFix" result="effect1_dropShadow_1721_26838"/>
<feBlend mode="normal" in="SourceGraphic" in2="effect1_dropShadow_1721_26838" result="shape"/>
</filter>
<filter id="filter2_d_1721_26838" x="3.3335" y="49.6436" width="271" height="70" filterUnits="userSpaceOnUse" color-interpolation-filters="sRGB">
<feFlood flood-opacity="0" result="BackgroundImageFix"/>
<feColorMatrix in="SourceAlpha" type="matrix" values="0 0 0 0 0 0 0 0 0 0 0 0 0 0 0 0 0 0 127 0" result="hardAlpha"/>
<feOffset dy="4"/>
<feGaussianBlur stdDeviation="8"/>
<feColorMatrix type="matrix" values="0 0 0 0 0 0 0 0 0 0 0 0 0 0 0 0 0 0 0.2 0"/>
<feBlend mode="normal" in2="BackgroundImageFix" result="effect1_dropShadow_1721_26838"/>
<feBlend mode="normal" in="SourceGraphic" in2="effect1_dropShadow_1721_26838" result="shape"/>
</filter>
<linearGradient id="paint0_linear_1721_26838" x1="36.6749" y1="-96.0013" x2="238.048" y2="-95.2912" gradientUnits="userSpaceOnUse">
<stop stop-color="#000756"/>
<stop offset="1" stop-color="#003CA7"/>
</linearGradient>
<linearGradient id="paint1_linear_1721_26838" x1="207.248" y1="75.5374" x2="192.793" y2="125.436" gradientUnits="userSpaceOnUse">
<stop stop-color="#000756"/>
<stop offset="1" stop-color="#0042B8"/>
</linearGradient>
<linearGradient id="paint2_linear_1721_26838" x1="235.016" y1="71.6436" x2="214.65" y2="140.51" gradientUnits="userSpaceOnUse">
<stop stop-color="#000756"/>
<stop offset="1" stop-color="#0042B8"/>
</linearGradient>
<clipPath id="clip0_1721_26838">
<rect x="0.333496" width="277.333" height="120" rx="20" fill="white"/>
</clipPath>
<clipPath id="clip1_1721_26838">
<rect x="48.2271" y="-5.53198" width="176.213" height="24.7128" rx="4.29787" fill="white"/>
</clipPath>
<clipPath id="clip2_1721_26838">
<rect x="48.2271" y="32.0745" width="176.213" height="24.7128" rx="4.29787" fill="white"/>
</clipPath>
</defs>
</svg>
