<svg width="40" height="40" viewBox="0 0 40 40" fill="none" xmlns="http://www.w3.org/2000/svg">
<path d="M6.66927 34.9987C5.7526 34.9987 4.96816 34.6726 4.31594 34.0204C3.6626 33.367 3.33594 32.582 3.33594 31.6654V13.332C3.33594 12.4154 3.6626 11.6309 4.31594 10.9787C4.96816 10.3254 5.7526 9.9987 6.66927 9.9987H13.3359V6.66536C13.3359 5.7487 13.6626 4.9637 14.3159 4.31036C14.9682 3.65814 15.7526 3.33203 16.6693 3.33203H23.3359C24.2526 3.33203 25.0376 3.65814 25.6909 4.31036C26.3432 4.9637 26.6693 5.7487 26.6693 6.66536V9.9987H33.3359C34.2526 9.9987 35.0376 10.3254 35.6909 10.9787C36.3432 11.6309 36.6693 12.4154 36.6693 13.332V31.6654C36.6693 32.582 36.3432 33.367 35.6909 34.0204C35.0376 34.6726 34.2526 34.9987 33.3359 34.9987H6.66927ZM16.6693 9.9987H23.3359V6.66536H16.6693V9.9987ZM33.3359 24.9987H25.0026V28.332H15.0026V24.9987H6.66927V31.6654H33.3359V24.9987ZM18.3359 24.9987H21.6693V21.6654H18.3359V24.9987ZM6.66927 21.6654H15.0026V18.332H25.0026V21.6654H33.3359V13.332H6.66927V21.6654Z" fill="#5583FF"/>
</svg>
