<svg width="55" height="55" viewBox="0 0 55 55" fill="none" xmlns="http://www.w3.org/2000/svg">
<g clip-path="url(#clip0_2011_45459)">
<path d="M9.28613 20.633C7.44903 20.6723 5.85401 22.0249 5.86496 24.1845C5.8713 25.4384 6.83977 26.4296 7.78733 27.4753C9.25001 29.0892 9.67928 28.8045 9.61195 30.4403C9.58721 31.039 8.59394 31.9743 7.52667 31.9717C5.94544 31.9689 4.84021 30.4509 5.27847 28.6157H4.82232L3.61676 32.9818H4.07292C4.20623 32.5335 5.10732 32.5738 5.47397 32.5582C6.16458 32.529 6.55872 33.0849 7.98283 33.0795C9.93132 33.0722 11.8461 31.7978 11.8276 29.4303C11.818 28.2017 11.0641 27.3671 10.0681 26.4001C8.53593 24.9132 7.93868 24.2023 8.2109 23.0115C8.43611 22.0262 9.14005 21.75 9.84003 21.7408C11.1513 21.724 11.7156 23.1064 11.8927 24.5429H12.3163L13.3915 20.8936H12.9354C12.8353 21.3247 12.3081 21.3464 11.8927 21.3172C11.7056 21.3039 11.6 21.3414 11.1433 21.1869C10.6565 21.0218 9.88897 20.6203 9.28613 20.633ZM13.8803 21.1217L13.7499 21.8385C14.4698 21.8417 14.7295 21.8256 14.7274 23.1744V32.9818C14.7274 32.9818 14.9173 33.4122 15.1836 32.9818C15.4501 32.551 19.7777 25.39 19.7777 25.39V25.6181L19.7451 32.9818C19.7451 32.9818 20.0206 33.4122 20.299 32.9818C20.5774 32.551 26.5549 22.6857 26.5549 22.6857C26.8274 22.1962 27.0345 21.8554 27.7279 21.8385L27.8908 21.1217H24.2089L24.0786 21.8385C24.8846 21.8401 25.4214 21.7132 25.4471 22.1969C25.4579 22.3998 25.4212 22.5627 25.2842 22.816L22.254 27.7686L22.1888 27.6708V23.1744C22.1917 22.9722 22.1928 22.7729 22.1888 22.6205C22.1688 21.857 22.3786 21.8401 22.9708 21.8385L23.1011 21.1217H18.9957L18.8654 21.8385C19.4836 21.8554 19.7539 22.0346 19.7451 22.5879V23.598L17.1059 27.8663L17.0082 27.9315V23.1418C17.0084 22.9733 17.0098 22.7088 17.0082 22.5228C17.0057 22.2619 16.9486 21.8401 17.6924 21.8385L17.8879 21.1217H13.8803ZM28.4447 21.1217L28.3144 21.8385C28.6508 21.8211 28.9943 21.9482 29.0312 22.3273C29.047 22.4924 28.9495 22.7346 28.8683 23.0441L26.6201 31.4178C26.4874 31.974 25.8183 32.2719 24.9258 32.265L24.7954 32.9818H29.5851L29.748 32.265C28.902 32.2478 28.9552 32.0136 28.966 31.7111C28.9727 31.5219 29.0641 31.3481 29.1289 31.1246L31.4097 22.7183C31.6443 21.932 32.2099 21.856 33.0714 21.8385L33.2343 21.1217H28.4447ZM33.886 21.1217L33.7231 21.8385C34.4367 21.8925 35.4496 21.8847 35.1893 22.7183C35.1325 22.9005 35.1949 22.8169 35.1241 23.1093L32.9411 31.2549C32.7712 32.0111 32.2423 32.2478 31.6052 32.265L31.4097 32.9818H36.4926L36.6881 32.265C35.5763 32.2621 35.1268 32.1133 35.3522 31.2549C35.4001 31.072 35.4912 30.7481 35.5477 30.4729L36.5903 26.8888H36.8184C37.812 26.885 38.0925 27.0088 38.1217 27.5405C38.1401 27.8821 38.1308 28.1592 38.1543 28.3551H38.7082L39.5553 24.8687L39.0992 24.8036C38.6293 26.0045 37.6272 26.0215 37.2746 26.0091H36.8184L37.5352 23.1418C37.8469 22.0825 37.9481 22.1413 38.7408 22.1318C40.1217 22.1153 40.9413 22.3416 40.8261 24.2822H41.2822L42.1294 21.1217H33.886ZM42.781 21.1217L41.9013 24.2822H42.4226C42.6772 23.3994 42.684 23.251 43.2046 22.7834C43.7392 22.3161 44.3136 22.1318 45.2247 22.1318L42.8462 30.8313C42.6814 32.2522 41.8638 32.2475 40.8261 32.265L40.6631 32.9818H46.0393L46.1696 32.3301C45.4817 32.3939 45.0582 31.9417 45.1921 31.4178C45.2436 31.2163 45.3383 30.917 45.4202 30.5707L47.6358 22.1318C49.3234 22.1308 49.6617 22.8083 49.5582 24.2822H50.0469L50.8941 21.1217H42.781ZM22.4169 31.6459C22.1345 31.6449 21.8376 31.9974 21.7653 32.4279C21.6927 32.8584 21.8739 33.2089 22.1562 33.2099C22.4383 33.2111 22.7354 32.8584 22.8079 32.4279C22.8804 31.9977 22.6989 31.6472 22.4169 31.6459ZM30.758 31.6459C30.4758 31.6449 30.1788 31.9974 30.1064 32.4279C30.0337 32.8584 30.2152 33.2089 30.4974 33.2099C30.7796 33.2111 31.0766 32.8584 31.149 32.4279C31.2217 31.9977 31.0403 31.6472 30.758 31.6459ZM37.9262 31.6459C37.644 31.6449 37.3469 31.9974 37.2746 32.4279C37.2019 32.8584 37.3507 33.2089 37.633 33.2099C37.9152 33.2111 38.2122 32.8584 38.2846 32.4279C38.3573 31.9977 38.2084 31.6472 37.9262 31.6459ZM12.2511 31.6785C11.9691 31.6772 11.7045 32.03 11.6321 32.4605C11.5596 32.8909 11.7085 33.2412 11.9905 33.2424C12.2727 33.2437 12.5698 32.8909 12.6421 32.4605C12.7147 32.03 12.5334 31.6797 12.2511 31.6785ZM47.5055 31.6785C47.2233 31.6775 46.9262 32.03 46.8538 32.4605C46.7811 32.891 46.9626 33.2415 47.2448 33.2424C47.527 33.2437 47.8241 32.8909 47.8965 32.4605C47.9692 32.0303 47.7877 31.6798 47.5055 31.6785Z" fill="#3C60A7" stroke="#3C60A7" stroke-width="0.162535"/>
<path d="M2.71333 18.5231H52.3269M2.71333 35.7518H52.3269M7.99571 44.6912H47.0039M7.99571 9.58364H47.0039M27.4593 18.5231V0.888034M27.4593 35.7518V53.3462M28.1807 0.918143C28.1807 0.918143 38.8674 6.68813 40.9803 18.4719M26.7945 0.927388C26.7945 0.927388 15.9018 6.62052 13.6997 18.3881M26.7512 53.2652C26.7512 53.2652 15.9833 47.5546 13.8703 35.7708M28.2692 53.2665C28.2692 53.2665 38.9997 47.6324 41.2016 35.8648M27.4999 0.86993C13.0043 0.86993 1.25291 12.6213 1.25291 27.1171C1.25291 41.6125 13.0043 53.364 27.4999 53.364C41.9955 53.364 53.7472 41.6125 53.7472 27.1171C53.7472 12.6213 41.9955 0.86993 27.4999 0.86993Z" stroke="#3C60A7" stroke-width="1.46281"/>
</g>
<defs>
<clipPath id="clip0_2011_45459">
<rect width="54" height="54" fill="white" transform="translate(0.5 0.13855)"/>
</clipPath>
</defs>
</svg>
