<svg width="116" height="43" viewBox="0 0 116 43" fill="none" xmlns="http://www.w3.org/2000/svg">
<g clip-path="url(#clip0_1974_26980)">
<path fill-rule="evenodd" clip-rule="evenodd" d="M3.24237 0.00183105H16.9567C18.3461 0.00183105 19.4916 1.13891 19.4916 2.52817V16.2969C19.4916 17.6816 18.3507 18.8233 16.9567 18.8233H3.24237C1.853 18.8233 0.707458 17.6862 0.707458 16.2969V2.52817C0.707458 1.13891 1.853 0.00183105 3.24237 0.00183105Z" fill="#3169FF"/>
<path fill-rule="evenodd" clip-rule="evenodd" d="M20.2877 18.6718H29.1806C30.0732 18.6718 30.8184 19.4145 30.8184 20.304V29.2173C30.8184 30.1068 30.0732 30.8495 29.1806 30.8495H20.2877C19.2434 30.8495 18.4981 30.7991 18.4981 32.4359V40.6064C18.4981 41.4501 17.8034 42.092 17.0075 42.092H8.85991C8.0134 42.092 7.36932 41.3996 7.36932 40.6064V32.4405C7.36932 31.5969 8.06401 30.955 8.85991 30.955H17.0075C18.3003 30.955 18.6453 30.5102 18.6453 29.2219V20.304C18.6453 19.4145 19.3906 18.6718 20.2877 18.6718Z" fill="#3169FF"/>
<path d="M47.6658 27.6855V15.4023H43.2952V12.9264H55.0727V15.4023H50.7021V27.6855H47.721H47.6658ZM68.833 27.6855H65.6034L64.3106 24.3202H58.3483L57.1061 27.6855H53.9271L59.6917 12.8806H62.8707L68.833 27.6855ZM63.3169 21.8397L61.2283 16.3422L59.2408 21.8397H63.3169ZM70.4248 27.6855V12.876H75.2462C77.0864 12.876 78.2274 12.9264 78.8255 13.0731C79.672 13.3207 80.3666 13.7655 80.9601 14.5082C81.5582 15.251 81.8066 16.1909 81.8066 17.3785C81.8066 18.2679 81.6594 19.0612 81.3098 19.6572C80.9601 20.2991 80.5645 20.7484 80.0676 21.0923C79.5707 21.4408 79.0233 21.6884 78.5264 21.7846C77.8317 21.9314 76.7874 21.9818 75.444 21.9818H73.5072V27.5801H70.526L70.4248 27.6855ZM73.406 15.4023V19.6114H75.0438C76.2353 19.6114 77.0312 19.5105 77.3809 19.3638C77.7765 19.217 78.0756 18.9695 78.324 18.621C78.5724 18.2725 78.6736 17.9287 78.6736 17.4839C78.6736 16.9383 78.5264 16.4935 78.1768 16.1451C77.8777 15.7966 77.4821 15.549 76.9852 15.5032C76.6356 15.4528 75.8903 15.4023 74.8506 15.4023H73.406ZM84.2403 12.9264H90.1521C91.3436 12.9264 92.1901 12.9768 92.7836 13.0731C93.3817 13.174 93.8785 13.3712 94.3248 13.6692C94.771 13.9672 95.1713 14.412 95.4657 14.9071C95.7648 15.4023 95.912 15.9984 95.912 16.6403C95.912 17.3326 95.7142 17.9791 95.3645 18.5201C94.9689 19.1162 94.472 19.5105 93.8233 19.8085C94.7158 20.0561 95.4151 20.5008 95.912 21.1473C96.4088 21.7892 96.6573 22.532 96.6573 23.3756C96.6573 24.068 96.51 24.7145 96.211 25.3564C95.912 25.9983 95.4657 26.4934 94.9183 26.8923C94.3708 27.2867 93.7267 27.4884 92.9308 27.5847C92.4339 27.6351 91.2424 27.6855 89.3056 27.6855H84.2403V12.876V12.9264ZM87.2215 15.4023V18.8181H89.2089C90.3499 18.8181 91.0952 18.8181 91.3942 18.7677C91.8911 18.7173 92.2867 18.5201 92.5858 18.2221C92.8848 17.9241 93.032 17.5298 93.032 17.085C93.032 16.6403 92.8848 16.2414 92.6364 15.9938C92.3879 15.6958 91.9923 15.549 91.4954 15.4986C91.1964 15.4482 90.3545 15.4482 88.9605 15.4482H87.2215V15.4023ZM87.2215 21.2482V25.2096H90.0048C91.0998 25.2096 91.7945 25.1592 92.0429 25.1088C92.4891 25.0079 92.8388 24.8107 93.1378 24.5127C93.4369 24.2147 93.5335 23.77 93.5335 23.2748C93.5335 22.83 93.4323 22.4311 93.1838 22.1377C92.986 21.8397 92.6364 21.5921 92.2407 21.4454C91.8451 21.2986 90.948 21.2482 89.5586 21.2482H87.1249H87.2215ZM99.0956 27.736V12.9264H102.127V27.7314H99.0956V27.736ZM108.288 27.736V15.4528H103.917V12.9768H115.694V15.4528H111.324V27.736H108.343H108.288Z" fill="black"/>
</g>
<defs>
<clipPath id="clip0_1974_26980">
<rect width="115.014" height="42.0445" fill="white" transform="translate(0.693848)"/>
</clipPath>
</defs>
</svg>
