<svg width="170" height="43" viewBox="0 0 170 43" fill="none" xmlns="http://www.w3.org/2000/svg">
<path d="M44.9759 15.4773L62.0485 15.4773L62.0485 18.6556L55.3263 18.6555L55.3263 36.5719L51.6418 36.5719L51.6418 18.6555L44.9478 18.6555L44.9759 15.4773ZM61.3172 21.2994L64.4673 21.2994L64.4673 24.2527L64.5236 24.2527C64.6361 23.8308 64.8329 23.437 65.1142 23.0432C65.3955 22.6495 65.733 22.2838 66.1549 21.9744C66.5486 21.6369 66.9987 21.3838 67.5049 21.1869C67.9831 20.99 68.4894 20.8775 68.9956 20.8775C69.3894 20.8775 69.6706 20.9056 69.8113 20.9056C69.9519 20.9338 70.1207 20.9619 70.2613 20.9619L70.2613 24.1964C70.0363 24.1402 69.7832 24.112 69.53 24.0839C69.2769 24.0558 69.0519 24.0277 68.7987 24.0277C68.2362 24.0277 67.7018 24.1402 67.1956 24.3652C66.6893 24.5902 66.2674 24.9277 65.8736 25.3496C65.508 25.7996 65.1986 26.334 64.9736 26.9809C64.7486 27.6278 64.6361 28.3872 64.6361 29.231L64.6361 36.4875L61.2609 36.4875L61.3172 21.2994ZM85.7307 36.5719L82.4118 36.5719L82.4118 34.4343L82.3555 34.4343C81.9337 35.2219 81.3149 35.8125 80.4992 36.2907C79.6836 36.7688 78.8398 36.9938 77.996 36.9938C75.999 36.9938 74.5365 36.5157 73.6364 35.5031C72.7364 34.5187 72.2864 32.9999 72.2864 31.0029L72.2864 21.2994L75.6615 21.2994L75.6615 30.6654C75.6615 32.0155 75.9147 32.9718 76.4491 33.5062C76.9553 34.0687 77.6866 34.3499 78.6148 34.3499C79.3179 34.3499 79.9086 34.2375 80.3867 34.0124C80.8649 33.7874 81.2586 33.5062 81.5399 33.1405C81.8493 32.7749 82.0462 32.3249 82.1868 31.8186C82.3274 31.3123 82.3837 30.7498 82.3837 30.1592L82.3837 21.2994L85.7588 21.2994L85.7588 36.5719L85.7307 36.5719ZM91.4684 31.678C91.5809 32.6624 91.9466 33.3374 92.5935 33.7593C93.2404 34.1531 94.0279 34.35 94.9279 34.35C95.2373 34.35 95.603 34.3218 95.9967 34.2656C96.3905 34.2093 96.7843 34.1249 97.1218 33.9843C97.4874 33.8437 97.7687 33.6468 97.9937 33.3655C98.2187 33.0843 98.3312 32.7468 98.3031 32.3249C98.275 31.903 98.1343 31.5373 97.8249 31.2561C97.5156 30.9748 97.1499 30.7779 96.6999 30.581C96.2499 30.4123 95.7155 30.2717 95.1248 30.1592C94.5342 30.0466 93.9435 29.906 93.3248 29.7654C92.706 29.6248 92.0872 29.456 91.4966 29.2591C90.9059 29.0622 90.3996 28.8091 89.9215 28.4435C89.4715 28.1059 89.0777 27.6841 88.8246 27.1497C88.5433 26.6153 88.4027 25.9965 88.4027 25.2089C88.4027 24.3652 88.5996 23.6901 89.0214 23.1276C89.4152 22.5651 89.9496 22.1151 90.5684 21.7776C91.1872 21.44 91.8903 21.1869 92.6497 21.0463C93.4091 20.9056 94.1404 20.8494 94.8154 20.8494C95.603 20.8494 96.3624 20.9338 97.0655 21.1025C97.7687 21.2713 98.4437 21.5244 99.0062 21.9182C99.5969 22.2838 100.075 22.7901 100.441 23.3807C100.834 23.9714 101.059 24.7027 101.172 25.5465L97.6562 25.5465C97.4874 24.7308 97.1218 24.1964 96.5593 23.9152C95.9686 23.6339 95.3217 23.4933 94.5623 23.4933C94.3373 23.4933 94.0279 23.5214 93.7185 23.5495C93.381 23.6058 93.0997 23.662 92.7904 23.7745C92.5091 23.887 92.256 24.0558 92.0591 24.2527C91.8622 24.4495 91.7497 24.7308 91.7497 25.0683C91.7497 25.4902 91.8903 25.7996 92.1716 26.0527C92.4528 26.3059 92.8185 26.5028 93.2966 26.6996C93.7466 26.8684 94.281 27.009 94.8717 27.1215C95.4623 27.234 96.0811 27.3747 96.6999 27.5153C97.3187 27.6559 97.9093 27.8247 98.5 28.0216C99.0906 28.2184 99.625 28.4716 100.075 28.8372C100.525 29.1747 100.919 29.5966 101.2 30.1029C101.481 30.6092 101.622 31.2561 101.622 31.9874C101.622 32.8874 101.425 33.6468 101.003 34.2937C100.581 34.9125 100.047 35.4469 99.4 35.8406C98.7531 36.2344 97.9937 36.5157 97.2062 36.7126C96.3905 36.8813 95.603 36.9938 94.8154 36.9938C93.8591 36.9938 92.9591 36.8813 92.1434 36.6563C91.3278 36.4313 90.5965 36.0938 90.0059 35.6719C89.4152 35.2219 88.9371 34.6875 88.5996 34.0124C88.262 33.3655 88.0652 32.578 88.037 31.6498L91.4403 31.6498L91.4403 31.678L91.4684 31.678ZM102.578 21.2994L105.138 21.2994L105.138 16.6867L108.513 16.6867L108.513 21.2713L111.55 21.2713L111.55 23.7745L108.513 23.7745L108.513 31.9311C108.513 32.2967 108.541 32.578 108.569 32.8593C108.597 33.1124 108.682 33.3374 108.766 33.5062C108.879 33.6749 109.047 33.8156 109.244 33.8999C109.469 33.9843 109.75 34.0406 110.144 34.0406C110.369 34.0406 110.622 34.0406 110.847 34.0124C111.072 33.9843 111.325 33.9562 111.55 33.8999L111.55 36.5157C111.185 36.5719 110.819 36.6 110.454 36.6282C110.088 36.6844 109.75 36.6844 109.357 36.6844C108.457 36.6844 107.753 36.6001 107.219 36.4313C106.685 36.2625 106.263 36.0094 105.953 35.7C105.644 35.3625 105.447 34.9687 105.335 34.4906C105.222 34.0124 105.166 33.4218 105.138 32.803L105.138 23.8026L102.578 23.8026L102.578 21.2432L102.578 21.2994ZM113.913 21.2994L117.091 21.2994L117.091 23.3807L117.148 23.3807C117.626 22.4807 118.273 21.8619 119.116 21.4682C119.96 21.0744 120.86 20.8775 121.873 20.8775C123.082 20.8775 124.123 21.0744 125.023 21.5244C125.923 21.9463 126.654 22.5088 127.245 23.2682C127.836 23.9995 128.286 24.8714 128.567 25.8559C128.848 26.8403 129.017 27.9091 129.017 29.006C129.017 30.0467 128.876 31.0311 128.623 31.9874C128.342 32.9436 127.948 33.8156 127.414 34.5468C126.879 35.2781 126.204 35.8688 125.36 36.3188C124.517 36.7688 123.56 36.9938 122.435 36.9938C121.957 36.9938 121.451 36.9376 120.973 36.8532C120.495 36.7688 120.016 36.6282 119.566 36.4313C119.116 36.2344 118.695 35.9813 118.329 35.6719C117.935 35.3625 117.626 34.9969 117.373 34.6031L117.316 34.6031L117.316 42.2253L113.941 42.2253L113.941 21.2994L113.913 21.2994ZM125.698 28.9497C125.698 28.2747 125.614 27.5997 125.417 26.9528C125.248 26.3059 124.967 25.7433 124.601 25.2371C124.235 24.7308 123.785 24.337 123.279 24.0277C122.745 23.7183 122.126 23.5776 121.451 23.5776C120.045 23.5776 118.976 24.0558 118.245 25.0402C117.541 26.0246 117.176 27.3465 117.176 28.9779C117.176 29.7654 117.26 30.4685 117.457 31.1154C117.654 31.7623 117.907 32.3249 118.301 32.803C118.666 33.2812 119.116 33.6468 119.651 33.9281C120.185 34.2093 120.776 34.35 121.479 34.35C122.267 34.35 122.885 34.1812 123.42 33.8718C123.954 33.5624 124.376 33.1405 124.742 32.6624C125.079 32.1561 125.332 31.5936 125.473 30.9467C125.614 30.2717 125.698 29.6248 125.698 28.9497ZM131.633 15.4773L135.008 15.4773L135.008 18.6556L131.633 18.6556L131.633 15.4773ZM131.633 21.2994L135.008 21.2994L135.008 36.5719L131.633 36.5719L131.633 21.2994ZM138.017 15.4773L141.392 15.4773L141.392 36.5719L138.017 36.5719L138.017 15.4773ZM151.687 36.9938C150.477 36.9938 149.38 36.7969 148.424 36.375C147.468 35.9532 146.68 35.4188 146.005 34.7156C145.358 34.0124 144.852 33.1405 144.514 32.1561C144.177 31.1717 143.98 30.0748 143.98 28.9216C143.98 27.7684 144.149 26.6996 144.514 25.7152C144.852 24.7308 145.358 23.887 146.005 23.1557C146.652 22.4526 147.468 21.8901 148.424 21.4963C149.38 21.1025 150.477 20.8775 151.687 20.8775C152.896 20.8775 153.993 21.0744 154.949 21.4963C155.905 21.8901 156.693 22.4526 157.368 23.1557C158.015 23.8589 158.521 24.7308 158.859 25.7152C159.196 26.6996 159.393 27.7684 159.393 28.9216C159.393 30.1029 159.224 31.1717 158.859 32.1561C158.493 33.1405 158.015 33.9843 157.368 34.7156C156.721 35.4188 155.905 35.9813 154.949 36.375C153.993 36.7688 152.924 36.9938 151.687 36.9938ZM151.687 34.3218C152.418 34.3218 153.093 34.1531 153.627 33.8437C154.19 33.5343 154.612 33.1124 154.977 32.6061C155.343 32.0999 155.596 31.5092 155.765 30.8904C155.934 30.2435 156.018 29.5966 156.018 28.9216C156.018 28.2747 155.934 27.6278 155.765 26.9809C155.596 26.334 155.343 25.7715 154.977 25.2652C154.612 24.7589 154.162 24.3652 153.627 24.0558C153.065 23.7464 152.418 23.5776 151.687 23.5776C150.955 23.5776 150.28 23.7464 149.746 24.0558C149.183 24.3652 148.761 24.7871 148.396 25.2652C148.03 25.7715 147.777 26.334 147.608 26.9809C147.439 27.6278 147.355 28.2747 147.355 28.9216C147.355 29.5966 147.439 30.2435 147.608 30.8904C147.777 31.5373 148.03 32.0999 148.396 32.6061C148.761 33.1124 149.211 33.5343 149.746 33.8437C150.308 34.1812 150.955 34.3218 151.687 34.3218ZM160.406 21.2994L162.965 21.2994L162.965 16.6867L166.34 16.6867L166.34 21.2713L169.378 21.2713L169.378 23.7745L166.34 23.7745L166.34 31.9311C166.34 32.2968 166.368 32.578 166.397 32.8593C166.425 33.1124 166.509 33.3374 166.593 33.5062C166.706 33.6749 166.875 33.8156 167.072 33.8999C167.297 33.9843 167.578 34.0406 167.972 34.0406C168.197 34.0406 168.45 34.0406 168.675 34.0124C168.9 33.9843 169.153 33.9562 169.378 33.8999L169.378 36.5157C169.012 36.5719 168.647 36.6001 168.281 36.6282C167.915 36.6844 167.578 36.6844 167.184 36.6844C166.284 36.6844 165.581 36.6001 165.046 36.4313C164.512 36.2625 164.09 36.0094 163.781 35.7C163.471 35.3625 163.275 34.9687 163.162 34.4906C163.05 34.0124 162.993 33.4218 162.965 32.803L162.965 23.8026L160.406 23.8026L160.406 21.2432L160.406 21.2994Z" fill="white"/>
<path d="M41.0389 15.4778L25.5976 15.4778L20.8443 0.7959L16.0628 15.4778L0.621581 15.4496L13.1096 24.5344L8.32815 39.2162L20.8162 30.1315L33.3042 39.2162L28.5509 24.5344L41.0389 15.4778Z" fill="#00B67A"/>
<path d="M29.6196 27.8538L28.5508 24.5349L20.8442 30.132L29.6196 27.8538Z" fill="black"/>
</svg>
