<svg width="112" height="22" viewBox="0 0 112 22" fill="none" xmlns="http://www.w3.org/2000/svg">
<path d="M112 0.552002H91.0215V21.5305H112V0.552002Z" fill="#00B67A"/>
<path d="M0 0.752197H20.9785V21.7307H0V0.752197ZM22.7267 0.752197H43.7052V21.7307H22.7267V0.752197ZM45.4534 0.752197H66.4319V21.7307H45.4534V0.752197ZM68.1801 0.752197H89.1585V21.7307H68.1801V0.752197Z" fill="#00B67A"/>
<path d="M10.4894 14.891L13.6799 14.0824L15.0129 18.1907L10.4894 14.891ZM17.8319 9.5808H12.2158L10.4894 4.29248L8.76309 9.5808H3.14697L7.69231 12.8587L5.96596 18.147L10.5113 14.8691L13.3084 12.8587L17.8319 9.5808ZM33.2161 14.891L36.4066 14.0824L37.7396 18.1907L33.2161 14.891ZM40.5586 9.5808H34.9425L33.2161 4.29248L31.4898 9.5808H25.8737L30.419 12.8587L28.6926 18.147L33.238 14.8691L36.0351 12.8587L40.5586 9.5808ZM55.9428 14.891L59.1333 14.0824L60.4663 18.1907L55.9428 14.891ZM63.2853 9.5808H57.6692L55.9428 4.29248L54.2165 9.5808H48.6003L53.1457 12.8587L51.4193 18.147L55.9647 14.8691L58.7618 12.8587L63.2853 9.5808ZM78.6695 14.891L81.86 14.0824L83.193 18.1907L78.6695 14.891ZM86.012 9.5808H80.3959L78.6695 4.29248L76.9431 9.5808H71.327L75.8724 12.8587L74.146 18.147L78.6914 14.8691L81.4885 12.8587L86.012 9.5808ZM101.396 14.891L104.587 14.0824L105.92 18.1907L101.396 14.891ZM108.739 9.5808H103.123L101.396 4.29248L99.6698 9.5808H94.0537L98.5991 12.8587L96.8727 18.147L101.418 14.8691L104.215 12.8587L108.739 9.5808Z" fill="white"/>
</svg>
