<svg width="262" height="50" viewBox="0 0 262 50" fill="none" xmlns="http://www.w3.org/2000/svg">
<path d="M261.572 0.414795H212.658V49.3292H261.572V0.414795Z" fill="white" fill-opacity="0.13"/>
<path d="M0.428223 0.881592H49.3426V49.796H0.428223V0.881592ZM53.4188 0.881592H102.333V49.796H53.4188V0.881592ZM106.409 0.881592H155.324V49.796H106.409V0.881592ZM159.4 0.881592H208.314V49.796H159.4V0.881592Z" fill="#00B67A"/>
<path d="M24.8852 33.8482L32.3242 31.9629L35.4323 41.542L24.8852 33.8482ZM42.0052 21.4667H28.9104L24.8852 9.13623L20.8599 21.4667H7.76514L18.3633 29.1096L14.338 41.4401L24.9361 33.7972L31.458 29.1096L42.0052 21.4667ZM77.8758 33.8482L85.3148 31.9629L88.4229 41.542L77.8758 33.8482ZM94.9958 21.4667H81.901L77.8758 9.13623L73.8505 21.4667H60.7557L71.3538 29.1096L67.3286 41.4401L77.9267 33.7972L84.4486 29.1096L94.9958 21.4667ZM130.866 33.8482L138.305 31.9629L141.414 41.542L130.866 33.8482ZM147.986 21.4667H134.892L130.866 9.13623L126.841 21.4667H113.746L124.344 29.1096L120.319 41.4401L130.917 33.7972L137.439 29.1096L147.986 21.4667ZM183.857 33.8482L191.296 31.9629L194.404 41.542L183.857 33.8482ZM200.977 21.4667H187.882L183.857 9.13623L179.832 21.4667H166.737L177.335 29.1096L173.31 41.4401L183.908 33.7972L190.43 29.1096L200.977 21.4667ZM236.848 33.8482L244.287 31.9629L247.395 41.542L236.848 33.8482ZM253.968 21.4667H240.873L236.848 9.13623L232.822 21.4667H219.728L230.326 29.1096L226.3 41.4401L236.899 33.7972L243.42 29.1096L253.968 21.4667Z" fill="white"/>
</svg>
