<svg width="191" height="127" viewBox="0 0 191 127" fill="none" xmlns="http://www.w3.org/2000/svg">
    <path fill-rule="evenodd" clip-rule="evenodd" d="M81.348 7.52823H130.675H132.711H175.339C181.583 7.52823 185.461 12.6102 183.994 18.8655L163.203 108.145C161.735 114.378 155.489 119.464 149.246 119.464H106.626H104.603H59.3679C59.2392 119.469 59.1106 119.471 58.9817 119.471H14.3216C8.09561 119.471 4.20899 114.385 5.66353 108.151L26.4667 18.872C27.9213 12.6167 34.1604 7.53469 40.4026 7.53469H80.9618C81.0905 7.53029 81.2194 7.52823 81.348 7.52823Z" fill="#007B84"/>
    <path d="M165.812 108.759L165.813 108.752L186.604 19.4771C186.604 19.4759 186.604 19.4746 186.605 19.4733C187.496 15.666 186.799 11.9901 184.689 9.22531C182.57 6.44943 179.219 4.8486 175.34 4.8486H132.711H130.675H81.3483C81.2069 4.8486 81.0638 4.85064 80.9191 4.85506H40.403C32.8608 4.85506 25.5821 10.849 23.8573 18.2639C23.8572 18.2643 23.8571 18.2647 23.857 18.2651L3.05434 107.542C2.16722 111.344 2.87325 115.016 4.98406 117.776C7.10236 120.547 10.4481 122.15 14.3219 122.15H58.9821C59.1238 122.15 59.2669 122.149 59.4116 122.144H104.603H106.626H149.247C156.788 122.144 164.072 116.148 165.812 108.759Z" stroke="white" stroke-opacity="0.21" stroke-width="5.3593"/>
    <path d="M40.4026 7.53543H85.0673C91.3021 7.53543 95.1798 12.6173 93.7253 18.8727L72.9309 108.152C71.4633 114.386 65.221 119.472 58.9817 119.472H14.3216C8.09559 119.472 4.20904 114.386 5.66351 108.152L26.4667 18.8727C27.9211 12.6173 34.1604 7.53543 40.4026 7.53543Z" fill="#E21836"/>
    <path d="M81.3501 7.52823H132.713C138.947 7.52823 136.136 12.6101 134.67 18.8656L113.878 108.145C112.42 114.378 112.875 119.465 106.628 119.465H55.2647C49.0179 119.465 45.152 114.378 46.6196 108.145L67.4097 18.8656C68.886 12.6101 75.1121 7.52823 81.3501 7.52823Z" fill="#00447C"/>
    <path d="M130.676 7.52823H175.341C181.584 7.52823 185.462 12.6101 183.996 18.8656L163.204 108.145C161.737 114.378 155.49 119.465 149.248 119.465H104.604C98.357 119.465 94.4825 114.378 95.9456 108.145L116.74 18.8656C118.195 12.6101 124.43 7.52823 130.676 7.52823Z" fill="#007B84"/>
    <path d="M52.0626 36.1394C47.4694 36.1863 46.113 36.1394 45.6797 36.0371C45.5133 36.8286 42.4137 51.1259 42.4052 51.138C41.7377 54.0307 41.2521 56.0924 39.6028 57.4239C38.6665 58.1981 37.5735 58.5713 36.3063 58.5713C34.2695 58.5713 33.0829 57.56 32.8836 55.6417L32.8455 54.983C32.8455 54.983 33.4661 51.1085 33.4661 51.0868C33.4661 51.0868 36.7189 38.0578 37.3015 36.3353C37.332 36.2375 37.3406 36.1863 37.3481 36.1394C31.0166 36.1949 29.8941 36.1394 29.817 36.0371C29.7743 36.1775 29.6176 36.9854 29.6176 36.9854L26.2962 51.6704L26.0109 52.9157L25.459 56.9895C25.459 58.1981 25.6963 59.1842 26.1688 60.0181C27.6821 62.6626 31.9985 63.0587 34.4404 63.0587C37.5866 63.0587 40.538 62.3904 42.5324 61.1701C45.9943 59.1244 46.9003 55.9271 47.7079 53.0856L48.0825 51.6278C48.0825 51.6278 51.4334 38.0958 52.0026 36.3353C52.0246 36.2375 52.0331 36.1863 52.0626 36.1394ZM63.4637 47.0558C62.6561 47.0558 61.1799 47.252 59.8537 47.9018C59.3727 48.1488 58.9174 48.4342 58.4375 48.7183L58.8708 47.1539L58.6334 46.8905C55.8214 47.4599 55.1922 47.536 52.5945 47.9018L52.3769 48.0467C52.0752 50.5474 51.8075 52.4274 50.6896 57.3427C50.2638 59.1542 49.8219 60.9833 49.3787 62.7905L49.4985 63.0201C52.1602 62.8797 52.9681 62.8797 55.2814 62.9177L55.4687 62.7141C55.7627 61.2087 55.8007 60.8557 56.4516 57.8066C56.7576 56.3606 57.3957 53.1839 57.7103 52.0528C58.2883 51.7851 58.8588 51.5217 59.403 51.5217C60.6997 51.5217 60.5419 52.6528 60.4917 53.1035C60.4363 53.86 59.9638 56.3314 59.4794 58.4532L59.1559 59.8227C58.9306 60.834 58.6835 61.8172 58.4581 62.8197L58.5562 63.0201C61.1799 62.8797 61.98 62.8797 64.2205 62.9177L64.4839 62.7141C64.8888 60.3627 65.0075 59.7335 65.7262 56.3094L66.0874 54.7365C66.7897 51.6578 67.1424 50.0967 66.6113 48.8249C66.0493 47.3999 64.7017 47.0558 63.4637 47.0558ZM76.2004 50.2794C74.8056 50.5471 73.9163 50.7256 73.0322 50.8411C72.156 50.9815 71.3015 51.1088 69.9536 51.2961L69.8469 51.3931L69.7489 51.4703C69.6085 52.4741 69.5104 53.3417 69.3244 54.3619C69.1666 55.4169 68.9238 56.6155 68.5285 58.3377C68.2225 59.6561 68.0647 60.1154 67.8905 60.5792C67.7206 61.0431 67.5336 61.4938 67.1895 62.7902L67.2699 62.91L67.3374 63.0198C68.5971 62.9601 69.4211 62.9177 70.2682 62.91C71.1141 62.8794 71.9904 62.91 73.3468 62.9177L73.4655 62.8207L73.5928 62.7141C73.789 61.545 73.8182 61.2301 73.938 60.6599C74.0567 60.0478 74.2614 59.2011 74.7633 56.9386C75.0007 55.8761 75.2652 54.8169 75.5112 53.7327C75.7671 52.6525 76.0348 51.589 76.2896 50.5265L76.2516 50.3981L76.2004 50.2794ZM76.2301 45.9333C74.9629 45.1854 72.7386 45.4226 71.2417 46.4558C69.7491 47.4682 69.5795 48.9053 70.8422 49.6628C72.0877 50.3901 74.3206 50.1736 75.8043 49.1317C77.2937 48.0974 77.4799 46.6734 76.2301 45.9333ZM83.8937 63.2543C86.4576 63.2543 89.0855 62.5477 91.0636 60.4511C92.5854 58.7506 93.2834 56.2205 93.5251 55.1786C94.3122 51.7254 93.6993 50.113 92.9295 49.1312C91.7603 47.6343 89.6941 47.1541 87.5506 47.1541C86.2614 47.1541 83.1913 47.2814 80.793 49.4927C79.0708 51.0873 78.275 53.2517 77.7951 55.3268C77.3106 57.4408 76.7532 61.247 80.2531 62.6632C81.333 63.127 82.8899 63.2543 83.8937 63.2543ZM83.6932 55.4846C84.2844 52.8696 84.9824 50.6749 86.7633 50.6749C88.1591 50.6749 88.2602 52.3079 87.6398 54.9316C87.5286 55.5139 87.0192 57.6793 86.33 58.6014C85.849 59.2817 85.2796 59.6944 84.6504 59.6944C84.4631 59.6944 83.3494 59.6944 83.332 58.0408C83.3232 57.2243 83.4899 56.3904 83.6932 55.4846ZM99.9341 62.918L100.134 62.7144C100.419 61.2089 100.465 60.8549 101.095 57.8068C101.409 56.3612 102.06 53.1844 102.366 52.0531C102.945 51.7843 103.506 51.5209 104.068 51.5209C105.356 51.5209 105.199 52.652 105.148 53.1027C105.101 53.8605 104.628 56.3306 104.135 58.4524L103.829 59.8219C103.595 60.8343 103.34 61.8164 103.115 62.8202L103.213 63.0204C105.845 62.88 106.615 62.88 108.869 62.918L109.141 62.7144C109.536 60.3619 109.643 59.7327 110.383 56.31L110.736 54.7357C111.441 51.657 111.798 50.0969 111.276 48.8254C110.698 47.4004 109.341 47.0563 108.121 47.0563C107.312 47.0563 105.828 47.2512 104.51 47.902C104.038 48.1494 103.566 48.4334 103.102 48.7185L103.506 47.1541L103.289 46.8897C100.478 47.4602 99.836 47.5363 97.2418 47.902L97.0425 48.047C96.7279 50.5477 96.472 52.4266 95.354 57.343C94.9282 59.1544 94.4863 60.9836 94.0445 62.7907L94.1629 63.0204C96.8292 62.88 97.625 62.88 99.9341 62.918ZM119.275 63.0198C119.44 62.2122 120.423 57.4242 120.432 57.4242C120.432 57.4242 121.269 53.9109 121.32 53.7836C121.32 53.7836 121.584 53.4178 121.847 53.2731H122.235C125.892 53.2731 130.021 53.2731 133.257 50.8923C135.46 49.2593 136.965 46.8479 137.637 43.9171C137.811 43.1987 137.94 42.3439 137.94 41.4894C137.94 40.3669 137.715 39.2564 137.063 38.389C135.413 36.0799 132.126 36.0373 128.332 36.0199C128.32 36.0199 126.462 36.0373 126.462 36.0373C121.605 36.0974 119.658 36.0799 118.858 35.9819C118.79 36.3356 118.663 36.965 118.663 36.965C118.663 36.965 116.923 45.0276 116.923 45.0407C116.923 45.0407 112.76 62.1827 112.564 62.9904C116.804 62.9392 118.543 62.9392 119.275 63.0198ZM122.498 48.6974C122.498 48.6974 124.348 40.6512 124.339 40.6817L124.399 40.269L124.425 39.9545L125.164 40.0306C125.164 40.0306 128.979 40.3583 129.068 40.3669C130.574 40.9494 131.194 42.4506 130.761 44.4102C130.366 46.201 129.204 47.7067 127.712 48.434C126.483 49.0503 124.977 49.1012 123.426 49.1012H122.422L122.498 48.6974ZM134.014 55.6336C133.526 57.7173 132.964 61.5232 136.446 62.8797C137.557 63.3521 138.552 63.4925 139.563 63.4416C140.631 63.3837 141.621 62.8481 142.538 62.0774C142.455 62.3941 142.372 62.7109 142.289 63.0289L142.447 63.2326C144.952 63.1268 145.73 63.1268 148.444 63.1477L148.69 62.9603C149.086 60.6307 149.459 58.3682 150.489 53.9114C150.991 51.7765 151.492 49.6623 152.007 47.5363L151.926 47.3021C149.124 47.8214 148.375 47.9323 145.679 48.3144L145.475 48.4811C145.448 48.6976 145.419 48.9056 145.393 49.1135C144.974 48.4364 144.366 47.8584 143.429 47.4979C142.231 47.0266 139.415 47.6341 136.995 49.8376C135.295 51.4108 134.478 53.5663 134.014 55.6336ZM139.9 55.7609C140.5 53.1927 141.189 51.0198 142.974 51.0198C144.103 51.0198 144.697 52.0617 144.577 53.8383C144.481 54.2815 144.377 54.7485 144.254 55.2764C144.076 56.0396 143.882 56.7963 143.694 57.5539C143.502 58.0721 143.279 58.5609 143.034 58.8865C142.575 59.5376 141.482 59.9414 140.852 59.9414C140.674 59.9414 139.572 59.9415 139.534 58.317C139.525 57.5083 139.692 56.6755 139.9 55.7609ZM170.633 47.2812L170.417 47.0341C167.644 47.596 167.142 47.6853 164.594 48.0293L164.407 48.2164C164.398 48.2469 164.391 48.2938 164.378 48.3361L164.369 48.2938C162.473 52.6691 162.528 51.7251 160.984 55.1698C160.976 55.013 160.976 54.915 160.967 54.7483L160.581 47.2812L160.338 47.0341C157.433 47.596 157.365 47.6853 154.682 48.0293L154.473 48.2164C154.444 48.3056 154.444 48.4037 154.426 48.5103L154.444 48.5484C154.779 50.262 154.698 49.8799 155.035 52.5842C155.192 53.9112 155.401 55.2459 155.557 56.5568C155.822 58.7503 155.97 59.8302 156.293 63.1779C154.482 66.1674 154.053 67.2984 152.309 69.9221L152.321 69.9483L151.093 71.8906C150.953 72.0953 150.825 72.2357 150.646 72.2954C150.451 72.3925 150.196 72.4099 149.842 72.4099H149.161L148.15 75.7736L151.62 75.8337C153.657 75.8248 154.937 74.8722 155.626 73.5921L157.808 69.8535H157.773L158.003 69.5901C159.47 66.4308 170.633 47.2812 170.633 47.2812ZM134.014 91.4619H132.542L137.99 73.4434H139.797L140.371 71.5872L140.427 73.6514C140.359 74.9274 141.363 76.0585 144 75.8712H147.049L148.098 72.4016H146.951C146.291 72.4016 145.985 72.2352 146.023 71.878L145.968 69.7779H140.321V69.7889C138.495 69.827 133.043 69.9642 131.939 70.2581C130.604 70.6022 129.196 71.6145 129.196 71.6145L129.749 69.7562H124.467L123.366 73.4434L117.846 91.7374H116.774L115.724 95.1818H126.245L125.892 96.3303H131.076L131.42 95.1818H132.875L134.014 91.4619ZM129.698 77.1046C128.852 77.3388 127.278 78.0484 127.278 78.0484L128.678 73.4434H132.875L131.862 76.7986C131.862 76.7986 130.565 76.875 129.698 77.1046ZM129.778 83.6834C129.778 83.6834 128.46 83.8488 127.592 84.0449C126.738 84.304 125.135 85.1205 125.135 85.1205L126.581 80.3282H130.8L129.778 83.6834ZM127.427 91.5043H123.217L124.437 87.4599H128.634L127.427 91.5043ZM137.565 80.3282H143.633L142.761 83.1521H136.613L135.689 86.2396H141.069L136.996 91.9756C136.71 92.3971 136.455 92.5461 136.17 92.6648C135.885 92.8095 135.511 92.9794 135.077 92.9794H133.585L132.559 96.3609H136.463C138.493 96.3609 139.691 95.4377 140.576 94.226L143.37 90.4027L143.97 94.2847C144.097 95.0119 144.62 95.4377 144.973 95.6031C145.364 95.7992 145.768 96.1355 146.339 96.1856C146.95 96.2116 147.393 96.2325 147.686 96.2325H149.605L150.756 92.4483H150C149.566 92.4483 148.818 92.3754 148.69 92.2393C148.563 92.0737 148.563 91.8189 148.494 91.4314L147.886 87.5405H145.394L146.487 86.2396H152.624L153.567 83.1521H147.886L148.771 80.3282H154.435L155.486 76.8455H138.598L137.565 80.3282ZM86.3129 92.2907L87.7293 87.5788H93.5503L94.6139 84.0747H88.7875L89.6769 81.1745H95.3706L96.4253 77.781H82.1792L81.146 81.1745H84.3827L83.5193 84.0747H80.274L79.1984 87.6389H82.4341L80.5463 93.8725C80.2914 94.6976 80.666 95.0125 80.9032 95.3957C81.146 95.7689 81.3922 96.016 81.9453 96.1564C82.5155 96.284 82.9065 96.3601 83.4376 96.3601H90.0001L91.1695 92.4781L88.2604 92.8776C87.6988 92.8776 86.143 92.8101 86.3129 92.2907ZM86.9806 69.735L85.5055 72.401C85.1898 72.9836 84.9055 73.3451 84.6496 73.5115C84.4245 73.6519 83.9781 73.7108 83.3315 73.7108H82.5616L81.5329 77.1215H84.089C85.3182 77.1215 86.262 76.6708 86.7127 76.4454C87.1972 76.1863 87.3247 76.3345 87.6991 75.973L88.5624 75.2251H96.5446L97.6039 71.6738H91.7609L92.781 69.735H86.9806ZM98.7647 92.3591C98.6286 92.1632 98.7266 91.8181 98.9346 91.0996L101.116 83.8785H108.877C110.008 83.8622 110.825 83.849 111.356 83.811C111.927 83.7512 112.547 83.5476 113.223 83.1818C113.921 82.7986 114.278 82.3948 114.58 81.9309C114.916 81.4682 115.456 80.4558 115.92 78.8946L118.662 69.7565L110.608 69.8031C110.608 69.8031 108.128 70.1689 107.036 70.573C105.935 71.0237 104.36 72.2821 104.36 72.2821L105.088 69.7771H100.113L93.1471 92.8773C92.9 93.7745 92.7347 94.4254 92.6966 94.8163C92.6835 95.2376 93.2277 95.6545 93.5804 95.9691C93.9973 96.2837 94.6136 96.2325 95.2048 96.2837C95.8264 96.3306 96.7104 96.3601 97.9308 96.3601H101.754L102.928 92.3974L99.5051 92.7206C99.1393 92.7206 98.8745 92.5247 98.7647 92.3591ZM102.524 79.0013H110.676L110.157 80.6257C110.085 80.6637 109.91 80.545 109.081 80.6431H102.022L102.524 79.0013ZM104.157 73.5535H112.377L111.786 75.51C111.786 75.51 107.912 75.4719 107.291 75.5861C104.561 76.0588 102.966 77.5176 102.966 77.5176L104.157 73.5535ZM110.34 86.0648C110.272 86.3076 110.166 86.4558 110.017 86.5667C109.851 86.6734 109.583 86.7114 109.184 86.7114H108.022L108.091 84.7333H103.259L103.063 94.4039C103.056 95.102 103.123 95.5058 103.634 95.829C104.144 96.2331 105.718 96.2842 107.835 96.2842H110.863L111.956 92.6643L109.32 92.809L108.444 92.8602C108.324 92.809 108.209 92.7624 108.082 92.6348C107.971 92.525 107.784 92.5925 107.814 91.8947L107.835 89.4157L110.599 89.3013C112.092 89.3013 112.73 88.8158 113.274 88.3533C113.793 87.9101 113.963 87.4006 114.159 86.7114L114.623 84.5168H110.824L110.34 86.0648Z" fill="#FEFEFE"/>
</svg>
