<svg width="37" height="38" viewBox="0 0 37 38" fill="none" xmlns="http://www.w3.org/2000/svg">
<g clip-path="url(#clip0_4976_71748)">
<mask id="mask0_4976_71748" style="mask-type:alpha" maskUnits="userSpaceOnUse" x="0" y="0" width="37" height="38">
<path d="M18.5 37.5C28.7173 37.5 37 29.2173 37 19C37 8.78273 28.7173 0.5 18.5 0.5C8.28273 0.5 0 8.78273 0 19C0 29.2173 8.28273 37.5 18.5 37.5Z" fill="white"/>
</mask>
<g mask="url(#mask0_4976_71748)">
<path d="M18.5 0.5H37V5.125L34.6875 7.4375L37 9.75V14.375L34.6875 16.6875L37 19V23.625L34.6875 25.9375L37 28.25V32.875L18.5 35.1875L0 32.875V28.25L2.3125 25.9375L0 23.625V19L18.5 0.5Z" fill="#EEEEEE"/>
<path d="M16.1875 5.125H37V9.75H16.1875V5.125ZM16.1875 14.375H37V19H18.5L16.1875 14.375ZM0 23.625H37V28.25H0V23.625ZM0 32.875H37V37.5H0V32.875Z" fill="#D80027"/>
<path d="M0 0.5H18.5V19H0V0.5Z" fill="#0052B4"/>
<path d="M13.5137 18.0586L17.6328 15.0957H12.5742L16.6934 18.0586L15.1035 13.2168L13.5137 18.0586ZM7.66016 18.0586L11.7793 15.0957H6.7207L10.8398 18.0586L9.25 13.2168L7.66016 18.0586ZM1.80664 18.0586L5.92578 15.0957H0.867188L4.98633 18.0586L3.39648 13.2168L1.80664 18.0586ZM13.5137 12.2051L17.6328 9.24219H12.5742L16.6934 12.2051L15.1035 7.36328L13.5137 12.2051ZM7.66016 12.2051L11.7793 9.24219H6.7207L10.8398 12.2051L9.25 7.36328L7.66016 12.2051ZM1.80664 12.2051L5.92578 9.24219H0.867188L4.98633 12.2051L3.39648 7.36328L1.80664 12.2051ZM13.5137 6.2793L17.6328 3.31641H12.5742L16.6934 6.2793L15.1035 1.4375L13.5137 6.2793ZM7.66016 6.2793L11.7793 3.31641H6.7207L10.8398 6.2793L9.25 1.4375L7.66016 6.2793ZM1.80664 6.2793L5.92578 3.31641H0.867188L4.98633 6.2793L3.39648 1.4375L1.80664 6.2793Z" fill="#EEEEEE"/>
</g>
</g>
<defs>
<clipPath id="clip0_4976_71748">
<rect width="37" height="37" fill="white" transform="translate(0 0.5)"/>
</clipPath>
</defs>
</svg>
