<svg width="78" height="26" viewBox="0 0 78 26" fill="none" xmlns="http://www.w3.org/2000/svg">
<path d="M33.4772 25.5478H27.2186L31.1332 0.711121H37.3915L33.4772 25.5478Z" fill="#0042B8"/>
<path d="M56.1704 1.32034C54.9359 0.817801 52.9779 0.262939 50.5569 0.262939C44.3763 0.262939 40.024 3.64478 39.9973 8.4798C39.946 12.0471 43.1134 14.0284 45.4824 15.2178C47.9038 16.4333 48.7269 17.2266 48.7269 18.31C48.7023 19.9738 46.7703 20.7408 44.9684 20.7408C42.4697 20.7408 41.1308 20.3454 39.0962 19.4197L38.2721 19.0229L37.3963 24.5982C38.8641 25.2844 41.5685 25.8933 44.3763 25.92C50.9433 25.92 55.2186 22.5905 55.2692 17.438C55.2942 14.6107 53.6217 12.4442 50.0158 10.674C47.8268 9.53755 46.4862 8.77128 46.4862 7.60853C46.5119 6.55148 47.6201 5.4688 50.0911 5.4688C52.1257 5.41577 53.6206 5.9176 54.7531 6.41979L55.3192 6.68352L56.1704 1.32034Z" fill="#0042B8"/>
<path d="M64.4879 16.7491C65.0033 15.3222 66.9866 9.79995 66.9866 9.79995C66.9606 9.85298 67.501 8.34678 67.8101 7.42213L68.2474 9.56221C68.2474 9.56221 69.4326 15.5073 69.69 16.7491C68.7119 16.7491 65.7241 16.7491 64.4879 16.7491ZM72.2134 0.711121H67.3723C65.8795 0.711121 64.7453 1.15993 64.1012 2.77183L54.8048 25.5475H61.3718C61.3718 25.5475 62.4529 22.482 62.6853 21.8218C63.4057 21.8218 69.794 21.8218 70.7208 21.8218C70.9005 22.6938 71.4676 25.5475 71.4676 25.5475H77.2625L72.2134 0.711121Z" fill="#0042B8"/>
<path d="M21.991 0.711121L15.8617 17.6474L15.192 14.2125C14.0588 10.2491 10.5049 5.94297 6.53903 3.80184L12.1532 25.5215H18.7715L28.6089 0.711121H21.991Z" fill="#0042B8"/>
<path d="M10.1725 0.711121H0.103015L0 1.21295C7.85483 3.27402 13.0569 8.24213 15.1942 14.2136L13.0052 2.79887C12.6449 1.2126 11.5374 0.763446 10.1725 0.711121Z" fill="#FAA61A"/>
</svg>
