<svg width="199" height="66" viewBox="0 0 199 66" fill="none" xmlns="http://www.w3.org/2000/svg">
<path d="M86.125 65.0475H70.0254L80.0952 1.15773H96.1939L86.125 65.0475Z" fill="white"/>
<path d="M144.486 2.72004C141.31 1.42732 136.274 0 130.046 0C114.147 0 102.951 8.69943 102.882 21.137C102.75 30.3134 110.898 35.4102 116.992 38.4699C123.221 41.5964 125.338 43.6371 125.338 46.424C125.275 50.7042 120.305 52.6771 115.67 52.6771C109.242 52.6771 105.798 51.6599 100.564 49.2787L98.4443 48.2579L96.1914 62.5997C99.9674 64.3649 106.924 65.9313 114.147 66C131.04 66 142.037 57.4352 142.168 44.181C142.232 36.908 137.93 31.3351 128.654 26.7812C123.023 23.8579 119.574 21.8868 119.574 18.8957C119.64 16.1766 122.491 13.3915 128.847 13.3915C134.081 13.2551 137.927 14.546 140.84 15.8378L142.296 16.5163L144.486 2.72004Z" fill="white"/>
<path d="M165.881 42.4136C167.207 38.7432 172.309 24.5378 172.309 24.5378C172.242 24.6742 173.632 20.7996 174.427 18.4211L175.552 23.9262C175.552 23.9262 178.601 39.2193 179.263 42.4136C176.747 42.4136 169.061 42.4136 165.881 42.4136ZM185.754 1.15773H173.301C169.461 1.15773 166.543 2.31223 164.887 6.45869L140.973 65.0466H157.865C157.865 65.0466 160.647 57.1611 161.244 55.4627C163.098 55.4627 179.531 55.4627 181.915 55.4627C182.377 57.7058 183.836 65.0466 183.836 65.0466H198.743L185.754 1.15773Z" fill="white"/>
<path d="M56.5727 1.15773L40.8059 44.7244L39.083 35.8886C36.168 25.6932 27.0261 14.6161 16.8242 9.10826L31.266 64.9797H48.2909L73.5966 1.15773H56.5727Z" fill="white"/>
<path d="M26.1677 1.15773H0.264994L0 2.44864C20.2057 7.7505 33.5875 20.5304 39.0855 35.8913L33.4546 6.52825C32.5275 2.44774 29.6786 1.29233 26.1677 1.15773Z" fill="#FAA61A"/>
</svg>
