<svg width="71" height="71" viewBox="0 0 71 71" fill="none" xmlns="http://www.w3.org/2000/svg">
<g clip-path="url(#clip0)">
<path d="M35.1743 15.2729H1.26807V17.4604H35.1743V15.2729Z" fill="#4C9DE8"/>
<path d="M58.0805 15.2729H24.1743V17.4604H58.0805V15.2729Z" fill="#4C9DE8"/>
<path d="M8.92432 24.0229H1.26807V26.2104H8.92432V24.0229Z" fill="#4C9DE8"/>
<path d="M35.1744 28.3979H12.2056V30.5854H35.1744V28.3979Z" fill="#4C9DE8"/>
<path d="M57.1431 28.3979H34.1743V30.5854H57.1431V28.3979Z" fill="#4C9DE8"/>
<path d="M69.0805 28.3979H61.4243V30.5854H69.0805V28.3979Z" fill="#4C9DE8"/>
<path d="M62.8305 28.3979H55.1743V30.5854H62.8305V28.3979Z" fill="#4C9DE8"/>
<path d="M69.0806 37.1479H12.2056V39.3354H69.0806V37.1479Z" fill="#4C9DE8"/>
<path d="M50.4868 43.7104H17.6743V45.8979H50.4868V43.7104Z" fill="#4C9DE8"/>
<path d="M35.1743 48.0854H17.6743V50.2729H35.1743V48.0854Z" fill="#4C9DE8"/>
<path d="M54.8618 43.7104H52.6743V45.8979H54.8618V43.7104Z" fill="#4C9DE8"/>
<path d="M59.2368 43.7104H57.0493V45.8979H59.2368V43.7104Z" fill="#4C9DE8"/>
<path d="M63.6118 43.7104H61.4243V45.8979H63.6118V43.7104Z" fill="#4C9DE8"/>
<path d="M8.92432 48.0854H4.54932C3.389 48.0854 2.2762 47.6245 1.45572 46.8041C0.635249 45.9836 0.174316 44.8708 0.174316 43.7104V15.2729C0.174316 14.1126 0.635249 12.9998 1.45572 12.1793C2.2762 11.3589 3.389 10.8979 4.54932 10.8979H35.1743V13.0854H4.54932C3.96916 13.0854 3.41276 13.3159 3.00252 13.7261C2.59229 14.1364 2.36182 14.6928 2.36182 15.2729V43.7104C2.36182 44.2906 2.59229 44.847 3.00252 45.2572C3.41276 45.6674 3.96916 45.8979 4.54932 45.8979H8.92432V48.0854Z" fill="#0034A0"/>
<path d="M59.1743 20.9604V15.2729C59.1743 14.1126 58.7134 12.9998 57.8929 12.1793C57.0724 11.3589 55.9596 10.8979 54.7993 10.8979H24.1743V13.0854H54.7993C55.3795 13.0854 55.9359 13.3159 56.3461 13.7261C56.7563 14.1364 56.9868 14.6928 56.9868 15.2729V20.9604H59.1743Z" fill="#0034A0"/>
<path d="M65.7993 61.2104H15.4868C14.3265 61.2104 13.2137 60.7495 12.3932 59.9291C11.5727 59.1086 11.1118 57.9958 11.1118 56.8354V28.3979C11.1118 27.2376 11.5727 26.1248 12.3932 25.3043C13.2137 24.4838 14.3265 24.0229 15.4868 24.0229H61.4243V26.2104H15.4868C14.9066 26.2104 14.3502 26.4409 13.94 26.8511C13.5298 27.2613 13.2993 27.8177 13.2993 28.3979V56.8354C13.2993 57.4156 13.5298 57.972 13.94 58.3822C14.3502 58.7924 14.9066 59.0229 15.4868 59.0229H65.7993C66.3795 59.0229 66.9359 58.7924 67.3461 58.3822C67.7563 57.972 67.9868 57.4156 67.9868 56.8354V28.3979C67.9868 27.8177 67.7563 27.2613 67.3461 26.8511C66.9359 26.4409 66.3795 26.2104 65.7993 26.2104H61.4243V24.0229H65.7993C66.9596 24.0229 68.0724 24.4838 68.8929 25.3043C69.7134 26.1248 70.1743 27.2376 70.1743 28.3979V56.8354C70.1743 57.9958 69.7134 59.1086 68.8929 59.9291C68.0724 60.7495 66.9596 61.2104 65.7993 61.2104Z" fill="#0034A0"/>
</g>
<defs>
<clipPath id="clip0">
<rect width="70" height="70" fill="white" transform="translate(0.174316 0.897949)"/>
</clipPath>
</defs>
</svg>
