<svg width="70" height="71" viewBox="0 0 70 71" fill="none" xmlns="http://www.w3.org/2000/svg">
<path d="M35 53.1714C34.2453 53.1714 33.6328 53.7839 33.6328 54.5386C33.6328 55.2933 34.2453 55.9058 35 55.9058C35.7547 55.9058 36.3672 55.2933 36.3672 54.5386C36.3672 53.7839 35.7547 53.1714 35 53.1714Z" fill="#4C9DE8"/>
<path d="M64.133 8.78838C60.7686 7.43336 56.3944 6.68701 51.8164 6.68701C47.2384 6.68701 42.8642 7.43336 39.4998 8.78838C37.5117 9.58914 35.9937 10.5678 35 11.6659C34.0063 10.5678 32.4883 9.58928 30.5002 8.78852C27.1358 7.43336 22.7616 6.68701 18.1836 6.68701C13.6056 6.68701 9.23139 7.43336 5.86701 8.78838C2.08359 10.3122 0 12.4792 0 14.8901V47.7026C0 50.1135 2.08359 52.2805 5.86701 53.8044C8.99609 55.0647 12.9989 55.7975 17.2266 55.894V55.9058C17.2266 60.5824 24.8675 64.1089 35 64.1089C45.1325 64.1089 52.7734 60.5824 52.7734 55.9058V55.894C57.0011 55.7975 61.0039 55.0647 64.133 53.8044C67.9164 52.2805 70 50.1135 70 47.7026V14.8901C70 12.4792 67.9164 10.3122 64.133 8.78838ZM67.2656 39.4995C67.2656 40.6667 65.6738 42.0328 63.1114 43.0649C60.3381 44.1819 56.6147 44.8577 52.7734 44.9547V39.4995C52.7734 39.4955 52.7732 39.4916 52.7732 39.4878C57.0009 39.3914 61.0038 38.6586 64.1331 37.3981C65.3613 36.9035 66.4089 36.3408 67.2658 35.7242L67.2656 39.4995ZM33.6328 23.0933C33.6328 24.2604 32.041 25.6265 29.4786 26.6586C26.4753 27.8683 22.3584 28.562 18.1836 28.562C14.0087 28.562 9.89187 27.8683 6.88857 26.6586C4.32619 25.6265 2.73438 24.2604 2.73438 23.0933V19.3179C3.59119 19.9345 4.63887 20.4972 5.86701 20.9919C9.23139 22.3469 13.6056 23.0933 18.1836 23.0933C22.7616 23.0933 27.1358 22.3469 30.5002 20.9919C31.7283 20.4972 32.776 19.9345 33.6328 19.3179V23.0933ZM5.86701 29.195C9.23139 30.55 13.6056 31.2964 18.1836 31.2964C22.7616 31.2964 27.1358 30.55 30.5002 29.195C31.7283 28.7004 32.776 28.1376 33.6328 27.521V31.3206C30.0959 31.4404 26.7039 32.0209 23.9604 32.9871C21.2086 33.9562 19.2285 35.2487 18.1517 36.7647C13.9878 36.7612 9.88422 36.0683 6.88857 34.8617C4.32619 33.8296 2.73438 32.4636 2.73438 31.2964V27.521C3.59119 28.1376 4.63887 28.7004 5.86701 29.195ZM2.73438 35.7242C3.59119 36.3408 4.63887 36.9035 5.86701 37.3981C8.99623 38.6584 12.9992 39.3912 17.227 39.4878C17.227 39.4917 17.2267 39.4957 17.2267 39.4995V44.9547C13.3853 44.8577 9.66205 44.1819 6.88871 43.0649C4.32619 42.0328 2.73438 40.6667 2.73438 39.4995V35.7242ZM20.1056 38.8278C21.1188 36.4698 26.967 34.0308 35 34.0308C43.033 34.0308 48.8812 36.4698 49.8933 38.8251C49.9915 39.0549 50.0391 39.2754 50.0391 39.4995C50.0391 40.7015 48.5572 42.0367 46.0749 43.071C43.1387 44.2945 39.2056 44.9683 35 44.9683C30.7944 44.9683 26.8613 44.2945 23.9251 43.071C21.4428 42.0367 19.9609 40.7015 19.9609 39.4995C19.9609 39.2754 20.0087 39.0549 20.1056 38.8278ZM67.2656 31.2964C67.2656 32.4636 65.6738 33.8296 63.1114 34.8617C60.1159 36.0683 56.0124 36.7612 51.8487 36.7647C50.7727 35.2495 48.7923 33.9565 46.0396 32.9871C43.2961 32.0207 39.9041 31.4404 36.3672 31.3206V27.521C37.224 28.1376 38.2717 28.7004 39.4998 29.195C42.8642 30.55 47.2384 31.2964 51.8164 31.2964C56.3944 31.2964 60.7686 30.55 64.133 29.195C65.3611 28.7004 66.4088 28.1376 67.2656 27.521V31.2964ZM67.2656 23.0933C67.2656 24.2604 65.6738 25.6265 63.1114 26.6586C60.1081 27.8683 55.9912 28.562 51.8164 28.562C47.6416 28.562 43.5247 27.8683 40.5214 26.6586C37.959 25.6265 36.3672 24.2604 36.3672 23.0933V19.3179C37.224 19.9345 38.2717 20.4972 39.4998 20.9919C42.8642 22.3469 47.2384 23.0933 51.8164 23.0933C56.3944 23.0933 60.7686 22.3469 64.133 20.9919C65.3611 20.4972 66.4088 19.9345 67.2656 19.3179V23.0933ZM40.5214 11.3248C43.5247 10.1151 47.6416 9.42139 51.8164 9.42139C55.9912 9.42139 60.1081 10.1151 63.1114 11.3248C65.6738 12.3569 67.2656 13.723 67.2656 14.8901C67.2656 16.0573 65.6738 17.4234 63.1114 18.4555C60.1081 19.6652 55.9912 20.3589 51.8164 20.3589C47.6416 20.3589 43.5247 19.6652 40.5214 18.4555C37.959 17.4234 36.3672 16.0573 36.3672 14.8901C36.3672 13.723 37.959 12.3569 40.5214 11.3248ZM6.88857 11.3248C9.89187 10.1151 14.0087 9.42139 18.1836 9.42139C22.3584 9.42139 26.4753 10.1151 29.4786 11.3248C32.041 12.3569 33.6328 13.723 33.6328 14.8901C33.6328 16.0573 32.041 17.4234 29.4786 18.4555C26.4753 19.6652 22.3584 20.3589 18.1836 20.3589C14.0087 20.3589 9.89187 19.6652 6.88857 18.4555C4.32619 17.4234 2.73438 16.0573 2.73438 14.8901C2.73438 13.723 4.32619 12.3569 6.88857 11.3248ZM6.88857 51.268C4.32619 50.2359 2.73438 48.8698 2.73438 47.7026V43.9273C3.59119 44.5439 4.63887 45.1066 5.86701 45.6013C8.99609 46.8615 12.9989 47.5944 17.2266 47.6909V53.158C13.3852 53.0608 9.66191 52.3851 6.88857 51.268ZM46.0749 59.4773C43.1387 60.7008 39.2056 61.3745 35 61.3745C30.7944 61.3745 26.8613 60.7008 23.9251 59.4773C21.4428 58.443 19.9609 57.1078 19.9609 55.9058V52.2101C20.2706 52.4342 20.6128 52.6569 20.9923 52.8765C23.1154 54.105 26.0042 55.0138 29.3464 55.5044C29.4138 55.5142 29.4805 55.519 29.5467 55.519C30.2139 55.519 30.7978 55.0299 30.8976 54.3502C31.0073 53.6031 30.4905 52.9086 29.7436 52.799C23.3896 51.8661 19.9609 49.4771 19.9609 47.7026V43.9948C23.0554 46.2592 28.5178 47.7026 35 47.7026C41.4822 47.7026 46.9446 46.2592 50.0391 43.9948V47.7026C50.0391 49.4771 46.6104 51.8661 40.2564 52.799C39.5094 52.9086 38.9926 53.6031 39.1024 54.3502C39.2022 55.0301 39.7861 55.519 40.4533 55.519C40.5193 55.519 40.5863 55.5142 40.6536 55.5044C43.9957 55.0138 46.8844 54.1052 49.0077 52.8765C49.3871 52.6569 49.7294 52.4342 50.0391 52.2101V55.9058C50.0391 57.1078 48.5572 58.443 46.0749 59.4773ZM63.1114 51.268C60.3381 52.385 56.6147 53.0608 52.7734 53.1579V47.6907C57.0011 47.5942 61.0039 46.8614 64.133 45.6011C65.3611 45.1065 66.4088 44.5438 67.2656 43.9272V47.7026C67.2656 48.8698 65.6738 50.2359 63.1114 51.268Z" fill="#0034A0"/>
</svg>
