<svg width="70" height="71" viewBox="0 0 70 71" fill="none" xmlns="http://www.w3.org/2000/svg">
<g clip-path="url(#clip0)">
<path d="M67.0509 31.8223C66.9383 26.3669 65.4296 21.0203 62.6796 16.3236C64.9172 5.61976 53.5994 -3.08432 43.8521 1.78298C34.6636 -0.956609 23.9805 0.500175 15.5536 7.02407C14.4845 7.84382 15.7762 9.43646 16.801 8.65101C19.389 6.66667 22.2561 5.12829 25.3226 4.07824C28.5198 2.9835 31.8679 2.44433 35.2767 2.47331C37.4078 2.49189 39.5257 2.73599 41.5898 3.19958C40.7845 3.82458 40.0531 4.54019 39.4107 5.33098C23.4652 2.60683 8.28645 14.9372 7.55895 30.9582C6.71828 30.9173 5.85192 30.9758 5.03913 31.1975C5.32218 24.4027 7.91252 17.8176 12.248 12.9603C13.1306 11.9716 11.6012 10.6065 10.7187 11.5952C5.847 17.053 3.03088 24.5331 2.96432 32.1642C1.18212 33.396 0.012207 35.4532 0.012207 37.7786V47.6836C0.012207 52.0614 3.73979 54.6057 7.77844 54.504C9.20748 58.6331 15.2317 57.7361 15.3342 53.3055V31.8048C15.38 29.0669 12.4019 27.121 9.91913 28.2525C12.0049 15.1633 24.6286 5.45261 38.1287 7.21937C35.231 12.1665 36.2037 19.1154 40.4001 23.1031V25.8864C40.5369 26.7107 41.0115 27.0254 41.8241 26.8307L44.3191 25.7765C49.0256 27.9815 55.1573 26.8554 58.752 23.3309C59.3705 24.9292 59.8224 26.5774 60.1045 28.2626C57.6195 27.113 54.6205 29.0528 54.6664 31.8047V53.3054C54.6369 56.2208 57.8894 58.1306 60.412 56.6944C60.4068 57.6001 60.3902 58.5056 60.3547 59.4022C60.1106 62.339 57.8462 64.8048 54.9584 65.281C54.0407 65.3712 52.9942 65.4061 51.7145 65.3878C51.2556 63.7036 49.7128 62.4618 47.8852 62.4618H42.4422C37.1794 62.6791 37.1782 70.1802 42.4422 70.3979H47.8849C49.7246 70.3979 51.2759 69.1395 51.7232 67.4382C52.8798 67.4538 54.1044 67.4944 55.2529 67.31C59.0831 66.6971 62.1426 63.4319 62.4534 59.5459C62.4545 59.5323 62.4529 59.5187 62.4534 59.5052C62.5248 57.7215 62.4709 55.92 62.4534 54.152C66.4154 54.3441 69.9882 51.4566 69.9882 47.3317V37.4267C69.9882 35.1077 68.8248 33.0553 67.0509 31.8223ZM2.06228 47.6836V37.7786C2.06228 34.7904 4.69226 32.8461 7.51644 33.0084V52.4539C4.69075 52.6105 2.06228 50.681 2.06228 47.6836ZM11.4615 29.9822C12.4666 29.9822 13.2841 30.7999 13.2841 31.8048V53.3055C13.1837 55.7242 9.73832 55.7221 9.63882 53.3055V31.8048C9.63882 30.7998 10.4565 29.9822 11.4615 29.9822ZM47.8849 68.3479H42.4422C41.3847 68.3479 40.5242 67.4875 40.5242 66.4298C40.5242 65.3721 41.3845 64.5118 42.4422 64.5118H47.8849C50.428 64.6166 50.43 68.2424 47.8849 68.3479ZM64.9629 30.8461C64.1493 30.6239 63.2819 30.5655 62.4405 30.6064C62.2304 27.5031 61.5033 24.4919 60.2743 21.6385C60.8827 20.8335 61.4013 19.9573 61.8153 19.0247C63.6626 22.6972 64.7374 26.7271 64.9629 30.8461ZM49.6985 24.8648C47.9772 24.8648 46.3256 24.4843 44.7897 23.7341C44.5084 23.6036 44.2255 23.5959 43.9408 23.7109L42.4502 24.3407V22.6641C42.4502 22.3774 42.3302 22.1037 42.1191 21.9097C34.6555 15.0602 39.5574 2.46661 49.6987 2.47221C64.5544 3.08683 64.5509 24.2518 49.6985 24.8648ZM67.9381 47.3317C67.9381 50.3523 65.2712 52.2738 62.4297 52.102C62.4168 51.0004 62.4096 49.8988 62.4116 48.7972C62.4116 47.4719 60.3615 47.4719 60.3615 48.7972V53.3054C60.3615 54.3104 59.5438 55.128 58.5389 55.128C57.5339 55.128 56.7162 54.3104 56.7162 53.3054V31.8048C56.8135 29.3927 60.2593 29.3817 60.3615 31.8048V43.3405C60.3615 44.6658 62.4116 44.6658 62.4116 43.3405V32.6564C65.2601 32.4952 67.9381 34.38 67.9381 37.4267V47.3317Z" fill="#0034A0"/>
<path d="M44.3255 58.1424C45.138 58.3372 45.6127 58.0225 45.7495 57.1981V53.8513C55.5695 44.3034 48.7177 27.4306 35 27.4483C26.5129 27.4481 19.608 34.352 19.608 42.8376C19.4779 53.8474 31.3499 61.5127 41.3206 56.873L44.3255 58.1424ZM40.8487 54.8299C32.1808 59.1948 21.539 52.5531 21.6582 42.8375C21.6581 35.4822 27.6433 29.4982 35.0001 29.4982C47.0837 29.4927 52.9226 44.497 44.0304 52.6563C43.8194 52.8503 43.6994 53.1239 43.6994 53.4107V55.6524L41.6976 54.8066C41.4246 54.6913 41.1149 54.6998 40.8487 54.8299Z" fill="#4C9DE8"/>
<path d="M32.2587 38.1133H37.7421C39.0675 38.1133 39.0675 36.0632 37.7421 36.0632H32.2587C30.9333 36.0632 30.9333 38.1133 32.2587 38.1133Z" fill="#4C9DE8"/>
<path d="M37.7415 47.562H32.2581C30.9328 47.562 30.9328 49.6121 32.2581 49.6121H37.7415C39.0669 49.6121 39.0669 47.562 37.7415 47.562Z" fill="#4C9DE8"/>
<path d="M40.6756 41.8125H29.325C27.9997 41.8125 27.9997 43.8626 29.325 43.8626H40.6756C42.0009 43.8626 42.0009 41.8125 40.6756 41.8125Z" fill="#4C9DE8"/>
<path d="M49.7885 5.84576C47.3673 5.79943 45.3203 7.80153 45.3203 10.2232C45.3203 11.5485 47.3704 11.5485 47.3704 10.2232C47.3704 8.96133 48.4813 7.86782 49.7473 7.89543C50.9609 7.91989 51.9609 8.88739 52.0238 10.098C52.0921 11.4142 51.0184 12.5516 49.6987 12.5516C49.1326 12.5516 48.6737 13.0105 48.6737 13.5766V17.083C48.6737 17.6491 49.1326 18.1081 49.6987 18.1081C50.2648 18.1081 50.7238 17.6491 50.7238 17.083V14.4786C52.7486 13.9876 54.1791 12.0738 54.071 9.9917C53.9528 7.71297 52.0716 5.89182 49.7885 5.84576Z" fill="#4C9DE8"/>
<path d="M49.6982 19.5771C48.379 19.5771 48.3769 21.6272 49.6982 21.6272C51.0172 21.6272 51.0194 19.5771 49.6982 19.5771Z" fill="#4C9DE8"/>
</g>
<defs>
<clipPath id="clip0">
<rect width="70" height="70" fill="white" transform="translate(0 0.397949)"/>
</clipPath>
</defs>
</svg>
