<svg width="70" height="70" viewBox="0 0 70 70" fill="none" xmlns="http://www.w3.org/2000/svg">
<path d="M64.5312 70H5.46877C5.32482 70.0008 5.18212 69.9733 5.04886 69.9188C4.9156 69.8644 4.79441 69.7842 4.69221 69.6828L0.317215 65.3078C0.215845 65.2056 0.135625 65.0844 0.081195 64.9512C0.026765 64.8179 -0.000813938 64.6752 1.82882e-05 64.5313V62.3438C1.82882e-05 62.0537 0.115268 61.7755 0.320386 61.5704C0.525504 61.3653 0.803687 61.25 1.09377 61.25H27.3438C27.4877 61.2492 27.6304 61.2768 27.7637 61.3312C27.8969 61.3856 28.0181 61.4658 28.1203 61.5672L29.9797 63.4375H40.0203L41.8797 61.5672C41.9819 61.4658 42.1031 61.3856 42.2363 61.3312C42.3696 61.2768 42.5123 61.2492 42.6562 61.25H68.9062C69.1963 61.25 69.4745 61.3653 69.6796 61.5704C69.8847 61.7755 70 62.0537 70 62.3438V64.5313C70.0008 64.6752 69.9732 64.8179 69.9188 64.9512C69.8644 65.0844 69.7842 65.2056 69.6828 65.3078L65.3078 69.6828C65.2056 69.7842 65.0844 69.8644 64.9511 69.9188C64.8179 69.9733 64.6752 70.0008 64.5312 70ZM5.91721 67.8125H64.0828L67.8125 64.0828V63.4375H43.1047L41.2453 65.3078C41.1431 65.4092 41.0219 65.4894 40.8887 65.5438C40.7554 65.5983 40.6127 65.6258 40.4688 65.625H29.5313C29.3873 65.6258 29.2446 65.5983 29.1114 65.5438C28.9781 65.4894 28.8569 65.4092 28.7547 65.3078L26.8953 63.4375H2.18752V64.0828L5.91721 67.8125Z" fill="#0034A0"/>
<path d="M6.5625 59.0625H4.375V26.25C4.375 25.0897 4.83593 23.9769 5.6564 23.1564C6.47688 22.3359 7.58968 21.875 8.75 21.875H16.4062V24.0625H8.75C8.16984 24.0625 7.61344 24.293 7.2032 24.7032C6.79297 25.1134 6.5625 25.6698 6.5625 26.25V59.0625Z" fill="#0034A0"/>
<path d="M65.625 59.0625H63.4375V26.25C63.4375 25.6698 63.207 25.1134 62.7968 24.7032C62.3865 24.293 61.8301 24.0625 61.25 24.0625H53.5937V21.875H61.25C62.4103 21.875 63.5231 22.3359 64.3436 23.1564C65.164 23.9769 65.625 25.0897 65.625 26.25V59.0625Z" fill="#0034A0"/>
<path d="M31.7187 54.6875H29.5312V56.875H31.7187V54.6875Z" fill="#0034A0"/>
<path d="M27.3437 54.6875H25.1562V56.875H27.3437V54.6875Z" fill="#0034A0"/>
<path d="M36.0937 54.6875H33.9062V56.875H36.0937V54.6875Z" fill="#0034A0"/>
<path d="M40.4687 54.6875H38.2812V56.875H40.4687V54.6875Z" fill="#0034A0"/>
<path d="M44.8437 54.6875H42.6562V56.875H44.8437V54.6875Z" fill="#0034A0"/>
<path d="M60.1562 56.875H47.0312V54.6875H59.0625V28.4375H53.5937V26.25H60.1562C60.4463 26.25 60.7245 26.3652 60.9296 26.5704C61.1347 26.7755 61.25 27.0537 61.25 27.3437V55.7812C61.25 56.0713 61.1347 56.3495 60.9296 56.5546C60.7245 56.7598 60.4463 56.875 60.1562 56.875Z" fill="#0034A0"/>
<path d="M22.9687 56.875H9.84375C9.55367 56.875 9.27549 56.7598 9.07037 56.5546C8.86525 56.3495 8.75 56.0713 8.75 55.7812V27.3437C8.75 27.0537 8.86525 26.7755 9.07037 26.5704C9.27549 26.3652 9.55367 26.25 9.84375 26.25H16.4062V28.4375H10.9375V54.6875H22.9687V56.875Z" fill="#0034A0"/>
<path d="M35 52.5C34.772 52.4985 34.5503 52.4258 34.3656 52.2922L19.0531 41.3547C18.9118 41.254 18.7964 41.1212 18.7165 40.9671C18.6366 40.8131 18.5946 40.6422 18.5938 40.4687V9.84374C18.594 9.6674 18.637 9.49375 18.7189 9.33758C18.8007 9.18142 18.9192 9.04736 19.0641 8.94685C19.2087 8.84531 19.3758 8.78034 19.551 8.75748C19.7263 8.73462 19.9045 8.75456 20.0703 8.81561L28.1641 11.8562L30.9422 9.06717C31.0444 8.9658 31.1656 8.88561 31.2988 8.83118C31.4321 8.77675 31.5748 8.74915 31.7187 8.74999H38.2812C38.4252 8.74915 38.5679 8.77675 38.7011 8.83118C38.8344 8.88561 38.9556 8.9658 39.0578 9.06717L41.8359 11.8562L49.9297 8.81561C50.0955 8.75456 50.2737 8.73462 50.4489 8.75748C50.6242 8.78034 50.7913 8.84531 50.9359 8.94685C51.0808 9.04736 51.1992 9.18142 51.2811 9.33758C51.363 9.49375 51.4059 9.6674 51.4062 9.84374V40.4687C51.4054 40.6422 51.3633 40.8131 51.2835 40.9671C51.2036 41.1212 51.0882 41.254 50.9468 41.3547L35.6344 52.2922C35.4497 52.4258 35.2279 52.4985 35 52.5ZM20.7812 39.9109L35 50.0609L49.2187 39.9109V11.4187L41.9453 14.1531C41.7483 14.2271 41.5342 14.2428 41.3285 14.1982C41.1229 14.1536 40.9345 14.0506 40.7859 13.9016L37.8328 10.9375H32.1672L29.214 13.9016C29.0655 14.0506 28.8771 14.1536 28.6714 14.1982C28.4658 14.2428 28.2516 14.2271 28.0547 14.1531L20.7812 11.4187V39.9109Z" fill="#4C9DE8"/>
<path d="M29.5312 13.125H27.3438V17.5H29.5312V13.125Z" fill="#4C9DE8"/>
<path d="M42.6562 13.125H40.4687V17.5H42.6562V13.125Z" fill="#4C9DE8"/>
<path d="M33.9063 33.9062C33.7623 33.907 33.6196 33.8794 33.4864 33.825C33.3531 33.7706 33.2319 33.6904 33.1297 33.589L29.8485 30.3078L31.4016 28.7546L33.9063 31.2703L38.5985 26.5671L40.1516 28.1203L34.6828 33.589C34.5806 33.6904 34.4594 33.7706 34.3262 33.825C34.1929 33.8794 34.0502 33.907 33.9063 33.9062Z" fill="#4C9DE8"/>
<path d="M35 39.375C33.0531 39.375 31.1499 38.7977 29.5311 37.716C27.9123 36.6344 26.6506 35.097 25.9056 33.2983C25.1605 31.4996 24.9656 29.5203 25.3454 27.6108C25.7252 25.7013 26.6627 23.9473 28.0394 22.5707C29.4161 21.194 31.1701 20.2565 33.0796 19.8766C34.9891 19.4968 36.9683 19.6918 38.767 20.4368C40.5657 21.1819 42.1031 22.4436 43.1848 24.0624C44.2664 25.6811 44.8437 27.5843 44.8437 29.5313C44.8437 32.142 43.8066 34.6458 41.9606 36.4918C40.1145 38.3379 37.6107 39.375 35 39.375ZM35 21.875C33.4857 21.875 32.0055 22.324 30.7464 23.1653C29.4874 24.0066 28.506 25.2023 27.9265 26.6013C27.3471 28.0003 27.1954 29.5397 27.4908 31.0249C27.7863 32.5101 28.5155 33.8743 29.5862 34.945C30.657 36.0158 32.0212 36.745 33.5063 37.0404C34.9915 37.3358 36.5309 37.1842 37.9299 36.6047C39.3289 36.0252 40.5246 35.0439 41.3659 33.7848C42.2072 32.5258 42.6562 31.0455 42.6562 29.5313C42.6562 27.5007 41.8496 25.5533 40.4138 24.1175C38.9779 22.6816 37.0306 21.875 35 21.875Z" fill="#4C9DE8"/>
</svg>
