<svg width="70" height="70" viewBox="0 0 70 70" fill="none" xmlns="http://www.w3.org/2000/svg">
<path d="M43.75 70H15.3125C13.572 70 11.9028 69.3086 10.6721 68.0779C9.44141 66.8472 8.75 65.178 8.75 63.4375V6.5625C8.75 4.82202 9.44141 3.15281 10.6721 1.92211C11.9028 0.691399 13.572 0 15.3125 0H43.75C45.4905 0 47.1597 0.691399 48.3904 1.92211C49.6211 3.15281 50.3125 4.82202 50.3125 6.5625V17.5H48.125V6.5625C48.125 5.40218 47.6641 4.28938 46.8436 3.4689C46.0231 2.64843 44.9103 2.1875 43.75 2.1875H15.3125C14.1522 2.1875 13.0394 2.64843 12.2189 3.4689C11.3984 4.28938 10.9375 5.40218 10.9375 6.5625V63.4375C10.9375 64.5978 11.3984 65.7106 12.2189 66.5311C13.0394 67.3516 14.1522 67.8125 15.3125 67.8125H43.75C44.9103 67.8125 46.0231 67.3516 46.8436 66.5311C47.6641 65.7106 48.125 64.5978 48.125 63.4375V54.6875H50.3125V63.4375C50.3125 65.178 49.6211 66.8472 48.3904 68.0779C47.1597 69.3086 45.4905 70 43.75 70Z" fill="#0034A0"/>
<path d="M45.9375 61.25H13.125V10.9375H45.9375V17.5H43.75V13.125H15.3125V59.0625H43.75V54.6875H45.9375V61.25Z" fill="#0034A0"/>
<path d="M31.7188 63.4375H27.3438V65.625H31.7188V63.4375Z" fill="#0034A0"/>
<path d="M24.0625 5.46875H21.875V7.65625H24.0625V5.46875Z" fill="#0034A0"/>
<path d="M37.1875 5.46875H26.25V7.65625H37.1875V5.46875Z" fill="#0034A0"/>
<path d="M68.9062 24.0625H21.875V26.25H68.9062V24.0625Z" fill="#4C9DE8"/>
<path d="M67.8125 52.5H19.6875C19.1073 52.5 18.5509 52.2695 18.1407 51.8593C17.7305 51.4491 17.5 50.8927 17.5 50.3125V32.8125H67.8125V21.875H19.6875V30.625H17.5V21.875C17.5 21.2948 17.7305 20.7384 18.1407 20.3282C18.5509 19.918 19.1073 19.6875 19.6875 19.6875H67.8125C68.3927 19.6875 68.9491 19.918 69.3593 20.3282C69.7695 20.7384 70 21.2948 70 21.875V50.3125C70 50.8927 69.7695 51.4491 69.3593 51.8593C68.9491 52.2695 68.3927 52.5 67.8125 52.5ZM19.6875 35V50.3125H67.8125V35H19.6875Z" fill="#4C9DE8"/>
<path d="M38.2812 43.75H24.0625V45.9375H38.2812V43.75Z" fill="#4C9DE8"/>
<path d="M38.2812 39.375H24.0625V41.5625H38.2812V39.375Z" fill="#4C9DE8"/>
<path d="M63.4375 45.9375H42.6562V39.375H63.4375V45.9375ZM44.8438 43.75H61.25V41.5625H44.8438V43.75Z" fill="#4C9DE8"/>
</svg>
