<svg width="70" height="70" viewBox="0 0 70 70" fill="none" xmlns="http://www.w3.org/2000/svg">
<path d="M45.9376 59.0626H43.7501V50.3126C43.7447 50.247 43.7447 50.1812 43.7501 50.1157L45.9376 38.1829V28.4376C45.9376 23.4938 39.1345 17.1173 36.5204 15.0829L37.8548 13.3547C38.2814 13.6829 48.1251 21.4157 48.1251 28.4376V38.2813C48.1305 38.3468 48.1305 38.4127 48.1251 38.4782L45.9376 50.411V59.0626Z" fill="#0034A0"/>
<path d="M31.7188 39.375H13.125C12.5448 39.375 11.9884 39.1445 11.5782 38.7343C11.168 38.3241 10.9375 37.7677 10.9375 37.1875V2.1875C10.9375 1.60734 11.168 1.05094 11.5782 0.640702C11.9884 0.230466 12.5448 0 13.125 0H36.0938C36.6739 0 37.2303 0.230466 37.6405 0.640702C38.0508 1.05094 38.2812 1.60734 38.2812 2.1875V29.5312H36.0938V2.1875H13.125V37.1875H31.7188V39.375Z" fill="#4C9DE8"/>
<path d="M27.3438 59.0625H25.1562V52.8719C24.2047 51.5922 20.7812 46.6484 20.7812 41.5625H22.9688C22.9688 46.5938 27.0594 51.7672 27.1031 51.8219C27.2575 52.0143 27.3423 52.2533 27.3438 52.5V59.0625Z" fill="#0034A0"/>
<path d="M38.2813 49.2187C33.6329 49.2187 30.8657 39.3093 30.6251 35.4702L23.2751 28.1202C23.2256 28.0664 23.1816 28.0078 23.1438 27.9452C22.2141 26.5561 21.0438 23.3296 23.2751 21.0983C25.5063 18.8671 28.7438 20.0046 30.1219 20.9671C30.1845 21.0049 30.2431 21.0489 30.2969 21.0983L40.1407 30.9421L38.5876 32.4952L28.8313 22.739C28.3829 22.4655 26.2063 21.2624 24.8282 22.6515C23.4501 24.0405 24.6422 26.2171 24.9157 26.6546L32.4844 34.2233C32.5858 34.3255 32.666 34.4467 32.7204 34.58C32.7749 34.7133 32.8024 34.856 32.8016 34.9999C32.8016 38.8718 35.8641 47.0312 38.2704 47.0312L38.2813 49.2187Z" fill="#0034A0"/>
<path d="M19.6875 1.09375H17.5V38.2812H19.6875V1.09375Z" fill="#4C9DE8"/>
<path d="M24.0625 4.375H21.875V17.5H24.0625V4.375Z" fill="#4C9DE8"/>
<path d="M48.125 70H45.9375V59.0625H25.1562V70H22.9688V57.9688C22.9688 57.6787 23.084 57.4005 23.2891 57.1954C23.4942 56.9902 23.7724 56.875 24.0625 56.875H47.0312C47.3213 56.875 47.5995 56.9902 47.8046 57.1954C48.0098 57.4005 48.125 57.6787 48.125 57.9688V70Z" fill="#0034A0"/>
<path d="M29.5312 61.25H27.3438V63.4375H29.5312V61.25Z" fill="#0034A0"/>
<path d="M29.5312 65.625H27.3438V67.8125H29.5312V65.625Z" fill="#0034A0"/>
<path d="M28.4375 4.375H26.25V8.75H28.4375V4.375Z" fill="#4C9DE8"/>
<path d="M28.4375 10.9375H26.25V13.125H28.4375V10.9375Z" fill="#4C9DE8"/>
<path d="M20.7812 65.625H4.375C3.21468 65.625 2.10188 65.1641 1.2814 64.3436C0.460933 63.5231 0 62.4103 0 61.25V8.75C0 7.58968 0.460933 6.47688 1.2814 5.6564C2.10188 4.83593 3.21468 4.375 4.375 4.375H8.75V6.5625H4.375C3.79484 6.5625 3.23844 6.79297 2.8282 7.2032C2.41797 7.61344 2.1875 8.16984 2.1875 8.75V61.25C2.1875 61.8302 2.41797 62.3866 2.8282 62.7968C3.23844 63.207 3.79484 63.4375 4.375 63.4375H20.7812V65.625Z" fill="#0034A0"/>
<path d="M56.875 65.625H50.3125V63.4375H56.875C57.4552 63.4375 58.0115 63.207 58.4218 62.7968C58.832 62.3866 59.0625 61.8302 59.0625 61.25V8.75C59.0625 8.16984 58.832 7.61344 58.4218 7.2032C58.0115 6.79297 57.4552 6.5625 56.875 6.5625H40.4688V4.375H56.875C58.0353 4.375 59.1481 4.83593 59.9686 5.6564C60.7891 6.47688 61.25 7.58968 61.25 8.75V61.25C61.25 62.4103 60.7891 63.5231 59.9686 64.3436C59.1481 65.1641 58.0353 65.625 56.875 65.625Z" fill="#0034A0"/>
<path d="M60.1562 8.75H40.4688V10.9375H60.1562V8.75Z" fill="#0034A0"/>
<path d="M20.7812 59.0625H1.09375V61.25H20.7812V59.0625Z" fill="#0034A0"/>
</svg>
