<svg width="70" height="71" viewBox="0 0 70 71" fill="none" xmlns="http://www.w3.org/2000/svg">
<path d="M45.9377 59.4604H43.7502V50.7104C43.7448 50.6449 43.7448 50.579 43.7502 50.5135L45.9377 38.5807V28.8354C45.9377 23.8916 39.1346 17.5151 36.5205 15.4807L37.8549 13.7526C38.2814 14.0807 48.1252 21.8135 48.1252 28.8354V38.6791C48.1306 38.7446 48.1306 38.8105 48.1252 38.876L45.9377 50.8088V59.4604Z" fill="#0034A0"/>
<path d="M31.7188 39.7729H13.125C12.5448 39.7729 11.9884 39.5425 11.5782 39.1322C11.168 38.722 10.9375 38.1656 10.9375 37.5854V2.58545C10.9375 2.00529 11.168 1.44889 11.5782 1.03865C11.9884 0.628416 12.5448 0.397949 13.125 0.397949H36.0938C36.6739 0.397949 37.2303 0.628416 37.6405 1.03865C38.0508 1.44889 38.2812 2.00529 38.2812 2.58545V29.9292H36.0938V2.58545H13.125V37.5854H31.7188V39.7729Z" fill="#4C9DE8"/>
<path d="M27.3438 59.4604H25.1562V53.2698C24.2047 51.9901 20.7812 47.0464 20.7812 41.9604H22.9688C22.9688 46.9917 27.0594 52.1651 27.1031 52.2198C27.2575 52.4123 27.3423 52.6512 27.3438 52.8979V59.4604Z" fill="#0034A0"/>
<path d="M38.2811 49.6167C33.6327 49.6167 30.8655 39.7073 30.6249 35.8683L23.2749 28.5183C23.2254 28.4645 23.1814 28.4058 23.1436 28.3433C22.2139 26.9542 21.0436 23.7277 23.2749 21.4964C25.5061 19.2652 28.7436 20.4027 30.1217 21.3652C30.1843 21.403 30.243 21.4469 30.2968 21.4964L40.1405 31.3402L38.5874 32.8933L28.8311 23.137C28.3827 22.8636 26.2061 21.6605 24.828 23.0495C23.4499 24.4386 24.6421 26.6152 24.9155 27.0527L32.4843 34.6214C32.5856 34.7236 32.6658 34.8448 32.7202 34.9781C32.7747 35.1113 32.8023 35.254 32.8014 35.398C32.8014 39.2698 35.8639 47.4292 38.2702 47.4292L38.2811 49.6167Z" fill="#0034A0"/>
<path d="M19.6875 1.4917H17.5V38.6792H19.6875V1.4917Z" fill="#4C9DE8"/>
<path d="M24.0625 4.77295H21.875V17.8979H24.0625V4.77295Z" fill="#4C9DE8"/>
<path d="M48.125 70.3979H45.9375V59.4604H25.1562V70.3979H22.9688V58.3667C22.9688 58.0766 23.084 57.7984 23.2891 57.5933C23.4942 57.3882 23.7724 57.2729 24.0625 57.2729H47.0312C47.3213 57.2729 47.5995 57.3882 47.8046 57.5933C48.0098 57.7984 48.125 58.0766 48.125 58.3667V70.3979Z" fill="#0034A0"/>
<path d="M29.5312 61.6479H27.3438V63.8354H29.5312V61.6479Z" fill="#0034A0"/>
<path d="M29.5312 66.0229H27.3438V68.2104H29.5312V66.0229Z" fill="#0034A0"/>
<path d="M28.4375 4.77295H26.25V9.14795H28.4375V4.77295Z" fill="#4C9DE8"/>
<path d="M28.4375 11.3354H26.25V13.5229H28.4375V11.3354Z" fill="#4C9DE8"/>
<path d="M20.7812 66.0229H4.375C3.21468 66.0229 2.10188 65.562 1.2814 64.7415C0.460933 63.9211 0 62.8083 0 61.6479V9.14795C0 7.98763 0.460933 6.87483 1.2814 6.05435C2.10188 5.23388 3.21468 4.77295 4.375 4.77295H8.75V6.96045H4.375C3.79484 6.96045 3.23844 7.19092 2.8282 7.60115C2.41797 8.01139 2.1875 8.56779 2.1875 9.14795V61.6479C2.1875 62.2281 2.41797 62.7845 2.8282 63.1947C3.23844 63.605 3.79484 63.8354 4.375 63.8354H20.7812V66.0229Z" fill="#0034A0"/>
<path d="M56.875 66.0229H50.3125V63.8354H56.875C57.4552 63.8354 58.0115 63.605 58.4218 63.1947C58.832 62.7845 59.0625 62.2281 59.0625 61.6479V9.14795C59.0625 8.56779 58.832 8.01139 58.4218 7.60115C58.0115 7.19092 57.4552 6.96045 56.875 6.96045H40.4688V4.77295H56.875C58.0353 4.77295 59.1481 5.23388 59.9686 6.05435C60.7891 6.87483 61.25 7.98763 61.25 9.14795V61.6479C61.25 62.8083 60.7891 63.9211 59.9686 64.7415C59.1481 65.562 58.0353 66.0229 56.875 66.0229Z" fill="#0034A0"/>
<path d="M60.1562 9.14795H40.4688V11.3354H60.1562V9.14795Z" fill="#0034A0"/>
<path d="M20.7812 59.4604H1.09375V61.6479H20.7812V59.4604Z" fill="#0034A0"/>
</svg>
