<svg width="70" height="70" viewBox="0 0 70 70" fill="none" xmlns="http://www.w3.org/2000/svg">
<path d="M15.3125 35H13.125V16.4062C13.125 15.536 13.4707 14.7014 14.0861 14.0861C14.7014 13.4707 15.536 13.125 16.4062 13.125H28.4375V15.3125H16.4062C16.1162 15.3125 15.838 15.4277 15.6329 15.6329C15.4277 15.838 15.3125 16.1162 15.3125 16.4062V35Z" fill="#0034A0"/>
<path d="M35 56.875H16.4062C15.536 56.875 14.7014 56.5293 14.0861 55.9139C13.4707 55.2986 13.125 54.464 13.125 53.5937V41.5625H15.3125V53.5937C15.3125 53.8838 15.4277 54.162 15.6329 54.3671C15.838 54.5722 16.1162 54.6875 16.4062 54.6875H35V56.875Z" fill="#0034A0"/>
<path d="M53.5937 56.875H41.5625V54.6875H53.5937C53.8838 54.6875 54.162 54.5722 54.3671 54.3671C54.5723 54.162 54.6875 53.8838 54.6875 53.5937V35H56.875V53.5937C56.875 54.464 56.5293 55.2986 55.9139 55.9139C55.2986 56.5293 54.464 56.875 53.5937 56.875Z" fill="#0034A0"/>
<path d="M56.875 28.4375H54.6875V16.4062C54.6875 16.1162 54.5723 15.838 54.3671 15.6329C54.162 15.4277 53.8838 15.3125 53.5937 15.3125H35V13.125H53.5937C54.464 13.125 55.2986 13.4707 55.9139 14.0861C56.5293 14.7014 56.875 15.536 56.875 16.4062V28.4375Z" fill="#0034A0"/>
<path d="M19.6875 17.5H17.5V19.6875H19.6875V17.5Z" fill="#4C9DE8"/>
<path d="M52.5 17.5H50.3125V19.6875H52.5V17.5Z" fill="#4C9DE8"/>
<path d="M19.6875 50.3125H17.5V52.5H19.6875V50.3125Z" fill="#4C9DE8"/>
<path d="M52.5 50.3125H50.3125V52.5H52.5V50.3125Z" fill="#4C9DE8"/>
<path d="M35 15.3125C33.7021 15.3125 32.4333 14.9276 31.3541 14.2065C30.2749 13.4854 29.4337 12.4605 28.937 11.2614C28.4403 10.0622 28.3104 8.74273 28.5636 7.46973C28.8168 6.19673 29.4418 5.02738 30.3596 4.1096C31.2774 3.19182 32.4467 2.56682 33.7197 2.3136C34.9927 2.06039 36.3122 2.19034 37.5114 2.68704C38.7105 3.18374 39.7354 4.02485 40.4565 5.10405C41.1776 6.18325 41.5625 7.45206 41.5625 8.74999C41.5625 10.4905 40.8711 12.1597 39.6404 13.3904C38.4097 14.6211 36.7405 15.3125 35 15.3125ZM35 4.375C34.1347 4.375 33.2888 4.6316 32.5694 5.11233C31.8499 5.59306 31.2892 6.27633 30.958 7.07576C30.6269 7.87518 30.5403 8.75485 30.7091 9.60352C30.8779 10.4522 31.2946 11.2317 31.9064 11.8436C32.5183 12.4554 33.2978 12.8721 34.1465 13.0409C34.9951 13.2097 35.8748 13.1231 36.6742 12.792C37.4737 12.4608 38.157 11.9001 38.6377 11.1806C39.1184 10.4612 39.375 9.61529 39.375 8.74999C39.375 7.58967 38.9141 6.47687 38.0936 5.6564C37.2731 4.83593 36.1603 4.375 35 4.375Z" fill="#0034A0"/>
<path d="M61.25 41.5625C59.9521 41.5625 58.6833 41.1776 57.6041 40.4565C56.5249 39.7354 55.6837 38.7105 55.187 37.5114C54.6903 36.3122 54.5604 34.9927 54.8136 33.7197C55.0668 32.4467 55.6918 31.2774 56.6096 30.3596C57.5274 29.4418 58.6967 28.8168 59.9697 28.5636C61.2427 28.3104 62.5622 28.4403 63.7614 28.937C64.9605 29.4337 65.9854 30.2749 66.7065 31.3541C67.4276 32.4332 67.8125 33.7021 67.8125 35C67.8125 36.7405 67.1211 38.4097 65.8904 39.6404C64.6597 40.8711 62.9905 41.5625 61.25 41.5625ZM61.25 30.625C60.3847 30.625 59.5388 30.8816 58.8194 31.3623C58.0999 31.8431 57.5392 32.5263 57.208 33.3258C56.8769 34.1252 56.7903 35.0049 56.9591 35.8535C57.1279 36.7022 57.5446 37.4817 58.1564 38.0936C58.7683 38.7054 59.5478 39.1221 60.3965 39.2909C61.2451 39.4597 62.1248 39.3731 62.9242 39.042C63.7237 38.7108 64.407 38.1501 64.8877 37.4306C65.3684 36.7112 65.625 35.8653 65.625 35C65.625 33.8397 65.1641 32.7269 64.3436 31.9064C63.5231 31.0859 62.4103 30.625 61.25 30.625Z" fill="#0034A0"/>
<path d="M35 67.8125C33.7021 67.8125 32.4333 67.4276 31.3541 66.7065C30.2749 65.9854 29.4337 64.9605 28.937 63.7614C28.4403 62.5622 28.3104 61.2427 28.5636 59.9697C28.8168 58.6967 29.4418 57.5274 30.3596 56.6096C31.2774 55.6918 32.4467 55.0668 33.7197 54.8136C34.9927 54.5604 36.3122 54.6903 37.5114 55.187C38.7105 55.6837 39.7354 56.5249 40.4565 57.6041C41.1776 58.6832 41.5625 59.9521 41.5625 61.25C41.5625 62.9905 40.8711 64.6597 39.6404 65.8904C38.4097 67.1211 36.7405 67.8125 35 67.8125ZM35 56.875C34.1347 56.875 33.2888 57.1316 32.5694 57.6123C31.8499 58.0931 31.2892 58.7763 30.958 59.5758C30.6269 60.3752 30.5403 61.2549 30.7091 62.1035C30.8779 62.9522 31.2946 63.7317 31.9064 64.3436C32.5183 64.9554 33.2978 65.3721 34.1465 65.5409C34.9951 65.7097 35.8748 65.6231 36.6742 65.292C37.4737 64.9608 38.157 64.4001 38.6377 63.6806C39.1184 62.9612 39.375 62.1153 39.375 61.25C39.375 60.0897 38.9141 58.9769 38.0936 58.1564C37.2731 57.3359 36.1603 56.875 35 56.875Z" fill="#0034A0"/>
<path d="M8.75 41.5625C7.45206 41.5625 6.18327 41.1776 5.10408 40.4565C4.02488 39.7354 3.18374 38.7105 2.68704 37.5114C2.19034 36.3122 2.06038 34.9927 2.3136 33.7197C2.56681 32.4467 3.19183 31.2774 4.10961 30.3596C5.0274 29.4418 6.19672 28.8168 7.46972 28.5636C8.74272 28.3104 10.0622 28.4403 11.2614 28.937C12.4605 29.4337 13.4854 30.2749 14.2065 31.3541C14.9276 32.4332 15.3125 33.7021 15.3125 35C15.3125 36.7405 14.6211 38.4097 13.3904 39.6404C12.1597 40.8711 10.4905 41.5625 8.75 41.5625ZM8.75 30.625C7.88471 30.625 7.03885 30.8816 6.31938 31.3623C5.59992 31.8431 5.03916 32.5263 4.70803 33.3258C4.3769 34.1252 4.29026 35.0049 4.45907 35.8535C4.62788 36.7022 5.04455 37.4817 5.65641 38.0936C6.26826 38.7054 7.04781 39.1221 7.89648 39.2909C8.74514 39.4597 9.62481 39.3731 10.4242 39.042C11.2237 38.7108 11.907 38.1501 12.3877 37.4306C12.8684 36.7112 13.125 35.8653 13.125 35C13.125 33.8397 12.6641 32.7269 11.8436 31.9064C11.0231 31.0859 9.91032 30.625 8.75 30.625Z" fill="#0034A0"/>
<path d="M35 70C28.0777 70 21.3108 67.9473 15.5551 64.1014C9.79934 60.2556 5.3133 54.7894 2.66423 48.3939C0.0151648 41.9985 -0.677952 34.9612 0.672531 28.1719C2.02301 21.3825 5.35644 15.1461 10.2513 10.2513C15.1461 5.35645 21.3825 2.02301 28.1718 0.672531C34.9612 -0.677952 41.9985 0.0151648 48.3939 2.66423C54.7893 5.3133 60.2556 9.79932 64.1014 15.555C67.9473 21.3108 70 28.0777 70 35C70 44.2826 66.3125 53.185 59.7487 59.7487C53.185 66.3125 44.2826 70 35 70ZM35 2.18752C28.5103 2.18752 22.1663 4.11193 16.7704 7.71742C11.3744 11.3229 7.16872 16.4475 4.68522 22.4432C2.20172 28.4389 1.55192 35.0364 2.818 41.4014C4.08408 47.7664 7.20916 53.613 11.7981 58.2019C16.387 62.7909 22.2336 65.9159 28.5986 67.182C34.9636 68.4481 41.5611 67.7983 47.5568 65.3148C53.5525 62.8313 58.6771 58.6257 62.2826 53.2297C65.8881 47.8337 67.8125 41.4897 67.8125 35C67.8125 26.2976 64.3555 17.9516 58.2019 11.7981C52.0484 5.64455 43.7024 2.18752 35 2.18752Z" fill="#0034A0"/>
<path d="M26.5673 41.2453L20.3329 35L26.5673 28.7546L28.1204 30.3078L23.4173 35L28.1204 39.6921L26.5673 41.2453Z" fill="#4C9DE8"/>
<path d="M43.4328 41.2453L41.8796 39.6921L46.5828 35L41.8796 30.3078L43.4328 28.7546L49.6671 35L43.4328 41.2453Z" fill="#4C9DE8"/>
<path d="M39.4991 24.6573L28.5638 44.3445L30.4761 45.4067L41.4114 25.7195L39.4991 24.6573Z" fill="#4C9DE8"/>
</svg>
