<svg width="70" height="70" viewBox="0 0 70 70" fill="none" xmlns="http://www.w3.org/2000/svg">
<path d="M65.6309 54.6946H63.4464V9.84394C63.4464 8.03697 61.9765 6.56712 60.1695 6.56712H57.985V4.38257H60.1695C63.1901 4.38257 65.6444 6.83682 65.6444 9.85743V54.7081L65.6309 54.6946Z" fill="#0034A0"/>
<path d="M60.1561 65.6308H15.3054V63.4462H60.1561C61.963 63.4462 63.4329 61.9764 63.4329 60.1694V57.9849H65.6174V60.1694C65.6174 63.19 63.1632 65.6443 60.1426 65.6443L60.1561 65.6308Z" fill="#0034A0"/>
<path d="M12.0285 65.631H9.84394C6.82333 65.631 4.36908 63.1767 4.36908 60.1561V15.3054H6.55363V60.1561C6.55363 61.9631 8.02348 63.4329 9.83045 63.4329H12.015V65.6175L12.0285 65.631Z" fill="#0034A0"/>
<path d="M6.56724 12.0286H4.38269V9.844C4.38269 6.82339 6.83694 4.36914 9.85755 4.36914H54.7083V6.55369H9.85755C8.05058 6.55369 6.58073 8.02354 6.58073 9.83052V12.0151L6.56724 12.0286Z" fill="#0034A0"/>
<path d="M51.0944 10.6127L49.5436 9.06199L53.1441 5.46153L49.5436 1.86106L51.0944 0.310303L55.4635 4.6794C55.895 5.11092 55.895 5.79865 55.4635 6.23016L51.0944 10.5993V10.6127Z" fill="#0034A0"/>
<path d="M18.9194 69.6764L14.5503 65.3073C14.1188 64.8758 14.1188 64.1881 14.5503 63.7566L18.9194 59.3875L20.4702 60.9382L16.8697 64.5387L20.4702 68.1391L18.9194 69.6899V69.6764Z" fill="#0034A0"/>
<path d="M64.5389 55.787C64.2557 55.787 63.9725 55.6791 63.7702 55.4633L59.4011 51.0942L60.9519 49.5435L64.5523 53.1439L68.1528 49.5435L69.7036 51.0942L65.3345 55.4633C65.1187 55.6791 64.8355 55.787 64.5658 55.787H64.5389Z" fill="#0034A0"/>
<path d="M9.07554 20.4566L5.47507 16.8562L1.87461 20.4566L0.323853 18.9059L4.69295 14.5368C5.12447 14.1053 5.8122 14.1053 6.24371 14.5368L10.6128 18.9059L9.06205 20.4566H9.07554Z" fill="#0034A0"/>
<path d="M67.8154 47.0353H69.9999V17.5034H67.8154V47.0353Z" fill="#0034A0"/>
<path d="M6.10352e-05 52.4965H2.18461V22.9646H6.10352e-05V52.4965Z" fill="#0034A0"/>
<path d="M22.9647 70H52.4966V67.8154H22.9647V70Z" fill="#0034A0"/>
<path d="M17.5034 2.18455H47.0353V0H17.5034V2.18455Z" fill="#0034A0"/>
<path d="M63.4464 70H65.6309V67.8154H63.4464V70Z" fill="#0034A0"/>
<path d="M59.0637 70H61.2483V67.8154H59.0637V70Z" fill="#0034A0"/>
<path d="M54.6946 70H56.8792V67.8154H54.6946V70Z" fill="#0034A0"/>
<path d="M13.1208 2.18455H15.3188V0H13.1208V2.18455Z" fill="#0034A0"/>
<path d="M8.75171 2.18455H10.9363V0H8.75171V2.18455Z" fill="#0034A0"/>
<path d="M4.36908 2.18455H6.56712V0H4.36908V2.18455Z" fill="#0034A0"/>
<path d="M6.10352e-05 65.6308H2.18461V63.4463H6.10352e-05V65.6308Z" fill="#0034A0"/>
<path d="M6.10352e-05 61.2483H2.18461V59.0637H6.10352e-05V61.2483Z" fill="#0034A0"/>
<path d="M6.10352e-05 56.8791H2.18461V54.6946H6.10352e-05V56.8791Z" fill="#0034A0"/>
<path d="M67.8154 15.3189H69.9999V13.1208H67.8154V15.3189Z" fill="#0034A0"/>
<path d="M67.8154 10.9363H69.9999V8.75171H67.8154V10.9363Z" fill="#0034A0"/>
<path d="M67.8154 6.56718H69.9999V4.36914H67.8154V6.56718Z" fill="#0034A0"/>
<path d="M35.6811 50.3121C36.0587 50.3121 36.3958 50.4874 36.5981 50.7975L39.4838 55.288C40.4143 55.0857 41.3178 54.816 42.1943 54.4924V49.1389C42.1943 48.7478 42.3966 48.3972 42.7337 48.195C43.0978 47.9792 43.4619 47.7499 43.799 47.5072C44.1226 47.278 44.5272 47.251 44.8778 47.3993L49.7189 49.6109C50.3931 48.9366 51.0134 48.2219 51.5798 47.4802L48.694 42.9898C48.4782 42.6661 48.4648 42.2481 48.6401 41.8975C48.8289 41.5199 49.0176 41.1289 49.1795 40.7378C49.3278 40.3737 49.6514 40.1175 50.0425 40.0636L55.3016 39.3084C55.5039 38.3914 55.6252 37.4475 55.7061 36.5036L50.8786 34.3055C50.528 34.1437 50.2852 33.8066 50.2448 33.4155C50.2043 32.984 50.1234 32.566 50.056 32.1479C49.9886 31.7704 50.1234 31.3793 50.4201 31.1231L54.452 27.6305C54.1149 26.754 53.7239 25.891 53.2789 25.0549L48.0063 25.8101C47.6152 25.864 47.2376 25.7157 46.9949 25.4055C46.7252 25.0684 46.4555 24.7582 46.1588 24.4481C45.8892 24.1649 45.7948 23.7604 45.9026 23.3828L47.4129 18.2585C46.6713 17.7056 45.8622 17.1932 45.0396 16.7347L41.0076 20.2273C40.711 20.4835 40.3064 20.5644 39.9423 20.4296C39.5378 20.2947 39.1332 20.1869 38.7287 20.079C38.3511 19.9846 38.0544 19.7014 37.9466 19.3238L36.4363 14.1861C35.4923 14.1187 34.5619 14.1187 33.6179 14.1861L32.1076 19.3238C31.9997 19.7014 31.7031 19.9846 31.3255 20.079C30.9075 20.1869 30.5029 20.2947 30.1118 20.4296C29.7478 20.5509 29.3432 20.47 29.0465 20.2273L25.028 16.7347C24.192 17.1932 23.3964 17.7056 22.6547 18.2585L24.165 23.3828C24.2729 23.7604 24.1785 24.1649 23.9088 24.4481C23.6121 24.7582 23.3424 25.0684 23.0727 25.4055C22.83 25.7022 22.4524 25.864 22.0614 25.8101L16.7888 25.0549C16.3303 25.891 15.9392 26.7405 15.6156 27.6305L19.6476 31.1231C19.9442 31.3793 20.0791 31.7704 20.0117 32.1479C19.9308 32.566 19.8633 32.984 19.8229 33.4155C19.7824 33.8066 19.5397 34.1437 19.1891 34.3055L14.3615 36.5036C14.4289 37.4475 14.5638 38.3914 14.7661 39.3084L20.0252 40.0636C20.4027 40.1175 20.7399 40.3737 20.8882 40.7378C21.05 41.1289 21.2253 41.5199 21.4276 41.8975C21.6029 42.2481 21.5894 42.6527 21.3736 42.9898L18.4879 47.4802C19.0542 48.2219 19.6745 48.9366 20.3488 49.6109L25.1899 47.3993C25.5405 47.2375 25.9585 47.278 26.2687 47.4937C26.6193 47.7365 26.9699 47.9657 27.334 48.1815C27.6711 48.3837 27.8734 48.7343 27.8734 49.1254V54.4654C28.7499 54.7891 29.6534 55.0453 30.5838 55.2475L33.4696 50.7436C33.6719 50.42 34.0359 50.2177 34.4405 50.2446L34.7237 50.2581C34.9529 50.2716 35.1822 50.2851 35.4114 50.2716H35.6946C35.7081 50.2716 35.7216 50.2716 35.735 50.2716L35.6811 50.3121ZM38.9714 57.5939C38.6073 57.5939 38.2567 57.4051 38.0544 57.095L35.1012 52.5101C35.0338 52.5101 34.9664 52.5101 34.899 52.5101L31.9458 57.095C31.7031 57.4725 31.2581 57.6613 30.8265 57.5804C29.2488 57.2972 27.725 56.8522 26.2956 56.2589C25.8911 56.0836 25.6214 55.6925 25.6214 55.2475V49.7727C25.5674 49.7457 25.5135 49.7053 25.473 49.6783L20.5106 51.9437C20.1061 52.1325 19.6341 52.0516 19.3105 51.7415C18.1373 50.6492 17.0989 49.449 16.2089 48.168C15.9527 47.8039 15.9392 47.3184 16.182 46.9543L19.1352 42.356C19.1082 42.3021 19.0812 42.2481 19.0542 42.1807L13.6468 41.4121C13.2018 41.3446 12.8512 41.021 12.7433 40.5895C12.3657 39.0657 12.1365 37.488 12.0691 35.8967C12.0556 35.4517 12.2983 35.0472 12.7029 34.8584L17.6518 32.5929C17.6653 32.5255 17.6653 32.4716 17.6788 32.4042L13.5524 28.8307C13.2153 28.534 13.0939 28.0755 13.2288 27.6575C13.7277 26.1741 14.3885 24.7313 15.1976 23.3558C15.4268 22.9782 15.8583 22.7625 16.2898 22.8299L21.6973 23.612C21.7377 23.5716 21.7782 23.5176 21.8186 23.4772L20.2679 18.2316C20.1465 17.8 20.2814 17.3415 20.632 17.0719C21.8456 16.1009 23.1806 15.2379 24.61 14.5232C25.0011 14.3209 25.4865 14.3749 25.8237 14.6715L29.95 18.2585C30.004 18.245 30.0714 18.2181 30.1253 18.2046L31.6626 12.9455C31.784 12.514 32.1615 12.2038 32.6065 12.1634C34.1708 12.0015 35.762 12.0015 37.3263 12.1634C37.7713 12.2038 38.1353 12.514 38.2702 12.9455L39.8075 18.2046C39.8614 18.2181 39.9288 18.245 39.9828 18.2585L44.1091 14.6715C44.4463 14.3749 44.9317 14.3209 45.3228 14.5232C46.7522 15.2514 48.0872 16.1009 49.3008 17.0719C49.6514 17.355 49.7863 17.8135 49.6649 18.2316L48.1142 23.4772C48.1546 23.5176 48.1951 23.5716 48.2355 23.612L53.643 22.8299C54.0745 22.776 54.5195 22.9782 54.7352 23.3558C55.5443 24.7313 56.2051 26.1741 56.704 27.6575C56.8524 28.0755 56.7175 28.5475 56.3804 28.8307L52.254 32.4042C52.2675 32.4716 52.2675 32.5255 52.281 32.5929L57.2299 34.8584C57.6345 35.0472 57.8907 35.4517 57.8637 35.8967C57.7963 37.4745 57.5805 39.0522 57.1895 40.5895C57.0816 41.021 56.7175 41.3446 56.286 41.4121L50.8786 42.1807C50.8516 42.2346 50.8246 42.2886 50.7976 42.356L53.7508 46.9543C53.9936 47.3319 53.9801 47.8039 53.7239 48.168C52.8339 49.4356 51.7955 50.6357 50.6223 51.7415C50.2987 52.0516 49.8267 52.119 49.4222 51.9437L44.4598 49.6783C44.4058 49.7053 44.3519 49.7457 44.3114 49.7727V55.2475C44.3114 55.6925 44.0417 56.0971 43.6372 56.2589C42.2078 56.8522 40.6705 57.2838 39.1063 57.5804C39.0388 57.5939 38.9714 57.5939 38.904 57.5939H38.9714Z" fill="#4C9DE8"/>
<path d="M35.0068 25.1628C29.5859 25.1628 25.1629 29.5859 25.1629 35.0068C25.1629 40.4412 29.5859 44.8507 35.0068 44.8507C40.4278 44.8507 44.8508 40.4412 44.8508 35.0068C44.8508 29.5859 40.4278 25.1628 35.0068 25.1628ZM35.0068 47.0353C28.3723 47.0353 22.9783 41.6413 22.9783 35.0068C22.9783 28.3722 28.3723 22.9783 35.0068 22.9783C41.6414 22.9783 47.0353 28.3722 47.0353 35.0068C47.0353 41.6413 41.6414 47.0353 35.0068 47.0353Z" fill="#4C9DE8"/>
<path d="M35.0068 37.1914C33.8066 37.1914 32.8222 36.207 32.8222 35.0068C32.8222 33.8067 33.8066 32.8223 35.0068 32.8223C36.2069 32.8223 37.1913 33.8067 37.1913 35.0068C37.1913 36.2205 36.2069 37.1914 35.0068 37.1914Z" fill="#4C9DE8"/>
<path d="M35.0069 32.8088C33.8067 32.8088 32.8223 33.7932 32.8223 34.9933C32.8223 36.1935 33.8067 37.1779 35.0069 37.1779C36.207 37.1779 37.1914 36.1935 37.1914 34.9933C37.1914 33.7932 36.207 32.8088 35.0069 32.8088ZM35.0069 39.3759C32.5931 39.3759 30.6378 37.4071 30.6378 35.0068C30.6378 32.593 32.6065 30.6377 35.0069 30.6377C37.4206 30.6377 39.376 32.6065 39.376 35.0068C39.376 37.4206 37.4072 39.3759 35.0069 39.3759Z" fill="#4C9DE8"/>
</svg>
