<svg width="64" height="64" viewBox="0 0 64 64" fill="none" xmlns="http://www.w3.org/2000/svg">
<g clip-path="url(#clip0_85_68850)">
<mask id="mask0_85_68850" style="mask-type:luminance" maskUnits="userSpaceOnUse" x="0" y="0" width="64" height="64">
<path d="M64 0H0V64H64V0Z" fill="white"/>
</mask>
<g mask="url(#mask0_85_68850)">
<path d="M31.2148 2.60622C32.6099 1.87891 34.3123 3.56623 33.5699 4.9599C33.1398 6.09577 31.5077 6.39785 30.6742 5.53206C29.792 4.70083 30.08 3.05832 31.2148 2.60622ZM16.2114 4.22313C17.0588 3.8742 18.1314 4.65065 18.0449 5.5743C18.1348 6.57683 16.909 7.31513 16.0453 6.83846C14.9009 6.39529 15.0317 4.53724 16.2114 4.22313ZM46.9398 6.86662C45.6157 6.70662 45.4064 4.62479 46.6813 4.20419C47.6701 3.72188 48.577 4.62633 48.7216 5.56355C48.5142 6.3638 47.8442 7.09804 46.9398 6.86662ZM19.6247 10.6078C21.0414 9.7118 23.0628 11.0461 22.8449 12.6917C22.7714 14.3531 20.5644 15.3157 19.3195 14.1924C18.1163 13.3102 18.2981 11.2855 19.6247 10.6078ZM41.2506 11.5591C41.8832 9.93196 44.4442 9.88076 45.1635 11.468C45.8746 12.7019 45 14.23 43.7331 14.6493C42.055 14.9627 40.4608 13.1474 41.2506 11.5591ZM29.408 14.5564C29.3942 13.1563 30.6693 12.1131 32 12.0179C32.8826 12.1948 33.8445 12.5708 34.223 13.4615C34.9286 14.6903 34.3021 16.3814 33.0272 16.9454C32.4445 17.2721 31.755 17.1502 31.1201 17.1115C30.1496 16.6351 29.332 15.7005 29.408 14.5564ZM7.096 16.5962C8.39008 15.8006 10.136 17.2526 9.64602 18.6583C9.37619 19.8743 7.74163 20.3689 6.80723 19.5927C5.80883 18.8654 5.96781 17.1164 7.096 16.5962ZM55.008 16.5937C56.1059 15.7412 57.9178 16.7191 57.7869 18.1041C57.8608 19.3682 56.2941 20.3213 55.2042 19.6706C54.0038 19.1312 53.8813 17.2856 55.008 16.5937ZM35.6826 19.1091C37.4944 18.4584 39.6464 19.2371 40.679 20.8525C42.0413 22.8273 41.3165 25.8346 39.2026 26.9676C37.0122 28.3078 33.8138 27.1724 33.0048 24.7258C32.0864 22.536 33.4243 19.7955 35.6826 19.1091ZM25.0521 19.326C27.0602 18.3788 29.7626 19.1724 30.7325 21.2273C31.874 23.2267 30.9914 26.0107 28.9508 27.0429C26.9076 28.2034 24.0251 27.3245 23.0372 25.1769C21.9274 23.1012 22.912 20.2819 25.0521 19.326ZM14.4079 22.965C14.5615 21.6712 15.7811 20.8295 17.0124 20.7422C18.3393 20.9022 19.3991 21.9326 19.5433 23.2766C19.4562 24.6058 18.4289 25.9052 17.0204 25.897C15.4705 26.0304 14.1119 24.488 14.4079 22.965ZM45.8474 21.0245C47.4384 20.0983 49.6477 21.4467 49.577 23.2746C49.6861 25.2112 47.241 26.577 45.6566 25.4401C44.0109 24.4941 44.1389 21.8302 45.8474 21.0245ZM20.726 27.8493C22.5868 27.3373 24.7145 28.2144 25.6271 29.9247C26.6255 31.6463 26.2182 34.0378 24.6656 35.3008C22.6741 37.153 19.0016 36.4093 17.9417 33.8816C16.7239 31.5644 18.2031 28.4594 20.726 27.8493ZM40.889 27.8396C42.6976 27.3222 44.8227 28.0188 45.7955 29.6675C47.0813 31.5524 46.4675 34.3635 44.5533 35.5786C42.5478 36.9894 39.4422 36.2486 38.3389 34.0426C37.0013 31.7605 38.3472 28.5356 40.889 27.8396ZM8.75744 29.99C10.3649 29.382 12.1466 31.1558 11.4954 32.7494C11.0978 34.201 9.05184 34.7386 7.99482 33.6675C6.75808 32.6624 7.21581 30.426 8.75744 29.99ZM52.3264 32.3027C52.28 30.9715 53.2544 29.7914 54.6202 29.7171C55.721 29.8915 56.7914 30.7795 56.7043 31.9779C56.8051 33.5606 54.8979 34.6365 53.5494 33.8928C52.9174 33.5715 52.5933 32.9238 52.3264 32.3027ZM0.854439 30.7706C1.82135 30.3484 3.01765 31.1866 2.79697 32.2605C2.74577 33.4765 0.949927 33.944 0.29047 32.928C-0.292443 32.2237 0.0562295 31.1356 0.854439 30.7706ZM61.8285 30.745C62.5094 30.2601 63.6019 30.6085 63.8717 31.4042C64.3293 32.273 63.4902 33.4634 62.5123 33.3165C61.1392 33.4416 60.6947 31.3494 61.8285 30.745ZM25.9788 36.5818C28.5235 35.92 31.2589 38.041 31.275 40.6621C31.4412 43.3098 28.747 45.6579 26.1422 45.0464C24.1287 44.7222 22.549 42.7827 22.6142 40.7478C22.6089 38.8022 24.077 36.9936 25.9788 36.5818ZM36.0566 36.5763C38.6394 35.8544 41.456 38.0144 41.415 40.6954C41.5517 43.2941 38.9414 45.5629 36.391 45.0474C33.991 44.737 32.2205 42.1002 32.8902 39.7712C33.2285 38.2192 34.5251 36.9571 36.0566 36.5763ZM16.6261 38.1891C18.4133 37.8845 20.0888 39.8787 19.3641 41.575C18.8354 43.3837 16.2037 43.8739 15.0402 42.3968C13.6755 40.9782 14.6943 38.385 16.6261 38.1891ZM46.1795 38.2714C47.7731 37.6042 49.7293 38.9824 49.6067 40.712C49.6707 42.6163 47.2557 43.929 45.6973 42.8176C43.9309 41.8192 44.2534 38.8838 46.1795 38.2714ZM54.4403 46.5568C53.8163 45.3936 54.9498 43.8522 56.2413 44.0672C56.8842 44.0566 57.3338 44.5629 57.7453 44.9888C57.8298 45.6784 57.9715 46.4992 57.3994 47.0317C56.6224 48.015 54.8624 47.7331 54.4403 46.5568ZM7.09114 44.3914C8.29818 43.5878 10.0351 44.7862 9.76378 46.1974C9.61939 47.4454 8.04858 48.1587 7.01178 47.4518C5.90048 46.809 5.94144 44.9773 7.09114 44.3914ZM30.9376 47.0051C32.5178 46.3078 34.5309 47.6835 34.3811 49.424C34.4982 51.3472 32.0083 52.6794 30.4643 51.5235C28.7491 50.5315 29.0332 47.6147 30.9376 47.0051ZM19.8912 49.5805C21.237 48.8723 23.0433 50.0954 22.9207 51.6029C22.9616 52.8397 21.7546 53.8941 20.534 53.711C19.523 53.6893 18.8638 52.783 18.5397 51.9216C18.5564 50.9821 18.9429 49.9347 19.8912 49.5805ZM42.2637 49.6035C43.6477 48.7482 45.615 49.977 45.4842 51.5875C45.5197 53.271 43.2966 54.3498 42.0077 53.2438C40.76 52.377 40.9123 50.2931 42.2637 49.6035ZM46.1552 59.2218C45.5408 58.2902 46.264 57.168 47.2637 56.9558C48.0675 57.1194 48.9174 57.7238 48.7485 58.6557C48.6314 59.9168 46.7869 60.3037 46.1552 59.2218ZM15.2714 58.4128C15.5166 57.6746 16.1106 56.9408 16.9797 57.1328C18.2466 57.2227 18.6227 59.1322 17.5137 59.721C16.5166 60.393 15.3597 59.4726 15.2714 58.4128ZM30.1706 59.2602C30.4133 58.168 31.8269 57.6368 32.7587 58.217C33.3731 58.4813 33.5542 59.1702 33.7123 59.7555C33.6278 60.0605 33.5523 60.3661 33.4781 60.6707C33.0966 61.1229 32.6077 61.5754 31.9716 61.559C30.7917 61.6973 29.7275 60.3635 30.1706 59.2602Z" fill="#0032AD"/>
</g>
<path d="M48 64C56.8366 64 64 56.8366 64 48C64 39.1634 56.8366 32 48 32C39.1634 32 32 39.1634 32 48C32 56.8366 39.1634 64 48 64Z" fill="#131419"/>
<path fill-rule="evenodd" clip-rule="evenodd" d="M42.9111 45.9146L48 40.8253L53.089 45.9146L56.0474 42.9562L48 34.9088L39.9527 42.9562L42.9111 45.9146ZM37.8647 45.0503L34.9098 48.0051L37.8647 50.96L40.8195 48.0051L37.8647 45.0503ZM48 55.1824L42.9111 50.0931L39.9527 53.0515L48 61.0989L56.0474 53.0515L53.089 50.0931L48 55.1824ZM58.136 45.0506L55.1812 48.0055L58.136 50.9603L61.0909 48.0055L58.136 45.0506ZM48.0016 45.0042L51.0013 48.0039L48.0016 51.0035L45.002 48.0039L45.5191 47.4659L45.7879 47.2179L48.0016 45.0042Z" fill="#F0B90B"/>
</g>
<defs>
<clipPath id="clip0_85_68850">
<rect width="64" height="64" fill="white"/>
</clipPath>
</defs>
</svg>
