<svg width="20" height="20" viewBox="0 0 20 20" fill="none" xmlns="http://www.w3.org/2000/svg">
<path d="M10 20C4.5 20 0 15.5 0 10C0 4.5 4.5 0 10 0C15.5 0 20 4.5 20 10C20 15.5 15.5 20 10 20Z" fill="#4BDB4B"/>
<path opacity="0.4" d="M15.8157 11.9569C16.3157 12.8736 15.9824 14.0402 15.1491 14.5402C14.2324 15.0402 13.0657 14.7069 12.5657 13.8736L8.56575 7.04022C8.06575 6.12356 8.39908 4.95689 9.31575 4.45689C10.2324 3.87356 11.3157 4.20689 11.8991 5.12356L15.8157 11.9569Z" fill="black"/>
<path opacity="0.65" d="M7.95671 13.8736C7.45671 14.7902 6.29004 15.1236 5.37337 14.5402C4.45671 14.0402 4.12337 12.8736 4.70671 11.9569L8.62337 5.12356C9.12337 4.20689 10.29 3.87356 11.2067 4.45689C12.1234 4.95689 12.4567 6.12356 11.8734 7.04022L7.95671 13.8736Z" fill="black"/>
<path d="M12.125 6.08335C12.125 7.16669 10.2083 9.83335 10.2083 9.83335C10.2083 9.83335 8.375 7.16669 8.375 6.08335C8.375 5.00002 9.20833 4.16669 10.2917 4.16669C11.375 4.16669 12.125 5.08335 12.125 6.08335Z" fill="black"/>
</svg>
