<svg width="64" height="64" viewBox="0 0 64 64" fill="none" xmlns="http://www.w3.org/2000/svg">
<g clip-path="url(#clip0_93_68635)">
<path d="M32 64C49.673 64 64 49.673 64 32C64 14.3269 49.673 0 32 0C14.3269 0 0 14.3269 0 32C0 49.673 14.3269 64 32 64Z" fill="#3776E0"/>
<path d="M26.0286 8.92823C29.7238 6.79476 34.2765 6.79476 37.9718 8.92823L48.9952 15.2926C52.6905 17.4261 54.967 21.3691 54.967 25.6359V28.5627H48.4525V25.6359C48.4525 23.6964 47.4176 21.904 45.7379 20.9343L34.7145 14.57C33.0348 13.6002 30.9655 13.6002 29.2859 14.57L18.2625 20.9343C16.5828 21.9041 15.5481 23.6963 15.5481 25.6358V28.5627H9.03357V25.6358C9.03357 21.3688 11.31 17.4261 15.0052 15.2926L26.0286 8.92823Z" fill="white"/>
<path fill-rule="evenodd" clip-rule="evenodd" d="M15.5481 36.5043V38.3645C15.5481 40.304 16.5828 42.096 18.2625 43.0659L28.8236 49.1635V41.9257C24.2607 40.5606 20.935 36.3302 20.935 31.3231C20.935 25.2119 25.8891 20.2578 32.0003 20.2578C38.1117 20.2578 43.0656 25.2119 43.0656 31.3231C43.0656 36.271 39.8179 40.4605 35.3382 41.8761V49.0704L45.7379 43.0659C47.4176 42.0963 48.4525 40.304 48.4525 38.3645V36.5043H54.967V38.3645C54.967 42.6314 52.6905 46.5741 48.9952 48.7075L37.9718 55.072C34.2765 57.2054 29.7238 57.2054 26.0286 55.072L15.0052 48.7075C11.3099 46.5741 9.03357 42.6314 9.03357 38.3645V36.5043H15.5481ZM36.551 31.3231C36.551 33.8365 34.5136 35.8739 32.0003 35.8739C29.4869 35.8739 27.4495 33.8365 27.4495 31.3231C27.4495 28.8097 29.4869 26.7723 32.0003 26.7723C34.5136 26.7723 36.551 28.8097 36.551 31.3231Z" fill="white"/>
<path d="M48 64C56.8366 64 64 56.8366 64 48C64 39.1634 56.8366 32 48 32C39.1634 32 32 39.1634 32 48C32 56.8366 39.1634 64 48 64Z" fill="#131419"/>
<path fill-rule="evenodd" clip-rule="evenodd" d="M42.9111 45.9146L48 40.8253L53.089 45.9146L56.0474 42.9562L48 34.9088L39.9527 42.9562L42.9111 45.9146ZM37.8647 45.0503L34.9098 48.0051L37.8647 50.96L40.8195 48.0051L37.8647 45.0503ZM48 55.1824L42.9111 50.0931L39.9527 53.0515L48 61.0989L56.0474 53.0515L53.089 50.0931L48 55.1824ZM58.136 45.0506L55.1812 48.0055L58.136 50.9603L61.0909 48.0055L58.136 45.0506ZM48.0016 45.0042L51.0013 48.0039L48.0016 51.0035L45.002 48.0039L45.5191 47.4659L45.7879 47.2179L48.0016 45.0042Z" fill="#F0B90B"/>
</g>
<defs>
<clipPath id="clip0_93_68635">
<rect width="64" height="64" fill="white"/>
</clipPath>
</defs>
</svg>
