<svg width="20" height="20" viewBox="0 0 20 20" fill="none" xmlns="http://www.w3.org/2000/svg">
<path fill-rule="evenodd" clip-rule="evenodd" d="M7.27561 1.28441C4.48447 2.01564 2.08395 3.95862 0.895187 6.44872C-0.33532 9.02594 -0.297653 11.5608 1.01066 14.2252C2.04774 16.3374 4.13368 18.1443 6.46832 18.953C7.98983 19.4801 9.75015 19.6674 11.28 19.4654C13.7932 19.1334 15.5 18.3059 17.2881 16.5521C20.6726 13.2324 20.916 8.16643 17.8672 4.50269C16.6035 2.98437 14.4651 1.68609 12.4423 1.20907C11.1382 0.901626 8.59498 0.938712 7.27561 1.28441ZM11.6798 1.35363C14.8595 1.92009 17.743 4.48291 18.5312 7.44334C19.0163 9.26488 18.6412 11.4228 17.5577 13.0454C14.5379 17.5675 7.44824 18.1526 3.43008 14.2113C1.11203 11.9376 0.630353 8.88734 2.11711 5.89724C3.22415 3.67096 5.73722 1.81669 8.26834 1.35872C9.67976 1.10334 10.2699 1.10247 11.6798 1.35363ZM8.26834 1.50415C7.60851 1.62355 6.70857 1.9358 5.97064 2.30142C2.74335 3.9006 1.10868 7.17181 1.9407 10.3661C2.64053 13.0528 5.09703 15.2705 8.07098 15.9007C12.5218 16.8438 17.0378 14.3451 18.0741 10.3661C19.1138 6.37455 16.1755 2.29996 11.6798 1.49906C10.2699 1.2479 9.67976 1.24877 8.26834 1.50415ZM8.685 4.5005C8.9001 4.76607 8.98299 4.7857 9.26193 4.63648C9.53418 4.49076 9.67336 4.51272 10.1108 4.77086C10.5537 5.03206 10.6963 5.05373 11.0391 4.91179C11.2619 4.81958 11.5272 4.7953 11.6287 4.85798C11.8954 5.0229 13.1925 5.05839 13.2884 4.90335C13.4103 4.70629 13.9792 4.74498 14.5662 4.99018C14.8532 5.11016 15.2539 5.20833 15.4565 5.20833C15.8465 5.20833 15.8993 5.30169 15.6933 5.62688C15.6235 5.73712 15.4936 5.78235 15.4047 5.72738C15.3157 5.6724 15.243 5.69044 15.243 5.76723C15.243 5.84416 15.0366 5.97897 14.7843 6.06696C14.3514 6.21792 14.3391 6.24163 14.5662 6.4925C14.6985 6.63866 14.8067 6.83499 14.8067 6.92865C14.8067 7.25704 14.5228 7.09386 14.1544 6.55358C13.8202 6.06362 13.7743 6.03875 13.7029 6.30882C13.6408 6.54311 13.5331 6.59619 13.2142 6.54936C12.9892 6.51635 12.7608 6.561 12.7065 6.64869C12.6491 6.74177 12.7174 6.80823 12.8711 6.80852C13.0158 6.80867 13.4287 7.06841 13.7887 7.3856C14.2916 7.82888 14.3975 7.99293 14.2458 8.09429C14.108 8.18621 14.0971 8.25616 14.2094 8.32553C14.4933 8.50092 14.382 8.83091 13.9705 9.03495C13.5186 9.25892 13.1264 9.12469 12.6088 8.56913C12.4399 8.38792 12.244 8.30183 12.1438 8.3648C12.024 8.44028 12.0489 8.48929 12.2253 8.52419C12.3653 8.55197 12.4798 8.63996 12.4798 8.7198C12.4798 8.79964 12.5779 8.96311 12.6979 9.08309C12.8179 9.20307 12.9161 9.46253 12.9161 9.65959C12.9161 9.94754 12.7832 10.0749 12.2391 10.3082L11.562 10.5984L11.8755 10.8904C12.2664 11.2547 12.2711 11.4163 11.894 11.536C11.6869 11.6017 11.515 11.5287 11.317 11.2912C10.9504 10.8513 10.9513 11.0373 11.3192 11.7586C11.4809 12.0754 11.5441 12.3345 11.4596 12.3345C11.354 12.3345 11.356 12.4278 11.4661 12.6334C11.8028 13.2625 11.4988 13.2096 10.9536 12.5442C10.4843 11.9714 10.4376 11.8627 10.6895 11.9286C10.9904 12.0073 10.9916 11.9997 10.756 11.4763C10.6242 11.1836 10.3434 10.7577 10.1319 10.5301L9.74724 10.1164L9.4971 10.4983C9.35937 10.7083 9.1562 10.8802 9.04538 10.8802C8.92627 10.8802 8.84396 11.0322 8.84396 11.2524C8.84396 11.457 8.90257 11.5883 8.97412 11.5441C9.04582 11.4997 9.14181 11.5614 9.18776 11.681C9.29727 11.9663 9.1357 11.9513 8.75175 11.6405C8.58102 11.5022 8.3633 11.1439 8.26775 10.8438C8.17221 10.5432 7.99929 10.2985 7.88279 10.2985C7.76645 10.2985 7.63367 10.2003 7.58771 10.0803C7.4606 9.74946 7.10778 9.81942 6.96148 10.2045C6.80266 10.6219 5.8623 11.2022 5.44185 11.1421C5.25977 11.1161 5.11768 10.9743 5.09179 10.7925C5.0678 10.6244 4.82231 10.2679 4.54642 10.0005C4.00236 9.47329 3.92208 9.21325 4.26283 9.08236C4.66582 8.92777 4.48578 8.69871 3.96134 8.69871C3.54497 8.69871 3.45117 8.6481 3.48985 8.44421C3.52025 8.28423 3.69971 8.17137 3.97269 8.14025C4.21178 8.11306 4.45058 8.02071 4.50337 7.93519C4.62859 7.7326 5.45465 8.06361 5.63702 8.38938C5.70901 8.51823 5.81619 8.57539 5.87509 8.51663C5.93385 8.45773 5.86913 8.28481 5.73097 8.13225C5.54613 7.92807 5.52577 7.8267 5.6536 7.74773C5.77969 7.66978 5.76238 7.60419 5.59034 7.50791C5.17905 7.27769 5.31707 7.05532 5.80994 7.15393L6.26631 7.24511L5.88266 6.94334C5.66102 6.76897 5.49901 6.49613 5.49901 6.29704C5.49901 6.10768 5.43356 5.91222 5.35357 5.86277C5.10488 5.70905 5.19389 5.3302 5.49741 5.25094C5.65651 5.20934 5.75351 5.12179 5.71308 5.05635C5.55471 4.79995 5.99057 4.7428 6.17556 4.9957C6.36317 5.25254 6.3716 5.25108 6.3716 4.96313C6.3716 4.45571 6.71061 4.3081 8.09353 4.21357C8.2871 4.20033 8.54204 4.3241 8.685 4.5005ZM13.316 7.98362C13.0109 8.31782 12.998 8.465 13.2552 8.6785C13.5819 8.94958 13.9761 8.55343 13.8562 8.07495C13.7411 7.61684 13.663 7.6036 13.316 7.98362ZM5.78987 9.57902C5.78987 9.75586 6.15142 9.91133 6.38324 9.83411C6.47501 9.80342 6.37902 9.7006 6.16989 9.60534C5.93138 9.49656 5.78987 9.48681 5.78987 9.57902ZM13.5433 11.2801C13.7735 11.9536 13.733 12.0246 13.3275 11.6575C13.1651 11.5107 13.0615 11.216 13.0615 10.9013C13.0615 10.273 13.2496 10.4208 13.5433 11.2801ZM12.9583 11.7983C13.0688 12.0863 12.9012 12.7857 12.7037 12.8614C12.6082 12.8981 12.3387 12.8552 12.1049 12.7659L11.6799 12.6037L12.0798 12.3116C12.2999 12.1508 12.4798 11.9267 12.4798 11.8134C12.4798 11.5538 12.8599 11.5419 12.9583 11.7983ZM13.316 13.2055C13.5759 13.2064 13.7887 13.2816 13.7887 13.3728C13.7887 13.5941 12.0704 13.4419 11.8448 13.2004C11.7165 13.063 11.8089 13.0438 12.2616 13.1139C12.5816 13.1634 13.0561 13.2047 13.316 13.2055Z" fill="#1E1EF7"/>
<path fill-rule="evenodd" clip-rule="evenodd" d="M11.6797 1.35367C14.8594 1.92014 17.7429 4.48295 18.5312 7.44338C19.0162 9.26493 18.6411 11.4229 17.5576 13.0455C14.5379 17.5675 7.44817 18.1526 3.43001 14.2114C1.11196 11.9377 0.630283 8.88738 2.11704 5.89728C3.22408 3.671 5.73715 1.81673 8.26827 1.35876C9.67969 1.10338 10.2699 1.10251 11.6797 1.35367ZM5.97057 2.30146C6.7085 1.93584 7.60844 1.6236 8.26827 1.5042C9.67969 1.24882 10.2699 1.24795 11.6797 1.49911C16.1754 2.30001 19.1138 6.37459 18.0741 10.3661C17.0377 14.3452 12.5217 16.8439 8.07091 15.9007C5.09696 15.2706 2.64046 13.0529 1.94063 10.3661C1.10861 7.17186 2.74328 3.90064 5.97057 2.30146Z" fill="white"/>
<path fill-rule="evenodd" clip-rule="evenodd" d="M8.68493 4.50055C8.90003 4.76611 8.98292 4.78574 9.26186 4.63653C9.53411 4.4908 9.67329 4.51277 10.1108 4.77091C10.5536 5.03211 10.6963 5.05377 11.0391 4.91183C11.2619 4.81963 11.5271 4.79534 11.6286 4.85802C11.8954 5.02294 13.1925 5.05843 13.2883 4.9034C13.4102 4.70634 13.9791 4.74502 14.5661 4.99022C14.8532 5.1102 15.2538 5.20837 15.4564 5.20837C15.8465 5.20837 15.8993 5.30174 15.6932 5.62692C15.6234 5.73716 15.4935 5.78239 15.4047 5.72742C15.3156 5.67245 15.2429 5.69048 15.2429 5.76727C15.2429 5.8442 15.0366 5.97902 14.7842 6.06701C14.3513 6.21796 14.3391 6.24167 14.5661 6.49254C14.6984 6.6387 14.8066 6.83504 14.8066 6.92869C14.8066 7.25708 14.5227 7.09391 14.1544 6.55362C13.8202 6.06366 13.7742 6.03879 13.7028 6.30886C13.6407 6.54315 13.5331 6.59623 13.2141 6.54941C12.9892 6.51639 12.7607 6.56104 12.7064 6.64874C12.649 6.74181 12.7173 6.80828 12.8711 6.80857C13.0158 6.80871 13.4287 7.06846 13.7886 7.38564C14.2915 7.82892 14.3974 7.99297 14.2457 8.09434C14.108 8.18625 14.0971 8.2562 14.2093 8.32558C14.4932 8.50097 14.382 8.83095 13.9704 9.035C13.5185 9.25896 13.1263 9.12473 12.6087 8.56918C12.4399 8.38797 12.244 8.30187 12.1438 8.36484C12.0239 8.44032 12.0488 8.48933 12.2252 8.52424C12.3653 8.55201 12.4797 8.64 12.4797 8.71984C12.4797 8.79969 12.5779 8.96315 12.6979 9.08313C12.8178 9.20312 12.916 9.46257 12.916 9.65963C12.916 9.94759 12.7831 10.075 12.239 10.3083L11.5619 10.5984L11.8754 10.8904C12.2664 11.2547 12.271 11.4163 11.8939 11.536C11.6868 11.6017 11.5149 11.5287 11.317 11.2912C10.9503 10.8513 10.9512 11.0373 11.3192 11.7587C11.4809 12.0754 11.544 12.3346 11.4595 12.3346C11.3539 12.3346 11.3559 12.4278 11.466 12.6334C11.8027 13.2626 11.4988 13.2096 10.9535 12.5443C10.4842 11.9714 10.4375 11.8628 10.6894 11.9287C10.9903 12.0074 10.9915 11.9998 10.7559 11.4764C10.6241 11.1836 10.3433 10.7578 10.1318 10.5302L9.74717 10.1164L9.49703 10.4983C9.3593 10.7083 9.15613 10.8802 9.04531 10.8802C8.9262 10.8802 8.84389 11.0322 8.84389 11.2524C8.84389 11.457 8.9025 11.5884 8.97405 11.5441C9.04575 11.4998 9.14174 11.5615 9.18769 11.681C9.2972 11.9663 9.13563 11.9514 8.75168 11.6406C8.58095 11.5023 8.36323 11.1439 8.26768 10.8439C8.17214 10.5433 7.99922 10.2985 7.88272 10.2985C7.76638 10.2985 7.6336 10.2004 7.58764 10.0804C7.46053 9.74951 7.10771 9.81946 6.96141 10.2046C6.80259 10.622 5.86223 11.2022 5.44178 11.1422C5.2597 11.1161 5.11761 10.9743 5.09172 10.7926C5.06773 10.6244 4.82224 10.268 4.54635 10.0005C4.00229 9.47333 3.92201 9.2133 4.26276 9.08241C4.66575 8.92781 4.48571 8.69876 3.96128 8.69876C3.5449 8.69876 3.4511 8.64815 3.48978 8.44425C3.52018 8.28427 3.69964 8.17142 3.97262 8.1403C4.21171 8.1131 4.45051 8.02075 4.5033 7.93523C4.62852 7.73265 5.45458 8.06365 5.63695 8.38942C5.70894 8.51827 5.81612 8.57543 5.87502 8.51667C5.93378 8.45777 5.86906 8.28486 5.7309 8.1323C5.54606 7.92811 5.5257 7.82674 5.65353 7.74777C5.77962 7.66982 5.76231 7.60423 5.59027 7.50795C5.17898 7.27773 5.317 7.05537 5.80987 7.15397L6.26624 7.24516L5.88259 6.94338C5.66095 6.76901 5.49894 6.49618 5.49894 6.29708C5.49894 6.10773 5.43349 5.91226 5.3535 5.86282C5.10481 5.70909 5.19382 5.33024 5.49734 5.25098C5.65644 5.20939 5.75344 5.12184 5.71301 5.05639C5.55464 4.79999 5.9905 4.74284 6.17549 4.99575C6.3631 5.25258 6.37153 5.25113 6.37153 4.96317C6.37153 4.45576 6.71054 4.30814 8.09346 4.21361C8.28703 4.20038 8.54197 4.32414 8.68493 4.50055ZM13.2552 8.67854C12.9979 8.46505 13.0108 8.31787 13.3159 7.98366C13.6629 7.60365 13.741 7.61688 13.8561 8.075C13.9761 8.55347 13.5818 8.94963 13.2552 8.67854ZM6.38317 9.83415C6.15135 9.91138 5.7898 9.75591 5.7898 9.57906C5.7898 9.48686 5.93131 9.4966 6.16982 9.60538C6.37895 9.70064 6.47494 9.80346 6.38317 9.83415Z" fill="white"/>
<path d="M12.9582 11.7984C13.0687 12.0863 12.9012 12.7857 12.7037 12.8615C12.6081 12.8981 12.3386 12.8552 12.1048 12.7659L11.6798 12.6038L12.0798 12.3116C12.2998 12.1509 12.4797 11.9268 12.4797 11.8135C12.4797 11.5539 12.8599 11.542 12.9582 11.7984Z" fill="white"/>
<path d="M13.5433 11.2802C13.7735 11.9537 13.7329 12.0247 13.3274 11.6576C13.165 11.5107 13.0614 11.2161 13.0614 10.9013C13.0614 10.2731 13.2495 10.4208 13.5433 11.2802Z" fill="white"/>
<path d="M13.3159 13.2056C13.5758 13.2064 13.7886 13.2816 13.7886 13.3728C13.7886 13.5942 12.0703 13.4419 11.8447 13.2005C11.7165 13.063 11.8088 13.0439 12.2616 13.1139C12.5815 13.1634 13.0561 13.2047 13.3159 13.2056Z" fill="white"/>
</svg>
