<svg width="64" height="64" viewBox="0 0 64 64" fill="none" xmlns="http://www.w3.org/2000/svg">
<g clip-path="url(#clip0_85_68750)">
<path d="M32.0002 64C49.6732 64 64.0002 50.3296 64.0002 33.4665C64.0002 16.6032 49.6732 2.9328 32.0002 2.9328C14.327 2.9328 5.34058e-05 16.6032 5.34058e-05 33.4665C5.34058e-05 50.3296 14.327 64 32.0002 64Z" fill="#0AC18E"/>
<path d="M42.7248 23.4143C41.097 19.9128 37.3469 19.1703 32.7539 19.8944L31.2809 14.4863L27.8023 15.3388L29.2557 20.7286C28.3449 20.9486 27.405 21.1319 26.4748 21.3794L25.0212 16.0171L21.5426 16.8696L23.0155 22.2777C22.2693 22.4793 16 24.001 16 24.001L16.9593 27.5208C16.9593 27.5208 19.5174 26.8425 19.4883 26.8975C20.903 26.5492 21.5716 27.2184 21.8817 27.8508L25.9321 42.6728C25.9806 43.1037 25.903 43.8369 24.9244 44.0844C24.9825 44.1118 22.3953 44.6985 22.3953 44.6985L22.7732 48.8052C22.7732 48.8052 28.9844 47.3018 29.7984 47.1092L31.2906 52.5815L34.7693 51.7291L33.2771 46.2202C34.2365 46.0093 35.1667 45.7892 36.0678 45.5692L37.5504 51.051L41.0291 50.1982L39.5366 44.7351C44.8954 43.5069 48.6742 40.3078 47.8992 35.4222C47.4048 32.4797 44.0038 30.0599 41.1744 29.7849C42.9184 28.3275 43.8003 26.2009 42.7248 23.4143ZM41.0483 36.3115C41.7363 41.1511 34.6336 41.7469 32.279 42.3244L30.2344 35.083C32.5987 34.5057 39.8854 32.0491 41.0483 36.3115ZM36.7654 26.4576C37.5018 30.7566 31.4166 31.2606 29.4592 31.7373L27.5988 25.1651C29.5658 24.6976 35.2733 22.4702 36.7654 26.4576Z" fill="white"/>
<path d="M48 64C56.8366 64 64 57.1777 64 48.7619C64 40.3461 56.8366 33.5238 48 33.5238C39.1634 33.5238 32 40.3461 32 48.7619C32 57.1777 39.1634 64 48 64Z" fill="#131419"/>
<path fill-rule="evenodd" clip-rule="evenodd" d="M42.911 46.7758L48 41.9288L53.089 46.7758L56.0474 43.9583L48 36.2941L39.9526 43.9583L42.911 46.7758ZM37.8646 45.9526L34.9098 48.7668L37.8646 51.581L40.8195 48.7668L37.8646 45.9526ZM48 55.6023L42.911 50.7557L39.9526 53.5729L48 61.237L56.0474 53.5729L53.089 50.7557L48 55.6023ZM58.136 45.9529L55.1811 48.7671L58.136 51.5813L61.0909 48.7671L58.136 45.9529ZM48.0016 45.9087L51.0013 48.7656L48.0016 51.6224L45.0019 48.7656L45.519 48.2536L45.7878 48.0171L48.0016 45.9087Z" fill="#F0B90B"/>
</g>
<defs>
<clipPath id="clip0_85_68750">
<rect width="64" height="64" fill="white"/>
</clipPath>
</defs>
</svg>
