<svg width="64" height="64" viewBox="0 0 64 64" fill="none" xmlns="http://www.w3.org/2000/svg">
<g clip-path="url(#clip0_85_68775)">
<mask id="mask0_85_68775" style="mask-type:luminance" maskUnits="userSpaceOnUse" x="0" y="0" width="64" height="64">
<path d="M64 0H0V64H64V0Z" fill="white"/>
</mask>
<g mask="url(#mask0_85_68775)">
<path d="M32 64C49.6731 64 64 49.6731 64 32C64 14.3269 49.6731 0 32 0C14.3269 0 0 14.3269 0 32C0 49.6731 14.3269 64 32 64Z" fill="#131419"/>
<path d="M32.0003 9.60001L37.5504 15.2667L23.5752 29.2L18.0252 23.6667L32.0003 9.60001Z" fill="#F0B90B"/>
<path d="M40.4256 18L45.9757 23.6667L23.5752 46L18.0252 40.4666L40.4256 18Z" fill="#F0B90B"/>
<path d="M15.15 26.4L20.6999 32.0666L15.15 37.6L9.60001 32.0666L15.15 26.4Z" fill="#F0B90B"/>
<path d="M48.8509 26.4L54.4006 32.0666L32.0003 54.4L26.4504 48.8666L48.8509 26.4Z" fill="#F0B90B"/>
</g>
</g>
<defs>
<clipPath id="clip0_85_68775">
<rect width="64" height="64" fill="white"/>
</clipPath>
</defs>
</svg>
