<svg width="64" height="64" viewBox="0 0 64 64" fill="none" xmlns="http://www.w3.org/2000/svg">
<g clip-path="url(#clip0_85_68818)">
<mask id="mask0_85_68818" style="mask-type:luminance" maskUnits="userSpaceOnUse" x="0" y="0" width="64" height="64">
<path d="M64 0H0V64H64V0Z" fill="white"/>
</mask>
<g mask="url(#mask0_85_68818)">
<path d="M32 64C49.6731 64 64 49.6731 64 32C64 14.3269 49.6731 0 32 0C14.3269 0 0 14.3269 0 32C0 49.6731 14.3269 64 32 64Z" fill="#131419"/>
<path d="M32.0003 9.6L37.5504 15.2667L23.5752 29.2L18.0252 23.6667L32.0003 9.6Z" fill="#F0B90B"/>
<path d="M40.4256 18L45.9757 23.6667L23.5752 46L18.0252 40.4666L40.4256 18Z" fill="#F0B90B"/>
<path d="M15.15 26.4L20.6999 32.0666L15.15 37.6L9.60001 32.0666L15.15 26.4Z" fill="#F0B90B"/>
<path d="M48.8509 26.4L54.4006 32.0666L32.0003 54.4L26.4504 48.8666L48.8509 26.4Z" fill="#F0B90B"/>
</g>
<mask id="mask1_85_68818" style="mask-type:luminance" maskUnits="userSpaceOnUse" x="32" y="32" width="32" height="32">
<path d="M64 32H32V64H64V32Z" fill="white"/>
</mask>
<g mask="url(#mask1_85_68818)">
<path d="M48 64C56.8365 64 64 56.8365 64 48C64 39.1635 56.8365 32 48 32C39.1635 32 32 39.1635 32 48C32 56.8365 39.1635 64 48 64Z" fill="#E84142"/>
<path d="M53.6438 48.4157C54.198 47.4583 55.0927 47.4583 55.647 48.4157L59.0988 54.4756C59.6534 55.433 59.1996 56.2141 58.0911 56.2141H51.1366C50.0406 56.2141 49.5871 55.433 50.1289 54.4756L53.6438 48.4157ZM46.9667 36.7495C47.5209 35.7921 48.4028 35.7921 48.9571 36.7495L49.7257 38.1354L51.5398 41.3229C51.9807 42.2298 51.9807 43.3009 51.5398 44.2077L45.4547 54.7527C44.9004 55.6093 43.9807 56.1511 42.9603 56.2141H37.9084C36.7996 56.2141 36.3462 55.4458 36.9004 54.4756L46.9667 36.7495Z" fill="white"/>
</g>
</g>
<defs>
<clipPath id="clip0_85_68818">
<rect width="64" height="64" fill="white"/>
</clipPath>
</defs>
</svg>
