<svg width="64" height="64" viewBox="0 0 64 64" fill="none" xmlns="http://www.w3.org/2000/svg">
<g clip-path="url(#clip0_85_68802)">
<mask id="mask0_85_68802" style="mask-type:luminance" maskUnits="userSpaceOnUse" x="0" y="0" width="64" height="64">
<path d="M64 0H0V64H64V0Z" fill="white"/>
</mask>
<g mask="url(#mask0_85_68802)">
<path d="M32 64C49.6731 64 64 49.6731 64 32C64 14.3269 49.6731 0 32 0C14.3269 0 0 14.3269 0 32C0 49.6731 14.3269 64 32 64Z" fill="#131419"/>
<path d="M32.0003 9.6L37.5504 15.2667L23.5752 29.2L18.0252 23.6667L32.0003 9.6Z" fill="#F0B90B"/>
<path d="M40.4256 18L45.9757 23.6667L23.5752 46L18.0252 40.4666L40.4256 18Z" fill="#F0B90B"/>
<path d="M15.15 26.4L20.6999 32.0666L15.15 37.6L9.60001 32.0666L15.15 26.4Z" fill="#F0B90B"/>
<path d="M48.8509 26.4L54.4006 32.0666L32.0003 54.4L26.4504 48.8666L48.8509 26.4Z" fill="#F0B90B"/>
<mask id="mask1_85_68802" style="mask-type:luminance" maskUnits="userSpaceOnUse" x="32" y="32" width="32" height="32">
<path d="M64 32H32V64H64V32Z" fill="white"/>
</mask>
<g mask="url(#mask1_85_68802)">
<path d="M48 64C56.8365 64 64 56.8365 64 48C64 39.1635 56.8365 32 48 32C39.1635 32 32 39.1635 32 48C32 56.8365 39.1635 64 48 64Z" fill="#8247E5"/>
<path fill-rule="evenodd" clip-rule="evenodd" d="M42.9014 39.2816C42.7955 39.321 41.6861 39.9226 40.4355 40.6189C38.8275 41.5142 38.1152 41.927 38.0016 42.0301C37.9101 42.113 37.8013 42.2544 37.7485 42.3584L37.6563 42.5408V45.3686V48.1971L37.7475 48.3773C37.9209 48.7197 37.9766 48.7555 40.4806 50.1478C41.759 50.8586 42.8688 51.4592 42.9466 51.4826C43.1565 51.5456 43.5459 51.537 43.7523 51.4643C43.9168 51.4067 45.4653 50.5517 47.7344 49.2656C50.2509 47.8394 52.1091 46.8115 52.2624 46.7603C52.3878 46.7187 52.4982 46.7085 52.7142 46.7178C53.0733 46.7338 53.0713 46.7328 54.5853 47.5766C55.8454 48.279 55.9955 48.3862 56.1651 48.7056C56.2173 48.8042 56.2755 48.968 56.2941 49.0698C56.3402 49.321 56.3398 51.8557 56.2938 52.1053C56.2454 52.368 56.1238 52.5962 55.9398 52.7693C55.7357 52.9616 53.2467 54.3898 53.0074 54.4518C52.7904 54.5082 52.5014 54.505 52.2947 54.4435C52.2013 54.416 51.5498 54.0749 50.8467 53.6858C49.4355 52.9046 49.2976 52.8058 49.1225 52.447L49.031 52.2595L49.0157 51.2528L49 50.2458L47.9926 50.815L46.9853 51.3843L46.985 52.2813C46.9846 52.8275 46.9981 53.2429 47.0195 53.344C47.0826 53.641 47.2291 53.8765 47.4531 54.0397C47.7197 54.2342 52.1776 56.6922 52.3398 56.7341C52.5827 56.7971 52.9059 56.785 53.1296 56.704C53.2355 56.6656 54.3456 56.065 55.5965 55.369C58.0761 53.9888 58.1018 53.9718 58.2851 53.5987L58.375 53.4157V50.6032V47.7907L58.2835 47.6106C58.1114 47.2704 58.0515 47.2314 55.5389 45.8256C54.2541 45.1069 53.136 44.4979 53.0544 44.4723C52.8426 44.4061 52.4739 44.4083 52.2656 44.4771C52.1709 44.5085 51.4115 44.9235 50.5779 45.4C49.7443 45.8762 48.5632 46.5405 47.953 46.8758C47.343 47.2115 46.1776 47.8672 45.3635 48.3334C44.5494 48.7997 43.8121 49.2022 43.7251 49.2282C43.5033 49.2938 43.127 49.2886 42.919 49.2166C42.7315 49.152 40.3664 47.8304 40.1344 47.6608C39.9584 47.5322 39.753 47.2352 39.6877 47.0163C39.616 46.7747 39.6182 43.9571 39.6902 43.7104C39.751 43.5027 39.8877 43.2819 40.0416 43.1427C40.2045 42.9958 42.7248 41.601 42.9421 41.5379C43.1341 41.4822 43.495 41.4896 43.7066 41.5539C43.7686 41.5728 44.4016 41.9114 45.113 42.3062C46.3014 42.9664 46.4218 43.0406 46.5981 43.2243C46.9235 43.5638 46.9338 43.608 46.9526 44.7622L46.9686 45.7338L47.9622 45.1715L48.9555 44.609L48.9466 43.5898L48.9373 42.5706L48.8349 42.3622C48.7705 42.2317 48.6762 42.104 48.5814 42.0192C48.4426 41.895 44.1072 39.4128 43.8067 39.2854C43.7357 39.2554 43.5677 39.2298 43.3907 39.2224C43.1386 39.2122 43.0646 39.2211 42.9014 39.2816Z" fill="white"/>
</g>
</g>
</g>
<defs>
<clipPath id="clip0_85_68802">
<rect width="64" height="64" fill="white"/>
</clipPath>
</defs>
</svg>
