<svg width="20" height="20" viewBox="0 0 20 20" fill="none" xmlns="http://www.w3.org/2000/svg">
<g clip-path="url(#clip0_6128_51546)">
<path d="M10 20C15.5228 20 20 15.5228 20 10C20 4.47715 15.5228 0 10 0C4.47715 0 0 4.47715 0 10C0 15.5228 4.47715 20 10 20Z" fill="#005596"/>
<path d="M9.9996 19.7467C15.3825 19.7467 19.7463 15.3829 19.7463 10C19.7463 4.61706 15.3825 0.253334 9.9996 0.253334C4.61666 0.253334 0.25293 4.61706 0.25293 10C0.25293 15.3829 4.61666 19.7467 9.9996 19.7467Z" fill="#005596"/>
<path d="M10 0.506667C15.2343 0.506667 19.4933 4.76571 19.4933 10C19.4933 15.2343 15.2343 19.4933 10 19.4933C4.76571 19.4933 0.506667 15.2343 0.506667 10C0.506667 4.76571 4.76571 0.506667 10 0.506667ZM10 0C4.47714 0 0 4.47714 0 10C0 15.5229 4.47714 20 10 20C15.5229 20 20 15.5229 20 10C20 4.47714 15.5229 0 10 0Z" fill="#005596"/>
<path d="M10 20C15.5228 20 20 15.5228 20 10C20 4.47715 15.5228 0 10 0C4.47715 0 0 4.47715 0 10C0 15.5228 4.47715 20 10 20Z" fill="#6CADDF"/>
<path d="M10 0.506667C15.2343 0.506667 19.4933 4.76571 19.4933 10C19.4933 15.2343 15.2343 19.4933 10 19.4933C4.76571 19.4933 0.506667 15.2343 0.506667 10C0.506667 4.76571 4.76571 0.506667 10 0.506667ZM10 0C4.47714 0 0 4.47714 0 10C0 15.5229 4.47714 20 10 20C15.5229 20 20 15.5229 20 10C20 4.47714 15.5229 0 10 0Z" fill="white"/>
<path d="M9.9999 3.30381C6.30847 3.30381 3.30371 6.30762 3.30371 10C3.30371 13.6924 6.30752 16.6962 9.9999 16.6962C13.6923 16.6962 16.6961 13.6914 16.6961 10C16.6961 6.30857 13.6923 3.30381 9.9999 3.30381Z" fill="#00295C"/>
<path d="M15.999 10C15.999 6.68667 13.3133 4.00095 9.99905 4.00095C6.68667 4.00095 4 6.68667 4 10C4 13.3143 6.68667 15.9991 9.99905 15.9991C13.3114 15.9991 15.999 13.3133 15.999 10Z" fill="white"/>
<path d="M13.8188 10C13.8188 7.89143 12.1083 6.18095 9.99876 6.18095C7.88924 6.18095 6.18066 7.89048 6.18066 10C6.18066 12.1095 7.89019 13.819 9.99876 13.819C12.1073 13.819 13.8188 12.1095 13.8188 10Z" fill="#6FADDC"/>
<path d="M9.99886 14.1219C7.72648 14.1219 5.87695 12.2724 5.87695 10C5.87695 7.72762 7.72648 5.87905 9.99886 5.87905C12.2722 5.87905 14.1208 7.72762 14.1208 10C14.1208 12.2724 12.2712 14.1219 9.99886 14.1219ZM9.99886 6.10953C7.85314 6.10953 6.10743 7.85429 6.10743 10C6.10743 12.1457 7.85314 13.8914 9.99886 13.8914C12.1446 13.8914 13.8912 12.1457 13.8912 10C13.8912 7.85429 12.1455 6.10953 9.99886 6.10953Z" fill="#00295C"/>
<path d="M9.99908 16.4219C6.45812 16.4219 3.57812 13.541 3.57812 9.99905C3.57812 6.45714 6.45908 3.57809 9.99908 3.57809C13.5391 3.57809 16.421 6.45905 16.421 10C16.421 13.541 13.54 16.4229 9.99908 16.4229M9.99908 3.71809C6.53527 3.71809 3.71717 6.53619 3.71717 10C3.71717 13.4638 6.53527 16.2829 9.99908 16.2829C13.4638 16.2829 16.2819 13.4648 16.2819 10C16.2819 6.53619 13.4638 3.71809 9.99908 3.71809Z" fill="#6FADDC"/>
<path d="M4.64007 9.85333L4.5315 9.88L4.50293 9.76857L4.68198 9.71524H4.77531V10.3419H4.64007V9.85429V9.85333ZM4.93245 10.1705V10.1686C4.93245 10.0933 4.96674 10.0486 5.03341 10.019C4.98579 9.98952 4.95436 9.94952 4.95436 9.88286V9.88095C4.95436 9.78572 5.04103 9.71048 5.17245 9.71048C5.30388 9.71048 5.3915 9.78476 5.3915 9.88095V9.88286C5.3915 9.94952 5.36007 9.98952 5.31245 10.019C5.37531 10.0514 5.41245 10.0914 5.41245 10.1657V10.1676C5.41245 10.2829 5.31055 10.3505 5.17245 10.3505C5.03436 10.3505 4.93245 10.279 4.93245 10.1714V10.1705ZM5.28007 10.16V10.1581C5.28007 10.1105 5.23436 10.0819 5.17245 10.0819C5.11055 10.0819 5.06483 10.1105 5.06483 10.1581V10.16C5.06483 10.2029 5.10483 10.2371 5.17245 10.2371C5.24007 10.2371 5.28007 10.2029 5.28007 10.16ZM5.26103 9.8981V9.89619C5.26103 9.8581 5.22769 9.82286 5.1715 9.82286C5.11531 9.82286 5.08293 9.85714 5.08293 9.89429V9.89619C5.08293 9.94 5.11722 9.97238 5.1715 9.97238C5.22579 9.97238 5.26103 9.94 5.26103 9.89714V9.8981ZM14.8039 10.0867C14.7715 10.1133 14.7305 10.1295 14.6782 10.1295C14.5429 10.1295 14.4563 10.0552 14.4563 9.92857V9.92667C14.4563 9.80095 14.5534 9.70857 14.6934 9.70857C14.7772 9.70857 14.8258 9.72857 14.8734 9.77619C14.9172 9.82095 14.9467 9.88857 14.9467 10.0105V10.0124C14.9467 10.2143 14.8515 10.3524 14.6753 10.3524C14.5848 10.3524 14.5229 10.3219 14.4705 10.2781L14.5429 10.1743C14.5886 10.2105 14.6267 10.2276 14.6791 10.2276C14.7734 10.2276 14.8001 10.139 14.8048 10.0867H14.8039ZM14.8067 9.92286V9.92095C14.8067 9.86571 14.7658 9.82571 14.6972 9.82571C14.6286 9.82571 14.5915 9.86476 14.5915 9.92V9.92191C14.5915 9.97714 14.6325 10.0152 14.7001 10.0152C14.7677 10.0152 14.8067 9.97619 14.8067 9.92286ZM15.3839 10.2076H15.0801L15.0582 10.1105L15.3991 9.71429H15.5144V10.0952H15.5982V10.2067H15.5144V10.341H15.3839V10.2067V10.2076ZM15.3839 10.0962V9.90286L15.2182 10.0962H15.3839Z" fill="#6FADDC"/>
<path d="M9.99983 13.8924C7.85411 13.8924 6.1084 12.1457 6.1084 10C6.1084 7.85429 7.85507 6.10857 9.99983 6.10857C12.1446 6.10857 13.8922 7.85429 13.8922 10C13.8922 12.1467 12.1465 13.8924 9.99983 13.8924ZM9.99983 6.25238C7.93411 6.25238 6.25221 7.93334 6.25221 10C6.25221 12.0667 7.93411 13.7486 9.99983 13.7486C12.0655 13.7486 13.7484 12.0667 13.7484 10C13.7484 7.93334 12.0665 6.25238 9.99983 6.25238Z" fill="white"/>
<path fill-rule="evenodd" clip-rule="evenodd" d="M9.92808 6.65047C8.00713 6.65047 6.89855 6.9019 6.89855 6.9019C6.89855 6.9019 6.4557 8.58476 6.70713 10.7419C6.81284 11.6467 7.54903 13.5943 9.98808 14.259C12.4271 13.5943 13.1624 11.6467 13.2681 10.7419C13.5205 8.58476 13.0766 6.9019 13.0766 6.9019C13.0766 6.9019 11.9681 6.65047 10.0471 6.65047H9.92617H9.92808Z" fill="#00295C"/>
<path fill-rule="evenodd" clip-rule="evenodd" d="M12.8503 10.1305C12.9265 8.51048 12.6513 7.19524 12.6513 7.19524C12.6513 7.19524 11.5979 6.99429 9.99223 6.99429C8.38366 6.99429 7.31413 7.21714 7.31413 7.21714C7.31413 7.21714 7.02175 8.5381 7.10175 10.1305H12.8503Z" fill="white"/>
<path fill-rule="evenodd" clip-rule="evenodd" d="M12.9344 10.2391C12.9334 10.2743 12.9315 10.3143 12.9296 10.3581C12.9296 10.3629 12.9296 10.3667 12.9296 10.3714C12.9296 10.3762 12.9296 10.38 12.9296 10.3848C12.9268 10.4419 12.922 10.5038 12.9163 10.5714C12.8963 10.7819 12.8554 11.041 12.7668 11.3248C12.6934 11.5581 12.5877 11.8086 12.4344 12.0629C12.3068 12.2762 12.1449 12.4924 11.9401 12.7048C11.7934 12.8581 11.6239 13.0086 11.4287 13.1543C11.2306 13.3029 11.0068 13.4457 10.7534 13.581C10.5525 13.6886 10.3325 13.7905 10.0925 13.8857C10.0592 13.8991 10.0239 13.9124 9.98964 13.9257C7.18964 12.88 7.04297 10.8571 7.04297 10.24H12.9354L12.9344 10.2391Z" fill="#98C2E5"/>
<path d="M10.0915 13.8848C10.0582 13.8981 10.0229 13.9114 9.98866 13.9248C7.18866 12.8791 7.04199 10.8562 7.04199 10.2391H7.07533L10.0915 13.8848ZM9.01152 10.2391H7.98294L10.7515 13.58C11.0048 13.4448 11.2287 13.3019 11.4268 13.1533L9.01056 10.2381L9.01152 10.2391ZM10.9229 10.2391H9.89437L11.9382 12.7048C12.142 12.4924 12.3039 12.2762 12.4325 12.0629L10.9229 10.2391ZM11.8629 10.2381H11.8639L12.7639 11.3248C12.8534 11.041 12.8934 10.7819 12.9134 10.5714C12.9191 10.5029 12.9239 10.4391 12.9268 10.3848C12.9268 10.38 12.9268 10.3752 12.9268 10.3714C12.9268 10.3667 12.9268 10.3629 12.9268 10.3581C12.9296 10.3057 12.9315 10.2648 12.9315 10.2391H11.8601L11.8629 10.2381Z" fill="#6FAEDD"/>
<path d="M11.1927 11.5943C11.1851 11.5705 11.167 11.5524 11.1432 11.5438L10.9736 11.4848C10.9584 11.48 10.9432 11.48 10.9279 11.4848C10.9146 11.4257 10.8813 11.3724 10.8317 11.3371C10.826 11.3324 10.8194 11.3286 10.8127 11.3248C10.8013 11.3171 10.7889 11.3105 10.7755 11.3048C10.7536 11.2952 10.7317 11.2886 10.7098 11.2819C10.6594 11.2657 10.6117 11.2505 10.5489 11.2057C10.4908 11.1638 10.4641 11.1248 10.4384 11.0886C10.4317 11.079 10.426 11.0705 10.4203 11.0629C10.4032 11.0362 10.3822 11.0143 10.3565 10.9952C10.3136 10.9638 10.2632 10.9486 10.2098 10.9486C10.1984 10.9486 10.187 10.9505 10.1755 10.9533C10.1755 10.9533 10.1755 10.9524 10.1755 10.9514C10.1784 10.9305 10.1736 10.9086 10.1613 10.8914L10.0555 10.7505C10.0403 10.7305 10.0165 10.7181 9.99174 10.7181C9.96698 10.7181 9.94317 10.7295 9.92793 10.7486L9.8184 10.8905C9.80507 10.9086 9.79936 10.9314 9.80317 10.9533C9.79364 10.9533 9.78602 10.9505 9.7765 10.9505C9.72317 10.9505 9.67269 10.9667 9.62983 10.9971C9.62412 11.0019 9.6184 11.0067 9.61269 11.0114C9.60126 11.02 9.59174 11.0286 9.58221 11.04C9.56602 11.0581 9.55269 11.0762 9.54031 11.0943C9.50888 11.1371 9.48031 11.1771 9.4165 11.2219C9.3584 11.2638 9.31364 11.2771 9.26983 11.2905C9.25936 11.2933 9.24888 11.2962 9.23936 11.3C9.20888 11.3076 9.18031 11.32 9.1546 11.339C9.10412 11.3752 9.06983 11.4305 9.05745 11.4914C9.04031 11.4848 9.02126 11.4838 9.00317 11.4895L8.8346 11.5457C8.81079 11.5533 8.79174 11.5724 8.78412 11.5962C8.7765 11.62 8.78031 11.6457 8.79459 11.6657L8.8965 11.8124C8.90793 11.8286 8.92507 11.839 8.94507 11.8438C8.91745 11.901 8.91269 11.9667 8.93269 12.0267C8.9346 12.0333 8.93745 12.041 8.94031 12.0476C8.94507 12.061 8.95079 12.0724 8.9584 12.0857C8.97079 12.1057 8.98412 12.1248 8.99745 12.1419C9.02888 12.1848 9.0584 12.2248 9.08221 12.2981C9.10412 12.3657 9.10317 12.4124 9.10221 12.4571C9.10221 12.4676 9.10221 12.479 9.10221 12.4886C9.10031 12.52 9.10412 12.5505 9.11364 12.58C9.13364 12.64 9.1746 12.6876 9.22602 12.7171C9.21936 12.7286 9.2146 12.7419 9.21555 12.7552V12.9314C9.21745 12.9562 9.22888 12.98 9.24983 12.9943C9.26983 13.0086 9.29555 13.0133 9.31936 13.0057L9.49174 12.9552C9.50698 12.9505 9.51936 12.94 9.52888 12.9286C9.58031 12.9771 9.65269 13.0019 9.72221 12.9962C9.73555 12.9962 9.74888 12.9943 9.76412 12.9905C9.78793 12.9848 9.80983 12.9781 9.83079 12.9705C9.88126 12.9543 9.92888 12.939 10.007 12.939C10.0794 12.939 10.1232 12.9543 10.166 12.9695C10.1765 12.9733 10.186 12.9771 10.1955 12.98C10.2251 12.9914 10.2565 12.9971 10.2879 12.9971C10.3508 12.9971 10.4127 12.9724 10.4584 12.9286C10.4679 12.94 10.4794 12.9495 10.4946 12.9543L10.6641 13.0067C10.6879 13.0143 10.7146 13.0105 10.7346 12.9962C10.7555 12.9819 10.767 12.959 10.7679 12.9333L10.7727 12.7552C10.7727 12.741 10.7689 12.7276 10.7622 12.7162C10.8146 12.6867 10.8555 12.639 10.8746 12.5781C10.8775 12.5705 10.8794 12.5638 10.8813 12.5562C10.8851 12.5429 10.887 12.5295 10.8879 12.5152C10.8898 12.4914 10.8898 12.4686 10.8898 12.4467C10.8898 12.3933 10.8898 12.3438 10.9136 12.2705C10.9355 12.2029 10.9641 12.1657 10.9917 12.1305C10.9984 12.1219 11.0051 12.1133 11.0108 12.1057C11.0308 12.0819 11.046 12.0543 11.0555 12.0248C11.0765 11.9629 11.0698 11.8943 11.0403 11.8362C11.0555 11.8305 11.0689 11.8229 11.0784 11.8095L11.1813 11.6657C11.1965 11.6457 11.2003 11.62 11.1927 11.5962V11.5943Z" fill="#00295C"/>
<path d="M9.99445 11.1314C9.97731 11.0705 9.94016 11.0181 9.89159 10.9886L9.99445 10.8562L10.0944 10.9886C10.0449 11.0229 10.0116 11.0714 9.99445 11.1314ZM9.19445 11.7162C9.14207 11.6819 9.10493 11.6352 9.08778 11.5781L8.92969 11.6305L9.02588 11.7686C9.06969 11.7324 9.13159 11.7133 9.19445 11.7162ZM9.50397 12.6419C9.45445 12.681 9.39826 12.701 9.33826 12.7V12.8657L9.50207 12.8181C9.48016 12.7657 9.48207 12.7019 9.50397 12.6419ZM10.4859 12.6438C10.5078 12.7029 10.5097 12.7619 10.4906 12.8181L10.6497 12.8676L10.6535 12.7C10.5964 12.7038 10.5354 12.6838 10.4859 12.6438ZM10.7887 11.7181C10.8525 11.7152 10.9097 11.7324 10.9573 11.7676L11.0544 11.6333L10.8944 11.5771C10.8811 11.6324 10.8421 11.6829 10.7887 11.7191M9.79254 12.6486C9.71826 12.6486 9.65826 12.5886 9.65826 12.5152C9.65826 12.5048 9.64873 12.501 9.64302 12.5076C9.5954 12.5667 9.55635 12.6181 9.5554 12.6829C9.5535 12.7762 9.63159 12.8514 9.72493 12.8514C9.73064 12.8514 9.73635 12.8514 9.74207 12.8505C9.75064 12.8505 9.75921 12.8505 9.77064 12.8467C9.83731 12.8305 9.89445 12.7981 10.0078 12.7981C10.1021 12.7981 10.1525 12.8229 10.2021 12.8391C10.2221 12.8476 10.244 12.8514 10.2668 12.8514C10.3602 12.8514 10.4383 12.7762 10.4364 12.6829C10.4354 12.6191 10.3964 12.5676 10.3487 12.5076C10.344 12.5019 10.3364 12.5057 10.3364 12.5152C10.3364 12.5886 10.2754 12.6486 10.2011 12.6486C10.1449 12.6486 10.0725 12.601 10.0021 12.601C9.93635 12.601 9.84873 12.6486 9.79254 12.6486ZM9.70397 12.4648C9.70397 12.5267 9.75445 12.5771 9.81635 12.5771C9.82302 12.5771 9.82969 12.5771 9.83921 12.5752C9.84207 12.5752 9.84493 12.5733 9.84778 12.5724C9.84969 12.5724 9.85064 12.5724 9.85159 12.5714C9.88969 12.5591 9.92683 12.541 9.9935 12.541C10.0602 12.541 10.0964 12.56 10.1335 12.5695C10.1459 12.5743 10.1592 12.5771 10.1735 12.5771C10.2354 12.5771 10.2859 12.5267 10.2859 12.4648C10.2859 12.4029 10.2821 12.4333 10.2764 12.4191C10.2735 12.4133 10.2706 12.4076 10.2668 12.4029C10.2668 12.4029 10.0764 12.1448 10.0706 12.1371C10.0611 12.1248 10.0497 12.1305 10.0411 12.1324C10.0325 12.1352 10.0087 12.141 9.9935 12.141C9.97826 12.141 9.95826 12.1381 9.94683 12.1324C9.93445 12.1276 9.92493 12.1238 9.91635 12.1371C9.90969 12.1476 9.77254 12.3314 9.72969 12.3914C9.71254 12.4114 9.70207 12.4362 9.70207 12.4638L9.70397 12.4648ZM10.5783 12.3791C10.5554 12.4495 10.4792 12.4876 10.4087 12.4648C10.3992 12.4619 10.3916 12.4686 10.3973 12.4771C10.4392 12.54 10.4764 12.5924 10.5383 12.6133C10.6268 12.6438 10.723 12.5933 10.7525 12.5057C10.7544 12.5 10.7554 12.4943 10.7564 12.4886C10.7592 12.481 10.7611 12.4714 10.7621 12.461C10.7668 12.3924 10.7535 12.3295 10.7887 12.2219C10.8173 12.1343 10.8573 12.0943 10.8878 12.0514C10.9021 12.0352 10.9125 12.0162 10.9202 11.9952C10.9487 11.9067 10.9011 11.8105 10.8116 11.7838C10.7497 11.7648 10.6878 11.7857 10.6164 11.8124C10.6097 11.8152 10.6106 11.8229 10.6192 11.8257C10.6906 11.8486 10.7297 11.9248 10.7059 11.9943C10.6878 12.0476 10.6202 12.1 10.5983 12.1667C10.5783 12.2286 10.5964 12.3257 10.5792 12.3791H10.5783ZM10.3744 12.4057C10.4335 12.4248 10.4973 12.3924 10.5164 12.3343C10.5192 12.3286 10.5202 12.321 10.5211 12.3124C10.5211 12.3095 10.5211 12.3067 10.5211 12.3029C10.5211 12.3019 10.5211 12.3 10.5211 12.2991C10.5211 12.2581 10.5154 12.2181 10.5354 12.1552C10.5573 12.0895 10.5859 12.0638 10.6068 12.0314C10.6154 12.021 10.6211 12.0095 10.6259 11.9962C10.6449 11.9371 10.6125 11.8743 10.5535 11.8552C10.5383 11.8505 10.5221 11.8495 10.5068 11.8505C10.5002 11.8505 10.4944 11.8524 10.4887 11.8533C10.4887 11.8533 10.183 11.9524 10.1735 11.9562C10.1592 11.9619 10.1602 11.9743 10.1602 11.9838C10.1602 11.9924 10.1583 12.0162 10.1535 12.0314C10.1487 12.0457 10.1392 12.0629 10.1306 12.0724C10.1221 12.0829 10.1154 12.0905 10.1259 12.1019C10.1344 12.1114 10.2678 12.2971 10.3125 12.3562C10.3259 12.3781 10.3468 12.3952 10.3744 12.4048V12.4057ZM10.5592 11.5505C10.6202 11.5943 10.6335 11.6771 10.5887 11.7371C10.583 11.7448 10.5887 11.7543 10.5973 11.7514C10.6716 11.7314 10.7325 11.7124 10.7716 11.661C10.8278 11.5867 10.8097 11.481 10.7344 11.4257C10.7297 11.4229 10.7249 11.4191 10.7192 11.4162C10.7125 11.4114 10.7049 11.4067 10.6944 11.4029C10.6306 11.3771 10.5649 11.3705 10.4735 11.3038C10.3973 11.2495 10.3716 11.2 10.3402 11.1581C10.3297 11.14 10.3144 11.1238 10.2954 11.1105C10.2202 11.0562 10.1125 11.0714 10.0583 11.1476C10.0211 11.2 10.0221 11.2648 10.0259 11.34C10.0259 11.3476 10.0354 11.3486 10.0392 11.3419C10.083 11.2819 10.1678 11.2695 10.2278 11.3124C10.2735 11.3448 10.303 11.4257 10.3602 11.4667C10.4125 11.5048 10.5116 11.5171 10.5573 11.5495L10.5592 11.5505ZM10.5221 11.7505C10.5592 11.701 10.5478 11.6305 10.4973 11.5952C10.4925 11.5905 10.4868 11.5867 10.4783 11.5838C10.4754 11.5829 10.4725 11.5819 10.4697 11.581C10.4687 11.581 10.4668 11.58 10.4659 11.58C10.4278 11.5667 10.3859 11.56 10.3325 11.5219C10.2764 11.481 10.2611 11.4467 10.2364 11.4162C10.2287 11.4057 10.2202 11.3952 10.2087 11.3876C10.1583 11.3514 10.0878 11.3629 10.0516 11.4124C10.0421 11.4257 10.0354 11.44 10.0325 11.4552C10.0316 11.461 10.0297 11.4676 10.0297 11.4733C10.0297 11.4733 10.0306 11.7924 10.0316 11.8019C10.0316 11.8171 10.0449 11.82 10.0535 11.8229C10.0621 11.8257 10.0849 11.8352 10.0973 11.8438C10.1097 11.8524 10.124 11.8667 10.1306 11.8781C10.1373 11.8895 10.144 11.8981 10.1573 11.8924C10.1697 11.8876 10.3887 11.8181 10.4583 11.7952C10.484 11.7895 10.5068 11.7743 10.523 11.7524L10.5221 11.7505ZM9.76016 11.3143C9.82016 11.2705 9.90493 11.2838 9.94873 11.3438C9.95445 11.3514 9.96397 11.3495 9.96493 11.34C9.96873 11.2648 9.96873 11.2 9.93254 11.1476C9.87921 11.0714 9.77159 11.0562 9.6954 11.1105C9.69064 11.1143 9.68588 11.1181 9.68112 11.1219C9.67445 11.1267 9.66778 11.1324 9.66016 11.141C9.6154 11.1924 9.58969 11.2524 9.49731 11.3181C9.42112 11.3724 9.36588 11.3819 9.31635 11.3981C9.2954 11.4038 9.2754 11.4124 9.25635 11.4257C9.18112 11.48 9.16207 11.5867 9.21921 11.661C9.25826 11.7124 9.32016 11.7314 9.3935 11.7514C9.40112 11.7533 9.40397 11.7457 9.39921 11.7391C9.3554 11.6791 9.36873 11.5952 9.42873 11.5524C9.47445 11.5191 9.56112 11.5162 9.61731 11.4752C9.67064 11.4371 9.71254 11.3476 9.75826 11.3152L9.76016 11.3143ZM9.94112 11.4114C9.90493 11.3619 9.8335 11.3505 9.78397 11.3867C9.77826 11.3905 9.77254 11.3943 9.76683 11.401C9.76493 11.4038 9.76302 11.4057 9.76112 11.4076C9.76016 11.4095 9.75921 11.4095 9.75826 11.4114C9.7335 11.4438 9.7154 11.48 9.66112 11.5191C9.60493 11.5591 9.56683 11.5629 9.53064 11.5771C9.51826 11.581 9.50588 11.5857 9.49445 11.5943C9.44397 11.6305 9.43254 11.701 9.46969 11.7505C9.47921 11.7629 9.49159 11.7733 9.50493 11.7819C9.51064 11.7848 9.5154 11.7876 9.52112 11.7895C9.52112 11.7895 9.82778 11.8876 9.83731 11.8905C9.85254 11.8943 9.85921 11.8838 9.86397 11.8762C9.86969 11.8695 9.88493 11.8505 9.89731 11.841C9.90969 11.8324 9.92778 11.8238 9.94016 11.821C9.95254 11.8181 9.96302 11.8152 9.96207 11.8C9.96112 11.7876 9.96207 11.5591 9.96207 11.4857C9.96397 11.46 9.95731 11.4333 9.94112 11.4105V11.4114ZM9.28873 11.9962C9.26588 11.9257 9.30397 11.8505 9.3754 11.8276C9.38493 11.8248 9.38588 11.8143 9.37731 11.8114C9.30588 11.7848 9.24397 11.7638 9.18302 11.7829C9.0935 11.8095 9.04493 11.9057 9.07445 11.9943C9.07635 11.9991 9.07826 12.0048 9.08112 12.0105C9.08397 12.0181 9.08778 12.0267 9.09254 12.0352C9.12874 12.0943 9.17826 12.1371 9.21254 12.2438C9.24207 12.3324 9.23254 12.3876 9.2335 12.4391C9.23159 12.46 9.2335 12.4819 9.24112 12.5038C9.27064 12.5924 9.36683 12.6419 9.4554 12.6114C9.51635 12.5905 9.55445 12.5381 9.5954 12.4743C9.60016 12.4676 9.5935 12.4629 9.58493 12.4648C9.51445 12.4876 9.43826 12.4495 9.4154 12.3791C9.39826 12.3257 9.42112 12.2438 9.40016 12.1771C9.38016 12.1152 9.30683 12.0476 9.28969 11.9952L9.28873 11.9962ZM9.43731 11.8552C9.37826 11.8752 9.34588 11.9371 9.36493 11.9962C9.36588 12.0029 9.36873 12.0086 9.3735 12.0162C9.3754 12.0191 9.37731 12.021 9.37921 12.0238C9.37921 12.0248 9.38016 12.0257 9.38112 12.0276C9.40493 12.06 9.43445 12.0895 9.45445 12.1524C9.4754 12.2181 9.46778 12.2552 9.46969 12.2933C9.46969 12.3057 9.47064 12.3191 9.4754 12.3324C9.49445 12.3905 9.55826 12.4229 9.61731 12.4038C9.63254 12.3991 9.64683 12.3905 9.65826 12.38C9.66302 12.3762 9.66778 12.3714 9.67159 12.3667C9.67159 12.3667 9.86016 12.1086 9.86588 12.1C9.87445 12.0876 9.86588 12.0771 9.86112 12.0705C9.85635 12.0629 9.84302 12.0429 9.83826 12.0286C9.8335 12.0143 9.83064 11.9943 9.83159 11.9819C9.8335 11.9686 9.8335 11.9581 9.81826 11.9552C9.80588 11.9524 9.58683 11.88 9.51635 11.8581C9.49159 11.8476 9.46493 11.8467 9.43826 11.8543L9.43731 11.8552Z" fill="#EA332E"/>
<path d="M9.89664 11.9743C9.89664 11.92 9.9414 11.8752 9.99664 11.8752C10.0519 11.8752 10.0966 11.92 10.0966 11.9743C10.0966 12.0286 10.0519 12.0733 9.99664 12.0733C9.9414 12.0733 9.89664 12.0286 9.89664 11.9743ZM10.9214 9.58952L11.7709 9.29524C11.7709 9.29524 11.6052 9.07524 11.5843 8.78857C11.5681 8.56571 11.6262 8.27905 11.6262 8.27905L10.9376 8.51619L10.9214 9.58952ZM8.0195 9.42667C8.20045 9.44476 8.35664 9.4781 8.35664 9.4781C8.35664 9.4781 8.31759 9.23048 8.35283 9.03429C8.40902 8.71619 8.54331 8.52476 8.54331 8.52476C8.54331 8.52476 8.39093 8.59524 8.1595 8.82952C7.85283 9.14095 7.74902 9.42476 7.74902 9.42476C7.74902 9.42476 7.86712 9.41048 8.0195 9.42667ZM9.86045 7.52095C9.86045 7.52095 9.86331 7.52095 9.86426 7.52095C9.8795 7.51905 9.88617 7.51048 9.88902 7.5C9.88902 7.49905 9.88902 7.50095 9.88902 7.49905C9.89093 7.49048 9.89664 7.48286 9.90426 7.47905L9.88331 7.41619C9.86521 7.42191 9.85664 7.43524 9.85664 7.44C9.85664 7.44857 9.85093 7.45333 9.8414 7.45714L9.86045 7.52191V7.52095ZM8.82045 8.17048C8.82045 8.17048 8.82331 8.17048 8.82426 8.17048C8.8395 8.16857 8.84712 8.16 8.84807 8.14952C8.84807 8.14857 8.84807 8.14952 8.84807 8.14762C8.84998 8.13905 8.85569 8.13238 8.86331 8.12857L8.84236 8.06476C8.82426 8.07048 8.81664 8.08381 8.81569 8.08857C8.81569 8.09714 8.80998 8.10191 8.80045 8.10571L8.8195 8.17048H8.82045ZM10.75 8.00762C10.75 8.00762 10.7528 8.00762 10.7538 8.00762C10.769 8.00571 10.7766 7.99714 10.7785 7.98667C10.7785 7.98476 10.7785 7.98667 10.7785 7.98476C10.7805 7.97619 10.7862 7.96857 10.7938 7.96476L10.7728 7.90095C10.7538 7.90667 10.7462 7.92 10.7462 7.92476C10.7462 7.93333 10.7405 7.9381 10.7309 7.94191L10.75 8.00667V8.00762ZM8.82045 8.88952C9.11474 8.78857 9.4414 8.78381 9.4414 8.78381C9.4414 8.78381 9.32712 8.68381 9.28712 8.50571C9.25378 8.3581 9.3014 8.26191 9.3014 8.26191L8.65093 8.48476C8.64902 8.49048 8.55093 8.57524 8.53855 8.77143C8.52807 8.96286 8.62521 9.02095 8.62521 9.02095C8.62521 9.02095 8.67664 8.93905 8.82045 8.88952ZM10.1357 9.51524C10.5014 9.46952 10.9243 9.59143 10.9243 9.59143C10.9243 9.59143 10.7014 9.28952 10.6433 9.04762C10.5919 8.83333 10.6481 8.60762 10.6481 8.60762L9.63093 8.9581C9.63093 8.9581 9.49759 9.10191 9.53188 9.3C9.57569 9.54952 9.75474 9.68571 9.75474 9.68571C9.75474 9.68571 9.78712 9.56 10.1357 9.51619V9.51524ZM9.64712 8.28762C9.64712 8.28762 9.66521 8.19905 9.85188 8.13333C10.1881 8.01619 10.4747 8.03143 10.4747 8.03143C10.4747 8.03143 10.369 7.93333 10.3462 7.74571C10.3347 7.64762 10.3824 7.53238 10.3824 7.53238L9.65188 7.78571C9.64617 7.79238 9.53855 7.91524 9.54521 8.06952C9.55474 8.26095 9.64617 8.28667 9.64617 8.28667L9.64712 8.28762Z" fill="#FCC661"/>
<path d="M8.7127 9.63429C8.7127 9.63429 8.58412 9.5381 8.55079 9.36096C8.51651 9.17905 8.60603 9.07143 8.60603 9.07143L9.44222 8.78477C9.44222 8.78477 9.39079 8.95048 9.43936 9.14C9.50127 9.38 9.62984 9.54 9.62984 9.54C9.62984 9.54 9.32317 9.48286 9.02603 9.52C8.74317 9.55524 8.7127 9.63524 8.7127 9.63524V9.63429ZM9.65079 8.91334C9.65079 8.91334 9.54508 8.79143 9.52508 8.60381C9.50412 8.40762 9.62127 8.32858 9.62984 8.32381L10.4746 8.03143C10.4746 8.03143 10.4517 8.09239 10.4727 8.26286C10.4908 8.40572 10.6317 8.60096 10.6317 8.60096C10.6317 8.60096 10.1822 8.61239 9.90222 8.72096C9.72603 8.78953 9.65079 8.91239 9.65079 8.91239V8.91334Z" fill="#FDC661"/>
<path d="M10.971 9.57428V9.7H10.8939L10.911 7.95143C10.8729 7.95524 10.8139 7.9619 10.8043 7.96286C10.792 7.96286 10.7805 7.97238 10.7777 7.98571C10.7777 7.98857 10.7777 7.98571 10.7777 7.98762C10.7758 7.99809 10.7682 8.00667 10.7529 8.00857C10.7415 8.00857 10.6291 8.01809 10.552 8.02095C10.5434 8.02095 10.5386 8.00952 10.551 8.00571C10.6177 7.98286 10.712 7.94952 10.7253 7.94571C10.7377 7.9419 10.7443 7.93714 10.7453 7.92667C10.7453 7.92095 10.7539 7.90762 10.7739 7.90286C10.791 7.89809 10.9539 7.84 10.9539 7.84L10.9682 9.46571C10.992 9.38286 11.0463 9.26286 11.172 9.12381C11.4824 8.7819 11.5929 8.41143 11.6234 8.28C11.591 8.47714 11.572 8.64095 11.591 8.82952C11.6167 9.08095 11.7682 9.29714 11.7682 9.29714L10.9691 9.57524L10.971 9.57428ZM8.22911 9.45143C8.31768 9.47143 8.35863 9.48 8.35863 9.48C8.35863 9.48 8.31959 9.23238 8.35482 9.03619C8.41101 8.71809 8.54244 8.52571 8.54244 8.52571C8.54244 8.52571 7.85387 9.36571 8.22911 9.45143ZM9.03292 8.75619L9.02625 8.00381H9.02435C9.00625 8.00952 8.86149 8.06095 8.8453 8.06476C8.8253 8.07048 8.81673 8.08381 8.81673 8.08952C8.81673 8.09905 8.80911 8.10476 8.79673 8.10857C8.7834 8.11238 8.68911 8.14571 8.62244 8.16857C8.61006 8.17333 8.61482 8.18476 8.62435 8.18476C8.70149 8.18095 8.81292 8.17238 8.82435 8.17143C8.83959 8.16952 8.8472 8.16095 8.84911 8.15048C8.84911 8.14952 8.84911 8.15048 8.84911 8.14857C8.85197 8.13619 8.86244 8.12667 8.87578 8.12571C8.88435 8.12571 8.94149 8.11905 8.97959 8.11428L8.97387 8.75619H9.03292ZM10.0082 8.07619H10.0663V7.35333H10.0653C10.0653 7.35333 9.90149 7.41048 9.8853 7.41524C9.8653 7.42095 9.85673 7.43429 9.85673 7.44C9.85673 7.45048 9.84911 7.45524 9.83673 7.45905C9.8234 7.46286 9.72911 7.49619 9.66244 7.51905C9.65006 7.52286 9.65482 7.53524 9.6634 7.53524C9.74054 7.53143 9.85197 7.52286 9.8634 7.5219C9.87863 7.52 9.88625 7.51143 9.88816 7.50095C9.88816 7.5 9.88816 7.5019 9.88816 7.5C9.89101 7.48762 9.90149 7.47809 9.91482 7.47714C9.9234 7.47714 9.97863 7.47048 10.0158 7.46571L10.0091 8.07714L10.0082 8.07619ZM9.6272 9.53905C9.6272 9.53905 9.49197 9.34381 9.44054 9.13524C9.39578 8.95714 9.44054 8.78476 9.44054 8.78476C9.44054 8.78476 9.35101 9.09143 9.13863 9.25809C8.99006 9.37524 8.63006 9.48286 8.71197 9.63429C8.7234 9.61333 8.76054 9.57428 8.91006 9.54C8.92816 9.53619 8.94625 9.53238 8.9653 9.52952V9.77809H9.04244V9.51905C9.31673 9.49048 9.6272 9.53905 9.6272 9.53905ZM8.6253 9.0219C8.64149 8.99619 8.70149 8.92095 8.89006 8.86857C9.17673 8.78952 9.44054 8.78476 9.44054 8.78476C9.44054 8.78476 9.33006 8.68571 9.29387 8.49619C9.27292 8.38667 9.29959 8.26095 9.29959 8.26095C9.29959 8.26095 9.19768 8.45619 9.01006 8.61048C8.81863 8.76857 8.56244 8.87905 8.62435 9.0219H8.6253ZM9.6453 8.28762C9.65673 8.24857 9.73768 8.17714 9.8653 8.13238C10.1643 8.02857 10.4739 8.03143 10.4739 8.03143C10.4739 8.03143 10.3682 7.93333 10.3453 7.74571C10.3339 7.64762 10.3815 7.53238 10.3815 7.53238C10.3815 7.53238 10.2539 7.75905 10.1234 7.87333C9.94244 8.03238 9.60054 8.1419 9.64625 8.28667L9.6453 8.28762ZM9.65006 8.91333C9.6672 8.88095 9.78244 8.77048 9.96816 8.70857C10.2539 8.61333 10.6463 8.60762 10.6463 8.60762C10.6463 8.60762 10.5177 8.45429 10.4748 8.26952C10.451 8.16571 10.4739 8.03238 10.4739 8.03238C10.4739 8.03238 10.392 8.26762 10.2091 8.42476C10.0263 8.5819 9.61197 8.75714 9.65101 8.91333H9.65006ZM10.9396 9.60571C10.9396 9.60571 10.7091 9.30952 10.6434 9.04667C10.5996 8.87333 10.632 8.67619 10.6463 8.60857C10.6215 8.70095 10.5272 8.99905 10.3034 9.20571C10.0891 9.40381 9.66339 9.50095 9.75387 9.68762C9.77006 9.65714 9.81863 9.58667 9.99101 9.54381L9.9872 9.78381H10.0682V9.52857C10.4443 9.46857 10.9386 9.60667 10.9386 9.60667L10.9396 9.60571Z" fill="#D3A030"/>
<path fill-rule="evenodd" clip-rule="evenodd" d="M11.3322 10.1648C11.3856 10.1543 11.4389 10.1429 11.517 10.1229C11.5122 10.12 11.5084 10.1171 11.5046 10.1133C11.418 10.0181 11.4342 9.91619 11.4865 9.86762C11.6761 9.68953 11.6742 9.56 11.6742 9.56C11.6742 9.56 11.2122 9.65524 10.6046 9.68667C10.5656 9.68857 10.4237 9.75048 10.3827 9.75238C10.2989 9.75524 10.2132 9.7581 10.1246 9.75905C8.97701 9.76762 8.65701 9.68857 8.27987 9.6181C7.89891 9.54667 7.73129 9.46953 7.73129 9.46953L7.71701 9.51048C7.71701 9.51048 8.01796 9.62667 8.2351 9.73238C8.28082 9.75429 8.45987 10.0238 8.51987 10.1143H7.15606C7.07987 8.55238 7.38272 7.27334 7.38272 7.27334C7.38272 7.27334 8.42653 7.05048 9.9951 7.05048V6.88286C8.33034 6.88286 7.22177 7.11905 7.22177 7.11905C7.22177 7.11905 6.73701 8.82667 6.99415 10.859C7.10177 11.7067 7.80272 13.2924 9.98939 14.0267L10.0856 13.8924L9.98939 13.76C7.93034 13.0686 7.32939 11.6752 7.22368 10.8771C7.20082 10.701 7.18272 10.5257 7.17034 10.3533H9.99701V10.1143H8.54558C8.57701 10.0095 8.67987 9.98381 8.80558 10.0143C8.93701 10.0457 9.06558 10.079 9.19034 10.0724C9.50082 10.0571 9.4551 9.97333 9.48368 9.97524C9.80272 9.99429 9.92367 10.0733 10.2027 10.0676C10.457 10.0638 10.5446 9.99714 10.5694 9.99619C10.8799 9.99333 10.997 10.1352 11.3084 10.1619C11.3161 10.1619 11.3246 10.1629 11.3322 10.1638V10.1648Z" fill="#FCC661"/>
<path fill-rule="evenodd" clip-rule="evenodd" d="M12.7579 7.11905C12.7579 7.11905 11.6541 6.88286 9.98742 6.88286V7.05048C11.5579 7.05048 12.5969 7.27334 12.5969 7.27334C12.5969 7.27334 12.8998 8.55238 12.8236 10.1143H11.456C11.3465 10.0105 11.4093 9.87048 11.4455 9.83905C11.6074 9.69524 11.6074 9.59714 11.6074 9.59714C11.6074 9.59714 11.2379 9.68952 10.6303 9.71619C10.5912 9.7181 10.4208 9.79429 10.3798 9.79524C10.296 9.79714 10.1769 9.80095 10.0893 9.80095C9.29789 9.80095 8.90932 9.78572 8.22266 9.63905C8.23504 9.65619 8.24075 9.66286 8.25408 9.68C8.25789 9.68476 8.55504 9.76191 8.55885 9.76762C8.60361 9.82857 8.66361 9.87238 8.73599 9.91048C8.84647 9.96953 9.00932 10.02 9.14647 10.0276C9.45599 10.0457 9.3979 9.93048 9.42647 9.92953C9.74456 9.92381 9.94837 10.0381 10.2274 10.0333C10.4817 10.0286 10.4903 9.94953 10.5141 9.94857C10.7646 9.93429 11.0208 10.0448 11.2398 10.1143H9.99028V10.3533H12.8103C12.7979 10.5257 12.7798 10.701 12.7569 10.8771C12.6522 11.6743 12.0493 13.0676 9.99028 13.76V14.0267C12.1769 13.2924 12.8798 11.7067 12.9874 10.859C13.2446 8.82667 12.7598 7.11905 12.7598 7.11905H12.7579Z" fill="#D3A030"/>
<path d="M4.87983 7.85524L4.99507 7.63715L5.51031 7.6L5.24841 7.15334L5.36269 6.93524L6.28174 7.41905L6.17602 7.62L5.57602 7.30477L5.83222 7.76953L5.82936 7.77429L5.30555 7.82572L5.90174 8.13905L5.79698 8.33715L4.87793 7.85334L4.87983 7.85524ZM6.3865 7.26381L6.5465 7.09429L6.44174 6.86572L6.74269 6.54572L6.97698 6.63619L7.14079 6.46286L6.07412 6.06953L5.92936 6.22286L6.38555 7.26381H6.3865ZM6.35126 6.66762L6.20079 6.33619L6.54079 6.46667L6.35126 6.66762ZM7.29317 6.35429L7.48555 6.23715L7.14364 5.67238L7.91602 5.97619L8.08269 5.87524L7.5446 4.98762L7.35126 5.10477L7.68269 5.65143L6.93507 5.35715L6.75507 5.46572L7.29412 6.35429H7.29317ZM8.80841 5.65143C9.00079 5.59524 9.09507 5.49429 9.1665 5.35524L8.98555 5.25429C8.92745 5.34857 8.87126 5.41429 8.75698 5.44762C8.58555 5.49715 8.4265 5.38857 8.37698 5.21715V5.21429C8.3265 5.04286 8.40745 4.86858 8.57602 4.82C8.67602 4.79143 8.7665 4.81143 8.86364 4.85905L8.95698 4.65715C8.83793 4.59238 8.70745 4.56286 8.51888 4.61715C8.21221 4.70572 8.06555 5 8.14745 5.28381V5.28667C8.23126 5.57334 8.51507 5.73715 8.80841 5.65238V5.65143ZM9.42079 5.49048L9.64936 5.48477L9.63888 5.06762L10.0598 5.05715L10.0703 5.47334L10.2989 5.46762L10.2722 4.42953L10.0436 4.43524L10.0541 4.84572L9.63317 4.85619L9.62269 4.44477L9.39412 4.45048L9.42079 5.48858V5.49048ZM11.9475 5.94572C12.1503 6.04 12.3427 6 12.4284 5.81334V5.81048C12.5055 5.64572 12.4294 5.52762 12.2617 5.38953C12.1179 5.27238 12.0875 5.23334 12.1151 5.17143V5.16858C12.1379 5.12286 12.196 5.10572 12.2751 5.14191C12.3551 5.17905 12.4208 5.25143 12.477 5.34858L12.657 5.24191C12.597 5.12096 12.4998 5.02381 12.3617 4.96C12.1694 4.87048 11.9789 4.92096 11.8998 5.09143V5.09429C11.8122 5.28096 11.9103 5.39048 12.0779 5.52667C12.217 5.64 12.237 5.68191 12.2122 5.73429V5.73715C12.1855 5.79238 12.1189 5.80191 12.0341 5.76286C11.9265 5.71334 11.8579 5.62762 11.8055 5.5181L11.6151 5.60762C11.6817 5.76096 11.8036 5.87715 11.9455 5.94381L11.9475 5.94572ZM12.6294 6.32762L12.8113 6.46667L13.3132 5.80762L13.5646 5.99905L13.6922 5.83143L13.0084 5.30953L12.8808 5.47715L13.1322 5.66858L12.6303 6.32762H12.6294ZM13.8455 7.61048L13.9484 7.81524L14.2455 7.66572L14.3265 7.82572L14.1294 8.17429L14.2494 8.41334L14.4675 8.02C14.5703 8.11619 14.7055 8.14953 14.8551 8.07429H14.8579C14.9455 8.02858 15.0046 7.96477 15.0303 7.88667C15.0608 7.79524 15.0475 7.68667 14.9884 7.56858L14.7751 7.14477L13.8465 7.61143L13.8455 7.61048ZM14.4255 7.57524L14.6922 7.44096L14.7941 7.64381C14.8446 7.74286 14.8303 7.82667 14.7427 7.87048H14.7398C14.6617 7.91143 14.5798 7.88096 14.5294 7.78191L14.4255 7.57524ZM10.9227 5.14762L11.3055 5.23048L11.4113 5.04572L10.9655 4.94953L11.0103 4.74381L11.5541 4.86191L11.597 4.66286L10.8313 4.49619L10.6113 5.51143L11.3846 5.67905L11.4275 5.48L10.876 5.36096L10.9217 5.14762H10.9227ZM14.0055 6.14L13.2094 6.80762L13.7179 7.41429L13.8732 7.28381L13.5113 6.85143L13.6789 6.71143L13.9332 7.01524L14.1398 6.94572L13.8341 6.58096L13.996 6.44572L14.3532 6.87238L14.5084 6.74191L14.0055 6.14096V6.14ZM8.77983 15.5391C8.98364 15.5391 9.1046 15.4667 9.21317 15.3505L9.06555 15.201C8.98269 15.2762 8.90841 15.3248 8.78745 15.3248C8.6065 15.3248 8.48079 15.1733 8.48079 14.9924V14.9895C8.48079 14.8086 8.60936 14.66 8.78745 14.66C8.89317 14.66 8.97602 14.7057 9.05793 14.7791L9.20555 14.6086C9.10745 14.5114 8.98841 14.4457 8.78841 14.4457C8.46364 14.4457 8.23698 14.6914 8.23698 14.9924V14.9952C8.23698 15.2991 8.46745 15.5391 8.77888 15.5391H8.77983ZM9.43983 15.521H9.67221V14.4638H9.43983V15.521ZM10.2132 15.521H10.4455V14.6781H10.7675V14.4638H9.89126V14.6781H10.2132V15.521ZM11.2732 15.521H11.5055V15.0991L11.9122 14.4629H11.6475L11.3913 14.8876L11.1389 14.4629H10.8675L11.2732 15.1029V15.52V15.521Z" fill="#00295C"/>
<path d="M6.14161 2.26762L6.22256 2.41428L5.7797 2.65904L5.84922 2.78571L6.24256 2.56857L6.32256 2.71428L5.92922 2.93143L6.02637 3.10666L5.85399 3.2019L5.52637 2.60857L6.14161 2.26857V2.26762Z" fill="#00295C"/>
<path d="M7.25952 2.52476L7.1519 2.43048L6.76524 2.58762L6.75381 2.73048L6.55762 2.81048L6.62619 2.05143L6.87762 1.94952L7.45571 2.44571L7.26047 2.52476H7.25952ZM6.77857 2.42286L7.02619 2.3219L6.80238 2.12667L6.77857 2.4219V2.42286Z" fill="#00295C"/>
<path d="M8.26914 2.03524L8.15199 1.56381L8.34152 1.51714L8.50438 2.17524L8.22533 2.24476L7.72057 1.86952L7.83771 2.34095L7.64723 2.38857L7.48438 1.73048L7.76438 1.66095L8.26914 2.03619V2.03524Z" fill="#00295C"/>
<path d="M9.22363 1.39238L10.0398 1.35905L10.0465 1.52571L9.73697 1.53809L9.75792 2.04857L9.56173 2.05619L9.54078 1.54571L9.2303 1.55809L9.22363 1.39143V1.39238Z" fill="#00295C"/>
<path d="M10.2781 1.69905C10.2971 1.47524 10.4628 1.35619 10.7476 1.38095C11.0314 1.40572 11.1752 1.55143 11.1561 1.77429C11.1371 1.9981 10.9704 2.1181 10.6866 2.09429C10.4019 2.06953 10.259 1.92381 10.2781 1.69905ZM10.9514 1.75714C10.9619 1.64 10.9009 1.56191 10.7333 1.54762C10.5666 1.53334 10.4933 1.5981 10.4838 1.71714C10.4733 1.83619 10.5352 1.91429 10.7009 1.92857C10.8676 1.94286 10.9419 1.87619 10.9523 1.7581L10.9514 1.75714Z" fill="#00295C"/>
<path d="M12.3239 1.67333L11.9248 1.87619L12.1743 2.33524L11.9334 2.28095L11.7601 1.96095L11.5705 2.05714L11.5401 2.19143L11.3486 2.14857L11.4982 1.48666L11.6905 1.53047L11.6239 1.82762L12.0372 1.60952L12.3248 1.67428L12.3239 1.67333Z" fill="#00295C"/>
<path d="M13.2654 1.99905L13.213 2.14381L12.7369 1.97143L12.6997 2.07334L13.1578 2.23905L13.1054 2.38381L12.6473 2.2181L12.6102 2.32L13.0864 2.49238L13.034 2.63715L12.373 2.3981L12.6035 1.76L13.2645 1.99905H13.2654Z" fill="#00295C"/>
<path d="M13.9519 2.87047L14.1748 2.43809L14.3491 2.52762L14.0376 3.13047L13.7815 2.99809L13.6491 2.3819L13.4262 2.81428L13.251 2.72381L13.5624 2.12095L13.8195 2.25333L13.9519 2.86952V2.87047Z" fill="#00295C"/>
<path d="M5.47881 17.0952C5.44929 17.1438 5.47881 17.2048 5.63119 17.2971C5.77119 17.3809 5.81881 17.38 5.84071 17.3438C5.86643 17.3019 5.84452 17.2781 5.67881 17.1629C5.45309 17.0048 5.37786 16.8952 5.455 16.7667C5.52833 16.6457 5.69214 16.6695 5.89309 16.7905C6.1169 16.9248 6.20452 17.0705 6.13214 17.2029L5.95595 17.0971C5.98643 17.0457 5.94262 16.9924 5.81214 16.9143C5.68833 16.84 5.64833 16.8438 5.62929 16.8752C5.60738 16.9114 5.62929 16.939 5.77881 17.0467C5.98262 17.1914 6.11214 17.2895 6.02071 17.4419C5.93119 17.5905 5.76738 17.5514 5.56071 17.4267C5.32548 17.2848 5.21786 17.1476 5.30167 16.9895L5.47786 17.0962L5.47881 17.0952Z" fill="#00295C"/>
<path d="M6.30432 17.4381C6.39384 17.2314 6.58813 17.1724 6.85099 17.2857C7.11289 17.399 7.20241 17.5829 7.11384 17.7886C7.02432 17.9952 6.82813 18.0562 6.56622 17.9429C6.30337 17.8295 6.2148 17.6457 6.30432 17.4381ZM6.92527 17.7076C6.97194 17.599 6.93861 17.5067 6.78432 17.439C6.63099 17.3724 6.54051 17.4114 6.49384 17.52C6.44622 17.6295 6.48051 17.7229 6.63289 17.7895C6.78622 17.8562 6.87861 17.8162 6.92527 17.7067V17.7076Z" fill="#00295C"/>
<path d="M7.8586 17.6429C8.0986 17.7105 8.20622 17.8514 8.1786 18.0248L7.97765 17.9686C7.98146 17.9048 7.9348 17.8371 7.81384 17.8038C7.67384 17.7648 7.58718 17.8143 7.55479 17.9286C7.52241 18.0438 7.57194 18.1324 7.71099 18.1714C7.83194 18.2048 7.90718 18.1714 7.9367 18.1133L8.13765 18.1695C8.07098 18.3333 7.90622 18.399 7.66527 18.3324C7.40337 18.259 7.29384 18.0971 7.35575 17.8733C7.4186 17.6505 7.59575 17.5695 7.85765 17.6429H7.8586Z" fill="#00295C"/>
<path d="M8.67857 17.8457L8.55857 18.5124L8.36523 18.4771L8.48523 17.8105L8.67857 17.8457Z" fill="#00295C"/>
<path d="M8.88349 18.2295C8.90158 18.0057 9.06634 17.8867 9.35111 17.9095C9.63492 17.9324 9.77968 18.0781 9.76063 18.301C9.74253 18.5248 9.57682 18.6457 9.29206 18.6229C9.0073 18.6 8.86349 18.4543 8.88253 18.2295H8.88349ZM9.55682 18.2848C9.56634 18.1676 9.50539 18.0905 9.33777 18.0762C9.17111 18.0629 9.09873 18.1286 9.08825 18.2467C9.07873 18.3657 9.14063 18.4429 9.30634 18.4571C9.47301 18.4705 9.5473 18.4038 9.55682 18.2848Z" fill="#00295C"/>
<path d="M10.2233 18.4095C10.2261 18.4667 10.2842 18.501 10.4623 18.4914C10.6252 18.4829 10.6642 18.4552 10.6614 18.4124C10.6585 18.3629 10.628 18.3562 10.4261 18.3533C10.1509 18.3486 10.0261 18.3 10.0185 18.1495C10.0109 18.0086 10.1604 17.9362 10.3947 17.9248C10.6556 17.9114 10.8099 17.9819 10.8233 18.1324L10.6185 18.1429C10.6156 18.0829 10.549 18.0638 10.3966 18.0714C10.2528 18.079 10.2214 18.1048 10.2233 18.141C10.2252 18.1829 10.2585 18.1943 10.4433 18.2C10.6928 18.2057 10.8556 18.2143 10.8652 18.3924C10.8737 18.5657 10.7166 18.6248 10.4756 18.6371C10.2014 18.6514 10.0347 18.5971 10.0166 18.419L10.2223 18.4086L10.2233 18.4095Z" fill="#00295C"/>
<path d="M11.1484 18.4086L11.336 18.381L11.357 18.5267L11.1694 18.5543L11.1475 18.4086H11.1484Z" fill="#00295C"/>
<path d="M11.8959 17.7076C12.1387 17.6486 12.3016 17.719 12.3625 17.8838L12.1597 17.9333C12.1321 17.8752 12.0578 17.84 11.9359 17.8695C11.7949 17.9038 11.7435 17.9895 11.7711 18.1057C11.7997 18.2219 11.8863 18.2752 12.0263 18.2409C12.1483 18.2114 12.1978 18.1448 12.1949 18.079L12.3978 18.0295C12.4197 18.2048 12.3083 18.3438 12.0654 18.4029C11.8006 18.4676 11.6254 18.38 11.5702 18.1543C11.5149 17.9295 11.6302 17.7724 11.8949 17.7076H11.8959Z" fill="#00295C"/>
<path d="M12.6304 17.879C12.5476 17.6695 12.6438 17.4905 12.9095 17.3848C13.1742 17.28 13.3685 17.3467 13.4504 17.5552C13.5333 17.7648 13.4371 17.9467 13.1723 18.0514C12.9066 18.1562 12.7133 18.0895 12.6304 17.879ZM13.26 17.6305C13.2171 17.521 13.1276 17.4781 12.9714 17.54C12.8162 17.601 12.779 17.6924 12.8228 17.8029C12.8666 17.9143 12.9571 17.9562 13.1114 17.8952C13.2666 17.8343 13.3038 17.741 13.26 17.6305Z" fill="#00295C"/>
<path d="M13.8663 17.739L13.5254 17.1524L13.7902 16.9981L14.2206 17.2686L14.1978 16.761L14.4625 16.6067L14.8035 17.1933L14.634 17.2914L14.3873 16.8667L14.414 17.42L14.2568 17.5114L13.7892 17.2152L14.0368 17.64L13.8663 17.739Z" fill="#00295C"/>
<path fill-rule="evenodd" clip-rule="evenodd" d="M4.81443 3.5945C2.95087 5.10546 1.75928 7.48133 1.75928 10C1.75928 12.5191 2.89032 14.7748 4.67244 16.287L4.53564 16.4482C2.70824 14.8976 1.54785 12.5838 1.54785 10C1.54785 7.41582 2.76959 4.98025 4.68127 3.43027L4.81443 3.5945Z" fill="white"/>
<path fill-rule="evenodd" clip-rule="evenodd" d="M18.2407 10C18.2407 7.41416 17.0504 5.10671 15.1865 3.59545L15.3197 3.43122C17.231 4.98092 18.4521 7.34775 18.4521 10C18.4521 12.6519 17.2914 14.8988 15.4644 16.4492L15.3276 16.288C17.11 14.7755 18.2407 12.5862 18.2407 10Z" fill="white"/>
</g>
<defs>
<clipPath id="clip0_6128_51546">
<rect width="20" height="20" fill="white"/>
</clipPath>
</defs>
</svg>
