<svg width="21" height="20" fill="none" xmlns="http://www.w3.org/2000/svg"><g clip-path="url(#clip0)"><path d="M10.998 20c5.523 0 10-4.477 10-10s-4.477-10-10-10-10 4.477-10 10 4.477 10 10 10z" fill="#D80027"/><path d="M12.803 5.531l.078-1.043-.676.801-.972-.394.554.886-.675.801 1.02-.25.55.89.074-1.046 1.02-.25-.973-.395zM6.471 6.086l.863 2.656h2.793L7.87 10.387l.864 2.656-2.262-1.64-2.262 1.64.867-2.656-2.261-1.645h2.793l.863-2.656zM12.854 15.488l-.66-.812-.977.379.566-.88-.66-.816 1.012.27.57-.879.055 1.047 1.015.27-.98.374.059 1.047zM14.479 12.106l-.313 1 .84-.63.855.606-.336-.992.84-.625-1.047.012-.34-.992-.308 1-1.047.015.856.606zM15.936 7.34l-.46.941.75.731-1.036-.148-.461.937-.18-1.031-1.039-.149.93-.488-.18-1.035.75.73.926-.488z" fill="#FFDA44"/></g><defs><clipPath id="clip0"><path fill="#fff" transform="translate(.998)" d="M0 0h20v20H0z"/></clipPath></defs></svg>
