<svg width="20" height="20" viewBox="0 0 20 20" fill="none" xmlns="http://www.w3.org/2000/svg">
<circle cx="10" cy="10" r="10" fill="url(#paint0_linear_5085_68244)"/>
<path d="M5.25392 6.97999C5.17878 6.74204 4.99092 6.57922 4.76549 6.5166C4.62772 6.70446 4.57763 6.94242 4.6653 7.18038C4.74044 7.41833 4.9283 7.58115 5.15373 7.64377C5.2915 7.4559 5.34159 7.20542 5.25392 6.97999Z" fill="white"/>
<path d="M4.70287 8.32006C4.59015 8.09463 4.38977 7.95687 4.16434 7.91929C4.05162 8.11968 4.02657 8.37016 4.13929 8.58307C4.252 8.79597 4.45239 8.94626 4.67782 8.98383C4.79054 8.79597 4.80306 8.54549 4.70287 8.32006Z" fill="white"/>
<path d="M5.25392 8.52044C5.47936 8.40773 5.72984 8.43278 5.9177 8.54549C5.88012 8.77093 5.74236 8.98383 5.51693 9.08403C5.2915 9.19674 5.04102 9.17169 4.85316 9.05898C4.89073 8.83355 5.04102 8.62064 5.25392 8.52044Z" fill="white"/>
<path d="M4.40229 9.81042C4.23948 9.62256 4.00152 9.54741 3.77609 9.57246C3.71347 9.79789 3.76357 10.0358 3.92638 10.2237C4.08919 10.4116 4.32715 10.4867 4.55258 10.4617C4.6152 10.2362 4.5651 9.99828 4.40229 9.81042Z" fill="white"/>
<path d="M4.99092 9.84799C5.17878 9.68518 5.41674 9.63508 5.64217 9.6977C5.66722 9.92313 5.59207 10.1611 5.40421 10.3239C5.21635 10.4867 4.9784 10.5368 4.75296 10.4742C4.72792 10.2488 4.80306 10.0108 4.99092 9.84799Z" fill="white"/>
<path d="M4.62772 11.3759C4.42734 11.2382 4.17686 11.2131 3.96395 11.3008C3.96395 11.5262 4.07667 11.7516 4.27705 11.8894C4.47744 12.0272 4.72792 12.0522 4.94082 11.9645C4.9283 11.7391 4.82811 11.5137 4.62772 11.3759Z" fill="white"/>
<path d="M5.20383 11.2632C5.34159 11.0628 5.56702 10.9501 5.79246 10.9501C5.88012 11.163 5.85508 11.4135 5.71731 11.6139C5.57955 11.8143 5.35412 11.927 5.12868 11.927C5.04102 11.7141 5.06606 11.4761 5.20383 11.2632Z" fill="white"/>
<path d="M5.31654 12.7786C5.09111 12.6909 4.84063 12.7285 4.65277 12.8538C4.70287 13.0792 4.86568 13.267 5.09111 13.3547C5.31654 13.4424 5.56702 13.4048 5.75488 13.2796C5.70479 13.0667 5.5545 12.8663 5.31654 12.7786Z" fill="white"/>
<path d="M5.8676 12.5406C5.95527 12.3152 6.15565 12.1524 6.36856 12.1023C6.4938 12.2902 6.53137 12.5407 6.4437 12.7661C6.35604 12.9915 6.15565 13.1543 5.94274 13.2044C5.8175 13.0166 5.77993 12.7786 5.8676 12.5406Z" fill="white"/>
<path d="M5.80498 7.25552C5.56702 7.33067 5.40421 7.51853 5.34159 7.74396C5.52945 7.88172 5.76741 7.93182 6.00536 7.84415C6.24332 7.76901 6.40613 7.58114 6.46875 7.35571C6.28089 7.21795 6.03041 7.18038 5.80498 7.25552Z" fill="white"/>
<path d="M12.8936 10.9626C12.4928 11.927 11.5535 12.5782 10.4764 12.5782C9.38685 12.5782 8.44754 11.9145 8.0593 10.9626C7.93406 10.662 7.85892 10.3239 7.85892 9.97323C7.85892 9.62256 7.93406 9.28441 8.0593 8.97131C8.44754 8.01949 9.38685 7.35571 10.4764 7.35571C11.5535 7.35571 12.4928 8.00696 12.8936 8.97131H14.3213C13.8704 7.243 12.2924 6.00312 10.4764 6.00312C8.6354 6.00312 7.08243 7.26805 6.63156 8.97131C6.5439 9.28441 6.50632 9.62256 6.50632 9.97323C6.50632 10.3114 6.55642 10.6495 6.63156 10.9626C7.0699 12.6659 8.6354 13.9308 10.4764 13.9308C12.2924 13.9308 13.8704 12.6784 14.3213 10.9626H12.8936Z" fill="white"/>
<path d="M16.25 9.97323C16.25 10.1486 16.1373 10.2989 15.9745 10.3615C15.9369 10.374 15.8868 10.3865 15.8367 10.3865C15.7741 10.3865 15.724 10.374 15.6739 10.349C15.5236 10.2863 15.4234 10.136 15.4234 9.97323C15.4234 9.81042 15.5236 9.66013 15.6739 9.59751C15.724 9.57246 15.7866 9.55994 15.8367 9.55994C15.8868 9.55994 15.9369 9.57246 15.9745 9.58499C16.1248 9.63508 16.25 9.78537 16.25 9.97323Z" fill="white"/>
<path d="M15.5988 10.9877H15.9119C15.4234 13.5801 13.144 15.5589 10.4138 15.5589C9.07375 15.5589 7.78377 15.083 6.76933 14.2063L6.96971 13.9809C7.92154 14.8075 9.14889 15.2584 10.4138 15.2584C12.9687 15.2458 15.1103 13.4173 15.5988 10.9877Z" fill="white"/>
<path d="M10.4138 4.6881C8.97355 4.6881 7.62096 5.2642 6.61904 6.29117L6.39361 6.07826C7.45815 4.97615 8.88589 4.375 10.4138 4.375C13.144 4.375 15.4234 6.34127 15.9119 8.93374H15.5988C15.1103 6.5166 12.9687 4.6881 10.4138 4.6881Z" fill="white"/>
<defs>
<linearGradient id="paint0_linear_5085_68244" x1="-4.35911e-09" y1="10" x2="19.9959" y2="10.2864" gradientUnits="userSpaceOnUse">
<stop stop-color="#59C2E1"/>
<stop offset="1" stop-color="#005BAB"/>
</linearGradient>
</defs>
</svg>
