<svg width="64" height="64" viewBox="0 0 64 64" fill="none" xmlns="http://www.w3.org/2000/svg">
<g clip-path="url(#clip0_85_69133)">
<path d="M32 0C49.6749 0 64 14.3281 64 32C64 49.6749 49.6749 64 32 64C14.3281 64 0 49.6733 0 32C0 14.3281 14.3281 0 32 0Z" fill="#F5AC37"/>
<path d="M33.1693 34.2448H45.3286C45.5878 34.2448 45.7104 34.2448 45.729 33.905C45.8285 32.6678 45.8285 31.4238 45.729 30.1854C45.729 29.9449 45.6096 29.8456 45.3488 29.8456H21.1495C20.85 29.8456 20.7693 29.9449 20.7693 30.2257V33.7853C20.7693 34.2448 20.7693 34.2448 21.2489 34.2448H33.1693ZM44.3712 25.6854C44.4058 25.5946 44.4058 25.4953 44.3712 25.406C44.168 24.9639 43.9277 24.542 43.6483 24.146C43.2278 23.4692 42.7325 22.8457 42.168 22.2855C41.9014 21.9471 41.5933 21.6432 41.2477 21.3855C39.5168 19.9124 37.4592 18.8698 35.2474 18.3456C34.1312 18.095 32.9907 17.9755 31.8474 17.9856H21.1077C20.8082 17.9856 20.7679 18.1051 20.7679 18.3658V25.465C20.7679 25.7646 20.7679 25.8452 21.1481 25.8452H44.2272C44.2272 25.8452 44.4272 25.8049 44.4675 25.6854H44.3712ZM44.3712 38.4051C44.0314 38.3677 43.6886 38.3677 43.3488 38.4051H21.1697C20.8701 38.4051 20.7693 38.4051 20.7693 38.8054V45.7462C20.7693 46.0659 20.7693 46.1466 21.1697 46.1466H31.4096C31.8992 46.184 32.3888 46.1494 32.8685 46.047C34.3546 45.9405 35.816 45.6179 37.2099 45.0867C37.7168 44.911 38.2064 44.6819 38.6688 44.407H38.8083C41.209 43.1584 43.1587 41.1971 44.3885 38.7894C44.3885 38.7894 44.528 38.4842 44.3712 38.4051ZM16.7503 49.745V49.6256V44.9658V43.3859V38.6858C16.7503 38.4253 16.7503 38.3862 16.4306 38.3862H12.0904C11.8499 38.3862 11.7505 38.3862 11.7505 38.0666V34.2666H16.3903C16.6495 34.2666 16.7503 34.2666 16.7503 33.9264V30.1667C16.7503 29.9262 16.7503 29.8672 16.4306 29.8672H12.0904C11.8499 29.8672 11.7505 29.8672 11.7505 29.5475V26.0281C11.7505 25.8077 11.7505 25.7487 12.0702 25.7487H16.3701C16.6696 25.7487 16.7503 25.7487 16.7503 25.3686V14.5886C16.7503 14.2689 16.7503 14.1883 17.1506 14.1883H32.1498C33.2384 14.2315 34.32 14.351 35.3898 14.5483C37.5946 14.9558 39.7126 15.7435 41.6496 16.8682C42.9341 17.6242 44.1162 18.5371 45.169 19.5884C45.961 20.4106 46.6752 21.3005 47.3088 22.248C47.9382 23.2085 48.4608 24.2353 48.8714 25.3081C48.9216 25.5874 49.1894 25.7761 49.4688 25.7285H53.0486C53.5082 25.7285 53.5082 25.7286 53.5283 26.1692V29.4496C53.5283 29.7693 53.4086 29.8499 53.0877 29.8499H50.327C50.0477 29.8499 49.967 29.8499 49.9872 30.2099C50.0966 31.4281 50.0966 32.6506 49.9872 33.8688C49.9872 34.209 49.9872 34.2493 50.369 34.2493H53.5267C53.6666 34.4291 53.5267 34.6093 53.5267 34.7907C53.5469 35.0224 53.5469 35.2573 53.5267 35.489V37.9098C53.5267 38.2496 53.4275 38.3504 53.1264 38.3504H49.3466C49.0829 38.2998 48.8266 38.4685 48.7661 38.7306C47.8662 41.0704 46.4262 43.1686 44.5654 44.8506C43.8858 45.4624 43.1715 46.0384 42.4256 46.5699C41.625 47.0307 40.8461 47.5101 40.0253 47.8902C38.5146 48.5699 36.9306 49.071 35.305 49.3894C33.7613 49.6659 32.1958 49.791 30.6248 49.7696H16.7445V49.7494L16.7503 49.745Z" fill="#FEFEFD"/>
<mask id="mask0_85_69133" style="mask-type:luminance" maskUnits="userSpaceOnUse" x="32" y="32" width="32" height="32">
<path d="M64 32H32V64H64V32Z" fill="white"/>
</mask>
<g mask="url(#mask0_85_69133)">
<path d="M48 64C56.8365 64 64 56.8365 64 48C64 39.1635 56.8365 32 48 32C39.1635 32 32 39.1635 32 48C32 56.8365 39.1635 64 48 64Z" fill="#8247E5"/>
<path fill-rule="evenodd" clip-rule="evenodd" d="M42.9014 39.2816C42.7955 39.3209 41.686 39.9225 40.4354 40.6189C38.8274 41.5142 38.1151 41.927 38.0015 42.0301C37.91 42.1129 37.8012 42.2544 37.7484 42.3584L37.6562 42.5408V45.3686V48.1971L37.7474 48.3773C37.9209 48.7197 37.9766 48.7555 40.4806 50.1478C41.759 50.8585 42.8687 51.4592 42.9465 51.4825C43.1564 51.5456 43.5458 51.5369 43.7522 51.4643C43.9167 51.4067 45.4652 50.5517 47.7343 49.2656C50.2508 47.8393 52.1091 46.8115 52.2623 46.7603C52.3878 46.7187 52.4982 46.7085 52.7142 46.7177C53.0732 46.7337 53.0713 46.7328 54.5852 47.5766C55.8454 48.279 55.9954 48.3862 56.165 48.7056C56.2172 48.8041 56.2754 48.968 56.294 49.0697C56.3401 49.3209 56.3398 51.8557 56.2937 52.1053C56.2454 52.368 56.1238 52.5961 55.9398 52.7693C55.7356 52.9616 53.2467 54.3897 53.0073 54.4518C52.7903 54.5081 52.5014 54.5049 52.2947 54.4435C52.2012 54.416 51.5497 54.0749 50.8466 53.6857C49.4354 52.9046 49.2975 52.8057 49.1225 52.447L49.031 52.2595L49.0156 51.2528L48.9999 50.2457L47.9926 50.815L46.9852 51.3843L46.9849 52.2813C46.9846 52.8275 46.998 53.2429 47.0194 53.344C47.0825 53.6409 47.229 53.8765 47.453 54.0397C47.7196 54.2342 52.1775 56.6921 52.3398 56.7341C52.5826 56.7971 52.9059 56.7849 53.1295 56.704C53.2355 56.6656 54.3455 56.0649 55.5964 55.3689C58.0761 53.9888 58.1017 53.9718 58.285 53.5987L58.375 53.4157V50.6032V47.7907L58.2835 47.6105C58.1113 47.2704 58.0514 47.2313 55.5388 45.8256C54.254 45.1069 53.1359 44.4979 53.0543 44.4723C52.8425 44.4061 52.4739 44.4083 52.2655 44.4771C52.1708 44.5085 51.4115 44.9235 50.5779 45.4C49.7443 45.8761 48.5631 46.5405 47.9529 46.8758C47.343 47.2115 46.1775 47.8672 45.3634 48.3334C44.5494 48.7997 43.8121 49.2022 43.725 49.2281C43.5033 49.2937 43.127 49.2886 42.919 49.2166C42.7314 49.152 40.3663 47.8304 40.1343 47.6608C39.9583 47.5321 39.7529 47.2352 39.6876 47.0163C39.6159 46.7747 39.6182 43.9571 39.6902 43.7104C39.751 43.5027 39.8876 43.2819 40.0415 43.1427C40.2044 42.9958 42.7247 41.6009 42.942 41.5379C43.134 41.4822 43.495 41.4896 43.7065 41.5539C43.7686 41.5728 44.4015 41.9113 45.1129 42.3062C46.3014 42.9664 46.4217 43.0406 46.598 43.2243C46.9235 43.5638 46.9337 43.608 46.9526 44.7622L46.9686 45.7337L47.9622 45.1715L48.9555 44.6089L48.9465 43.5897L48.9372 42.5705L48.8348 42.3622C48.7705 42.2317 48.6761 42.104 48.5814 42.0192C48.4425 41.895 44.1071 39.4128 43.8066 39.2854C43.7356 39.2553 43.5676 39.2297 43.3906 39.2224C43.1385 39.2121 43.0646 39.2211 42.9014 39.2816Z" fill="white"/>
</g>
</g>
<defs>
<clipPath id="clip0_85_69133">
<rect width="64" height="64" fill="white"/>
</clipPath>
</defs>
</svg>
