<svg width="64" height="64" viewBox="0 0 64 64" fill="none" xmlns="http://www.w3.org/2000/svg">
<g clip-path="url(#clip0_85_69123)">
<path d="M32 0C49.6749 0 64 14.3281 64 32C64 49.6749 49.6749 64 32 64C14.3281 64 0 49.6733 0 32C0 14.3281 14.3281 0 32 0Z" fill="#F5AC37"/>
<path d="M33.1693 34.2448H45.3286C45.5878 34.2448 45.7104 34.2448 45.729 33.905C45.8285 32.6678 45.8285 31.4238 45.729 30.1854C45.729 29.9449 45.6096 29.8456 45.3488 29.8456H21.1495C20.85 29.8456 20.7693 29.9449 20.7693 30.2257V33.7853C20.7693 34.2448 20.7693 34.2448 21.2489 34.2448H33.1693ZM44.3712 25.6854C44.4058 25.5946 44.4058 25.4953 44.3712 25.406C44.168 24.9639 43.9277 24.542 43.6483 24.146C43.2278 23.4692 42.7325 22.8457 42.168 22.2855C41.9014 21.9471 41.5933 21.6432 41.2477 21.3855C39.5168 19.9124 37.4592 18.8698 35.2474 18.3456C34.1312 18.095 32.9907 17.9755 31.8474 17.9856H21.1077C20.8082 17.9856 20.7679 18.1051 20.7679 18.3658V25.465C20.7679 25.7646 20.7679 25.8452 21.1481 25.8452H44.2272C44.2272 25.8452 44.4272 25.8049 44.4675 25.6854H44.3712ZM44.3712 38.4051C44.0314 38.3677 43.6886 38.3677 43.3488 38.4051H21.1697C20.8701 38.4051 20.7693 38.4051 20.7693 38.8054V45.7462C20.7693 46.0659 20.7693 46.1466 21.1697 46.1466H31.4096C31.8992 46.184 32.3888 46.1494 32.8685 46.047C34.3546 45.9405 35.816 45.6179 37.2099 45.0867C37.7168 44.911 38.2064 44.6819 38.6688 44.407H38.8083C41.209 43.1584 43.1587 41.1971 44.3885 38.7894C44.3885 38.7894 44.528 38.4842 44.3712 38.4051ZM16.7503 49.745V49.6256V44.9658V43.3859V38.6858C16.7503 38.4253 16.7503 38.3862 16.4306 38.3862H12.0904C11.8499 38.3862 11.7505 38.3862 11.7505 38.0666V34.2666H16.3903C16.6495 34.2666 16.7503 34.2666 16.7503 33.9264V30.1667C16.7503 29.9262 16.7503 29.8672 16.4306 29.8672H12.0904C11.8499 29.8672 11.7505 29.8672 11.7505 29.5475V26.0281C11.7505 25.8077 11.7505 25.7487 12.0702 25.7487H16.3701C16.6696 25.7487 16.7503 25.7487 16.7503 25.3686V14.5886C16.7503 14.2689 16.7503 14.1883 17.1506 14.1883H32.1498C33.2384 14.2315 34.32 14.351 35.3898 14.5483C37.5946 14.9558 39.7126 15.7435 41.6496 16.8682C42.9341 17.6242 44.1162 18.5371 45.169 19.5884C45.961 20.4106 46.6752 21.3005 47.3088 22.248C47.9382 23.2085 48.4608 24.2353 48.8714 25.3081C48.9216 25.5874 49.1894 25.7761 49.4688 25.7285H53.0486C53.5082 25.7285 53.5082 25.7286 53.5283 26.1692V29.4496C53.5283 29.7693 53.4086 29.8499 53.0877 29.8499H50.327C50.0477 29.8499 49.967 29.8499 49.9872 30.2099C50.0966 31.4281 50.0966 32.6506 49.9872 33.8688C49.9872 34.209 49.9872 34.2493 50.369 34.2493H53.5267C53.6666 34.4291 53.5267 34.6093 53.5267 34.7907C53.5469 35.0224 53.5469 35.2573 53.5267 35.489V37.9098C53.5267 38.2496 53.4275 38.3504 53.1264 38.3504H49.3466C49.0829 38.2998 48.8266 38.4685 48.7661 38.7306C47.8662 41.0704 46.4262 43.1686 44.5654 44.8506C43.8858 45.4624 43.1715 46.0384 42.4256 46.5699C41.625 47.0307 40.8461 47.5101 40.0253 47.8902C38.5146 48.5699 36.9306 49.071 35.305 49.3894C33.7613 49.6659 32.1958 49.791 30.6248 49.7696H16.7445V49.7494L16.7503 49.745Z" fill="#FEFEFD"/>
<g clip-path="url(#clip1_85_69123)">
<path d="M51.4569 46.6615L53.8069 42.6742L60.1409 52.5397L60.144 54.4325L60.1232 41.4042C60.1158 41.247 60.0707 41.094 59.9918 40.9579C59.9128 40.8219 59.8022 40.7068 59.6694 40.6225L48.2657 34.0633C48.1294 33.9986 47.9804 33.9653 47.8296 33.966C47.6788 33.9667 47.53 34.0014 47.3944 34.0674C47.3592 34.085 47.3251 34.1048 47.2922 34.1265L47.2526 34.1516L36.1832 40.5659L36.1401 40.5853C36.0827 40.6119 36.028 40.6438 35.9766 40.6806C35.769 40.8289 35.6275 41.0523 35.5823 41.3034C35.5754 41.3415 35.5706 41.3799 35.5681 41.4186L35.5855 52.0352L41.4854 42.8908C42.2281 41.6783 43.8465 41.2877 45.3489 41.3089L47.1121 41.3545L36.7225 58.0162L37.9473 58.7213L48.4614 41.3711L53.1086 41.3542L42.6217 59.1414L46.9924 61.6568L47.5146 61.9571C47.7398 62.0467 47.9899 62.0515 48.2185 61.971L59.7825 55.2696L57.5705 56.5507L51.4569 46.6615ZM52.3536 59.5747L47.9396 52.647L50.6339 48.075L56.4307 57.2118L52.3536 59.5747Z" fill="#2D374B"/>
<path d="M47.9396 52.647L52.3536 59.5746L56.431 57.2115L50.6344 48.075L47.9396 52.647Z" fill="#28A0F0"/>
<path d="M60.1447 54.4326L60.1416 52.5398L53.8075 42.6744L51.4563 46.6612L57.571 56.5504L59.7831 55.2693C59.8901 55.1826 59.9776 55.0741 60.04 54.9512C60.1024 54.8282 60.1381 54.6934 60.1448 54.5558L60.1447 54.4326Z" fill="#28A0F0"/>
<path d="M33.6012 56.2182L36.7233 58.0171L47.1129 41.3556L45.3496 41.3099C43.8473 41.2887 42.2289 41.6791 41.4862 42.8919L35.5863 52.0363L33.6023 55.0859L33.6012 56.2182Z" fill="white"/>
<path d="M53.1091 41.3553L48.4621 41.3722L37.9481 58.7222L41.623 60.8382L42.6222 59.1432L53.1091 41.3553Z" fill="white"/>
<path d="M62.1022 41.3314C62.081 40.8519 61.9434 40.3846 61.7013 39.9701C61.4592 39.5555 61.12 39.2061 60.7128 38.9518L49.1597 32.3081C48.7474 32.1054 48.2939 32 47.8344 32C47.3748 32 46.9214 32.1054 46.509 32.3081C46.4125 32.3566 35.2738 38.8168 35.2738 38.8168C35.1191 38.8911 34.971 38.9787 34.8314 39.0786C34.4697 39.3358 34.171 39.6716 33.9578 40.0608C33.7445 40.45 33.6222 40.8825 33.6 41.3257V55.0853L35.584 52.0357L35.5687 41.4195C35.578 41.2739 35.6194 41.1322 35.69 41.0046C35.7607 40.877 35.8587 40.7667 35.9771 40.6815C36.0296 40.6439 47.3585 34.0863 47.3945 34.0683C47.5301 34.0023 47.6788 33.9676 47.8297 33.9669C47.9805 33.9662 48.1296 33.9995 48.2658 34.0642L59.6694 40.6238C59.8022 40.7082 59.9128 40.8232 59.9918 40.9593C60.0709 41.0953 60.1158 41.2484 60.1234 41.4056V54.5571C60.1205 54.6936 60.0886 54.8277 60.0299 54.9507C59.9712 55.0738 59.8867 55.1829 59.7824 55.2707L57.5704 56.5518L56.4302 57.2131L52.3528 59.5762L48.2178 61.9726C47.9891 62.0533 47.739 62.0483 47.5137 61.9587L42.6216 59.145L41.6223 60.8397L46.0189 63.371C46.1644 63.4536 46.2939 63.527 46.4002 63.5867C46.5649 63.6779 46.6771 63.7406 46.7165 63.7598C47.0843 63.921 47.482 64.0029 47.8836 64C48.252 64.0005 48.6171 63.9318 48.96 63.7974L60.9702 56.8421C61.3091 56.5786 61.5861 56.2438 61.7814 55.8618C61.977 55.4795 62.0864 55.0592 62.1018 54.6301L62.1022 41.3314Z" fill="#96BEDC"/>
</g>
</g>
<defs>
<clipPath id="clip0_85_69123">
<rect width="64" height="64" fill="white"/>
</clipPath>
<clipPath id="clip1_85_69123">
<rect width="32" height="32" fill="white" transform="translate(32 32)"/>
</clipPath>
</defs>
</svg>
