<svg width="64" height="64" viewBox="0 0 64 64" fill="none" xmlns="http://www.w3.org/2000/svg">
<g clip-path="url(#clip0_85_68636)">
<path d="M32 64C49.6731 64 64 49.6731 64 32C64 14.3269 49.6731 0 32 0C14.3269 0 0 14.3269 0 32C0 49.6731 14.3269 64 32 64Z" fill="#BFA64A"/>
<path d="M19.9282 14.5172H32.698C37.9319 14.5172 42.0109 16.0357 44.9348 19.0727C47.8586 22.1096 49.3207 26.3905 49.3207 31.9151C49.3207 37.4559 47.8586 41.7692 44.9348 44.8547C42.0109 47.9401 37.9319 49.4828 32.698 49.4828H19.9282V14.5172ZM26.1799 19.7996V44.2006H32.0439C35.5655 44.2006 38.2631 43.1503 40.137 41.0505C42.0109 38.9503 42.9479 35.9132 42.9479 31.9395C42.9479 28.0301 42.0029 25.0335 40.1127 22.9497C38.2228 20.8496 35.5332 19.7996 32.0439 19.7996H26.1799Z" fill="white"/>
<path d="M37.31 28.8586V35.1422H15.2V28.8586H37.31Z" fill="white"/>
<path d="M48 64C56.8366 64 64 56.8366 64 48C64 39.1634 56.8366 32 48 32C39.1634 32 32 39.1634 32 48C32 56.8366 39.1634 64 48 64Z" fill="#131419"/>
<path fill-rule="evenodd" clip-rule="evenodd" d="M42.9111 45.9146L48 40.8253L53.089 45.9146L56.0474 42.9562L48 34.9088L39.9527 42.9562L42.9111 45.9146ZM37.8647 45.0503L34.9098 48.0051L37.8647 50.96L40.8195 48.0051L37.8647 45.0503ZM48 55.1824L42.9111 50.0931L39.9527 53.0515L48 61.0989L56.0474 53.0515L53.089 50.0931L48 55.1824ZM58.136 45.0506L55.1812 48.0055L58.136 50.9603L61.0909 48.0055L58.136 45.0506ZM48.0016 45.0042L51.0013 48.0039L48.0016 51.0035L45.002 48.0039L45.5191 47.4659L45.7879 47.2179L48.0016 45.0042Z" fill="#F0B90B"/>
</g>
<defs>
<clipPath id="clip0_85_68636">
<rect width="64" height="64" fill="white"/>
</clipPath>
</defs>
</svg>
