<svg width="64" height="64" viewBox="0 0 64 64" fill="none" xmlns="http://www.w3.org/2000/svg">
<g clip-path="url(#clip0_85_68869)">
<path d="M64 0H0V64H64V0Z" fill="#E5E5E5"/>
<path d="M64 0H0V64H64V0Z" fill="#E6007A"/>
<path d="M32.0006 18.8714C36.4944 18.8714 40.1373 16.7517 40.1373 14.137C40.1373 11.5222 36.4944 9.40256 32.0006 9.40256C27.507 9.40256 23.8641 11.5222 23.8641 14.137C23.8641 16.7517 27.507 18.8714 32.0006 18.8714Z" fill="white"/>
<path d="M32.0006 54.5312C36.4944 54.5312 40.1373 52.4115 40.1373 49.7968C40.1373 47.1818 36.4944 45.0621 32.0006 45.0621C27.507 45.0621 23.8641 47.1818 23.8641 49.7968C23.8641 52.4115 27.507 54.5312 32.0006 54.5312Z" fill="white"/>
<path d="M20.6592 25.4192C22.906 21.5276 22.8918 17.3129 20.6274 16.0055C18.3629 14.6982 14.7058 16.7932 12.4589 20.6848C10.2121 24.5765 10.2263 28.7912 12.4907 30.0986C14.7552 31.4059 18.4123 29.3109 20.6592 25.4192Z" fill="white"/>
<path d="M51.5405 43.2493C53.7872 39.3574 53.7731 35.143 51.5085 33.8355C49.2442 32.5283 45.5869 34.6234 43.3402 38.5149C41.0934 42.4064 41.1075 46.6211 43.3718 47.9283C45.6365 49.2358 49.2934 47.1408 51.5405 43.2493Z" fill="white"/>
<path d="M20.6273 47.9283C22.8917 46.6208 22.906 42.4061 20.6591 38.5145C18.4123 34.6227 14.7551 32.5277 12.4907 33.8352C10.2263 35.1424 10.2121 39.3571 12.4589 43.2489C14.7058 47.1405 18.3629 49.2355 20.6273 47.9283Z" fill="white"/>
<path d="M51.5085 30.099C53.7731 28.7916 53.7872 24.5769 51.5405 20.6851C49.2934 16.7934 45.6365 14.6984 43.3718 16.0057C41.1075 17.3131 41.0934 21.5278 43.3402 25.4196C45.5869 29.3113 49.2442 31.4063 51.5085 30.099Z" fill="white"/>
</g>
<defs>
<clipPath id="clip0_85_68869">
<rect width="64" height="64" rx="32" fill="white"/>
</clipPath>
</defs>
</svg>
