<svg width="64" height="64" viewBox="0 0 64 64" fill="none" xmlns="http://www.w3.org/2000/svg">
<g clip-path="url(#clip0_85_68878)">
<path d="M0 32C0 49.6731 14.3269 64 32 64C49.6731 64 64 49.6731 64 32C64 14.3269 49.6731 0 32 0C14.3269 0 0 14.3269 0 32Z" fill="#E5E5E5"/>
<path d="M64 32C64 14.3269 49.6731 0 32 0V0C14.3269 0 0 14.3269 0 32V32C0 49.6731 14.3269 64 32 64V64C49.6731 64 64 49.6731 64 32V32Z" fill="#E6007A"/>
<path d="M32.0007 18.8714C36.4944 18.8714 40.1373 16.7517 40.1373 14.137C40.1373 11.5223 36.4944 9.40259 32.0007 9.40259C27.507 9.40259 23.8641 11.5223 23.8641 14.137C23.8641 16.7517 27.507 18.8714 32.0007 18.8714Z" fill="white"/>
<path d="M32.0007 54.5312C36.4944 54.5312 40.1373 52.4115 40.1373 49.7968C40.1373 47.1818 36.4944 45.0621 32.0007 45.0621C27.507 45.0621 23.8641 47.1818 23.8641 49.7968C23.8641 52.4115 27.507 54.5312 32.0007 54.5312Z" fill="white"/>
<path d="M20.6592 25.4192C22.9061 21.5276 22.8918 17.3129 20.6274 16.0055C18.363 14.6982 14.7058 16.7932 12.459 20.6848C10.2121 24.5765 10.2263 28.7912 12.4908 30.0986C14.7552 31.4059 18.4123 29.3109 20.6592 25.4192Z" fill="white"/>
<path d="M51.5405 43.2493C53.7872 39.3574 53.7731 35.143 51.5085 33.8355C49.2441 32.5283 45.5869 34.6234 43.3402 38.5149C41.0934 42.4064 41.1075 46.6211 43.3718 47.9283C45.6365 49.2358 49.2934 47.1408 51.5405 43.2493Z" fill="white"/>
<path d="M20.6274 47.9283C22.8918 46.6208 22.906 42.4061 20.6591 38.5145C18.4123 34.6227 14.7552 32.5277 12.4907 33.8352C10.2263 35.1424 10.2121 39.3571 12.459 43.2489C14.7058 47.1405 18.3629 49.2355 20.6274 47.9283Z" fill="white"/>
<path d="M51.5085 30.099C53.7731 28.7916 53.7872 24.5769 51.5405 20.6851C49.2934 16.7934 45.6365 14.6984 43.3718 16.0058C41.1075 17.3131 41.0934 21.5279 43.3402 25.4196C45.5869 29.3113 49.2441 31.4064 51.5085 30.099Z" fill="white"/>
<path d="M48 64C56.8366 64 64 56.8366 64 48C64 39.1634 56.8366 32 48 32C39.1634 32 32 39.1634 32 48C32 56.8366 39.1634 64 48 64Z" fill="#131419"/>
<path fill-rule="evenodd" clip-rule="evenodd" d="M42.9111 45.9146L48 40.8253L53.089 45.9146L56.0474 42.9562L48 34.9088L39.9527 42.9562L42.9111 45.9146ZM37.8647 45.0503L34.9098 48.0051L37.8647 50.96L40.8195 48.0051L37.8647 45.0503ZM48 55.1824L42.9111 50.0931L39.9527 53.0515L48 61.0989L56.0474 53.0515L53.089 50.0931L48 55.1824ZM58.136 45.0506L55.1812 48.0055L58.136 50.9603L61.0909 48.0055L58.136 45.0506ZM48.0016 45.0042L51.0013 48.0039L48.0016 51.0035L45.002 48.0039L45.5191 47.4659L45.7879 47.2179L48.0016 45.0042Z" fill="#F0B90B"/>
</g>
<defs>
<clipPath id="clip0_85_68878">
<rect width="64" height="64" fill="white"/>
</clipPath>
</defs>
</svg>
