<svg width="64" height="64" viewBox="0 0 64 64" fill="none" xmlns="http://www.w3.org/2000/svg">
<g clip-path="url(#clip0_85_68911)">
<path d="M12.0022 32.0339L31.8849 21.4236L51.5112 31.9569L31.9019 42.5764L12.0022 32.0339Z" fill="#009F42"/>
<path d="M12.0022 32.0339L31.8849 21.4236L51.5112 31.9569L31.9019 42.5764L12.0022 32.0339Z" fill="#01C853"/>
<path d="M31.8849 21.4236L51.5112 31.9569L31.9019 42.5764L31.8849 21.4236Z" fill="#009F42"/>
<path d="M31.8849 33.6612L51.5112 31.9569L31.9019 42.5764L31.8849 33.6612Z" fill="#007831"/>
<path d="M31.8848 33.6612L12.0022 32.0339L31.8678 42.5764L31.8848 33.6612Z" fill="#009F42"/>
<path d="M12 34.8555C18.9646 38.5496 26.2217 42.4217 31.8404 45.4155L51.5186 34.8585C44.3937 45.4458 38.4589 54.2525 31.8403 64C25.2135 54.2729 17.8911 43.5362 12 34.8555Z" fill="#009F42"/>
<path d="M12 34.8555C18.9646 38.5496 26.2217 42.4217 31.8404 45.4155L51.5186 34.8585C44.3937 45.4458 38.4589 54.2525 31.8403 64C25.2135 54.2729 17.8911 43.5362 12 34.8555Z" fill="#01C853"/>
<path d="M31.8404 45.4155L51.5186 34.8585C44.3937 45.4458 31.8403 64 31.8403 64L31.8404 45.4155Z" fill="#009F42"/>
<path d="M31.8404 45.4155L51.5186 34.8585C44.3937 45.4458 38.4589 54.2525 31.8403 64L31.8404 45.4155Z" fill="#009F42"/>
<path d="M31.8365 18.4729L12.0023 28.9172L31.7504 0L51.5112 28.9803L31.8365 18.4729Z" fill="#01C853"/>
<path d="M31.8365 18.4729L31.7504 0L51.5111 28.9803L31.8365 18.4729Z" fill="#009F42"/>
<path d="M48 64C56.8366 64 64 56.8366 64 48C64 39.1634 56.8366 32 48 32C39.1634 32 32 39.1634 32 48C32 56.8366 39.1634 64 48 64Z" fill="#131419"/>
<path fill-rule="evenodd" clip-rule="evenodd" d="M42.9111 45.9146L48 40.8253L53.089 45.9146L56.0474 42.9562L48 34.9088L39.9527 42.9562L42.9111 45.9146ZM37.8647 45.0503L34.9098 48.0051L37.8647 50.96L40.8195 48.0051L37.8647 45.0503ZM48 55.1824L42.9111 50.0931L39.9527 53.0515L48 61.0989L56.0474 53.0515L53.089 50.0931L48 55.1824ZM58.136 45.0506L55.1812 48.0055L58.136 50.9603L61.0909 48.0055L58.136 45.0506ZM48.0016 45.0042L51.0013 48.0039L48.0016 51.0035L45.002 48.0039L45.5191 47.4659L45.7879 47.2179L48.0016 45.0042Z" fill="#F0B90B"/>
</g>
<defs>
<clipPath id="clip0_85_68911">
<rect width="64" height="64" fill="white"/>
</clipPath>
</defs>
</svg>
