<svg width="64" height="64" viewBox="0 0 64 64" fill="none" xmlns="http://www.w3.org/2000/svg">
<g clip-path="url(#clip0_2598_20966)">
<path d="M31.6555 0L31.2258 1.45849V43.7766L31.6555 44.205L51.3106 32.5937L31.6555 0Z" fill="#343434"/>
<path d="M31.6556 0L12 32.5937L31.6556 44.205V23.6649V0Z" fill="#8C8C8C"/>
<path d="M31.6555 47.9241L31.4133 48.2192V63.2936L31.6555 64L51.3226 36.3188L31.6555 47.9241Z" fill="#3C3C3B"/>
<path d="M31.6556 64V47.9241L12 36.3188L31.6556 64Z" fill="#8C8C8C"/>
<path d="M31.6558 44.2051L51.3109 32.5938L31.6558 23.665V44.2051Z" fill="#141414"/>
<path d="M12 32.5938L31.6556 44.2051V23.665L12 32.5938Z" fill="#393939"/>
<g clip-path="url(#clip1_2598_20966)">
<path d="M51.4569 46.6615L53.8068 42.6742L60.1409 52.5397L60.144 54.4325L60.1232 41.4042C60.1158 41.2471 60.0707 41.094 59.9918 40.958C59.9128 40.8219 59.8022 40.7068 59.6694 40.6225L48.2657 34.0633C48.1294 33.9986 47.9804 33.9654 47.8296 33.9661C47.6787 33.9668 47.53 34.0014 47.3944 34.0675C47.3592 34.0851 47.3251 34.1048 47.2922 34.1265L47.2525 34.1516L36.1832 40.5659L36.1401 40.5853C36.0827 40.6119 36.0279 40.6438 35.9765 40.6807C35.7689 40.8289 35.6275 41.0524 35.5823 41.3034C35.5753 41.3415 35.5706 41.38 35.5681 41.4186L35.5855 52.0352L41.4853 42.8908C42.2281 41.6783 43.8465 41.2877 45.3488 41.3089L47.1121 41.3545L36.7225 58.0162L37.9473 58.7213L48.4614 41.3712L53.1086 41.3543L42.6217 59.1415L46.9923 61.6568L47.5145 61.9572C47.7398 62.0468 47.9899 62.0516 48.2185 61.9711L59.7825 55.2696L57.5705 56.5508L51.4569 46.6615ZM52.3536 59.5748L47.9396 52.6471L50.6339 48.0751L56.4307 57.2119L52.3536 59.5748Z" fill="#2D374B"/>
<path d="M47.9397 52.6471L52.3536 59.5746L56.4311 57.2116L50.6344 48.0751L47.9397 52.6471Z" fill="#28A0F0"/>
<path d="M60.1446 54.4326L60.1416 52.5398L53.8075 42.6743L51.4563 46.6612L57.571 56.5503L59.783 55.2692C59.8901 55.1825 59.9776 55.074 60.04 54.9511C60.1024 54.8281 60.1381 54.6934 60.1448 54.5558L60.1446 54.4326Z" fill="#28A0F0"/>
<path d="M33.6011 56.2182L36.7232 58.0171L47.1128 41.3555L45.3496 41.3099C43.8472 41.2887 42.2288 41.6791 41.4861 42.8918L35.5862 52.0363L33.6022 55.0859L33.6011 56.2182Z" fill="white"/>
<path d="M53.1091 41.3553L48.462 41.3722L37.948 58.7223L41.6229 60.8383L42.6222 59.1432L53.1091 41.3553Z" fill="white"/>
<path d="M62.1023 41.3314C62.0811 40.8519 61.9435 40.3846 61.7014 39.9701C61.4593 39.5555 61.1201 39.2061 60.7129 38.9518L49.1598 32.3081C48.7475 32.1054 48.294 32 47.8345 32C47.3749 32 46.9215 32.1054 46.5091 32.3081C46.4126 32.3566 35.2739 38.8168 35.2739 38.8168C35.1192 38.8911 34.9711 38.9787 34.8315 39.0786C34.4698 39.3358 34.1711 39.6716 33.9579 40.0608C33.7446 40.45 33.6223 40.8825 33.6001 41.3257V55.0853L35.5841 52.0357L35.5688 41.4195C35.5781 41.2739 35.6195 41.1322 35.6901 41.0046C35.7608 40.877 35.8588 40.7667 35.9772 40.6815C36.0296 40.6439 47.3585 34.0863 47.3946 34.0683C47.5302 34.0023 47.6789 33.9676 47.8298 33.9669C47.9806 33.9662 48.1297 33.9995 48.2659 34.0642L59.6695 40.6238C59.8023 40.7082 59.9129 40.8232 59.9919 40.9593C60.071 41.0953 60.1159 41.2484 60.1235 41.4056V54.5571C60.1206 54.6936 60.0887 54.8277 60.03 54.9507C59.9713 55.0738 59.8868 55.1829 59.7825 55.2707L57.5705 56.5518L56.4303 57.2131L52.3529 59.5762L48.2179 61.9726C47.9892 62.0533 47.7391 62.0483 47.5138 61.9587L42.6216 59.145L41.6224 60.8397L46.019 63.371C46.1645 63.4536 46.294 63.527 46.4003 63.5867C46.5649 63.6779 46.6772 63.7406 46.7166 63.7598C47.0844 63.921 47.4821 64.0029 47.8837 64C48.2521 64.0005 48.6172 63.9318 48.9601 63.7974L60.9703 56.8421C61.3092 56.5786 61.5862 56.2438 61.7815 55.8618C61.9771 55.4795 62.0865 55.0592 62.1019 54.6301L62.1023 41.3314Z" fill="#96BEDC"/>
</g>
</g>
<defs>
<clipPath id="clip0_2598_20966">
<rect width="64" height="64" fill="white"/>
</clipPath>
<clipPath id="clip1_2598_20966">
<rect width="32" height="32" fill="white" transform="translate(32 32)"/>
</clipPath>
</defs>
</svg>
