<svg width="64" height="64" viewBox="0 0 64 64" fill="none" xmlns="http://www.w3.org/2000/svg">
<g clip-path="url(#clip0_262_74965)">
<path d="M64 32C64 14.3269 49.6731 0 32 0C14.3269 0 0 14.3269 0 32C0 49.6731 14.3269 64 32 64C49.6731 64 64 49.6731 64 32Z" fill="#202944"/>
<mask id="mask0_262_74965" style="mask-type:luminance" maskUnits="userSpaceOnUse" x="7" y="7" width="50" height="50">
<path d="M46.0801 7.67999H17.9201C12.2647 7.67999 7.68005 12.2646 7.68005 17.92V46.08C7.68005 51.7354 12.2647 56.32 17.9201 56.32H46.0801C51.7355 56.32 56.3201 51.7354 56.3201 46.08V17.92C56.3201 12.2646 51.7355 7.67999 46.0801 7.67999Z" fill="white"/>
</mask>
<g mask="url(#mask0_262_74965)">
<path d="M53.4594 12.2581H11.6863V52.6008H53.4594V12.2581Z" fill="white"/>
<path d="M7.68005 7.67999V56.32H56.3201V7.67999H7.68005ZM24.6843 13.3222H29.2319V17.9917H24.6843V13.3222ZM13.2163 13.3222H17.9617V17.9917H13.2163V13.3222ZM17.764 24.6067V29.2762H13.0186V24.6067H17.764ZM16.5776 50.2886H14.6004V48.5376H16.3799V50.2886H16.5776ZM17.9617 40.9498H13.2163V36.4749H17.9617V40.9498ZM28.0456 50.2886H26.2661V48.5376H28.0456V50.2886ZM28.0456 39.3933H26.2661V37.6422H28.0456V39.3933ZM29.4297 29.4707H24.6843V24.8013H29.4297V29.4707ZM39.5137 50.2886H37.7341V48.5376H39.5137V50.2886ZM39.5137 39.3933H37.7341V37.6422H39.5137V39.3933ZM39.5137 27.9142H37.7341V26.1632H39.5137V27.9142ZM41.0954 17.9917H36.3498V13.3222H41.0954V17.9917ZM51.1793 50.2886H49.3997V48.5376H51.1793V50.2886ZM51.1793 39.3933H49.3997V37.6422H51.1793V39.3933ZM51.1793 27.9142H49.3997V26.1632H51.1793V27.9142ZM51.1793 16.6298H49.3997V14.8787H51.1793V16.6298Z" fill="#202944"/>
</g>
<path d="M48.8277 32L48.6129 32.7292V53.8883L48.8277 54.1025L58.6553 48.2969L48.8277 32Z" fill="#343434"/>
<path d="M48.8278 32L39 48.2969L48.8278 54.1025V43.8325V32Z" fill="#8C8C8C"/>
<path d="M48.8277 55.9621L48.7067 56.1096V63.6468L48.8277 64L58.6613 50.1594L48.8277 55.9621Z" fill="#3C3C3B"/>
<path d="M48.8278 64V55.9621L39 50.1594L48.8278 64Z" fill="#8C8C8C"/>
<path d="M48.8279 54.1025L58.6554 48.2969L48.8279 43.8325V54.1025Z" fill="#141414"/>
<path d="M39 48.2969L48.8278 54.1025V43.8325L39 48.2969Z" fill="#393939"/>
</g>
<defs>
<clipPath id="clip0_262_74965">
<rect width="64" height="64" fill="white"/>
</clipPath>
</defs>
</svg>
