<svg width="64" height="64" viewBox="0 0 64 64" fill="none" xmlns="http://www.w3.org/2000/svg">
<g clip-path="url(#clip0_85_69197)">
<path d="M32 64C49.6731 64 64 49.6731 64 32C64 14.3269 49.6731 0 32 0C14.3269 0 0 14.3269 0 32C0 49.6731 14.3269 64 32 64Z" fill="#202944"/>
<g clip-path="url(#clip1_85_69197)">
<path d="M56 7H7V56H56V7Z" fill="white"/>
<path d="M7 7V56H56V7H7ZM24.1301 12.684H28.7114V17.388H24.1301V12.684ZM12.5772 12.684H17.3577V17.388H12.5772V12.684ZM17.1585 24.052V28.756H12.378V24.052H17.1585ZM15.9634 49.924H13.9715V48.16H15.7642V49.924H15.9634ZM17.3577 40.516H12.5772V36.008H17.3577V40.516ZM27.5163 49.924H25.7236V48.16H27.5163V49.924ZM27.5163 38.948H25.7236V37.184H27.5163V38.948ZM28.9106 28.952H24.1301V24.248H28.9106V28.952ZM39.069 49.924H37.2764V48.16H39.069V49.924ZM39.069 38.948H37.2764V37.184H39.069V38.948ZM39.069 27.384H37.2764V25.62H39.069V27.384ZM40.6625 17.388H35.8821V12.684H40.6625V17.388ZM50.8212 49.924H49.0285V48.16H50.8212V49.924ZM50.8212 38.948H49.0285V37.184H50.8212V38.948ZM50.8212 27.384H49.0285V25.62H50.8212V27.384ZM50.8212 16.016H49.0285V14.252H50.8212V16.016Z" fill="#202944"/>
</g>
</g>
<defs>
<clipPath id="clip0_85_69197">
<rect width="64" height="64" fill="white"/>
</clipPath>
<clipPath id="clip1_85_69197">
<rect x="7" y="7" width="49" height="49" rx="10" fill="white"/>
</clipPath>
</defs>
</svg>
