<svg width="20" height="20" viewBox="0 0 20 20" fill="none" xmlns="http://www.w3.org/2000/svg">
<path d="M10.0018 19.2746C15.1231 19.2746 19.2746 15.1231 19.2746 10.0018C19.2746 4.88059 15.1231 0.729004 10.0018 0.729004C4.88059 0.729004 0.729004 4.88059 0.729004 10.0018C0.729004 15.1231 4.88059 19.2746 10.0018 19.2746Z" fill="white"/>
<path fill-rule="evenodd" clip-rule="evenodd" d="M10.0018 0.95805C5.00709 0.95805 0.95805 5.00709 0.95805 10.0018C0.95805 14.9966 5.00709 19.0456 10.0018 19.0456C14.9966 19.0456 19.0456 14.9966 19.0456 10.0018C19.0456 5.00709 14.9966 0.95805 10.0018 0.95805ZM0.5 10.0018C0.5 4.75412 4.75412 0.5 10.0018 0.5C15.2496 0.5 19.5037 4.75412 19.5037 10.0018C19.5037 15.2496 15.2496 19.5037 10.0018 19.5037C4.75412 19.5037 0.5 15.2496 0.5 10.0018Z" fill="#1B354E"/>
<path d="M5.49098 10.653L5.36526 10.6859C5.34384 10.6573 5.32878 10.62 5.30062 10.6018C4.9778 10.3928 4.71407 10.1283 4.52094 9.79436C4.50904 9.77414 4.48207 9.76303 4.46224 9.74756C4.46105 9.69442 4.46026 9.64128 4.45947 9.58813C4.56219 9.73725 4.6649 9.88676 4.76683 10.0367C4.91753 10.258 5.1289 10.4098 5.35178 10.5494C5.40056 10.58 5.44458 10.6181 5.49098 10.653V10.653Z" fill="#708799"/>
<path d="M6.87747 5.94088C6.57329 5.97022 6.26594 5.98213 5.96612 6.03487C5.71311 6.07968 5.46881 6.17209 5.22015 6.24228C5.19001 6.25061 5.15789 6.25259 5.12695 6.25735L5.13171 6.18478C5.17692 6.1812 5.22531 6.18637 5.26734 6.17248C5.86261 5.97498 6.18186 5.9151 6.7458 5.90161L6.7117 5.83221C6.78626 5.83856 6.86081 5.8457 6.87747 5.94088V5.94088ZM7.38072 5.83698C7.35375 5.83896 7.3256 5.84689 7.30061 5.84134C7.24628 5.82904 7.19194 5.79653 7.15071 5.86474C7.12611 5.8798 7.10351 5.89963 7.07654 5.90916C7.0361 5.92343 6.99287 5.93058 6.95083 5.94088C7.06822 5.94207 7.18561 5.94366 7.30339 5.94524C7.38112 5.94603 7.42712 5.91153 7.42951 5.82983L7.38072 5.83698Z" fill="#76899A"/>
<path d="M10.5662 7.06434C10.5214 7.4311 10.6182 8.21493 10.7639 8.46128C10.9096 8.70763 11.686 10.5517 13.6119 10.6859C15.5379 10.8202 15.8664 8.09549 15.8664 8.09549C15.8664 8.09549 15.8216 7.03679 15.3588 6.68526C14.8959 6.33374 13.9976 6.03943 13.047 6.04475C12.0965 6.05006 11.0365 6.03514 10.8648 6.40839C10.6931 6.78163 10.5662 7.06433 10.5662 7.06433V7.06434Z" fill="#ED0000"/>
<path d="M15.7024 7.14397H10.5537V6.66479H15.2956L15.7024 7.14397Z" fill="white"/>
<path d="M15.7024 7.67249H10.5537V8.15166H15.7024V7.67249Z" fill="white"/>
<path d="M15.5307 9.15946H11.1077L10.8091 8.6803H15.7024L15.5307 9.15946Z" fill="white"/>
<path d="M14.9076 10.1673H12.0896L11.5483 9.68811H15.2846L14.9076 10.1673Z" fill="white"/>
<path d="M9.43201 7.06434C9.4768 7.4311 9.37998 8.21493 9.2343 8.46128C9.08863 8.70763 8.31226 10.5517 6.38627 10.6859C4.46029 10.8202 4.13184 8.09549 4.13184 8.09549C4.13184 8.09549 4.17663 7.03679 4.63945 6.68526C5.10228 6.33374 6.00065 6.03943 6.95116 6.04475C7.90167 6.05006 8.96171 6.03514 9.13341 6.40839C9.3051 6.78163 9.43201 7.06433 9.43201 7.06433V7.06434Z" fill="#66A1C7"/>
<path d="M7.62601 6.65002L7.76061 6.92276L8.06159 6.96649L7.8438 7.17879L7.89522 7.47855L7.62601 7.33702L7.35681 7.47855L7.40822 7.17879L7.19043 6.96649L7.49141 6.92276L7.62601 6.65002Z" fill="white"/>
<path d="M6.18412 6.65002L6.31872 6.92276L6.6197 6.96649L6.40191 7.17879L6.45332 7.47855L6.18412 7.33702L5.91491 7.47855L5.96633 7.17879L5.74854 6.96649L6.04952 6.92276L6.18412 6.65002Z" fill="white"/>
<path d="M4.83304 6.65002L4.96764 6.92276L5.26862 6.96649L5.05083 7.17879L5.10224 7.47855L4.83304 7.33702L4.56383 7.47855L4.61525 7.17879L4.39746 6.96649L4.69844 6.92276L4.83304 6.65002Z" fill="white"/>
<path d="M8.98978 6.65002L9.12438 6.92276L9.42536 6.96649L9.20757 7.17879L9.25899 7.47855L8.98978 7.33702L8.72058 7.47855L8.77199 7.17879L8.5542 6.96649L8.85518 6.92276L8.98978 6.65002Z" fill="white"/>
<path d="M7.05228 7.84668L7.18688 8.11941L7.48786 8.16315L7.27007 8.37544L7.32148 8.6752L7.05228 8.53367L6.78307 8.6752L6.83449 8.37544L6.6167 8.16315L6.91768 8.11941L7.05228 7.84668Z" fill="white"/>
<path d="M5.6099 7.84668L5.74451 8.11941L6.04549 8.16315L5.82769 8.37544L5.87911 8.6752L5.6099 8.53367L5.3407 8.6752L5.39211 8.37544L5.17432 8.16315L5.4753 8.11941L5.6099 7.84668Z" fill="white"/>
<path d="M4.25882 7.84668L4.39343 8.11941L4.69441 8.16315L4.47661 8.37544L4.52803 8.6752L4.25882 8.53367L4.04103 8.37544L3.82324 8.16315L4.12422 8.11941L4.25882 7.84668Z" fill="white"/>
<path d="M8.41556 7.84668L8.55016 8.11941L8.85114 8.16315L8.63335 8.37544L8.68476 8.6752L8.41556 8.53367L8.14635 8.6752L8.19777 8.37544L7.97998 8.16315L8.28096 8.11941L8.41556 7.84668Z" fill="white"/>
<path d="M6.36917 9.08398L6.50378 9.35672L6.80477 9.40046L6.58697 9.61275L6.63838 9.91252L6.36917 9.77098L6.09997 9.91252L6.15138 9.61275L5.93359 9.40046L6.23457 9.35672L6.36917 9.08398Z" fill="white"/>
<path d="M4.92679 9.08398L5.06139 9.35672L5.36237 9.40046L5.14458 9.61275L5.196 9.91252L4.92679 9.77098L4.70794 9.88604L4.709 9.61275L4.49121 9.40046L4.79219 9.35672L4.92679 9.08398Z" fill="white"/>
<path d="M7.73246 9.08398L7.86707 9.35672L8.16805 9.40046L7.95026 9.61275L8.00167 9.91252L7.73246 9.77098L7.46326 9.91252L7.51467 9.61275L7.29688 9.40046L7.59786 9.35672L7.73246 9.08398Z" fill="white"/>
<path d="M12.2788 12.9154C12.4715 12.9784 12.5776 13.1551 12.7351 13.2703L12.7902 13.1922L12.8808 13.268L12.8626 13.1567C12.943 13.1178 12.9629 13.1878 12.9976 13.2314C13.1776 13.4582 13.347 13.6946 13.5411 13.9086C13.7173 14.103 13.9205 14.2729 14.1119 14.4535C14.1831 14.5207 14.2546 14.5876 14.326 14.6547L14.2997 14.69L13.9327 14.4836C13.9961 14.6317 14.0981 14.7267 14.3765 14.867C14.5576 14.9583 14.7484 15.0303 14.934 15.1106L14.8251 15.1472L14.9201 15.1826C14.968 15.2354 14.7671 15.1901 14.5712 15.1042C14.5356 15.0886 14.4997 15.0737 14.4517 15.0532L14.464 15.144C14.3419 15.0831 14.2294 15.0338 14.124 14.9723C14.022 14.9128 13.9274 14.8406 13.8069 14.7586L13.9312 15.1871L13.8883 15.2066C13.5015 14.3363 12.9204 13.607 12.2788 12.9154L12.2788 12.9154ZM13.7137 15.4842C13.7506 15.3648 13.6757 15.2974 13.6122 15.2387C13.3806 15.0246 13.1399 14.8199 12.9075 14.6062C12.7627 14.4729 12.6263 14.3314 12.4887 14.1914C12.4332 14.135 12.3844 14.072 12.3325 14.0121L12.2948 14.0387C12.3955 14.3528 12.5609 14.6332 12.7742 14.8878C12.8932 15.0741 13.0661 15.205 13.2371 15.3399C13.2089 15.2824 13.1649 15.2383 13.1264 15.19C13.0459 15.0888 12.9682 14.9849 12.8893 14.8826C12.9281 14.9044 12.9709 14.9219 13.0058 14.9492C13.2184 15.117 13.3973 15.3173 13.5662 15.5334L13.4948 15.3359L13.5186 15.3204C13.5809 15.3732 13.6435 15.4255 13.7137 15.4842H13.7137ZM12.965 15.7682C12.6711 15.7563 12.4344 15.6278 12.2325 15.4458C12.0477 15.2792 11.8859 15.0872 11.7142 14.9072C11.6821 14.8735 11.6483 14.841 11.5905 14.7827C11.594 15.0424 11.6365 15.2506 11.7352 15.4465C11.7316 15.4648 11.7285 15.483 11.7205 15.5274C11.6813 15.4763 11.6495 15.4442 11.6301 15.4061C11.6067 15.3601 11.6035 15.303 11.5754 15.2613C11.4782 15.1162 11.4481 14.9532 11.4207 14.7854C11.3755 14.5102 11.3359 14.233 11.2161 13.9721L11.3101 14.9703C11.2891 15.1265 11.3493 15.2895 11.2744 15.4783L11.1978 15.3363C11.1586 15.4648 11.1173 15.5814 11.0872 15.7008C11.0142 15.9922 10.9214 16.2813 10.9512 16.5887C10.9519 16.5954 10.9662 16.6006 10.9865 16.6161C10.9932 16.5605 10.9987 16.5129 11.0051 16.4594L11.0416 16.5954C11.1455 16.2932 11.2458 16.0037 11.3442 15.7138C11.358 15.6738 11.368 15.6369 11.4223 15.6516C11.5337 15.88 11.7225 16.0061 11.989 16.0922C11.8926 15.9446 11.7542 15.8752 11.7118 15.7198C11.8284 15.7325 11.8514 15.884 11.987 15.8737C11.9303 15.7531 11.8811 15.6488 11.8244 15.5286L11.895 15.5393C12.2186 15.8415 12.6648 15.9411 12.965 15.7682L12.965 15.7682ZM15.5348 15.2092C15.2061 15.0989 15.019 14.8669 14.8024 14.6721C15.0215 15.0523 15.2739 15.2456 15.5348 15.2092ZM16.0615 8.41675C15.9949 8.42707 15.933 8.43658 15.8573 8.44809C15.7661 8.8641 15.6994 9.29399 15.4655 9.66797C15.4773 9.77664 15.4873 9.8853 15.5011 9.99356C15.5115 10.0764 15.5222 10.1601 15.5404 10.2418C15.5781 10.4131 15.6225 10.5837 15.6602 10.755C15.6685 10.7919 15.6614 10.8319 15.6614 10.8863C15.5238 10.6007 15.3941 10.3318 15.264 10.063C15.2235 10.0883 15.1831 10.1141 15.1422 10.1399C15.1783 10.1911 15.2116 10.2446 15.2513 10.2926C15.3251 10.3818 15.4143 10.4615 15.4274 10.611C15.3286 10.5075 15.2473 10.4155 15.1585 10.3318C15.124 10.2993 15.072 10.285 15.0284 10.2624C14.595 10.7058 14.0623 10.8534 13.4591 10.7855C13.2739 10.7645 13.0899 10.734 12.869 10.7026C13.1911 10.8867 13.4104 11.1238 13.5849 11.4403C13.4849 11.4264 13.4278 11.3748 13.3652 11.3388C13.0265 11.1448 12.6652 11.0382 12.2726 11.0512C12.2297 11.0528 12.1873 11.0651 12.1314 11.0746C12.1631 11.1718 12.2345 11.2075 12.2976 11.2499C12.4455 11.3487 12.597 11.4419 12.7413 11.5458C12.8361 11.614 12.9277 11.6913 12.9694 11.8274C12.8127 11.7496 12.6676 11.6774 12.5224 11.6057L12.5082 11.6314L12.6133 11.7651C12.3991 11.6731 12.1905 11.5759 11.9204 11.5133C12.1786 11.7691 12.3475 12.0284 12.4431 12.3386C12.2615 12.1831 12.0799 12.0324 11.7979 11.9919C11.872 12.0705 11.9216 12.1236 11.9938 12.1998C11.6916 12.1343 11.483 11.965 11.2419 11.777C11.3541 12.2731 11.5655 12.682 11.8324 13.075C11.7824 13.0389 11.7321 13.0032 11.6555 12.9485C11.7626 13.194 11.9466 13.3352 12.1615 13.5113L11.9105 13.4379C11.903 13.4688 11.895 13.5025 11.8863 13.537L11.8245 13.5172C11.8233 13.5438 11.8157 13.5704 11.8213 13.5938C11.9343 14.0558 12.1457 14.467 12.4518 14.8315C12.664 15.0845 12.9147 15.2923 13.1804 15.4847C13.1938 15.4946 13.1978 15.5172 13.2069 15.5358C13.0681 15.5445 12.8532 15.4351 12.4673 15.1567C12.5034 15.2864 12.5327 15.393 12.5621 15.4993L12.5462 15.5077C12.5236 15.4708 12.4982 15.4355 12.4788 15.397C12.2595 14.9683 12.018 14.5539 11.7376 14.1613C11.4877 13.8107 11.3196 13.4149 11.1515 13.0207C11.0587 12.803 10.975 12.5813 10.8861 12.3616C10.8643 12.3081 10.8393 12.2565 10.7993 12.1677C10.7755 12.331 10.7989 12.4472 10.8306 12.5658C10.8651 12.6955 10.904 12.8196 10.8326 12.9628C10.7906 13.0473 10.8227 13.1694 10.8247 13.2749C10.8322 13.6826 10.7446 14.0693 10.5673 14.4536C10.551 14.3556 10.5379 14.2751 10.5245 14.1946C10.4023 14.5753 10.4003 14.958 10.4614 15.3387C10.5046 15.61 10.5816 15.8757 10.6446 16.1438C10.6502 16.1684 10.6696 16.191 10.6712 16.2156C10.676 16.2881 10.6605 16.3659 10.6807 16.4329C10.7001 16.4975 10.7541 16.5515 10.7751 16.6407C10.7311 16.6252 10.6724 16.6224 10.6454 16.5919C10.551 16.4836 10.4563 16.3774 10.342 16.2885C10.1898 16.1696 10.1279 15.9927 10.0569 15.8226C10.0343 15.7682 10.0168 15.7119 9.98869 15.6326C9.95181 15.6952 9.92484 15.7413 9.89787 15.7869C9.94903 15.5442 9.97997 15.2999 9.96291 15.0504C9.94546 14.797 9.87011 14.563 9.74559 14.3183C9.71069 14.398 9.6857 14.4559 9.65398 14.5281C9.61987 14.3631 9.64128 14.1994 9.53143 14.0423C9.25343 14.5015 9.22012 15.0076 9.14834 15.5295C9.12177 15.3851 9.09917 15.2654 9.07696 15.1456L9.05515 15.148C9.07299 15.3935 9.08687 15.6393 9.10908 15.884C9.13208 16.1359 9.09599 16.4817 9.02739 16.5888C8.93101 16.5237 8.75612 16.1386 8.59868 15.6358C8.37302 15.8916 8.10097 16.0332 7.74642 16.0466C7.89713 15.8852 8.08709 15.777 8.07837 15.5164C7.75317 15.7853 7.40933 15.9102 6.97825 15.7853C7.25744 15.6778 7.41608 15.497 7.4831 15.196C7.16424 15.4109 6.84501 15.5208 6.46666 15.518C6.60507 15.4042 6.72404 15.3058 6.86007 15.194C6.68399 15.1785 6.64671 15.1964 6.30089 15.4565C6.34095 15.3776 6.36593 15.3288 6.39091 15.2796C6.28264 15.3256 6.26718 15.3336 6.17478 15.4407C6.11132 15.514 6.05501 15.5941 5.96935 15.7048C5.96022 15.3451 6.09427 15.0611 6.19739 14.7383C6.11846 14.7946 6.06255 14.8418 6.00029 14.8779C5.83492 14.9727 5.67628 15.1099 5.49822 15.144C5.17581 15.2063 4.85418 15.3106 4.51748 15.2792C4.49924 15.2777 4.4814 15.2697 4.44094 15.2586C4.5488 15.1797 4.64439 15.1099 4.77565 15.0139H4.55833C4.6547 14.9303 4.73242 14.8628 4.81016 14.7958C4.67572 14.8085 4.56269 14.9017 4.41873 14.8811C4.52581 14.7185 4.62654 14.5658 4.72687 14.4131L4.70664 14.387C4.66262 14.4167 4.61741 14.4449 4.57458 14.4766C4.29658 14.6824 3.99319 14.8117 3.63943 14.7831C3.55655 14.7764 3.47485 14.7522 3.37056 14.7316C3.482 14.6324 3.6208 14.6051 3.67038 14.4698C3.53118 14.4318 3.38008 14.5063 3.25635 14.4207C3.51452 14.2081 3.76992 13.9979 4.0273 13.7857C4.0273 13.5867 4.02492 13.403 4.0277 13.219C4.03563 12.6654 4.07687 12.1153 4.17641 11.5696C4.21885 11.3376 4.23313 11.1001 4.26326 10.8657C4.27239 10.7943 4.28745 10.7226 4.30807 10.6535C4.39691 10.3577 4.48336 10.0618 4.46234 9.74775C4.48217 9.76322 4.50914 9.77432 4.52103 9.79455C4.71417 10.1285 4.97789 10.393 5.30071 10.602C5.32887 10.6202 5.34394 10.6575 5.36536 10.6861C5.07387 10.88 4.84227 11.1172 4.78318 11.4812C4.91722 11.3638 5.0235 11.2163 5.18967 11.1386C4.95014 11.4312 4.78952 11.7505 4.77564 12.1475C5.05113 11.8728 5.24202 11.7398 5.34831 11.7485C5.25234 11.8691 5.16152 11.9829 5.07427 12.0923L5.11631 12.13C5.04611 12.2292 4.98702 12.3124 4.92794 12.3961C5.01519 12.36 5.10243 12.3236 5.18928 12.2875C5.17699 12.3549 5.07824 12.4691 4.96243 12.55C4.86408 12.6376 4.78714 12.7384 4.76652 12.8756C4.90968 12.7582 5.02984 12.6182 5.17182 12.5056C5.31856 12.389 5.48592 12.299 5.64455 12.1974C5.79168 12.1201 5.93881 12.0428 6.08634 11.9654C6.24696 11.8992 6.40757 11.8326 6.56819 11.7663C6.47579 11.8734 6.36078 11.9416 6.23625 11.996C6.01774 12.1324 5.82579 12.2993 5.67073 12.5079L5.63622 12.4544C5.55968 12.5024 5.48473 12.5492 5.41018 12.5956C5.24798 12.7808 5.1175 12.9846 5.02708 13.2289C5.07427 13.2143 5.10124 13.2059 5.13178 13.1968C5.10719 13.4165 5.0838 13.6271 5.06 13.8377C5.14605 13.7437 5.19483 13.6374 5.25591 13.5383C5.32056 13.4324 5.37766 13.3071 5.47323 13.2392C5.57516 13.1667 5.65645 13.079 5.74608 12.9973C5.85514 12.8982 5.97015 12.809 6.15337 12.7475C6.03519 12.899 5.94398 13.0164 5.83333 13.1576C6.03797 13.1397 6.13116 12.9458 6.30843 12.9601C6.30209 12.9886 6.29812 13.0076 6.29138 13.0406C6.39369 13.0199 6.47261 13.0041 6.58801 12.9811C6.45992 13.1774 6.2652 13.286 6.2414 13.501C6.38338 13.4272 6.51544 13.3551 6.65107 13.2888C6.78195 13.2246 6.9156 13.1667 7.08454 13.0894L6.94494 13.3083C7.07819 13.2452 7.17179 13.1968 7.26855 13.1568C7.35976 13.1195 7.43194 13.0303 7.59137 13.043C7.27133 13.344 6.99808 13.6366 6.73555 13.9908C6.96319 13.9285 7.10516 13.7627 7.35421 13.7401L7.10477 14.0292C7.58502 13.852 7.85589 13.4847 8.16046 13.1532C8.17395 13.1825 8.18108 13.2004 8.18981 13.217L8.21123 13.2266C8.46901 12.8823 8.60741 12.4937 8.65461 12.0491C8.56539 12.1602 8.48924 12.2553 8.4131 12.3501L8.38693 12.3354C8.41746 12.2446 8.4476 12.1534 8.48845 12.0305C8.35599 12.1288 8.28381 12.2415 8.12717 12.2827C8.35758 11.9603 8.4484 11.622 8.49758 11.2504C8.37305 11.3198 8.30881 11.4634 8.15018 11.4408C8.19975 11.363 8.24496 11.2924 8.29017 11.2215L8.26439 11.1913C8.07879 11.2952 7.91857 11.4487 7.6838 11.5371C7.75399 11.457 7.7992 11.4059 7.85115 11.3464L7.65761 11.3722C8.00661 10.9764 8.02128 10.9538 8.04507 10.7475C7.97131 10.8177 7.91936 10.8717 7.86225 10.9197C7.80197 10.9704 7.7405 11.0216 7.67268 11.0616C7.61081 11.0981 7.56283 11.1691 7.46567 11.1655C7.5212 11.0846 7.5676 11.0172 7.63144 10.9248C7.43078 10.9764 7.27571 11.0775 7.09051 11.0838C7.23447 10.9649 7.37327 10.8542 7.50692 10.7376C7.55332 10.6976 7.61638 10.6579 7.58703 10.5766C7.60567 10.5473 7.61837 10.5096 7.64454 10.491C7.7417 10.4208 7.84322 10.3569 7.95783 10.2808C7.91977 10.2701 7.90469 10.2602 7.89676 10.2641C7.67467 10.3815 7.45338 10.5001 7.23169 10.6187C7.11985 10.6544 7.0096 10.6972 6.8954 10.7242C6.42108 10.8364 5.95034 10.8491 5.4911 10.6532C5.4447 10.6183 5.40068 10.5802 5.3519 10.5497C5.12902 10.4101 4.91764 10.2582 4.76695 10.0369C4.66502 9.88697 4.56231 9.73746 4.4596 9.58834C4.27479 9.23499 4.18635 8.85309 4.12765 8.45095C4.06182 8.44223 3.99956 8.43351 3.91508 8.4224C3.90517 8.24631 3.89525 8.06627 3.88415 7.87551L4.07688 7.84101C4.09275 7.69388 4.09711 7.54912 4.12487 7.40873C4.22084 6.92491 4.50162 6.57988 4.93865 6.35819C5.00211 6.32607 5.06437 6.29117 5.12742 6.25746C5.15836 6.2527 5.19048 6.25071 5.22062 6.24239C5.46928 6.17219 5.71358 6.07979 5.9666 6.03498C6.26641 5.98224 6.57376 5.97033 6.87794 5.94099H6.9513C7.06869 5.94218 7.18608 5.94377 7.30386 5.94535C7.3816 5.94614 7.4276 5.91164 7.42998 5.82994C7.46646 5.78831 7.50335 5.74706 7.54022 5.70542C7.57948 5.7074 7.61875 5.71136 7.65801 5.71136C8.66373 5.71176 9.66907 5.71176 10.6748 5.71096C10.7335 5.71057 10.7918 5.70264 10.8505 5.69828L10.8541 5.70304L11.7218 5.70185C11.7817 5.67647 11.7868 5.56225 11.8907 5.6031L11.8649 5.67369H12.4277C12.4626 5.72088 12.5003 5.77204 12.5379 5.8228C12.7164 5.70779 12.9262 5.68796 13.1237 5.63165C13.2209 5.60429 13.3244 5.59794 13.4314 5.61261C13.1447 5.69748 12.858 5.78274 12.5709 5.86761C12.6692 5.94811 12.7711 5.93424 12.875 5.8803C12.9857 5.8224 13.0995 5.77759 13.2462 5.80019C13.1459 5.83152 13.0626 5.8573 12.9754 5.88387C13.0257 5.96556 13.0991 5.93503 13.1594 5.9374C13.6059 5.95565 14.0461 6.00799 14.4772 6.13291C14.5684 6.15949 14.6406 6.24871 14.7489 6.21897L14.8294 6.2626C15.1256 6.38474 15.3905 6.55171 15.5876 6.80949C15.782 7.0633 15.8577 7.35994 15.8863 7.67205C15.891 7.7236 15.8922 7.77595 15.8958 7.8398L16.0766 7.86597C16.1151 8.04523 16.0524 8.22448 16.0616 8.41682L16.0615 8.41675ZM6.34408 13.955L5.50531 14.7164C5.8658 14.5511 6.14896 14.3 6.34408 13.955ZM7.55563 5.90243C9.18796 5.94447 10.7775 5.9413 12.4082 5.90481C12.3198 5.80884 12.2432 5.83422 12.177 5.83422C10.7199 5.83263 9.26291 5.83303 7.80547 5.83303C7.75947 5.83303 7.71227 5.82788 7.66746 5.83541C7.64049 5.83977 7.6167 5.86475 7.55562 5.90243H7.55563ZM9.08366 6.17726C9.13521 6.23793 9.1947 6.30694 9.25379 6.37594C9.42671 6.6135 9.52188 6.88158 9.5433 7.21074C9.61865 7.13579 9.66742 7.09454 9.70748 7.04616C9.9145 6.79631 10.1667 6.89665 10.3158 7.09058C10.3464 7.13024 10.3793 7.16751 10.4293 7.22701C10.4483 6.87723 10.5494 6.58971 10.7505 6.33986L10.9206 6.17091C10.6315 6.138 9.20739 6.1483 9.08365 6.17726H9.08366ZM9.15504 8.43142C9.28512 8.12923 9.36523 7.81434 9.36285 7.48319C9.36166 7.34637 9.3454 7.20955 9.33152 7.07312C9.28908 6.64878 8.99919 6.32636 8.60578 6.21889C8.30517 6.13719 7.9998 6.13164 7.69443 6.113C7.55881 6.10468 7.42159 6.1368 7.28477 6.13838C6.89176 6.14234 6.50112 6.15544 6.11049 6.21691C5.69289 6.28194 5.2975 6.39893 4.92868 6.60357C4.76648 6.6932 4.62292 6.80306 4.54161 6.97675L4.54082 6.97794C4.53448 6.98032 4.52536 6.98111 4.52258 6.98548C4.25449 7.40229 4.26798 7.85875 4.33619 8.32275C4.33976 8.34853 4.34333 8.3747 4.34729 8.40048C4.37188 8.78 4.45635 9.14248 4.65147 9.47402C4.69272 9.54263 4.73396 9.61124 4.7756 9.67985C4.80416 9.72625 4.83311 9.77265 4.86166 9.81905C4.98817 10.0772 5.217 10.2307 5.44265 10.3877C5.60842 10.5031 5.79958 10.5535 5.99469 10.5726C6.50192 10.6229 6.98813 10.5392 7.43943 10.2969C7.66231 10.1772 7.88995 10.0606 8.06127 9.86505L8.06167 9.86466C8.22942 9.75837 8.3595 9.616 8.488 9.4661C8.75886 9.15121 8.99125 8.81372 9.15504 8.43142V8.43142ZM8.85126 10.0019C8.75132 9.90472 8.73665 9.71475 8.54272 9.72665C8.62045 9.85038 8.70334 9.9642 8.85126 10.0019ZM12.5926 10.5761C12.1088 10.3287 11.7003 9.99592 11.3386 9.60093C11.318 9.57793 11.2875 9.56445 11.2617 9.54621C11.1871 9.45341 11.113 9.36061 11.0388 9.26781C11.0317 9.24957 11.0285 9.22855 11.017 9.21309C10.8231 8.94817 10.6672 8.66264 10.5554 8.35291C10.5391 8.30849 10.501 8.26645 10.4626 8.23711C10.3484 8.14986 10.2663 8.03882 10.2353 7.90199C10.2084 7.78223 10.2076 7.6565 10.1953 7.53357C10.1937 7.438 10.2361 7.33727 10.1639 7.24962C10.0097 7.10764 9.95178 7.10844 9.80425 7.25398C9.79038 7.2857 9.765 7.31704 9.7646 7.34876C9.76102 7.48875 9.765 7.62914 9.76619 7.76953C9.75112 7.9706 9.65792 8.12646 9.49413 8.24186C9.40688 8.2609 9.40054 8.34299 9.3696 8.40446C9.26927 8.60235 9.17052 8.80064 9.07296 8.99972C9.06463 9.01717 9.069 9.04136 9.06423 9.10878C9.24626 8.88829 9.32757 8.6654 9.44139 8.43697C9.4628 8.46671 9.47787 8.48813 9.49294 8.50954C9.44258 8.57894 9.42869 8.64557 9.50206 8.70387C9.48302 8.75384 9.45447 8.80143 9.44773 8.85219C9.43781 8.92516 9.44931 9.00091 9.44258 9.07507C9.39935 9.56128 9.39499 10.0475 9.47906 10.5289L9.48382 10.5539C9.52744 10.7958 9.59367 11.0346 9.66308 11.2701L9.89627 11.7536C9.85502 11.7052 9.81616 11.6643 9.78166 11.6239L9.76739 11.6064L9.7543 11.5898L9.73209 11.5592C9.60678 11.3756 9.48145 11.1916 9.36723 11.0013C9.278 10.8529 9.20542 10.6943 9.12572 10.54C9.0821 10.3596 9.03103 10.396 9.08447 10.5829C9.09717 10.6392 9.1039 10.6975 9.12334 10.7514C9.24905 11.1048 9.43544 11.4268 9.65 11.7322C9.74954 11.8737 9.86376 12.005 9.98035 12.1517C10.3416 11.7437 10.605 11.309 10.7878 10.8283C10.8615 10.6344 10.8988 10.4262 10.9524 10.2247C10.9734 10.0344 10.6339 9.87726 10.6533 9.70237C10.4666 9.71881 10.8889 9.25131 10.9206 9.30486C10.9904 9.24893 11.2165 9.70047 11.2712 9.65645C11.3743 9.74608 11.4822 9.83134 11.5798 9.92691C11.8447 10.1855 12.1421 10.3957 12.4796 10.5476C12.5145 10.563 12.5549 10.567 12.5926 10.5761L12.5926 10.5761ZM15.6292 8.13239C15.6772 7.96979 15.6752 7.8068 15.6312 7.64341C15.6586 7.45504 15.5864 7.29125 15.5035 7.13024C15.4083 6.91132 15.2675 6.73683 15.0359 6.65077C14.9546 6.59922 14.8777 6.53933 14.7912 6.49809C14.2412 6.23475 13.6447 6.18915 13.0507 6.15187C12.683 6.12926 12.313 6.14234 11.9438 6.14631C11.7138 6.1487 11.4877 6.19112 11.2716 6.26926C11.0753 6.33985 10.9103 6.45446 10.8207 6.65354C10.693 6.78679 10.6723 6.95811 10.6533 7.12984L10.6438 7.65611C10.6775 7.81513 10.7068 7.97556 10.7449 8.13359C11.0464 9.38326 12.3602 10.1883 12.3812 10.1998C12.9162 10.4924 13.4782 10.6614 14.0929 10.5337C14.3645 10.477 14.6171 10.3703 14.7968 10.1411C14.9812 10.0098 15.12 9.84047 15.2176 9.63623C15.3409 9.48592 15.3976 9.3043 15.4551 9.12306C15.4948 8.96443 15.534 8.8054 15.5737 8.64636C15.5836 8.60194 15.5959 8.55792 15.6027 8.51271C15.6213 8.3866 15.6582 8.26168 15.6292 8.13239V8.13239ZM9.80702 15.4124C9.80424 15.3823 9.78045 15.3541 9.76419 15.32C9.69241 15.5679 9.6254 15.7999 9.55837 16.0319C9.50641 16.1286 9.45525 16.2262 9.40172 16.323C9.35016 16.417 9.29622 16.5098 9.24348 16.6034L9.28116 16.6272C9.35809 16.5177 9.43542 16.4078 9.51554 16.2944L9.55083 16.4237L9.63967 16.2322C9.76499 15.9732 9.8328 15.7019 9.80702 15.4124V15.4124ZM16.2991 14.4741H16.5973L16.5965 14.4523C16.4164 14.4087 16.2364 14.3655 16.0599 14.323C16.1381 14.461 16.1932 14.517 16.3931 14.6577H16.2626L16.2669 14.7256C15.9509 14.7232 15.7212 14.6415 15.5345 14.4702C15.6062 14.4936 15.678 14.5166 15.7498 14.5396L15.7637 14.5122C15.6915 14.4638 15.6193 14.4154 15.5475 14.367C15.471 14.2742 15.3945 14.1818 15.3013 14.0692C15.423 14.0863 15.4738 14.1886 15.6066 14.1961C15.3829 13.997 15.2751 13.7658 15.1708 13.5307C15.1018 13.3752 15.0209 13.2245 14.9451 13.0718C14.8551 12.9243 14.7647 12.7772 14.6747 12.6296C14.4922 12.3635 14.2694 12.1383 14.0033 11.9558C13.9045 11.8737 13.7225 11.821 13.4829 11.8182C13.6083 11.8944 13.7011 11.9507 13.7935 12.007C13.9001 12.1117 14.0072 12.2164 14.1139 12.3211C14.1841 12.4115 14.2543 12.5023 14.3241 12.5923L14.3931 12.5166C14.445 12.5832 14.497 12.6494 14.5489 12.7161C14.568 12.7533 14.587 12.7906 14.6156 12.8473C14.6306 12.7918 14.639 12.7617 14.6552 12.7014C14.7453 12.8656 14.825 13.0103 14.9043 13.1547C14.9483 13.391 14.9899 13.6274 15.0371 13.863C15.0693 14.0216 15.1089 14.1791 15.1454 14.3369C15.2057 14.5614 15.3413 14.7315 15.5273 14.8655C15.5233 14.8322 15.5075 14.8068 15.4904 14.7823C15.4321 14.6958 15.3711 14.6113 15.3175 14.5221C15.3096 14.5086 15.3358 14.4745 15.3461 14.4499C15.3528 14.4579 15.3615 14.4622 15.3723 14.4626C15.6867 14.7783 16.0687 14.8287 16.5152 14.7561C16.4787 14.7081 16.4589 14.6827 16.4395 14.6569C16.3954 14.5998 16.3518 14.5427 16.2991 14.4741H16.2991ZM15.9758 13.8574C15.9758 13.6667 15.985 13.4954 15.9735 13.3252C15.9584 13.1043 15.9271 12.8842 15.9029 12.6641C15.8977 12.5598 15.8953 12.4555 15.8866 12.3516C15.8608 12.0471 15.8406 11.7409 15.7367 11.4494C15.6534 11.1738 15.5682 11.0386 15.4424 10.968C15.5222 11.1492 15.6066 11.3427 15.6911 11.5363L15.705 11.6057L15.6978 11.6441C15.6966 11.6501 15.6947 11.6564 15.6911 11.6612C15.6875 11.666 15.6812 11.6683 15.676 11.6719C15.492 11.2452 15.3941 11.0961 15.214 10.9846C15.2775 11.0869 15.3417 11.1702 15.3845 11.263C15.5051 11.5232 15.6165 11.7873 15.7315 12.0502L15.8636 12.7522C15.8918 13.0742 15.906 13.3958 15.8858 13.7274L15.8228 13.6964C15.8089 13.5073 15.8033 13.3173 15.7791 13.1293C15.7121 12.6122 15.611 12.1042 15.3413 11.6465C15.2648 11.4379 15.1498 11.2769 14.9891 11.1567C15.0558 11.2725 15.1192 11.3828 15.1827 11.4926L15.1648 11.503C15.1133 11.4466 15.0613 11.3903 15.0094 11.334L14.986 11.3515C15.0641 11.4919 15.1418 11.6318 15.2196 11.7718C15.2303 11.8155 15.2374 11.8599 15.2517 11.9019C15.3132 12.0855 15.3603 12.2715 15.3754 12.4662L15.3183 12.4468C15.3393 12.7086 15.4167 12.9429 15.5118 13.1718C15.5241 13.2019 15.5336 13.234 15.5364 13.2658C15.5376 13.2777 15.5158 13.2919 15.5043 13.305C15.4016 13.1389 15.2993 12.9727 15.1771 12.7744C15.2207 13.0171 15.3187 13.1944 15.4559 13.353C15.5213 13.4581 15.5868 13.5632 15.6518 13.6679C15.6677 13.7028 15.6772 13.7428 15.7002 13.7718C15.8374 13.9439 16.0127 14.07 16.2031 14.1767C16.2391 14.1969 16.2816 14.2065 16.3212 14.2207L16.3387 14.1938C16.2154 14.0792 16.0916 13.9645 15.9758 13.8575L15.9758 13.8574ZM15.1367 14.8025C15.0776 14.7462 15.0355 14.672 14.986 14.6054C15.0193 14.6213 15.0526 14.6367 15.1176 14.6673C14.8936 14.3857 14.725 14.1243 14.6544 13.8075C14.6092 13.606 14.5093 13.418 14.5033 13.2059C14.5025 13.1821 14.4819 13.1583 14.468 13.1361C14.2352 12.7526 13.9315 12.4381 13.5468 12.2053C13.4988 12.1763 13.4369 12.1708 13.3402 12.1422L13.6098 12.4464C13.5809 12.4678 13.5599 12.4833 13.5325 12.5031C13.9136 12.8616 14.2222 13.2661 14.4375 13.7389L14.3161 13.765C14.3697 13.8531 14.4205 13.9368 14.4712 14.0208C14.5922 14.2036 14.7131 14.3865 14.8341 14.5697C14.9769 14.7826 15.1597 14.9452 15.4016 15.0341C15.3183 14.9508 15.2211 14.8834 15.1367 14.8025V14.8025ZM11.1102 4.97166L11.0686 4.95223C10.9357 5.18819 10.8032 5.42455 10.6561 5.6867C10.5752 5.67242 10.4717 5.65378 10.3682 5.63514H10.3681L10.5572 5.15629L10.3014 5.36199C10.2826 5.05441 10.2596 4.77914 10.3085 4.50147C10.1639 4.86666 10.0911 5.23921 10.1621 5.62958H10.162C10.1425 5.64307 10.1227 5.66845 10.1029 5.66884C9.84987 5.67162 9.59645 5.67043 9.35375 5.67043L9.29708 5.5769L9.29718 5.57665C9.14529 5.28932 8.98176 5.00997 8.73419 4.78451L9.1578 5.63516C9.0781 5.71087 8.99126 5.6613 8.91791 5.66091L8.86874 5.56058L8.8378 5.56971L8.82908 5.65457C8.74024 5.7089 8.70337 5.63672 8.65578 5.58953C8.612 5.65268 8.54944 5.62754 8.49205 5.62712C8.5494 5.62744 8.61204 5.65258 8.65579 5.58934C8.42304 5.28962 8.17546 5.00394 7.88261 4.75999C7.84119 4.72548 7.8071 4.69431 7.73064 4.75795C7.82242 4.84031 7.92329 4.90806 7.99423 4.99911C8.15414 5.20433 8.29923 5.42109 8.45035 5.63315C8.32979 5.74737 8.23262 5.64743 8.17433 5.61094C8.08391 5.64069 8.03156 5.66845 7.97683 5.67439C7.83168 5.68986 7.68574 5.69581 7.5402 5.70532C7.57945 5.7073 7.61872 5.71127 7.65798 5.71127C8.6637 5.71167 9.66904 5.71167 10.6748 5.71087C10.7335 5.71048 10.7918 5.70254 10.8505 5.69818C10.8675 5.4876 10.9651 5.30477 11.0483 5.11639C11.0694 5.06841 11.0896 5.02002 11.1102 4.97164L11.1102 4.97166ZM9.27694 5.61203L9.27996 5.60925L9.27694 5.61203ZM9.19612 5.63073C9.22351 5.63026 9.2518 5.63196 9.27266 5.61596C9.25181 5.63204 9.22349 5.63032 9.19612 5.63073ZM11.7217 5.70176L10.854 5.70295C10.9635 5.69502 11.0733 5.6847 11.1828 5.67995C11.268 5.67638 11.3533 5.67916 11.4401 5.67916C11.4267 5.46699 11.5782 5.34921 11.6817 5.21239C11.784 5.07676 11.8827 4.93042 12.06 4.86102C11.924 5.07755 11.7875 5.29369 11.6515 5.51022L11.6761 5.53005L11.7693 5.48762C11.7955 5.57209 11.665 5.61571 11.7217 5.70177L11.7217 5.70176ZM9.54309 4.40044C9.77785 4.60759 9.87812 5.11715 9.77414 5.53161C9.7899 5.1487 9.68688 4.78557 9.54309 4.40044ZM7.0044 5.82709C7.05159 5.84414 7.10235 5.85247 7.15113 5.86476C7.12654 5.87983 7.10394 5.89966 7.07697 5.90918C7.03652 5.92346 6.99329 5.9306 6.95125 5.94091H6.87789C6.86123 5.84572 6.78668 5.83859 6.71212 5.83224L6.61972 5.81836C6.75099 5.77592 6.87829 5.78109 7.0044 5.82709H7.0044ZM10.5875 6.33225C10.5984 6.35723 10.6247 6.38829 10.6176 6.40612C10.5889 6.47867 10.5442 6.54494 10.5159 6.61761C10.4625 6.75437 10.4164 6.89396 10.3659 7.03615C10.3525 7.02442 10.3266 7.00534 10.305 6.98224C10.2139 6.88484 10.1032 6.84692 9.96996 6.85115C9.912 6.85299 9.83617 6.89555 9.79436 6.81171L9.90662 6.20431L10.1224 6.45276L10.3034 6.23253L10.3932 6.47597L10.5875 6.33225H10.5875ZM9.72688 6.89354L9.57971 7.06438C9.54478 6.78071 9.47242 6.53911 9.29815 6.33828C9.32929 6.27424 9.35767 6.32253 9.38084 6.34319C9.54901 6.49312 9.65184 6.68472 9.72689 6.89354H9.72688ZM5.26767 6.17235C5.86316 5.9752 6.18238 5.9153 6.74602 5.9016L6.71195 5.83209L6.61957 5.81851C6.75091 5.77591 6.87819 5.78118 7.00454 5.82706C7.05179 5.84421 7.1023 5.85233 7.15133 5.86458C7.19222 5.79672 7.24678 5.82916 7.30098 5.84136C7.32608 5.84701 7.35428 5.83896 7.38107 5.83712C7.26242 5.78386 7.14618 5.7241 7.02451 5.67894C6.86908 5.62126 6.71425 5.56477 6.60072 5.43756C6.57631 5.41021 6.57123 5.36562 6.54994 5.30981L6.79004 5.35629C6.83616 5.20969 6.55197 5.19602 6.69497 5.02793H6.91388C6.79176 4.91122 6.7002 4.81835 6.60278 4.73211C6.50405 4.64473 6.46304 4.54011 6.50083 4.41442C6.53883 4.28799 6.64702 4.25137 6.76349 4.24147C6.84847 4.23424 6.93453 4.23978 7.02011 4.23967C7.061 4.23961 7.10189 4.23967 7.14279 4.23967L7.15405 4.21188L6.70573 3.91861L7.24578 3.94437L7.23562 3.83645L7.80501 3.9547L7.81471 3.92734L7.28964 3.63367C7.57777 3.47526 7.84924 3.48554 8.12673 3.51238L7.85654 3.39386C8.15317 3.26458 8.41755 3.42781 8.69978 3.45977C8.68775 3.29544 8.55923 3.30174 8.47621 3.2569C8.39051 3.21062 8.27536 3.23226 8.18 3.13933C8.44187 3.00897 8.70273 2.98986 8.95849 2.96173C9.0059 2.92081 9.05633 2.88234 9.11298 2.86725C9.18207 2.84883 9.25633 2.84914 9.32849 2.84291C9.88619 2.79475 10.4438 2.74643 11.0039 2.8079C11.1614 2.82518 11.3194 2.83798 11.4772 2.85284C11.0731 2.69028 10.6473 2.64727 10.2222 2.62474C9.82824 2.60387 9.4336 2.62605 9.04151 2.69383C8.13248 2.85099 7.29741 3.2007 6.52887 3.69543C5.91069 4.09337 5.49419 4.6624 5.30967 5.38606C5.27075 5.53873 5.23937 5.69422 5.18732 5.84237C5.14758 5.95547 5.12438 6.06649 5.13201 6.18494C5.17738 6.18119 5.22566 6.18627 5.26767 6.17235V6.17235ZM11.364 3.47693L11.4235 3.38969L11.4076 3.36034C11.295 3.40515 11.1828 3.44997 11.0705 3.49518C10.8294 3.57569 10.6517 3.73075 10.5276 3.95046C10.6811 3.8287 10.8266 3.69704 11.0317 3.60464C10.971 3.69506 10.927 3.7605 10.8699 3.84536L10.9979 3.818C10.9809 3.88027 10.967 3.93222 10.9488 3.99924C10.9773 3.98139 10.9908 3.97782 10.9975 3.9687C11.036 3.91675 11.0729 3.86361 11.1102 3.81087C11.2518 3.69903 11.3933 3.58719 11.5551 3.4595C11.4782 3.46664 11.4231 3.47139 11.364 3.47694L11.364 3.47693ZM14.7492 5.76441C14.6893 5.50148 14.5466 5.26313 14.5065 4.99267C14.5006 4.95142 14.4649 4.91494 14.4427 4.87647C14.2376 4.35853 13.9049 3.95125 13.4096 3.68514C13.2101 3.59393 13.011 3.50311 12.8115 3.4119L12.727 3.29729C12.4689 3.17157 12.2075 3.07044 11.9069 3.19814C12.0124 3.24731 12.1286 3.16325 12.2131 3.25605L12.1151 3.34131C12.3297 3.36829 12.5081 3.39089 12.6866 3.4135C12.913 3.51859 13.1395 3.62329 13.3663 3.72838C13.4151 3.76091 13.4647 3.79144 13.5123 3.82554C13.8974 4.09997 14.1773 4.46206 14.3935 4.87807C14.4173 4.9443 14.4411 5.01092 14.47 5.09064C14.4014 5.1307 14.3637 5.1878 14.4379 5.26672C14.5624 5.39958 14.6072 5.57289 14.6679 5.73707C14.6862 5.78624 14.6949 5.83859 14.7159 5.92069C14.6096 5.84533 14.5565 5.75095 14.4585 5.75095C14.5557 5.90721 14.6521 6.06306 14.7488 6.21891L14.8293 6.26254C14.8035 6.09637 14.7865 5.92823 14.7492 5.76444L14.7492 5.76441ZM13.4236 5.1251L13.9417 5.02765C13.7644 4.99991 13.5883 4.9507 13.4236 5.1251Z" fill="#10314D"/>
<path d="M10.7506 6.33968C10.5495 6.58952 10.4484 6.87704 10.4294 7.22683C10.3794 7.16734 10.3465 7.13007 10.3159 7.0904C10.1668 6.89647 9.9146 6.79613 9.70759 7.04598C9.66753 7.09436 9.61875 7.13561 9.54341 7.21056C9.52199 6.8814 9.42682 6.61332 9.25391 6.37576L9.29833 6.33809C9.47242 6.53875 9.545 6.78067 9.5799 7.06423C9.63661 6.998 9.68182 6.94565 9.72703 6.89331L9.79445 6.81161C9.83609 6.89529 9.91224 6.85286 9.97013 6.85087C10.1034 6.84691 10.214 6.88458 10.3052 6.98213C10.3267 7.00513 10.3524 7.02417 10.3659 7.03607C10.4167 6.8937 10.4627 6.7541 10.5158 6.61728C10.5444 6.54471 10.5888 6.47848 10.6178 6.4059C10.6249 6.38805 10.5987 6.35711 10.5876 6.33213C10.6265 6.29367 10.6653 6.2552 10.7102 6.21118C10.7272 6.26511 10.7391 6.30239 10.7506 6.33968H10.7506Z" fill="#738899"/>
<path d="M11.2713 9.65646C11.2165 9.70047 11.1618 9.74449 11.092 9.80042C11.0603 9.74687 11.0263 9.48256 11.0073 9.45044C10.9879 9.62533 10.9734 10.0344 10.9524 10.2248C10.8989 10.4262 10.8616 10.6344 10.7878 10.8284C10.605 11.309 10.3417 11.7437 9.9804 12.1518C9.86381 12.005 9.74959 11.8738 9.65004 11.7322C9.43549 11.4268 9.2491 11.1048 9.12339 10.7514C9.10396 10.6975 8.96 10.2053 8.99529 9.99911C9.03891 10.1796 9.08214 10.3596 9.12577 10.54C9.20548 10.6943 9.27805 10.853 9.36728 11.0013C9.48149 11.1916 9.60682 11.3756 9.73214 11.5593L9.75435 11.5898L9.76743 11.6064L9.78171 11.6239C9.81622 11.6643 9.85508 11.7052 9.89632 11.7536L9.66313 11.2702C9.59373 11.0346 9.5275 10.7958 9.48387 10.5539L9.47911 10.5289C9.39503 10.0475 9.3994 9.56128 9.44263 9.07507C9.44937 9.00091 9.43786 8.92517 9.44778 8.8522C9.45452 8.80144 9.48307 8.75385 9.50211 8.70387C9.42875 8.64558 9.44263 8.57895 9.49299 8.50955L9.49418 8.24186C9.65797 8.12646 9.75117 7.9706 9.76623 7.76953L9.82651 7.53357H10.1953C10.2076 7.65651 10.2084 7.78223 10.2354 7.90199C10.2663 8.03881 10.3484 8.14986 10.4626 8.2371C10.5011 8.26645 10.5392 8.30848 10.5554 8.3529C10.6673 8.66264 10.8231 8.94817 11.017 9.21308C11.0285 9.22855 11.0317 9.24957 11.0389 9.26781C11.113 9.36061 11.1872 9.45341 11.2617 9.54621L11.2712 9.65646H11.2713Z" fill="#FEB500"/>
<path d="M12.5926 10.5761C12.555 10.5669 12.5145 10.563 12.4796 10.5475C12.1421 10.3956 11.8447 10.1854 11.5798 9.92686C11.4822 9.83129 11.3743 9.74602 11.2712 9.65639L11.2617 9.54614C11.2875 9.56439 11.318 9.57787 11.3387 9.60087C11.7003 9.99587 12.1088 10.3286 12.5926 10.5761V10.5761Z" fill="#788A95"/>
<path d="M10.1948 7.53346H9.82601L9.76574 7.76943C9.76455 7.62904 9.76059 7.48865 9.76415 7.34865C9.76455 7.31693 9.78993 7.2856 9.8038 7.25387V7.38316C9.92992 7.37444 10.0425 7.3665 10.1552 7.35857C10.1583 7.31494 10.1607 7.28243 10.1635 7.24951C10.2357 7.33715 10.1933 7.43788 10.1948 7.53346H10.1948Z" fill="#6F662D"/>
<path d="M10.1634 7.24945C10.1606 7.28236 10.1583 7.31489 10.1551 7.35851C10.0425 7.36644 9.92983 7.37436 9.80371 7.3831V7.25381C9.95124 7.10827 10.0091 7.10747 10.1634 7.24945H10.1634Z" fill="#F1B101"/>
<path d="M9.49386 8.24182L9.49267 8.50952C9.4776 8.4881 9.46253 8.46669 9.44112 8.43694C9.3273 8.66537 9.24599 8.88825 9.06396 9.10875C9.06873 9.04134 9.06436 9.01714 9.07269 8.9997C9.17025 8.80061 9.26899 8.60233 9.36934 8.40443C9.40027 8.34296 9.40661 8.26087 9.49386 8.24183V8.24182Z" fill="#6D8193"/>
<path d="M7.95758 10.2806C7.84297 10.3568 7.74145 10.4206 7.64428 10.4908C7.61811 10.5094 7.60542 10.5471 7.58678 10.5765C7.47375 10.6356 7.35478 10.6463 7.23145 10.6185C7.45313 10.4999 7.67443 10.3813 7.89651 10.264C7.90445 10.26 7.91951 10.2699 7.95759 10.2806H7.95758Z" fill="#778D9F"/>
<path d="M8.85102 10.0018C8.7031 9.96416 8.62021 9.85034 8.54248 9.72661C8.73641 9.71471 8.75108 9.90467 8.85102 10.0018Z" fill="#FEB500"/>
<path opacity="0.7" d="M5.40075 7.94234H5.71335L5.65736 8.17002H6.13979L6.095 8.38651H5.6023L5.50152 8.90086H5.18799L5.40074 7.94234H5.40075ZM6.3894 7.84902L6.44212 7.59148H5.4754L5.42314 7.84902H6.3894ZM6.74819 7.84902L6.59925 8.58021C6.59034 8.62394 6.55201 8.65545 6.50738 8.65573L5.99048 8.65897L5.93263 8.90085L6.61305 8.89825C6.73823 8.89777 6.84572 8.80912 6.87001 8.68631L7.03559 7.84901L7.08598 7.58494L6.57836 7.59147L6.52797 7.84901H6.74819V7.84902ZM8.27846 7.84915C8.28431 8.01458 8.22491 8.14851 8.04411 8.22378L8.04406 8.22456C8.24335 8.32101 8.19246 8.75012 7.97432 8.90085H7.80103L7.66079 9.04529H7.42564L7.56587 8.90085H7.50802L7.36778 9.04529H7.13263L7.27286 8.90085H6.99079L7.19421 7.94233H7.47135L7.42484 8.16209L7.9108 8.15663C7.98445 8.08041 7.98048 7.99591 7.96786 7.90626C7.96325 7.87355 7.93562 7.84901 7.90258 7.84901H7.21194L7.2642 7.59147H7.43692L7.31552 7.46643H7.55067L7.67207 7.59147H7.72993L7.60852 7.46643H7.84367L7.96507 7.59147H8.01143C8.15519 7.59147 8.27335 7.70547 8.27844 7.84914L8.27846 7.84915ZM7.82794 8.33702L7.38909 8.33106L7.32301 8.64332H7.77714C7.80007 8.64332 7.82177 8.63244 7.83584 8.61433C7.88994 8.54465 7.90279 8.46932 7.89674 8.40033C7.89363 8.36475 7.86365 8.33751 7.82795 8.33702H7.82794Z" fill="#1B354E"/>
<path opacity="0.7" d="M11.8729 7.94234H12.1855L12.1295 8.17002H12.612L12.5672 8.38651H12.0745L11.9737 8.90086H11.6602L11.8729 7.94234H11.8729ZM12.8616 7.84902L12.9143 7.59148H11.9476L11.8953 7.84902H12.8616ZM13.2204 7.84902L13.0714 8.58021C13.0625 8.62394 13.0242 8.65545 12.9795 8.65573L12.4627 8.65897L12.4048 8.90085L13.0852 8.89825C13.2104 8.89777 13.3179 8.80912 13.3422 8.68631L13.5078 7.84901L13.5581 7.58494L13.0505 7.59147L13.0001 7.84901H13.2204V7.84902ZM14.7506 7.84915C14.7565 8.01458 14.6971 8.14851 14.5163 8.22378L14.5162 8.22456C14.7155 8.32101 14.6646 8.75012 14.4465 8.90085H14.2732L14.133 9.04529H13.8978L14.038 8.90085H13.9802L13.8399 9.04529H13.6048L13.745 8.90085H13.463L13.6664 7.94233H13.9435L13.897 8.16209L14.383 8.15663C14.4566 8.08041 14.4527 7.99591 14.44 7.90626C14.4354 7.87355 14.4078 7.84901 14.3747 7.84901H13.6841L13.7364 7.59147H13.9091L13.7877 7.46643H14.0228L14.1442 7.59147H14.2021L14.0807 7.46643H14.3158L14.4372 7.59147H14.4836C14.6274 7.59147 14.7455 7.70547 14.7506 7.84914L14.7506 7.84915ZM14.3001 8.33702L13.8613 8.33106L13.7952 8.64332H14.2493C14.2722 8.64332 14.2939 8.63244 14.308 8.61433C14.3621 8.54465 14.375 8.46932 14.3689 8.40033C14.3658 8.36475 14.3358 8.33751 14.3001 8.33702H14.3001Z" fill="#1B354E"/>
</svg>
