<svg width="64" height="64" viewBox="0 0 64 64" fill="none" xmlns="http://www.w3.org/2000/svg">
<g clip-path="url(#clip0_85_68903)">
<path d="M32 64C49.673 64 64 49.673 64 32C64 14.3269 49.673 0 32 0C14.3269 0 0 14.3269 0 32C0 49.673 14.3269 64 32 64Z" fill="#1A69FF"/>
<path fill-rule="evenodd" clip-rule="evenodd" d="M34.4092 7.76147C33.7014 7.38755 32.8678 7.23946 32.1129 7.23946C31.358 7.23946 30.5244 7.38755 29.8166 7.76147L17.8468 14.0854C17.2667 14.3919 16.6253 14.9494 16.453 15.7753C16.3677 15.9589 16.3201 16.1636 16.3201 16.3795V47.6093C16.3201 47.7174 16.332 47.823 16.3548 47.9245C16.2915 48.4883 16.5682 49.0605 17.098 49.3475L29.8027 56.2317L29.816 56.2387C30.5237 56.6128 31.3573 56.7606 32.1123 56.7606C32.8671 56.7606 33.7011 56.6131 34.4089 56.239L47.1443 49.1376C47.6159 48.8749 47.8815 48.3853 47.8809 47.881C47.8979 47.793 47.9068 47.7021 47.9068 47.6093V16.3795C47.9068 16.1623 47.8585 15.9564 47.7721 15.7718C47.5987 14.9478 46.9583 14.3915 46.3791 14.0854L34.4092 7.76147ZM31.1581 10.3007C31.3482 10.2003 31.6913 10.1112 32.1129 10.1112C32.5347 10.1112 32.8777 10.2003 33.0678 10.3007L44.2601 16.2138L33.0678 22.1269C32.8777 22.2273 32.5347 22.3164 32.1129 22.3164C31.6913 22.3164 31.3482 22.2273 31.1581 22.1269L19.9659 16.2138L31.1581 10.3007ZM45.0348 34.4838V47.0259L33.0563 53.7053C32.8639 53.8032 32.526 53.889 32.1123 53.889C31.6943 53.889 31.3535 53.8016 31.1626 53.7021L19.1918 47.216V34.4845L29.8166 40.0976C30.5244 40.4717 31.358 40.6198 32.1129 40.6198C32.8678 40.6198 33.7014 40.4717 34.4092 40.0976L45.0348 34.4838ZM35.8031 23.9296L45.0348 19.0524V28.8069L35.8031 23.9296ZM19.1918 28.8064L28.4226 23.9296L19.1918 19.0528V28.8064ZM30.6771 25.9865L19.9659 31.6454L30.6771 37.3043V25.9865ZM33.5487 37.3043L44.2601 31.6454L33.5487 25.9865V37.3043Z" fill="white"/>
<path d="M48.5469 9.51309C47.8685 9.10237 46.9856 9.31933 46.5748 9.99769C46.1642 10.6761 46.3812 11.5589 47.0596 11.9697L47.2314 12.0737C48.3972 12.7789 48.9341 13.1038 49.2925 13.569C49.5927 13.9585 49.8631 14.6023 49.8631 16.24C49.8631 17.033 50.5059 17.6759 51.2989 17.6759C52.0919 17.6759 52.7348 17.033 52.7348 16.24C52.7348 14.3302 52.4292 12.9342 51.5671 11.816C50.8608 10.8995 49.84 10.2881 48.8727 9.70889L48.8688 9.70665C48.7613 9.6423 48.6525 9.57702 48.5469 9.51309Z" fill="white"/>
<path d="M17.4256 53.4704C17.0149 54.1488 16.132 54.3658 15.4536 53.9549C15.3465 53.8899 15.2382 53.8253 15.1291 53.76C14.1619 53.1808 13.1396 52.5686 12.4332 51.6518C11.5714 50.5337 11.2656 49.1376 11.2656 47.2278C11.2656 46.4349 11.9085 45.792 12.7015 45.792C13.4945 45.792 14.1374 46.4349 14.1374 47.2278C14.1374 48.8656 14.4077 49.5094 14.7078 49.8989C15.0664 50.3642 15.6034 50.6889 16.769 51.3942L16.941 51.4982C17.6194 51.9091 17.8363 52.792 17.4256 53.4704Z" fill="white"/>
<path d="M48 64C56.8366 64 64 56.8366 64 48C64 39.1634 56.8366 32 48 32C39.1634 32 32 39.1634 32 48C32 56.8366 39.1634 64 48 64Z" fill="#131419"/>
<path fill-rule="evenodd" clip-rule="evenodd" d="M42.9111 45.9146L48 40.8253L53.089 45.9146L56.0474 42.9562L48 34.9088L39.9527 42.9562L42.9111 45.9146ZM37.8647 45.0503L34.9098 48.0051L37.8647 50.96L40.8195 48.0051L37.8647 45.0503ZM48 55.1824L42.9111 50.0931L39.9527 53.0515L48 61.0989L56.0474 53.0515L53.089 50.0931L48 55.1824ZM58.136 45.0506L55.1812 48.0055L58.136 50.9603L61.0909 48.0055L58.136 45.0506ZM48.0016 45.0042L51.0013 48.0039L48.0016 51.0035L45.002 48.0039L45.5191 47.4659L45.7879 47.2179L48.0016 45.0042Z" fill="#F0B90B"/>
</g>
<defs>
<clipPath id="clip0_85_68903">
<rect width="64" height="64" fill="white"/>
</clipPath>
</defs>
</svg>
