<svg width="64" height="64" viewBox="0 0 64 64" fill="none" xmlns="http://www.w3.org/2000/svg">
<g clip-path="url(#clip0_85_68891)">
<path d="M32 64C49.673 64 64 49.673 64 32C64 14.3269 49.673 0 32 0C14.3269 0 0 14.3269 0 32C0 49.673 14.3269 64 32 64Z" fill="#1A69FF"/>
<path fill-rule="evenodd" clip-rule="evenodd" d="M34.4092 7.76146C33.7014 7.38754 32.8678 7.23944 32.1129 7.23944C31.358 7.23944 30.5244 7.38754 29.8166 7.76146L17.8468 14.0854C17.2667 14.3919 16.6253 14.9494 16.453 15.7752C16.3677 15.9589 16.3201 16.1636 16.3201 16.3794V47.6093C16.3201 47.7174 16.332 47.823 16.3548 47.9245C16.2915 48.4883 16.5682 49.0605 17.098 49.3475L29.8027 56.2317L29.816 56.2387C30.5237 56.6128 31.3573 56.7606 32.1123 56.7606C32.8671 56.7606 33.7011 56.6131 34.4089 56.239L47.1443 49.1376C47.6159 48.8749 47.8815 48.3853 47.8809 47.8809C47.8979 47.7929 47.9068 47.7021 47.9068 47.6093V16.3794C47.9068 16.1623 47.8585 15.9564 47.7721 15.7718C47.5987 14.9478 46.9583 14.3914 46.3791 14.0854L34.4092 7.76146ZM31.1581 10.3007C31.3482 10.2003 31.6913 10.1112 32.1129 10.1112C32.5347 10.1112 32.8777 10.2003 33.0678 10.3007L44.2601 16.2138L33.0678 22.1269C32.8777 22.2273 32.5347 22.3163 32.1129 22.3163C31.6913 22.3163 31.3482 22.2273 31.1581 22.1269L19.9659 16.2138L31.1581 10.3007ZM45.0348 34.4838V47.0259L33.0563 53.7053C32.8639 53.8032 32.526 53.8889 32.1123 53.8889C31.6943 53.8889 31.3535 53.8016 31.1626 53.7021L19.1918 47.216V34.4845L29.8166 40.0976C30.5244 40.4717 31.358 40.6198 32.1129 40.6198C32.8678 40.6198 33.7014 40.4717 34.4092 40.0976L45.0348 34.4838ZM35.8031 23.9296L45.0348 19.0523V28.8069L35.8031 23.9296ZM19.1918 28.8064L28.4226 23.9296L19.1918 19.0528V28.8064ZM30.6771 25.9865L19.9659 31.6454L30.6771 37.3043V25.9865ZM33.5487 37.3043L44.2601 31.6454L33.5487 25.9865V37.3043Z" fill="white"/>
<path d="M48.5469 9.5131C47.8685 9.10238 46.9856 9.31934 46.5748 9.99771C46.1642 10.6761 46.3812 11.559 47.0596 11.9697L47.2314 12.0737C48.3972 12.779 48.9341 13.1039 49.2925 13.569C49.5927 13.9585 49.8631 14.6023 49.8631 16.24C49.8631 17.033 50.5059 17.6759 51.2989 17.6759C52.0919 17.6759 52.7348 17.033 52.7348 16.24C52.7348 14.3303 52.4292 12.9343 51.5671 11.816C50.8608 10.8995 49.84 10.2881 48.8727 9.70891L48.8688 9.70667C48.7613 9.64232 48.6525 9.57704 48.5469 9.5131Z" fill="white"/>
<path d="M17.4256 53.4704C17.0149 54.1488 16.132 54.3658 15.4536 53.9549C15.3465 53.8899 15.2382 53.8253 15.1291 53.76C14.1619 53.1808 13.1396 52.5686 12.4332 51.6518C11.5714 50.5337 11.2656 49.1376 11.2656 47.2278C11.2656 46.4349 11.9085 45.792 12.7015 45.792C13.4945 45.792 14.1374 46.4349 14.1374 47.2278C14.1374 48.8656 14.4077 49.5094 14.7078 49.8989C15.0664 50.3642 15.6034 50.6889 16.769 51.3942L16.941 51.4982C17.6194 51.9091 17.8363 52.792 17.4256 53.4704Z" fill="white"/>
<path d="M48.8277 32L48.6129 32.7292V53.8883L48.8277 54.1025L58.6553 48.2969L48.8277 32Z" fill="#343434"/>
<path d="M48.8278 32L39 48.2969L48.8278 54.1025V43.8325V32Z" fill="#8C8C8C"/>
<path d="M48.8277 55.9621L48.7067 56.1096V63.6468L48.8277 64L58.6613 50.1594L48.8277 55.9621Z" fill="#3C3C3B"/>
<path d="M48.8278 64V55.9621L39 50.1594L48.8278 64Z" fill="#8C8C8C"/>
<path d="M48.8279 54.1025L58.6554 48.2969L48.8279 43.8325V54.1025Z" fill="#141414"/>
<path d="M39 48.2969L48.8278 54.1025V43.8325L39 48.2969Z" fill="#393939"/>
</g>
<defs>
<clipPath id="clip0_85_68891">
<rect width="64" height="64" fill="white"/>
</clipPath>
</defs>
</svg>
