<svg xmlns="http://www.w3.org/2000/svg" xmlns:xlink="http://www.w3.org/1999/xlink" width="660.001" height="743.338" viewBox="0 0 660.001 743.338">
  <defs>
    <clipPath id="clip-path">
      <path id="Path_23" data-name="Path 23" d="M444.617,34.678l2.99,310.355a59.448,59.448,0,0,0,29.606,50.926l268.345,154.9a20.1,20.1,0,0,0,30.183-17.622l-3.226-332.3a20.1,20.1,0,0,0-10.043-17.255L474.145,17.292a19.468,19.468,0,0,0-9.781-2.7,19.831,19.831,0,0,0-19.825,19.851v.184" transform="translate(-444.539 -14.591)" fill="none"/>
    </clipPath>
    <clipPath id="clip-path-2">
      <path id="Path_24" data-name="Path 24" d="M759.2,17.36,467.226,184.089a20.138,20.138,0,0,0-10.175,17.7l3.227,332.724a20.135,20.135,0,0,0,30.209,17.255L759.251,396.656a59.373,59.373,0,0,0,29.711-51.45V34.563a19.54,19.54,0,0,0-19.09-19.982,19.3,19.3,0,0,0-10.516,2.78" transform="translate(-457.05 -14.573)" fill="none"/>
    </clipPath>
  </defs>
  <g id="FUN-CUBE_colour" transform="translate(-802.295 72.995)">
    <g id="CUBE" transform="translate(802.295 -72.996)">
      <path id="base_cube" data-name="base cube" d="M1079.18,175.5l-2.8-1.626a21.561,21.561,0,0,0-2.676-1.914L804.935,16.77a59.8,59.8,0,0,0-8.522-3.96,47.726,47.726,0,0,0-46.362.577L579.491,111.568l-106.047,60.55a23.526,23.526,0,0,0-3.226,2.334l-1.756,1.049a47.636,47.636,0,0,0-23.89,41.328V535.156a57.231,57.231,0,0,0,28.688,49.589L750.05,744.052a47.624,47.624,0,0,0,47.6,0l281.561-162.035a47.724,47.724,0,0,0,23.916-41.328V216.829A47.741,47.741,0,0,0,1079.18,175.5Z" transform="translate(-443.711 -7.086)" fill="#ec1966"/>
      <g id="medium" transform="translate(0 196.789)" opacity="0.1">
        <path id="SVGID-3" d="M444.617,34.678l2.99,310.355a59.448,59.448,0,0,0,29.606,50.926l268.345,154.9a20.1,20.1,0,0,0,30.183-17.622l-3.226-332.3a20.1,20.1,0,0,0-10.043-17.255L474.145,17.292a19.468,19.468,0,0,0-9.781-2.7,19.831,19.831,0,0,0-19.825,19.851v.184" transform="translate(-444.539 -14.591)"/>
        <g id="Group_23" data-name="Group 23">
          <g id="Group_22" data-name="Group 22" clip-path="url(#clip-path)">
            <g id="Group_21" data-name="Group 21" transform="translate(-236.841 -144.615)">
              <rect id="Rectangle_5" data-name="Rectangle 5" width="560.511" height="636.939" transform="matrix(0.864, -0.504, 0.504, 0.864, 0, 282.624)"/>
            </g>
          </g>
        </g>
      </g>
      <g id="dark" transform="translate(328.084 196.308)" opacity="0.2">
        <path id="SVGID-4" d="M759.2,17.36,467.226,184.089a20.138,20.138,0,0,0-10.175,17.7l3.227,332.724a20.135,20.135,0,0,0,30.209,17.255L759.251,396.656a59.373,59.373,0,0,0,29.711-51.45V34.563a19.54,19.54,0,0,0-19.09-19.982,19.3,19.3,0,0,0-10.516,2.78" transform="translate(-457.05 -14.573)"/>
        <g id="Group_27" data-name="Group 27">
          <g id="Group_26" data-name="Group 26" clip-path="url(#clip-path-2)">
            <g id="Group_25" data-name="Group 25" transform="translate(-186.485 -113.845)">
              <rect id="Rectangle_6" data-name="Rectangle 6" width="509.102" height="628.632" transform="translate(0 187.496) rotate(-21.61)"/>
            </g>
          </g>
        </g>
      </g>
    </g>
    <g id="FUN" transform="translate(802.295 -72.996)">
      <path id="N" d="M476.549,221.7A13.848,13.848,0,0,1,462.7,207.933l-.734-133.163a13.848,13.848,0,0,1,24.282-9.152L539.3,126.562l-.315-91.6a13.843,13.843,0,0,1,13.794-13.872h.051A13.839,13.839,0,0,1,566.68,34.885l.419,128.757a13.815,13.815,0,0,1-24.256,9.126L489.871,111.9l.525,95.9a13.844,13.844,0,0,1-13.766,13.9Z" transform="translate(-4.893 346.148)" fill="#fff"/>
      <path id="U" d="M586.381,142.158a85.3,85.3,0,0,1-32.517-6.451,10.542,10.542,0,0,1-1.547-.76L459.511,82.08a13.518,13.518,0,1,1,13.374-23.5L564.9,111a57.234,57.234,0,0,0,22.08,4.091c21.9,0,38.26-10.673,38.626-20.349a16.127,16.127,0,0,0-7.368-12.325,13.406,13.406,0,0,1-1.495-.761l-4.116-2.386-74.423-42.98a13.523,13.523,0,1,1,13.531-23.418l77.307,44.659a11.453,11.453,0,0,1,1.285.6A43.059,43.059,0,0,1,652.648,93.67l.026.734c0,26.774-28.82,47.753-65.585,47.753Z" transform="translate(-239.365 92.997)" fill="#fff"/>
      <path id="F" d="M23805.758,15491.435a15.248,15.248,0,0,1-15.238-15.206l-.521-172.943a15.245,15.245,0,0,1,22.734-13.325l117.092,66.137a15.242,15.242,0,1,1-15,26.537l-94.273-53.231.184,56.777,87.535,48.166a15.238,15.238,0,0,1-7.367,28.587,15.04,15.04,0,0,1-7.324-1.893l-72.73-40,.178,55.11a15.254,15.254,0,0,1-15.213,15.284Z" transform="translate(-23697.984 -14924.659)" fill="#fff"/>
    </g>
  </g>
</svg>
