<svg width="20" height="20" viewBox="0 0 20 20" fill="none" xmlns="http://www.w3.org/2000/svg">
<path d="M11.8153 1.06097C12.083 0.301543 12.514 0.00319326 13.0856 0.148763C13.6399 0.289903 13.8493 0.733933 13.7302 1.57333C14.3345 1.7351 14.9449 1.89781 15.555 2.06207C16.0158 2.18615 16.4814 2.29584 16.9358 2.44031C17.7251 2.67828 18.4155 3.16682 18.9024 3.83204C19.3894 4.49726 19.6465 5.30298 19.6349 6.12731C19.6393 8.08005 19.6352 10.0329 19.6534 11.9855C19.6813 12.6896 19.5179 13.388 19.1804 14.0066C18.843 14.6251 18.3442 15.1407 17.7371 15.4983C15.7776 16.7667 13.823 18.0425 11.8732 19.3258C11.4571 19.6247 10.9742 19.817 10.4666 19.8859C9.959 19.9549 9.44225 19.8983 8.96157 19.7213C8.54999 19.5532 8.15854 19.3396 7.79452 19.0844C5.90491 17.8642 4.01983 16.6369 2.13928 15.4027C1.57347 15.0583 1.10935 14.5698 0.794469 13.9871C0.479587 13.4043 0.325255 12.7484 0.347282 12.0864C0.349672 10.1124 0.339402 8.13838 0.354562 6.1645C0.335643 5.29592 0.614701 4.44704 1.14531 3.7591C1.67591 3.07116 2.42607 2.58564 3.27098 2.38332C4.24298 2.11811 5.21945 1.86925 6.1938 1.61262C7.06564 1.38297 7.94393 1.1749 8.80723 0.916693C9.64516 0.662138 10.5413 0.673012 11.3728 0.947823C11.5126 0.992133 11.6573 1.02097 11.8153 1.06097ZM0.720612 9.18363H0.717142C0.717142 10.1813 0.709012 11.1791 0.719222 12.1766C0.707731 12.7483 0.844329 13.3133 1.11574 13.8166C1.38715 14.3199 1.78415 14.7445 2.26815 15.049C4.16801 16.3118 6.07542 17.5632 7.99038 18.8033C8.57516 19.2214 9.27535 19.4477 9.99424 19.4508C10.7131 19.4539 11.4153 19.2337 12.0036 18.8206C13.9214 17.6052 15.8171 16.3546 17.7094 15.0998C18.216 14.7803 18.6306 14.3345 18.9125 13.8061C19.1944 13.2777 19.3339 12.6851 19.3172 12.0864C19.3269 10.1123 19.3239 8.13817 19.3203 6.16404C19.3356 5.38165 19.0868 4.61693 18.6138 3.99347C18.1409 3.37 17.4716 2.92421 16.714 2.72814C15.7016 2.4495 14.6836 2.19084 13.6644 1.93807C13.513 1.90795 13.3563 1.91909 13.2107 1.97033C13.0068 2.05139 12.7818 2.06304 12.5706 2.00349C12.3594 1.94393 12.1736 1.81649 12.0421 1.64083C11.9911 1.56188 11.9206 1.49742 11.8374 1.45372C10.9258 1.08769 9.92409 1.00911 8.96658 1.22851C7.10658 1.74566 5.23779 2.23136 3.37269 2.73024C2.60759 2.9166 1.9285 3.35737 1.44676 3.9803C0.965027 4.60324 0.709235 5.37136 0.721322 6.15874C0.717462 7.16702 0.720612 8.17533 0.720612 9.18363Z" fill="url(#paint0_linear_2469_3473)"/>
<path d="M12.6696 4.23563C12.6696 3.74063 12.5795 5.6211 12.5795 5.17901C12.8026 5.17901 12.6166 5.38931 12.8499 5.38931C12.8499 5.78941 12.9963 3.64613 12.97 4.04331C12.9513 4.32639 13.2512 4.40706 13.5087 4.46831C14.1788 4.62764 14.8452 4.8028 15.5077 4.99379C15.9346 5.09688 16.3199 5.32795 16.6119 5.65605C16.9038 5.98416 17.0886 6.39364 17.1414 6.82967C17.2133 7.25119 17.0078 7.21908 16.5903 7.32714C15.0197 7.73372 13.2815 7.45177 11.7142 7.87094C11.1698 8.01654 10.7517 8.92124 10.7228 9.48129C10.7014 9.89373 10.8368 10.6073 10.861 11.0195C10.898 11.6497 11.4798 12.6011 12.1108 12.4917C12.7154 12.3869 13.8704 12.174 14.4662 12.023C14.5953 11.9399 14.7008 11.8249 14.7724 11.6891C14.844 11.5533 14.8793 11.4013 14.8748 11.2479C14.8134 11.0362 14.6961 10.6053 14.4963 10.653C14.0219 10.7663 14.7057 10.249 14.2319 10.3646C13.6347 10.5103 12.8394 10.8823 12.8258 10.2732C12.8197 9.99742 12.8534 10.0393 12.8619 9.76371C12.871 9.46689 13.0562 9.50054 13.3546 9.4212C14.9343 9.45601 14.9984 8.63176 16.4146 8.26451C16.4913 8.24462 16.6748 8.17669 16.7334 8.23908C17.0069 8.5279 17.1583 8.91114 17.1561 9.30889C17.1632 10.0516 17.1691 10.7946 17.1528 11.537C17.1413 11.9874 16.9861 12.4222 16.7099 12.7781C16.4337 13.134 16.0509 13.3922 15.6175 13.515C13.9126 13.9913 12.2013 14.4468 10.4824 14.8688C10.1095 14.945 9.72394 14.9329 9.35655 14.8336C7.76238 14.4366 6.17755 14.0018 4.59082 13.5751C4.0872 13.4659 3.63852 13.1818 3.3243 12.7734C3.01008 12.3649 2.85062 11.8584 2.87417 11.3436C2.87087 9.95361 2.87073 8.56359 2.87375 7.17355C2.85546 6.675 3.01041 6.18551 3.31225 5.7883C3.61409 5.39109 4.04418 5.11068 4.52941 4.99475C6.12518 4.56016 7.72449 4.13859 9.32162 3.70894C9.79557 3.58223 10.2953 3.58846 10.7659 3.72694C11.3254 3.88354 12.0405 4.06818 12.6696 4.23563ZM3.76861 9.82448H3.76421C3.76421 10.3971 3.78037 10.9704 3.75821 11.5422C3.74462 11.6113 3.74569 11.6825 3.76133 11.7512C3.77698 11.8199 3.80687 11.8845 3.84905 11.9409C3.89124 11.9973 3.94479 12.0442 4.00625 12.0786C4.06771 12.113 4.1357 12.1342 4.20584 12.1407C5.72515 12.5283 7.23712 12.9448 8.75173 13.3508C9.14292 13.4557 9.26324 13.3706 9.26415 12.9676C9.26693 11.748 9.25774 10.5284 9.26907 9.30903C9.27691 9.25185 9.27329 9.19369 9.25842 9.13793C9.24355 9.08217 9.21773 9.02992 9.18246 8.98424C9.14719 8.93856 9.10318 8.90036 9.053 8.87187C9.00281 8.84338 8.94746 8.82516 8.89016 8.81828C7.34196 8.41452 5.79637 8.00075 4.24937 7.59235C3.89237 7.4981 3.7727 7.58512 3.76998 7.94748C3.76524 8.57312 3.76863 9.19881 3.76863 9.82448H3.76861Z" stroke="#F6F6F6" stroke-width="0.19153" stroke-miterlimit="10"/>
<path d="M12.5177 4.19488V2.82727H13.1611C13.1611 3.22737 13.1807 3.62762 13.1545 4.02483C13.1358 4.30792 13.2512 4.40708 13.5088 4.46831C14.1789 4.62764 14.8452 4.8028 15.5077 4.99379C15.9347 5.09688 16.3199 5.32794 16.6119 5.65605C16.9039 5.98415 17.0887 6.39363 17.1415 6.82965C17.2133 7.25117 17.1627 7.29983 16.7452 7.4079C15.1746 7.81447 13.6053 8.22593 12.0372 8.6423C11.7852 8.69817 11.5596 8.83773 11.3971 9.03826C11.2346 9.23878 11.1448 9.48843 11.1423 9.74653C11.121 10.1598 11.1224 10.5738 11.1467 10.9869C11.1592 11.1409 11.203 11.2908 11.2755 11.4273C11.348 11.5638 11.4475 11.684 11.5681 11.7807C11.6887 11.8773 11.8277 11.9484 11.9767 11.9894C12.1256 12.0305 12.2814 12.0407 12.4345 12.0194C13.0391 11.9146 13.6339 11.7502 14.2297 11.5992C14.2755 11.5943 14.3196 11.579 14.3586 11.5547C14.3977 11.5303 14.4307 11.4974 14.4553 11.4585C14.4799 11.4196 14.4953 11.3756 14.5005 11.3299C14.5057 11.2842 14.5006 11.2378 14.4854 11.1944C14.4746 11.1498 14.4545 11.1081 14.4262 11.0721C14.398 11.036 14.3623 11.0064 14.3216 10.9854C14.2809 10.9643 14.2362 10.9522 14.1904 10.9499C14.1447 10.9476 14.099 10.9552 14.0564 10.9722C13.582 11.0854 13.1101 11.209 12.6363 11.3246C12.0391 11.4703 11.7914 11.2826 11.7779 10.6735C11.7717 10.3977 11.7672 10.1215 11.7756 9.84599C11.7691 9.71156 11.8109 9.57923 11.8934 9.4729C11.9759 9.36657 12.0937 9.29326 12.2256 9.26621C13.6396 8.89028 15.0526 8.51098 16.4689 8.14372C16.5173 8.13921 16.566 8.14541 16.6118 8.16189C16.6575 8.17837 16.699 8.20472 16.7334 8.23906C17.0069 8.52788 17.1583 8.91112 17.1561 9.30887C17.1632 10.0516 17.1691 10.7946 17.1528 11.537C17.1413 11.9874 16.9861 12.4222 16.7099 12.7781C16.4337 13.1339 16.0509 13.3922 15.6175 13.515C13.9126 13.9913 12.2013 14.4467 10.4824 14.8688C10.1095 14.945 9.72394 14.9329 9.35655 14.8336C7.76238 14.4366 6.17755 14.0018 4.59082 13.5751C4.0872 13.4658 3.63852 13.1818 3.3243 12.7734C3.01008 12.3649 2.85062 11.8584 2.87417 11.3436C2.87087 9.95359 2.87073 8.56357 2.87375 7.17353C2.85546 6.67498 3.01041 6.18549 3.31225 5.78828C3.61409 5.39107 4.04418 5.11066 4.52941 4.99473C6.12518 4.56014 7.72449 4.13857 9.32162 3.70892C9.79557 3.58221 10.2953 3.58844 10.7659 3.72692C11.3255 3.88352 11.8886 4.02743 12.5177 4.19488ZM3.76868 9.82446H3.76429C3.76429 10.3971 3.78045 10.9704 3.75829 11.5422C3.7447 11.6113 3.74577 11.6825 3.76141 11.7512C3.77706 11.8198 3.80695 11.8845 3.84913 11.9409C3.89132 11.9973 3.94487 12.0442 4.00633 12.0786C4.06779 12.113 4.13578 12.1342 4.20592 12.1407C5.72523 12.5283 7.2372 12.9447 8.75181 13.3508C9.143 13.4557 9.26332 13.3706 9.26423 12.9676C9.26701 11.748 9.25782 10.5284 9.26915 9.30901C9.27699 9.25184 9.27337 9.19367 9.2585 9.13791C9.24363 9.08215 9.21781 9.0299 9.18254 8.98423C9.14727 8.93855 9.10326 8.90035 9.05308 8.87185C9.00289 8.84336 8.94754 8.82514 8.89024 8.81826C7.34204 8.4145 5.79645 8.00073 4.24945 7.59233C3.89245 7.49808 3.77278 7.5851 3.77006 7.94746C3.76532 8.5731 3.76871 9.19879 3.76871 9.82446H3.76868Z" fill="url(#paint1_linear_2469_3473)"/>
<path d="M3.76846 9.82451C3.76846 9.19884 3.76507 8.57315 3.76976 7.94751C3.77248 7.58515 3.89216 7.49813 4.24915 7.59238C5.79615 8.00078 7.34174 8.41455 8.88994 8.81831C8.94724 8.82519 9.0026 8.8434 9.05278 8.8719C9.10297 8.90039 9.14698 8.93859 9.18224 8.98427C9.21751 9.02995 9.24334 9.0822 9.2582 9.13796C9.27307 9.19372 9.27669 9.25188 9.26885 9.30906C9.25752 10.5285 9.26671 11.7481 9.26393 12.9676C9.26302 13.3706 9.1427 13.4557 8.75151 13.3508C7.2369 12.9448 5.72493 12.5284 4.20562 12.1407C4.13548 12.1342 4.06749 12.1131 4.00603 12.0787C3.94458 12.0442 3.89102 11.9973 3.84884 11.9409C3.80665 11.8845 3.77677 11.8199 3.76112 11.7512C3.74547 11.6825 3.7444 11.6113 3.75799 11.5422C3.7802 10.9704 3.76399 10.3972 3.76399 9.82451H3.76846ZM4.77631 8.97351C4.77631 9.59577 4.7721 10.1868 4.78264 10.7775C4.7907 10.8156 4.80766 10.8512 4.83211 10.8814C4.85657 10.9116 4.88783 10.9357 4.92335 10.9515C5.09116 11.002 5.26179 11.0425 5.43435 11.073C5.43435 10.5435 5.43487 10.0581 5.4342 9.57274C5.43352 9.08243 5.43306 9.0821 4.9532 8.98874C4.91243 8.98089 4.87006 8.98133 4.77631 8.97355V8.97351ZM7.66219 11.6581C7.66219 11.1406 7.63575 10.643 7.67104 10.1498C7.69664 9.79192 7.57322 9.6199 7.22679 9.58984C7.16498 9.58448 7.10346 9.57579 6.99926 9.5637C6.99926 10.0407 6.99887 10.5032 6.99936 10.9656C6.99997 11.5529 7.00028 11.5529 7.66219 11.6581Z" fill="black"/>
<path d="M4.77671 8.97351C4.87046 8.98129 4.91283 8.98085 4.95357 8.98878C5.43343 9.08211 5.43389 9.08244 5.43457 9.57278C5.43524 10.0582 5.43472 10.5436 5.43472 11.073C5.26216 11.0426 5.09153 11.002 4.92372 10.9516C4.8882 10.9357 4.85694 10.9117 4.83248 10.8814C4.80803 10.8512 4.79107 10.8156 4.78301 10.7776C4.7725 10.1868 4.77671 9.59577 4.77671 8.97351Z" fill="white"/>
<path d="M7.66259 11.6581C7.00068 11.5529 7.00037 11.5529 6.99976 10.9656C6.99927 10.5032 6.99966 10.0407 6.99966 9.56372C7.10386 9.57581 7.16538 9.5845 7.22719 9.58986C7.57362 9.61992 7.69704 9.79194 7.67144 10.1498C7.63615 10.643 7.66259 11.1406 7.66259 11.6581Z" fill="white"/>
<path d="M12.8244 2.10844C13.3837 2.10844 13.8372 1.65498 13.8372 1.0956C13.8372 0.536228 13.3837 0.0827637 12.8244 0.0827637C12.265 0.0827637 11.8115 0.536228 11.8115 1.0956C11.8115 1.65498 12.265 2.10844 12.8244 2.10844Z" fill="url(#paint2_linear_2469_3473)"/>
<path d="M9.92415 7.63696C9.97093 7.44852 8.5966 6.94521 6.8545 6.51279C5.1124 6.08037 3.66223 5.88258 3.61546 6.07103C3.56868 6.25947 4.94301 6.76278 6.68511 7.1952C8.42721 7.62762 9.87738 7.8254 9.92415 7.63696Z" fill="url(#paint3_radial_2469_3473)"/>
<defs>
<linearGradient id="paint0_linear_2469_3473" x1="0.346102" y1="10.0151" x2="19.6537" y2="10.0151" gradientUnits="userSpaceOnUse">
<stop stop-color="#F5DE4A"/>
<stop offset="1" stop-color="#F47B32"/>
</linearGradient>
<linearGradient id="paint1_linear_2469_3473" x1="43.9282" y1="110.115" x2="248.335" y2="110.115" gradientUnits="userSpaceOnUse">
<stop stop-color="#F5DE4A"/>
<stop offset="1" stop-color="#F47B32"/>
</linearGradient>
<linearGradient id="paint2_linear_2469_3473" x1="37.7895" y1="0.250409" x2="37.7895" y2="4.35379" gradientUnits="userSpaceOnUse">
<stop stop-color="#F5DE4A"/>
<stop offset="1" stop-color="#F47B32"/>
</linearGradient>
<radialGradient id="paint3_radial_2469_3473" cx="0" cy="0" r="1" gradientUnits="userSpaceOnUse" gradientTransform="translate(6.7698 6.85401) rotate(13.9401) scale(2.31155 0.343843)">
<stop stop-color="white" stop-opacity="0.8"/>
<stop offset="1" stop-color="white" stop-opacity="0"/>
</radialGradient>
</defs>
</svg>
