<svg width="20" height="21" viewBox="0 0 20 21" fill="none" xmlns="http://www.w3.org/2000/svg">
<circle cx="10" cy="10.875" r="10" fill="white"/>
<path d="M14.2894 7.6712C13.8426 8.21069 13.035 8.29104 12.488 7.85027C11.7456 7.25338 10.8472 6.93657 9.8883 6.93657C7.6214 6.93657 5.77576 8.75707 5.77576 10.9931C5.77576 13.2291 7.6214 15.0496 9.8883 15.0496C11.7083 15.0496 13.2584 13.8765 13.796 12.2557H9.8883C9.18077 12.2557 8.60822 11.691 8.60822 10.9931C8.60822 10.2952 9.18077 9.73046 9.8883 9.73046H15.2809C15.9 9.73046 16.4167 10.1643 16.5354 10.7383C16.4609 8.89252 15.6137 7.23961 14.3011 6.08716C14.6665 6.54401 14.6781 7.20287 14.2894 7.6712Z" fill="#27357B"/>
<path d="M9.87433 1.89978C9.16679 1.89978 8.59425 2.46453 8.59425 3.16242C8.59425 3.80981 9.08999 4.34242 9.72537 4.41588C9.7789 4.41359 9.83243 4.41129 9.88829 4.41129C11.4221 4.41129 12.9209 4.93701 14.1079 5.89432C14.18 5.95171 14.2429 6.01829 14.2987 6.08716C15.6114 7.23961 16.4609 8.89252 16.5331 10.7383C16.5494 10.8209 16.5587 10.9059 16.5587 10.9931C16.5587 14.2852 14.0963 17.0193 10.8914 17.4992C10.5586 17.5497 10.2188 17.5749 9.872 17.5749C9.16446 17.5749 8.59192 18.1397 8.59192 18.8376C8.59192 19.5355 9.16446 20.1002 9.872 20.1002C14.9597 20.1002 19.1002 16.0161 19.1002 10.9977C19.1002 5.97926 14.9621 1.89978 9.87433 1.89978Z" fill="#27357B"/>
<path d="M16.561 10.9932C16.561 10.906 16.5517 10.821 16.5354 10.7384C16.4167 10.1621 15.9 9.73055 15.2809 9.73055H9.88828C9.18074 9.73055 8.6082 10.2953 8.6082 10.9932C8.6082 11.6911 9.18074 12.2558 9.88828 12.2558H13.796C13.256 13.8766 11.7083 15.0497 9.88828 15.0497C7.62137 15.0497 5.77573 13.2292 5.77573 10.9932C5.77573 8.75716 7.62137 6.93666 9.88828 6.93666C10.8472 6.93666 11.7479 7.25347 12.488 7.85036C13.0349 8.29113 13.8426 8.21078 14.2894 7.67129C14.6781 7.20296 14.6665 6.5418 14.2987 6.08725C14.2429 6.01838 14.18 5.9518 14.1079 5.89441C12.9209 4.9371 11.422 4.41138 9.88828 4.41138C9.83474 4.41138 9.78121 4.41367 9.72536 4.41597C6.12252 4.50091 3.21558 7.41876 3.21558 10.9932C3.21558 12.141 3.51581 13.22 4.04181 14.1613C4.06508 14.1934 4.0837 14.2301 4.10232 14.2669C5.25439 16.2412 7.41656 17.575 9.88828 17.575C10.2304 17.575 10.5656 17.5497 10.8937 17.4992C14.0986 17.0217 16.561 14.2852 16.561 10.9932Z" fill="white"/>
<path d="M5.90152 5.22624C6.50897 5.22624 7.00006 4.74184 7.00006 4.14266C7.00006 3.54348 6.50897 3.05908 5.90152 3.05908C5.29406 3.05908 4.80298 3.54348 4.80298 4.14266C4.80298 4.74184 5.29406 5.22624 5.90152 5.22624Z" fill="#1D8BCC"/>
<path d="M3.23069 8.18281C3.83588 8.14038 4.29161 7.62206 4.2486 7.02512C4.20558 6.42817 3.68011 5.97865 3.07492 6.02107C2.46973 6.0635 2.014 6.58182 2.05701 7.17877C2.10003 7.77571 2.6255 8.22524 3.23069 8.18281Z" fill="#1D8BCC"/>
<path d="M3.09686 10.8599C3.09686 10.2608 2.60578 9.77637 1.99832 9.77637C1.39086 9.77637 0.89978 10.2608 0.89978 10.8599C0.89978 11.4591 1.39086 11.9435 1.99832 11.9435C2.60578 11.9435 3.09686 11.4591 3.09686 10.8599Z" fill="#1D8BCC"/>
<path d="M3.14102 13.6951C2.53357 13.6951 2.04248 14.1795 2.04248 14.7786C2.04248 15.3778 2.53357 15.8622 3.14102 15.8622C3.74848 15.8622 4.23956 15.3778 4.23956 14.7786C4.23956 14.5927 4.18836 14.4182 4.10224 14.2667C4.08362 14.23 4.065 14.1955 4.04173 14.1611C3.84157 13.881 3.51341 13.6951 3.14102 13.6951Z" fill="#1D8BCC"/>
<path d="M5.92935 16.5715C5.3219 16.5715 4.83081 17.0559 4.83081 17.6551C4.83081 18.2543 5.3219 18.7387 5.92935 18.7387C6.53681 18.7387 7.02789 18.2543 7.02789 17.6551C7.03022 17.0582 6.53681 16.5715 5.92935 16.5715Z" fill="#1D8BCC"/>
</svg>
