<svg width="64" height="64" viewBox="0 0 64 64" fill="none" xmlns="http://www.w3.org/2000/svg">
<g clip-path="url(#clip0_316_74705)">
<mask id="mask0_316_74705" style="mask-type:luminance" maskUnits="userSpaceOnUse" x="0" y="0" width="64" height="64">
<path d="M64 0H0V64H64V0Z" fill="white"/>
</mask>
<g mask="url(#mask0_316_74705)">
<path d="M64 32C64 14.3269 49.6731 0 32 0C14.3269 0 0 14.3269 0 32C0 49.6731 14.3269 64 32 64C49.6731 64 64 49.6731 64 32Z" fill="black"/>
<path d="M35.1035 38.7052C35.1035 37.0875 36.3797 35.776 37.954 35.776H39.0942C40.6684 35.776 41.9447 37.0875 41.9447 38.7052V39.8769C41.9447 41.4947 40.6684 42.8061 39.0942 42.8061H37.954C36.3797 42.8061 35.1035 41.4947 35.1035 39.8769V38.7052Z" fill="#1EEFA4"/>
<path d="M37.954 25.2308C36.3797 25.2308 35.1035 26.5422 35.1035 28.16V29.3317C35.1035 30.9494 36.3797 32.2609 37.954 32.2609H39.0942C40.6684 32.2609 41.9447 30.9494 41.9447 29.3317V28.16C41.9447 26.5422 40.6684 25.2308 39.0942 25.2308H37.954Z" fill="#1EEFA4"/>
<path fill-rule="evenodd" clip-rule="evenodd" d="M24.8418 12.928C18.5447 12.928 13.4399 18.1738 13.4399 24.6449V39.2911C13.4399 45.7622 18.5447 51.008 24.8418 51.008H39.0941C45.3912 51.008 50.4959 45.7622 50.4959 39.2911V24.6449C50.4959 18.1738 45.3912 12.928 39.0941 12.928H24.8418ZM39.0941 17.6148H24.8418C21.0636 17.6148 18.0007 20.7623 18.0007 24.6449V39.2911C18.0007 43.1737 21.0636 46.3212 24.8418 46.3212H39.0941C42.8723 46.3212 45.9352 43.1737 45.9352 39.2911V24.6449C45.9352 20.7623 42.8723 17.6148 39.0941 17.6148Z" fill="#1EEFA4"/>
</g>
</g>
<defs>
<clipPath id="clip0_316_74705">
<rect width="64" height="64" fill="white"/>
</clipPath>
</defs>
</svg>
