<svg width="64" height="64" viewBox="0 0 64 64" fill="none" xmlns="http://www.w3.org/2000/svg">
<g clip-path="url(#clip0_98_68635)">
<mask id="mask0_98_68635" style="mask-type:luminance" maskUnits="userSpaceOnUse" x="0" y="0" width="64" height="64">
<path d="M64 0H0V64H64V0Z" fill="white"/>
</mask>
<g mask="url(#mask0_98_68635)">
<path d="M7.7525 10.9012C8.14812 10.4089 8.56754 9.93537 8.98696 9.46158C9.00568 9.43806 9.04818 9.43326 9.06716 9.40996C9.10482 9.36292 9.16604 9.33486 9.20373 9.28779L9.24143 9.241C9.53388 8.97361 9.84501 8.6827 10.2037 8.42897C11.4726 7.47556 12.7895 6.75131 14.178 6.27473C18.632 4.72734 23.5898 5.68104 27.4779 9.31336C32.9066 14.3494 32.4202 22.4617 28.0868 27.8539C22.6106 35.8921 13.1996 47.1069 26.23 57.1533C28.5727 58.9593 30.3108 60.4489 37.6909 62.5593C32.864 63.439 28.3888 63.1654 23.4074 61.9065C19.8836 59.9382 14.344 55.7238 12.4592 50.0323C9.61052 41.4013 17.4744 28.4979 21.275 23.5284C26.4929 16.6508 18.0497 9.20558 11.8338 17.5175C8.5845 21.8493 2.90012 34.1069 4.87551 43.1993C6.03055 48.3552 7.5701 52.1133 13.6744 57.2761C12.5424 56.6153 11.4433 55.8653 10.3768 55.0265C-3.80596 41.9526 -2.16043 21.7377 7.7525 10.9012Z" fill="url(#paint0_linear_98_68635)"/>
<path d="M56.033 52.1712C55.6372 52.6634 55.218 53.1373 54.7985 53.6109C54.7796 53.6342 54.7374 53.639 54.7182 53.6627C54.6807 53.7094 54.6193 53.7376 54.5818 53.7846L54.5441 53.8314C54.2516 54.0989 53.9406 54.3898 53.5818 54.6435C52.3127 55.5968 50.9959 56.321 49.6074 56.7974C45.1534 58.345 40.1956 57.3914 36.3076 53.759C30.8789 48.7232 31.3651 40.6106 35.6986 35.2186C41.1748 27.1803 50.586 15.9656 37.5553 5.91936C35.2126 4.11293 33.4746 2.62372 26.0946 0.513241C30.9212 -0.366845 35.3966 -0.0931377 40.378 1.16589C43.9015 3.13421 49.4414 7.34835 51.3262 13.0403C54.1748 21.6715 46.3111 34.5744 42.5105 39.544C37.2926 46.4214 45.7358 53.8669 51.9518 45.5549C55.201 41.223 60.8852 28.9654 58.9098 19.8734C57.755 14.7172 56.2154 10.9589 50.1111 5.79616C51.243 6.45715 52.3422 7.20694 53.4087 8.04576C67.5911 21.1197 65.946 41.3347 56.033 52.1712Z" fill="url(#paint1_linear_98_68635)"/>
</g>
</g>
<defs>
<linearGradient id="paint0_linear_98_68635" x1="0.0251823" y1="31.5363" x2="63.7594" y2="31.5363" gradientUnits="userSpaceOnUse">
<stop stop-color="#0082FA"/>
<stop offset="1" stop-color="#00F2FE"/>
</linearGradient>
<linearGradient id="paint1_linear_98_68635" x1="0.0261192" y1="31.5363" x2="63.7604" y2="31.5363" gradientUnits="userSpaceOnUse">
<stop stop-color="#0082FA"/>
<stop offset="1" stop-color="#00F2FE"/>
</linearGradient>
<clipPath id="clip0_98_68635">
<rect width="64" height="64" fill="white"/>
</clipPath>
</defs>
</svg>
