<svg width="450" height="450" viewBox="0 0 450 450" fill="none" xmlns="http://www.w3.org/2000/svg">
<circle cx="225" cy="225" r="225" fill="black"/>
<g filter="url(#filter0_d_301_1479)">
<path d="M250.531 80.9998V149.249L309.766 115.172L250.531 80.9998Z" fill="url(#paint0_linear_301_1479)"/>
<path opacity="0.9" d="M309.766 115.173V183.422L369 149.25L309.766 115.173Z" fill="url(#paint1_linear_301_1479)"/>
<path opacity="0.8" d="M250.531 149.25V217.499L309.766 183.422L250.531 149.25Z" fill="url(#paint2_linear_301_1479)"/>
<path opacity="0.8" d="M309.766 183.422V251.672L369 217.499L309.766 183.422Z" fill="url(#paint3_linear_301_1479)"/>
<path opacity="0.8" d="M250.531 217.499V285.749L309.766 251.672L250.531 217.499Z" fill="url(#paint4_linear_301_1479)"/>
<path d="M309.766 251.672V319.922L369 285.749L309.766 251.672Z" fill="url(#paint5_linear_301_1479)"/>
<path opacity="0.4" d="M97.4211 146.953V215.202L156.656 181.03L97.4211 146.953Z" fill="url(#paint6_linear_301_1479)"/>
<path opacity="0.2" d="M172.158 172.319V240.568L231.297 206.491L172.158 172.319Z" fill="url(#paint7_linear_301_1479)"/>
<path opacity="0.3" d="M128.234 215.489V283.739L187.469 249.566L128.234 215.489Z" fill="url(#paint8_linear_301_1479)"/>
<path opacity="0.9" d="M167.278 266.988V335.238L226.417 301.065L167.278 266.988Z" fill="url(#paint9_linear_301_1479)"/>
<path opacity="0.7" d="M250.053 296.374V364.624L309.191 330.451L250.053 296.374Z" fill="url(#paint10_linear_301_1479)"/>
<path opacity="0.9" d="M182.014 138.625V206.874L241.153 172.797L182.014 138.625Z" fill="url(#paint11_linear_301_1479)"/>
<path opacity="0.8" d="M250.531 80.9998V149.249L191.297 115.172L250.531 80.9998Z" fill="url(#paint12_linear_301_1479)"/>
<path opacity="0.6" d="M182.014 110.004V178.253L122.78 144.081L182.014 110.004Z" fill="url(#paint13_linear_301_1479)"/>
<path opacity="0.6" d="M241.249 143.793V212.043L182.014 177.87L241.249 143.793Z" fill="url(#paint14_linear_301_1479)"/>
<path opacity="0.95" d="M171.871 172.319V240.568L112.636 206.491L171.871 172.319Z" fill="url(#paint15_linear_301_1479)"/>
<path opacity="0.6" d="M250.532 217.499V285.749L191.393 251.672L250.532 217.499Z" fill="url(#paint16_linear_301_1479)"/>
<path opacity="0.55" d="M128.234 233.389V301.639L69 267.466L128.234 233.389Z" fill="url(#paint17_linear_301_1479)"/>
<path d="M369 149.25V217.499L309.766 183.422L369 149.25Z" fill="url(#paint18_linear_301_1479)"/>
<path opacity="0.95" d="M309.766 183.422V251.672L250.531 217.499L309.766 183.422Z" fill="url(#paint19_linear_301_1479)"/>
<path opacity="0.9" d="M369 217.499V285.749L309.766 251.672L369 217.499Z" fill="url(#paint20_linear_301_1479)"/>
<path opacity="0.7" d="M309.766 251.672V319.922L250.531 285.749L309.766 251.672Z" fill="url(#paint21_linear_301_1479)"/>
<path opacity="0.4" d="M237.421 280.101V348.351L178.187 314.274L237.421 280.101Z" fill="url(#paint22_linear_301_1479)"/>
<path d="M309.766 115.173V183.422L250.531 149.25L309.766 115.173Z" fill="url(#paint23_linear_301_1479)"/>
</g>
<defs>
<filter id="filter0_d_301_1479" x="65" y="80.9998" width="308" height="291.624" filterUnits="userSpaceOnUse" color-interpolation-filters="sRGB">
<feFlood flood-opacity="0" result="BackgroundImageFix"/>
<feColorMatrix in="SourceAlpha" type="matrix" values="0 0 0 0 0 0 0 0 0 0 0 0 0 0 0 0 0 0 127 0" result="hardAlpha"/>
<feOffset dy="4"/>
<feGaussianBlur stdDeviation="2"/>
<feComposite in2="hardAlpha" operator="out"/>
<feColorMatrix type="matrix" values="0 0 0 0 0 0 0 0 0 0 0 0 0 0 0 0 0 0 0.25 0"/>
<feBlend mode="normal" in2="BackgroundImageFix" result="effect1_dropShadow_301_1479"/>
<feBlend mode="normal" in="SourceGraphic" in2="effect1_dropShadow_301_1479" result="shape"/>
</filter>
<linearGradient id="paint0_linear_301_1479" x1="-4511.03" y1="80.9999" x2="16345" y2="11477.3" gradientUnits="userSpaceOnUse">
<stop stop-color="#1CFE95"/>
<stop offset="1" stop-color="#00D3DC"/>
</linearGradient>
<linearGradient id="paint1_linear_301_1479" x1="-4451.79" y1="115.173" x2="16404.2" y2="11511.5" gradientUnits="userSpaceOnUse">
<stop stop-color="#1CFE95"/>
<stop offset="1" stop-color="#00D3DC"/>
</linearGradient>
<linearGradient id="paint2_linear_301_1479" x1="-4511.03" y1="149.25" x2="16345" y2="11545.5" gradientUnits="userSpaceOnUse">
<stop stop-color="#1CFE95"/>
<stop offset="1" stop-color="#00D3DC"/>
</linearGradient>
<linearGradient id="paint3_linear_301_1479" x1="-4451.79" y1="183.423" x2="16404.2" y2="11579.7" gradientUnits="userSpaceOnUse">
<stop stop-color="#1CFE95"/>
<stop offset="1" stop-color="#00D3DC"/>
</linearGradient>
<linearGradient id="paint4_linear_301_1479" x1="-4511.03" y1="217.499" x2="16345" y2="11613.8" gradientUnits="userSpaceOnUse">
<stop stop-color="#1CFE95"/>
<stop offset="1" stop-color="#00D3DC"/>
</linearGradient>
<linearGradient id="paint5_linear_301_1479" x1="-4451.79" y1="251.672" x2="16404.2" y2="11648" gradientUnits="userSpaceOnUse">
<stop stop-color="#1CFE95"/>
<stop offset="1" stop-color="#00D3DC"/>
</linearGradient>
<linearGradient id="paint6_linear_301_1479" x1="-4664.14" y1="146.953" x2="16191.9" y2="11543.2" gradientUnits="userSpaceOnUse">
<stop stop-color="#1CFE95"/>
<stop offset="1" stop-color="#00D3DC"/>
</linearGradient>
<linearGradient id="paint7_linear_301_1479" x1="-4556.81" y1="172.318" x2="16221" y2="11544.3" gradientUnits="userSpaceOnUse">
<stop stop-color="#1CFE95"/>
<stop offset="1" stop-color="#00D3DC"/>
</linearGradient>
<linearGradient id="paint8_linear_301_1479" x1="-4633.33" y1="215.489" x2="16222.7" y2="11611.8" gradientUnits="userSpaceOnUse">
<stop stop-color="#1CFE95"/>
<stop offset="1" stop-color="#00D3DC"/>
</linearGradient>
<linearGradient id="paint9_linear_301_1479" x1="-4561.69" y1="266.988" x2="16216.2" y2="11638.9" gradientUnits="userSpaceOnUse">
<stop stop-color="#1CFE95"/>
<stop offset="1" stop-color="#00D3DC"/>
</linearGradient>
<linearGradient id="paint10_linear_301_1479" x1="-4478.92" y1="296.374" x2="16298.9" y2="11668.3" gradientUnits="userSpaceOnUse">
<stop stop-color="#1CFE95"/>
<stop offset="1" stop-color="#00D3DC"/>
</linearGradient>
<linearGradient id="paint11_linear_301_1479" x1="-4546.96" y1="138.624" x2="16230.9" y2="11510.6" gradientUnits="userSpaceOnUse">
<stop stop-color="#1CFE95"/>
<stop offset="1" stop-color="#00D3DC"/>
</linearGradient>
<linearGradient id="paint12_linear_301_1479" x1="-4570.26" y1="80.9999" x2="16285.8" y2="11477.3" gradientUnits="userSpaceOnUse">
<stop stop-color="#1CFE95"/>
<stop offset="1" stop-color="#00D3DC"/>
</linearGradient>
<linearGradient id="paint13_linear_301_1479" x1="-4638.78" y1="110.004" x2="16217.2" y2="11506.3" gradientUnits="userSpaceOnUse">
<stop stop-color="#1CFE95"/>
<stop offset="1" stop-color="#00D3DC"/>
</linearGradient>
<linearGradient id="paint14_linear_301_1479" x1="-4579.54" y1="143.794" x2="16276.5" y2="11540.1" gradientUnits="userSpaceOnUse">
<stop stop-color="#1CFE95"/>
<stop offset="1" stop-color="#00D3DC"/>
</linearGradient>
<linearGradient id="paint15_linear_301_1479" x1="-4648.92" y1="172.319" x2="16207.1" y2="11568.6" gradientUnits="userSpaceOnUse">
<stop stop-color="#1CFE95"/>
<stop offset="1" stop-color="#00D3DC"/>
</linearGradient>
<linearGradient id="paint16_linear_301_1479" x1="-4537.58" y1="217.499" x2="16240.3" y2="11589.4" gradientUnits="userSpaceOnUse">
<stop stop-color="#1CFE95"/>
<stop offset="1" stop-color="#00D3DC"/>
</linearGradient>
<linearGradient id="paint17_linear_301_1479" x1="-4692.56" y1="233.39" x2="16163.5" y2="11629.7" gradientUnits="userSpaceOnUse">
<stop stop-color="#1CFE95"/>
<stop offset="1" stop-color="#00D3DC"/>
</linearGradient>
<linearGradient id="paint18_linear_301_1479" x1="-4451.79" y1="149.25" x2="16404.2" y2="11545.5" gradientUnits="userSpaceOnUse">
<stop stop-color="#1CFE95"/>
<stop offset="1" stop-color="#00D3DC"/>
</linearGradient>
<linearGradient id="paint19_linear_301_1479" x1="-4511.03" y1="183.423" x2="16345" y2="11579.7" gradientUnits="userSpaceOnUse">
<stop stop-color="#1CFE95"/>
<stop offset="1" stop-color="#00D3DC"/>
</linearGradient>
<linearGradient id="paint20_linear_301_1479" x1="-4451.79" y1="217.499" x2="16404.2" y2="11613.8" gradientUnits="userSpaceOnUse">
<stop stop-color="#1CFE95"/>
<stop offset="1" stop-color="#00D3DC"/>
</linearGradient>
<linearGradient id="paint21_linear_301_1479" x1="-4511.03" y1="251.672" x2="16345" y2="11648" gradientUnits="userSpaceOnUse">
<stop stop-color="#1CFE95"/>
<stop offset="1" stop-color="#00D3DC"/>
</linearGradient>
<linearGradient id="paint22_linear_301_1479" x1="-4583.37" y1="280.101" x2="16272.6" y2="11676.4" gradientUnits="userSpaceOnUse">
<stop stop-color="#1CFE95"/>
<stop offset="1" stop-color="#00D3DC"/>
</linearGradient>
<linearGradient id="paint23_linear_301_1479" x1="-4511.03" y1="115.173" x2="16345" y2="11511.5" gradientUnits="userSpaceOnUse">
<stop stop-color="#1CFE95"/>
<stop offset="1" stop-color="#00D3DC"/>
</linearGradient>
</defs>
</svg>
