<svg xmlns="http://www.w3.org/2000/svg" xmlns:xlink="http://www.w3.org/1999/xlink" width="1978" height="1978" viewBox="0 0 1978 1978">
  <defs>
    <clipPath id="clip-LOGO_MAIN_NOTM">
      <rect width="1978" height="1978"/>
    </clipPath>
  </defs>
  <g id="LOGO_MAIN_NOTM" clip-path="url(#clip-LOGO_MAIN_NOTM)">
    <path id="Path_7" data-name="Path 7" d="M1588.756,770.43,1331.989,513.562a57.138,57.138,0,0,0-81.191,0l-170.4,170.6a59.675,59.675,0,0,1-84.337-84.337l170.6-170.7a57.139,57.139,0,0,0,0-81.191L909.8,91.571a57.138,57.138,0,0,0-81.191,0L571.736,348.338a57.138,57.138,0,0,0,0,81.191l170.6,170.7a59.574,59.574,0,0,1,0,84.337h0a59.574,59.574,0,0,1-84.337,0l-170.6-170.6a57.239,57.239,0,0,0-81.191,0L149.441,770.836a57.139,57.139,0,0,0,0,81.191L828.3,1530.886a57.139,57.139,0,0,0,81.191,0l256.868-256.767a57.239,57.239,0,0,0,0-81.191l-170.3-170.806a59.574,59.574,0,0,1,0-84.337h0a59.574,59.574,0,0,1,84.337,0l170.7,170.6a57.139,57.139,0,0,0,81.192,0l256.462-257.173A57.139,57.139,0,0,0,1588.756,770.43Z" transform="translate(120.004 177.771)" fill="#884ff0"/>
  </g>
</svg>
