<svg width="30" height="40" viewBox="0 0 30 40" fill="none" xmlns="http://www.w3.org/2000/svg">
<g clip-path="url(#clip0_2_100)">
<path d="M12.9137 19.997L27.828 28.5399C27.9478 28.6119 28.0847 28.6508 28.2245 28.6524C28.3644 28.654 28.5021 28.6183 28.6236 28.5491C28.7451 28.4798 28.846 28.3795 28.9158 28.2583C28.9857 28.1372 29.022 27.9996 29.0211 27.8598V12.1223C29.0229 11.9822 28.987 11.8442 28.9171 11.7228C28.8473 11.6014 28.7461 11.5009 28.6241 11.432C28.5021 11.3631 28.3639 11.3283 28.2238 11.3311C28.0838 11.3339 27.947 11.3744 27.828 11.4482L12.9137 19.997Z" fill="#31CB9E"/>
<path d="M27.5118 7.66593L17.3164 0.167045C17.2109 0.0860017 17.087 0.0321714 16.9557 0.0102993C16.8244 -0.0115728 16.6898 -0.000814984 16.5636 0.0416244C16.4375 0.0840638 16.3237 0.156882 16.2324 0.253659C16.141 0.350437 16.0749 0.468202 16.0398 0.596576L12.3172 17.3005L27.4223 8.94855C27.5372 8.88943 27.635 8.80167 27.7061 8.69374C27.7772 8.58582 27.8193 8.46138 27.8283 8.33244C27.8373 8.20351 27.8129 8.07443 27.7575 7.95768C27.702 7.84092 27.6174 7.74044 27.5118 7.66593Z" fill="#31CB9E"/>
<path d="M17.3045 39.821L27.5118 32.3221C27.6188 32.2469 27.7047 32.1455 27.7613 32.0275C27.8178 31.9095 27.8431 31.779 27.8348 31.6485C27.8264 31.5179 27.7846 31.3917 27.7134 31.2819C27.6422 31.1722 27.5441 31.0825 27.4283 31.0216L12.3172 22.6696L16.0398 39.3736C16.0706 39.5034 16.1333 39.6235 16.222 39.7231C16.3108 39.8226 16.4229 39.8986 16.5483 39.9442C16.6737 39.9897 16.8085 40.0034 16.9404 39.984C17.0724 39.9646 17.1975 39.9127 17.3045 39.833" fill="#31CB9E"/>
<path d="M9.03602 19.6868L12.9137 1.55109C12.9433 1.4008 12.9274 1.2451 12.868 1.10391C12.8086 0.962712 12.7085 0.842454 12.5803 0.758525C12.4522 0.674597 12.3019 0.630815 12.1488 0.632785C11.9956 0.634754 11.8465 0.682386 11.7206 0.769582L1.78769 8.38778C1.53617 8.58074 1.33263 8.82919 1.19293 9.11377C1.05323 9.39834 0.981154 9.71133 0.982324 10.0283V29.3572C0.977443 29.6782 1.04773 29.9959 1.18757 30.285C1.32742 30.574 1.53293 30.8262 1.78769 31.0216L11.6729 38.616C11.7988 38.7032 11.9479 38.7508 12.101 38.7528C12.2542 38.7547 12.4045 38.711 12.5326 38.627C12.6607 38.5431 12.7609 38.4228 12.8203 38.2816C12.8797 38.1404 12.8956 37.9847 12.866 37.8345L9.03602 19.6868Z" fill="#31CB9E"/>
</g>
<defs>
<clipPath id="clip0_2_100">
<rect width="28.0388" height="40" fill="white" transform="translate(0.98233)"/>
</clipPath>
</defs>
</svg>
