<svg width="64" height="64" viewBox="0 0 64 64" fill="none" xmlns="http://www.w3.org/2000/svg">
<g clip-path="url(#clip0_85_69043)">
<path d="M32 64C49.6731 64 64 49.6731 64 32C64 14.3269 49.6731 0 32 0C14.3269 0 0 14.3269 0 32C0 49.6731 14.3269 64 32 64Z" fill="#3468F4"/>
<path d="M32.0004 8L27.5967 10.5321L15.5967 17.4679L11.193 20V44L15.5967 46.5322L27.7068 53.4678L32.1104 56L36.514 53.4678L48.4039 46.5322L52.8077 44V20L48.4039 17.4679L36.4039 10.5321L32.0004 8ZM20.0004 38.9357V25.0642L32.0004 18.1284L44.0004 25.0642V38.9357L32.0004 45.8717L20.0004 38.9357Z" fill="white"/>
<g clip-path="url(#clip1_85_69043)">
<path d="M51.4569 46.6615L53.8068 42.6742L60.1409 52.5397L60.144 54.4325L60.1232 41.4042C60.1158 41.2471 60.0707 41.094 59.9918 40.9579C59.9128 40.8219 59.8022 40.7068 59.6694 40.6225L48.2657 34.0633C48.1294 33.9986 47.9804 33.9653 47.8296 33.966C47.6787 33.9667 47.53 34.0014 47.3944 34.0674C47.3592 34.0851 47.3251 34.1048 47.2922 34.1265L47.2525 34.1516L36.1832 40.5659L36.1401 40.5853C36.0827 40.6119 36.0279 40.6438 35.9765 40.6806C35.7689 40.8289 35.6275 41.0523 35.5823 41.3034C35.5753 41.3415 35.5706 41.3799 35.5681 41.4186L35.5855 52.0352L41.4853 42.8908C42.2281 41.6783 43.8465 41.2877 45.3488 41.3089L47.1121 41.3545L36.7225 58.0162L37.9473 58.7213L48.4614 41.3711L53.1086 41.3543L42.6217 59.1415L46.9923 61.6568L47.5145 61.9571C47.7398 62.0467 47.9899 62.0515 48.2185 61.9711L59.7825 55.2696L57.5705 56.5507L51.4569 46.6615ZM52.3536 59.5747L47.9396 52.6471L50.6339 48.0751L56.4307 57.2119L52.3536 59.5747Z" fill="#2D374B"/>
<path d="M47.9397 52.647L52.3536 59.5746L56.4311 57.2115L50.6344 48.075L47.9397 52.647Z" fill="#28A0F0"/>
<path d="M60.1446 54.4326L60.1416 52.5399L53.8075 42.6744L51.4563 46.6612L57.571 56.5504L59.783 55.2693C59.8901 55.1826 59.9776 55.0741 60.04 54.9512C60.1024 54.8282 60.1381 54.6934 60.1448 54.5558L60.1446 54.4326Z" fill="#28A0F0"/>
<path d="M33.6012 56.2182L36.7233 58.0171L47.1129 41.3555L45.3497 41.3099C43.8473 41.2887 42.2289 41.6791 41.4862 42.8919L35.5863 52.0363L33.6023 55.0859L33.6012 56.2182Z" fill="white"/>
<path d="M53.1091 41.3553L48.462 41.3722L37.948 58.7222L41.6229 60.8382L42.6222 59.1432L53.1091 41.3553Z" fill="white"/>
<path d="M62.1022 41.3314C62.0809 40.8519 61.9433 40.3846 61.7013 39.9701C61.4592 39.5555 61.12 39.2061 60.7128 38.9518L49.1597 32.3081C48.7473 32.1054 48.2939 32 47.8343 32C47.3748 32 46.9214 32.1054 46.509 32.3081C46.4125 32.3566 35.2738 38.8168 35.2738 38.8168C35.119 38.8911 34.971 38.9787 34.8314 39.0786C34.4697 39.3358 34.171 39.6716 33.9577 40.0608C33.7445 40.45 33.6221 40.8825 33.6 41.3257V55.0853L35.5839 52.0357L35.5687 41.4195C35.5779 41.2739 35.6194 41.1322 35.69 41.0046C35.7606 40.877 35.8587 40.7667 35.9771 40.6815C36.0295 40.6439 47.3584 34.0863 47.3944 34.0683C47.5301 34.0023 47.6788 33.9676 47.8297 33.9669C47.9805 33.9662 48.1296 33.9995 48.2657 34.0642L59.6694 40.6238C59.8022 40.7082 59.9128 40.8232 59.9918 40.9593C60.0709 41.0953 60.1158 41.2484 60.1233 41.4056V54.5571C60.1205 54.6936 60.0886 54.8277 60.0299 54.9507C59.9712 55.0738 59.8867 55.1829 59.7824 55.2707L57.5704 56.5518L56.4302 57.2131L52.3528 59.5762L48.2177 61.9726C47.9891 62.0533 47.739 62.0483 47.5137 61.9587L42.6215 59.145L41.6222 60.8397L46.0189 63.371C46.1644 63.4536 46.2939 63.527 46.4002 63.5867C46.5648 63.6779 46.677 63.7406 46.7165 63.7598C47.0843 63.921 47.482 64.0029 47.8836 64C48.252 64.0005 48.6171 63.9318 48.96 63.7974L60.9702 56.8421C61.3091 56.5786 61.5861 56.2438 61.7814 55.8618C61.9769 55.4795 62.0864 55.0592 62.1017 54.6301L62.1022 41.3314Z" fill="#96BEDC"/>
</g>
</g>
<defs>
<clipPath id="clip0_85_69043">
<rect width="64" height="64" fill="white"/>
</clipPath>
<clipPath id="clip1_85_69043">
<rect width="32" height="32" fill="white" transform="translate(32 32)"/>
</clipPath>
</defs>
</svg>
