<svg width="64" height="64" viewBox="0 0 64 64" fill="none" xmlns="http://www.w3.org/2000/svg">
<g clip-path="url(#clip0_85_68934)">
<path d="M31.9744 63.8211C49.5344 63.8211 63.7696 49.5859 63.7696 32.0259C63.7696 14.4658 49.5344 0.230652 31.9744 0.230652C14.4144 0.230652 0.17926 14.4658 0.17926 32.0259C0.17926 49.5859 14.4144 63.8211 31.9744 63.8211Z" fill="#335E9F"/>
<path d="M17.8431 51.5325L22.5791 36.1469L17.4207 37.7213L18.7903 33.9325L23.5263 32.4605L30.1439 10.6877C30.2847 10.2269 30.7199 9.90686 31.2063 9.90686H37.9648C38.7072 9.90686 39.232 10.6237 39.0272 11.3277L33.6512 29.2989L38.5024 27.9293L37.6192 31.5901L32.6144 33.1005L29.1199 44.2621H46.912C47.4496 44.2621 47.8336 44.7741 47.6928 45.2861L46.144 50.9437C46.0416 51.2893 45.7344 51.5325 45.3632 51.5325H17.8431Z" fill="white"/>
<path d="M48 64C56.8366 64 64 56.8366 64 48C64 39.1634 56.8366 32 48 32C39.1634 32 32 39.1634 32 48C32 56.8366 39.1634 64 48 64Z" fill="#131419"/>
<path fill-rule="evenodd" clip-rule="evenodd" d="M42.9111 45.9146L48 40.8253L53.089 45.9146L56.0474 42.9562L48 34.9088L39.9527 42.9562L42.9111 45.9146ZM37.8647 45.0503L34.9098 48.0051L37.8647 50.96L40.8195 48.0051L37.8647 45.0503ZM48 55.1824L42.9111 50.0931L39.9527 53.0515L48 61.0989L56.0474 53.0515L53.089 50.0931L48 55.1824ZM58.136 45.0506L55.1812 48.0055L58.136 50.9603L61.0909 48.0055L58.136 45.0506ZM48.0016 45.0042L51.0013 48.0039L48.0016 51.0035L45.002 48.0039L45.5191 47.4659L45.7879 47.2179L48.0016 45.0042Z" fill="#F0B90B"/>
</g>
<defs>
<clipPath id="clip0_85_68934">
<rect width="64" height="64" fill="white"/>
</clipPath>
</defs>
</svg>
