<?xml version="1.0" encoding="utf-8"?>
<!-- Generator: Adobe Illustrator 25.2.0, SVG Export Plug-In . SVG Version: 6.00 Build 0)  -->
<svg version="1.1" id="Calque_1" xmlns="http://www.w3.org/2000/svg" xmlns:xlink="http://www.w3.org/1999/xlink" x="0px" y="0px"
	 viewBox="0 0 1500 1500" style="enable-background:new 0 0 1500 1500;" xml:space="preserve">
<style type="text/css">
	.st0{fill:url(#SVGID_1_);}
	.st1{fill:url(#SVGID_2_);}
	.st2{fill:url(#SVGID_3_);}
	.st3{fill:url(#SVGID_4_);}
	.st4{fill:url(#SVGID_5_);}
	.st5{fill:url(#SVGID_6_);}
	.st6{fill:url(#SVGID_7_);}
	.st7{fill:url(#SVGID_8_);}
	.st8{fill:#FFFFFF;}
</style>
<radialGradient id="SVGID_1_" cx="749.7056" cy="750" r="746" gradientUnits="userSpaceOnUse">
	<stop  offset="0" style="stop-color:#4D4D4D"/>
	<stop  offset="1" style="stop-color:#000000"/>
</radialGradient>
<circle class="st0" cx="749.71" cy="750" r="746"/>
<path d="M593.57,1257.64c0,0,259.48,60.34,218.75,146.33c0,0-107.11-61.85-84.48,48.28l-200.64-27.15l-102.58-45.26l-98.06-66.38
	l-66.18-74.67l206.3-18.95l92.2,18.2L593.57,1257.64z"/>
<path d="M675.03,553.13c0,0-96.55-215.73-289.65,89.01c0,0,98.06,7.54,107.11-7.54c0,0-15.09,76.94-49.78,116.16
	c0,0,66.38,4.53,82.97,0c0,0,27.15,28.66-43.75,63.36c-8.39-3.29,85.23,39.89,125.21,16.59c4.48-2.61-7.54-19.61-12.07-3.02
	c-9.13,33.48-25.65,9.05-61.85,116.16l61.85-40.73c0,0,0,18.1-43.75,61.85c0,0,60.34-19.61,67.89-25.65s72.41-73.92,72.41-73.92
	l-19.61-137.28c0,0-49.78-70.9-49.78-73.92C622.23,651.19,675.03,553.13,675.03,553.13z"/>
<path d="M343.14,1118.85c0,0,206.68-99.57,242.88-131.25c36.21-31.68,81.46-167.45,70.9-200.64S487.96,515.41,509.08,485.24
	s647.19,101.08,647.19,101.08l36.21,120.69c0,0-40.73,42.24,39.22,123.7c0,0-65.67-47.92-72.41-51.29
	c-3.02-1.51-26.4-0.75,6.79,41.49c0,0-36.21-19.61-42.24-49.78l-24.89,50.54l-151.61,92.78l87.5-6.03l16.59,15.09l-13.58,10.56
	l-21.12,61.85c0,0-67.13,8.3-178.77-33.94l-18.1,89.01l-24.89,118.42l-93.53,76.94L343.14,1118.85z"/>
<linearGradient id="SVGID_2_" gradientUnits="userSpaceOnUse" x1="816.0838" y1="877.7941" x2="1152.928" y2="877.7941">
	<stop  offset="0" style="stop-color:#C1844D"/>
	<stop  offset="1" style="stop-color:#E0B68C"/>
</linearGradient>
<path class="st1" d="M1123.84,771.12c0,0,13.58,73.92,28.66,95.04c0,0,12.07,9.05-92.02,0c0,0-4.53,12.07,12.07,25.65
	c0,0-1.51,12.07-16.59,12.07l-4.53,19.61c0,0-25.65-12.07-61.85-4.53c0,0,3.02,10.56,48.28,15.09l-21.12,61.85
	c0,0-138.79,22.63-200.64-202.15c0,0,12.07-31.68,60.34-34.7c0,0-13.58,16.59-10.56,34.7c0,0,33.19-46.77,116.16-1.51
	c0,0-7.54,10.56-6.03,18.1c0,0,25.65-24.14,70.9-6.03C1046.9,804.31,1090.65,805.82,1123.84,771.12z"/>
<linearGradient id="SVGID_3_" gradientUnits="userSpaceOnUse" x1="714.2537" y1="771.06" x2="750.8293" y2="771.06">
	<stop  offset="0" style="stop-color:#C1764D"/>
	<stop  offset="1" style="stop-color:#C38751"/>
</linearGradient>
<path class="st2" d="M714.25,735.67l6.03,40.73l30.17,31.68c0,0,4.53-30.17-18.1-48.28c0,0-9.05-16.59-12.07-22.63
	S714.25,735.67,714.25,735.67z"/>
<linearGradient id="SVGID_4_" gradientUnits="userSpaceOnUse" x1="692.5539" y1="1225.2073" x2="987.3093" y2="1225.2073">
	<stop  offset="0" style="stop-color:#C1844D"/>
	<stop  offset="1" style="stop-color:#E0B68C"/>
</linearGradient>
<path class="st3" d="M819.86,1050.96c0,0-137.28,113.14-126.72,138.79c0,0,188.57,98.06,250.43,167.45l43.75,42.24l-41.21-16.24
	c-9.42-19.84-7.51-38.11-25.97-63.38C889.55,1277.99,791.48,1226.2,819.86,1050.96z"/>
<linearGradient id="SVGID_5_" gradientUnits="userSpaceOnUse" x1="219.4346" y1="623.3227" x2="1389" y2="623.3227">
	<stop  offset="0" style="stop-color:#D1700F"/>
	<stop  offset="1" style="stop-color:#D1BE0F"/>
</linearGradient>
<path class="st4" d="M460.81,427.92H219.43l6.03,19.61l66.38,25.65l36.21,9.05l12.07,12.07l33.19,9.05l21.12,9.05l27.15,12.07
	l33.19,15.09l22.63,3.02l33.19,7.54l37.71,15.09l31.68,3.02l33.19,16.59l22.63,9.05c0,0,18.1,1.51,25.65,3.02
	c7.54,1.51,27.15,13.58,27.15,13.58l37.71,18.1c0,0,36.21,9.05,46.77,12.07c10.56,3.02,28.66,13.58,28.66,13.58l51.29,10.56
	l39.22,7.54l31.68,19.61l46.77,6.03c0,0,16.59,1.51,28.66,7.54c12.07,6.03,43.75,21.12,43.75,21.12l19.61,7.54l27.15,1.51
	l36.21,12.07l42.24,7.54l28.66,6.03l18.1,10.56l51.29,10.56c0,0,18.1,7.54,24.14,10.56c6.03,3.02,34.7,15.09,34.7,15.09
	s22.63,3.02,30.17,4.53s17.89,6.12,17.89,6.12L1389,804l-17-18.55l-18.1-24.14c0,0-28.66-21.12-36.21-22.63
	c-7.54-1.51-40.73-31.68-40.73-31.68s-12.07-7.54-18.1-9.05c-6.03-1.51-42.24-34.7-42.24-34.7l-39.22-19.61L460.81,427.92z"/>
<linearGradient id="SVGID_6_" gradientUnits="userSpaceOnUse" x1="500.0332" y1="360.5238" x2="1249.6974" y2="360.5238">
	<stop  offset="0" style="stop-color:#D1700F"/>
	<stop  offset="1" style="stop-color:#D1BE0F"/>
</linearGradient>
<path class="st5" d="M500.03,337.4c0,0,93.53-267.02,457.1-168.96c0,0,357.54,92.02,282.11,405.81L717.27,467.14L500.03,337.4z"/>
<linearGradient id="SVGID_7_" gradientUnits="userSpaceOnUse" x1="1241.8549" y1="504.0991" x2="448.1952" y2="504.0991">
	<stop  offset="0" style="stop-color:#00A99D"/>
	<stop  offset="1" style="stop-color:#1B3C64"/>
</linearGradient>
<path class="st6" d="M461.56,407.55l36.96-73.17c0,0,541.93,90.43,743.33,240.53l-22.22,98.9l-33.19-16.59l-60.34-19.61l-33.19-6.03
	l-36.21-16.59l-36.4-7.63l-36.01-7.45c0,0-30.17-13.58-36.21-18.1c-6.03-4.53-34.74-7.76-34.74-7.76l-40.69-14.87l-37.71-10.56
	l-49.6-13.15l-31.87-12.5c0,0-27.15,0-36.21-7.54c-9.05-7.54-39.04-13.01-39.04-13.01l-39.22-10.56l-49.97-14.14l-58.84-22.63
	l-53.46-12.54l-28.55-8.08L461.56,407.55z"/>
<path d="M1054.44,897.84l-3.02,6.03c0,0-31.68-12.07-82.97-13.58v-3.02C968.45,887.28,1039.36,891.81,1054.44,897.84z"/>
<g>
	<path d="M690.87,353.24c48.18,6.33,95.84,16.23,143.01,27.85c47.18,11.65,93.77,25.66,139.72,41.48
		c22.93,8.06,45.68,16.6,68.24,25.65l16.84,6.96l8.42,3.49l8.35,3.64c5.56,2.44,11.15,4.83,16.7,7.31l16.55,7.63
		c44.1,20.43,86.92,43.59,128.28,69.08l-15.69-9.26l-7.84-4.63c-2.63-1.52-5.29-2.97-7.94-4.46l-15.9-8.88
		c-5.33-2.9-10.72-5.7-16.08-8.55l-8.04-4.27c-2.67-1.44-5.41-2.75-8.11-4.14l-16.26-8.2c-5.44-2.7-10.94-5.26-16.41-7.9l-8.21-3.93
		c-2.73-1.32-5.52-2.53-8.27-3.8l-16.58-7.53l-16.7-7.27l-8.35-3.62l-8.42-3.48l-16.84-6.92c-22.55-8.99-45.31-17.48-68.22-25.5
		c-22.94-7.95-46.04-15.44-69.3-22.42c-23.25-7.01-46.69-13.37-70.21-19.37c-23.54-5.96-47.2-11.45-70.99-16.31
		C738.82,361.03,714.94,356.55,690.87,353.24z"/>
</g>
<g>
	<path d="M571.69,247.64c12.3-0.88,24.64-1.21,36.98-1.34c3.08-0.05,6.17-0.03,9.25-0.03c3.08,0,6.17,0,9.25,0.06l9.25,0.13
		l9.25,0.26c24.67,0.76,49.3,2.48,73.86,4.99c24.56,2.47,49.02,5.92,73.34,10.17c24.31,4.27,48.5,9.27,72.47,15.2
		c5.99,1.48,11.94,3.13,17.91,4.69c2.98,0.8,5.98,1.55,8.94,2.4l8.89,2.59l8.89,2.59l4.44,1.3c1.48,0.45,2.94,0.93,4.41,1.4
		l17.63,5.65c2.95,0.9,5.84,1.98,8.76,2.99l8.74,3.06l8.74,3.06c2.9,1.05,5.77,2.19,8.65,3.29l17.28,6.64l17.07,7.17
		c2.84,1.21,5.71,2.35,8.52,3.62l8.42,3.85c5.6,2.59,11.25,5.08,16.81,7.75l16.57,8.25l4.14,2.06c1.38,0.68,2.77,1.37,4.11,2.12
		l8.14,4.41c5.41,2.97,10.87,5.84,16.23,8.89l15.94,9.41c2.65,1.58,5.33,3.1,7.95,4.74l7.79,4.99l15.58,9.99l-15.67-9.83l-7.84-4.91
		c-2.63-1.61-5.33-3.1-7.99-4.66l-16.02-9.24c-5.39-2.99-10.88-5.81-16.31-8.72l-8.16-4.35c-1.35-0.74-2.73-1.42-4.12-2.1
		l-4.15-2.04l-16.6-8.14c-5.57-2.64-11.23-5.09-16.83-7.65l-8.43-3.8c-2.82-1.25-5.69-2.38-8.53-3.57l-17.09-7.06l-17.27-6.59
		c-2.88-1.09-5.75-2.22-8.65-3.26l-8.73-3.04l-8.73-3.04c-2.91-1-5.8-2.07-8.75-2.97l-17.62-5.61c-1.47-0.46-2.93-0.95-4.41-1.39
		l-4.44-1.29l-8.88-2.57l-8.88-2.57c-2.96-0.85-5.96-1.58-8.93-2.38c-5.97-1.55-11.91-3.18-17.89-4.65
		c-47.86-11.84-96.53-20.43-145.56-25.68c-24.51-2.65-49.12-4.49-73.76-5.41l-9.24-0.35l-9.25-0.22c-3.08-0.09-6.16-0.12-9.25-0.15
		c-3.08-0.03-6.17-0.08-9.25-0.06C596.34,246.68,584,246.88,571.69,247.64z"/>
</g>
<g>
	<path d="M609.41,229.53c13.81-1.31,27.69-1.88,41.56-2.19c13.87-0.28,27.75-0.2,41.63,0.18c27.74,0.87,55.45,2.96,83.01,6.26
		c27.56,3.29,54.98,7.8,82.15,13.5c13.58,2.87,27.1,6.06,40.53,9.55c6.73,1.72,13.41,3.6,20.09,5.46
		c6.66,1.96,13.33,3.88,19.94,5.99c52.95,16.72,104.27,38.77,152.39,66.5l9,5.24l8.89,5.42c2.98,1.78,5.9,3.66,8.82,5.53
		c2.92,1.88,5.86,3.71,8.75,5.64c5.75,3.88,11.56,7.68,17.2,11.73c2.83,2.01,5.7,3.96,8.48,6.03l8.37,6.19
		c2.81,2.04,5.51,4.22,8.25,6.35c2.72,2.15,5.5,4.23,8.18,6.44c5.36,4.41,10.78,8.74,16,13.32c10.6,8.96,20.73,18.45,30.76,28.03
		c-10.12-9.49-20.33-18.89-31-27.75c-5.25-4.53-10.71-8.8-16.1-13.17c-2.7-2.18-5.49-4.24-8.23-6.36c-2.76-2.1-5.48-4.25-8.3-6.27
		l-8.38-6.15c-2.79-2.06-5.66-4-8.49-6c-5.64-4.03-11.45-7.81-17.21-11.67c-2.89-1.91-5.84-3.73-8.76-5.6
		c-2.92-1.86-5.84-3.73-8.82-5.5l-8.89-5.38l-9-5.2c-48.14-27.55-99.44-49.4-152.34-65.94c-6.6-2.13-13.25-4.07-19.89-6.04
		c-6.67-1.88-13.34-3.78-20.05-5.52c-13.41-3.52-26.89-6.76-40.44-9.66c-27.12-5.77-54.49-10.36-82.01-13.73
		c-27.52-3.38-55.2-5.54-82.91-6.52c-13.86-0.5-27.73-0.71-41.6-0.54C637.1,227.9,623.23,228.34,609.41,229.53z"/>
</g>
<g>
	<path d="M948.84,768.1c1.61,3.94,4,7.49,6.75,10.68c0.34,0.4,0.65,0.83,1.01,1.22l1.09,1.15l2.18,2.29l2.35,2.12
		c0.8,0.69,1.53,1.45,2.39,2.06l2.51,1.92c0.85,0.62,1.63,1.34,2.53,1.88l5.28,3.48l5.54,3.06l1.39,0.76l1.44,0.66l2.88,1.32
		c3.76,1.92,7.79,3.26,11.71,4.82c0.98,0.41,1.99,0.71,3,1.02l3.03,0.93l6.06,1.88c4.11,1,8.21,2.1,12.35,3.03
		c4.16,0.83,8.33,1.61,12.49,2.49c-4.21-0.54-8.42-1.18-12.64-1.76c-4.18-0.79-8.33-1.76-12.5-2.63c-2.06-0.53-4.1-1.15-6.15-1.75
		l-3.07-0.91c-1.02-0.3-2.05-0.59-3.04-0.99c-3.98-1.53-8.06-2.84-11.89-4.75l-2.9-1.36l-1.45-0.68l-1.4-0.79l-5.58-3.16l-5.32-3.58
		c-1.76-1.21-3.36-2.65-5.03-3.98c-0.85-0.64-1.58-1.45-2.36-2.17l-2.31-2.22l-2.13-2.4l-1.06-1.2c-0.34-0.41-0.65-0.85-0.98-1.27
		C952.42,775.86,950.13,772.17,948.84,768.1z"/>
</g>
<g>
	<path d="M959.4,793.75c1.23-1.03,2.54-1.93,3.87-2.78c1.33-0.86,2.69-1.64,4.07-2.41c1.39-0.74,2.79-1.47,4.23-2.12
		c1.44-0.66,2.9-1.27,4.43-1.75c-1.23,1.03-2.54,1.93-3.87,2.78c-1.33,0.86-2.69,1.64-4.07,2.41c-1.39,0.74-2.79,1.47-4.23,2.12
		C962.39,792.66,960.93,793.27,959.4,793.75z"/>
</g>
<g>
	<path d="M965.3,801.69c0.94-1.3,1.98-2.49,3.06-3.65c1.07-1.16,2.2-2.26,3.35-3.34c1.16-1.06,2.34-2.11,3.57-3.1
		c1.23-0.99,2.49-1.94,3.86-2.79c-0.94,1.3-1.98,2.5-3.06,3.65c-1.07,1.16-2.2,2.26-3.35,3.34c-1.16,1.06-2.34,2.11-3.57,3.1
		C967.93,799.9,966.67,800.85,965.3,801.69z"/>
</g>
<g>
	<path d="M533.98,335.14c9.64-22.08,22.96-42.42,37.92-61.28c15.05-18.83,32.15-36.03,50.91-51.18l3.53-2.83l1.77-1.41l1.81-1.35
		l7.26-5.4c2.45-1.76,4.96-3.43,7.43-5.15l3.73-2.56l3.82-2.42c10.09-6.6,20.68-12.41,31.43-17.86c5.46-2.55,10.83-5.29,16.42-7.55
		l8.32-3.53l8.45-3.19l4.23-1.58c1.41-0.54,2.86-0.95,4.28-1.44l8.59-2.8l2.15-0.7c0.72-0.22,1.45-0.41,2.17-0.62l4.35-1.22
		l8.69-2.43l-8.64,2.61l-4.32,1.31c-0.72,0.22-1.44,0.43-2.16,0.66l-2.13,0.74l-8.52,2.97c-1.41,0.51-2.85,0.96-4.24,1.52
		l-4.19,1.66l-8.39,3.29l-8.25,3.62c-5.55,2.32-10.87,5.12-16.28,7.72c-10.63,5.59-21.19,11.34-31.2,17.98l-3.79,2.43l-3.7,2.56
		c-2.46,1.72-4.95,3.4-7.38,5.16l-7.21,5.4l-1.8,1.35l-1.75,1.41l-3.51,2.82c-18.76,14.99-35.77,32.13-50.96,50.74
		c-7.59,9.31-14.7,19.02-21.23,29.1C545.05,313.77,538.92,324.16,533.98,335.14z"/>
</g>
<g>
	<path d="M627.51,315.52c10.62-18.36,23.41-35.41,37.17-51.55c6.88-8.08,14.12-15.85,21.59-23.39c7.5-7.51,15.27-14.75,23.28-21.72
		c8.02-6.95,16.39-13.5,24.9-19.85c4.31-3.1,8.59-6.24,13.02-9.17c4.35-3.04,8.87-5.82,13.36-8.66c9.08-5.49,18.28-10.8,27.78-15.52
		c9.45-4.83,19.2-9.02,28.99-13.07c-9.7,4.27-19.34,8.68-28.65,13.72c-9.41,4.85-18.53,10.25-27.5,15.85
		c-8.91,5.71-17.68,11.64-26.17,17.95c-8.45,6.36-16.76,12.92-24.73,19.88c-8,6.92-15.78,14.1-23.29,21.55
		c-7.5,7.46-14.69,15.23-21.69,23.17c-6.98,7.96-13.68,16.16-20.05,24.62C639.13,297.8,632.97,306.44,627.51,315.52z"/>
</g>
<g>
	<path d="M1214.35,552.37c3.67-13.74,5.47-27.9,6.47-42.06c0.95-14.17,0.79-28.4-0.37-42.54c-1.19-14.14-3.35-28.2-6.57-42.01
		l-1.25-5.17c-0.42-1.72-0.82-3.45-1.34-5.15l-2.95-10.22l-3.41-10.08c-0.29-0.84-0.55-1.68-0.87-2.51l-0.97-2.48l-1.94-4.95
		c-5.24-13.17-11.27-26.06-18.45-38.3l-2.62-4.63c-0.9-1.53-1.89-3-2.82-4.51l-5.7-8.98l-6.14-8.69l-3.06-4.35l-3.27-4.2l-6.56-8.38
		c-2.26-2.74-4.63-5.38-6.94-8.07l-3.49-4.02c-0.59-0.66-1.15-1.35-1.76-2l-1.84-1.92l-7.37-7.69c-1.24-1.27-2.41-2.61-3.71-3.82
		l-3.86-3.67l-7.73-7.34c-1.26-1.25-2.64-2.37-3.98-3.54l-4.04-3.48l-8.08-6.96l8.17,6.85l4.09,3.42c1.36,1.15,2.75,2.25,4.03,3.49
		l7.83,7.24l3.92,3.62c1.32,1.2,2.51,2.52,3.77,3.77l7.45,7.64l1.86,1.91c0.62,0.64,1.18,1.33,1.78,1.99l3.53,4
		c2.34,2.68,4.74,5.31,7.02,8.04l6.64,8.35l3.31,4.18l3.11,4.34l6.19,8.7l5.75,9c0.95,1.51,1.94,2.98,2.85,4.52l2.64,4.64
		c7.24,12.27,13.32,25.19,18.62,38.41l1.93,4.98l0.97,2.49c0.31,0.83,0.57,1.69,0.86,2.53l3.4,10.13l2.94,10.27
		c0.52,1.7,0.92,3.44,1.33,5.17l1.24,5.19c3.18,13.88,5.37,27.99,6.43,42.19c1.06,14.19,1.11,28.47,0.04,42.66
		C1220.2,524.53,1218.21,538.68,1214.35,552.37z"/>
</g>
<g>
	<path d="M1203.79,544.83c2.29-9.68,3.66-19.54,4.61-29.42c0.98-9.88,1.42-19.82,1.35-29.74c-0.07-19.85-2.24-39.69-6.43-59.08
		c-2.11-9.7-4.81-19.25-7.93-28.67c-1.69-4.66-3.29-9.36-5.24-13.92c-1.79-4.63-3.93-9.11-5.97-13.63c-4.36-8.91-9-17.7-14.41-26.04
		l-1.98-3.16l-0.99-1.58l-1.06-1.53l-4.25-6.12c-1.38-2.07-2.93-4.01-4.44-5.98l-4.54-5.91l4.66,5.82c1.55,1.95,3.14,3.86,4.56,5.9
		l4.37,6.05l1.09,1.51l1.02,1.56l2.04,3.12c5.52,8.29,10.27,17.06,14.75,25.95l3.17,6.77c1.1,2.24,1.96,4.58,2.93,6.87
		c1.98,4.57,3.6,9.29,5.32,13.96c3.17,9.44,5.92,19.03,8.07,28.76c4.11,19.49,6.3,39.41,6.18,59.33c-0.04,9.96-0.58,19.91-1.68,29.8
		C1207.83,525.35,1206.27,535.2,1203.79,544.83z"/>
</g>
<g>
	<path d="M543.03,333.63c2-4.04,4.17-8,6.33-11.96c2.2-3.94,4.45-7.85,6.75-11.73c4.6-7.77,9.47-15.37,14.54-22.84
		c5.16-7.41,10.44-14.75,16.28-21.66c5.83-6.89,11.97-13.6,19.07-19.2c-1.62,1.58-3.24,3.14-4.87,4.68c-1.58,1.6-3.07,3.3-4.6,4.94
		c-1.57,1.61-2.96,3.39-4.43,5.09l-2.18,2.57l-2.08,2.65l-2.08,2.66c-0.7,0.88-1.41,1.75-2.07,2.66l-4.04,5.41
		c-1.34,1.81-2.61,3.67-3.92,5.5l-1.94,2.76l-1.89,2.8c-2.58,3.69-5.06,7.45-7.54,11.2l-7.26,11.39c-2.41,3.8-4.77,7.64-7.1,11.5
		C547.62,325.87,545.33,329.75,543.03,333.63z"/>
</g>
<g>
	<path d="M1074.81,297.42c-1.45-3.75-2.89-7.51-4.38-11.25c-1.46-3.75-2.94-7.49-4.45-11.21c-3.01-7.46-6.06-14.9-9.32-22.24
		c-1.57-3.7-3.24-7.35-4.9-11.01c-1.72-3.63-3.43-7.26-5.25-10.84c-1.75-3.61-3.7-7.13-5.65-10.64l-3.06-5.19l-3.35-5.01
		c5.08,6.27,9.08,13.32,12.89,20.41c3.79,7.11,7.18,14.43,10.43,21.8c3.17,7.4,6.25,14.85,9.07,22.39
		C1069.67,282.16,1072.39,289.74,1074.81,297.42z"/>
</g>
<g>
	<path d="M1166.83,380.39c-1.45-3.75-2.89-7.51-4.38-11.25c-1.46-3.75-2.94-7.49-4.45-11.21c-3.01-7.46-6.06-14.9-9.32-22.24
		c-1.57-3.7-3.24-7.35-4.9-11.01c-1.72-3.63-3.43-7.26-5.25-10.84c-1.75-3.61-3.7-7.13-5.65-10.64l-3.06-5.19l-3.35-5.01
		c5.08,6.27,9.08,13.32,12.89,20.41c3.79,7.11,7.18,14.43,10.43,21.8c3.17,7.4,6.25,14.85,9.07,22.39
		C1161.69,365.14,1164.41,372.72,1166.83,380.39z"/>
</g>
<g>
	<path d="M1117.05,484.49c0.22-5.86,0.41-11.71,0.53-17.57c0.15-5.86,0.26-11.72,0.3-17.57c0.1-11.71,0.08-23.43-0.35-35.13
		c-0.34-11.7-1.04-23.4-2.44-35.02c-0.71-5.8-1.61-11.59-2.96-17.28c-1.35-5.66-3.09-11.35-6.39-16.22
		c0.81,1.22,1.74,2.37,2.37,3.71c0.34,0.65,0.7,1.3,1.01,1.96l0.85,2.03c1.12,2.72,1.98,5.54,2.74,8.37
		c1.48,5.69,2.48,11.49,3.31,17.3c0.85,5.81,1.34,11.67,1.79,17.52c0.44,5.85,0.72,11.71,0.93,17.58
		c0.33,11.73,0.36,23.46,0.07,35.19C1118.5,461.08,1117.98,472.8,1117.05,484.49z"/>
</g>
<g>
	<path d="M1125.35,504.1c0.95-7.28,1.61-14.6,2.16-21.92c0.57-7.32,0.99-14.65,1.26-21.98c0.52-14.67,0.56-29.36-0.3-44
		c-0.76-14.65-2.38-29.26-5.17-43.65c-2.8-14.38-6.87-28.57-13.04-41.93c3.27,6.58,6,13.42,8.34,20.4
		c2.31,6.99,4.06,14.15,5.61,21.34c2.99,14.42,4.61,29.09,5.46,43.77c0.41,7.35,0.55,14.7,0.56,22.06
		c-0.01,7.35-0.14,14.71-0.54,22.05c-0.38,7.34-0.9,14.68-1.6,21.99C1127.34,489.54,1126.49,496.84,1125.35,504.1z"/>
</g>
<g>
	<path d="M1030.3,463.37c2.22-11.56,3.51-23.28,4.32-35c0.77-11.73,1.14-23.49,0.72-35.24c-0.01-2.94-0.18-5.87-0.33-8.81l-0.22-4.4
		l-0.11-2.2l-0.18-2.2l-0.76-8.78l-0.2-2.2l-0.27-2.19l-0.52-4.38c-1.29-11.69-3.53-23.25-5.85-34.79l2.03,8.6
		c0.66,2.87,1.39,5.73,1.87,8.64l1.58,8.7l0.39,2.18l0.3,2.19l0.61,4.38c1.7,11.67,2.48,23.46,2.88,35.24
		c0.04,2.95,0.11,5.9,0.12,8.84l-0.14,8.84c-0.21,5.89-0.44,11.79-0.98,17.66c-0.48,5.88-1.17,11.73-1.97,17.57
		C1032.66,451.83,1031.71,457.64,1030.3,463.37z"/>
</g>
<g>
	<path d="M1037.85,470.91c2.18-11.57,3.47-23.28,4.29-35.01l0.27-4.4c0.1-1.47,0.2-2.93,0.24-4.4c0.11-2.94,0.25-5.87,0.33-8.81
		l0.09-8.82c0.02-2.94-0.11-5.88-0.15-8.81c-0.03-1.47-0.03-2.94-0.08-4.41l-0.22-4.4c-0.17-2.93-0.24-5.87-0.49-8.8l-0.76-8.78
		c-0.12-1.46-0.25-2.93-0.45-4.38l-0.53-4.38c-1.27-11.7-3.55-23.25-5.92-34.78l2.06,8.59c0.68,2.87,1.39,5.73,1.89,8.63l1.6,8.7
		c0.29,1.45,0.48,2.91,0.68,4.37l0.61,4.38c0.93,5.83,1.35,11.71,1.92,17.58c0.27,2.94,0.36,5.88,0.55,8.83l0.25,4.42
		c0.06,1.47,0.07,2.95,0.11,4.42c0.29,11.79-0.05,23.6-1.05,35.34c-0.49,5.87-1.18,11.73-1.97,17.57
		C1040.17,459.36,1039.22,465.18,1037.85,470.91z"/>
</g>
<g>
	<path d="M711.99,363.8c4.2-13.27,9.31-26.24,14.85-39.01c5.55-12.78,11.73-25.27,18.41-37.5c6.8-12.16,14.13-24.04,22.31-35.33
		c4.11-5.63,8.44-11.1,12.94-16.41c4.6-5.23,9.38-10.31,14.46-15.07c-4.84,5-9.49,10.16-13.89,15.54
		c-4.38,5.39-8.58,10.92-12.57,16.61c-3.93,5.72-7.82,11.47-11.46,17.39c-3.63,5.91-7.14,11.91-10.48,18
		c-3.37,6.07-6.61,12.21-9.72,18.42c-3.11,6.21-6.04,12.51-8.95,18.82c-2.89,6.32-5.65,12.7-8.3,19.12
		C716.91,350.79,714.38,357.27,711.99,363.8z"/>
</g>
<g>
	<path d="M648.63,344.19c3.89-6.95,8.01-13.77,12.16-20.58c4.19-6.77,8.49-13.49,12.86-20.15c4.35-6.68,8.9-13.22,13.5-19.74
		c4.6-6.51,9.31-12.94,14.15-19.28c4.86-6.32,9.87-12.53,15.04-18.6c5.17-6.08,10.47-12.05,16.11-17.69
		c5.62-5.66,11.45-11.14,17.7-16.11c6.29-4.89,12.95-9.44,20.29-12.57c-7.19,3.44-13.72,8.08-19.83,13.15
		c-6.12,5.06-11.83,10.61-17.33,16.34c-2.77,2.85-5.41,5.82-8.1,8.74c-2.62,2.99-5.26,5.96-7.8,9.02
		c-5.12,6.08-10.08,12.3-14.89,18.63c-9.75,12.57-18.91,25.59-27.89,38.74c-4.48,6.58-8.88,13.21-13.2,19.9
		C657.05,330.67,652.81,337.41,648.63,344.19z"/>
</g>
<g>
	<path d="M1065,470.91c0.79-5.68,1.34-11.38,1.81-17.09c0.47-5.71,0.81-11.43,1.06-17.15c0.53-11.44,0.69-22.9,0.44-34.35
		c-0.5-22.89-2.45-45.78-6.3-68.35c-0.87-5.66-2.01-11.27-3.1-16.89c-1.26-5.58-2.4-11.19-3.89-16.72c-1.34-5.57-3-11.05-4.59-16.55
		c-0.84-2.73-1.77-5.44-2.65-8.17l-1.34-4.08l-1.48-4.03c-7.76-21.54-17.98-42.2-30.5-61.39l4.67,7.21
		c0.77,1.21,1.58,2.39,2.32,3.62l2.16,3.71c1.43,2.49,2.92,4.93,4.29,7.45l3.99,7.62c5.1,10.27,9.77,20.77,13.64,31.57l1.5,4.03
		l1.37,4.08c0.89,2.72,1.83,5.44,2.69,8.17c1.61,5.5,3.3,10.99,4.67,16.56c1.52,5.53,2.69,11.15,3.98,16.74
		c1.11,5.63,2.28,11.24,3.18,16.91c3.75,22.64,5.6,45.56,6,68.49C1069.28,425.23,1068.26,448.22,1065,470.91z"/>
</g>
<g>
	<path d="M942.81,285.35c-1.2,5.29-2.5,10.55-3.75,15.82l-3.9,15.78c-2.62,10.52-5.36,21-8.04,31.5
		c-2.79,10.47-5.52,20.96-8.38,31.41l-4.31,15.68c-1.49,5.21-2.93,10.44-4.46,15.63c1.2-5.29,2.5-10.55,3.75-15.82l3.9-15.78
		c2.62-10.52,5.36-21,8.04-31.5c2.8-10.47,5.52-20.96,8.38-31.41l4.31-15.68C939.83,295.78,941.27,290.55,942.81,285.35z"/>
</g>
<g>
	<path d="M957.89,244.62c-1.2,5.29-2.5,10.55-3.75,15.82l-3.9,15.78c-2.62,10.52-5.36,21-8.04,31.5
		c-2.79,10.47-5.52,20.96-8.38,31.41l-4.31,15.68c-1.49,5.21-2.93,10.44-4.46,15.63c1.2-5.29,2.5-10.55,3.75-15.82l3.9-15.78
		c2.62-10.52,5.36-21,8.04-31.5c2.8-10.47,5.52-20.96,8.38-31.41l4.31-15.68C954.92,255.04,956.36,249.82,957.89,244.62z"/>
</g>
<g>
	<path d="M461.56,451.3c-14.7,3.09-29.75,4-44.71,4.76l-5.62,0.26l-5.62,0.13c-3.75,0.08-7.5,0.19-11.25,0.18l-11.25,0.05
		l-11.25-0.12c-3.75-0.04-7.5-0.17-11.25-0.29l-11.24-0.36c-7.49-0.37-14.99-0.64-22.47-1.11c-7.48-0.52-14.97-0.98-22.44-1.54
		c-7.47-0.66-14.94-1.27-22.41-1.97c7.49,0.36,14.97,0.82,22.45,1.23l22.45,1.12l22.46,0.9l11.23,0.29c3.74,0.1,7.49,0.2,11.23,0.22
		c14.98,0.37,29.96,0.24,44.93-0.16l5.61-0.16l5.61-0.26c3.74-0.15,7.48-0.42,11.21-0.67C446.71,453.26,454.19,452.63,461.56,451.3z
		"/>
</g>
<g>
	<path d="M1092.16,654.96c0.27,3.5,0.85,6.95,1.58,10.36c0.39,1.7,0.73,3.41,1.21,5.09l0.68,2.53c0.24,0.84,0.52,1.66,0.78,2.49
		c2.13,6.63,4.73,13.11,7.89,19.32c0.77,1.56,1.65,3.06,2.47,4.6l1.25,2.29l1.38,2.22l2.75,4.44c1.01,1.42,2.01,2.85,3,4.29
		l1.49,2.15c0.51,0.71,1.07,1.37,1.61,2.06l3.25,4.11c2.18,2.73,4.6,5.26,6.85,7.96c-1.26-1.22-2.5-2.45-3.74-3.7l-1.86-1.86
		l-0.93-0.93c-0.3-0.32-0.58-0.66-0.88-0.98l-3.43-4c-0.57-0.67-1.16-1.32-1.7-2.02l-1.59-2.11c-1.06-1.4-2.12-2.81-3.16-4.23
		l-2.87-4.43l-1.42-2.23l-1.28-2.31c-0.84-1.55-1.75-3.06-2.53-4.64c-3.17-6.3-5.77-12.89-7.65-19.68
		c-0.23-0.85-0.48-1.69-0.69-2.55l-0.59-2.58c-0.42-1.71-0.7-3.45-1.01-5.18C1092.52,661.97,1092.09,658.47,1092.16,654.96z"/>
</g>
<g>
	<path d="M1105.73,656.47c0.52,5.12,1.79,10.12,3.47,14.95c1.57,4.87,3.71,9.52,5.95,14.1c4.62,9.11,10.44,17.56,16.89,25.46
		l4.92,5.87l5.3,5.54l2.63,2.79l2.81,2.61l5.61,5.24c0.91,0.9,1.92,1.7,2.9,2.51l2.96,2.46l5.9,4.95c4.09,3.11,8.23,6.14,12.3,9.32
		c-4.37-2.72-8.67-5.57-13.01-8.37l-6.18-4.66l-3.08-2.35c-1.02-0.79-2.07-1.55-3.02-2.43l-5.83-5.12l-2.9-2.58l-2.73-2.76
		l-5.42-5.57l-5.04-5.92c-0.82-1.01-1.7-1.96-2.46-3.01l-2.29-3.15c-1.49-2.12-3.13-4.14-4.43-6.4l-2.04-3.32
		c-0.67-1.11-1.4-2.19-1.97-3.36c-1.19-2.31-2.46-4.57-3.53-6.94c-2.12-4.73-4.06-9.56-5.38-14.58
		C1106.76,666.76,1105.71,661.63,1105.73,656.47z"/>
</g>
<g>
	<path d="M296.37,435.46c-4.2-0.05-8.41,0.13-12.55,0.78c-2.06,0.35-4.13,0.77-6.05,1.59c-0.96,0.39-1.87,0.93-2.59,1.64
		c-0.73,0.71-1.12,1.7-0.98,2.69c0.35,2,1.84,3.64,3.34,5.03c1.54,1.39,3.19,2.68,4.94,3.83c3.46,2.34,7.13,4.39,10.83,6.35
		c14.88,7.73,30.47,14.05,46.1,20.16c31.31,12.12,63.1,23.01,94.99,33.52c31.87,10.6,63.92,20.68,95.99,30.66
		c16.03,5,32.09,9.93,48.16,14.83l48.2,14.7l-48.43-13.93c-16.12-4.74-32.22-9.53-48.3-14.39c-16.09-4.83-32.13-9.84-48.15-14.88
		c-16.02-5.05-32.03-10.17-47.98-15.43c-15.94-5.3-31.85-10.71-47.69-16.32c-15.84-5.61-31.63-11.36-47.24-17.6
		c-7.81-3.11-15.58-6.31-23.28-9.7c-7.69-3.39-15.32-6.94-22.74-10.93c-3.69-2.03-7.34-4.14-10.8-6.56
		c-1.74-1.19-3.39-2.52-4.94-3.96l-1.11-1.14c-0.33-0.42-0.68-0.82-1-1.25c-0.57-0.9-1.17-1.84-1.28-2.96
		c-0.14-1.11,0.34-2.24,1.13-2.98c0.78-0.75,1.73-1.29,2.72-1.67c1.97-0.8,4.06-1.19,6.13-1.51
		C287.96,435.46,292.18,435.34,296.37,435.46z"/>
</g>
<g>
	<path d="M783.65,608.95c22.54,7.38,45.12,14.67,67.7,21.9c22.57,7.28,45.16,14.51,67.78,21.67
		c45.22,14.34,90.47,28.57,135.87,42.31c45.37,13.84,90.86,27.29,136.62,39.76c22.89,6.2,45.84,12.18,69.02,17.18
		c5.79,1.25,11.6,2.43,17.44,3.47c5.83,1.03,11.69,1.95,17.59,2.46c2.95,0.25,5.91,0.4,8.86,0.23c1.47-0.1,2.95-0.27,4.34-0.72
		c0.69-0.23,1.37-0.54,1.9-1.03c0.54-0.47,0.84-1.18,0.79-1.9c-0.11-1.46-1.03-2.73-1.93-3.87c-0.94-1.14-1.99-2.19-3.09-3.18
		c-2.2-1.99-4.56-3.79-6.95-5.54c2.42,1.72,4.8,3.49,7.02,5.46c1.11,0.98,2.18,2.02,3.13,3.16c0.92,1.14,1.87,2.4,2.01,3.95
		c0.07,0.76-0.26,1.57-0.83,2.07c-0.56,0.53-1.26,0.86-1.97,1.1c-1.43,0.47-2.92,0.66-4.4,0.78c-2.97,0.21-5.95,0.08-8.91-0.13
		c-5.93-0.45-11.81-1.3-17.66-2.27c-5.86-0.97-11.68-2.09-17.5-3.27c-23.24-4.84-46.24-10.69-69.18-16.75
		c-22.94-6.06-45.76-12.56-68.55-19.15c-22.78-6.61-45.52-13.38-68.22-20.26c-45.37-13.88-90.64-28.09-135.78-42.68
		c-22.57-7.31-45.12-14.67-67.64-22.11C828.6,624.12,806.11,616.58,783.65,608.95z"/>
</g>
<g>
	<path d="M717.27,598.39l147.9,48.24c24.63,8.08,49.31,16.05,74,23.94c12.35,3.95,24.71,7.86,37.1,11.65
		c6.19,1.91,12.39,3.81,18.62,5.61c6.23,1.79,12.46,3.6,18.82,4.86c-6.39-1.13-12.66-2.83-18.92-4.5
		c-6.26-1.68-12.5-3.46-18.73-5.25c-12.44-3.65-24.85-7.43-37.24-11.25c-24.77-7.66-49.45-15.64-74.12-23.61
		c-24.63-8.1-49.26-16.2-73.84-24.48l-36.84-12.48L717.27,598.39z"/>
</g>
<g>
	<path d="M607.14,489.77c-3.69,2.55-7.52,4.89-11.35,7.22c-3.86,2.28-7.78,4.47-11.73,6.6c-3.94,2.15-7.98,4.11-12.03,6.04
		c-4.06,1.92-8.15,3.77-12.3,5.48c-8.33,3.36-16.82,6.38-25.53,8.61c-4.36,1.08-8.76,2.05-13.2,2.71
		c-4.45,0.61-8.93,1.05-13.42,1.06c8.94-0.68,17.73-2.45,26.32-4.89c8.59-2.44,17.02-5.43,25.26-8.88
		c8.29-3.34,16.38-7.16,24.38-11.16c4-2,7.97-4.07,11.9-6.21C599.38,494.24,603.28,492.03,607.14,489.77z"/>
</g>
<g>
	<path d="M424.6,444.51c-3.95-0.21-7.91-0.25-11.86-0.05c-1.97,0.1-3.94,0.27-5.89,0.56c-1.94,0.3-3.9,0.7-5.66,1.52
		c-0.85,0.43-1.71,0.98-2.1,1.81c-0.42,0.82-0.16,1.8,0.3,2.61c0.99,1.64,2.54,2.92,4.08,4.1c3.16,2.34,6.62,4.26,10.11,6.09
		c7,3.64,14.25,6.82,21.54,9.86c7.3,3.03,14.67,5.89,22.08,8.67c29.64,11.06,59.67,21.06,89.81,30.7
		c30.11,9.74,60.37,19.02,90.64,28.24c15.14,4.62,30.29,9.17,45.45,13.7l45.48,13.62l-45.71-12.85
		c-15.21-4.37-30.41-8.79-45.59-13.27c-30.36-8.97-60.62-18.27-90.78-27.89c-15.06-4.87-30.09-9.84-45.07-14.97
		c-14.97-5.15-29.91-10.41-44.68-16.12c-7.39-2.85-14.74-5.78-22.03-8.89c-7.28-3.12-14.52-6.37-21.51-10.11
		c-3.48-1.9-6.93-3.89-10.1-6.32c-1.55-1.24-3.12-2.55-4.16-4.34c-0.24-0.46-0.44-0.94-0.52-1.48c-0.08-0.53,0-1.1,0.25-1.58
		c0.5-0.98,1.44-1.53,2.34-1.97c1.85-0.82,3.83-1.18,5.79-1.46c1.97-0.26,3.95-0.39,5.93-0.46
		C416.7,444.13,420.66,444.23,424.6,444.51z"/>
</g>
<g>
	<path d="M868.13,580.28c-0.52,3.13-1.07,6.25-1.54,9.38c-0.51,3.12-1,6.25-1.44,9.38c-0.87,6.26-1.72,12.53-2.32,18.82
		c-0.33,3.14-0.58,6.29-0.76,9.44c-0.22,3.15-0.3,6.3-0.33,9.45c-0.01,3.15,0.08,6.31,0.43,9.43c0.31,3.13,0.88,6.25,1.94,9.24
		c-1.38-2.87-2.11-6.01-2.67-9.14c-0.51-3.15-0.73-6.33-0.86-9.51c-0.24-6.37,0.15-12.73,0.75-19.05
		c0.64-6.32,1.53-12.61,2.68-18.85c0.58-3.12,1.19-6.23,1.86-9.33C866.58,586.43,867.28,583.34,868.13,580.28z"/>
</g>
<g>
	<path d="M874.16,578.77c-0.52,3.13-1.07,6.25-1.54,9.38c-0.51,3.12-1,6.25-1.44,9.38c-0.87,6.26-1.72,12.53-2.32,18.82
		c-0.33,3.14-0.58,6.29-0.76,9.44c-0.22,3.15-0.3,6.3-0.33,9.45c-0.01,3.15,0.07,6.31,0.43,9.43c0.31,3.13,0.88,6.25,1.94,9.24
		c-1.38-2.87-2.11-6.01-2.67-9.14c-0.51-3.15-0.73-6.33-0.86-9.51c-0.24-6.37,0.15-12.73,0.75-19.05
		c0.64-6.32,1.53-12.61,2.68-18.85c0.58-3.12,1.19-6.23,1.86-9.33C872.62,584.93,873.31,581.83,874.16,578.77z"/>
</g>
<g>
	<path d="M1208.32,683.62c4.53,4.85,9.17,9.59,13.97,14.16c2.36,2.33,4.81,4.56,7.21,6.84c2.44,2.25,4.92,4.44,7.37,6.67
		c9.93,8.78,20.2,17.16,30.88,24.98c10.56,7.99,21.75,15.12,33.16,21.83l8.66,4.87c2.92,1.57,5.92,2.97,8.87,4.46l4.44,2.24
		c1.5,0.71,3.03,1.33,4.55,2l9.12,3.97c-12.43-4.62-24.65-9.96-36.21-16.54c-11.58-6.52-22.81-13.69-33.48-21.62
		c-10.65-7.95-20.97-16.35-30.76-25.34C1226.33,703.15,1216.92,693.74,1208.32,683.62z"/>
</g>
<g>
	<path d="M942.81,651.94l71.09,21.81c23.7,7.26,47.38,14.59,71.11,21.74c23.7,7.24,47.44,14.37,71.22,21.35
		c11.89,3.47,23.79,6.95,35.73,10.24c11.92,3.39,23.9,6.56,35.98,9.34c-24.27-5.08-48.17-11.78-72.03-18.46
		c-11.93-3.37-23.82-6.86-35.71-10.38c-11.89-3.49-23.76-7.08-35.63-10.65c-23.7-7.27-47.39-14.58-71.01-22.07l-35.41-11.33
		L942.81,651.94z"/>
</g>
<path d="M484.95,614.98c-1.51,1.51-16.59,55.82-37.71,63.36c0,0,33.19-3.02,48.28-18.1S484.95,614.98,484.95,614.98z"/>
<path d="M590.6,812.55c-2,0.75-38.24,43.92-60.58,42.03c0,0,31.45,11.01,51.44,3.53C601.44,850.64,590.6,812.55,590.6,812.55z"/>
<linearGradient id="SVGID_8_" gradientUnits="userSpaceOnUse" x1="241.2337" y1="1278.1676" x2="987.3093" y2="1278.1676">
	<stop  offset="0" style="stop-color:#330D0A"/>
	<stop  offset="1" style="stop-color:#D50D0A"/>
</linearGradient>
<path class="st7" d="M987.31,1399.45c0,0-232.37-283.52-629.5-295.33c-13.84-0.41-27.6,2.61-39.94,8.9
	c-34.01,17.34-95.53,59.12-71.02,125.77c0,0-31.95,9.8,58.57,59.59c0,0-61.1-74.68,136.53-67.13c0,0,188.57,15.09,256.46,161.42
	l29.42,59.59H863.6l123.7-36.21V1399.45z"/>
<g>
	<path d="M285.06,1271.97c0.3-2.9,0.83-5.78,1.44-8.63c0.62-2.85,1.35-5.68,2.2-8.47c1.66-5.6,3.78-11.06,6.25-16.35
		c4.96-10.58,11.57-20.42,19.71-28.84c4.07-4.21,8.51-8.05,13.24-11.51c4.72-3.48,9.81-6.42,15.04-9.05
		c5.22-2.67,10.74-4.7,16.29-6.54c2.81-0.82,5.6-1.71,8.47-2.33c1.43-0.33,2.84-0.71,4.28-0.99l4.32-0.81l2.16-0.4l2.18-0.3
		l4.35-0.59c2.91-0.33,5.83-0.54,8.75-0.8c2.92-0.11,5.85-0.27,8.78-0.32c2.93,0.03,5.85-0.01,8.78,0.09
		c11.7,0.36,23.36,1.67,34.87,3.72c11.51,2.05,22.92,4.65,34.18,7.82c11.23,3.23,22.39,6.72,33.35,10.79
		c21.96,8,43.39,17.38,64.36,27.64c20.97,10.28,41.57,21.3,61.74,33.07c20.18,11.74,40.02,24.05,59.61,36.74
		c19.55,12.75,38.77,26,57.85,39.43c-38.41-26.51-77.59-51.92-118.04-75.16c-20.23-11.6-40.79-22.65-61.76-32.84
		c-20.96-10.21-42.37-19.52-64.28-27.46c-10.92-4.07-22.04-7.58-33.22-10.82c-11.21-3.18-22.57-5.79-34.02-7.85
		c-11.46-2.06-23.05-3.39-34.68-3.76c-11.62-0.38-23.29,0.16-34.75,2.15l-4.29,0.77c-1.43,0.27-2.83,0.64-4.25,0.96
		c-2.85,0.6-5.62,1.47-8.41,2.26c-5.52,1.79-11,3.77-16.19,6.39c-5.2,2.58-10.27,5.46-14.96,8.89c-4.71,3.4-9.13,7.19-13.21,11.34
		c-8.17,8.27-14.85,18-19.9,28.49c-2.52,5.25-4.7,10.67-6.41,16.25c-0.88,2.78-1.63,5.6-2.28,8.44
		C285.95,1266.21,285.39,1269.08,285.06,1271.97z"/>
</g>
<g>
	<path d="M283.55,1232.75c2.06-6.66,5.36-12.87,9.12-18.73c1.91-2.91,3.99-5.71,6.18-8.43c2.25-2.66,4.54-5.3,7.04-7.73
		c9.88-9.87,21.75-17.65,34.51-23.31c6.39-2.83,13-5.12,19.71-7.03c6.73-1.89,13.59-3.23,20.48-4.35
		c13.82-2.01,27.82-2.61,41.76-2.15c13.95,0.46,27.85,1.98,41.6,4.27c13.76,2.28,27.39,5.3,40.88,8.79
		c13.49,3.51,26.81,7.66,40.04,12.03l9.87,3.45l4.93,1.73l4.89,1.83l9.79,3.66l9.71,3.85c25.86,10.39,51.22,21.98,76.15,34.42
		c24.92,12.45,49.46,25.67,73.58,39.59c24.13,13.9,47.93,28.37,71.47,43.25c23.48,14.97,46.65,30.42,69.65,46.1
		c-46.31-30.92-93.42-60.64-141.81-88.15c-48.38-27.47-98.04-52.9-149.71-73.55l-9.69-3.86l-9.76-3.67l-4.88-1.84l-4.92-1.74
		l-9.84-3.46c-13.19-4.39-26.46-8.55-39.91-12.08c-26.88-7-54.35-12.14-82.12-13.26c-13.87-0.54-27.8-0.02-41.55,1.9
		c-6.85,1.08-13.68,2.37-20.37,4.2c-6.69,1.85-13.26,4.11-19.63,6.86c-12.73,5.49-24.62,13.1-34.55,22.82
		c-2.52,2.39-4.83,4.99-7.1,7.62c-2.2,2.68-4.31,5.46-6.25,8.34C289.04,1219.94,285.68,1226.12,283.55,1232.75z"/>
</g>
<path class="st8" d="M750.74,1467.44c-96.71,0-190.53-18.94-278.86-56.3c-85.31-36.08-161.92-87.74-227.71-153.52
	c-65.79-65.79-117.44-142.4-153.52-227.71c-37.36-88.33-56.3-182.15-56.3-278.86s18.94-190.53,56.3-278.86
	c36.08-85.31,87.74-161.92,153.52-227.71s142.4-117.44,227.71-153.52c88.33-37.36,182.15-56.3,278.86-56.3s190.53,18.94,278.86,56.3
	c85.31,36.08,161.92,87.74,227.71,153.52s117.44,142.4,153.52,227.71c37.36,88.33,56.3,182.15,56.3,278.86
	s-18.94,190.53-56.3,278.86c-36.08,85.31-87.74,161.92-153.52,227.71c-65.79,65.79-142.4,117.44-227.71,153.52
	C941.27,1448.49,847.45,1467.44,750.74,1467.44z M750.74,59.62c-93.35,0-183.9,18.28-269.13,54.33
	c-82.33,34.82-156.28,84.68-219.78,148.18S148.48,399.58,113.65,481.91C77.6,567.14,59.32,657.69,59.32,751.04
	s18.28,183.9,54.33,269.13c34.82,82.33,84.68,156.28,148.18,219.78c63.5,63.5,137.45,113.36,219.78,148.18
	c85.23,36.05,175.78,54.33,269.13,54.33s183.9-18.28,269.13-54.33c82.33-34.82,156.28-84.68,219.78-148.18
	c63.5-63.5,113.36-137.45,148.18-219.78c36.05-85.23,54.33-175.78,54.33-269.13s-18.28-183.9-54.33-269.13
	c-34.82-82.33-84.68-156.28-148.18-219.78c-63.5-63.5-137.45-113.36-219.78-148.18C934.64,77.9,844.09,59.62,750.74,59.62z"/>
<g>
	<path d="M792.7,1298.37c6.25,3.93,12.41,7.99,18.59,12.02c6.15,4.08,12.28,8.19,18.4,12.32c12.23,8.27,24.3,16.77,36.32,25.34
		c11.96,8.66,23.85,17.41,35.47,26.52c11.6,9.13,23.12,18.41,33.77,28.64l-8.4-7.2l-8.6-6.96c-5.78-4.58-11.57-9.15-17.48-13.56
		c-5.87-4.46-11.8-8.85-17.72-13.25c-5.96-4.34-11.91-8.7-17.93-12.97c-11.94-8.66-24.02-17.14-36.1-25.61l-18.16-12.66
		L792.7,1298.37z"/>
</g>
<g>
	<path d="M280.53,1208.61c5.46-11.8,13.3-22.46,22.48-31.71c9.21-9.25,20.16-16.79,32.12-22.09c1.51-0.62,3-1.31,4.54-1.86
		l4.63-1.63c1.55-0.51,3.14-0.91,4.71-1.37c0.79-0.21,1.57-0.47,2.36-0.64l2.4-0.52l2.4-0.52c0.8-0.18,1.6-0.35,2.41-0.45l4.85-0.72
		c1.61-0.25,3.25-0.31,4.87-0.47c1.63-0.12,3.25-0.29,4.89-0.26l4.89-0.06c1.63-0.02,3.26,0.14,4.89,0.2l2.44,0.12l1.22,0.06
		l1.21,0.14l4.85,0.55c0.81,0.11,1.62,0.17,2.42,0.32l2.4,0.44l4.8,0.87c3.18,0.67,6.32,1.51,9.48,2.28l-4.78-0.95
		c-1.59-0.31-3.17-0.7-4.77-0.94l-4.81-0.7l-2.4-0.35c-0.8-0.12-1.61-0.15-2.42-0.23l-4.84-0.44l-1.21-0.11l-1.21-0.04l-2.43-0.07
		c-1.62-0.03-3.23-0.14-4.85-0.09l-4.84,0.17c-1.62,0.01-3.22,0.21-4.83,0.36c-1.6,0.18-3.22,0.24-4.81,0.5l-4.78,0.75
		c-0.8,0.11-1.59,0.27-2.37,0.46l-2.36,0.53l-2.36,0.53c-0.79,0.18-1.55,0.44-2.33,0.65c-1.54,0.46-3.11,0.87-4.63,1.38l-4.55,1.63
		c-1.51,0.55-2.97,1.25-4.46,1.86c-5.91,2.57-11.58,5.69-16.92,9.31c-5.36,3.6-10.31,7.77-14.99,12.22
		c-4.67,4.46-8.94,9.35-12.85,14.51C287.04,1197.38,283.5,1202.84,280.53,1208.61z"/>
</g>
<polygon points="671.95,610.03 688,583.94 678.97,613.04 756.23,648.16 761.24,626.08 763.25,645.15 771.28,632.1 772.28,650.17 
	1073.29,755.52 1099.38,749.5 1091.35,716.39 1106.4,750.5 1152.56,761.54 1147.54,741.47 1158.58,763.55 1167.61,763.55 
	1164.6,749.5 1174.63,765.55 1163.59,774.58 1109.41,761.54 1069.28,770.57 670.94,633.11 464.25,552.84 485.32,534.78 
	478.3,548.83 611.74,593.98 631.81,574.91 627.79,583.41 622.78,593.98 632.81,588.96 630.81,602 "/>
</svg>
