<svg width="20" height="20" viewBox="0 0 20 20" fill="none" xmlns="http://www.w3.org/2000/svg">
<g clip-path="url(#clip0_4653_58877)">
<path d="M20 0H0V20H20V0Z" fill="#FD0102"/>
<path d="M10.464 5.20715C10.7036 4.42763 10.2499 3.23587 9.86719 2.0863C12.7625 3.17145 14.3501 5.02419 14.3094 7.83281C13.1833 6.54666 11.9376 5.57623 10.464 5.20716L10.464 5.20715Z" fill="#F9EC71"/>
<path d="M9.46347 5.20715L10.823 5.25197L11.4938 5.74998L11.1816 6.03981L10.2653 6.10855L9.69753 6.03981L9.70749 5.59995L9.43359 5.51619L9.46347 5.20715Z" fill="#EFBC00"/>
<path d="M8.51855 2.26337L9.8665 2.0863L10.4332 3.89241L10.5972 5.15403L9.50461 5.08763L9.03648 3.00264L8.51855 2.26337Z" fill="#FECE71"/>
<path d="M10.5977 5.20715C10.8307 4.52751 10.9321 3.8395 10.7811 3.13544C11.3793 3.5285 11.4925 4.20967 11.3527 5.04115C11.5659 4.54202 11.7253 4.0516 11.7262 3.58696C12.0566 3.88314 12.1211 4.27549 12.0714 4.70914C12.1849 4.40911 12.2488 4.10809 12.264 3.80608C12.4843 4.06541 12.5871 4.4301 12.6226 4.85522C12.6916 4.66377 12.6952 4.45868 12.6226 4.23769C13.1651 4.49437 13.6364 5.15695 14.0602 6.09028L14.3623 7.31206L14.0568 7.8328L12.6425 6.10854L10.5977 5.20715H10.5977Z" fill="#FEE000"/>
<path d="M9.86729 17.552C7.8406 17.341 6.03706 16.4804 4.94468 14.4675C4.79981 14.2005 4.73539 13.8709 4.70791 13.5636C4.66529 13.0871 4.11859 9.93392 4.58131 10.0945C5.05387 10.2586 5.83176 8.9545 6.30654 9.11152C6.83095 9.28494 14.0716 9.32669 14.568 9.05766C14.9406 8.85573 15.4816 12.4626 15.5375 13.0425C15.5808 13.4916 15.1735 14.4483 14.95 14.8105C14.0227 16.3131 12.0149 17.502 9.8673 17.5521L9.86729 17.552Z" fill="#FAFAFA"/>
<path d="M8.23198 7.23166C8.19709 7.23399 8.15744 7.22623 8.12801 7.24013C7.87697 7.35869 7.62611 7.47764 7.3752 7.59648C7.40133 7.2595 7.43416 6.80747 7.44976 6.65186C7.12146 6.98203 5.76588 8.2369 5.43758 8.56706C5.44438 8.57375 5.50366 8.57863 5.59025 8.58259C5.32135 9.03489 5.05656 9.48969 4.79421 9.94584C4.7705 9.98707 4.77513 10.0446 4.7666 10.0946C4.80765 10.0784 4.84848 10.0617 4.88976 10.0462C5.32514 9.88232 5.75368 9.69575 6.19804 9.56163C6.60824 9.43783 7.03543 9.37035 7.45514 9.27806L7.46444 9.13049C7.45232 8.59296 7.62309 8.11834 7.94483 7.69045C8.05286 7.54679 8.13695 7.38511 8.23197 7.23167L8.23198 7.23166Z" fill="#159737"/>
<path d="M15.0146 17.1643C15.0497 17.1329 15.0847 17.1016 15.1198 17.0703C15.0847 17.1016 15.0497 17.1329 15.0146 17.1643Z" fill="#E46980"/>
<path d="M10.0248 9.58018C8.7471 9.58126 7.47915 9.66217 6.23931 9.97833C5.80315 10.0895 5.37618 10.2615 4.96945 10.4566C4.55942 10.6533 4.45629 10.9207 4.51703 11.3693C4.52644 11.4387 4.5352 11.5088 4.53621 11.5786C4.53668 11.6113 4.51793 11.6442 4.5079 11.677C4.47621 11.6517 4.43799 11.6314 4.41383 11.6003C4.15194 11.2623 4.17477 10.9074 4.47474 10.5902C4.92144 10.1178 5.51526 9.92685 6.11318 9.76608C7.89361 9.28735 9.71857 9.2549 11.5368 9.36671C12.6467 9.43496 13.7712 9.57603 14.8056 10.0511C15.0646 10.17 15.3051 10.3528 15.5159 10.5475C15.8135 10.8223 15.8295 11.2022 15.6 11.5319C15.5728 11.571 15.5172 11.5904 15.4747 11.6189C15.4583 11.5683 15.4139 11.505 15.4301 11.4691C15.5347 11.2374 15.6419 10.9805 15.4514 10.7771C15.2516 10.5639 15.0062 10.3633 14.7413 10.2466C13.9225 9.88595 13.0479 9.74232 12.158 9.69236C11.4471 9.65245 10.7359 9.61739 10.0248 9.58017L10.0248 9.58018Z" fill="#385936"/>
<path d="M13.496 10.4513C13.4439 10.4743 13.3919 10.4972 13.3398 10.5202C13.3919 10.4972 13.4439 10.4743 13.496 10.4513Z" fill="#C3C3C3"/>
<path d="M8.38626 6.9002L8.38654 6.90315C8.54839 6.85068 8.71025 6.79821 8.8721 6.74574L8.86745 6.75077C9.12269 6.69486 9.37793 6.63894 9.63316 6.58303C10.0805 6.60768 10.5278 6.63233 10.9751 6.65699C11.0417 6.66726 11.1082 6.67752 11.1747 6.68779L11.1734 6.68109C11.2448 6.70609 11.3163 6.7311 11.3878 6.7561L11.3821 6.7515C11.4334 6.77325 11.4847 6.79501 11.5361 6.81677L11.5528 6.82687L11.5707 6.81895C11.6975 6.86667 11.8244 6.9144 11.9512 6.96213C11.9508 6.96093 11.9503 6.96 11.9498 6.95882C12.0674 7.00658 12.185 7.05436 12.3025 7.10212L12.2983 7.09787C12.3683 7.12475 12.4383 7.15164 12.5083 7.17852L12.5049 7.17824C12.6004 7.2242 12.6958 7.27015 12.7913 7.31611L12.7888 7.31135C12.919 7.38223 13.0465 7.45874 13.18 7.52268C13.3887 7.62266 13.6015 7.71414 13.8126 7.80921C13.6364 7.61368 13.4603 7.418 13.2833 7.22317C13.2769 7.21609 13.2614 7.21724 13.2501 7.21456L13.2376 7.21185C13.2142 7.18918 13.1908 7.16652 13.1674 7.14386L13.1675 7.14142C13.1441 7.11866 13.1206 7.09591 13.0971 7.07316L13.1 7.06053C13.0299 6.99434 12.9598 6.92814 12.8897 6.86195L12.8794 6.87274C12.8546 6.83848 12.8297 6.80422 12.8048 6.76996C12.4482 6.41957 12.0535 6.14157 11.5339 6.10126C11.0938 6.13041 10.6541 6.16682 10.2136 6.1846C10.0679 6.19048 9.92035 6.14836 9.77365 6.12819C9.73931 6.11926 9.70497 6.11034 9.67063 6.10141C9.66362 6.04687 9.65661 5.99233 9.6496 5.9378C9.64977 5.86419 9.64994 5.79058 9.65011 5.71698C9.41172 5.56307 9.07306 5.6256 8.75009 5.88315L8.73755 5.8662C8.58683 5.93874 8.43611 6.01129 8.28539 6.08383L8.28915 6.0841C8.22091 6.11356 8.15267 6.14302 8.08443 6.17248L8.08636 6.16848C7.99078 6.23837 7.8952 6.30826 7.79962 6.37815L7.79867 6.37313L7.52179 6.60005L7.45021 6.65185C7.42774 6.87595 7.40528 7.10004 7.38281 7.32414C7.66809 7.20943 7.95338 7.09472 8.23866 6.98002C8.28785 6.95342 8.33705 6.92681 8.38624 6.90021L8.38626 6.9002Z" fill="#1EBC45"/>
<path d="M15.2504 10.031C15.2472 9.9888 15.2566 9.94004 15.2387 9.90547C14.9884 9.42257 14.7355 8.94094 14.4782 8.46176C14.4615 8.43075 14.4029 8.42229 14.3638 8.40333L14.3618 8.39735C14.2644 8.33375 14.167 8.27014 14.0696 8.20654L14.0688 8.2086C13.9541 8.15651 13.8394 8.10443 13.7247 8.05234L13.725 8.05662C13.6785 8.03139 13.6319 8.00617 13.5854 7.98094L13.5837 7.98427C13.5383 7.95927 13.4929 7.93428 13.4474 7.90929L13.4467 7.91718C13.4201 7.89494 13.3934 7.8727 13.3668 7.85047L13.3696 7.8549C13.228 7.78434 13.0865 7.71378 12.9449 7.64322C12.9452 7.64459 12.9456 7.64568 12.9458 7.64704C12.876 7.6193 12.8062 7.59154 12.7363 7.5638L12.7406 7.56858C12.4106 7.41983 12.0806 7.27109 11.7505 7.12234C10.8299 6.72677 9.89703 6.55835 8.9331 6.97162C8.7037 7.05987 8.4623 7.07358 8.23288 7.16183V7.2053C8.13785 7.35874 8.05376 7.54675 7.94574 7.69042C7.624 8.11831 7.45323 8.59293 7.46535 9.13046L7.45605 9.27803C8.27595 9.22639 9.09586 9.17475 9.91576 9.12311L10.0627 9.12169C11.1188 9.20199 12.175 9.28229 13.2312 9.3626L13.2471 9.38065L13.2711 9.38015C13.5561 9.44262 13.8411 9.50508 14.1261 9.56755L14.1219 9.56145C14.4677 9.71531 14.8132 9.86978 15.1597 10.0219C15.1862 10.0335 15.22 10.0283 15.2504 10.031V10.031Z" fill="#1EBC45"/>
<path d="M11.3928 14.4477C11.3883 14.4178 11.3024 14.2708 11.2583 14.2385C11.2538 14.2811 11.2407 14.3882 11.2383 14.4308C11.2242 14.6806 11.1062 14.8528 10.8551 14.9004C10.6474 14.9397 10.1915 14.7388 10.1542 14.5825C10.1179 14.43 10.0905 14.2618 10.2835 14.1559C10.3926 14.096 10.4946 14.0059 10.5708 13.907C10.7131 13.7222 10.7777 13.5294 10.4991 13.3948C10.2162 13.2097 9.92633 13.245 9.63365 13.3672C9.31272 13.5751 9.28737 13.739 9.54648 13.9968C9.61979 14.0698 9.71015 14.1275 9.79853 14.1829C9.98314 14.2987 9.96823 14.5394 9.87295 14.5979C9.66891 14.7232 9.4064 14.8172 9.17123 14.8102C8.92364 14.8028 8.82035 14.5754 8.84934 14.3183C8.85366 14.28 8.83663 14.2392 8.82948 14.1995C8.79069 14.222 8.73938 14.2353 8.71517 14.2685C8.57557 14.4595 8.57321 14.6966 8.70604 14.8536C8.8156 14.9831 8.90026 15.013 9.22133 15.1076C9.33051 15.2885 9.32463 15.5391 9.41321 15.7351C9.48708 15.8985 9.5098 16.0405 9.65073 16.1485C10.0004 16.4167 10.4035 16.2935 10.5935 15.7975C10.6831 15.5635 10.7201 15.2708 10.8226 15.1225C10.9745 15.1239 11.207 15.0356 11.3129 14.8524C11.3842 14.7292 11.4202 14.6295 11.3928 14.4477V14.4477ZM9.65408 13.4999L10.3859 13.5047C10.1409 13.6654 9.89705 13.6467 9.65408 13.4999Z" fill="#090805"/>
<path d="M15.8763 10.4257C15.7817 10.2788 15.7188 10.1116 15.6252 9.96389C15.2285 9.33755 15.0607 8.57759 14.5049 8.04291C14.4709 8.01019 14.4699 7.93231 14.4708 7.87572C14.4843 7.0229 14.2959 6.20579 14.0385 5.40058C13.9482 5.2518 13.8622 5.10019 13.767 4.95467C12.7967 3.47219 11.4061 2.53865 9.78362 1.90972C9.74414 1.89442 9.69359 1.89588 9.65059 1.90331C9.16918 1.9865 8.68815 2.07192 8.20733 2.15843C8.1657 2.16592 8.12622 2.18543 8.08575 2.19936C8.10861 2.23677 8.12315 2.28493 8.15556 2.30999C8.83448 2.83519 9.05315 3.5849 9.17194 4.38398C9.20458 4.64912 9.25729 4.91415 9.25852 5.17943C9.25893 5.2671 9.14206 5.40974 9.05263 5.43518C7.86568 5.77282 6.95727 6.5119 6.21316 7.45301C5.88286 7.87075 5.41876 8.15992 5.17737 8.66614C4.89659 9.25499 4.56138 9.82137 4.20977 10.3719C3.85855 10.9219 3.79206 11.3375 4.18966 11.8505C4.45268 12.1899 4.45485 12.5124 4.39649 12.8898C4.2837 13.6194 4.38948 14.3194 4.79876 14.9431C5.59661 16.159 6.66495 16.9949 7.9334 17.4527C9.01344 17.8425 10.1843 17.9165 11.3121 17.7008C12.538 17.4664 13.3977 16.9383 14.3513 16.0702C15.4063 15.1098 15.9796 13.94 15.6064 12.4614C15.5517 12.2447 15.6003 12.0638 15.7508 11.8803C16.1181 11.4327 16.2107 10.9454 15.8763 10.4257V10.4257ZM9.03834 2.77354L9.03362 2.76406C8.95619 2.65047 8.87876 2.53688 8.80133 2.42329C8.80346 2.41823 8.80341 2.41836 8.80553 2.4133L8.99677 2.37922C9.21151 2.33678 9.42533 2.27253 9.64147 2.26343C9.71976 2.26014 9.84554 2.3731 9.878 2.45984C10.069 2.97027 10.2389 3.48863 10.416 4.00432C10.4401 4.21036 10.4642 4.41641 10.4883 4.62245L10.5133 4.62069L10.5384 4.62077C10.5509 4.55436 10.4764 3.63071 10.4697 3.58616L10.4602 3.58883C10.448 3.54219 10.4359 3.49555 10.4238 3.44891C10.3336 3.14132 10.242 2.83412 10.1549 2.52565C10.1438 2.48635 10.1562 2.44041 10.1577 2.39755C10.1895 2.40864 10.2238 2.4154 10.2529 2.43157C10.3818 2.50333 10.5092 2.57778 10.6371 2.65126L10.6336 2.64743C10.7286 2.69443 10.8237 2.74143 10.9188 2.78843L10.9162 2.78545L10.9916 2.81862C11.0059 2.81939 11.0187 2.82417 11.03 2.83296C11.0867 2.86539 11.1434 2.89783 11.2 2.93027L11.1936 2.92488C11.2413 2.952 11.289 2.97911 11.3366 3.00622L11.3325 3.00244L11.6907 3.21323L11.6847 3.20839C11.7127 3.22184 11.7406 3.23529 11.7685 3.24874L11.7909 3.26137C11.8547 3.30271 11.9185 3.34405 11.9823 3.38538L12.007 3.40169C12.0924 3.46527 12.1779 3.52885 12.2634 3.59242L12.2916 3.61215C12.3253 3.64163 12.359 3.67111 12.3927 3.7006L12.393 3.70034C12.4788 3.75873 12.6208 3.89529 12.6624 3.92656C12.6946 3.96239 12.7267 3.99821 12.7589 4.03404L12.7608 4.03972C12.7979 4.07222 12.835 4.10471 12.8721 4.13721C12.9689 4.25189 13.2849 4.66377 13.308 4.68896L13.308 4.687C13.3382 4.72514 13.3684 4.76328 13.3986 4.80142C13.3986 4.80142 13.4286 4.86797 13.4539 4.89076L13.454 4.8906C13.4541 4.89079 13.4543 4.89098 13.4544 4.89118C13.4554 4.89212 13.4565 4.89306 13.4575 4.894L13.4565 4.8948C13.4832 4.94057 13.5099 4.98635 13.5365 5.03212L13.5353 5.03322C13.5501 5.05876 13.565 5.0843 13.5798 5.10983C13.7321 5.48718 13.8844 5.86453 14.0367 6.24188L14.0697 6.32591C14.1074 6.50184 14.1443 6.67425 14.182 6.85017C14.182 6.85017 14.1941 7.56019 14.1768 7.60758C14.1546 7.56079 14.1313 7.23001 14.1301 7.16235L14.0062 6.52891C14.0062 6.52891 13.932 6.05074 13.7837 6.31022C13.7088 6.39745 13.634 6.48468 13.5592 6.57192C13.5395 6.56 13.5445 6.56303 13.5248 6.55111C13.5844 6.40204 13.644 6.25296 13.7036 6.10389C13.6581 5.85996 13.6188 5.6146 13.5617 5.37342C13.5513 5.32953 13.4686 5.30277 13.4192 5.26811C13.3543 5.41028 13.2894 5.55245 13.2245 5.69462C13.1478 5.68123 13.1571 5.68285 13.0804 5.66946L13.0769 5.62671C13.0293 5.34714 12.9818 5.06758 12.9342 4.78802C12.8949 4.82299 12.8373 4.85057 12.8197 4.89428C12.7612 5.03943 12.7172 5.19039 12.6676 5.33913C12.6567 5.36064 12.6458 5.38215 12.635 5.40366C12.6189 5.43428 12.4854 5.56347 12.4347 5.59745C12.4412 5.53328 12.4477 5.46912 12.4542 5.40495C12.4652 5.19434 12.4761 4.98373 12.487 4.77311C12.4838 4.69995 12.4806 4.6273 12.4774 4.55414C12.4712 4.51288 12.4669 4.47122 12.4578 4.43058C12.4491 4.39121 12.4351 4.353 12.4234 4.31428L12.3966 4.3391C12.2893 4.55723 12.1399 4.8611 12.0326 5.07922C12.0336 5.09657 12.0272 5.11181 12.0135 5.12494L11.9269 5.24792C11.9172 5.16027 11.9076 5.07262 11.8979 4.98497L11.9142 4.8539L11.9242 4.54982C11.9236 4.52406 11.923 4.49835 11.9223 4.47259C11.9116 4.33932 11.9009 4.20606 11.8902 4.0728L11.8565 4.07178L11.823 4.07531L11.7531 4.28974C11.6723 4.56695 11.6063 4.84957 11.5068 5.11991C11.3989 5.41326 11.3411 5.40813 11.1236 5.12013L11.1879 4.13787C11.1759 4.08077 11.1578 3.99504 11.1458 3.93793C11.1288 3.90547 11.1119 3.87302 11.0949 3.84056C11.0753 3.87131 11.044 3.89991 11.038 3.93313C10.9738 4.28416 10.9162 4.63639 10.8494 4.98691C10.8405 5.03382 10.7912 5.07303 10.7606 5.1158C10.7081 5.10069 10.5483 5.05578 10.5483 5.05578C10.4771 5.04992 10.406 5.04405 10.3348 5.03818C10.1485 5.02152 9.96214 5.00487 9.7758 4.98821C9.58184 5.08746 9.60119 4.94215 9.5856 4.82655C9.54257 4.50742 9.52621 4.1803 9.44128 3.87236C9.3379 3.49755 9.17529 3.13908 9.0383 2.77354H9.03834ZM11.0411 5.69868C10.799 5.64668 10.5569 5.59468 10.3147 5.54268C10.1051 5.51951 9.89544 5.49634 9.68579 5.47317C9.6266 5.45092 9.56742 5.42868 9.50823 5.40643C9.50383 5.3867 9.50383 5.36696 9.50823 5.34723C10.1105 5.31507 10.7073 5.31127 11.2331 5.67818C11.1691 5.68501 11.1051 5.69185 11.0411 5.69869L11.0411 5.69868ZM11.1286 5.84611C11.1261 5.8815 11.1236 5.91689 11.1211 5.95227C10.9394 5.95779 10.7573 5.97253 10.5764 5.9628C10.5268 5.96013 10.4811 5.88427 10.4335 5.84199C10.4394 5.81268 10.4452 5.78338 10.451 5.75407C10.5282 5.73976 10.6053 5.72546 10.6824 5.71115C10.7298 5.72275 10.7771 5.73434 10.8244 5.74594C10.8997 5.76378 10.9749 5.78161 11.0502 5.79944L11.1285 5.84611H11.1286ZM10.2711 6.03979V6.03981C10.1147 6.0363 9.93638 6.03337 9.77819 6.02991L9.7922 5.62289C9.83438 5.61524 9.87657 5.60759 9.91876 5.59995C9.95208 5.60613 9.98517 5.61565 10.0188 5.61798C10.3841 5.64339 10.3857 5.64569 10.2711 6.03979H10.2711ZM6.3982 7.71794C6.42195 7.6913 6.44565 7.66471 6.4694 7.63807C6.79629 7.30932 7.12319 6.98058 7.45008 6.65184L7.52166 6.60004L7.79854 6.37312L7.79949 6.37814C7.89507 6.30825 7.99065 6.23836 8.08623 6.16847L8.0843 6.17247C8.15254 6.14301 8.22078 6.11355 8.28902 6.08409L8.28526 6.08382C8.43598 6.01128 8.5867 5.93873 8.73742 5.86619C8.73742 5.86619 9.41159 5.56306 9.64997 5.71697C9.64978 5.80041 9.62135 6.02842 9.62116 6.11187C9.66826 6.12785 9.73891 6.11919 9.77471 6.13096L9.7748 6.12839C9.92107 6.14863 10.0682 6.19047 10.2134 6.18461C10.6539 6.16683 11.0937 6.13042 11.5337 6.10127C12.0534 6.14158 12.448 6.41958 12.8046 6.76997L12.8793 6.87274C13.0027 6.93886 13.0969 7.07316 13.0969 7.07316C13.1204 7.09591 13.1439 7.11867 13.1674 7.14142L13.1672 7.14386C13.1906 7.16652 13.214 7.18919 13.2374 7.21185L13.2499 7.21456C13.2612 7.21725 13.2767 7.21609 13.2831 7.22317C13.4602 7.418 13.6362 7.61368 13.8125 7.80921C13.6014 7.71414 13.3886 7.62266 13.1798 7.52268C13.0463 7.45874 12.9188 7.38223 12.7886 7.31135L12.7912 7.31611C12.6957 7.27015 12.6002 7.2242 12.5047 7.17824L12.5082 7.17852C12.4382 7.15164 12.3682 7.12475 12.2982 7.09787L12.3024 7.10212C12.1838 7.05394 12.0652 7.00575 11.9466 6.95757L11.951 6.96213C11.8242 6.9144 11.6974 6.86667 11.5705 6.81895L11.5526 6.82687L11.5359 6.81677C11.4846 6.79502 11.4332 6.77326 11.3819 6.7515L11.3876 6.7561C11.3161 6.7311 11.2447 6.70609 11.1732 6.68109L11.1746 6.68779C11.108 6.67752 11.0415 6.66725 10.975 6.65699C10.5276 6.63234 10.0803 6.60769 9.633 6.58303C9.37776 6.63894 9.12252 6.69485 8.86729 6.75077L8.87194 6.74574C8.71009 6.79821 8.54824 6.85068 8.38638 6.90315L8.3861 6.9002C8.33691 6.9268 8.28771 6.95341 8.23852 6.98001C7.94268 7.09896 7.64684 7.21791 7.351 7.33687C7.08981 7.47058 6.66632 7.68737 6.40513 7.82108C6.37227 7.82499 6.33941 7.8289 6.30654 7.83281L6.3982 7.71795V7.71794ZM4.79452 9.94581C5.06813 9.47008 5.34412 8.99567 5.62497 8.52419C5.66493 8.4571 5.72352 8.38565 5.79122 8.35292C6.56804 7.97738 7.34811 7.60858 8.12833 7.24011C8.15776 7.22621 8.7031 7.05986 8.93252 6.97162C9.89645 6.55835 10.8293 6.72677 11.7499 7.12234C12.08 7.27109 12.41 7.41983 12.74 7.56858L12.7357 7.5638C12.8057 7.59161 12.8758 7.61943 12.9458 7.64724L12.9443 7.64322C13.0859 7.71378 13.2275 7.78434 13.369 7.8549L13.3662 7.85047C13.3928 7.87271 13.4195 7.89494 13.4461 7.91718L13.4469 7.90929C13.4923 7.93428 13.5377 7.95928 13.5831 7.98427L13.5848 7.98094C13.6313 8.00617 13.6779 8.03139 13.7244 8.05662L13.7241 8.05234C13.8388 8.10443 14.3632 8.40332 14.3632 8.40332C14.4023 8.42227 14.4609 8.43073 14.4776 8.46175C14.7349 8.94093 14.9878 9.42256 15.2381 9.90546C15.256 9.94003 15.2466 9.98879 15.2498 10.031C15.2194 10.0283 15.1856 10.0335 15.1591 10.0219C14.8126 9.86978 14.4671 9.71531 14.1213 9.56145L14.1255 9.56755C13.8405 9.50508 13.5555 9.44262 13.2705 9.38015L13.2465 9.38065L13.2306 9.3626C12.1744 9.2823 11.1182 9.202 10.0621 9.12169C10.0245 9.12144 9.98696 9.1212 9.94933 9.12096L7.45546 9.27803C7.03575 9.37031 6.60856 9.43779 6.19836 9.5616C5.754 9.69572 5.32546 9.88231 4.89008 10.0462C4.8488 10.0617 4.80796 10.0784 4.76692 10.0945C4.77545 10.0446 4.77082 9.98704 4.79453 9.94581H4.79452ZM14.9499 14.8105C14.3019 15.8607 13.126 16.7576 11.7435 17.2196C10.5389 17.6221 9.23247 17.5795 8.03894 17.1454C6.77791 16.6868 5.69399 15.8483 4.94468 14.4675C4.79981 14.2006 4.73539 13.8709 4.70791 13.5636C4.66529 13.0871 5.08947 12.7996 5.55219 12.9602C6.02475 13.1242 6.49018 13.3093 6.96496 13.4663C7.48937 13.6397 7.98264 13.5744 8.47905 13.3054C8.85164 13.1034 9.26364 12.9422 9.67749 12.8563C10.2427 12.739 10.7964 12.8702 11.28 13.1973C11.88 13.6031 12.5063 13.6619 13.1746 13.4056C13.5444 13.2637 13.9182 13.1324 14.2879 12.9906C14.8357 12.7803 15.2369 13.042 15.2928 13.6219C15.3361 14.071 15.1735 14.4483 14.9499 14.8105ZM6.126 10.3575C6.21546 10.3675 6.30491 10.344 6.39436 10.354C6.44438 10.37 6.47684 10.4269 6.52686 10.4429C7.09907 10.5513 7.28051 11.0272 7.8843 11.2935C7.97792 11.3834 8.07155 11.4732 8.16517 11.563C8.31565 11.6894 8.56069 11.8951 8.71117 12.0214C8.80697 12.0916 8.90277 12.1617 8.99857 12.2319C9.02686 12.2567 9.16542 12.3374 9.0314 12.2645C9.01648 12.268 9.00714 12.2701 8.99222 12.2736C8.57048 12.856 7.98322 13.0414 7.31459 12.8681C6.35897 12.6204 6.05072 11.9113 6.21919 10.9557C6.249 10.7866 6.30002 10.6212 6.34125 10.4541C6.2695 10.4107 6.19775 10.4009 6.126 10.3575V10.3575ZM13.9939 11.6934C13.9431 12.331 13.5073 12.7074 12.9037 12.863C12.3664 13.0015 11.6409 12.9169 11.3147 12.3724C11.3046 12.3667 11.2948 12.3569 11.2842 12.3559C11.1812 12.3457 11.078 12.3371 10.9749 12.328C11.0889 12.2582 11.2138 12.2013 11.315 12.1163C11.6711 11.8174 12.0111 11.4989 12.3726 11.207C12.6671 10.9693 12.9727 10.7968 13.2794 10.5744C13.2924 10.5583 13.3279 10.5221 13.3479 10.5271C13.3999 10.5042 13.4439 10.4743 13.4959 10.4513C13.5898 10.426 13.6837 10.4008 13.7775 10.3755C13.7854 10.3669 13.7934 10.3508 13.8012 10.3509C13.8827 10.3516 13.9641 10.3549 14.0455 10.3575C13.9784 10.3924 13.9114 10.4273 13.8443 10.4622C13.8996 10.873 14.026 11.2895 13.9939 11.6934H13.9939ZM15.4749 11.6189C15.4585 11.5683 15.414 11.505 15.4302 11.4691C15.5348 11.2374 15.642 10.9805 15.4515 10.7771C15.2517 10.5639 15.0063 10.3632 14.7415 10.2466C13.9226 9.88594 13.048 9.74231 12.1581 9.69236C11.4472 9.65245 10.736 9.61739 10.025 9.58017C8.74723 9.58125 7.47928 9.66217 6.23944 9.97832C5.80328 10.0895 5.37631 10.2614 4.96958 10.4566C4.55955 10.6533 4.45642 10.9207 4.51716 11.3693C4.52657 11.4387 4.53533 11.5088 4.53634 11.5786C4.53681 11.6113 4.51806 11.6442 4.50803 11.677C4.47634 11.6517 4.43812 11.6314 4.41396 11.6003C4.15208 11.2623 4.1749 10.9074 4.47487 10.5902C4.92157 10.1178 5.51539 9.92685 6.11331 9.76608C7.89374 9.28735 9.71869 9.2549 11.5369 9.36671C12.6468 9.43497 13.7713 9.57603 14.8058 10.0511C15.0648 10.17 15.3052 10.3528 15.5161 10.5475C15.8136 10.8223 15.8296 11.2022 15.6001 11.5319C15.5729 11.571 15.5173 11.5904 15.4749 11.6189Z" fill="#0E0C0C"/>
<path d="M9.99993 16.1408C9.75705 16.1408 9.67999 15.9717 9.59748 15.8118C9.56445 15.7479 9.57951 15.5472 9.63348 15.5177C9.71124 15.4752 9.76118 15.4494 9.86774 15.47C9.94795 15.4855 9.96836 15.6218 9.96836 15.6218L10.0365 15.6151C10.037 15.4368 10.3415 15.3853 10.4231 15.5776C10.4517 15.6449 10.4346 15.8209 10.3727 15.8995C10.2947 15.9987 10.2428 16.1407 9.99993 16.1407V16.1408Z" fill="#E46980"/>
<path d="M14.0452 10.3575C13.9638 10.3549 13.8824 10.3516 13.801 10.3508C13.7931 10.3508 13.3675 10.4711 13.1521 10.6352C12.8892 10.8221 12.6229 11.0047 12.3724 11.207C12.0108 11.4988 11.6708 11.8173 11.3147 12.1162C11.2135 12.2013 11.0886 12.2582 10.9746 12.328C11.0777 12.337 11.3941 12.2393 11.4578 12.2089C11.6917 12.0971 11.9701 11.8583 12.0931 11.7553C12.5449 11.3769 13.5617 10.6146 13.844 10.4622C13.9111 10.4273 13.9781 10.3924 14.0452 10.3575L14.0452 10.3575Z" fill="#C3C3C3"/>
<path d="M6.12598 10.3575C6.20738 10.3549 6.28878 10.3516 6.3702 10.3508C6.37801 10.3508 6.80363 10.4711 7.01901 10.6352C7.28194 10.8221 7.54827 11.0047 7.7988 11.207C8.16037 11.4988 8.50033 11.8173 8.85641 12.1162C8.95768 12.2013 9.08252 12.2582 9.19655 12.328C9.09342 12.337 8.77709 12.2393 8.71335 12.2089C8.47943 12.0971 8.20105 11.8583 8.07807 11.7553C7.62628 11.3769 6.60948 10.6146 6.32712 10.4622C6.26007 10.4273 6.19304 10.3924 6.12599 10.3575L6.12598 10.3575Z" fill="#C3C3C3"/>
<path d="M9.6543 13.4998C9.89824 13.5014 10.1422 13.5031 10.3861 13.5047C10.1411 13.6653 9.89727 13.6467 9.6543 13.4998Z" fill="#C3C3C3"/>
<path d="M11.2002 10.4383L11.5235 9.98523H11.7347L11.2002 10.4383Z" fill="#EDF3EF"/>
<path d="M11.5605 10.4951L11.8838 10.042H12.0951L11.5605 10.4951Z" fill="#EDF3EF"/>
<path d="M9.00328 10.4383L8.67998 9.98523H8.46875L9.00328 10.4383Z" fill="#EDF3EF"/>
<path d="M8.64292 10.4951L8.31963 10.042H8.1084L8.64292 10.4951Z" fill="#EDF3EF"/>
</g>
<defs>
<clipPath id="clip0_4653_58877">
<rect width="20" height="20" fill="white"/>
</clipPath>
</defs>
</svg>
