<svg width="64" height="64" viewBox="0 0 64 64" fill="none" xmlns="http://www.w3.org/2000/svg">
<g clip-path="url(#clip0_85_68977)">
<path d="M32 64C49.6731 64 64 49.6731 64 32C64 14.3269 49.6731 0 32 0C14.3269 0 0 14.3269 0 32C0 49.6731 14.3269 64 32 64Z" fill="#8247E5"/>
<path fill-rule="evenodd" clip-rule="evenodd" d="M21.8029 14.5633C21.5913 14.642 19.3721 15.8454 16.8713 17.2375C13.6547 19.0282 12.2304 19.8541 12.0031 20.0602C11.8202 20.2261 11.6023 20.5088 11.4972 20.7165L11.3125 21.0813V26.7375V32.3939L11.495 32.7542C11.8417 33.439 11.9532 33.511 16.9613 36.2954C19.5182 37.7168 21.7375 38.9181 21.8931 38.9648C22.313 39.0912 23.0917 39.0739 23.5044 38.9286C23.8334 38.8131 26.9306 37.103 31.4687 34.5312C36.5017 31.6789 40.2182 29.6227 40.5251 29.5208C40.7757 29.4376 40.9965 29.4168 41.4285 29.4358C42.1469 29.4674 42.1427 29.4655 45.1709 31.1531C47.6909 32.5578 47.9913 32.7725 48.3305 33.4112C48.4349 33.608 48.551 33.9357 48.5881 34.1395C48.6803 34.6416 48.68 39.7114 48.5878 40.2106C48.4909 40.736 48.248 41.192 47.88 41.5386C47.4717 41.9232 42.4937 44.7795 42.015 44.9037C41.5808 45.0163 41.0029 45.0096 40.5894 44.887C40.4029 44.8317 39.0995 44.1494 37.6934 43.3712C34.8713 41.8093 34.5955 41.6112 34.2454 40.8938L34.0624 40.5187L34.0313 38.5053L34 36.4915L31.9852 37.6301L29.9705 38.7686L29.9696 40.5626C29.969 41.6547 29.9962 42.4858 30.0389 42.6877C30.1649 43.2819 30.4584 43.7526 30.9062 44.0794C31.4395 44.4682 40.3552 49.384 40.6797 49.4682C41.1657 49.5942 41.8121 49.5696 42.2595 49.4077C42.471 49.3312 44.6912 48.1296 47.1929 46.7376C52.1523 43.9776 52.2038 43.9437 52.5706 43.1971L52.7501 42.8314V37.2064V31.5813L52.5673 31.2209C52.223 30.541 52.103 30.463 47.0777 27.6515C44.5081 26.2139 42.272 24.9958 42.1091 24.9448C41.6851 24.8124 40.9481 24.8168 40.5312 24.9543C40.3421 25.0168 38.8233 25.8473 37.1561 26.7999C35.4889 27.7526 33.1267 29.081 31.9062 29.7518C30.6859 30.4228 28.3553 31.7345 26.7271 32.6669C25.0988 33.5994 23.6242 34.4045 23.45 34.456C23.0068 34.5875 22.254 34.577 21.8379 34.4333C21.4629 34.3037 16.7327 31.6605 16.2688 31.3213C15.9171 31.0642 15.5056 30.4704 15.3755 30.0324C15.2321 29.5492 15.2362 23.9141 15.3805 23.4208C15.5019 23.0057 15.7755 22.5637 16.0832 22.2857C16.4088 21.9915 21.4498 19.2022 21.8839 19.076C22.2682 18.9643 22.9902 18.9792 23.4132 19.1076C23.5374 19.1453 24.803 19.8225 26.2257 20.6126C28.6031 21.9327 28.8435 22.0814 29.1961 22.4489C29.8471 23.1276 29.8675 23.2163 29.9055 25.5244L29.9375 27.4675L31.9242 26.3427L33.911 25.218L33.8931 23.1794L33.8749 21.1408L33.6701 20.7245C33.5414 20.4633 33.3523 20.2077 33.1629 20.0385C32.8851 19.7903 24.2143 14.8259 23.6133 14.5708C23.4711 14.5105 23.1354 14.4597 22.7812 14.445C22.277 14.424 22.1295 14.4419 21.8029 14.5633Z" fill="white"/>
<path d="M48 64C56.8366 64 64 56.8366 64 48C64 39.1634 56.8366 32 48 32C39.1634 32 32 39.1634 32 48C32 56.8366 39.1634 64 48 64Z" fill="#131419"/>
<path fill-rule="evenodd" clip-rule="evenodd" d="M42.9111 45.9146L48 40.8253L53.089 45.9146L56.0474 42.9562L48 34.9088L39.9527 42.9562L42.9111 45.9146ZM37.8647 45.0503L34.9098 48.0051L37.8647 50.96L40.8195 48.0051L37.8647 45.0503ZM48 55.1824L42.9111 50.0931L39.9527 53.0515L48 61.0989L56.0474 53.0515L53.089 50.0931L48 55.1824ZM58.136 45.0506L55.1812 48.0055L58.136 50.9603L61.0909 48.0055L58.136 45.0506ZM48.0016 45.0042L51.0013 48.0039L48.0016 51.0035L45.002 48.0039L45.5191 47.4659L45.7879 47.2179L48.0016 45.0042Z" fill="#F0B90B"/>
</g>
<defs>
<clipPath id="clip0_85_68977">
<rect width="64" height="64" fill="white"/>
</clipPath>
</defs>
</svg>
