<svg width="20" height="20" viewBox="0 0 20 20" fill="none" xmlns="http://www.w3.org/2000/svg">
<rect width="20" height="20" fill="#FF007F"/>
<path fill-rule="evenodd" clip-rule="evenodd" d="M11.0107 2.7374C12.1885 3.1532 12.8844 3.768 13.4703 4.9102C13.7018 5.3616 13.7477 5.5782 13.7504 6.2325L13.7537 7.0151L14.2686 7.1894C15.3759 7.5642 15.9059 8.313 15.7419 9.2708C15.6968 9.5344 15.6577 9.7822 15.6549 9.8215C15.6522 9.8608 15.8952 10.0183 16.1949 10.1715C16.4946 10.3247 16.8258 10.5686 16.9309 10.7136C17.348 11.2889 17.2306 12.5517 16.6906 13.2971C16.4152 13.6773 16.4063 13.7208 16.5185 14.1403C16.8234 15.2804 15.7821 16.4094 13.85 17.0337C12.1381 17.5869 8.6768 17.7259 6.755 17.3186C4.9573 16.9377 3.7686 16.1208 3.1354 14.8311C2.8786 14.3083 2.8502 14.1497 2.8522 13.25C2.854 12.4125 2.8904 12.1819 3.0763 11.8308C3.3183 11.3735 3.78 10.9798 4.25 10.8298C4.5477 10.7348 4.5504 10.7271 4.6075 9.8343C4.6532 9.1181 4.7275 8.801 4.9713 8.2799C5.5737 6.9926 6.3448 6.3965 7.7434 6.1371C8.3447 6.0256 8.7012 5.9029 8.884 5.7446L9.15 5.5143L8.8159 4.9029C8.2695 3.9031 8.376 3.1556 9.1304 2.6956C9.558 2.4349 10.1936 2.449 11.0107 2.7374ZM12.6144 6.4738C12.8378 6.038 12.9057 5.2068 12.7592 4.7C12.7025 4.504 12.7108 4.4824 12.7973 4.6C13.3445 5.3433 13.5013 6.3466 13.1683 6.9734C12.7108 7.8346 11.8805 8.2826 10.6 8.3593L10.5337 8.36328C10.2041 8.38315 10.0243 8.39399 10.0157 8.36061C10.0053 8.32053 10.242 8.21666 10.7628 7.98806L10.85 7.9498C11.5613 7.6375 12.3607 6.9688 12.6144 6.4738ZM7.4656 10.2128C7.2305 10.0179 7.2604 9.7305 7.5455 9.4455C7.6805 9.3105 7.8543 9.2 7.9318 9.2C8.094 9.2 8.5395 10.1381 8.6917 10.8C8.7486 11.0475 8.7962 11.5735 8.7976 11.9689L8.8 12.6877L9.2335 12.7527C9.7791 12.8346 9.9873 12.9527 9.8419 13.0981C9.7666 13.1734 9.6287 13.16 9.3709 13.0523C9.1704 12.9685 8.8546 12.9 8.6691 12.9C8.2221 12.9 7.427 13.1446 7.1968 13.3529C6.9652 13.5625 6.7303 13.4545 6.9201 13.2256C7.012 13.1149 7.05 12.6866 7.05 11.7613V10.4534L7.3406 10.4017C7.6026 10.3551 7.6149 10.3365 7.4656 10.2128ZM11.5304 10.0937C11.3616 9.808 11.3634 9.7991 11.6521 9.4978C12.0805 9.0507 12.3087 9.1286 12.5371 9.8C12.7303 10.3678 12.8119 12.122 12.6656 12.5613C12.604 12.7462 12.6522 12.7886 13.0502 12.9C13.5271 13.0336 13.6527 13.1338 13.5505 13.2993C13.513 13.3598 13.3327 13.3187 13.0877 13.1937C12.3543 12.8196 11.7512 12.8335 10.775 13.2472C10.6494 13.3005 10.6 13.2752 10.6 13.1576C10.6 13.0674 10.6675 12.9678 10.75 12.9362C10.8663 12.8915 10.9001 12.6955 10.9006 12.0643C10.9013 10.9298 11.0251 10.5323 11.4035 10.4492L11.7017 10.3837L11.5304 10.0937ZM15.6802 11.4574C15.5031 11.3333 15.4893 11.2834 15.5963 11.1544C15.7542 10.9642 16.1367 10.9532 16.2872 11.1345C16.5888 11.4979 16.4939 12.4384 16.1076 12.9155L15.9177 13.1499L15.9976 12.7133C16.0955 12.1777 15.9637 11.6559 15.6802 11.4574ZM3.6944 13.95C3.6809 13.785 3.6766 13.5262 3.6849 13.375C3.6932 13.2238 3.7337 13.1002 3.775 13.1004C3.8163 13.1006 4.0006 13.392 4.1846 13.7479C4.6164 14.5829 5.5588 15.471 6.5228 15.9515L7.25 16.3139L6.591 16.2698C5.0805 16.1685 3.7913 15.1361 3.6944 13.95ZM7.9545 14.8322C7.859 14.4518 8.0831 13.9978 8.4421 13.8443C8.7851 13.6977 9.0714 13.7389 9.621 14.0142C10.1107 14.2594 10.3173 14.2489 10.8788 13.95C11.4661 13.6373 11.812 13.6339 12.1644 13.937C12.702 14.3994 12.4574 15.1821 11.6225 15.6714C11.0928 15.9819 9.9232 16.0958 9.2193 15.9056C8.7119 15.7685 8.0481 15.2051 7.9545 14.8322ZM12.9622 16.1594C13.856 15.7128 14.5902 15.0581 15.0715 14.2783L15.4448 13.6735L15.5679 13.9617C15.8518 14.6266 15.6215 15.2639 14.9415 15.6951C14.3835 16.0491 13.444 16.3756 12.75 16.4568L12.25 16.5153L12.9622 16.1594Z" fill="#2FC700"/>
<path d="M7.54698 6.17669C7.6111 6.1627 7.6766 6.14951 7.74354 6.13709C8.34484 6.02559 8.70134 5.90289 8.88414 5.74459L9.15014 5.51429L9.04975 5.33057L8.55279 5.04675L8.77087 5.44585L8.68778 5.51779C8.63749 5.56134 8.54315 5.61622 8.37316 5.67472C8.24366 5.71928 8.08075 5.76248 7.8779 5.80493L7.54698 6.17669Z" fill="white"/>
<path d="M4.64021 9.44222C4.69052 8.98086 4.77716 8.69515 4.97144 8.27989C5.54501 7.05421 6.27152 6.45514 7.54698 6.17669L7.8779 5.80493C7.81838 5.81739 7.75541 5.82978 7.68885 5.84212C6.95865 5.97755 6.36713 6.2056 5.87544 6.58568C5.38374 6.96576 5.01427 7.48057 4.69972 8.15274C4.43666 8.71501 4.35578 9.07043 4.30826 9.81514L4.64021 9.44222Z" fill="white"/>
<path d="M2.85268 13.1619C2.85696 12.3957 2.89724 12.1693 3.07644 11.8308C3.31844 11.3735 3.78014 10.9798 4.25014 10.8298C4.54784 10.7348 4.55054 10.7271 4.60764 9.83429C4.61693 9.68882 4.62739 9.55981 4.64021 9.44222L4.30826 9.81514C4.29385 10.0405 4.28333 10.202 4.27109 10.3229C4.26029 10.4296 4.24966 10.4861 4.24106 10.5163L4.2408 10.5164C4.22176 10.5237 4.19765 10.5316 4.15894 10.544L2.81128 11.6905L2.59903 12.3112L2.55235 13.2493L2.85268 13.1619Z" fill="white"/>
<path d="M4.15894 10.544C4.19765 10.5316 4.22176 10.5237 4.2408 10.5164L4.24106 10.5163C4.24966 10.4861 4.26029 10.4296 4.27109 10.3229C4.28333 10.202 4.29385 10.0405 4.30826 9.81514L4.15894 10.544Z" fill="white"/>
<path d="M4.15894 10.544C3.61024 10.7191 3.08803 11.1675 2.81128 11.6905L4.15894 10.544Z" fill="white"/>
<path d="M15.7178 9.41463C15.6837 9.61915 15.6573 9.78948 15.655 9.82149C15.6523 9.86079 15.8953 10.0183 16.195 10.1715C16.4947 10.3247 16.8259 10.5686 16.931 10.7136C17.3481 11.2889 17.2307 12.5517 16.6907 13.2971C16.4153 13.6773 16.4064 13.7208 16.5186 14.1403C16.8235 15.2804 15.7822 16.4094 13.8501 17.0337C12.1382 17.5869 8.67694 17.7259 6.75514 17.3186C4.95744 16.9377 3.76874 16.1208 3.13554 14.8311C2.87874 14.3083 2.85034 14.1497 2.85234 13.25C2.85241 13.2198 2.85252 13.1905 2.85268 13.1619L2.55235 13.2493C2.55136 13.6947 2.5571 13.9863 2.60159 14.2348C2.64815 14.4947 2.73475 14.6956 2.86628 14.9634C3.55103 16.358 4.83259 17.2179 6.69295 17.6121C7.68777 17.8229 9.06106 17.8896 10.3934 17.8361C11.7241 17.7827 13.0486 17.608 13.9424 17.3192C14.939 16.9971 15.7339 16.5367 16.2438 15.9838C16.7588 15.4255 16.9938 14.7559 16.8085 14.0628C16.7479 13.8365 16.7474 13.7928 16.7533 13.764C16.7603 13.7294 16.7848 13.6787 16.9337 13.4731C17.2413 13.0484 17.4199 12.4922 17.4685 11.9693C17.5163 11.4555 17.4438 10.9097 17.1739 10.5375C17.0926 10.4253 16.9514 10.3053 16.8139 10.2041C16.6688 10.0972 16.4973 9.98907 16.3316 9.90437C16.1886 9.83125 16.0623 9.75871 15.9751 9.70219L15.979 9.67705C15.9945 9.57871 16.0154 9.45215 16.0377 9.32142L15.7178 9.41463Z" fill="white"/>
<path d="M15.7579 9.16158C15.7536 9.19767 15.7483 9.23408 15.742 9.27079C15.7337 9.31969 15.7255 9.36804 15.7178 9.41463L16.0377 9.32142L15.7579 9.16158Z" fill="white"/>
<path d="M13.4704 4.91019C13.7019 5.36159 13.7478 5.57819 13.7505 6.23249L13.7538 7.01509L14.2687 7.18939C15.3336 7.54983 15.8646 8.25613 15.7579 9.16158L16.0377 9.32142C16.1319 8.7718 16.0277 8.26299 15.727 7.83814C15.4301 7.41868 14.9601 7.10667 14.3649 6.90523L14.0529 6.79962L14.0505 6.23123C14.0492 5.90118 14.0373 5.65741 13.9898 5.43308C13.9411 5.20341 13.8585 5.0094 13.7374 4.77327C13.4322 4.17824 13.0907 3.70593 12.6612 3.32656C12.2315 2.94689 11.7268 2.67201 11.1107 2.4545C10.2682 2.15713 9.52024 2.10664 8.97436 2.43945C8.53572 2.70692 8.25606 3.0803 8.18849 3.5545C8.1231 4.01346 8.26375 4.51788 8.55279 5.04675L9.04975 5.33057L8.81604 4.90289C8.26964 3.90309 8.37614 3.15559 9.13054 2.69559C9.55814 2.43489 10.1937 2.44899 11.0108 2.73739C12.1886 3.15319 12.8845 3.76799 13.4704 4.91019Z" fill="white"/>
<path fill-rule="evenodd" clip-rule="evenodd" d="M7.46554 10.2128C7.23044 10.0179 7.26034 9.73049 7.54544 9.44549C7.68044 9.31049 7.85424 9.19999 7.93174 9.19999C7.9386 9.19999 7.94596 9.20166 7.95378 9.20492C8.13107 9.27877 8.54587 10.1661 8.69164 10.8C8.74854 11.0475 8.79614 11.5735 8.79754 11.9689L8.79994 12.6877L9.23344 12.7527C9.63911 12.8136 9.85826 12.8945 9.88421 12.9918C9.89317 13.0253 9.87913 13.0608 9.84184 13.0981C9.76654 13.1734 9.62864 13.16 9.37084 13.0523C9.17034 12.9685 8.85454 12.9 8.66904 12.9C8.22204 12.9 7.42694 13.1446 7.19674 13.3529C6.96514 13.5625 6.73024 13.4545 6.92004 13.2256C7.01194 13.1149 7.04994 12.6866 7.04994 11.7613V10.4534L7.34054 10.4017C7.60254 10.3551 7.61484 10.3365 7.46554 10.2128ZM11.5303 10.0937C11.3615 9.80799 11.3633 9.79909 11.652 9.49779C11.8636 9.27701 12.0263 9.18425 12.1643 9.22774C12.3059 9.27233 12.4214 9.46011 12.537 9.79999C12.7302 10.3678 12.8118 12.122 12.6655 12.5613C12.6039 12.7462 12.6521 12.7886 13.0501 12.9C13.3657 12.9884 13.5274 13.0621 13.5712 13.1499C13.5935 13.1948 13.585 13.2433 13.5504 13.2993C13.5129 13.3598 13.3326 13.3187 13.0876 13.1937C12.3542 12.8196 11.7511 12.8335 10.7749 13.2472C10.6493 13.3005 10.5999 13.2752 10.5999 13.1576C10.5999 13.0674 10.6674 12.9678 10.7499 12.9362C10.8662 12.8915 10.9 12.6955 10.9005 12.0643C10.9012 10.9298 11.025 10.5323 11.4034 10.4492L11.7016 10.3837L11.5303 10.0937ZM7.95444 14.8322C7.85894 14.4518 8.08304 13.9978 8.44204 13.8443C8.78504 13.6977 9.07134 13.7389 9.62094 14.0142C10.1106 14.2594 10.3172 14.2489 10.8787 13.95C11.466 13.6373 11.8119 13.6339 12.1643 13.937C12.7019 14.3994 12.4573 15.1821 11.6224 15.6714C11.0927 15.9819 9.92314 16.0958 9.21924 15.9056C8.71184 15.7685 8.04804 15.2051 7.95444 14.8322ZM11.2249 15.5985C11.5023 15.5951 11.5813 15.4185 11.613 14.7314C11.6312 14.3362 11.6244 13.9927 11.598 13.9681C11.5715 13.9434 11.4486 13.9616 11.3249 14.0084C11.119 14.0863 11.0999 14.1575 11.0999 14.8468C11.0999 15.3835 11.1358 15.5996 11.2249 15.5985ZM9.02494 15.5978C9.06614 15.599 9.09994 15.24 9.09994 14.8C9.09994 14.0241 9.09274 14 8.86194 14C8.64194 14 8.62024 14.0473 8.57444 14.625C8.53084 15.1752 8.55034 15.2707 8.73744 15.4228C8.85434 15.5178 8.98374 15.5966 9.02494 15.5978ZM11.9999 15.05C12.2239 14.8473 12.2701 14.3102 12.0799 14.12C11.8569 13.897 11.7999 13.9979 11.7999 14.6155C11.7999 15.2247 11.802 15.2291 11.9999 15.05ZM9.94264 15.787C9.96094 15.7667 9.99574 15.4655 10.0198 15.1178L10.0637 14.4856L9.68184 14.2908L9.29994 14.0959V14.5855C9.29994 14.8547 9.27244 15.2126 9.23874 15.3809C9.18104 15.6694 9.19834 15.6906 9.54344 15.7554C9.74464 15.7931 9.92424 15.8074 9.94264 15.787ZM8.29994 14.95C8.36034 14.9873 8.39994 14.851 8.39994 14.6059C8.39994 14.3827 8.38494 14.2 8.36664 14.2C8.18794 14.2 8.13064 14.8453 8.29994 14.95ZM10.4249 15.7985C10.5486 15.7976 10.7083 15.7599 10.7796 15.7147C10.8707 15.6569 10.9005 15.4243 10.8796 14.9335L10.8499 14.2346L10.5249 14.3676C10.2052 14.4984 10.1999 14.5112 10.1999 15.1503C10.1999 15.7579 10.2145 15.7999 10.4249 15.7985Z" fill="black"/>
<path d="M12.6654 12.5613C12.6038 12.7462 12.652 12.7886 13.05 12.9C13.3655 12.9884 13.5272 13.0622 13.571 13.1499C13.6517 10.2298 12.6667 9.31843 12.1642 9.22775C12.3057 9.27233 12.4213 9.46012 12.5369 9.79999C12.7301 10.3678 12.8117 12.122 12.6654 12.5613Z" fill="white"/>
<path d="M8.79978 12.6877L9.23328 12.7527C9.63895 12.8136 9.85809 12.8945 9.88405 12.9918C9.78019 10.2978 8.56809 9.3505 7.95361 9.20493C8.1309 9.27877 8.54571 10.1661 8.69148 10.8C8.74838 11.0475 8.79598 11.5735 8.79738 11.9689L8.79978 12.6877Z" fill="white"/>
<path d="M10.7797 15.7147C10.7084 15.7599 10.5487 15.7976 10.425 15.7985C10.2146 15.7999 10.2 15.7579 10.2 15.1503C10.2 14.5112 10.2053 14.4984 10.525 14.3676L10.85 14.2346L10.8797 14.9335C10.9006 15.4243 10.8708 15.6569 10.7797 15.7147Z" fill="white"/>
<path d="M10.0199 15.1178C9.99575 15.4655 9.96095 15.7667 9.94265 15.787C9.92425 15.8074 9.74465 15.7931 9.54345 15.7554C9.19835 15.6906 9.18105 15.6694 9.23875 15.3809C9.27245 15.2126 9.29995 14.8547 9.29995 14.5855V14.0959L9.68185 14.2908L10.0638 14.4856L10.0199 15.1178Z" fill="white"/>
<path d="M9.09995 14.8C9.09995 15.24 9.06615 15.599 9.02495 15.5978C8.98375 15.5966 8.85435 15.5178 8.73745 15.4228C8.55035 15.2707 8.53085 15.1752 8.57445 14.625C8.62025 14.0473 8.64195 14 8.86195 14C9.09275 14 9.09995 14.0241 9.09995 14.8Z" fill="white"/>
<path d="M8.39995 14.6059C8.39995 14.851 8.36035 14.9873 8.29995 14.95C8.13065 14.8453 8.18795 14.2 8.36665 14.2C8.38495 14.2 8.39995 14.3827 8.39995 14.6059Z" fill="white"/>
<path d="M11.6131 14.7314C11.5814 15.4185 11.5024 15.5951 11.225 15.5985C11.1359 15.5996 11.1 15.3835 11.1 14.8468C11.1 14.1575 11.1191 14.0863 11.325 14.0084C11.4487 13.9616 11.5716 13.9434 11.5981 13.9681C11.6245 13.9927 11.6313 14.3362 11.6131 14.7314Z" fill="white"/>
<path d="M12.08 14.12C12.2702 14.3102 12.224 14.8473 12 15.05C11.8021 15.2291 11.8 15.2247 11.8 14.6155C11.8 13.9979 11.857 13.897 12.08 14.12Z" fill="white"/>
<path d="M12.7592 4.70001C12.9057 5.20681 12.8378 6.03801 12.6144 6.47381C12.3607 6.96881 11.5613 7.63751 10.85 7.94981L10.7628 7.98807C10.242 8.21667 10.0053 8.32054 10.0157 8.36062C10.0243 8.394 10.2041 8.38316 10.5337 8.36329L10.6 8.35931C11.8805 8.28261 12.7108 7.83461 13.1683 6.97341C13.5013 6.34661 13.3445 5.34331 12.7973 4.60001C12.7108 4.48241 12.7025 4.50401 12.7592 4.70001Z" fill="#009515"/>
<path d="M15.5963 11.1544C15.4893 11.2834 15.5031 11.3333 15.6802 11.4574C15.9637 11.6559 16.0955 12.1777 15.9976 12.7133L15.9177 13.1499L16.1076 12.9155C16.4939 12.4384 16.5888 11.4979 16.2872 11.1345C16.1367 10.9532 15.7542 10.9642 15.5963 11.1544Z" fill="#009515"/>
<path d="M15.0715 14.2783C14.5902 15.0581 13.856 15.7128 12.9622 16.1594L12.25 16.5153L12.75 16.4568C13.444 16.3756 14.3835 16.0491 14.9415 15.6951C15.6215 15.2639 15.8518 14.6266 15.5679 13.9617L15.4448 13.6735L15.0715 14.2783Z" fill="#009515"/>
<path d="M3.6849 13.375C3.6766 13.5262 3.6809 13.785 3.6944 13.95C3.7913 15.1361 5.0805 16.1685 6.591 16.2698L7.25 16.3139L6.52279 15.9515C5.55879 15.471 4.6164 14.5829 4.1846 13.7479C4.0006 13.392 3.8163 13.1006 3.775 13.1004C3.7337 13.1002 3.6932 13.2238 3.6849 13.375Z" fill="#009515"/>
</svg>
