<svg width="20" height="20" viewBox="0 0 20 20" fill="none" xmlns="http://www.w3.org/2000/svg">
<g clip-path="url(#clip0_1445_1987)">
<path d="M10 20C15.5228 20 20 15.5228 20 10C20 4.47715 15.5228 0 10 0C4.47715 0 0 4.47715 0 10C0 15.5228 4.47715 20 10 20Z" fill="white"/>
<path d="M13.6224 4.64429C12.0852 5.69404 10.5669 5.86278 8.84229 4.66304C9.61083 6.53759 12.5727 7.26865 14.391 5.84401C14.1473 5.4691 13.9036 5.09418 13.6224 4.64429Z" fill="black"/>
<path d="M12.7321 12.0429C12.6572 11.9865 12.5702 11.9212 12.4603 11.8426C12.5165 13.0798 13.1351 13.7734 14.2224 13.9421C15.0472 14.0733 16.1962 13.2773 16.5051 12.4982C16.8141 11.7191 17.0269 10.6923 16.5051 9.32784C16.0236 8.16409 15.3846 7.41866 14.1286 7.26868C12.8352 7.11871 12.0104 7.83105 11.4105 8.86207C11.2257 9.1605 11.1164 9.50206 11.009 9.8377C10.9747 9.94477 10.9407 10.0512 10.9044 10.1555C10.8432 10.3188 10.793 10.4876 10.7359 10.6801C10.6881 10.8413 10.6353 11.019 10.567 11.224C10.12 10.7956 9.80254 10.4968 9.48593 10.1988L9.47975 10.193C10.5857 8.50592 10.4732 7.06246 9.21728 6.16271C7.84888 5.16918 5.97432 5.4316 4.83083 6.78133C5.05052 7.14219 5.28333 7.5031 5.45231 7.76504C5.4852 7.81602 5.51567 7.86326 5.54315 7.90602C5.82332 7.8068 6.08712 7.69849 6.34136 7.59411C6.90366 7.36326 7.41915 7.15161 7.96133 7.09999C8.7674 7.02498 9.46098 7.8873 9.40474 8.61836C9.35087 9.49803 8.69528 9.55245 8.0636 9.60489C8.0357 9.6072 8.00785 9.60951 7.98009 9.61189C7.91376 9.61189 7.84745 9.62493 7.77345 9.63947C7.72195 9.64959 7.66672 9.66044 7.60518 9.66814C7.69891 10.1743 7.79264 10.6241 7.88636 11.0365C9.32977 11.2802 9.61096 11.4677 9.7234 12.18C9.8359 13.0048 9.38602 13.9234 8.42997 14.242C7.69891 14.4857 6.81787 14.5607 6.08676 14.392C5.47443 14.2617 4.90737 13.9685 4.34154 13.6758C4.09324 13.5474 3.84517 13.4191 3.59362 13.3048C3.57487 15.0481 5.8993 16.304 7.4552 16.1541C9.4235 15.9666 10.7919 14.5232 10.7732 12.6487C10.7732 12.6032 10.7721 12.5526 10.7709 12.4997C10.7653 12.2474 10.7585 11.9421 10.8669 11.8801C11.5332 11.4904 11.8454 10.8646 12.1597 10.2345C12.314 9.92514 12.4689 9.6147 12.6665 9.33071C12.9102 8.97451 13.4163 8.65584 13.8475 8.58088C14.8035 8.43091 15.5908 9.01204 15.9282 9.96804C16.2469 10.8116 16.1907 11.6364 15.5158 12.2925C14.8785 12.8923 13.9037 12.8361 13.0039 12.2362C12.9168 12.1818 12.836 12.121 12.7321 12.0429Z" fill="black"/>
<path d="M10.8792 3.17541C10.6624 3.42874 10.4565 3.66935 10.2109 3.96957C10.3668 4.10901 10.5083 4.23769 10.6448 4.36188C10.8203 4.52151 10.9877 4.67372 11.1669 4.83186C11.5044 4.4757 11.7668 4.19452 12.048 3.87584C11.7481 3.53842 11.5044 3.27598 11.1295 2.88232C11.0428 2.98431 10.9602 3.08075 10.8792 3.17541Z" fill="#F01871"/>
<path fill-rule="evenodd" clip-rule="evenodd" d="M9.99986 -0.085083C4.43003 -0.085083 -0.0852051 4.43015 -0.0852051 9.99998C-0.0852051 15.5698 4.43003 20.085 9.99986 20.085C15.5697 20.085 20.0849 15.5698 20.0849 9.99998C20.0849 4.43015 15.5697 -0.085083 9.99986 -0.085083ZM0.414795 9.99998C0.414795 4.7063 4.70617 0.414917 9.99986 0.414917C15.2935 0.414917 19.5849 4.7063 19.5849 9.99998C19.5849 15.2937 15.2935 19.585 9.99986 19.585C4.70617 19.585 0.414795 15.2937 0.414795 9.99998Z" fill="#F01871"/>
</g>
<defs>
<clipPath id="clip0_1445_1987">
<rect width="20" height="20" fill="white"/>
</clipPath>
</defs>
</svg>
