<svg width="20" height="20" viewBox="0 0 20 20" fill="none" xmlns="http://www.w3.org/2000/svg">
<circle cx="10" cy="10" r="10" fill="#462F8D"/>
<path d="M11.4783 12.9101L11.6441 13.0759C11.7989 13.2307 11.8376 13.2417 12.0918 13.2196C12.2466 13.203 12.4124 13.1478 12.4787 13.087C12.7163 12.877 12.7495 12.6891 12.7495 11.545V10.4673H13.689V13.8939H12.8048V13.496L12.5726 13.6949C11.9039 14.2697 10.8207 13.9934 10.5996 13.192C10.5664 13.0759 10.5388 12.4293 10.5388 11.7219V10.4673H11.4783V12.9101Z" fill="white"/>
<path d="M5.1834 8.07423C5.11155 7.88633 4.80758 7.5492 4.63072 7.46077C3.90672 7.09048 3.01692 7.62657 3.01139 8.439C3.00034 9.35644 4.01726 9.89805 4.75784 9.37854C5.15024 9.10221 5.34367 8.49979 5.1834 8.07423Z" fill="white"/>
<path fill-rule="evenodd" clip-rule="evenodd" d="M5.02312 6.52675C5.49289 6.74782 5.85766 7.11258 6.07873 7.58235L6.25558 7.95265L6.27216 9.93674C6.28322 11.1692 6.26664 12.0203 6.23348 12.1861C5.87424 13.8497 3.87909 14.4742 2.63557 13.308C2.46977 13.1533 2.28739 12.9046 2.17686 12.6835L2 12.3188V7.89738L2.16028 7.56577C2.43661 7.00205 3.01692 6.52122 3.59722 6.372C3.69118 6.34989 3.96752 6.33331 4.21069 6.34437C4.57546 6.35542 4.72468 6.38858 5.02312 6.52675ZM3.74092 7.14574C3.30983 7.28391 2.92849 7.63762 2.79585 8.01344C2.73506 8.17924 2.71847 8.67112 2.71847 10.191C2.71847 12.1474 2.71847 12.153 2.85112 12.4017C3.02797 12.7443 3.17167 12.888 3.49222 13.0538C4.21622 13.4241 5.10602 13.0925 5.42657 12.3298C5.49289 12.164 5.50947 11.8048 5.50947 10.1523C5.50947 8.27872 5.49842 8.16266 5.39341 7.92501C5.16682 7.42208 4.76336 7.15127 4.21069 7.11811C4.02831 7.10706 3.81829 7.11811 3.74092 7.14574Z" fill="white"/>
<path fill-rule="evenodd" clip-rule="evenodd" d="M10.2072 7.39997C10.0414 6.96336 9.68215 6.5986 9.25107 6.43832C8.85314 6.29463 8.306 6.2891 7.90255 6.42727C7.12881 6.69255 6.73641 7.35576 6.79167 8.30083C6.83589 9.0193 7.13433 9.50566 7.70911 9.78752C7.98545 9.92569 8.08493 9.94227 8.54917 9.94227C9.01342 9.94227 9.1129 9.92569 9.38924 9.78752C9.99165 9.48908 10.268 9.0193 10.3067 8.22898C10.3233 7.81448 10.3067 7.67631 10.2072 7.39997ZM7.86937 8.79271C7.57092 8.16266 7.80305 7.23417 8.2894 7.13469C8.52152 7.08495 8.89181 7.14022 9.04103 7.24522C9.30632 7.44419 9.38922 7.67631 9.36711 8.21793C9.35053 8.59375 9.31737 8.73191 9.23447 8.8535C8.88629 9.31775 8.10149 9.28459 7.86937 8.79271Z" fill="white"/>
<path d="M13.6338 7.28944C13.5509 6.90257 13.3408 6.62623 13.0092 6.46043C12.5339 6.22278 11.9757 6.30568 11.611 6.65939L11.4231 6.84177V6.43279H10.5388V9.92016L11.4507 9.887L11.4783 8.69875C11.506 7.39997 11.5226 7.33365 11.8431 7.1789C12.0531 7.07942 12.1747 7.07389 12.4179 7.1568C12.7163 7.2618 12.7495 7.42761 12.7495 8.75402V9.92016L13.6614 9.887L13.678 8.72639C13.6835 8.05213 13.6669 7.44971 13.6338 7.28944Z" fill="white"/>
<path fill-rule="evenodd" clip-rule="evenodd" d="M10.2072 11.335C10.2072 10.9647 10.0635 10.6939 9.78716 10.5392C9.58267 10.4286 9.46661 10.412 8.32811 10.3789C7.64279 10.3568 7.06801 10.3623 7.0459 10.3844C7.01827 10.412 7.00169 11.2079 7.00169 12.164V13.8939H8.26178C9.3616 13.8939 9.54399 13.8773 9.73742 13.7889C10.1464 13.601 10.3177 13.3191 10.3177 12.8383C10.3177 12.5233 10.2182 12.2967 10.0082 12.1309L9.86454 12.0148L10.0359 11.8214C10.1796 11.6556 10.2072 11.5782 10.2072 11.335ZM7.72017 11.7385H8.51049C9.40029 11.7385 9.48872 11.7053 9.48872 11.3626C9.48872 11.0697 9.35055 11.02 8.48285 11.02H7.72017V11.7385ZM7.72017 12.8549C7.72017 12.6172 7.73675 12.4017 7.75885 12.3851C7.81412 12.3243 9.05211 12.3409 9.2787 12.4017C9.39476 12.4348 9.51083 12.5067 9.54399 12.5675C9.64347 12.7498 9.61031 13.0041 9.46109 13.1478C9.33397 13.2804 9.30634 13.2859 8.52154 13.2859H7.72017V12.8549Z" fill="white"/>
<path d="M15.8887 9.56645L15.8886 9.5681C15.8721 9.93676 15.8718 9.94229 15.7063 9.95885C15.4852 9.98648 15.3471 10.1191 15.3471 10.3126V10.4673H16.5077V10.3015C16.5077 9.73225 17.0051 9.27353 17.6793 9.21274L17.9999 9.17958V9.54434C17.9999 9.56144 17.9999 9.57775 17.9999 9.59331C18.0003 9.75746 18.0004 9.83874 17.9607 9.88751C17.9217 9.93535 17.8444 9.95191 17.6912 9.98473L17.6572 9.99201C17.5467 10.0196 17.4914 10.0749 17.4583 10.2076C17.4306 10.3015 17.4196 10.401 17.4306 10.4231C17.4417 10.4507 17.5743 10.4673 17.7291 10.4673H17.9999V11.1305H17.3919V13.8939H16.5077V11.1305H15.3471V13.8939H14.4075V11.1305H13.9101V10.4673H14.3854L14.4517 10.1468C14.5402 9.71567 14.7723 9.44486 15.1813 9.30669C15.3471 9.2459 15.5792 9.20169 15.6952 9.19616H15.9053L15.8887 9.56645Z" fill="white"/>
</svg>
