<svg width="20" height="20" viewBox="0 0 20 20" fill="none" xmlns="http://www.w3.org/2000/svg">
<path d="M10 20C15.5228 20 20 15.5228 20 10C20 4.47715 15.5228 0 10 0C4.47715 0 0 4.47715 0 10C0 15.5228 4.47715 20 10 20Z" fill="#FF0420"/>
<path d="M7.08215 12.6518C6.56186 12.674 6.04843 12.5266 5.6192 12.2317C5.43377 12.0901 5.28564 11.9054 5.18761 11.6936C5.08958 11.4819 5.0446 11.2495 5.05658 11.0164C5.05887 10.8807 5.07142 10.7452 5.09412 10.6114C5.15915 10.2507 5.25166 9.81806 5.37166 9.31347C5.71177 7.93806 6.58948 7.25035 8.00478 7.25035C8.35952 7.24454 8.71173 7.31092 9.04002 7.44544C9.33143 7.55965 9.58217 7.75816 9.76019 8.0156C9.9397 8.28086 10.0314 8.59576 10.0225 8.91593C10.0199 9.04919 10.0074 9.18208 9.98494 9.31347C9.90986 9.75861 9.81986 10.1912 9.71494 10.6114C9.54008 11.2965 9.23751 11.8091 8.80724 12.1492C8.3774 12.4843 7.80237 12.6518 7.08215 12.6518ZM7.18724 11.5715C7.44707 11.5787 7.70057 11.4907 7.90002 11.324C8.12045 11.1241 8.27041 10.8583 8.32756 10.5663C8.44265 10.0963 8.53008 9.6862 8.58986 9.33593C8.60998 9.22957 8.62003 9.12155 8.61986 9.0133C8.61986 8.55811 8.38232 8.33057 7.90724 8.33068C7.6453 8.3244 7.38979 8.41222 7.18707 8.57822C6.97072 8.78024 6.82367 9.04541 6.76691 9.33593C6.67685 9.67101 6.58685 10.0811 6.49691 10.5663C6.47655 10.6701 6.4665 10.7756 6.46691 10.8814C6.46691 11.3415 6.70702 11.5715 7.18724 11.5715Z" fill="white"/>
<path d="M10.3694 12.5765C10.3456 12.5779 10.3217 12.5739 10.2997 12.5648C10.2776 12.5558 10.2578 12.5418 10.2419 12.5241C10.2169 12.4837 10.2088 12.4352 10.2194 12.389L11.2547 7.51259C11.2638 7.45878 11.2931 7.41048 11.3366 7.37751C11.3768 7.34433 11.4271 7.32584 11.4793 7.32505H13.4748C13.9447 7.302 14.4104 7.42235 14.8102 7.67013C14.9746 7.77781 15.1081 7.92647 15.1976 8.10144C15.287 8.27642 15.3294 8.47169 15.3204 8.668C15.3197 8.79931 15.3046 8.93015 15.2753 9.05817C15.1926 9.56363 14.922 10.0192 14.5176 10.3336C14.1425 10.6086 13.6274 10.7462 12.9722 10.7462H11.9596L11.6145 12.3891C11.6053 12.4429 11.576 12.4912 11.5325 12.5242C11.4924 12.5574 11.4421 12.5759 11.3901 12.5767L10.3694 12.5765ZM13.0252 9.71063C13.2217 9.71496 13.4142 9.65434 13.5729 9.53817C13.7361 9.41831 13.8485 9.24169 13.8879 9.04308C13.9019 8.96884 13.9094 8.89353 13.9104 8.818C13.9147 8.75698 13.9054 8.69577 13.8834 8.63871C13.8614 8.58165 13.827 8.53015 13.7829 8.48784C13.6577 8.39538 13.5027 8.35262 13.3478 8.36784H12.4476L12.1625 9.71063H13.0252Z" fill="white"/>
</svg>
