<svg width="64" height="64" viewBox="0 0 64 64" fill="none" xmlns="http://www.w3.org/2000/svg">
<g clip-path="url(#clip0_85_68859)">
<mask id="mask0_85_68859" style="mask-type:luminance" maskUnits="userSpaceOnUse" x="0" y="0" width="64" height="64">
<path d="M64 0H0V64H64V0Z" fill="white"/>
</mask>
<g mask="url(#mask0_85_68859)">
<path d="M32 64C49.6733 64 64 49.6733 64 32C64 14.3269 49.6733 0 32 0C14.3269 0 0 14.3269 0 32C0 49.6733 14.3269 64 32 64Z" fill="#D1348C"/>
<path d="M29.6633 18.4448L37.2855 17.3933L30.189 35.0666C33.3431 34.6922 36.2883 33.9392 40.6144 26.4171C45.2 18.4446 41.4029 11.4359 30.189 15.9916C21.2177 19.6362 20.2599 27.5561 20.9024 31.0605C17.7956 31.8774 14.339 29.4044 17.0383 23.7721C21.863 13.705 36.4579 10.8646 42.6186 13.0354C48.7789 15.2062 50.0695 21.4839 44.7891 29.4043C40.728 35.496 33.1603 36.8701 29.4887 36.8106L23.5306 51.649H15.9086L29.6633 18.4448Z" fill="white"/>
</g>
<path d="M48 64C56.8366 64 64 56.8366 64 48C64 39.1634 56.8366 32 48 32C39.1634 32 32 39.1634 32 48C32 56.8366 39.1634 64 48 64Z" fill="#131419"/>
<path fill-rule="evenodd" clip-rule="evenodd" d="M42.9111 45.9146L48 40.8253L53.089 45.9146L56.0474 42.9562L48 34.9088L39.9527 42.9562L42.9111 45.9146ZM37.8647 45.0503L34.9098 48.0051L37.8647 50.96L40.8195 48.0051L37.8647 45.0503ZM48 55.1824L42.9111 50.0931L39.9527 53.0515L48 61.0989L56.0474 53.0515L53.089 50.0931L48 55.1824ZM58.136 45.0506L55.1812 48.0055L58.136 50.9603L61.0909 48.0055L58.136 45.0506ZM48.0016 45.0042L51.0013 48.0039L48.0016 51.0035L45.002 48.0039L45.5191 47.4659L45.7879 47.2179L48.0016 45.0042Z" fill="#F0B90B"/>
</g>
<defs>
<clipPath id="clip0_85_68859">
<rect width="64" height="64" fill="white"/>
</clipPath>
</defs>
</svg>
