<svg width="64" height="64" viewBox="0 0 64 64" fill="none" xmlns="http://www.w3.org/2000/svg">
<g clip-path="url(#clip0_85_69203)">
<path d="M0 32C0 49.6731 14.3269 64 32 64C49.6731 64 64 49.6731 64 32C64 14.3269 49.6731 0 32 0C14.3269 0 0 14.3269 0 32Z" fill="#62BDEB"/>
<path d="M36.7805 23.122V19.161H27.7657V27.9024H45.522L49.7559 32.1366V50.1658L45.522 54.4H19.0243L14.2438 49.6195V41.1514H27.7657V45.3853H36.7805V36.9171H19.0243L14.2438 32.1366V14.3805L19.0243 9.60001H45.522L49.7559 13.8342V23.122H36.7805Z" fill="white"/>
</g>
<defs>
<clipPath id="clip0_85_69203">
<rect width="64" height="64" fill="white"/>
</clipPath>
</defs>
</svg>
