<svg width="64" height="64" viewBox="0 0 64 64" fill="none" xmlns="http://www.w3.org/2000/svg">
<g clip-path="url(#clip0_85_69206)">
<path d="M0 32C0 49.6731 14.3269 64 32 64C49.6731 64 64 49.6731 64 32C64 14.3269 49.6731 0 32 0C14.3269 0 0 14.3269 0 32Z" fill="#62BDEB"/>
<path d="M36.7805 23.122V19.161H27.7657V27.9024H45.522L49.7559 32.1366V50.1658L45.522 54.4H19.0243L14.2438 49.6195V41.1514H27.7657V45.3853H36.7805V36.9171H19.0243L14.2438 32.1366V14.3805L19.0243 9.60001H45.522L49.7559 13.8342V23.122H36.7805Z" fill="white"/>
<mask id="mask0_85_69206" style="mask-type:luminance" maskUnits="userSpaceOnUse" x="32" y="32" width="32" height="32">
<path d="M64 32H32V64H64V32Z" fill="white"/>
</mask>
<g mask="url(#mask0_85_69206)">
<path d="M48 64C56.8365 64 64 56.8365 64 48C64 39.1635 56.8365 32 48 32C39.1635 32 32 39.1635 32 48C32 56.8365 39.1635 64 48 64Z" fill="#8247E5"/>
<path fill-rule="evenodd" clip-rule="evenodd" d="M42.9015 39.2816C42.7956 39.321 41.6861 39.9226 40.4356 40.6189C38.8276 41.5142 38.1153 41.927 38.0017 42.0301C37.9101 42.113 37.8013 42.2544 37.7485 42.3584L37.6564 42.5408V45.3686V48.1971L37.7476 48.3773C37.921 48.7197 37.9767 48.7555 40.4807 50.1478C41.7591 50.8586 42.8689 51.4592 42.9466 51.4826C43.1565 51.5456 43.546 51.537 43.7524 51.4643C43.9169 51.4067 45.4653 50.5517 47.7345 49.2656C50.2509 47.8394 52.1092 46.8115 52.2625 46.7603C52.3879 46.7187 52.4983 46.7085 52.7143 46.7178C53.0733 46.7338 53.0714 46.7328 54.5853 47.5766C55.8455 48.279 55.9956 48.3862 56.1652 48.7056C56.2173 48.8042 56.2756 48.968 56.2941 49.0698C56.3402 49.321 56.3399 51.8557 56.2938 52.1053C56.2455 52.368 56.1239 52.5962 55.9399 52.7693C55.7357 52.9616 53.2468 54.3897 53.0074 54.4518C52.7905 54.5081 52.5015 54.505 52.2948 54.4435C52.2013 54.416 51.5498 54.0749 50.8468 53.6858C49.4356 52.9046 49.2977 52.8058 49.1226 52.447L49.0311 52.2595L49.0157 51.2528L49.0001 50.2458L47.9927 50.815L46.9853 51.3843L46.985 52.2813C46.9847 52.8275 46.9981 53.2429 47.0196 53.344C47.0826 53.641 47.2292 53.8765 47.4532 54.0397C47.7197 54.2342 52.1776 56.6922 52.3399 56.7341C52.5828 56.7971 52.906 56.785 53.1297 56.704C53.2356 56.6656 54.3457 56.065 55.5965 55.369C58.0762 53.9888 58.1018 53.9718 58.2852 53.5987L58.3751 53.4157V50.6032V47.7907L58.2836 47.6106C58.1114 47.2704 58.0516 47.2314 55.5389 45.8256C54.2541 45.1069 53.1361 44.4979 53.0545 44.4723C52.8426 44.4061 52.474 44.4083 52.2657 44.4771C52.1709 44.5085 51.4116 44.9235 50.578 45.4C49.7444 45.8762 48.5633 46.5405 47.953 46.8758C47.3431 47.2115 46.1777 47.8672 45.3636 48.3334C44.5495 48.7997 43.8122 49.2022 43.7252 49.2282C43.5034 49.2938 43.1271 49.2886 42.9191 49.2166C42.7316 49.152 40.3665 47.8304 40.1345 47.6608C39.9585 47.5322 39.753 47.2352 39.6877 47.0163C39.6161 46.7747 39.6183 43.9571 39.6903 43.7104C39.7511 43.5027 39.8877 43.2819 40.0417 43.1427C40.2045 42.9958 42.7249 41.601 42.9421 41.5379C43.1341 41.4822 43.4951 41.4896 43.7066 41.5539C43.7687 41.5728 44.4017 41.9114 45.113 42.3062C46.3015 42.9664 46.4218 43.0406 46.5981 43.2243C46.9236 43.5638 46.9338 43.608 46.9527 44.7622L46.9687 45.7338L47.9623 45.1715L48.9556 44.609L48.9466 43.5898L48.9373 42.5706L48.8349 42.3622C48.7706 42.2317 48.6762 42.104 48.5815 42.0192C48.4426 41.895 44.1073 39.4128 43.8068 39.2854C43.7357 39.2554 43.5677 39.2298 43.3908 39.2224C43.1386 39.2122 43.0647 39.2211 42.9015 39.2816Z" fill="white"/>
</g>
</g>
<defs>
<clipPath id="clip0_85_69206">
<rect width="64" height="64" fill="white"/>
</clipPath>
</defs>
</svg>
