<svg width="64" height="64" viewBox="0 0 64 64" fill="none" xmlns="http://www.w3.org/2000/svg">
<g clip-path="url(#clip0_85_69215)">
<path d="M0 32C0 49.6731 14.3269 64 32 64C49.6731 64 64 49.6731 64 32C64 14.3269 49.6731 0 32 0C14.3269 0 0 14.3269 0 32Z" fill="#62BDEB"/>
<path d="M36.7805 23.1219V19.161H27.7657V27.9024H45.522L49.7559 32.1366V50.1658L45.522 54.4H19.0243L14.2438 49.6195V41.1514H27.7657V45.3853H36.7805V36.9171H19.0243L14.2438 32.1366V14.3805L19.0243 9.6H45.522L49.7559 13.8341V23.1219H36.7805Z" fill="white"/>
<path d="M48 64C56.8366 64 64 56.8366 64 48C64 39.1634 56.8366 32 48 32C39.1634 32 32 39.1634 32 48C32 56.8366 39.1634 64 48 64Z" fill="#131419"/>
<path fill-rule="evenodd" clip-rule="evenodd" d="M42.9111 45.9146L48 40.8253L53.089 45.9146L56.0474 42.9562L48 34.9088L39.9527 42.9562L42.9111 45.9146ZM37.8647 45.0503L34.9098 48.0051L37.8647 50.96L40.8195 48.0051L37.8647 45.0503ZM48 55.1824L42.9111 50.0931L39.9527 53.0515L48 61.0989L56.0474 53.0515L53.089 50.0931L48 55.1824ZM58.136 45.0506L55.1812 48.0055L58.136 50.9603L61.0909 48.0055L58.136 45.0506ZM48.0016 45.0042L51.0013 48.0039L48.0016 51.0035L45.002 48.0039L45.5191 47.4659L45.7879 47.2179L48.0016 45.0042Z" fill="#F0B90B"/>
</g>
<defs>
<clipPath id="clip0_85_69215">
<rect width="64" height="64" fill="white"/>
</clipPath>
</defs>
</svg>
