<svg width="64" height="64" viewBox="0 0 64 64" fill="none" xmlns="http://www.w3.org/2000/svg">
<path d="M32 63.9772C49.248 63.9772 63.2303 49.9949 63.2303 32.7469C63.2303 15.4989 49.248 1.51657 32 1.51657C14.752 1.51657 0.769695 15.4989 0.769695 32.7469C0.769695 49.9949 14.752 63.9772 32 63.9772Z" fill="#F00500"/>
<path d="M40.3331 20.2664C38.8211 19.7561 35.0717 18.7356 32.1686 18.7356C28.5851 18.7356 24.9678 19.5294 23.607 19.9263C18.2093 13.7574 14.0249 11.686 12.6075 11.4214C9.56838 16.4109 12.1728 26.2387 13.8549 30.5289C12.4185 33.1558 9.70445 39.4762 10.3395 43.7398C11.1333 49.0694 21.0556 58.9917 32.5088 58.9917C43.9619 58.9917 52.6368 48.8426 53.2038 43.7398C53.6576 39.6576 51.2762 33.2317 50.0288 30.5289C53.7936 19.3706 52.6938 13.3303 51.673 11.7049C47.5907 11.7503 42.4122 17.4315 40.3331 20.2664Z" fill="#FFA409"/>
<path d="M24.8644 30.4097C24.3964 29.074 23.3804 28.255 21.9821 28.4262C20.5837 28.5975 19.5705 29.3537 19.5705 30.9091C19.5705 32.4643 20.9404 32.5357 22.4672 32.4218C23.994 32.3075 25.4495 32.079 24.8644 30.4097Z" fill="white"/>
<path d="M32.5078 58.992C43.9613 58.992 52.6362 48.8429 53.2032 43.7399C50.8864 43.064 45.208 42.8115 41.0272 47.2067C40.655 44.497 38.3382 39.0775 32.049 39.0775C25.7598 39.0775 23.056 44.497 22.4902 47.2067C21.3127 45.6547 17.2339 42.7888 10.3387 43.7399C11.1325 49.0695 21.0548 58.992 32.5078 58.992Z" fill="white"/>
<path d="M41.3427 28.4262C39.9446 28.255 38.9286 29.074 38.4605 30.4097C37.8755 32.079 39.3309 32.3075 40.8576 32.4218C42.3846 32.5357 43.7546 32.4643 43.7546 30.9091C43.7546 29.3537 42.7411 28.5975 41.3427 28.4262Z" fill="white"/>
<path d="M14.8287 27.4777C13.767 25.1773 11.9621 19.4542 13.2362 14.9647C14.6265 15.2175 18.1806 16.7241 21.2747 20.7282C19.9097 21.4361 16.7096 23.7769 14.8287 27.4777Z" fill="#FF8300"/>
<path d="M48.5923 27.4777C49.6541 25.1773 51.4589 19.4542 50.185 14.9647C48.7946 15.2175 45.2406 16.7241 42.1466 20.7282C43.5114 21.4361 46.7117 23.7769 48.5923 27.4777Z" fill="#FF8300"/>
<path d="M27.134 38.8374C27.1208 38.1936 26.1404 36.3027 23.0806 34.9779C20.0209 33.6531 19.1297 33.6195 18.972 33.633C18.7486 34.0272 18.3885 35.1389 18.7355 36.4323C20.0511 37.4419 23.6465 39.6685 27.134 38.8374Z" fill="black"/>
<path d="M36.7709 38.8374C36.784 38.1936 37.7645 36.3027 40.8243 34.9779C43.8842 33.6531 44.7754 33.6195 44.9331 33.633C45.1565 34.0272 45.5165 35.1389 45.1696 36.4323C43.8538 37.4419 40.2586 39.6685 36.7709 38.8374Z" fill="black"/>
<path d="M33.0128 47.5782C34.5734 47.3139 35.7616 45.9555 35.7616 44.3197V43.7168C35.7616 42.9075 35.1056 42.2515 34.2963 42.2515H30.6163C29.8069 42.2515 29.1508 42.9075 29.1508 43.7168V44.3197C29.1508 46.0678 30.5081 47.4989 32.2262 47.6173L31.493 50.0182L26.7998 49.7946L28.7926 53.3146L29.016 50.6512C30.3879 50.8624 33.7203 51.1578 36.0746 50.6512L36.4096 53.3146C37.0054 52.1411 38.1789 49.7946 38.1043 49.7946C38.0298 49.7946 35.2054 49.9437 33.8022 50.0182L33.0202 47.5782H33.0128Z" fill="black"/>
<path d="M34.3984 51.3776H30.3011L30.9902 52.2157L31.493 51.7872L32.4429 52.7373L33.3181 51.7872L33.8022 52.2157L34.3984 51.3776Z" fill="black"/>
<path d="M48 64C56.8366 64 64 56.8366 64 48C64 39.1634 56.8366 32 48 32C39.1634 32 32 39.1634 32 48C32 56.8366 39.1634 64 48 64Z" fill="#131419"/>
<path fill-rule="evenodd" clip-rule="evenodd" d="M42.9111 45.9146L48 40.8253L53.089 45.9146L56.0474 42.9562L48 34.9088L39.9527 42.9562L42.9111 45.9146ZM37.8647 45.0503L34.9098 48.0051L37.8647 50.96L40.8195 48.0051L37.8647 45.0503ZM48 55.1824L42.9111 50.0931L39.9527 53.0515L48 61.0989L56.0474 53.0515L53.089 50.0931L48 55.1824ZM58.136 45.0506L55.1812 48.0055L58.136 50.9603L61.0909 48.0055L58.136 45.0506ZM48.0016 45.0042L51.0013 48.0039L48.0016 51.0035L45.002 48.0039L45.5191 47.4659L45.7879 47.2179L48.0016 45.0042Z" fill="#F0B90B"/>
</svg>
