<svg width="20" height="20" viewBox="0 0 20 20" fill="none" xmlns="http://www.w3.org/2000/svg">
<g clip-path="url(#clip0_2469_3474)">
<path d="M14.2075 6.82369C14.1561 6.80495 14.1237 6.79376 14.0905 6.77982C14.0776 6.77582 14.065 6.77111 14.0527 6.76571C13.9918 6.72963 13.9411 6.67688 13.8784 6.64488C13.622 6.51994 13.3336 6.47597 13.0517 6.51882C12.9256 6.53421 12.8355 6.53153 12.7748 6.39391C12.7123 6.29413 12.6381 6.20215 12.5539 6.11991C12.5277 6.09203 12.5117 6.05616 12.5084 6.01807C12.5185 5.90216 12.5295 5.78651 12.5435 5.67079C12.5571 5.55872 12.5738 5.44665 12.5775 5.33428C12.5953 4.80302 12.6042 4.27143 12.6041 3.73952C12.5696 3.53112 12.5583 3.31955 12.5703 3.10866C12.7145 2.61197 12.7852 2.09684 12.7801 1.57966C12.7578 1.15524 12.733 0.730658 12.6936 0.307478C12.6912 0.26559 12.6789 0.224869 12.6576 0.188708C12.6364 0.152548 12.6067 0.121996 12.5713 0.0995999C12.5358 0.0772041 12.4955 0.063613 12.4537 0.0599598C12.4119 0.0563066 12.3698 0.0626971 12.331 0.0785985C11.7049 0.205268 11.1334 0.522715 10.695 0.987319C10.6713 1.00882 10.6433 1.02498 10.6129 1.03471C10.5824 1.04443 10.5502 1.04748 10.5184 1.04366C10.0219 0.960496 9.51612 0.947613 9.01599 1.00539C8.97164 1.01433 8.9258 1.01249 8.88231 1.00004C8.83881 0.987585 8.79895 0.964876 8.76606 0.933819C8.40738 0.579219 7.96439 0.321678 7.47878 0.185418C6.93602 0.0382985 6.80326 0.0701185 6.70336 0.648659C6.64339 1.1738 6.65543 1.70467 6.73914 2.22656C6.76822 2.51629 6.83241 2.80473 6.83624 3.09433C6.84348 3.63679 6.80284 4.17986 6.81215 4.72219C6.81847 5.08699 6.87639 5.45094 6.90852 5.78684C6.75459 5.86761 6.60876 5.96294 6.47302 6.07152C6.45402 6.08989 6.44059 6.11392 6.42337 6.13406L5.16842 1.78565H5.16848L5.12912 1.64912C5.12912 1.64912 5.13612 1.52799 4.91618 1.51284L4.91078 1.51303C4.67576 1.51631 4.44332 1.56243 4.22486 1.64913C4.19428 1.65829 4.16612 1.67414 4.14241 1.69552C4.1187 1.7169 4.10005 1.74328 4.08779 1.77276C4.08493 1.77909 4.08006 1.78376 4.07779 1.79034C4.06302 1.83937 4.0593 1.89107 4.0669 1.94172C4.06842 1.96323 4.07129 1.98462 4.07548 2.00578L4.07554 2.00609H4.0756C4.09138 2.07491 4.11382 2.14203 4.1426 2.2065L5.27533 6.6875C5.15116 6.82706 5.08289 7.00756 5.08362 7.19436C5.00134 7.20259 4.91955 7.2152 4.83862 7.23214C4.47917 7.32559 4.13755 7.43814 4.09599 7.87261C4.09143 7.92013 4.03375 7.96892 3.99043 8.00634C3.80743 8.14437 3.67021 8.33427 3.59661 8.55134C3.36638 9.27095 3.41551 10.0509 3.73423 10.7359C3.75171 10.7775 3.75403 10.8238 3.7408 10.8669C3.59702 11.2938 3.54867 11.747 3.59916 12.1946C3.64965 12.6422 3.79775 13.0732 4.03302 13.4573C4.12975 13.633 4.18332 13.8292 4.18932 14.0296C4.22388 14.4503 4.37591 14.8528 4.62811 15.1913L4.66449 15.1674L4.62805 15.1913C4.79692 15.4157 4.98467 15.6253 5.18924 15.8177C5.32639 15.9699 5.49837 16.0866 5.69045 16.1578C5.88254 16.2291 6.08902 16.2527 6.29224 16.2267C6.29354 16.2818 6.28646 16.3368 6.27124 16.3897C5.87223 17.1819 5.58826 18.027 5.42793 18.8993C5.36252 19.2581 5.31714 19.6202 5.2611 19.9909H5.54553L6.31693 19.9902C6.3838 19.9924 6.4506 19.9964 6.51746 19.9964C8.84674 19.9968 11.176 19.9967 13.5053 19.9962C13.6054 19.9962 13.7055 19.9898 13.8057 19.9863L13.972 19.989L14.4091 19.9903C14.7185 20.0089 14.7185 20.0089 14.7836 19.9166C14.7483 19.8787 14.718 19.8365 14.6932 19.791C14.6348 19.6533 14.5859 19.5117 14.5469 19.3673C14.3685 18.6152 14.2006 17.8607 14.0209 17.1089C13.9715 16.9026 13.8936 16.7024 13.8299 16.4992C13.8048 16.4194 13.7825 16.3389 13.7662 16.2835C13.9349 16.259 14.101 16.2195 14.2626 16.1653C14.812 15.9112 15.2601 15.4799 15.535 14.9407C15.7002 14.644 15.7889 14.311 15.7932 13.9715C15.802 13.8067 15.8523 13.6467 15.9394 13.5065C16.1886 13.1214 16.3473 12.685 16.4038 12.2299C16.4603 11.7748 16.413 11.3128 16.2656 10.8785C16.2498 10.8349 16.2501 10.7872 16.2666 10.7438C16.5433 10.149 16.6207 9.48068 16.4872 8.83832C16.4367 8.5971 16.3332 8.3701 16.1843 8.17374C16.0353 7.97738 15.8446 7.81654 15.626 7.70285L15.6259 7.70297L15.5177 7.64158L15.4904 7.6114C15.4761 7.40807 15.3191 7.32856 15.1477 7.29807C14.8653 7.24788 14.578 7.22014 14.2916 7.19458L14.2075 6.82369ZM7.65906 1.69232V1.69226L7.66198 1.69503L7.65906 1.69232ZM7.00368 3.00478C7.00368 2.99863 7.00624 2.99218 7.006 2.9861C7.00618 2.99212 7.00368 2.99869 7.00368 3.00478ZM6.95768 5.10159C6.93551 4.9196 6.92261 4.7366 6.91904 4.5533C6.92262 4.7366 6.93552 4.9196 6.95769 5.10159H6.95768ZM12.0996 0.287568C12.3975 0.162238 12.5316 0.176838 12.5778 0.363128C12.5315 0.176838 12.3975 0.162298 12.0996 0.287628C11.9162 0.36681 11.7375 0.456602 11.5645 0.556548C11.7375 0.456618 11.9162 0.366807 12.0996 0.287568V0.287568ZM11.0454 0.858499C10.9418 0.930043 10.8442 1.00975 10.7533 1.09687H10.7532C10.8441 1.00977 10.9418 0.930056 11.0454 0.858499V0.858499ZM9.18312 1.17858C9.32579 1.17384 9.46812 1.16142 9.61059 1.15224C10.0324 1.11571 10.4572 1.16289 10.8607 1.29108C10.8885 1.29793 10.9177 1.2966 10.9448 1.28724C10.9177 1.29662 10.8885 1.29797 10.8607 1.29114C10.4572 1.16289 10.0323 1.11571 9.61053 1.1523C9.4681 1.16142 9.32573 1.1739 9.18312 1.17864C9.11388 1.18095 9.04453 1.17964 8.97523 1.17937C9.04453 1.17962 9.11388 1.18089 9.18312 1.17858ZM8.72612 1.06597C8.48237 0.882529 8.23514 0.703372 7.98444 0.528498H7.9845C8.23454 0.704018 8.48174 0.883175 8.72609 1.06597H8.72612ZM7.89324 0.553868H7.89318L7.45756 0.354678L7.89324 0.553868ZM6.93384 0.297238C6.93888 0.282056 6.94695 0.268052 6.95755 0.25607C6.96815 0.244088 6.98107 0.234376 6.99553 0.227518C7.12216 0.19699 7.2557 0.217047 7.36778 0.283428C7.25569 0.217069 7.12215 0.197033 6.99553 0.227578C6.98107 0.234427 6.96814 0.244137 6.95754 0.25612C6.94694 0.268103 6.93887 0.282111 6.93384 0.297298C6.92909 0.319878 6.92584 0.342688 6.92143 0.365298C6.92587 0.342688 6.92909 0.319808 6.93384 0.297238Z" fill="white" stroke="black" stroke-width="0.06609" stroke-miterlimit="10"/>
<path d="M4.2247 1.64917C5.14697 1.33895 5.12896 1.64917 5.12896 1.64917L6.56755 6.63417L5.39613 7.16563L4.14252 2.20649C4.14252 2.20649 3.9083 1.7556 4.2247 1.64917Z" fill="#9B0303" stroke="black" stroke-width="0.09368" stroke-miterlimit="10"/>
<path d="M5.12891 1.64908C5.12891 1.64908 5.14691 1.33891 4.22463 1.64908C4.04821 1.70844 4.0455 1.87043 4.07536 2.00602C4.44383 1.95492 4.80882 1.88131 5.16829 1.78561L5.12891 1.64908Z" fill="#EE9A20" stroke="black" stroke-width="0.09368" stroke-miterlimit="10"/>
<path d="M4.86863 2.746L4.61963 2.605L4.76663 2.367L5.01663 2.508L4.86863 2.746Z" fill="#FEFCF8"/>
<path d="M5.05273 3.42597L4.80273 3.28497L4.95073 3.04797L5.19973 3.18797L5.05273 3.42597Z" fill="#FEFCF8"/>
<path d="M5.23582 4.10603L4.98682 3.96603L5.13382 3.72803L5.38382 3.86803L5.23582 4.10603Z" fill="#FEFCF8"/>
<path d="M5.41992 4.78602L5.16992 4.64602L5.31792 4.40802L5.56692 4.54902L5.41992 4.78602Z" fill="#FEFCF8"/>
<path d="M5.60254 5.46701L5.35254 5.32601L5.50054 5.08801L5.75054 5.22901L5.60254 5.46701Z" fill="#FEFCF8"/>
<path d="M5.78662 6.14701L5.53662 6.00601L5.68462 5.76801L5.93362 5.90901L5.78662 6.14701Z" fill="#FEFCF8"/>
<path d="M13.8057 19.9863C13.7055 19.9897 13.6054 19.9962 13.5053 19.9962C11.176 19.9968 8.84669 19.9968 6.51741 19.9964C6.45057 19.9964 6.38373 19.9924 6.31689 19.9902C6.38726 19.5844 6.43718 19.1741 6.53357 18.774C6.60834 18.3369 6.76361 17.9174 6.9915 17.537C7.00207 17.5062 7.00596 17.4735 7.00291 17.4411C6.99986 17.4086 6.98995 17.3772 6.97383 17.3489C6.78039 16.9577 6.67156 16.5302 6.65444 16.0941L7.05421 16.0679C7.35214 16.196 7.66134 16.2961 7.9778 16.3669C8.57163 16.4474 9.17436 16.4759 9.77453 16.5032C10.1169 16.5187 10.4615 16.4917 10.805 16.4793C11.0391 16.483 11.2732 16.4689 11.5051 16.4369C12.0286 16.336 12.5461 16.2074 13.066 16.09L13.1987 16.0626C13.0912 16.4716 12.9896 16.8823 12.8729 17.289C12.8542 17.3512 12.8501 17.4168 12.8609 17.4809C12.8717 17.5449 12.8971 17.6056 12.9351 17.6582C13.0608 17.8645 13.158 18.0866 13.2671 18.302C13.2689 18.3543 13.2746 18.4063 13.284 18.4578C13.3805 18.8353 13.481 19.212 13.5772 19.5896C13.6074 19.708 13.6287 19.8286 13.6551 19.9531L13.8055 19.9773L13.8057 19.9863ZM6.62527 19.8205L6.65136 19.9214L6.70911 19.9061L6.66718 19.8062C6.66794 19.7481 6.66418 19.6895 6.67018 19.6319C6.71924 19.1262 6.84908 18.6316 7.05475 18.167C7.06959 18.1339 7.04851 18.0862 7.04414 18.0453C6.99809 18.0643 6.93214 18.0711 6.9097 18.1045C6.83403 18.2052 6.77351 18.3164 6.73004 18.4346C6.65743 18.6747 6.60898 18.9215 6.55058 19.1656C6.45558 19.1933 6.47215 19.2411 6.52473 19.2956L6.55408 19.4214C6.52056 19.4776 6.5082 19.544 6.51923 19.6085C6.53026 19.673 6.56396 19.7315 6.61426 19.7734L6.62527 19.8205ZM9.17416 19.527C9.20097 19.5924 9.24767 19.6477 9.30766 19.6852C9.36764 19.7226 9.43788 19.7402 9.50841 19.7355C9.89629 19.7507 10.2847 19.7462 10.6721 19.7219C10.9388 19.686 11.203 19.6331 11.4629 19.5635C10.703 19.6746 9.93015 19.6622 9.17416 19.527V19.527Z" fill="#333333"/>
<path d="M14.7773 12.549C14.4034 12.4112 14.0321 12.2662 13.6541 12.1394C13.597 12.1292 13.5457 12.0982 13.5101 12.0525C13.4745 12.0067 13.457 11.9494 13.4611 11.8916C13.4597 11.547 13.4983 11.2033 13.5763 10.8677C13.6216 10.6011 13.6591 10.3333 13.7029 10.0665C13.7159 10.0117 13.7325 9.95784 13.7526 9.90522C14.1179 10.0095 14.4671 10.1092 14.8481 10.218L14.7437 10.0753L14.709 10.0451L14.7107 10.0474L14.6751 10.0147L14.6757 10.0154C14.3268 9.78087 13.978 9.54631 13.6292 9.31176C13.6164 9.3015 13.6029 9.29201 13.589 9.28333C13.4001 9.18687 13.265 9.07315 13.3958 8.84433C13.4139 8.78244 13.4204 8.71776 13.4152 8.65351L13.6678 8.56896L13.701 8.48766C13.6047 8.5123 13.5083 8.53714 13.4135 8.56151L13.1767 8.21588C13.4764 7.82288 13.7811 7.4228 14.0871 7.02355C14.0952 7.01292 14.1156 7.01089 14.1304 7.0048L14.2075 6.8238C14.156 6.80505 14.1237 6.79388 14.0905 6.77994H13.6243C13.6755 6.792 13.7254 6.80856 13.7736 6.82942C13.9408 6.92811 13.9288 6.98355 13.7683 7.08861C13.4468 7.299 13.1299 7.51661 12.8207 7.74313C12.7698 7.79178 12.7059 7.82468 12.6368 7.83785C12.5676 7.85103 12.4961 7.84392 12.4309 7.81738C12.1878 7.72738 11.9297 7.67449 11.6785 7.60395C11.6416 7.58891 11.6059 7.57086 11.572 7.55C11.9535 7.24857 12.2425 6.8459 12.406 6.388C12.4658 6.41228 12.5198 6.44901 12.5643 6.49574C12.6088 6.54248 12.6429 6.59815 12.6642 6.65905C12.6856 6.71996 12.6937 6.78472 12.6881 6.84902C12.6825 6.91332 12.6633 6.97569 12.6318 7.032L12.6834 7.02916C12.7035 6.98485 12.7192 6.93869 12.7304 6.89134C12.7347 6.83671 12.7599 6.78583 12.8008 6.74936C12.8417 6.71288 12.8951 6.69364 12.9499 6.69564C13.1782 6.67183 13.4089 6.70063 13.6243 6.77985H14.0905C14.0777 6.77584 14.0651 6.77112 14.0527 6.7657C13.9918 6.72962 13.9411 6.67689 13.8784 6.64487C13.622 6.51997 13.3336 6.47602 13.0516 6.51887C12.9256 6.53423 12.8355 6.53159 12.7748 6.39397C12.7123 6.29418 12.6381 6.2022 12.5539 6.11997C12.5277 6.09209 12.5117 6.0562 12.5084 6.01809C12.5185 5.9022 12.5295 5.78652 12.5435 5.67083H12.4016C12.3234 6.27015 12.0609 6.83035 11.6502 7.27383C11.5492 7.3864 11.4082 7.45507 11.2572 7.46519C11.1063 7.47532 10.9574 7.42611 10.8422 7.32805L10.619 7.303L10.8838 7.67781L10.941 7.70848C10.9712 7.6816 11.0024 7.63212 11.0314 7.6332C11.0796 7.64165 11.1246 7.66259 11.1622 7.69392C11.5017 7.92733 11.8398 8.16256 12.1924 8.40692C12.0523 8.56512 12.1693 8.9023 11.7918 8.87772L11.7526 9.11343C11.7435 9.14924 11.7364 9.18572 11.7248 9.22079C11.6244 9.52269 11.6213 9.50103 11.305 9.53989L11.2587 9.54632C11.2671 9.59688 11.2764 9.64488 11.2876 9.68603C11.3689 9.6737 11.4511 9.66865 11.5333 9.67094C11.7634 9.69597 11.9851 9.77108 12.183 9.89101C12.2402 9.87232 12.2987 9.85501 12.3592 9.83875L12.3579 9.83821C12.2667 9.77487 12.1713 9.71783 12.0724 9.66749L12.3581 9.28855C12.5149 9.41784 12.8195 9.38508 12.7629 9.69355C12.9775 9.6222 13.1523 9.75508 13.3449 9.79644L13.4741 9.85256L13.5942 9.86366C13.4632 10.5713 13.3344 11.2678 13.2045 11.9696C13.1839 11.9649 13.1639 11.9579 13.145 11.9486C13.1647 11.7233 12.918 11.4968 13.1481 11.2706C13.1697 11.2493 13.1608 11.1997 13.166 11.1633L13.1508 11.1668L13.1353 11.1644L12.991 10.8159L12.8619 10.6589L12.8307 10.5897C12.8125 10.4511 12.7747 10.3157 12.7183 10.1877C12.6349 10.0509 12.5203 9.9412 12.6613 9.78429C12.6256 9.79691 12.5915 9.81382 12.5599 9.83465C12.5475 9.84892 12.5322 9.86044 12.5151 9.86846C12.498 9.87649 12.4793 9.88083 12.4604 9.88122C12.4415 9.88161 12.4227 9.87803 12.4053 9.87072C12.3879 9.86341 12.3721 9.85253 12.3592 9.83878C12.2987 9.85509 12.2402 9.87235 12.183 9.89104C12.333 9.9726 12.4657 10.0826 12.5737 10.2149C12.6295 10.2872 12.6889 10.3689 12.5857 10.4563C12.3894 10.3756 12.2315 10.2024 11.941 10.2095C11.9774 10.2513 12.0178 10.2895 12.0616 10.3235C12.2003 10.4029 12.3402 10.4808 12.4832 10.5529C12.6205 10.6119 12.7376 10.7097 12.8202 10.8341C12.9028 10.9586 12.9474 11.1045 12.9485 11.2539C12.9509 11.3357 12.9586 11.4315 12.832 11.4482L12.832 11.5131C12.8861 11.567 12.9281 11.6317 12.9551 11.7031C12.9821 11.7745 12.9935 11.8509 12.9886 11.927C12.9837 12.0032 12.9626 12.0774 12.9266 12.1447C12.8907 12.2121 12.8407 12.2709 12.7802 12.3174C12.6232 12.4443 12.4452 12.5429 12.2542 12.6085C11.9904 12.7004 11.9177 12.6275 11.9393 12.3527L12.2597 12.2826L12.2474 12.2399L12.0239 12.1884C12.177 11.963 12.2527 11.6939 12.2395 11.4216C12.2264 11.1494 12.1251 10.8889 11.9509 10.6792C11.8259 10.4358 11.6363 10.2315 11.403 10.0886C11.1697 9.94561 10.9016 9.86952 10.628 9.86861C10.8321 9.76091 11.0571 9.69866 11.2876 9.68611C11.2764 9.64496 11.2671 9.59696 11.2587 9.5464C10.951 9.54946 10.6562 9.67054 10.4352 9.88465C10.2996 9.99826 10.1493 10.0929 9.98821 10.1661C9.81932 10.0455 9.62812 9.91478 9.44388 9.77567C9.21219 9.63504 8.95038 9.55154 8.68005 9.53205C8.6292 9.51665 8.58027 9.49551 8.53419 9.46905C8.47747 9.27214 8.42081 9.07524 8.36419 8.87837C8.31436 8.87797 8.2649 8.86972 8.21762 8.85394C8.16677 8.8306 8.12484 8.79141 8.09813 8.74224C8.05767 8.62665 8.02313 8.50907 7.99464 8.38997C8.38935 8.12009 8.79458 7.84297 9.19988 7.56589C9.25681 7.55601 9.29904 7.39917 9.37211 7.55025L9.47397 7.32599L9.47346 7.32536L9.17258 7.38993C8.95208 7.45193 8.7473 7.60404 8.4863 7.49168L8.52091 7.59105C8.20991 7.67912 7.90191 7.76847 7.59191 7.85132C7.54894 7.85694 7.50538 7.84701 7.46908 7.82332C7.36246 7.7582 7.26108 7.68532 7.15761 7.61537L6.87689 7.343L6.51976 7.13345L6.45198 7.07C6.29298 6.97876 6.13403 6.88744 5.94439 6.77859L6.01313 6.93435C6.33917 7.3621 6.66441 7.78876 6.98885 8.21435L6.75194 8.56662L6.48776 8.479L6.48549 8.57391L6.72943 8.63517L6.83743 9.10265C6.56264 9.29307 6.26865 9.49987 5.97104 9.70172C5.81054 9.81064 5.64371 9.91123 5.47973 10.0155L5.4808 10.0138L5.4448 10.0637L5.34806 10.1672L5.3632 10.2018C5.7695 10.0863 6.17583 9.97098 6.5822 9.85566C6.69982 9.92026 6.81139 9.99529 6.91557 10.0798C7.0143 10.1744 7.24787 10.1691 7.17693 10.405C7.13542 10.5432 7.18539 10.7063 7.03762 10.8141C7.00602 10.8433 6.97807 10.8763 6.95438 10.9122C6.94322 11.1624 6.93213 11.4126 6.91938 11.6997C6.8006 11.4287 6.69676 11.2041 6.60584 10.9748C6.59394 10.914 6.59615 10.8513 6.61231 10.7914C6.62312 10.7023 6.63954 10.6138 6.65361 10.5251C6.65368 10.3978 6.65873 10.2702 6.65098 10.1433C6.63948 10.0976 6.62012 10.0542 6.59376 10.0151C6.61482 10.3397 6.58123 10.6655 6.49439 10.979C6.47555 11.0278 6.52033 11.0993 6.53661 11.1601C6.59682 11.3856 6.66143 11.6101 6.71609 11.8367C6.74075 11.9388 6.71232 12.0119 6.58509 12.0521C6.22016 12.1672 5.86042 12.2972 5.49927 12.4228C5.39073 12.4606 5.28403 12.5032 5.17649 12.5435L5.13007 12.631L5.07477 12.535C5.0076 12.5655 4.93816 12.5924 4.87397 12.6278C4.82443 12.6585 4.7767 12.692 4.73103 12.7282L4.74027 12.8295L4.74041 12.8297L4.79141 12.8679L4.78053 12.8781L4.74044 12.8297L4.7403 12.8295V12.8295L4.69367 12.8311L4.60631 12.9261C4.48711 13.1213 4.36794 13.3164 4.24878 13.5116C4.03179 13.143 3.89394 12.7331 3.84404 12.3083C3.79413 11.8834 3.83325 11.4528 3.95891 11.0439L4.23606 11.2305L4.2379 11.2284C4.11152 10.9888 4.00616 10.7388 3.92302 10.481C3.83616 10.121 3.78661 9.75291 3.77517 9.3827C3.74738 9.12173 3.7749 8.85783 3.85596 8.60821C3.93701 8.35859 4.06977 8.12886 4.24557 7.934C4.31623 7.8531 4.38152 7.76767 4.44104 7.67826C4.43614 7.63322 4.44914 7.58806 4.47724 7.55252C4.50534 7.51699 4.54629 7.49392 4.59124 7.48831C4.74122 7.45506 4.89379 7.43486 5.04724 7.42793C5.07716 7.42644 5.11142 7.50659 5.14369 7.54903L5.27675 7.83828C5.40754 8.29061 5.62768 8.71212 5.92415 9.07792C5.95817 9.1254 5.9894 9.17482 6.0177 9.22592L6.16661 9.02149C6.04805 8.89414 5.94071 8.7568 5.84576 8.611C5.55643 8.15712 5.38328 7.63899 5.34159 7.10235C5.32128 7.081 5.30607 7.05531 5.29713 7.02722C5.28819 6.99914 5.28574 6.96939 5.28997 6.94022C5.2942 6.91105 5.305 6.88322 5.32155 6.85883C5.33811 6.83444 5.35998 6.81413 5.38552 6.79943C5.46824 6.7103 5.57402 6.64582 5.69114 6.61314C5.80826 6.58046 5.93215 6.58086 6.04905 6.61429C6.07569 6.62247 6.10432 6.62125 6.13016 6.61084C6.25838 6.55584 6.29179 6.62776 6.32854 6.72558C6.36319 6.79208 6.40606 6.85396 6.45613 6.90977L6.45258 6.78149C6.42493 6.70567 6.36451 6.62519 6.37545 6.55479C6.42265 6.25051 6.66667 6.09861 6.94801 5.92931L7.05882 6.35983C7.08022 6.32105 7.11867 6.28283 7.12009 6.24347C7.1262 6.07147 7.12158 5.89912 7.12087 5.72691C7.08312 5.65728 7.05154 5.58448 7.02648 5.50935C6.91695 4.87631 6.88311 4.23249 6.92566 3.59146C6.92426 3.43799 6.94502 3.28513 6.98728 3.13759C7.04905 2.92923 6.94314 2.74937 6.91407 2.55747C6.82841 2.11578 6.80686 1.66406 6.85007 1.21622C6.86181 1.05703 6.86291 0.897235 6.85337 0.737899C6.87945 0.590899 6.90312 0.443379 6.93383 0.297229C6.93888 0.282046 6.94695 0.268042 6.95755 0.25606C6.96816 0.244078 6.98108 0.234366 6.99553 0.227509C7.07705 0.208906 7.16191 0.210779 7.24252 0.232961C7.32314 0.255143 7.39701 0.296943 7.45753 0.354629L7.89318 0.553849C7.92424 0.544509 7.96895 0.517629 7.98445 0.528459C8.23451 0.703986 8.48171 0.883146 8.72603 1.06594C8.75396 1.08694 8.75418 1.14121 8.76726 1.18014C8.90586 1.17993 9.04461 1.18325 9.18308 1.17858C9.32573 1.17384 9.46808 1.16139 9.61055 1.15225C10.0323 1.11569 10.4572 1.16287 10.8606 1.29108C10.9091 1.30814 10.9778 1.27321 11.0371 1.26245C10.9976 1.22434 10.9557 1.18875 10.9118 1.1559C10.8608 1.13148 10.8077 1.11173 10.7532 1.0969C10.8441 1.00979 10.9418 0.930062 11.0454 0.858479C11.3848 0.646884 11.7369 0.456219 12.0996 0.287549C12.4968 0.120419 12.6028 0.202049 12.5975 0.607799C12.5946 0.831049 12.5958 1.0543 12.5951 1.27755C12.6127 1.31425 12.6234 1.35383 12.6269 1.39438C12.585 1.75518 12.5387 2.11557 12.4917 2.47583C12.4893 2.49383 12.4691 2.50974 12.4571 2.5266L12.4485 2.69204L12.4175 2.69461L12.265 2.34634L12.2395 2.35634C12.2836 2.57648 12.3334 2.7958 12.37 3.01709C12.3978 3.18461 12.4163 3.35353 12.4256 3.52309C12.4709 3.99938 12.4901 4.47781 12.483 4.9562C12.4693 5.19572 12.4421 5.43428 12.4016 5.67076H12.5435C12.5571 5.55866 12.5738 5.44663 12.5775 5.33426C12.5953 4.80293 12.6042 4.27134 12.6041 3.73951C12.5696 3.5311 12.5583 3.31952 12.5703 3.10862C12.7145 2.61193 12.7852 2.0968 12.7801 1.57962C12.7578 1.15519 12.733 0.730559 12.6935 0.307409C12.6912 0.265523 12.6789 0.224801 12.6576 0.18864C12.6364 0.152479 12.6068 0.121926 12.5713 0.0995311C12.5358 0.0771358 12.4955 0.0635466 12.4537 0.0598968C12.4119 0.0562469 12.3699 0.0626422 12.331 0.0785493C11.7049 0.205216 11.1334 0.52265 10.695 0.987239C10.6713 1.00876 10.6433 1.02493 10.6128 1.03465C10.5824 1.04436 10.5502 1.0474 10.5184 1.04356C10.0219 0.960427 9.51612 0.947555 9.01599 1.00532C8.97165 1.01427 8.92581 1.01244 8.88232 0.999995C8.83884 0.98755 8.79897 0.964849 8.76607 0.933799C8.40737 0.579218 7.96438 0.32168 7.47876 0.185399C6.93596 0.0383093 6.80318 0.0701194 6.70332 0.648619C6.64333 1.17376 6.65536 1.70463 6.73907 2.22652C6.76814 2.51624 6.83233 2.80475 6.83617 3.09433C6.84342 3.63675 6.80276 4.17984 6.81207 4.72219C6.8184 5.08698 6.87633 5.4509 6.90845 5.78685C6.75454 5.86762 6.6087 5.96294 6.47294 6.0715C6.35887 6.20214 6.2575 6.34335 6.17021 6.49322C5.60321 6.47745 5.13237 6.48936 5.08361 7.1943C5.00134 7.20254 4.91955 7.21515 4.83861 7.23208C4.47915 7.32556 4.13754 7.43808 4.09596 7.87258C4.09141 7.9201 4.03376 7.96891 3.9904 8.00627C3.80743 8.1443 3.67022 8.3342 3.59662 8.55127C3.36638 9.27088 3.4155 10.0508 3.73423 10.7358C3.75169 10.7774 3.754 10.8238 3.74077 10.8669C3.59699 11.2937 3.54864 11.7469 3.59913 12.1945C3.64962 12.6421 3.79772 13.0731 4.03298 13.4572C4.12974 13.6329 4.18332 13.829 4.18929 14.0295C4.22386 14.4502 4.37589 14.8527 4.62807 15.1912L4.73407 15.1216C4.49598 14.7309 4.37534 14.28 4.38656 13.8226L4.24041 13.7515L4.39978 13.6933C4.51059 13.4778 4.61892 13.261 4.73492 13.048C4.7507 13.019 4.80444 13.0089 4.84055 12.99L4.84062 12.9897L4.84126 12.9893L4.8812 12.9406L4.8922 12.951L4.8412 12.9893L4.84076 12.9899L4.84059 12.99C4.82011 13.1093 4.80121 13.229 4.77896 13.348C4.71421 13.6394 4.71222 13.9413 4.77315 14.2336C4.83407 14.5258 4.9565 14.8018 5.1323 15.0431L5.24709 14.9702C5.05033 14.6347 4.93422 14.2581 4.9079 13.87C4.88459 13.5484 4.96733 13.2279 5.14346 12.9578C5.13592 12.8017 5.24134 12.7316 5.37539 12.6884C5.81139 12.548 6.24328 12.393 6.68597 12.275C7.3102 12.1085 7.94146 11.9651 8.57259 11.8235C8.71624 11.8042 8.86136 11.7982 9.00611 11.8055L9.20023 11.9986L9.16149 11.6758C9.24029 11.6867 9.31463 11.7188 9.37659 11.7687C9.43854 11.8186 9.48578 11.8844 9.51326 11.959C9.70546 12.2459 9.89852 12.5321 10.0894 12.8197C10.1757 12.9496 10.2577 13.0821 10.3417 13.2133C10.3513 13.218 10.365 13.2202 10.3698 13.2277C10.4064 13.2853 10.4412 13.3439 10.4766 13.4022L10.2808 13.4319C10.2731 13.5435 10.3269 13.5369 10.4135 13.5038C10.5262 13.4608 10.6493 13.4127 10.7179 13.5702C10.9986 13.5617 11.274 13.4921 11.5251 13.3664C11.7762 13.2407 11.9969 13.0618 12.1718 12.8422C12.1933 12.8109 12.2235 12.7865 12.2587 12.772C12.5634 12.6978 12.8352 12.5255 13.0324 12.2816C13.0646 12.2558 13.1056 12.202 13.1276 12.2083C13.5765 12.3373 14.0235 12.4726 14.4698 12.6093C14.498 12.6179 14.519 12.648 14.5433 12.6681C14.6242 12.6983 14.7045 12.73 14.7863 12.7582C14.8371 12.7783 14.8932 12.7806 14.9455 12.7646L14.7773 12.549ZM13.1533 8.88023C13.0973 8.95279 13.041 9.02549 12.9798 9.094C12.9358 9.13584 12.8826 9.16686 12.8245 9.1846C12.7665 9.20233 12.7051 9.2063 12.6452 9.19618C12.5853 9.18607 12.5286 9.16215 12.4796 9.12631C12.4306 9.09048 12.3906 9.04373 12.3628 8.98975L12.2942 8.82875C12.2237 8.59853 12.3691 8.45333 12.5331 8.33426C12.5985 8.29216 12.6749 8.2702 12.7527 8.27111C12.8305 8.27201 12.9064 8.29573 12.9708 8.33934C13.0122 8.36202 13.0358 8.414 13.0677 8.45252L13.1672 8.57525C13.2048 8.618 13.2243 8.67365 13.2217 8.73051C13.2191 8.78737 13.1946 8.84102 13.1533 8.88018L13.1533 8.88023ZM7.07376 8.43C7.10429 8.40799 7.13902 8.39253 7.1758 8.38457C7.21258 8.37661 7.25061 8.37634 7.28749 8.38377C7.41549 8.41335 7.53429 8.47777 7.65981 8.51963C7.68405 8.52775 7.72194 8.49878 7.7535 8.48693L7.40694 8.3207C7.44046 8.30594 7.47662 8.29814 7.51324 8.29779C7.54986 8.29743 7.58617 8.30452 7.61997 8.31862C7.65376 8.33273 7.68434 8.35355 7.70984 8.37984C7.73534 8.40612 7.75524 8.43731 7.76831 8.47152C7.80886 8.50984 7.8411 8.55608 7.86306 8.60737C7.88501 8.65866 7.8962 8.71391 7.89595 8.76969C7.89569 8.82548 7.88398 8.88063 7.86155 8.93171C7.83912 8.98279 7.80644 9.02872 7.76554 9.06667C7.67357 9.15299 7.55194 9.20064 7.42581 9.19978C7.29968 9.19891 7.17871 9.14958 7.08793 9.062C7.04483 9.02184 7.0102 8.97345 6.98609 8.91969C6.96199 8.86593 6.94888 8.80789 6.94756 8.74899C6.94624 8.69009 6.95673 8.63152 6.9784 8.57673C7.00008 8.52195 7.0325 8.47205 7.07376 8.43V8.43ZM6.98117 9.74833C7.2173 9.59846 7.33899 9.78806 7.4933 9.89664C7.38135 10.0605 7.14124 9.98227 6.98117 9.74833ZM7.04493 11.9295C7.02017 11.8524 7.01761 11.7699 7.03754 11.6913C7.05748 11.6128 7.09911 11.5415 7.15766 11.4856C7.15738 11.475 7.15738 11.4645 7.15766 11.4539C7.12312 11.3937 7.0595 11.3338 7.05893 11.2733C7.05482 11.1245 7.09454 10.9778 7.17315 10.8514C7.25176 10.725 7.36578 10.6245 7.50105 10.5624C7.68514 10.469 7.86123 10.3607 8.02754 10.2385C7.90034 10.2396 7.77498 10.269 7.66051 10.3245C7.54604 10.38 7.44533 10.4603 7.36564 10.5594C7.35099 10.4496 7.36891 10.3379 7.41718 10.2382C7.46545 10.1385 7.54195 10.0552 7.63717 9.99858C7.68039 9.9621 7.72168 9.92351 7.76391 9.88588C7.52977 9.85288 7.38725 9.71333 7.42391 9.54275C7.43689 9.49611 7.46755 9.45637 7.50937 9.432C7.60028 9.38347 7.69993 9.34989 7.81459 9.30264L8.08938 9.65264L7.82902 9.85659C8.07066 9.73116 8.33916 9.66635 8.6114 9.66773C8.87661 9.70344 9.13776 9.76462 9.39122 9.85043C8.82464 9.80366 8.52122 10.173 8.20322 10.4999C8.03609 10.6609 7.91089 10.8603 7.83856 11.0808C7.76622 11.3013 7.74894 11.5362 7.78822 11.7649L7.04493 11.9295ZM8.23346 11.2302L8.20176 11.5798C8.19344 11.6162 8.197 11.6729 8.17447 11.6849C8.11927 11.7045 8.06158 11.7164 8.00309 11.7202C7.95122 11.5254 7.95673 11.3198 8.01894 11.128C8.10623 10.8179 8.29759 10.5472 8.56089 10.3615C8.82419 10.1757 9.14339 10.0863 9.46486 10.1081C9.54227 10.1256 9.61606 10.1563 9.68293 10.199C9.88281 10.3095 9.89113 10.3588 9.74356 10.4844C9.67533 10.5425 9.63929 10.5243 9.60756 10.456C9.49986 10.3989 9.3877 10.3507 9.2722 10.3117C9.06201 10.2574 8.91111 10.3901 8.75594 10.4944C8.51531 10.6229 8.33529 10.8414 8.25518 11.1022L8.23346 11.2302ZM9.1322 11.357C9.10797 11.4244 9.06332 11.4827 9.00447 11.5236C8.94562 11.5645 8.87549 11.5861 8.80381 11.5853C8.67354 11.5925 8.54389 11.6082 8.41571 11.6326C8.3612 11.4945 8.34625 11.3439 8.37254 11.1978C8.39883 11.0516 8.46532 10.9157 8.56455 10.8053C8.68735 10.696 8.82053 10.599 8.96218 10.5155C9.01179 10.4799 9.06826 10.4548 9.12803 10.4421C9.18781 10.4294 9.24957 10.4292 9.30941 10.4416C9.36926 10.454 9.42588 10.4786 9.47569 10.5141C9.5255 10.5495 9.56741 10.5948 9.59877 10.6473C9.47332 10.822 9.34608 10.9955 9.22461 11.1727C9.19016 11.2322 9.1593 11.2938 9.1322 11.357V11.357ZM10.4692 12.9582C10.2685 12.6535 10.071 12.3528 9.87241 12.053C9.78896 11.927 9.69514 11.8066 9.62207 11.6755C9.60656 11.6476 9.59747 11.6166 9.59545 11.5848C9.59343 11.5529 9.59855 11.521 9.61041 11.4914C9.85172 11.095 10.1785 10.7576 10.5668 10.5036C10.6358 10.4547 10.7185 10.4288 10.8031 10.4296C10.8877 10.4304 10.9699 10.4578 11.038 10.5079C11.2085 10.6063 11.3626 10.7308 11.4946 10.8768C11.5878 11.0047 11.643 11.1563 11.654 11.3141C11.665 11.4719 11.6313 11.6297 11.5568 11.7693C11.3624 12.1283 11.0941 12.4421 10.7695 12.6899C10.6769 12.7734 10.5836 12.8561 10.4692 12.9582H10.4692ZM10.5949 13.1105C10.5733 13.0711 10.5649 12.9904 10.5899 12.9673C10.8692 12.7101 11.156 12.4602 11.4415 12.2091C11.4554 12.2003 11.4705 12.1937 11.4863 12.1895C11.6005 11.9976 11.6927 11.7935 11.7613 11.581C11.8014 11.4382 11.8055 11.2877 11.7732 11.1429C11.741 10.9981 11.6733 10.8636 11.5763 10.7514C11.3727 10.5623 11.1315 10.4183 10.8686 10.3286C10.7538 10.2859 10.5735 10.4034 10.4229 10.4483C10.0289 10.7312 9.69975 11.0949 9.45751 11.5152C9.30568 11.4152 9.25976 11.3159 9.38266 11.1798C9.64118 10.8936 9.8938 10.6025 10.1532 10.317C10.2023 10.2741 10.2563 10.2371 10.314 10.2066C10.4106 10.1354 10.5254 10.0931 10.6452 10.0848C10.7649 10.0765 10.8845 10.1024 10.9901 10.1596C11.2708 10.2289 11.5226 10.3851 11.7094 10.6058C11.8963 10.8266 12.0087 11.1006 12.0308 11.389C12.0361 11.5575 12.0063 11.7254 11.9434 11.8818C11.8804 12.0382 11.7855 12.1798 11.6648 12.2976C11.3732 12.5801 11.0833 12.8643 10.7886 13.1438C10.7756 13.1587 10.759 13.1699 10.7404 13.1765C10.7218 13.1831 10.7019 13.1848 10.6824 13.1815C10.663 13.1781 10.6447 13.1698 10.6294 13.1574C10.6141 13.145 10.6022 13.1288 10.595 13.1105H10.5949ZM10.7522 13.4038C10.783 13.3427 10.8231 13.2868 10.871 13.238C11.1035 13.0649 11.3441 12.9017 11.5801 12.7327C11.6537 12.68 11.7219 12.6206 11.7784 12.5755L12.0397 12.8134C11.6992 13.1639 11.24 13.3744 10.7523 13.4038H10.7522Z" fill="#050504"/>
<path d="M4.84182 12.989L4.84082 12.99L4.84182 12.989Z" fill="#050504"/>
<path d="M14.5432 12.668C14.6241 12.6983 14.7044 12.7299 14.7862 12.7581C14.837 12.7783 14.8931 12.7806 14.9454 12.7646L14.7772 12.5488C14.8262 12.518 14.8845 12.5057 14.9418 12.514C14.999 12.5223 15.0514 12.5507 15.0896 12.5942C15.1933 12.7092 15.3064 12.8166 15.4155 12.9273L15.7524 13.5195C15.9741 13.1537 16.1141 12.7443 16.1626 12.3194C16.2111 11.8944 16.1671 11.464 16.0335 11.0577L15.753 11.2625C15.8203 11.0978 15.9218 10.9589 15.9807 10.8051C16.1782 10.2475 16.259 9.65534 16.2181 9.06525C16.2061 8.63324 16.0374 8.22034 15.7434 7.90359C15.6971 7.84109 15.6577 7.77378 15.6259 7.70282C15.8445 7.81651 16.0352 7.97734 16.1841 8.17369C16.3331 8.37005 16.4365 8.59702 16.4871 8.83823C16.6206 9.48061 16.5432 10.1489 16.2665 10.7438C16.25 10.7871 16.2497 10.8349 16.2655 10.8784C16.4129 11.3127 16.4601 11.7747 16.4036 12.2298C16.3472 12.6849 16.1884 13.1213 15.9393 13.5064C15.8522 13.6466 15.8019 13.8065 15.7931 13.9714C15.7888 14.3109 15.7 14.6439 15.5349 14.9406C15.2599 15.4798 14.8118 15.9111 14.2625 16.1652C14.1009 16.2193 13.9347 16.2588 13.7661 16.2834C13.7823 16.3387 13.8047 16.4194 13.8297 16.4991C13.8935 16.7023 13.9714 16.9024 14.0207 17.1088C14.2004 17.8606 14.3684 18.615 14.5467 19.3672C14.5857 19.5116 14.6346 19.6532 14.693 19.7909C14.7178 19.8364 14.7482 19.8785 14.7834 19.9165C14.7184 20.0088 14.7184 20.0088 14.4089 19.9902C14.3529 19.8024 14.2837 19.6171 14.2437 19.4263C14.1568 19.0121 14.0888 18.5943 14.0057 18.1793C13.9309 17.8057 13.8562 17.4316 13.7616 17.0624C13.7217 16.9036 13.6523 16.7537 13.5569 16.6206C13.5221 16.5816 13.4969 16.535 13.4834 16.4844C13.47 16.4339 13.4685 16.3808 13.4793 16.3296C13.4906 16.2619 13.4984 16.1937 13.5027 16.1251L13.6597 16.0607C13.7019 16.1139 13.7622 16.1497 13.829 16.1612C13.8959 16.1728 13.9647 16.1594 14.0223 16.1235C14.1512 16.0629 14.2762 15.9942 14.3965 15.9179C14.5497 15.8115 14.6896 15.6875 14.8352 15.571C15.0414 15.4275 15.2146 15.2415 15.3431 15.0256C15.4717 14.8097 15.5527 14.5689 15.5807 14.3192C15.6087 14.0695 15.583 13.8167 15.5055 13.5777C15.4279 13.3387 15.3002 13.119 15.1308 12.9333C15.1495 13.0147 15.1605 13.0756 15.1775 13.1351C15.3101 13.582 15.3033 14.0587 15.1581 14.5017C14.9827 14.9275 14.7105 15.3065 14.3631 15.6087L13.6693 16.0294L13.502 15.9341C13.5626 15.8999 13.6247 15.8679 13.6834 15.8311C13.8141 15.749 13.9431 15.6645 14.0727 15.5811C14.1213 15.556 14.1685 15.5281 14.214 15.4977C14.4532 15.3315 14.6539 15.1157 14.8023 14.865C14.9506 14.6143 15.0433 14.3346 15.074 14.0449C15.0963 13.835 15.0914 13.6231 15.0591 13.4145C15.0278 13.2575 14.959 13.1105 14.8585 12.986C14.758 12.8615 14.6288 12.7632 14.482 12.6995L14.5432 12.668Z" fill="#070707"/>
<path d="M15.626 7.70288C15.6579 7.77384 15.6973 7.84115 15.7435 7.90365C16.0376 8.22039 16.2063 8.6333 16.2182 9.06531C16.2591 9.6554 16.1784 10.2476 15.9809 10.8052C15.922 10.9589 15.8205 11.0978 15.7532 11.2626L16.0336 11.0577C16.1672 11.464 16.2113 11.8945 16.1628 12.3194C16.1143 12.7444 15.9743 13.1538 15.7525 13.5195L15.4156 12.9273C15.429 12.8709 15.4395 12.8137 15.4562 12.7583C15.5612 12.4266 15.6027 12.078 15.5783 11.7308L14.9794 12.3818L14.979 12.3815L15.0668 12.1796C15.41 11.4517 15.5754 10.6527 15.5494 9.84837C15.5503 9.40693 15.4726 8.96886 15.3201 8.55464C15.2781 8.38973 15.2017 8.23557 15.0959 8.10232C14.99 7.96908 14.8572 7.85975 14.7061 7.78156L15.1784 7.51929L15.4904 7.61143L15.5177 7.64161L15.6259 7.70303L15.626 7.70288ZM15.517 8.39344C15.661 9.16677 15.6918 9.95692 15.6085 10.7391C15.9664 10.2934 16.02 8.60775 15.5171 8.39344H15.517Z" fill="#1D1D1D"/>
<path d="M6.65436 16.0941C6.67147 16.5302 6.78029 16.9578 6.97374 17.3489C6.98986 17.3772 6.99977 17.4087 7.00282 17.4411C7.00586 17.4735 7.00197 17.5062 6.99141 17.537C6.76352 17.9175 6.60824 18.3369 6.53348 18.774C6.43709 19.1741 6.38717 19.5844 6.3168 19.9902L5.54541 19.9909C5.55627 19.8432 5.56269 19.6951 5.57873 19.548C5.67072 18.7887 5.85205 18.043 6.11895 17.3263C6.20329 17.0871 6.30444 16.8542 6.42166 16.6293C6.47197 16.5597 6.50678 16.4802 6.52374 16.3961C6.5407 16.3119 6.53941 16.2251 6.51996 16.1415C6.51744 16.1257 6.51737 16.1096 6.51973 16.0938L6.65436 16.0941Z" fill="#161616"/>
<path d="M13.5028 16.1252C13.4985 16.1937 13.4906 16.262 13.4794 16.3297C13.4686 16.3809 13.47 16.4339 13.4835 16.4844C13.497 16.535 13.5221 16.5817 13.557 16.6207C13.6523 16.7538 13.7217 16.9036 13.7616 17.0624C13.8562 17.4317 13.931 17.8058 14.0057 18.1793C14.0888 18.5943 14.1568 19.0121 14.2437 19.4263C14.2837 19.6172 14.353 19.8024 14.409 19.9902L13.9718 19.9889L13.8737 19.7095L13.8565 19.6511C13.9414 19.562 13.8873 19.5047 13.8067 19.4535L13.7919 19.3941C13.7988 19.2994 13.7855 19.2044 13.7528 19.1154C13.7201 19.0263 13.6688 18.9452 13.6023 18.8775L13.5627 18.784L13.5046 18.6536L13.2671 18.302C13.1579 18.0866 13.0607 17.8645 12.9351 17.6582C12.8971 17.6056 12.8717 17.5449 12.8609 17.4809C12.8501 17.4168 12.8542 17.3512 12.8728 17.289C12.9896 16.8823 13.0912 16.4717 13.1987 16.0626L13.5028 16.1252Z" fill="#161616"/>
<path d="M6.5198 16.0938C6.51744 16.1096 6.51751 16.1257 6.52003 16.1415C6.53948 16.2251 6.54077 16.3119 6.52381 16.3961C6.50685 16.4802 6.47204 16.5597 6.42173 16.6293C6.30451 16.8542 6.20336 17.0871 6.11902 17.3263C5.85212 18.043 5.67079 18.7887 5.5788 19.548C5.5628 19.6951 5.55634 19.8432 5.54548 19.9909H5.26105C5.31705 19.6202 5.36244 19.2581 5.42784 18.8993C5.58819 18.027 5.87215 17.1819 6.27115 16.3897C6.28637 16.3368 6.29345 16.2818 6.29215 16.2267C6.08893 16.2527 5.88245 16.229 5.69037 16.1578C5.49828 16.0866 5.3263 15.9699 5.18915 15.8177C4.98456 15.6253 4.7968 15.4157 4.62793 15.1913L4.73393 15.1216L5.20823 15.5842C5.22993 15.6195 5.2426 15.668 5.27477 15.6879C5.51668 15.8379 5.75892 15.9879 6.00857 16.1256C6.06189 16.1568 6.12366 16.1706 6.1852 16.1649C6.24675 16.1593 6.30498 16.1345 6.35173 16.0941L6.5198 16.0938Z" fill="#0A0A0A"/>
<path d="M13.7812 8.19344C13.8896 7.83857 13.9972 7.48344 14.108 7.12934C14.115 7.10704 14.1474 7.09198 14.168 7.07355C14.159 7.16065 14.1988 7.18625 14.2914 7.19455C14.5777 7.22014 14.8651 7.24787 15.1474 7.29807C15.3189 7.32856 15.4758 7.40807 15.4901 7.61136L15.1781 7.5192L14.1572 7.3542C14.1448 7.42492 14.1262 7.4944 14.1016 7.56184C13.9985 7.77398 13.8885 7.98316 13.7812 8.19344Z" fill="#070707"/>
<path d="M13.874 19.7095L13.9721 19.9889L13.8059 19.9863L13.8057 19.9773C13.883 19.9824 13.9348 19.9689 13.9052 19.8751C13.8914 19.8206 13.8809 19.7653 13.874 19.7095V19.7095Z" fill="#121212"/>
<path d="M15.6258 7.70302L15.5176 7.6416L15.6258 7.70302Z" fill="#070707"/>
<path d="M13.066 16.09C12.5461 16.2073 12.0285 16.336 11.5051 16.4369C11.2732 16.4688 11.0391 16.483 10.805 16.4793C10.4615 16.4916 10.1168 16.5187 9.7745 16.5031C9.17433 16.4758 8.5716 16.4474 7.97777 16.3669C7.6613 16.2961 7.35211 16.196 7.0542 16.0679C7.09345 16.023 7.13922 15.9842 7.18997 15.9529C7.48937 15.8254 7.79779 15.7161 8.09205 15.579C8.30583 15.4794 8.50242 15.3463 8.70667 15.2281C9.55376 15.2784 10.4034 15.2679 11.2489 15.1965C11.2794 15.2091 11.3092 15.2234 11.3379 15.2395C11.8342 15.574 12.3798 15.8285 12.9549 15.9938C12.998 16.0051 13.0293 16.057 13.066 16.09Z" fill="#070707"/>
<path d="M13.0661 16.09C13.0294 16.057 12.9981 16.0051 12.9551 15.9938C12.38 15.8285 11.8343 15.574 11.3381 15.2395C11.3093 15.2234 11.2796 15.209 11.2491 15.1965C10.8569 14.8591 10.4637 14.5227 10.0733 14.1833C10.0045 14.1235 9.96788 14.1435 9.91034 14.2007C9.72909 14.3808 9.54677 14.5611 9.35145 14.7269C9.14458 14.9025 8.92232 15.0617 8.70679 15.2281C8.50254 15.3462 8.30595 15.4794 8.09217 15.579C7.79791 15.7161 7.48949 15.8254 7.19009 15.9529C7.13934 15.9842 7.09357 16.023 7.05432 16.0679L6.65453 16.0941L6.51991 16.0938L6.35191 16.094L6.3125 15.9984L6.48591 15.9333C7.05458 15.8684 7.60516 15.6934 8.10691 15.418C8.48664 15.2098 8.84795 14.9695 9.18691 14.7C9.5688 14.4272 9.88473 14.0724 10.1115 13.6616L10.3131 13.6936C10.2834 13.7445 10.2492 13.7927 10.2109 13.8376C10.0983 13.9496 10.1129 14.0422 10.2299 14.1454C10.3966 14.2924 10.5505 14.4526 10.7137 14.6032C11.1872 15.0482 11.7451 15.3936 12.3545 15.619C12.7252 15.7536 13.1188 15.831 13.5021 15.9341L13.6694 16.0294L13.6597 16.0607L13.5029 16.1252L13.1988 16.0625L13.0661 16.09Z" fill="#010101"/>
<path d="M13.8737 19.7095C13.8807 19.7653 13.8911 19.8206 13.905 19.8751C13.9346 19.9689 13.8827 19.9824 13.8054 19.9773L13.655 19.9531C13.6286 19.8285 13.6074 19.708 13.5772 19.5895C13.4809 19.2119 13.3804 18.8353 13.284 18.4577C13.2745 18.4063 13.2689 18.3543 13.2671 18.302L13.5046 18.6536L13.5627 18.784L13.6023 18.8775L13.7919 19.3941L13.8066 19.4535L13.8565 19.6512L13.8737 19.7095Z" fill="#F2F2F2"/>
<path d="M6.55076 19.1656C6.60916 18.9216 6.65761 18.6748 6.73022 18.4346C6.77368 18.3164 6.83421 18.2052 6.90988 18.1045C6.93235 18.0711 6.99827 18.0643 7.04432 18.0453C7.04869 18.0862 7.06977 18.134 7.05493 18.167C6.84925 18.6316 6.71941 19.1262 6.67034 19.6319C6.66434 19.6895 6.66811 19.7481 6.66734 19.8062L6.62543 19.8205L6.61443 19.7734L6.55425 19.4213L6.5249 19.2955L6.55076 19.1656Z" fill="#F2F2F2"/>
<path d="M9.17432 19.527C9.9303 19.6622 10.7032 19.6745 11.4631 19.5635C11.2031 19.6331 10.939 19.686 10.6723 19.7219C10.2848 19.7462 9.89645 19.7507 9.50857 19.7354C9.43803 19.7401 9.3678 19.7225 9.30781 19.6851C9.24783 19.6477 9.20112 19.5924 9.17432 19.527V19.527Z" fill="#070707"/>
<path d="M6.55392 19.4213L6.6141 19.7734C6.5638 19.7315 6.5301 19.673 6.51907 19.6085C6.50804 19.5439 6.5204 19.4776 6.55392 19.4213V19.4213Z" fill="#303031"/>
<path d="M6.62549 19.8205L6.6674 19.8062L6.70933 19.9061L6.65158 19.9213L6.62549 19.8205Z" fill="#303031"/>
<path d="M6.55076 19.1656L6.52491 19.2956C6.47233 19.2412 6.45573 19.1933 6.55076 19.1656Z" fill="#303031"/>
<path d="M8.76745 1.1801C8.90609 1.17992 9.04486 1.18323 9.18333 1.17861C9.32596 1.17386 9.46833 1.16138 9.61075 1.15226C9.31338 1.43547 9.1142 1.80625 9.04225 2.21056C8.98097 2.40797 8.97326 2.61812 9.01992 2.81949C9.06658 3.02086 9.16592 3.20621 9.30778 3.35656C9.05253 3.34614 8.79592 3.34763 8.54255 3.32109C8.37336 3.29253 8.20595 3.25431 8.04113 3.20663C7.9368 3.18332 7.85033 3.185 7.86081 3.32816C7.86961 3.43429 7.86913 3.54099 7.85936 3.64705C7.80761 4.15126 7.75052 4.65497 7.69574 5.15891C7.6854 5.25406 7.71698 5.30881 7.83186 5.31114C8.14303 5.31744 8.4543 5.34369 8.76504 5.33792C9.04877 5.34947 9.33081 5.28914 9.58499 5.16254C9.63543 5.14142 9.6882 5.12636 9.74219 5.11766C9.75897 5.20946 9.76891 5.30238 9.77195 5.39566C9.75476 5.86814 9.72657 6.34028 9.71136 6.81281C9.70457 7.02381 9.65595 7.08512 9.97188 7.06981C9.98817 7.06902 10.0052 7.0814 10.0532 7.09942L9.56312 7.2977C9.80794 7.2977 10.0522 7.27324 10.2921 7.2247C10.7281 7.16562 11.1348 6.97229 11.4558 6.67154C11.486 6.64961 11.5195 6.63277 11.5551 6.6217C11.4231 6.75221 11.2911 6.88273 11.1591 7.01326C11.0534 7.11797 10.9478 7.22284 10.8425 7.32787L10.6192 7.30279L10.884 7.67763C10.7555 7.73051 10.6243 7.77644 10.4908 7.81523C10.1158 7.93755 9.71097 7.93373 9.33831 7.80434L9.37231 7.55003L9.47422 7.32574L9.48174 7.31204L9.47374 7.32529L9.17275 7.38999C8.86695 7.25469 8.55051 7.13735 8.25809 6.97955C8.08358 6.8859 7.92952 6.75836 7.80496 6.6044C7.68039 6.45043 7.58782 6.27315 7.53267 6.08294C7.44459 5.73553 7.38801 5.3809 7.36362 5.02334C7.35058 4.80664 7.34916 4.5894 7.35937 4.37255C7.22584 4.81281 7.14585 5.26756 7.12111 5.72696C7.08336 5.65733 7.05177 5.58453 7.02671 5.5094C6.91719 4.87636 6.88333 4.23254 6.92584 3.59151C6.92445 3.43804 6.94521 3.28517 6.98747 3.13763C7.04928 2.92927 6.94339 2.74939 6.91425 2.55749C6.82861 2.11579 6.80706 1.66406 6.85025 1.21622C6.86199 1.05703 6.86311 0.897232 6.85358 0.737896C6.87882 0.717041 6.90816 0.701732 6.9397 0.692966C6.97125 0.684199 7.00428 0.682171 7.03666 0.687014C7.06904 0.691857 7.10003 0.703461 7.12763 0.721073C7.15523 0.738685 7.17881 0.76191 7.19684 0.789236C7.34658 0.951636 7.4883 1.12081 7.63199 1.28824C7.66116 1.3124 7.68511 1.34226 7.70237 1.37598C7.71963 1.4097 7.72985 1.44658 7.73241 1.48437C7.73496 1.52217 7.7298 1.56009 7.71723 1.59582C7.70466 1.63156 7.68495 1.66436 7.6593 1.69224L7.64569 1.70719L7.66217 1.69499L8.50011 1.2471L8.76745 1.1801Z" fill="#131313"/>
<path d="M5.2469 14.9702C5.05008 14.6347 4.93394 14.2581 4.90767 13.87C4.88436 13.5484 4.96709 13.228 5.14321 12.9578C5.55875 12.6639 6.03534 12.4677 6.53737 12.3839C6.87675 12.3101 7.21969 12.2487 7.5636 12.1972C7.80399 12.1587 8.04688 12.1379 8.29031 12.135C8.5385 12.1346 8.78675 12.171 9.03497 12.1912C9.06597 12.27 9.09928 12.348 9.12763 12.4277C9.21865 12.713 9.37074 12.975 9.57331 13.1956C9.64674 13.2715 9.7105 13.3558 9.77868 13.4364C9.76709 13.4607 9.75346 13.484 9.73793 13.506C9.12848 14.3287 8.29291 14.9565 7.333 15.3128C6.99449 15.4224 6.63435 15.4714 6.2841 15.5481L6.28417 15.4895C6.80702 15.355 7.31166 15.1576 7.78711 14.9018C8.57305 14.5139 9.0076 14.2138 9.0658 14.0007C9.0172 14.045 8.96493 14.085 8.90956 14.1204C8.73056 14.2131 8.54983 14.3031 8.36646 14.3877C7.99133 14.5607 7.61565 14.7327 7.23699 14.8984C7.05236 14.9792 6.86036 15.0446 6.67199 15.1178C6.52142 15.1763 6.37134 15.2359 6.22099 15.295L6.15912 15.3388L6.15212 15.3341L6.16012 15.337L6.08625 15.3675L6.11636 15.4888L6.11621 15.5503L5.97974 15.5559C5.89897 15.5364 5.82125 15.5059 5.74874 15.4653C5.62922 15.3748 5.52558 15.2653 5.41535 15.1636L5.24559 14.9719L5.2469 14.9702ZM5.5529 13.0076C5.81752 13.071 5.92809 12.8679 6.10165 12.8056C6.27876 12.742 6.44914 12.6614 6.62247 12.5883C6.25371 12.6758 5.82828 12.636 5.55294 13.0076H5.5529Z" fill="#333333"/>
<path d="M10.8424 7.32803C10.9479 7.22315 11.0534 7.11828 11.159 7.01342C11.2909 6.88275 11.4229 6.75223 11.555 6.62186L11.5553 6.62152L11.5887 6.55773C11.6517 6.53111 11.7486 6.52073 11.7725 6.47533C11.9639 6.10672 12.0174 5.68186 11.9232 5.27733C11.8986 5.06184 11.8791 4.84568 11.8477 4.6311C11.8255 4.47918 11.7781 4.3305 11.7579 4.17845C11.7126 3.83769 11.6772 3.49573 11.6385 3.16045C11.1485 3.23272 10.6628 3.32126 10.1728 3.37012C9.88445 3.38309 9.59555 3.37857 9.30772 3.35659C9.16586 3.20625 9.06651 3.0209 9.01984 2.81953C8.97318 2.61816 8.98089 2.408 9.04217 2.21059C9.11413 1.80628 9.3133 1.43551 9.61067 1.15229C10.0325 1.11573 10.4573 1.16291 10.8608 1.29111C10.9093 1.30819 10.9779 1.27328 11.0372 1.26247C10.9977 1.2244 10.9559 1.18882 10.912 1.15593C10.861 1.13155 10.8079 1.11181 10.7534 1.09693C10.8443 1.0098 10.942 0.930077 11.0456 0.858518C11.385 0.646904 11.7371 0.456251 12.0998 0.287628C12.497 0.120488 12.603 0.202078 12.5977 0.607828C12.5948 0.831068 12.5959 1.05435 12.5953 1.27761C12.5225 1.55595 12.4312 1.83154 12.3852 2.11384C12.3863 2.25448 12.4106 2.39398 12.4573 2.52667L12.4487 2.6921L12.4177 2.69468L12.2652 2.34636L12.2397 2.35636C12.2838 2.57651 12.3335 2.79582 12.3702 3.0171C12.398 3.18462 12.4165 3.35354 12.4258 3.5231C12.4711 3.99939 12.4902 4.47781 12.4832 4.9562C12.5037 5.80543 12.2068 6.63179 11.6504 7.2737C11.5494 7.3863 11.4084 7.455 11.2574 7.46515C11.1065 7.4753 10.9576 7.42609 10.8424 7.32803V7.32803ZM12.1605 3.89822L12.1955 3.99851L12.2272 4.34951L12.2318 4.44751L12.2331 5.05045L12.2431 5.21111L12.2997 4.95679C12.4028 4.89296 12.3729 4.81423 12.3272 4.73372L12.3335 4.60477C12.4231 4.36821 12.4228 4.107 12.3327 3.87062C12.3056 3.45412 12.1905 3.04809 11.995 2.67933L12.1605 3.89822ZM11.2065 1.11659L12.4415 0.330648L12.3971 0.268768C11.929 0.434825 11.5166 0.728468 11.2065 1.11654L11.2065 1.11659Z" fill="#333333"/>
<path d="M14.4819 12.6995C14.6287 12.7632 14.7578 12.8615 14.8584 12.986C14.9589 13.1105 15.0277 13.2575 15.059 13.4145C15.0912 13.6231 15.0962 13.835 15.0738 14.0449C15.0432 14.3346 14.9505 14.6143 14.8021 14.865C14.6537 15.1157 14.4531 15.3315 14.2139 15.4977C14.1684 15.5281 14.1212 15.556 14.0726 15.5811C13.9773 15.5708 13.8822 15.5548 13.7866 15.5513C13.2039 15.5135 12.6351 15.3566 12.1154 15.0903C11.5044 14.7455 10.9545 14.3023 10.4879 13.7784C10.4699 13.753 10.4564 13.7246 10.4482 13.6945L10.7178 13.5702C10.9984 13.5617 11.2739 13.4922 11.5249 13.3664C11.776 13.2407 11.9967 13.0619 12.1716 12.8422C12.1932 12.811 12.2234 12.7866 12.2585 12.7721C12.5632 12.6979 12.835 12.5256 13.0322 12.2818C13.0599 12.2964 13.0892 12.3079 13.1194 12.316C13.5886 12.3825 14.0468 12.5115 14.4819 12.6995V12.6995ZM13.5359 15.3595L13.7748 15.4203L13.9042 15.4194L13.9384 15.4211L14.0724 15.4211L14.1031 15.4114L14.1416 15.39L14.194 15.3514L14.1443 15.3246L14.0719 15.2639L14.0046 15.2314L13.9354 15.2068L13.9051 15.1958C13.4231 15.0679 12.9486 14.9131 12.4839 14.7322C12.0614 14.5164 11.6525 14.275 11.2594 14.0094C11.2988 14.0471 11.3348 14.0882 11.367 14.1322C11.573 14.429 11.8513 14.6685 12.1756 14.8279C12.2965 14.9059 12.423 14.9748 12.554 15.0343C12.7883 15.1245 13.0312 15.1943 13.2705 15.2727L13.506 15.3564H13.5211L13.5359 15.3595ZM14.7801 13.3036C14.7353 13.1565 14.6411 13.0294 14.5135 12.9436C14.3859 12.8578 14.2326 12.8186 14.0795 12.8326L14.7801 13.3036Z" fill="#323232"/>
<path d="M13.7815 8.19349C13.8888 7.98321 13.9987 7.77406 14.1018 7.56189C14.1264 7.49445 14.145 7.42497 14.1574 7.35425L15.1783 7.51925L14.7059 7.78154C14.8571 7.85973 14.9899 7.96906 15.0958 8.1023C15.2016 8.23555 15.278 8.38971 15.3199 8.55462C15.4725 8.96884 15.5502 9.40691 15.5493 9.84835C15.5753 10.6527 15.4099 11.4517 15.0667 12.1796L14.9789 12.3815L14.971 12.3953L14.9793 12.3818L15.5781 11.7308C15.6025 12.0779 15.5611 12.4265 15.4561 12.7583C15.4394 12.8137 15.4289 12.8709 15.4155 12.9273C15.3065 12.8166 15.1934 12.7093 15.0897 12.5942C15.0515 12.5508 14.9991 12.5223 14.9418 12.514C14.8846 12.5057 14.8262 12.5181 14.7773 12.5489C14.4034 12.4112 14.0321 12.2662 13.6541 12.1394C13.597 12.1292 13.5457 12.0982 13.5101 12.0525C13.4744 12.0067 13.457 11.9494 13.461 11.8915C13.4597 11.5469 13.4983 11.2033 13.5763 10.8676C13.6216 10.6011 13.6591 10.3333 13.7028 10.0665C13.7159 10.0117 13.7325 9.95781 13.7526 9.90517C13.8178 9.89961 13.8421 9.85792 13.8305 9.84782L13.8322 9.85009L13.7967 9.81738L13.7972 9.81815C13.7821 9.78062 13.7641 9.74431 13.7433 9.70953C13.5388 9.41548 14.2109 9.31977 14.005 9.02653L14.2087 8.44699L14.3415 8.15778L14.353 8.15278L14.3555 8.14435L14.3412 8.15751L14.1761 8.41581L13.9301 8.93215C13.8196 8.8262 13.8628 8.61934 13.6677 8.56895L13.7009 8.48763L13.7494 8.3123L13.7693 8.25246L13.7815 8.19349ZM14.4745 7.96434L14.4409 7.99634L14.3821 8.06566L14.4166 8.08435L14.4435 7.99873L14.4769 7.96656L14.4899 7.95134L14.4745 7.96434Z" fill="#333333"/>
<path d="M5.44471 10.0637L5.34803 10.1673L5.36312 10.2018L6.58212 9.85568L6.59365 10.0151C6.61472 10.3397 6.58114 10.6656 6.49431 10.979C6.47545 11.0278 6.52031 11.0993 6.53651 11.1601C6.59675 11.3856 6.66133 11.6101 6.71601 11.8367C6.74063 11.9388 6.7122 12.0119 6.58496 12.0521C6.22008 12.1672 5.86034 12.2972 5.49915 12.4228C5.39061 12.4606 5.28393 12.5032 5.1764 12.5435L5.07471 12.535C5.00753 12.5655 4.93812 12.5924 4.87388 12.6278C4.82443 12.6584 4.77676 12.6919 4.73111 12.728L4.71655 12.6718H4.69355V12.8311L4.60622 12.9261C4.4585 12.5333 4.39711 12.1133 4.42622 11.6946C4.52689 11.8126 4.59976 11.9423 4.69359 12.0563C4.7878 12.1708 4.90291 12.2697 5.00886 12.3755C4.7885 11.8955 4.62444 11.3916 4.51994 10.8738C4.4989 10.7882 4.47279 10.7038 4.44173 10.6213L4.41211 9.59812L4.44262 9.37374L4.44448 9.18441L4.47589 9.02176L4.4765 8.96051C4.51336 8.92623 4.54512 8.88685 4.57082 8.84357C4.64088 8.67214 4.68957 8.49184 4.77072 8.32572C4.87636 8.10946 4.96685 7.86692 5.27665 7.83826C5.40742 8.29059 5.62757 8.71211 5.92408 9.07788C5.95806 9.12538 5.98929 9.17479 6.01761 9.22588C5.98761 9.27545 5.96031 9.3267 5.9273 9.37439C5.77896 9.58867 5.62902 9.80193 5.47965 10.0156L5.48072 10.0139L5.44471 10.0637Z" fill="#333333"/>
<path d="M11.7526 9.11334C11.7434 9.14916 11.7364 9.18564 11.7247 9.22072C11.6244 9.5226 11.6212 9.50094 11.305 9.5398C10.9815 9.5386 10.67 9.66205 10.4352 9.88449C10.2996 9.99808 10.1492 10.0928 9.98821 10.166C9.81933 10.0453 9.62813 9.91461 9.44389 9.77554C9.2122 9.63491 8.9504 9.55139 8.68007 9.53188C8.62921 9.51649 8.58026 9.49535 8.53418 9.46888C8.70254 9.48698 8.87177 9.44353 9.01058 9.34655C9.14939 9.24957 9.24841 9.10562 9.28933 8.9413C9.38894 8.58288 9.42075 8.12842 9.06614 7.92862L9.0738 7.92544L9.08138 7.92914C9.15138 7.94407 9.22088 7.96047 9.29111 7.97353C9.45178 8.01236 9.61481 8.04068 9.77917 8.05831C10.2069 8.05691 10.6311 7.98077 11.0326 7.83331L11.104 7.93269L10.8781 8.10787L10.8846 8.17258L11.238 8.24693C11.2021 8.30286 11.168 8.36228 11.1278 8.41768C11.0651 8.48722 11.0168 8.56853 10.9858 8.65689C10.9548 8.74524 10.9417 8.83887 10.9472 8.93234C10.9662 9.08472 11.0497 9.18822 11.2089 9.17934C11.3909 9.16922 11.5714 9.13634 11.7526 9.11334Z" fill="#121212"/>
<path d="M10.4694 12.9582C10.2687 12.6535 10.0712 12.3529 9.87259 12.053C9.78917 11.927 9.69533 11.8066 9.62225 11.6755C9.60675 11.6476 9.59766 11.6166 9.59564 11.5848C9.59363 11.5529 9.59874 11.521 9.6106 11.4914C9.85192 11.0951 10.1787 10.7576 10.567 10.5036C10.6361 10.4547 10.7187 10.4289 10.8033 10.4296C10.8879 10.4304 10.97 10.4578 11.0382 10.5079C11.2087 10.6063 11.3628 10.7308 11.4948 10.8768C11.588 11.0047 11.6432 11.1563 11.6542 11.3141C11.6652 11.472 11.6315 11.6297 11.557 11.7693C11.3626 12.1284 11.0943 12.4422 10.7697 12.6899C10.6771 12.7734 10.5837 12.8561 10.4694 12.9582Z" fill="#333333"/>
<path d="M5.27683 7.83826C4.96703 7.86692 4.87654 8.10946 4.7709 8.32572C4.68975 8.49184 4.64106 8.67214 4.571 8.84357C4.5453 8.88686 4.51352 8.92623 4.47663 8.96048L4.42734 8.82454L4.44526 8.74585L4.49858 8.52065L4.48942 8.5286L4.48037 8.52054C4.53966 8.48613 4.56853 8.45193 4.47958 8.41854C4.42958 8.44801 4.36342 8.46661 4.33219 8.50874C4.17971 8.74724 4.10119 9.02553 4.10654 9.30855L4.10516 9.37419L4.10462 9.72503C4.07191 9.79792 4.06024 9.87851 4.07092 9.95769C4.0816 10.0369 4.11421 10.1115 4.16507 10.1731L4.17615 10.2347L4.19281 10.3008L4.38329 10.8023L4.41502 10.7929L4.41056 10.7165L4.42141 10.7071C4.41726 10.6997 4.41253 10.6927 4.40726 10.6861L4.39053 10.6281L4.4418 10.6213C4.47285 10.7038 4.49897 10.7882 4.52001 10.8738C4.62449 11.3916 4.78854 11.8955 5.00889 12.3755C4.90294 12.2698 4.78783 12.1709 4.69362 12.0564C4.59979 11.9423 4.52692 11.8126 4.42625 11.6947C4.39714 12.1133 4.45853 12.5333 4.60625 12.9261C4.48707 13.1213 4.36785 13.3165 4.24861 13.5116C4.03166 13.1429 3.89386 12.7331 3.84398 12.3083C3.7941 11.8834 3.83323 11.4528 3.95889 11.0439L4.23607 11.2305C4.24823 11.2383 4.26033 11.2462 4.27287 11.2535L4.2814 11.2419L4.23792 11.2285C4.11151 10.9889 4.00615 10.7388 3.92304 10.481C3.83617 10.121 3.78661 9.75294 3.77514 9.38274C3.74736 9.12175 3.77491 8.85784 3.85598 8.60821C3.93705 8.35859 4.06982 8.12885 4.24565 7.93398C4.31633 7.85309 4.38163 7.76766 4.44115 7.67823C4.65585 7.56207 4.90181 7.51684 5.14379 7.54904L5.27683 7.83826Z" fill="#1D1D1D"/>
<path d="M7.12096 5.72697C7.1457 5.26757 7.22569 4.81282 7.35922 4.37256C7.34901 4.58941 7.35043 4.80665 7.36347 5.02335C7.38786 5.38091 7.44444 5.73555 7.53252 6.08295C7.58767 6.27316 7.68024 6.45045 7.8048 6.60441C7.92937 6.75838 8.08343 6.88592 8.25794 6.97956C8.55036 7.13736 8.8668 7.2547 9.1726 7.39C8.95215 7.452 8.74733 7.60411 8.48638 7.49172L8.52097 7.59108C8.20997 7.67917 7.9019 7.76851 7.59197 7.85138C7.549 7.85702 7.50543 7.84709 7.46916 7.82338C7.36253 7.75825 7.26116 7.68538 7.1577 7.61544L6.85241 6.99158L6.80122 7.0103L6.877 7.34312L6.51984 7.13348L6.48835 7.03536L6.48676 7.00483L6.45628 6.90983L6.45264 6.78154C6.46324 6.73496 6.47707 6.68881 6.48387 6.64173C6.50945 6.46457 6.63658 6.40463 6.80364 6.4934C6.84975 6.5179 6.89425 6.54513 6.90732 6.55263L7.05891 6.3599C7.08031 6.32115 7.11876 6.2829 7.12017 6.24355C7.1263 6.07155 7.12168 5.8992 7.12096 5.72697Z" fill="#303031"/>
<path d="M12.832 11.5129C12.8861 11.5668 12.9281 11.6316 12.9551 11.703C12.9821 11.7743 12.9935 11.8507 12.9886 11.9268C12.9837 12.003 12.9626 12.0773 12.9266 12.1446C12.8906 12.2119 12.8407 12.2708 12.7801 12.3172C12.6231 12.4442 12.4452 12.5427 12.2542 12.6084C11.9904 12.7002 11.9176 12.6274 11.9393 12.3525L12.2597 12.2824L12.2474 12.2397L12.0239 12.1883C12.177 11.9628 12.2526 11.6937 12.2395 11.4215C12.2263 11.1493 12.125 10.8887 11.9509 10.6791C11.8258 10.4357 11.6363 10.2314 11.403 10.0884C11.1697 9.94544 10.9016 9.86934 10.6279 9.86842C10.9023 9.71138 11.2184 9.64242 11.5333 9.67088C11.7351 9.68359 11.932 9.73858 12.1112 9.83227C12.2905 9.92597 12.448 10.0563 12.5736 10.2147C12.6295 10.2871 12.6888 10.3687 12.5856 10.4562C12.3893 10.3755 12.2314 10.2023 11.9409 10.2093C11.9773 10.2512 12.0177 10.2894 12.0615 10.3233C12.2002 10.4028 12.3401 10.4806 12.4832 10.5527C12.6204 10.6118 12.7375 10.7095 12.8201 10.834C12.9027 10.9584 12.9473 11.1042 12.9484 11.2536C12.9508 11.3355 12.9585 11.4314 12.8318 11.448C12.7805 11.372 12.7103 11.3106 12.6281 11.2698C12.5459 11.229 12.4546 11.2102 12.363 11.2152L12.832 11.5129Z" fill="#EC9B21"/>
<path d="M7.15782 11.4539C7.12328 11.3937 7.05968 11.3338 7.05908 11.2733C7.05498 11.1245 7.09471 10.9778 7.17332 10.8514C7.25193 10.725 7.36595 10.6245 7.50122 10.5624C7.6853 10.4691 7.86138 10.3607 8.02769 10.2385C7.90048 10.2396 7.77513 10.269 7.66066 10.3245C7.5462 10.38 7.44549 10.4603 7.36581 10.5594C7.35116 10.4496 7.36909 10.3379 7.41736 10.2382C7.46562 10.1385 7.54211 10.0552 7.63732 9.99861C7.68053 9.96209 7.72185 9.92353 7.76405 9.8859L7.76135 9.8879L7.83064 9.85496L7.82916 9.85669C8.0708 9.73124 8.33932 9.66642 8.61158 9.66781C8.87677 9.70354 9.13792 9.76473 9.39139 9.85052C8.8248 9.80379 8.52139 10.1731 8.20339 10.5C8.03623 10.6609 7.91101 10.8604 7.83866 11.0809C7.7663 11.3014 7.74901 11.5362 7.78829 11.765L7.04509 11.9296C7.02032 11.8524 7.01775 11.7699 7.03769 11.6914C7.05763 11.6129 7.09926 11.5415 7.15783 11.4856L7.64583 11.2246L7.61573 11.1786C7.43482 11.212 7.27215 11.3098 7.15782 11.4539V11.4539Z" fill="#EC9B21"/>
<path d="M11.5718 7.54999C11.9533 7.2486 12.2423 6.84595 12.4058 6.38806C12.4656 6.41234 12.5195 6.44907 12.5641 6.4958C12.6086 6.54253 12.6426 6.5982 12.664 6.65911C12.6853 6.72002 12.6935 6.78478 12.6879 6.84908C12.6823 6.91338 12.6631 6.97576 12.6315 7.03206L12.6831 7.0292C12.7032 6.9849 12.719 6.93874 12.7302 6.89139C12.7345 6.83676 12.7597 6.78589 12.8006 6.74942C12.8415 6.71295 12.8949 6.69369 12.9496 6.69567C13.2315 6.65129 13.5201 6.69814 13.7734 6.82939C13.9406 6.92808 13.9285 6.98354 13.768 7.08855C13.4465 7.29897 13.1297 7.51655 12.8205 7.74306C12.7696 7.79173 12.7057 7.82464 12.6365 7.83782C12.5674 7.851 12.4959 7.84388 12.4306 7.81732C12.1876 7.72732 11.9295 7.67441 11.6783 7.60394C11.6414 7.58891 11.6057 7.57087 11.5718 7.54999V7.54999ZM12.6336 7.58263C12.7546 7.49946 12.8478 7.38189 12.9013 7.24514C12.9547 7.10838 12.9659 6.95874 12.9334 6.81556L12.6336 7.58263Z" fill="#303031"/>
<path d="M6.16671 9.02156C6.04814 8.89422 5.9408 8.75687 5.8459 8.61103C5.55657 8.15717 5.38345 7.63906 5.3418 7.10244C5.35521 7.07907 5.3676 7.05515 5.38212 7.03244C5.51667 6.82205 5.57772 6.81906 5.74272 7.01384C5.8848 7.18159 6.02704 7.34923 6.16943 7.51677L6.38161 8.26622L6.05783 7.99639C6.11367 8.24036 6.2406 8.46229 6.42258 8.63412L6.16671 9.02156Z" fill="#303031"/>
<path d="M9.06628 7.92865C9.42089 8.12845 9.38908 8.58291 9.28947 8.94133C9.24855 9.10565 9.14953 9.24959 9.01072 9.34657C8.87191 9.44355 8.70268 9.48701 8.53432 9.46891L8.36426 8.87824L9.06628 7.92865Z" fill="#303031"/>
<path d="M5.2082 15.5841L4.7339 15.1216C4.49579 14.7309 4.37518 14.28 4.38647 13.8226L4.39968 13.6933C4.51045 13.4777 4.61882 13.261 4.7348 13.048C4.75059 13.019 4.80439 13.0088 4.84059 12.9899L4.84046 12.9897C4.81999 13.1091 4.80102 13.2288 4.77878 13.3479C4.71403 13.6394 4.71205 13.9413 4.77298 14.2335C4.83391 14.5258 4.95635 14.8017 5.13216 15.043L5.21104 15.1298L5.33455 15.2502L5.65195 15.6457L5.2082 15.5841Z" fill="#7D7D7D"/>
<path d="M7.65921 1.69226C7.68487 1.66439 7.70458 1.63159 7.71716 1.59585C7.72974 1.56012 7.7349 1.52219 7.73235 1.4844C7.7298 1.4466 7.71958 1.40972 7.70231 1.376C7.68505 1.34228 7.6611 1.31242 7.63193 1.28826C7.48824 1.12083 7.34652 0.951657 7.19678 0.789257C7.17875 0.76193 7.15517 0.738705 7.12757 0.721092C7.09997 0.703479 7.06898 0.691874 7.0366 0.68703C7.00422 0.682186 6.97118 0.684213 6.93964 0.692979C6.9081 0.701745 6.87875 0.717053 6.85352 0.737907C6.8796 0.590907 6.90328 0.443417 6.93398 0.297257C6.93902 0.282079 6.94709 0.268079 6.95769 0.256099C6.96828 0.24412 6.9812 0.234407 6.99565 0.227547C7.07717 0.208934 7.16204 0.2108 7.24267 0.23298C7.3233 0.255161 7.39719 0.296964 7.45773 0.354657L7.25309 0.371417C7.51098 0.535797 7.77887 0.658417 8.03226 0.803997C8.19519 0.908508 8.35221 1.02198 8.50257 1.1439L8.50005 1.24711L7.66211 1.695L7.65921 1.69226Z" fill="#333333"/>
<path d="M8.41567 11.6327C8.36115 11.4945 8.3462 11.344 8.37249 11.1978C8.39878 11.0517 8.46527 10.9158 8.56451 10.8053C8.68731 10.696 8.82049 10.599 8.96215 10.5156C9.01173 10.4799 9.06817 10.4549 9.12792 10.4421C9.18766 10.4294 9.24941 10.4292 9.30923 10.4416C9.36905 10.4539 9.42566 10.4786 9.47545 10.514C9.52524 10.5494 9.56714 10.5947 9.5985 10.6472C9.47329 10.822 9.34602 10.9955 9.22459 11.1727C9.19012 11.2322 9.15925 11.2938 9.13214 11.357C9.10791 11.4244 9.06328 11.4827 9.00443 11.5236C8.94559 11.5645 8.87545 11.5861 8.80378 11.5854C8.6735 11.5925 8.54384 11.6083 8.41567 11.6327V11.6327Z" fill="#333333"/>
<path d="M10.314 10.2066C10.4106 10.1354 10.5254 10.0932 10.6452 10.0848C10.7649 10.0765 10.8845 10.1025 10.9901 10.1596C11.2708 10.229 11.5226 10.3851 11.7094 10.6059C11.8963 10.8266 12.0087 11.1006 12.0308 11.389C12.0361 11.5576 12.0063 11.7254 11.9433 11.8818C11.8803 12.0382 11.7854 12.1798 11.6648 12.2976L11.4863 12.1895C11.6004 11.9976 11.6926 11.7935 11.7612 11.5811C11.8014 11.4383 11.8055 11.2877 11.7732 11.143C11.7409 10.9982 11.6732 10.8637 11.5762 10.7515C11.3726 10.5624 11.1315 10.4184 10.8686 10.3286C10.7538 10.286 10.5734 10.4035 10.4228 10.4483L10.314 10.2066Z" fill="#7D7D7D"/>
<path d="M9.0352 12.1912C8.78698 12.1709 8.53873 12.1346 8.29054 12.1349C8.04711 12.1379 7.80422 12.1587 7.56383 12.1972C7.21992 12.2486 6.87698 12.3101 6.5376 12.3839C6.03558 12.4677 5.55899 12.6639 5.14344 12.9578C5.13594 12.8017 5.24135 12.7316 5.37539 12.6884C5.81139 12.548 6.24327 12.393 6.68593 12.275C7.31018 12.1085 7.94144 11.9652 8.57257 11.8235C8.71622 11.8042 8.86133 11.7982 9.00608 11.8055L9.0352 12.1912Z" fill="#1D1D1D"/>
<path d="M11.7524 9.11333C11.5712 9.13633 11.3907 9.16921 11.2087 9.17933C11.0496 9.1882 10.9661 9.0847 10.947 8.93233C10.9415 8.83886 10.9546 8.74522 10.9856 8.65687C11.0166 8.56852 11.0649 8.48721 11.1276 8.41767C11.1678 8.36227 11.202 8.30285 11.2378 8.24692L10.8844 8.17257L10.8779 8.10786L11.1038 7.93268C11.333 8.24764 11.5623 8.56262 11.7916 8.87762L11.7524 9.11333Z" fill="#303031"/>
<path d="M7.76829 8.47141C7.80881 8.50976 7.84103 8.55601 7.86296 8.60731C7.88489 8.65861 7.89607 8.71386 7.89579 8.76965C7.89552 8.82544 7.8838 8.88058 7.86137 8.93166C7.83894 8.98274 7.80626 9.02867 7.76537 9.06662C7.67341 9.15297 7.55176 9.20065 7.42562 9.19978C7.29948 9.19892 7.1785 9.14957 7.08774 9.06197C7.04463 9.02181 7.01 8.97342 6.9859 8.91966C6.96179 8.8659 6.94869 8.80785 6.94738 8.74895C6.94606 8.69005 6.95655 8.63147 6.97823 8.57669C6.99992 8.52191 7.03235 8.47202 7.07362 8.42997C7.10414 8.40797 7.13889 8.3925 7.17567 8.38454C7.21245 8.37658 7.25047 8.3763 7.28737 8.38372C7.41537 8.41334 7.53414 8.47772 7.6597 8.51961C7.68393 8.5277 7.72176 8.49876 7.75332 8.4869L7.76829 8.47141Z" fill="#303031"/>
<path d="M9.03498 12.1911L9.00586 11.8054L9.20001 11.9985L9.21541 12.0006L9.23085 11.999C9.22877 12.0254 9.23073 12.052 9.23668 12.0778C9.37312 12.4735 9.58673 12.8383 9.86515 13.1508C9.96118 13.2272 10.0664 13.2912 10.1784 13.3413L10.2806 13.4318C10.2729 13.5435 10.3267 13.5368 10.4133 13.5038C10.5259 13.4608 10.6491 13.4127 10.7177 13.5701L10.4482 13.6944L10.3129 13.6936L10.1112 13.6616L9.77869 13.4364C9.71051 13.3558 9.64675 13.2715 9.57332 13.1956C9.37075 12.975 9.21866 12.713 9.12764 12.4277C9.09929 12.348 9.06601 12.2699 9.03498 12.1911Z" fill="#070707"/>
<path d="M10.1788 13.3413C10.0668 13.2912 9.96159 13.2272 9.86556 13.1509C9.58714 12.8383 9.37352 12.4735 9.23709 12.0778C9.23113 12.052 9.22918 12.0254 9.2313 11.999L9.51347 11.959C9.70564 12.2458 9.89867 12.5321 10.0896 12.8196C10.1758 12.9496 10.2579 13.082 10.3419 13.2133L10.1788 13.3413Z" fill="#7D7D7D"/>
<path d="M12.2941 8.82867C12.2236 8.59843 12.369 8.45323 12.533 8.33418C12.5984 8.29208 12.6748 8.27012 12.7527 8.27102C12.8305 8.27193 12.9063 8.29566 12.9708 8.33927C13.0121 8.3619 13.0358 8.41389 13.0676 8.45243L12.8418 8.85736C12.8607 8.864 12.881 8.86535 12.9006 8.86125C12.9201 8.85715 12.9382 8.84776 12.9528 8.8341C13.0276 8.75056 13.0961 8.66188 13.1671 8.57517C13.2047 8.61791 13.2243 8.67359 13.2217 8.73047C13.2191 8.78736 13.1946 8.84102 13.1532 8.88017C13.0973 8.95279 13.041 9.02546 12.9798 9.09398C12.9357 9.13583 12.8826 9.16685 12.8245 9.18459C12.7664 9.20233 12.705 9.2063 12.6451 9.19619C12.5852 9.18607 12.5285 9.16215 12.4795 9.12631C12.4305 9.09047 12.3905 9.04371 12.3626 8.98973L12.5984 8.7036L12.6301 8.6383L12.6438 8.62451L12.6286 8.6369L12.5918 8.69819L12.2941 8.82867Z" fill="#303031"/>
<path d="M12.8306 10.5896C12.8123 10.4509 12.7745 10.3156 12.7182 10.1875C12.6348 10.0508 12.5202 9.94105 12.6612 9.78418L12.661 9.78813L12.7295 9.75513L12.7274 9.75713L12.7634 9.69265L12.7628 9.69341C12.9774 9.62205 13.1522 9.75494 13.3448 9.79628C13.232 10.1365 13.159 10.4885 13.1272 10.8455L12.9909 10.8158L12.8619 10.6587L12.8306 10.5896Z" fill="#333333"/>
<path d="M9.60763 10.456C9.49993 10.3989 9.38778 10.3506 9.27227 10.3117C9.06215 10.2575 8.9112 10.3901 8.75603 10.4944C8.51542 10.6229 8.33542 10.8414 8.25532 11.1022L8.23362 11.2302L8.20189 11.5798L8.01562 11.6853C8.03194 11.5052 8.04729 11.3714 8.05408 11.2371C8.04885 11.199 8.037 11.1621 8.01908 11.128C8.10637 10.8179 8.29773 10.5472 8.56104 10.3614C8.82434 10.1757 9.14354 10.0862 9.46501 10.1081C9.54241 10.1255 9.61618 10.1563 9.68301 10.1991L9.60763 10.456Z" fill="#7D7D7D"/>
<path d="M6.01325 6.93433L6.16939 7.51673C6.02717 7.34909 5.88495 7.18145 5.74271 7.01381C5.57771 6.81903 5.51671 6.82202 5.38211 7.03241C5.36759 7.05511 5.3552 7.07903 5.34179 7.10241C5.32146 7.08106 5.30624 7.05536 5.29728 7.02727C5.28833 6.99918 5.28587 6.96942 5.2901 6.94024C5.29432 6.91106 5.30512 6.88322 5.32168 6.85882C5.33824 6.83443 5.36012 6.81411 5.38568 6.79941C5.46841 6.71029 5.5742 6.64582 5.69132 6.61315C5.80844 6.58047 5.93232 6.58087 6.04923 6.61429C6.07586 6.62247 6.10448 6.62127 6.13032 6.61088C6.25856 6.55588 6.29191 6.62779 6.32866 6.72558C6.36333 6.79207 6.40621 6.85396 6.45629 6.90978L6.4868 7.00478L6.4528 7.06914L6.45207 7.06999L5.94454 6.77855L6.01325 6.93433Z" fill="#121212"/>
<path d="M11.7786 12.5755L12.0398 12.8134C11.6993 13.1639 11.2402 13.3744 10.7524 13.4038C10.7832 13.3427 10.8232 13.2868 10.8711 13.238C11.1036 13.0649 11.3443 12.9017 11.5803 12.7327C11.6539 12.68 11.7221 12.6205 11.7786 12.5755Z" fill="#EC9B21"/>
<path d="M13.4741 9.85248L13.5941 9.86357L13.2045 11.9696C13.1839 11.9649 13.164 11.9578 13.145 11.9486C13.1647 11.7233 12.918 11.4968 13.1481 11.2706C13.1698 11.2493 13.1608 11.1997 13.166 11.1633C13.1774 11.1133 13.1884 11.0633 13.2002 11.0134C13.2914 10.6264 13.3827 10.2394 13.4741 9.85248Z" fill="#333333"/>
<path d="M6.59356 10.0152L6.58203 9.85571C6.69962 9.9203 6.81117 9.99533 6.91532 10.0799C7.01409 10.1745 7.24767 10.1692 7.17675 10.4051C7.13518 10.5433 7.18521 10.7064 7.03742 10.8141C7.0058 10.8434 6.97783 10.8763 6.95414 10.9123C6.92135 10.8703 6.88839 10.8286 6.85577 10.7865C6.78822 10.6995 6.72076 10.6123 6.65341 10.5251C6.65347 10.3979 6.65854 10.2703 6.65082 10.1434C6.63929 10.0977 6.61992 10.0543 6.59356 10.0152V10.0152Z" fill="#0A0A0A"/>
<path d="M10.3138 10.2066L10.4227 10.4483C10.0287 10.7312 9.69963 11.0949 9.45737 11.5152C9.30554 11.4153 9.25959 11.3159 9.38251 11.1798C9.64105 10.8936 9.89365 10.6025 10.1531 10.317C10.2022 10.2741 10.2562 10.2371 10.3138 10.2066Z" fill="#474747"/>
<path d="M11.4865 12.1895L11.6649 12.2976C11.3733 12.5801 11.0835 12.8644 10.7887 13.1439C10.7757 13.1587 10.7591 13.17 10.7405 13.1766C10.7219 13.1832 10.702 13.1849 10.6825 13.1815C10.6631 13.1782 10.6449 13.1699 10.6295 13.1575C10.6142 13.145 10.6023 13.1289 10.5951 13.1106C10.5734 13.0711 10.5651 12.9905 10.5901 12.9674C10.8693 12.7101 11.1561 12.4602 11.4416 12.2091C11.4555 12.2003 11.4706 12.1938 11.4865 12.1895V12.1895Z" fill="#474747"/>
<path d="M10.9411 7.7084L11.0328 7.83333C10.6313 7.98078 10.2071 8.05693 9.77933 8.05832C9.61498 8.0407 9.45195 8.01238 9.29127 7.97355C9.22104 7.96049 9.15149 7.94409 9.08154 7.92916L9.19448 7.75851L9.33819 7.80451C9.71086 7.9339 10.1156 7.93772 10.4907 7.8154C10.6241 7.77661 10.7554 7.73068 10.8839 7.6778L10.9411 7.7084Z" fill="#010101"/>
<path d="M7.05869 6.35984L6.9071 6.55257C6.89403 6.54507 6.84953 6.51784 6.80342 6.49334C6.63636 6.40457 6.50923 6.46451 6.48365 6.64167C6.47685 6.68875 6.46302 6.7349 6.45242 6.78148C6.42483 6.70566 6.36442 6.62521 6.37533 6.55482C6.42256 6.25054 6.66659 6.09861 6.94787 5.92932L7.05869 6.35984Z" fill="#121212"/>
<path d="M7.76411 9.88592C7.53002 9.85285 7.38752 9.71337 7.42418 9.5428C7.43714 9.49616 7.46779 9.45641 7.5096 9.43202C7.60052 9.38354 7.70019 9.35002 7.81482 9.30273L8.08959 9.65273L7.82922 9.85666L7.8307 9.85493L7.76141 9.88787L7.76411 9.88592Z" fill="#828282"/>
<path d="M12.5596 9.83449C12.5913 9.81366 12.6253 9.79675 12.661 9.78412L12.6608 9.78804L12.678 9.77979C12.57 9.78921 12.4631 9.80891 12.3589 9.83861C12.3719 9.85237 12.3876 9.86325 12.405 9.87056C12.4225 9.87787 12.4413 9.88144 12.4602 9.88105C12.4791 9.88067 12.4977 9.87632 12.5148 9.8683C12.532 9.86028 12.5472 9.84876 12.5596 9.83449Z" fill="#828282"/>
<path d="M12.7295 9.755L12.7275 9.756V9.757L12.7295 9.755Z" fill="#828282"/>
<path d="M6.65349 10.5251C6.72093 10.6123 6.78838 10.6994 6.85585 10.7865C6.88847 10.8285 6.92143 10.8703 6.95422 10.9123L6.91922 11.6997C6.80047 11.4287 6.69659 11.2041 6.60571 10.9749C6.59378 10.9141 6.59598 10.8513 6.61215 10.7915C6.62299 10.7024 6.63945 10.6139 6.65349 10.5251Z" fill="#333333"/>
<path d="M8.50241 1.14392C8.35205 1.022 8.19504 0.908526 8.0321 0.804015C7.77871 0.658445 7.51082 0.535815 7.25293 0.371435L7.45757 0.354675L7.89319 0.553875C7.94502 0.592065 7.99633 0.630945 8.04881 0.668315C8.1456 0.737255 8.2485 0.799455 8.33881 0.875315C8.43149 0.953245 8.51211 1.0442 8.61256 1.14388L8.50241 1.14392Z" fill="#EEEEEE"/>
<path d="M12.4569 2.52665C12.4102 2.39396 12.3859 2.25446 12.3848 2.11382C12.4308 1.83152 12.5221 1.55593 12.5949 1.27759C12.6125 1.31428 12.6232 1.35386 12.6267 1.3944C12.5848 1.75524 12.5385 2.11561 12.4914 2.47589C12.4891 2.49389 12.4688 2.50977 12.4569 2.52665Z" fill="#131313"/>
<path d="M13.4743 9.85246C13.383 10.2394 13.2917 10.6264 13.2004 11.0134C13.1887 11.0633 13.1776 11.1133 13.1662 11.1633L13.151 11.1667L13.1355 11.1643L13.1274 10.8456C13.1592 10.4886 13.2323 10.1365 13.3451 9.79633L13.4743 9.85246Z" fill="#EEEEEE"/>
<path d="M8.50229 1.14388H8.61241C8.51196 1.0442 8.43134 0.953245 8.33865 0.875315C8.24837 0.799415 8.14547 0.737215 8.04865 0.668315C7.99621 0.630905 7.9449 0.592025 7.89307 0.553835C7.92416 0.544505 7.96882 0.517615 7.98431 0.528485C8.23438 0.703985 8.48159 0.883129 8.72594 1.06592C8.75382 1.08692 8.75408 1.14124 8.76713 1.1801L8.49977 1.2471L8.50229 1.14388Z" fill="#353535"/>
<path d="M14.4819 12.6995C14.0469 12.5115 13.5887 12.3825 13.1195 12.3159C13.0892 12.3078 13.0599 12.2963 13.0322 12.2817C13.0644 12.2559 13.1055 12.202 13.1275 12.2083C13.5764 12.3373 14.0233 12.4726 14.4697 12.6093C14.4979 12.6179 14.5188 12.648 14.5431 12.6681L14.4819 12.6995Z" fill="#090909"/>
<path d="M6.38141 8.26621L6.4877 8.47901L6.48546 8.5739L6.42237 8.63407C6.24039 8.46224 6.11346 8.24031 6.05762 7.99634L6.38141 8.26621Z" fill="#EEEEEE"/>
<path d="M6.98096 9.74833C7.21715 9.59847 7.33884 9.78803 7.4931 9.89663C7.38117 10.0605 7.14103 9.98223 6.98096 9.74833Z" fill="#303031"/>
<path d="M5.1436 7.54907C4.90162 7.51687 4.65566 7.56209 4.44096 7.67826C4.43605 7.63322 4.44905 7.58806 4.47716 7.55252C4.50526 7.51698 4.54621 7.49392 4.59117 7.48832C4.74114 7.45509 4.89371 7.43489 5.04717 7.42794C5.07704 7.42647 5.11134 7.50659 5.1436 7.54907Z" fill="#121212"/>
<path d="M6.87705 7.34306L6.80127 7.01024L6.85246 6.99152L7.15775 7.61538L6.87705 7.34306Z" fill="#EEEEEE"/>
<path d="M9.5134 11.959L9.23123 11.999L9.21575 12.0006L9.20035 11.9986L9.16162 11.6757C9.24041 11.6867 9.31475 11.7188 9.37671 11.7687C9.43866 11.8186 9.48591 11.8843 9.5134 11.959V11.959Z" fill="#474747"/>
<path d="M13.1671 8.57519C13.0961 8.6619 13.0276 8.75058 12.9528 8.83412C12.9382 8.84778 12.9201 8.85717 12.9005 8.86127C12.881 8.86537 12.8607 8.86402 12.8418 8.85737L13.0676 8.45245L13.1671 8.57519Z" fill="#EEEEEE"/>
<path d="M8.01886 11.1281C8.03678 11.1621 8.04862 11.199 8.05386 11.2371C8.04707 11.3714 8.03172 11.5053 8.0154 11.6853L8.20167 11.5798C8.1934 11.6163 8.19693 11.673 8.17437 11.6849C8.11917 11.7046 8.0615 11.7164 8.00303 11.7202C7.95113 11.5254 7.95663 11.3198 8.01886 11.1281Z" fill="#828282"/>
<path d="M10.1787 13.3414L10.3418 13.2134C10.3514 13.218 10.3651 13.2203 10.3699 13.2278C10.4065 13.2854 10.4413 13.3439 10.4767 13.4022L10.2809 13.4319L10.1787 13.3414Z" fill="#353535"/>
<path d="M9.33805 7.8044L9.19434 7.7584L9.19979 7.56576C9.25673 7.55585 9.29899 7.39903 9.37202 7.55008L9.33805 7.8044Z" fill="#353535"/>
<path d="M9.60742 10.456L9.68284 10.199C9.88273 10.3094 9.89103 10.3587 9.74349 10.4844C9.67526 10.5425 9.63925 10.5244 9.60742 10.456Z" fill="#474747"/>
<path d="M12.2939 8.82869L12.5916 8.69818L12.5982 8.70362L12.3625 8.98972L12.2939 8.82869Z" fill="#121212"/>
<path d="M12.8322 11.5129L12.3633 11.2151C12.4549 11.2102 12.5462 11.229 12.6284 11.2698C12.7105 11.3106 12.7807 11.372 12.8321 11.448L12.8322 11.5129Z" fill="#121212"/>
<path d="M7.15746 11.4539C7.27178 11.3098 7.43443 11.212 7.61532 11.1786L7.64542 11.2246L7.15742 11.4856C7.15715 11.475 7.15716 11.4645 7.15746 11.4539Z" fill="#121212"/>
<path d="M7.75323 8.48701L7.40674 8.32071C7.44026 8.30595 7.47643 8.29816 7.51305 8.2978C7.54967 8.29745 7.58598 8.30453 7.61978 8.31864C7.65358 8.33274 7.68416 8.35356 7.70967 8.37983C7.73519 8.40611 7.75509 8.43729 7.76819 8.4715L7.75323 8.48701Z" fill="#303031"/>
<path d="M13.127 10.8456L13.135 11.1643L12.9907 10.8158L13.127 10.8456Z" fill="#333333"/>
<path d="M4.39961 13.6933L4.3864 13.8226L4.24023 13.7515L4.39961 13.6933Z" fill="#0A0A0A"/>
<path d="M5.07471 12.535L5.17643 12.5435L5.13001 12.6309L5.07471 12.535Z" fill="#0A0A0A"/>
<path d="M4.69336 12.8312V12.6719H4.71636L4.73092 12.7281L4.74 12.8296V12.8296L4.69336 12.8312Z" fill="#0A0A0A"/>
<path d="M5.2112 15.1298L5.13232 15.0431L5.2471 14.9702L5.24585 14.9719L5.2112 15.1298Z" fill="#0A0A0A"/>
<path d="M8.2334 11.2302L8.2551 11.1022L8.2334 11.2302Z" fill="#828282"/>
<path d="M6.4885 7.03534L6.51996 7.13346L6.45215 7.07001L6.45284 7.06923L6.4885 7.03534Z" fill="#121212"/>
<path d="M4.74023 12.8296L4.79132 12.8679L4.78049 12.8782L4.74028 12.8295L4.74023 12.8296Z" fill="#0A0A0A"/>
<path d="M4.84092 12.9899L4.88142 12.9406L4.89242 12.951L4.84082 12.9897L4.84092 12.9899Z" fill="#0A0A0A"/>
<path d="M12.8306 10.5896L12.8618 10.6587L12.8306 10.5896Z" fill="#333333"/>
<path d="M5.44482 10.0637L5.48087 10.0139L5.44482 10.0637Z" fill="#828282"/>
<path d="M10.3131 13.6936L10.4484 13.6944C10.4566 13.7245 10.4701 13.7529 10.4881 13.7784C10.9547 14.3022 11.5046 14.7455 12.1156 15.0902C12.6353 15.3565 13.2041 15.5134 13.7868 15.5512C13.8824 15.5548 13.9775 15.5708 14.0728 15.581C13.9431 15.6645 13.8142 15.749 13.6835 15.831C13.6248 15.8679 13.5626 15.8999 13.502 15.934C13.1187 15.8309 12.7252 15.7535 12.3544 15.6189C11.7451 15.3935 11.1871 15.0481 10.7137 14.6032C10.5504 14.4525 10.3965 14.2923 10.2298 14.1453C10.1128 14.0422 10.0983 13.9496 10.2108 13.8375C10.2491 13.7927 10.2834 13.7445 10.3131 13.6936V13.6936Z" fill="#161616"/>
<path d="M14.3633 15.6087C14.7107 15.3065 14.9828 14.9275 15.1583 14.5017C15.3035 14.0587 15.3102 13.582 15.1777 13.1351C15.1607 13.0757 15.1497 13.0147 15.131 12.9333C15.3003 13.119 15.428 13.3387 15.5056 13.5777C15.5832 13.8167 15.6089 14.0695 15.5809 14.3192C15.5529 14.5689 15.4719 14.8098 15.3433 15.0257C15.2148 15.2416 15.0416 15.4275 14.8354 15.5711C14.7306 15.605 14.6239 15.6328 14.5158 15.6544C14.4687 15.6615 14.4144 15.6253 14.3633 15.6087Z" fill="#7D7D7D"/>
<path d="M14.3631 15.6088C14.4142 15.6253 14.4685 15.6616 14.5156 15.6544C14.6236 15.6328 14.7303 15.6051 14.8352 15.5712C14.6895 15.6875 14.5497 15.8115 14.3964 15.9179C14.2761 15.9942 14.1512 16.0629 14.0223 16.1236C13.9647 16.1595 13.8959 16.1729 13.829 16.1613C13.7621 16.1497 13.7018 16.1139 13.6597 16.0607L13.6692 16.0295L14.3631 15.6088Z" fill="#353535"/>
<path d="M15.5171 8.39343C16.02 8.60774 15.9664 10.2934 15.6086 10.7391C15.6919 9.95692 15.6611 9.16676 15.5171 8.39343V8.39343Z" fill="#F2F2F2"/>
<path d="M13.7922 19.3941L13.6025 18.8775C13.669 18.9452 13.7203 19.0263 13.753 19.1154C13.7857 19.2045 13.799 19.2995 13.7922 19.3941V19.3941Z" fill="#121212"/>
<path d="M13.8565 19.6512L13.8066 19.4536C13.8873 19.5048 13.9414 19.562 13.8565 19.6512Z" fill="#121212"/>
<path d="M13.563 18.784L13.5049 18.6536L13.563 18.784Z" fill="#121212"/>
<path d="M5.2085 15.5841L5.65223 15.6458C5.70297 15.6616 5.75254 15.681 5.80057 15.7039C5.97257 15.7999 6.14209 15.8999 6.31257 15.9984L6.35203 16.094C6.30528 16.1344 6.24705 16.1592 6.1855 16.1649C6.12396 16.1705 6.06219 16.1567 6.00887 16.1255C5.75922 15.9879 5.51698 15.8378 5.27507 15.6879C5.24291 15.6679 5.2302 15.6194 5.2085 15.5841Z" fill="#353535"/>
<path d="M13.7694 8.25238L13.7495 8.31222L13.7694 8.25238Z" fill="#070707"/>
<path d="M8.70654 15.2281C8.92207 15.0617 9.14433 14.9025 9.3512 14.7269C9.54652 14.5611 9.72884 14.3808 9.91009 14.2007C9.96763 14.1435 10.0042 14.1235 10.0731 14.1833C10.4634 14.5227 10.8567 14.8591 11.2488 15.1965C10.4033 15.2678 9.55364 15.2784 8.70654 15.2281V15.2281Z" fill="#333333"/>
<path d="M9.77882 13.4363L10.1114 13.6616C9.88462 14.0724 9.56869 14.4273 9.1868 14.7C8.84784 14.9696 8.48653 15.2098 8.1068 15.4181C7.60505 15.6935 7.05447 15.8685 6.4858 15.9334C6.37931 15.8718 6.26707 15.8175 6.16826 15.7463C6.10004 15.6885 6.03704 15.6248 5.97998 15.5559L6.11645 15.5503L6.28427 15.5481C6.63452 15.4714 6.99466 15.4225 7.33317 15.3128C8.29308 14.9565 9.12866 14.3288 9.7381 13.506C9.75362 13.484 9.76725 13.4607 9.77882 13.4363V13.4363Z" fill="#161616"/>
<path d="M5.98015 15.5559C6.03721 15.6247 6.10021 15.6884 6.16843 15.7462C6.26724 15.8175 6.37948 15.8718 6.48597 15.9333L6.31256 15.9984C6.14206 15.8999 5.9725 15.8 5.80056 15.7039C5.75254 15.6811 5.70297 15.6617 5.65222 15.6458C5.54644 15.5139 5.44069 15.3821 5.33496 15.2502L5.41574 15.1636C5.52598 15.2653 5.62962 15.3748 5.74914 15.4653C5.82165 15.5059 5.89938 15.5364 5.98015 15.5559V15.5559Z" fill="#0A0A0A"/>
<path d="M11.555 6.62177C11.5194 6.63284 11.4859 6.64968 11.4557 6.67161C11.1347 6.97236 10.7279 7.1657 10.292 7.22477C10.052 7.27331 9.80781 7.29777 9.56299 7.29777L10.0531 7.09949C10.0051 7.08149 9.98806 7.06909 9.97175 7.06988C9.65582 7.08517 9.70444 7.02388 9.71123 6.81288C9.72644 6.34035 9.75463 5.86821 9.77182 5.39573C9.76878 5.30245 9.75883 5.20953 9.74206 5.11773C9.76677 5.11198 9.79848 5.09373 9.81514 5.10228C10.2636 5.31017 10.7573 5.40143 11.2504 5.36758C11.443 5.36327 11.6347 5.32444 11.8269 5.30134C11.8505 5.51561 11.8521 5.73175 11.8314 5.94634C11.771 6.15767 11.6897 6.36246 11.5887 6.55769V6.55769L11.5553 6.62148L11.555 6.62177Z" fill="#333333"/>
<path d="M11.8269 5.30129C11.6348 5.32439 11.4431 5.36322 11.2505 5.36753C10.7573 5.40138 10.2636 5.31013 9.81519 5.10223C9.79853 5.0937 9.76682 5.11193 9.74211 5.11768C9.68812 5.12638 9.63535 5.14145 9.58491 5.16256C9.33074 5.28915 9.0487 5.34947 8.76499 5.33791C8.45425 5.34368 8.14299 5.31743 7.83181 5.31113C7.71693 5.3088 7.68535 5.25405 7.69569 5.1589C7.75047 4.65496 7.80756 4.15125 7.85931 3.64704C7.86908 3.54099 7.86956 3.43429 7.86076 3.32815C7.85028 3.18499 7.93676 3.18331 8.04108 3.20662C8.2059 3.2543 8.37331 3.29252 8.5425 3.32108C8.79587 3.34762 9.0525 3.34608 9.30773 3.35655C9.59557 3.37853 9.88447 3.38304 10.1729 3.37007C10.6629 3.32121 11.1484 3.23267 11.6385 3.1604C11.6772 3.49566 11.7126 3.83762 11.7579 4.1784C11.7781 4.33045 11.8255 4.47913 11.8477 4.63105C11.8791 4.84563 11.8986 5.06179 11.9232 5.27728L11.8269 5.30129ZM8.96854 5.17814L9.03582 5.17691C9.18252 5.13929 9.38546 5.17953 9.38436 4.93777C9.38425 4.9133 9.45606 4.86911 9.49616 4.86728C9.6627 4.85879 9.82958 4.85934 9.99606 4.86895C10.0482 4.87224 10.1393 4.9174 10.1409 4.94695C10.1516 5.14466 10.3116 5.11878 10.4385 5.14515L10.8787 5.20833C11.1823 5.23236 11.4878 5.20966 11.7845 5.14104L11.7465 4.91163C11.5963 4.39422 11.5326 3.85555 11.558 3.31737L10.677 3.46861L9.94592 3.54418L8.83376 3.51718L8.77525 3.51074C8.64502 3.48874 8.51294 3.47374 8.38491 3.44324C8.01105 3.35432 8.02627 3.35324 7.99224 3.70418C7.95569 4.0811 7.888 4.45528 7.8339 4.83066L7.77531 5.19781H8.59972L8.96854 5.17814Z" fill="#090806"/>
<path d="M9.47363 7.32538L9.48163 7.31213L9.47411 7.32583L9.47363 7.32538Z" fill="#050504"/>
<path d="M7.66199 1.69498L7.64551 1.70718L7.65912 1.69226L7.66199 1.69498Z" fill="#333333"/>
<path d="M6.11654 15.4888L6.08643 15.3674L6.1603 15.337L6.1523 15.3341L6.1593 15.3387L6.22117 15.2949C6.37147 15.2358 6.52155 15.1762 6.67217 15.1178C6.86051 15.0446 7.05251 14.9791 7.23717 14.8983C7.61583 14.7326 7.99151 14.5606 8.36664 14.3876C8.55001 14.3031 8.73077 14.2131 8.90974 14.1203C8.96511 14.0849 9.01738 14.0449 9.06598 14.0007C9.00778 14.2138 8.57323 14.5139 7.78729 14.9018C7.31184 15.1576 6.80719 15.3549 6.28435 15.4895L6.11654 15.4888Z" fill="#F5F5F5"/>
<path d="M5.55322 13.0076C5.82856 12.636 6.25399 12.6758 6.62279 12.5883C6.44946 12.6614 6.27908 12.742 6.10197 12.8056C5.92841 12.8679 5.81782 13.071 5.55322 13.0076Z" fill="#EEEEEE"/>
<path d="M5.41585 15.1636L5.33506 15.2501L5.21143 15.1298L5.24608 14.9718L5.41585 15.1636Z" fill="#050504"/>
<path d="M6.11685 15.4888L6.28459 15.4895L6.28452 15.548L6.1167 15.5502L6.11685 15.4888Z" fill="#303031"/>
<path d="M6.22154 15.2949L6.15967 15.3387L6.22154 15.2949Z" fill="#303031"/>
<path d="M6.1603 15.337L6.08643 15.3674L6.1603 15.337Z" fill="#303031"/>
<path d="M12.2332 5.05033L12.2319 4.44739L12.2272 4.34939L12.1956 3.99839L12.1606 3.8981L11.9951 2.6792C12.1906 3.04796 12.3057 3.45399 12.3328 3.87049L12.3335 4.60464L12.3273 4.73359L12.2998 4.95666L12.2432 5.21098L12.2332 5.05033Z" fill="#EEEEEE"/>
<path d="M11.2061 1.11651C11.5161 0.728438 11.9285 0.434795 12.3967 0.268738L12.4411 0.330568L11.2061 1.11651Z" fill="#EEEEEE"/>
<path d="M11.827 5.30128L11.9233 5.27728C12.0175 5.68181 11.9641 6.10668 11.7726 6.47528C11.7487 6.52063 11.6519 6.53106 11.5889 6.55768C11.6898 6.36245 11.7711 6.15766 11.8316 5.94633C11.8522 5.73173 11.8507 5.51557 11.827 5.30128V5.30128Z" fill="#131313"/>
<path d="M12.3333 4.60469L12.3325 3.87054C12.4226 4.10693 12.4229 4.36813 12.3333 4.60469Z" fill="#161616"/>
<path d="M12.2993 4.95671L12.3268 4.73364C12.3725 4.81415 12.4024 4.89288 12.2993 4.95671Z" fill="#161616"/>
<path d="M12.2329 5.05035L12.2429 5.21101L12.2329 5.05035Z" fill="#1D1D1D"/>
<path d="M12.1602 3.89813L12.1952 3.99842L12.1602 3.89813Z" fill="#1D1D1D"/>
<path d="M12.2271 4.34949L12.2317 4.44749L12.2271 4.34949Z" fill="#1D1D1D"/>
<path d="M11.5552 6.62147L11.5886 6.55768L11.5552 6.62147Z" fill="#131313"/>
<path d="M13.9045 15.4194L13.7752 15.4203L13.5363 15.3594L13.5215 15.3564H13.5063L13.2709 15.2727C13.0316 15.1943 12.7887 15.1245 12.5544 15.0342C12.4234 14.9748 12.2969 14.9059 12.1759 14.8279C11.8517 14.6685 11.5734 14.429 11.3674 14.1322C11.3351 14.0882 11.2991 14.0471 11.2598 14.0094C11.6529 14.275 12.0618 14.5164 12.4842 14.7322C12.949 14.9131 13.4235 15.0678 13.9055 15.1957C13.9093 15.1998 13.9141 15.203 13.9193 15.2049C13.9246 15.2068 13.9303 15.2074 13.9358 15.2067L14.005 15.2313L14.0722 15.2639L14.1447 15.3245L14.142 15.39L14.1034 15.4114C14.0924 15.4106 14.0814 15.4141 14.0728 15.4211L13.9388 15.421L13.9045 15.4194Z" fill="#F5F5F5"/>
<path d="M14.7802 13.3036L14.0796 12.8326C14.2327 12.8185 14.386 12.8577 14.5136 12.9435C14.6412 13.0293 14.7354 13.1565 14.7802 13.3036V13.3036Z" fill="#EEEEEE"/>
<path d="M13.5361 15.3594L13.775 15.4203L13.5361 15.3594Z" fill="#1D1D1D"/>
<path d="M13.2705 15.2726L13.506 15.3564L13.2705 15.2726Z" fill="#1D1D1D"/>
<path d="M14.1416 15.39L14.1443 15.3246L14.194 15.3514L14.1416 15.39Z" fill="#1D1D1D"/>
<path d="M14.0721 15.2638L14.0049 15.2313L14.0721 15.2638Z" fill="#1D1D1D"/>
<path d="M14.0728 15.4211C14.0814 15.4141 14.0923 15.4107 14.1034 15.4114L14.0728 15.4211Z" fill="#1D1D1D"/>
<path d="M13.9043 15.4194L13.9386 15.421L13.9043 15.4194Z" fill="#1D1D1D"/>
<path d="M13.9356 15.2067C13.93 15.2074 13.9244 15.2068 13.9191 15.2049C13.9138 15.203 13.9091 15.1999 13.9053 15.1957L13.9356 15.2067Z" fill="#1D1D1D"/>
<path d="M14.005 9.02645L13.9302 8.93207L14.1761 8.41571L14.2087 8.44691L14.005 9.02645Z" fill="#090909"/>
<path d="M14.2089 8.44695L14.1763 8.41575L14.3414 8.15747L14.3416 8.15774L14.2089 8.44695Z" fill="#161616"/>
<path d="M14.4433 7.99881L14.4163 8.0844L14.3818 8.06571L14.4407 7.9964L14.4433 7.99881Z" fill="#161616"/>
<path d="M14.3413 8.15745L14.3556 8.14429L14.3531 8.15272L14.3416 8.15772L14.3413 8.15745Z" fill="#161616"/>
<path d="M14.4769 7.96658L14.4435 7.99874L14.4409 7.99635L14.4744 7.96429L14.4769 7.96658Z" fill="#161616"/>
<path d="M14.9795 12.3818L14.9712 12.3952L14.9791 12.3814L14.9795 12.3818Z" fill="#1D1D1D"/>
<path d="M14.4746 7.96429L14.4901 7.95129L14.4771 7.96652L14.4746 7.96429Z" fill="#161616"/>
<path d="M4.4416 10.6213L4.39033 10.6281L4.35645 9.59094L4.41209 9.59814L4.4416 10.6213Z" fill="#050504"/>
<path d="M4.41209 9.59814L4.35645 9.59094L4.37608 9.34094L4.44266 9.37371L4.41209 9.59814Z" fill="#1D1D1D"/>
<path d="M4.47593 9.02179L4.44445 9.18442L4.39111 9.14342L4.40994 8.98901L4.47593 9.02179Z" fill="#1D1D1D"/>
<path d="M4.39095 9.14343L4.44429 9.18443L4.4425 9.37378L4.37598 9.34098L4.39095 9.14343Z" fill="#050504"/>
<path d="M4.47616 9.0218L4.41016 8.98899L4.42742 8.82458L4.47671 8.96052L4.47616 9.0218Z" fill="#050504"/>
<path d="M4.42724 8.82453L4.40998 8.98897L4.39115 9.14345L4.37615 9.34099L4.35652 9.59099L4.3904 10.6282L4.40713 10.6862C4.40555 10.6912 4.40503 10.6965 4.4056 10.7017C4.40617 10.7069 4.40781 10.712 4.41043 10.7166L4.41489 10.793L4.38316 10.8024L4.19268 10.3009L4.17602 10.2348L4.16494 10.1732L4.10449 9.72513L4.10503 9.37429L4.10641 9.30865C4.10107 9.02562 4.17958 8.74734 4.33206 8.50884C4.36329 8.46671 4.42944 8.44811 4.47946 8.41864L4.48024 8.52064L4.48929 8.5287L4.49851 8.52078L4.44513 8.74595L4.42724 8.82453Z" fill="#F2F2F2"/>
<path d="M4.10444 9.72504L4.16489 10.1731C4.11403 10.1115 4.08142 10.0369 4.07074 9.95769C4.06006 9.87851 4.07173 9.79793 4.10444 9.72504Z" fill="#0A0A0A"/>
<path d="M4.44531 8.74586L4.49869 8.52069L4.44531 8.74586Z" fill="#050504"/>
<path d="M4.17627 10.2347L4.19293 10.3008L4.17627 10.2347Z" fill="#0A0A0A"/>
<path d="M4.48027 8.52058L4.47949 8.41858C4.56843 8.45202 4.53956 8.48617 4.48027 8.52058Z" fill="#050504"/>
<path d="M4.10636 9.30859L4.10498 9.37423L4.10636 9.30859Z" fill="#0A0A0A"/>
<path d="M4.23769 11.2285L4.28117 11.2419L4.27264 11.2535C4.2601 11.2462 4.248 11.2383 4.23584 11.2305L4.23769 11.2285Z" fill="#050504"/>
<path d="M4.41033 10.7165C4.40771 10.7119 4.40606 10.7068 4.4055 10.7016C4.40493 10.6964 4.40545 10.6911 4.40703 10.6861C4.4123 10.6927 4.41703 10.6997 4.42118 10.7071L4.41033 10.7165Z" fill="#050504"/>
<path d="M6.4883 7.03533L6.45264 7.06919L6.48664 7.00482L6.4883 7.03533Z" fill="#050504"/>
<path d="M7.76123 9.88786L7.83052 9.85492L7.76123 9.88786Z" fill="#050504"/>
<path d="M12.5918 8.69818L12.6286 8.6369L12.6301 8.6383L12.5984 8.7036L12.5918 8.69818Z" fill="#121212"/>
<path d="M12.6284 8.63691L12.6436 8.62451L12.6299 8.6383L12.6284 8.63691Z" fill="#121212"/>
<path d="M12.6611 9.78813L12.7296 9.75513L12.6611 9.78813Z" fill="#050504"/>
<path d="M12.7275 9.75716L12.7635 9.69269L12.7275 9.75716Z" fill="#050504"/>
<path d="M10.8784 5.20825L10.4383 5.14509C10.4196 5.10204 10.3957 5.06143 10.3672 5.02418C10.2258 4.88598 10.0443 4.79607 9.84866 4.76732C9.65305 4.73857 9.45336 4.77245 9.27817 4.86412L9.02473 4.7759L9.20045 4.69243L9.20205 4.64898L9.12891 4.61514L9.13072 4.61791L9.06215 4.58191L9.06492 4.58467L8.99572 4.54851L8.99902 4.55121L8.93033 4.51421L8.93384 4.51679L8.8623 4.48353L8.86256 4.48544L8.86886 4.44359C8.87734 4.37583 8.88952 4.30859 8.90535 4.24217C8.91319 4.18542 8.94043 4.13314 8.98245 4.0942C9.02446 4.05526 9.07867 4.03206 9.13584 4.02856C9.5086 4.00004 9.58245 3.93767 9.6637 3.60205L9.94564 3.54415L10.6768 3.46857L10.7267 3.52339C10.7036 3.53771 10.6697 3.54694 10.659 3.56725C10.6129 3.6547 10.5326 3.75118 10.5453 3.83299C10.5546 3.89227 10.6844 3.96119 10.7707 3.97799C11.0568 4.03373 11.2417 4.0752 11.1477 3.61499C11.3052 3.61916 11.3455 3.70899 11.357 3.84444C11.3708 4.0082 11.2319 4.21976 11.5058 4.31844C11.5342 4.32866 11.5355 4.43511 11.5303 4.49544C11.5181 4.58213 11.5008 4.66802 11.4784 4.75266L11.3526 4.84193C11.1534 4.89864 10.9836 5.02979 10.8784 5.20825V5.20825ZM11.2211 4.15233L10.4266 4.68133C10.6419 4.66793 10.8549 4.62933 11.0611 4.56633C11.2728 4.50118 11.3125 4.38509 11.2211 4.15233Z" fill="#F6A934"/>
<path d="M7.8335 4.83066C7.8876 4.45528 7.95529 4.08111 7.99184 3.70419C8.02584 3.35318 8.01065 3.35432 8.38451 3.44324C8.51251 3.47369 8.64462 3.4887 8.77488 3.51076C8.73637 3.50926 8.69783 3.51283 8.66025 3.52136C8.56317 3.55736 8.42164 3.57771 8.38487 3.64656C8.35181 3.70268 8.34091 3.76911 8.35429 3.83284C8.36768 3.89658 8.40439 3.95301 8.45723 3.99109L8.46045 4.26183L8.28568 4.17945C8.18624 4.4029 8.22755 4.47436 8.53302 4.62485L8.56336 5.12086C8.47601 5.0149 8.3633 4.93274 8.2357 4.882C8.1081 4.83127 7.96975 4.81361 7.8335 4.83066V4.83066Z" fill="#F1CD91"/>
<path d="M9.94586 3.54419L9.66397 3.60213C9.58272 3.93775 9.50887 4.00013 9.13611 4.02864C9.07893 4.03215 9.02473 4.05534 8.98271 4.09428C8.94069 4.13322 8.91345 4.1855 8.90562 4.24225C8.88978 4.30868 8.8776 4.37593 8.86913 4.44369C8.84103 4.43842 8.81428 4.42754 8.79046 4.41172C8.76665 4.39589 8.74627 4.37543 8.73053 4.35157C8.71479 4.3277 8.70401 4.30091 8.69883 4.27279C8.69366 4.24467 8.69419 4.2158 8.70041 4.18789C8.70486 4.12413 8.70517 4.06015 8.70134 3.99635C8.79617 3.95289 8.95118 3.92622 8.97096 3.86181C8.99704 3.77689 8.91843 3.66186 8.88115 3.56101C8.8746 3.54329 8.84997 3.53165 8.8337 3.51721L9.94586 3.54419Z" fill="#EFA93D"/>
<path d="M11.3526 4.84189L11.4784 4.75262C11.5008 4.66798 11.5181 4.58209 11.5303 4.4954C11.5355 4.4351 11.5342 4.32865 11.5058 4.3184C11.2319 4.21977 11.3708 4.00821 11.3569 3.8444C11.3455 3.70891 11.3052 3.61912 11.1477 3.61495C11.0889 3.56902 11.0205 3.53692 10.9476 3.52106C10.8748 3.5052 10.7992 3.50597 10.7267 3.52333L10.6768 3.46851L11.5578 3.31726C11.5324 3.85541 11.5961 4.39406 11.7463 4.91145L11.3526 4.84189Z" fill="#EEA027"/>
<path d="M8.83377 3.5172C8.85004 3.53164 8.87467 3.54328 8.88122 3.561C8.9185 3.66185 8.99711 3.77688 8.97103 3.8618C8.95125 3.92621 8.79624 3.95288 8.70141 3.99634L8.60074 3.99829L8.50025 3.99762L8.45755 3.99107C8.40474 3.95298 8.36806 3.89655 8.35469 3.83282C8.34132 3.7691 8.35223 3.70268 8.38528 3.64658C8.42205 3.57773 8.56358 3.55738 8.66066 3.52138C8.69824 3.51284 8.73678 3.50927 8.77529 3.51077L8.83377 3.5172Z" fill="#FEFCF8"/>
<path d="M11.3526 4.84192L11.7462 4.91156L11.7842 5.14104C11.4875 5.20967 11.182 5.23235 10.8784 5.20831C10.9836 5.02984 11.1533 4.89865 11.3526 4.84192V4.84192Z" fill="#FEFCF8"/>
<path d="M7.83349 4.83065C7.96975 4.8136 8.1081 4.83126 8.2357 4.88199C8.36331 4.93273 8.47602 5.01489 8.56336 5.12085L8.59936 5.19785H7.7749L7.83349 4.83065Z" fill="#FEFCF8"/>
<path d="M9.20043 4.69244L9.02471 4.77591L9.27815 4.86413L9.03555 5.17689L8.96827 5.17812C8.90165 5.17138 8.83944 5.14171 8.79228 5.09418C8.74512 5.04665 8.71594 4.98421 8.70972 4.91754C8.70634 4.8341 8.71463 4.75059 8.73433 4.66943L9.20043 4.69244Z" fill="#EFA93D"/>
<path d="M9.03564 5.1769L9.27824 4.86414C9.45343 4.77248 9.65312 4.73859 9.84873 4.76734C10.0443 4.79609 10.2258 4.88601 10.3672 5.0242C10.3958 5.06146 10.4196 5.10206 10.4383 5.14511C10.3114 5.11875 10.1514 5.14463 10.1407 4.94692C10.1391 4.91739 10.048 4.87223 9.99585 4.86892C9.82937 4.85932 9.6625 4.85876 9.49595 4.86725C9.45585 4.86908 9.38404 4.91325 9.38415 4.93774C9.38528 5.17952 9.18234 5.13928 9.03564 5.1769Z" fill="#F2F2F2"/>
<path d="M8.73439 4.66943C8.71469 4.75058 8.70641 4.83409 8.70978 4.91754C8.716 4.98421 8.74519 5.04664 8.79235 5.09417C8.83951 5.1417 8.90172 5.17138 8.96833 5.17812L8.59949 5.19782L8.56349 5.12082C8.55336 4.95548 8.54326 4.79015 8.5332 4.62482L8.73439 4.66943Z" fill="#EEB353"/>
<path d="M10.7267 3.52338C10.7992 3.50603 10.8747 3.50525 10.9476 3.52111C11.0205 3.53698 11.0889 3.56907 11.1477 3.615C11.2417 4.0752 11.0567 4.03373 10.7707 3.978C10.6844 3.96119 10.5545 3.89227 10.5453 3.833C10.5326 3.75119 10.6128 3.65471 10.659 3.56726C10.6697 3.54697 10.7035 3.5377 10.7267 3.52338Z" fill="#FEFCF8"/>
<path d="M8.73459 4.66943L8.53342 4.6249C8.22789 4.47436 8.18658 4.4029 8.28602 4.17944L8.46077 4.26182L8.46177 4.25713L8.53291 4.30499L8.86284 4.48549L8.86261 4.48357L8.93412 4.51684L8.93064 4.51425L8.9993 4.55125L8.99603 4.54853L9.0652 4.58471L9.06248 4.58192L9.131 4.61792L9.12924 4.61512L9.20233 4.64899L9.2007 4.69245L8.73459 4.66943Z" fill="#0A0A0A"/>
<path d="M11.2213 4.15234C11.3127 4.3851 11.273 4.50119 11.0613 4.56634C10.855 4.62935 10.642 4.66795 10.4268 4.68134L11.2213 4.15234Z" fill="#090806"/>
<path d="M8.8628 4.4855L8.5328 4.305L8.46172 4.25714L8.46072 4.26183L8.45752 3.99109L8.50013 3.99761L8.60062 3.99828L8.70129 3.99633C8.70512 4.06013 8.70481 4.12411 8.70036 4.18787C8.69415 4.21578 8.69361 4.24465 8.69878 4.27277C8.70396 4.30089 8.71474 4.32768 8.73048 4.35154C8.74622 4.37541 8.7666 4.39587 8.79042 4.41169C8.81423 4.42752 8.84098 4.43839 8.86908 4.44367L8.8628 4.4855Z" fill="#EEB353"/>
<path d="M9.202 4.64898L9.12891 4.61511L9.202 4.64898Z" fill="#EEB353"/>
<path d="M8.93382 4.51685L8.8623 4.48358L8.93382 4.51685Z" fill="#EEB353"/>
<path d="M8.99932 4.55128L8.93066 4.51428L8.99932 4.55128Z" fill="#EEB353"/>
<path d="M9.13102 4.61791L9.0625 4.58191L9.13102 4.61791Z" fill="#EEB353"/>
<path d="M9.06526 4.5847L8.99609 4.54852L9.06526 4.5847Z" fill="#EEB353"/>
<path d="M8.60049 3.99829L8.5 3.99762L8.60049 3.99829Z" fill="#EFA93D"/>
<path d="M8.46143 4.25714L8.53254 4.305L8.46143 4.25714Z" fill="#F1CD91"/>
<path d="M12.6338 7.58262L12.9336 6.81555C12.9661 6.95873 12.9549 7.10837 12.9015 7.24513C12.848 7.38188 12.7548 7.49945 12.6338 7.58262V7.58262Z" fill="#EEEEEE"/>
<path d="M5.31347 7.4279C5.31347 7.4279 6.603 11.0249 9.68296 10.3591C12.7629 9.6934 13.9991 7.7913 13.9771 7.55307C13.9552 7.31484 12.2192 7.12637 12.0056 7.11665C11.7921 7.10693 11.8977 7.86015 10.1643 7.86734C9.07168 7.79992 8.01381 7.4572 7.08919 6.87107C6.85714 6.85286 5.24795 7.26521 5.31347 7.4279Z" fill="#333333"/>
<path d="M5.54572 8.99965C5.54572 8.99965 11.9076 10.6275 13.2229 8.61665C14.5382 6.60585 13.2603 12.0467 12.9299 12.135C12.1158 12.3526 14.1676 13.8961 14.1676 13.8961L11.8453 16.7863C11.8453 16.7863 6.44036 12.808 6.27597 11.4872C6.11158 10.1663 5.29363 10.6485 5.21143 10.1732C5.21249 9.75864 5.32818 9.3525 5.54572 8.99965Z" fill="#333333"/>
<path d="M5.88184 8.92318C5.88184 8.92318 11.9072 10.6274 13.2225 8.61659C14.5378 6.60574 12.1773 11.6691 11.3347 11.7363C10.4921 11.8035 14.1672 13.896 14.1672 13.896L11.8449 16.7862C11.8449 16.7862 6.43994 12.808 6.27555 11.4871C6.11116 10.1663 6.67155 10.7431 6.58935 10.2678C6.4242 9.78579 6.18555 9.33224 5.88184 8.92318V8.92318Z" fill="#121212"/>
<path d="M8.40381 9.2214C8.40381 9.2214 8.91757 6.26491 9.28757 6.2062C9.65757 6.14749 10.062 6.2882 9.67478 8.0282C9.57584 8.70408 9.38864 9.36404 9.11797 9.9912L8.40381 9.2214Z" fill="#EE9A20" stroke="black" stroke-width="0.09368" stroke-miterlimit="10"/>
<path d="M10.847 9.25854C10.9194 9.01709 10.9759 8.85388 10.4293 8.43514C10.3157 8.35792 10.1887 8.30261 10.0549 8.27207C10.0642 8.23084 10.072 8.1995 10.0816 8.15645C10.4688 6.41645 10.0643 6.27569 9.69443 6.33445C9.47159 6.36979 9.19729 7.45482 9.01376 8.31356C8.90275 8.58249 8.72492 8.81861 8.4971 8.99956C8.25998 9.51795 8.12043 10.0756 8.08545 10.6446L9.86595 11.8818C10.3205 11.4483 10.6873 10.9313 10.9464 10.359C11.5727 9.85173 10.7747 9.49997 10.847 9.25854Z" fill="#EE9A20" stroke="black" stroke-width="0.09368" stroke-miterlimit="10"/>
<path d="M4.80717 13.0184C4.59629 13.3286 5.23376 16.2008 7.10039 15.5905C8.96702 14.9801 9.7936 11.7351 9.7936 11.7351L8.04782 10.7348C6.89748 11.3913 5.81236 12.1559 4.80717 13.0184V13.0184Z" fill="#333333" stroke="black" stroke-width="0.09368" stroke-miterlimit="10"/>
<path d="M8.08545 10.6446C8.08545 10.6446 8.2681 7.7813 9.85064 9.03799C10.0567 9.19656 10.2239 9.39993 10.3397 9.63268C10.4556 9.86544 10.5169 10.1215 10.5192 10.3815C10.5214 10.6414 10.4645 10.8985 10.3527 11.1332C10.2409 11.368 10.0772 11.5742 9.87399 11.7363L8.08545 10.6446Z" fill="#7C7C7C" stroke="black" stroke-width="0.09368" stroke-miterlimit="10"/>
<path d="M8.36426 10.7568C8.36426 10.7568 8.53896 8.6968 9.61466 9.57558C10.6904 10.4544 9.58551 11.5139 9.58551 11.5139L8.36426 10.7568Z" fill="#333333" stroke="black" stroke-width="0.06609" stroke-miterlimit="10"/>
<path d="M9.68155 13.7387C8.98094 13.4752 8.24758 13.3087 7.50186 13.244C7.1999 13.3647 6.9457 13.5809 6.778 13.8595C6.61029 14.1382 6.53829 14.464 6.57295 14.7874C6.73106 15.4382 6.63224 15.7715 6.89195 15.8145C7.15166 15.8575 7.48095 16.6444 8.23308 16.3281C8.88418 16.3263 9.52217 16.1448 10.0768 15.8037L9.68155 13.7387Z" fill="#EE9A20" stroke="black" stroke-width="0.09368" stroke-miterlimit="10"/>
<path d="M13.352 11.9601C13.7371 11.9142 16.1755 13.7103 14.7863 15.0454C13.3972 16.3805 9.96955 15.6777 9.96955 15.6777L9.7832 13.7456C10.9141 13.0397 12.109 12.4419 13.352 11.9601V11.9601Z" fill="#333333" stroke="black" stroke-width="0.09368" stroke-miterlimit="10"/>
<path d="M9.68146 13.7387C9.68146 13.7387 6.89473 12.6497 7.39446 14.5534C7.89419 16.4572 9.93555 15.7473 9.93555 15.7473L9.68146 13.7387Z" fill="#7C7C7C" stroke="black" stroke-width="0.09368" stroke-miterlimit="10"/>
<path d="M9.66625 14.0263C9.66625 14.0263 7.64256 13.28 8.00548 14.5847C8.3684 15.8894 9.85078 15.4028 9.85078 15.4028L9.66625 14.0263Z" fill="#333333" stroke="black" stroke-width="0.06609" stroke-miterlimit="10"/>
</g>
<defs>
<clipPath id="clip0_2469_3474">
<rect width="20" height="20" fill="white"/>
</clipPath>
</defs>
</svg>
