<svg width="64" height="64" viewBox="0 0 64 64" fill="none" xmlns="http://www.w3.org/2000/svg">
<g clip-path="url(#clip0_85_69107)">
<path d="M32 64C49.6731 64 64 49.6731 64 32C64 14.3269 49.6731 0 32 0C14.3269 0 0 14.3269 0 32C0 49.6731 14.3269 64 32 64Z" fill="#1E1A31"/>
<path d="M42.2147 17.4962H44.6995L22.1813 46.5363H19.6965L42.2147 17.4962Z" fill="white"/>
<path fill-rule="evenodd" clip-rule="evenodd" d="M34.4189 29.631C35.0365 29.6468 35.6237 29.9033 36.0551 30.3459C36.4867 30.7885 36.728 31.382 36.728 32C36.728 32.6179 36.4867 33.2115 36.0551 33.6541C35.6237 34.0966 35.0365 34.3533 34.4189 34.369H28.2923C25.4544 34.335 22.7443 33.1837 20.7495 31.165C18.7548 29.1462 17.6362 26.4225 17.6362 23.5845C17.6362 20.7465 18.7548 18.0229 20.7495 16.0041C22.7443 13.9853 25.4544 12.8341 28.2923 12.8H44.0909C44.7085 12.8158 45.2957 13.0724 45.727 13.5149C46.1587 13.9575 46.4 14.551 46.4 15.169C46.4 15.787 46.1587 16.3806 45.727 16.8232C45.2957 17.2657 44.7085 17.5223 44.0909 17.5381H28.2923C26.6886 17.5381 25.1507 18.1751 24.0167 19.309C22.8828 20.443 22.2457 21.9809 22.2457 23.5845C22.2457 25.1881 22.8828 26.7261 24.0167 27.86C25.1507 28.9939 26.6886 29.631 28.2923 29.631H34.4189Z" fill="white"/>
<path fill-rule="evenodd" clip-rule="evenodd" d="M29.5827 34.369C28.9649 34.3533 28.3777 34.0966 27.9463 33.6541C27.515 33.2115 27.2735 32.6179 27.2735 32C27.2735 31.382 27.515 30.7885 27.9463 30.3459C28.3777 29.9033 28.9649 29.6468 29.5827 29.631H35.7094C38.5472 29.665 41.2573 30.8162 43.2521 32.8349C45.2467 34.8538 46.3654 37.5776 46.3654 40.4154C46.3654 43.2534 45.2467 45.9773 43.2521 47.9958C41.2573 50.0147 38.5472 51.1661 35.7094 51.2H19.9092C19.2914 51.1843 18.7042 50.9277 18.2728 50.4851C17.8414 50.0426 17.6 49.449 17.6 48.831C17.6 48.2128 17.8414 47.6195 18.2728 47.177C18.7042 46.7344 19.2914 46.4778 19.9092 46.4621H35.7094C37.3129 46.4621 38.8509 45.825 39.9849 44.6909C41.1187 43.5571 41.7558 42.0192 41.7558 40.4154C41.7558 38.8118 41.1187 37.2739 39.9849 36.1402C38.8509 35.0061 37.3129 34.369 35.7094 34.369H29.5827Z" fill="white"/>
<path d="M48 64C56.8365 64 64 56.8365 64 48C64 39.1634 56.8365 32 48 32C39.1634 32 32 39.1634 32 48C32 56.8365 39.1634 64 48 64Z" fill="#FF0420"/>
<path d="M43.3313 52.243C42.4989 52.2786 41.6774 52.0427 40.9906 51.5709C40.6939 51.3443 40.4569 51.0488 40.3001 50.7099C40.1432 50.3712 40.0713 49.9994 40.0904 49.6264C40.0941 49.4093 40.1142 49.1925 40.1505 48.9784C40.2545 48.4013 40.4026 47.7091 40.5946 46.9017C41.1387 44.7011 42.5431 43.6008 44.8076 43.6008C45.3751 43.5915 45.9387 43.6977 46.4639 43.9129C46.9302 44.0956 47.3314 44.4132 47.6162 44.8252C47.9034 45.2496 48.0501 45.7534 48.0359 46.2657C48.0317 46.4789 48.0117 46.6915 47.9758 46.9017C47.8557 47.614 47.7117 48.3061 47.5438 48.9784C47.264 50.0746 46.7799 50.8947 46.0915 51.4389C45.4037 51.975 44.4837 52.243 43.3313 52.243ZM43.4995 50.5146C43.9152 50.5261 44.3208 50.3853 44.6399 50.1186C44.9926 49.7987 45.2326 49.3734 45.324 48.9062C45.5081 48.1542 45.648 47.4981 45.7437 46.9377C45.7759 46.7675 45.792 46.5947 45.7917 46.4215C45.7917 45.6932 45.4116 45.3291 44.6515 45.3293C44.2324 45.3192 43.8236 45.4597 43.4992 45.7253C43.1531 46.0486 42.9178 46.4728 42.827 46.9377C42.6829 47.4738 42.5389 48.1299 42.395 48.9062C42.3624 49.0723 42.3463 49.2411 42.347 49.4104C42.347 50.1466 42.7311 50.5146 43.4995 50.5146Z" fill="white"/>
<path d="M48.5886 52.1232C48.5505 52.1254 48.5123 52.119 48.4771 52.1045C48.4417 52.0901 48.41 52.0677 48.3846 52.0394C48.3446 51.9747 48.3316 51.8971 48.3486 51.8232L50.0051 44.0209C50.0196 43.9348 50.0665 43.8575 50.1361 43.8048C50.2004 43.7517 50.2809 43.7221 50.3644 43.7209H53.5572C54.3091 43.684 55.0542 43.8765 55.6939 44.273C55.9569 44.4453 56.1705 44.6831 56.3137 44.9631C56.4567 45.2431 56.5246 45.5555 56.5102 45.8696C56.5091 46.0797 56.4849 46.289 56.438 46.4939C56.3057 47.3026 55.8727 48.0315 55.2257 48.5346C54.6255 48.9746 53.8014 49.1947 52.7531 49.1947H51.1329L50.5807 51.8234C50.566 51.9094 50.5191 51.9867 50.4495 52.0395C50.3854 52.0926 50.3049 52.1222 50.2217 52.1235L48.5886 52.1232ZM52.8379 47.5378C53.1523 47.5447 53.4603 47.4477 53.7142 47.2619C53.9753 47.0701 54.1551 46.7875 54.2182 46.4697C54.2406 46.3509 54.2526 46.2304 54.2542 46.1096C54.2611 46.0119 54.2462 45.914 54.211 45.8227C54.1758 45.7314 54.1207 45.649 54.0502 45.5813C53.8499 45.4334 53.6019 45.365 53.354 45.3893H51.9137L51.4575 47.5378H52.8379Z" fill="white"/>
</g>
<defs>
<clipPath id="clip0_85_69107">
<rect width="64" height="64" fill="white"/>
</clipPath>
</defs>
</svg>
