<svg width="64" height="64" viewBox="0 0 64 64" fill="none" xmlns="http://www.w3.org/2000/svg">
<g clip-path="url(#clip0_85_69099)">
<path d="M32 64C49.6731 64 64 49.6731 64 32C64 14.3269 49.6731 0 32 0C14.3269 0 0 14.3269 0 32C0 49.6731 14.3269 64 32 64Z" fill="#1E1A31"/>
<path d="M42.2147 17.4962H44.6995L22.1813 46.5363H19.6965L42.2147 17.4962Z" fill="white"/>
<path fill-rule="evenodd" clip-rule="evenodd" d="M34.4189 29.631C35.0365 29.6468 35.6237 29.9033 36.0551 30.3459C36.4867 30.7884 36.728 31.382 36.728 32C36.728 32.6179 36.4867 33.2115 36.0551 33.6541C35.6237 34.0966 35.0365 34.3533 34.4189 34.3689H28.2923C25.4544 34.335 22.7443 33.1837 20.7495 31.165C18.7548 29.1462 17.6362 26.4225 17.6362 23.5845C17.6362 20.7465 18.7548 18.0228 20.7495 16.0041C22.7443 13.9853 25.4544 12.834 28.2923 12.8H44.0909C44.7085 12.8158 45.2957 13.0723 45.727 13.5149C46.1587 13.9575 46.4 14.551 46.4 15.169C46.4 15.787 46.1587 16.3806 45.727 16.8232C45.2957 17.2657 44.7085 17.5223 44.0909 17.5381H28.2923C26.6886 17.5381 25.1507 18.1751 24.0167 19.309C22.8828 20.443 22.2457 21.9809 22.2457 23.5845C22.2457 25.1881 22.8828 26.7261 24.0167 27.86C25.1507 28.9939 26.6886 29.631 28.2923 29.631H34.4189Z" fill="white"/>
<path fill-rule="evenodd" clip-rule="evenodd" d="M29.5827 34.369C28.9649 34.3533 28.3777 34.0966 27.9463 33.6541C27.515 33.2115 27.2735 32.6179 27.2735 32C27.2735 31.382 27.515 30.7885 27.9463 30.3459C28.3777 29.9033 28.9649 29.6468 29.5827 29.631H35.7094C38.5472 29.665 41.2573 30.8162 43.2521 32.8349C45.2467 34.8538 46.3654 37.5776 46.3654 40.4154C46.3654 43.2534 45.2467 45.9773 43.2521 47.9958C41.2573 50.0147 38.5472 51.1661 35.7094 51.2H19.9092C19.2914 51.1843 18.7042 50.9277 18.2728 50.4851C17.8414 50.0426 17.6 49.449 17.6 48.831C17.6 48.2128 17.8414 47.6195 18.2728 47.177C18.7042 46.7344 19.2914 46.4778 19.9092 46.4621H35.7094C37.3129 46.4621 38.8509 45.825 39.9849 44.6909C41.1187 43.5571 41.7558 42.0192 41.7558 40.4154C41.7558 38.8118 41.1187 37.2739 39.9849 36.1402C38.8509 35.0061 37.3129 34.369 35.7094 34.369H29.5827Z" fill="white"/>
<path d="M48 64C56.8366 64 64 56.8366 64 48C64 39.1634 56.8366 32 48 32C39.1634 32 32 39.1634 32 48C32 56.8366 39.1634 64 48 64Z" fill="#131419"/>
<path fill-rule="evenodd" clip-rule="evenodd" d="M42.9111 45.9146L48 40.8253L53.089 45.9146L56.0474 42.9562L48 34.9088L39.9527 42.9562L42.9111 45.9146ZM37.8647 45.0503L34.9098 48.0051L37.8647 50.96L40.8195 48.0051L37.8647 45.0503ZM48 55.1824L42.9111 50.0931L39.9527 53.0515L48 61.0989L56.0474 53.0515L53.089 50.0931L48 55.1824ZM58.136 45.0506L55.1812 48.0055L58.136 50.9603L61.0909 48.0055L58.136 45.0506ZM48.0016 45.0042L51.0013 48.0039L48.0016 51.0035L45.002 48.0039L45.5191 47.4659L45.7879 47.2179L48.0016 45.0042Z" fill="#F0B90B"/>
</g>
<defs>
<clipPath id="clip0_85_69099">
<rect width="64" height="64" fill="white"/>
</clipPath>
</defs>
</svg>
