<svg width="20" height="20" viewBox="0 0 20 20" fill="none" xmlns="http://www.w3.org/2000/svg">
<path d="M10.9668 15.7774C10.9668 15.7822 10.9668 15.7869 10.9668 15.7893L10.0121 17.4441L9.0573 15.7893C9.0573 15.7846 9.0573 15.7822 9.0573 15.7774C9.0573 15.7727 9.0573 15.7679 9.0573 15.7655L10.0121 14.1108L10.9668 15.7655C10.9668 15.7679 10.9668 15.7727 10.9668 15.7774ZM12.4263 15.7774C12.4263 15.5298 12.3716 15.2822 12.2644 15.0917L10.4097 11.8774C10.193 11.5012 9.83587 11.5012 9.61921 11.8774L7.76444 15.0917C7.65492 15.2798 7.60254 15.5274 7.60254 15.7774C7.60254 16.0274 7.6573 16.2727 7.76444 16.4631L9.61921 19.6774C9.83587 20.0536 10.193 20.0536 10.4097 19.6774L12.2644 16.4631C12.3716 16.2727 12.4263 16.025 12.4263 15.7774Z" fill="#CFB675"/>
<path d="M10.9668 4.42024C10.9668 4.425 10.9668 4.42977 10.9668 4.43215L10.0121 6.08691L9.0573 4.43215C9.0573 4.42738 9.0573 4.425 9.0573 4.42024C9.0573 4.41548 9.0573 4.41072 9.0573 4.40834L10.0121 2.75357L10.9668 4.40834C10.9668 4.41072 10.9668 4.41548 10.9668 4.42024ZM12.4263 4.42024C12.4263 4.17262 12.3716 3.92262 12.2644 3.73453L10.4097 0.520241C10.193 0.144051 9.83587 0.144051 9.61921 0.520241L7.76444 3.73453C7.65492 3.92262 7.60254 4.17024 7.60254 4.42024C7.60254 4.66786 7.6573 4.91548 7.76444 5.10596L9.61921 8.32024C9.83587 8.69643 10.193 8.69643 10.4097 8.32024L12.2644 5.10596C12.3716 4.91548 12.4263 4.66786 12.4263 4.42024Z" fill="#CFB675"/>
<path d="M16.3739 6.42504L15.4192 8.0798C15.412 8.08456 15.4049 8.08932 15.3977 8.0917H13.4858L14.4406 6.43694C14.4477 6.43218 14.4549 6.42742 14.462 6.42504H16.3739ZM18.5954 5.34885C18.5954 5.12504 18.4168 4.9679 18.1073 4.9679H14.3977C13.962 4.9679 13.4287 5.27504 13.212 5.65361L11.3573 8.86551C11.2954 8.97504 11.2644 9.07742 11.2644 9.17028C11.2644 9.39647 11.443 9.55123 11.7525 9.55123H15.462C15.8977 9.55123 16.4311 9.24409 16.6477 8.86551L18.5025 5.65123C18.5668 5.54171 18.5954 5.43932 18.5954 5.34885Z" fill="#CFB675"/>
<path d="M6.53799 12.1035L5.58323 13.7583C5.57609 13.763 5.56894 13.7678 5.5618 13.7702H3.6499L4.60466 12.1154C4.6118 12.1106 4.61894 12.1059 4.62609 12.1035H6.53799ZM8.75942 11.0273C8.75942 10.8035 8.58085 10.6464 8.27132 10.6464H4.5618C4.12609 10.6464 3.59275 10.9535 3.37609 11.3321L1.52132 14.544C1.45942 14.6535 1.42847 14.7559 1.42847 14.8487C1.42847 15.0749 1.60704 15.2297 1.91656 15.2297H5.62609C6.0618 15.2297 6.59513 14.9226 6.8118 14.544L8.66656 11.3297C8.73085 11.2226 8.75942 11.1178 8.75942 11.0273Z" fill="#CFB675"/>
<path d="M6.53799 8.09177H4.62847C4.62132 8.08701 4.61418 8.08463 4.60704 8.07986L3.65228 6.4251H5.56418C5.57133 6.42986 5.57847 6.43224 5.58561 6.43701L6.53799 8.09177ZM8.75942 9.17034C8.75942 9.07748 8.72847 8.9751 8.66656 8.86558L6.8118 5.65129C6.59513 5.2751 6.0618 4.96558 5.62609 4.96558H1.91656C1.60704 4.96558 1.42847 5.12034 1.42847 5.34653C1.42847 5.43939 1.45942 5.54177 1.52132 5.65129L3.37609 8.8632C3.59275 9.23939 4.12609 9.54891 4.5618 9.54891H8.27132C8.58085 9.55129 8.75942 9.39415 8.75942 9.17034Z" fill="#CFB675"/>
<path d="M16.3739 13.7702H14.4644C14.4573 13.7655 14.4501 13.7631 14.443 13.7583L13.4882 12.1036H15.4001C15.4073 12.1083 15.4144 12.1107 15.4215 12.1155L16.3739 13.7702ZM18.5954 14.8488C18.5954 14.756 18.5644 14.6536 18.5025 14.544L16.6477 11.3298C16.4311 10.9536 15.8977 10.644 15.462 10.644H11.7525C11.443 10.644 11.2644 10.7988 11.2644 11.025C11.2644 11.1179 11.2954 11.2202 11.3573 11.3298L13.212 14.5417C13.4287 14.9179 13.962 15.225 14.3977 15.2274H18.1073C18.4168 15.2298 18.5954 15.0726 18.5954 14.8488Z" fill="#CFB675"/>
</svg>
