<svg width="40" height="38" viewBox="0 0 40 38" fill="none" xmlns="http://www.w3.org/2000/svg">
<path d="M8.35267 2.85223L39.4255 24.2088L31.7409 35.6439L0.667984 14.1191L8.35267 2.85223Z" fill="url(#paint0_linear_2_73)"/>
<path d="M39.4256 24.2088C36.7526 28.0766 27.7315 26.5631 19.2115 20.5093C10.5245 14.6236 5.84681 6.71996 8.35269 2.85223C11.0256 -1.0155 20.0468 0.497962 28.5668 6.5518C37.2538 12.2693 41.9314 20.3411 39.4256 24.2088Z" fill="url(#paint1_linear_2_73)"/>
<path d="M31.7409 35.4757C29.0679 39.3434 20.0468 37.83 11.5268 31.7761C3.00681 25.7223 -1.83788 17.9868 0.835053 13.9509C3.50799 10.0832 12.5291 11.5967 21.0491 17.6505C29.5691 23.7044 34.2467 31.608 31.7409 35.4757Z" fill="url(#paint2_linear_2_73)"/>
<path d="M39.4255 24.2088L31.7409 35.6439C29.0679 39.5116 20.0468 37.83 11.5268 31.9443C9.8562 30.7672 8.35268 29.59 6.84915 28.2447C8.01856 28.0766 9.52209 27.4039 11.0256 25.7223C13.6985 22.8635 15.035 22.1909 16.2044 22.359C17.3738 22.359 18.7103 23.5362 20.8821 26.3949C23.0538 29.2537 26.0609 30.0945 27.8985 28.5811C28.0656 28.4129 28.2326 28.4129 28.3997 28.2447C29.9032 27.0676 30.4044 26.5631 33.2444 21.1819C33.9126 19.8366 36.2514 17.6505 39.4255 18.6595C40.2608 20.8456 40.2608 22.6954 39.4255 24.2088Z" fill="#0E0F23"/>
<path fill-rule="evenodd" clip-rule="evenodd" d="M38.2562 23.5362C35.9173 26.8994 27.7315 25.2178 19.8797 19.6684C11.8609 14.1191 7.18328 7.05628 9.5221 3.69304C11.8609 0.329794 20.0468 2.01142 27.8985 7.56077C35.7503 13.1101 40.4279 20.1729 38.2562 23.5362ZM30.9056 18.4913C29.7362 20.1729 25.7268 19.3321 21.7174 16.6415C17.875 13.9509 15.5362 10.4195 16.7056 8.73791C17.875 7.05628 21.8844 7.89709 25.8938 10.5877C29.7362 13.2783 32.075 16.8097 30.9056 18.4913Z" fill="white"/>
<path d="M7.68445 6.71996C7.68445 6.5518 7.5174 6.38364 7.35034 6.5518C7.18328 6.71996 7.01622 6.71996 7.01622 6.88813C7.18328 7.39261 7.35034 7.72894 7.35034 8.06526C7.35034 8.23342 7.5174 8.40159 7.68445 8.23342C7.85151 8.23342 8.01857 8.06526 7.85151 7.8971C7.85151 7.56078 7.85151 7.22445 7.68445 6.71996Z" fill="white"/>
<path d="M8.51974 9.41056C8.51974 9.2424 8.35269 9.07424 8.18563 9.2424C8.01857 9.41056 8.01857 9.41056 8.01857 9.57872C9.85621 13.7828 13.6986 18.3232 18.7103 21.6864C18.8774 21.8546 19.0444 21.6864 19.2115 21.6864C19.3785 21.5182 19.2115 21.3501 19.2115 21.1819C14.0327 17.8187 10.3574 13.4465 8.51974 9.41056Z" fill="white"/>
<path d="M28.7338 25.8905C28.5668 25.8905 28.3997 25.8905 28.3997 26.0586C28.3997 26.2268 28.3997 26.3949 28.5668 26.3949C29.0679 26.5631 29.7362 26.7313 30.2373 26.8994C30.4044 26.8994 30.5715 26.8994 30.5715 26.7313C30.5715 26.5631 30.5715 26.3949 30.4044 26.3949C29.9032 26.2268 29.235 26.0586 28.7338 25.8905Z" fill="white"/>
<path d="M31.7409 26.5631C31.5738 26.5631 31.4068 26.7313 31.4068 26.8994C31.4068 27.0676 31.5738 27.2358 31.7409 27.2358C33.0773 27.4039 34.5809 27.5721 35.7503 27.4039C35.9173 27.4039 36.0844 27.2358 36.0844 27.0676C36.0844 26.8994 35.9173 26.7313 35.7503 26.7313C34.4138 26.8994 33.0773 26.7313 31.7409 26.5631Z" fill="white"/>
<defs>
<linearGradient id="paint0_linear_2_73" x1="14.4406" y1="-0.184272" x2="20.678" y2="21.0934" gradientUnits="userSpaceOnUse">
<stop stop-color="#03B8FF"/>
<stop offset="1" stop-color="#FA52A0"/>
</linearGradient>
<linearGradient id="paint1_linear_2_73" x1="19.5152" y1="-1.672" x2="25.7527" y2="19.6059" gradientUnits="userSpaceOnUse">
<stop stop-color="#03B8FF"/>
<stop offset="1" stop-color="#FA52A0"/>
</linearGradient>
<linearGradient id="paint2_linear_2_73" x1="9.38176" y1="1.29858" x2="15.6193" y2="22.5765" gradientUnits="userSpaceOnUse">
<stop stop-color="#03B8FF"/>
<stop offset="1" stop-color="#FA52A0"/>
</linearGradient>
</defs>
</svg>
