<svg width="64" height="64" viewBox="0 0 64 64" fill="none" xmlns="http://www.w3.org/2000/svg">
<g clip-path="url(#clip0_98_68642)">
<path fill-rule="evenodd" clip-rule="evenodd" d="M29.1056 0.509882C26.3354 1.54113 23.8974 3.36282 21.8942 5.8968C19.868 8.46019 17.0101 14.0457 16.5514 16.337L16.2628 17.7809L19.2311 15.8356C20.8634 14.7662 23.4737 13.2842 25.0311 12.5424C26.5891 11.8012 27.8634 11.0599 27.8634 10.8963C27.8634 10.7323 26.8809 10.4083 25.6805 10.1766C23.9232 9.83702 23.4691 9.55302 23.3506 8.72077C23.2646 8.11325 23.454 7.66563 23.8101 7.63578C25.1438 7.5241 26.8404 7.77869 29.3808 8.47216C31.907 9.1615 32.2815 9.14861 36.5039 8.22125C38.9551 7.68262 41.655 7.18723 42.5036 7.11968L44.0463 6.99744L42.207 4.91382C38.6515 0.885341 33.1036 -0.979539 29.1056 0.509882ZM38.4332 10.4253C26.6791 12.939 15.0574 20.2658 8.26148 29.4459L6.27207 32.1338L7.66634 34.0413C8.43335 35.0909 9.72378 36.7258 10.5344 37.6742L12.0087 39.399V34.2275C12.0087 29.3668 12.0638 29.0561 12.9255 29.0561C13.7716 29.0561 13.8846 29.552 14.392 35.4899L14.9421 41.9238L16.6774 43.3866C23.0247 48.7363 34.1625 53.4224 42.6284 54.305L45.6748 54.6227L47.1091 51.1773C49.1625 46.2448 49.0428 46.0362 45.5196 48.3987C42.0963 50.6944 40.3574 51.3078 39.8051 50.4144C39.2214 49.4698 39.6703 48.8992 42.054 47.5594C43.2806 46.8701 45.5366 45.3843 47.0668 44.2573C50.1987 41.9517 50.1161 42.2054 50.7644 32.9622C51.0425 29.0051 51.1571 28.5966 51.99 28.5966C52.8687 28.5966 52.9065 28.8806 52.8415 35.0304C52.7695 41.8874 52.0502 45.6838 49.742 51.3994L48.6031 54.2186L50.6831 53.9338C56.743 53.103 61.0732 49.0486 61.7183 43.6006C61.9676 41.4963 60.8972 35.9411 60.086 35.1302C59.8835 34.9274 59.2198 35.4931 58.6115 36.3866C57.4732 38.0579 56.0598 38.5187 55.6166 37.3632C55.478 37.0032 56.0991 35.6192 56.9961 34.2867L58.6271 31.8654L57.4083 30.2308C52.9193 24.212 47.9868 19.8875 41.382 16.1803C37.5567 14.0332 37.0169 13.4229 38.039 12.4009C38.6185 11.8214 42.5548 13.5893 46.0985 16.0199C49.1027 18.0805 49.1734 17.8678 47.1219 12.9395C45.7148 9.55946 45.6831 9.52547 44.0201 9.55715C43.0959 9.5751 40.5817 9.96573 38.4332 10.4253ZM48.7894 10.2764C49.0006 10.7479 49.9286 13.3651 50.8508 16.0921C51.9151 19.2386 52.8774 21.2961 53.4854 21.7216C54.0121 22.0907 55.6857 23.9372 57.2047 25.8255L59.9667 29.2588L60.791 27.1003C61.9612 24.0369 61.8796 19.0484 60.6211 16.6481C58.958 13.4767 55.5116 10.9827 51.7603 10.2359C50.8758 10.0599 49.7583 9.80394 49.2783 9.66746C48.5628 9.46387 48.4742 9.57462 48.7894 10.2764ZM11.4136 10.8549C4.85066 13.122 1.93569 18.7207 3.71143 25.6508C4.12503 27.2666 4.63146 28.7561 4.83594 28.9605C5.0409 29.1655 5.58458 28.7538 6.04414 28.0456C6.50414 27.3379 8.15764 25.4141 9.71873 23.7712C12.2757 21.081 12.6833 20.3733 13.8258 16.6481C14.5234 14.3733 15.3878 11.9432 15.7463 11.2483C16.3818 10.0158 16.3667 9.98502 15.1227 9.99971C14.4209 10.008 12.7518 10.3926 11.4136 10.8549ZM33.854 20.3627C34.3503 21.5212 34.7567 22.5553 34.7567 22.6605C34.7567 22.7657 33.7228 22.8521 32.4588 22.8521C31.1952 22.8521 30.1612 22.7749 30.1612 22.6807C30.1612 21.9951 32.135 18.2566 32.4966 18.2566C32.7465 18.2566 33.3574 19.2042 33.854 20.3627ZM27.3726 23.615C27.6038 23.8131 24.6029 26.9881 24.1846 26.9881C23.8152 26.9881 22.3855 22.5093 22.6654 22.229C22.8634 22.0309 26.9172 23.2244 27.3726 23.615ZM41.7497 24.6913C41.3459 25.9546 40.8883 26.9881 40.7334 26.9881C40.3129 26.9881 37.3151 23.8131 37.5452 23.6113C37.9695 23.24 41.8963 22.0663 42.1817 22.2258C42.3481 22.3186 42.1539 23.428 41.7497 24.6913ZM36.0246 26.0667C42.2524 29.864 39.1887 39.4266 31.9433 38.8051C23.1833 38.0544 23.6709 25.1531 32.4588 25.1531C33.7135 25.1531 35.1161 25.5125 36.0246 26.0667ZM23.2678 32.0432C23.2678 33.3069 23.17 34.3411 23.0505 34.3411C22.4402 34.3411 18.6723 32.2653 18.6723 31.9293C18.6723 31.5639 22.1658 29.7776 22.9232 29.7556C23.113 29.7501 23.2678 30.7795 23.2678 32.0432ZM44.1654 30.756C45.3094 31.3121 46.2457 31.9283 46.2457 32.1254C46.2457 32.5267 42.8735 34.3411 42.1279 34.3411C41.8611 34.3411 41.6502 33.3274 41.6502 32.0432C41.6502 30.7795 41.7481 29.7455 41.8675 29.7455C41.9875 29.7455 43.0214 30.2004 44.1654 30.756ZM4.48439 36.0835C1.73992 42.9622 3.64295 49.4691 9.25137 52.384C10.999 53.2922 15.9365 54.6934 16.2578 54.3718C16.3409 54.289 16.1672 53.6902 15.8717 53.0419C15.5762 52.3933 15.4586 51.5395 15.6102 51.1443C16.1227 49.8086 17.3 50.4141 18.3336 52.5446L19.3616 54.6637L22.2472 54.3686C25.936 53.9917 27.8648 53.6032 27.8579 53.2403C27.8547 53.0822 25.9411 51.9654 23.6056 50.7578C16.9522 47.3184 11.0864 42.5782 6.86948 37.2326L4.98116 34.839L4.48439 36.0835ZM26.1148 38.3331C26.8239 39.0125 27.4038 39.8 27.4038 40.0835C27.4038 40.6048 23.0349 42.2269 22.6552 41.847C22.2991 41.4912 23.8804 37.0982 24.3643 37.0982C24.6185 37.0982 25.4061 37.6541 26.1148 38.3331ZM41.7414 39.3699C42.1414 40.6195 42.3711 41.7389 42.2524 41.8576C42.0543 42.0557 38.0009 40.8621 37.5452 40.4714C37.3142 40.2736 40.3151 37.0982 40.7334 37.0982C40.8883 37.0982 41.342 38.121 41.7414 39.3699ZM34.4998 42.2685C34.0003 43.888 32.9308 45.8301 32.5388 45.8301C32.2268 45.8301 30.1612 42.0262 30.1612 41.4518C30.1612 41.3322 31.209 41.2342 32.4899 41.2342C34.6927 41.2342 34.8012 41.2899 34.4998 42.2685ZM29.0123 55.7501C27.7485 56.1062 25.4011 56.5526 23.7963 56.743L20.8781 57.089L22.7136 59.1728C28.3809 65.6042 36.5363 65.6096 42.191 59.1856L44.0131 57.1152L40.1891 56.5616C38.0857 56.2573 35.783 55.7862 35.0716 55.5146C33.4166 54.8832 31.879 54.943 29.0123 55.7501Z" fill="#F64A28"/>
</g>
<defs>
<clipPath id="clip0_98_68642">
<rect width="64" height="64" fill="white"/>
</clipPath>
</defs>
</svg>
