<svg width="21" height="20" viewBox="0 0 21 20" fill="none" xmlns="http://www.w3.org/2000/svg">
<path d="M7.6494 13.1076L5.69721 11.9522L1.91235 14.2231V7.49004L7.6494 4.18327V8.7251L9.52191 9.76096V0.876495L0 6.41434V17.6096L7.6494 13.1076Z" fill="#EB4F45"/>
<path d="M12.3904 13.1076L14.3426 11.9522L18.1274 14.2231V7.49004L12.3904 4.18327V8.7251L10.5179 9.76096V0.876495L20.0398 6.41434V17.6096L12.3904 13.1076Z" fill="#EB4F45"/>
<path d="M2.82861 12.7888L4.26288 11.9522V10L7.80869 11.9522V16.1355L6.09555 15.0199L4.26288 16.1355L9.56168 19.2032V10.9562L2.82861 7.13147V12.7888Z" fill="#EB4F45"/>
<path d="M17.251 12.7888L15.8167 11.9522V10L12.2709 11.9522V16.1355L13.984 15.0199L15.8167 16.1355L10.5179 19.2032V10.9562L17.251 7.13147V12.7888Z" fill="#EB4F45"/>
</svg>
