<svg width="64" height="64" viewBox="0 0 64 64" fill="none" xmlns="http://www.w3.org/2000/svg">
<g clip-path="url(#clip0_85_68940)">
<path d="M32 64C49.6731 64 64 49.6731 64 32C64 14.3269 49.6731 0 32 0C14.3269 0 0 14.3269 0 32C0 49.6731 14.3269 64 32 64Z" fill="#EB322A"/>
<path fill-rule="evenodd" clip-rule="evenodd" d="M13.0779 13.273C13.3621 12.9191 13.8139 12.7444 14.2626 12.8154L46.3861 17.9149C46.66 17.9585 46.9115 18.0903 47.1029 18.2912L54.868 26.4378C55.0158 26.5889 55.1266 26.777 55.1842 26.9914C55.204 27.0637 55.2168 27.138 55.2232 27.2128C55.2398 27.401 55.2136 27.584 55.1528 27.7524C55.1054 27.8823 55.0363 28.0065 54.9448 28.1191L31.6168 56.8013C31.3333 57.1495 30.8866 57.321 30.443 57.2525C29.9995 57.1841 29.6251 56.8852 29.4606 56.4679L12.8885 14.5287C12.7221 14.1069 12.7944 13.6276 13.0779 13.273ZM51.3519 26.4135L46.2447 21.0554L38.0661 28.2868L51.3519 26.4135ZM43.5874 20.0301L18.4078 16.0333L34.1077 28.4122L43.5874 20.0301ZM35.1918 31.2455L50.9506 29.0234L32.5691 51.6231L35.1918 31.2455ZM30.0802 51.1565L17.0517 18.1837L32.7323 30.5479L30.0802 51.1565Z" fill="white"/>
<path d="M48 64C56.8366 64 64 56.8366 64 48C64 39.1634 56.8366 32 48 32C39.1634 32 32 39.1634 32 48C32 56.8366 39.1634 64 48 64Z" fill="#131419"/>
<path fill-rule="evenodd" clip-rule="evenodd" d="M42.9111 45.9146L48 40.8253L53.089 45.9146L56.0474 42.9562L48 34.9088L39.9527 42.9562L42.9111 45.9146ZM37.8647 45.0503L34.9098 48.0051L37.8647 50.96L40.8195 48.0051L37.8647 45.0503ZM48 55.1824L42.9111 50.0931L39.9527 53.0515L48 61.0989L56.0474 53.0515L53.089 50.0931L48 55.1824ZM58.136 45.0506L55.1812 48.0055L58.136 50.9603L61.0909 48.0055L58.136 45.0506ZM48.0016 45.0042L51.0013 48.0039L48.0016 51.0035L45.002 48.0039L45.5191 47.4659L45.7879 47.2179L48.0016 45.0042Z" fill="#F0B90B"/>
</g>
<defs>
<clipPath id="clip0_85_68940">
<rect width="64" height="64" fill="white"/>
</clipPath>
</defs>
</svg>
