<svg width="64" height="64" viewBox="0 0 64 64" fill="none" xmlns="http://www.w3.org/2000/svg">
<g clip-path="url(#clip0_239_73024)">
<mask id="mask0_239_73024" style="mask-type:luminance" maskUnits="userSpaceOnUse" x="0" y="0" width="64" height="64">
<path d="M64 0H0V64H64V0Z" fill="white"/>
</mask>
<g mask="url(#mask0_239_73024)">
<path d="M32 52.7765C44.2316 52.7765 54.1473 42.8609 54.1473 30.6293C54.1473 18.3977 44.2316 8.48201 32 8.48201C19.7684 8.48201 9.85275 18.3977 9.85275 30.6293C9.85275 42.8609 19.7684 52.7765 32 52.7765Z" fill="white"/>
<path d="M27.96 0.200089C27.88 0.280089 26.88 0.440089 25.8 0.600089C24.68 0.720089 23.44 0.920089 23 1.04009C21.28 1.56009 15.2 4.44009 14.32 5.16009C14.04 5.40009 12.68 6.48009 11.32 7.60009C9.96001 8.68009 8.36001 10.2801 7.72001 11.0801C6.24001 13.0801 5.88001 13.5201 5.32001 14.1601C4.56001 15.0401 1.63999 21.1601 1.15999 22.9201C-0.160008 27.8801 -0.120008 37.28 1.23999 41.52C1.71999 43.04 4.64001 49 5.20001 49.72C5.40001 50 6.40001 51.24 7.40001 52.48C8.40001 53.76 10.2 55.56 11.36 56.48C12.56 57.44 13.96 58.52 14.48 58.92C15.28 59.6 16.6 60.24 20 61.72C20.56 61.96 21.12 62.16 21.32 62.2C21.48 62.28 21.68 62.36 21.8 62.4C21.92 62.44 22.12 62.52 22.32 62.56C22.48 62.6 22.8 62.72 23 62.88C24.36 63.76 34.2 64.16 38 63.56C41.32 63 48.12 60.2 49.84 58.72C50.12 58.44 51.44 57.4 52.76 56.4C54.08 55.4 55.08 54.56 55.04 54.48C54.96 54.44 55.48 53.76 56.2 53.04C57.96 51.16 60.2 47.68 61.04 45.56C61.44 44.6 61.88 43.72 62 43.6C62.16 43.48 62.6 42.24 62.96 40.8C63.92 37.2 64.24 30.3201 63.6 26.5201C63.08 23.0801 60.4 16.2401 58.92 14.5601C58.4 13.9601 58 13.3201 58 13.1201C58 12.6801 51.32 6.00009 50.84 6.00009C50.64 6.00009 50.2 5.72009 49.84 5.40009C49.28 4.80009 44.72 2.40009 44.2 2.40009C44.08 2.40009 43.2 2.04009 42.28 1.64009C41.32 1.20009 39.76 0.720089 38.8 0.600089C36.64 0.240089 28.2 -0.0399108 27.96 0.200089ZM26.56 18.0801C25.8 22.8401 22.08 26.6001 17.32 27.4001L15.6 27.6801V22.0401V16.4001H21.2H26.8L26.56 18.0801ZM48.4 22.0001V27.6001H43H37.6V38.4V49.2H31.96H26.32L26.48 36.88C26.6 24.9601 26.64 24.5601 27.52 22.7201C28.68 20.4001 31.48 17.8401 33.72 17.0401C34.92 16.6401 37.24 16.4401 41.92 16.4401L48.4 16.4001V22.0001Z" fill="#156BEC"/>
</g>
<mask id="mask1_239_73024" style="mask-type:luminance" maskUnits="userSpaceOnUse" x="32" y="32" width="32" height="32">
<path d="M64 32H32V64H64V32Z" fill="white"/>
</mask>
<g mask="url(#mask1_239_73024)">
<path d="M48 64C56.8365 64 64 56.8365 64 48C64 39.1635 56.8365 32 48 32C39.1635 32 32 39.1635 32 48C32 56.8365 39.1635 64 48 64Z" fill="#E84142"/>
<path d="M53.6438 48.4157C54.198 47.4583 55.0927 47.4583 55.647 48.4157L59.0988 54.4756C59.6534 55.433 59.1996 56.2141 58.0911 56.2141H51.1366C50.0406 56.2141 49.5871 55.433 50.1289 54.4756L53.6438 48.4157ZM46.9667 36.7495C47.5209 35.7921 48.4028 35.7921 48.9571 36.7495L49.7257 38.1354L51.5398 41.3229C51.9807 42.2298 51.9807 43.3009 51.5398 44.2077L45.4547 54.7527C44.9004 55.6093 43.9807 56.1511 42.9603 56.2141H37.9084C36.7996 56.2141 36.3462 55.4458 36.9004 54.4756L46.9667 36.7495Z" fill="white"/>
</g>
</g>
<defs>
<clipPath id="clip0_239_73024">
<rect width="64" height="64" fill="white"/>
</clipPath>
</defs>
</svg>
