<svg width="64" height="64" viewBox="0 0 64 64" fill="none" xmlns="http://www.w3.org/2000/svg">
<g clip-path="url(#clip0_85_68947)">
<mask id="mask0_85_68947" style="mask-type:luminance" maskUnits="userSpaceOnUse" x="0" y="0" width="64" height="64">
<path d="M64 0H0V64H64V0Z" fill="white"/>
</mask>
<g mask="url(#mask0_85_68947)">
<path d="M32 52.7766C44.2316 52.7766 54.1473 42.8609 54.1473 30.6293C54.1473 18.3977 44.2316 8.48203 32 8.48203C19.7684 8.48203 9.85275 18.3977 9.85275 30.6293C9.85275 42.8609 19.7684 52.7766 32 52.7766Z" fill="white"/>
<path d="M27.96 0.200104C27.88 0.280104 26.88 0.440104 25.8 0.600104C24.68 0.720104 23.44 0.920104 23 1.0401C21.28 1.5601 15.2 4.4401 14.32 5.1601C14.04 5.4001 12.68 6.4801 11.32 7.6001C9.96001 8.6801 8.36001 10.2801 7.72001 11.0801C6.24001 13.0801 5.88001 13.5201 5.32001 14.1601C4.56001 15.0401 1.63999 21.1601 1.15999 22.9201C-0.160008 27.8801 -0.120008 37.28 1.23999 41.52C1.71999 43.04 4.64001 49 5.20001 49.72C5.40001 50 6.40001 51.24 7.40001 52.48C8.40001 53.76 10.2 55.56 11.36 56.48C12.56 57.44 13.96 58.52 14.48 58.92C15.28 59.6 16.6 60.24 20 61.72C20.56 61.96 21.12 62.16 21.32 62.2C21.48 62.28 21.68 62.36 21.8 62.4C21.92 62.44 22.12 62.52 22.32 62.56C22.48 62.6 22.8 62.72 23 62.88C24.36 63.76 34.2 64.16 38 63.56C41.32 63 48.12 60.2 49.84 58.72C50.12 58.44 51.44 57.4 52.76 56.4C54.08 55.4 55.08 54.56 55.04 54.48C54.96 54.44 55.48 53.76 56.2 53.04C57.96 51.16 60.2 47.68 61.04 45.56C61.44 44.6 61.88 43.72 62 43.6C62.16 43.48 62.6 42.24 62.96 40.8C63.92 37.2 64.24 30.3201 63.6 26.5201C63.08 23.0801 60.4 16.2401 58.92 14.5601C58.4 13.9601 58 13.3201 58 13.1201C58 12.6801 51.32 6.0001 50.84 6.0001C50.64 6.0001 50.2 5.7201 49.84 5.4001C49.28 4.8001 44.72 2.4001 44.2 2.4001C44.08 2.4001 43.2 2.0401 42.28 1.6401C41.32 1.2001 39.76 0.720104 38.8 0.600104C36.64 0.240104 28.2 -0.0398955 27.96 0.200104ZM26.56 18.0801C25.8 22.8401 22.08 26.6001 17.32 27.4001L15.6 27.6801V22.0401V16.4001H21.2H26.8L26.56 18.0801ZM48.4 22.0001V27.6001H43H37.6V38.4V49.2H31.96H26.32L26.48 36.88C26.6 24.9601 26.64 24.5601 27.52 22.7201C28.68 20.4001 31.48 17.8401 33.72 17.0401C34.92 16.6401 37.24 16.4401 41.92 16.4401L48.4 16.4001V22.0001Z" fill="#156BEC"/>
</g>
<path d="M48.8278 32L48.6129 32.7292V53.8883L48.8278 54.1025L58.6553 48.2969L48.8278 32Z" fill="#343434"/>
<path d="M48.8278 32L39 48.2969L48.8278 54.1025V43.8325V32Z" fill="#8C8C8C"/>
<path d="M48.8278 55.9621L48.7067 56.1096V63.6468L48.8278 64L58.6613 50.1594L48.8278 55.9621Z" fill="#3C3C3B"/>
<path d="M48.8278 64V55.9621L39 50.1594L48.8278 64Z" fill="#8C8C8C"/>
<path d="M48.8279 54.1025L58.6554 48.2969L48.8279 43.8325V54.1025Z" fill="#141414"/>
<path d="M39 48.2969L48.8278 54.1025V43.8325L39 48.2969Z" fill="#393939"/>
</g>
<defs>
<clipPath id="clip0_85_68947">
<rect width="64" height="64" fill="white"/>
</clipPath>
</defs>
</svg>
