<svg width="64" height="64" viewBox="0 0 64 64" fill="none" xmlns="http://www.w3.org/2000/svg">
<g clip-path="url(#clip0_85_69008)">
<path d="M32 64C49.673 64 64 49.673 64 32C64 14.3269 49.673 0 32 0C14.3269 0 0 14.3269 0 32C0 49.673 14.3269 64 32 64Z" fill="url(#paint0_linear_85_69008)"/>
<path fill-rule="evenodd" clip-rule="evenodd" d="M32 60.8C47.9059 60.8 60.8 47.9059 60.8 32C60.8 16.0942 47.9059 3.2 32 3.2C16.0942 3.2 3.2 16.0942 3.2 32C3.2 47.9059 16.0942 60.8 32 60.8ZM64 32C64 49.673 49.673 64 32 64C14.3269 64 0 49.673 0 32C0 14.3269 14.3269 0 32 0C49.673 0 64 14.3269 64 32Z" fill="url(#paint1_linear_85_69008)"/>
<path d="M28.2884 24.6938C28.2053 25.0149 28.06 25.3164 27.8609 25.5813C27.4905 26.0643 27.0001 26.441 26.439 26.6737C25.9343 26.8922 25.3999 27.0333 24.8535 27.0926C24.7406 27.1069 24.6235 27.1158 24.5102 27.1244L24.4936 27.1257C24.1475 27.1389 23.8148 27.2631 23.5441 27.48C23.2733 27.6969 23.0789 27.9952 22.9891 28.3312C22.948 28.4983 22.9174 28.6679 22.8976 28.839C22.8662 29.0968 22.85 29.3608 22.8325 29.6464C22.8199 29.8514 22.8067 30.0675 22.7866 30.3005C22.6691 31.2493 22.3959 32.1718 21.9781 33.031C21.8928 33.2115 21.8057 33.3866 21.7203 33.5584C21.2622 34.4797 20.8483 35.3123 20.9672 36.4272C21.0601 37.2861 21.4981 37.8618 22.0801 38.4554C22.3565 38.7392 22.723 38.9821 23.1034 39.2339C24.1682 39.9386 25.3423 40.7158 24.9555 42.6742C24.639 44.2611 22.0201 45.9261 18.3392 46.5075C18.6957 46.4534 17.9125 45.1101 17.8229 44.9562L17.8172 44.9466C17.7158 44.7869 17.6119 44.6298 17.5081 44.4726C17.2084 44.0192 16.9101 43.568 16.6773 43.0675C16.0623 41.7613 15.7773 40.2499 16.0293 38.8186C16.2576 37.5229 17.1102 36.488 17.9312 35.4915C18.0649 35.329 18.1979 35.1677 18.3272 35.0064C19.4252 33.6365 20.5772 31.842 20.8321 30.064C20.8537 29.9095 20.8729 29.7411 20.893 29.5638C20.9292 29.2467 20.9686 28.9012 21.0301 28.5572C21.1217 27.9629 21.307 27.3871 21.5791 26.8515C21.7649 26.5002 22.0095 26.1837 22.3021 25.9158C22.4547 25.7735 22.5554 25.584 22.588 25.3774C22.6206 25.1709 22.5833 24.9594 22.4821 24.7766L16.6143 14.1748L25.0425 24.6229C25.1385 24.744 25.2598 24.8424 25.3979 24.9111C25.536 24.9797 25.6874 25.0171 25.8414 25.0204C25.9954 25.0237 26.1483 24.9929 26.2892 24.9302C26.43 24.8675 26.5554 24.7744 26.6565 24.6576C26.7633 24.5325 26.8238 24.3743 26.8279 24.2096C26.832 24.0449 26.7794 23.8838 26.679 23.7535C26.2867 23.2499 25.8785 22.7395 25.4721 22.2314C25.3082 22.0265 25.1446 21.8219 24.9825 21.6184L22.8616 18.9815L18.6047 13.7168L12.8 6.39999L19.1507 13.2451L23.6821 18.2778L25.9425 20.8002C26.1504 21.0354 26.3583 21.2684 26.5662 21.5015C27.1082 22.1092 27.6504 22.717 28.1924 23.3618L28.3154 23.5124L28.3424 23.746C28.379 24.0627 28.3607 24.3833 28.2884 24.6938Z" fill="#DF367C"/>
<path d="M49.9507 28.242L49.9597 28.2555C49.9581 27.1315 49.2653 25.2766 47.8627 23.4925L47.8298 23.4489C47.3978 22.9125 46.9271 22.4089 46.4211 21.942C46.3267 21.8501 46.2247 21.7597 46.1213 21.6693C45.4733 21.1017 44.7651 20.6075 44.0093 20.1957L43.9552 20.1685C41.5808 18.8697 38.4912 18.2007 34.6813 18.9541C34.1696 18.33 33.6183 17.7397 33.0314 17.1866C32.1322 16.3259 31.0737 15.6507 29.9159 15.1991C28.7685 14.7772 27.5397 14.6267 26.325 14.7592C27.4959 14.8651 28.6364 15.1923 29.6864 15.7235C30.7004 16.2692 31.6137 16.9859 32.3863 17.8421C33.1693 18.7161 33.9056 19.6315 34.5914 20.5844L34.7635 20.8095C35.4346 21.6875 36.1175 22.5812 36.9687 23.3765C37.4371 23.8194 37.96 24.2007 38.5242 24.5111C38.6743 24.588 38.8256 24.6603 38.9741 24.7236C39.1226 24.7869 39.2621 24.8457 39.4122 24.8999C39.7018 25.0129 40.0016 25.1063 40.3015 25.1922C41.5015 25.5358 42.7299 25.6593 43.9299 25.7256C44.0967 25.7344 44.2627 25.7427 44.4285 25.7508C44.8573 25.7721 45.2826 25.7931 45.7015 25.8236C46.2746 25.8578 46.8432 25.9476 47.3994 26.0918C48.2346 26.3105 48.9699 26.8105 49.4826 27.5082C49.657 27.7405 49.8135 27.9858 49.9507 28.242Z" fill="#DF367C"/>
<path d="M46.4253 21.9352C46.3632 21.8779 46.3005 21.8211 46.2378 21.7645L46.1251 21.6625L46.2138 21.7445C46.2845 21.8102 46.3552 21.8757 46.4253 21.9352Z" fill="#DF367C"/>
<path d="M44.9603 33.0426C41.1014 31.4697 37.065 29.8244 37.6659 25.2062C38.9542 26.5882 40.9766 26.878 43.1763 27.1932C45.1718 27.4791 47.313 27.7859 49.1843 28.9476C53.6003 31.687 52.9552 37.009 51.4554 38.9677C51.5904 35.7453 48.3437 34.4218 44.9603 33.0426Z" fill="#DF367C"/>
<path d="M29.3888 30.7276C30.4073 30.6296 32.5776 30.0977 31.6073 28.3815C31.3985 28.0324 31.0959 27.7494 30.7342 27.5653C30.3726 27.3811 29.9666 27.3031 29.5628 27.3403C29.1531 27.3845 28.7668 27.5542 28.4563 27.8264C28.1459 28.0987 27.9263 28.4603 27.8274 28.8621C27.5259 29.9847 27.8454 30.8782 29.3888 30.7276Z" fill="#DF367C"/>
<path d="M29.1233 17.1467C28.4843 16.4054 27.4929 16.0166 26.5209 15.875C26.4845 16.1181 26.4615 16.3631 26.4519 16.6088C26.4084 18.6324 27.1239 20.855 28.5083 22.3994C28.9512 22.8987 29.4853 23.3079 30.0818 23.6049C30.4268 23.7736 31.3417 24.1925 31.6807 23.8158C31.7065 23.7813 31.7228 23.7405 31.7278 23.6976C31.7328 23.6547 31.7264 23.6113 31.7092 23.5717C31.6531 23.4104 31.5446 23.264 31.4368 23.1187C31.3604 23.0157 31.2844 22.9132 31.2278 22.8063C31.1704 22.6984 31.1091 22.5933 31.0479 22.4883C30.9328 22.291 30.8178 22.0939 30.7298 21.8796C30.4973 21.3185 30.3763 20.7218 30.2557 20.127C30.2315 20.0079 30.2073 19.8888 30.1823 19.7701C29.9978 18.8524 29.7623 17.8881 29.1233 17.1467Z" fill="#DF367C"/>
<path d="M42.7747 33.2874C41.7834 36.0662 43.3821 38.4131 44.9715 40.7466C46.7491 43.3562 48.5152 45.9488 46.631 49.1088C50.2925 47.5901 52.0307 43.0019 50.5114 39.3613C49.5539 37.0589 47.2464 35.8106 45.1046 34.6522C44.2736 34.2026 43.4675 33.7664 42.7747 33.2874Z" fill="#DF367C"/>
<path d="M32.0365 39.9242C31.3729 40.1962 30.7472 40.5533 30.175 40.9866C31.4762 40.5123 32.8419 40.2416 34.2249 40.1834C34.4758 40.1683 34.728 40.1568 34.9827 40.145C35.4224 40.1248 35.8688 40.104 36.3248 40.0659C37.0723 40.015 37.8093 39.8627 38.5161 39.6138C39.2569 39.3533 39.9312 38.9315 40.4902 38.3782C41.0547 37.807 41.4509 37.0899 41.6345 36.3062C41.7961 35.5661 41.7734 34.7974 41.5683 34.0678C41.3635 33.3386 40.983 32.6714 40.4601 32.1251C40.7123 32.7677 40.8675 33.4448 40.9206 34.1334C40.9664 34.7747 40.8793 35.4186 40.6656 36.0246C40.4569 36.599 40.1155 37.1152 39.6697 37.5315C39.2089 37.9517 38.6758 38.2835 38.0963 38.5107C37.2909 38.8368 36.3798 38.9702 35.431 39.1091C34.9981 39.1725 34.5574 39.2371 34.1155 39.3216C33.4041 39.4525 32.7078 39.6544 32.0365 39.9242Z" fill="#DF367C"/>
<path d="M43.6118 51.336L43.4778 51.4438C43.3101 51.5792 43.1398 51.7168 42.9562 51.8406C42.7222 51.9955 42.4771 52.1325 42.2227 52.2506C41.6931 52.5101 41.111 52.6426 40.5219 52.6378C38.9261 52.6077 37.7981 51.4141 37.1382 50.0656C36.9651 49.712 36.8125 49.3475 36.6602 48.983C36.4163 48.4 36.1722 47.817 35.8435 47.2781C35.0803 46.0259 33.7738 45.0179 32.2438 45.2048C31.6197 45.2832 31.0348 45.5648 30.6883 46.1088C29.7763 47.5296 31.0858 49.5203 32.7552 49.2384C32.8973 49.2166 33.0362 49.1782 33.1693 49.1238C33.3018 49.0672 33.4256 48.9917 33.5366 48.8995C33.7699 48.7043 33.9456 48.449 34.0451 48.161C34.1549 47.8608 34.1792 47.5357 34.1158 47.2224C34.0474 46.8947 33.8547 46.6067 33.5786 46.4192C33.8995 46.5702 34.1494 46.8403 34.2762 47.1725C34.4074 47.5146 34.4413 47.8867 34.3738 48.247C34.3082 48.6224 34.1434 48.9731 33.8966 49.2624C33.7658 49.4115 33.6141 49.5408 33.4467 49.6467C33.2806 49.7514 33.103 49.8358 32.9171 49.8982C32.5405 50.0278 32.1395 50.0694 31.7443 50.0205C31.1894 49.9411 30.6661 49.713 30.2293 49.3603C30.1325 49.2835 30.0404 49.2022 29.9515 49.1178C29.6775 48.8752 29.4274 48.6061 29.2049 48.3146C29.0939 48.1914 28.981 48.0698 28.8628 47.953C28.3281 47.3894 27.6971 46.9267 26.9999 46.5866C26.5191 46.3744 26.0159 46.2176 25.4999 46.1194C25.2404 46.065 24.9779 46.0259 24.7155 45.9926C24.6867 45.9898 24.631 45.9802 24.5619 45.968C24.3426 45.9299 23.9877 45.8682 23.925 45.9264C24.7363 45.1763 25.6207 44.5098 26.5649 43.9376C27.5343 43.3597 28.5752 42.9123 29.6608 42.607C30.7863 42.2886 31.9635 42.1981 33.1242 42.3402C33.7216 42.4125 34.3069 42.5645 34.8643 42.7923C35.448 43.0266 35.9872 43.361 36.4573 43.7808C36.9222 44.2211 37.2982 44.7475 37.5642 45.3312C37.8042 45.8778 37.9834 46.4493 38.0979 47.0355C38.1597 47.351 38.2061 47.6976 38.2541 48.0563C38.4726 49.6906 38.7251 51.5766 40.5984 51.9053C40.7174 51.9286 40.8374 51.9456 40.9584 51.9568L41.3318 51.9658C41.5885 51.9472 41.8438 51.9107 42.0954 51.8557C42.6163 51.7325 43.1245 51.5584 43.6118 51.336Z" fill="#DF367C"/>
<g clip-path="url(#clip1_85_69008)">
<path d="M51.457 46.6615L53.8069 42.6742L60.141 52.5397L60.144 54.4325L60.1232 41.4042C60.1159 41.247 60.0707 41.094 59.9919 40.9579C59.9128 40.8219 59.8023 40.7068 59.6695 40.6225L48.2658 34.0633C48.1295 33.9986 47.9805 33.9653 47.8296 33.966C47.6788 33.9667 47.53 34.0014 47.3944 34.0674C47.3592 34.085 47.3251 34.1048 47.2923 34.1265L47.2526 34.1516L36.1832 40.5659L36.1401 40.5853C36.0827 40.6119 36.028 40.6438 35.9766 40.6806C35.769 40.8289 35.6275 41.0523 35.5823 41.3034C35.5754 41.3415 35.5707 41.3799 35.5682 41.4186L35.5855 52.0352L41.4854 42.8908C42.2281 41.6783 43.8465 41.2877 45.3489 41.3089L47.1121 41.3545L36.7225 58.0162L37.9473 58.7213L48.4615 41.3711L53.1087 41.3542L42.6217 59.1414L46.9924 61.6568L47.5146 61.9571C47.7399 62.0467 47.9899 62.0515 48.2186 61.971L59.7826 55.2696L57.5706 56.5507L51.457 46.6615ZM52.3536 59.5747L47.9397 52.647L50.6339 48.075L56.4307 57.2118L52.3536 59.5747Z" fill="#2D374B"/>
<path d="M47.9396 52.647L52.3536 59.5746L56.431 57.2115L50.6344 48.075L47.9396 52.647Z" fill="#28A0F0"/>
<path d="M60.1446 54.4326L60.1416 52.5398L53.8075 42.6744L51.4563 46.6612L57.571 56.5504L59.783 55.2693C59.8901 55.1826 59.9776 55.0741 60.04 54.9512C60.1024 54.8282 60.1381 54.6934 60.1448 54.5558L60.1446 54.4326Z" fill="#28A0F0"/>
<path d="M33.6012 56.2182L36.7233 58.0171L47.1129 41.3556L45.3497 41.3099C43.8473 41.2887 42.2289 41.6791 41.4862 42.8919L35.5863 52.0363L33.6023 55.0859L33.6012 56.2182Z" fill="white"/>
<path d="M53.1091 41.3553L48.4621 41.3722L37.9481 58.7222L41.623 60.8382L42.6222 59.1432L53.1091 41.3553Z" fill="white"/>
<path d="M62.1022 41.3314C62.0809 40.8519 61.9433 40.3846 61.7013 39.9701C61.4592 39.5555 61.12 39.2061 60.7128 38.9518L49.1597 32.3081C48.7473 32.1054 48.2939 32 47.8343 32C47.3748 32 46.9214 32.1054 46.509 32.3081C46.4125 32.3566 35.2738 38.8168 35.2738 38.8168C35.119 38.8911 34.971 38.9787 34.8314 39.0786C34.4697 39.3358 34.171 39.6716 33.9577 40.0608C33.7445 40.45 33.6221 40.8825 33.6 41.3257V55.0853L35.5839 52.0357L35.5687 41.4195C35.5779 41.2739 35.6194 41.1322 35.69 41.0046C35.7606 40.877 35.8587 40.7667 35.9771 40.6815C36.0295 40.6439 47.3584 34.0863 47.3944 34.0683C47.5301 34.0023 47.6788 33.9676 47.8297 33.9669C47.9805 33.9662 48.1296 33.9995 48.2657 34.0642L59.6694 40.6238C59.8022 40.7082 59.9128 40.8232 59.9918 40.9593C60.0709 41.0953 60.1158 41.2484 60.1233 41.4056V54.5571C60.1205 54.6936 60.0886 54.8277 60.0299 54.9507C59.9712 55.0738 59.8867 55.1829 59.7824 55.2707L57.5704 56.5518L56.4302 57.2131L52.3528 59.5762L48.2177 61.9726C47.9891 62.0533 47.739 62.0483 47.5137 61.9587L42.6215 59.145L41.6222 60.8397L46.0189 63.371C46.1644 63.4536 46.2939 63.527 46.4002 63.5867C46.5648 63.6779 46.677 63.7406 46.7165 63.7598C47.0843 63.921 47.482 64.0029 47.8836 64C48.252 64.0005 48.6171 63.9318 48.96 63.7974L60.9702 56.8421C61.3091 56.5786 61.5861 56.2438 61.7814 55.8618C61.9769 55.4795 62.0864 55.0592 62.1017 54.6301L62.1022 41.3314Z" fill="#96BEDC"/>
</g>
</g>
<defs>
<linearGradient id="paint0_linear_85_69008" x1="22.4" y1="9.6" x2="32" y2="64" gradientUnits="userSpaceOnUse">
<stop stop-color="#FFF4FB"/>
<stop offset="1" stop-color="#FFCCEB"/>
</linearGradient>
<linearGradient id="paint1_linear_85_69008" x1="88" y1="97.6" x2="14.4" y2="6.4981e-06" gradientUnits="userSpaceOnUse">
<stop stop-color="#DF367C"/>
<stop offset="1" stop-color="#DF367C" stop-opacity="0"/>
</linearGradient>
<clipPath id="clip0_85_69008">
<rect width="64" height="64" fill="white"/>
</clipPath>
<clipPath id="clip1_85_69008">
<rect width="32" height="32" fill="white" transform="translate(32 32)"/>
</clipPath>
</defs>
</svg>
