<svg width="64" height="64" viewBox="0 0 64 64" fill="none" xmlns="http://www.w3.org/2000/svg">
<g clip-path="url(#clip0_85_68644)">
<path d="M30.4762 64C47.3652 64 60.9524 49.7334 60.9524 32C60.9524 14.2666 47.3652 0 30.4762 0C13.5872 0 0 14.2666 0 32C0 49.7334 13.5872 64 30.4762 64Z" fill="#2775CA"/>
<path d="M38.8571 37.0666C38.8571 32.4 36.1904 30.8 30.8571 30.1335C27.0476 29.6 26.2857 28.5335 26.2857 26.6666C26.2857 24.7997 27.5556 23.6 30.0952 23.6C32.3809 23.6 33.6509 24.4 34.2857 26.4C34.4128 26.8 34.7937 27.0666 35.1747 27.0666H37.2062C37.7143 27.0666 38.0952 26.6666 38.0952 26.1335V26C37.5872 23.0666 35.3015 20.8 32.3809 20.5335V17.3335C32.3809 16.8 32 16.4 31.3652 16.2666H29.4604C28.9523 16.2666 28.5714 16.6666 28.4443 17.3335V20.4C24.6348 20.9335 22.2223 23.6 22.2223 26.9335C22.2223 31.3335 24.7618 33.0666 30.0952 33.7335C33.6509 34.4 34.7937 35.2 34.7937 37.3335C34.7937 39.4669 33.0157 40.9335 30.6032 40.9335C27.3014 40.9335 26.1586 39.4666 25.7776 37.4666C25.6508 36.9334 25.2699 36.6666 24.8889 36.6666H22.73C22.2223 36.6666 21.8413 37.0666 21.8413 37.6V37.7335C22.349 41.0666 24.3809 43.4666 28.5714 44.1335V47.3335C28.5714 47.8666 28.9523 48.2666 29.5871 48.4H31.4919C32 48.4 32.3809 48 32.508 47.3335V44.1335C36.3175 43.4666 38.8571 40.6666 38.8571 37.0666Z" fill="white"/>
<path d="M24.0001 51.0666C14.0953 47.3334 9.01585 35.7334 12.6986 25.4665C14.6034 19.8665 18.7938 15.6 24.0001 13.6C24.5081 13.3334 24.762 12.9334 24.762 12.2665V10.4C24.762 9.86652 24.5081 9.46652 24.0001 9.3334C23.873 9.3334 23.6191 9.3334 23.492 9.46652C11.4287 13.4665 4.82538 26.9334 8.6349 39.6C10.9206 47.0666 16.381 52.8 23.492 55.2C24.0001 55.4666 24.5081 55.2 24.6349 54.6666C24.762 54.5334 24.762 54.4 24.762 54.1334V52.2666C24.762 51.8666 24.381 51.3334 24.0001 51.0666ZM37.4604 9.46652C36.9524 9.19996 36.4444 9.46652 36.3176 9.99996C36.1905 10.1334 36.1905 10.2665 36.1905 10.5334V12.4C36.1905 12.9334 36.5714 13.4665 36.9524 13.7334C46.8572 17.4665 51.9366 29.0665 48.2539 39.3334C46.3491 44.9334 42.1586 49.2 36.9524 51.2C36.4444 51.4666 36.1905 51.8666 36.1905 52.5334V54.4C36.1905 54.9334 36.4444 55.3334 36.9524 55.4666C37.0795 55.4666 37.3334 55.4666 37.4604 55.3334C49.5238 51.3334 56.1271 37.8666 52.3176 25.2C50.0319 17.6 44.4444 11.8665 37.4604 9.46652Z" fill="white"/>
<path d="M50.8277 32L50.6129 32.7292V53.8883L50.8277 54.1025L60.6553 48.2969L50.8277 32Z" fill="#343434"/>
<path d="M50.8278 32L41 48.2969L50.8278 54.1025V43.8325V32Z" fill="#8C8C8C"/>
<path d="M50.8277 55.9621L50.7067 56.1096V63.6468L50.8277 64L60.6613 50.1594L50.8277 55.9621Z" fill="#3C3C3B"/>
<path d="M50.8278 64V55.9621L41 50.1594L50.8278 64Z" fill="#8C8C8C"/>
<path d="M50.8279 54.1025L60.6554 48.2969L50.8279 43.8325V54.1025Z" fill="#141414"/>
<path d="M41 48.2969L50.8278 54.1025V43.8325L41 48.2969Z" fill="#393939"/>
</g>
<defs>
<clipPath id="clip0_85_68644">
<rect width="64" height="64" fill="white"/>
</clipPath>
</defs>
</svg>
