<svg width="64" height="64" viewBox="0 0 64 64" fill="none" xmlns="http://www.w3.org/2000/svg">
<g clip-path="url(#clip0_85_68662)">
<path d="M30.4762 64C47.3652 64 60.9524 49.7334 60.9524 32C60.9524 14.2666 47.3652 0 30.4762 0C13.5872 0 0 14.2666 0 32C0 49.7334 13.5872 64 30.4762 64Z" fill="#2775CA"/>
<path d="M38.8571 37.0666C38.8571 32.4 36.1904 30.8 30.8571 30.1335C27.0476 29.6 26.2857 28.5335 26.2857 26.6666C26.2857 24.7997 27.5556 23.6 30.0952 23.6C32.3809 23.6 33.6509 24.4 34.2857 26.4C34.4128 26.8 34.7937 27.0666 35.1747 27.0666H37.2062C37.7143 27.0666 38.0952 26.6666 38.0952 26.1335V26C37.5872 23.0666 35.3015 20.8 32.3809 20.5335V17.3335C32.3809 16.8 32 16.4 31.3652 16.2666H29.4604C28.9523 16.2666 28.5714 16.6666 28.4443 17.3335V20.4C24.6348 20.9335 22.2223 23.6 22.2223 26.9335C22.2223 31.3335 24.7618 33.0666 30.0952 33.7334C33.6509 34.4 34.7937 35.2 34.7937 37.3334C34.7937 39.4669 33.0157 40.9334 30.6032 40.9334C27.3014 40.9334 26.1586 39.4666 25.7776 37.4666C25.6508 36.9334 25.2699 36.6666 24.8889 36.6666H22.73C22.2223 36.6666 21.8413 37.0666 21.8413 37.6V37.7334C22.349 41.0666 24.3809 43.4666 28.5714 44.1334V47.3334C28.5714 47.8666 28.9523 48.2666 29.5871 48.4H31.4919C32 48.4 32.3809 48 32.508 47.3334V44.1334C36.3175 43.4666 38.8571 40.6666 38.8571 37.0666Z" fill="white"/>
<path d="M24.0001 51.0666C14.0953 47.3334 9.01585 35.7334 12.6986 25.4665C14.6034 19.8665 18.7938 15.6 24.0001 13.6C24.5081 13.3334 24.762 12.9334 24.762 12.2665V10.4C24.762 9.86652 24.5081 9.46652 24.0001 9.3334C23.873 9.3334 23.6191 9.3334 23.492 9.46652C11.4287 13.4665 4.82538 26.9334 8.6349 39.6C10.9206 47.0666 16.381 52.8 23.492 55.2C24.0001 55.4666 24.5081 55.2 24.6349 54.6666C24.762 54.5334 24.762 54.4 24.762 54.1334V52.2666C24.762 51.8666 24.381 51.3334 24.0001 51.0666ZM37.4604 9.46652C36.9524 9.19996 36.4444 9.46652 36.3176 9.99996C36.1905 10.1334 36.1905 10.2665 36.1905 10.5334V12.4C36.1905 12.9334 36.5714 13.4665 36.9524 13.7334C46.8572 17.4665 51.9366 29.0665 48.2539 39.3334C46.3491 44.9334 42.1586 49.2 36.9524 51.2C36.4444 51.4666 36.1905 51.8666 36.1905 52.5334V54.4C36.1905 54.9334 36.4444 55.3334 36.9524 55.4666C37.0795 55.4666 37.3334 55.4666 37.4604 55.3334C49.5238 51.3334 56.1271 37.8666 52.3176 25.2C50.0319 17.6 44.4444 11.8665 37.4604 9.46652Z" fill="white"/>
<mask id="mask0_85_68662" style="mask-type:luminance" maskUnits="userSpaceOnUse" x="32" y="32" width="32" height="32">
<path d="M64 32H32V64H64V32Z" fill="white"/>
</mask>
<g mask="url(#mask0_85_68662)">
<path d="M48 64C56.8365 64 64 56.8365 64 48C64 39.1635 56.8365 32 48 32C39.1635 32 32 39.1635 32 48C32 56.8365 39.1635 64 48 64Z" fill="#8247E5"/>
<path fill-rule="evenodd" clip-rule="evenodd" d="M42.9014 39.2816C42.7955 39.3209 41.686 39.9225 40.4354 40.6189C38.8274 41.5142 38.1151 41.927 38.0015 42.0301C37.91 42.1129 37.8012 42.2544 37.7484 42.3584L37.6562 42.5408V45.3686V48.1971L37.7474 48.3773C37.9209 48.7197 37.9766 48.7555 40.4806 50.1478C41.759 50.8585 42.8687 51.4592 42.9465 51.4825C43.1564 51.5456 43.5458 51.5369 43.7522 51.4643C43.9167 51.4067 45.4652 50.5517 47.7343 49.2656C50.2508 47.8393 52.1091 46.8115 52.2623 46.7603C52.3878 46.7187 52.4982 46.7085 52.7142 46.7177C53.0732 46.7337 53.0713 46.7328 54.5852 47.5766C55.8454 48.279 55.9954 48.3862 56.165 48.7056C56.2172 48.8041 56.2754 48.968 56.294 49.0697C56.3401 49.3209 56.3398 51.8557 56.2937 52.1053C56.2454 52.368 56.1238 52.5961 55.9398 52.7693C55.7356 52.9616 53.2467 54.3897 53.0073 54.4518C52.7903 54.5081 52.5014 54.5049 52.2947 54.4435C52.2012 54.416 51.5497 54.0749 50.8466 53.6857C49.4354 52.9046 49.2975 52.8057 49.1225 52.447L49.031 52.2595L49.0156 51.2528L48.9999 50.2457L47.9926 50.815L46.9852 51.3843L46.9849 52.2813C46.9846 52.8275 46.998 53.2429 47.0194 53.344C47.0825 53.6409 47.229 53.8765 47.453 54.0397C47.7196 54.2342 52.1775 56.6921 52.3398 56.7341C52.5826 56.7971 52.9059 56.7849 53.1295 56.704C53.2355 56.6656 54.3455 56.0649 55.5964 55.3689C58.0761 53.9888 58.1017 53.9718 58.285 53.5987L58.375 53.4157V50.6032V47.7907L58.2835 47.6105C58.1113 47.2704 58.0514 47.2313 55.5388 45.8256C54.254 45.1069 53.1359 44.4979 53.0543 44.4723C52.8425 44.4061 52.4739 44.4083 52.2655 44.4771C52.1708 44.5085 51.4115 44.9235 50.5779 45.4C49.7443 45.8761 48.5631 46.5405 47.9529 46.8758C47.343 47.2115 46.1775 47.8672 45.3634 48.3334C44.5494 48.7997 43.8121 49.2022 43.725 49.2281C43.5033 49.2937 43.127 49.2886 42.919 49.2166C42.7314 49.152 40.3663 47.8304 40.1343 47.6608C39.9583 47.5321 39.7529 47.2352 39.6876 47.0163C39.6159 46.7747 39.6182 43.9571 39.6902 43.7104C39.751 43.5027 39.8876 43.2819 40.0415 43.1427C40.2044 42.9958 42.7247 41.6009 42.942 41.5379C43.134 41.4822 43.495 41.4896 43.7065 41.5539C43.7686 41.5728 44.4015 41.9113 45.1129 42.3062C46.3014 42.9664 46.4217 43.0406 46.598 43.2243C46.9235 43.5638 46.9337 43.608 46.9526 44.7622L46.9686 45.7337L47.9622 45.1715L48.9555 44.6089L48.9465 43.5897L48.9372 42.5705L48.8348 42.3622C48.7705 42.2317 48.6761 42.104 48.5814 42.0192C48.4425 41.895 44.1071 39.4128 43.8066 39.2854C43.7356 39.2553 43.5676 39.2297 43.3906 39.2224C43.1385 39.2121 43.0646 39.2211 42.9014 39.2816Z" fill="white"/>
</g>
</g>
<defs>
<clipPath id="clip0_85_68662">
<rect width="64" height="64" fill="white"/>
</clipPath>
</defs>
</svg>
