<svg width="64" height="64" viewBox="0 0 64 64" fill="none" xmlns="http://www.w3.org/2000/svg">
<g clip-path="url(#clip0_85_68765)">
<path d="M32 64C49.7334 64 64 49.7334 64 32C64 14.2666 49.7334 0 32 0C14.2666 0 0 14.2666 0 32C0 49.7334 14.2666 64 32 64Z" fill="#2775CA"/>
<path d="M40.7999 37.0666C40.7999 32.4 37.9999 30.8 32.3999 30.1335C28.3999 29.6 27.5999 28.5335 27.5999 26.6666C27.5999 24.7997 28.9334 23.6 31.5999 23.6C33.9999 23.6 35.3334 24.4 35.9999 26.4C36.1334 26.8 36.5334 27.0666 36.9334 27.0666H39.0665C39.5999 27.0666 39.9999 26.6666 39.9999 26.1335V26C39.4665 23.0666 37.0665 20.8 33.9999 20.5335V17.3335C33.9999 16.8 33.5999 16.4 32.9334 16.2666H30.9333C30.3999 16.2666 29.9999 16.6666 29.8665 17.3335V20.4C25.8665 20.9335 23.3333 23.6 23.3333 26.9335C23.3333 31.3335 25.9999 33.0666 31.5999 33.7334C35.3334 34.4 36.5334 35.2 36.5334 37.3334C36.5334 39.4669 34.6665 40.9334 32.1334 40.9334C28.6665 40.9334 27.4665 39.4666 27.0665 37.4666C26.9334 36.9334 26.5333 36.6666 26.1333 36.6666H23.8665C23.3334 36.6666 22.9333 37.0666 22.9333 37.6V37.7334C23.4665 41.0666 25.5999 43.4666 29.9999 44.1334V47.3334C29.9999 47.8666 30.3999 48.2666 31.0665 48.4H33.0665C33.5999 48.4 33.9999 48 34.1334 47.3334V44.1334C38.1334 43.4666 40.7999 40.6666 40.7999 37.0666Z" fill="white"/>
<path d="M25.2 51.0666C14.8 47.3334 9.4666 35.7334 13.3335 25.4665C15.3335 19.8665 19.7335 15.6 25.2 13.6C25.7335 13.3334 26 12.9334 26 12.2665V10.4C26 9.86652 25.7335 9.46652 25.2 9.3334C25.0666 9.3334 24.8 9.3334 24.6666 9.46652C12 13.4665 5.0666 26.9334 9.0666 39.6C11.4666 47.0666 17.2 52.8 24.6666 55.2C25.2 55.4666 25.7335 55.2 25.8666 54.6666C26 54.5334 26 54.4 26 54.1334V52.2666C26 51.8666 25.6 51.3334 25.2 51.0666ZM39.3334 9.46652C38.8 9.19996 38.2665 9.46652 38.1334 9.99996C38 10.1334 38 10.2665 38 10.5334V12.4C38 12.9334 38.4 13.4665 38.8 13.7334C49.2 17.4665 54.5334 29.0665 50.6665 39.3334C48.6665 44.9334 44.2665 49.2 38.8 51.2C38.2665 51.4666 38 51.8666 38 52.5334V54.4C38 54.9334 38.2665 55.3334 38.8 55.4666C38.9334 55.4666 39.2 55.4666 39.3334 55.3334C52 51.3334 58.9334 37.8666 54.9334 25.2C52.5334 17.6 46.6665 11.8665 39.3334 9.46652Z" fill="white"/>
<mask id="mask0_85_68765" style="mask-type:luminance" maskUnits="userSpaceOnUse" x="32" y="32" width="32" height="32">
<path d="M64 32H32V64H64V32Z" fill="white"/>
</mask>
<g mask="url(#mask0_85_68765)">
<path d="M48 64C56.8365 64 64 56.8365 64 48C64 39.1635 56.8365 32 48 32C39.1635 32 32 39.1635 32 48C32 56.8365 39.1635 64 48 64Z" fill="#E84142"/>
<path d="M53.6437 48.4157C54.198 47.4583 55.0927 47.4583 55.6469 48.4157L59.0988 54.4756C59.6533 55.433 59.1996 56.2141 58.0911 56.2141H51.1365C50.0405 56.2141 49.5871 55.433 50.1288 54.4756L53.6437 48.4157ZM46.9666 36.7495C47.5208 35.7921 48.4028 35.7921 48.957 36.7495L49.7256 38.1354L51.5397 41.3229C51.9807 42.2298 51.9807 43.3009 51.5397 44.2077L45.4546 54.7527C44.9004 55.6093 43.9807 56.1511 42.9602 56.2141H37.9084C36.7996 56.2141 36.3461 55.4458 36.9004 54.4756L46.9666 36.7495Z" fill="white"/>
</g>
</g>
<defs>
<clipPath id="clip0_85_68765">
<rect width="64" height="64" fill="white"/>
</clipPath>
</defs>
</svg>
