<svg width="64" height="64" viewBox="0 0 64 64" fill="none" xmlns="http://www.w3.org/2000/svg">
<g clip-path="url(#clip0_85_68724)">
<path d="M32 64C49.7334 64 64 49.7334 64 32C64 14.2666 49.7334 0 32 0C14.2666 0 0 14.2666 0 32C0 49.7334 14.2666 64 32 64Z" fill="#2775CA"/>
<path d="M40.7999 37.0666C40.7999 32.4 37.9999 30.8 32.3999 30.1335C28.3999 29.6 27.5999 28.5335 27.5999 26.6666C27.5999 24.7997 28.9334 23.6 31.5999 23.6C33.9999 23.6 35.3334 24.4 35.9999 26.4C36.1334 26.8 36.5334 27.0666 36.9334 27.0666H39.0665C39.5999 27.0666 39.9999 26.6666 39.9999 26.1335V26C39.4665 23.0666 37.0665 20.8 33.9999 20.5335V17.3335C33.9999 16.8 33.5999 16.4 32.9334 16.2666H30.9333C30.3999 16.2666 29.9999 16.6666 29.8665 17.3335V20.4C25.8665 20.9335 23.3333 23.6 23.3333 26.9335C23.3333 31.3335 25.9999 33.0666 31.5999 33.7335C35.3334 34.4 36.5334 35.2 36.5334 37.3335C36.5334 39.4669 34.6665 40.9335 32.1334 40.9335C28.6665 40.9335 27.4665 39.4666 27.0665 37.4666C26.9334 36.9334 26.5333 36.6666 26.1333 36.6666H23.8665C23.3334 36.6666 22.9333 37.0666 22.9333 37.6V37.7335C23.4665 41.0666 25.5999 43.4666 29.9999 44.1335V47.3335C29.9999 47.8666 30.3999 48.2666 31.0665 48.4H33.0665C33.5999 48.4 33.9999 48 34.1334 47.3335V44.1335C38.1334 43.4666 40.7999 40.6666 40.7999 37.0666Z" fill="white"/>
<path d="M25.2 51.0666C14.8 47.3334 9.4666 35.7334 13.3335 25.4665C15.3335 19.8665 19.7335 15.6 25.2 13.6C25.7335 13.3334 26 12.9334 26 12.2665V10.4C26 9.86652 25.7335 9.46652 25.2 9.3334C25.0666 9.3334 24.8 9.3334 24.6666 9.46652C12 13.4665 5.0666 26.9334 9.0666 39.6C11.4666 47.0666 17.2 52.8 24.6666 55.2C25.2 55.4666 25.7335 55.2 25.8666 54.6666C26 54.5334 26 54.4 26 54.1334V52.2666C26 51.8666 25.6 51.3334 25.2 51.0666ZM39.3334 9.46652C38.8 9.19996 38.2665 9.46652 38.1334 9.99996C38 10.1334 38 10.2665 38 10.5334V12.4C38 12.9334 38.4 13.4665 38.8 13.7334C49.2 17.4665 54.5334 29.0665 50.6665 39.3334C48.6665 44.9334 44.2665 49.2 38.8 51.2C38.2665 51.4666 38 51.8666 38 52.5334V54.4C38 54.9334 38.2665 55.3334 38.8 55.4666C38.9334 55.4666 39.2 55.4666 39.3334 55.3334C52 51.3334 58.9334 37.8666 54.9334 25.2C52.5334 17.6 46.6665 11.8665 39.3334 9.46652Z" fill="white"/>
<g clip-path="url(#clip1_85_68724)">
<path d="M51.4569 46.6615L53.8068 42.6742L60.1409 52.5397L60.144 54.4325L60.1232 41.4042C60.1158 41.2471 60.0707 41.094 59.9918 40.9579C59.9128 40.8219 59.8022 40.7068 59.6694 40.6225L48.2657 34.0633C48.1294 33.9986 47.9804 33.9653 47.8296 33.966C47.6787 33.9667 47.53 34.0014 47.3944 34.0674C47.3592 34.0851 47.3251 34.1048 47.2922 34.1265L47.2525 34.1516L36.1832 40.5659L36.1401 40.5853C36.0827 40.6119 36.0279 40.6438 35.9765 40.6806C35.7689 40.8289 35.6275 41.0523 35.5823 41.3034C35.5753 41.3415 35.5706 41.3799 35.5681 41.4186L35.5855 52.0352L41.4853 42.8908C42.2281 41.6783 43.8465 41.2877 45.3488 41.3089L47.1121 41.3545L36.7225 58.0162L37.9473 58.7213L48.4614 41.3711L53.1086 41.3543L42.6217 59.1415L46.9923 61.6568L47.5145 61.9571C47.7398 62.0467 47.9899 62.0515 48.2185 61.9711L59.7825 55.2696L57.5705 56.5507L51.4569 46.6615ZM52.3536 59.5747L47.9396 52.6471L50.6339 48.0751L56.4307 57.2119L52.3536 59.5747Z" fill="#2D374B"/>
<path d="M47.9397 52.647L52.3536 59.5746L56.4311 57.2115L50.6344 48.075L47.9397 52.647Z" fill="#28A0F0"/>
<path d="M60.1446 54.4326L60.1416 52.5399L53.8075 42.6744L51.4563 46.6612L57.571 56.5504L59.783 55.2693C59.8901 55.1826 59.9776 55.0741 60.04 54.9512C60.1024 54.8282 60.1381 54.6934 60.1448 54.5558L60.1446 54.4326Z" fill="#28A0F0"/>
<path d="M33.6012 56.2182L36.7233 58.0171L47.1129 41.3555L45.3497 41.3099C43.8473 41.2887 42.2289 41.6791 41.4862 42.8919L35.5863 52.0363L33.6023 55.0859L33.6012 56.2182Z" fill="white"/>
<path d="M53.1091 41.3553L48.462 41.3722L37.948 58.7222L41.6229 60.8382L42.6222 59.1432L53.1091 41.3553Z" fill="white"/>
<path d="M62.1022 41.3314C62.0809 40.8519 61.9433 40.3846 61.7013 39.9701C61.4592 39.5555 61.12 39.2061 60.7128 38.9518L49.1597 32.3081C48.7473 32.1054 48.2939 32 47.8343 32C47.3748 32 46.9214 32.1054 46.509 32.3081C46.4125 32.3566 35.2738 38.8168 35.2738 38.8168C35.119 38.8911 34.971 38.9787 34.8314 39.0786C34.4697 39.3358 34.171 39.6716 33.9577 40.0608C33.7445 40.45 33.6221 40.8825 33.6 41.3257V55.0853L35.5839 52.0357L35.5687 41.4195C35.5779 41.2739 35.6194 41.1322 35.69 41.0046C35.7606 40.877 35.8587 40.7667 35.9771 40.6815C36.0295 40.6439 47.3584 34.0863 47.3944 34.0683C47.5301 34.0023 47.6788 33.9676 47.8297 33.9669C47.9805 33.9662 48.1296 33.9995 48.2657 34.0642L59.6694 40.6238C59.8022 40.7082 59.9128 40.8232 59.9918 40.9593C60.0709 41.0953 60.1158 41.2484 60.1233 41.4056V54.5571C60.1205 54.6936 60.0886 54.8277 60.0299 54.9507C59.9712 55.0738 59.8867 55.1829 59.7824 55.2707L57.5704 56.5518L56.4302 57.2131L52.3528 59.5762L48.2177 61.9726C47.9891 62.0533 47.739 62.0483 47.5137 61.9587L42.6215 59.145L41.6222 60.8397L46.0189 63.371C46.1644 63.4536 46.2939 63.527 46.4002 63.5867C46.5648 63.6779 46.677 63.7406 46.7165 63.7598C47.0843 63.921 47.482 64.0029 47.8836 64C48.252 64.0005 48.6171 63.9318 48.96 63.7974L60.9702 56.8421C61.3091 56.5786 61.5861 56.2438 61.7814 55.8618C61.9769 55.4795 62.0864 55.0592 62.1017 54.6301L62.1022 41.3314Z" fill="#96BEDC"/>
</g>
</g>
<defs>
<clipPath id="clip0_85_68724">
<rect width="64" height="64" fill="white"/>
</clipPath>
<clipPath id="clip1_85_68724">
<rect width="32" height="32" fill="white" transform="translate(32 32)"/>
</clipPath>
</defs>
</svg>
