<svg width="64" height="64" viewBox="0 0 64 64" fill="none" xmlns="http://www.w3.org/2000/svg">
<g clip-path="url(#clip0_85_68755)">
<path d="M32 64C49.7334 64 64 49.7334 64 32C64 14.2666 49.7334 0 32 0C14.2666 0 0 14.2666 0 32C0 49.7334 14.2666 64 32 64Z" fill="#2775CA"/>
<path d="M40.7999 37.0666C40.7999 32.4 37.9999 30.8 32.3999 30.1335C28.3999 29.6 27.5999 28.5335 27.5999 26.6666C27.5999 24.7997 28.9334 23.6 31.5999 23.6C33.9999 23.6 35.3334 24.4 35.9999 26.4C36.1334 26.8 36.5334 27.0666 36.9334 27.0666H39.0665C39.5999 27.0666 39.9999 26.6666 39.9999 26.1335V26C39.4665 23.0666 37.0665 20.8 33.9999 20.5335V17.3335C33.9999 16.8 33.5999 16.4 32.9334 16.2666H30.9333C30.3999 16.2666 29.9999 16.6666 29.8665 17.3335V20.4C25.8665 20.9335 23.3333 23.6 23.3333 26.9335C23.3333 31.3335 25.9999 33.0666 31.5999 33.7334C35.3334 34.4 36.5334 35.2 36.5334 37.3334C36.5334 39.4669 34.6665 40.9334 32.1334 40.9334C28.6665 40.9334 27.4665 39.4666 27.0665 37.4666C26.9334 36.9334 26.5333 36.6666 26.1333 36.6666H23.8665C23.3334 36.6666 22.9333 37.0666 22.9333 37.6V37.7334C23.4665 41.0666 25.5999 43.4666 29.9999 44.1334V47.3334C29.9999 47.8666 30.3999 48.2666 31.0665 48.4H33.0665C33.5999 48.4 33.9999 48 34.1334 47.3334V44.1334C38.1334 43.4666 40.7999 40.6666 40.7999 37.0666Z" fill="white"/>
<path d="M25.2 51.0666C14.8 47.3334 9.4666 35.7334 13.3335 25.4665C15.3335 19.8665 19.7335 15.6 25.2 13.6C25.7335 13.3334 26 12.9334 26 12.2665V10.4C26 9.86652 25.7335 9.46652 25.2 9.3334C25.0666 9.3334 24.8 9.3334 24.6666 9.46652C12 13.4665 5.0666 26.9334 9.0666 39.6C11.4666 47.0666 17.2 52.8 24.6666 55.2C25.2 55.4666 25.7335 55.2 25.8666 54.6666C26 54.5334 26 54.4 26 54.1334V52.2666C26 51.8666 25.6 51.3334 25.2 51.0666ZM39.3334 9.46652C38.8 9.19996 38.2665 9.46652 38.1334 9.99996C38 10.1334 38 10.2665 38 10.5334V12.4C38 12.9334 38.4 13.4665 38.8 13.7334C49.2 17.4665 54.5334 29.0665 50.6665 39.3334C48.6665 44.9334 44.2665 49.2 38.8 51.2C38.2665 51.4666 38 51.8666 38 52.5334V54.4C38 54.9334 38.2665 55.3334 38.8 55.4666C38.9334 55.4666 39.2 55.4666 39.3334 55.3334C52 51.3334 58.9334 37.8666 54.9334 25.2C52.5334 17.6 46.6665 11.8665 39.3334 9.46652Z" fill="white"/>
<circle cx="48" cy="48" r="16" fill="black"/>
<path d="M41.2038 52.2496C41.3258 52.1276 41.4935 52.0565 41.6713 52.0565H57.801C58.0958 52.0565 58.2432 52.4122 58.0348 52.6206L54.8485 55.8069C54.7265 55.9288 54.5588 56 54.381 56H38.2513C37.9565 56 37.8091 55.6443 38.0175 55.4359L41.2038 52.2496Z" fill="url(#paint0_linear_85_68755)"/>
<path d="M41.2038 40.3531C41.3308 40.2311 41.4985 40.16 41.6713 40.16H57.801C58.0958 40.16 58.2432 40.5157 58.0348 40.724L54.8485 43.9104C54.7265 44.0323 54.5588 44.1035 54.381 44.1035H38.2513C37.9565 44.1035 37.8091 43.7477 38.0175 43.5394L41.2038 40.3531Z" fill="url(#paint1_linear_85_68755)"/>
<path d="M54.8485 46.2632C54.7265 46.1413 54.5588 46.0701 54.381 46.0701H38.2513C37.9565 46.0701 37.8091 46.4258 38.0175 46.6342L41.2038 49.8205C41.3258 49.9425 41.4935 50.0136 41.6713 50.0136H57.801C58.0958 50.0136 58.2432 49.6579 58.0348 49.4495L54.8485 46.2632Z" fill="url(#paint2_linear_85_68755)"/>
</g>
<defs>
<linearGradient id="paint0_linear_85_68755" x1="56.2602" y1="38.2565" x2="45.0971" y2="59.6382" gradientUnits="userSpaceOnUse">
<stop stop-color="#00FFA3"/>
<stop offset="1" stop-color="#DC1FFF"/>
</linearGradient>
<linearGradient id="paint1_linear_85_68755" x1="51.3791" y1="35.7082" x2="40.216" y2="57.0899" gradientUnits="userSpaceOnUse">
<stop stop-color="#00FFA3"/>
<stop offset="1" stop-color="#DC1FFF"/>
</linearGradient>
<linearGradient id="paint2_linear_85_68755" x1="53.8041" y1="36.9743" x2="42.6411" y2="58.356" gradientUnits="userSpaceOnUse">
<stop stop-color="#00FFA3"/>
<stop offset="1" stop-color="#DC1FFF"/>
</linearGradient>
<clipPath id="clip0_85_68755">
<rect width="64" height="64" fill="white"/>
</clipPath>
</defs>
</svg>
