<svg width="20" height="20" viewBox="0 0 20 20" fill="none" xmlns="http://www.w3.org/2000/svg">
<circle cx="10" cy="10" r="10" fill="#06AD51"/>
<mask id="mask0" style="mask-type:alpha" maskUnits="userSpaceOnUse" x="0" y="0" width="20" height="20">
<circle cx="10" cy="10" r="10" fill="#06AD51"/>
</mask>
<g mask="url(#mask0)">
<g filter="url(#filter0_f)">
<ellipse cx="-2" cy="13.5" rx="10" ry="11.5" fill="#004E2A"/>
</g>
<g filter="url(#filter1_f)">
<ellipse cx="22" rx="10" ry="9" fill="#94D435"/>
</g>
</g>
<path fill-rule="evenodd" clip-rule="evenodd" d="M11.2039 15.357V16.6785V18H10.0864H8.96882V16.6715V15.343H6.88076H4.7927V14.4765V13.6101H6.88076H8.96882V12.2615V10.913L8.13065 10.8782C6.52461 10.8114 5.58716 10.4042 4.97809 9.50839C4.62948 8.99575 4.49831 8.5306 4.50002 7.81343C4.50172 7.12231 4.56154 6.83096 4.79905 6.3572C5.35583 5.24633 6.63237 4.65704 8.48203 4.65704H8.96882V3.32852V2H10.0864H11.2039V3.32852V4.65704H11.5544H11.9048H15.3506V6.44765H12.2485H11.7262H11.2039V7.80505V9.16245C13.0536 9.16245 14.6442 9.8095 15.201 10.9204C15.4385 11.3941 15.4983 11.6855 15.5 12.3766C15.5017 13.0938 15.3705 13.5589 15.0219 14.0716C14.4128 14.9673 12.81 15.2903 11.2039 15.357ZM6.86752 7.07113C7.0401 6.78192 7.23167 6.637 7.58535 6.52817C7.71545 6.48814 8.07989 6.45366 8.39534 6.45152L8.96882 6.44765V7.80505V9.16245H8.59732C7.70722 9.16245 7.14226 8.94163 6.87146 8.48785C6.73548 8.25998 6.71207 8.15532 6.71207 7.77617C6.71207 7.3998 6.73589 7.29173 6.86752 7.07113ZM9.02764 10.8375V10.0289V9.22022H10.0864H11.1451V10.0289V10.8375H10.0864H9.02764ZM11.2039 13.6252V12.2603V10.8953C11.5194 10.8974 12.2845 11.0513 12.4147 11.0913C12.7683 11.2002 12.9599 11.3451 13.1325 11.6343C13.2641 11.8549 13.2879 11.963 13.2879 12.3393C13.2879 12.7185 13.2645 12.8232 13.1285 13.051C12.8577 13.5048 12.094 13.6252 11.2039 13.6252Z" fill="white"/>
<defs>
<filter id="filter0_f" x="-20" y="-6" width="36" height="39" filterUnits="userSpaceOnUse" color-interpolation-filters="sRGB">
<feFlood flood-opacity="0" result="BackgroundImageFix"/>
<feBlend mode="normal" in="SourceGraphic" in2="BackgroundImageFix" result="shape"/>
<feGaussianBlur stdDeviation="4" result="effect1_foregroundBlur"/>
</filter>
<filter id="filter1_f" x="8" y="-13" width="28" height="26" filterUnits="userSpaceOnUse" color-interpolation-filters="sRGB">
<feFlood flood-opacity="0" result="BackgroundImageFix"/>
<feBlend mode="normal" in="SourceGraphic" in2="BackgroundImageFix" result="shape"/>
<feGaussianBlur stdDeviation="2" result="effect1_foregroundBlur"/>
</filter>
</defs>
</svg>
