<svg width="64" height="64" viewBox="0 0 64 64" fill="none" xmlns="http://www.w3.org/2000/svg">
<g clip-path="url(#clip0_85_68672)">
<path fill-rule="evenodd" clip-rule="evenodd" d="M11.7189 4.43671L0.0494405 28.9484C0.00503495 29.0396 -0.00903689 29.1426 0.00928286 29.2423C0.0276026 29.3421 0.0773528 29.4333 0.151258 29.5028L31.6676 59.7031C31.7572 59.7888 31.8764 59.8368 32.0003 59.8368C32.1245 59.8368 32.2438 59.7888 32.3331 59.7031L63.8496 29.5046C63.9235 29.4352 63.9731 29.3439 63.9917 29.2442C64.0099 29.1445 63.9958 29.0415 63.9513 28.9503L52.2819 4.4386C52.2441 4.3563 52.1837 4.28657 52.1075 4.23774C52.0313 4.18894 51.9427 4.16308 51.8521 4.16334H12.1525C12.0616 4.16219 11.9723 4.1874 11.8953 4.23591C11.8183 4.28443 11.7571 4.35419 11.7189 4.43671Z" fill="#50AF95"/>
<path fill-rule="evenodd" clip-rule="evenodd" d="M36.0487 31.4656C35.8225 31.4826 34.6535 31.5524 32.0458 31.5524C29.9717 31.5524 28.4991 31.4901 27.9825 31.4656C19.9672 31.113 13.9844 29.7177 13.9844 28.0472C13.9844 26.3766 19.9672 24.9832 27.9825 24.625V30.076C28.5067 30.1137 30.0076 30.2023 32.0817 30.2023C34.5706 30.2023 35.8167 30.0986 36.041 30.0779V24.6287C44.0394 24.9851 50.009 26.3804 50.009 28.0472C50.009 29.714 44.0413 31.1093 36.041 31.4637L36.0487 31.4656ZM36.0487 24.065V19.1871H47.2109V11.7488H16.8203V19.1871H27.9806V24.0631C18.9094 24.4798 12.0876 26.2767 12.0876 28.4299C12.0876 30.5832 18.9094 32.3783 27.9806 32.7969V48.4276H36.0468V32.7911C45.0973 32.3745 51.9079 30.5794 51.9079 28.4281C51.9079 26.2767 45.105 24.4836 36.0487 24.065Z" fill="white"/>
<path d="M53.8277 32L53.6129 32.7292V53.8883L53.8277 54.1025L63.6553 48.2969L53.8277 32Z" fill="#343434"/>
<path d="M53.8278 32L44 48.2969L53.8278 54.1025V43.8325V32Z" fill="#8C8C8C"/>
<path d="M53.8277 55.9621L53.7067 56.1096V63.6468L53.8277 64L63.6613 50.1594L53.8277 55.9621Z" fill="#3C3C3B"/>
<path d="M53.8278 64V55.9621L44 50.1594L53.8278 64Z" fill="#8C8C8C"/>
<path d="M53.8279 54.1025L63.6554 48.2969L53.8279 43.8325V54.1025Z" fill="#141414"/>
<path d="M44 48.2969L53.8278 54.1025V43.8325L44 48.2969Z" fill="#393939"/>
</g>
<defs>
<clipPath id="clip0_85_68672">
<rect width="64" height="64" fill="white"/>
</clipPath>
</defs>
</svg>
