<svg width="64" height="64" viewBox="0 0 64 64" fill="none" xmlns="http://www.w3.org/2000/svg">
<path fill-rule="evenodd" clip-rule="evenodd" d="M11.7189 4.43668L0.0494405 28.9484C0.00503495 29.0396 -0.00903689 29.1425 0.00928286 29.2423C0.0276026 29.342 0.0773528 29.4333 0.151258 29.5027L31.6676 59.703C31.7572 59.7888 31.8764 59.8368 32.0003 59.8368C32.1245 59.8368 32.2438 59.7888 32.3331 59.703L63.8496 29.5046C63.9235 29.4352 63.9731 29.3439 63.9917 29.2442C64.0099 29.1444 63.9958 29.0415 63.9513 28.9503L52.2819 4.43857C52.2441 4.35627 52.1837 4.28654 52.1075 4.23771C52.0313 4.18891 51.9427 4.16305 51.8521 4.16331H12.1525C12.0616 4.16216 11.9723 4.18737 11.8953 4.23588C11.8183 4.2844 11.7571 4.35416 11.7189 4.43668Z" fill="#50AF95"/>
<path fill-rule="evenodd" clip-rule="evenodd" d="M36.0487 31.4655C35.8225 31.4825 34.6535 31.5523 32.0458 31.5523C29.9717 31.5523 28.4991 31.49 27.9825 31.4655C19.9672 31.113 13.9844 29.7177 13.9844 28.0471C13.9844 26.3765 19.9672 24.9831 27.9825 24.6249V30.0759C28.5067 30.1136 30.0076 30.2022 32.0817 30.2022C34.5706 30.2022 35.8167 30.0986 36.041 30.0778V24.6287C44.0394 24.985 50.009 26.3803 50.009 28.0471C50.009 29.7139 44.0413 31.1092 36.041 31.4636L36.0487 31.4655ZM36.0487 24.0649V19.1871H47.2109V11.7487H16.8203V19.1871H27.9806V24.063C18.9094 24.4797 12.0876 26.2766 12.0876 28.4299C12.0876 30.5831 18.9094 32.3782 27.9806 32.7968V48.4275H36.0468V32.791C45.0973 32.3744 51.9079 30.5794 51.9079 28.428C51.9079 26.2766 45.105 24.4835 36.0487 24.0649Z" fill="white"/>
<mask id="mask0_85_68708" style="mask-type:luminance" maskUnits="userSpaceOnUse" x="32" y="32" width="32" height="32">
<path d="M64 32H32V64H64V32Z" fill="white"/>
</mask>
<g mask="url(#mask0_85_68708)">
<path d="M48 64C56.8365 64 64 56.8364 64 48C64 39.1635 56.8365 32 48 32C39.1635 32 32 39.1635 32 48C32 56.8364 39.1635 64 48 64Z" fill="#E84142"/>
<path d="M53.6437 48.4157C54.198 47.4583 55.0927 47.4583 55.6469 48.4157L59.0988 54.4755C59.6533 55.433 59.1996 56.2141 58.0911 56.2141H51.1365C50.0405 56.2141 49.5871 55.433 50.1288 54.4755L53.6437 48.4157ZM46.9666 36.7495C47.5208 35.792 48.4028 35.792 48.957 36.7495L49.7256 38.1354L51.5397 41.3229C51.9807 42.2298 51.9807 43.3008 51.5397 44.2077L45.4546 54.7527C44.9004 55.6093 43.9807 56.1511 42.9602 56.2141H37.9084C36.7996 56.2141 36.3461 55.4458 36.9004 54.4755L46.9666 36.7495Z" fill="white"/>
</g>
</svg>
