<svg width="64" height="64" viewBox="0 0 64 64" fill="none" xmlns="http://www.w3.org/2000/svg">
<path fill-rule="evenodd" clip-rule="evenodd" d="M11.7189 4.43671L0.0494405 28.9484C0.00503495 29.0396 -0.00903689 29.1426 0.00928286 29.2423C0.0276026 29.3421 0.0773528 29.4333 0.151258 29.5028L31.6676 59.7031C31.7572 59.7888 31.8764 59.8368 32.0003 59.8368C32.1245 59.8368 32.2438 59.7888 32.3331 59.7031L63.8496 29.5046C63.9235 29.4352 63.9731 29.3439 63.9917 29.2442C64.0099 29.1445 63.9958 29.0415 63.9513 28.9503L52.2819 4.4386C52.2441 4.3563 52.1837 4.28657 52.1075 4.23774C52.0313 4.18894 51.9427 4.16308 51.8521 4.16334H12.1525C12.0616 4.16219 11.9723 4.1874 11.8953 4.23591C11.8183 4.28443 11.7571 4.35419 11.7189 4.43671Z" fill="#50AF95"/>
<path fill-rule="evenodd" clip-rule="evenodd" d="M36.0487 31.4657C35.8225 31.4826 34.6535 31.5524 32.0458 31.5524C29.9717 31.5524 28.4991 31.4902 27.9825 31.4657C19.9672 31.1131 13.9844 29.7178 13.9844 28.0472C13.9844 26.3767 19.9672 24.9833 27.9825 24.625V30.0761C28.5067 30.1138 30.0076 30.2024 32.0817 30.2024C34.5706 30.2024 35.8167 30.0987 36.041 30.0779V24.6288C44.0394 24.9851 50.009 26.3804 50.009 28.0472C50.009 29.714 44.0413 31.1093 36.041 31.4638L36.0487 31.4657ZM36.0487 24.065V19.1872H47.2109V11.7489H16.8203V19.1872H27.9806V24.0631C18.9094 24.4798 12.0876 26.2767 12.0876 28.43C12.0876 30.5833 18.9094 32.3784 27.9806 32.7969V48.4276H36.0468V32.7912C45.0973 32.3745 51.9079 30.5795 51.9079 28.4281C51.9079 26.2767 45.105 24.4836 36.0487 24.065Z" fill="white"/>
<path d="M48 64C56.8365 64 64 56.8365 64 48C64 39.1634 56.8365 32 48 32C39.1634 32 32 39.1634 32 48C32 56.8365 39.1634 64 48 64Z" fill="#FF0420"/>
<path d="M43.3313 52.243C42.4989 52.2786 41.6774 52.0427 40.9906 51.5709C40.6939 51.3443 40.4569 51.0488 40.3001 50.7099C40.1432 50.3712 40.0713 49.9994 40.0904 49.6264C40.0941 49.4093 40.1142 49.1925 40.1505 48.9784C40.2545 48.4013 40.4026 47.7091 40.5946 46.9017C41.1387 44.7011 42.5431 43.6008 44.8076 43.6008C45.3751 43.5915 45.9387 43.6977 46.4639 43.9129C46.9302 44.0956 47.3314 44.4132 47.6162 44.8252C47.9034 45.2496 48.0501 45.7534 48.0359 46.2657C48.0317 46.4789 48.0117 46.6915 47.9758 46.9017C47.8557 47.614 47.7117 48.3061 47.5438 48.9784C47.264 50.0746 46.7799 50.8947 46.0915 51.4389C45.4037 51.975 44.4837 52.243 43.3313 52.243ZM43.4995 50.5146C43.9152 50.5261 44.3208 50.3853 44.6399 50.1186C44.9926 49.7987 45.2326 49.3734 45.324 48.9062C45.5081 48.1542 45.648 47.4981 45.7437 46.9377C45.7759 46.7675 45.792 46.5947 45.7917 46.4215C45.7917 45.6932 45.4116 45.3291 44.6515 45.3293C44.2324 45.3192 43.8236 45.4597 43.4992 45.7253C43.1531 46.0486 42.9178 46.4728 42.827 46.9377C42.6829 47.4738 42.5389 48.1299 42.395 48.9062C42.3624 49.0723 42.3463 49.2411 42.347 49.4104C42.347 50.1466 42.7311 50.5146 43.4995 50.5146Z" fill="white"/>
<path d="M48.5886 52.1232C48.5505 52.1254 48.5123 52.119 48.4771 52.1045C48.4417 52.0901 48.41 52.0677 48.3846 52.0394C48.3446 51.9747 48.3316 51.8971 48.3486 51.8232L50.0051 44.0209C50.0196 43.9348 50.0665 43.8575 50.1361 43.8048C50.2004 43.7517 50.2809 43.7221 50.3644 43.7209H53.5572C54.3091 43.684 55.0542 43.8765 55.6939 44.273C55.9569 44.4453 56.1705 44.6831 56.3137 44.9631C56.4567 45.2431 56.5246 45.5555 56.5102 45.8696C56.5091 46.0797 56.4849 46.289 56.438 46.4939C56.3057 47.3026 55.8727 48.0315 55.2257 48.5346C54.6255 48.9746 53.8014 49.1947 52.7531 49.1947H51.1329L50.5807 51.8234C50.566 51.9094 50.5191 51.9867 50.4495 52.0395C50.3854 52.0926 50.3049 52.1222 50.2217 52.1235L48.5886 52.1232ZM52.8379 47.5378C53.1523 47.5447 53.4603 47.4477 53.7142 47.2619C53.9753 47.0701 54.1551 46.7875 54.2182 46.4697C54.2406 46.3509 54.2526 46.2304 54.2542 46.1096C54.2611 46.0119 54.2462 45.914 54.211 45.8227C54.1758 45.7314 54.1207 45.649 54.0502 45.5813C53.8499 45.4334 53.6019 45.365 53.354 45.3893H51.9137L51.4575 47.5378H52.8379Z" fill="white"/>
</svg>
