<svg width="64" height="64" viewBox="0 0 64 64" fill="none" xmlns="http://www.w3.org/2000/svg">
<path fill-rule="evenodd" clip-rule="evenodd" d="M11.7186 4.4367L0.0491963 28.9484C0.00479081 29.0396 -0.00928103 29.1426 0.00903872 29.2423C0.0273585 29.342 0.0771087 29.4333 0.151014 29.5027L31.6674 59.703C31.7569 59.7888 31.8761 59.8368 32 59.8368C32.1242 59.8368 32.2436 59.7888 32.3328 59.703L63.8493 29.5046C63.9232 29.4352 63.9728 29.3439 63.9914 29.2442C64.0096 29.1444 63.9956 29.0415 63.9511 28.9503L52.2816 4.43859C52.2439 4.35628 52.1834 4.28655 52.1072 4.23772C52.0311 4.18892 51.9424 4.16307 51.8519 4.16332H12.1523C12.0614 4.16217 11.972 4.18739 11.8951 4.2359C11.8181 4.28441 11.7568 4.35417 11.7186 4.4367Z" fill="#50AF95"/>
<path fill-rule="evenodd" clip-rule="evenodd" d="M36.0489 31.4655C35.8227 31.4825 34.6537 31.5523 32.0461 31.5523C29.972 31.5523 28.4994 31.49 27.9827 31.4655C19.9674 31.113 13.9847 29.7177 13.9847 28.0471C13.9847 26.3765 19.9674 24.9831 27.9827 24.6249V30.0759C28.5069 30.1136 30.0078 30.2022 32.0819 30.2022C34.5709 30.2022 35.8169 30.0986 36.0413 30.0778V24.6287C44.0397 24.985 50.0093 26.3803 50.0093 28.0471C50.0093 29.7139 44.0416 31.1092 36.0413 31.4636L36.0489 31.4655ZM36.0489 24.0649V19.1871H47.2112V11.7487H16.8205V19.1871H27.9809V24.063C18.9097 24.4797 12.0879 26.2766 12.0879 28.4299C12.0879 30.5831 18.9097 32.3782 27.9809 32.7968V48.4275H36.047V32.791C45.0976 32.3744 51.9081 30.5794 51.9081 28.428C51.9081 26.2766 45.1053 24.4835 36.0489 24.0649Z" fill="white"/>
<path d="M48 64C56.8366 64 64 56.8366 64 48C64 39.1634 56.8366 32 48 32C39.1634 32 32 39.1634 32 48C32 56.8366 39.1634 64 48 64Z" fill="#EB322A"/>
<path fill-rule="evenodd" clip-rule="evenodd" d="M38.539 38.6365C38.681 38.4595 38.907 38.3722 39.1313 38.4077L55.193 40.9575C55.33 40.9792 55.4558 41.0451 55.5514 41.1456L59.434 45.2189C59.5079 45.2944 59.5633 45.3885 59.5921 45.4957C59.602 45.5319 59.6084 45.569 59.6116 45.6064C59.6199 45.7005 59.6068 45.792 59.5764 45.8762C59.5527 45.9411 59.5182 46.0032 59.4724 46.0595L47.8084 60.4007C47.6666 60.5747 47.4433 60.6605 47.2215 60.6263C46.9998 60.592 46.8126 60.4426 46.7303 60.2339L38.4442 39.2643C38.361 39.0535 38.3972 38.8138 38.539 38.6365ZM57.6759 45.2067L55.1223 42.5277L51.033 46.1434L57.6759 45.2067ZM53.7937 42.0151L41.2039 40.0167L49.0538 46.2061L53.7937 42.0151ZM49.5959 47.6227L57.4753 46.5117L48.2846 57.8115L49.5959 47.6227ZM47.0401 57.5783L40.5258 41.0919L48.3662 47.2739L47.0401 57.5783Z" fill="white"/>
</svg>
