<svg width="64" height="64" viewBox="0 0 64 64" fill="none" xmlns="http://www.w3.org/2000/svg">
<path fill-rule="evenodd" clip-rule="evenodd" d="M11.7189 4.43671L0.0494405 28.9484C0.00503495 29.0396 -0.00903689 29.1426 0.00928286 29.2423C0.0276026 29.3421 0.0773528 29.4333 0.151258 29.5028L31.6676 59.7031C31.7572 59.7888 31.8764 59.8368 32.0003 59.8368C32.1245 59.8368 32.2438 59.7888 32.3331 59.7031L63.8496 29.5046C63.9235 29.4352 63.9731 29.3439 63.9917 29.2442C64.0099 29.1445 63.9958 29.0415 63.9513 28.9503L52.2819 4.4386C52.2441 4.3563 52.1837 4.28657 52.1075 4.23774C52.0313 4.18894 51.9427 4.16308 51.8521 4.16334H12.1525C12.0616 4.16219 11.9723 4.1874 11.8953 4.23591C11.8183 4.28443 11.7571 4.35419 11.7189 4.43671Z" fill="#50AF95"/>
<path fill-rule="evenodd" clip-rule="evenodd" d="M36.0487 31.4656C35.8225 31.4826 34.6535 31.5524 32.0458 31.5524C29.9717 31.5524 28.4991 31.4902 27.9825 31.4656C19.9672 31.1131 13.9844 29.7178 13.9844 28.0472C13.9844 26.3766 19.9672 24.9832 27.9825 24.625V30.076C28.5067 30.1137 30.0076 30.2023 32.0817 30.2023C34.5706 30.2023 35.8167 30.0987 36.041 30.0779V24.6288C44.0394 24.9851 50.009 26.3804 50.009 28.0472C50.009 29.714 44.0413 31.1093 36.041 31.4638L36.0487 31.4656ZM36.0487 24.065V19.1872H47.2109V11.7488H16.8203V19.1872H27.9806V24.0631C18.9094 24.4798 12.0876 26.2767 12.0876 28.43C12.0876 30.5832 18.9094 32.3783 27.9806 32.7969V48.4276H36.0468V32.7911C45.0973 32.3745 51.9079 30.5795 51.9079 28.4281C51.9079 26.2767 45.105 24.4836 36.0487 24.065Z" fill="white"/>
<mask id="mask0_85_68682" style="mask-type:luminance" maskUnits="userSpaceOnUse" x="32" y="32" width="32" height="32">
<path d="M64 32H32V64H64V32Z" fill="white"/>
</mask>
<g mask="url(#mask0_85_68682)">
<path d="M48 64C56.8365 64 64 56.8365 64 48C64 39.1635 56.8365 32 48 32C39.1635 32 32 39.1635 32 48C32 56.8365 39.1635 64 48 64Z" fill="#8247E5"/>
<path fill-rule="evenodd" clip-rule="evenodd" d="M42.9014 39.2816C42.7955 39.3209 41.686 39.9225 40.4354 40.6189C38.8274 41.5142 38.1151 41.927 38.0015 42.0301C37.91 42.1129 37.8012 42.2544 37.7484 42.3584L37.6562 42.5408V45.3686V48.1971L37.7474 48.3773C37.9209 48.7197 37.9766 48.7555 40.4806 50.1478C41.759 50.8585 42.8687 51.4592 42.9465 51.4825C43.1564 51.5456 43.5458 51.5369 43.7522 51.4643C43.9167 51.4067 45.4652 50.5517 47.7343 49.2656C50.2508 47.8393 52.1091 46.8115 52.2623 46.7603C52.3878 46.7187 52.4982 46.7085 52.7142 46.7177C53.0732 46.7337 53.0713 46.7328 54.5852 47.5766C55.8454 48.279 55.9954 48.3862 56.165 48.7056C56.2172 48.8041 56.2754 48.968 56.294 49.0697C56.3401 49.3209 56.3398 51.8557 56.2937 52.1053C56.2454 52.368 56.1238 52.5961 55.9398 52.7693C55.7356 52.9616 53.2467 54.3897 53.0073 54.4518C52.7903 54.5081 52.5014 54.5049 52.2947 54.4435C52.2012 54.416 51.5497 54.0749 50.8466 53.6857C49.4354 52.9046 49.2975 52.8057 49.1225 52.447L49.031 52.2595L49.0156 51.2528L48.9999 50.2457L47.9926 50.815L46.9852 51.3843L46.9849 52.2813C46.9846 52.8275 46.998 53.2429 47.0194 53.344C47.0825 53.6409 47.229 53.8765 47.453 54.0397C47.7196 54.2342 52.1775 56.6921 52.3398 56.7341C52.5826 56.7971 52.9059 56.7849 53.1295 56.704C53.2355 56.6656 54.3455 56.0649 55.5964 55.3689C58.0761 53.9888 58.1017 53.9718 58.285 53.5987L58.375 53.4157V50.6032V47.7907L58.2835 47.6105C58.1113 47.2704 58.0514 47.2313 55.5388 45.8256C54.254 45.1069 53.1359 44.4979 53.0543 44.4723C52.8425 44.4061 52.4739 44.4083 52.2655 44.4771C52.1708 44.5085 51.4115 44.9235 50.5779 45.4C49.7443 45.8761 48.5631 46.5405 47.9529 46.8758C47.343 47.2115 46.1775 47.8672 45.3634 48.3334C44.5494 48.7997 43.8121 49.2022 43.725 49.2281C43.5033 49.2937 43.127 49.2886 42.919 49.2166C42.7314 49.152 40.3663 47.8304 40.1343 47.6608C39.9583 47.5321 39.7529 47.2352 39.6876 47.0163C39.6159 46.7747 39.6182 43.9571 39.6902 43.7104C39.751 43.5027 39.8876 43.2819 40.0415 43.1427C40.2044 42.9958 42.7247 41.6009 42.942 41.5379C43.134 41.4822 43.495 41.4896 43.7065 41.5539C43.7686 41.5728 44.4015 41.9113 45.1129 42.3062C46.3014 42.9664 46.4217 43.0406 46.598 43.2243C46.9235 43.5638 46.9337 43.608 46.9526 44.7622L46.9686 45.7337L47.9622 45.1715L48.9555 44.6089L48.9465 43.5897L48.9372 42.5705L48.8348 42.3622C48.7705 42.2317 48.6761 42.104 48.5814 42.0192C48.4425 41.895 44.1071 39.4128 43.8066 39.2854C43.7356 39.2553 43.5676 39.2297 43.3906 39.2224C43.1385 39.2121 43.0646 39.2211 42.9014 39.2816Z" fill="white"/>
</g>
</svg>
