<svg width="64" height="64" viewBox="0 0 64 64" fill="none" xmlns="http://www.w3.org/2000/svg">
<g clip-path="url(#clip0_85_69053)">
<path d="M0 30.4762C0 47.3077 14.3269 60.9524 32 60.9524C49.6731 60.9524 64 47.3077 64 30.4762C64 13.6447 49.6731 0 32 0C14.3269 0 0 13.6447 0 30.4762Z" fill="white"/>
<path fill-rule="evenodd" clip-rule="evenodd" d="M52.1385 12.9748L50.3853 14.6484C59.0563 23.7004 59.0563 37.5735 50.3853 46.6252L52.1385 48.299C61.7888 38.3113 61.7888 22.9238 52.1385 12.9358V12.9748Z" fill="#2C253A"/>
<path fill-rule="evenodd" clip-rule="evenodd" d="M15.2623 13.1201C24.7449 4.84245 39.2781 4.84245 48.7606 13.1201L50.5139 11.4465C40.0505 2.23442 23.9314 2.23442 13.4681 11.4465L15.2623 13.1201Z" fill="#2C253A"/>
<path fill-rule="evenodd" clip-rule="evenodd" d="M13.6261 46.642C4.96569 37.5924 4.96569 23.7317 13.6261 14.682L11.8728 13.0084C2.22248 22.9964 2.22248 38.3835 11.8728 48.3715L13.6261 46.642Z" fill="#2C253A"/>
<path fill-rule="evenodd" clip-rule="evenodd" d="M48.7431 48.1871C39.2605 56.4648 24.7274 56.4648 15.2448 48.1871L13.4916 49.8609C23.9548 59.0729 40.0739 59.0729 50.5373 49.8609L48.7431 48.1871Z" fill="#2C253A"/>
<path fill-rule="evenodd" clip-rule="evenodd" d="M31.9939 2.55954C15.7461 2.56902 2.5823 15.1494 2.59223 30.6593C2.60217 46.169 15.7812 58.7349 32.0288 58.7255C48.2656 58.7166 61.424 46.1522 61.4307 30.6536C61.4112 15.1461 48.2393 2.58241 31.9939 2.57627V2.55954ZM31.9939 61.1355C14.3617 61.1325 0.0699197 47.4856 0.0734259 30.6536C0.0769325 13.8217 14.3733 0.179683 32.0054 0.18303C49.6336 0.186377 63.9232 13.8262 63.9261 30.6536C63.9069 47.4807 49.6214 61.1169 31.9939 61.1355Z" fill="#2C253A"/>
<path fill-rule="evenodd" clip-rule="evenodd" d="M37.3127 26.3973C37.3127 29.7445 31.831 29.3372 30.0895 29.3372V23.4406C31.831 23.4406 37.3127 22.9162 37.3127 26.3973ZM38.7447 35.5517C38.7447 39.2116 32.1757 38.7931 30.0836 38.7931V32.2996C32.1757 32.3051 38.7447 31.7306 38.7447 35.5517ZM43.0691 25.0751C42.7184 21.5829 39.5626 20.4114 35.5712 20.0543V15.24H32.4855V19.9595C31.6732 19.9595 30.8434 19.9595 30.0193 19.9874V15.24H26.9512V20.0822H20.698V23.2342C20.698 23.2342 22.9772 23.1951 22.9421 23.2342C23.7965 23.1444 24.5714 23.7167 24.6954 24.5284V37.789C24.6579 38.364 24.1396 38.8008 23.537 38.7657L23.5265 38.7651C23.5674 38.7986 21.2824 38.7651 21.2824 38.7651L20.6688 42.2854H26.8986V47.2058H29.9843V42.3579H32.4506V47.1832H35.5421V42.3186C40.7549 42.0175 44.3901 40.7903 44.8458 36.132C45.2141 32.3831 43.3674 30.7096 40.416 30.0346C42.2103 29.1643 43.3379 27.6301 43.0691 25.0751Z" fill="#EBAA60"/>
<g clip-path="url(#clip1_85_69053)">
<path d="M51.457 46.6615L53.8069 42.6742L60.141 52.5397L60.144 54.4325L60.1232 41.4042C60.1159 41.247 60.0707 41.094 59.9919 40.9579C59.9128 40.8219 59.8023 40.7068 59.6695 40.6225L48.2658 34.0633C48.1295 33.9986 47.9805 33.9653 47.8296 33.966C47.6788 33.9667 47.53 34.0014 47.3944 34.0674C47.3592 34.085 47.3251 34.1048 47.2923 34.1265L47.2526 34.1516L36.1832 40.5659L36.1401 40.5853C36.0827 40.6119 36.028 40.6438 35.9766 40.6806C35.769 40.8289 35.6275 41.0523 35.5823 41.3034C35.5754 41.3415 35.5707 41.3799 35.5682 41.4186L35.5855 52.0352L41.4854 42.8908C42.2281 41.6783 43.8465 41.2877 45.3489 41.3089L47.1121 41.3545L36.7225 58.0162L37.9473 58.7213L48.4615 41.3711L53.1087 41.3542L42.6217 59.1414L46.9924 61.6568L47.5146 61.9571C47.7399 62.0467 47.9899 62.0515 48.2186 61.971L59.7826 55.2696L57.5706 56.5507L51.457 46.6615ZM52.3536 59.5747L47.9397 52.647L50.6339 48.075L56.4307 57.2118L52.3536 59.5747Z" fill="#2D374B"/>
<path d="M47.9396 52.647L52.3536 59.5746L56.431 57.2115L50.6344 48.075L47.9396 52.647Z" fill="#28A0F0"/>
<path d="M60.1446 54.4326L60.1416 52.5398L53.8075 42.6744L51.4563 46.6612L57.571 56.5504L59.783 55.2693C59.8901 55.1826 59.9776 55.0741 60.04 54.9512C60.1024 54.8282 60.1381 54.6934 60.1448 54.5558L60.1446 54.4326Z" fill="#28A0F0"/>
<path d="M33.6012 56.2182L36.7233 58.0171L47.1129 41.3556L45.3497 41.3099C43.8473 41.2887 42.2289 41.6791 41.4862 42.8919L35.5863 52.0363L33.6023 55.0859L33.6012 56.2182Z" fill="white"/>
<path d="M53.1091 41.3553L48.4621 41.3722L37.9481 58.7222L41.623 60.8382L42.6222 59.1432L53.1091 41.3553Z" fill="white"/>
<path d="M62.1022 41.3314C62.0809 40.8519 61.9433 40.3846 61.7013 39.9701C61.4592 39.5555 61.12 39.2061 60.7128 38.9518L49.1597 32.3081C48.7473 32.1054 48.2939 32 47.8343 32C47.3748 32 46.9214 32.1054 46.509 32.3081C46.4125 32.3566 35.2738 38.8168 35.2738 38.8168C35.119 38.8911 34.971 38.9787 34.8314 39.0786C34.4697 39.3358 34.171 39.6716 33.9577 40.0608C33.7445 40.45 33.6221 40.8825 33.6 41.3257V55.0853L35.5839 52.0357L35.5687 41.4195C35.5779 41.2739 35.6194 41.1322 35.69 41.0046C35.7606 40.877 35.8587 40.7667 35.9771 40.6815C36.0295 40.6439 47.3584 34.0863 47.3944 34.0683C47.5301 34.0023 47.6788 33.9676 47.8297 33.9669C47.9805 33.9662 48.1296 33.9995 48.2657 34.0642L59.6694 40.6238C59.8022 40.7082 59.9128 40.8232 59.9918 40.9593C60.0709 41.0953 60.1158 41.2484 60.1233 41.4056V54.5571C60.1205 54.6936 60.0886 54.8277 60.0299 54.9507C59.9712 55.0738 59.8867 55.1829 59.7824 55.2707L57.5704 56.5518L56.4302 57.2131L52.3528 59.5762L48.2177 61.9726C47.9891 62.0533 47.739 62.0483 47.5137 61.9587L42.6215 59.145L41.6222 60.8397L46.0189 63.371C46.1644 63.4536 46.2939 63.527 46.4002 63.5867C46.5648 63.6779 46.677 63.7406 46.7165 63.7598C47.0843 63.921 47.482 64.0029 47.8836 64C48.252 64.0005 48.6171 63.9318 48.96 63.7974L60.9702 56.8421C61.3091 56.5786 61.5861 56.2438 61.7814 55.8618C61.9769 55.4795 62.0864 55.0592 62.1017 54.6301L62.1022 41.3314Z" fill="#96BEDC"/>
</g>
</g>
<defs>
<clipPath id="clip0_85_69053">
<rect width="64" height="64" fill="white"/>
</clipPath>
<clipPath id="clip1_85_69053">
<rect width="32" height="32" fill="white" transform="translate(32 32)"/>
</clipPath>
</defs>
</svg>
