<svg width="64" height="64" viewBox="0 0 64 64" fill="none" xmlns="http://www.w3.org/2000/svg">
<g clip-path="url(#clip0_85_69068)">
<path d="M0 30.4762C0 47.3077 14.3269 60.9524 32 60.9524C49.6731 60.9524 64 47.3077 64 30.4762C64 13.6447 49.6731 0 32 0C14.3269 0 0 13.6447 0 30.4762Z" fill="white"/>
<path fill-rule="evenodd" clip-rule="evenodd" d="M52.1385 12.9748L50.3853 14.6484C59.0563 23.7003 59.0563 37.5735 50.3853 46.6252L52.1385 48.299C61.7888 38.3113 61.7888 22.9238 52.1385 12.9358V12.9748Z" fill="#2C253A"/>
<path fill-rule="evenodd" clip-rule="evenodd" d="M15.2623 13.1201C24.7449 4.84247 39.2781 4.84247 48.7606 13.1201L50.5139 11.4465C40.0505 2.23443 23.9314 2.23443 13.4681 11.4465L15.2623 13.1201Z" fill="#2C253A"/>
<path fill-rule="evenodd" clip-rule="evenodd" d="M13.6261 46.642C4.96569 37.5924 4.96569 23.7317 13.6261 14.682L11.8728 13.0084C2.22248 22.9964 2.22248 38.3835 11.8728 48.3715L13.6261 46.642Z" fill="#2C253A"/>
<path fill-rule="evenodd" clip-rule="evenodd" d="M48.7431 48.1871C39.2605 56.4648 24.7274 56.4648 15.2448 48.1871L13.4916 49.8609C23.9548 59.0729 40.0739 59.0729 50.5373 49.8609L48.7431 48.1871Z" fill="#2C253A"/>
<path fill-rule="evenodd" clip-rule="evenodd" d="M31.9939 2.55955C15.7461 2.56904 2.5823 15.1494 2.59223 30.6594C2.60217 46.169 15.7812 58.7349 32.0288 58.7255C48.2656 58.7167 61.424 46.1522 61.4307 30.6536C61.4112 15.1461 48.2393 2.58242 31.9939 2.57629V2.55955ZM31.9939 61.1355C14.3617 61.1325 0.0699197 47.4856 0.0734259 30.6536C0.0769325 13.8218 14.3733 0.179698 32.0054 0.183045C49.6336 0.186392 63.9232 13.8262 63.9261 30.6536C63.9069 47.4807 49.6214 61.117 31.9939 61.1355Z" fill="#2C253A"/>
<path fill-rule="evenodd" clip-rule="evenodd" d="M37.3127 26.3973C37.3127 29.7445 31.831 29.3372 30.0895 29.3372V23.4406C31.831 23.4406 37.3127 22.9162 37.3127 26.3973ZM38.7447 35.5517C38.7447 39.2116 32.1757 38.7931 30.0836 38.7931V32.2996C32.1757 32.3051 38.7447 31.7306 38.7447 35.5517ZM43.0691 25.0751C42.7184 21.5829 39.5626 20.4114 35.5712 20.0543V15.24H32.4855V19.9595C31.6732 19.9595 30.8434 19.9595 30.0193 19.9874V15.24H26.9512V20.0822H20.698V23.2342C20.698 23.2342 22.9772 23.1951 22.9421 23.2342C23.7965 23.1444 24.5714 23.7167 24.6954 24.5284V37.789C24.6579 38.364 24.1396 38.8008 23.537 38.7657L23.5265 38.7651C23.5674 38.7986 21.2824 38.7651 21.2824 38.7651L20.6688 42.2854H26.8986V47.2058H29.9843V42.3579H32.4506V47.1832H35.5421V42.3186C40.7549 42.0175 44.3901 40.7903 44.8458 36.132C45.2141 32.3831 43.3674 30.7096 40.416 30.0346C42.2103 29.1643 43.3379 27.6301 43.0691 25.0751Z" fill="#EBAA60"/>
<path d="M50.8278 32L50.613 32.7292V53.8883L50.8278 54.1025L60.6554 48.2969L50.8278 32Z" fill="#343434"/>
<path d="M50.8278 32L41 48.2969L50.8278 54.1025V43.8325V32Z" fill="#8C8C8C"/>
<path d="M50.8278 55.9621L50.7067 56.1096V63.6468L50.8278 64L60.6614 50.1594L50.8278 55.9621Z" fill="#3C3C3B"/>
<path d="M50.8278 64V55.9621L41 50.1594L50.8278 64Z" fill="#8C8C8C"/>
<path d="M50.8279 54.1025L60.6554 48.2969L50.8279 43.8325V54.1025Z" fill="#141414"/>
<path d="M41 48.2969L50.8278 54.1025V43.8325L41 48.2969Z" fill="#393939"/>
</g>
<defs>
<clipPath id="clip0_85_69068">
<rect width="64" height="64" fill="white"/>
</clipPath>
</defs>
</svg>
