<svg width="20" height="20" fill="none" xmlns="http://www.w3.org/2000/svg"><path d="M10 20c5.523 0 10-4.477 10-10S15.523 0 10 0 0 4.477 0 10s4.477 10 10 10z" fill="#F0F0F0"/><path d="M7.826 5.217h-6.61A10.023 10.023 0 017.39.344l.435 4.873zM12.609.344a10.023 10.023 0 016.175 4.873h-6.61l.435-4.873z" fill="#0052B4"/><path d="M0 10h7.826v4.783h-6.61A9.955 9.955 0 010 10zM12.174 14.783V10H20c0 1.732-.44 3.362-1.216 4.783h-6.61z" fill="#6DA544"/><path d="M5.649 3.004l-.27-.83-.27.83h-.873l.706.514-.27.83.707-.513.706.513-.27-.83.707-.514h-.873zM7.391 19.656a10.022 10.022 0 01-6.175-4.873h6.61v.611l-.435 4.262zM18.784 14.783a10.022 10.022 0 01-6.175 4.873l-.435-4.262v-.611h6.61z" fill="#FFDA44"/><path d="M10 0c-.903 0-1.777.12-2.609.344v19.312a10.01 10.01 0 002.61.344c.902 0 1.776-.12 2.608-.345V.346A10.011 10.011 0 0010 0z" fill="#D80027"/></svg>