<svg width="64" height="64" viewBox="0 0 64 64" fill="none" xmlns="http://www.w3.org/2000/svg">
<g clip-path="url(#clip0_85_69116)">
<mask id="mask0_85_69116" style="mask-type:luminance" maskUnits="userSpaceOnUse" x="0" y="0" width="64" height="64">
<path d="M64 0H0V64H64V0Z" fill="white"/>
</mask>
<g mask="url(#mask0_85_69116)">
<path fill-rule="evenodd" clip-rule="evenodd" d="M11.7269 3.48365L0.0523498 28.0011C0.00566607 28.09 -0.0104125 28.1917 0.00660633 28.2906C0.0236251 28.3895 0.0727907 28.48 0.146483 28.5481L31.6612 58.7616C31.7519 58.8435 31.8696 58.8886 31.9917 58.8886C32.1139 58.8886 32.2314 58.8435 32.3222 58.7616L63.8557 28.5481C63.9286 28.4796 63.9773 28.3891 63.9942 28.2904C64.0112 28.1917 63.9955 28.0902 63.9498 28.0011L52.2752 3.48365C52.2442 3.39837 52.1872 3.32505 52.112 3.27417C52.0368 3.22326 51.9475 3.19739 51.857 3.20022H12.1411C12.0516 3.20265 11.9647 3.23065 11.8906 3.28086C11.8164 3.33107 11.7582 3.40144 11.7228 3.48365H11.7269Z" fill="url(#paint0_linear_85_69116)"/>
<path fill-rule="evenodd" clip-rule="evenodd" d="M36.056 30.5092C35.8301 30.528 34.6608 30.6033 32.0573 30.6033C29.9833 30.6033 28.5117 30.5468 27.9835 30.5092C19.9686 30.1515 13.9902 28.7552 13.9902 27.0953C13.9902 25.4354 19.9686 24.0213 27.9835 23.6636V29.1139C28.5065 29.1515 30.0022 29.2457 32.0761 29.2457C34.5654 29.2457 35.8102 29.1327 36.0371 29.1139V23.6636C44.0333 24.0213 50.0118 25.4176 50.0118 27.0764C50.0118 28.7353 44.0499 30.1515 36.056 30.5092ZM36.056 23.1166V18.2311H47.2211V10.782H16.8194V18.2311H27.9835V23.1166C18.9123 23.535 12.0855 25.3224 12.0855 27.4917C12.0855 29.6609 18.9123 31.4338 27.9835 31.8668V47.5024H36.056V31.8668C45.1085 31.4484 51.9174 29.6599 51.9174 27.5105C51.9174 25.3611 45.1085 23.5298 36.056 23.1166Z" fill="white"/>
</g>
</g>
<defs>
<linearGradient id="paint0_linear_85_69116" x1="5.97079e-07" y1="52.8" x2="64.001" y2="-10.4" gradientUnits="userSpaceOnUse">
<stop stop-color="#D8B35D"/>
<stop offset="1" stop-color="#F5E7BF"/>
</linearGradient>
<clipPath id="clip0_85_69116">
<rect width="64" height="64" fill="white"/>
</clipPath>
</defs>
</svg>
