<svg width="41" height="40" viewBox="0 0 41 40" fill="none" xmlns="http://www.w3.org/2000/svg">
<g clip-path="url(#clip0_2_105)">
<path fill-rule="evenodd" clip-rule="evenodd" d="M40.0211 20C40.0211 17.4 39.5011 14.76 38.5011 12.36C37.5011 9.96 36.0211 7.72 34.1811 5.84C32.3011 4 30.1011 2.52 27.6611 1.52C25.2211 0.52 22.6211 0 20.0211 0C17.4211 0 14.7811 0.52 12.3811 1.52C9.98112 2.52 7.74112 4 5.86112 5.84C4.02112 7.72 2.54112 9.92 1.54112 12.36C0.541118 14.8 0.0211182 17.4 0.0211182 20C0.0211182 22.6 0.541118 25.24 1.54112 27.64C2.54112 30.04 4.02112 32.28 5.86112 34.16C7.70112 36 9.94112 37.48 12.3411 38.48C14.7411 39.48 17.4211 40 20.0211 40C22.6211 40 25.2611 39.48 27.6611 38.48C30.0611 37.48 32.3011 36 34.1811 34.16C36.0211 32.32 37.5011 30.08 38.5011 27.68C39.5011 25.28 40.0211 22.6 40.0211 20Z" fill="url(#paint0_linear_2_105)"/>
<path fill-rule="evenodd" clip-rule="evenodd" d="M18.9811 10.96H21.0611V29.04H18.9811V10.96Z" fill="white"/>
<path fill-rule="evenodd" clip-rule="evenodd" d="M17.8211 19.48V17.32C16.1811 16.52 15.0211 14.8 15.0211 12.84C15.0211 10.08 17.2611 7.84 20.0211 7.84C23.1411 7.84 25.3811 10.08 25.3811 12.84C25.3811 13.52 25.2211 14.2 24.9011 15L24.0211 12.12L22.2611 12.68L23.8211 18.64L29.9011 16.4L29.1411 14.64L26.8611 15.4C27.2611 14.52 27.3411 13.84 27.3411 12.8C27.3411 8.92 24.2211 5.8 19.9811 5.8C16.1011 5.8 12.9811 8.92 12.9811 12.8C13.0211 15.92 15.0211 18.56 17.8211 19.48Z" fill="white"/>
<path fill-rule="evenodd" clip-rule="evenodd" d="M22.2211 20.52V22.68C23.8611 23.48 25.0211 25.2 25.0211 27.16C25.0211 29.92 22.7811 32.16 20.0211 32.16C16.9011 32.16 14.6611 29.92 14.6611 27.16C14.6611 26.48 14.8211 25.8 15.1411 25L16.0211 27.88L17.7811 27.32L16.2211 21.36L10.1411 23.6L10.9011 25.36L13.1811 24.6C12.7811 25.48 12.7011 26.16 12.7011 27.2C12.7011 31.08 15.8211 34.2 20.0611 34.2C23.9411 34.2 27.0611 31.08 27.0611 27.2C27.0211 24.08 25.0211 21.44 22.2211 20.52Z" fill="white"/>
</g>
<defs>
<linearGradient id="paint0_linear_2_105" x1="0.0211182" y1="0" x2="40.0211" y2="40" gradientUnits="userSpaceOnUse">
<stop stop-color="#0077FC"/>
<stop offset="1" stop-color="#095EB5"/>
</linearGradient>
<clipPath id="clip0_2_105">
<rect width="40" height="40" fill="white" transform="translate(0.0211182)"/>
</clipPath>
</defs>
</svg>
