<svg width="20" height="20" viewBox="0 0 20 20" fill="none" xmlns="http://www.w3.org/2000/svg">
<g clip-path="url(#clip0_6129_51922)">
<path d="M10.0025 19.9944C15.5175 19.9944 19.9884 15.5235 19.9884 10.0085C19.9884 4.49344 15.5175 0.0226135 10.0025 0.0226135C4.48743 0.0226135 0.0166016 4.49344 0.0166016 10.0085C0.0166016 15.5235 4.48743 19.9944 10.0025 19.9944Z" fill="#E8307A"/>
<path d="M5.71777 10.5904V9.55933H14.7347V10.5904H5.71777Z" fill="white"/>
<path d="M9.95799 11.178H8.88171C8.27437 12.4181 6.77437 12.9294 5.53708 12.3192C4.68115 11.8983 4.13878 11.0283 4.13878 10.0763C4.13878 8.52543 5.25742 7.40678 6.63878 7.40678C6.98623 7.40678 7.31674 7.4774 7.71222 7.64972L6.28002 8.0904L6.55686 8.97458L9.53991 8.19209L8.42126 5.14972L7.54838 5.51978L7.93539 6.65254C7.48906 6.44633 7.1642 6.40678 6.63878 6.40678C4.70657 6.40678 3.1416 7.97175 3.1416 10.0763C3.1416 12.0085 4.7094 13.5763 6.6416 13.5763C8.14725 13.5734 9.48341 12.6102 9.95799 11.178Z" fill="white"/>
<path d="M10.4912 8.97457H11.5703C12.1777 7.73446 13.6748 7.22316 14.9149 7.83333C15.7709 8.25423 16.3132 9.12429 16.3132 10.0763C16.3132 11.6271 15.1946 12.7458 13.8132 12.7458C13.4658 12.7458 13.1353 12.6751 12.7398 12.5028L14.172 12.0621L13.8952 11.178L10.9149 11.9604L12.0336 15L12.9036 14.6299L12.5166 13.4972C12.963 13.7034 13.2878 13.7429 13.8132 13.7429C15.7454 13.7429 17.3104 12.1751 17.3104 10.0734C17.3104 8.14124 15.7426 6.57344 13.8104 6.57627C12.3048 6.57909 10.9658 7.54237 10.4912 8.97457Z" fill="white"/>
</g>
<defs>
<clipPath id="clip0_6129_51922">
<rect width="20" height="20" fill="white"/>
</clipPath>
</defs>
</svg>
