<svg width="64" height="64" viewBox="0 0 64 64" fill="none" xmlns="http://www.w3.org/2000/svg">
<g clip-path="url(#clip0_85_69142)">
<path d="M47.1457 18.5975C44.1243 18.9395 41.5274 20.0575 39.3828 21.9353C39.118 22.1687 38.9086 22.3804 38.9141 22.4129C38.925 22.4455 38.8754 22.5052 38.8038 22.5378C38.7376 22.5758 37.4311 23.8241 35.9036 25.3111L33.1248 28.0248L30.473 25.4197C28.2786 23.265 27.7604 22.7874 27.4626 22.6246C26.2772 21.9842 24.932 22.1959 23.934 23.1836C23.4985 23.6124 23.2228 24.0683 23.1125 24.5405C23.0298 24.8932 23.0408 25.5554 23.1346 25.9136C23.3275 26.6462 23.4323 26.7765 25.3014 28.6218L27.0491 30.3477H21.464H15.8733L16.0277 30.1686C16.1104 30.0763 16.9981 29.0343 17.996 27.8565C18.994 26.6842 19.9092 25.6368 20.025 25.5337C20.1408 25.4305 20.3172 25.1809 20.4164 24.9855C20.5763 24.6653 20.5984 24.573 20.5984 24.1605C20.5984 23.7481 20.5818 23.6558 20.4164 23.3356C20.1959 22.8905 19.8044 22.5269 19.3799 22.3695C19.0767 22.261 18.994 22.261 11.8982 22.2447L4.71964 22.2338L4.40536 22.3587C3.99185 22.5215 3.59488 22.8797 3.36332 23.303C3.18689 23.6232 3.17586 23.6775 3.17586 24.1605C3.17586 24.611 3.1924 24.7141 3.32472 24.9801C3.5618 25.4468 3.95877 25.805 4.47152 26.0113C4.63141 26.0764 5.48048 26.0927 9.3344 26.1144L14.0043 26.1415L12.2731 28.1876L10.5363 30.2391H7.47636H4.41639V31.9759V33.7126H5.96014C6.80924 33.7126 7.50391 33.7289 7.50391 33.7452C7.50391 33.7994 3.46808 38.5103 3.17035 38.798C2.15036 39.7913 2.42603 41.3489 3.7272 41.9459L4.05801 42.0977H12.2455H20.433L20.8024 41.9243C21.2379 41.7233 21.5577 41.414 21.7672 40.9961C21.8996 40.7246 21.9216 40.6217 21.9216 40.1984C21.9216 39.7532 21.9051 39.6719 21.7397 39.3461C21.5357 38.9282 21.2435 38.6516 20.7913 38.4398L20.4881 38.2988L14.8258 38.2823C11.7052 38.2769 9.15795 38.2553 9.15795 38.2445C9.15795 38.1956 12.8685 33.8646 12.9292 33.8429C12.9622 33.832 16.1821 33.8266 20.0911 33.832L27.187 33.8483L25.4281 35.6231C24.4578 36.5999 23.6032 37.5062 23.526 37.6313C23.1566 38.2553 23.0078 38.9555 23.107 39.5903C23.2889 40.7681 24.353 41.8427 25.577 42.0761C26.2552 42.2009 27.0546 42.0545 27.617 41.6963C27.7549 41.6093 29.0505 40.3883 30.5005 38.9825C31.9451 37.577 33.158 36.4262 33.1855 36.4262C33.2187 36.4262 34.4152 37.5986 35.854 39.0368L38.4621 41.6474L40.7777 43.1723C42.0513 44.0084 43.1265 44.7248 43.1594 44.7626C43.3026 44.9039 44.455 45.2783 45.464 45.5171C48.4303 46.2116 51.843 45.8102 54.6441 44.4371C56.0444 43.7477 57.0203 43.0748 58.1174 42.0326C59.1649 41.0396 59.9423 40.0517 60.6701 38.7818C61.9053 36.6272 62.5557 33.794 62.3682 31.3517C62.0982 27.8402 60.6756 24.7955 58.1945 22.4238C55.9893 20.318 53.3759 19.0643 50.3545 18.6572C49.4448 18.5324 47.9728 18.5053 47.1457 18.5975ZM49.34 24.4319C52.0582 24.7196 54.3737 26.2989 55.6089 28.7032C56.9651 31.3517 56.6564 34.5647 54.8205 36.9419C54.396 37.49 53.5798 38.2391 52.9679 38.6405C51.0436 39.9107 48.8438 40.2959 46.5999 39.764C45.6737 39.5417 44.615 39.0476 43.6998 38.4074C43.5178 38.2769 42.5862 37.3979 41.6322 36.4481C40.6783 35.4929 39.3276 34.1468 38.6273 33.4521L37.3592 32.1929L39.2063 30.3585C40.2209 29.3545 41.5384 28.0465 42.1284 27.4549C43.6226 25.957 44.4056 25.3925 45.6295 24.9258C46.8147 24.4699 48.0883 24.3017 49.34 24.4319Z" fill="#151515"/>
<path d="M38.9525 33.0031L38.68 33.5035C38.6624 33.486 38.6453 33.4689 38.6282 33.4521L37.3601 32.193L41.7853 27.7967L40.8679 29.4828C40.4745 29.8733 40.0682 30.276 39.6967 30.6435L39.2073 30.3585L39.5989 30.7406L38.1363 32.1929L38.9525 33.0031Z" fill="url(#paint0_linear_85_69142)"/>
<path d="M46.0205 24.7871L45.9242 25.3961C45.8931 25.4077 45.8621 25.4194 45.831 25.4313C44.7116 25.8582 43.992 26.3622 42.5228 27.8351C42.1629 28.1959 41.5338 28.8218 40.8679 29.4828L41.7853 27.7967L42.1293 27.4549C43.6236 25.957 44.4062 25.3925 45.6304 24.9258C45.7593 24.8761 45.8895 24.8299 46.0205 24.7871Z" fill="url(#paint1_linear_85_69142)"/>
<path d="M54.8127 27.45L54.489 27.931C53.2663 26.2673 51.4079 25.1965 49.2825 24.9715C48.1518 24.854 47.001 24.9984 45.9243 25.3961L46.0206 24.7871C47.0928 24.4368 48.2256 24.3158 49.341 24.4319C51.5536 24.666 53.4992 25.7559 54.8127 27.45Z" fill="url(#paint2_linear_85_69142)"/>
<path d="M43.808 37.78C43.8631 37.8298 43.9098 37.8712 43.9473 37.9036L43.8516 38.5105C43.8007 38.4766 43.7504 38.4421 43.7007 38.4073C43.5188 38.2768 42.5868 37.3978 41.6332 36.448C40.7025 35.5159 39.3935 34.2115 38.6801 33.5035L38.9525 33.0031L39.0196 33.0698C39.7205 33.765 41.0715 35.1112 42.026 36.067C42.4996 36.5386 42.9674 36.9925 43.3383 37.3435C43.5242 37.5193 43.6842 37.6681 43.808 37.78Z" fill="url(#paint3_linear_85_69142)"/>
<path d="M46.7306 39.2366C46.7739 39.2468 46.8169 39.2567 46.8599 39.2663L46.5356 39.7481C45.6759 39.5312 44.7092 39.086 43.8516 38.5106L43.9473 37.9037L43.9549 37.9103L43.9607 37.9154C43.9805 37.9322 43.9963 37.9454 44.0085 37.9553C44.0146 37.9601 44.0216 37.9658 44.0216 37.9658L44.0244 37.9679C44.8908 38.5733 45.8843 39.0332 46.7306 39.2366Z" fill="url(#paint4_linear_85_69142)"/>
<path fill-rule="evenodd" clip-rule="evenodd" d="M52.6623 38.1893C50.9035 39.35 48.9085 39.7178 46.8599 39.2663L46.5356 39.7481C46.5573 39.7535 46.5792 39.7589 46.6009 39.764C48.8448 40.2959 51.0446 39.9107 52.9689 38.6405C53.5808 38.2391 54.3967 37.49 54.8212 36.9419C56.6574 34.5647 56.9661 31.3517 55.6096 28.7032C55.3801 28.2559 55.1129 27.8372 54.8127 27.45L54.489 27.931C54.7225 28.2488 54.9327 28.5882 55.1174 28.9476C56.2563 32.1283 55.3893 34.6889 54.3827 36.6131C53.9968 37.1114 53.2258 37.8197 52.6623 38.1893Z" fill="url(#paint5_linear_85_69142)"/>
<path d="M42.7986 45.1724C42.7937 45.1688 42.787 45.1643 42.7785 45.158C42.7474 45.1361 42.701 45.1037 42.6392 45.0617C42.5161 44.9777 42.3408 44.8598 42.1254 44.7161C41.6947 44.4287 41.1087 44.0414 40.4726 43.6241L38.1092 42.0674L35.462 39.4178L42.7986 45.1724Z" fill="url(#paint6_linear_85_69142)"/>
<path fill-rule="evenodd" clip-rule="evenodd" d="M47.0836 18.0583L46.7648 18.6452C43.9058 19.0356 41.4376 20.137 39.3838 21.9353C39.1189 22.1687 38.9096 22.3804 38.915 22.4129C38.926 22.4455 38.8763 22.5052 38.8047 22.5378C38.7386 22.5757 37.4318 23.824 35.9046 25.3111L33.1258 28.0248L30.4739 25.4197C28.2796 23.265 27.7613 22.7874 27.4636 22.6246C26.2782 21.9842 24.9329 22.1958 23.9349 23.1836C23.4994 23.6124 23.2237 24.0682 23.1134 24.5404C23.0307 24.8932 23.0418 25.5553 23.1355 25.9135C23.3285 26.6462 23.4332 26.7765 25.3023 28.6218L27.0501 30.3476H15.8743L16.0286 30.1685C16.0556 30.1385 16.1677 30.008 16.3411 29.8049C16.7006 29.3839 17.3237 28.6511 17.997 27.8565C18.9949 26.6842 19.9101 25.6367 20.0259 25.5336C20.1417 25.4305 20.3181 25.1809 20.4174 24.9855C20.5772 24.6652 20.5993 24.573 20.5993 24.1605C20.5993 23.7481 20.5828 23.6558 20.4174 23.3356C20.1968 22.8905 19.8054 22.5269 19.3808 22.3695C19.0781 22.2612 18.9952 22.261 11.9364 22.2448L4.72055 22.2338L4.40629 22.3587C3.99278 22.5215 3.59581 22.8797 3.36425 23.303C3.18782 23.6232 3.17679 23.6775 3.17679 24.1605C3.17679 24.611 3.19333 24.7141 3.32565 24.98C3.56273 25.4468 3.9597 25.805 4.47245 26.0112C4.63235 26.0764 5.48142 26.0926 9.33531 26.1143L14.0052 26.1415L10.5372 30.2391H4.41731V33.7126H5.96108C6.28023 33.7126 6.57758 33.7149 6.82444 33.7186C6.86936 33.7193 6.91264 33.72 6.95406 33.7208C7.29036 33.7271 7.50485 33.7361 7.50485 33.7451C7.50485 33.7549 7.37563 33.9137 7.16169 34.1696C7.13591 34.2004 7.10888 34.2327 7.08069 34.2663C6.0366 35.5108 3.4093 38.5682 3.17127 38.798C2.15128 39.7913 2.42696 41.3488 3.72813 41.9458L4.05894 42.0976H20.4339L20.8033 41.9243C21.2389 41.7233 21.5586 41.4139 21.7682 40.996C21.9005 40.7245 21.9225 40.6216 21.9225 40.1983C21.9225 39.7531 21.906 39.6718 21.7406 39.346C21.5366 38.9281 21.2444 38.6516 20.7923 38.4398L20.489 38.2988L14.8267 38.2822C12.6866 38.2786 10.8162 38.2672 9.85204 38.257C9.8023 38.2564 9.75494 38.2558 9.71011 38.2555C9.35689 38.2513 9.15889 38.2474 9.15889 38.2444C9.15889 38.2351 9.28899 38.0758 9.50089 37.8229C9.53058 37.7875 9.56184 37.75 9.59461 37.7113C10.5768 36.5428 12.8824 33.8599 12.9301 33.8429C12.9632 33.832 16.183 33.8266 20.0921 33.832L27.1879 33.8483L25.4291 35.6231C24.4587 36.5999 23.6041 37.5061 23.5269 37.6312C23.1575 38.2552 23.0087 38.9554 23.1079 39.5902C23.2899 40.768 24.354 41.8427 25.578 42.0761C26.2561 42.2009 27.0556 42.0544 27.6179 41.6962C27.7558 41.6092 29.0514 40.3882 30.5015 38.9824L33.1864 36.4261L35.7339 38.9182L35.4621 39.4177C34.7438 38.6995 34.0861 38.0479 33.6049 37.5769C33.4418 37.4176 33.2998 37.2793 33.1828 37.1665C33.0648 37.2769 32.9219 37.412 32.7586 37.5677C32.2731 38.0294 31.6101 38.6668 30.8891 39.3685C30.1627 40.0726 29.4735 40.732 28.9487 41.2261C28.6865 41.473 28.4637 41.68 28.2968 41.8318C28.2136 41.9074 28.1421 41.9713 28.0856 42.0202C28.0436 42.0565 27.9764 42.1144 27.9174 42.1519C27.2309 42.589 26.2868 42.7585 25.4766 42.6094L25.4731 42.6088C24.0282 42.3334 22.7816 41.0845 22.563 39.6727C22.4423 38.9005 22.6256 38.0758 23.0505 37.3579L23.0532 37.3534L23.056 37.3489C23.09 37.2937 23.138 37.2364 23.1672 37.2019C23.2051 37.1569 23.2529 37.1029 23.3078 37.042C23.4181 36.9196 23.5658 36.7603 23.7396 36.5767C24.0875 36.2089 24.5467 35.735 25.0345 35.2439L25.8828 34.388L20.0913 34.3747C18.1374 34.372 16.3554 34.372 15.0585 34.374C14.4098 34.375 13.8829 34.3766 13.5164 34.3785C13.3798 34.3792 13.2661 34.38 13.1769 34.3809L13.1654 34.3937C13.0602 34.5121 12.9119 34.6813 12.7341 34.8859C12.3789 35.2942 11.9103 35.8381 11.4432 36.3832C11.0369 36.8575 10.6324 37.3321 10.3052 37.7185C10.4649 37.72 10.6392 37.7212 10.8266 37.7227C11.8524 37.7302 13.2683 37.7368 14.8277 37.7395L20.6135 37.7563L21.0285 37.9492C21.5831 38.209 21.9725 38.5702 22.2356 39.1069C22.3192 39.2719 22.393 39.4267 22.4332 39.6163C22.4715 39.796 22.4739 39.9826 22.4739 40.1983C22.4739 40.4092 22.4694 40.5877 22.4364 40.7569C22.4007 40.9387 22.3376 41.0824 22.2652 41.2309L22.2626 41.2363C21.9978 41.7643 21.5866 42.1619 21.0392 42.4148L20.5588 42.6407H3.93662L3.49521 42.4379C1.84661 41.6813 1.49007 39.6715 2.78354 38.4121C2.78354 38.4121 2.7864 38.4094 2.78996 38.4055C2.79387 38.4016 2.79912 38.3963 2.80588 38.3891C2.81946 38.3747 2.83706 38.3557 2.85883 38.3317C2.90234 38.284 2.9591 38.2207 3.02775 38.1433C3.16488 37.9888 3.34562 37.7827 3.55526 37.5415C3.97432 37.06 4.50578 36.4435 5.02833 35.8339C5.51829 35.2624 5.99969 34.6978 6.37257 34.2566C6.24168 34.2558 6.10365 34.2553 5.96108 34.2553H3.86597V29.6964H10.279L12.8342 26.6774L9.33218 26.6571C7.40648 26.6462 6.22607 26.6367 5.50693 26.6217C5.14849 26.6142 4.89597 26.6052 4.71982 26.5932C4.63198 26.5873 4.55464 26.58 4.48837 26.5703C4.4302 26.5618 4.34613 26.547 4.2628 26.5132C3.63191 26.2591 3.13157 25.8115 2.83251 25.2228L2.83051 25.2188C2.75506 25.0671 2.6924 24.9221 2.65864 24.7338C2.62834 24.5648 2.62544 24.3804 2.62544 24.1605C2.62544 23.9342 2.6258 23.7382 2.66525 23.557C2.70855 23.3581 2.79247 23.2024 2.87927 23.0449C3.16645 22.5203 3.65728 22.0693 4.20078 21.855L4.61391 21.6909L11.8999 21.702L11.951 21.7021C15.4612 21.7101 17.2504 21.7142 18.1964 21.7298C19.1234 21.7451 19.3157 21.7687 19.5693 21.8595L19.5722 21.8605L19.5752 21.8616C20.1437 22.0724 20.6349 22.5393 20.9108 23.0934C20.9963 23.2592 21.0693 23.4141 21.1096 23.6004C21.1482 23.7786 21.1507 23.9593 21.1507 24.1605C21.1507 24.3661 21.1465 24.5455 21.1069 24.7237C21.066 24.9076 20.9938 25.0614 20.9122 25.2249L20.9105 25.2282C20.7947 25.4561 20.5815 25.7707 20.3958 25.9361C20.3973 25.9347 20.3982 25.934 20.3982 25.934C20.3983 25.9342 20.3854 25.9468 20.3525 25.982C20.3178 26.0193 20.2712 26.0704 20.2134 26.1347C20.0981 26.2631 19.9435 26.4382 19.7603 26.648C19.3942 27.067 18.9177 27.6199 18.4202 28.2044C17.9089 28.8077 17.4237 29.379 17.0609 29.8049H25.7219L24.9118 29.0049C23.9888 28.0937 23.4662 27.5724 23.1572 27.1863C22.8109 26.7534 22.7101 26.4609 22.6018 26.0497C22.5397 25.8126 22.5115 25.5092 22.507 25.2336C22.5026 24.9588 22.5206 24.6557 22.5762 24.4184C22.7148 23.8253 23.0543 23.2831 23.5446 22.8003C24.7052 21.652 26.3154 21.3852 27.7288 22.1488C27.9467 22.2679 28.2002 22.4764 28.6356 22.8802C29.0834 23.2955 29.7671 23.9591 30.8633 25.0354L33.127 27.2591L35.5163 24.9258C36.2807 24.1814 36.9911 23.4958 37.5183 22.9917C37.7819 22.7398 38.0008 22.5322 38.1586 22.3846C38.2373 22.311 38.3025 22.2508 38.3509 22.2069C38.375 22.1852 38.3976 22.1653 38.4168 22.1488C38.4238 22.1428 38.432 22.1359 38.4408 22.1288C38.4442 22.1227 38.4475 22.1174 38.4503 22.1129C38.475 22.0725 38.5018 22.0385 38.5195 22.0166C38.5579 21.9699 38.6051 21.9195 38.652 21.8719C38.7483 21.7739 38.877 21.6535 39.0156 21.5311C41.2501 19.5747 43.9564 18.4123 47.0836 18.0583ZM13.3076 34.2372C13.3078 34.237 13.3077 34.2371 13.3076 34.2372Z" fill="url(#paint7_linear_85_69142)"/>
<path d="M42.7986 45.1723L35.462 39.4177L35.7339 38.9182L35.8549 39.0367L38.4627 41.6473L40.7786 43.1722L42.8915 44.5831L42.7986 45.1723Z" fill="url(#paint8_linear_85_69142)"/>
<path d="M47.0842 18.0583L46.9961 18.6153C46.9187 18.6247 46.8416 18.6347 46.7648 18.6452L47.0842 18.0583Z" fill="url(#paint9_linear_85_69142)"/>
<path fill-rule="evenodd" clip-rule="evenodd" d="M42.7986 45.1723C42.8745 45.2389 42.9589 45.2836 43.0043 45.307C43.0713 45.3412 43.1481 45.3751 43.228 45.4078C43.3889 45.4735 43.5916 45.5455 43.8144 45.6181C44.2611 45.7642 44.8164 45.9217 45.336 46.0447C48.4315 46.7695 51.9774 46.351 54.8906 44.9227C56.3389 44.2099 57.3619 43.5049 58.5011 42.4231C59.5873 41.3932 60.3974 40.3636 61.1513 39.0484C62.439 36.8017 63.1149 33.862 62.919 31.3107C62.6389 27.6722 61.1608 24.502 58.5798 22.0344C56.2904 19.8486 53.5689 18.5424 50.4304 18.1196C49.4796 17.9892 47.9616 17.9604 47.0845 18.0583L46.9961 18.6153C47.0461 18.6091 47.0963 18.6032 47.1466 18.5975C49.1312 18.0149 56.2505 20.4222 58.1955 22.4238C60.6765 24.7955 62.0992 27.8402 62.3692 31.3517C62.5566 33.794 61.9059 36.6271 60.671 38.7817C59.9433 40.0516 59.1658 41.0395 58.1184 42.0325C57.0212 43.0747 56.0454 43.7476 54.645 44.437C51.8439 45.8101 48.4312 46.2115 45.4649 45.517C44.4559 45.2782 43.3036 44.9035 43.1603 44.7625L42.8915 44.5831L42.7986 45.1723Z" fill="url(#paint10_linear_85_69142)"/>
<path d="M2.21285 43.7527H2.81933C3.15565 43.7527 3.42581 43.7692 3.42581 43.7908C3.42581 43.807 3.13911 44.1706 2.79176 44.5939C2.42787 45.0391 2.15771 45.4135 2.15771 45.484C2.15771 45.598 2.17425 45.598 3.06744 45.598H3.97716V45.2779L2.66495 45.2452L3.29349 44.4745C3.72354 43.9483 3.92202 43.6606 3.92202 43.5628V43.4272H2.21285V43.7527Z" fill="#151515"/>
<path d="M4.8042 45.598H5.13499V43.4272H4.8042V45.598Z" fill="#151515"/>
<path d="M6.1825 45.598H7.616V45.2725H6.51331V43.4272H6.1825V45.598Z" fill="#151515"/>
<path d="M8.38794 45.598H9.87658V45.2725H8.71876V43.4272H8.38794V45.598Z" fill="#151515"/>
<path d="M10.6484 45.598H10.9792V43.4272H10.6484V45.598Z" fill="#151515"/>
<path d="M12.4955 43.5305C11.6299 43.9211 11.6574 45.1532 12.5341 45.5168C12.931 45.6797 13.4769 45.5873 13.7856 45.3104C14.2212 44.9198 14.2212 44.1056 13.7856 43.715C13.4659 43.4273 12.9035 43.3457 12.4955 43.5305ZM13.4548 43.856C13.5982 43.9319 13.7911 44.3066 13.7911 44.5127C13.7911 44.7515 13.5927 45.0935 13.4052 45.191C13.1791 45.305 12.8042 45.305 12.5782 45.191C12.3907 45.0935 12.1922 44.7515 12.1922 44.5127C12.1922 44.3066 12.3852 43.9319 12.5341 43.856C12.8208 43.7039 13.1571 43.7039 13.4548 43.856Z" fill="#151515"/>
<path d="M15.0042 45.598H15.3349V44.8654C15.3349 44.4637 15.3515 44.1328 15.3791 44.1328C15.4011 44.1328 15.6768 44.4637 15.9965 44.8654C16.4872 45.484 16.5975 45.5926 16.7298 45.598H16.8787V43.4272H16.4983L16.4652 44.9143L15.8642 44.1706C15.4011 43.6009 15.2302 43.4272 15.131 43.4272H15.0042V45.598Z" fill="#151515"/>
<path d="M19.5141 43.7908C19.4204 43.9969 19.1998 44.4856 19.0234 44.8762L18.7036 45.598H18.8911C19.062 45.598 19.0785 45.5764 19.1723 45.3268L19.2715 45.0553H20.3963L20.512 45.3268C20.6168 45.5656 20.6499 45.598 20.7932 45.598C20.887 45.598 20.9586 45.5818 20.9586 45.5656C20.9586 45.5437 20.7436 45.0553 20.4845 44.4802C20.0213 43.4596 20.0048 43.4272 19.8449 43.4272C19.7016 43.4272 19.6685 43.4596 19.5141 43.7908ZM20.071 44.29C20.1647 44.5072 20.2419 44.7079 20.2419 44.7352C20.2419 44.7622 20.0544 44.7841 19.8229 44.7841C19.5913 44.7841 19.4149 44.7622 19.4259 44.7406C19.4369 44.719 19.5251 44.4964 19.6299 44.2468C19.7347 44.0023 19.8339 43.8178 19.8559 43.8451C19.8835 43.8667 19.9772 44.0677 20.071 44.29Z" fill="#151515"/>
<path d="M22.0778 44.2033C21.8904 44.6266 21.6754 45.115 21.5982 45.2887L21.4548 45.598H21.6368C21.8022 45.598 21.8242 45.5764 21.9235 45.3268L22.0282 45.0553H23.1475L23.2632 45.3268C23.368 45.571 23.3956 45.598 23.5444 45.598C23.6381 45.598 23.7153 45.5872 23.7153 45.571C23.7153 45.5602 23.5003 45.0715 23.2412 44.4856C22.767 43.4326 22.767 43.4272 22.5906 43.4272C22.4252 43.4272 22.4142 43.4434 22.0778 44.2033ZM22.8277 44.2954C22.9214 44.518 22.9986 44.719 22.9986 44.7406C22.9986 44.7676 22.8111 44.7841 22.5796 44.7841C22.2653 44.7841 22.1661 44.7676 22.1881 44.7133C22.3866 44.2087 22.5851 43.8124 22.6127 43.8451C22.6402 43.8667 22.734 44.0731 22.8277 44.2954Z" fill="#151515"/>
<path d="M24.4321 45.5981H24.8181V45.3104C24.8236 45.0773 24.8511 44.9957 24.989 44.8385L25.1544 44.6483L25.3308 44.8439C25.4301 44.9468 25.6175 45.164 25.7554 45.3215C25.9704 45.5711 26.0255 45.6035 26.1744 45.5873L26.3508 45.5711L25.8877 45.0011C25.6341 44.6864 25.4246 44.4206 25.4246 44.4041C25.4246 44.3879 25.623 44.1599 25.8712 43.8995L26.3177 43.4273H26.1303C25.9704 43.4219 25.8822 43.487 25.386 44.0081L24.8181 44.594V43.4273H24.4321V45.5981Z" fill="#151515"/>
<path d="M27.5086 43.7908C27.4149 43.9969 27.1943 44.4856 27.0179 44.8762L26.6981 45.598H26.8856C27.0565 45.598 27.073 45.5764 27.1668 45.3268L27.266 45.0553H28.3908L28.5065 45.3268C28.6113 45.5656 28.6444 45.598 28.7877 45.598C28.8815 45.598 28.9531 45.5818 28.9531 45.5656C28.9531 45.5437 28.7381 45.0553 28.479 44.4802C28.0158 43.4596 27.9993 43.4272 27.8394 43.4272C27.6961 43.4272 27.663 43.4596 27.5086 43.7908ZM28.0655 44.29C28.1592 44.5072 28.2364 44.7079 28.2364 44.7352C28.2364 44.7622 28.0489 44.7841 27.8174 44.7841C27.5858 44.7841 27.4094 44.7622 27.4204 44.7406C27.4314 44.719 27.5196 44.4964 27.6244 44.2468C27.7291 44.0023 27.8284 43.8178 27.8504 43.8451C27.878 43.8667 27.9717 44.0677 28.0655 44.29Z" fill="#151515"/>
<path d="M29.6699 45.598H30.0559V44.9413L30.6899 44.974L30.9049 45.2887C31.0979 45.5602 31.1475 45.598 31.3074 45.598H31.4838L31.2302 45.2398C31.0262 44.9521 30.9931 44.8708 31.0538 44.8327C31.0979 44.8057 31.1475 44.7841 31.1751 44.7841C31.2743 44.7841 31.4342 44.4148 31.4342 44.176C31.4342 43.9699 31.4012 43.8829 31.2688 43.7311C31.0648 43.5085 30.7616 43.4272 30.111 43.4272H29.6699V45.598ZM30.9656 43.8886C31.142 44.0566 31.142 44.2954 30.9766 44.491C30.8663 44.6158 30.7947 44.6374 30.4528 44.6647L30.0559 44.6917V43.7527H30.4418C30.7836 43.7527 30.8498 43.7692 30.9656 43.8886Z" fill="#151515"/>
<path d="M33.32 43.5193C33.3639 43.5736 33.5403 43.8124 33.7058 44.0512L34.0145 44.491L33.6397 45.001C33.43 45.2833 33.2593 45.5329 33.2535 45.5548C33.2535 45.5818 33.3364 45.598 33.4355 45.598C33.5955 45.5926 33.6397 45.5548 33.9097 45.1639C34.0752 44.9251 34.2184 44.7298 34.2184 44.7298C34.2184 44.7298 34.362 44.9251 34.5271 45.1639C34.8084 45.571 34.8362 45.5926 35.0346 45.598H35.2385L34.8746 45.0934C34.6707 44.8219 34.4833 44.5669 34.461 44.5342C34.4336 44.5018 34.5658 44.2738 34.7975 43.9537L35.1833 43.4272H34.9959C34.8249 43.4272 34.7865 43.465 34.5439 43.807C34.4004 44.0134 34.2626 44.1871 34.2352 44.1871C34.2129 44.1871 34.0642 44.0134 33.9097 43.807C33.6561 43.4596 33.6119 43.4272 33.4355 43.4272C33.2535 43.4272 33.2426 43.4326 33.32 43.5193Z" fill="#151515"/>
<path d="M36.4513 43.5085C36.0103 43.7038 35.7787 44.0512 35.7787 44.5126C35.7787 44.8708 35.8726 45.0826 36.1426 45.3103C36.4016 45.5383 36.6774 45.6199 37.0468 45.5818C38.0614 45.4786 38.3975 44.1979 37.5597 43.6171C37.2784 43.4218 36.7655 43.3729 36.4513 43.5085ZM37.1184 43.7527C37.1791 43.7527 37.3171 43.8343 37.4326 43.9372C37.6313 44.1217 37.6368 44.1328 37.6368 44.5126C37.6368 44.8924 37.6313 44.9035 37.4326 45.088C37.2507 45.2506 37.19 45.2725 36.9365 45.2725C36.5726 45.2725 36.3081 45.1258 36.1977 44.8654C35.9939 44.377 36.2197 43.8613 36.6829 43.7527C36.7823 43.7311 36.8981 43.7203 36.9365 43.7311C36.9807 43.7419 37.0578 43.7527 37.1184 43.7527Z" fill="#151515"/>
<path fill-rule="evenodd" clip-rule="evenodd" d="M2.10279 43.8616V43.3189H4.0325V43.5631C4.0325 43.6153 4.00861 43.672 3.98275 43.7218C3.95444 43.7767 3.91333 43.8424 3.86047 43.9192C3.75454 44.0728 3.59517 44.2789 3.37963 44.5429L2.89057 45.1426L4.08764 45.1723V45.7069H3.04673C2.61874 45.7069 2.38681 45.7069 2.26417 45.6916C2.20691 45.6847 2.13975 45.6715 2.09462 45.625C2.04693 45.5758 2.04744 45.5128 2.04764 45.4882C2.04765 45.4867 2.04766 45.4855 2.04766 45.4843C2.04766 45.4501 2.06129 45.418 2.06955 45.3997C2.07999 45.3766 2.09422 45.3508 2.11074 45.3229C2.14396 45.2674 2.19105 45.1972 2.24832 45.1171C2.36315 44.9566 2.52323 44.7496 2.70608 44.5261C2.87943 44.3146 3.0376 44.1184 3.15217 43.9732C3.18191 43.9357 3.20862 43.9015 3.23185 43.8715C3.12606 43.8652 2.98103 43.8616 2.81954 43.8616H2.10279ZM3.31009 43.7683C3.3128 43.7686 3.31546 43.7686 3.31808 43.7689C3.38619 43.7752 3.42602 43.7827 3.42602 43.7908C3.42602 43.7956 3.40385 43.8268 3.36437 43.879C3.36334 43.8802 3.36229 43.8817 3.36124 43.8829C3.25746 44.0197 3.0402 44.2915 2.79198 44.5942C2.42809 45.0391 2.15793 45.4138 2.15793 45.4843C2.15793 45.5983 2.17447 45.5983 3.06765 45.5983H3.97737V45.2779L2.66516 45.2455L3.2937 44.4748C3.72375 43.9483 3.92223 43.6606 3.92223 43.5631V43.4272H2.21306V43.753H2.81954C3.02176 43.753 3.20005 43.7587 3.31009 43.7683ZM4.69411 45.7069V43.3189H5.24546V45.7069H4.69411ZM6.07249 45.7069V43.3189H6.62384V45.1639H7.72652V45.7069H6.07249ZM7.61626 45.2725V45.5983H6.18275V43.4272H6.51354V45.2725H7.61626ZM8.27787 45.7069V43.3189H8.82921V45.1639H9.98704V45.7069H8.27787ZM9.87677 45.2725V45.5983H8.38813V43.4272H8.71895V45.2725H9.87677ZM10.5384 45.7069V43.3189H11.0897V45.7069H10.5384ZM12.5342 45.5167C11.6576 45.1531 11.63 43.9213 12.4957 43.5304C12.9036 43.3459 13.466 43.4272 13.7858 43.7149C14.2214 44.1058 14.2214 44.9197 13.7858 45.3106C13.477 45.5875 12.9312 45.6796 12.5342 45.5167ZM13.8601 43.6348C14.1057 43.855 14.2227 44.1883 14.2227 44.5129C14.2227 44.8372 14.1057 45.1705 13.8601 45.3907C13.6872 45.5458 13.4527 45.6454 13.2114 45.6856C12.97 45.7258 12.7128 45.7075 12.4918 45.6169C11.5284 45.2173 11.4953 43.8628 12.4496 43.4317C12.8962 43.2298 13.5063 43.3165 13.8601 43.6348ZM12.5342 43.8562C12.3854 43.9321 12.1924 44.3065 12.1924 44.5129C12.1924 44.7517 12.3909 45.0934 12.5784 45.1912C12.8044 45.3052 13.1793 45.3052 13.4054 45.1912C13.5928 45.0934 13.7913 44.7517 13.7913 44.5129C13.7913 44.3065 13.5983 43.9321 13.455 43.8562C13.1573 43.7041 12.821 43.7041 12.5342 43.8562ZM13.4033 43.9519C13.137 43.8163 12.8397 43.8175 12.5865 43.9516C12.57 43.96 12.5402 43.9843 12.5048 44.0287C12.4711 44.071 12.4367 44.1253 12.4057 44.185C12.3419 44.308 12.3027 44.4349 12.3027 44.5129C12.3027 44.6068 12.3434 44.7334 12.4111 44.8516C12.4794 44.9707 12.5626 45.0598 12.6293 45.0949C12.7225 45.1417 12.8539 45.1681 12.9919 45.1681C13.1298 45.1681 13.2612 45.1417 13.3544 45.0949C13.4211 45.0598 13.5043 44.9707 13.5726 44.8516C13.6403 44.7334 13.6811 44.6068 13.6811 44.5129C13.6811 44.4349 13.6418 44.3077 13.5785 44.1844C13.5478 44.1247 13.5138 44.0704 13.4806 44.0278C13.4461 43.9837 13.4188 43.9603 13.4033 43.9519ZM14.894 45.7069V43.3189H15.1311C15.1883 43.3189 15.2399 43.3435 15.2849 43.3738C15.3309 43.405 15.382 43.4506 15.4404 43.5097C15.5576 43.6285 15.7191 43.8184 15.9505 44.1031L16.3618 44.6119L16.3905 43.3189H16.9891V45.7069H16.7277C16.6196 45.7024 16.5315 45.6499 16.4192 45.538C16.3084 45.4276 16.1541 45.2404 15.9099 44.9326C15.7503 44.7322 15.6021 44.5498 15.4913 44.4178C15.4789 44.4031 15.4671 44.389 15.4557 44.3755C15.449 44.5039 15.4454 44.6764 15.4454 44.8654V45.7069H14.894ZM15.3532 44.2582C15.3538 44.2513 15.3544 44.245 15.355 44.2387C15.3616 44.1715 15.3698 44.1328 15.3792 44.1328C15.3855 44.1328 15.4129 44.1601 15.4562 44.2087C15.4599 44.2129 15.4638 44.2174 15.4678 44.2219C15.5778 44.3467 15.7768 44.5894 15.9967 44.8654C16.4874 45.4843 16.5977 45.5929 16.73 45.5983H16.8789V43.4272H16.4984L16.4654 44.9143L15.8644 44.1709C15.4013 43.6009 15.2303 43.4272 15.1311 43.4272H15.0043V45.5983H15.3351V44.8654C15.3351 44.614 15.3416 44.3902 15.3532 44.2582ZM19.4138 43.7461C19.4885 43.5862 19.5427 43.4767 19.602 43.4122C19.6358 43.3753 19.674 43.3492 19.7205 43.3342C19.7635 43.3207 19.8069 43.3189 19.8451 43.3189C19.8871 43.3189 19.9457 43.3198 20.0053 43.3561C20.0602 43.3894 20.1029 43.4446 20.1459 43.5157C20.2322 43.6582 20.3556 43.9297 20.5853 44.4358C20.715 44.7238 20.8338 44.9902 20.9202 45.1876C20.9633 45.286 20.9986 45.3679 21.0231 45.4264C21.0354 45.4558 21.0452 45.4798 21.0521 45.4978C21.0556 45.5068 21.0587 45.5152 21.0611 45.5224C21.0623 45.526 21.0637 45.5302 21.0649 45.535C21.0656 45.5374 21.0691 45.5503 21.0691 45.5656C21.0691 45.6094 21.045 45.6379 21.0315 45.6505C21.0175 45.6634 21.0027 45.6712 20.9934 45.6757C20.9739 45.6847 20.9524 45.6904 20.9338 45.6943C20.8951 45.7024 20.8459 45.7069 20.7934 45.7069C20.7143 45.7069 20.6324 45.6985 20.5611 45.6295C20.5034 45.5737 20.461 45.484 20.411 45.37L20.3232 45.1639H19.3492L19.2762 45.3637C19.253 45.4255 19.2326 45.4783 19.2132 45.52C19.1939 45.5611 19.1711 45.601 19.1388 45.6328C19.0656 45.7051 18.9728 45.7069 18.8913 45.7069H18.5354L18.9228 44.8324C19.0992 44.4415 19.32 43.9525 19.4138 43.7461ZM19.2717 45.0556H20.3965L20.5122 45.3268C20.617 45.5656 20.65 45.5983 20.7934 45.5983C20.8871 45.5983 20.9588 45.5818 20.9588 45.5656C20.9588 45.544 20.7438 45.0556 20.4847 44.4802C20.0215 43.4599 20.005 43.4272 19.8451 43.4272C19.7017 43.4272 19.6687 43.4599 19.5143 43.7908C19.4207 43.9969 19.2006 44.4844 19.0243 44.875L18.7038 45.5983H18.8913C19.0622 45.5983 19.0787 45.5764 19.1724 45.3268L19.2717 45.0556ZM19.9695 44.3323C19.9248 44.2264 19.8802 44.1253 19.8435 44.0479C19.8104 44.1124 19.7718 44.1955 19.7318 44.2888C19.6797 44.413 19.6317 44.5303 19.5953 44.6197L19.5839 44.6476C19.5813 44.6539 19.5789 44.6599 19.5765 44.6659C19.6407 44.6716 19.7263 44.6755 19.823 44.6755C19.9345 44.6755 20.0336 44.6704 20.1037 44.6623C20.0991 44.65 20.0941 44.6365 20.0886 44.6224C20.0582 44.5432 20.0159 44.44 19.9695 44.3323ZM19.5332 44.7706C19.5335 44.7706 19.5328 44.7706 19.5332 44.7706C19.5065 44.7676 19.483 44.764 19.4657 44.7601C19.4372 44.7541 19.4226 44.7475 19.4261 44.7406C19.4312 44.7307 19.4527 44.6779 19.4848 44.5993C19.5221 44.5078 19.5737 44.3812 19.6301 44.2468C19.6861 44.116 19.7406 44.0026 19.7825 43.9294C19.7937 43.9099 19.8052 43.8913 19.8144 43.8781C19.8345 43.8493 19.8492 43.8367 19.8561 43.8451C19.8661 43.8532 19.8849 43.8847 19.9092 43.9321C19.909 43.9318 19.9094 43.9327 19.9092 43.9321C19.9517 44.0155 20.0117 44.1493 20.0711 44.2903C20.1649 44.5072 20.2421 44.7082 20.2421 44.7352C20.2421 44.7625 20.0546 44.7841 19.823 44.7841C19.707 44.7841 19.6049 44.7787 19.5332 44.7706ZM21.5984 45.289C21.6355 45.2053 21.7045 45.049 21.787 44.8621C21.8758 44.6611 21.9812 44.4223 22.078 44.2033C22.4144 43.4437 22.4254 43.4272 22.5908 43.4272C22.7648 43.4272 22.7672 43.4326 23.2222 44.443L23.2414 44.4856C23.5005 45.0718 23.7155 45.5602 23.7155 45.571C23.7155 45.5836 23.6709 45.5926 23.6084 45.5965C23.6086 45.5965 23.6082 45.5965 23.6084 45.5965C23.5888 45.5977 23.5669 45.5983 23.5446 45.5983C23.3958 45.5983 23.3682 45.571 23.2634 45.3268L23.1477 45.0556H22.0284L21.9237 45.3268C21.8244 45.5764 21.8024 45.5983 21.637 45.5983H21.455L21.5984 45.289ZM22.1045 45.1639L22.0267 45.3655C22.002 45.4276 21.9801 45.4807 21.9591 45.5227C21.9384 45.5641 21.9144 45.6031 21.8817 45.6343C21.8077 45.7045 21.7173 45.7069 21.637 45.7069H21.2835L21.4973 45.2455C21.4972 45.2458 21.4975 45.2452 21.4973 45.2455C21.5347 45.1612 21.6043 45.0037 21.6869 44.8165C21.7757 44.6155 21.8799 44.3791 21.9769 44.1601C22.1427 43.7857 22.2342 43.5799 22.3061 43.4713C22.3437 43.4143 22.3851 43.369 22.442 43.3432C22.4958 43.3186 22.5504 43.3186 22.5892 43.3189L22.5965 43.3186C22.6361 43.3186 22.6946 43.3186 22.7522 43.3489C22.8117 43.3801 22.8558 43.435 22.8989 43.5055C22.9817 43.6408 23.0982 43.8997 23.3165 44.3845L23.3425 44.4424C23.472 44.7355 23.5907 45.0043 23.6769 45.2011C23.72 45.2995 23.7551 45.3802 23.7795 45.4372C23.7917 45.4654 23.8013 45.4885 23.808 45.5047C23.8113 45.5128 23.8142 45.52 23.8164 45.5257C23.8174 45.5284 23.8187 45.5317 23.8198 45.5353C23.8204 45.5368 23.8213 45.5398 23.8222 45.5434C23.8223 45.5434 23.8258 45.5557 23.8258 45.571C23.8258 45.6193 23.7967 45.649 23.7821 45.6607C23.7667 45.6733 23.751 45.6799 23.7417 45.6835C23.7221 45.691 23.7005 45.6952 23.6822 45.6979C23.6437 45.7039 23.5949 45.7069 23.5446 45.7069C23.4666 45.7069 23.3823 45.7012 23.3102 45.6316C23.279 45.6013 23.2548 45.5635 23.233 45.5227C23.211 45.4813 23.1881 45.4303 23.1619 45.3691L23.0744 45.1639H22.1045ZM22.5409 43.9327C22.4598 44.0737 22.3241 44.3683 22.1883 44.7136C22.1663 44.7679 22.2655 44.7841 22.5798 44.7841C22.8113 44.7841 22.9988 44.7679 22.9988 44.7406C22.9988 44.719 22.9216 44.5183 22.8279 44.2957C22.7689 44.1556 22.7099 44.0221 22.6674 43.9369C22.6678 43.9375 22.667 43.936 22.6674 43.9369C22.643 43.888 22.6229 43.8532 22.6128 43.8451C22.6073 43.8388 22.595 43.8493 22.5773 43.8745C22.5675 43.8883 22.556 43.9066 22.543 43.9291C22.5423 43.9303 22.5416 43.9315 22.5409 43.9327ZM22.6009 44.0521C22.5894 44.0743 22.5771 44.0986 22.5639 44.1253C22.4963 44.2624 22.4116 44.4526 22.3248 44.6683C22.3797 44.6731 22.4617 44.6755 22.5798 44.6755C22.6898 44.6755 22.7877 44.6719 22.858 44.6653C22.8541 44.6548 22.8498 44.6437 22.8453 44.632C22.8148 44.5525 22.7725 44.4478 22.726 44.3371C22.6816 44.2318 22.6375 44.131 22.6009 44.0521ZM24.322 45.7069V43.3189H24.9285V44.323L25.3057 43.9339C25.3056 43.9342 25.3058 43.9336 25.3057 43.9339C25.5518 43.6756 25.7042 43.5217 25.8161 43.435C25.8735 43.3906 25.9256 43.3591 25.9795 43.3402C26.0343 43.321 26.0839 43.3174 26.1323 43.3189H26.5712L25.9517 43.9738C25.8285 44.1031 25.7179 44.224 25.6383 44.3146C25.6058 44.3515 25.5789 44.3827 25.5586 44.4073C25.5809 44.437 25.6114 44.4769 25.6487 44.5246C25.7322 44.6317 25.8474 44.7763 25.9741 44.9335C25.974 44.9335 25.9741 44.9335 25.9741 44.9335L26.5555 45.649L26.9173 44.8324C27.0937 44.4415 27.3143 43.9531 27.4081 43.7467C27.4828 43.5868 27.5372 43.4767 27.5965 43.4122C27.6303 43.3753 27.6686 43.3492 27.715 43.3342C27.758 43.3207 27.8014 43.3189 27.8396 43.3189C27.8816 43.3189 27.9402 43.3198 27.9998 43.3561C28.0547 43.3894 28.0975 43.4446 28.1404 43.5157C28.2267 43.6582 28.3501 43.9297 28.5798 44.4358C28.7095 44.7238 28.8283 44.9902 28.9147 45.1876C28.9578 45.286 28.9931 45.3679 29.0176 45.4264C29.0299 45.4558 29.0397 45.4798 29.0467 45.4978C29.0501 45.5068 29.0532 45.5152 29.0556 45.5224C29.0568 45.526 29.0582 45.5302 29.0595 45.535C29.0601 45.5374 29.0636 45.5503 29.0636 45.5656C29.0636 45.6094 29.0395 45.6379 29.026 45.6505C29.012 45.6634 28.9973 45.6712 28.9879 45.6757C28.9684 45.6847 28.9469 45.6904 28.9284 45.6943C28.8896 45.7024 28.8404 45.7069 28.7879 45.7069C28.7088 45.7069 28.6269 45.6985 28.5556 45.6295C28.4978 45.5737 28.4555 45.484 28.4055 45.37L28.3177 45.1639H27.3437L27.2707 45.3637C27.2475 45.4255 27.2271 45.4783 27.2076 45.52C27.1884 45.5611 27.1656 45.601 27.1333 45.6328C27.06 45.7051 26.9673 45.7069 26.8858 45.7069H26.5299L26.5499 45.6619L26.1867 45.6952C26.187 45.6949 26.1864 45.6952 26.1867 45.6952C26.0995 45.7045 26.0189 45.7012 25.9304 45.6457C25.8548 45.598 25.7769 45.514 25.6718 45.3919C25.6464 45.3631 25.6196 45.3322 25.592 45.3007C25.4681 45.1588 25.3302 45.0007 25.2509 44.9185L25.1561 44.8135L25.0727 44.9092C25.0071 44.9842 24.9761 45.0319 24.958 45.082C24.9394 45.1339 24.9312 45.1978 24.9285 45.3118V45.7069H24.322ZM24.8182 45.3106C24.8237 45.0772 24.8513 44.9959 24.9892 44.8384L25.1545 44.6485L25.331 44.8438C25.4122 44.9281 25.5524 45.0889 25.6762 45.2308C25.7032 45.2617 25.7309 45.2932 25.7555 45.3214C25.9705 45.571 26.0257 45.6037 26.1745 45.5875L26.351 45.571L25.8878 45.0013C25.6342 44.6863 25.4247 44.4205 25.4247 44.4043C25.4247 44.3878 25.6232 44.1601 25.8713 43.8994L26.3179 43.4272H26.1304C25.9705 43.4218 25.8823 43.4869 25.3861 44.008L24.8182 44.5942V43.4272H24.4323V45.5983H24.8182V45.3106ZM27.2662 45.0556H28.3909L28.5067 45.3268C28.6115 45.5656 28.6446 45.5983 28.7879 45.5983C28.8816 45.5983 28.9533 45.5818 28.9533 45.5656C28.9533 45.544 28.7383 45.0556 28.4792 44.4802C28.016 43.4599 27.9995 43.4272 27.8396 43.4272C27.6963 43.4272 27.6632 43.4599 27.5088 43.7908C27.4152 43.9969 27.1951 44.4844 27.0188 44.875L26.6983 45.5983H26.8858C27.0567 45.5983 27.0732 45.5764 27.167 45.3268L27.2662 45.0556ZM27.964 44.3323C27.9193 44.2264 27.8747 44.1253 27.838 44.0479C27.8049 44.1124 27.7663 44.1955 27.7263 44.2888C27.6742 44.413 27.6262 44.5303 27.5897 44.6197L27.5784 44.6476C27.5759 44.6539 27.5734 44.6599 27.571 44.6659C27.6352 44.6716 27.7208 44.6755 27.8176 44.6755C27.929 44.6755 28.0281 44.6704 28.0982 44.6623C28.0936 44.65 28.0886 44.6365 28.0831 44.6224C28.0527 44.5432 28.0104 44.44 27.964 44.3323ZM27.5277 44.7706C27.5281 44.7706 27.5273 44.7706 27.5277 44.7706C27.501 44.7676 27.4774 44.764 27.4602 44.7601C27.4317 44.7541 27.4172 44.7475 27.4206 44.7406C27.4257 44.7307 27.4472 44.6779 27.4793 44.5993C27.5167 44.5078 27.5682 44.3812 27.6246 44.2468C27.6806 44.116 27.7351 44.0026 27.777 43.9294C27.7882 43.9099 27.7997 43.8913 27.8088 43.8781C27.829 43.8493 27.8436 43.8367 27.8506 43.8451C27.8607 43.8532 27.8794 43.8847 27.9037 43.9321C27.9035 43.9318 27.9039 43.9327 27.9037 43.9321C27.9463 44.0155 28.0062 44.1493 28.0657 44.2903C28.1594 44.5072 28.2366 44.7082 28.2366 44.7352C28.2366 44.7625 28.0491 44.7841 27.8176 44.7841C27.7016 44.7841 27.5994 44.7787 27.5277 44.7706ZM29.5598 45.7069V43.3189H30.1111C30.7634 43.3189 31.1121 43.3981 31.3508 43.6585C31.4203 43.7383 31.4733 43.8115 31.5048 43.8961C31.5362 43.9801 31.5446 44.0683 31.5446 44.1763C31.5446 44.3149 31.4995 44.4817 31.4436 44.6119C31.4154 44.6776 31.3821 44.7397 31.3461 44.7874C31.3282 44.8111 31.307 44.8348 31.2823 44.8537C31.2597 44.8708 31.2246 44.8912 31.1802 44.8927C31.1803 44.8927 31.18 44.8927 31.1802 44.8927C31.1768 44.8936 31.1709 44.8954 31.1634 44.8984C31.1582 44.9005 31.1527 44.9032 31.1468 44.9059C31.1692 44.9554 31.2213 45.0376 31.3208 45.178L31.6953 45.7069H31.3076C31.2158 45.7069 31.1349 45.6955 31.0509 45.631C30.9789 45.5755 30.909 45.4837 30.8147 45.3511L30.6293 45.0796L30.1663 45.0559V45.7069H29.5598ZM30.056 44.9416L30.6901 44.974L30.9051 45.289C31.098 45.5602 31.1477 45.5983 31.3076 45.5983H31.484L31.2304 45.2401C31.0264 44.9524 30.9933 44.8711 31.0539 44.833C31.098 44.8057 31.1477 44.7841 31.1752 44.7841C31.2745 44.7841 31.4344 44.4151 31.4344 44.1763C31.4344 43.9699 31.4013 43.8832 31.269 43.7311C31.065 43.5088 30.7617 43.4272 30.1111 43.4272H29.6701V45.5983H30.056V44.9416ZM30.8875 43.9651C30.837 43.9132 30.8071 43.8931 30.7607 43.8811C30.7031 43.8661 30.6159 43.8616 30.442 43.8616H30.1663V44.5756L30.4441 44.5564C30.4439 44.5564 30.4443 44.5564 30.4441 44.5564C30.6172 44.5426 30.7074 44.5312 30.7668 44.5114C30.8161 44.4955 30.8459 44.4736 30.8928 44.4208C30.9608 44.3398 30.9902 44.2561 30.9892 44.1811C30.9882 44.1067 30.956 44.0305 30.8875 43.9651ZM30.9768 44.491C30.8665 44.6158 30.7948 44.6377 30.453 44.6647L30.056 44.692V43.753H30.442C30.7838 43.753 30.8499 43.7692 30.9657 43.8886C31.1422 44.0569 31.1422 44.2957 30.9768 44.491ZM33.3345 43.5379C33.3351 43.5388 33.3339 43.5373 33.3345 43.5379C33.3294 43.5316 33.3236 43.5238 33.3199 43.5196C33.2513 43.4425 33.2526 43.4296 33.3815 43.4275C33.3827 43.4275 33.3839 43.4275 33.3851 43.4275C33.4004 43.4275 33.4171 43.4272 33.4357 43.4272C33.6122 43.4272 33.6564 43.4599 33.9099 43.8073C34.0641 44.0134 34.2132 44.1871 34.2351 44.1871C34.2628 44.1871 34.4006 44.0134 34.5438 43.8073C34.7864 43.4653 34.8251 43.4272 34.9961 43.4272H35.1835L34.7977 43.9537C34.5661 44.2741 34.4338 44.5018 34.4612 44.5345C34.4832 44.5669 34.6709 44.8222 34.8748 45.0934L35.2387 45.5983H35.0348C34.8361 45.5929 34.8087 45.571 34.5274 45.1639C34.4308 45.0244 34.3433 44.8996 34.2863 44.8201C34.2857 44.8189 34.2851 44.818 34.2842 44.8171C34.2452 44.7622 34.2208 44.7298 34.2187 44.7298C34.2165 44.7298 34.1921 44.7622 34.1531 44.8171C34.1522 44.818 34.1516 44.8189 34.151 44.8201C34.094 44.8996 34.0065 45.0244 33.9099 45.1639C33.6396 45.5548 33.5957 45.5929 33.4357 45.5983C33.4077 45.5983 33.3806 45.5968 33.3568 45.5944C33.2964 45.5881 33.2538 45.5743 33.2538 45.5548C33.2593 45.5332 33.4302 45.2833 33.6396 45.0013L34.0148 44.491L33.706 44.0515C33.5552 43.8337 33.3949 43.6159 33.3345 43.5379ZM33.8798 44.4895L33.6152 44.1133C33.4519 43.8772 33.2791 43.6435 33.2352 43.5892C33.2178 43.5694 33.1965 43.5445 33.1828 43.5202C33.1761 43.5073 33.1639 43.4824 33.1645 43.4503C33.1651 43.4107 33.1846 43.3771 33.2126 43.3555C33.2355 43.3378 33.2599 43.3309 33.2742 43.3279C33.29 43.3243 33.3068 43.3225 33.3217 43.3213C33.3519 43.3189 33.3909 43.3189 33.4357 43.3189C33.482 43.3189 33.5293 43.3207 33.5765 43.3327C33.6262 43.3456 33.6701 43.3681 33.7134 43.4026C33.792 43.4653 33.8755 43.5739 33.9989 43.7434C34.0751 43.8448 34.1492 43.9375 34.2065 44.0044C34.2168 44.0164 34.2263 44.0272 34.2351 44.0371C34.2427 44.0281 34.251 44.0179 34.2598 44.0071C34.3134 43.9405 34.3823 43.8478 34.453 43.7458C34.571 43.5793 34.6505 43.4701 34.7249 43.4068C34.7657 43.372 34.8081 43.348 34.8568 43.3342C34.9035 43.321 34.9504 43.3189 34.9961 43.3189H35.399L34.8873 44.0167C34.7727 44.1754 34.684 44.3092 34.628 44.4058C34.6027 44.4493 34.5856 44.4829 34.5758 44.5063C34.6347 44.5876 34.7922 44.8015 34.9635 45.0289L35.452 45.7069H35.033C34.9836 45.7057 34.9315 45.703 34.8827 45.6901C34.8303 45.6763 34.7846 45.652 34.7398 45.6139C34.6593 45.5452 34.5731 45.4231 34.4363 45.2251M34.4363 45.2251C34.3537 45.106 34.2781 44.9977 34.2226 44.9194C34.2214 44.9176 34.2199 44.9158 34.2187 44.914C34.2174 44.9158 34.2159 44.9176 34.2147 44.9194C34.1592 44.9977 34.0836 45.106 34.0011 45.2251M33.355 45.5974C33.3544 45.5989 33.354 45.5989 33.355 45.5974ZM36.4068 43.4095C36.586 43.3321 36.8137 43.3099 37.0289 43.3309C37.2443 43.3516 37.4628 43.417 37.6235 43.5286C38.5435 44.1664 38.1757 45.5764 37.0584 45.6898C36.6613 45.7306 36.3544 45.6418 36.0704 45.3922C35.9275 45.2716 35.8244 45.1495 35.7589 45.0046C35.6934 44.86 35.6687 44.701 35.6687 44.5129C35.6687 44.2636 35.7315 44.0401 35.8577 43.8514C35.9841 43.6627 36.1704 43.5142 36.4068 43.4095ZM36.1429 45.3106C36.402 45.5386 36.6778 45.6199 37.0472 45.5818C38.0614 45.4789 38.3979 44.1979 37.5598 43.6174C37.2788 43.4218 36.7659 43.3729 36.4516 43.5088C36.0107 43.7041 35.779 44.0515 35.779 44.5129C35.779 44.8711 35.8726 45.0826 36.1429 45.3106ZM36.9368 43.7311C36.8981 43.7203 36.7823 43.7311 36.6833 43.753C36.22 43.8616 35.9939 44.377 36.1981 44.8654C36.3084 45.1261 36.5729 45.2725 36.9368 45.2725C37.1904 45.2725 37.251 45.2509 37.433 45.088C37.6314 44.9035 37.6369 44.8927 37.6369 44.5129C37.6369 44.1328 37.6314 44.122 37.433 43.9375C37.3172 43.8343 37.1794 43.753 37.1188 43.753C37.0581 43.753 36.981 43.7422 36.9368 43.7311ZM37.3583 44.0173C37.3056 43.9705 37.2483 43.9288 37.1986 43.8997C37.1736 43.885 37.1523 43.8745 37.1358 43.8679C37.123 43.8628 37.1169 43.8616 37.1163 43.8616C37.0465 43.8613 36.9615 43.8493 36.91 43.8364C36.91 43.8367 36.9045 43.8355 36.8939 43.8355C36.8807 43.8355 36.8634 43.8361 36.8427 43.8379C36.8015 43.8415 36.7528 43.849 36.708 43.8586C36.3255 43.9489 36.1158 44.3836 36.2999 44.8243C36.3883 45.0325 36.6034 45.1639 36.9368 45.1639C37.0639 45.1639 37.124 45.1579 37.173 45.1399C37.2209 45.1219 37.2681 45.0889 37.358 45.0085C37.4616 44.9119 37.49 44.8813 37.5055 44.8378C37.5238 44.7862 37.5268 44.7112 37.5268 44.5129C37.5268 44.3146 37.5238 44.2393 37.5055 44.188C37.49 44.1442 37.4619 44.1136 37.3583 44.0173ZM4.80438 45.5983V43.4272H5.1352V45.5983H4.80438ZM10.6486 45.5983V43.4272H10.9795V45.5983H10.6486Z" fill="url(#paint11_linear_85_69142)"/>
</g>
<defs>
<linearGradient id="paint0_linear_85_69142" x1="64.1514" y1="32.2183" x2="2.1774" y2="32.2183" gradientUnits="userSpaceOnUse">
<stop stop-color="#D99535"/>
<stop offset="0.247472" stop-color="#FEEFC2"/>
<stop offset="0.450587" stop-color="#F6A231"/>
<stop offset="0.638226" stop-color="#FAC15A"/>
<stop offset="0.700127" stop-color="#FBF0E1"/>
<stop offset="0.883898" stop-color="#9C6E2C"/>
</linearGradient>
<linearGradient id="paint1_linear_85_69142" x1="64.1514" y1="32.2183" x2="2.1774" y2="32.2183" gradientUnits="userSpaceOnUse">
<stop stop-color="#D99535"/>
<stop offset="0.247472" stop-color="#FEEFC2"/>
<stop offset="0.450587" stop-color="#F6A231"/>
<stop offset="0.638226" stop-color="#FAC15A"/>
<stop offset="0.700127" stop-color="#FBF0E1"/>
<stop offset="0.883898" stop-color="#9C6E2C"/>
</linearGradient>
<linearGradient id="paint2_linear_85_69142" x1="64.1515" y1="32.2183" x2="2.17752" y2="32.2183" gradientUnits="userSpaceOnUse">
<stop stop-color="#D99535"/>
<stop offset="0.247472" stop-color="#FEEFC2"/>
<stop offset="0.450587" stop-color="#F6A231"/>
<stop offset="0.638226" stop-color="#FAC15A"/>
<stop offset="0.700127" stop-color="#FBF0E1"/>
<stop offset="0.883898" stop-color="#9C6E2C"/>
</linearGradient>
<linearGradient id="paint3_linear_85_69142" x1="64.1514" y1="32.2183" x2="2.17743" y2="32.2183" gradientUnits="userSpaceOnUse">
<stop stop-color="#D99535"/>
<stop offset="0.247472" stop-color="#FEEFC2"/>
<stop offset="0.450587" stop-color="#F6A231"/>
<stop offset="0.638226" stop-color="#FAC15A"/>
<stop offset="0.700127" stop-color="#FBF0E1"/>
<stop offset="0.883898" stop-color="#9C6E2C"/>
</linearGradient>
<linearGradient id="paint4_linear_85_69142" x1="64.1515" y1="32.2183" x2="2.17741" y2="32.2183" gradientUnits="userSpaceOnUse">
<stop stop-color="#D99535"/>
<stop offset="0.247472" stop-color="#FEEFC2"/>
<stop offset="0.450587" stop-color="#F6A231"/>
<stop offset="0.638226" stop-color="#FAC15A"/>
<stop offset="0.700127" stop-color="#FBF0E1"/>
<stop offset="0.883898" stop-color="#9C6E2C"/>
</linearGradient>
<linearGradient id="paint5_linear_85_69142" x1="64.1515" y1="32.2183" x2="2.17748" y2="32.2183" gradientUnits="userSpaceOnUse">
<stop stop-color="#D99535"/>
<stop offset="0.247472" stop-color="#FEEFC2"/>
<stop offset="0.450587" stop-color="#F6A231"/>
<stop offset="0.638226" stop-color="#FAC15A"/>
<stop offset="0.700127" stop-color="#FBF0E1"/>
<stop offset="0.883898" stop-color="#9C6E2C"/>
</linearGradient>
<linearGradient id="paint6_linear_85_69142" x1="64.1514" y1="32.2183" x2="2.1774" y2="32.2183" gradientUnits="userSpaceOnUse">
<stop stop-color="#D99535"/>
<stop offset="0.247472" stop-color="#FEEFC2"/>
<stop offset="0.450587" stop-color="#F6A231"/>
<stop offset="0.638226" stop-color="#FAC15A"/>
<stop offset="0.700127" stop-color="#FBF0E1"/>
<stop offset="0.883898" stop-color="#9C6E2C"/>
</linearGradient>
<linearGradient id="paint7_linear_85_69142" x1="64.1515" y1="32.2183" x2="2.17746" y2="32.2183" gradientUnits="userSpaceOnUse">
<stop stop-color="#D99535"/>
<stop offset="0.247472" stop-color="#FEEFC2"/>
<stop offset="0.450587" stop-color="#F6A231"/>
<stop offset="0.638226" stop-color="#FAC15A"/>
<stop offset="0.700127" stop-color="#FBF0E1"/>
<stop offset="0.883898" stop-color="#9C6E2C"/>
</linearGradient>
<linearGradient id="paint8_linear_85_69142" x1="64.1514" y1="32.2183" x2="2.17739" y2="32.2183" gradientUnits="userSpaceOnUse">
<stop stop-color="#D99535"/>
<stop offset="0.247472" stop-color="#FEEFC2"/>
<stop offset="0.450587" stop-color="#F6A231"/>
<stop offset="0.638226" stop-color="#FAC15A"/>
<stop offset="0.700127" stop-color="#FBF0E1"/>
<stop offset="0.883898" stop-color="#9C6E2C"/>
</linearGradient>
<linearGradient id="paint9_linear_85_69142" x1="64.1515" y1="32.2183" x2="2.17733" y2="32.2183" gradientUnits="userSpaceOnUse">
<stop stop-color="#D99535"/>
<stop offset="0.247472" stop-color="#FEEFC2"/>
<stop offset="0.450587" stop-color="#F6A231"/>
<stop offset="0.638226" stop-color="#FAC15A"/>
<stop offset="0.700127" stop-color="#FBF0E1"/>
<stop offset="0.883898" stop-color="#9C6E2C"/>
</linearGradient>
<linearGradient id="paint10_linear_85_69142" x1="64.1514" y1="32.2183" x2="2.17741" y2="32.2183" gradientUnits="userSpaceOnUse">
<stop stop-color="#D99535"/>
<stop offset="0.247472" stop-color="#FEEFC2"/>
<stop offset="0.450587" stop-color="#F6A231"/>
<stop offset="0.638226" stop-color="#FAC15A"/>
<stop offset="0.700127" stop-color="#FBF0E1"/>
<stop offset="0.883898" stop-color="#9C6E2C"/>
</linearGradient>
<linearGradient id="paint11_linear_85_69142" x1="38.8544" y1="44.5108" x2="2.1527" y2="44.5108" gradientUnits="userSpaceOnUse">
<stop stop-color="#D99535"/>
<stop offset="0.247472" stop-color="#FEEFC2"/>
<stop offset="0.450587" stop-color="#F6A231"/>
<stop offset="0.638226" stop-color="#FAC15A"/>
<stop offset="0.700127" stop-color="#FBF0E1"/>
<stop offset="0.883898" stop-color="#9C6E2C"/>
</linearGradient>
<clipPath id="clip0_85_69142">
<rect width="64" height="64" fill="white"/>
</clipPath>
</defs>
</svg>
