<svg width="120" height="120" viewBox="0 0 120 120" fill="none" xmlns="http://www.w3.org/2000/svg">
    <path d="M60 118.201C92.143 118.201 118.2 92.1438 118.2 60.0008C118.2 27.8578 92.143 1.80078 60 1.80078C27.857 1.80078 1.79999 27.8578 1.79999 60.0008C1.8 92.1438 27.857 118.201 60 118.201Z" fill="url(#paint0_linear)"/>
    <path d="M85.47 83.1912L65.79 35.6112C64.68 33.1512 63.03 31.9512 60.855 31.9512H59.115C56.94 31.9512 55.29 33.1512 54.18 35.6112L45.615 56.3412H39.135C37.2 56.3562 35.625 57.9162 35.61 59.8662L35.61 59.9112C35.625 61.8462 37.2 63.4212 39.135 63.4362H42.615L34.44 83.1912C34.29 83.6262 34.2 84.0762 34.2 84.5412C34.2 85.6512 34.545 86.5212 35.16 87.1962C35.775 87.8712 36.66 88.2012 37.77 88.2012C38.505 88.1862 39.21 87.9612 39.795 87.5262C40.425 87.0912 40.86 86.4612 41.205 85.7412L50.205 63.4212H56.445C58.38 63.4062 59.955 61.8462 59.97 59.8962L59.97 59.8062C59.955 57.8712 58.38 56.2962 56.445 56.2812H53.115L59.985 39.1662L78.705 85.7262C79.05 86.4462 79.485 87.0762 80.115 87.5112C80.7 87.9462 81.42 88.1712 82.14 88.1862C83.25 88.1862 84.12 87.8562 84.75 87.1812C85.38 86.5062 85.71 85.6362 85.71 84.5262C85.725 84.0762 85.65 83.6112 85.47 83.1912Z" fill="white"/>
    <defs>
        <linearGradient id="paint0_linear" x1="103.393" y1="23.4887" x2="16.7915" y2="96.3551" gradientUnits="userSpaceOnUse">
            <stop stop-color="#B6509E"/>
            <stop offset="1" stop-color="#2EBAC6"/>
        </linearGradient>
    </defs>
</svg>
