<svg width="400" height="400" viewBox="0 0 400 400" fill="none" xmlns="http://www.w3.org/2000/svg">
    <path d="M200 394C307.143 394 394 307.143 394 200C394 92.8568 307.143 6 200 6C92.8566 6 5.99983 92.8568 5.99984 200C5.99985 307.143 92.8566 394 200 394Z" fill="url(#paint0_linear)"/>
    <path d="M284.9 277.3L219.3 118.7C215.6 110.5 210.1 106.5 202.85 106.5H197.05C189.8 106.5 184.3 110.5 180.6 118.7L152.05 187.8H130.45C124 187.85 118.75 193.05 118.7 199.55L118.7 199.7C118.75 206.15 124 211.4 130.45 211.45H142.05L114.8 277.3C114.3 278.75 114 280.25 114 281.8C114 285.5 115.15 288.4 117.2 290.65C119.25 292.9 122.2 294 125.9 294C128.35 293.95 130.7 293.2 132.65 291.75C134.75 290.3 136.2 288.2 137.35 285.8L167.35 211.4H188.15C194.6 211.35 199.85 206.15 199.9 199.65L199.9 199.35C199.85 192.9 194.6 187.65 188.15 187.6H177.05L199.95 130.55L262.35 285.75C263.5 288.15 264.95 290.25 267.05 291.7C269 293.15 271.4 293.9 273.8 293.95C277.5 293.95 280.4 292.85 282.5 290.6C284.6 288.35 285.7 285.45 285.7 281.75C285.75 280.25 285.5 278.7 284.9 277.3Z" fill="white"/>
    <defs>
        <linearGradient id="paint0_linear" x1="344.643" y1="78.2932" x2="55.9715" y2="321.181" gradientUnits="userSpaceOnUse">
            <stop stop-color="#B6509E"/>
            <stop offset="1" stop-color="#2EBAC6"/>
        </linearGradient>
    </defs>
</svg>
