<svg width="343" height="216" viewBox="0 0 343 216" fill="none" xmlns="http://www.w3.org/2000/svg">
<g clip-path="url(#clip0_211_71744)">
<path d="M72.25 177C110.358 177 141.25 146.108 141.25 108C141.25 69.8924 110.358 39 72.25 39C34.1424 39 3.25 69.8924 3.25 108C3.25 146.108 34.1424 177 72.25 177Z" fill="#0052B4"/>
<path d="M72.2484 66L74.4825 72.8755H81.7114L75.8628 77.1246L78.097 84.0001L72.2484 79.7507L66.3996 84.0001L68.6337 77.1246L62.7852 72.8755H70.0143L72.2484 66Z" fill="#FFDA44"/>
<path d="M42.552 78.3022L48.9938 81.584L54.1054 76.4727L52.9742 83.6125L59.4157 86.8946L52.2756 88.0256L51.1446 95.166L47.8625 88.7245L40.7227 89.8557L45.8343 84.744L42.552 78.3022Z" fill="#FFDA44"/>
<path d="M30.25 108L37.1255 105.766V98.5371L41.3744 104.386L48.2501 102.152L44.0004 108L48.2501 113.849L41.3744 111.615L37.1255 117.464V110.234L30.25 108Z" fill="#FFDA44"/>
<path d="M42.552 137.699L45.834 131.258L40.7227 126.146L47.8628 127.277L51.1444 120.836L52.2756 127.976L59.4155 129.107L52.9747 132.389L54.1054 139.529L48.9938 134.417L42.552 137.699Z" fill="#FFDA44"/>
<path d="M72.2484 150L70.014 143.124H62.7852L68.634 138.875L66.3996 132L72.2484 136.249L78.097 132L75.8628 138.875L81.7114 143.124H74.4823L72.2484 150Z" fill="#FFDA44"/>
<path d="M101.949 137.699L95.5076 134.418L90.3957 139.529L91.5269 132.389L85.0859 129.107L92.2258 127.976L93.3568 120.836L96.6386 127.277L103.778 126.146L98.6668 131.258L101.949 137.699Z" fill="#FFDA44"/>
<path d="M114.25 108L107.374 110.234V117.464L103.125 111.615L96.25 113.849L100.499 108L96.25 102.152L103.125 104.386L107.374 98.5371V105.766L114.25 108Z" fill="#FFDA44"/>
<path d="M101.949 78.302L98.6671 84.7438L103.779 89.8554L96.6383 88.7239L93.3568 95.1655L92.2258 88.0253L85.0859 86.8941L91.5269 83.6123L90.3957 76.4727L95.5079 81.584L101.949 78.302Z" fill="#FFDA44"/>
</g>
<g clip-path="url(#clip1_211_71744)">
<path d="M163.25 177C201.358 177 232.25 146.108 232.25 108C232.25 69.8924 201.358 39 163.25 39C125.142 39 94.25 69.8924 94.25 108C94.25 146.108 125.142 177 163.25 177Z" fill="url(#paint0_linear_211_71744)"/>
<path d="M185.872 105.941C190.225 111.75 177.479 122.979 180.343 118.341H153.193C150.256 114.5 148.236 110.3 147.266 105.941H185.872Z" fill="url(#paint1_linear_211_71744)"/>
<path d="M178.003 139.412C174.144 142.488 169.973 145.15 165.558 147.353L163.398 148.44L161.226 147.357C140.799 137.106 128.613 119.451 128.613 100.102V77.3848H141.071V100.102C141.069 101.551 141.167 102.999 141.364 104.434C142.933 116.189 150.867 127.033 163.352 134.334C163.363 134.346 163.377 134.355 163.391 134.362C163.404 134.355 163.411 134.348 163.425 134.342L163.477 134.308C167.99 136.832 172.903 138.558 178.003 139.412Z" fill="url(#paint2_linear_211_71744)"/>
<path d="M197.799 105.941C197.222 110.432 195.991 114.813 194.144 118.946C190.729 126.621 185.24 133.605 178.01 139.415C172.914 138.561 168.002 136.834 163.492 134.311C165.121 133.351 166.701 132.308 168.225 131.188C168.377 131.09 168.523 130.983 168.663 130.869C177.102 124.792 183.182 115.986 185.873 105.941H197.799Z" fill="url(#paint3_linear_211_71744)"/>
<path d="M198.182 77.3887H141.07V89.8409H198.182V77.3887Z" fill="url(#paint4_linear_211_71744)"/>
<path d="M198.183 89.8418V100.102C198.183 100.526 198.17 100.952 198.157 101.377H185.691C185.704 100.951 185.71 100.526 185.71 100.102V89.8418H198.183Z" fill="url(#paint5_linear_211_71744)"/>
</g>
<g filter="url(#filter0_d_211_71744)">
<path d="M254.25 177C292.358 177 323.25 146.108 323.25 108C323.25 69.8924 292.358 39 254.25 39C216.142 39 185.25 69.8924 185.25 108C185.25 146.108 216.142 177 254.25 177Z" fill="white"/>
</g>
<path fill-rule="evenodd" clip-rule="evenodd" d="M242.543 59.7459C235.562 63.5523 225.735 68.8823 220.705 71.5912C215.674 74.3 211.116 76.8401 210.576 77.2352C209.706 77.8709 212.227 79.4772 232.564 91.2436L255.535 104.534L264.369 99.4032L273.204 94.2719L269.462 92.1181L265.719 89.9644L260.612 92.9095L255.505 95.8539L240.042 86.9289C231.538 82.0205 224.648 77.9497 224.732 77.883C225.743 77.0801 254.985 61.6045 255.493 61.6045C255.873 61.6045 264.722 66.2209 275.156 71.8632L294.127 82.1226L297.772 80.0836C299.798 78.9513 301.208 77.835 300.945 77.5723C300.685 77.3118 296.626 75.0191 291.925 72.4763C287.223 69.9341 277.121 64.4612 269.477 60.3149C261.832 56.168 255.499 52.787 255.406 52.8008C255.311 52.8146 249.523 55.94 242.543 59.7459ZM205.979 107.819L206.123 134.168L229.575 148.618L253.027 163.068L253.171 135.959C253.249 121.049 253.125 108.668 252.895 108.446C252.127 107.706 236.142 98.576 235.613 98.576C235.327 98.576 235.093 100.384 235.093 102.594V106.611L240.331 109.629L245.569 112.647L245.573 130.995C245.576 141.086 245.391 149.33 245.164 149.315C244.936 149.299 237.848 145.014 229.413 139.79L214.076 130.293L214.112 108.119L214.147 85.9466L210.315 83.7085C208.207 82.4768 206.337 81.4698 206.159 81.4698C205.982 81.4698 205.901 93.3267 205.979 107.819ZM281.17 94.949L257.994 108.363L257.843 118.645C257.761 124.299 257.861 128.926 258.066 128.926C258.272 128.926 260.016 128.045 261.941 126.967L265.443 125.009L265.447 118.828L265.449 112.647L280.483 103.988C288.752 99.2255 295.889 95.1879 296.345 95.0146C297.071 94.7393 297.157 96.872 297.044 112.503L296.916 130.306L277.317 142.375L257.718 154.445V158.823V163.201L259.235 162.295C260.07 161.797 270.685 155.265 282.825 147.779L304.898 134.168L305.041 107.819C305.12 93.3267 304.996 81.4841 304.765 81.5023C304.534 81.52 293.917 87.5712 281.17 94.949Z" fill="black"/>
<defs>
<filter id="filter0_d_211_71744" x="166.25" y="20" width="176" height="176" filterUnits="userSpaceOnUse" color-interpolation-filters="sRGB">
<feFlood flood-opacity="0" result="BackgroundImageFix"/>
<feColorMatrix in="SourceAlpha" type="matrix" values="0 0 0 0 0 0 0 0 0 0 0 0 0 0 0 0 0 0 127 0" result="hardAlpha"/>
<feOffset/>
<feGaussianBlur stdDeviation="9.5"/>
<feComposite in2="hardAlpha" operator="out"/>
<feColorMatrix type="matrix" values="0 0 0 0 0.14902 0 0 0 0 0.14902 0 0 0 0 0.164706 0 0 0 0.15 0"/>
<feBlend mode="normal" in2="BackgroundImageFix" result="effect1_dropShadow_211_71744"/>
<feBlend mode="normal" in="SourceGraphic" in2="effect1_dropShadow_211_71744" result="shape"/>
</filter>
<linearGradient id="paint0_linear_211_71744" x1="232.25" y1="39" x2="67.1178" y2="91.2489" gradientUnits="userSpaceOnUse">
<stop stop-color="#000756"/>
<stop offset="1" stop-color="#0042B8"/>
</linearGradient>
<linearGradient id="paint1_linear_211_71744" x1="198.455" y1="119.936" x2="150.95" y2="107.133" gradientUnits="userSpaceOnUse">
<stop offset="0.14" stop-color="#ADADAD"/>
<stop offset="0.29" stop-color="#CBCBCB"/>
<stop offset="0.43" stop-color="#E2E2E2"/>
<stop offset="0.59" stop-color="#F2F2F2"/>
<stop offset="0.77" stop-color="#FCFCFC"/>
<stop offset="1" stop-color="white"/>
</linearGradient>
<linearGradient id="paint2_linear_211_71744" x1="180.915" y1="160.502" x2="113.765" y2="66.8449" gradientUnits="userSpaceOnUse">
<stop stop-color="#ADADAD"/>
<stop offset="0.17" stop-color="#CBCBCB"/>
<stop offset="0.34" stop-color="#E2E2E2"/>
<stop offset="0.52" stop-color="#F2F2F2"/>
<stop offset="0.73" stop-color="#FCFCFC"/>
<stop offset="1" stop-color="white"/>
</linearGradient>
<linearGradient id="paint3_linear_211_71744" x1="164.266" y1="146.328" x2="196.16" y2="105.898" gradientUnits="userSpaceOnUse">
<stop offset="0.15" stop-color="#ADADAD"/>
<stop offset="0.29" stop-color="#CBCBCB"/>
<stop offset="0.44" stop-color="#E2E2E2"/>
<stop offset="0.6" stop-color="#F2F2F2"/>
<stop offset="0.77" stop-color="#FCFCFC"/>
<stop offset="1" stop-color="white"/>
</linearGradient>
<linearGradient id="paint4_linear_211_71744" x1="135.58" y1="115.959" x2="162.535" y2="90.3541" gradientUnits="userSpaceOnUse">
<stop offset="0.14" stop-color="#ADADAD"/>
<stop offset="0.43" stop-color="#C9C9C9"/>
<stop offset="1" stop-color="white"/>
</linearGradient>
<linearGradient id="paint5_linear_211_71744" x1="191.937" y1="83.3061" x2="191.937" y2="101.377" gradientUnits="userSpaceOnUse">
<stop offset="0.0895638" stop-color="#ADADAD"/>
<stop offset="0.240189" stop-color="#CBCBCB"/>
<stop offset="0.425047" stop-color="#E2E2E2"/>
<stop offset="0.536875" stop-color="#F2F2F2"/>
<stop offset="1" stop-color="white"/>
</linearGradient>
<clipPath id="clip0_211_71744">
<rect x="3.25" y="39" width="138" height="138" rx="69" fill="white"/>
</clipPath>
<clipPath id="clip1_211_71744">
<rect x="94.25" y="39" width="138" height="138" rx="69" fill="white"/>
</clipPath>
</defs>
</svg>
