<svg width="343" height="216" viewBox="0 0 343 216" fill="none" xmlns="http://www.w3.org/2000/svg">
<g clip-path="url(#clip0_211_71709)">
<path d="M72.75 177C110.858 177 141.75 146.108 141.75 108C141.75 69.8924 110.858 39 72.75 39C34.6424 39 3.75 69.8924 3.75 108C3.75 146.108 34.6424 177 72.75 177Z" fill="#F0F0F0"/>
<path d="M69.7539 108H141.754C141.754 101.772 140.924 95.7391 139.377 90H69.7539V108Z" fill="#D80027"/>
<path d="M69.7539 72.0001H131.626C127.403 65.1076 122.002 59.0154 115.705 54H69.7539V72.0001Z" fill="#D80027"/>
<path d="M72.7522 177C88.9912 177 103.917 171.387 115.704 162H29.8008C41.5874 171.387 56.5132 177 72.7522 177Z" fill="#D80027"/>
<path d="M13.8793 144H131.625C135.016 138.467 137.645 132.419 139.375 126H6.12891C7.85849 132.419 10.4883 138.467 13.8793 144Z" fill="#D80027"/>
<path d="M35.7121 49.7753H42L36.1512 54.0245L38.3853 60.9L32.5367 56.6508L26.6882 60.9L28.618 54.9603C23.4684 59.2499 18.9548 64.2756 15.2353 69.8753H17.25L13.527 72.5801C12.9469 73.5477 12.3906 74.5307 11.8575 75.5282L13.6353 81L10.3185 78.5901C9.49398 80.3369 8.73983 82.1231 8.06196 83.9465L10.0206 89.9754H17.25L11.4012 94.2245L13.6353 101.1L7.78677 96.8508L4.2834 99.3963C3.93274 102.215 3.75 105.086 3.75 108H72.75C72.75 69.8926 72.75 65.4 72.75 39C59.1193 39 46.4128 42.954 35.7121 49.7753ZM38.3853 101.1L32.5367 96.8508L26.6882 101.1L28.9223 94.2245L23.0735 89.9754H30.3029L32.5367 83.0999L34.7706 89.9754H42L36.1512 94.2245L38.3853 101.1ZM36.1512 74.1245L38.3853 81L32.5367 76.7508L26.6882 81L28.9223 74.1245L23.0735 69.8753H30.3029L32.5367 62.9999L34.7706 69.8753H42L36.1512 74.1245ZM63.1353 101.1L57.2867 96.8508L51.4382 101.1L53.6723 94.2245L47.8235 89.9754H55.0528L57.2867 83.0999L59.5206 89.9754H66.75L60.9011 94.2245L63.1353 101.1ZM60.9011 74.1245L63.1353 81L57.2867 76.7508L51.4382 81L53.6723 74.1245L47.8235 69.8753H55.0528L57.2867 62.9999L59.5206 69.8753H66.75L60.9011 74.1245ZM60.9011 54.0245L63.1353 60.9L57.2867 56.6508L51.4382 60.9L53.6723 54.0245L47.8235 49.7753H55.0528L57.2867 42.8998L59.5206 49.7753H66.75L60.9011 54.0245Z" fill="#0052B4"/>
</g>
<g clip-path="url(#clip1_211_71709)">
<path d="M163.75 177C201.858 177 232.75 146.108 232.75 108C232.75 69.8924 201.858 39 163.75 39C125.642 39 94.75 69.8924 94.75 108C94.75 146.108 125.642 177 163.75 177Z" fill="url(#paint0_linear_211_71709)"/>
<path d="M186.372 105.941C190.725 111.75 177.979 122.979 180.843 118.341H153.693C150.756 114.5 148.736 110.3 147.766 105.941H186.372Z" fill="url(#paint1_linear_211_71709)"/>
<path d="M178.503 139.412C174.644 142.488 170.473 145.15 166.058 147.353L163.898 148.44L161.726 147.357C141.299 137.106 129.113 119.451 129.113 100.102V77.3848H141.571V100.102C141.569 101.551 141.667 102.999 141.864 104.434C143.433 116.189 151.367 127.033 163.852 134.334C163.863 134.346 163.877 134.355 163.891 134.362C163.904 134.355 163.911 134.348 163.925 134.342L163.977 134.308C168.49 136.832 173.403 138.558 178.503 139.412Z" fill="url(#paint2_linear_211_71709)"/>
<path d="M198.299 105.941C197.722 110.432 196.491 114.813 194.644 118.946C191.229 126.621 185.74 133.605 178.51 139.415C173.414 138.561 168.502 136.834 163.992 134.311C165.621 133.351 167.201 132.308 168.725 131.188C168.877 131.09 169.023 130.983 169.163 130.869C177.602 124.792 183.682 115.986 186.373 105.941H198.299Z" fill="url(#paint3_linear_211_71709)"/>
<path d="M198.682 77.3887H141.57V89.8409H198.682V77.3887Z" fill="url(#paint4_linear_211_71709)"/>
<path d="M198.683 89.8418V100.102C198.683 100.526 198.67 100.952 198.657 101.377H186.191C186.204 100.951 186.21 100.526 186.21 100.102V89.8418H198.683Z" fill="url(#paint5_linear_211_71709)"/>
</g>
<g filter="url(#filter0_d_211_71709)">
<path d="M254.75 177C292.858 177 323.75 146.108 323.75 108C323.75 69.8923 292.858 39 254.75 39C216.642 39 185.75 69.8923 185.75 108C185.75 146.108 216.642 177 254.75 177Z" fill="white"/>
</g>
<path fill-rule="evenodd" clip-rule="evenodd" d="M243.043 59.7459C236.062 63.5523 226.235 68.8823 221.205 71.5912C216.174 74.3 211.616 76.8401 211.076 77.2352C210.206 77.8709 212.727 79.4772 233.064 91.2436L256.035 104.534L264.869 99.4032L273.704 94.2719L269.962 92.1181L266.219 89.9644L261.112 92.9095L256.005 95.8539L240.542 86.9289C232.038 82.0205 225.148 77.9497 225.232 77.883C226.243 77.0801 255.485 61.6045 255.993 61.6045C256.373 61.6045 265.222 66.2209 275.656 71.8632L294.627 82.1226L298.272 80.0836C300.298 78.9513 301.708 77.835 301.445 77.5723C301.185 77.3118 297.126 75.0191 292.425 72.4763C287.723 69.9341 277.621 64.4612 269.977 60.3149C262.332 56.168 255.999 52.787 255.906 52.8008C255.811 52.8146 250.023 55.94 243.043 59.7459ZM206.479 107.819L206.623 134.168L230.075 148.618L253.527 163.068L253.671 135.959C253.749 121.049 253.625 108.668 253.395 108.446C252.627 107.706 236.642 98.576 236.113 98.576C235.827 98.576 235.593 100.384 235.593 102.594V106.611L240.831 109.629L246.069 112.647L246.073 130.995C246.076 141.086 245.891 149.33 245.664 149.315C245.436 149.299 238.348 145.014 229.913 139.79L214.576 130.293L214.612 108.119L214.647 85.9466L210.815 83.7085C208.707 82.4768 206.837 81.4698 206.659 81.4698C206.482 81.4698 206.401 93.3267 206.479 107.819ZM281.67 94.949L258.494 108.363L258.343 118.645C258.261 124.299 258.361 128.926 258.566 128.926C258.772 128.926 260.516 128.045 262.441 126.967L265.943 125.009L265.947 118.828L265.949 112.647L280.983 103.988C289.252 99.2255 296.389 95.1879 296.845 95.0146C297.571 94.7393 297.657 96.872 297.544 112.503L297.416 130.306L277.817 142.375L258.218 154.445V158.823V163.201L259.735 162.295C260.57 161.797 271.185 155.265 283.325 147.779L305.398 134.168L305.541 107.819C305.62 93.3267 305.496 81.4841 305.265 81.5023C305.034 81.52 294.417 87.5712 281.67 94.949Z" fill="black"/>
<defs>
<filter id="filter0_d_211_71709" x="166.75" y="20" width="176" height="176" filterUnits="userSpaceOnUse" color-interpolation-filters="sRGB">
<feFlood flood-opacity="0" result="BackgroundImageFix"/>
<feColorMatrix in="SourceAlpha" type="matrix" values="0 0 0 0 0 0 0 0 0 0 0 0 0 0 0 0 0 0 127 0" result="hardAlpha"/>
<feOffset/>
<feGaussianBlur stdDeviation="9.5"/>
<feComposite in2="hardAlpha" operator="out"/>
<feColorMatrix type="matrix" values="0 0 0 0 0.14902 0 0 0 0 0.14902 0 0 0 0 0.164706 0 0 0 0.15 0"/>
<feBlend mode="normal" in2="BackgroundImageFix" result="effect1_dropShadow_211_71709"/>
<feBlend mode="normal" in="SourceGraphic" in2="effect1_dropShadow_211_71709" result="shape"/>
</filter>
<linearGradient id="paint0_linear_211_71709" x1="232.75" y1="39" x2="67.6178" y2="91.2489" gradientUnits="userSpaceOnUse">
<stop stop-color="#000756"/>
<stop offset="1" stop-color="#0042B8"/>
</linearGradient>
<linearGradient id="paint1_linear_211_71709" x1="198.955" y1="119.936" x2="151.45" y2="107.133" gradientUnits="userSpaceOnUse">
<stop offset="0.14" stop-color="#ADADAD"/>
<stop offset="0.29" stop-color="#CBCBCB"/>
<stop offset="0.43" stop-color="#E2E2E2"/>
<stop offset="0.59" stop-color="#F2F2F2"/>
<stop offset="0.77" stop-color="#FCFCFC"/>
<stop offset="1" stop-color="white"/>
</linearGradient>
<linearGradient id="paint2_linear_211_71709" x1="181.415" y1="160.502" x2="114.265" y2="66.8449" gradientUnits="userSpaceOnUse">
<stop stop-color="#ADADAD"/>
<stop offset="0.17" stop-color="#CBCBCB"/>
<stop offset="0.34" stop-color="#E2E2E2"/>
<stop offset="0.52" stop-color="#F2F2F2"/>
<stop offset="0.73" stop-color="#FCFCFC"/>
<stop offset="1" stop-color="white"/>
</linearGradient>
<linearGradient id="paint3_linear_211_71709" x1="164.766" y1="146.328" x2="196.66" y2="105.898" gradientUnits="userSpaceOnUse">
<stop offset="0.15" stop-color="#ADADAD"/>
<stop offset="0.29" stop-color="#CBCBCB"/>
<stop offset="0.44" stop-color="#E2E2E2"/>
<stop offset="0.6" stop-color="#F2F2F2"/>
<stop offset="0.77" stop-color="#FCFCFC"/>
<stop offset="1" stop-color="white"/>
</linearGradient>
<linearGradient id="paint4_linear_211_71709" x1="136.08" y1="115.959" x2="163.035" y2="90.3541" gradientUnits="userSpaceOnUse">
<stop offset="0.14" stop-color="#ADADAD"/>
<stop offset="0.43" stop-color="#C9C9C9"/>
<stop offset="1" stop-color="white"/>
</linearGradient>
<linearGradient id="paint5_linear_211_71709" x1="192.437" y1="83.3061" x2="192.437" y2="101.377" gradientUnits="userSpaceOnUse">
<stop offset="0.0895638" stop-color="#ADADAD"/>
<stop offset="0.240189" stop-color="#CBCBCB"/>
<stop offset="0.425047" stop-color="#E2E2E2"/>
<stop offset="0.536875" stop-color="#F2F2F2"/>
<stop offset="1" stop-color="white"/>
</linearGradient>
<clipPath id="clip0_211_71709">
<rect x="3.75" y="39" width="138" height="138" rx="69" fill="white"/>
</clipPath>
<clipPath id="clip1_211_71709">
<rect x="94.75" y="39" width="138" height="138" rx="69" fill="white"/>
</clipPath>
</defs>
</svg>
