<svg width="177" height="176" viewBox="0 0 177 176" fill="none" xmlns="http://www.w3.org/2000/svg">
<g filter="url(#filter0_d_211_71741)">
<path d="M88.75 157C126.858 157 157.75 126.108 157.75 88C157.75 49.8923 126.858 19 88.75 19C50.6423 19 19.75 49.8923 19.75 88C19.75 126.108 50.6423 157 88.75 157Z" fill="white"/>
</g>
<path fill-rule="evenodd" clip-rule="evenodd" d="M77.0427 39.7459C70.0622 43.5523 60.235 48.8823 55.2046 51.5912C50.1743 54.3 45.6163 56.8401 45.0755 57.2352C44.2059 57.8709 46.7266 59.4772 67.0637 71.2436L90.0347 84.534L98.8694 79.4032L107.704 74.2719L103.962 72.1181L100.219 69.9644L95.1117 72.9095L90.005 75.8539L74.5424 66.9289C66.0379 62.0205 59.1479 57.9497 59.2318 57.883C60.2427 57.0801 89.4854 41.6045 89.9926 41.6045C90.3735 41.6045 99.222 46.2209 109.656 51.8632L128.627 62.1226L132.272 60.0836C134.298 58.9513 135.708 57.835 135.445 57.5723C135.185 57.3118 131.126 55.0191 126.425 52.4763C121.723 49.9341 111.621 44.4612 103.977 40.3149C96.3316 36.168 89.9995 32.787 89.9057 32.8008C89.8111 32.8146 84.0231 35.94 77.0427 39.7459ZM40.4794 87.8189L40.6229 114.168L64.075 128.618L87.5272 143.068L87.6707 115.959C87.749 101.049 87.6249 88.668 87.3947 88.4458C86.6272 87.7058 70.6416 78.576 70.113 78.576C69.8271 78.576 69.5932 80.3838 69.5932 82.5938V86.611L74.831 89.6292L80.0694 92.6472L80.0732 110.995C80.076 121.086 79.8911 129.33 79.6638 129.315C79.4365 129.299 72.3484 125.014 63.9128 119.79L48.5757 110.293L48.6115 88.1194L48.6474 65.9466L44.8151 63.7085C42.7071 62.4768 40.837 61.4698 40.6593 61.4698C40.4817 61.4698 40.4005 73.3267 40.4794 87.8189ZM115.67 74.949L92.4938 88.363L92.3434 98.6447C92.2606 104.299 92.3614 108.926 92.5663 108.926C92.7719 108.926 94.5155 108.045 96.4413 106.967L99.9431 105.009L99.9465 98.8282L99.9493 92.6472L114.983 83.9883C123.252 79.2255 130.389 75.1879 130.845 75.0146C131.571 74.7393 131.657 76.872 131.544 92.503L131.416 110.306L111.817 122.375L92.2178 134.445V138.823V143.201L93.7352 142.295C94.5701 141.797 105.185 135.265 117.325 127.779L139.398 114.168L139.541 87.8189C139.62 73.3267 139.496 61.4841 139.265 61.5023C139.034 61.52 128.417 67.5712 115.67 74.949Z" fill="black"/>
<defs>
<filter id="filter0_d_211_71741" x="0.75" y="0" width="176" height="176" filterUnits="userSpaceOnUse" color-interpolation-filters="sRGB">
<feFlood flood-opacity="0" result="BackgroundImageFix"/>
<feColorMatrix in="SourceAlpha" type="matrix" values="0 0 0 0 0 0 0 0 0 0 0 0 0 0 0 0 0 0 127 0" result="hardAlpha"/>
<feOffset/>
<feGaussianBlur stdDeviation="9.5"/>
<feComposite in2="hardAlpha" operator="out"/>
<feColorMatrix type="matrix" values="0 0 0 0 0.14902 0 0 0 0 0.14902 0 0 0 0 0.164706 0 0 0 0.15 0"/>
<feBlend mode="normal" in2="BackgroundImageFix" result="effect1_dropShadow_211_71741"/>
<feBlend mode="normal" in="SourceGraphic" in2="effect1_dropShadow_211_71741" result="shape"/>
</filter>
</defs>
</svg>
