<svg width="400" height="400" viewBox="0 0 400 400" fill="none" xmlns="http://www.w3.org/2000/svg">
<path d="M200 400C310.457 400 400 310.457 400 200C400 89.543 310.457 0 200 0C89.543 0 0 89.543 0 200C0 310.457 89.543 400 200 400Z" fill="white"/>
<path fill-rule="evenodd" clip-rule="evenodd" d="M166.068 60.1309C145.835 71.1639 117.35 86.6131 102.769 94.4649C88.1886 102.317 74.977 109.679 73.4096 110.824C70.8888 112.667 78.1952 117.323 137.143 151.428L203.726 189.951L229.334 175.08L254.942 160.206L244.094 153.963L233.246 147.721L218.442 156.257L203.64 164.792L158.821 138.922C134.17 124.695 114.199 112.896 114.442 112.702C117.372 110.375 202.134 65.5179 203.604 65.5179C204.708 65.5179 230.356 78.8989 260.6 95.2535L315.588 124.991L326.154 119.081C332.026 115.799 336.112 112.563 335.35 111.802C334.596 111.047 322.83 104.401 309.204 97.0305C295.576 89.6617 266.296 73.7983 244.138 61.7799C221.978 49.7599 203.624 39.9601 203.352 40.0001C203.078 40.0401 186.301 49.0993 166.068 60.1309ZM60.0876 199.473L60.5034 275.848L128.481 317.73L196.458 359.614L196.874 281.038C197.101 237.822 196.741 201.934 196.074 201.29C193.849 199.145 147.514 172.682 145.982 172.682C145.153 172.682 144.475 177.922 144.475 184.328V195.972L159.657 204.72L174.841 213.468L174.852 266.65C174.86 295.9 174.324 319.796 173.665 319.752C173.007 319.706 152.461 307.284 128.01 292.142L83.555 264.614L83.6588 200.344L83.7628 136.075L72.6546 129.588C66.5446 126.018 61.124 123.099 60.609 123.099C60.094 123.099 59.8588 157.466 60.0876 199.473ZM278.03 162.169L210.854 201.05L210.418 230.852C210.178 247.242 210.47 260.652 211.064 260.652C211.66 260.652 216.714 258.098 222.296 254.976L232.446 249.3L232.456 231.384L232.464 213.468L276.04 188.37C300.008 174.565 320.696 162.861 322.016 162.359C324.122 161.561 324.37 167.743 324.044 213.05L323.672 264.652L266.864 299.636L210.054 334.62V347.31V360L214.452 357.376C216.872 355.932 247.64 336.998 282.828 315.3L346.808 275.848L347.224 199.473C347.452 157.466 347.092 123.14 346.424 123.193C345.754 123.244 314.978 140.784 278.03 162.169Z" fill="black"/>
</svg>
