<svg width="120" height="120" viewBox="0 0 120 120" fill="none" xmlns="http://www.w3.org/2000/svg">
<rect width="120" height="120" rx="60" fill="#202944"/>
<g clip-path="url(#clip0_262_74945)">
<rect x="21.9102" y="22.9824" width="78.3247" height="75.6424" fill="white"/>
<path d="M14.4023 14.3984V105.598H105.602V14.3984H14.4023ZM46.2853 24.9776H54.8121V33.7328H46.2853V24.9776ZM24.7828 24.9776H33.6804V33.7328H24.7828V24.9776ZM33.3097 46.136V54.8912H24.4121V46.136H33.3097ZM31.0853 94.2896H27.378V91.0064H30.7145V94.2896H31.0853ZM33.6804 76.7792H24.7828V68.3888H33.6804V76.7792ZM52.5877 94.2896H49.2511V91.0064H52.5877V94.2896ZM52.5877 73.8608H49.2511V70.5776H52.5877V73.8608ZM55.1828 55.256H46.2853V46.5008H55.1828V55.256ZM74.0901 94.2896H70.7536V91.0064H74.0901V94.2896ZM74.0901 73.8608H70.7536V70.5776H74.0901V73.8608ZM74.0901 52.3376H70.7536V49.0544H74.0901V52.3376ZM77.056 33.7328H68.1584V24.9776H77.056V33.7328ZM95.9633 94.2896H92.6267V91.0064H95.9633V94.2896ZM95.9633 73.8608H92.6267V70.5776H95.9633V73.8608ZM95.9633 52.3376H92.6267V49.0544H95.9633V52.3376ZM95.9633 31.1792H92.6267V27.896H95.9633V31.1792Z" fill="#202944"/>
</g>
<defs>
<clipPath id="clip0_262_74945">
<rect x="14.4023" y="14.3984" width="91.2" height="91.2" rx="19.2" fill="white"/>
</clipPath>
</defs>
</svg>
