<svg width="380" height="380" viewBox="0 0 380 380" fill="none" xmlns="http://www.w3.org/2000/svg">
<rect width="380" height="380" rx="190" fill="#202944"/>
<g clip-path="url(#clip0_262_74916)">
<rect x="69.3867" y="72.7852" width="248.028" height="239.534" fill="white"/>
<path d="M45.6016 45.6016V334.402H334.402V45.6016H45.6016ZM146.564 79.1024H173.566V106.827H146.564V79.1024ZM78.4731 79.1024H106.649V106.827H78.4731V79.1024ZM105.475 146.104V173.829H77.2991V146.104H105.475ZM98.4308 298.59H86.691V288.194H97.2568V298.59H98.4308ZM106.649 243.141H78.4731V216.571H106.649V243.141ZM166.522 298.59H155.956V288.194H166.522V298.59ZM166.522 233.899H155.956V223.502H166.522V233.899ZM174.74 174.984H146.564V147.259H174.74V174.984ZM234.613 298.59H224.047V288.194H234.613V298.59ZM234.613 233.899H224.047V223.502H234.613V233.899ZM234.613 165.742H224.047V155.346H234.613V165.742ZM244.005 106.827H215.829V79.1024H244.005V106.827ZM303.878 298.59H293.312V288.194H303.878V298.59ZM303.878 233.899H293.312V223.502H303.878V233.899ZM303.878 165.742H293.312V155.346H303.878V165.742ZM303.878 98.7408H293.312V88.344H303.878V98.7408Z" fill="#202944"/>
</g>
<defs>
<clipPath id="clip0_262_74916">
<rect x="45.6016" y="45.6016" width="288.8" height="288.8" rx="60.8" fill="white"/>
</clipPath>
</defs>
</svg>
