<svg width="400" height="400" viewBox="0 0 400 400" fill="none" xmlns="http://www.w3.org/2000/svg">
    <path d="M190.681 220.381C147.854 231.509 117.171 256.703 117.171 256.703C135.288 283.092 165.748 300.414 200.276 300.414C249.514 300.414 290.485 265.198 299.163 218.687C280.046 215.037 262.525 213.426 246.364 213.426C225.758 213.426 207.359 216.043 190.681 220.381Z" fill="url(#paint0_linear)"/>
    <path d="M330.018 135.424C339.69 154.874 345.134 176.802 345.134 199.996C345.134 280.157 280.157 345.134 200.003 345.134C176.842 345.134 154.948 339.706 135.526 330.062L83.8769 362.85C116.615 386.239 156.704 400 200.003 400C310.457 400 400 310.456 400 199.996C400 156.713 386.25 116.636 362.873 83.897L330.018 135.424Z" fill="url(#paint1_linear)"/>
    <path d="M63.1434 248.425C57.788 233.281 54.8713 216.981 54.8713 199.998C54.8713 119.843 119.848 54.8655 200.002 54.8655C223.469 54.8655 245.635 60.4377 265.251 70.3266L316.989 37.7657C284.09 14.0048 243.685 -0.000671387 200.002 -0.000671387C89.543 -0.000671387 -2.40771e-05 89.543 -1.25126e-05 199.998C-7.82155e-06 244.803 14.7331 286.164 39.6216 319.508C68.2711 266.942 112.104 234.192 151.014 216.453C229.28 180.77 300.862 200.275 300.862 200.275C300.862 144.97 255.829 100.137 200.28 100.137C144.725 100.137 99.6928 144.97 99.6928 200.275C99.6928 204.931 100.015 209.509 100.632 213.998C100.632 213.998 79.3987 229.636 63.1434 248.425Z" fill="#16203A"/>
    <defs>
        <linearGradient id="paint0_linear" x1="127.428" y1="292.961" x2="346.927" y2="198.607" gradientUnits="userSpaceOnUse">
            <stop stop-color="#00ADEF"/>
            <stop offset="0.926131" stop-color="#6ECB8E"/>
            <stop offset="1" stop-color="#6ECB8E"/>
        </linearGradient>
        <linearGradient id="paint1_linear" x1="208.844" y1="360.893" x2="364.615" y2="131.819" gradientUnits="userSpaceOnUse">
            <stop stop-color="#00ADEF"/>
            <stop offset="1" stop-color="#6ECB8E"/>
        </linearGradient>
    </defs>
</svg>
