<svg width="120" height="120" viewBox="0 0 120 120" fill="none" xmlns="http://www.w3.org/2000/svg">
    <path d="M57.2043 66.1132C44.3562 69.4515 35.1514 77.0098 35.1514 77.0098C40.5863 84.9264 49.7245 90.123 60.0826 90.123C74.8541 90.123 87.1455 79.5581 89.7488 65.6049C84.0139 64.5099 78.7573 64.0266 73.9091 64.0266C67.7275 64.0266 62.2076 64.8116 57.2043 66.1132Z" fill="url(#paint0_linear)"/>
    <path d="M99.0052 40.6273C101.907 46.4623 103.54 53.0406 103.54 59.9988C103.54 84.047 84.0472 103.54 60.0009 103.54C53.0527 103.54 46.4844 101.912 40.6578 99.0185L25.1631 108.855C34.9846 115.872 47.0111 120 60.0009 120C93.137 120 120 93.1369 120 59.9988C120 47.0139 115.875 34.9907 108.862 25.1691L99.0052 40.6273Z" fill="url(#paint1_linear)"/>
    <path d="M18.943 74.5287C17.3364 69.9854 16.4614 65.0954 16.4614 60.0005C16.4614 35.954 35.9544 16.4608 60.0007 16.4608C67.0406 16.4608 73.6905 18.1325 79.5754 21.0991L95.0968 11.3309C85.227 4.20261 73.1055 0.000961304 60.0007 0.000961304C26.8629 0.000961304 -7.22314e-06 26.8641 -3.75379e-06 60.0005C-2.34647e-06 73.442 4.41993 85.8503 11.8865 95.8535C20.4813 80.0836 33.6311 70.2587 45.3043 64.9371C68.7839 54.2322 90.2586 60.0838 90.2586 60.0838C90.2586 43.4923 76.7488 30.0424 60.084 30.0424C43.4176 30.0424 29.9079 43.4923 29.9079 60.0838C29.9079 61.4805 30.0045 62.8538 30.1895 64.2004C30.1895 64.2004 23.8196 68.8921 18.943 74.5287Z" fill="#16203A"/>
    <defs>
        <linearGradient id="paint0_linear" x1="38.2285" y1="87.8871" x2="104.078" y2="59.581" gradientUnits="userSpaceOnUse">
            <stop stop-color="#00ADEF"/>
            <stop offset="0.926131" stop-color="#6ECB8E"/>
            <stop offset="1" stop-color="#6ECB8E"/>
        </linearGradient>
        <linearGradient id="paint1_linear" x1="62.6533" y1="108.268" x2="109.385" y2="39.5458" gradientUnits="userSpaceOnUse">
            <stop stop-color="#00ADEF"/>
            <stop offset="1" stop-color="#6ECB8E"/>
        </linearGradient>
    </defs>
</svg>
