<svg width="329" height="216" viewBox="0 0 329 216" fill="none" xmlns="http://www.w3.org/2000/svg">
<g clip-path="url(#clip0_41_70085)">
<path d="M69.2656 177C107.373 177 138.266 146.108 138.266 108C138.266 69.8924 107.373 39 69.2656 39C31.158 39 0.265625 69.8924 0.265625 108C0.265625 146.108 31.158 177 69.2656 177Z" fill="#0052B4"/>
<path d="M69.266 66L71.5001 72.8755H78.7289L72.8804 77.1246L75.1145 84.0001L69.266 79.7507L63.4171 84.0001L65.6513 77.1246L59.8027 72.8755H67.0318L69.266 66Z" fill="#FFDA44"/>
<path d="M39.5676 78.3022L46.0094 81.584L51.1211 76.4727L49.9898 83.6125L56.4314 86.8946L49.2912 88.0256L48.1602 95.166L44.8782 88.7245L37.7383 89.8557L42.8499 84.744L39.5676 78.3022Z" fill="#FFDA44"/>
<path d="M27.2656 108L34.1411 105.766V98.5371L38.39 104.386L45.2657 102.152L41.016 108L45.2657 113.849L38.39 111.615L34.1411 117.464V110.234L27.2656 108Z" fill="#FFDA44"/>
<path d="M39.5676 137.699L42.8497 131.258L37.7383 126.146L44.8784 127.277L48.16 120.836L49.2912 127.976L56.4311 129.107L49.9904 132.389L51.1211 139.529L46.0094 134.417L39.5676 137.699Z" fill="#FFDA44"/>
<path d="M69.266 150L67.0316 143.124H59.8027L65.6516 138.875L63.4171 132L69.266 136.249L75.1145 132L72.8804 138.875L78.7289 143.124H71.4999L69.266 150Z" fill="#FFDA44"/>
<path d="M98.9648 137.699L92.5233 134.418L87.4113 139.529L88.5426 132.389L82.1016 129.107L89.2414 127.976L90.3724 120.836L93.6542 127.277L100.794 126.146L95.6824 131.258L98.9648 137.699Z" fill="#FFDA44"/>
<path d="M111.265 108L104.39 110.234V117.464L100.141 111.615L93.2656 113.849L97.5148 108L93.2656 102.152L100.141 104.386L104.39 98.5371V105.766L111.265 108Z" fill="#FFDA44"/>
<path d="M98.9648 78.302L95.6827 84.7438L100.794 89.8554L93.6539 88.7239L90.3724 95.1655L89.2414 88.0253L82.1016 86.8941L88.5426 83.6123L87.4113 76.4727L92.5235 81.584L98.9648 78.302Z" fill="#FFDA44"/>
</g>
<g clip-path="url(#clip1_41_70085)">
<path d="M160.266 177C198.373 177 229.266 146.108 229.266 108C229.266 69.8924 198.373 39 160.266 39C122.158 39 91.2656 69.8924 91.2656 108C91.2656 146.108 122.158 177 160.266 177Z" fill="url(#paint0_linear_41_70085)"/>
<path d="M182.888 105.941C187.241 111.75 174.494 122.979 177.359 118.341H150.208C147.271 114.5 145.252 110.3 144.281 105.941H182.888Z" fill="url(#paint1_linear_41_70085)"/>
<path d="M175.018 139.412C171.16 142.488 166.989 145.15 162.573 147.353L160.414 148.44L158.241 147.357C137.815 137.106 125.629 119.451 125.629 100.102V77.3848H138.087V100.102C138.085 101.551 138.182 102.999 138.379 104.434C139.948 116.189 147.883 127.033 160.367 134.334C160.379 134.346 160.392 134.355 160.407 134.362C160.42 134.355 160.427 134.348 160.44 134.342L160.493 134.308C165.005 136.832 169.919 138.558 175.018 139.412Z" fill="url(#paint2_linear_41_70085)"/>
<path d="M194.813 105.941C194.236 110.432 193.005 114.813 191.158 118.946C187.742 126.621 182.254 133.605 175.024 139.415C169.927 138.561 165.016 136.834 160.506 134.311C162.135 133.351 163.715 132.308 165.239 131.188C165.39 131.09 165.537 130.983 165.677 130.869C174.116 124.792 180.196 115.986 182.887 105.941H194.813Z" fill="url(#paint3_linear_41_70085)"/>
<path d="M195.2 77.3887H138.088V89.8409H195.2V77.3887Z" fill="url(#paint4_linear_41_70085)"/>
<path d="M195.199 89.8418V100.102C195.199 100.526 195.186 100.952 195.172 101.377H182.707C182.72 100.951 182.726 100.526 182.726 100.102V89.8418H195.199Z" fill="url(#paint5_linear_41_70085)"/>
</g>
<path d="M270.592 39V72.2075L299.413 55.627L270.592 39Z" fill="url(#paint6_linear_41_70085)"/>
<path opacity="0.9" d="M299.412 55.625V88.8325L328.233 72.2054L299.412 55.625Z" fill="url(#paint7_linear_41_70085)"/>
<path opacity="0.8" d="M270.592 72.207V105.415L299.413 88.8341L270.592 72.207Z" fill="url(#paint8_linear_41_70085)"/>
<path opacity="0.8" d="M299.412 88.8359V122.043L328.233 105.416L299.412 88.8359Z" fill="url(#paint9_linear_41_70085)"/>
<path opacity="0.8" d="M270.592 105.418V138.625L299.413 122.045L270.592 105.418Z" fill="url(#paint10_linear_41_70085)"/>
<path d="M299.412 122.043V155.25L328.233 138.623L299.412 122.043Z" fill="url(#paint11_linear_41_70085)"/>
<path opacity="0.4" d="M196.096 71.0918V104.299L224.917 87.6722L196.096 71.0918Z" fill="url(#paint12_linear_41_70085)"/>
<path opacity="0.2" d="M232.459 83.4316V116.639L261.233 100.059L232.459 83.4316Z" fill="url(#paint13_linear_41_70085)"/>
<path opacity="0.3" d="M211.086 104.438V137.645L239.907 121.018L211.086 104.438Z" fill="url(#paint14_linear_41_70085)"/>
<path opacity="0.9" d="M230.082 129.496V162.704L258.856 146.077L230.082 129.496Z" fill="url(#paint15_linear_41_70085)"/>
<path opacity="0.7" d="M270.359 143.793V177L299.134 160.373L270.359 143.793Z" fill="url(#paint16_linear_41_70085)"/>
<path opacity="0.9" d="M237.254 67.041V100.248L266.028 83.668L237.254 67.041Z" fill="url(#paint17_linear_41_70085)"/>
<path opacity="0.8" d="M270.591 39V72.2075L241.77 55.627L270.591 39Z" fill="url(#paint18_linear_41_70085)"/>
<path opacity="0.6" d="M237.255 53.1094V86.3169L208.434 69.6898L237.255 53.1094Z" fill="url(#paint19_linear_41_70085)"/>
<path opacity="0.6" d="M266.075 69.5508V102.758L237.254 86.1312L266.075 69.5508Z" fill="url(#paint20_linear_41_70085)"/>
<path opacity="0.95" d="M232.319 83.4316V116.639L203.498 100.059L232.319 83.4316Z" fill="url(#paint21_linear_41_70085)"/>
<path opacity="0.6" d="M270.591 105.418V138.625L241.816 122.045L270.591 105.418Z" fill="url(#paint22_linear_41_70085)"/>
<path opacity="0.55" d="M211.087 113.148V146.356L182.266 129.729L211.087 113.148Z" fill="url(#paint23_linear_41_70085)"/>
<path d="M328.233 72.207V105.415L299.412 88.8341L328.233 72.207Z" fill="url(#paint24_linear_41_70085)"/>
<path opacity="0.95" d="M299.413 88.8359V122.043L270.592 105.416L299.413 88.8359Z" fill="url(#paint25_linear_41_70085)"/>
<path opacity="0.9" d="M328.233 105.418V138.625L299.412 122.045L328.233 105.418Z" fill="url(#paint26_linear_41_70085)"/>
<path opacity="0.7" d="M299.413 122.043V155.25L270.592 138.623L299.413 122.043Z" fill="url(#paint27_linear_41_70085)"/>
<path opacity="0.4" d="M264.212 135.875V169.082L235.391 152.502L264.212 135.875Z" fill="url(#paint28_linear_41_70085)"/>
<path d="M299.413 55.625V88.8325L270.592 72.2054L299.413 55.625Z" fill="url(#paint29_linear_41_70085)"/>
<defs>
<linearGradient id="paint0_linear_41_70085" x1="229.266" y1="39" x2="64.1334" y2="91.2489" gradientUnits="userSpaceOnUse">
<stop stop-color="#000756"/>
<stop offset="1" stop-color="#0042B8"/>
</linearGradient>
<linearGradient id="paint1_linear_41_70085" x1="195.47" y1="119.936" x2="147.966" y2="107.133" gradientUnits="userSpaceOnUse">
<stop offset="0.14" stop-color="#ADADAD"/>
<stop offset="0.29" stop-color="#CBCBCB"/>
<stop offset="0.43" stop-color="#E2E2E2"/>
<stop offset="0.59" stop-color="#F2F2F2"/>
<stop offset="0.77" stop-color="#FCFCFC"/>
<stop offset="1" stop-color="white"/>
</linearGradient>
<linearGradient id="paint2_linear_41_70085" x1="177.931" y1="160.502" x2="110.78" y2="66.8449" gradientUnits="userSpaceOnUse">
<stop stop-color="#ADADAD"/>
<stop offset="0.17" stop-color="#CBCBCB"/>
<stop offset="0.34" stop-color="#E2E2E2"/>
<stop offset="0.52" stop-color="#F2F2F2"/>
<stop offset="0.73" stop-color="#FCFCFC"/>
<stop offset="1" stop-color="white"/>
</linearGradient>
<linearGradient id="paint3_linear_41_70085" x1="161.279" y1="146.328" x2="193.174" y2="105.898" gradientUnits="userSpaceOnUse">
<stop offset="0.15" stop-color="#ADADAD"/>
<stop offset="0.29" stop-color="#CBCBCB"/>
<stop offset="0.44" stop-color="#E2E2E2"/>
<stop offset="0.6" stop-color="#F2F2F2"/>
<stop offset="0.77" stop-color="#FCFCFC"/>
<stop offset="1" stop-color="white"/>
</linearGradient>
<linearGradient id="paint4_linear_41_70085" x1="132.598" y1="115.959" x2="159.552" y2="90.3541" gradientUnits="userSpaceOnUse">
<stop offset="0.14" stop-color="#ADADAD"/>
<stop offset="0.43" stop-color="#C9C9C9"/>
<stop offset="1" stop-color="white"/>
</linearGradient>
<linearGradient id="paint5_linear_41_70085" x1="188.953" y1="83.3061" x2="188.953" y2="101.377" gradientUnits="userSpaceOnUse">
<stop offset="0.0895638" stop-color="#ADADAD"/>
<stop offset="0.240189" stop-color="#CBCBCB"/>
<stop offset="0.425047" stop-color="#E2E2E2"/>
<stop offset="0.536875" stop-color="#F2F2F2"/>
<stop offset="1" stop-color="white"/>
</linearGradient>
<linearGradient id="paint6_linear_41_70085" x1="-2046.19" y1="39.0001" x2="8101.49" y2="5583.96" gradientUnits="userSpaceOnUse">
<stop stop-color="#1CFE95"/>
<stop offset="1" stop-color="#00D3DC"/>
</linearGradient>
<linearGradient id="paint7_linear_41_70085" x1="-2017.37" y1="55.6251" x2="8130.31" y2="5600.58" gradientUnits="userSpaceOnUse">
<stop stop-color="#1CFE95"/>
<stop offset="1" stop-color="#00D3DC"/>
</linearGradient>
<linearGradient id="paint8_linear_41_70085" x1="-2046.19" y1="72.2071" x2="8101.49" y2="5617.16" gradientUnits="userSpaceOnUse">
<stop stop-color="#1CFE95"/>
<stop offset="1" stop-color="#00D3DC"/>
</linearGradient>
<linearGradient id="paint9_linear_41_70085" x1="-2017.37" y1="88.836" x2="8130.31" y2="5633.79" gradientUnits="userSpaceOnUse">
<stop stop-color="#1CFE95"/>
<stop offset="1" stop-color="#00D3DC"/>
</linearGradient>
<linearGradient id="paint10_linear_41_70085" x1="-2046.19" y1="105.418" x2="8101.49" y2="5650.38" gradientUnits="userSpaceOnUse">
<stop stop-color="#1CFE95"/>
<stop offset="1" stop-color="#00D3DC"/>
</linearGradient>
<linearGradient id="paint11_linear_41_70085" x1="-2017.37" y1="122.043" x2="8130.31" y2="5667" gradientUnits="userSpaceOnUse">
<stop stop-color="#1CFE95"/>
<stop offset="1" stop-color="#00D3DC"/>
</linearGradient>
<linearGradient id="paint12_linear_41_70085" x1="-2120.68" y1="71.0919" x2="8026.99" y2="5616.05" gradientUnits="userSpaceOnUse">
<stop stop-color="#1CFE95"/>
<stop offset="1" stop-color="#00D3DC"/>
</linearGradient>
<linearGradient id="paint13_linear_41_70085" x1="-2068.46" y1="83.4316" x2="8041.18" y2="5616.55" gradientUnits="userSpaceOnUse">
<stop stop-color="#1CFE95"/>
<stop offset="1" stop-color="#00D3DC"/>
</linearGradient>
<linearGradient id="paint14_linear_41_70085" x1="-2105.69" y1="104.438" x2="8041.98" y2="5649.4" gradientUnits="userSpaceOnUse">
<stop stop-color="#1CFE95"/>
<stop offset="1" stop-color="#00D3DC"/>
</linearGradient>
<linearGradient id="paint15_linear_41_70085" x1="-2070.84" y1="129.496" x2="8038.8" y2="5662.61" gradientUnits="userSpaceOnUse">
<stop stop-color="#1CFE95"/>
<stop offset="1" stop-color="#00D3DC"/>
</linearGradient>
<linearGradient id="paint16_linear_41_70085" x1="-2030.56" y1="143.793" x2="8079.08" y2="5676.91" gradientUnits="userSpaceOnUse">
<stop stop-color="#1CFE95"/>
<stop offset="1" stop-color="#00D3DC"/>
</linearGradient>
<linearGradient id="paint17_linear_41_70085" x1="-2063.67" y1="67.0409" x2="8045.97" y2="5600.16" gradientUnits="userSpaceOnUse">
<stop stop-color="#1CFE95"/>
<stop offset="1" stop-color="#00D3DC"/>
</linearGradient>
<linearGradient id="paint18_linear_41_70085" x1="-2075.01" y1="39.0001" x2="8072.66" y2="5583.96" gradientUnits="userSpaceOnUse">
<stop stop-color="#1CFE95"/>
<stop offset="1" stop-color="#00D3DC"/>
</linearGradient>
<linearGradient id="paint19_linear_41_70085" x1="-2108.34" y1="53.1095" x2="8039.33" y2="5598.07" gradientUnits="userSpaceOnUse">
<stop stop-color="#1CFE95"/>
<stop offset="1" stop-color="#00D3DC"/>
</linearGradient>
<linearGradient id="paint20_linear_41_70085" x1="-2079.52" y1="69.5509" x2="8068.15" y2="5614.51" gradientUnits="userSpaceOnUse">
<stop stop-color="#1CFE95"/>
<stop offset="1" stop-color="#00D3DC"/>
</linearGradient>
<linearGradient id="paint21_linear_41_70085" x1="-2113.28" y1="83.4317" x2="8034.39" y2="5628.39" gradientUnits="userSpaceOnUse">
<stop stop-color="#1CFE95"/>
<stop offset="1" stop-color="#00D3DC"/>
</linearGradient>
<linearGradient id="paint22_linear_41_70085" x1="-2059.11" y1="105.418" x2="8050.53" y2="5638.53" gradientUnits="userSpaceOnUse">
<stop stop-color="#1CFE95"/>
<stop offset="1" stop-color="#00D3DC"/>
</linearGradient>
<linearGradient id="paint23_linear_41_70085" x1="-2134.51" y1="113.149" x2="8013.16" y2="5658.11" gradientUnits="userSpaceOnUse">
<stop stop-color="#1CFE95"/>
<stop offset="1" stop-color="#00D3DC"/>
</linearGradient>
<linearGradient id="paint24_linear_41_70085" x1="-2017.37" y1="72.2071" x2="8130.31" y2="5617.16" gradientUnits="userSpaceOnUse">
<stop stop-color="#1CFE95"/>
<stop offset="1" stop-color="#00D3DC"/>
</linearGradient>
<linearGradient id="paint25_linear_41_70085" x1="-2046.19" y1="88.836" x2="8101.49" y2="5633.79" gradientUnits="userSpaceOnUse">
<stop stop-color="#1CFE95"/>
<stop offset="1" stop-color="#00D3DC"/>
</linearGradient>
<linearGradient id="paint26_linear_41_70085" x1="-2017.37" y1="105.418" x2="8130.31" y2="5650.38" gradientUnits="userSpaceOnUse">
<stop stop-color="#1CFE95"/>
<stop offset="1" stop-color="#00D3DC"/>
</linearGradient>
<linearGradient id="paint27_linear_41_70085" x1="-2046.19" y1="122.043" x2="8101.49" y2="5667" gradientUnits="userSpaceOnUse">
<stop stop-color="#1CFE95"/>
<stop offset="1" stop-color="#00D3DC"/>
</linearGradient>
<linearGradient id="paint28_linear_41_70085" x1="-2081.39" y1="135.875" x2="8066.29" y2="5680.83" gradientUnits="userSpaceOnUse">
<stop stop-color="#1CFE95"/>
<stop offset="1" stop-color="#00D3DC"/>
</linearGradient>
<linearGradient id="paint29_linear_41_70085" x1="-2046.19" y1="55.6251" x2="8101.49" y2="5600.58" gradientUnits="userSpaceOnUse">
<stop stop-color="#1CFE95"/>
<stop offset="1" stop-color="#00D3DC"/>
</linearGradient>
<clipPath id="clip0_41_70085">
<rect x="0.265625" y="39" width="138" height="138" rx="69" fill="white"/>
</clipPath>
<clipPath id="clip1_41_70085">
<rect x="91.2656" y="39" width="138" height="138" rx="69" fill="white"/>
</clipPath>
</defs>
</svg>
