<svg width="120" height="114" viewBox="0 0 120 114" fill="none" xmlns="http://www.w3.org/2000/svg">
<path d="M72.6113 0V27.2999L96.3051 13.6691L72.6113 0Z" fill="url(#paint0_linear_41_71056)"/>
<path opacity="0.9" d="M96.3066 13.668V40.9679L120 27.2988L96.3066 13.668Z" fill="url(#paint1_linear_41_71056)"/>
<path opacity="0.8" d="M72.6113 27.3008V54.6007L96.3051 40.9699L72.6113 27.3008Z" fill="url(#paint2_linear_41_71056)"/>
<path opacity="0.8" d="M96.3066 40.9688V68.2687L120 54.5996L96.3066 40.9688Z" fill="url(#paint3_linear_41_71056)"/>
<path opacity="0.8" d="M72.6113 54.5996V81.8995L96.3051 68.2687L72.6113 54.5996Z" fill="url(#paint4_linear_41_71056)"/>
<path d="M96.3066 68.2695V95.5694L120 81.9003L96.3066 68.2695Z" fill="url(#paint5_linear_41_71056)"/>
<path opacity="0.4" d="M11.3691 26.3809V53.6808L35.0629 40.0117L11.3691 26.3809Z" fill="url(#paint6_linear_41_71056)"/>
<path opacity="0.2" d="M41.2637 36.5273V63.8273L64.9191 50.1964L41.2637 36.5273Z" fill="url(#paint7_linear_41_71056)"/>
<path opacity="0.3" d="M23.6934 53.7949V81.0948L47.3871 67.4257L23.6934 53.7949Z" fill="url(#paint8_linear_41_71056)"/>
<path opacity="0.9" d="M39.3105 74.3945V101.694L62.966 88.0253L39.3105 74.3945Z" fill="url(#paint9_linear_41_71056)"/>
<path opacity="0.7" d="M72.4219 86.1504V113.45L96.0773 99.7812L72.4219 86.1504Z" fill="url(#paint10_linear_41_71056)"/>
<path opacity="0.9" d="M45.2051 23.0508V50.3507L68.8605 36.7199L45.2051 23.0508Z" fill="url(#paint11_linear_41_71056)"/>
<path opacity="0.8" d="M72.6117 0V27.2999L48.918 13.6691L72.6117 0Z" fill="url(#paint12_linear_41_71056)"/>
<path opacity="0.6" d="M45.2054 11.6016V38.9015L21.5117 25.2324L45.2054 11.6016Z" fill="url(#paint13_linear_41_71056)"/>
<path opacity="0.6" d="M68.8988 25.1172V52.4171L45.2051 38.748L68.8988 25.1172Z" fill="url(#paint14_linear_41_71056)"/>
<path opacity="0.95" d="M41.1488 36.5273V63.8273L17.4551 50.1964L41.1488 36.5273Z" fill="url(#paint15_linear_41_71056)"/>
<path opacity="0.6" d="M72.6125 54.5996V81.8995L48.957 68.2687L72.6125 54.5996Z" fill="url(#paint16_linear_41_71056)"/>
<path opacity="0.55" d="M23.6937 60.9551V88.255L0 74.5859L23.6937 60.9551Z" fill="url(#paint17_linear_41_71056)"/>
<path d="M120 27.3008V54.6007L96.3066 40.9699L120 27.3008Z" fill="url(#paint18_linear_41_71056)"/>
<path opacity="0.95" d="M96.3051 40.9688V68.2687L72.6113 54.5996L96.3051 40.9688Z" fill="url(#paint19_linear_41_71056)"/>
<path opacity="0.9" d="M120 54.5996V81.8995L96.3066 68.2687L120 54.5996Z" fill="url(#paint20_linear_41_71056)"/>
<path opacity="0.7" d="M96.3051 68.2695V95.5694L72.6113 81.9003L96.3051 68.2695Z" fill="url(#paint21_linear_41_71056)"/>
<path opacity="0.4" d="M67.3676 79.6406V106.941L43.6738 93.3097L67.3676 79.6406Z" fill="url(#paint22_linear_41_71056)"/>
<path d="M96.3051 13.668V40.9679L72.6113 27.2988L96.3051 13.668Z" fill="url(#paint23_linear_41_71056)"/>
<defs>
<linearGradient id="paint0_linear_41_71056" x1="-1832.01" y1="6.86404e-05" x2="6510.39" y2="4558.5" gradientUnits="userSpaceOnUse">
<stop stop-color="#1CFE95"/>
<stop offset="1" stop-color="#00D3DC"/>
</linearGradient>
<linearGradient id="paint1_linear_41_71056" x1="-1808.31" y1="13.668" x2="6534.09" y2="4572.17" gradientUnits="userSpaceOnUse">
<stop stop-color="#1CFE95"/>
<stop offset="1" stop-color="#00D3DC"/>
</linearGradient>
<linearGradient id="paint2_linear_41_71056" x1="-1832.01" y1="27.3008" x2="6510.4" y2="4585.8" gradientUnits="userSpaceOnUse">
<stop stop-color="#1CFE95"/>
<stop offset="1" stop-color="#00D3DC"/>
</linearGradient>
<linearGradient id="paint3_linear_41_71056" x1="-1808.31" y1="40.9688" x2="6534.09" y2="4599.47" gradientUnits="userSpaceOnUse">
<stop stop-color="#1CFE95"/>
<stop offset="1" stop-color="#00D3DC"/>
</linearGradient>
<linearGradient id="paint4_linear_41_71056" x1="-1832.01" y1="54.5997" x2="6510.39" y2="4613.1" gradientUnits="userSpaceOnUse">
<stop stop-color="#1CFE95"/>
<stop offset="1" stop-color="#00D3DC"/>
</linearGradient>
<linearGradient id="paint5_linear_41_71056" x1="-1808.31" y1="68.2696" x2="6534.09" y2="4626.77" gradientUnits="userSpaceOnUse">
<stop stop-color="#1CFE95"/>
<stop offset="1" stop-color="#00D3DC"/>
</linearGradient>
<linearGradient id="paint6_linear_41_71056" x1="-1893.25" y1="26.3809" x2="6449.15" y2="4584.88" gradientUnits="userSpaceOnUse">
<stop stop-color="#1CFE95"/>
<stop offset="1" stop-color="#00D3DC"/>
</linearGradient>
<linearGradient id="paint7_linear_41_71056" x1="-1850.32" y1="36.5273" x2="6460.82" y2="4585.29" gradientUnits="userSpaceOnUse">
<stop stop-color="#1CFE95"/>
<stop offset="1" stop-color="#00D3DC"/>
</linearGradient>
<linearGradient id="paint8_linear_41_71056" x1="-1880.93" y1="53.795" x2="6461.48" y2="4612.29" gradientUnits="userSpaceOnUse">
<stop stop-color="#1CFE95"/>
<stop offset="1" stop-color="#00D3DC"/>
</linearGradient>
<linearGradient id="paint9_linear_41_71056" x1="-1852.28" y1="74.3945" x2="6458.86" y2="4623.16" gradientUnits="userSpaceOnUse">
<stop stop-color="#1CFE95"/>
<stop offset="1" stop-color="#00D3DC"/>
</linearGradient>
<linearGradient id="paint10_linear_41_71056" x1="-1819.16" y1="86.1503" x2="6491.97" y2="4634.91" gradientUnits="userSpaceOnUse">
<stop stop-color="#1CFE95"/>
<stop offset="1" stop-color="#00D3DC"/>
</linearGradient>
<linearGradient id="paint11_linear_41_71056" x1="-1846.38" y1="23.0507" x2="6464.76" y2="4571.81" gradientUnits="userSpaceOnUse">
<stop stop-color="#1CFE95"/>
<stop offset="1" stop-color="#00D3DC"/>
</linearGradient>
<linearGradient id="paint12_linear_41_71056" x1="-1855.7" y1="6.86404e-05" x2="6486.7" y2="4558.5" gradientUnits="userSpaceOnUse">
<stop stop-color="#1CFE95"/>
<stop offset="1" stop-color="#00D3DC"/>
</linearGradient>
<linearGradient id="paint13_linear_41_71056" x1="-1883.11" y1="11.6016" x2="6459.3" y2="4570.1" gradientUnits="userSpaceOnUse">
<stop stop-color="#1CFE95"/>
<stop offset="1" stop-color="#00D3DC"/>
</linearGradient>
<linearGradient id="paint14_linear_41_71056" x1="-1859.42" y1="25.1173" x2="6482.99" y2="4583.61" gradientUnits="userSpaceOnUse">
<stop stop-color="#1CFE95"/>
<stop offset="1" stop-color="#00D3DC"/>
</linearGradient>
<linearGradient id="paint15_linear_41_71056" x1="-1887.17" y1="36.5274" x2="6455.24" y2="4595.02" gradientUnits="userSpaceOnUse">
<stop stop-color="#1CFE95"/>
<stop offset="1" stop-color="#00D3DC"/>
</linearGradient>
<linearGradient id="paint16_linear_41_71056" x1="-1842.63" y1="54.5995" x2="6468.51" y2="4603.36" gradientUnits="userSpaceOnUse">
<stop stop-color="#1CFE95"/>
<stop offset="1" stop-color="#00D3DC"/>
</linearGradient>
<linearGradient id="paint17_linear_41_71056" x1="-1904.62" y1="60.9551" x2="6437.78" y2="4619.45" gradientUnits="userSpaceOnUse">
<stop stop-color="#1CFE95"/>
<stop offset="1" stop-color="#00D3DC"/>
</linearGradient>
<linearGradient id="paint18_linear_41_71056" x1="-1808.31" y1="27.3008" x2="6534.09" y2="4585.8" gradientUnits="userSpaceOnUse">
<stop stop-color="#1CFE95"/>
<stop offset="1" stop-color="#00D3DC"/>
</linearGradient>
<linearGradient id="paint19_linear_41_71056" x1="-1832.01" y1="40.9688" x2="6510.4" y2="4599.47" gradientUnits="userSpaceOnUse">
<stop stop-color="#1CFE95"/>
<stop offset="1" stop-color="#00D3DC"/>
</linearGradient>
<linearGradient id="paint20_linear_41_71056" x1="-1808.31" y1="54.5997" x2="6534.09" y2="4613.1" gradientUnits="userSpaceOnUse">
<stop stop-color="#1CFE95"/>
<stop offset="1" stop-color="#00D3DC"/>
</linearGradient>
<linearGradient id="paint21_linear_41_71056" x1="-1832.01" y1="68.2696" x2="6510.39" y2="4626.77" gradientUnits="userSpaceOnUse">
<stop stop-color="#1CFE95"/>
<stop offset="1" stop-color="#00D3DC"/>
</linearGradient>
<linearGradient id="paint22_linear_41_71056" x1="-1860.95" y1="79.6407" x2="6481.46" y2="4638.14" gradientUnits="userSpaceOnUse">
<stop stop-color="#1CFE95"/>
<stop offset="1" stop-color="#00D3DC"/>
</linearGradient>
<linearGradient id="paint23_linear_41_71056" x1="-1832.01" y1="13.668" x2="6510.39" y2="4572.17" gradientUnits="userSpaceOnUse">
<stop stop-color="#1CFE95"/>
<stop offset="1" stop-color="#00D3DC"/>
</linearGradient>
</defs>
</svg>
