<svg width="400" height="400" viewBox="0 0 400 400" fill="none" xmlns="http://www.w3.org/2000/svg">
    <g clip-path="url(#clip0)">
        <path d="M83.3317 38.334L393.332 250.001L316.665 363.334L6.66505 150.001L83.3317 38.334Z" fill="url(#paint0_linear)"/>
        <path d="M393.332 250C366.665 288.334 276.665 273.334 191.665 213.334C104.998 155 58.3316 76.6671 83.3316 38.3337C109.998 0.000400543 199.998 15.0004 284.998 75.0004C371.665 131.667 418.332 211.667 393.332 250Z" fill="url(#paint1_linear)"/>
        <path d="M316.665 361.667C289.999 400 199.999 385 114.999 325C29.9986 265 -18.3347 188.334 8.33193 148.334C34.9986 110 124.999 125 209.999 185C294.999 245 341.665 323.334 316.665 361.667Z" fill="url(#paint2_linear)"/>
        <path d="M393.331 249.999L316.664 363.332C289.998 401.666 199.998 384.999 114.998 326.666C98.3311 314.999 83.3311 303.332 68.3311 289.999C79.9977 288.332 94.9977 281.666 109.998 264.999C136.664 236.666 149.998 229.999 161.664 231.666C173.331 231.666 186.664 243.332 208.331 271.666C229.998 299.999 259.998 308.332 278.331 293.332C279.998 291.666 281.664 291.666 283.331 289.999C298.331 278.332 303.331 273.332 331.664 219.999C338.331 206.666 361.664 184.999 393.331 194.999C401.664 216.666 401.664 234.999 393.331 249.999Z" fill="#0E0F23"/>
        <path fill-rule="evenodd" clip-rule="evenodd" d="M381.664 243.334C358.331 276.667 276.664 260.001 198.331 205C118.331 150 71.6644 80.0005 94.9977 46.6671C118.331 13.3338 199.998 30.0005 278.331 85.0005C356.664 140 403.331 210.001 381.664 243.334ZM308.331 193.334C296.664 210.001 256.664 201.667 216.664 175C178.331 148.334 154.998 113.334 166.664 96.6672C178.331 80.0005 218.331 88.3338 258.331 115C296.664 141.667 319.998 176.667 308.331 193.334Z" fill="white"/>
        <path d="M76.6657 76.6656C76.6657 74.9989 74.999 73.3323 73.3324 74.9989C71.6657 76.6656 69.999 76.6656 69.999 78.3323C71.6657 83.3323 73.3324 86.6656 73.3324 89.9989C73.3324 91.6656 74.999 93.3323 76.6657 91.6656C78.3324 91.6656 79.999 89.9989 78.3324 88.3323C78.3324 84.9989 78.3324 81.6656 76.6657 76.6656Z" fill="white"/>
        <path d="M84.998 103.334C84.998 101.667 83.3314 100 81.6647 101.667C79.998 103.334 79.998 103.334 79.998 105C98.3314 146.667 136.665 191.667 186.665 225C188.331 226.667 189.998 225 191.665 225C193.331 223.334 191.665 221.667 191.665 220C139.998 186.667 103.331 143.334 84.998 103.334Z" fill="white"/>
        <path d="M286.666 266.668C285 266.668 283.333 266.668 283.333 268.335C283.333 270.001 283.333 271.668 285 271.668C290 273.335 296.666 275.001 301.666 276.668C303.333 276.668 305 276.668 305 275.001C305 273.335 305 271.668 303.333 271.668C298.333 270.001 291.666 268.335 286.666 266.668Z" fill="white"/>
        <path d="M316.664 273.332C314.998 273.332 313.331 274.999 313.331 276.665C313.331 278.332 314.998 279.999 316.664 279.999C329.998 281.665 344.998 283.332 356.664 281.665C358.331 281.665 359.998 279.999 359.998 278.332C359.998 276.665 358.331 274.999 356.664 274.999C343.331 276.665 329.998 274.999 316.664 273.332Z" fill="white"/>
    </g>
    <defs>
        <linearGradient id="paint0_linear" x1="144.068" y1="8.23898" x2="205.545" y2="219.342" gradientUnits="userSpaceOnUse">
            <stop stop-color="#03B8FF"/>
            <stop offset="1" stop-color="#FA52A0"/>
        </linearGradient>
        <linearGradient id="paint1_linear" x1="194.695" y1="-6.50627" x2="256.173" y2="204.599" gradientUnits="userSpaceOnUse">
            <stop stop-color="#03B8FF"/>
            <stop offset="1" stop-color="#FA52A0"/>
        </linearGradient>
        <linearGradient id="paint2_linear" x1="93.5986" y1="22.9354" x2="155.077" y2="234.04" gradientUnits="userSpaceOnUse">
            <stop stop-color="#03B8FF"/>
            <stop offset="1" stop-color="#FA52A0"/>
        </linearGradient>
        <clipPath id="clip0">
            <rect width="400" height="400" fill="white"/>
        </clipPath>
    </defs>
</svg>
