<svg width="120" height="120" viewBox="0 0 120 120" fill="none" xmlns="http://www.w3.org/2000/svg">
    <g clip-path="url(#clip0)">
        <path d="M25 11.5L118 75L95 109L2 45L25 11.5Z" fill="url(#paint0_linear)"/>
        <path d="M117.999 75.0001C109.999 86.5001 82.9992 82.0001 57.4992 64.0001C31.4992 46.5001 17.4992 23.0001 24.9992 11.5001C32.9992 0.000120163 59.9992 4.50012 85.4992 22.5001C111.499 39.5001 125.499 63.5001 117.999 75.0001Z" fill="url(#paint1_linear)"/>
        <path d="M94.9997 108.5C86.9997 120 59.9997 115.5 34.4997 97.5001C8.99968 79.5001 -5.50032 56.5001 2.49968 44.5001C10.4997 33.0001 37.4997 37.5001 62.9997 55.5001C88.4997 73.5001 102.5 97.0001 94.9997 108.5Z" fill="url(#paint2_linear)"/>
        <path d="M117.999 74.9991L94.999 108.999C86.999 120.499 59.999 115.499 34.499 97.9991C29.499 94.4991 24.999 90.9991 20.499 86.9991C23.999 86.4991 28.499 84.4991 32.999 79.4991C40.999 70.9991 44.999 68.9991 48.499 69.4991C51.999 69.4991 55.999 72.9991 62.499 81.4991C68.999 89.9991 77.999 92.4991 83.499 87.9991C83.999 87.4991 84.499 87.4991 84.999 86.9991C89.499 83.4991 90.999 81.9991 99.499 65.9991C101.499 61.9991 108.499 55.4991 117.999 58.4991C120.499 64.9991 120.499 70.4991 117.999 74.9991Z" fill="#0E0F23"/>
        <path fill-rule="evenodd" clip-rule="evenodd" d="M114.499 73.0011C107.499 83.0011 82.9989 78.0011 59.4989 61.5011C35.4989 45.0011 21.4989 24.0011 28.4989 14.0011C35.4989 4.00112 59.9989 9.00112 83.4989 25.5011C106.999 42.0011 120.999 63.0011 114.499 73.0011ZM92.4989 58.0011C88.9989 63.0011 76.9989 60.5011 64.9989 52.5011C53.4989 44.5011 46.4989 34.0011 49.9989 29.0011C53.4989 24.0011 65.4989 26.5011 77.4989 34.5011C88.9989 42.5011 95.9989 53.0011 92.4989 58.0011Z" fill="white"/>
        <path d="M23 23.0001C23 22.5001 22.5 22.0001 22 22.5001C21.5 23.0001 21 23.0001 21 23.5001C21.5 25.0001 22 26.0001 22 27.0001C22 27.5001 22.5 28.0001 23 27.5001C23.5 27.5001 24 27.0001 23.5 26.5001C23.5 25.5001 23.5 24.5001 23 23.0001Z" fill="white"/>
        <path d="M25.499 31.0001C25.499 30.5001 24.999 30.0001 24.499 30.5001C23.999 31.0001 23.999 31.0001 23.999 31.5001C29.499 44.0001 40.999 57.5001 55.999 67.5001C56.499 68.0001 56.999 67.5001 57.499 67.5001C57.999 67.0001 57.499 66.5001 57.499 66.0001C41.999 56.0001 30.999 43.0001 25.499 31.0001Z" fill="white"/>
        <path d="M86 80C85.5 80 85 80 85 80.5C85 81 85 81.5 85.5 81.5C87 82 89 82.5 90.5 83C91 83 91.5 83 91.5 82.5C91.5 82 91.5 81.5 91 81.5C89.5 81 87.5 80.5 86 80Z" fill="white"/>
        <path d="M94.999 82C94.499 82 93.999 82.5 93.999 83C93.999 83.5 94.499 84 94.999 84C98.999 84.5 103.499 85 106.999 84.5C107.499 84.5 107.999 84 107.999 83.5C107.999 83 107.499 82.5 106.999 82.5C102.999 83 98.999 82.5 94.999 82Z" fill="white"/>
    </g>
    <defs>
        <linearGradient id="paint0_linear" x1="43.221" y1="2.4715" x2="61.664" y2="65.8025" gradientUnits="userSpaceOnUse">
            <stop stop-color="#03B8FF"/>
            <stop offset="1" stop-color="#FA52A0"/>
        </linearGradient>
        <linearGradient id="paint1_linear" x1="58.4082" y1="-1.95188" x2="76.8517" y2="61.3796" gradientUnits="userSpaceOnUse">
            <stop stop-color="#03B8FF"/>
            <stop offset="1" stop-color="#FA52A0"/>
        </linearGradient>
        <linearGradient id="paint2_linear" x1="28.0797" y1="6.88062" x2="46.5232" y2="70.2121" gradientUnits="userSpaceOnUse">
            <stop stop-color="#03B8FF"/>
            <stop offset="1" stop-color="#FA52A0"/>
        </linearGradient>
        <clipPath id="clip0">
            <rect width="120" height="120" fill="white"/>
        </clipPath>
    </defs>
</svg>
