<svg width="400" height="400" viewBox="0 0 254 254" fill="none" xmlns="http://www.w3.org/2000/svg">
<path d="M127 254C197.14 254 254 197.14 254 127C254 56.8598 197.14 0 127 0C56.8598 0 0 56.8598 0 127C0 197.14 56.8598 254 127 254Z" fill="#E84142"/>
<path d="M171.799 130.3C176.199 122.7 183.299 122.7 187.699 130.3L215.099 178.4C219.499 186 215.899 192.2 207.099 192.2H151.899C143.199 192.2 139.599 186 143.899 178.4L171.799 130.3ZM118.799 37.7C123.199 30.1 130.199 30.1 134.599 37.7L140.699 48.7L155.099 74C158.599 81.2 158.599 89.7 155.099 96.9L106.799 180.6C102.399 187.4 95.0994 191.7 86.9994 192.2H46.8994C38.0994 192.2 34.4994 186.1 38.8994 178.4L118.799 37.7Z" fill="white"/>
</svg>
