<svg width="327" height="216" viewBox="0 0 327 216" fill="none" xmlns="http://www.w3.org/2000/svg">
<g clip-path="url(#clip0_118_67837)">
<path d="M72.25 177C110.358 177 141.25 146.108 141.25 108C141.25 69.8924 110.358 39 72.25 39C34.1424 39 3.25 69.8924 3.25 108C3.25 146.108 34.1424 177 72.25 177Z" fill="#0052B4"/>
<path d="M72.2504 66L74.4845 72.8755H81.7133L75.8648 77.1246L78.0989 84.0001L72.2504 79.7507L66.4015 84.0001L68.6357 77.1246L62.7871 72.8755H70.0162L72.2504 66Z" fill="#FFDA44"/>
<path d="M42.552 78.3022L48.9938 81.584L54.1054 76.4727L52.9742 83.6125L59.4157 86.8946L52.2756 88.0256L51.1446 95.166L47.8625 88.7245L40.7227 89.8557L45.8343 84.744L42.552 78.3022Z" fill="#FFDA44"/>
<path d="M30.25 108L37.1255 105.766V98.5371L41.3744 104.386L48.2501 102.152L44.0004 108L48.2501 113.849L41.3744 111.615L37.1255 117.464V110.234L30.25 108Z" fill="#FFDA44"/>
<path d="M42.552 137.699L45.834 131.258L40.7227 126.146L47.8628 127.277L51.1444 120.836L52.2756 127.976L59.4155 129.107L52.9747 132.389L54.1054 139.529L48.9938 134.417L42.552 137.699Z" fill="#FFDA44"/>
<path d="M72.2504 150L70.0159 143.124H62.7871L68.6359 138.875L66.4015 132L72.2504 136.249L78.0989 132L75.8648 138.875L81.7133 143.124H74.4842L72.2504 150Z" fill="#FFDA44"/>
<path d="M101.949 137.699L95.5076 134.418L90.3957 139.529L91.5269 132.389L85.0859 129.107L92.2258 127.976L93.3568 120.836L96.6386 127.277L103.778 126.146L98.6668 131.258L101.949 137.699Z" fill="#FFDA44"/>
<path d="M114.25 108L107.374 110.234V117.464L103.125 111.615L96.25 113.849L100.499 108L96.25 102.152L103.125 104.386L107.374 98.5371V105.766L114.25 108Z" fill="#FFDA44"/>
<path d="M101.949 78.302L98.6671 84.7438L103.779 89.8554L96.6383 88.7239L93.3568 95.1655L92.2258 88.0253L85.0859 86.8941L91.5269 83.6123L90.3957 76.4727L95.5079 81.584L101.949 78.302Z" fill="#FFDA44"/>
</g>
<g clip-path="url(#clip1_118_67837)">
<path d="M163.25 177C201.358 177 232.25 146.108 232.25 108C232.25 69.8924 201.358 39 163.25 39C125.142 39 94.25 69.8924 94.25 108C94.25 146.108 125.142 177 163.25 177Z" fill="url(#paint0_linear_118_67837)"/>
<path d="M185.872 105.941C190.225 111.75 177.479 122.979 180.343 118.341H153.193C150.256 114.5 148.236 110.3 147.266 105.941H185.872Z" fill="url(#paint1_linear_118_67837)"/>
<path d="M178.003 139.412C174.144 142.488 169.973 145.15 165.558 147.353L163.398 148.44L161.226 147.357C140.799 137.106 128.613 119.451 128.613 100.102V77.3848H141.071V100.102C141.069 101.551 141.167 102.999 141.364 104.434C142.933 116.189 150.867 127.033 163.352 134.334C163.363 134.346 163.377 134.355 163.391 134.362C163.404 134.355 163.411 134.348 163.425 134.342L163.477 134.308C167.99 136.832 172.903 138.558 178.003 139.412Z" fill="url(#paint2_linear_118_67837)"/>
<path d="M197.797 105.941C197.221 110.432 195.989 114.813 194.142 118.946C190.727 126.621 185.238 133.605 178.008 139.415C172.912 138.561 168 136.834 163.49 134.311C165.119 133.351 166.699 132.308 168.223 131.188C168.375 131.09 168.521 130.983 168.661 130.869C177.1 124.792 183.18 115.986 185.871 105.941H197.797Z" fill="url(#paint3_linear_118_67837)"/>
<path d="M198.184 77.3887H141.072V89.8409H198.184V77.3887Z" fill="url(#paint4_linear_118_67837)"/>
<path d="M198.183 89.8418V100.102C198.183 100.526 198.17 100.952 198.157 101.377H185.691C185.704 100.951 185.71 100.526 185.71 100.102V89.8418H198.183Z" fill="url(#paint5_linear_118_67837)"/>
</g>
<g clip-path="url(#clip2_118_67837)">
<path d="M269.157 102.228L279.291 85.0324L306.607 127.577L306.62 135.74L306.53 79.5556C306.499 78.8779 306.304 78.2178 305.964 77.6311C305.623 77.0443 305.146 76.5481 304.573 76.1844L255.395 47.898C254.807 47.6188 254.165 47.4755 253.514 47.4786C252.864 47.4816 252.222 47.6311 251.637 47.9157C251.486 47.9918 251.339 48.0769 251.197 48.1704L251.026 48.2786L203.289 75.9405L203.103 76.0241C202.856 76.1387 202.62 76.2763 202.398 76.4352C201.503 77.0745 200.893 78.0383 200.698 79.1209C200.668 79.2852 200.647 79.451 200.637 79.6176L200.712 125.402L226.155 85.9666C229.358 80.7377 236.337 79.0531 242.816 79.1445L250.42 79.3413L205.615 151.195L210.897 154.236L256.239 79.413L276.28 79.3402L231.055 156.048L249.904 166.895L252.156 168.19C253.127 168.577 254.206 168.597 255.192 168.25L305.061 139.35L295.522 144.875L269.157 102.228ZM273.024 157.916L253.989 128.04L265.608 108.324L290.607 147.726L273.024 157.916Z" fill="#2D374B"/>
<path d="M253.99 128.041L273.025 157.916L290.609 147.725L265.611 108.324L253.99 128.041Z" fill="#28A0F0"/>
<path d="M306.625 135.741L306.612 127.578L279.296 85.0332L269.156 102.226L295.526 144.874L305.065 139.349C305.527 138.975 305.904 138.507 306.173 137.977C306.442 137.446 306.596 136.865 306.625 136.272L306.625 135.741Z" fill="#28A0F0"/>
<path d="M192.154 143.442L205.618 151.2L250.424 79.3467L242.82 79.15C236.341 79.0586 229.361 80.7422 226.158 85.9721L200.715 125.408L192.159 138.559L192.154 143.442Z" fill="white"/>
<path d="M276.283 79.3457L256.242 79.4184L210.9 154.241L226.748 163.366L231.058 156.056L276.283 79.3457Z" fill="white"/>
<path d="M315.066 79.2418C314.975 77.1736 314.381 75.1588 313.337 73.371C312.293 71.5832 310.83 70.0762 309.074 68.9797L259.252 40.3285C257.473 39.4545 255.518 39 253.536 39C251.554 39 249.599 39.4545 247.82 40.3285C247.404 40.538 199.369 68.3976 199.369 68.3976C198.701 68.718 198.063 69.0957 197.461 69.5266C195.901 70.6357 194.613 72.0839 193.693 73.7623C192.773 75.4407 192.246 77.3058 192.15 79.2173V138.555L200.706 125.404L200.64 79.6215C200.68 78.9938 200.859 78.3828 201.164 77.8325C201.468 77.2822 201.891 76.8063 202.402 76.4391C202.628 76.2768 251.484 47.9973 251.639 47.9196C252.224 47.6349 252.865 47.4855 253.516 47.4824C254.166 47.4793 254.809 47.6227 255.396 47.9019L304.575 76.1902C305.148 76.554 305.624 77.0502 305.965 77.6369C306.306 78.2237 306.5 78.8838 306.532 79.5614V136.278C306.52 136.866 306.383 137.444 306.129 137.975C305.876 138.506 305.512 138.976 305.062 139.355L295.523 144.88L290.606 147.732L273.022 157.922L255.189 168.257C254.203 168.605 253.125 168.583 252.153 168.197L231.056 156.063L226.746 163.371L245.707 174.288C246.334 174.644 246.893 174.96 247.351 175.218C248.061 175.611 248.545 175.882 248.715 175.964C250.302 176.659 252.017 177.012 253.748 177C255.337 177.002 256.912 176.706 258.39 176.126L310.185 146.131C311.646 144.995 312.84 143.552 313.683 141.904C314.526 140.255 314.998 138.443 315.064 136.592L315.066 79.2418Z" fill="#96BEDC"/>
</g>
<defs>
<linearGradient id="paint0_linear_118_67837" x1="232.25" y1="39" x2="67.1178" y2="91.2489" gradientUnits="userSpaceOnUse">
<stop stop-color="#000756"/>
<stop offset="1" stop-color="#0042B8"/>
</linearGradient>
<linearGradient id="paint1_linear_118_67837" x1="198.455" y1="119.936" x2="150.95" y2="107.133" gradientUnits="userSpaceOnUse">
<stop offset="0.14" stop-color="#ADADAD"/>
<stop offset="0.29" stop-color="#CBCBCB"/>
<stop offset="0.43" stop-color="#E2E2E2"/>
<stop offset="0.59" stop-color="#F2F2F2"/>
<stop offset="0.77" stop-color="#FCFCFC"/>
<stop offset="1" stop-color="white"/>
</linearGradient>
<linearGradient id="paint2_linear_118_67837" x1="180.915" y1="160.502" x2="113.765" y2="66.8449" gradientUnits="userSpaceOnUse">
<stop stop-color="#ADADAD"/>
<stop offset="0.17" stop-color="#CBCBCB"/>
<stop offset="0.34" stop-color="#E2E2E2"/>
<stop offset="0.52" stop-color="#F2F2F2"/>
<stop offset="0.73" stop-color="#FCFCFC"/>
<stop offset="1" stop-color="white"/>
</linearGradient>
<linearGradient id="paint3_linear_118_67837" x1="164.264" y1="146.328" x2="196.158" y2="105.898" gradientUnits="userSpaceOnUse">
<stop offset="0.15" stop-color="#ADADAD"/>
<stop offset="0.29" stop-color="#CBCBCB"/>
<stop offset="0.44" stop-color="#E2E2E2"/>
<stop offset="0.6" stop-color="#F2F2F2"/>
<stop offset="0.77" stop-color="#FCFCFC"/>
<stop offset="1" stop-color="white"/>
</linearGradient>
<linearGradient id="paint4_linear_118_67837" x1="135.582" y1="115.959" x2="162.537" y2="90.3541" gradientUnits="userSpaceOnUse">
<stop offset="0.14" stop-color="#ADADAD"/>
<stop offset="0.43" stop-color="#C9C9C9"/>
<stop offset="1" stop-color="white"/>
</linearGradient>
<linearGradient id="paint5_linear_118_67837" x1="191.937" y1="83.3061" x2="191.937" y2="101.377" gradientUnits="userSpaceOnUse">
<stop offset="0.0895638" stop-color="#ADADAD"/>
<stop offset="0.240189" stop-color="#CBCBCB"/>
<stop offset="0.425047" stop-color="#E2E2E2"/>
<stop offset="0.536875" stop-color="#F2F2F2"/>
<stop offset="1" stop-color="white"/>
</linearGradient>
<clipPath id="clip0_118_67837">
<rect x="3.25" y="39" width="138" height="138" rx="69" fill="white"/>
</clipPath>
<clipPath id="clip1_118_67837">
<rect x="94.25" y="39" width="138" height="138" rx="69" fill="white"/>
</clipPath>
<clipPath id="clip2_118_67837">
<rect width="138" height="138" fill="white" transform="translate(185.25 39)"/>
</clipPath>
</defs>
</svg>
