<svg width="120" height="120" viewBox="0 0 120 120" fill="none" xmlns="http://www.w3.org/2000/svg">
<g clip-path="url(#clip0_101_69932)">
<path d="M72.9639 54.9809L81.7761 40.0286L105.529 77.0243L105.54 84.1223L105.462 35.2662C105.435 34.6769 105.265 34.1029 104.97 33.5927C104.673 33.0824 104.259 32.651 103.761 32.3347L60.9969 7.73783C60.4857 7.49507 59.9269 7.37039 59.3613 7.37309C58.7957 7.37573 58.2379 7.50569 57.7293 7.75325C57.5973 7.81937 57.4694 7.89335 57.3462 7.97471L57.1974 8.06879L15.6873 32.1226L15.5256 32.1953C15.3105 32.2949 15.1052 32.4146 14.9125 32.5528C14.134 33.1087 13.6034 33.9467 13.4339 34.8882C13.408 35.031 13.3902 35.1752 13.3809 35.3201L13.4459 75.1325L35.5705 40.8409C38.3557 36.2941 44.4247 34.8292 50.0586 34.9087L56.6706 35.0798L17.7097 97.5611L22.3028 100.205L61.7307 35.1422L79.1577 35.0789L39.8317 101.781L56.2216 111.213L58.18 112.34C59.0247 112.676 59.9625 112.694 60.8199 112.392L104.185 87.2615L95.8899 92.0657L72.9639 54.9809ZM76.3263 103.406L59.774 77.4269L69.8775 60.2819L91.6155 94.5449L76.3263 103.406Z" fill="#2D374B"/>
<path d="M59.7734 77.4263L76.3258 103.404L91.6162 94.5431L69.8788 60.2812L59.7734 77.4263Z" fill="#28A0F0"/>
<path d="M105.542 84.1228L105.531 77.0248L81.7779 40.0293L72.9609 54.98L95.8911 92.0644L104.186 87.2602C104.588 86.935 104.916 86.5282 105.15 86.0674C105.384 85.606 105.518 85.1008 105.543 84.5848L105.542 84.1228Z" fill="#28A0F0"/>
<path d="M6.00391 90.8193L17.7119 97.5651L56.6728 35.0843L50.0607 34.9132C44.4269 34.8337 38.3579 36.2977 35.5727 40.8455L13.4481 75.1371L6.00823 86.5731L6.00391 90.8193Z" fill="white"/>
<path d="M79.1587 35.082L61.7323 35.1453L22.3047 100.208L36.0856 108.143L39.8329 101.787L79.1587 35.082Z" fill="white"/>
<path d="M112.883 34.9929C112.804 33.1945 112.288 31.4424 111.38 29.8879C110.472 28.3333 109.2 27.0227 107.673 26.0693L64.3488 1.15523C62.8026 0.395204 61.1022 0 59.3789 0C57.6556 0 55.9553 0.395204 54.4087 1.15523C54.047 1.33738 12.2768 25.5631 12.2768 25.5631C11.6965 25.8418 11.1414 26.1702 10.6178 26.5448C9.26154 27.5093 8.1414 28.7686 7.3416 30.2281C6.5418 31.6876 6.0831 33.3094 6 34.9715L6.00001 86.5698L13.4399 75.1338L13.3826 35.323C13.4174 34.7772 13.5728 34.2459 13.8376 33.7674C14.1025 33.2888 14.4701 32.875 14.9141 32.5557C15.1108 32.4146 57.5942 7.82376 57.7292 7.7562C58.2379 7.50864 58.7956 7.37868 59.3613 7.37604C59.9269 7.37334 60.486 7.49802 60.9966 7.74078L103.76 32.3393C104.258 32.6557 104.673 33.0871 104.969 33.5973C105.266 34.1075 105.434 34.6816 105.463 35.2708L105.463 84.5892C105.452 85.101 105.332 85.6038 105.112 86.0652C104.892 86.5266 104.575 86.9358 104.184 87.2652L95.889 92.0694L91.6134 94.5492L76.323 103.411L60.8166 112.397C59.9591 112.7 59.0212 112.681 58.1766 112.345L39.8308 101.794L36.0835 108.149L52.571 117.641C53.1166 117.951 53.6023 118.226 54.0008 118.45C54.6182 118.792 55.039 119.027 55.1869 119.099C56.5663 119.704 58.0576 120.011 59.5636 120C60.945 120.002 62.3142 119.744 63.6 119.24L108.638 93.1578C109.909 92.1696 110.948 90.9144 111.68 89.4816C112.414 88.0482 112.824 86.472 112.882 84.8628L112.883 34.9929Z" fill="#96BEDC"/>
</g>
<defs>
<clipPath id="clip0_101_69932">
<rect width="120" height="120" fill="white"/>
</clipPath>
</defs>
</svg>
