<svg width="400" height="400" viewBox="0 0 400 400" fill="none" xmlns="http://www.w3.org/2000/svg">
<g clip-path="url(#clip0_101_68813)">
<path d="M243.212 183.269L272.586 133.428L351.762 256.747L351.8 280.407L351.54 117.553C351.448 115.589 350.884 113.676 349.898 111.975C348.91 110.274 347.528 108.836 345.868 107.782L203.322 25.7921C201.618 24.9829 199.755 24.5673 197.87 24.5763C195.984 24.5851 194.125 25.0183 192.43 25.8435C191.99 26.0639 191.563 26.3105 191.153 26.5817L190.657 26.8953L52.2896 107.075L51.7508 107.317C51.0336 107.649 50.3494 108.048 49.707 108.509C47.112 110.362 45.3434 113.155 44.7784 116.293C44.692 116.769 44.6328 117.25 44.6016 117.733L44.8184 250.441L118.567 136.136C127.851 120.98 148.081 116.097 166.861 116.362L188.901 116.932L59.031 325.203L74.3412 334.017L205.768 117.14L263.858 116.929L132.771 339.269L187.404 370.711L193.932 374.465C196.748 375.585 199.874 375.645 202.732 374.639L347.282 290.871L319.632 306.885L243.212 183.269ZM254.42 344.685L199.245 258.089L232.924 200.939L305.384 315.149L254.42 344.685Z" fill="#2D374B"/>
<path d="M199.246 258.088L254.42 344.682L305.388 315.144L232.93 200.938L199.246 258.088Z" fill="#28A0F0"/>
<path d="M351.807 280.408L351.769 256.748L272.593 133.43L243.203 183.265L319.637 306.88L347.287 290.866C348.625 289.782 349.719 288.426 350.499 286.89C351.279 285.352 351.725 283.668 351.809 281.948L351.807 280.408Z" fill="#28A0F0"/>
<path d="M20.0137 302.727L59.0403 325.213L188.91 116.944L166.87 116.373C148.09 116.108 127.86 120.988 118.576 136.148L44.8275 250.453L20.0281 288.573L20.0137 302.727Z" fill="white"/>
<path d="M263.865 116.941L205.777 117.152L74.3516 334.028L120.288 360.478L132.779 339.29L263.865 116.941Z" fill="white"/>
<path d="M376.278 116.643C376.012 110.648 374.292 104.808 371.266 99.6262C368.24 94.4442 364 90.0758 358.91 86.8978L214.496 3.85076C209.342 1.31735 203.674 0 197.93 0C192.185 0 186.518 1.31735 181.362 3.85076C180.157 4.45792 40.9228 85.2104 40.9228 85.2104C38.9884 86.1392 37.138 87.234 35.3928 88.4828C30.8718 91.6978 27.138 95.8954 24.472 100.76C21.806 105.625 20.277 111.031 20 116.572L20 288.566L44.7996 250.446L44.6086 117.743C44.7246 115.924 45.2426 114.153 46.1254 112.558C47.0082 110.963 48.2338 109.583 49.7138 108.519C50.3694 108.049 191.981 26.0792 192.431 25.854C194.126 25.0288 195.985 24.5956 197.871 24.5868C199.756 24.5778 201.62 24.9934 203.322 25.8026L345.868 107.798C347.528 108.852 348.91 110.29 349.898 111.991C350.886 113.692 351.448 115.605 351.542 117.569L351.542 281.964C351.506 283.67 351.108 285.346 350.374 286.884C349.64 288.422 348.584 289.786 347.28 290.884L319.63 306.898L305.378 315.164L254.41 344.702L202.722 374.658C199.864 375.666 196.737 375.604 193.922 374.484L132.769 339.312L120.278 360.496L175.237 392.138C177.055 393.17 178.674 394.088 180.003 394.834C182.061 395.974 183.463 396.758 183.956 396.998C188.554 399.012 193.525 400.036 198.545 400C203.15 400.006 207.714 399.148 212 397.468L362.128 310.526C366.364 307.232 369.826 303.048 372.268 298.272C374.712 293.494 376.08 288.24 376.272 282.876L376.278 116.643Z" fill="#96BEDC"/>
</g>
<defs>
<clipPath id="clip0_101_68813">
<rect width="400" height="400" fill="white"/>
</clipPath>
</defs>
</svg>
