<svg width="327" height="216" viewBox="0 0 327 216" fill="none" xmlns="http://www.w3.org/2000/svg">
<g clip-path="url(#clip0_118_67803)">
<path d="M72.75 177C110.858 177 141.75 146.108 141.75 108C141.75 69.8924 110.858 39 72.75 39C34.6424 39 3.75 69.8924 3.75 108C3.75 146.108 34.6424 177 72.75 177Z" fill="#F0F0F0"/>
<path d="M69.75 108H141.75C141.75 101.772 140.92 95.7391 139.373 90H69.75V108Z" fill="#D80027"/>
<path d="M69.75 72.0001H131.623C127.399 65.1076 121.998 59.0154 115.701 54H69.75V72.0001Z" fill="#D80027"/>
<path d="M72.7503 177C88.9892 177 103.915 171.387 115.702 162H29.7988C41.5854 171.387 56.5113 177 72.7503 177Z" fill="#D80027"/>
<path d="M13.8773 144H131.623C135.014 138.467 137.643 132.419 139.373 126H6.12695C7.85654 132.419 10.4864 138.467 13.8773 144Z" fill="#D80027"/>
<path d="M35.7121 49.7753H42L36.1512 54.0245L38.3853 60.9L32.5367 56.6508L26.6882 60.9L28.618 54.9603C23.4684 59.2499 18.9548 64.2756 15.2353 69.8753H17.25L13.527 72.5801C12.9469 73.5477 12.3906 74.5307 11.8575 75.5282L13.6353 81L10.3185 78.5901C9.49398 80.3369 8.73983 82.1231 8.06196 83.9465L10.0206 89.9754H17.25L11.4012 94.2245L13.6353 101.1L7.78677 96.8508L4.2834 99.3963C3.93274 102.215 3.75 105.086 3.75 108H72.75C72.75 69.8926 72.75 65.4 72.75 39C59.1193 39 46.4128 42.954 35.7121 49.7753ZM38.3853 101.1L32.5367 96.8508L26.6882 101.1L28.9223 94.2245L23.0735 89.9754H30.3029L32.5367 83.0999L34.7706 89.9754H42L36.1512 94.2245L38.3853 101.1ZM36.1512 74.1245L38.3853 81L32.5367 76.7508L26.6882 81L28.9223 74.1245L23.0735 69.8753H30.3029L32.5367 62.9999L34.7706 69.8753H42L36.1512 74.1245ZM63.1353 101.1L57.2867 96.8508L51.4382 101.1L53.6723 94.2245L47.8235 89.9754H55.0528L57.2867 83.0999L59.5206 89.9754H66.75L60.9011 94.2245L63.1353 101.1ZM60.9011 74.1245L63.1353 81L57.2867 76.7508L51.4382 81L53.6723 74.1245L47.8235 69.8753H55.0528L57.2867 62.9999L59.5206 69.8753H66.75L60.9011 74.1245ZM60.9011 54.0245L63.1353 60.9L57.2867 56.6508L51.4382 60.9L53.6723 54.0245L47.8235 49.7753H55.0528L57.2867 42.8998L59.5206 49.7753H66.75L60.9011 54.0245Z" fill="#0052B4"/>
</g>
<g clip-path="url(#clip1_118_67803)">
<path d="M163.75 177C201.858 177 232.75 146.108 232.75 108C232.75 69.8924 201.858 39 163.75 39C125.642 39 94.75 69.8924 94.75 108C94.75 146.108 125.642 177 163.75 177Z" fill="url(#paint0_linear_118_67803)"/>
<path d="M186.372 105.941C190.725 111.75 177.979 122.979 180.843 118.341H153.693C150.756 114.5 148.736 110.3 147.766 105.941H186.372Z" fill="url(#paint1_linear_118_67803)"/>
<path d="M178.503 139.412C174.644 142.488 170.473 145.15 166.058 147.353L163.898 148.44L161.726 147.357C141.299 137.106 129.113 119.451 129.113 100.102V77.3848H141.571V100.102C141.569 101.551 141.667 102.999 141.864 104.434C143.433 116.189 151.367 127.033 163.852 134.334C163.863 134.346 163.877 134.355 163.891 134.362C163.904 134.355 163.911 134.348 163.925 134.342L163.977 134.308C168.49 136.832 173.403 138.558 178.503 139.412Z" fill="url(#paint2_linear_118_67803)"/>
<path d="M198.297 105.941C197.721 110.432 196.489 114.813 194.642 118.946C191.227 126.621 185.738 133.605 178.508 139.415C173.412 138.561 168.5 136.834 163.99 134.311C165.619 133.351 167.199 132.308 168.723 131.188C168.875 131.09 169.021 130.983 169.161 130.869C177.6 124.792 183.68 115.986 186.371 105.941H198.297Z" fill="url(#paint3_linear_118_67803)"/>
<path d="M198.684 77.3887H141.572V89.8409H198.684V77.3887Z" fill="url(#paint4_linear_118_67803)"/>
<path d="M198.683 89.8418V100.102C198.683 100.526 198.67 100.952 198.657 101.377H186.191C186.204 100.951 186.21 100.526 186.21 100.102V89.8418H198.683Z" fill="url(#paint5_linear_118_67803)"/>
</g>
<g clip-path="url(#clip2_118_67803)">
<path d="M269.657 102.228L279.791 85.0324L307.107 127.577L307.12 135.74L307.03 79.5556C306.999 78.8779 306.804 78.2178 306.464 77.6311C306.123 77.0443 305.646 76.5481 305.073 76.1844L255.895 47.898C255.307 47.6188 254.665 47.4755 254.014 47.4786C253.364 47.4816 252.722 47.6311 252.137 47.9157C251.986 47.9918 251.839 48.0769 251.697 48.1704L251.526 48.2786L203.789 75.9405L203.603 76.0241C203.356 76.1387 203.12 76.2763 202.898 76.4352C202.003 77.0745 201.393 78.0383 201.198 79.1209C201.168 79.2852 201.147 79.451 201.137 79.6176L201.212 125.402L226.655 85.9666C229.858 80.7377 236.837 79.0531 243.316 79.1445L250.92 79.3413L206.115 151.195L211.397 154.236L256.739 79.413L276.78 79.3402L231.555 156.048L250.404 166.895L252.656 168.19C253.627 168.577 254.706 168.597 255.692 168.25L305.561 139.35L296.022 144.875L269.657 102.228ZM273.524 157.916L254.489 128.04L266.108 108.324L291.107 147.726L273.524 157.916Z" fill="#2D374B"/>
<path d="M254.49 128.041L273.525 157.916L291.109 147.725L266.111 108.324L254.49 128.041Z" fill="#28A0F0"/>
<path d="M307.125 135.741L307.112 127.578L279.796 85.0332L269.656 102.226L296.026 144.874L305.565 139.349C306.027 138.975 306.404 138.507 306.673 137.977C306.942 137.446 307.096 136.865 307.125 136.272L307.125 135.741Z" fill="#28A0F0"/>
<path d="M192.654 143.442L206.118 151.2L250.924 79.3467L243.32 79.15C236.841 79.0586 229.861 80.7422 226.658 85.9721L201.215 125.408L192.659 138.559L192.654 143.442Z" fill="white"/>
<path d="M276.783 79.3457L256.742 79.4184L211.4 154.241L227.248 163.366L231.558 156.056L276.783 79.3457Z" fill="white"/>
<path d="M315.566 79.2418C315.475 77.1736 314.881 75.1588 313.837 73.371C312.793 71.5832 311.33 70.0762 309.574 68.9797L259.752 40.3285C257.973 39.4545 256.018 39 254.036 39C252.054 39 250.099 39.4545 248.32 40.3285C247.904 40.538 199.869 68.3976 199.869 68.3976C199.201 68.718 198.563 69.0957 197.961 69.5266C196.401 70.6357 195.113 72.0839 194.193 73.7623C193.273 75.4407 192.746 77.3058 192.65 79.2173V138.555L201.206 125.404L201.14 79.6215C201.18 78.9938 201.359 78.3828 201.664 77.8325C201.968 77.2822 202.391 76.8063 202.902 76.4391C203.128 76.2768 251.984 47.9973 252.139 47.9196C252.724 47.6349 253.365 47.4855 254.016 47.4824C254.666 47.4793 255.309 47.6227 255.896 47.9019L305.075 76.1902C305.648 76.554 306.124 77.0502 306.465 77.6369C306.806 78.2237 307 78.8838 307.032 79.5614V136.278C307.02 136.866 306.883 137.444 306.629 137.975C306.376 138.506 306.012 138.976 305.562 139.355L296.023 144.88L291.106 147.732L273.522 157.922L255.689 168.257C254.703 168.605 253.625 168.583 252.653 168.197L231.556 156.063L227.246 163.371L246.207 174.288C246.834 174.644 247.393 174.96 247.851 175.218C248.561 175.611 249.045 175.882 249.215 175.964C250.802 176.659 252.517 177.012 254.248 177C255.837 177.002 257.412 176.706 258.89 176.126L310.685 146.131C312.146 144.995 313.34 143.552 314.183 141.904C315.026 140.255 315.498 138.443 315.564 136.592L315.566 79.2418Z" fill="#96BEDC"/>
</g>
<defs>
<linearGradient id="paint0_linear_118_67803" x1="232.75" y1="39" x2="67.6178" y2="91.2489" gradientUnits="userSpaceOnUse">
<stop stop-color="#000756"/>
<stop offset="1" stop-color="#0042B8"/>
</linearGradient>
<linearGradient id="paint1_linear_118_67803" x1="198.955" y1="119.936" x2="151.45" y2="107.133" gradientUnits="userSpaceOnUse">
<stop offset="0.14" stop-color="#ADADAD"/>
<stop offset="0.29" stop-color="#CBCBCB"/>
<stop offset="0.43" stop-color="#E2E2E2"/>
<stop offset="0.59" stop-color="#F2F2F2"/>
<stop offset="0.77" stop-color="#FCFCFC"/>
<stop offset="1" stop-color="white"/>
</linearGradient>
<linearGradient id="paint2_linear_118_67803" x1="181.415" y1="160.502" x2="114.265" y2="66.8449" gradientUnits="userSpaceOnUse">
<stop stop-color="#ADADAD"/>
<stop offset="0.17" stop-color="#CBCBCB"/>
<stop offset="0.34" stop-color="#E2E2E2"/>
<stop offset="0.52" stop-color="#F2F2F2"/>
<stop offset="0.73" stop-color="#FCFCFC"/>
<stop offset="1" stop-color="white"/>
</linearGradient>
<linearGradient id="paint3_linear_118_67803" x1="164.764" y1="146.328" x2="196.658" y2="105.898" gradientUnits="userSpaceOnUse">
<stop offset="0.15" stop-color="#ADADAD"/>
<stop offset="0.29" stop-color="#CBCBCB"/>
<stop offset="0.44" stop-color="#E2E2E2"/>
<stop offset="0.6" stop-color="#F2F2F2"/>
<stop offset="0.77" stop-color="#FCFCFC"/>
<stop offset="1" stop-color="white"/>
</linearGradient>
<linearGradient id="paint4_linear_118_67803" x1="136.082" y1="115.959" x2="163.037" y2="90.3541" gradientUnits="userSpaceOnUse">
<stop offset="0.14" stop-color="#ADADAD"/>
<stop offset="0.43" stop-color="#C9C9C9"/>
<stop offset="1" stop-color="white"/>
</linearGradient>
<linearGradient id="paint5_linear_118_67803" x1="192.437" y1="83.3061" x2="192.437" y2="101.377" gradientUnits="userSpaceOnUse">
<stop offset="0.0895638" stop-color="#ADADAD"/>
<stop offset="0.240189" stop-color="#CBCBCB"/>
<stop offset="0.425047" stop-color="#E2E2E2"/>
<stop offset="0.536875" stop-color="#F2F2F2"/>
<stop offset="1" stop-color="white"/>
</linearGradient>
<clipPath id="clip0_118_67803">
<rect x="3.75" y="39" width="138" height="138" rx="69" fill="white"/>
</clipPath>
<clipPath id="clip1_118_67803">
<rect x="94.75" y="39" width="138" height="138" rx="69" fill="white"/>
</clipPath>
<clipPath id="clip2_118_67803">
<rect width="138" height="138" fill="white" transform="translate(185.75 39)"/>
</clipPath>
</defs>
</svg>
