<svg width="120" height="120" viewBox="0 0 120 120" fill="none" xmlns="http://www.w3.org/2000/svg">
    <g clip-path="url(#clip0)">
        <path d="M48.37 27.3056C47.0697 27.1198 47.0078 27.0579 47.627 26.996C48.8034 26.8102 51.5279 27.0579 53.4474 27.4914C57.9056 28.544 61.9304 31.2684 66.2028 36.0362L67.3174 37.3366L68.9273 37.0889C75.8003 35.9743 82.8592 36.8412 88.7415 39.5657C90.3514 40.3087 92.8901 41.7948 93.1997 42.1663C93.3236 42.2901 93.5093 43.0951 93.6332 43.9C94.0666 46.8102 93.8808 48.9774 92.952 50.6493C92.4567 51.578 92.4567 51.8257 92.7663 52.6307C93.014 53.2499 93.757 53.6833 94.4381 53.6833C95.9242 53.6833 97.4722 51.3304 98.2152 48.0486L98.5248 46.7483L99.0821 47.3675C102.24 50.8969 104.717 55.7886 105.088 59.2561L105.212 60.1849L104.655 59.3799C103.726 57.9558 102.859 57.027 101.683 56.222C99.5774 54.7979 97.3483 54.3644 91.466 54.0548C86.1409 53.7452 83.1068 53.3118 80.1347 52.3211C75.0573 50.6493 72.4567 48.4821 66.4505 40.4945C63.7879 36.965 62.1161 35.0455 60.4443 33.4356C56.791 29.9062 53.1378 28.0486 48.37 27.3056Z" fill="#FF007A"/>
        <path d="M94.5002 35.1707C94.624 32.8177 94.9336 31.2697 95.6148 29.8456C95.8624 29.2883 96.1101 28.793 96.172 28.793C96.2339 28.793 96.1101 29.2264 95.9244 29.7218C95.429 31.084 95.3671 33.0035 95.6767 35.1707C96.1101 37.9571 96.2959 38.3286 99.268 41.3626C100.63 42.7868 102.24 44.5824 102.859 45.3255L103.912 46.6877L102.859 45.697C101.559 44.4586 98.5869 42.1057 97.9058 41.7961C97.4723 41.5484 97.4104 41.5484 97.1008 41.858C96.8531 42.1057 96.7912 42.4772 96.7912 44.2728C96.7293 47.0592 96.3578 48.793 95.429 50.5886C94.9336 51.5174 94.8717 51.3317 95.3052 50.279C95.6148 49.4741 95.6767 49.1026 95.6767 46.44C95.6767 41.053 95.0575 39.7527 91.2804 37.5855C90.3516 37.0283 88.7417 36.2233 87.8129 35.7899C86.8222 35.3564 86.0791 34.9849 86.1411 34.9849C86.2649 34.8611 89.9181 35.9137 91.3423 36.5329C93.5095 37.3998 93.881 37.4617 94.1287 37.3998C94.3144 37.214 94.4383 36.7187 94.5002 35.1707Z" fill="#FF007A"/>
        <path d="M50.909 44.3982C48.3084 40.8068 46.6366 35.2341 47.0081 31.0855L47.1319 29.7852L47.7511 29.909C48.8657 30.0948 50.7852 30.8378 51.714 31.3951C54.1907 32.8811 55.3053 34.9245 56.3579 40.0019C56.6675 41.4879 57.101 43.2217 57.2867 43.779C57.5963 44.7078 58.7728 46.8749 59.7635 48.2372C60.4446 49.2279 60.0112 49.7232 58.4632 49.5994C56.1102 49.3517 52.9523 47.1845 50.909 44.3982Z" fill="#FF007A"/>
        <path d="M91.3422 71.3315C79.0822 66.3779 74.7478 62.1055 74.7478 54.8609C74.7478 53.8083 74.8097 52.9414 74.8097 52.9414C74.8716 52.9414 75.3051 53.3129 75.8624 53.7464C78.3391 55.7278 81.1255 56.5947 88.8655 57.7092C93.3856 58.3903 95.9862 58.8857 98.3391 59.6906C105.831 62.1674 110.475 67.2448 111.59 74.1179C111.9 76.0993 111.714 79.8764 111.218 81.8578C110.785 83.4058 109.547 86.2541 109.237 86.316C109.175 86.316 109.051 86.0064 109.051 85.5111C108.927 82.9104 107.627 80.4337 105.46 78.5142C102.859 76.2851 99.5156 74.6132 91.3422 71.3315Z" fill="#FF007A"/>
        <path d="M82.6735 73.3732C82.5497 72.4444 82.2401 71.2679 82.0543 70.7725L81.7447 69.8438L82.302 70.5249C83.107 71.4537 83.7262 72.5682 84.2834 74.1162C84.7169 75.2927 84.7169 75.6642 84.7169 77.5837C84.7169 79.4413 84.655 79.8747 84.2834 80.9273C83.6642 82.5992 82.9212 83.7756 81.6828 85.0759C79.4537 87.367 76.5435 88.6054 72.3949 89.1626C71.6519 89.2246 69.5466 89.4103 67.689 89.5342C63.0451 89.7818 59.9491 90.2772 57.1627 91.2679C56.7912 91.3917 56.4197 91.5156 56.3578 91.4537C56.2339 91.3298 58.1534 90.2153 59.7014 89.4722C61.8686 88.4196 64.0977 87.8623 68.9893 86.9955C71.4042 86.6239 73.881 86.1286 74.5002 85.8809C80.6302 83.9614 83.6642 79.1936 82.6735 73.3732Z" fill="#FF007A"/>
        <path d="M88.3082 83.3455C86.6983 79.8161 86.3268 76.4724 87.1936 73.3145C87.3175 73.0049 87.4413 72.6953 87.5652 72.6953C87.689 72.6953 88.0605 72.8811 88.432 73.1287C89.1751 73.6241 90.723 74.491 94.6859 76.6582C99.7014 79.3826 102.55 81.4879 104.531 83.9027C106.265 86.008 107.317 88.4229 107.813 91.395C108.122 93.0668 107.937 97.0916 107.503 98.7634C106.141 104.027 103.045 108.237 98.5249 110.652C97.8438 111.024 97.2865 111.271 97.2246 111.271C97.1627 111.271 97.4104 110.652 97.7819 109.909C99.2679 106.751 99.4537 103.717 98.3391 100.311C97.658 98.2062 96.2339 95.6675 93.3856 91.395C89.98 86.4415 89.1751 85.1411 88.3082 83.3455Z" fill="#FF007A"/>
        <path d="M42.1782 102.291C46.7603 98.4521 52.395 95.7277 57.5962 94.8608C59.8253 94.4893 63.5405 94.6131 65.5838 95.1704C68.8656 96.0373 71.8377 97.8949 73.3857 100.186C74.8717 102.415 75.5529 104.334 76.234 108.607C76.4817 110.279 76.7912 112.013 76.8532 112.384C77.3485 114.613 78.3392 116.347 79.5776 117.276C81.4971 118.7 84.8408 118.762 88.1225 117.523C88.6798 117.338 89.1751 117.152 89.1751 117.214C89.299 117.338 87.6272 118.452 86.5126 119.009C84.9646 119.814 83.7262 120.062 82.0544 120.062C79.0823 120.062 76.5436 118.514 74.5002 115.418C74.0668 114.799 73.1999 113.003 72.4569 111.331C70.2897 106.316 69.1751 104.83 66.6364 103.158C64.4073 101.734 61.559 101.424 59.3919 102.477C56.5436 103.839 55.8005 107.492 57.782 109.721C58.5869 110.65 60.073 111.393 61.3114 111.579C63.6024 111.889 65.5838 110.093 65.5838 107.802C65.5838 106.316 65.0265 105.449 63.5405 104.768C61.559 103.901 59.3919 104.892 59.4538 106.811C59.4538 107.616 59.8253 108.112 60.6303 108.483C61.1256 108.731 61.1256 108.731 60.7541 108.669C58.9584 108.297 58.525 106.068 59.9491 104.644C61.6829 102.91 65.3361 103.653 66.5745 106.068C67.0699 107.059 67.1318 109.04 66.6984 110.279C65.6457 113.003 62.6736 114.427 59.6395 113.622C57.5962 113.065 56.7293 112.508 54.2525 109.969C49.9182 105.511 48.2464 104.644 42.0544 103.715L40.8779 103.53L42.1782 102.291Z" fill="#FF007A"/>
        <path fill-rule="evenodd" clip-rule="evenodd" d="M9.60802 2.66254C24.0353 20.1858 46.2644 47.4303 47.3789 48.9164C48.3077 50.1548 47.9362 51.3313 46.3882 52.1981C45.5213 52.6935 43.7257 53.1889 42.8588 53.1889C41.8681 53.1889 40.6916 52.6935 39.8867 51.8885C39.3294 51.3313 36.9145 47.8019 31.4656 39.3189C27.317 32.8173 23.7876 27.4303 23.7257 27.3684C23.478 27.2446 23.478 27.2446 31.0322 40.743C35.8 49.226 37.348 52.2601 37.348 52.6316C37.348 53.4365 37.1003 53.87 36.1096 54.9845C34.4377 56.8421 33.6947 58.9474 33.1374 63.3437C32.5182 68.2353 30.8464 71.7028 26.0786 77.5851C23.2922 81.0526 22.8588 81.6718 22.1777 83.096C21.3108 84.8297 21.0631 85.8204 20.9393 88.0495C20.8155 90.4025 21.0631 91.8885 21.7443 94.1176C22.3634 96.0991 23.0446 97.3994 24.7164 99.9381C26.1405 102.167 27.0074 103.839 27.0074 104.458C27.0074 104.954 27.1312 104.954 29.3603 104.458C34.6854 103.22 39.0817 101.115 41.4966 98.5139C42.9826 96.904 43.3542 96.0371 43.3542 93.8081C43.3542 92.3839 43.2922 92.0743 42.9207 91.2074C42.3015 89.8452 41.1251 88.7307 38.5864 86.9969C35.2427 84.7059 33.8186 82.8483 33.447 80.3715C33.1374 78.2663 33.509 76.8421 35.3665 72.9412C37.286 68.9164 37.7814 67.2446 38.091 63.1579C38.2768 60.5573 38.5864 59.5046 39.3294 58.6997C40.1343 57.8328 40.8155 57.5232 42.735 57.2755C45.8929 56.8421 47.9362 56.0372 49.5461 54.4892C50.9703 53.1889 51.5894 51.8885 51.6514 49.969L51.7133 48.5449L50.9083 47.678C47.9981 44.3344 7.68851 0 7.50275 0C7.44083 0 8.43155 1.17647 9.60802 2.66254ZM28.6173 90.7121C29.2984 89.5356 28.9269 88.0495 27.8124 87.3065C26.7597 86.6254 25.1498 86.935 25.1498 87.8638C25.1498 88.1115 25.2737 88.3591 25.6452 88.483C26.2025 88.7926 26.2644 89.1022 25.8309 89.7833C25.3975 90.4644 25.3975 91.0836 25.9548 91.517C26.8216 92.1981 27.9981 91.8266 28.6173 90.7121Z" fill="#FF007A"/>
        <path fill-rule="evenodd" clip-rule="evenodd" d="M53.6952 58.1435C52.2092 58.577 50.785 60.1869 50.3516 61.7968C50.1039 62.7875 50.2277 64.5832 50.6612 65.1404C51.3423 66.0073 51.9615 66.255 53.6952 66.255C57.1008 66.255 60.011 64.7689 60.3206 62.9733C60.6302 61.4872 59.3299 59.4439 57.5342 58.5151C56.6054 58.0197 54.6859 57.8339 53.6952 58.1435ZM57.6581 61.2395C58.1534 60.4965 57.9677 59.6915 57.0389 59.1343C55.3671 58.0816 52.8284 58.9485 52.8284 60.5584C52.8284 61.3634 54.1287 62.2302 55.3671 62.2302C56.172 62.2302 57.2866 61.7349 57.6581 61.2395Z" fill="#FF007A"/>
    </g>
    <defs>
        <clipPath id="clip0">
            <rect width="120" height="120" fill="white"/>
        </clipPath>
    </defs>
</svg>
