<svg width="400" height="400" viewBox="0 0 400 400" fill="none" xmlns="http://www.w3.org/2000/svg">
    <g clip-path="url(#clip0)">
        <path d="M161.233 91.0212C156.899 90.402 156.692 90.1957 158.756 89.9893C162.678 89.3701 171.759 90.1957 178.158 91.6404C193.018 95.1492 206.434 104.231 220.676 120.123L224.391 124.458L229.757 123.632C252.668 119.917 276.197 122.807 295.805 131.888C301.171 134.365 309.633 139.318 310.665 140.557C311.078 140.97 311.697 143.653 312.11 146.336C313.555 156.037 312.936 163.261 309.84 168.833C308.189 171.929 308.189 172.755 309.221 175.438C310.046 177.502 312.523 178.947 314.793 178.947C319.747 178.947 324.907 171.104 327.384 160.165L328.416 155.83L330.273 157.894C340.8 169.659 349.056 185.964 350.294 197.523L350.707 200.619L348.849 197.936C345.753 193.188 342.864 190.092 338.942 187.409C331.925 182.662 324.494 181.217 304.886 180.185C287.136 179.153 277.023 177.709 267.115 174.406C250.191 168.833 241.522 161.609 221.501 134.984C212.626 123.219 207.053 116.821 201.481 111.455C189.303 99.69 177.126 93.498 161.233 91.0212Z" fill="#FF007A"/>
        <path d="M315 117.236C315.413 109.392 316.445 104.232 318.716 99.4853C319.541 97.6278 320.367 95.9766 320.573 95.9766C320.78 95.9766 320.367 97.4214 319.748 99.0725C318.096 103.613 317.89 110.012 318.922 117.236C320.367 126.524 320.986 127.762 330.893 137.875C335.434 142.623 340.8 148.608 342.864 151.085L346.373 155.626L342.864 152.323C338.53 148.195 328.623 140.352 326.352 139.32C324.908 138.495 324.701 138.495 323.669 139.527C322.844 140.352 322.637 141.591 322.637 147.576C322.431 156.864 321.192 162.643 318.096 168.629C316.445 171.725 316.239 171.106 317.684 167.597C318.716 164.914 318.922 163.675 318.922 154.8C318.922 136.843 316.858 132.509 304.268 125.285C301.172 123.428 295.805 120.744 292.709 119.3C289.407 117.855 286.93 116.616 287.137 116.616C287.549 116.204 299.727 119.712 304.474 121.776C311.698 124.666 312.936 124.872 313.762 124.666C314.381 124.047 314.794 122.396 315 117.236Z" fill="#FF007A"/>
        <path d="M169.696 147.987C161.028 136.016 155.455 117.44 156.693 103.612L157.106 99.2773L159.17 99.6901C162.885 100.309 169.284 102.786 172.38 104.644C180.636 109.597 184.351 116.408 187.86 133.333C188.892 138.287 190.336 144.066 190.955 145.923C191.987 149.019 195.909 156.243 199.211 160.784C201.482 164.086 200.037 165.738 194.877 165.325C187.034 164.499 176.508 157.275 169.696 147.987Z" fill="#FF007A"/>
        <path d="M304.474 237.769C263.607 221.257 249.159 207.016 249.159 182.867C249.159 179.358 249.366 176.469 249.366 176.469C249.572 176.469 251.017 177.707 252.874 179.152C261.13 185.757 270.418 188.646 296.218 192.361C311.285 194.632 319.954 196.283 327.797 198.966C352.771 207.222 368.251 224.147 371.966 247.057C372.998 253.662 372.379 266.252 370.728 272.857C369.283 278.017 365.155 287.511 364.123 287.717C363.917 287.717 363.504 286.685 363.504 285.034C363.091 276.366 358.757 268.11 351.533 261.711C342.864 254.281 331.719 248.708 304.474 237.769Z" fill="#FF007A"/>
        <path d="M275.579 244.581C275.166 241.485 274.134 237.564 273.515 235.912L272.483 232.816L274.34 235.087C277.023 238.183 279.087 241.898 280.945 247.058C282.39 250.979 282.39 252.218 282.39 258.616C282.39 264.808 282.183 266.253 280.945 269.762C278.881 275.334 276.404 279.256 272.276 283.59C264.846 291.227 255.145 295.355 241.316 297.213C238.84 297.419 231.822 298.038 225.63 298.451C210.15 299.277 199.83 300.928 190.543 304.23C189.304 304.643 188.066 305.056 187.859 304.849C187.447 304.437 193.845 300.721 199.005 298.245C206.229 294.736 213.659 292.878 229.965 289.989C238.014 288.75 246.27 287.099 248.334 286.274C268.767 279.875 278.881 263.983 275.579 244.581Z" fill="#FF007A"/>
        <path d="M294.36 277.813C288.994 266.048 287.756 254.903 290.645 244.376C291.058 243.344 291.471 242.312 291.884 242.312C292.296 242.312 293.535 242.932 294.773 243.757C297.25 245.408 302.41 248.298 315.619 255.522C332.338 264.604 341.832 271.621 348.437 279.671C354.216 286.688 357.725 294.738 359.376 304.645C360.408 310.218 359.789 323.633 358.344 329.206C353.803 346.75 343.483 360.785 328.416 368.835C326.146 370.073 324.288 370.899 324.082 370.899C323.875 370.899 324.701 368.835 325.939 366.358C330.893 355.832 331.512 345.718 327.797 334.366C325.527 327.349 320.779 318.886 311.285 304.645C299.933 288.133 297.25 283.799 294.36 277.813Z" fill="#FF007A"/>
        <path d="M140.594 340.972C155.867 328.175 174.65 319.094 191.987 316.204C199.417 314.966 211.801 315.378 218.612 317.236C229.552 320.126 239.459 326.318 244.619 333.954C249.572 341.385 251.843 347.783 254.113 362.024C254.939 367.597 255.971 373.376 256.177 374.615C257.828 382.045 261.131 387.824 265.259 390.92C271.657 395.667 282.802 395.874 293.741 391.746C295.599 391.127 297.25 390.507 297.25 390.714C297.663 391.127 292.09 394.842 288.375 396.699C283.215 399.383 279.087 400.208 273.514 400.208C263.607 400.208 255.145 395.048 248.334 384.728C246.889 382.664 243.999 376.679 241.523 371.106C234.299 354.388 230.584 349.434 222.121 343.861C214.691 339.114 205.197 338.082 197.973 341.591C188.478 346.132 186.002 358.309 192.606 365.74C195.289 368.836 200.243 371.312 204.371 371.932C212.008 372.964 218.612 366.978 218.612 359.341C218.612 354.388 216.755 351.498 211.801 349.228C205.197 346.338 197.973 349.641 198.179 356.039C198.179 358.722 199.417 360.373 202.101 361.612C203.752 362.437 203.752 362.437 202.513 362.231C196.528 360.992 195.083 353.562 199.83 348.815C205.609 343.036 217.787 345.513 221.915 353.562C223.566 356.864 223.772 363.469 222.328 367.597C218.819 376.679 208.912 381.426 198.798 378.743C191.987 376.885 189.098 375.028 180.842 366.565C166.394 351.705 160.821 348.815 140.181 345.719L136.26 345.1L140.594 340.972Z" fill="#FF007A"/>
        <path fill-rule="evenodd" clip-rule="evenodd" d="M32.0267 8.87513C80.1175 67.2859 154.215 158.101 157.93 163.055C161.026 167.183 159.787 171.104 154.627 173.994C151.738 175.645 145.752 177.296 142.863 177.296C139.56 177.296 135.639 175.645 132.956 172.962C131.098 171.104 123.048 159.34 104.885 131.063C91.0567 109.391 79.292 91.4345 79.0856 91.2281C78.26 90.8153 78.26 90.8153 103.441 135.81C119.333 164.087 124.493 174.2 124.493 175.439C124.493 178.122 123.668 179.567 120.365 183.282C114.792 189.474 112.316 196.491 110.458 211.146C108.394 227.451 102.821 239.009 86.9287 258.617C77.6408 270.175 76.196 272.239 73.9256 276.987C71.036 282.766 70.2105 286.068 69.7977 293.498C69.3849 301.342 70.2105 306.295 72.4808 313.725C74.5448 320.33 76.8152 324.665 82.388 333.127C87.1351 340.557 90.0247 346.13 90.0247 348.194C90.0247 349.845 90.4375 349.845 97.8678 348.194C115.618 344.066 130.272 337.049 138.322 328.38C143.275 323.013 144.514 320.124 144.514 312.693C144.514 307.946 144.307 306.914 143.069 304.025C141.005 299.484 137.084 295.769 128.621 289.99C117.476 282.353 112.729 276.161 111.49 267.905C110.458 260.888 111.697 256.14 117.888 243.137C124.287 229.721 125.938 224.149 126.97 210.526C127.589 201.858 128.621 198.349 131.098 195.666C133.781 192.776 136.052 191.744 142.45 190.918C152.976 189.474 159.787 186.79 165.154 181.631C169.901 177.296 171.965 172.962 172.171 166.563L172.378 161.816L169.694 158.927C159.994 147.781 25.6284 0 25.0092 0C24.8028 0 28.1052 3.92157 32.0267 8.87513ZM95.391 302.374C97.6614 298.452 96.423 293.498 92.7079 291.022C89.1991 288.751 83.8327 289.783 83.8327 292.879C83.8327 293.705 84.2455 294.53 85.4839 294.943C87.3415 295.975 87.5479 297.007 86.1031 299.278C84.6583 301.548 84.6583 303.612 86.5159 305.057C89.4055 307.327 93.3271 306.089 95.391 302.374Z" fill="#FF007A"/>
        <path fill-rule="evenodd" clip-rule="evenodd" d="M178.984 193.809C174.031 195.254 169.284 200.62 167.839 205.987C167.013 209.289 167.426 215.275 168.871 217.132C171.141 220.022 173.205 220.847 178.984 220.847C190.336 220.847 200.037 215.894 201.069 209.908C202.101 204.955 197.766 198.144 191.781 195.048C188.685 193.396 182.287 192.777 178.984 193.809ZM192.194 204.129C193.845 201.652 193.226 198.969 190.13 197.112C184.557 193.603 176.095 196.492 176.095 201.859C176.095 204.542 180.429 207.432 184.557 207.432C187.24 207.432 190.955 205.78 192.194 204.129Z" fill="#FF007A"/>
    </g>
    <defs>
        <clipPath id="clip0">
            <rect width="400" height="400" fill="white"/>
        </clipPath>
    </defs>
</svg>
