<svg width="114" height="24" viewBox="0 0 114 24" fill="none" xmlns="http://www.w3.org/2000/svg">
<g clip-path="url(#clip0_263_737)">
<path d="M46.5781 24H3.11483C1.59235 24 0.359863 22.7494 0.359863 21.2046V2.7954C0.359863 1.25057 1.59235 0 3.11483 0H46.5781V24Z" fill="url(#paint0_linear_263_737)"/>
<path d="M110.885 24H46.5781V0H110.885C112.407 0 113.64 1.25057 113.64 2.7954V21.2138C113.64 22.7494 112.407 24 110.885 24Z" fill="url(#paint1_linear_263_737)"/>
<path d="M14.479 14.5562C14.479 15.4666 14.3522 16.193 14.1075 16.7355C13.8628 17.2781 13.5365 17.6919 13.1469 17.9677C12.7572 18.2528 12.3222 18.4367 11.8419 18.5286C11.3616 18.6206 10.8903 18.6666 10.4281 18.6666H5.8335V5.43439H10.8903C11.5428 5.43439 12.0684 5.54474 12.4853 5.76543C12.9022 5.98612 13.2284 6.27117 13.4731 6.6298C13.7178 6.98842 13.8809 7.38382 13.9715 7.816C14.0622 8.24819 14.0984 8.68037 14.0893 9.09416C14.0712 10.2988 13.7722 11.1172 13.1922 11.5493C13.5728 11.7332 13.8809 12.0643 14.1256 12.5424C14.3612 13.0298 14.479 13.7011 14.479 14.5562ZM11.6516 9.14014C11.6516 8.72635 11.6062 8.4137 11.5066 8.21141C11.4069 8.00911 11.2166 7.90796 10.9266 7.90796H8.30753V10.547H10.6909C11.0625 10.547 11.3072 10.4183 11.4431 10.17C11.5791 9.91255 11.6516 9.56313 11.6516 9.14014ZM11.9959 14.5746C11.9959 14.2068 11.9687 13.9126 11.9053 13.7011C11.8509 13.4896 11.7694 13.3149 11.6787 13.1953C11.5881 13.0758 11.4884 12.993 11.3706 12.9562C11.2619 12.9195 11.1531 12.9011 11.0444 12.9011H8.30753V16.0735H10.8359C11.2709 16.0735 11.5791 15.9539 11.7422 15.7241C11.9144 15.485 11.9959 15.108 11.9959 14.5746ZM24.3933 18.6666H16.1103V5.43439H24.2483V7.99991H18.5752V10.4367H23.7952V13.0022H18.5752V16.0827H24.3933V18.6666ZM33.9813 14.7585C33.9813 17.5447 32.5041 18.9424 29.5498 18.9424C28.1179 18.9424 27.0214 18.5286 26.2692 17.7103C25.517 16.8827 25.1455 15.6137 25.1455 13.8942H27.547C27.5651 14.2712 27.6104 14.6298 27.6739 14.9424C27.7373 15.2643 27.8551 15.5309 28.0182 15.7608C28.1814 15.9907 28.3898 16.1654 28.6526 16.2942C28.9154 16.4229 29.2507 16.4873 29.6585 16.4873C30.3292 16.4873 30.8095 16.3585 31.1085 16.1103C31.4076 15.862 31.5616 15.3654 31.5616 14.6482C31.5616 14.2712 31.4982 13.9953 31.3804 13.8298C31.2626 13.6643 31.0723 13.5355 30.8185 13.4344C30.5285 13.3241 30.1751 13.2413 29.7673 13.1769C29.3595 13.1126 28.8882 13.0114 28.3626 12.8643C27.9548 12.7447 27.5742 12.6068 27.2298 12.4505C26.8855 12.2942 26.5773 12.0827 26.3145 11.7976C26.0517 11.5126 25.8523 11.1447 25.7073 10.6942C25.5623 10.2436 25.4898 9.64589 25.4898 8.91026C25.4898 8.36773 25.5533 7.89876 25.6892 7.50336C25.8161 7.10796 25.9973 6.76773 26.2148 6.49186C26.4323 6.216 26.6861 5.99531 26.967 5.8206C27.257 5.64589 27.547 5.51715 27.8461 5.4252C28.1451 5.33324 28.4442 5.26888 28.7432 5.24129C29.0423 5.2137 29.3232 5.19531 29.5679 5.19531C30.4198 5.19531 31.1176 5.33324 31.6432 5.59991C32.1779 5.86658 32.5857 6.2252 32.8848 6.64819C33.1838 7.08037 33.3832 7.56773 33.4829 8.10106C33.5826 8.64359 33.6369 9.17692 33.6369 9.70106H31.2807C31.2445 9.48037 31.2173 9.2321 31.1901 8.96543C31.172 8.69876 31.1085 8.45968 31.0179 8.26658C30.9363 8.09187 30.8004 7.93554 30.592 7.79761C30.3835 7.65968 30.0573 7.58612 29.6132 7.58612C29.2689 7.58612 28.9789 7.6137 28.7523 7.67807C28.5257 7.74244 28.3536 7.83439 28.2267 7.95393C28.0998 8.07347 28.0092 8.23899 27.9639 8.43209C27.9186 8.6252 27.8914 8.86428 27.8914 9.13095C27.8914 9.45279 27.9639 9.68267 28.0998 9.8206C28.2357 9.95853 28.4986 10.0781 28.8792 10.1792C29.2779 10.2896 29.6767 10.3815 30.0845 10.4551C30.4923 10.5286 30.882 10.6206 31.2626 10.7218C31.6432 10.8229 31.9966 10.9608 32.3229 11.1355C32.6491 11.3103 32.9391 11.5401 33.1838 11.8436C33.4285 12.147 33.6279 12.5332 33.7638 13.0022C33.9179 13.4712 33.9813 14.0597 33.9813 14.7585ZM42.9803 7.99072H39.9987V18.6666H37.5247V7.99072H34.5432V5.43439H42.9712V7.99072H42.9803Z" fill="white"/>
<path d="M58.9666 13.8022C58.9122 14.4919 58.7944 15.1447 58.6131 15.77C58.4319 16.3953 58.1691 16.9378 57.8247 17.3976C57.4803 17.8666 57.0272 18.2344 56.4744 18.5103C55.9216 18.7861 55.251 18.924 54.4626 18.924C53.5563 18.924 52.786 18.7677 52.1517 18.4551C51.5173 18.1424 51.0098 17.6827 50.611 17.0942C50.2214 16.4965 49.9314 15.7608 49.7592 14.8873C49.5779 14.0137 49.4873 13.0206 49.4873 11.8988C49.4873 10.8689 49.587 9.93094 49.7773 9.10336C49.9676 8.27577 50.2667 7.56772 50.6745 6.97922C51.0823 6.39991 51.5988 5.94933 52.2151 5.63669C52.8404 5.32405 53.5835 5.16772 54.4444 5.16772C55.3144 5.16772 56.0213 5.30566 56.5741 5.58152C57.1269 5.85738 57.5619 6.216 57.8972 6.65738C58.2235 7.09876 58.4591 7.60451 58.6041 8.16543C58.7491 8.72635 58.8488 9.29646 58.9122 9.85738H56.5741C56.5197 9.56313 56.4563 9.27807 56.3838 9.0114C56.3204 8.74474 56.2116 8.50566 56.0757 8.31255C55.9397 8.11945 55.7494 7.96313 55.5138 7.84359C55.2782 7.72405 54.961 7.66887 54.5622 7.66887C54.0819 7.66887 53.6741 7.75163 53.3479 7.90795C53.0216 8.06428 52.7498 8.32175 52.5504 8.68037C52.351 9.03899 52.206 9.50795 52.1154 10.0873C52.0248 10.6666 51.9885 11.3838 51.9885 12.239C51.9885 13.1034 52.052 13.793 52.1698 14.3355C52.2876 14.8689 52.4598 15.2919 52.6773 15.5861C52.8948 15.8896 53.1576 16.0919 53.4748 16.2022C53.7919 16.3126 54.1363 16.3677 54.526 16.3677C54.9247 16.3677 55.2329 16.3034 55.4685 16.1838C55.7041 16.0643 55.8854 15.8896 56.0213 15.6597C56.1572 15.4298 56.266 15.1631 56.3385 14.8505C56.42 14.5378 56.4925 14.1884 56.5741 13.793H58.9666V13.8022ZM68.8899 18.6666H66.4249V12.9562H62.7093V18.6666H60.2444V5.43439H62.7093V10.3723H66.4249V5.43439H68.8899V18.6666ZM79.2845 18.6666H76.7017L76.022 15.9355H72.7414L72.0708 18.6666H69.5786L73.1492 5.43439H75.5961L79.2845 18.6666ZM75.4058 13.4712L74.3908 9.2137L73.3486 13.4712H75.4058ZM86.5253 18.6666L82.7554 10.6114V18.6666H80.2904V5.43439H82.7101L86.5072 13.4344V5.43439H88.9541V18.6666H86.5253ZM100.074 18.6666H98.0708V17.324C97.9258 17.6459 97.7446 17.9034 97.5271 18.1057C97.3096 18.308 97.074 18.4643 96.8202 18.5838C96.5665 18.7034 96.2946 18.7769 96.0227 18.8229C95.7509 18.8689 95.479 18.8873 95.2162 18.8873C94.3099 18.8873 93.5487 18.7126 92.9415 18.3539C92.3343 17.9953 91.845 17.508 91.4734 16.8827C91.1018 16.2574 90.839 15.5126 90.685 14.6574C90.5309 13.8022 90.4494 12.8827 90.4494 11.8988C90.4494 7.4114 92.1078 5.16772 95.4337 5.16772C96.2584 5.16772 96.9471 5.30566 97.518 5.57232C98.089 5.83899 98.5511 6.20681 98.9046 6.64818C99.258 7.09876 99.5118 7.6137 99.6658 8.18382C99.8199 8.76313 99.9014 9.36083 99.9014 9.96772H97.3821C97.3821 9.70106 97.364 9.4252 97.3277 9.14014C97.2915 8.85508 97.2099 8.6068 97.083 8.38611C96.9562 8.16543 96.7568 7.98152 96.494 7.84359C96.2312 7.70566 95.8777 7.63209 95.4246 7.63209C94.9715 7.63209 94.5818 7.70566 94.2737 7.86198C93.9565 8.0183 93.7028 8.25738 93.5034 8.58841C93.304 8.91945 93.159 9.35163 93.0684 9.87577C92.9778 10.3999 92.9324 11.0344 92.9324 11.77C92.9324 12.5792 92.9687 13.2781 93.0503 13.8574C93.1318 14.4367 93.2678 14.9057 93.4671 15.2551C93.6665 15.6137 93.9293 15.8712 94.2556 16.0367C94.5818 16.2022 94.9987 16.285 95.5062 16.285C95.7962 16.285 96.068 16.239 96.3309 16.147C96.5937 16.0551 96.8202 15.908 97.0105 15.7148C97.2008 15.5217 97.3549 15.2643 97.4636 14.9608C97.5724 14.6574 97.6177 14.2896 97.6086 13.8574H95.2887V11.4206H100.092V18.6666H100.074ZM109.888 18.6666H101.623V5.43439H109.743V7.99991H104.088V10.4367H109.29V13.0022H104.088V16.0827H109.888V18.6666Z" fill="#363636"/>
</g>
<defs>
<linearGradient id="paint0_linear_263_737" x1="23.4693" y1="24" x2="23.4693" y2="0" gradientUnits="userSpaceOnUse">
<stop stop-color="#1C1C1C"/>
<stop offset="1" stop-color="#4B4B4B"/>
</linearGradient>
<linearGradient id="paint1_linear_263_737" x1="80.1093" y1="24" x2="80.1093" y2="0" gradientUnits="userSpaceOnUse">
<stop stop-color="#BCBCBC"/>
<stop offset="1" stop-color="#F3F3F3"/>
</linearGradient>
<clipPath id="clip0_263_737">
<rect width="113.28" height="24" fill="white" transform="translate(0.359863)"/>
</clipPath>
</defs>
</svg>
