<svg width="158" height="116" viewBox="0 0 158 116" fill="none" xmlns="http://www.w3.org/2000/svg">
    <rect width="158" height="116" rx="21" fill="#F3F9FF"/>
    <path d="M36.4636 37.2563C35.7903 36.442 34.9414 35.7909 33.9816 35.3521C33.0703 34.9407 32.086 34.7174 31.0869 34.6952C29.9823 34.6593 28.8819 34.8468 27.8515 35.2469C26.9256 35.6109 26.085 36.163 25.3824 36.8691C24.6954 37.5681 24.1641 38.4049 23.8238 39.3251C23.1108 41.3345 23.1108 43.5286 23.8238 45.538C24.1617 46.465 24.6931 47.3091 25.3824 48.0138C26.0842 48.7206 26.9251 49.2731 27.8515 49.636C28.8819 50.0358 29.9823 50.2233 31.0869 50.1874C32.086 50.1653 33.0703 49.9419 33.9816 49.5309C34.9418 49.0921 35.7903 48.441 36.4636 47.6263L34.7673 46.3128C34.3835 46.8847 33.8724 47.3589 33.2742 47.6987C32.6097 48.0828 31.8534 48.2781 31.0869 48.2634C30.2958 48.2979 29.5067 48.1589 28.775 47.8561C28.1138 47.5928 27.5157 47.192 27.0197 46.6805C26.5272 46.1376 26.1526 45.4981 25.9195 44.8022C25.4169 43.2777 25.4169 41.6312 25.9195 40.1067C26.1536 39.4132 26.5282 38.7761 27.0197 38.2349C27.507 37.7064 28.1009 37.2877 28.7617 37.0067C29.4937 36.7042 30.2828 36.5656 31.0736 36.5997C31.8405 36.5851 32.5968 36.7804 33.2612 37.1645C33.8591 37.5042 34.3702 37.9788 34.7543 38.5504L36.4506 37.2369L36.4636 37.2563ZM41.4278 49.833H43.5041V42.2673C43.458 41.1785 43.6831 40.0951 44.159 39.1151C44.5018 38.448 44.9898 37.8668 45.5866 37.4141C46.0284 37.0682 46.5402 36.8241 47.0862 36.6981C47.3812 36.6465 47.6783 36.6117 47.977 36.5933C49.5053 36.5933 50.5532 37.031 51.1207 37.9068C51.7558 39.0568 52.0508 40.3641 51.9719 41.6763V49.833H54.0482V40.4679C54.1489 38.9256 53.6675 37.4018 52.6988 36.1992C51.7865 35.2183 50.3873 34.728 48.5011 34.728C48.0071 34.7293 47.5161 34.7979 47.0405 34.9318C46.5532 35.065 46.083 35.2545 45.6392 35.4965C45.2066 35.7335 44.8061 36.0248 44.4472 36.3635C44.1023 36.6861 43.8067 37.058 43.5693 37.4667H43.5041V26H41.4278V49.833ZM70.5717 42.4906V43.5611C70.5751 44.1863 70.4846 44.8084 70.3033 45.4066C70.1373 45.9665 69.8515 46.4838 69.4661 46.9216C69.0802 47.3593 68.6036 47.7076 68.0699 47.9414C67.4495 48.2078 66.7796 48.3375 66.1052 48.3225C65.6863 48.3218 65.2687 48.2733 64.8607 48.1781C64.4646 48.0879 64.0877 47.9278 63.7476 47.7052C63.4171 47.4883 63.1432 47.1957 62.9486 46.8512C62.7393 46.4698 62.6352 46.0389 62.6471 45.6036C62.6324 45.2741 62.6942 44.946 62.8284 44.6448C62.9626 44.3437 63.1654 44.0784 63.4201 43.8697C63.9658 43.4323 64.5974 43.1145 65.2735 42.9373C66.0141 42.7338 66.7731 42.6061 67.5393 42.5562C68.3253 42.5036 68.9802 42.4773 69.5043 42.4773L70.5717 42.4906ZM69.5367 40.7896C68.6637 40.7896 67.6943 40.8312 66.629 40.9146C65.6088 40.9989 64.6046 41.2198 63.6428 41.5711C62.753 41.8798 61.954 42.4056 61.3175 43.1015C60.6609 43.8899 60.3284 44.8995 60.3878 45.9252C60.3724 46.577 60.5189 47.2224 60.8136 47.8035C61.0901 48.3307 61.4766 48.792 61.9465 49.1566C62.4286 49.5305 62.9776 49.8091 63.5642 49.9775C64.1768 50.1571 64.8119 50.2479 65.4504 50.2465C66.4989 50.2745 67.5386 50.0492 68.4824 49.5899C69.381 49.0911 70.1261 48.3553 70.6372 47.4621H70.7028C70.7028 47.8605 70.7178 48.2699 70.7485 48.6902C70.7789 49.1105 70.8291 49.4916 70.8991 49.833H72.8638C72.8026 49.4346 72.746 48.9245 72.6937 48.3027C72.6411 47.6809 72.6237 47.0964 72.6411 46.5494V39.9821C72.6613 39.1824 72.5117 38.3875 72.2024 37.6504C71.9323 37.0334 71.5349 36.4806 71.0367 36.0285C70.5392 35.5901 69.954 35.2633 69.3206 35.0694C68.6555 34.8591 67.962 34.7525 67.2644 34.7542C64.4964 34.7542 62.4224 35.4679 61.0427 36.8954L62.3002 38.3793C63.5209 37.2461 65.1291 36.6253 66.7929 36.6458C69.3076 36.6458 70.5652 37.9177 70.5652 40.4615V40.8422L69.5367 40.7896ZM79.5308 35.0827C79.5745 35.63 79.6117 36.2078 79.6424 36.8166C79.6728 37.425 79.6882 37.9286 79.6882 38.3271V49.833H81.7641V42.2673C81.7184 41.1785 81.9434 40.0951 82.419 39.1151C82.7618 38.448 83.2498 37.8668 83.8469 37.4141C84.2884 37.0682 84.8006 36.8241 85.3466 36.6981C85.6364 36.6404 85.9294 36.5987 86.2241 36.5734C87.7523 36.5734 88.8002 37.0112 89.3677 37.887C90.0028 39.037 90.2981 40.3443 90.2193 41.6565V49.833H92.2952V40.4679C92.396 38.9256 91.9145 37.4018 90.9462 36.1992C90.0424 35.2183 88.6473 34.728 86.7612 34.728C86.2674 34.7293 85.7761 34.7979 85.3008 34.9318C84.8136 35.065 84.343 35.2545 83.8992 35.4965C83.4611 35.726 83.0538 36.0108 82.6877 36.3437C82.3429 36.6663 82.0472 37.0382 81.8099 37.4469H81.7447C81.7447 37.0484 81.7447 36.6544 81.7447 36.2648C81.7447 35.8752 81.7184 35.4812 81.6658 35.0827H79.5308ZM101.333 40.0804C101.606 39.4129 102.001 38.8024 102.499 38.281C102.993 37.7658 103.579 37.3489 104.228 37.0528C104.904 36.7438 105.64 36.5868 106.382 36.5933C107.181 36.5823 107.973 36.7391 108.707 37.0528C109.372 37.3379 109.971 37.7559 110.469 38.281C110.953 38.8 111.328 39.4122 111.569 40.0804C111.825 40.7831 111.954 41.5257 111.949 42.2738C111.981 43.0701 111.847 43.8639 111.556 44.6052C111.286 45.2796 110.872 45.887 110.345 46.3851C109.28 47.3863 107.875 47.9449 106.415 47.9479C105.672 47.9548 104.936 47.7977 104.26 47.4883C103.612 47.1927 103.025 46.7758 102.532 46.2602C102.034 45.7391 101.638 45.1286 101.366 44.4608C100.8 43.0557 100.8 41.4854 101.366 40.0804H101.333ZM98.9885 54.4302C99.8654 55.3924 100.937 56.1559 102.132 56.6694C103.381 57.1703 104.717 57.4158 106.062 57.3919C107.442 57.4472 108.816 57.1891 110.083 56.6366C111.02 56.2026 111.843 55.5549 112.486 54.7454C113.053 54.0116 113.451 53.1618 113.652 52.2562C113.844 51.418 113.945 50.5617 113.953 49.7016V35.0827H111.877V37.5387H111.812C111.094 36.5407 110.121 35.7557 108.996 35.2664C108.521 35.0626 108.024 34.9151 107.515 34.8266C107.053 34.7457 106.584 34.7041 106.114 34.7017C105.085 34.6907 104.064 34.8898 103.115 35.2862C102.226 35.6591 101.423 36.2112 100.757 36.9084C100.089 37.6125 99.5601 38.437 99.1982 39.3385C98.8168 40.2901 98.6253 41.3075 98.6348 42.3329C98.6256 43.3617 98.8284 44.3812 99.2306 45.3277C99.6103 46.2233 100.167 47.0322 100.868 47.7052C101.573 48.3771 102.4 48.9077 103.304 49.2683C104.258 49.6493 105.277 49.8412 106.304 49.833C107.356 49.8293 108.395 49.6056 109.356 49.1761C110.363 48.7175 111.215 47.9735 111.805 47.0352H111.871V49.6623C111.875 50.4234 111.773 51.1814 111.569 51.9148C111.387 52.5984 111.056 53.2331 110.6 53.7733C110.115 54.324 109.507 54.7515 108.825 55.0212C107.973 55.3477 107.065 55.504 106.153 55.4808C105.018 55.4989 103.895 55.2445 102.879 54.7389C101.945 54.2776 101.133 53.6029 100.508 52.7684L98.9885 54.4302ZM122.343 41.2953C122.344 40.681 122.49 40.076 122.768 39.5286C123.053 38.9612 123.437 38.4497 123.902 38.0184C124.384 37.5694 124.943 37.2116 125.552 36.961C126.174 36.6988 126.842 36.5646 127.517 36.567C128.163 36.5287 128.809 36.6257 129.416 36.8517C130.023 37.0781 130.576 37.4281 131.04 37.8805C131.461 38.3394 131.787 38.8775 132 39.4638C132.212 40.0497 132.307 40.6725 132.278 41.2953H122.343ZM134.537 42.9963V42.0768C134.543 41.1068 134.383 40.1429 134.066 39.2268C133.77 38.3657 133.304 37.5729 132.697 36.8954C132.081 36.2166 131.332 35.6734 130.497 35.2995C129.555 34.8891 128.537 34.6853 127.51 34.7017C126.507 34.6938 125.512 34.8925 124.589 35.2862C123.703 35.6635 122.901 36.2153 122.232 36.9084C121.552 37.6155 121.017 38.4504 120.66 39.3647C120.276 40.3478 120.085 41.3956 120.097 42.4514C120.086 43.5085 120.284 44.5574 120.679 45.538C121.046 46.4507 121.584 47.2848 122.264 47.994C122.946 48.6947 123.764 49.2468 124.668 49.6162C125.63 50.0102 126.661 50.209 127.7 50.2008C128.876 50.21 130.04 49.9635 131.112 49.4783C132.258 48.9234 133.255 48.1016 134.02 47.0813L132.415 45.7678C131.943 46.4917 131.314 47.1001 130.575 47.5474C129.712 48.079 128.713 48.3484 127.7 48.3225C126.998 48.3297 126.303 48.191 125.657 47.9151C124.393 47.3736 123.382 46.3715 122.827 45.1109C122.531 44.4529 122.349 43.7489 122.29 43.0291L134.537 42.9963Z" fill="black"/>
    <path d="M25.0942 89.2371H30.3727V66.4158H30.4581L45.1282 89.2371H51.8344V59.4807H46.5493V81.5864H46.4707L32.0625 59.4807H25.0942V89.2371ZM60.2633 80.8311C60.9919 82.6725 62.0979 84.3408 63.5087 85.7274C64.9199 87.1144 66.6053 88.1892 68.4562 88.8827C70.4711 89.6441 72.6099 90.0228 74.763 89.9992C76.9424 89.9978 79.1027 89.5925 81.1353 88.8038C82.9969 88.0765 84.6939 86.9826 86.1259 85.5857C87.5415 84.1882 88.6563 82.5141 89.4003 80.6669C90.1952 78.6462 90.5844 76.488 90.5465 74.3164C90.5783 72.1022 90.1802 69.9026 89.3743 67.8409C88.6375 65.9784 87.5224 64.2896 86.0996 62.8825C84.6775 61.4939 82.9761 60.4258 81.109 59.7498C79.0665 59.0164 76.9062 58.6667 74.7367 58.719C72.5836 58.6954 70.4451 59.0737 68.4299 59.8351C66.58 60.5368 64.896 61.6171 63.4855 63.0071C62.063 64.4224 60.9482 66.1173 60.2107 67.9854C59.4302 70.0613 59.0566 72.2691 59.1106 74.4871C59.0816 76.6584 59.4797 78.8142 60.2828 80.8311H60.2633ZM65.3583 69.9883C65.8251 68.7365 66.5301 67.5879 67.4346 66.6063C68.3353 65.6335 69.4283 64.8598 70.6435 64.334C71.9662 63.7699 73.3918 63.4903 74.8286 63.5132C76.2671 63.494 77.6943 63.7733 79.0201 64.334C80.2431 64.8564 81.3429 65.6304 82.2488 66.6063C83.1526 67.5883 83.8577 68.7369 84.3248 69.9883C84.8099 71.3151 85.0496 72.7195 85.0322 74.1324C85.0479 75.6354 84.7994 77.1292 84.2988 78.5455C83.8426 79.8338 83.1369 81.0189 82.2225 82.033C81.3187 83.0205 80.2189 83.8082 78.9938 84.3446C77.6714 84.9185 76.2431 85.205 74.8023 85.1852C73.3679 85.2067 71.9454 84.9202 70.6305 84.3446C69.4133 83.8044 68.3207 83.0174 67.4213 82.033C66.5066 81.0193 65.8008 79.8341 65.3453 78.5455C64.8465 77.1289 64.6003 75.6347 64.6184 74.1324C64.6064 72.7113 64.8554 71.2998 65.3518 69.9688L65.3583 69.9883ZM103.258 89.2371H108.118L114.994 66.58H115.08L121.982 89.2371H127.012L135.644 59.4807H130.28L124.451 80.9165H124.366L117.817 59.4807H112.617L105.944 80.9165H105.859L100.285 59.4807H94.4762L103.258 89.2371Z" fill="#00C26F"/>
</svg>
