<svg width="88" height="50" viewBox="0 0 88 50" fill="none" xmlns="http://www.w3.org/2000/svg">
<path d="M10.4039 8.79402C9.8779 8.15781 9.21475 7.64912 8.46491 7.30634C7.75295 6.9849 6.9839 6.81045 6.20339 6.79311C5.34044 6.7651 4.4807 6.91155 3.67572 7.22418C2.9524 7.50854 2.29565 7.93988 1.74678 8.49152C1.21005 9.03756 0.794987 9.69137 0.529062 10.4103C-0.0279165 11.9801 -0.0279165 13.6943 0.529062 15.2641C0.793067 15.9883 1.20821 16.6477 1.74678 17.1983C2.29507 17.7505 2.952 18.1821 3.67572 18.4657C4.4807 18.778 5.34044 18.9245 6.20339 18.8965C6.9839 18.8791 7.75295 18.7047 8.46491 18.3835C9.21502 18.0407 9.8779 17.532 10.4039 16.8955L9.07871 15.8694C8.77888 16.3162 8.37955 16.6867 7.9122 16.9521C7.3931 17.2522 6.80225 17.4048 6.20339 17.3933C5.58532 17.4202 4.96886 17.3117 4.39721 17.0751C3.88067 16.8694 3.41337 16.5562 3.02592 16.1566C2.64115 15.7325 2.34844 15.2329 2.16633 14.6892C1.77367 13.4982 1.77367 12.2119 2.16633 11.0209C2.34922 10.4791 2.6419 9.98133 3.02592 9.55853C3.40662 9.1456 3.87056 8.81856 4.38681 8.59902C4.95872 8.36268 5.57519 8.25438 6.19298 8.28105C6.79211 8.26958 7.38297 8.42216 7.90207 8.72226C8.36915 8.98768 8.76848 9.35847 9.06857 9.80501L10.3938 8.77881L10.4039 8.79402ZM14.2822 18.6196H15.9044V12.7089C15.8684 11.8582 16.0441 11.0118 16.416 10.2462C16.6838 9.72498 17.065 9.27097 17.5313 8.91726C17.8765 8.64704 18.2763 8.45631 18.7029 8.35788C18.9333 8.3176 19.1654 8.29039 19.3988 8.27598C20.5928 8.27598 21.4115 8.61796 21.8548 9.30218C22.351 10.2006 22.5814 11.222 22.5198 12.2471V18.6196H24.1419V11.3031C24.2206 10.0982 23.8445 8.90766 23.0877 7.96815C22.375 7.20178 21.2818 6.81872 19.8083 6.81872C19.4223 6.81978 19.0387 6.8734 18.6671 6.97797C18.2865 7.082 17.9191 7.23005 17.5724 7.41918C17.2344 7.6043 16.9215 7.83184 16.6411 8.09646C16.3717 8.34854 16.1407 8.63903 15.9553 8.95834H15.9044V0H14.2822V18.6196ZM37.0509 12.8833V13.7196C37.0535 14.208 36.9829 14.694 36.8412 15.1614C36.7116 15.5989 36.4883 16.003 36.1871 16.345C35.8857 16.6869 35.5133 16.959 35.0964 17.1418C34.6117 17.3498 34.0883 17.4512 33.5615 17.4395C33.2342 17.4389 32.908 17.401 32.5892 17.3266C32.2798 17.2562 31.9853 17.1311 31.7196 16.9572C31.4614 16.7878 31.2474 16.5592 31.0954 16.29C30.9318 15.9921 30.8505 15.6554 30.8598 15.3153C30.8484 15.0579 30.8966 14.8015 31.0015 14.5663C31.1063 14.331 31.2648 14.1237 31.4638 13.9607C31.89 13.619 32.3835 13.3707 32.9117 13.2322C33.4903 13.0733 34.0833 12.9735 34.6818 12.9345C35.2959 12.8935 35.8075 12.8729 36.217 12.8729L37.0509 12.8833ZM36.2423 11.5544C35.5603 11.5544 34.803 11.5869 33.9707 11.652C33.1736 11.7179 32.3891 11.8905 31.6377 12.165C30.9425 12.4061 30.3183 12.8169 29.8211 13.3605C29.3081 13.9765 29.0483 14.7653 29.0947 15.5666C29.0827 16.0758 29.1972 16.58 29.4274 17.034C29.6434 17.4459 29.9454 17.8062 30.3125 18.0911C30.6891 18.3832 31.118 18.6009 31.5763 18.7324C32.0549 18.8727 32.551 18.9437 33.0499 18.9426C33.8691 18.9645 34.6813 18.7884 35.4186 18.4296C36.1207 18.0399 36.7028 17.4651 37.1021 16.7672H37.1533C37.1533 17.0785 37.165 17.3984 37.1891 17.7267C37.2128 18.0551 37.252 18.3528 37.3067 18.6196H38.8416C38.7938 18.3083 38.7496 17.9097 38.7087 17.424C38.6677 16.9382 38.6541 16.4816 38.6677 16.0542V10.9235C38.6834 10.2988 38.5666 9.67777 38.3249 9.10185C38.1139 8.61983 37.8034 8.18796 37.4142 7.83478C37.0255 7.49227 36.5683 7.23699 36.0735 7.08547C35.5539 6.92115 35.0121 6.83792 34.4671 6.83926C32.3046 6.83926 30.6843 7.39677 29.6064 8.51206L30.5888 9.67136C31.5424 8.78601 32.7988 8.30106 34.0987 8.31707C36.0634 8.31707 37.0458 9.31072 37.0458 11.298V11.5954L36.2423 11.5544ZM44.0502 7.09587C44.0843 7.52348 44.1134 7.97482 44.1374 8.45044C44.1612 8.92579 44.1732 9.31925 44.1732 9.63055V18.6196H45.795V12.7089C45.7593 11.8582 45.9351 11.0118 46.3066 10.2462C46.5745 9.72498 46.9557 9.27097 47.4222 8.91726C47.7671 8.64704 48.1672 8.45631 48.5938 8.35788C48.8203 8.3128 49.0491 8.28025 49.2793 8.26051C50.4733 8.26051 51.292 8.60249 51.7353 9.28671C52.2315 10.1851 52.4622 11.2065 52.4006 12.2317V18.6196H54.0224V11.3031C54.1011 10.0982 53.725 8.90766 52.9685 7.96815C52.2624 7.20178 51.1725 6.81872 49.6989 6.81872C49.3132 6.81978 48.9294 6.8734 48.558 6.97797C48.1774 7.082 47.8098 7.23005 47.463 7.41918C47.1208 7.59844 46.8025 7.8209 46.5166 8.08099C46.2472 8.33307 46.0162 8.62356 45.8308 8.94286H45.7798C45.7798 8.63156 45.7798 8.32374 45.7798 8.01937C45.7798 7.71501 45.7593 7.40717 45.7182 7.09587H44.0502ZM61.0834 11.0003C61.2965 10.4788 61.6054 10.0019 61.9941 9.59454C62.3798 9.19201 62.8381 8.86631 63.3446 8.63503C63.8731 8.39362 64.4477 8.27092 65.0281 8.27598C65.6518 8.26745 66.2706 8.38989 66.8444 8.63503C67.3635 8.85777 67.8317 9.18428 68.2209 9.59454C68.5991 10 68.8918 10.4783 69.0803 11.0003C69.2804 11.5493 69.3807 12.1295 69.3772 12.7139C69.4021 13.336 69.2975 13.9562 69.0702 14.5353C68.8587 15.0622 68.5359 15.5367 68.1235 15.9259C67.2915 16.708 66.1944 17.1444 65.0537 17.1468C64.473 17.1522 63.8984 17.0295 63.3702 16.7878C62.8637 16.5568 62.4051 16.2311 62.0197 15.8283C61.6308 15.4212 61.3219 14.9443 61.1087 14.4225C60.667 13.3248 60.667 12.098 61.1087 11.0003H61.0834ZM59.2516 22.2111C59.9366 22.9628 60.7739 23.5593 61.7076 23.9605C62.6831 24.3518 63.7269 24.5436 64.7774 24.5249C65.8556 24.5681 66.9295 24.3665 67.9189 23.9349C68.6511 23.5958 69.2943 23.0898 69.7968 22.4573C70.2391 21.8841 70.5502 21.2201 70.7075 20.5127C70.8577 19.8578 70.9367 19.1888 70.9428 18.5169V7.09587H69.321V9.01462H69.2697C68.7093 8.2349 67.9491 7.62164 67.0696 7.23938C66.6988 7.08013 66.3107 6.9649 65.9132 6.89581C65.5518 6.83259 65.1855 6.80005 64.8184 6.79818C64.0145 6.78964 63.2171 6.94516 62.475 7.25486C61.7807 7.54615 61.1538 7.97749 60.6331 8.5222C60.1113 9.07224 59.6981 9.71645 59.4154 10.4207C59.1174 11.1641 58.9678 11.959 58.9752 12.7601C58.968 13.5638 59.1265 14.3603 59.4407 15.0998C59.7374 15.7995 60.1724 16.4314 60.7201 16.9572C61.2709 17.4821 61.917 17.8967 62.6233 18.1784C63.3686 18.4761 64.1644 18.626 64.9668 18.6196C65.7884 18.6166 66.6003 18.4419 67.351 18.1063C68.1382 17.7481 68.8032 17.1668 69.2647 16.4338H69.3159V18.4862C69.3188 19.0808 69.2396 19.673 69.0803 20.246C68.9379 20.78 68.6792 21.2759 68.323 21.6979C67.9442 22.1282 67.4692 22.4621 66.9365 22.6729C66.2709 22.9279 65.5616 23.0501 64.8491 23.0319C63.9624 23.0461 63.0851 22.8473 62.2907 22.4523C61.5614 22.0919 60.9268 21.5648 60.4386 20.9128L59.2516 22.2111ZM77.4972 11.9494C77.498 11.4695 77.6119 10.9969 77.8296 10.5693C78.0518 10.1259 78.3516 9.72632 78.7149 9.38941C79.0918 9.03863 79.5285 8.75908 80.0041 8.56328C80.4901 8.35841 81.0122 8.25358 81.5393 8.25545C82.044 8.22557 82.5492 8.30133 83.0232 8.47792C83.4972 8.65477 83.9291 8.92819 84.2919 9.28164C84.6208 9.64016 84.8755 10.0606 85.0415 10.5186C85.2076 10.9763 85.2813 11.4629 85.2589 11.9494H77.4972ZM87.024 13.2784V12.56C87.0282 11.8022 86.9037 11.0491 86.6556 10.3334C86.4243 9.66069 86.0605 9.0413 85.5864 8.51206C85.1052 7.98176 84.52 7.55735 83.8672 7.26526C83.1315 6.94462 82.3361 6.78537 81.5339 6.79818C80.7502 6.79204 79.9734 6.94729 79.2521 7.25486C78.5599 7.54962 77.9336 7.98069 77.4102 8.5222C76.8791 9.07464 76.4616 9.72685 76.1821 10.4412C75.8828 11.2092 75.7334 12.0279 75.7422 12.8526C75.7342 13.6785 75.8889 14.498 76.1976 15.2641C76.4838 15.9771 76.9042 16.6288 77.4358 17.1828C77.968 17.7302 78.6074 18.1616 79.3135 18.4502C80.0652 18.758 80.8705 18.9133 81.6825 18.9069C82.6012 18.9141 83.5108 18.7215 84.3482 18.3424C85.2437 17.9089 86.0226 17.2669 86.6198 16.4698L85.3664 15.4436C84.9972 16.0091 84.5058 16.4845 83.9286 16.8339C83.254 17.2493 82.4737 17.4597 81.6825 17.4395C81.1341 17.4451 80.5907 17.3368 80.086 17.1212C79.099 16.6982 78.3092 15.9152 77.8757 14.9304C77.6442 14.4164 77.5023 13.8663 77.4561 13.304L87.024 13.2784Z" fill="white"/>
<path d="M1.52148 49.4039H5.64531V31.5747H5.712L17.173 49.4039H22.4123V26.1567H18.2832V43.4268H18.2219L6.96547 26.1567H1.52148V49.4039ZM28.9973 42.8367C29.5666 44.2753 30.4306 45.5787 31.5328 46.662C32.6353 47.7455 33.952 48.5852 35.398 49.127C36.9722 49.7219 38.6431 50.0177 40.3252 49.9993C42.0279 49.9982 43.7156 49.6816 45.3036 49.0654C46.758 48.4972 48.0837 47.6425 49.2025 46.5513C50.3084 45.4594 51.1794 44.1516 51.7606 42.7084C52.3816 41.1298 52.6857 39.4437 52.6561 37.7471C52.6809 36.0172 52.3699 34.2988 51.7404 32.6881C51.1647 31.233 50.2935 29.9137 49.1819 28.8144C48.0709 27.7295 46.7417 26.8951 45.2831 26.3669C43.6874 25.7939 41.9996 25.5208 40.3047 25.5616C38.6225 25.5432 36.9519 25.8388 35.3775 26.4336C33.9322 26.9818 32.6166 27.8258 31.5147 28.9117C30.4034 30.0174 29.5324 31.3416 28.9562 32.801C28.3465 34.4228 28.0546 36.1477 28.0968 37.8805C28.0741 39.5768 28.3851 41.261 29.0125 42.8367H28.9973ZM32.9778 34.3658C33.3425 33.3878 33.8933 32.4905 34.5999 31.7236C35.3036 30.9636 36.1575 30.3591 37.1069 29.9483C38.1403 29.5077 39.254 29.2892 40.3764 29.3071C41.5003 29.2921 42.6153 29.5103 43.6511 29.9483C44.6066 30.3565 45.4658 30.9612 46.1735 31.7236C46.8796 32.4908 47.4304 33.3881 47.7954 34.3658C48.1744 35.4024 48.3617 36.4995 48.3481 37.6033C48.3603 38.7776 48.1661 39.9446 47.7751 41.0511C47.4187 42.0576 46.8673 42.9835 46.153 43.7757C45.4469 44.5472 44.5877 45.1626 43.6306 45.5816C42.5974 46.03 41.4816 46.2538 40.3559 46.2384C39.2353 46.2552 38.124 46.0314 37.0967 45.5816C36.1458 45.1596 35.2921 44.5448 34.5895 43.7757C33.8749 42.9837 33.3235 42.0578 32.9677 41.0511C32.5779 39.9443 32.3856 38.777 32.3998 37.6033C32.3904 36.4931 32.5849 35.3904 32.9727 34.3506L32.9778 34.3658ZM62.5873 49.4039H66.3837L71.7561 31.703H71.8228L77.2155 49.4039H81.145L87.8885 26.1567H83.6981L79.1443 42.9034H79.0779L73.9613 26.1567H69.899L64.685 42.9034H64.6186L60.2644 26.1567H55.7262L62.5873 49.4039Z" fill="#00C26F"/>
</svg>
