<svg width="102" height="26" viewBox="0 0 102 26" fill="none" xmlns="http://www.w3.org/2000/svg">
<path d="M24.5051 6.55407L23.9443 5.56937C23.9004 5.4922 23.8391 5.42623 23.7655 5.37662C23.6918 5.327 23.6076 5.29509 23.5196 5.28336C23.4315 5.27164 23.342 5.28042 23.2579 5.30902C23.1738 5.33762 23.0974 5.38527 23.0348 5.44825L21.745 6.73687C21.6507 6.83164 21.5921 6.95608 21.579 7.08913C21.5659 7.22218 21.5992 7.35567 21.6733 7.46698C22.1435 8.18563 22.5204 8.96122 22.7948 9.77506C23.3074 11.2964 23.4505 12.918 23.2124 14.5056C22.9742 16.0933 22.3617 17.6014 21.4253 18.9055C20.4889 20.2095 19.2556 21.2719 17.8273 22.005C16.399 22.738 14.8168 23.1206 13.2114 23.1211C11.5587 23.1257 9.93057 22.7215 8.47187 21.9447L10.6532 19.7622C12.0049 20.2734 13.4789 20.3675 14.8846 20.0322C16.2903 19.697 17.5631 18.9478 18.5386 17.8815C19.5141 16.8152 20.1473 15.4809 20.3564 14.051C20.5655 12.6211 20.341 11.1613 19.7117 9.8603C19.6718 9.777 19.6124 9.70449 19.5387 9.64887C19.4649 9.59325 19.3789 9.55613 19.2878 9.54064C19.1967 9.52515 19.1032 9.53173 19.0152 9.55984C18.9272 9.58795 18.8472 9.63675 18.782 9.70217L17.4765 10.9986C17.4069 11.0682 17.3563 11.1543 17.3294 11.2489C17.3025 11.3436 17.3002 11.4435 17.3229 11.5392L17.435 12.008C17.628 12.8292 17.5771 13.6889 17.2884 14.4815C16.9998 15.2742 16.486 15.9653 15.8102 16.4702C15.1344 16.975 14.3259 17.2715 13.4839 17.3234C12.6419 17.3753 11.8031 17.1802 11.0704 16.7621L10.4951 16.4324C10.3851 16.3691 10.2573 16.3439 10.1316 16.3607C10.0058 16.3775 9.88916 16.4355 9.79974 16.5255L4.47141 21.8527C4.41325 21.9109 4.36818 21.9808 4.33922 22.0578C4.31026 22.1348 4.29808 22.217 4.3035 22.2991C4.30891 22.3812 4.3318 22.4612 4.37062 22.5337C4.40944 22.6062 4.46331 22.6696 4.52861 22.7196L5.31367 23.3219C7.57767 25.0666 10.3576 26.0088 13.2159 26.0001C15.4915 25.9972 17.7265 25.3974 19.6978 24.2607C21.6691 23.124 23.3078 21.4902 24.4503 19.5222C25.5928 17.5542 26.1991 15.321 26.2087 13.0454C26.2183 10.7699 25.6309 8.53162 24.5051 6.55407Z" fill="url(#paint0_linear_263_686)"/>
<path d="M21.1161 2.67937C18.8523 0.93404 16.0723 -0.00856013 13.2139 5.85825e-05C10.9372 0.00182827 8.70084 0.601018 6.72827 1.73776C4.7557 2.8745 3.11597 4.50899 1.97292 6.47791C0.829866 8.44683 0.223519 10.6812 0.214459 12.9579C0.205398 15.2345 0.793943 17.4737 1.92129 19.4517L2.48205 20.4352C2.52621 20.5123 2.58753 20.5782 2.66126 20.6278C2.73499 20.6774 2.81915 20.7093 2.90721 20.7212C2.99527 20.733 3.08487 20.7244 3.16906 20.696C3.25326 20.6676 3.32979 20.6202 3.39272 20.5575L4.68022 19.27C4.77387 19.1751 4.8321 19.0509 4.84516 18.9182C4.85823 18.7855 4.82534 18.6523 4.752 18.541C4.28128 17.8226 3.90439 17.0469 3.63048 16.2329C3.11789 14.7115 2.97475 13.09 3.21288 11.5024C3.45102 9.91473 4.0636 8.40656 4.99999 7.10252C5.93637 5.79849 7.16967 4.73604 8.59794 4.00299C10.0262 3.26995 11.6084 2.88736 13.2139 2.88685C14.8665 2.88311 16.4944 3.28844 17.9523 4.06668L15.7698 6.24804C14.6765 5.83368 13.499 5.69097 12.3383 5.83217C11.1777 5.97338 10.0687 6.39427 9.1067 7.05869C8.14466 7.7231 7.35832 8.61117 6.81527 9.64658C6.27221 10.682 5.98868 11.8338 5.98903 13.0029C5.98903 13.1229 6.02156 13.6702 6.03165 13.7645C6.12009 14.5928 6.35037 15.3997 6.71241 16.1499C6.7525 16.2332 6.81197 16.3057 6.88584 16.3614C6.9597 16.417 7.04582 16.4541 7.13698 16.4696C7.22813 16.485 7.32167 16.4785 7.40976 16.4504C7.49785 16.4223 7.57792 16.3735 7.64327 16.3081L8.94872 15.0015C9.01825 14.9321 9.06895 14.8462 9.09603 14.7518C9.12311 14.6574 9.12568 14.5577 9.10349 14.462L8.99134 13.9921C8.7981 13.1709 8.84889 12.3111 9.13748 11.5184C9.42607 10.7256 9.93989 10.0344 10.6159 9.52962C11.2918 9.02483 12.1005 8.72843 12.9425 8.67682C13.7846 8.62521 14.6234 8.82065 15.356 9.23913L15.9313 9.56885C16.0414 9.63162 16.1691 9.6565 16.2947 9.63969C16.4203 9.62287 16.5369 9.56528 16.6266 9.47577L21.9538 4.14855C22.0121 4.09037 22.0573 4.02042 22.0863 3.94338C22.1154 3.86634 22.1277 3.78399 22.1224 3.70183C22.117 3.61967 22.0943 3.53958 22.0555 3.46692C22.0168 3.39427 21.963 3.33071 21.8978 3.2805L21.1161 2.67937Z" fill="url(#paint1_linear_263_686)"/>
<path d="M43.0161 16.5884C42.9189 16.5095 42.7969 16.4678 42.6717 16.4707C42.5466 16.4735 42.4266 16.5209 42.3331 16.6041C41.4976 17.2524 40.5286 17.8524 39.1121 17.8524C36.5192 17.8524 34.4096 15.6688 34.4096 12.9828C34.4096 10.2967 36.5113 8.09406 39.093 8.09406C40.2146 8.09406 41.4258 8.56622 42.3163 9.34792C42.3665 9.40614 42.4289 9.4526 42.499 9.484C42.5692 9.5154 42.6454 9.53097 42.7223 9.52961C42.7889 9.52432 42.8535 9.50451 42.9116 9.47157C42.9698 9.43863 43.02 9.39336 43.0587 9.33895L43.9021 8.47089C43.9558 8.41895 43.9981 8.35647 44.0265 8.28738C44.0549 8.21828 44.0687 8.14406 44.067 8.06939C44.0638 7.99351 44.0451 7.9191 44.0119 7.8508C43.9787 7.78249 43.9318 7.72175 43.8741 7.67237C42.4015 6.38936 40.9222 5.81738 39.0729 5.81738C35.1251 5.81738 31.9131 9.0496 31.9131 13.022C31.9146 14.921 32.6692 16.7418 34.0114 18.0851C35.3537 19.4284 37.1739 20.1844 39.0729 20.1874C39.9649 20.1979 40.8503 20.032 41.6779 19.699C42.5056 19.366 43.2592 18.8726 43.8954 18.2472C43.9512 18.1902 43.9951 18.1227 44.0243 18.0485C44.0536 17.9744 44.0677 17.8951 44.0659 17.8154C44.0644 17.7519 44.0501 17.6894 44.0239 17.6316C43.9977 17.5738 43.9601 17.5219 43.9133 17.4789L43.0161 16.5884Z" fill="white"/>
<path d="M49.1541 6.01245H47.8767C47.7341 6.01724 47.5988 6.07615 47.4981 6.1772C47.3975 6.27825 47.3392 6.41384 47.335 6.55639V19.4538C47.3389 19.5966 47.3971 19.7325 47.4978 19.8337C47.5984 19.935 47.7339 19.9941 47.8767 19.9989H49.1541C49.2968 19.9941 49.4323 19.935 49.5329 19.8337C49.6336 19.7325 49.6918 19.5966 49.6958 19.4538V6.55639C49.6916 6.41384 49.6332 6.27825 49.5326 6.1772C49.4319 6.07615 49.2966 6.01724 49.1541 6.01245Z" fill="white"/>
<path d="M64.2708 10.3538C64.2708 7.96053 62.3003 6.01245 59.8778 6.01245H54.61C54.4662 6.01304 54.3284 6.07061 54.2269 6.17256C54.1254 6.2745 54.0684 6.41251 54.0684 6.55639V19.4538C54.0681 19.5979 54.1249 19.7362 54.2265 19.8384C54.328 19.9406 54.466 19.9983 54.61 19.9989H55.8684C56.0111 19.9941 56.1466 19.935 56.2473 19.8337C56.3479 19.7325 56.4062 19.5966 56.4101 19.4538V14.6571H59.0501L61.5792 19.7208C61.6252 19.8037 61.6927 19.8728 61.7746 19.9208C61.8564 19.9687 61.9497 19.9938 62.0446 19.9933H63.5542C63.6495 19.9965 63.744 19.9744 63.8281 19.9293C63.9122 19.8842 63.9829 19.8177 64.033 19.7365C64.0808 19.6507 64.1058 19.5542 64.1058 19.4561C64.1058 19.358 64.0808 19.2615 64.033 19.1757L61.467 14.3936C63.2009 13.6231 64.2708 12.0911 64.2708 10.3538ZM61.91 10.3931C61.91 11.6077 60.9085 12.6361 59.7231 12.6361H56.4493V8.24988H59.7186C60.9063 8.24988 61.9055 9.23121 61.9055 10.3931H61.91Z" fill="white"/>
<path d="M78.0196 16.5884C77.9225 16.5095 77.8004 16.4678 77.6752 16.4707C77.5501 16.4735 77.4301 16.5209 77.3366 16.6041C76.5011 17.2524 75.5321 17.8524 74.1156 17.8524C71.5227 17.8524 69.4131 15.6688 69.4131 12.9828C69.4131 10.2967 71.5137 8.09406 74.0954 8.09406C75.217 8.09406 76.4282 8.56622 77.3198 9.34792C77.3703 9.40671 77.4332 9.45352 77.504 9.48495C77.5748 9.51637 77.6517 9.53163 77.7292 9.52961C77.7958 9.52432 77.8604 9.50451 77.9185 9.47157C77.9767 9.43863 78.0269 9.39336 78.0656 9.33895L78.909 8.47089C78.9625 8.4189 79.0047 8.35638 79.0329 8.28728C79.0611 8.21818 79.0746 8.14399 79.0727 8.06939C79.0701 7.99353 79.0516 7.91906 79.0186 7.85072C78.9856 7.78237 78.9387 7.72163 78.881 7.67237C77.4118 6.38936 75.9325 5.81738 74.0831 5.81738C70.1354 5.81738 66.9233 9.0496 66.9233 13.022C66.9248 14.921 67.6794 16.7418 69.0217 18.0851C70.3639 19.4284 72.1842 20.1844 74.0831 20.1874C74.9752 20.1978 75.8605 20.0318 76.6881 19.6988C77.5157 19.3658 78.2694 18.8725 78.9056 18.2472C78.9615 18.1901 79.0054 18.1223 79.0347 18.048C79.064 17.9736 79.0781 17.8942 79.0761 17.8143C79.0747 17.7508 79.0604 17.6883 79.0342 17.6305C79.008 17.5726 78.9704 17.5207 78.9236 17.4778L78.0196 16.5884Z" fill="white"/>
<path d="M89.7689 17.8333H84.6997V6.55639C84.6955 6.41384 84.6371 6.27825 84.5365 6.1772C84.4359 6.07615 84.3005 6.01724 84.158 6.01245H82.8806C82.7367 6.01304 82.5989 6.07061 82.4974 6.17256C82.3959 6.2745 82.3389 6.41251 82.3389 6.55639V19.4538C82.3386 19.5979 82.3954 19.7362 82.497 19.8384C82.5986 19.9406 82.7365 19.9983 82.8806 19.9989H89.7689C89.8404 19.9988 89.9111 19.9845 89.977 19.9571C90.0429 19.9296 90.1028 19.8894 90.1532 19.8388C90.2036 19.7882 90.2436 19.7281 90.2708 19.6621C90.298 19.596 90.3119 19.5253 90.3117 19.4538V18.3828C90.3125 18.311 90.299 18.2397 90.2721 18.1732C90.2451 18.1066 90.2053 18.046 90.1548 17.9949C90.1044 17.9439 90.0443 17.9033 89.978 17.8755C89.9118 17.8478 89.8407 17.8334 89.7689 17.8333Z" fill="white"/>
<path d="M101.244 8.19522C101.388 8.19463 101.526 8.13706 101.627 8.03512C101.729 7.93317 101.786 7.79516 101.786 7.65129V6.56005C101.786 6.41618 101.729 6.27816 101.627 6.17622C101.526 6.07428 101.388 6.01671 101.244 6.01611H93.5056C93.3617 6.01671 93.2239 6.07428 93.1224 6.17622C93.0209 6.27816 92.9639 6.41618 92.9639 6.56005V19.4575C92.9636 19.6016 93.0204 19.7399 93.122 19.8421C93.2235 19.9442 93.3615 20.002 93.5056 20.0026H101.244C101.388 20.002 101.526 19.9442 101.628 19.8421C101.729 19.7399 101.786 19.6016 101.786 19.4575V18.3865C101.786 18.2426 101.729 18.1046 101.627 18.0026C101.526 17.9007 101.388 17.8431 101.244 17.8425H95.3V13.9946H100.292C100.436 13.9943 100.574 13.9369 100.676 13.8349C100.778 13.7329 100.835 13.5947 100.835 13.4507V12.3605C100.831 12.2176 100.772 12.0816 100.671 11.9803C100.571 11.879 100.435 11.82 100.292 11.8155H95.3034V8.19522H101.244Z" fill="white"/>
<defs>
<linearGradient id="paint0_linear_263_686" x1="8.62776" y1="26.8322" x2="26.9309" y2="8.52906" gradientUnits="userSpaceOnUse">
<stop stop-color="#B090F5"/>
<stop offset="1" stop-color="#5FBFFF"/>
</linearGradient>
<linearGradient id="paint1_linear_263_686" x1="-0.504557" y1="17.4756" x2="17.7997" y2="-0.82762" gradientUnits="userSpaceOnUse">
<stop stop-color="#68D7FA"/>
<stop offset="1" stop-color="#4EE498"/>
</linearGradient>
</defs>
</svg>
