<svg width="72" height="68" viewBox="0 0 72 68" fill="none" xmlns="http://www.w3.org/2000/svg">
<g clip-path="url(#clip0_263_696)">
<path d="M63.2861 51.1429C62.5242 60.1906 51.8575 67.8096 35.8575 67.4287C20.8098 67.0477 10.2384 60.762 9.47646 51.7144C9.38122 50.5715 9.47646 49.4286 9.5717 48.1905C10.0479 44.6667 11.286 41.3334 13.0955 38.2858L14.2384 38.762C17.1908 37.6191 20.2384 36.762 23.3812 36.1905C27.4765 35.6191 31.667 35.5239 35.7622 35.8096C39.8575 35.5239 44.0479 35.6191 48.1432 36.1905C51.286 36.762 54.3337 37.6191 57.2861 38.762L58.4289 38.2858L59.1908 37.9048C61.0003 40.9524 62.2384 44.2858 62.9051 47.8096C63.0956 48.8572 63.1908 50.0001 63.0956 51.0477" fill="#F4A427"/>
<path d="M63.2861 51.1429C62.5242 60.0953 51.9527 67.4287 35.8575 67.3334C20.8098 66.9525 10.2384 60.6668 9.47646 51.6191C9.38122 50.4763 9.47646 49.3334 9.5717 48.0953C11.1907 47.7144 12.8098 47.7144 14.4288 48.0001C17.4765 48.4763 19.1908 50.381 21.3812 51.3334C22.6193 51.9048 23.8574 50.9525 25.0003 49.9048C28.0479 46.9524 32.1432 45.2382 36.3336 45.1429C40.6194 45.0477 44.1432 46.762 47.8575 50.1905C48.6194 50.9525 49.667 51.4286 50.7146 51.3334C51.667 51.0477 52.6194 50.5715 53.3813 49.9048C56.2384 48.0001 59.667 47.2382 63.0003 47.7144C63.2861 48.9524 63.3813 50.0001 63.2861 51.1429Z" fill="white"/>
<path d="M19.0003 28.8572C17.9527 29.9048 16.6194 30.6667 15.1908 30.9524L14.6194 31.0477C14.048 31.2381 13.4765 31.3334 12.8099 31.3334C12.7146 31.3334 12.5241 31.3334 12.4289 31.3334C12.1432 31.2381 11.7622 31.1429 11.4765 31.0477C10.4289 30.5715 9.47652 30 8.61937 29.2381C6.90509 27.8096 5.28604 26.1905 4.04794 24.2857C-1.19016 16.6667 0.428886 6.38096 7.66699 0.666668C8.14318 0.380953 8.71461 0.380953 9.09556 0.857145C9.28604 1.14286 9.38128 1.42857 9.28604 1.71429C8.61937 4.76191 8.04794 9.52382 10.9051 13.6191C13.3813 17.0476 18.5242 20.381 21.667 20.381C22.3337 24.1905 21.2861 26.7619 19.0003 28.8572Z" fill="#F79422"/>
<path d="M19.0003 28.8572C17.9527 29.9048 16.6194 30.6667 15.1908 30.9524L14.6194 31.0477C14.048 31.2381 13.4765 31.3334 12.8099 31.3334C12.7146 31.3334 12.5241 31.3334 12.4289 31.3334C12.1432 31.2381 11.7622 31.1429 11.4765 31.0477C10.4289 30.5715 9.47652 30 8.61937 29.2381C6.90508 27.8096 5.28604 26.1905 4.04794 24.2857C-1.19016 16.6667 0.428886 6.38096 7.66699 0.666668C8.14318 0.380953 8.71461 0.380953 9.09556 0.857145C9.28604 1.14286 9.38128 1.42857 9.28604 1.71429C8.61937 4.76191 8.04794 9.52382 10.9051 13.6191C13.3813 17.0476 18.5242 20.381 21.667 20.381C22.3337 24.1905 21.2861 26.7619 19.0003 28.8572Z" stroke="#221F1F" stroke-width="0.952382" stroke-linejoin="round"/>
<path d="M32.7143 15.7144L31.4762 27.9048H31.381C29.4762 28.1906 26.9048 28.5715 23.381 29.1429C20.1429 29.6191 15.7619 31.9049 13.1905 33.4287L12.9048 31.4287C13.4762 31.3334 14.1429 31.2382 14.7143 31.143L15.2857 31.0477C16.7143 30.762 18.0476 30.0001 19.0953 28.9525C21.2857 26.762 22.4286 24.2858 21.6667 20.381L22.0477 20.4763C23.1905 19.2382 24.5238 18.2858 26.0477 17.5239C28.0477 16.381 30.3334 15.8096 32.7143 15.7144Z" fill="#5A595C"/>
<path d="M32.7143 15.7144L31.4762 27.9048H31.381C29.4762 28.1906 26.9048 28.5715 23.381 29.1429C20.1429 29.6191 15.7619 31.9049 13.1905 33.4287L12.9048 31.4287C13.4762 31.3334 14.1429 31.2382 14.7143 31.1429L15.2857 31.0477C16.7143 30.762 18.0476 30.0001 19.0953 28.9525C21.2857 26.762 22.4286 24.2858 21.6667 20.381L22.0477 20.4763C23.1905 19.2382 24.5238 18.2858 26.0477 17.5239C28.0477 16.381 30.3334 15.8096 32.7143 15.7144Z" stroke="#221F1F" stroke-width="0.952382" stroke-linejoin="round"/>
<path d="M60.5241 37.6191L59.7622 38.0001L59.0003 38.381L57.8574 38.8572C54.9051 37.7144 51.8574 36.8572 48.7146 36.2858C44.6193 35.5239 40.5241 35.1429 36.3336 35.1429C32.1431 35.1429 28.0479 35.4287 23.9526 36.2858C20.8098 36.8572 17.7621 37.7144 14.8098 38.8572C14.4288 38.6668 14.0479 38.4763 13.6669 38.381L12.0479 37.6191C12.1431 36.2858 12.0479 35.5239 12.0479 34.1906C12.3336 34.0001 12.8098 33.7144 13.2859 33.4286L13.3812 33.3334C15.8574 31.8096 20.2383 29.6191 23.4764 29.0477C27.0003 28.4763 29.4764 28.0953 31.4764 27.8096C32.7145 27.7144 34.0479 27.7144 35.3812 27.7144C37.3812 27.7144 39.1907 27.7144 41.0003 27.8096C42.905 28.0953 45.4765 28.4763 49.0955 29.0477C52.4289 29.5239 56.8098 31.8096 59.3812 33.3334H59.4765C59.9527 33.6191 60.3336 33.8096 60.6194 34.0953C60.5241 35.5239 60.4289 36.2858 60.5241 37.6191Z" fill="#929497"/>
<path d="M60.5241 37.6191L59.7622 38.0001L59.0003 38.381L57.8574 38.8572C54.9051 37.7144 51.8574 36.8572 48.7146 36.2858C44.6193 35.6191 40.5241 35.2382 36.3336 35.2382C32.1431 35.2382 28.0479 35.5239 23.9526 36.2858C20.8098 36.8572 17.7621 37.7144 14.8098 38.8572C14.4288 38.6668 14.0479 38.4763 13.6669 38.381L12.0479 37.6191C12.1431 36.2858 12.0479 35.5239 12.0479 34.1906C12.3336 34.0001 12.8098 33.7144 13.2859 33.4286L13.3812 33.3334C15.8574 31.8096 20.2383 29.6191 23.4764 29.0477C27.0003 28.4763 29.4764 28.0953 31.4765 27.8096C32.7145 27.7144 34.0479 27.7144 35.3812 27.7144C37.3812 27.7144 39.1907 27.7144 41.0003 27.8096C42.905 28.0953 45.4765 28.4763 49.0955 29.0477C52.4289 29.5239 56.8098 31.8096 59.3813 33.3334H59.4765C59.9527 33.6191 60.3336 33.8096 60.6194 34.0953C60.5241 35.5239 60.4289 36.2858 60.5241 37.6191Z" stroke="#221F1F" stroke-width="0.952382" stroke-linecap="round" stroke-linejoin="round"/>
<path d="M40.9052 27.9047C39.1909 27.8095 37.2861 27.7142 35.2861 27.8095C33.9528 27.8095 32.6194 27.9047 31.3813 27.9047H31.4766L32.7147 15.7142L33.0004 13.238C33.9528 12.6666 35.0956 12.3809 36.1433 12.3809H36.3337C37.4766 12.3809 38.5242 12.6666 39.4766 13.238L39.7623 15.7142V15.8094L40.9052 27.9047Z" fill="#929497"/>
<path d="M40.9052 27.9047C39.1909 27.8095 37.2861 27.7142 35.2861 27.8095C33.9528 27.8095 32.6194 27.9047 31.3813 27.9047H31.4766L32.7147 15.7142L33.0004 13.238C33.9528 12.6666 35.0956 12.3809 36.1433 12.3809H36.3337C37.4766 12.3809 38.5242 12.6666 39.4766 13.238L39.7623 15.7142V15.8094L40.9052 27.9047Z" stroke="#221F1F" stroke-width="0.952382" stroke-linecap="round" stroke-linejoin="round"/>
<path d="M63.286 51.2381C62.5241 60.2857 51.0003 67.5238 35.8574 67.5238C20.8098 67.1429 10.2383 60.8571 9.57168 51.8095C9.47644 50.6667 9.57168 49.5238 9.66691 48.2857C10.1431 44.7619 11.3812 41.4285 13.1907 38.3809L14.3336 38.8571C17.286 37.7143 20.3336 36.8571 23.4765 36.2857C27.5717 35.5238 31.6669 35.2381 35.8574 35.1428C40.0479 35.1428 44.1432 35.5238 48.2384 36.2857C51.3813 36.8571 54.4289 37.7143 57.3813 38.8571L58.6194 38.3809L59.3813 38C61.1908 41.0476 62.4289 44.3809 63.0956 47.9047C63.3813 49.0476 63.3813 50.1905 63.286 51.2381Z" stroke="#221F1F" stroke-width="0.952382" stroke-linecap="round" stroke-linejoin="round"/>
<path d="M67.9526 24.2856C66.6193 26.0952 65.0955 27.8095 63.286 29.238C62.4288 29.9999 61.4764 30.5714 60.4288 31.0476L59.9526 31.238L59.6669 31.3333C59.0002 31.5237 58.6193 31.3333 57.3812 31.1428L56.8098 31.0476C55.3812 30.7618 54.0479 29.9999 53.0002 28.9523C50.8098 26.7618 49.6669 24.2856 50.4288 20.3809C53.4764 20.4761 58.7145 17.1428 61.1907 13.619C63.9526 9.52372 63.3812 4.7618 62.7145 1.71418C62.6193 1.14275 62.905 0.66656 63.4764 0.476083C63.7622 0.380845 64.1431 0.476083 64.3336 0.66656C71.5717 6.38085 73.1907 16.7618 67.9526 24.2856Z" fill="#F79422"/>
<path d="M67.9526 24.2856C66.6193 26.0952 65.0955 27.8095 63.286 29.238C62.4288 29.9999 61.4764 30.5714 60.4288 31.0476L59.9526 31.238L59.6669 31.3333C59.0002 31.5237 58.6193 31.3333 57.3812 31.1428L56.8098 31.0476C55.3812 30.7618 54.0479 29.9999 53.0002 28.9523C50.8098 26.7618 49.6669 24.2856 50.4288 20.3809C53.4764 20.4761 58.7145 17.1428 61.1907 13.619C63.9526 9.52372 63.3812 4.7618 62.7145 1.71418C62.6193 1.14275 62.905 0.66656 63.4764 0.476083C63.7622 0.380845 64.1431 0.476083 64.3336 0.66656C71.5717 6.38085 73.1907 16.7618 67.9526 24.2856Z" stroke="#221F1F" stroke-width="0.952382" stroke-linejoin="round"/>
<path d="M59.667 31.3334L59.2861 33.4287C56.7146 31.9049 52.3337 29.6191 49.0003 29.1429C45.3813 28.5715 42.9051 28.1906 40.9051 27.9048L39.667 15.7144C41.8575 15.8096 44.048 16.4763 46.048 17.5239C47.5718 18.2858 48.9051 19.3334 50.048 20.4763L50.4289 20.381C49.667 24.1906 50.8099 26.762 53.0003 28.9525C54.048 30.0001 55.3813 30.762 56.8099 31.0477C56.9051 31.0477 57.2861 31.2382 57.3813 31.2382C58.1432 31.5239 58.9051 31.5239 59.667 31.3334Z" fill="#5A595C"/>
<path d="M59.667 31.3334L59.2861 33.4287C56.7146 31.9049 52.3337 29.6191 49.0003 29.1429C45.3813 28.5715 42.9051 28.1906 40.9051 27.9048L39.667 15.7144C41.8575 15.8096 44.048 16.4763 46.048 17.5239C47.5718 18.2858 48.9051 19.3334 50.048 20.4763L50.4289 20.381C49.667 24.1906 50.8099 26.762 53.0003 28.9525C54.048 30.0001 55.3813 30.762 56.8099 31.0477L57.3813 31.1429C58.6194 31.3334 59.0004 31.5239 59.667 31.3334Z" stroke="#221F1F" stroke-width="0.952382" stroke-linejoin="round"/>
<path d="M39.6666 15.7144H39.2856" stroke="#221F1F" stroke-width="0.952382" stroke-linejoin="round"/>
<path d="M59.7623 30.8572C60.429 31.6191 60.2385 32.7619 59.4766 33.4286C59.3814 33.5238 59.3814 33.5238 59.2861 33.6191" fill="#F79422"/>
<path d="M59.7623 30.8572C60.429 31.6191 60.2385 32.7619 59.4766 33.4286C59.3814 33.5238 59.3814 33.5238 59.2861 33.6191" stroke="#221F1F" stroke-width="0.952382" stroke-miterlimit="10"/>
<path d="M12.8094 30.8572C12.1428 31.6191 12.3332 32.7619 13.0951 33.4286C13.1904 33.5238 13.1904 33.5238 13.2856 33.6191" fill="#F79422"/>
<path d="M12.8094 30.8572C12.1428 31.6191 12.3332 32.7619 13.0951 33.4286C13.1904 33.5238 13.1904 33.5238 13.2856 33.6191" stroke="#221F1F" stroke-width="0.952382" stroke-miterlimit="10"/>
<path d="M32.7144 54.8574C33.381 55.0479 34.1429 54.9526 34.8096 54.5717C35.8572 54.1907 36.5239 53.1431 36.4286 52.0002C36.3334 53.1431 37.0001 54.1907 38.0477 54.5717C38.7144 54.8574 39.381 54.9526 40.0477 54.8574" stroke="#171717" stroke-width="0.952382" stroke-linecap="round" stroke-linejoin="round"/>
<path d="M40.143 48.7621C40.143 49.905 38.4287 51.4288 36.3335 51.4288C34.2382 51.4288 32.5239 49.905 32.5239 48.7621C32.5239 47.6192 34.2382 47.2383 36.3335 47.2383C38.4287 47.2383 40.143 47.7145 40.143 48.7621Z" fill="#171717"/>
<path d="M37.8572 48.3811C37.8572 48.6668 37.0953 49.0477 36.2382 49.0477C35.381 49.0477 34.6191 48.6668 34.6191 48.4763C34.6191 48.2858 35.381 48.2858 36.2382 48.2858C37.0953 48.2858 37.8572 48.0954 37.8572 48.3811Z" fill="white"/>
<path d="M30.3334 52.0002C30.2381 53.3336 31.0953 54.4764 32.4286 54.7622H32.7143" stroke="#171717" stroke-width="0.952382" stroke-linecap="round" stroke-linejoin="round"/>
<path d="M36.4287 50.6667C36.4287 51.1429 36.4287 51.5239 36.4287 52.0001" stroke="#171717" stroke-width="0.952382" stroke-linecap="round" stroke-linejoin="round"/>
<path d="M40.1431 54.8571H40.4288C41.7621 54.5714 42.7145 53.4286 42.524 52.0952" stroke="#171717" stroke-width="0.952382" stroke-linecap="round" stroke-linejoin="round"/>
<path d="M64.3335 0.666504C71.5716 6.3808 73.0954 16.6665 67.8573 24.1903" stroke="#221F1F" stroke-width="0.952382" stroke-linejoin="round"/>
<path d="M19.0003 28.8572C17.9527 29.9048 16.6194 30.6667 15.1908 30.9524L14.6194 31.0477C14.048 31.2381 13.4765 31.3334 12.8099 31.3334C12.7146 31.3334 12.5241 31.3334 12.4289 31.3334C12.1432 31.2381 11.7622 31.1429 11.4765 31.0477C10.4289 30.5715 9.47652 30 8.61937 29.2381C6.90508 27.8096 5.28604 26.1905 4.04794 24.2857C-1.19016 16.6667 0.428886 6.38096 7.66699 0.666668C8.14318 0.380953 8.71461 0.380953 9.09556 0.857145C9.28604 1.14286 9.38128 1.42857 9.28604 1.71429C8.61937 4.76191 8.04794 9.52382 10.9051 13.6191C13.3813 17.0476 18.5242 20.381 21.667 20.381C22.3337 24.1905 21.2861 26.7619 19.0003 28.8572Z" stroke="#221F1F" stroke-width="0.952382" stroke-linejoin="round"/>
<path d="M29.3812 42.5715C29.3812 44.6667 28.1431 46.2858 26.6193 46.2858C25.0955 46.2858 23.8574 44.5715 23.8574 42.5715C23.8574 40.7619 24.8098 39.2381 26.0479 38.8572L29.0955 41.1429C29.286 41.6191 29.3812 42.0953 29.3812 42.5715Z" fill="#221F1F"/>
<path d="M28.3335 42.0953C28.3335 42.8572 27.8573 43.4286 27.3811 43.4286C26.9049 43.4286 26.4287 42.8572 26.4287 42.0953C26.4287 41.3334 26.9049 40.762 27.3811 40.762C27.8573 40.762 28.3335 41.3334 28.3335 42.0953Z" fill="white"/>
<path d="M26.0477 45.4284C25.0001 46.2856 24.0477 47.238 23.1906 48.2856C22.8096 48.7618 22.4287 49.3332 22.143 49.9999C21.8572 50.5713 21.6668 51.238 21.5715 51.9046C21.4763 52.1903 21.4763 52.5713 21.4763 52.857V53.3332V53.8094C21.4763 54.4761 21.4763 55.1427 21.4763 55.9046C21.5715 56.5713 21.6668 57.3332 21.762 57.9999C21.8572 58.3808 21.8572 58.6665 21.9525 59.0475C22.0477 59.3332 22.143 59.7142 22.3334 59.9999C22.143 59.7142 22.0477 59.3332 21.8572 59.0475C21.762 58.7618 21.5715 58.3808 21.4763 58.0951C21.2858 57.4285 21.0953 56.7618 20.9049 55.9999C20.8096 55.3332 20.7144 54.5713 20.6191 53.9046V53.4284V52.857C20.6191 52.4761 20.6191 52.0951 20.6191 51.8094C20.7144 51.0475 20.8096 50.2856 21.0953 49.6189C21.381 48.9522 21.6668 48.2856 22.0477 47.6189C22.9049 46.3808 23.762 45.238 24.8096 44.2856C25.1906 43.9999 25.6668 43.9999 26.0477 44.2856C26.3334 44.4761 26.4287 45.0475 26.0477 45.4284Z" fill="#221F1F"/>
<path d="M25.381 45.143C25.2858 45.143 25.2858 45.143 25.1905 45.143H25.0953H24.9048L24.4286 45.0478C24.1429 44.9525 23.8572 44.9525 23.5715 44.9525C23.0001 44.9525 22.3334 44.9525 21.762 45.143C21.4762 45.2382 21.1905 45.3335 20.9048 45.4287C20.0477 45.8097 19.2858 46.4763 18.8096 47.2382C19.0953 46.5716 19.381 46.0001 19.8572 45.524C20.0477 45.2382 20.3334 45.0478 20.6191 44.8573C20.9048 44.6668 21.1905 44.4763 21.4762 44.2859C22.0477 43.9049 22.7143 43.7144 23.4762 43.524C23.8572 43.4287 24.1429 43.4287 24.5239 43.4287C24.7143 43.4287 24.9048 43.4287 25.0953 43.4287H25.4762C25.4762 43.4287 25.5715 43.4287 25.4762 43.4287C25.9524 43.4287 26.3334 43.8097 26.4286 44.2859C26.5239 44.762 25.9524 45.143 25.381 45.143C25.4762 45.143 25.381 45.143 25.381 45.143Z" fill="#221F1F"/>
<path d="M48.9051 42.5715C48.9051 44.6667 47.667 46.2858 46.2385 46.2858C44.8099 46.2858 43.4766 44.5715 43.4766 42.5715C43.4766 42.0953 43.5718 41.6191 43.667 41.1429L46.7147 38.8572C47.9528 39.2381 48.9051 40.7619 48.9051 42.5715Z" fill="#221F1F"/>
<path d="M44.4287 42.0953C44.4287 42.8572 44.9049 43.4286 45.3811 43.4286C45.8573 43.4286 46.3335 42.8572 46.3335 42.0953C46.3335 41.3334 45.8573 40.762 45.3811 40.762C44.9049 40.762 44.4287 41.3334 44.4287 42.0953Z" fill="white"/>
<path d="M47.9525 44.0951C49.0001 45.1428 49.8573 46.1904 50.6192 47.4285C51.0001 47.9999 51.3811 48.6666 51.6668 49.3332C51.9525 49.9999 52.143 50.7618 52.2382 51.4285C52.3335 52.1904 52.3335 52.8571 52.2382 53.619C52.143 54.2856 52.0477 55.0475 51.9525 55.7142C51.8573 56.3809 51.6668 57.0475 51.4763 57.7142C51.3811 57.9999 51.2858 58.3809 51.0954 58.6666C51.0001 58.9523 50.8096 59.3333 50.6192 59.619C50.7144 59.3333 50.9049 58.9523 51.0001 58.6666C51.0954 58.3809 51.1906 57.9999 51.2858 57.7142C51.3811 57.0475 51.5716 56.3809 51.5716 55.7142C51.6668 55.0475 51.6668 54.3809 51.6668 53.619C51.6668 52.9523 51.5716 52.2856 51.4763 51.619C51.2858 50.9523 51.0954 50.3809 50.8096 49.8094C50.5239 49.238 50.143 48.6666 49.6668 48.1904C48.8096 47.1428 47.8573 46.1904 46.8096 45.3332C46.4287 44.9523 46.4287 44.4761 46.8096 44.0951C47.0954 43.8094 47.5715 43.7142 47.9525 43.9999V44.0951Z" fill="#221F1F"/>
<path d="M47.3811 43.4285H47.8573C48.0478 43.4285 48.2383 43.4285 48.4287 43.4285C48.8097 43.4285 49.1906 43.4285 49.5716 43.5238C50.3335 43.619 51.0002 43.8095 51.6668 44.0952C52.3335 44.3809 52.9049 44.8571 53.4764 45.3333C53.9525 45.8095 54.3335 46.4761 54.6192 47.0476C54.2383 46.4761 53.7621 45.9999 53.1906 45.619C52.6192 45.238 52.0478 44.9523 51.3811 44.8571C50.7145 44.7618 50.0478 44.7618 49.3811 44.7618C49.0954 44.7618 48.7144 44.8571 48.4287 44.8571L47.9525 44.9523H47.7621H47.6668H47.5716H47.4764C47.0002 45.0476 46.524 44.6666 46.524 44.1904C46.4287 43.7142 46.8097 43.238 47.2859 43.238C47.3811 43.238 47.3811 43.238 47.4764 43.238" fill="#221F1F"/>
</g>
<defs>
<clipPath id="clip0_263_696">
<rect width="70.9525" height="68.0001" fill="white" transform="translate(0.523926)"/>
</clipPath>
</defs>
</svg>
