<svg width="56" height="72" viewBox="0 0 56 72" fill="none" xmlns="http://www.w3.org/2000/svg">
<path fill-rule="evenodd" clip-rule="evenodd" d="M51.1417 5.71678C51.1922 5.77646 51.2228 5.85075 51.2287 5.9289C51.26 6.31215 54.0336 44.3307 28.1187 53.1853C28.041 53.212 27.9565 53.212 27.8786 53.1853C1.96474 44.3307 4.73821 6.31215 4.76875 5.9289C4.77498 5.85099 4.80545 5.777 4.85584 5.71737C4.90624 5.65776 4.974 5.61556 5.04957 5.59671L27.9108 0.0102288C27.9687 -0.00340958 28.0287 -0.00340958 28.0864 0.0102288L50.947 5.59671C51.0229 5.61504 51.0911 5.65711 51.1417 5.71678ZM46.9341 9.77608C46.9753 9.82443 47.0004 9.88453 47.0057 9.94794H47.0083C47.0338 10.2605 49.3025 41.2992 28.0971 48.527C28.0349 48.5507 27.966 48.5507 27.9038 48.527C6.69768 41.2992 8.96717 10.2605 8.99264 9.94794C8.99756 9.88453 9.02238 9.82425 9.06355 9.77591C9.10471 9.72758 9.16009 9.69355 9.2217 9.67876L27.9258 5.11523C27.9732 5.10332 28.0227 5.10332 28.0701 5.11523L46.7758 9.67876C46.8375 9.69373 46.8928 9.72781 46.9341 9.77608Z" fill="white"/>
<path d="M27.7337 11.9277L15.2621 14.9683C15.221 14.9789 15.1842 15.002 15.1567 15.0344C15.1294 15.067 15.1128 15.1074 15.1094 15.1497C15.0932 15.3584 13.5806 36.0512 27.7159 40.8703C27.7583 40.8838 27.8042 40.8838 27.8466 40.8703C41.982 36.0504 40.4702 15.3584 40.4531 15.1489C40.4499 15.1064 40.4334 15.0659 40.4057 15.0334C40.3782 15.001 40.341 14.9782 40.2996 14.9683L27.8287 11.9269C27.7976 11.9186 27.765 11.9186 27.7337 11.9269" fill="white"/>
<path d="M4.86409 67.998V66.1215H7.89142V71.6405C6.4338 71.8804 5.25143 72.0003 4.34424 72.0003C2.72355 72.0003 1.60741 71.5574 0.995833 70.6714C0.394445 69.7854 0.09375 68.378 0.09375 66.4498C0.09375 64.5217 0.409734 63.1304 1.0417 62.2753C1.67368 61.4208 2.74904 60.9932 4.26781 60.9932C5.21575 60.9932 6.24016 61.103 7.34103 61.3216L7.89142 61.4315L7.83024 63.1043C6.60711 62.9688 5.60308 62.9005 4.81822 62.9005C4.04355 62.9005 3.49823 62.9943 3.18225 63.1821C2.86625 63.3697 2.63182 63.7188 2.47892 64.2296C2.33621 64.7301 2.26486 65.5953 2.26486 66.8252C2.26486 68.0449 2.41267 68.8994 2.70827 69.3892C3.00386 69.8792 3.61544 70.1244 4.54301 70.1244L5.81207 70.0615V67.998H4.86409Z" fill="white"/>
<path d="M11.9024 68.263C11.9024 69.5035 12.5191 70.124 13.7525 70.124C14.9858 70.124 15.6025 69.5035 15.6025 68.263V61.1804H17.7124V68.2161C17.7124 69.5189 17.3812 70.4779 16.7186 71.0932C16.0663 71.6976 15.0775 71.9999 13.7525 71.9999C12.4273 71.9999 11.4336 71.6976 10.771 71.0932C10.1186 70.4779 9.79248 69.5189 9.79248 68.2161V61.1804H11.9024V68.263Z" fill="white"/>
<path d="M18.9419 71.8122L21.2811 61.1804H25.287L27.6264 71.8122H25.5163L25.1036 69.8894H21.4646L21.0518 71.8122H18.9419ZM22.9172 62.9631L21.8622 68.0129H24.706L23.651 62.9631H22.9172Z" fill="white"/>
<path d="M31.1207 68.2476V71.8122H29.0107V61.1804H33.0472C35.4935 61.1804 36.7166 62.3478 36.7166 64.6828C36.7166 66.0693 36.207 67.0907 35.1876 67.7475L36.6708 71.8122H34.3621L33.1541 68.2476H31.1207ZM33.0777 66.4025C33.5771 66.4025 33.9492 66.2463 34.1939 65.9334C34.4385 65.6211 34.5607 65.2089 34.5607 64.6983C34.5607 64.1875 34.4282 63.7814 34.1633 63.4791C33.9084 63.1768 33.5364 63.0254 33.0472 63.0254H31.1207V66.4025H33.0777Z" fill="white"/>
<path d="M41.9934 71.8122H38.4922V61.1804H41.9934C42.8904 61.1804 43.6294 61.2796 44.2104 61.4779C44.7915 61.6649 45.2399 61.9833 45.5559 62.4316C45.8821 62.8693 46.1063 63.39 46.2286 63.9951C46.3509 64.589 46.4121 65.3656 46.4121 66.3246C46.4121 67.2832 46.356 68.0806 46.2439 68.7166C46.1318 69.342 45.9177 69.9048 45.6017 70.4049C45.2959 70.8947 44.8474 71.2547 44.2563 71.4838C43.6652 71.7029 42.9109 71.8122 41.9934 71.8122ZM44.2104 67.5908C44.2308 67.2577 44.241 66.7986 44.241 66.2148C44.241 65.6211 44.2205 65.1465 44.1798 64.7921C44.1391 64.4381 44.0423 64.1145 43.8893 63.823C43.7364 63.5307 43.5071 63.333 43.2013 63.2285C42.9057 63.1139 42.5031 63.0569 41.9934 63.0569H40.602V69.9363H41.9934C42.7579 69.9363 43.3134 69.738 43.66 69.342C43.9556 69.0188 44.1391 68.4352 44.2104 67.5908Z" fill="white"/>
<path d="M47.2212 71.8122L49.5606 61.1804H53.5665L55.9057 71.8122H53.7958L53.3829 69.8894H49.744L49.3311 71.8122H47.2212ZM51.1965 62.9631L50.1415 68.0129H52.9854L51.9304 62.9631H51.1965Z" fill="white"/>
</svg>
