<svg width="868" height="200" viewBox="0 0 868 200" fill="none" xmlns="http://www.w3.org/2000/svg">

<g clip-path="url(#clip0_8354_17451)">
<path d="M23.4951 68.242C23.4951 42.8774 44.1481 22.3154 69.6249 22.3154H123.895C149.372 22.3154 170.025 42.8774 170.025 68.242V120.922C170.025 146.287 149.372 166.849 123.895 166.849H69.6249C44.1481 166.849 23.4951 146.287 23.4951 120.922V68.242Z" fill="url(#paint0_linear_8354_17451)"/>
</g>
<g clip-path="url(#clip1_8354_17451)">
<path opacity="0.8" d="M130.217 88.0469C130.217 87.4316 130.308 86.8013 130.505 86.2161L119.693 76.2213C118.981 76.5064 118.209 76.6415 117.437 76.6415C116.982 76.6415 116.543 76.5815 116.104 76.4914L103.989 91.7837C104.413 92.6241 104.641 93.5395 104.641 94.485C104.474 97.8616 101.582 100.443 98.1744 100.278C95.0095 100.128 92.4806 97.6215 92.3291 94.485C92.3291 93.9147 92.42 93.3445 92.5714 92.8042L82.2589 83.7999C81.5017 84.1151 80.684 84.2801 79.8663 84.2801C79.0182 84.2801 78.1702 84.1151 77.3979 83.7699L67.0854 92.6391C68.1 95.8356 66.3131 99.2573 63.0876 100.263C62.497 100.443 61.8913 100.548 61.2704 100.548H60.8464V117.926C60.8464 125.445 66.9945 131.538 74.5813 131.538H122.434C130.021 131.538 136.169 125.445 136.169 117.926V94.1248C132.852 94.0198 130.217 91.3335 130.217 88.0469V88.0469Z" fill="white"/>
<path d="M136.169 107.256V117.911C136.169 125.43 130.021 131.523 122.434 131.523H74.5661C66.9794 131.523 60.8312 125.43 60.8312 117.911V107.031C60.8312 107.031 72.8247 117.536 98.5076 107.031C121.344 97.6965 136.063 107.031 136.063 107.031L136.169 107.256V107.256Z" fill="white"/>
<path opacity="0.8" d="M61.2704 88.3621C62.0276 88.3621 62.7696 88.4972 63.4662 88.7673L73.9604 79.763C73.809 79.2377 73.7333 78.6825 73.7333 78.1422C73.7938 74.7656 76.5953 72.0793 79.9874 72.1244C83.3795 72.1694 86.1053 74.9607 86.0598 78.3223C86.0598 78.8325 85.9841 79.3278 85.8478 79.808L96.1604 88.8123C96.9175 88.4972 97.7353 88.3321 98.5681 88.3321C99.0224 88.3321 99.4616 88.3921 99.9007 88.4821L112.015 73.1899C111.591 72.3495 111.379 71.419 111.379 70.4886C111.379 67.127 114.135 64.3957 117.527 64.3957C120.92 64.3957 123.676 67.127 123.676 70.4886C123.676 71.1039 123.585 71.7342 123.388 72.3194L134.215 82.3142C134.866 82.0591 135.563 81.909 136.26 81.894V71.0438C136.26 63.5553 130.111 57.4624 122.54 57.4624H74.5661C66.9945 57.4624 60.8464 63.5403 60.8312 71.0438V88.3771H61.2704V88.3621Z" fill="white"/>
<path d="M117.437 74.3304C119.553 74.3304 121.268 72.6305 121.268 70.5336C121.268 68.4367 119.553 66.7368 117.437 66.7368C115.321 66.7368 113.605 68.4367 113.605 70.5336C113.605 72.6305 115.321 74.3304 117.437 74.3304Z" fill="white"/>
<path d="M136.169 91.9638C138.285 91.9638 140 90.2639 140 88.167C140 86.0701 138.285 84.3702 136.169 84.3702C134.053 84.3702 132.338 86.0701 132.338 88.167C132.338 90.2639 134.053 91.9638 136.169 91.9638Z" fill="white"/>
<path d="M60.8312 98.2818C62.9472 98.2818 64.6625 96.5819 64.6625 94.485C64.6625 92.3881 62.9472 90.6882 60.8312 90.6882C58.7153 90.6882 57 92.3881 57 94.485C57 96.5819 58.7153 98.2818 60.8312 98.2818Z" fill="white"/>
<path d="M98.5076 98.2818C100.623 98.2818 102.339 96.5819 102.339 94.485C102.339 92.3881 100.623 90.6882 98.5076 90.6882C96.3916 90.6882 94.6763 92.3881 94.6763 94.485C94.6763 96.5819 96.3916 98.2818 98.5076 98.2818Z" fill="white"/>
<path d="M79.9268 81.834C82.0428 81.834 83.7581 80.1341 83.7581 78.0372C83.7581 75.9402 82.0428 74.2404 79.9268 74.2404C77.8109 74.2404 76.0956 75.9402 76.0956 78.0372C76.0956 80.1341 77.8109 81.834 79.9268 81.834Z" fill="white"/>
</g>
<path d="M438.072 62.4597H416.33V53.2046H469.731V62.4597H448.003V135.281H438.072V62.4597Z" fill="#fff"/>
<path d="M507.882 106.15H490.43V135.281H480.484V53.2046H506.927C524.262 53.2046 534.84 64.3107 534.84 79.9122C534.84 92.1642 528.376 101.184 517.387 104.651L537.851 135.281H526.98L507.882 106.15V106.15ZM505.796 97.3353C517.358 97.3353 524.762 91.459 524.762 79.8828C524.762 68.3066 517.417 62.4303 505.796 62.4303H490.43V97.3353H505.796V97.3353Z" fill="#fff"/>
<path d="M586.022 53.2046L618.62 135.281H607.867L600.522 116.316H561.635L554.29 135.281H543.551L576.135 53.2046H586.022V53.2046ZM596.893 107.075L581.027 66.0442L565.191 107.075H596.893Z" fill="#fff"/>
<path d="M627.641 53.2046H652.262C676.516 53.2046 692.676 69.8491 692.676 94.2356C692.676 118.622 676.516 135.281 652.262 135.281H627.641V53.2046V53.2046ZM651.909 125.791C671.448 125.791 682.304 113.201 682.304 94.2356C682.304 75.2699 671.448 62.6948 651.909 62.6948H637.571V125.791H651.909Z" fill="#fff"/>
<path d="M703.929 53.2046H748.001V62.4597H713.86V89.5052H742.874V98.6428H713.86V126.026H749V135.281H703.929V53.2046V53.2046Z" fill="#fff"/>
<path d="M210 53.2046H228.26V118.519H258.788V135.281H210V53.2046V53.2046ZM281.088 103.447L251.149 53.2046H271.848L290.226 86.3761L308.604 53.2046H329.303L299.363 103.447V135.237H281.088V103.447ZM325.366 94.1915C325.366 69.1146 344.669 52 367.969 52C391.268 52 410.571 69.1146 410.571 94.1915C410.571 119.268 391.15 136.383 367.969 136.383C344.787 136.383 325.41 119.327 325.41 94.2356L325.366 94.1915ZM367.969 119.048C380.911 119.048 391.665 109.338 391.665 94.1915C391.665 79.0455 380.911 69.335 367.969 69.335C355.026 69.335 344.258 79.0455 344.258 94.1915C344.258 109.338 354.953 119.092 367.91 119.092L367.969 119.048V119.048Z" fill="#fff"/>
<defs>
<linearGradient id="paint0_linear_8354_17451" x1="154.422" y1="33.7971" x2="38.274" y2="154.529" gradientUnits="userSpaceOnUse">
<stop stop-color="#3CFEF7"/>
<stop offset="1" stop-color="#0062EF"/>
</linearGradient>
<clipPath id="clip0_8354_17451">
<rect width="147.52" height="147" fill="white" transform="translate(23 21)"/>
</clipPath>
<clipPath id="clip1_8354_17451">
<rect width="83" height="74.0753" fill="white" transform="translate(57 57.4624)"/>
</clipPath>
</defs>
</svg>
