<svg width="94" height="50" viewBox="0 0 94 50" fill="none" xmlns="http://www.w3.org/2000/svg">
<g clip-path="url(#clip0_263_668)">
<path d="M25.0183 49.6403L24.7319 49.4971C13.5628 42.958 5.11446 32.1708 1.67783 19.2834C1.12892 17.2548 0.723205 15.1785 0.436819 13.0784C0.174298 10.9782 0.0311054 8.85415 0.0072399 6.73012C0.0072399 6.37214 -0.0404911 6.41987 0.293626 6.25281C4.49395 3.86626 8.93294 2.12408 13.6344 1.02626C15.3766 0.620547 17.1188 0.310296 18.8849 0.0955059C21.3191 -0.19088 23.7534 -0.310208 26.2116 -0.262477C27.5958 -0.238611 28.9561 -0.143149 30.3164 4.38094e-05C37.1658 0.739875 43.5856 2.79231 49.5998 6.15735C49.6952 6.20508 49.7668 6.25281 49.8623 6.30054C49.9577 6.34827 50.0055 6.41987 50.0055 6.5392V6.89718C49.9816 8.13819 49.9339 9.35533 49.8384 10.5963C49.6952 12.3624 49.4566 14.1046 49.1224 15.8468C48.4065 19.5936 47.2848 23.1973 45.7335 26.6578C43.2754 32.1708 39.9104 37.0871 35.6623 41.3829C32.6075 44.4854 29.1948 47.1583 25.424 49.3778C25.2808 49.4733 25.1615 49.5449 25.0183 49.6403ZM2.29833 7.94726V8.23365C2.29833 9.97583 2.41766 11.7419 2.63245 13.4602C2.82337 15.0353 3.08589 16.5866 3.44387 18.1378C3.51547 18.4004 3.58707 18.6629 3.70639 18.9254C5.85429 23.4837 10.8183 25.918 15.7346 24.7963C19.4815 23.9372 22.5363 21.0494 23.5625 17.3503C23.8489 16.3241 23.9443 15.274 23.9921 14.2239C24.0159 13.5318 24.0875 12.8397 24.2069 12.1476C25.0183 7.94726 27.8106 4.48676 31.7484 2.84004C31.9631 2.74458 32.2018 2.67298 32.4166 2.57752C32.4405 2.55366 32.4882 2.55366 32.4882 2.50592C31.8677 2.29113 28.1685 1.90929 25.949 1.86155C21.1759 1.76609 16.4983 2.3866 11.94 3.7708C8.55109 4.79701 5.35311 6.18121 2.29833 7.94726ZM37.4999 36.5382C37.6193 36.4666 37.6909 36.3711 37.7386 36.2995C38.6932 35.1062 39.6001 33.8652 40.4354 32.5765C43.4186 27.9466 45.5188 22.9587 46.6882 17.5651C47.0939 15.7274 47.3564 13.8898 47.5235 12.0283C47.6428 10.7634 47.6905 9.49852 47.6905 8.20978C47.6905 8.11432 47.6905 8.04273 47.6666 7.94726L47.3087 7.73247C46.3302 7.18357 45.3278 6.65852 44.3255 6.18121C42.8458 5.48911 41.3662 4.86861 39.8149 4.36743C37.9295 3.7708 36.0203 3.6992 34.111 4.17651C28.6458 5.48911 25.1376 10.8589 26.1877 16.3718C26.7605 19.4266 28.4072 21.8131 31.0324 23.4837C31.1995 23.6031 31.3904 23.6985 31.5574 23.8178C33.4905 24.9873 34.9941 26.5862 36.068 28.5671C37.2136 30.6434 37.7147 32.8867 37.5715 35.2494C37.5954 35.6551 37.5477 36.0847 37.4999 36.5382ZM25.0183 47.2061C25.1138 47.1583 25.2331 47.0867 25.3285 47.0151C28.3356 45.2491 31.104 43.1489 33.6337 40.7624C33.8008 40.6192 33.9201 40.4282 34.0156 40.2373C34.1826 39.9271 34.3497 39.593 34.4929 39.2827C35.6862 36.8007 35.9487 34.2232 35.1611 31.5503C33.6099 26.3953 28.6458 23.436 23.658 24.0565C22.226 24.2236 20.9134 24.677 19.6724 25.393C17.3097 26.7294 14.78 27.2783 12.0593 27.0158C10.7229 26.8965 9.45798 26.5385 8.24084 26.0135C7.28622 25.5839 6.37933 25.0588 5.5679 24.4145C5.52017 24.3667 5.44857 24.3429 5.32925 24.2713C5.35311 24.3906 5.37698 24.4622 5.40084 24.5099C6.47479 27.2306 7.78739 29.8081 9.33865 32.2662C11.0331 34.9153 12.9662 37.3735 15.1618 39.6168C17.3575 41.8602 19.7679 43.8649 22.3692 45.6071C23.5625 46.3708 24.6842 47.0629 25.0183 47.2061Z" fill="white"/>
<path d="M2.29779 7.94706C5.35258 6.18101 8.55055 4.79681 11.9156 3.79446C16.4978 2.43413 21.1515 1.78976 25.9246 1.88522C28.1441 1.93295 31.8433 2.29093 32.4638 2.52959C32.4877 2.57732 32.4399 2.60119 32.3922 2.60119C32.1774 2.69665 31.9387 2.76824 31.724 2.86371C27.7862 4.51043 24.9939 7.97092 24.1825 12.1713C24.0631 12.8634 23.9915 13.5555 23.9677 14.2476C23.9438 15.2976 23.8483 16.3477 23.5381 17.3739C22.488 21.0731 19.4571 23.9608 15.7102 24.82C10.7939 25.9416 5.82989 23.5074 3.68199 18.9491C3.56266 18.6865 3.4672 18.424 3.41947 18.1615C3.06149 16.6102 2.79897 15.059 2.60804 13.4839C2.39325 11.7417 2.27393 9.99949 2.27393 8.25731C2.29779 8.13798 2.29779 8.06639 2.29779 7.94706Z" fill="#F7A800"/>
<path d="M37.4997 36.5381C37.5474 36.0846 37.5952 35.6789 37.619 35.2493C37.7383 32.8867 37.2372 30.6433 36.1155 28.567C35.0415 26.5862 33.538 25.011 31.6049 23.8178C31.4379 23.6984 31.2469 23.603 31.0799 23.4837C28.4308 21.8131 26.8079 19.4504 26.2352 16.3717C25.209 10.8349 28.6933 5.48906 34.1585 4.17646C36.0916 3.72301 37.977 3.77075 39.8624 4.36738C41.4136 4.84469 42.8933 5.48906 44.373 6.18116C45.3992 6.65847 46.3777 7.18351 47.3561 7.73242C47.4755 7.80402 47.5709 7.85175 47.7141 7.94721C47.7141 8.04267 47.738 8.11427 47.738 8.20973C47.738 9.4746 47.6664 10.7633 47.5709 12.0282C47.4039 13.8897 47.1175 15.7512 46.7356 17.565C45.5662 22.9586 43.4899 27.9465 40.4829 32.5764C39.6476 33.8651 38.7407 35.1062 37.7861 36.2994C37.6906 36.371 37.6429 36.4665 37.4997 36.5381Z" fill="#67B2E8"/>
<path d="M25.0177 47.2061C24.6597 47.0629 23.5619 46.3947 22.3925 45.6071C19.7912 43.865 17.3808 41.8603 15.1851 39.6169C12.9895 37.3736 11.0325 34.9154 9.36194 32.2664C7.78682 29.8082 6.47422 27.2308 5.42414 24.5101C5.40027 24.4385 5.3764 24.3908 5.35254 24.2715C5.47187 24.3431 5.5196 24.3669 5.59119 24.4147C6.42649 25.059 7.30951 25.6079 8.26413 26.0136C9.48127 26.5387 10.7461 26.8967 12.0826 27.016C14.7794 27.2785 17.3092 26.7296 19.6957 25.3931C20.9367 24.7011 22.2732 24.2476 23.6812 24.0567C28.6691 23.4362 33.6332 26.3955 35.1844 31.5504C35.972 34.1995 35.7333 36.7769 34.5162 39.2828C34.3491 39.6169 34.2059 39.9272 34.0389 40.2374C33.9434 40.4284 33.8241 40.6193 33.657 40.7625C31.1273 43.149 28.3589 45.2492 25.3518 47.0152C25.2325 47.0868 25.1132 47.1584 25.0177 47.2061Z" fill="#00C4B3"/>
</g>
<path d="M71.4445 18.9954V30.1474H69.1467L64.666 22.6718V30.1474H62.3682V18.9954H64.666L69.1543 26.4785V18.9954H71.4445Z" fill="white"/>
<path d="M80.9268 28.3551V30.1474H74.9908V28.3551H80.9268ZM75.7414 18.9954V30.1474H73.4436V18.9954H75.7414ZM80.1532 23.5374V25.2837H74.9908V23.5374H80.1532ZM80.9191 18.9954V20.7953H74.9908V18.9954H80.9191Z" fill="white"/>
<path d="M83.3165 18.9954H85.262L88.1266 27.1832L90.9912 18.9954H92.9366L88.9078 30.1474H87.3453L83.3165 18.9954ZM82.2672 18.9954H84.205L84.5573 26.9764V30.1474H82.2672V18.9954ZM92.0481 18.9954H93.9936V30.1474H91.6958V26.9764L92.0481 18.9954Z" fill="white"/>
<defs>
<clipPath id="clip0_263_668">
<rect width="50.0002" height="50.0002" fill="white" transform="translate(0.00585938)"/>
</clipPath>
</defs>
</svg>
