<svg id="_Слой_" data-name="&lt;Слой&gt;" xmlns="http://www.w3.org/2000/svg" viewBox="0 0 255.42 51.56">
    <defs>
        <style>
            .cls-1 {
                fill: #ccc;
            }
            .cls-2 {
                fill: url(#MyGradient);
            }
        </style>
         <linearGradient gradientTransform="rotate(90)" id="MyGradient">
          <stop offset="0%" stop-color="#4fffca" />
          <stop offset="70%" stop-color="#1e3a37" />
          <stop offset="100%" stop-color="#191a1a" />
        </linearGradient>
    </defs>
    <path class="cls-1"
        d="M65.9,50.32a4.73,4.73,0,0,1-1.84-1.79,5.28,5.28,0,0,1,0-5.15,4.78,4.78,0,0,1,1.85-1.8,5.44,5.44,0,0,1,2.65-.64,5.59,5.59,0,0,1,2,.36,4.26,4.26,0,0,1,1.58,1.07l-.66.67a3.94,3.94,0,0,0-2.92-1.17,4.26,4.26,0,0,0-2.13.53A3.92,3.92,0,0,0,65,43.87,4.3,4.3,0,0,0,65,48a3.92,3.92,0,0,0,1.5,1.47,4.37,4.37,0,0,0,2.13.53,3.88,3.88,0,0,0,2.92-1.18l.66.66a4.24,4.24,0,0,1-1.59,1.08,5.74,5.74,0,0,1-4.68-.28Z" />
    <path class="cls-1"
        d="M81.14,50.89l-2.26-3.17c-.25,0-.52,0-.79,0H75.44v3.13h-1V41h3.69a4.45,4.45,0,0,1,3,.9,3.05,3.05,0,0,1,1.07,2.48,3,3,0,0,1-2.25,3.1l2.41,3.39Zm-.84-4.67a2.54,2.54,0,0,0,0-3.66,3.46,3.46,0,0,0-2.24-.64H75.44v4.95h2.62A3.4,3.4,0,0,0,80.3,46.22Z" />
    <path class="cls-1" d="M87.83,47.48v3.41h-1V47.48l-4-6.46H84l3.38,5.54L90.74,41h1Z" />
    <path class="cls-1"
        d="M99.84,41.92a3.41,3.41,0,0,1,0,5,4.51,4.51,0,0,1-3,.89H94.23v3.12h-1V41h3.69A4.45,4.45,0,0,1,99.84,41.92Zm-.74,4.29a2.22,2.22,0,0,0,.77-1.81,2.27,2.27,0,0,0-.77-1.84,3.51,3.51,0,0,0-2.25-.64H94.23v4.94h2.62A3.45,3.45,0,0,0,99.1,46.21Z" />
    <path class="cls-1" d="M104.76,41.92H101.3V41h8v.9h-3.46v9h-1Z" />
    <path class="cls-1"
        d="M112.45,50.32a4.88,4.88,0,0,1-1.86-1.8,5.24,5.24,0,0,1,0-5.13,4.88,4.88,0,0,1,1.86-1.8,5.77,5.77,0,0,1,5.3,0,4.88,4.88,0,0,1,1.86,1.8,5.22,5.22,0,0,1,0,5.15,4.78,4.78,0,0,1-1.86,1.79,5.27,5.27,0,0,1-2.64.65A5.51,5.51,0,0,1,112.45,50.32Zm4.78-.81a3.84,3.84,0,0,0,1.48-1.46,4.41,4.41,0,0,0,0-4.19,3.94,3.94,0,0,0-1.48-1.47,4.58,4.58,0,0,0-4.24,0,3.9,3.9,0,0,0-1.49,1.47,4.27,4.27,0,0,0,0,4.19A3.8,3.8,0,0,0,113,49.51a4.51,4.51,0,0,0,4.24,0Z" />
    <path class="cls-1" d="M126.32,41h1v9.87h-1Z" />
    <path class="cls-1"
        d="M131.19,50.62a3.81,3.81,0,0,1-1.56-.93l.41-.8a4,4,0,0,0,1.42.86,5.3,5.3,0,0,0,1.84.34,3.36,3.36,0,0,0,2-.49,1.5,1.5,0,0,0,.67-1.26,1.27,1.27,0,0,0-.36-1,2.61,2.61,0,0,0-.88-.54,13,13,0,0,0-1.46-.42,14.45,14.45,0,0,1-1.77-.54,2.92,2.92,0,0,1-1.14-.8,2.12,2.12,0,0,1-.47-1.45,2.41,2.41,0,0,1,.4-1.36,2.68,2.68,0,0,1,1.21-1,5,5,0,0,1,2-.36,5.77,5.77,0,0,1,1.65.23,4.69,4.69,0,0,1,1.41.64l-.35.83a5.14,5.14,0,0,0-2.71-.82,3.18,3.18,0,0,0-1.95.5,1.57,1.57,0,0,0-.66,1.29,1.3,1.3,0,0,0,.36,1,2.4,2.4,0,0,0,.9.55c.36.12.85.26,1.46.41a15.65,15.65,0,0,1,1.76.53,2.9,2.9,0,0,1,1.13.79,2.09,2.09,0,0,1,.47,1.43,2.42,2.42,0,0,1-.41,1.36,2.61,2.61,0,0,1-1.23,1,5.14,5.14,0,0,1-2,.36A6.19,6.19,0,0,1,131.19,50.62Z" />
    <path class="cls-1"
        d="M143.55,50.62a3.71,3.71,0,0,1-1.55-.93l.4-.8a4.07,4.07,0,0,0,1.43.86,5.21,5.21,0,0,0,1.83.34,3.39,3.39,0,0,0,2-.49,1.51,1.51,0,0,0,.66-1.26,1.27,1.27,0,0,0-.36-1,2.51,2.51,0,0,0-.88-.54,13.36,13.36,0,0,0-1.45-.42,14.69,14.69,0,0,1-1.78-.54,2.82,2.82,0,0,1-1.13-.8,2.08,2.08,0,0,1-.48-1.45,2.49,2.49,0,0,1,.4-1.36,2.74,2.74,0,0,1,1.21-1,5.05,5.05,0,0,1,2-.36,5.79,5.79,0,0,1,1.66.23,4.63,4.63,0,0,1,1.4.64l-.35.83a4.72,4.72,0,0,0-1.33-.61,4.82,4.82,0,0,0-1.38-.21,3.22,3.22,0,0,0-2,.5,1.57,1.57,0,0,0-.66,1.29,1.3,1.3,0,0,0,.36,1,2.36,2.36,0,0,0,.91.55c.36.12.84.26,1.45.41a15.65,15.65,0,0,1,1.76.53,2.93,2.93,0,0,1,1.14.79,2.08,2.08,0,0,1,.46,1.43,2.41,2.41,0,0,1-.4,1.36,2.69,2.69,0,0,1-1.24,1,5.1,5.1,0,0,1-2,.36A6.27,6.27,0,0,1,143.55,50.62Z" />
    <path class="cls-1" d="M151.61,41h1v9.87h-1Z" />
    <path class="cls-1" d="M166.12,41v9.87h-1V43l-3.88,6.64h-.5L156.87,43v7.85h-1V41h.86L161,48.34,165.26,41Z" />
    <path class="cls-1"
        d="M176,41.92a3.39,3.39,0,0,1,0,5,4.51,4.51,0,0,1-3,.89h-2.65v3.12h-1V41H173A4.45,4.45,0,0,1,176,41.92Zm-.74,4.29A2.22,2.22,0,0,0,176,44.4a2.27,2.27,0,0,0-.77-1.84,3.49,3.49,0,0,0-2.24-.64h-2.63v4.94H173A3.44,3.44,0,0,0,175.24,46.21Z" />
    <path class="cls-1" d="M179.31,41h1v9h5.53v.9h-6.57Z" />
    <path class="cls-1" d="M194.59,50v.9h-7V41h6.77v.9h-5.72v3.51h5.1v.89h-5.1V50Z" />
    <path class="cls-1" d="M125.49,0h7.79V33.67h-7.79Z" />
    <path class="cls-1"
        d="M109.82,0V20.41L93.11,0H85.39V18.56c0,3.14-.64,5.39-1.93,6.83a7,7,0,0,1-5.54,2.17c-5,0-7.47-3-7.47-9V0h-7.8V18.88c0,4.9,1.37,8.76,4,11.41s6.43,4,11.25,4,8.52-1.36,11.25-4,4-6.42,4-11.41V11.81l1.28,1.45,16.64,20.41h6.43V0Z" />
    <path class="cls-2"
        d="M46.61,0H5A4.94,4.94,0,0,0,0,4.88V46.61a5,5,0,0,0,5,5H46.61a5,5,0,0,0,5-5V4.88A4.94,4.94,0,0,0,46.61,0Zm1.26,25.75H25.3V48.31h-1A21.51,21.51,0,0,0,2.74,26.78v-1H25.3V3.18h1A21.5,21.5,0,0,0,47.87,24.71Z" />
    <path class="cls-1"
        d="M145.1,32.62a13.07,13.07,0,0,1-5.23-3.13l1.37-2.73a12.9,12.9,0,0,0,4.82,2.89,18.4,18.4,0,0,0,6.19,1.13c3,0,5.22-.57,6.67-1.61a5.11,5.11,0,0,0,2.25-4.26A4.26,4.26,0,0,0,160,21.7a8.38,8.38,0,0,0-3-1.85c-1.21-.4-2.81-.89-4.9-1.37a45.07,45.07,0,0,1-6-1.85A9.73,9.73,0,0,1,142.2,14a7.2,7.2,0,0,1-1.6-4.9A8.32,8.32,0,0,1,142,4.5a9,9,0,0,1,4.1-3.29A16.94,16.94,0,0,1,152.89,0a19.16,19.16,0,0,1,5.63.8A16.54,16.54,0,0,1,163.26,3l-1.21,2.82a17.29,17.29,0,0,0-4.5-2.09A15.8,15.8,0,0,0,152.89,3c-2.89,0-5.14.57-6.59,1.69A5.36,5.36,0,0,0,144.05,9a4.26,4.26,0,0,0,1.21,3.21,7.7,7.7,0,0,0,3.05,1.85c1.21.4,2.89.89,4.9,1.37,2.41.64,4.42,1.2,5.95,1.77A9.2,9.2,0,0,1,163,19.85a7.13,7.13,0,0,1,1.6,4.82,8.32,8.32,0,0,1-1.36,4.58,9.22,9.22,0,0,1-4.18,3.29,17.35,17.35,0,0,1-6.91,1.21A19.33,19.33,0,0,1,145.1,32.62Z" />
    <path class="cls-1" d="M178.28,3.21H166.55v-3h26.92V3.29H181.74v30.3H178.2V3.21Z" />
    <path class="cls-1" d="M222.72,30.45v3.06H199.18V.24H222V3.29H202.71V15.11h17.2v3h-17.2V30.45Z" />
    <path class="cls-1"
        d="M251.41,33.51,240.64,18.88,230,33.51h-4l12.7-17.12L226.74.24h4L240.8,13.82l10-13.58h3.78L242.73,16.31l12.69,17.2Z" />
</svg>