<svg width="327" height="216" viewBox="0 0 327 216" fill="none" xmlns="http://www.w3.org/2000/svg">
<g clip-path="url(#clip0_11_15407)">
<path d="M72.25 177C110.358 177 141.25 146.108 141.25 108C141.25 69.8924 110.358 39 72.25 39C34.1424 39 3.25 69.8924 3.25 108C3.25 146.108 34.1424 177 72.25 177Z" fill="#0052B4"/>
<path d="M72.2504 66L74.4845 72.8755H81.7133L75.8648 77.1246L78.0989 84.0001L72.2504 79.7507L66.4015 84.0001L68.6357 77.1246L62.7871 72.8755H70.0162L72.2504 66Z" fill="#FFDA44"/>
<path d="M42.551 78.3022L48.9928 81.584L54.1044 76.4727L52.9732 83.6125L59.4148 86.8946L52.2746 88.0256L51.1436 95.166L47.8616 88.7245L40.7217 89.8557L45.8333 84.744L42.551 78.3022Z" fill="#FFDA44"/>
<path d="M30.25 108L37.1255 105.766V98.5371L41.3744 104.386L48.2501 102.152L44.0004 108L48.2501 113.849L41.3744 111.615L37.1255 117.464V110.234L30.25 108Z" fill="#FFDA44"/>
<path d="M42.551 137.699L45.8331 131.258L40.7217 126.146L47.8618 127.277L51.1434 120.836L52.2746 127.976L59.4145 129.107L52.9738 132.389L54.1044 139.529L48.9928 134.417L42.551 137.699Z" fill="#FFDA44"/>
<path d="M72.2504 150L70.0159 143.124H62.7871L68.6359 138.875L66.4015 132L72.2504 136.249L78.0989 132L75.8648 138.875L81.7133 143.124H74.4842L72.2504 150Z" fill="#FFDA44"/>
<path d="M101.948 137.699L95.5067 134.418L90.3947 139.529L91.5259 132.389L85.085 129.107L92.2248 127.976L93.3558 120.836L96.6376 127.277L103.777 126.146L98.6658 131.258L101.948 137.699Z" fill="#FFDA44"/>
<path d="M114.25 108L107.374 110.234V117.464L103.125 111.615L96.25 113.849L100.499 108L96.25 102.152L103.125 104.386L107.374 98.5371V105.766L114.25 108Z" fill="#FFDA44"/>
<path d="M101.948 78.302L98.6661 84.7438L103.778 89.8554L96.6373 88.7239L93.3558 95.1655L92.2248 88.0253L85.085 86.8941L91.526 83.6123L90.3947 76.4727L95.5069 81.584L101.948 78.302Z" fill="#FFDA44"/>
</g>
<g clip-path="url(#clip1_11_15407)">
<path d="M163.25 177C201.358 177 232.25 146.108 232.25 108C232.25 69.8924 201.358 39 163.25 39C125.142 39 94.25 69.8924 94.25 108C94.25 146.108 125.142 177 163.25 177Z" fill="url(#paint0_linear_11_15407)"/>
<path d="M185.871 105.941C190.224 111.75 177.478 122.979 180.342 118.341H153.192C150.255 114.5 148.235 110.3 147.265 105.941H185.871Z" fill="url(#paint1_linear_11_15407)"/>
<path d="M178.003 139.412C174.144 142.488 169.973 145.15 165.558 147.353L163.398 148.44L161.226 147.357C140.799 137.106 128.613 119.451 128.613 100.102V77.3848H141.071V100.102C141.069 101.551 141.167 102.999 141.364 104.434C142.933 116.189 150.867 127.033 163.352 134.334C163.363 134.346 163.377 134.355 163.391 134.362C163.404 134.355 163.411 134.348 163.425 134.342L163.477 134.308C167.99 136.832 172.903 138.558 178.003 139.412Z" fill="url(#paint2_linear_11_15407)"/>
<path d="M197.797 105.941C197.221 110.432 195.989 114.813 194.142 118.946C190.727 126.621 185.238 133.605 178.008 139.415C172.912 138.561 168 136.834 163.49 134.311C165.119 133.351 166.699 132.308 168.223 131.188C168.375 131.09 168.521 130.983 168.661 130.869C177.1 124.792 183.18 115.986 185.871 105.941H197.797Z" fill="url(#paint3_linear_11_15407)"/>
<path d="M198.183 77.3887H141.071V89.8409H198.183V77.3887Z" fill="url(#paint4_linear_11_15407)"/>
<path d="M198.183 89.8418V100.102C198.183 100.526 198.17 100.952 198.157 101.377H185.691C185.704 100.951 185.71 100.526 185.71 100.102V89.8418H198.183Z" fill="url(#paint5_linear_11_15407)"/>
</g>
<path fill-rule="evenodd" clip-rule="evenodd" d="M206.899 105.569C206.899 109.301 203.84 112.328 200.063 112.328C196.288 112.328 193.227 109.301 193.227 105.569C193.227 101.837 196.288 98.8134 200.063 98.8134C203.84 98.8134 206.899 101.837 206.899 105.569ZM315.531 105.569C315.531 109.301 312.47 112.328 308.697 112.328C304.921 112.328 301.86 109.301 301.86 105.569C301.86 101.837 304.921 98.8134 308.697 98.8134C312.47 98.8134 315.531 101.837 315.531 105.569ZM261.215 132.233C261.215 135.965 258.154 138.991 254.38 138.991C250.604 138.991 247.543 135.965 247.543 132.233C247.543 128.502 250.604 125.477 254.38 125.477C258.154 125.477 261.215 128.502 261.215 132.233ZM233.872 119.085C233.872 122.815 230.813 125.842 227.035 125.842C223.26 125.842 220.2 122.815 220.2 119.085C220.2 115.352 223.26 112.328 227.035 112.328C230.813 112.328 233.872 115.352 233.872 119.085ZM288.188 119.085C288.188 122.815 285.127 125.842 281.353 125.842C277.576 125.842 274.517 122.815 274.517 119.085C274.517 115.352 277.576 112.328 281.353 112.328C285.127 112.328 288.188 115.352 288.188 119.085ZM204.682 126.026C204.682 128.544 202.615 130.59 200.065 130.59C197.512 130.59 195.444 128.544 195.444 126.026C195.444 123.503 197.512 121.459 200.065 121.459C202.615 121.459 204.682 123.503 204.682 126.026ZM313.314 126.026C313.314 128.544 311.245 130.59 308.695 130.59C306.144 130.59 304.077 128.544 304.077 126.026C304.077 123.503 306.144 121.459 308.695 121.459C311.245 121.459 313.314 123.503 313.314 126.026ZM258.998 153.05C258.998 155.572 256.928 157.619 254.381 157.619C251.832 157.619 249.76 155.572 249.76 153.05C249.76 150.53 251.832 148.488 254.381 148.488C256.928 148.488 258.998 150.53 258.998 153.05ZM231.655 139.541C231.655 142.062 229.588 144.105 227.038 144.105C224.486 144.105 222.417 142.062 222.417 139.541C222.417 137.018 224.486 134.974 227.038 134.974C229.588 134.974 231.655 137.018 231.655 139.541ZM285.971 139.541C285.971 142.062 283.901 144.105 281.355 144.105C278.802 144.105 276.734 142.062 276.734 139.541C276.734 137.018 278.802 134.974 281.355 134.974C283.901 134.974 285.971 137.018 285.971 139.541ZM202.465 142.093C202.465 143.407 201.39 144.47 200.064 144.47C198.736 144.47 197.661 143.407 197.661 142.093C197.661 140.783 198.736 139.722 200.064 139.722C201.39 139.722 202.465 140.783 202.465 142.093ZM311.097 142.093C311.097 143.407 310.02 144.47 308.696 144.47C307.367 144.47 306.293 143.407 306.293 142.093C306.293 140.783 307.367 139.722 308.696 139.722C310.02 139.722 311.097 140.783 311.097 142.093ZM256.781 169.123C256.781 170.435 255.704 171.499 254.38 171.499C253.053 171.499 251.977 170.435 251.977 169.123C251.977 167.812 253.053 166.751 254.38 166.751C255.704 166.751 256.781 167.812 256.781 169.123ZM229.438 155.61C229.438 156.92 228.362 157.984 227.035 157.984C225.711 157.984 224.634 156.92 224.634 155.61C224.634 154.297 225.711 153.236 227.035 153.236C228.362 153.236 229.438 154.297 229.438 155.61ZM283.754 155.61C283.754 156.92 282.677 157.984 281.353 157.984C280.023 157.984 278.951 156.92 278.951 155.61C278.951 154.297 280.023 153.236 281.353 153.236C282.677 153.236 283.754 154.297 283.754 155.61ZM263.432 53.5221C263.432 58.5663 259.295 62.6533 254.197 62.6533C249.093 62.6533 244.957 58.5663 244.957 53.5221C244.957 48.4793 249.093 44.3906 254.197 44.3906C259.295 44.3906 263.432 48.4793 263.432 53.5221ZM263.432 80.5507C263.432 85.5942 259.295 89.6821 254.197 89.6821C249.093 89.6821 244.957 85.5942 244.957 80.5507C244.957 75.5089 249.093 71.4194 254.197 71.4194C259.295 71.4194 263.432 75.5089 263.432 80.5507ZM263.432 107.216C263.432 112.257 259.295 116.346 254.197 116.346C249.093 116.346 244.957 112.257 244.957 107.216C244.957 102.171 249.093 98.0829 254.197 98.0829C259.295 98.0829 263.432 102.171 263.432 107.216ZM317.748 80.5507C317.748 85.5942 313.612 89.6821 308.511 89.6821C303.409 89.6821 299.273 85.5942 299.273 80.5507C299.273 75.5089 303.409 71.4194 308.511 71.4194C313.612 71.4194 317.748 75.5089 317.748 80.5507ZM209.116 80.5507C209.116 85.5942 204.981 89.6821 199.879 89.6821C194.777 89.6821 190.641 85.5942 190.641 80.5507C190.641 75.5089 194.777 71.4194 199.879 71.4194C204.981 71.4194 209.116 75.5089 209.116 80.5507ZM236.458 67.0363C236.458 72.0791 232.323 76.1677 227.221 76.1677C222.119 76.1677 217.983 72.0791 217.983 67.0363C217.983 61.9903 222.119 57.905 227.221 57.905C232.323 57.905 236.458 61.9903 236.458 67.0363ZM236.458 93.699C236.458 98.7423 232.323 102.831 227.221 102.831C222.119 102.831 217.983 98.7423 217.983 93.699C217.983 88.6574 222.119 84.5685 227.221 84.5685C232.323 84.5685 236.458 88.6574 236.458 93.699ZM290.775 67.0363C290.775 72.0791 286.638 76.1677 281.536 76.1677C276.434 76.1677 272.3 72.0791 272.3 67.0363C272.3 61.9903 276.434 57.905 281.536 57.905C286.638 57.905 290.775 61.9903 290.775 67.0363ZM290.775 93.699C290.775 98.7423 286.638 102.831 281.536 102.831C276.434 102.831 272.3 98.7423 272.3 93.699C272.3 88.6574 276.434 84.5685 281.536 84.5685C286.638 84.5685 290.775 88.6574 290.775 93.699Z" fill="#141414"/>
<defs>
<linearGradient id="paint0_linear_11_15407" x1="232.25" y1="39" x2="67.1178" y2="91.2489" gradientUnits="userSpaceOnUse">
<stop stop-color="#000756"/>
<stop offset="1" stop-color="#0042B8"/>
</linearGradient>
<linearGradient id="paint1_linear_11_15407" x1="198.454" y1="119.936" x2="150.949" y2="107.133" gradientUnits="userSpaceOnUse">
<stop offset="0.14" stop-color="#ADADAD"/>
<stop offset="0.29" stop-color="#CBCBCB"/>
<stop offset="0.43" stop-color="#E2E2E2"/>
<stop offset="0.59" stop-color="#F2F2F2"/>
<stop offset="0.77" stop-color="#FCFCFC"/>
<stop offset="1" stop-color="white"/>
</linearGradient>
<linearGradient id="paint2_linear_11_15407" x1="180.915" y1="160.502" x2="113.765" y2="66.8449" gradientUnits="userSpaceOnUse">
<stop stop-color="#ADADAD"/>
<stop offset="0.17" stop-color="#CBCBCB"/>
<stop offset="0.34" stop-color="#E2E2E2"/>
<stop offset="0.52" stop-color="#F2F2F2"/>
<stop offset="0.73" stop-color="#FCFCFC"/>
<stop offset="1" stop-color="white"/>
</linearGradient>
<linearGradient id="paint3_linear_11_15407" x1="164.264" y1="146.328" x2="196.158" y2="105.898" gradientUnits="userSpaceOnUse">
<stop offset="0.15" stop-color="#ADADAD"/>
<stop offset="0.29" stop-color="#CBCBCB"/>
<stop offset="0.44" stop-color="#E2E2E2"/>
<stop offset="0.6" stop-color="#F2F2F2"/>
<stop offset="0.77" stop-color="#FCFCFC"/>
<stop offset="1" stop-color="white"/>
</linearGradient>
<linearGradient id="paint4_linear_11_15407" x1="135.581" y1="115.959" x2="162.536" y2="90.3541" gradientUnits="userSpaceOnUse">
<stop offset="0.14" stop-color="#ADADAD"/>
<stop offset="0.43" stop-color="#C9C9C9"/>
<stop offset="1" stop-color="white"/>
</linearGradient>
<linearGradient id="paint5_linear_11_15407" x1="191.937" y1="83.3061" x2="191.937" y2="101.377" gradientUnits="userSpaceOnUse">
<stop offset="0.0895638" stop-color="#ADADAD"/>
<stop offset="0.240189" stop-color="#CBCBCB"/>
<stop offset="0.425047" stop-color="#E2E2E2"/>
<stop offset="0.536875" stop-color="#F2F2F2"/>
<stop offset="1" stop-color="white"/>
</linearGradient>
<clipPath id="clip0_11_15407">
<rect x="3.25" y="39" width="138" height="138" rx="69" fill="white"/>
</clipPath>
<clipPath id="clip1_11_15407">
<rect x="94.25" y="39" width="138" height="138" rx="69" fill="white"/>
</clipPath>
</defs>
</svg>
