<svg width="112" height="112" viewBox="0 0 112 112" fill="none" xmlns="http://www.w3.org/2000/svg">
<path fill-rule="evenodd" clip-rule="evenodd" d="M14.8248 53.8861C14.8248 57.131 12.1656 59.7633 8.88072 59.7633C5.5987 59.7633 2.93662 57.131 2.93662 53.8861C2.93662 50.6411 5.59869 48.0117 8.88072 48.0117C12.1656 48.0117 14.8248 50.6411 14.8248 53.8861ZM109.288 53.8861C109.288 57.131 106.626 59.7633 103.345 59.7633C100.062 59.7633 97.3996 57.131 97.3996 53.8861C97.3996 50.6411 100.062 48.0117 103.345 48.0117C106.626 48.0117 109.288 50.6411 109.288 53.8861ZM62.0563 77.0724C62.0563 80.317 59.3946 82.949 56.1129 82.949C52.8299 82.949 50.1681 80.317 50.1681 77.0724C50.1681 73.8279 52.8299 71.1973 56.1129 71.1973C59.3946 71.1973 62.0563 73.8279 62.0563 77.0724ZM38.2799 65.6391C38.2799 68.8827 35.6196 71.5149 32.3351 71.5149C29.052 71.5149 26.3917 68.8827 26.3917 65.6391C26.3917 62.3927 29.052 59.7633 32.3351 59.7633C35.6196 59.7633 38.2799 62.3927 38.2799 65.6391ZM85.5114 65.6391C85.5114 68.8827 82.8496 71.5149 79.568 71.5149C76.2835 71.5149 73.6232 68.8827 73.6232 65.6391C73.6232 62.3927 76.2835 59.7633 79.568 59.7633C82.8496 59.7633 85.5114 62.3927 85.5114 65.6391ZM12.897 71.6752C12.897 73.864 11.1004 75.6439 8.88289 75.6439C6.66247 75.6439 4.86444 73.864 4.86444 71.6752C4.86444 69.4806 6.66247 67.7036 8.88289 67.7036C11.1004 67.7036 12.897 69.4806 12.897 71.6752ZM107.36 71.6752C107.36 73.864 105.561 75.6439 103.344 75.6439C101.125 75.6439 99.3274 73.864 99.3274 71.6752C99.3274 69.4806 101.125 67.7036 103.344 67.7036C105.561 67.7036 107.36 69.4806 107.36 71.6752ZM60.1285 95.1741C60.1285 97.3672 58.3285 99.1472 56.1137 99.1472C53.8973 99.1472 52.0959 97.3672 52.0959 95.1741C52.0959 92.9825 53.8973 91.2069 56.1136 91.2069C58.3285 91.2069 60.1285 92.9825 60.1285 95.1741ZM36.3521 83.4268C36.3521 85.6193 34.5544 87.3955 32.3373 87.3955C30.1187 87.3955 28.3195 85.6193 28.3195 83.4268C28.3195 81.2329 30.1187 79.4552 32.3373 79.4552C34.5544 79.4552 36.3521 81.2329 36.3521 83.4268ZM83.5836 83.4268C83.5836 85.6193 81.7833 87.3955 79.5695 87.3955C77.3498 87.3955 75.551 85.6193 75.551 83.4268C75.551 81.2329 77.3498 79.4552 79.5695 79.4552C81.7833 79.4552 83.5836 81.2329 83.5836 83.4268ZM10.9692 85.6465C10.9692 86.7888 10.0347 87.7131 8.88146 87.7131C7.72671 87.7131 6.79226 86.7888 6.79226 85.6465C6.79226 84.5071 7.72671 83.5842 8.88146 83.5842C10.0347 83.5842 10.9692 84.5071 10.9692 85.6465ZM105.432 85.6465C105.432 86.7888 104.496 87.7131 103.344 87.7131C102.189 87.7131 101.255 86.7888 101.255 85.6465C101.255 84.5071 102.189 83.5842 103.344 83.5842C104.496 83.5842 105.432 84.5071 105.432 85.6465ZM58.2007 109.15C58.2007 110.291 57.2641 111.216 56.1129 111.216C54.9589 111.216 54.0237 110.291 54.0237 109.15C54.0237 108.01 54.9589 107.087 56.1129 107.087C57.2641 107.087 58.2007 108.01 58.2007 109.15ZM34.4243 97.4003C34.4243 98.5393 33.4884 99.4648 32.3351 99.4648C31.1833 99.4648 30.2473 98.5393 30.2473 97.4003C30.2473 96.2584 31.1833 95.3358 32.3351 95.3358C33.4884 95.3358 34.4243 96.2584 34.4243 97.4003ZM81.6558 97.4003C81.6558 98.5393 80.7192 99.4648 79.568 99.4648C78.411 99.4648 77.4788 98.5393 77.4788 97.4003C77.4788 96.2584 78.411 95.3358 79.568 95.3358C80.7192 95.3358 81.6558 96.2584 81.6558 97.4003ZM63.9841 8.62794C63.9841 13.0142 60.3872 16.5681 55.9537 16.5681C51.5159 16.5681 47.919 13.0142 47.919 8.62794C47.919 4.24283 51.5159 0.6875 55.9537 0.6875C60.3872 0.6875 63.9841 4.24283 63.9841 8.62794ZM63.9841 32.1311C63.9841 36.5167 60.3872 40.0714 55.9537 40.0714C51.5159 40.0714 47.919 36.5167 47.919 32.1311C47.919 27.7468 51.5159 24.1908 55.9537 24.1908C60.3872 24.1908 63.9841 27.7468 63.9841 32.1311ZM63.9841 55.3181C63.9841 59.7018 60.3872 63.257 55.9537 63.257C51.5159 63.257 47.919 59.7018 47.919 55.3181C47.919 50.9317 51.5159 47.3764 55.9537 47.3764C60.3872 47.3764 63.9841 50.9317 63.9841 55.3181ZM111.216 32.1311C111.216 36.5167 107.619 40.0714 103.184 40.0714C98.7467 40.0714 95.1505 36.5167 95.1505 32.1311C95.1505 27.7468 98.7467 24.1908 103.184 24.1908C107.619 24.1908 111.216 27.7468 111.216 32.1311ZM16.7526 32.1311C16.7526 36.5167 13.1572 40.0714 8.72079 40.0714C4.28441 40.0714 0.687504 36.5167 0.687503 32.1311C0.687503 27.7468 4.28441 24.1908 8.72079 24.1908C13.1572 24.1908 16.7526 27.7468 16.7526 32.1311ZM40.529 20.3794C40.529 24.7645 36.9332 28.3197 32.4965 28.3197C28.0597 28.3197 24.4639 24.7645 24.4639 20.3794C24.4639 15.9916 28.0597 12.4391 32.4965 12.4391C36.9332 12.4391 40.529 15.9916 40.529 20.3794ZM40.529 43.5644C40.529 47.9498 36.9332 51.5054 32.4965 51.5054C28.0597 51.5054 24.4639 47.9498 24.4639 43.5644C24.4639 39.1804 28.0597 35.6248 32.4965 35.6248C36.9332 35.6248 40.529 39.1804 40.529 43.5644ZM87.7605 20.3794C87.7605 24.7645 84.1636 28.3197 79.7272 28.3197C75.2908 28.3197 71.6954 24.7645 71.6954 20.3794C71.6954 15.9916 75.2908 12.4391 79.7272 12.4391C84.1636 12.4391 87.7605 15.9916 87.7605 20.3794ZM87.7605 43.5644C87.7605 47.9498 84.1636 51.5054 79.7272 51.5054C75.2908 51.5054 71.6954 47.9498 71.6954 43.5644C71.6954 39.1804 75.2908 35.6248 79.7272 35.6248C84.1636 35.6248 87.7605 39.1804 87.7605 43.5644Z" fill="#141414"/>
</svg>
