<svg width="400" height="400" viewBox="0 0 400 400" fill="none" xmlns="http://www.w3.org/2000/svg">
<path fill-rule="evenodd" clip-rule="evenodd" d="M62.7494 192.954C62.7494 203.77 53.8854 212.544 42.9357 212.544C31.9957 212.544 23.1221 203.77 23.1221 192.954C23.1221 182.137 31.9956 173.372 42.9357 173.372C53.8854 173.372 62.7494 182.137 62.7494 192.954ZM377.626 192.954C377.626 203.77 368.752 212.544 357.817 212.544C346.872 212.544 337.999 203.77 337.999 192.954C337.999 182.137 346.872 173.372 357.817 173.372C368.752 173.372 377.626 182.137 377.626 192.954ZM220.188 270.241C220.188 281.057 211.315 289.83 200.376 289.83C189.433 289.83 180.56 281.057 180.56 270.241C180.56 259.426 189.433 250.658 200.376 250.658C211.315 250.658 220.188 259.426 220.188 270.241ZM140.933 232.13C140.933 242.942 132.065 251.716 121.117 251.716C110.173 251.716 101.306 242.942 101.306 232.13C101.306 221.309 110.173 212.544 121.117 212.544C132.065 212.544 140.933 221.309 140.933 232.13ZM298.371 232.13C298.371 242.942 289.499 251.716 278.56 251.716C267.612 251.716 258.744 242.942 258.744 232.13C258.744 221.309 267.612 212.544 278.56 212.544C289.499 212.544 298.371 221.309 298.371 232.13ZM56.3233 252.251C56.3233 259.547 50.3347 265.48 42.943 265.48C35.5416 265.48 29.5481 259.547 29.5481 252.251C29.5481 244.936 35.5416 239.012 42.943 239.012C50.3347 239.012 56.3233 244.936 56.3233 252.251ZM371.2 252.251C371.2 259.547 365.203 265.48 357.812 265.48C350.417 265.48 344.425 259.547 344.425 252.251C344.425 244.936 350.417 239.012 357.812 239.012C365.203 239.012 371.2 244.936 371.2 252.251ZM213.762 330.581C213.762 337.891 207.762 343.824 200.379 343.824C192.991 343.824 186.986 337.891 186.986 330.581C186.986 323.275 192.991 317.356 200.379 317.356C207.762 317.356 213.762 323.275 213.762 330.581ZM134.507 291.423C134.507 298.731 128.515 304.652 121.124 304.652C113.729 304.652 107.732 298.731 107.732 291.423C107.732 284.11 113.729 278.184 121.124 278.184C128.515 278.184 134.507 284.11 134.507 291.423ZM291.945 291.423C291.945 298.731 285.944 304.652 278.565 304.652C271.166 304.652 265.17 298.731 265.17 291.423C265.17 284.11 271.166 278.184 278.565 278.184C285.944 278.184 291.945 284.11 291.945 291.423ZM49.8973 298.822C49.8973 302.629 46.7825 305.71 42.9382 305.71C39.089 305.71 35.9742 302.629 35.9742 298.822C35.9742 295.024 39.089 291.947 42.9382 291.947C46.7825 291.947 49.8973 295.024 49.8973 298.822ZM364.774 298.822C364.774 302.629 361.652 305.71 357.815 305.71C353.963 305.71 350.851 302.629 350.851 298.822C350.851 295.024 353.963 291.947 357.815 291.947C361.652 291.947 364.774 295.024 364.774 298.822ZM207.336 377.168C207.336 380.97 204.214 384.055 200.376 384.055C196.53 384.055 193.412 380.97 193.412 377.168C193.412 373.367 196.53 370.292 200.376 370.292C204.214 370.292 207.336 373.367 207.336 377.168ZM128.081 338.001C128.081 341.798 124.961 344.883 121.117 344.883C117.278 344.883 114.158 341.798 114.158 338.001C114.158 334.195 117.278 331.119 121.117 331.119C124.961 331.119 128.081 334.195 128.081 338.001ZM285.519 338.001C285.519 341.798 282.397 344.883 278.56 344.883C274.703 344.883 271.596 341.798 271.596 338.001C271.596 334.195 274.703 331.119 278.56 331.119C282.397 331.119 285.519 334.195 285.519 338.001ZM226.614 42.0931C226.614 56.7139 214.624 68.5603 199.846 68.5603C185.053 68.5603 173.063 56.7139 173.063 42.0931C173.063 27.4761 185.053 15.625 199.846 15.625C214.624 15.625 226.614 27.4761 226.614 42.0931ZM226.614 120.437C226.614 135.056 214.624 146.905 199.846 146.905C185.053 146.905 173.063 135.056 173.063 120.437C173.063 105.823 185.053 93.9692 199.846 93.9692C214.624 93.9692 226.614 105.823 226.614 120.437ZM226.614 197.727C226.614 212.339 214.624 224.19 199.846 224.19C185.053 224.19 173.063 212.339 173.063 197.727C173.063 183.106 185.053 171.255 199.846 171.255C214.624 171.255 226.614 183.106 226.614 197.727ZM384.052 120.437C384.052 135.056 372.064 146.905 357.279 146.905C342.489 146.905 330.502 135.056 330.502 120.437C330.502 105.823 342.489 93.9692 357.279 93.9692C372.064 93.9692 384.052 105.823 384.052 120.437ZM69.1754 120.437C69.1754 135.056 57.1906 146.905 42.4026 146.905C27.6147 146.905 15.625 135.056 15.625 120.437C15.625 105.823 27.6147 93.9692 42.4026 93.9692C57.1905 93.9692 69.1754 105.823 69.1754 120.437ZM148.43 81.2648C148.43 95.8815 136.444 107.732 121.655 107.732C106.866 107.732 94.8796 95.8815 94.8796 81.2648C94.8796 66.6385 106.866 54.7971 121.655 54.7971C136.444 54.7971 148.43 66.6385 148.43 81.2648ZM148.43 158.548C148.43 173.166 136.444 185.018 121.655 185.018C106.866 185.018 94.8797 173.166 94.8796 158.548C94.8796 143.935 106.866 132.083 121.655 132.083C136.444 132.083 148.43 143.935 148.43 158.548ZM305.868 81.2648C305.868 95.8815 293.879 107.732 279.091 107.732C264.303 107.732 252.318 95.8815 252.318 81.2648C252.318 66.6385 264.303 54.7971 279.091 54.7971C293.879 54.7971 305.868 66.6385 305.868 81.2648ZM305.868 158.548C305.868 173.166 293.879 185.018 279.091 185.018C264.303 185.018 252.318 173.166 252.318 158.548C252.318 143.935 264.303 132.083 279.091 132.083C293.879 132.083 305.868 143.935 305.868 158.548Z" fill="#141414"/>
</svg>
