<svg width="327" height="216" viewBox="0 0 327 216" fill="none" xmlns="http://www.w3.org/2000/svg">
<g clip-path="url(#clip0_11_15377)">
<path d="M72.75 177C110.858 177 141.75 146.108 141.75 108C141.75 69.8924 110.858 39 72.75 39C34.6424 39 3.75 69.8924 3.75 108C3.75 146.108 34.6424 177 72.75 177Z" fill="#F0F0F0"/>
<path d="M69.75 108H141.75C141.75 101.772 140.92 95.7391 139.373 90H69.75V108Z" fill="#D80027"/>
<path d="M69.75 72.0001H131.623C127.399 65.1076 121.998 59.0154 115.701 54H69.75V72.0001Z" fill="#D80027"/>
<path d="M72.7503 177C88.9892 177 103.915 171.387 115.702 162H29.7988C41.5854 171.387 56.5113 177 72.7503 177Z" fill="#D80027"/>
<path d="M13.8773 144H131.623C135.014 138.467 137.643 132.419 139.373 126H6.12695C7.85654 132.419 10.4864 138.467 13.8773 144Z" fill="#D80027"/>
<path d="M35.7121 49.7753H42L36.1512 54.0245L38.3853 60.9L32.5367 56.6508L26.6882 60.9L28.618 54.9603C23.4684 59.2499 18.9548 64.2756 15.2353 69.8753H17.25L13.527 72.5801C12.9469 73.5477 12.3906 74.5307 11.8575 75.5282L13.6353 81L10.3185 78.5901C9.49398 80.3369 8.73983 82.1231 8.06196 83.9465L10.0206 89.9754H17.25L11.4012 94.2245L13.6353 101.1L7.78677 96.8508L4.2834 99.3963C3.93274 102.215 3.75 105.086 3.75 108H72.75C72.75 69.8926 72.75 65.4 72.75 39C59.1193 39 46.4128 42.954 35.7121 49.7753ZM38.3853 101.1L32.5367 96.8508L26.6882 101.1L28.9223 94.2245L23.0735 89.9754H30.3029L32.5367 83.0999L34.7706 89.9754H42L36.1512 94.2245L38.3853 101.1ZM36.1512 74.1245L38.3853 81L32.5367 76.7508L26.6882 81L28.9223 74.1245L23.0735 69.8753H30.3029L32.5367 62.9999L34.7706 69.8753H42L36.1512 74.1245ZM63.1353 101.1L57.2867 96.8508L51.4382 101.1L53.6723 94.2245L47.8235 89.9754H55.0528L57.2867 83.0999L59.5206 89.9754H66.75L60.9011 94.2245L63.1353 101.1ZM60.9011 74.1245L63.1353 81L57.2867 76.7508L51.4382 81L53.6723 74.1245L47.8235 69.8753H55.0528L57.2867 62.9999L59.5206 69.8753H66.75L60.9011 74.1245ZM60.9011 54.0245L63.1353 60.9L57.2867 56.6508L51.4382 60.9L53.6723 54.0245L47.8235 49.7753H55.0528L57.2867 42.8998L59.5206 49.7753H66.75L60.9011 54.0245Z" fill="#0052B4"/>
</g>
<g clip-path="url(#clip1_11_15377)">
<path d="M163.75 177C201.858 177 232.75 146.108 232.75 108C232.75 69.8924 201.858 39 163.75 39C125.642 39 94.75 69.8924 94.75 108C94.75 146.108 125.642 177 163.75 177Z" fill="url(#paint0_linear_11_15377)"/>
<path d="M186.371 105.941C190.724 111.75 177.978 122.979 180.842 118.341H153.692C150.755 114.5 148.735 110.3 147.765 105.941H186.371Z" fill="url(#paint1_linear_11_15377)"/>
<path d="M178.503 139.412C174.644 142.488 170.473 145.15 166.058 147.353L163.898 148.44L161.726 147.357C141.299 137.106 129.113 119.451 129.113 100.102V77.3848H141.571V100.102C141.569 101.551 141.667 102.999 141.864 104.434C143.433 116.189 151.367 127.033 163.852 134.334C163.863 134.346 163.877 134.355 163.891 134.362C163.904 134.355 163.911 134.348 163.925 134.342L163.977 134.308C168.49 136.832 173.403 138.558 178.503 139.412Z" fill="url(#paint2_linear_11_15377)"/>
<path d="M198.297 105.941C197.721 110.432 196.489 114.813 194.642 118.946C191.227 126.621 185.738 133.605 178.508 139.415C173.412 138.561 168.5 136.834 163.99 134.311C165.619 133.351 167.199 132.308 168.723 131.188C168.875 131.09 169.021 130.983 169.161 130.869C177.6 124.792 183.68 115.986 186.371 105.941H198.297Z" fill="url(#paint3_linear_11_15377)"/>
<path d="M198.683 77.3887H141.571V89.8409H198.683V77.3887Z" fill="url(#paint4_linear_11_15377)"/>
<path d="M198.683 89.8418V100.102C198.683 100.526 198.67 100.952 198.657 101.377H186.191C186.204 100.951 186.21 100.526 186.21 100.102V89.8418H198.683Z" fill="url(#paint5_linear_11_15377)"/>
</g>
<path fill-rule="evenodd" clip-rule="evenodd" d="M207.399 105.569C207.399 109.301 204.34 112.328 200.563 112.328C196.788 112.328 193.727 109.301 193.727 105.569C193.727 101.837 196.788 98.8134 200.563 98.8134C204.34 98.8134 207.399 101.837 207.399 105.569ZM316.031 105.569C316.031 109.301 312.97 112.328 309.197 112.328C305.421 112.328 302.36 109.301 302.36 105.569C302.36 101.837 305.421 98.8134 309.197 98.8134C312.97 98.8134 316.031 101.837 316.031 105.569ZM261.715 132.233C261.715 135.965 258.654 138.991 254.88 138.991C251.104 138.991 248.043 135.965 248.043 132.233C248.043 128.502 251.104 125.477 254.88 125.477C258.654 125.477 261.715 128.502 261.715 132.233ZM234.372 119.085C234.372 122.815 231.313 125.842 227.535 125.842C223.76 125.842 220.7 122.815 220.7 119.085C220.7 115.352 223.76 112.328 227.535 112.328C231.313 112.328 234.372 115.352 234.372 119.085ZM288.688 119.085C288.688 122.815 285.627 125.842 281.853 125.842C278.076 125.842 275.017 122.815 275.017 119.085C275.017 115.352 278.076 112.328 281.853 112.328C285.627 112.328 288.688 115.352 288.688 119.085ZM205.182 126.026C205.182 128.544 203.115 130.59 200.565 130.59C198.012 130.59 195.944 128.544 195.944 126.026C195.944 123.503 198.012 121.459 200.565 121.459C203.115 121.459 205.182 123.503 205.182 126.026ZM313.814 126.026C313.814 128.544 311.745 130.59 309.195 130.59C306.644 130.59 304.577 128.544 304.577 126.026C304.577 123.503 306.644 121.459 309.195 121.459C311.745 121.459 313.814 123.503 313.814 126.026ZM259.498 153.05C259.498 155.572 257.428 157.619 254.881 157.619C252.332 157.619 250.26 155.572 250.26 153.05C250.26 150.53 252.332 148.488 254.881 148.488C257.428 148.488 259.498 150.53 259.498 153.05ZM232.155 139.541C232.155 142.062 230.088 144.105 227.538 144.105C224.986 144.105 222.917 142.062 222.917 139.541C222.917 137.018 224.986 134.974 227.538 134.974C230.088 134.974 232.155 137.018 232.155 139.541ZM286.471 139.541C286.471 142.062 284.401 144.105 281.855 144.105C279.302 144.105 277.234 142.062 277.234 139.541C277.234 137.018 279.302 134.974 281.855 134.974C284.401 134.974 286.471 137.018 286.471 139.541ZM202.965 142.093C202.965 143.407 201.89 144.47 200.564 144.47C199.236 144.47 198.161 143.407 198.161 142.093C198.161 140.783 199.236 139.722 200.564 139.722C201.89 139.722 202.965 140.783 202.965 142.093ZM311.597 142.093C311.597 143.407 310.52 144.47 309.196 144.47C307.867 144.47 306.793 143.407 306.793 142.093C306.793 140.783 307.867 139.722 309.196 139.722C310.52 139.722 311.597 140.783 311.597 142.093ZM257.281 169.123C257.281 170.435 256.204 171.499 254.88 171.499C253.553 171.499 252.477 170.435 252.477 169.123C252.477 167.812 253.553 166.751 254.88 166.751C256.204 166.751 257.281 167.812 257.281 169.123ZM229.938 155.61C229.938 156.92 228.862 157.984 227.535 157.984C226.211 157.984 225.134 156.92 225.134 155.61C225.134 154.297 226.211 153.236 227.535 153.236C228.862 153.236 229.938 154.297 229.938 155.61ZM284.254 155.61C284.254 156.92 283.177 157.984 281.853 157.984C280.523 157.984 279.451 156.92 279.451 155.61C279.451 154.297 280.523 153.236 281.853 153.236C283.177 153.236 284.254 154.297 284.254 155.61ZM263.932 53.5221C263.932 58.5663 259.795 62.6533 254.697 62.6533C249.593 62.6533 245.457 58.5663 245.457 53.5221C245.457 48.4793 249.593 44.3906 254.697 44.3906C259.795 44.3906 263.932 48.4793 263.932 53.5221ZM263.932 80.5507C263.932 85.5942 259.795 89.6821 254.697 89.6821C249.593 89.6821 245.457 85.5942 245.457 80.5507C245.457 75.5089 249.593 71.4194 254.697 71.4194C259.795 71.4194 263.932 75.5089 263.932 80.5507ZM263.932 107.216C263.932 112.257 259.795 116.346 254.697 116.346C249.593 116.346 245.457 112.257 245.457 107.216C245.457 102.171 249.593 98.0829 254.697 98.0829C259.795 98.0829 263.932 102.171 263.932 107.216ZM318.248 80.5507C318.248 85.5942 314.112 89.6821 309.011 89.6821C303.909 89.6821 299.773 85.5942 299.773 80.5507C299.773 75.5089 303.909 71.4194 309.011 71.4194C314.112 71.4194 318.248 75.5089 318.248 80.5507ZM209.616 80.5507C209.616 85.5942 205.481 89.6821 200.379 89.6821C195.277 89.6821 191.141 85.5942 191.141 80.5507C191.141 75.5089 195.277 71.4194 200.379 71.4194C205.481 71.4194 209.616 75.5089 209.616 80.5507ZM236.958 67.0363C236.958 72.0791 232.823 76.1677 227.721 76.1677C222.619 76.1677 218.483 72.0791 218.483 67.0363C218.483 61.9903 222.619 57.905 227.721 57.905C232.823 57.905 236.958 61.9903 236.958 67.0363ZM236.958 93.699C236.958 98.7423 232.823 102.831 227.721 102.831C222.619 102.831 218.483 98.7423 218.483 93.699C218.483 88.6574 222.619 84.5685 227.721 84.5685C232.823 84.5685 236.958 88.6574 236.958 93.699ZM291.275 67.0363C291.275 72.0791 287.138 76.1677 282.036 76.1677C276.934 76.1677 272.8 72.0791 272.8 67.0363C272.8 61.9903 276.934 57.905 282.036 57.905C287.138 57.905 291.275 61.9903 291.275 67.0363ZM291.275 93.699C291.275 98.7423 287.138 102.831 282.036 102.831C276.934 102.831 272.8 98.7423 272.8 93.699C272.8 88.6574 276.934 84.5685 282.036 84.5685C287.138 84.5685 291.275 88.6574 291.275 93.699Z" fill="#141414"/>
<defs>
<linearGradient id="paint0_linear_11_15377" x1="232.75" y1="39" x2="67.6178" y2="91.2489" gradientUnits="userSpaceOnUse">
<stop stop-color="#000756"/>
<stop offset="1" stop-color="#0042B8"/>
</linearGradient>
<linearGradient id="paint1_linear_11_15377" x1="198.954" y1="119.936" x2="151.449" y2="107.133" gradientUnits="userSpaceOnUse">
<stop offset="0.14" stop-color="#ADADAD"/>
<stop offset="0.29" stop-color="#CBCBCB"/>
<stop offset="0.43" stop-color="#E2E2E2"/>
<stop offset="0.59" stop-color="#F2F2F2"/>
<stop offset="0.77" stop-color="#FCFCFC"/>
<stop offset="1" stop-color="white"/>
</linearGradient>
<linearGradient id="paint2_linear_11_15377" x1="181.415" y1="160.502" x2="114.265" y2="66.8449" gradientUnits="userSpaceOnUse">
<stop stop-color="#ADADAD"/>
<stop offset="0.17" stop-color="#CBCBCB"/>
<stop offset="0.34" stop-color="#E2E2E2"/>
<stop offset="0.52" stop-color="#F2F2F2"/>
<stop offset="0.73" stop-color="#FCFCFC"/>
<stop offset="1" stop-color="white"/>
</linearGradient>
<linearGradient id="paint3_linear_11_15377" x1="164.764" y1="146.328" x2="196.658" y2="105.898" gradientUnits="userSpaceOnUse">
<stop offset="0.15" stop-color="#ADADAD"/>
<stop offset="0.29" stop-color="#CBCBCB"/>
<stop offset="0.44" stop-color="#E2E2E2"/>
<stop offset="0.6" stop-color="#F2F2F2"/>
<stop offset="0.77" stop-color="#FCFCFC"/>
<stop offset="1" stop-color="white"/>
</linearGradient>
<linearGradient id="paint4_linear_11_15377" x1="136.081" y1="115.959" x2="163.036" y2="90.3541" gradientUnits="userSpaceOnUse">
<stop offset="0.14" stop-color="#ADADAD"/>
<stop offset="0.43" stop-color="#C9C9C9"/>
<stop offset="1" stop-color="white"/>
</linearGradient>
<linearGradient id="paint5_linear_11_15377" x1="192.437" y1="83.3061" x2="192.437" y2="101.377" gradientUnits="userSpaceOnUse">
<stop offset="0.0895638" stop-color="#ADADAD"/>
<stop offset="0.240189" stop-color="#CBCBCB"/>
<stop offset="0.425047" stop-color="#E2E2E2"/>
<stop offset="0.536875" stop-color="#F2F2F2"/>
<stop offset="1" stop-color="white"/>
</linearGradient>
<clipPath id="clip0_11_15377">
<rect x="3.75" y="39" width="138" height="138" rx="69" fill="white"/>
</clipPath>
<clipPath id="clip1_11_15377">
<rect x="94.75" y="39" width="138" height="138" rx="69" fill="white"/>
</clipPath>
</defs>
</svg>
