<svg width="327" height="216" viewBox="0 0 327 216" fill="none" xmlns="http://www.w3.org/2000/svg">
<g clip-path="url(#clip0_204_25612)">
<path d="M72.75 177C110.858 177 141.75 146.108 141.75 108C141.75 69.8924 110.858 39 72.75 39C34.6424 39 3.75 69.8924 3.75 108C3.75 146.108 34.6424 177 72.75 177Z" fill="#F0F0F0"/>
<path d="M69.7539 108H141.754C141.754 101.772 140.924 95.7391 139.377 90H69.7539V108Z" fill="#D80027"/>
<path d="M69.7539 72.0001H131.626C127.403 65.1076 122.002 59.0154 115.705 54H69.7539V72.0001Z" fill="#D80027"/>
<path d="M72.7522 177C88.9912 177 103.917 171.387 115.704 162H29.8008C41.5874 171.387 56.5132 177 72.7522 177Z" fill="#D80027"/>
<path d="M13.8793 144H131.625C135.016 138.467 137.645 132.419 139.375 126H6.12891C7.85849 132.419 10.4883 138.467 13.8793 144Z" fill="#D80027"/>
<path d="M35.7121 49.7753H42L36.1512 54.0245L38.3853 60.9L32.5367 56.6508L26.6882 60.9L28.618 54.9603C23.4684 59.2499 18.9548 64.2756 15.2353 69.8753H17.25L13.527 72.5801C12.9469 73.5477 12.3906 74.5307 11.8575 75.5282L13.6353 81L10.3185 78.5901C9.49398 80.3369 8.73983 82.1231 8.06196 83.9465L10.0206 89.9754H17.25L11.4012 94.2245L13.6353 101.1L7.78677 96.8508L4.2834 99.3963C3.93274 102.215 3.75 105.086 3.75 108H72.75C72.75 69.8926 72.75 65.4 72.75 39C59.1193 39 46.4128 42.954 35.7121 49.7753ZM38.3853 101.1L32.5367 96.8508L26.6882 101.1L28.9223 94.2245L23.0735 89.9754H30.3029L32.5367 83.0999L34.7706 89.9754H42L36.1512 94.2245L38.3853 101.1ZM36.1512 74.1245L38.3853 81L32.5367 76.7508L26.6882 81L28.9223 74.1245L23.0735 69.8753H30.3029L32.5367 62.9999L34.7706 69.8753H42L36.1512 74.1245ZM63.1353 101.1L57.2867 96.8508L51.4382 101.1L53.6723 94.2245L47.8235 89.9754H55.0528L57.2867 83.0999L59.5206 89.9754H66.75L60.9011 94.2245L63.1353 101.1ZM60.9011 74.1245L63.1353 81L57.2867 76.7508L51.4382 81L53.6723 74.1245L47.8235 69.8753H55.0528L57.2867 62.9999L59.5206 69.8753H66.75L60.9011 74.1245ZM60.9011 54.0245L63.1353 60.9L57.2867 56.6508L51.4382 60.9L53.6723 54.0245L47.8235 49.7753H55.0528L57.2867 42.8998L59.5206 49.7753H66.75L60.9011 54.0245Z" fill="#0052B4"/>
</g>
<g clip-path="url(#clip1_204_25612)">
<path d="M163.75 177C201.858 177 232.75 146.108 232.75 108C232.75 69.8924 201.858 39 163.75 39C125.642 39 94.75 69.8924 94.75 108C94.75 146.108 125.642 177 163.75 177Z" fill="url(#paint0_linear_204_25612)"/>
<path d="M186.372 105.941C190.725 111.75 177.979 122.979 180.843 118.341H153.693C150.756 114.5 148.736 110.3 147.766 105.941H186.372Z" fill="url(#paint1_linear_204_25612)"/>
<path d="M178.503 139.412C174.644 142.488 170.473 145.15 166.058 147.353L163.898 148.44L161.726 147.357C141.299 137.106 129.113 119.451 129.113 100.102V77.3848H141.571V100.102C141.569 101.551 141.667 102.999 141.864 104.434C143.433 116.189 151.367 127.033 163.852 134.334C163.863 134.346 163.877 134.355 163.891 134.362C163.904 134.355 163.911 134.348 163.925 134.342L163.977 134.308C168.49 136.832 173.403 138.558 178.503 139.412Z" fill="url(#paint2_linear_204_25612)"/>
<path d="M198.299 105.941C197.722 110.432 196.491 114.813 194.644 118.946C191.229 126.621 185.74 133.605 178.51 139.415C173.414 138.561 168.502 136.834 163.992 134.311C165.621 133.351 167.201 132.308 168.725 131.188C168.877 131.09 169.023 130.983 169.163 130.869C177.602 124.792 183.682 115.986 186.373 105.941H198.299Z" fill="url(#paint3_linear_204_25612)"/>
<path d="M198.682 77.3887H141.57V89.8409H198.682V77.3887Z" fill="url(#paint4_linear_204_25612)"/>
<path d="M198.683 89.8418V100.102C198.683 100.526 198.67 100.952 198.657 101.377H186.191C186.204 100.951 186.21 100.526 186.21 100.102V89.8418H198.683Z" fill="url(#paint5_linear_204_25612)"/>
</g>
<mask id="mask0_204_25612" style="mask-type:luminance" maskUnits="userSpaceOnUse" x="188" y="41" width="133" height="133">
<path d="M254.794 173.83C291.254 173.83 320.81 144.101 320.81 107.429C320.81 70.7563 291.254 41.0273 254.794 41.0273C218.334 41.0273 188.777 70.7563 188.777 107.429C188.777 144.101 218.334 173.83 254.794 173.83Z" fill="white"/>
</mask>
<g mask="url(#mask0_204_25612)">
<path d="M323.75 39H185.75V177H323.75V39Z" fill="url(#paint6_linear_204_25612)"/>
</g>
<mask id="mask1_204_25612" style="mask-type:luminance" maskUnits="userSpaceOnUse" x="214" y="55" width="82" height="106">
<path d="M295.767 55.7305H214.141V160.679H295.767V55.7305Z" fill="white"/>
</mask>
<g mask="url(#mask1_204_25612)">
<path d="M276.098 118.253L254.661 140.64L242.73 128.181L264.167 105.794L254.633 95.8379L223.559 128.289L254.548 160.65L285.622 128.2L276.098 118.253Z" fill="white"/>
<path d="M295.232 98.0141L254.743 55.7305L214.141 98.1323L214.27 117.951L254.571 75.8656L295.164 118.259L295.232 98.0141Z" fill="white"/>
</g>
<defs>
<linearGradient id="paint0_linear_204_25612" x1="232.75" y1="39" x2="67.6178" y2="91.2489" gradientUnits="userSpaceOnUse">
<stop stop-color="#000756"/>
<stop offset="1" stop-color="#0042B8"/>
</linearGradient>
<linearGradient id="paint1_linear_204_25612" x1="198.955" y1="119.936" x2="151.45" y2="107.133" gradientUnits="userSpaceOnUse">
<stop offset="0.14" stop-color="#ADADAD"/>
<stop offset="0.29" stop-color="#CBCBCB"/>
<stop offset="0.43" stop-color="#E2E2E2"/>
<stop offset="0.59" stop-color="#F2F2F2"/>
<stop offset="0.77" stop-color="#FCFCFC"/>
<stop offset="1" stop-color="white"/>
</linearGradient>
<linearGradient id="paint2_linear_204_25612" x1="181.415" y1="160.502" x2="114.265" y2="66.8449" gradientUnits="userSpaceOnUse">
<stop stop-color="#ADADAD"/>
<stop offset="0.17" stop-color="#CBCBCB"/>
<stop offset="0.34" stop-color="#E2E2E2"/>
<stop offset="0.52" stop-color="#F2F2F2"/>
<stop offset="0.73" stop-color="#FCFCFC"/>
<stop offset="1" stop-color="white"/>
</linearGradient>
<linearGradient id="paint3_linear_204_25612" x1="164.766" y1="146.328" x2="196.66" y2="105.898" gradientUnits="userSpaceOnUse">
<stop offset="0.15" stop-color="#ADADAD"/>
<stop offset="0.29" stop-color="#CBCBCB"/>
<stop offset="0.44" stop-color="#E2E2E2"/>
<stop offset="0.6" stop-color="#F2F2F2"/>
<stop offset="0.77" stop-color="#FCFCFC"/>
<stop offset="1" stop-color="white"/>
</linearGradient>
<linearGradient id="paint4_linear_204_25612" x1="136.08" y1="115.959" x2="163.035" y2="90.3541" gradientUnits="userSpaceOnUse">
<stop offset="0.14" stop-color="#ADADAD"/>
<stop offset="0.43" stop-color="#C9C9C9"/>
<stop offset="1" stop-color="white"/>
</linearGradient>
<linearGradient id="paint5_linear_204_25612" x1="192.437" y1="83.3061" x2="192.437" y2="101.377" gradientUnits="userSpaceOnUse">
<stop offset="0.0895638" stop-color="#ADADAD"/>
<stop offset="0.240189" stop-color="#CBCBCB"/>
<stop offset="0.425047" stop-color="#E2E2E2"/>
<stop offset="0.536875" stop-color="#F2F2F2"/>
<stop offset="1" stop-color="white"/>
</linearGradient>
<linearGradient id="paint6_linear_204_25612" x1="207.622" y1="26.3707" x2="301.878" y2="189.624" gradientUnits="userSpaceOnUse">
<stop stop-color="#2E3EC1"/>
<stop offset="0.09" stop-color="#2B4CBA"/>
<stop offset="0.72" stop-color="#17B38A"/>
<stop offset="1" stop-color="#0FDC77"/>
</linearGradient>
<clipPath id="clip0_204_25612">
<rect x="3.75" y="39" width="138" height="138" rx="69" fill="white"/>
</clipPath>
<clipPath id="clip1_204_25612">
<rect x="94.75" y="39" width="138" height="138" rx="69" fill="white"/>
</clipPath>
</defs>
</svg>
