<svg width="400" height="400" viewBox="0 0 400 400" fill="none" xmlns="http://www.w3.org/2000/svg">
<g clip-path="url(#clip0)">
<path d="M365.518 68.9655C384.562 68.9655 400 53.5271 400 34.4828C400 15.4385 384.562 0 365.518 0C346.473 0 331.035 15.4385 331.035 34.4828C331.035 53.5271 346.473 68.9655 365.518 68.9655Z" fill="#18A0B1"/>
<path d="M100.414 259.173C87.4271 237.126 82.1321 211.39 85.3608 186.008C88.5896 160.625 100.159 137.035 118.252 118.942C136.345 100.849 159.936 89.2793 185.318 86.0505C210.701 82.8218 236.437 88.1168 258.483 101.104L286.069 73.5175L284.69 72.4141C255.019 52.8562 219.485 44.1877 184.141 47.8848C148.796 51.5818 115.826 67.4157 90.8444 92.6903C65.8625 117.965 50.4138 151.117 47.1288 186.503C43.8438 221.888 52.9256 257.317 72.8278 286.759L100.414 259.173Z" fill="#18A0B1"/>
<path d="M299.586 142.344C312.573 164.39 317.868 190.126 314.64 215.509C311.411 240.891 299.841 264.482 281.748 282.575C263.656 300.668 240.065 312.237 214.682 315.466C189.3 318.695 163.564 313.4 141.518 300.413L113.931 327.999C143.477 348.058 179.092 357.189 214.644 353.82C250.196 350.451 283.462 334.792 308.714 309.54C333.966 284.289 349.624 251.023 352.993 215.471C356.362 179.918 347.232 144.304 327.173 114.758L299.586 142.344Z" fill="#18A0B1"/>
<path d="M34.4828 400.001C53.5271 400.001 68.9656 384.562 68.9656 365.518C68.9656 346.474 53.5271 331.035 34.4828 331.035C15.4385 331.035 6.26516e-05 346.474 6.46455e-05 365.518C6.66394e-05 384.562 15.4385 400.001 34.4828 400.001Z" fill="#18A0B1"/>
</g>
<defs>
<clipPath id="clip0">
<rect width="400" height="400" fill="white"/>
</clipPath>
</defs>
</svg>
