<svg width="120" height="120" viewBox="0 0 120 120" fill="none" xmlns="http://www.w3.org/2000/svg">
<g clip-path="url(#clip0)">
<path d="M109.655 20.6897C115.369 20.6897 120 16.0581 120 10.3448C120 4.63154 115.369 0 109.655 0C103.942 0 99.3104 4.63154 99.3104 10.3448C99.3104 16.0581 103.942 20.6897 109.655 20.6897Z" fill="#18A0B1"/>
<path d="M30.1242 77.7518C26.2282 71.1379 24.6397 63.4171 25.6083 55.8023C26.5769 48.1876 30.0478 41.1104 35.4756 35.6825C40.9035 30.2547 47.9807 26.7838 55.5955 25.8152C63.2102 24.8465 70.931 26.435 77.5449 30.3311L85.8208 22.0553L85.407 21.7242C76.5056 15.8569 65.8456 13.2563 55.2423 14.3654C44.639 15.4745 34.7479 20.2247 27.2533 27.8071C19.7588 35.3895 15.1242 45.3352 14.1387 55.9508C13.1532 66.5663 15.8777 77.1952 21.8484 86.0277L30.1242 77.7518Z" fill="#18A0B1"/>
<path d="M89.8759 42.7036C93.772 49.3175 95.3605 57.0383 94.3919 64.6531C93.4233 72.2678 89.9524 79.3451 84.5245 84.7729C79.0967 90.2007 72.0195 93.6716 64.4047 94.6402C56.7899 95.6089 49.0691 94.0204 42.4552 90.1243L34.1794 98.4002C43.0431 104.418 53.7275 107.157 64.3932 106.146C75.0589 105.136 85.0386 100.438 92.6142 92.8625C100.19 85.2869 104.887 75.3073 105.898 64.6416C106.909 53.9759 104.169 43.2915 98.1518 34.4277L89.8759 42.7036Z" fill="#18A0B1"/>
<path d="M10.3448 120C16.0581 120 20.6897 115.369 20.6897 109.655C20.6897 103.942 16.0581 99.3105 10.3448 99.3105C4.63154 99.3105 4.84918e-07 103.942 1.0831e-06 109.655C1.68127e-06 115.369 4.63154 120 10.3448 120Z" fill="#18A0B1"/>
</g>
<defs>
<clipPath id="clip0">
<rect width="120" height="120" fill="white"/>
</clipPath>
</defs>
</svg>
