<svg width="400" height="400" viewBox="0 0 400 400" fill="none" xmlns="http://www.w3.org/2000/svg">
    <g clip-path="url(#clip0)">
        <path d="M200 400C310.457 400 400 310.457 400 200C400 89.543 310.457 0 200 0C89.5431 0 9.37509e-06 89.543 2.09398e-05 200C3.25046e-05 310.457 89.5431 400 200 400Z" fill="#F89022"/>
        <path fill-rule="evenodd" clip-rule="evenodd" d="M350 237.025H320.45L299.488 219.075L278.6 236.95H253.625L241.688 222.45H200.538L210.95 209.588H231.188L215.775 190.737L161.963 256.25H137L152.575 237.225H126.563L112.5 197.8L98.55 236.925H72.1625L50 175.513H70.25L85.15 217.337L100 175.7H125L139.813 217.25L154.613 175.688H174.925L152.575 237.225L157.55 231.15L203.2 175.587H228.325L266.313 221.937L284.588 206.225L226.75 156.25H256.438L350 237.025ZM320.688 199.875L306.75 187.925L320.663 176.075L348.788 176.1L320.688 199.875Z" fill="white"/>
    </g>
    <defs>
        <clipPath id="clip0">
            <rect width="400" height="400" fill="white"/>
        </clipPath>
    </defs>
</svg>
