<svg width="120" height="120" viewBox="0 0 120 120" fill="none" xmlns="http://www.w3.org/2000/svg">
    <g clip-path="url(#clip0)">
        <path d="M60 120C93.1371 120 120 93.1371 120 60C120 26.8629 93.1371 0 60 0C26.8629 0 2.81253e-06 26.8629 6.28195e-06 60C9.75138e-06 93.1371 26.8629 120 60 120Z" fill="#F89022"/>
        <path fill-rule="evenodd" clip-rule="evenodd" d="M105 71.1075H96.135L89.8463 65.7225L83.58 71.085H76.0875L72.5063 66.735H60.1613L63.285 62.8763H69.3563L64.7325 57.2212L48.5888 76.875H41.1L45.7725 71.1675H37.9688L33.75 59.34L29.565 71.0775H21.6488L15 52.6538H21.075L25.545 65.2012L30 52.71H37.5L41.9438 65.175L46.3838 52.7063L52.4775 52.7063L45.7725 71.1675L47.265 69.345L60.96 52.6762H68.4975L79.8938 66.5812L85.3763 61.8675L68.025 46.875H76.9313L105 71.1075ZM96.2063 59.9625L92.025 56.3775L96.1988 52.8225L104.636 52.83L96.2063 59.9625Z" fill="white"/>
    </g>
    <defs>
        <clipPath id="clip0">
            <rect width="120" height="120" fill="white"/>
        </clipPath>
    </defs>
</svg>
