<svg width="63" height="71" viewBox="0 0 63 71" fill="none" xmlns="http://www.w3.org/2000/svg">
    <path d="M46.8605 59.8345H44.673V51.0845C44.6677 51.019 44.6677 50.9532 44.673 50.8877L46.8605 38.9548V29.2095C46.8605 24.2658 40.0574 17.8892 37.4434 15.8549L38.7777 14.1267C39.2043 14.4548 49.048 22.1877 49.048 29.2095V39.0533C49.0534 39.1188 49.0534 39.1846 49.048 39.2501L46.8605 51.183V59.8345Z" fill="#0034A0"/>
    <path d="M32.6426 40.1471H14.0488C13.4687 40.1471 12.9123 39.9166 12.502 39.5064C12.0918 39.0962 11.8613 38.5398 11.8613 37.9596V2.95959C11.8613 2.37943 12.0918 1.82303 12.502 1.4128C12.9123 1.00256 13.4687 0.772095 14.0488 0.772095H37.0176C37.5977 0.772095 38.1541 1.00256 38.5643 1.4128C38.9746 1.82303 39.2051 2.37943 39.2051 2.95959V30.3033H37.0176V2.95959H14.0488V37.9596H32.6426V40.1471Z" fill="#4C9DE8"/>
    <path d="M28.2676 59.8346H26.0801V53.644C25.1285 52.3643 21.7051 47.4205 21.7051 42.3346H23.8926C23.8926 47.3658 27.9832 52.5393 28.027 52.594C28.1813 52.7864 28.2661 53.0254 28.2676 53.2721V59.8346Z" fill="#0034A0"/>
    <path d="M39.2054 49.9909C34.557 49.9909 31.7898 40.0815 31.5492 36.2424L24.1992 28.8924C24.1497 28.8386 24.1057 28.78 24.0679 28.7174C23.1383 27.3284 21.9679 24.1018 24.1992 21.8706C26.4304 19.6393 29.6679 20.7768 31.046 21.7393C31.1086 21.7771 31.1673 21.8211 31.2211 21.8706L41.0648 31.7143L39.5117 33.2674L29.7554 23.5112C29.307 23.2378 27.1305 22.0346 25.7523 23.4237C24.3742 24.8127 25.5664 26.9893 25.8398 27.4268L33.4086 34.9956C33.5099 35.0978 33.5901 35.219 33.6446 35.3522C33.699 35.4855 33.7266 35.6282 33.7257 35.7721C33.7257 39.644 36.7882 47.8034 39.1945 47.8034L39.2054 49.9909Z" fill="#0034A0"/>
    <path d="M20.6113 1.86584H18.4238V39.0533H20.6113V1.86584Z" fill="#4C9DE8"/>
    <path d="M24.9863 5.14709H22.7988V18.2721H24.9863V5.14709Z" fill="#4C9DE8"/>
    <path d="M49.0488 70.7721H46.8613V59.8346H26.0801V70.7721H23.8926V58.7408C23.8926 58.4508 24.0078 58.1726 24.2129 57.9675C24.4181 57.7623 24.6962 57.6471 24.9863 57.6471H47.9551C48.2452 57.6471 48.5233 57.7623 48.7285 57.9675C48.9336 58.1726 49.0488 58.4508 49.0488 58.7408V70.7721Z" fill="#0034A0"/>
    <path d="M30.4551 62.0221H28.2676V64.2096H30.4551V62.0221Z" fill="#0034A0"/>
    <path d="M30.4551 66.3971H28.2676V68.5846H30.4551V66.3971Z" fill="#0034A0"/>
    <path d="M29.3613 5.14709H27.1738V9.52209H29.3613V5.14709Z" fill="#4C9DE8"/>
    <path d="M29.3613 11.7096H27.1738V13.8971H29.3613V11.7096Z" fill="#4C9DE8"/>
    <path d="M21.7051 66.3971H5.29883C4.13851 66.3971 3.0257 65.9362 2.20523 65.1157C1.38476 64.2952 0.923828 63.1824 0.923828 62.0221V9.52209C0.923828 8.36177 1.38476 7.24897 2.20523 6.4285C3.0257 5.60803 4.13851 5.14709 5.29883 5.14709H9.67383V7.33459H5.29883C4.71867 7.33459 4.16227 7.56506 3.75203 7.9753C3.34179 8.38553 3.11133 8.94193 3.11133 9.52209V62.0221C3.11133 62.6023 3.34179 63.1587 3.75203 63.5689C4.16227 63.9791 4.71867 64.2096 5.29883 64.2096H21.7051V66.3971Z" fill="#0034A0"/>
    <path d="M57.7988 66.3971H51.2363V64.2096H57.7988C58.379 64.2096 58.9354 63.9791 59.3456 63.5689C59.7558 63.1587 59.9863 62.6023 59.9863 62.0221V9.52209C59.9863 8.94193 59.7558 8.38553 59.3456 7.9753C58.9354 7.56506 58.379 7.33459 57.7988 7.33459H41.3926V5.14709H57.7988C58.9592 5.14709 60.072 5.60803 60.8924 6.4285C61.7129 7.24897 62.1738 8.36177 62.1738 9.52209V62.0221C62.1738 63.1824 61.7129 64.2952 60.8924 65.1157C60.072 65.9362 58.9592 66.3971 57.7988 66.3971Z" fill="#0034A0"/>
    <path d="M61.0801 9.52209H41.3926V11.7096H61.0801V9.52209Z" fill="#0034A0"/>
    <path d="M21.7051 59.8346H2.01758V62.0221H21.7051V59.8346Z" fill="#0034A0"/>
</svg>
