<svg width="70" height="71" viewBox="0 0 70 71" fill="none" xmlns="http://www.w3.org/2000/svg">
    <g clip-path="url(#clip0)">
        <path d="M33.8715 41.0431V43.3012H30.4844V59.1076H33.8715V61.3657H36.1295V59.1076C38.6202 59.1076 40.6457 57.0822 40.6457 54.5915C40.6457 53.2447 40.053 52.0319 39.1136 51.2044C40.053 50.3769 40.6457 49.1641 40.6457 47.8173C40.6457 45.3266 38.6202 43.3012 36.1295 43.3012V41.0431H33.8715ZM36.1295 56.8495H32.7424V52.3334H36.1295C37.3749 52.3334 38.3876 53.3461 38.3876 54.5915C38.3876 55.8368 37.3749 56.8495 36.1295 56.8495ZM38.3876 47.8173C38.3876 49.0626 37.3749 50.0753 36.1295 50.0753H32.7424V45.5592H36.1295C37.3749 45.5592 38.3876 46.5719 38.3876 47.8173Z" fill="#4C9DE8"/>
        <path d="M70 29.7528C70 19.7927 61.8956 11.6883 51.9355 11.6883C49.5396 11.6883 47.2556 12.1668 45.1613 13.0185V9.43021H42.9032V14.1327C42.1116 14.5919 41.3552 15.1035 40.6452 15.6735V7.17214H38.3871V17.845C37.5276 18.8214 36.7636 19.8815 36.129 21.0276V0.397949H33.871V21.0265C33.2364 19.8804 32.4724 18.8203 31.6129 17.8439V7.17214H29.3548V15.6735C28.6448 15.1035 27.8884 14.5919 27.0968 14.1327V9.43021H24.8387V13.0185C22.7444 12.1668 20.4604 11.6883 18.0645 11.6883C8.10444 11.6883 0 19.7927 0 29.7528C0 33.6658 1.26465 37.2822 3.3871 40.2438V55.7205H5.64516V42.837C6.3497 43.5057 7.09835 44.1276 7.90323 44.6777V60.2367H10.1613V45.9716C10.8895 46.3283 11.6404 46.6442 12.4194 46.9016V65.8818H14.6774V47.4876C15.522 47.6492 16.3903 47.7385 17.2707 47.7765C17.0562 48.8879 16.9355 50.0313 16.9355 51.2044C16.9355 61.1645 25.0399 69.2689 35 69.2689C44.9601 69.2689 53.0645 61.1645 53.0645 51.2044C53.0645 50.0313 52.9438 48.8879 52.7293 47.7765C53.6108 47.7385 54.478 47.6481 55.3226 47.4876V65.8818H57.5806V46.9016C58.3596 46.6442 59.1105 46.3283 59.8387 45.9727V60.2367H62.0968V44.6761C62.9016 44.1265 63.6503 43.5057 64.3548 42.8359V55.7205H66.6129V40.2438C68.7354 37.2822 70 33.6658 70 29.7528ZM18.0645 13.9463C26.0118 13.9463 32.5898 19.8478 33.6901 27.4947H24.1408L22.6595 30.4584L19.1572 22.2878L14.926 32.8665L11.6459 19.7437L7.2053 28.6238H2.3154C2.89811 20.435 9.73019 13.9463 18.0645 13.9463ZM2.3154 30.8818H8.60226L10.9358 26.2135L14.4299 40.1875L19.231 28.1855L22.5029 35.8213L25.5366 29.7528H33.871C33.871 30.9226 33.7354 32.0842 33.4823 33.2165C26.1662 33.8295 20.0833 38.8132 17.8556 45.5493C9.61607 45.4396 2.8937 39.0006 2.3154 30.8818ZM35 67.0109C26.2836 67.0109 19.1935 59.9208 19.1935 51.2044C19.1935 42.488 26.2836 35.398 35 35.398C43.7164 35.398 50.8064 42.488 50.8064 51.2044C50.8064 59.9208 43.7164 67.0109 35 67.0109ZM52.1444 45.5493C49.9167 38.8143 43.8338 33.8295 36.5177 33.2176C36.2646 32.0853 36.129 30.9248 36.129 29.7528C36.129 21.0364 43.2191 13.9463 51.9355 13.9463C60.6519 13.9463 67.7419 21.0364 67.7419 29.7528C67.7419 38.398 60.7632 45.4352 52.1444 45.5493Z" fill="#0034A0"/>
        <path d="M34.999 37.656C31.838 37.656 28.7601 38.7702 26.3301 40.7945L27.7767 42.5288C29.801 40.8435 32.365 39.9141 34.999 39.9141C41.2247 39.9141 46.2894 44.9787 46.2894 51.2044C46.2894 53.8384 45.3599 56.4036 43.6746 58.4268L45.4079 59.8734C47.4333 57.4444 48.5474 54.3666 48.5474 51.2044C48.5474 43.7334 42.4701 37.656 34.999 37.656Z" fill="#4C9DE8"/>
        <path d="M34.9996 62.4947C28.7739 62.4947 23.7092 57.43 23.7092 51.2044C23.7092 48.5703 24.6387 46.0052 26.324 43.982L24.5907 42.5354C22.5653 44.9644 21.4512 48.0422 21.4512 51.2044C21.4512 58.6754 27.5285 64.7528 34.9996 64.7528C38.1606 64.7528 41.2385 63.6386 43.6685 61.6143L42.2219 59.8799C40.1976 61.5652 37.6336 62.4947 34.9996 62.4947Z" fill="#4C9DE8"/>
        <path d="M43.8047 29.7527L51.9361 41.9499L60.0676 29.7527L51.9361 17.5555L43.8047 29.7527ZM50.8071 30.4435L46.9222 29.1485L50.8071 23.3209V30.4435ZM50.8071 32.825V36.1846L47.9272 31.8642L50.8071 32.825ZM53.0652 32.825L55.9451 31.8653L53.0652 36.1846V32.825ZM53.0652 30.4435V23.3192L56.9501 29.1474L53.0652 30.4435Z" fill="#4C9DE8"/>
        <path d="M3.38672 57.9786H5.64478V60.2367H3.38672V57.9786Z" fill="#0034A0"/>
        <path d="M7.90234 62.4948H10.1604V64.7528H7.90234V62.4948Z" fill="#0034A0"/>
        <path d="M12.4199 68.1399H14.678V70.398H12.4199V68.1399Z" fill="#0034A0"/>
        <path d="M64.3555 57.9786H66.6135V60.2367H64.3555V57.9786Z" fill="#0034A0"/>
        <path d="M59.8379 62.4948H62.096V64.7528H59.8379V62.4948Z" fill="#0034A0"/>
        <path d="M55.3223 68.1399H57.5803V70.398H55.3223V68.1399Z" fill="#0034A0"/>
        <path d="M29.3555 2.65601H31.6135V4.91407H29.3555V2.65601Z" fill="#0034A0"/>
        <path d="M38.3867 2.65601H40.6448V4.91407H38.3867V2.65601Z" fill="#0034A0"/>
    </g>
    <defs>
        <clipPath id="clip0">
            <rect width="70" height="70" fill="white" transform="translate(0 0.397949)"/>
        </clipPath>
    </defs>
</svg>
