<svg width="70" height="71" viewBox="0 0 70 71" fill="none" xmlns="http://www.w3.org/2000/svg">
    <g clip-path="url(#clip0)">
        <path d="M67.0504 31.8223C66.9378 26.3669 65.4291 21.0203 62.6791 16.3236C64.9167 5.61976 53.5989 -3.08432 43.8516 1.78298C34.6631 -0.956609 23.98 0.500175 15.5531 7.02407C14.484 7.84382 15.7757 9.43646 16.8005 8.65101C19.3885 6.66667 22.2556 5.12829 25.3221 4.07824C28.5193 2.9835 31.8674 2.44433 35.2762 2.47331C37.4073 2.49189 39.5252 2.73599 41.5893 3.19958C40.784 3.82458 40.0526 4.54019 39.4102 5.33098C23.4647 2.60683 8.28596 14.9372 7.55846 30.9582C6.71779 30.9173 5.85143 30.9758 5.03864 31.1975C5.32169 24.4027 7.91203 17.8176 12.2475 12.9603C13.1302 11.9716 11.6007 10.6065 10.7182 11.5952C5.84651 17.053 3.03039 24.5331 2.96383 32.1642C1.18163 33.396 0.0117188 35.4532 0.0117188 37.7786V47.6836C0.0117188 52.0614 3.7393 54.6057 7.77796 54.504C9.207 58.6331 15.2312 57.7361 15.3337 53.3055V31.8048C15.3795 29.0669 12.4014 27.121 9.91864 28.2525C12.0044 15.1633 24.6281 5.45261 38.1282 7.21937C35.2305 12.1665 36.2032 19.1154 40.3996 23.1031V25.8864C40.5364 26.7107 41.0111 27.0254 41.8236 26.8307L44.3187 25.7765C49.0251 27.9815 55.1569 26.8554 58.7515 23.3309C59.37 24.9292 59.8219 26.5774 60.104 28.2626C57.619 27.113 54.62 29.0528 54.6659 31.8047V53.3054C54.6364 56.2208 57.8889 58.1306 60.4115 56.6944C60.4063 57.6001 60.3897 58.5056 60.3542 59.4022C60.1101 62.339 57.8457 64.8048 54.9579 65.281C54.0403 65.3712 52.9938 65.4061 51.714 65.3878C51.2552 63.7036 49.7123 62.4618 47.8847 62.4618H42.4417C37.1789 62.6791 37.1777 70.1802 42.4417 70.3979H47.8844C49.7242 70.3979 51.2754 69.1395 51.7227 67.4382C52.8794 67.4538 54.1039 67.4944 55.2524 67.31C59.0826 66.6971 62.1422 63.4319 62.4529 59.5459C62.454 59.5323 62.4524 59.5187 62.4529 59.5052C62.5243 57.7215 62.4704 55.92 62.4529 54.152C66.4149 54.3441 69.9877 51.4566 69.9877 47.3317V37.4267C69.9877 35.1077 68.8243 33.0553 67.0504 31.8223ZM2.0618 47.6836V37.7786C2.0618 34.7904 4.69177 32.8461 7.51595 33.0084V52.4539C4.69027 52.6105 2.0618 50.681 2.0618 47.6836ZM11.461 29.9822C12.4661 29.9822 13.2836 30.7999 13.2836 31.8048V53.3055C13.1832 55.7242 9.73783 55.7221 9.63833 53.3055V31.8048C9.63833 30.7998 10.456 29.9822 11.461 29.9822ZM47.8844 68.3479H42.4417C41.3842 68.3479 40.5237 67.4875 40.5237 66.4298C40.5237 65.3721 41.384 64.5118 42.4417 64.5118H47.8844C50.4275 64.6166 50.4295 68.2424 47.8844 68.3479ZM64.9624 30.8461C64.1488 30.6239 63.2815 30.5655 62.44 30.6064C62.2299 27.5031 61.5028 24.4919 60.2739 21.6385C60.8822 20.8335 61.4008 19.9573 61.8148 19.0247C63.6621 22.6972 64.7369 26.7271 64.9624 30.8461ZM49.6981 24.8648C47.9767 24.8648 46.3251 24.4843 44.7892 23.7341C44.5079 23.6036 44.225 23.5959 43.9403 23.7109L42.4497 24.3407V22.6641C42.4497 22.3774 42.3297 22.1037 42.1186 21.9097C34.655 15.0602 39.5569 2.46661 49.6982 2.47221C64.5539 3.08683 64.5504 24.2518 49.6981 24.8648ZM67.9376 47.3317C67.9376 50.3523 65.2707 52.2738 62.4292 52.102C62.4163 51.0004 62.4091 49.8988 62.4111 48.7972C62.4111 47.4719 60.361 47.4719 60.361 48.7972V53.3054C60.361 54.3104 59.5433 55.128 58.5384 55.128C57.5334 55.128 56.7157 54.3104 56.7157 53.3054V31.8048C56.8131 29.3927 60.2588 29.3817 60.361 31.8048V43.3405C60.361 44.6658 62.4111 44.6658 62.4111 43.3405V32.6564C65.2596 32.4952 67.9376 34.38 67.9376 37.4267V47.3317Z" fill="#0034A0"/>
        <path d="M44.324 58.1425C45.1366 58.3373 45.6112 58.0227 45.748 57.1983V53.8514C55.568 44.3036 48.7163 27.4307 34.9985 27.4484C26.5115 27.4482 19.6065 34.3521 19.6065 42.8377C19.4764 53.8475 31.3484 61.5128 41.3192 56.8731L44.324 58.1425ZM40.8472 54.83C32.1794 59.1949 21.5376 52.5532 21.6567 42.8376C21.6566 35.4824 27.6419 29.4983 34.9986 29.4983C47.0822 29.4929 52.9211 44.4971 44.029 52.6564C43.8179 52.8505 43.6979 53.1241 43.6979 53.4108V55.6525L41.6961 54.8068C41.4232 54.6914 41.1135 54.6999 40.8472 54.83Z" fill="#4C9DE8"/>
        <path d="M32.2578 38.1134H37.7412C39.0665 38.1134 39.0665 36.0634 37.7412 36.0634H32.2578C30.9323 36.0634 30.9323 38.1134 32.2578 38.1134Z" fill="#4C9DE8"/>
        <path d="M37.7411 47.562H32.2577C30.9323 47.562 30.9323 49.6121 32.2577 49.6121H37.7411C39.0664 49.6121 39.0664 47.562 37.7411 47.562Z" fill="#4C9DE8"/>
        <path d="M40.6747 41.8125H29.3241C27.9988 41.8125 27.9988 43.8626 29.3241 43.8626H40.6747C42 43.8626 42 41.8125 40.6747 41.8125Z" fill="#4C9DE8"/>
        <path d="M49.7885 5.84576C47.3673 5.79943 45.3203 7.80153 45.3203 10.2232C45.3203 11.5485 47.3704 11.5485 47.3704 10.2232C47.3704 8.96133 48.4813 7.86782 49.7473 7.89543C50.9609 7.91989 51.9609 8.88739 52.0238 10.098C52.0921 11.4142 51.0184 12.5516 49.6987 12.5516C49.1326 12.5516 48.6737 13.0105 48.6737 13.5766V17.083C48.6737 17.6491 49.1326 18.1081 49.6987 18.1081C50.2648 18.1081 50.7238 17.6491 50.7238 17.083V14.4786C52.7486 13.9876 54.1791 12.0738 54.071 9.9917C53.9528 7.71297 52.0716 5.89182 49.7885 5.84576Z" fill="#4C9DE8"/>
        <path d="M49.6972 19.5773C48.3781 19.5773 48.3759 21.6273 49.6972 21.6273C51.0162 21.6273 51.0184 19.5773 49.6972 19.5773Z" fill="#4C9DE8"/>
    </g>
    <defs>
        <clipPath id="clip0">
            <rect width="70" height="70" fill="white" transform="translate(0 0.397949)"/>
        </clipPath>
    </defs>
</svg>
