<svg width="71" height="71" viewBox="0 0 71 71" fill="none" xmlns="http://www.w3.org/2000/svg">
    <path d="M15.4863 35.7721H13.2988V17.1783C13.2988 16.3081 13.6445 15.4735 14.2599 14.8582C14.8752 14.2428 15.7098 13.8971 16.5801 13.8971H28.6113V16.0846H16.5801C16.29 16.0846 16.0118 16.1998 15.8067 16.405C15.6016 16.6101 15.4863 16.8883 15.4863 17.1783V35.7721Z" fill="#0034A0"/>
    <path d="M35.1738 57.6471H16.5801C15.7098 57.6471 14.8752 57.3014 14.2599 56.686C13.6445 56.0707 13.2988 55.2361 13.2988 54.3658V42.3346H15.4863V54.3658C15.4863 54.6559 15.6016 54.9341 15.8067 55.1392C16.0118 55.3443 16.29 55.4596 16.5801 55.4596H35.1738V57.6471Z" fill="#0034A0"/>
    <path d="M53.7676 57.6471H41.7363V55.4596H53.7676C54.0577 55.4596 54.3359 55.3443 54.541 55.1392C54.7461 54.9341 54.8613 54.6559 54.8613 54.3658V35.7721H57.0488V54.3658C57.0488 55.2361 56.7031 56.0707 56.0878 56.686C55.4724 57.3014 54.6378 57.6471 53.7676 57.6471Z" fill="#0034A0"/>
    <path d="M57.0488 29.2096H54.8613V17.1783C54.8613 16.8883 54.7461 16.6101 54.541 16.405C54.3359 16.1998 54.0577 16.0846 53.7676 16.0846H35.1738V13.8971H53.7676C54.6378 13.8971 55.4724 14.2428 56.0878 14.8582C56.7031 15.4735 57.0488 16.3081 57.0488 17.1783V29.2096Z" fill="#0034A0"/>
    <path d="M19.8613 18.2721H17.6738V20.4596H19.8613V18.2721Z" fill="#4C9DE8"/>
    <path d="M52.6738 18.2721H50.4863V20.4596H52.6738V18.2721Z" fill="#4C9DE8"/>
    <path d="M19.8613 51.0846H17.6738V53.2721H19.8613V51.0846Z" fill="#4C9DE8"/>
    <path d="M52.6738 51.0846H50.4863V53.2721H52.6738V51.0846Z" fill="#4C9DE8"/>
    <path d="M35.1738 16.0846C33.8759 16.0846 32.6071 15.6997 31.5279 14.9786C30.4487 14.2575 29.6076 13.2326 29.1109 12.0335C28.6142 10.8343 28.4842 9.51482 28.7374 8.24182C28.9906 6.96882 29.6157 5.79948 30.5334 4.8817C31.4512 3.96392 32.6206 3.33891 33.8936 3.0857C35.1666 2.83248 36.486 2.96244 37.6852 3.45914C38.8843 3.95584 39.9092 4.79695 40.6303 5.87615C41.3514 6.95534 41.7363 8.22415 41.7363 9.52209C41.7363 11.2626 41.0449 12.9318 39.8142 14.1625C38.5835 15.3932 36.9143 16.0846 35.1738 16.0846ZM35.1738 5.14709C34.3085 5.14709 33.4627 5.40369 32.7432 5.88442C32.0237 6.36515 31.463 7.04843 31.1319 7.84785C30.8007 8.64728 30.7141 9.52695 30.8829 10.3756C31.0517 11.2243 31.4684 12.0038 32.0802 12.6157C32.6921 13.2275 33.4716 13.6442 34.3203 13.813C35.169 13.9818 36.0486 13.8952 36.8481 13.5641C37.6475 13.2329 38.3308 12.6722 38.8115 11.9527C39.2922 11.2333 39.5488 10.3874 39.5488 9.52209C39.5488 8.36177 39.0879 7.24897 38.2674 6.42849C37.447 5.60802 36.3342 5.14709 35.1738 5.14709Z" fill="#0034A0"/>
    <path d="M61.4238 42.3346C60.1259 42.3346 58.8571 41.9497 57.7779 41.2286C56.6987 40.5075 55.8576 39.4826 55.3609 38.2835C54.8642 37.0843 54.7342 35.7648 54.9874 34.4918C55.2406 33.2188 55.8657 32.0495 56.7834 31.1317C57.7012 30.2139 58.8706 29.5889 60.1436 29.3357C61.4166 29.0825 62.736 29.2124 63.9352 29.7091C65.1343 30.2058 66.1592 31.0469 66.8803 32.1261C67.6014 33.2053 67.9863 34.4742 67.9863 35.7721C67.9863 37.5126 67.2949 39.1818 66.0642 40.4125C64.8335 41.6432 63.1643 42.3346 61.4238 42.3346ZM61.4238 31.3971C60.5585 31.3971 59.7127 31.6537 58.9932 32.1344C58.2737 32.6152 57.713 33.2984 57.3819 34.0979C57.0507 34.8973 56.9641 35.7769 57.1329 36.6256C57.3017 37.4743 57.7184 38.2538 58.3302 38.8657C58.9421 39.4775 59.7216 39.8942 60.5703 40.063C61.419 40.2318 62.2986 40.1452 63.0981 39.8141C63.8975 39.4829 64.5808 38.9222 65.0615 38.2027C65.5422 37.4833 65.7988 36.6374 65.7988 35.7721C65.7988 34.6118 65.3379 33.499 64.5174 32.6785C63.697 31.858 62.5842 31.3971 61.4238 31.3971Z" fill="#0034A0"/>
    <path d="M35.1738 68.5846C33.8759 68.5846 32.6071 68.1997 31.5279 67.4786C30.4487 66.7575 29.6076 65.7326 29.1109 64.5335C28.6142 63.3343 28.4842 62.0148 28.7374 60.7418C28.9906 59.4688 29.6157 58.2995 30.5334 57.3817C31.4512 56.4639 32.6206 55.8389 33.8936 55.5857C35.1666 55.3325 36.486 55.4624 37.6852 55.9591C38.8843 56.4558 39.9092 57.2969 40.6303 58.3761C41.3514 59.4553 41.7363 60.7242 41.7363 62.0221C41.7363 63.7626 41.0449 65.4318 39.8142 66.6625C38.5835 67.8932 36.9143 68.5846 35.1738 68.5846ZM35.1738 57.6471C34.3085 57.6471 33.4627 57.9037 32.7432 58.3844C32.0237 58.8652 31.463 59.5484 31.1319 60.3479C30.8007 61.1473 30.7141 62.0269 30.8829 62.8756C31.0517 63.7243 31.4684 64.5038 32.0802 65.1157C32.6921 65.7275 33.4716 66.1442 34.3203 66.313C35.169 66.4818 36.0486 66.3952 36.8481 66.0641C37.6475 65.7329 38.3308 65.1722 38.8115 64.4527C39.2922 63.7333 39.5488 62.8874 39.5488 62.0221C39.5488 60.8618 39.0879 59.749 38.2674 58.9285C37.447 58.108 36.3342 57.6471 35.1738 57.6471Z" fill="#0034A0"/>
    <path d="M8.92383 42.3346C7.62589 42.3346 6.3571 41.9497 5.2779 41.2286C4.19871 40.5075 3.35757 39.4826 2.86087 38.2835C2.36417 37.0843 2.23421 35.7648 2.48743 34.4918C2.74064 33.2188 3.36566 32.0495 4.28344 31.1317C5.20122 30.2139 6.37055 29.5889 7.64355 29.3357C8.91655 29.0825 10.236 29.2124 11.4352 29.7091C12.6343 30.2058 13.6592 31.0469 14.3803 32.1261C15.1014 33.2053 15.4863 34.4742 15.4863 35.7721C15.4863 37.5126 14.7949 39.1818 13.5642 40.4125C12.3335 41.6432 10.6643 42.3346 8.92383 42.3346ZM8.92383 31.3971C8.05854 31.3971 7.21267 31.6537 6.49321 32.1344C5.77374 32.6152 5.21299 33.2984 4.88186 34.0979C4.55072 34.8973 4.46409 35.7769 4.6329 36.6256C4.80171 37.4743 5.21838 38.2538 5.83024 38.8657C6.44209 39.4775 7.22164 39.8942 8.07031 40.063C8.91897 40.2318 9.79864 40.1452 10.5981 39.8141C11.3975 39.4829 12.0808 38.9222 12.5615 38.2027C13.0422 37.4833 13.2988 36.6374 13.2988 35.7721C13.2988 34.6118 12.8379 33.499 12.0174 32.6785C11.197 31.858 10.0842 31.3971 8.92383 31.3971Z" fill="#0034A0"/>
    <path d="M35.1738 70.7721C28.2515 70.7721 21.4846 68.7194 15.7289 64.8735C9.97317 61.0277 5.48713 55.5615 2.83806 49.166C0.188993 42.7706 -0.504124 35.7333 0.846359 28.9439C2.19684 22.1546 5.53026 15.9182 10.4251 11.0234C15.3199 6.12854 21.5563 2.79511 28.3457 1.44463C35.135 0.0941431 42.1723 0.78726 48.5678 3.43633C54.9632 6.08539 60.4294 10.5714 64.2753 16.3271C68.1211 22.0829 70.1738 28.8498 70.1738 35.7721C70.1738 45.0547 66.4863 53.9571 59.9226 60.5208C53.3588 67.0846 44.4564 70.7721 35.1738 70.7721ZM35.1738 2.95961C28.6841 2.95961 22.3402 4.88403 16.9442 8.48951C11.5482 12.095 7.34255 17.2196 4.85905 23.2153C2.37555 29.211 1.72575 35.8085 2.99183 42.1735C4.2579 48.5385 7.38299 54.3851 11.9719 58.974C16.5608 63.5629 22.4074 66.688 28.7724 67.9541C35.1374 69.2202 41.7349 68.5704 47.7306 66.0869C53.7263 63.6034 58.8509 59.3977 62.4564 54.0018C66.0619 48.6058 67.9863 42.2618 67.9863 35.7721C67.9863 27.0697 64.5293 18.7237 58.3758 12.5702C52.2222 6.41664 43.8763 2.95961 35.1738 2.95961Z" fill="#0034A0"/>
    <path d="M26.7402 42.0175L20.5059 35.7722L26.7402 29.5269L28.2934 31.08L23.5902 35.7722L28.2934 40.4644L26.7402 42.0175Z" fill="#4C9DE8"/>
    <path d="M43.6059 42.0175L42.0527 40.4644L46.7559 35.7722L42.0527 31.08L43.6059 29.5269L49.8402 35.7722L43.6059 42.0175Z" fill="#4C9DE8"/>
    <path d="M39.6735 25.4293L28.7383 45.1165L30.6506 46.1786L41.5858 26.4915L39.6735 25.4293Z" fill="#4C9DE8"/>
</svg>
