<svg width="71" height="63" viewBox="0 0 71 63" fill="none" xmlns="http://www.w3.org/2000/svg">
    <path d="M64.7051 62.0238H5.64259C5.49865 62.0247 5.35595 61.9971 5.22269 61.9426C5.08943 61.8882 4.96824 61.808 4.86604 61.7066L0.491043 57.3316C0.389673 57.2294 0.309453 57.1082 0.255023 56.975C0.200593 56.8417 0.173014 56.699 0.173846 56.5551V54.3676C0.173846 54.0775 0.289096 53.7993 0.494214 53.5942C0.699332 53.3891 0.977515 53.2738 1.2676 53.2738H27.5176C27.6615 53.273 27.8042 53.3006 27.9375 53.355C28.0707 53.4094 28.1919 53.4896 28.2941 53.591L30.1535 55.4613H40.1941L42.0535 53.591C42.1557 53.4896 42.2769 53.4094 42.4102 53.355C42.5434 53.3006 42.6861 53.273 42.8301 53.2738H69.0801C69.3701 53.2738 69.6483 53.3891 69.8534 53.5942C70.0586 53.7993 70.1738 54.0775 70.1738 54.3676V56.5551C70.1746 56.699 70.1471 56.8417 70.0926 56.975C70.0382 57.1082 69.958 57.2294 69.8566 57.3316L65.4816 61.7066C65.3794 61.808 65.2582 61.8882 65.125 61.9426C64.9917 61.9971 64.849 62.0247 64.7051 62.0238ZM6.09104 59.8363H64.2566L67.9863 56.1066V55.4613H43.2785L41.4191 57.3316C41.3169 57.433 41.1957 57.5132 41.0625 57.5676C40.9292 57.6221 40.7865 57.6497 40.6426 57.6488H29.7051C29.5611 57.6497 29.4184 57.6221 29.2852 57.5676C29.1519 57.5132 29.0307 57.433 28.9285 57.3316L27.0691 55.4613H2.36135V56.1066L6.09104 59.8363Z" fill="#0034A0"/>
    <path d="M6.73633 51.0863H4.54883V18.2738C4.54883 17.1135 5.00976 16.0007 5.83023 15.1802C6.6507 14.3597 7.7635 13.8988 8.92383 13.8988H16.5801V16.0863H8.92383C8.34367 16.0863 7.78726 16.3168 7.37703 16.727C6.96679 17.1372 6.73633 17.6936 6.73633 18.2738V51.0863Z" fill="#0034A0"/>
    <path d="M65.7988 51.0863H63.6113V18.2738C63.6113 17.6936 63.3809 17.1372 62.9706 16.727C62.5604 16.3168 62.004 16.0863 61.4238 16.0863H53.7676V13.8988H61.4238C62.5841 13.8988 63.6969 14.3597 64.5174 15.1802C65.3379 16.0007 65.7988 17.1135 65.7988 18.2738V51.0863Z" fill="#0034A0"/>
    <path d="M31.8926 46.7113H29.7051V48.8988H31.8926V46.7113Z" fill="#0034A0"/>
    <path d="M27.5176 46.7113H25.3301V48.8988H27.5176V46.7113Z" fill="#0034A0"/>
    <path d="M36.2676 46.7113H34.0801V48.8988H36.2676V46.7113Z" fill="#0034A0"/>
    <path d="M40.6426 46.7113H38.4551V48.8988H40.6426V46.7113Z" fill="#0034A0"/>
    <path d="M45.0176 46.7113H42.8301V48.8988H45.0176V46.7113Z" fill="#0034A0"/>
    <path d="M60.3301 48.8988H47.2051V46.7113H59.2363V20.4613H53.7676V18.2738H60.3301C60.6202 18.2738 60.8983 18.389 61.1035 18.5942C61.3086 18.7993 61.4238 19.0775 61.4238 19.3676V47.805C61.4238 48.0951 61.3086 48.3733 61.1035 48.5784C60.8983 48.7836 60.6202 48.8988 60.3301 48.8988Z" fill="#0034A0"/>
    <path d="M23.1426 48.8988H10.0176C9.7275 48.8988 9.44931 48.7836 9.2442 48.5784C9.03908 48.3733 8.92383 48.0951 8.92383 47.805V19.3676C8.92383 19.0775 9.03908 18.7993 9.2442 18.5942C9.44931 18.389 9.7275 18.2738 10.0176 18.2738H16.5801V20.4613H11.1113V46.7113H23.1426V48.8988Z" fill="#0034A0"/>
    <path d="M35.1738 44.5238C34.9459 44.5223 34.7241 44.4496 34.5395 44.316L19.227 33.3785C19.0856 33.2778 18.9702 33.145 18.8903 32.9909C18.8105 32.8369 18.7684 32.666 18.7676 32.4925V1.86754C18.7679 1.69121 18.8108 1.51755 18.8927 1.36139C18.9746 1.20522 19.093 1.07117 19.2379 0.970657C19.3825 0.869112 19.5496 0.804141 19.7249 0.781283C19.9001 0.758425 20.0783 0.778366 20.2441 0.839412L28.3379 3.88003L31.116 1.09097C31.2182 0.989599 31.3394 0.909413 31.4727 0.854983C31.6059 0.800553 31.7486 0.772957 31.8926 0.77379H38.4551C38.599 0.772957 38.7417 0.800553 38.875 0.854983C39.0082 0.909413 39.1294 0.989599 39.2316 1.09097L42.0098 3.88003L50.1035 0.839412C50.2693 0.778366 50.4475 0.758425 50.6228 0.781283C50.798 0.804141 50.9651 0.869112 51.1098 0.970657C51.2546 1.07117 51.3731 1.20522 51.455 1.36139C51.5369 1.51755 51.5798 1.69121 51.5801 1.86754V32.4925C51.5793 32.666 51.5372 32.8369 51.4573 32.9909C51.3774 33.145 51.262 33.2778 51.1207 33.3785L35.8082 44.316C35.6235 44.4496 35.4018 44.5223 35.1738 44.5238ZM20.9551 31.9347L35.1738 42.0847L49.3926 31.9347V3.44254L42.1191 6.17692C41.9222 6.25095 41.708 6.2666 41.5024 6.22198C41.2967 6.17736 41.1083 6.07437 40.9598 5.92536L38.0066 2.96129H32.341L29.3879 5.92536C29.2393 6.07437 29.0509 6.17736 28.8453 6.22198C28.6396 6.2666 28.4255 6.25095 28.2285 6.17692L20.9551 3.44254V31.9347Z" fill="#4C9DE8"/>
    <path d="M29.7051 5.1488H27.5176V9.5238H29.7051V5.1488Z" fill="#4C9DE8"/>
    <path d="M42.8301 5.1488H40.6426V9.5238H42.8301V5.1488Z" fill="#4C9DE8"/>
    <path d="M34.0793 25.93C33.9353 25.9308 33.7926 25.9032 33.6594 25.8488C33.5261 25.7944 33.4049 25.7142 33.3027 25.6128L30.0215 22.3316L31.5746 20.7784L34.0793 23.2941L38.7715 18.5909L40.3246 20.1441L34.8558 25.6128C34.7536 25.7142 34.6324 25.7944 34.4992 25.8488C34.3659 25.9032 34.2232 25.9308 34.0793 25.93Z" fill="#4C9DE8"/>
    <path d="M35.1738 31.3988C33.2269 31.3988 31.3237 30.8215 29.7049 29.7398C28.0861 28.6582 26.8244 27.1208 26.0794 25.3221C25.3343 23.5234 25.1394 21.5441 25.5192 19.6346C25.8991 17.7251 26.8366 15.9711 28.2132 14.5945C29.5899 13.2178 31.3439 12.2803 33.2534 11.9005C35.1629 11.5206 37.1421 11.7156 38.9409 12.4606C40.7396 13.2057 42.2769 14.4674 43.3586 16.0862C44.4402 17.705 45.0176 19.6081 45.0176 21.5551C45.0176 24.1658 43.9804 26.6696 42.1344 28.5156C40.2883 30.3617 37.7845 31.3988 35.1738 31.3988ZM35.1738 13.8988C33.6596 13.8988 32.1793 14.3478 30.9203 15.1891C29.6612 16.0304 28.6798 17.2261 28.1004 18.6251C27.5209 20.0241 27.3693 21.5635 27.6647 23.0487C27.9601 24.5339 28.6893 25.8981 29.76 26.9688C30.8308 28.0396 32.195 28.7688 33.6802 29.0642C35.1653 29.3596 36.7047 29.208 38.1037 28.6285C39.5027 28.049 40.6985 27.0677 41.5397 25.8086C42.381 24.5496 42.8301 23.0693 42.8301 21.5551C42.8301 19.5245 42.0234 17.5771 40.5876 16.1413C39.1518 14.7054 37.2044 13.8988 35.1738 13.8988Z" fill="#4C9DE8"/>
</svg>
