<svg width="94" height="44" viewBox="0 0 94 44" fill="none" xmlns="http://www.w3.org/2000/svg">
    <path d="M25.1644 8.12378L34.6112 8.12378L34.6112 9.88241L30.8916 9.88241L30.8916 19.7961L28.8528 19.7961L28.8528 9.88241L25.1488 9.88241L25.1644 8.12378ZM34.2065 11.3453L35.9496 11.3453L35.9496 12.9795L35.9807 12.9795C36.043 12.746 36.1519 12.5281 36.3076 12.3103C36.4632 12.0924 36.6499 11.8901 36.8834 11.7189C37.1013 11.5321 37.3503 11.392 37.6304 11.2831C37.895 11.1741 38.1751 11.1119 38.4553 11.1119C38.6732 11.1119 38.8288 11.1275 38.9066 11.1275C38.9844 11.143 39.0778 11.1586 39.1556 11.1586L39.1556 12.9483C39.0311 12.9172 38.891 12.9017 38.751 12.8861C38.6109 12.8705 38.4864 12.855 38.3463 12.855C38.0351 12.855 37.7394 12.9172 37.4592 13.0417C37.1791 13.1662 36.9456 13.353 36.7278 13.5864C36.5254 13.8354 36.3542 14.1311 36.2297 14.4891C36.1052 14.847 36.043 15.2673 36.043 15.7341L36.043 19.7494L34.1754 19.7494L34.2065 11.3453ZM47.7153 19.7961L45.8789 19.7961L45.8789 18.6133L45.8478 18.6133C45.6143 19.0491 45.2719 19.3759 44.8206 19.6405C44.3693 19.9051 43.9024 20.0296 43.4355 20.0296C42.3305 20.0296 41.5212 19.765 41.0232 19.2047C40.5252 18.66 40.2762 17.8196 40.2762 16.7146L40.2762 11.3453L42.1437 11.3453L42.1437 16.5279C42.1437 17.2749 42.2838 17.804 42.5795 18.0997C42.8596 18.411 43.2643 18.5666 43.7779 18.5666C44.1669 18.5666 44.4938 18.5044 44.7583 18.3799C45.0229 18.2554 45.2408 18.0997 45.3964 17.8974C45.5676 17.6951 45.6766 17.4461 45.7544 17.1659C45.8322 16.8858 45.8633 16.5746 45.8633 16.2477L45.8633 11.3453L47.7309 11.3453L47.7309 19.7961L47.7153 19.7961ZM50.8902 17.0881C50.9525 17.6328 51.1548 18.0064 51.5127 18.2398C51.8707 18.4577 52.3064 18.5666 52.8045 18.5666C52.9757 18.5666 53.178 18.5511 53.3959 18.5199C53.6137 18.4888 53.8316 18.4421 54.0184 18.3643C54.2207 18.2865 54.3763 18.1776 54.5008 18.0219C54.6254 17.8663 54.6876 17.6795 54.672 17.4461C54.6565 17.2126 54.5787 17.0103 54.4075 16.8547C54.2363 16.6991 54.034 16.5901 53.7849 16.4812C53.5359 16.3878 53.2402 16.31 52.9134 16.2477C52.5866 16.1855 52.2598 16.1077 51.9174 16.0298C51.575 15.952 51.2326 15.8587 50.9058 15.7497C50.5789 15.6408 50.2988 15.5007 50.0342 15.2984C49.7852 15.1116 49.5673 14.8782 49.4273 14.5825C49.2716 14.2868 49.1938 13.9444 49.1938 13.5086C49.1938 13.0417 49.3028 12.6682 49.5362 12.3569C49.7541 12.0457 50.0498 11.7967 50.3922 11.6099C50.7346 11.4232 51.1236 11.2831 51.5439 11.2053C51.9641 11.1275 52.3687 11.0963 52.7422 11.0963C53.178 11.0963 53.5982 11.143 53.9873 11.2364C54.3763 11.3298 54.7499 11.4699 55.0611 11.6877C55.3879 11.8901 55.6525 12.1702 55.8548 12.497C56.0727 12.8238 56.1972 13.2285 56.2595 13.6954L54.3141 13.6954C54.2207 13.244 54.0184 12.9483 53.7071 12.7927C53.3803 12.6371 53.0223 12.5593 52.6021 12.5593C52.4776 12.5593 52.3064 12.5748 52.1352 12.5904C51.9485 12.6215 51.7929 12.6526 51.6217 12.7149C51.466 12.7772 51.326 12.8705 51.217 12.9795C51.1081 13.0884 51.0458 13.244 51.0458 13.4308C51.0458 13.6642 51.1236 13.8354 51.2793 13.9755C51.4349 14.1156 51.6372 14.2245 51.9018 14.3335C52.1508 14.4268 52.4465 14.5047 52.7733 14.5669C53.1002 14.6292 53.4426 14.707 53.7849 14.7848C54.1273 14.8626 54.4542 14.956 54.781 15.0649C55.1078 15.1739 55.4035 15.3139 55.6525 15.5163C55.9015 15.703 56.1194 15.9365 56.275 16.2166C56.4307 16.4967 56.5085 16.8547 56.5085 17.2593C56.5085 17.7574 56.3995 18.1776 56.1661 18.5355C55.9326 18.8779 55.637 19.1736 55.279 19.3915C54.9211 19.6094 54.5008 19.765 54.0651 19.8739C53.6137 19.9673 53.178 20.0296 52.7422 20.0296C52.2131 20.0296 51.715 19.9673 51.2637 19.8428C50.8124 19.7183 50.4077 19.5315 50.0809 19.2981C49.7541 19.0491 49.4895 18.7534 49.3028 18.3799C49.116 18.0219 49.0071 17.5862 48.9915 17.0726L50.8746 17.0726L50.8746 17.0881L50.8902 17.0881ZM57.0376 11.3453L58.4539 11.3453L58.4539 8.79299L60.3215 8.79299L60.3215 11.3298L62.0023 11.3298L62.0023 12.7149L60.3215 12.7149L60.3215 17.2282C60.3215 17.4305 60.337 17.5862 60.3526 17.7418C60.3681 17.8819 60.4148 18.0064 60.4615 18.0997C60.5238 18.1931 60.6172 18.2709 60.7261 18.3176C60.8506 18.3643 61.0062 18.3954 61.2241 18.3954C61.3486 18.3954 61.4887 18.3954 61.6132 18.3799C61.7377 18.3643 61.8778 18.3488 62.0023 18.3176L62.0023 19.765C61.7999 19.7961 61.5976 19.8117 61.3953 19.8272C61.193 19.8584 61.0062 19.8584 60.7883 19.8584C60.2903 19.8584 59.9012 19.8117 59.6055 19.7183C59.3098 19.6249 59.0764 19.4849 58.9052 19.3137C58.734 19.1269 58.6251 18.909 58.5628 18.6444C58.5006 18.3799 58.4694 18.053 58.4539 17.7107L58.4539 12.7305L57.0376 12.7305L57.0376 11.3142L57.0376 11.3453ZM63.3096 11.3453L65.0682 11.3453L65.0682 12.497L65.0993 12.497C65.3639 11.999 65.7219 11.6566 66.1887 11.4387C66.6556 11.2208 67.1537 11.1119 67.7139 11.1119C68.3831 11.1119 68.959 11.2208 69.457 11.4699C69.955 11.7033 70.3597 12.0146 70.6865 12.4348C71.0133 12.8394 71.2623 13.3219 71.418 13.8666C71.5736 14.4113 71.667 15.0027 71.667 15.6096C71.667 16.1855 71.5891 16.7302 71.4491 17.2593C71.2934 17.7885 71.0756 18.2709 70.7799 18.6756C70.4842 19.0802 70.1107 19.407 69.6438 19.6561C69.1769 19.9051 68.6477 20.0296 68.0252 20.0296C67.7606 20.0296 67.4805 19.9984 67.2159 19.9518C66.9513 19.9051 66.6868 19.8272 66.4378 19.7183C66.1887 19.6094 65.9553 19.4693 65.753 19.2981C65.5351 19.1269 65.3639 18.9246 65.2238 18.7067L65.1927 18.7067L65.1927 22.9243L63.3251 22.9243L63.3251 11.3453L63.3096 11.3453ZM69.8305 15.5785C69.8305 15.205 69.7838 14.8315 69.6749 14.4735C69.5815 14.1156 69.4259 13.8043 69.2236 13.5242C69.0212 13.244 68.7722 13.0262 68.4921 12.855C68.1964 12.6838 67.854 12.606 67.4805 12.606C66.7023 12.606 66.1109 12.8705 65.7063 13.4152C65.3172 13.96 65.1149 14.6914 65.1149 15.5941C65.1149 16.0298 65.1616 16.4189 65.2705 16.7769C65.3795 17.1348 65.5195 17.4461 65.7374 17.7107C65.9397 17.9752 66.1887 18.1776 66.4844 18.3332C66.7801 18.4888 67.107 18.5666 67.4961 18.5666C67.9318 18.5666 68.2742 18.4733 68.5699 18.3021C68.8656 18.1309 69.099 17.8974 69.3014 17.6328C69.4881 17.3527 69.6282 17.0415 69.706 16.6835C69.7838 16.31 69.8305 15.952 69.8305 15.5785ZM73.1143 8.12378L74.9819 8.12378L74.9819 9.88241L73.1143 9.88241L73.1143 8.12378ZM73.1143 11.3453L74.9819 11.3453L74.9819 19.7961L73.1143 19.7961L73.1143 11.3453ZM76.6472 8.12378L78.5147 8.12378L78.5147 19.7961L76.6472 19.7961L76.6472 8.12378ZM84.2108 20.0296C83.5416 20.0296 82.9347 19.9206 82.4055 19.6872C81.8764 19.4537 81.4406 19.158 81.0671 18.769C80.7091 18.3799 80.429 17.8974 80.2422 17.3527C80.0555 16.808 79.9465 16.201 79.9465 15.563C79.9465 14.9249 80.0399 14.3335 80.2422 13.7888C80.429 13.244 80.7091 12.7772 81.0671 12.3725C81.425 11.9834 81.8764 11.6722 82.4055 11.4543C82.9347 11.2364 83.5416 11.1119 84.2108 11.1119C84.88 11.1119 85.487 11.2208 86.0162 11.4543C86.5453 11.6722 86.9811 11.9834 87.3546 12.3725C87.7125 12.7616 87.9927 13.2441 88.1794 13.7888C88.3662 14.3335 88.4751 14.9249 88.4751 15.563C88.4751 16.2166 88.3817 16.808 88.1794 17.3527C87.9771 17.8974 87.7125 18.3643 87.3546 18.769C86.9966 19.158 86.5453 19.4693 86.0162 19.6872C85.487 19.9051 84.8956 20.0296 84.2108 20.0296ZM84.2108 18.5511C84.6155 18.5511 84.989 18.4577 85.2847 18.2865C85.596 18.1153 85.8294 17.8819 86.0317 17.6017C86.234 17.3216 86.3741 16.9948 86.4675 16.6524C86.5609 16.2944 86.6076 15.9365 86.6076 15.563C86.6076 15.205 86.5609 14.8471 86.4675 14.4891C86.3741 14.1311 86.234 13.8199 86.0317 13.5397C85.8294 13.2596 85.5804 13.0417 85.2847 12.8705C84.9734 12.6993 84.6155 12.606 84.2108 12.606C83.8062 12.606 83.4327 12.6993 83.137 12.8705C82.8257 13.0417 82.5923 13.2752 82.39 13.5397C82.1876 13.8199 82.0476 14.1311 81.9542 14.4891C81.8608 14.8471 81.8141 15.205 81.8141 15.563C81.8141 15.9365 81.8608 16.2944 81.9542 16.6524C82.0476 17.0103 82.1876 17.3216 82.39 17.6017C82.5923 17.8819 82.8413 18.1153 83.137 18.2865C83.4482 18.4733 83.8062 18.5511 84.2108 18.5511ZM89.0354 11.3453L90.4517 11.3453L90.4517 8.793L92.3192 8.793L92.3192 11.3298L94 11.3298L94 12.7149L92.3192 12.7149L92.3192 17.2282C92.3192 17.4305 92.3348 17.5862 92.3503 17.7418C92.3659 17.8819 92.4126 18.0064 92.4593 18.0997C92.5215 18.1931 92.6149 18.2709 92.7239 18.3176C92.8484 18.3643 93.004 18.3954 93.2219 18.3954C93.3464 18.3954 93.4865 18.3954 93.611 18.3799C93.7355 18.3643 93.8755 18.3488 94 18.3176L94 19.765C93.7977 19.7961 93.5954 19.8117 93.3931 19.8272C93.1907 19.8584 93.004 19.8584 92.7861 19.8584C92.2881 19.8584 91.899 19.8117 91.6033 19.7183C91.3076 19.6249 91.0742 19.4849 90.903 19.3137C90.7318 19.1269 90.6228 18.909 90.5606 18.6445C90.4983 18.3799 90.4672 18.0531 90.4517 17.7107L90.4517 12.7305L89.0354 12.7305L89.0354 11.3142L89.0354 11.3453Z"
          fill="white"/>
    <path d="M22.9855 8.12395L14.4414 8.12395L11.8112 9.78251e-07L9.16549 8.12395L0.621337 8.10839L7.53136 13.1353L4.88563 21.2592L11.7957 16.2323L18.7057 21.2592L16.0755 13.1353L22.9855 8.12395Z"
          fill="#00B67A"/>
    <path d="M16.6667 14.9719L16.0753 13.1355L11.811 16.2326L16.6667 14.9719Z" fill="#005128"/>
    <path d="M0.622681 26.4917H18.1308V43.9998H0.622681V26.4917ZM19.5898 26.4917H37.0979V43.9998H19.5898V26.4917ZM38.5569 26.4917H56.065V43.9998H38.5569V26.4917ZM57.524 26.4917H75.0321V43.9998H57.524V26.4917ZM76.4911 26.4917H93.9993V43.9998H76.4911V26.4917Z"
          fill="#00B67A"/>
    <path d="M9.37649 38.2915L12.0392 37.6167L13.1517 41.0454L9.37649 38.2915ZM15.5043 33.8598H10.8173L9.37649 29.4463L7.93572 33.8598H3.24866L7.04208 36.5954L5.60131 41.0089L9.39473 38.2733L11.7291 36.5954L15.5043 33.8598ZM28.3436 38.2915L31.0063 37.6167L32.1188 41.0454L28.3436 38.2915ZM34.4715 33.8598H29.7844L28.3436 29.4463L26.9028 33.8598H22.2158L26.0092 36.5954L24.5684 41.0089L28.3619 38.2733L30.6963 36.5954L34.4715 33.8598ZM47.3107 38.2915L49.9734 37.6167L51.0859 41.0454L47.3107 38.2915ZM53.4386 33.8598H48.7515L47.3107 29.4463L45.87 33.8598H41.1829L44.9763 36.5954L43.5355 41.0089L47.329 38.2733L49.6634 36.5954L53.4386 33.8598ZM66.2779 38.2915L68.9405 37.6167L70.053 41.0454L66.2779 38.2915ZM72.4057 33.8598H67.7186L66.2779 29.4463L64.8371 33.8598H60.15L63.9434 36.5954L62.5027 41.0089L66.2961 38.2733L68.6305 36.5954L72.4057 33.8598ZM85.245 38.2915L87.9077 37.6167L89.0202 41.0454L85.245 38.2915ZM91.3728 33.8598H86.6857L85.245 29.4463L83.8042 33.8598H79.1171L82.9106 36.5954L81.4698 41.0089L85.2632 38.2733L87.5976 36.5954L91.3728 33.8598Z"
          fill="white"/>
</svg>
