<svg width="70" height="70" viewBox="0 0 70 70" fill="none" xmlns="http://www.w3.org/2000/svg">
<g clip-path="url(#clip0_3751_58472)">
<path d="M33.871 40.6445V42.9026H30.4839V58.709H33.871V60.9671H36.129V58.709C38.6198 58.709 40.6452 56.6836 40.6452 54.1929C40.6452 52.8461 40.0525 51.6333 39.1132 50.8058C40.0525 49.9783 40.6452 48.7655 40.6452 47.4187C40.6452 44.928 38.6198 42.9026 36.129 42.9026V40.6445H33.871ZM36.129 56.451H32.742V51.9349H36.129C37.3744 51.9349 38.3871 52.9476 38.3871 54.1929C38.3871 55.4383 37.3744 56.451 36.129 56.451ZM38.3871 47.4187C38.3871 48.6641 37.3744 49.6768 36.129 49.6768H32.742V45.1607H36.129C37.3744 45.1607 38.3871 46.1734 38.3871 47.4187Z" fill="#4C9DE8"/>
<path d="M70 29.3548C70 19.3948 61.8956 11.2903 51.9355 11.2903C49.5396 11.2903 47.2556 11.7688 45.1613 12.6206V9.03226H42.9032V13.7347C42.1116 14.1939 41.3552 14.7055 40.6452 15.2756V6.77419H38.3871V17.4471C37.5276 18.4234 36.7636 19.4835 36.129 20.6296V0H33.871V20.6285C33.2364 19.4824 32.4724 18.4223 31.6129 17.446V6.77419H29.3548V15.2756C28.6448 14.7055 27.8884 14.1939 27.0968 13.7347V9.03226H24.8387V12.6206C22.7444 11.7688 20.4604 11.2903 18.0645 11.2903C8.10444 11.2903 0 19.3948 0 29.3548C0 33.2679 1.26465 36.8843 3.3871 39.8458V55.3226H5.64516V42.439C6.3497 43.1078 7.09835 43.7296 7.90323 44.2798V59.8387H10.1613V45.5737C10.8895 45.9303 11.6404 46.2462 12.4194 46.5037V65.4839H14.6774V47.0897C15.522 47.2512 16.3903 47.3405 17.2707 47.3786C17.0562 48.49 16.9355 49.6333 16.9355 50.8065C16.9355 60.7665 25.0399 68.871 35 68.871C44.9601 68.871 53.0645 60.7665 53.0645 50.8065C53.0645 49.6333 52.9438 48.49 52.7293 47.3786C53.6108 47.3405 54.478 47.2501 55.3226 47.0897V65.4839H57.5806V46.5037C58.3596 46.2462 59.1105 45.9303 59.8387 45.5748V59.8387H62.0968V44.2781C62.9016 43.7285 63.6503 43.1078 64.3548 42.4379V55.3226H66.6129V39.8458C68.7354 36.8843 70 33.2679 70 29.3548ZM18.0645 13.5484C26.0118 13.5484 32.5898 19.4499 33.6901 27.0968H24.1408L22.6595 30.0605L19.1572 21.8899L14.926 32.4685L11.6459 19.3457L7.2053 28.2258H2.3154C2.89811 20.037 9.73019 13.5484 18.0645 13.5484ZM2.3154 30.4839H8.60226L10.9358 25.8156L14.4299 39.7896L19.231 27.7875L22.5029 35.4234L25.5366 29.3548H33.871C33.871 30.5247 33.7354 31.6862 33.4823 32.8186C26.1662 33.4316 20.0833 38.4152 17.8556 45.1514C9.61607 45.0417 2.8937 38.6027 2.3154 30.4839ZM35 66.6129C26.2836 66.6129 19.1935 59.5228 19.1935 50.8065C19.1935 42.0901 26.2836 35 35 35C43.7164 35 50.8064 42.0901 50.8064 50.8065C50.8064 59.5228 43.7164 66.6129 35 66.6129ZM52.1444 45.1514C49.9167 38.4163 43.8338 33.4316 36.5177 32.8197C36.2646 31.6873 36.129 30.5269 36.129 29.3548C36.129 20.6385 43.2191 13.5484 51.9355 13.5484C60.6519 13.5484 67.7419 20.6385 67.7419 29.3548C67.7419 38.0001 60.7632 45.0373 52.1444 45.1514Z" fill="#0034A0"/>
<path d="M35 37.2578C31.8389 37.2578 28.7611 38.372 26.3311 40.3963L27.7776 42.1306C29.8019 40.4453 32.366 39.5159 35 39.5159C41.2257 39.5159 46.2903 44.5805 46.2903 50.8062C46.2903 53.4402 45.3609 56.0054 43.6756 58.0286L45.4088 59.4752C47.4343 57.0462 48.5484 53.9684 48.5484 50.8062C48.5484 43.3352 42.471 37.2578 35 37.2578Z" fill="#4C9DE8"/>
<path d="M35 62.096C28.7743 62.096 23.7097 57.0313 23.7097 50.8057C23.7097 48.1716 24.6391 45.6065 26.3244 43.5833L24.5912 42.1367C22.5657 44.5657 21.4516 47.6435 21.4516 50.8057C21.4516 58.2767 27.529 64.3541 35 64.3541C38.1611 64.3541 41.2389 63.2399 43.6689 61.2156L42.2224 59.4813C40.1981 61.1665 37.634 62.096 35 62.096Z" fill="#4C9DE8"/>
<path d="M43.804 29.3554L51.9355 41.5526L60.0669 29.3554L51.9355 17.1582L43.804 29.3554ZM50.8064 30.0462L46.9215 28.7512L50.8064 22.9235V30.0462ZM50.8064 32.4277V35.7872L47.9265 31.4668L50.8064 32.4277ZM53.0645 32.4277L55.9444 31.4679L53.0645 35.7872V32.4277ZM53.0645 30.0462V22.9219L56.9494 28.7501L53.0645 30.0462Z" fill="#4C9DE8"/>
<path d="M3.38708 57.5801H5.64515V59.8381H3.38708V57.5801Z" fill="#0034A0"/>
<path d="M7.9032 62.0977H10.1613V64.3557H7.9032V62.0977Z" fill="#0034A0"/>
<path d="M12.4194 67.7422H14.6774V70.0003H12.4194V67.7422Z" fill="#0034A0"/>
<path d="M64.3549 57.5801H66.6129V59.8381H64.3549V57.5801Z" fill="#0034A0"/>
<path d="M59.8387 62.0977H62.0967V64.3557H59.8387V62.0977Z" fill="#0034A0"/>
<path d="M55.3226 67.7422H57.5806V70.0003H55.3226V67.7422Z" fill="#0034A0"/>
<path d="M29.3549 2.25781H31.6129V4.51588H29.3549V2.25781Z" fill="#0034A0"/>
<path d="M38.3871 2.25781H40.6451V4.51588H38.3871V2.25781Z" fill="#0034A0"/>
</g>
<defs>
<clipPath id="clip0_3751_58472">
<rect width="70" height="70" fill="white"/>
</clipPath>
</defs>
</svg>
