<svg width="71" height="70" viewBox="0 0 71 70" fill="none" xmlns="http://www.w3.org/2000/svg">
<path d="M53.0002 59.0633H50.5002V50.3133C50.494 50.2478 50.494 50.1819 50.5002 50.1164L53.0002 38.1836V28.4383C53.0002 23.4945 45.2252 17.118 42.2377 15.0836L43.7626 13.3555C44.2501 13.6836 55.5002 21.4164 55.5002 28.4383V38.282C55.5063 38.3476 55.5063 38.4134 55.5002 38.4789L53.0002 50.4117V59.0633Z" fill="#0034A0"/>
<path d="M36.75 39.375H15.5C14.837 39.375 14.2011 39.1445 13.7322 38.7343C13.2634 38.3241 13 37.7677 13 37.1875V2.1875C13 1.60734 13.2634 1.05094 13.7322 0.640702C14.2011 0.230466 14.837 0 15.5 0H41.75C42.413 0 43.0489 0.230466 43.5177 0.640702C43.9866 1.05094 44.25 1.60734 44.25 2.1875V29.5312H41.75V2.1875H15.5V37.1875H36.75V39.375Z" fill="#4C9DE8"/>
<path d="M31.75 59.0625H29.25V52.8719C28.1625 51.5922 24.25 46.6484 24.25 41.5625H26.75C26.75 46.5938 31.425 51.7672 31.475 51.8219C31.6514 52.0143 31.7484 52.2533 31.75 52.5V59.0625Z" fill="#0034A0"/>
<path d="M44.2501 49.2184C38.9376 49.2184 35.7751 39.309 35.5001 35.47L27.1001 28.12C27.0435 28.0662 26.9932 28.0075 26.9501 27.945C25.8876 26.5559 24.5501 23.3294 27.1001 21.0981C29.6501 18.8669 33.35 20.0044 34.925 20.9669C34.9965 21.0047 35.0636 21.0486 35.1251 21.0981L46.3751 30.9419L44.6001 32.495L33.45 22.7387C32.9375 22.4653 30.4501 21.2621 28.8751 22.6512C27.3001 24.0403 28.6626 26.2168 28.9751 26.6543L37.6251 34.2231C37.7409 34.3253 37.8326 34.4465 37.8948 34.5798C37.957 34.713 37.9885 34.8557 37.9875 34.9997C37.9875 38.8715 41.4875 47.0309 44.2375 47.0309L44.2501 49.2184Z" fill="#0034A0"/>
<path d="M23 1.09375H20.5V38.2812H23V1.09375Z" fill="#4C9DE8"/>
<path d="M28 4.375H25.5V17.5H28V4.375Z" fill="#4C9DE8"/>
<path d="M55.5 70H53V59.0625H29.25V70H26.75V57.9688C26.75 57.6787 26.8817 57.4005 27.1161 57.1954C27.3506 56.9902 27.6685 56.875 28 56.875H54.25C54.5815 56.875 54.8994 56.9902 55.1339 57.1954C55.3683 57.4005 55.5 57.6787 55.5 57.9688V70Z" fill="#0034A0"/>
<path d="M34.25 61.25H31.75V63.4375H34.25V61.25Z" fill="#0034A0"/>
<path d="M34.25 65.625H31.75V67.8125H34.25V65.625Z" fill="#0034A0"/>
<path d="M33 4.375H30.5V8.75H33V4.375Z" fill="#4C9DE8"/>
<path d="M33 10.9375H30.5V13.125H33V10.9375Z" fill="#4C9DE8"/>
<path d="M24.25 65.625H5.5C4.17392 65.625 2.90214 65.1641 1.96446 64.3436C1.02678 63.5231 0.5 62.4103 0.5 61.25V8.75C0.5 7.58968 1.02678 6.47688 1.96446 5.6564C2.90214 4.83593 4.17392 4.375 5.5 4.375H10.5V6.5625H5.5C4.83696 6.5625 4.20107 6.79297 3.73223 7.2032C3.26339 7.61344 3 8.16984 3 8.75V61.25C3 61.8302 3.26339 62.3866 3.73223 62.7968C4.20107 63.207 4.83696 63.4375 5.5 63.4375H24.25V65.625Z" fill="#0034A0"/>
<path d="M65.5 65.625H58V63.4375H65.5C66.163 63.4375 66.7989 63.207 67.2677 62.7968C67.7366 62.3866 68 61.8302 68 61.25V8.75C68 8.16984 67.7366 7.61344 67.2677 7.2032C66.7989 6.79297 66.163 6.5625 65.5 6.5625H46.75V4.375H65.5C66.8261 4.375 68.0979 4.83593 69.0355 5.6564C69.9732 6.47688 70.5 7.58968 70.5 8.75V61.25C70.5 62.4103 69.9732 63.5231 69.0355 64.3436C68.0979 65.1641 66.8261 65.625 65.5 65.625Z" fill="#0034A0"/>
<path d="M69.25 8.75H46.75V10.9375H69.25V8.75Z" fill="#0034A0"/>
<path d="M24.25 59.0625H1.75V61.25H24.25V59.0625Z" fill="#0034A0"/>
</svg>
