<svg width="71" height="62" viewBox="0 0 71 62" fill="none" xmlns="http://www.w3.org/2000/svg">
<path d="M65.0312 61.252H5.96877C5.82482 61.2528 5.68212 61.2252 5.54886 61.1708C5.4156 61.1163 5.29441 61.0362 5.19221 60.9348L0.817215 56.5598C0.715845 56.4576 0.635625 56.3364 0.581195 56.2031C0.526765 56.0699 0.499186 55.9272 0.500018 55.7832V53.5957C0.500018 53.3056 0.615268 53.0274 0.820386 52.8223C1.0255 52.6172 1.30369 52.502 1.59377 52.502H27.8438C27.9877 52.5011 28.1304 52.5287 28.2637 52.5832C28.3969 52.6376 28.5181 52.7178 28.6203 52.8192L30.4797 54.6895H40.5203L42.3797 52.8192C42.4819 52.7178 42.6031 52.6376 42.7363 52.5832C42.8696 52.5287 43.0123 52.5011 43.1562 52.502H69.4062C69.6963 52.502 69.9745 52.6172 70.1796 52.8223C70.3847 53.0274 70.5 53.3056 70.5 53.5957V55.7832C70.5008 55.9272 70.4732 56.0699 70.4188 56.2031C70.3644 56.3364 70.2842 56.4576 70.1828 56.5598L65.8078 60.9348C65.7056 61.0362 65.5844 61.1163 65.4511 61.1708C65.3179 61.2252 65.1752 61.2528 65.0312 61.252ZM6.41721 59.0645H64.5828L68.3125 55.3348V54.6895H43.6047L41.7453 56.5598C41.6431 56.6612 41.5219 56.7413 41.3887 56.7958C41.2554 56.8502 41.1127 56.8778 40.9688 56.877H30.0313C29.8873 56.8778 29.7446 56.8502 29.6114 56.7958C29.4781 56.7413 29.3569 56.6612 29.2547 56.5598L27.3953 54.6895H2.68752V55.3348L6.41721 59.0645Z" fill="white"/>
<path d="M7.0625 50.3144H4.875V17.502C4.875 16.3416 5.33593 15.2288 6.1564 14.4084C6.97688 13.5879 8.08968 13.127 9.25 13.127H16.9062V15.3145H9.25C8.66984 15.3145 8.11344 15.5449 7.7032 15.9552C7.29297 16.3654 7.0625 16.9218 7.0625 17.502V50.3144Z" fill="white"/>
<path d="M66.125 50.3144H63.9375V17.502C63.9375 16.9218 63.707 16.3654 63.2968 15.9552C62.8865 15.5449 62.3301 15.3145 61.75 15.3145H54.0937V13.127H61.75C62.9103 13.127 64.0231 13.5879 64.8436 14.4084C65.664 15.2288 66.125 16.3416 66.125 17.502V50.3144Z" fill="white"/>
<path d="M32.2187 45.9395H30.0312V48.127H32.2187V45.9395Z" fill="white"/>
<path d="M27.8437 45.9395H25.6562V48.127H27.8437V45.9395Z" fill="white"/>
<path d="M36.5937 45.9395H34.4062V48.127H36.5937V45.9395Z" fill="white"/>
<path d="M40.9687 45.9395H38.7812V48.127H40.9687V45.9395Z" fill="white"/>
<path d="M45.3437 45.9395H43.1562V48.127H45.3437V45.9395Z" fill="white"/>
<path d="M60.6562 48.1269H47.5312V45.9394H59.5625V19.6895H54.0937V17.502H60.6562C60.9463 17.502 61.2245 17.6172 61.4296 17.8223C61.6347 18.0274 61.75 18.3056 61.75 18.5957V47.0332C61.75 47.3233 61.6347 47.6015 61.4296 47.8066C61.2245 48.0117 60.9463 48.1269 60.6562 48.1269Z" fill="white"/>
<path d="M23.4687 48.1269H10.3437C10.0537 48.1269 9.77548 48.0117 9.57036 47.8066C9.36525 47.6015 9.25 47.3233 9.25 47.0332V18.5957C9.25 18.3056 9.36525 18.0274 9.57036 17.8223C9.77548 17.6172 10.0537 17.502 10.3437 17.502H16.9062V19.6895H11.4375V45.9394H23.4687V48.1269Z" fill="white"/>
<path d="M35.5 43.7517C35.272 43.7502 35.0503 43.6775 34.8656 43.5439L19.5531 32.6064C19.4118 32.5057 19.2964 32.3729 19.2165 32.2188C19.1366 32.0648 19.0945 31.894 19.0937 31.7204V1.09544C19.094 0.91911 19.137 0.745457 19.2188 0.589292C19.3007 0.433126 19.4192 0.299072 19.564 0.198562C19.7087 0.0970172 19.8758 0.0320463 20.051 0.00918839C20.2263 -0.0136695 20.4045 0.00627172 20.5703 0.0673172L28.6641 3.10794L31.4422 0.318875C31.5444 0.217505 31.6656 0.137318 31.7988 0.0828883C31.9321 0.0284583 32.0748 0.00086267 32.2187 0.0016949H38.7812C38.9252 0.00086267 39.0679 0.0284583 39.2011 0.0828883C39.3344 0.137318 39.4556 0.217505 39.5578 0.318875L42.3359 3.10794L50.4297 0.0673172C50.5955 0.00627172 50.7737 -0.0136695 50.9489 0.00918839C51.1242 0.0320463 51.2913 0.0970172 51.4359 0.198562C51.5808 0.299072 51.6992 0.433126 51.7811 0.589292C51.863 0.745457 51.9059 0.91911 51.9062 1.09544V31.7204C51.9054 31.894 51.8633 32.0648 51.7835 32.2188C51.7036 32.3729 51.5882 32.5057 51.4468 32.6064L36.1343 43.5439C35.9497 43.6775 35.7279 43.7502 35.5 43.7517ZM21.2812 31.1626L35.5 41.3126L49.7187 31.1626V2.67045L42.4453 5.40482C42.2483 5.47886 42.0342 5.4945 41.8285 5.44988C41.6229 5.40526 41.4345 5.30228 41.2859 5.15326L38.3328 2.18919H32.6672L29.714 5.15326C29.5655 5.30228 29.3771 5.40526 29.1714 5.44988C28.9658 5.4945 28.7516 5.47886 28.5547 5.40482L21.2812 2.67045V31.1626Z" fill="#4C9DE8"/>
<path d="M30.0312 4.37695H27.8437V8.75195H30.0312V4.37695Z" fill="#4C9DE8"/>
<path d="M43.1562 4.37695H40.9687V8.75195H43.1562V4.37695Z" fill="#4C9DE8"/>
<path d="M34.4063 25.1574C34.2623 25.1583 34.1196 25.1307 33.9864 25.0762C33.8531 25.0218 33.7319 24.9416 33.6297 24.8402L30.3485 21.559L31.9016 20.0059L34.4063 22.5215L39.0985 17.8184L40.6516 19.3715L35.1828 24.8402C35.0806 24.9416 34.9594 25.0218 34.8262 25.0762C34.6929 25.1307 34.5502 25.1583 34.4063 25.1574Z" fill="#4C9DE8"/>
<path d="M35.5 30.6269C33.5531 30.6269 31.6499 30.0496 30.0311 28.968C28.4123 27.8863 27.1506 26.349 26.4055 24.5502C25.6605 22.7515 25.4656 20.7723 25.8454 18.8628C26.2252 16.9533 27.1627 15.1993 28.5394 13.8226C29.9161 12.4459 31.6701 11.5084 33.5796 11.1286C35.4891 10.7488 37.4683 10.9437 39.267 11.6888C41.0657 12.4338 42.6031 13.6955 43.6847 15.3143C44.7664 16.9331 45.3437 18.8363 45.3437 20.7832C45.3437 23.3939 44.3066 25.8977 42.4605 27.7438C40.6145 29.5899 38.1107 30.6269 35.5 30.6269ZM35.5 13.127C33.9857 13.127 32.5055 13.576 31.2464 14.4173C29.9873 15.2586 29.006 16.4543 28.4265 17.8533C27.847 19.2523 27.6954 20.7917 27.9908 22.2769C28.2862 23.762 29.0155 25.1262 30.0862 26.197C31.157 27.2677 32.5212 27.9969 34.0063 28.2923C35.4915 28.5878 37.0309 28.4361 38.4299 27.8567C39.8289 27.2772 41.0246 26.2959 41.8659 25.0368C42.7072 23.7777 43.1562 22.2975 43.1562 20.7832C43.1562 18.7526 42.3496 16.8052 40.9138 15.3694C39.4779 13.9336 37.5305 13.127 35.5 13.127Z" fill="#4C9DE8"/>
</svg>
