<svg width="120" height="120" viewBox="0 0 120 120" fill="none" xmlns="http://www.w3.org/2000/svg">
<g clip-path="url(#clip0_5297_34474)">
<path d="M119.586 59.7935C119.586 92.8161 92.8161 119.586 59.7935 119.586C26.7709 119.586 0.000988517 92.8161 0.000985059 59.7935C0.000981602 26.7709 26.7709 0.000991821 59.7935 0.000991821C92.816 0.000991821 119.586 26.7709 119.586 59.7935Z" fill="black"/>
<path d="M90.675 64.9703C90.6891 64.8418 90.6962 64.719 90.7089 64.5919C87.7667 62.3091 84.0764 60.9453 80.0642 60.9453C70.4627 60.9453 62.6797 68.7284 62.6797 78.3298C62.6797 82.4945 64.1465 86.3147 66.5889 89.3091C79.5531 85.414 89.4594 75.9848 90.675 64.9703Z" fill="#FCC33C"/>
<path fill-rule="evenodd" clip-rule="evenodd" d="M47.8438 67.8294C47.8438 75.5785 50.999 82.5865 56.0927 87.6477C57.5115 87.971 59.4245 88.2788 61.6353 88.3169C59.0066 84.8538 57.4381 80.5409 57.4381 75.8566C57.4381 64.4552 66.6809 55.2138 78.0809 55.2138C82.9501 55.2138 87.4212 56.9023 90.9506 59.7216C90.8969 52.6049 89.0489 47.3602 87.3181 44.0016C86.9016 43.1912 86.4739 42.4585 86.0546 41.795C82.8823 40.5583 79.4263 39.875 75.7981 39.875C60.359 39.875 47.8438 52.3903 47.8438 67.8294Z" fill="#FCC33C"/>
<path fill-rule="evenodd" clip-rule="evenodd" d="M30.6159 36.8655C22.957 41.9027 19.1396 48.6072 17.2464 53.7531C16.5406 55.786 16.1467 57.5338 15.9307 58.7691C15.9236 59.0881 15.918 59.4072 15.918 59.7291C15.918 69.1498 18.7203 77.9154 23.5316 85.2439C26.7335 87.1088 35.7222 91.1662 53.4088 91.2227C58.2413 91.2382 62.9297 90.4801 67.2596 89.1051C65.6883 89.3549 64.086 89.4876 62.4639 89.4876C46.0295 89.4876 32.7053 76.1648 32.7053 59.7291C32.7053 44.7036 43.8427 32.2914 58.309 30.2684C57.7895 30.2571 57.2488 30.25 56.6911 30.25C49.3655 30.25 38.9241 31.402 30.6159 36.8655Z" fill="#FCC33C"/>
<path fill-rule="evenodd" clip-rule="evenodd" d="M35.216 21.9348C19.0838 33.8445 16.4861 49.8271 16.0781 55.3612C16.4974 54.0059 17.0522 52.4939 17.7878 50.8972C18.6264 48.9659 19.8546 46.7424 21.6546 44.4285C23.7962 41.5923 26.6057 38.7885 30.2875 36.3673C31.5369 35.5457 32.8358 34.8214 34.1628 34.1819C40.9647 30.7344 48.4612 29.7814 54.769 29.684C58.825 29.5711 62.1638 29.8379 64.0725 30.0482C66.3652 30.2304 68.024 30.3885 68.7638 30.2812C73.2899 29.6162 77.048 26.5711 77.048 21.997C77.048 17.6191 72.9977 14.1857 69.3144 13.5786C68.2499 13.4064 66.0193 13.1367 63.032 13.1367C56.1313 13.1367 45.1915 14.5697 35.216 21.9348Z" fill="#FCC33C"/>
<path fill-rule="evenodd" clip-rule="evenodd" d="M92.9737 65.2207C92.1323 72.8457 87.5906 79.9779 80.1859 85.3031C72.808 90.6099 63.3563 93.5294 53.5572 93.5294H53.4005C39.9732 93.4857 31.3897 91.2254 26.3906 89.2038C35.8156 101.298 54.6824 109.577 72.1657 105.309C104.696 97.368 108.444 66.5238 99.4452 52.8635C96.2772 48.0537 92.3582 45.1341 89.7097 43.5586C92.0829 48.4193 94.0396 55.5586 92.9737 65.2207Z" fill="#FCC33C"/>
</g>
<defs>
<clipPath id="clip0_5297_34474">
<rect width="120" height="120" fill="white"/>
</clipPath>
</defs>
</svg>
