<svg width="400" height="400" viewBox="0 0 400 400" fill="none" xmlns="http://www.w3.org/2000/svg">
<g clip-path="url(#clip0_5288_87520)">
<path d="M398.617 199.309C398.617 309.384 309.384 398.617 199.309 398.617C89.2336 398.617 0.000668274 309.384 0.000656749 199.309C0.000645225 89.2336 89.2336 0.000694248 199.309 0.000694248C309.384 0.000694248 398.617 89.2336 398.617 199.309Z" fill="black"/>
<path d="M302.255 216.565C302.302 216.137 302.326 215.727 302.368 215.304C292.561 207.694 280.26 203.148 266.886 203.148C234.881 203.148 208.938 229.092 208.938 261.097C208.938 274.979 213.827 287.713 221.968 297.694C265.182 284.711 298.203 253.28 302.255 216.565Z" fill="#FCC33C"/>
<path fill-rule="evenodd" clip-rule="evenodd" d="M159.482 226.095C159.482 251.926 170 275.286 186.979 292.156C191.708 293.234 198.085 294.26 205.454 294.387C196.692 282.843 191.464 268.467 191.464 252.853C191.464 214.848 222.273 184.043 260.273 184.043C276.504 184.043 291.407 189.672 303.172 199.069C302.993 175.347 296.833 157.865 291.064 146.669C289.675 143.968 288.249 141.526 286.852 139.314C276.278 135.192 264.758 132.914 252.664 132.914C201.2 132.914 159.482 174.632 159.482 226.095Z" fill="#FCC33C"/>
<path fill-rule="evenodd" clip-rule="evenodd" d="M102.048 122.88C76.5182 139.67 63.7935 162.019 57.4829 179.172C55.13 185.948 53.817 191.774 53.097 195.892C53.0735 196.955 53.0547 198.019 53.0547 199.092C53.0547 230.494 62.3959 259.713 78.4335 284.141C89.1065 290.358 119.069 303.882 178.024 304.07C194.132 304.122 209.761 301.595 224.194 297.012C218.956 297.845 213.615 298.287 208.208 298.287C153.426 298.287 109.012 253.878 109.012 199.092C109.012 149.007 146.137 107.633 194.358 100.889C192.626 100.852 190.824 100.828 188.965 100.828C164.546 100.828 129.742 104.668 102.048 122.88Z" fill="#FCC33C"/>
<path fill-rule="evenodd" clip-rule="evenodd" d="M117.393 73.12C63.6184 112.819 54.9596 166.094 53.5996 184.541C54.9973 180.024 56.8467 174.984 59.2984 169.661C62.0937 163.224 66.1879 155.812 72.1879 148.099C79.3267 138.645 88.6914 129.299 100.964 121.228C105.129 118.489 109.458 116.075 113.882 113.944C136.555 102.452 161.543 99.2753 182.569 98.9506C196.089 98.5741 207.218 99.4636 213.581 100.165C221.223 100.772 226.753 101.299 229.218 100.941C244.306 98.7247 256.833 88.5741 256.833 73.3271C256.833 58.7341 243.331 47.2894 231.054 45.2659C227.505 44.6918 220.07 43.793 210.113 43.793C187.11 43.793 150.644 48.5694 117.393 73.12Z" fill="#FCC33C"/>
<path fill-rule="evenodd" clip-rule="evenodd" d="M309.91 217.406C307.106 242.823 291.967 266.597 267.284 284.347C242.692 302.037 211.186 311.769 178.522 311.769H178C133.242 311.623 104.63 304.089 87.9668 297.35C119.383 337.665 182.273 365.26 240.55 351.035C348.983 324.564 361.477 221.75 331.482 176.216C320.922 160.183 307.859 150.451 299.03 145.199C306.941 161.402 313.463 185.199 309.91 217.406Z" fill="#FCC33C"/>
</g>
<defs>
<clipPath id="clip0_5288_87520">
<rect width="400" height="400" fill="white"/>
</clipPath>
</defs>
</svg>
