<svg width="327" height="216" viewBox="0 0 327 216" fill="none" xmlns="http://www.w3.org/2000/svg">
<g clip-path="url(#clip0_5297_18308)">
<path d="M72.25 177C110.358 177 141.25 146.108 141.25 108C141.25 69.8924 110.358 39 72.25 39C34.1424 39 3.25 69.8924 3.25 108C3.25 146.108 34.1424 177 72.25 177Z" fill="#0052B4"/>
<path d="M72.2504 66L74.4845 72.8755H81.7133L75.8648 77.1246L78.0989 84.0001L72.2504 79.7507L66.4015 84.0001L68.6357 77.1246L62.7871 72.8755H70.0162L72.2504 66Z" fill="#FFDA44"/>
<path d="M42.552 78.3022L48.9938 81.584L54.1054 76.4727L52.9742 83.6125L59.4157 86.8946L52.2756 88.0256L51.1446 95.166L47.8625 88.7245L40.7227 89.8557L45.8343 84.744L42.552 78.3022Z" fill="#FFDA44"/>
<path d="M30.25 107.998L37.1255 105.764V98.5352L41.3744 104.384L48.2501 102.15L44.0004 107.998L48.2501 113.847L41.3744 111.613L37.1255 117.462V110.233L30.25 107.998Z" fill="#FFDA44"/>
<path d="M42.552 137.699L45.834 131.258L40.7227 126.146L47.8628 127.277L51.1444 120.836L52.2756 127.976L59.4155 129.107L52.9747 132.389L54.1054 139.529L48.9938 134.417L42.552 137.699Z" fill="#FFDA44"/>
<path d="M72.2504 150L70.0159 143.124H62.7871L68.6359 138.875L66.4015 132L72.2504 136.249L78.0989 132L75.8648 138.875L81.7133 143.124H74.4842L72.2504 150Z" fill="#FFDA44"/>
<path d="M101.949 137.699L95.5076 134.418L90.3957 139.529L91.5269 132.389L85.0859 129.107L92.2258 127.976L93.3568 120.836L96.6386 127.277L103.778 126.146L98.6668 131.258L101.949 137.699Z" fill="#FFDA44"/>
<path d="M114.25 107.998L107.374 110.233V117.462L103.125 111.613L96.25 113.847L100.499 107.998L96.25 102.15L103.125 104.384L107.374 98.5352V105.765L114.25 107.998Z" fill="#FFDA44"/>
<path d="M101.949 78.302L98.6671 84.7438L103.779 89.8554L96.6383 88.7239L93.3568 95.1655L92.2258 88.0253L85.0859 86.8941L91.5269 83.6123L90.3957 76.4727L95.5079 81.584L101.949 78.302Z" fill="#FFDA44"/>
</g>
<g clip-path="url(#clip1_5297_18308)">
<path d="M163.25 177C201.358 177 232.25 146.108 232.25 108C232.25 69.8924 201.358 39 163.25 39C125.142 39 94.25 69.8924 94.25 108C94.25 146.108 125.142 177 163.25 177Z" fill="url(#paint0_linear_5297_18308)"/>
<path d="M185.872 105.945C190.225 111.754 177.479 122.983 180.343 118.345H153.193C150.256 114.504 148.236 110.304 147.266 105.945H185.872Z" fill="url(#paint1_linear_5297_18308)"/>
<path d="M178.003 139.414C174.144 142.49 169.973 145.152 165.558 147.354L163.398 148.442L161.226 147.359C140.799 137.108 128.613 119.453 128.613 100.104V77.3867H141.071V100.104C141.069 101.553 141.167 103 141.364 104.436C142.933 116.191 150.867 127.035 163.352 134.336C163.363 134.348 163.377 134.357 163.391 134.364C163.404 134.357 163.411 134.35 163.425 134.344L163.477 134.31C167.99 136.834 172.903 138.56 178.003 139.414V139.414Z" fill="url(#paint2_linear_5297_18308)"/>
<path d="M197.797 105.945C197.221 110.436 195.989 114.817 194.142 118.95C190.727 126.625 185.238 133.609 178.008 139.419C172.912 138.564 168 136.838 163.49 134.315C165.119 133.354 166.699 132.312 168.223 131.192C168.375 131.094 168.521 130.987 168.661 130.873C177.1 124.796 183.18 115.99 185.871 105.945H197.797Z" fill="url(#paint3_linear_5297_18308)"/>
<path d="M198.184 77.3906H141.072V89.8429H198.184V77.3906Z" fill="url(#paint4_linear_5297_18308)"/>
<path d="M198.183 89.8438V100.104C198.183 100.528 198.17 100.954 198.157 101.379H185.691C185.704 100.953 185.71 100.528 185.71 100.104V89.8438H198.183Z" fill="url(#paint5_linear_5297_18308)"/>
</g>
<g clip-path="url(#clip2_5297_18308)">
<path d="M322.773 107.762C322.773 145.738 291.988 176.523 254.012 176.523C216.036 176.523 185.251 145.738 185.251 107.762C185.251 69.7861 216.036 39.0008 254.012 39.0008C291.988 39.0008 322.773 69.7861 322.773 107.762Z" fill="black"/>
<path d="M289.527 113.715C289.543 113.567 289.551 113.426 289.566 113.28C286.182 110.654 281.938 109.086 277.324 109.086C266.283 109.086 257.332 118.036 257.332 129.078C257.332 133.867 259.019 138.261 261.828 141.704C276.736 137.225 288.129 126.381 289.527 113.715Z" fill="#FCC33C"/>
<path fill-rule="evenodd" clip-rule="evenodd" d="M240.27 117.003C240.27 125.915 243.898 133.974 249.756 139.794C251.387 140.166 253.587 140.52 256.13 140.564C253.107 136.581 251.303 131.621 251.303 126.234C251.303 113.123 261.932 102.495 275.042 102.495C280.642 102.495 285.784 104.437 289.842 107.679C289.781 99.4948 287.655 93.4634 285.665 89.601C285.186 88.6691 284.694 87.8265 284.212 87.0635C280.564 85.6413 276.59 84.8555 272.417 84.8555C254.662 84.8555 240.27 99.2481 240.27 117.003Z" fill="#FCC33C"/>
<path fill-rule="evenodd" clip-rule="evenodd" d="M220.455 81.393C211.648 87.1858 207.258 94.8959 205.08 100.814C204.269 103.152 203.816 105.161 203.567 106.582C203.559 106.949 203.553 107.316 203.553 107.686C203.553 118.52 206.775 128.6 212.308 137.028C215.991 139.173 226.328 143.839 246.667 143.904C252.225 143.922 257.616 143.05 262.596 141.468C260.789 141.756 258.946 141.908 257.081 141.908C238.181 141.908 222.858 126.587 222.858 107.686C222.858 90.4069 235.666 76.1328 252.302 73.8063C251.705 73.7933 251.083 73.7852 250.442 73.7852C242.017 73.7852 230.01 75.11 220.455 81.393Z" fill="#FCC33C"/>
<path fill-rule="evenodd" clip-rule="evenodd" d="M225.751 64.2272C207.199 77.9233 204.211 96.3033 203.742 102.668C204.224 101.109 204.862 99.3701 205.708 97.5339C206.673 95.3129 208.085 92.7559 210.155 90.0949C212.618 86.8332 215.849 83.6089 220.083 80.8245C221.52 79.8797 223.013 79.0468 224.54 78.3113C232.362 74.3467 240.983 73.2508 248.237 73.1388C252.901 73.0089 256.741 73.3157 258.936 73.5576C261.572 73.7671 263.48 73.9489 264.331 73.8255C269.536 73.0608 273.858 69.5589 273.858 64.2986C273.858 59.2641 269.2 55.3157 264.964 54.6175C263.74 54.4195 261.175 54.1094 257.739 54.1094C249.803 54.1094 237.223 55.7573 225.751 64.2272Z" fill="#FCC33C"/>
<path fill-rule="evenodd" clip-rule="evenodd" d="M292.168 114.005C291.201 122.774 285.978 130.976 277.462 137.1C268.978 143.203 258.108 146.56 246.839 146.56H246.659C231.218 146.51 221.347 143.911 215.598 141.586C226.436 155.494 248.133 165.015 268.239 160.107C305.648 150.975 309.959 115.504 299.61 99.7944C295.967 94.2631 291.46 90.9056 288.415 89.0938C291.144 94.6836 293.394 102.894 292.168 114.005Z" fill="#FCC33C"/>
</g>
<defs>
<linearGradient id="paint0_linear_5297_18308" x1="232.25" y1="39" x2="67.1178" y2="91.2489" gradientUnits="userSpaceOnUse">
<stop stop-color="#000756"/>
<stop offset="1" stop-color="#0042B8"/>
</linearGradient>
<linearGradient id="paint1_linear_5297_18308" x1="198.455" y1="119.94" x2="150.95" y2="107.137" gradientUnits="userSpaceOnUse">
<stop offset="0.14" stop-color="#ADADAD"/>
<stop offset="0.29" stop-color="#CBCBCB"/>
<stop offset="0.43" stop-color="#E2E2E2"/>
<stop offset="0.59" stop-color="#F2F2F2"/>
<stop offset="0.77" stop-color="#FCFCFC"/>
<stop offset="1" stop-color="white"/>
</linearGradient>
<linearGradient id="paint2_linear_5297_18308" x1="180.915" y1="160.504" x2="113.765" y2="66.8468" gradientUnits="userSpaceOnUse">
<stop stop-color="#ADADAD"/>
<stop offset="0.17" stop-color="#CBCBCB"/>
<stop offset="0.34" stop-color="#E2E2E2"/>
<stop offset="0.52" stop-color="#F2F2F2"/>
<stop offset="0.73" stop-color="#FCFCFC"/>
<stop offset="1" stop-color="white"/>
</linearGradient>
<linearGradient id="paint3_linear_5297_18308" x1="164.264" y1="146.331" x2="196.158" y2="105.901" gradientUnits="userSpaceOnUse">
<stop offset="0.15" stop-color="#ADADAD"/>
<stop offset="0.29" stop-color="#CBCBCB"/>
<stop offset="0.44" stop-color="#E2E2E2"/>
<stop offset="0.6" stop-color="#F2F2F2"/>
<stop offset="0.77" stop-color="#FCFCFC"/>
<stop offset="1" stop-color="white"/>
</linearGradient>
<linearGradient id="paint4_linear_5297_18308" x1="135.582" y1="115.961" x2="162.537" y2="90.3561" gradientUnits="userSpaceOnUse">
<stop offset="0.14" stop-color="#ADADAD"/>
<stop offset="0.43" stop-color="#C9C9C9"/>
<stop offset="1" stop-color="white"/>
</linearGradient>
<linearGradient id="paint5_linear_5297_18308" x1="191.937" y1="83.3081" x2="191.937" y2="101.379" gradientUnits="userSpaceOnUse">
<stop offset="0.0895638" stop-color="#ADADAD"/>
<stop offset="0.240189" stop-color="#CBCBCB"/>
<stop offset="0.425047" stop-color="#E2E2E2"/>
<stop offset="0.536875" stop-color="#F2F2F2"/>
<stop offset="1" stop-color="white"/>
</linearGradient>
<clipPath id="clip0_5297_18308">
<rect x="3.25" y="39" width="138" height="138" rx="69" fill="white"/>
</clipPath>
<clipPath id="clip1_5297_18308">
<rect x="94.25" y="39" width="138" height="138" rx="69" fill="white"/>
</clipPath>
<clipPath id="clip2_5297_18308">
<rect width="138" height="138" fill="white" transform="translate(185.25 39)"/>
</clipPath>
</defs>
</svg>
