<svg width="327" height="216" viewBox="0 0 327 216" fill="none" xmlns="http://www.w3.org/2000/svg">
<g clip-path="url(#clip0_5297_18265)">
<path d="M72.75 177C110.858 177 141.75 146.108 141.75 108C141.75 69.8924 110.858 39 72.75 39C34.6424 39 3.75 69.8924 3.75 108C3.75 146.108 34.6424 177 72.75 177Z" fill="#F0F0F0"/>
<path d="M69.75 108H141.75C141.75 101.772 140.92 95.7391 139.373 90H69.75V108Z" fill="#D80027"/>
<path d="M69.75 72.0001H131.623C127.399 65.1077 121.998 59.0154 115.701 54H69.75V72.0001Z" fill="#D80027"/>
<path d="M72.7503 177C88.9892 177 103.915 171.387 115.702 162H29.7988C41.5854 171.387 56.5113 177 72.7503 177Z" fill="#D80027"/>
<path d="M13.8773 144H131.623C135.014 138.467 137.643 132.419 139.373 126H6.12695C7.85654 132.419 10.4864 138.467 13.8773 144Z" fill="#D80027"/>
<path d="M35.7121 49.7753H42L36.1512 54.0245L38.3853 60.9L32.5367 56.6508L26.6882 60.9L28.618 54.9603C23.4684 59.2499 18.9548 64.2756 15.2353 69.8753H17.25L13.527 72.5801C12.9469 73.5477 12.3906 74.5307 11.8575 75.5282L13.6353 81L10.3185 78.5901C9.49398 80.3369 8.73983 82.1231 8.06196 83.9465L10.0206 89.9754H17.25L11.4012 94.2245L13.6353 101.1L7.78677 96.8508L4.2834 99.3963C3.93274 102.215 3.75 105.086 3.75 108H72.75C72.75 69.8926 72.75 65.4 72.75 39C59.1193 39 46.4128 42.954 35.7121 49.7753ZM38.3853 101.1L32.5367 96.8508L26.6882 101.1L28.9223 94.2245L23.0735 89.9754H30.3029L32.5367 83.0999L34.7706 89.9754H42L36.1512 94.2245L38.3853 101.1ZM36.1512 74.1245L38.3853 81L32.5367 76.7508L26.6882 81L28.9223 74.1245L23.0735 69.8753H30.3029L32.5367 62.9999L34.7706 69.8753H42L36.1512 74.1245ZM63.1353 101.1L57.2867 96.8508L51.4382 101.1L53.6723 94.2245L47.8235 89.9754H55.0528L57.2867 83.0999L59.5206 89.9754H66.75L60.9011 94.2245L63.1353 101.1ZM60.9011 74.1245L63.1353 81L57.2867 76.7508L51.4382 81L53.6723 74.1245L47.8235 69.8753H55.0528L57.2867 62.9999L59.5206 69.8753H66.75L60.9011 74.1245ZM60.9011 54.0245L63.1353 60.9L57.2867 56.6508L51.4382 60.9L53.6723 54.0245L47.8235 49.7753H55.0528L57.2867 42.8998L59.5206 49.7753H66.75L60.9011 54.0245Z" fill="#0052B4"/>
</g>
<g clip-path="url(#clip1_5297_18265)">
<path d="M163.75 177C201.858 177 232.75 146.108 232.75 108C232.75 69.8924 201.858 39 163.75 39C125.642 39 94.75 69.8924 94.75 108C94.75 146.108 125.642 177 163.75 177Z" fill="url(#paint0_linear_5297_18265)"/>
<path d="M186.372 105.945C190.725 111.754 177.979 122.983 180.843 118.345H153.693C150.756 114.504 148.736 110.304 147.766 105.945H186.372Z" fill="url(#paint1_linear_5297_18265)"/>
<path d="M178.503 139.414C174.644 142.49 170.473 145.152 166.058 147.354L163.898 148.442L161.726 147.359C141.299 137.108 129.113 119.453 129.113 100.104V77.3867H141.571V100.104C141.569 101.553 141.667 103 141.864 104.436C143.433 116.191 151.367 127.035 163.852 134.336C163.863 134.348 163.877 134.357 163.891 134.364C163.904 134.357 163.911 134.35 163.925 134.344L163.977 134.31C168.49 136.834 173.403 138.56 178.503 139.414V139.414Z" fill="url(#paint2_linear_5297_18265)"/>
<path d="M198.297 105.945C197.721 110.436 196.489 114.817 194.642 118.95C191.227 126.625 185.738 133.609 178.508 139.419C173.412 138.564 168.5 136.838 163.99 134.315C165.619 133.354 167.199 132.312 168.723 131.192C168.875 131.094 169.021 130.987 169.161 130.873C177.6 124.796 183.68 115.99 186.371 105.945H198.297Z" fill="url(#paint3_linear_5297_18265)"/>
<path d="M198.684 77.3906H141.572V89.8429H198.684V77.3906Z" fill="url(#paint4_linear_5297_18265)"/>
<path d="M198.683 89.8438V100.104C198.683 100.528 198.67 100.954 198.657 101.379H186.191C186.204 100.953 186.21 100.528 186.21 100.104V89.8438H198.683Z" fill="url(#paint5_linear_5297_18265)"/>
</g>
<g clip-path="url(#clip2_5297_18265)">
<path d="M323.273 107.762C323.273 145.738 292.488 176.523 254.512 176.523C216.536 176.523 185.751 145.738 185.751 107.762C185.751 69.7861 216.536 39.0008 254.512 39.0008C292.488 39.0008 323.273 69.7861 323.273 107.762Z" fill="black"/>
<path d="M290.029 113.715C290.045 113.567 290.053 113.426 290.068 113.28C286.684 110.654 282.44 109.086 277.826 109.086C266.785 109.086 257.834 118.036 257.834 129.078C257.834 133.867 259.521 138.261 262.33 141.704C277.238 137.225 288.631 126.381 290.029 113.715Z" fill="#FCC33C"/>
<path fill-rule="evenodd" clip-rule="evenodd" d="M240.771 117.003C240.771 125.915 244.4 133.974 250.258 139.794C251.889 140.166 254.089 140.52 256.632 140.564C253.609 136.581 251.805 131.621 251.805 126.234C251.805 113.123 262.434 102.495 275.544 102.495C281.144 102.495 286.286 104.437 290.344 107.679C290.283 99.4948 288.157 93.4634 286.167 89.601C285.688 88.6691 285.196 87.8265 284.714 87.0635C281.066 85.6413 277.091 84.8555 272.919 84.8555C255.164 84.8555 240.771 99.2481 240.771 117.003Z" fill="#FCC33C"/>
<path fill-rule="evenodd" clip-rule="evenodd" d="M220.955 81.393C212.148 87.1858 207.758 94.8959 205.58 100.814C204.769 103.152 204.316 105.161 204.067 106.582C204.059 106.949 204.053 107.316 204.053 107.686C204.053 118.52 207.275 128.6 212.808 137.028C216.491 139.173 226.828 143.839 247.167 143.904C252.725 143.922 258.116 143.05 263.096 141.468C261.289 141.756 259.446 141.908 257.581 141.908C238.681 141.908 223.358 126.587 223.358 107.686C223.358 90.4069 236.166 76.1328 252.802 73.8063C252.205 73.7933 251.583 73.7852 250.942 73.7852C242.517 73.7852 230.51 75.11 220.955 81.393Z" fill="#FCC33C"/>
<path fill-rule="evenodd" clip-rule="evenodd" d="M226.251 64.2272C207.699 77.9233 204.711 96.3033 204.242 102.668C204.724 101.109 205.362 99.3701 206.208 97.5339C207.173 95.3129 208.585 92.7559 210.655 90.0949C213.118 86.8332 216.349 83.6089 220.583 80.8245C222.02 79.8797 223.513 79.0468 225.04 78.3113C232.862 74.3467 241.483 73.2508 248.737 73.1388C253.401 73.0089 257.241 73.3157 259.436 73.5576C262.072 73.7671 263.98 73.9489 264.831 73.8255C270.036 73.0608 274.358 69.5589 274.358 64.2986C274.358 59.2641 269.7 55.3157 265.464 54.6175C264.24 54.4195 261.675 54.1094 258.239 54.1094C250.303 54.1094 237.723 55.7573 226.251 64.2272Z" fill="#FCC33C"/>
<path fill-rule="evenodd" clip-rule="evenodd" d="M292.67 114.005C291.703 122.774 286.48 130.976 277.964 137.1C269.48 143.203 258.61 146.56 247.341 146.56H247.161C231.72 146.51 221.849 143.911 216.1 141.586C226.938 155.494 248.635 165.015 268.741 160.107C306.15 150.975 310.461 115.504 300.112 99.7944C296.469 94.2631 291.962 90.9056 288.917 89.0938C291.646 94.6836 293.896 102.894 292.67 114.005Z" fill="#FCC33C"/>
</g>
<defs>
<linearGradient id="paint0_linear_5297_18265" x1="232.75" y1="39" x2="67.6178" y2="91.2489" gradientUnits="userSpaceOnUse">
<stop stop-color="#000756"/>
<stop offset="1" stop-color="#0042B8"/>
</linearGradient>
<linearGradient id="paint1_linear_5297_18265" x1="198.955" y1="119.94" x2="151.45" y2="107.137" gradientUnits="userSpaceOnUse">
<stop offset="0.14" stop-color="#ADADAD"/>
<stop offset="0.29" stop-color="#CBCBCB"/>
<stop offset="0.43" stop-color="#E2E2E2"/>
<stop offset="0.59" stop-color="#F2F2F2"/>
<stop offset="0.77" stop-color="#FCFCFC"/>
<stop offset="1" stop-color="white"/>
</linearGradient>
<linearGradient id="paint2_linear_5297_18265" x1="181.415" y1="160.504" x2="114.265" y2="66.8468" gradientUnits="userSpaceOnUse">
<stop stop-color="#ADADAD"/>
<stop offset="0.17" stop-color="#CBCBCB"/>
<stop offset="0.34" stop-color="#E2E2E2"/>
<stop offset="0.52" stop-color="#F2F2F2"/>
<stop offset="0.73" stop-color="#FCFCFC"/>
<stop offset="1" stop-color="white"/>
</linearGradient>
<linearGradient id="paint3_linear_5297_18265" x1="164.764" y1="146.331" x2="196.658" y2="105.901" gradientUnits="userSpaceOnUse">
<stop offset="0.15" stop-color="#ADADAD"/>
<stop offset="0.29" stop-color="#CBCBCB"/>
<stop offset="0.44" stop-color="#E2E2E2"/>
<stop offset="0.6" stop-color="#F2F2F2"/>
<stop offset="0.77" stop-color="#FCFCFC"/>
<stop offset="1" stop-color="white"/>
</linearGradient>
<linearGradient id="paint4_linear_5297_18265" x1="136.082" y1="115.961" x2="163.037" y2="90.3561" gradientUnits="userSpaceOnUse">
<stop offset="0.14" stop-color="#ADADAD"/>
<stop offset="0.43" stop-color="#C9C9C9"/>
<stop offset="1" stop-color="white"/>
</linearGradient>
<linearGradient id="paint5_linear_5297_18265" x1="192.437" y1="83.3081" x2="192.437" y2="101.379" gradientUnits="userSpaceOnUse">
<stop offset="0.0895638" stop-color="#ADADAD"/>
<stop offset="0.240189" stop-color="#CBCBCB"/>
<stop offset="0.425047" stop-color="#E2E2E2"/>
<stop offset="0.536875" stop-color="#F2F2F2"/>
<stop offset="1" stop-color="white"/>
</linearGradient>
<clipPath id="clip0_5297_18265">
<rect x="3.75" y="39" width="138" height="138" rx="69" fill="white"/>
</clipPath>
<clipPath id="clip1_5297_18265">
<rect x="94.75" y="39" width="138" height="138" rx="69" fill="white"/>
</clipPath>
<clipPath id="clip2_5297_18265">
<rect width="138" height="138" fill="white" transform="translate(185.75 39)"/>
</clipPath>
</defs>
</svg>
