<svg width="49" height="49" viewBox="0 0 49 49" fill="none" xmlns="http://www.w3.org/2000/svg">
<path d="M49 24.5C49 10.969 38.031 0 24.5 0C10.969 0 0 10.969 0 24.5C0 38.031 10.969 49 24.5 49C38.031 49 49 38.031 49 24.5Z" fill="white"/>
<path fill-rule="evenodd" clip-rule="evenodd" d="M10 36L18.6054 13.2112C19.6973 10.5506 21.7332 9.0445 24.4394 9.001V9L24.4999 9.0002L24.5606 9V9.001C27.2668 9.0445 29.3027 10.5506 30.3947 13.2112L39 36L33.6713 34.2087L26.3201 14.7416C25.8727 13.6649 25.356 13.2773 24.4999 13.2602C23.6439 13.2773 23.1273 13.6649 22.6799 14.7416L15.3288 34.2087L10 36ZM28.2444 27.3225C28.2444 29.3131 26.5907 30.9268 24.5505 30.9268C22.5105 30.9268 20.8568 29.3131 20.8568 27.3225C20.8568 25.3319 22.5105 23.7183 24.5505 23.7183C26.5907 23.7183 28.2444 25.3319 28.2444 27.3225Z" fill="#3692FE"/>
</svg>
