<svg width="49" height="49" viewBox="0 0 49 49" fill="none" xmlns="http://www.w3.org/2000/svg">
<rect width="49" height="49" rx="24.5" fill="white"/>
<path d="M11.2279 17.5176C11.0175 17.2631 10.7523 17.0596 10.4523 16.9225C10.1675 16.794 9.85992 16.7242 9.54771 16.7172C9.20253 16.706 8.85863 16.7646 8.53664 16.8897C8.24731 17.0034 7.98461 17.176 7.76507 17.3966C7.55037 17.615 7.38435 17.8766 7.27798 18.1641C7.05519 18.792 7.05519 19.4777 7.27798 20.1056C7.38358 20.3953 7.54964 20.6591 7.76507 20.8793C7.98438 21.1002 8.24715 21.2728 8.53664 21.3863C8.85863 21.5112 9.20253 21.5698 9.54771 21.5586C9.85992 21.5517 10.1675 21.4819 10.4523 21.3534C10.7524 21.2163 11.0175 21.0128 11.2279 20.7582L10.6978 20.3477C10.5779 20.5265 10.4182 20.6747 10.2312 20.7808C10.0236 20.9009 9.78725 20.9619 9.54771 20.9573C9.30048 20.9681 9.0539 20.9247 8.82524 20.83C8.61862 20.7478 8.4317 20.6225 8.27672 20.4627C8.12281 20.293 8.00573 20.0932 7.93289 19.8757C7.77582 19.3993 7.77582 18.8848 7.93289 18.4083C8.00604 18.1916 8.12311 17.9925 8.27672 17.8234C8.429 17.6582 8.61458 17.5274 8.82108 17.4396C9.04984 17.3451 9.29643 17.3018 9.54355 17.3124C9.7832 17.3078 10.0195 17.3689 10.2272 17.4889C10.414 17.5951 10.5737 17.7434 10.6938 17.922L11.2239 17.5115L11.2279 17.5176ZM12.7793 21.4478H13.4281V19.0836C13.4137 18.7433 13.484 18.4047 13.6328 18.0985C13.7399 17.89 13.8924 17.7084 14.0789 17.5669C14.2169 17.4588 14.3769 17.3825 14.5475 17.3432C14.6397 17.327 14.7325 17.3162 14.8259 17.3104C15.3035 17.3104 15.6309 17.4472 15.8083 17.7209C16.0067 18.0802 16.0989 18.4888 16.0743 18.8989V21.4478H16.7231V18.5212C16.7546 18.0393 16.6042 17.5631 16.3015 17.1873C16.0163 16.8807 15.5791 16.7275 14.9897 16.7275C14.8353 16.7279 14.6818 16.7494 14.5332 16.7912C14.3809 16.8328 14.234 16.892 14.0953 16.9677C13.9601 17.0417 13.835 17.1327 13.7228 17.2386C13.615 17.3394 13.5226 17.4556 13.4485 17.5833H13.4281V14H12.7793V21.4478ZM21.8867 19.1533V19.4878C21.8878 19.6832 21.8595 19.8776 21.8028 20.0646C21.751 20.2396 21.6617 20.4012 21.5412 20.538C21.4206 20.6748 21.2717 20.7836 21.1049 20.8567C20.911 20.9399 20.7017 20.9805 20.491 20.9758C20.36 20.9756 20.2295 20.9604 20.102 20.9307C19.9783 20.9025 19.8605 20.8524 19.7542 20.7829C19.6509 20.7151 19.5653 20.6237 19.5045 20.516C19.4391 20.3968 19.4066 20.2622 19.4103 20.1261C19.4057 20.0232 19.425 19.9206 19.4669 19.8265C19.5089 19.7324 19.5723 19.6495 19.6519 19.5843C19.8224 19.4476 20.0198 19.3483 20.231 19.2929C20.4625 19.2293 20.6997 19.1894 20.9391 19.1738C21.1847 19.1574 21.3894 19.1492 21.5532 19.1492L21.8867 19.1533ZM21.5633 18.6218C21.2905 18.6218 20.9875 18.6348 20.6546 18.6608C20.3358 18.6872 20.022 18.7562 19.7214 18.866C19.4434 18.9624 19.1937 19.1268 18.9948 19.3442C18.7896 19.5906 18.6857 19.9061 18.7042 20.2266C18.6994 20.4303 18.7452 20.632 18.8373 20.8136C18.9237 20.9783 19.0445 21.1225 19.1913 21.2365C19.342 21.3533 19.5136 21.4404 19.6969 21.493C19.8883 21.5491 20.0868 21.5775 20.2863 21.577C20.614 21.5858 20.9389 21.5154 21.2338 21.3719C21.5146 21.216 21.7475 20.986 21.9072 20.7069H21.9277C21.9277 20.8314 21.9324 20.9594 21.942 21.0907C21.9515 21.2221 21.9672 21.3411 21.989 21.4478H22.603C22.5839 21.3233 22.5662 21.1639 22.5499 20.9696C22.5334 20.7753 22.528 20.5926 22.5334 20.4217V18.3694C22.5397 18.1195 22.493 17.8711 22.3963 17.6407C22.3119 17.4479 22.1877 17.2752 22.032 17.1339C21.8766 16.9969 21.6937 16.8948 21.4958 16.8342C21.2879 16.7685 21.0712 16.7352 20.8532 16.7357C19.9882 16.7357 19.3401 16.9587 18.9089 17.4048L19.3019 17.8685C19.6833 17.5144 20.1859 17.3204 20.7059 17.3268C21.4917 17.3268 21.8847 17.7243 21.8847 18.5192V18.6382L21.5633 18.6218ZM24.6864 16.8384C24.7001 17.0094 24.7117 17.1899 24.7213 17.3802C24.7308 17.5703 24.7356 17.7277 24.7356 17.8522V21.4478H25.3844V19.0836C25.3701 18.7433 25.4404 18.4047 25.589 18.0985C25.6961 17.89 25.8486 17.7084 26.0352 17.5669C26.1732 17.4588 26.3333 17.3825 26.5039 17.3432C26.5945 17.3251 26.686 17.3121 26.7781 17.3042C27.2557 17.3042 27.5832 17.441 27.7605 17.7147C27.959 18.0741 28.0512 18.4826 28.0266 18.8927V21.4478H28.6753V18.5212C28.7068 18.0393 28.5564 17.5631 28.2538 17.1873C27.9713 16.8807 27.5354 16.7275 26.9459 16.7275C26.7916 16.7279 26.6381 16.7494 26.4896 16.7912C26.3373 16.8328 26.1903 16.892 26.0516 16.9677C25.9147 17.0394 25.7874 17.1284 25.673 17.2324C25.5652 17.3332 25.4728 17.4494 25.3987 17.5771H25.3783C25.3783 17.4526 25.3783 17.3295 25.3783 17.2078C25.3783 17.086 25.3701 16.9629 25.3536 16.8384H24.6864ZM31.4997 18.4001C31.585 18.1915 31.7085 18.0008 31.864 17.8378C32.0183 17.6768 32.2016 17.5465 32.4042 17.454C32.6156 17.3575 32.8454 17.3084 33.0776 17.3104C33.3271 17.307 33.5746 17.356 33.8041 17.454C34.0118 17.5431 34.199 17.6737 34.3547 17.8378C34.506 18 34.6231 18.1913 34.6985 18.4001C34.7785 18.6197 34.8187 18.8518 34.8173 19.0856C34.8272 19.3344 34.7854 19.5825 34.6945 19.8141C34.6098 20.0249 34.4807 20.2147 34.3158 20.3704C33.983 20.6832 33.5441 20.8578 33.0879 20.8587C32.8556 20.8609 32.6257 20.8118 32.4145 20.7151C32.2118 20.6227 32.0284 20.4924 31.8742 20.3313C31.7187 20.1685 31.5951 19.9777 31.5099 19.769C31.3332 19.3299 31.3332 18.8392 31.5099 18.4001H31.4997ZM30.767 22.8845C31.041 23.1851 31.3759 23.4237 31.7494 23.5842C32.1396 23.7407 32.5571 23.8174 32.9773 23.81C33.4086 23.8273 33.8382 23.7466 34.2339 23.574C34.5268 23.4383 34.7841 23.2359 34.9851 22.9829C35.162 22.7536 35.2864 22.4881 35.3494 22.2051C35.4095 21.9431 35.441 21.6755 35.4435 21.4068V16.8384H34.7947V17.6059H34.7743C34.5501 17.294 34.246 17.0487 33.8942 16.8958C33.7459 16.8321 33.5906 16.786 33.4316 16.7583C33.2871 16.733 33.1406 16.72 32.9937 16.7193C32.6721 16.7159 32.3532 16.7781 32.0564 16.9019C31.7786 17.0185 31.5279 17.191 31.3196 17.4089C31.1109 17.6289 30.9456 17.8866 30.8325 18.1683C30.7133 18.4656 30.6535 18.7836 30.6565 19.104C30.6536 19.4255 30.717 19.7441 30.8427 20.0399C30.9613 20.3198 31.1353 20.5726 31.3544 20.7829C31.5747 20.9929 31.8332 21.1587 32.1157 21.2713C32.4138 21.3904 32.7321 21.4504 33.0531 21.4478C33.3817 21.4467 33.7065 21.3768 34.0068 21.2425C34.3216 21.0992 34.5876 20.8667 34.7722 20.5735H34.7927V21.3945C34.7939 21.6323 34.7622 21.8692 34.6985 22.0984C34.6415 22.312 34.538 22.5104 34.3956 22.6792C34.2441 22.8513 34.054 22.9849 33.8409 23.0692C33.5747 23.1712 33.291 23.22 33.006 23.2128C32.6513 23.2184 32.3004 23.1389 31.9826 22.9809C31.6909 22.8368 31.4371 22.6259 31.2418 22.3651L30.767 22.8845ZM38.0652 18.7798C38.0656 18.5878 38.1111 18.3987 38.1982 18.2277C38.2871 18.0504 38.407 17.8905 38.5523 17.7558C38.7031 17.6155 38.8778 17.5036 39.068 17.4253C39.2624 17.3434 39.4712 17.3014 39.6821 17.3022C39.884 17.2902 40.086 17.3205 40.2757 17.3912C40.4653 17.4619 40.638 17.5713 40.7831 17.7127C40.9147 17.8561 41.0166 18.0242 41.083 18.2074C41.1494 18.3905 41.1789 18.5852 41.1699 18.7798H38.0652ZM41.876 19.3114V19.024C41.8777 18.7209 41.8278 18.4197 41.7286 18.1334C41.6361 17.8643 41.4906 17.6165 41.3009 17.4048C41.1085 17.1927 40.8744 17.0229 40.6133 16.9061C40.319 16.7779 40.0008 16.7142 39.6799 16.7193C39.3665 16.7168 39.0557 16.7789 38.7672 16.9019C38.4903 17.0198 38.2398 17.1923 38.0305 17.4089C37.818 17.6299 37.651 17.8907 37.5392 18.1765C37.4195 18.4837 37.3597 18.8111 37.3633 19.1411C37.3601 19.4714 37.4219 19.7992 37.5454 20.1056C37.6599 20.3909 37.828 20.6515 38.0407 20.8731C38.2536 21.0921 38.5093 21.2646 38.7918 21.3801C39.0924 21.5032 39.4146 21.5653 39.7394 21.5627C40.1069 21.5656 40.4707 21.4886 40.8056 21.337C41.1638 21.1636 41.4754 20.9068 41.7143 20.5879L41.2129 20.1775C41.0652 20.4037 40.8687 20.5938 40.6378 20.7336C40.368 20.8997 40.0559 20.9839 39.7394 20.9758C39.52 20.978 39.3026 20.9347 39.1008 20.8485C38.706 20.6793 38.39 20.3661 38.2166 19.9722C38.124 19.7665 38.0673 19.5465 38.0488 19.3216L41.876 19.3114Z" fill="black"/>
<path d="M7.67501 33.7615H9.32455V26.6298H9.35122L13.9356 33.7615H16.0313V24.4626H14.3797V31.3707H14.3552L9.85261 24.4626H7.67501V33.7615ZM18.6654 31.1346C18.8931 31.7101 19.2387 32.2314 19.6795 32.6647C20.1205 33.0982 20.6472 33.4341 21.2256 33.6508C21.8553 33.8887 22.5237 34.007 23.1965 33.9997C23.8776 33.9992 24.5527 33.8726 25.1879 33.6261C25.7696 33.3988 26.2999 33.057 26.7474 32.6205C27.1898 32.1837 27.5382 31.6606 27.7707 31.0833C28.0191 30.4519 28.1407 29.7774 28.1289 29.0988C28.1388 28.4068 28.0144 27.7195 27.7626 27.0752C27.5323 26.4932 27.1838 25.9654 26.7392 25.5257C26.2948 25.0917 25.7631 24.758 25.1797 24.5467C24.5414 24.3175 23.8663 24.2083 23.1883 24.2246C22.5154 24.2172 21.8472 24.3355 21.2174 24.5734C20.6393 24.7927 20.1131 25.1303 19.6723 25.5646C19.2278 26.0069 18.8794 26.5366 18.6489 27.1203C18.405 27.7691 18.2883 28.459 18.3051 29.1521C18.2961 29.8307 18.4205 30.5044 18.6714 31.1346H18.6654ZM20.2575 27.7463C20.4034 27.3551 20.6237 26.9961 20.9064 26.6894C21.1879 26.3854 21.5294 26.1436 21.9092 25.9793C22.3225 25.803 22.768 25.7156 23.217 25.7228C23.6665 25.7168 24.1125 25.8041 24.5269 25.9793C24.9091 26.1425 25.2528 26.3844 25.5358 26.6894C25.8183 26.9963 26.0386 27.3552 26.1846 27.7463C26.3362 28.1609 26.4111 28.5998 26.4057 29.0413C26.4106 29.511 26.3329 29.9778 26.1765 30.4204C26.0339 30.823 25.8134 31.1933 25.5276 31.5102C25.2452 31.8188 24.9015 32.065 24.5186 32.2326C24.1054 32.412 23.6591 32.5015 23.2088 32.4953C22.7605 32.502 22.316 32.4125 21.9051 32.2326C21.5247 32.0638 21.1833 31.8179 20.9022 31.5102C20.6164 31.1934 20.3958 30.8231 20.2535 30.4204C20.0976 29.9777 20.0207 29.5108 20.0263 29.0413C20.0226 28.5972 20.1004 28.1561 20.2555 27.7402L20.2575 27.7463ZM32.1013 33.7615H33.6199L35.7689 26.6812H35.7956L37.9526 33.7615H39.5244L42.2218 24.4626H40.5457L38.7242 31.1613H38.6976L36.651 24.4626H35.026L32.9404 31.1613H32.9139L31.1722 24.4626H29.3569L32.1013 33.7615Z" fill="#00C26F"/>
</svg>
