<svg width="40" height="40" viewBox="0 0 40 40" fill="none" xmlns="http://www.w3.org/2000/svg">
<rect width="39.905" height="39.816" rx="19.908" fill="#5583FF"/>
<path d="M13.188 15.376C14.3964 15.376 15.376 14.3964 15.376 13.188C15.376 11.9796 14.3964 11 13.188 11C11.9796 11 11 11.9796 11 13.188C11 14.3964 11.9796 15.376 13.188 15.376Z" fill="white"/>
<path d="M17.142 16.676V28.815H20.911V22.812C20.911 21.228 21.209 19.694 23.173 19.694C25.11 19.694 25.134 21.505 25.134 22.912V28.816H28.905V22.159C28.905 18.889 28.201 16.376 24.379 16.376C22.544 16.376 21.314 17.383 20.811 18.336H20.76V16.676H17.142ZM11 16.676H14.775V28.815H11V16.676Z" fill="white"/>
</svg>
