<svg width="120" height="120" viewBox="0 0 120 120" fill="none" xmlns="http://www.w3.org/2000/svg">
    <g clip-path="url(#clip0)">
        <path d="M115.406 36.1496C109.781 30.9559 102 23.0246 95.6625 17.3996L95.2875 17.1371C94.6636 16.6361 93.9601 16.2432 93.2063 15.9746C77.925 13.1246 6.80625 -0.169111 5.41875 -0.000360752C5.02997 0.0540894 4.65834 0.195049 4.33125 0.412139L3.975 0.693389C3.53633 1.13889 3.20316 1.6771 3 2.26839L2.90625 2.51214L2.90625 3.84339L2.90625 4.04964C10.9125 26.3434 42.525 99.3746 48.75 116.512C49.125 117.675 49.8375 119.887 51.1688 120H51.4688C52.1813 120 55.2188 115.987 55.2188 115.987C55.2188 115.987 109.519 50.1371 115.013 43.1246C115.724 42.2608 116.351 41.3317 116.888 40.3496C117.024 39.5813 116.96 38.7905 116.7 38.0545C116.441 37.3184 115.995 36.6622 115.406 36.1496ZM69.15 43.8184L92.325 24.5996L105.919 37.1246L69.15 43.8184ZM60.15 42.5621L20.25 9.86214L84.8063 21.7684L60.15 42.5621ZM63.75 51.1309L104.588 44.5496L57.9 100.8L63.75 51.1309ZM14.8313 13.1246L56.8125 48.7496L50.7375 100.837L14.8313 13.1246Z" fill="#FF060A"/>
    </g>
    <defs>
        <clipPath id="clip0">
            <rect width="120" height="120" fill="white"/>
        </clipPath>
    </defs>
</svg>
