<svg width="400" height="400" viewBox="0 0 400 400" fill="none" xmlns="http://www.w3.org/2000/svg">
    <g clip-path="url(#clip0)">
        <path d="M384.688 120.499C365.938 103.187 340 76.7495 318.875 57.9995L317.625 57.1245C315.545 55.4543 313.2 54.1445 310.688 53.2495C259.75 43.7495 22.6877 -0.563051 18.0627 -0.000551465C16.7668 0.180949 15.5281 0.650815 14.4377 1.37445L13.2502 2.31195C11.788 3.79695 10.6774 5.59097 10.0002 7.56195L9.68775 8.37445L9.68775 12.8119L9.68775 13.4994C36.3753 87.812 141.75 331.249 162.5 388.374C163.75 392.249 166.125 399.624 170.563 399.999H171.563C173.938 399.999 184.063 386.624 184.063 386.624C184.063 386.624 365.063 167.124 383.375 143.749C385.746 140.87 387.838 137.773 389.625 134.499C390.081 131.938 389.866 129.302 389.001 126.849C388.136 124.395 386.65 122.208 384.688 120.499ZM230.5 146.062L307.75 81.9995L353.063 123.749L230.5 146.062ZM200.5 141.874L67.5002 32.8745L282.688 72.562L200.5 141.874ZM212.5 170.437L348.625 148.499L193 335.999L212.5 170.437ZM49.4377 43.7494L189.375 162.499L169.125 336.124L49.4377 43.7494Z" fill="#FF060A"/>
    </g>
    <defs>
        <clipPath id="clip0">
            <rect width="400" height="400" fill="white"/>
        </clipPath>
    </defs>
</svg>
