<svg width="546" height="562" viewBox="0 0 546 562" fill="none" xmlns="http://www.w3.org/2000/svg">
<g filter="url(#filter0_b_822_3894)">
<path opacity="0.5" d="M539.167 465.109L379.22 557.575C371.981 561.778 361.24 562.245 355.169 558.509L4.22014 356.065C-2.08434 352.562 -1.15034 346.258 5.85463 342.055L165.802 249.589C173.04 245.386 183.781 244.919 189.852 248.655L540.568 451.099C547.106 454.835 546.405 461.139 539.167 465.109Z" fill="black"/>
<path d="M545.003 397.161L512.079 391.324L190.084 205.458C183.779 201.956 173.039 202.423 166.034 206.392L16.8276 292.787L0.015625 289.751V306.797C0.015625 309.132 1.41662 311.233 4.21861 312.868L354.934 515.545C361.239 519.048 371.98 518.581 378.985 514.611L538.932 422.145C542.901 419.81 545.003 417.008 544.769 414.206V397.161H545.003Z" fill="url(#paint0_linear_822_3894)"/>
<path d="M539.167 405.1L379.22 497.565C371.981 501.768 361.24 502.235 355.169 498.499L4.22014 296.056C-2.08434 292.553 -1.15034 286.249 5.85463 282.046L165.802 189.58C173.04 185.377 183.781 184.91 189.852 188.646L540.568 391.09C547.106 394.826 546.405 400.897 539.167 405.1Z" fill="url(#paint1_linear_822_3894)"/>
<path d="M539.166 402.998L379.219 495.464C371.981 499.667 361.24 500.134 355.169 496.398L4.21962 293.721C1.88463 292.32 0.483632 290.685 0.250133 288.817C-0.216865 291.386 1.18413 293.954 4.21962 295.822L354.935 498.5C361.24 502.002 371.981 501.535 378.986 497.566L538.933 405.1C543.369 402.532 545.471 399.262 544.77 395.994C544.537 398.562 542.669 400.897 539.166 402.998Z" fill="white"/>
<path d="M539.4 390.389L353.535 497.566L5.62109 296.756L191.72 189.58L539.4 390.389Z" fill="#0F65B2"/>
<path d="M109.995 231.61L85.2438 245.854C84.0763 246.554 82.4418 246.554 81.5078 246.087L81.2743 245.854C80.3403 245.387 80.5738 244.453 81.5078 243.752L106.259 229.509C107.426 228.808 109.061 228.808 109.995 229.275L110.228 229.509C111.162 229.976 110.929 230.91 109.995 231.61Z" fill="#0063AD"/>
<path d="M384.919 398.866C393.768 380.228 349.854 340.862 286.835 310.939C223.815 281.017 165.553 271.868 156.703 290.506C147.854 309.145 191.767 348.511 254.787 378.434C317.807 408.356 376.069 417.504 384.919 398.866Z" fill="white"/>
<path d="M384.496 398.666C393.291 380.145 349.521 340.962 286.734 311.15C223.947 281.338 165.919 272.185 157.125 290.707C148.33 309.228 192.1 348.411 254.887 378.223C317.674 408.035 375.702 417.188 384.496 398.666Z" fill="white"/>
<path d="M384.076 398.466C392.871 379.944 349.29 340.852 286.736 311.15C224.182 281.449 166.343 272.386 157.549 290.907C148.754 309.429 192.335 348.521 254.889 378.223C317.443 407.924 375.282 416.987 384.076 398.466Z" fill="white"/>
<path d="M383.654 398.265C392.393 379.86 348.956 340.952 286.635 311.361C224.314 281.77 166.709 272.702 157.97 291.107C149.231 309.512 192.668 348.421 254.989 378.012C317.31 407.603 374.915 416.671 383.654 398.265Z" fill="white"/>
<path d="M383.232 398.066C391.915 379.777 348.623 341.053 286.535 311.572C224.447 282.092 167.075 273.019 158.391 291.308C149.707 309.597 193 348.321 255.088 377.801C317.176 407.281 374.548 416.354 383.232 398.066Z" fill="#FEFFFF"/>
<path d="M382.597 397.764C391.281 379.476 348.271 340.886 286.533 311.572C224.794 282.257 167.706 273.319 159.022 291.608C150.338 309.896 193.348 348.486 255.086 377.801C316.825 407.115 373.913 416.053 382.597 397.764Z" fill="#FEFEFF"/>
<path d="M382.175 397.564C390.803 379.392 347.938 340.986 286.432 311.782C224.927 282.579 168.072 273.636 159.443 291.808C150.815 309.98 193.68 348.386 255.186 377.589C316.692 406.793 373.546 415.736 382.175 397.564Z" fill="#FEFEFF"/>
<path d="M381.755 397.364C390.383 379.192 347.707 340.876 286.434 311.783C225.161 282.69 168.496 273.837 159.867 292.009C151.239 310.181 193.915 348.497 255.188 377.59C316.461 406.683 373.126 415.536 381.755 397.364Z" fill="#FEFEFE"/>
<path d="M381.333 397.163C389.906 379.108 347.373 340.976 286.333 311.993C225.294 283.011 168.862 274.153 160.289 292.208C151.715 310.264 194.248 348.396 255.288 377.378C316.327 406.361 372.759 415.219 381.333 397.163Z" fill="#FDFEFE"/>
<path d="M380.91 396.964C389.428 379.025 347.039 341.077 286.233 312.205C225.426 283.333 169.228 274.47 160.71 292.409C152.192 310.349 194.581 348.296 255.387 377.168C316.194 406.04 372.392 414.903 380.91 396.964Z" fill="#FDFDFE"/>
<path d="M380.49 396.763C389.008 378.824 346.808 340.966 286.235 312.205C225.661 283.444 169.651 274.671 161.134 292.61C152.616 310.549 194.816 348.407 255.389 377.168C315.963 405.929 371.973 414.703 380.49 396.763Z" fill="#FDFDFE"/>
<path d="M380.068 396.563C388.53 378.74 346.475 341.066 286.134 312.416C225.793 283.765 170.017 274.987 161.555 292.81C153.093 310.632 195.148 348.306 255.489 376.957C315.83 405.608 371.606 414.386 380.068 396.563Z" fill="#FCFDFE"/>
<path d="M379.69 396.226C371.284 413.972 315.711 405.332 255.701 376.846C195.692 348.359 153.896 310.765 162.302 293.019C170.708 275.273 226.281 283.913 286.29 312.4C346.299 341.12 388.096 378.48 379.69 396.226Z" fill="#FCFDFE"/>
<path d="M379.013 396.062C387.42 378.356 345.792 341 286.034 312.626C226.275 284.252 171.016 275.604 162.609 293.31C154.202 311.016 195.83 348.372 255.589 376.746C315.347 405.12 370.606 413.768 379.013 396.062Z" fill="#FBFCFE"/>
<path d="M378.591 395.862C386.942 378.272 345.458 341.101 285.933 312.838C226.408 284.574 171.382 275.921 163.031 293.511C154.679 311.101 196.163 348.272 255.688 376.535C315.214 404.799 370.239 413.452 378.591 395.862Z" fill="#FBFCFD"/>
<path d="M378.169 395.662C386.521 378.072 345.225 340.99 285.933 312.837C226.641 284.685 171.804 276.122 163.452 293.711C155.101 311.301 196.396 348.382 255.688 376.535C314.981 404.688 369.817 413.251 378.169 395.662Z" fill="#FBFCFD"/>
<path d="M377.746 395.461C386.043 377.988 344.892 341.091 285.832 313.048C226.773 285.006 172.17 276.438 163.874 293.911C155.577 311.385 196.729 348.282 255.788 376.324C314.847 404.366 369.45 412.934 377.746 395.461Z" fill="#FAFBFD"/>
<path d="M377.324 395.261C385.565 377.905 344.558 341.191 285.732 313.26C226.905 285.328 172.536 276.755 164.295 294.112C156.054 311.469 197.061 348.182 255.888 376.114C314.714 404.045 369.083 412.618 377.324 395.261Z" fill="#FAFBFD"/>
<path d="M376.904 395.061C385.145 377.704 344.327 341.08 285.734 313.26C227.14 285.439 172.96 276.956 164.719 294.312C156.478 311.669 197.296 348.293 255.89 376.114C314.483 403.935 368.663 412.418 376.904 395.061Z" fill="#F9FBFD"/>
<path d="M376.482 394.861C384.668 377.62 343.993 341.181 285.633 313.47C227.273 285.76 173.326 277.272 165.14 294.512C156.954 311.753 197.629 348.192 255.989 375.903C314.35 403.613 368.296 412.101 376.482 394.861Z" fill="#F9FAFC"/>
<path d="M376.06 394.66C384.19 377.536 343.66 341.281 285.532 313.681C227.405 286.081 173.692 277.589 165.562 294.712C157.431 311.836 197.961 348.092 256.089 375.691C314.216 403.291 367.929 411.784 376.06 394.66Z" fill="#F8FAFC"/>
<path d="M375.64 394.46C383.77 377.336 343.429 341.17 285.534 313.681C227.64 286.192 174.116 277.789 165.985 294.913C157.855 312.036 198.196 348.202 256.091 375.691C313.985 403.181 367.509 411.583 375.64 394.46Z" fill="#F8FAFC"/>
<path d="M375.006 394.159C383.082 377.152 342.979 341.215 285.434 313.891C227.889 286.568 174.693 278.206 166.618 295.213C158.542 312.22 198.646 348.157 256.19 375.48C313.735 402.803 366.931 411.166 375.006 394.159Z" fill="#F7F9FC"/>
<path d="M374.583 393.959C382.658 376.952 342.744 341.105 285.432 313.892C228.12 286.68 175.113 278.406 167.038 295.414C158.962 312.421 198.877 348.268 256.189 375.481C313.501 402.693 366.507 410.966 374.583 393.959Z" fill="#F7F9FC"/>
<path d="M374.16 393.758C382.18 376.868 342.41 341.204 285.331 314.102C228.252 287.001 175.479 278.723 167.459 295.613C159.439 312.504 199.209 348.167 256.288 375.269C313.367 402.371 366.14 410.649 374.16 393.758Z" fill="#F6F9FB"/>
<path d="M373.738 393.559C381.703 376.785 342.076 341.306 285.23 314.314C228.384 287.323 175.845 279.04 167.88 295.815C159.916 312.589 199.542 348.068 256.388 375.059C313.234 402.05 365.773 410.333 373.738 393.559Z" fill="#F6F8FB"/>
<path d="M373.318 393.358C381.283 376.584 341.845 341.195 285.232 314.314C228.619 287.433 176.269 279.241 168.304 296.015C160.339 312.789 199.777 348.178 256.39 375.059C313.003 401.94 365.354 410.133 373.318 393.358Z" fill="#F5F8FB"/>
<path d="M372.896 393.158C380.805 376.5 341.512 341.295 285.132 314.524C228.752 287.754 176.635 279.557 168.725 296.214C160.816 312.872 200.109 348.077 256.489 374.848C312.87 401.618 364.986 409.815 372.896 393.158Z" fill="#F5F7FB"/>
<path d="M372.473 392.958C380.327 376.417 341.178 341.396 285.031 314.736C228.884 288.077 177.001 279.874 169.147 296.416C161.293 312.957 200.442 347.978 256.589 374.637C312.736 401.297 364.619 409.499 372.473 392.958Z" fill="#F4F7FB"/>
<path d="M372.054 392.758C379.908 376.216 340.947 341.285 285.033 314.736C229.119 288.187 177.425 280.075 169.571 296.616C161.717 313.157 200.677 348.089 256.591 374.637C312.505 401.186 364.2 409.299 372.054 392.758Z" fill="#F4F7FA"/>
<path d="M371.42 392.457C379.219 376.032 340.497 341.33 284.932 314.947C229.368 288.564 178.002 280.491 170.203 296.916C162.404 313.341 201.126 348.043 256.691 374.426C312.255 400.809 363.622 408.882 371.42 392.457Z" fill="#F3F6FA"/>
<path d="M370.997 392.256C378.795 375.831 340.262 341.219 284.931 314.946C229.599 288.674 178.422 280.691 170.623 297.116C162.824 313.541 201.357 348.153 256.689 374.426C312.021 400.698 363.198 408.681 370.997 392.256Z" fill="#F2F6FA"/>
<path d="M370.574 392.056C378.318 375.748 339.929 341.319 284.83 315.158C229.731 288.996 178.788 281.008 171.044 297.316C163.301 313.625 201.69 348.053 256.789 374.215C311.887 400.377 362.831 408.365 370.574 392.056Z" fill="#F2F5FA"/>
<path d="M370.154 391.856C377.842 375.665 339.597 341.42 284.731 315.369C229.865 289.318 179.156 281.325 171.467 297.517C163.779 313.709 202.024 347.954 256.89 374.005C311.756 400.056 362.466 408.048 370.154 391.856Z" fill="#F1F5F9"/>
<path d="M369.732 391.655C377.42 375.464 339.364 341.309 284.731 315.368C230.098 289.428 179.577 281.525 171.889 297.717C164.201 313.909 202.257 348.064 256.89 374.004C311.523 399.944 362.044 407.847 369.732 391.655Z" fill="#F1F4F9"/>
<path d="M369.31 391.455C376.943 375.38 339.03 341.409 284.631 315.579C230.231 289.749 179.943 281.842 172.311 297.917C164.678 313.992 202.59 347.963 256.99 373.793C311.39 399.623 361.677 407.53 369.31 391.455Z" fill="#F0F4F9"/>
<path d="M368.887 391.255C376.465 375.296 338.697 341.509 284.53 315.79C230.363 290.071 180.309 282.158 172.732 298.117C165.154 314.076 202.923 347.863 257.089 373.582C311.256 399.301 361.31 407.213 368.887 391.255Z" fill="#EFF4F9"/>
<path d="M368.468 391.055C376.045 375.096 338.466 341.399 284.532 315.791C230.598 290.182 180.733 282.36 173.156 298.318C165.578 314.277 203.158 347.974 257.091 373.583C311.025 399.191 360.89 407.014 368.468 391.055Z" fill="#EFF3F8"/>
<path d="M367.834 390.754C375.356 374.912 338.016 341.444 284.431 316.001C230.847 290.558 181.31 282.776 173.788 298.618C166.266 314.46 203.607 347.929 257.191 373.371C310.775 398.814 360.312 406.596 367.834 390.754Z" fill="#EEF3F8"/>
<path d="M367.412 390.554C374.879 374.828 337.682 341.544 284.331 316.212C230.979 290.88 181.676 283.093 174.209 298.819C166.743 314.545 203.939 347.829 257.291 373.161C310.642 398.493 359.945 406.28 367.412 390.554Z" fill="#EEF2F8"/>
<path d="M367.079 390.389C359.607 406.034 310.573 398.328 257.335 373.11C204.097 347.892 167.204 314.735 174.676 299.091C182.148 283.447 231.183 291.152 284.421 316.37C337.659 341.588 374.551 374.745 367.079 390.389Z" fill="#EDF2F8"/>
<path d="M366.57 390.154C373.981 374.544 337.117 341.534 284.232 316.423C231.347 291.313 182.466 283.61 175.055 299.22C167.643 314.829 204.507 347.839 257.392 372.95C310.278 398.061 359.158 405.763 366.57 390.154Z" fill="#ECF1F7"/>
<path d="M366.146 389.953C373.558 374.344 336.883 341.424 284.23 316.423C231.578 291.423 182.886 283.81 175.474 299.42C168.063 315.029 204.738 347.95 257.39 372.95C310.043 397.95 358.734 405.563 366.146 389.953Z" fill="#ECF1F7"/>
<path d="M365.724 389.753C373.08 374.26 336.549 341.524 284.129 316.634C231.71 291.745 183.252 284.127 175.896 299.62C168.54 315.113 205.071 347.849 257.49 372.739C309.91 397.628 358.367 405.246 365.724 389.753Z" fill="#EBF0F7"/>
<path d="M365.301 389.553C372.602 374.177 336.215 341.624 284.029 316.845C231.842 292.067 183.618 284.444 176.317 299.821C169.016 315.197 205.403 347.749 257.59 372.528C309.776 397.307 358 404.93 365.301 389.553Z" fill="#EAF0F6"/>
<path d="M364.881 389.352C372.182 373.976 335.984 341.513 284.031 316.845C232.077 292.176 184.042 284.644 176.741 300.02C169.44 315.397 205.638 347.859 257.592 372.527C309.545 397.196 357.581 404.728 364.881 389.352Z" fill="#EAEFF6"/>
<path d="M364.248 389.051C371.494 373.791 335.534 341.558 283.93 317.055C232.326 292.553 184.619 285.06 177.373 300.32C170.128 315.58 206.087 347.814 257.691 372.316C309.295 396.819 357.003 404.311 364.248 389.051Z" fill="#E9EFF6"/>
<path d="M363.826 388.852C371.016 373.708 335.201 341.659 283.829 317.267C232.458 292.875 184.985 285.378 177.795 300.521C170.604 315.665 206.42 347.714 257.791 372.106C309.162 396.498 356.636 403.995 363.826 388.852Z" fill="#E8EEF6"/>
<path d="M363.404 388.651C370.594 373.507 334.968 341.547 283.829 317.266C232.691 292.985 185.407 285.578 178.216 300.721C171.026 315.864 206.653 347.824 257.791 372.106C308.929 396.387 356.214 403.794 363.404 388.651Z" fill="#E7EEF5"/>
<path d="M363.109 388.521C355.871 403.465 308.937 396.226 258.035 371.942C207.132 347.658 171.64 315.903 178.878 300.959C186.117 286.015 233.05 293.253 283.953 317.537C334.856 341.588 370.348 373.343 363.109 388.521Z" fill="#E7EDF5"/>
<path d="M362.56 388.251C369.695 373.224 334.401 341.538 283.729 317.478C233.057 293.418 186.195 286.095 179.06 301.122C171.925 316.149 207.219 347.835 257.891 371.895C308.563 395.955 355.425 403.278 362.56 388.251Z" fill="#E6EDF5"/>
<path d="M362.138 388.051C369.217 373.14 334.067 341.638 283.628 317.689C233.189 293.74 186.561 286.412 179.481 301.323C172.401 316.233 207.551 347.735 257.99 371.684C308.43 395.634 355.058 402.961 362.138 388.051Z" fill="#E5ECF4"/>
<path d="M361.717 387.851C368.742 373.057 333.736 341.739 283.53 317.9C233.323 294.061 186.929 286.729 179.904 301.523C172.88 316.317 207.886 347.635 258.092 371.474C308.298 395.312 354.693 402.645 361.717 387.851Z" fill="#E5ECF4"/>
<path d="M361.295 387.65C368.32 372.856 333.503 341.628 283.53 317.9C233.556 294.172 187.351 286.929 180.326 301.723C173.302 316.517 208.119 347.746 258.092 371.474C308.065 395.202 354.271 402.444 361.295 387.65Z" fill="#E4EBF4"/>
<path d="M360.662 387.35C367.631 372.672 333.053 341.673 283.429 318.111C233.805 294.549 187.928 287.346 180.958 302.024C173.989 316.701 208.568 347.7 258.192 371.263C307.815 394.825 353.693 402.027 360.662 387.35Z" fill="#E3EBF4"/>
<path d="M360.242 387.149C367.156 372.588 332.721 341.773 283.33 318.322C233.939 294.87 188.296 287.663 181.382 302.224C174.468 316.785 208.902 347.6 258.293 371.052C307.684 394.503 353.328 401.71 360.242 387.149Z" fill="#E2EAF3"/>
<path d="M359.82 386.949C366.734 372.388 332.488 341.662 283.33 318.322C234.172 294.981 188.717 287.863 181.804 302.424C174.89 316.985 209.135 347.711 258.293 371.052C307.451 394.392 352.906 401.51 359.82 386.949Z" fill="#E2EAF3"/>
<path d="M359.398 386.748C366.256 372.303 332.155 341.762 283.23 318.532C234.305 295.302 189.083 288.179 182.225 302.624C175.367 317.068 209.468 347.61 258.393 370.84C307.318 394.07 352.539 401.192 359.398 386.748Z" fill="#E1E9F3"/>
<path d="M358.976 386.549C365.834 372.104 331.922 341.652 283.23 318.533C234.538 295.413 189.505 288.38 182.647 302.825C175.788 317.269 209.701 347.721 258.393 370.841C307.085 393.96 352.117 400.993 358.976 386.549Z" fill="#E0E8F2"/>
<path d="M358.554 386.348C365.357 372.02 331.588 341.752 283.129 318.743C234.67 295.734 189.871 288.697 183.068 303.025C176.265 317.353 210.034 347.62 258.493 370.629C306.952 393.638 351.75 400.676 358.554 386.348Z" fill="#DFE8F2"/>
<path d="M358.207 386.186C351.436 400.429 306.837 393.424 258.737 370.541C210.636 347.658 177.012 317.537 183.783 303.294C190.555 289.05 235.153 296.055 283.254 318.938C331.355 341.821 364.979 371.942 358.207 386.186Z" fill="#DFE7F2"/>
<path d="M357.709 385.947C364.457 371.736 331.021 341.742 283.028 318.954C235.035 296.166 190.659 289.214 183.911 303.426C177.164 317.637 210.599 347.631 258.592 370.419C306.585 393.206 350.961 400.159 357.709 385.947Z" fill="#DEE7F1"/>
<path d="M357.273 385.719C350.502 399.729 306.37 392.957 258.737 370.308C211.103 347.659 177.712 317.771 184.484 303.761C191.255 289.751 235.387 296.522 283.02 319.172C330.654 341.821 364.045 371.709 357.273 385.719Z" fill="#DDE6F1"/>
<path d="M356.656 385.446C363.293 371.468 330.24 341.887 282.829 319.376C235.419 296.865 191.604 289.947 184.967 303.926C178.33 317.904 211.383 347.485 258.794 369.996C306.204 392.508 350.018 399.425 356.656 385.446Z" fill="#DCE6F1"/>
<path d="M356.234 385.246C362.871 371.268 330.007 341.777 282.829 319.376C235.652 296.976 192.026 290.148 185.389 304.127C178.752 318.105 211.616 347.596 258.794 369.997C305.971 392.397 349.597 399.225 356.234 385.246Z" fill="#DCE5F0"/>
<path d="M355.812 385.046C362.393 371.184 329.673 341.877 282.728 319.587C235.784 297.297 192.392 290.465 185.81 304.327C179.228 318.189 211.949 347.496 258.893 369.786C305.838 392.076 349.23 398.908 355.812 385.046Z" fill="#DBE4F0"/>
<path d="M355.406 384.785C348.868 398.561 305.671 391.79 258.971 369.607C212.271 347.425 179.815 318.237 186.353 304.461C192.891 290.684 236.088 297.456 282.788 319.638C329.488 341.821 361.944 371.008 355.406 384.785Z" fill="#DAE4F0"/>
<path d="M354.967 384.646C361.494 370.9 329.106 341.867 282.628 319.798C236.149 297.729 193.18 290.982 186.653 304.728C180.127 318.473 212.514 347.506 258.993 369.575C305.472 391.644 348.441 398.391 354.967 384.646Z" fill="#D9E3EF"/>
<path d="M354.705 384.318C348.167 398.094 305.437 391.323 259.204 369.374C212.971 347.425 180.748 318.471 187.286 304.928C193.824 291.152 236.554 297.923 282.787 319.872C328.786 341.821 361.009 370.775 354.705 384.318Z" fill="#D8E3EF"/>
<path d="M354.123 384.245C360.595 370.616 328.54 341.856 282.527 320.009C236.515 298.161 193.968 291.499 187.497 305.128C181.025 318.757 213.08 347.517 259.093 369.364C305.105 391.212 347.652 397.874 354.123 384.245Z" fill="#D7E2EF"/>
<path d="M353.701 384.044C360.117 370.531 328.206 341.956 282.427 320.219C236.647 298.482 194.334 291.815 187.918 305.328C181.502 318.84 213.413 347.416 259.192 369.153C304.972 390.889 347.285 397.557 353.701 384.044Z" fill="#D7E1EE"/>
<path d="M353.07 383.744C359.43 370.348 327.758 342.001 282.328 320.43C236.898 298.859 194.913 292.232 188.552 305.628C182.191 319.025 213.864 347.371 259.294 368.942C304.724 390.513 346.709 397.14 353.07 383.744Z" fill="#D6E1EE"/>
<path d="M352.648 383.544C359.008 370.148 327.525 341.891 282.328 320.431C237.131 298.97 195.335 292.433 188.974 305.829C182.613 319.225 214.097 347.482 259.294 368.942C304.491 390.403 346.287 396.94 352.648 383.544Z" fill="#D5E0EE"/>
<path d="M352.368 383.384C346.064 396.694 304.501 390.156 259.435 368.674C214.37 347.425 183.081 319.172 189.386 305.862C195.69 292.553 237.253 299.091 282.318 320.573C327.384 342.055 358.673 370.075 352.368 383.384Z" fill="#D4E0ED"/>
<path d="M351.804 383.143C358.109 369.863 326.959 341.881 282.227 320.641C237.496 299.402 196.123 292.95 189.817 306.23C183.512 319.509 214.662 347.492 259.394 368.731C304.125 389.97 345.498 396.423 351.804 383.143Z" fill="#D3DFED"/>
<path d="M351.383 382.943C357.633 369.78 326.627 341.981 282.129 320.852C237.63 299.724 196.491 293.267 190.241 306.43C183.99 319.593 214.997 347.392 259.495 368.52C303.994 389.649 345.133 396.106 351.383 382.943Z" fill="#D2DEED"/>
<path d="M350.968 382.683C344.664 395.759 303.801 389.221 259.67 368.44C215.539 347.658 184.483 319.638 190.788 306.562C197.092 293.486 237.955 300.024 282.086 320.806C326.451 342.054 357.273 369.607 350.968 382.683Z" fill="#D2DEEC"/>
<path d="M350.537 382.542C356.732 369.496 326.058 341.971 282.026 321.063C237.994 300.156 197.277 293.784 191.082 306.831C184.887 319.877 215.561 347.402 259.593 368.309C303.625 389.217 344.342 395.589 350.537 382.542Z" fill="#D1DDEC"/>
<path d="M350.033 382.216C343.962 395.059 303.333 388.754 259.668 367.973C216.004 347.192 185.416 319.872 191.487 307.03C197.558 294.187 238.187 300.492 281.851 321.273C325.749 342.055 356.337 369.374 350.033 382.216Z" fill="#D0DCEC"/>
<path d="M349.567 381.983C343.496 394.825 303.335 388.521 259.67 367.973C216.006 347.425 185.884 320.106 191.955 307.263C198.026 294.421 238.188 300.725 281.853 321.273C325.517 342.055 355.872 369.14 349.567 381.983Z" fill="#CFDCEB"/>
<path d="M349.062 381.841C355.146 369.028 325.044 342.005 281.827 321.485C238.61 300.965 198.643 294.718 192.559 307.532C186.475 320.345 216.577 347.368 259.794 367.888C303.011 388.408 342.978 394.655 349.062 381.841Z" fill="#CEDBEB"/>
<path d="M348.641 381.642C354.67 368.945 324.712 342.107 281.728 321.697C238.744 301.288 199.011 295.036 192.983 307.733C186.954 320.43 216.912 347.268 259.896 367.678C302.88 388.087 342.613 394.339 348.641 381.642Z" fill="#CDDBEB"/>
<path d="M348.4 381.516C342.329 394.125 302.867 388.054 260.137 367.74C217.407 347.425 187.519 320.806 193.59 308.197C199.661 295.588 239.122 301.659 281.853 321.974C324.583 342.055 354.237 368.907 348.4 381.516Z" fill="#CCDAEA"/>
<path d="M347.797 381.241C353.771 368.66 324.146 342.096 281.627 321.907C239.109 301.719 199.799 295.552 193.826 308.133C187.852 320.713 217.477 347.278 259.996 367.466C302.514 387.654 341.824 393.821 347.797 381.241Z" fill="#CCD9EA"/>
<path d="M347.375 381.04C353.293 368.576 323.812 342.195 281.527 322.118C239.242 302.04 200.165 295.868 194.247 308.332C188.329 320.797 217.81 347.177 260.095 367.255C302.38 387.332 341.457 393.504 347.375 381.04Z" fill="#CBD9E9"/>
<path d="M346.953 380.839C352.871 368.375 323.579 342.085 281.527 322.118C239.475 302.151 200.587 296.068 194.669 308.533C188.751 320.997 218.043 347.287 260.095 367.254C302.147 387.221 341.035 393.304 346.953 380.839Z" fill="#CAD8E9"/>
<path d="M346.531 380.639C352.394 368.292 323.245 342.185 281.426 322.329C239.607 302.473 200.953 296.386 195.09 308.733C189.227 321.081 218.376 347.188 260.195 367.044C302.014 386.9 340.668 392.987 346.531 380.639Z" fill="#C9D7E9"/>
<path d="M346.063 380.349C340.226 392.724 301.932 386.653 260.369 366.806C218.806 347.192 189.852 321.04 195.69 308.898C201.527 296.522 239.821 302.593 281.384 322.441C322.947 342.288 351.901 368.207 346.063 380.349Z" fill="#C8D7E8"/>
<path d="M345.478 380.138C351.285 367.907 322.564 342.119 281.328 322.54C240.091 302.96 201.954 297.003 196.146 309.234C190.339 321.465 219.06 347.253 260.296 366.833C301.533 386.412 339.67 392.37 345.478 380.138Z" fill="#C7D6E8"/>
<path d="M345.055 379.938C350.808 367.823 322.231 342.219 281.227 322.75C240.223 303.281 202.32 297.319 196.568 309.434C190.815 321.549 219.392 347.152 260.396 366.622C301.4 386.091 339.303 392.053 345.055 379.938Z" fill="#C6D5E8"/>
<path d="M344.633 379.737C350.33 367.739 321.897 342.319 281.126 322.961C240.355 303.602 202.686 297.635 196.989 309.634C191.292 321.632 219.725 347.052 260.496 366.41C301.267 385.769 338.936 391.735 344.633 379.737Z" fill="#C5D5E7"/>
<path d="M344.198 379.648C338.594 391.556 301.001 385.719 260.606 366.572C219.977 347.425 191.723 321.974 197.561 310.065C203.165 298.157 240.758 303.994 281.153 323.141C321.782 342.288 350.036 367.506 344.198 379.648Z" fill="#C4D4E7"/>
<path d="M343.789 379.338C349.43 367.456 321.33 342.31 281.026 323.173C240.721 304.036 203.474 298.154 197.832 310.036C192.191 321.917 220.291 347.063 260.595 366.2C300.9 385.338 338.147 391.22 343.789 379.338Z" fill="#C3D3E6"/>
<path d="M343.498 379.181C337.894 391.09 300.767 385.252 260.839 366.105C220.911 347.192 192.891 321.974 198.495 310.299C204.099 298.391 241.225 304.228 281.154 323.375C321.082 342.288 349.102 367.273 343.498 379.181Z" fill="#C2D3E6"/>
<path d="M342.947 378.937C348.533 367.172 320.766 342.3 280.927 323.384C241.088 304.468 204.264 298.671 198.677 310.436C193.091 322.202 220.858 347.074 260.697 365.99C300.536 384.906 337.36 390.703 342.947 378.937Z" fill="#C1D2E6"/>
<path d="M342.563 378.714C336.959 390.389 300.534 384.552 260.839 365.872C221.144 347.192 193.824 322.441 199.195 310.766C204.799 299.091 241.225 304.928 280.92 323.608C320.615 342.288 348.167 367.039 342.563 378.714Z" fill="#C1D1E5"/>
<path d="M341.892 378.436C347.423 366.788 320.083 342.234 280.826 323.595C241.57 304.955 205.263 299.288 199.732 310.937C194.201 322.586 221.54 347.139 260.797 365.779C300.053 384.418 336.361 390.085 341.892 378.436Z" fill="#C0D1E5"/>
<path d="M341.469 378.236C346.945 366.704 319.749 342.334 280.726 323.805C241.702 305.277 205.629 299.605 200.153 311.137C194.677 322.669 221.873 347.039 260.896 365.568C299.92 384.096 335.993 389.768 341.469 378.236Z" fill="#BFD0E5"/>
<path d="M341.047 378.036C346.467 366.62 319.415 342.435 280.625 324.017C241.835 305.598 205.995 299.922 200.574 311.338C195.154 322.753 222.206 346.939 260.996 365.357C299.787 383.775 335.626 389.452 341.047 378.036Z" fill="#BECFE4"/>
<path d="M340.625 377.835C346.045 366.419 319.183 342.324 280.625 324.016C242.068 305.708 206.417 300.122 200.996 311.537C195.576 322.953 222.439 347.049 260.996 365.356C299.554 383.664 335.205 389.251 340.625 377.835Z" fill="#BDCEE4"/>
<path d="M340.203 377.635C345.568 366.336 318.849 342.424 280.524 324.227C242.2 306.03 206.783 300.438 201.417 311.738C196.052 323.037 222.771 346.948 261.096 365.145C299.42 383.342 334.838 388.934 340.203 377.635Z" fill="#BCCEE3"/>
<path d="M339.759 377.313C334.389 388.521 299.13 383.151 261.07 364.938C223.01 346.958 196.391 323.141 201.761 311.933C207.132 300.725 242.39 306.096 280.45 324.309C318.744 342.288 345.13 366.105 339.759 377.313Z" fill="#BBCDE3"/>
<path d="M339.361 377.234C344.67 366.051 318.284 342.413 280.426 324.437C242.567 306.462 207.572 300.955 202.263 312.138C196.953 323.321 223.339 346.958 261.197 364.934C299.056 382.91 334.051 388.417 339.361 377.234Z" fill="#BACCE3"/>
<path d="M338.938 377.034C344.193 365.967 317.951 342.514 280.325 324.648C242.7 306.783 207.938 301.272 202.684 312.338C197.43 323.404 223.671 346.858 261.297 364.723C298.923 382.588 333.684 388.1 338.938 377.034Z" fill="#B9CCE2"/>
<path d="M338.593 376.846C333.456 387.821 298.898 382.45 261.538 364.704C224.178 346.958 198.26 323.608 203.397 312.634C208.534 301.659 243.092 307.03 280.452 324.776C317.812 342.522 343.73 365.638 338.593 376.846Z" fill="#B8CBE2"/>
<path d="M337.883 376.534C343.082 365.584 317.268 342.449 280.225 324.86C243.181 307.272 208.937 301.89 203.738 312.84C198.539 323.79 224.354 346.925 261.397 364.513C298.44 382.102 332.684 387.484 337.883 376.534Z" fill="#B7CAE1"/>
<path d="M337.659 376.379C332.522 387.353 298.431 381.983 261.538 364.47C224.645 346.958 198.96 324.075 204.097 313.1C209.234 302.126 243.325 307.496 280.218 325.009C317.111 342.521 342.796 365.404 337.659 376.379Z" fill="#B6C9E1"/>
<path d="M337.041 376.134C342.185 365.3 316.703 342.439 280.126 325.072C243.549 307.704 209.727 302.408 204.583 313.241C199.439 324.074 224.921 346.935 261.498 364.303C298.076 381.67 331.897 386.967 337.041 376.134Z" fill="#B5C9E1"/>
<path d="M336.619 375.933C341.707 365.216 316.369 342.539 280.025 325.282C243.681 308.025 210.093 302.724 205.005 313.441C199.916 324.157 225.254 346.835 261.598 364.091C297.942 381.348 331.53 386.65 336.619 375.933Z" fill="#B4C8E0"/>
<path d="M336.197 375.732C341.285 365.015 316.136 342.428 280.025 325.282C243.914 308.135 210.515 302.923 205.426 313.64C200.338 324.357 225.487 346.945 261.598 364.091C297.709 381.237 331.108 386.449 336.197 375.732Z" fill="#B3C7E0"/>
<path d="M335.792 375.445C330.655 385.953 297.731 380.816 261.772 363.77C226.047 346.725 201.062 324.309 205.966 313.801C211.103 303.294 244.026 308.431 279.985 325.476C315.944 342.522 340.928 364.938 335.792 375.445Z" fill="#B2C7DF"/>
<path d="M335.352 375.332C340.33 364.848 315.469 342.629 279.824 325.704C244.179 308.779 211.247 303.558 206.269 314.042C201.291 324.526 226.152 346.745 261.797 363.67C297.443 380.595 330.374 385.816 335.352 375.332Z" fill="#B1C6DF"/>
<path d="M334.719 375.03C339.697 364.546 315.12 342.462 279.824 325.703C244.528 308.944 211.88 303.857 206.902 314.341C201.924 324.825 226.502 346.909 261.797 363.668C297.093 380.427 329.741 385.514 334.719 375.03Z" fill="#B0C5DE"/>
<path d="M334.297 374.831C339.22 364.464 314.786 342.563 279.723 325.915C244.66 309.267 212.246 304.175 207.323 314.542C202.401 324.91 226.834 346.81 261.897 363.459C296.96 380.107 329.374 385.199 334.297 374.831Z" fill="#AFC4DE"/>
<path d="M333.875 374.63C338.742 364.379 314.453 342.663 279.623 326.125C244.793 309.588 212.612 304.491 207.745 314.742C202.877 324.993 227.167 346.709 261.997 363.247C296.827 379.785 329.007 384.881 333.875 374.63Z" fill="#AEC4DE"/>
<path d="M333.455 374.511C328.552 384.785 296.562 379.648 262.004 363.303C227.446 346.958 203.396 325.242 208.066 314.968C212.97 304.694 244.959 309.831 279.517 326.176C314.308 342.521 338.359 364.237 333.455 374.511Z" fill="#ADC3DD"/>
<path d="M333.223 374.278C328.319 384.318 296.563 379.415 262.239 363.07C227.914 346.725 203.864 325.243 208.767 315.202C213.671 305.162 245.427 310.065 279.751 326.41C314.076 342.522 337.893 364.004 333.223 374.278Z" fill="#ACC2DD"/>
<path d="M332.611 374.029C337.423 363.895 313.655 342.542 279.524 326.336C245.393 310.13 213.824 305.208 209.012 315.342C204.2 325.477 227.967 346.83 262.098 363.036C296.229 379.242 327.799 384.163 332.611 374.029Z" fill="#ABC1DC"/>
<path d="M332.188 373.83C336.945 363.812 313.321 342.643 279.423 326.548C245.525 310.453 214.19 305.526 209.433 315.544C204.676 325.562 228.3 346.731 262.198 362.826C296.096 378.921 327.432 383.848 332.188 373.83Z" fill="#AAC1DC"/>
<path d="M331.766 373.629C336.467 363.728 312.988 342.743 279.323 326.758C245.658 310.774 214.556 305.842 209.854 315.744C205.153 325.645 228.633 346.63 262.298 362.615C295.963 378.599 327.065 383.531 331.766 373.629Z" fill="#A9C0DC"/>
<path d="M331.133 373.329C335.835 363.428 312.638 342.577 279.323 326.759C246.007 310.94 215.189 306.143 210.487 316.044C205.786 325.946 228.982 346.796 262.298 362.615C295.613 378.434 326.432 383.23 331.133 373.329Z" fill="#A8BFDB"/>
<path d="M330.888 373.11C326.218 382.917 295.629 378.013 262.472 362.369C229.316 346.724 206.199 325.943 210.869 316.136C215.539 306.329 246.128 311.233 279.284 326.877C312.441 342.755 335.558 363.303 330.888 373.11Z" fill="#A7BEDB"/>
<path d="M330.291 372.928C334.881 363.26 311.973 342.778 279.123 327.18C246.274 311.583 215.923 306.776 211.332 316.445C206.741 326.113 229.649 346.595 262.499 362.193C295.348 377.79 325.7 382.597 330.291 372.928Z" fill="#A6BEDA"/>
<path d="M329.954 372.642C325.284 382.216 295.163 377.546 262.473 362.135C229.783 346.724 207.133 326.176 211.803 316.603C216.473 307.029 246.595 311.699 279.285 327.11C311.741 342.755 334.624 363.069 329.954 372.642Z" fill="#A5BDDA"/>
<path d="M329.446 372.527C333.982 362.975 311.406 342.767 279.023 327.391C246.639 312.015 216.71 307.293 212.175 316.845C207.64 326.397 230.215 346.606 262.599 361.982C294.982 377.358 324.911 382.079 329.446 372.527Z" fill="#A4BCD9"/>
<path d="M329.025 372.327C333.56 362.775 311.173 342.656 279.023 327.391C246.872 312.125 217.132 307.493 212.597 317.045C208.061 326.597 230.448 346.716 262.599 361.982C294.749 377.247 324.489 381.879 329.025 372.327Z" fill="#A3BBD9"/>
<path d="M328.551 372.176C324.115 381.516 294.694 377.079 262.704 361.902C230.715 346.725 208.533 326.877 212.969 317.537C217.405 308.197 246.826 312.634 278.816 327.811C310.805 342.755 333.221 362.602 328.551 372.176Z" fill="#A1BAD8"/>
<path d="M328.086 371.943C323.65 381.283 294.462 376.613 262.706 361.669C231.184 346.725 209.002 326.877 213.438 317.537C217.875 308.197 247.062 312.867 278.818 327.811C310.574 342.755 332.523 362.603 328.086 371.943Z" fill="#A0BAD8"/>
<path d="M327.547 371.626C331.972 362.307 310.157 342.691 278.822 327.813C247.486 312.934 218.497 308.428 214.072 317.747C209.648 327.066 231.463 346.681 262.798 361.56C294.133 376.438 323.122 380.945 327.547 371.626Z" fill="#9FB9D8"/>
<path d="M327.384 371.476C322.948 380.582 294.228 376.146 263.172 361.435C231.883 346.491 210.168 327.111 214.604 318.004C219.041 308.898 247.761 313.334 278.817 328.045C309.872 342.755 331.587 362.369 327.384 371.476Z" fill="#9EB8D7"/>
<path d="M326.706 371.225C331.021 362.139 309.494 342.891 278.624 328.234C247.755 313.577 219.233 309.06 214.919 318.146C210.605 327.232 232.132 346.48 263.001 361.137C293.87 375.794 322.392 380.311 326.706 371.225Z" fill="#9DB7D7"/>
<path d="M326.45 371.008C322.247 380.115 293.76 375.678 263.171 360.968C232.583 346.257 211.101 327.344 215.538 318.237C219.741 309.131 248.227 313.567 278.816 328.278C309.404 342.755 330.653 361.902 326.45 371.008Z" fill="#9CB6D6"/>
<path d="M325.984 370.775C321.781 379.648 293.528 375.445 263.173 360.968C232.818 346.491 211.569 327.578 215.772 318.471C219.975 309.598 248.229 313.801 278.584 328.278C308.939 342.755 330.187 361.902 325.984 370.775Z" fill="#9BB6D6"/>
<path d="M325.518 370.542C321.315 379.415 293.295 374.978 263.174 360.735C233.052 346.491 212.037 327.578 216.24 318.705C220.443 309.832 248.463 314.268 278.584 328.512C308.706 342.755 329.721 361.669 325.518 370.542Z" fill="#9AB5D5"/>
<path d="M325.018 370.425C329.222 361.572 308.36 342.871 278.423 328.657C248.486 314.442 220.809 310.096 216.605 318.949C212.402 327.802 233.263 346.502 263.201 360.717C293.138 374.931 320.815 379.278 325.018 370.425Z" fill="#99B4D5"/>
<path d="M324.583 370.075C320.38 378.948 293.06 374.511 263.406 360.501C233.752 346.491 212.97 327.811 217.173 319.172C221.376 310.299 248.695 314.736 278.35 328.745C308.004 342.755 328.786 361.435 324.583 370.075Z" fill="#98B3D4"/>
<path d="M323.961 369.924C328.109 361.187 307.675 342.806 278.32 328.868C248.966 314.93 221.806 310.713 217.658 319.45C213.509 328.186 233.943 346.568 263.298 360.506C292.653 374.444 319.813 378.661 323.961 369.924Z" fill="#97B2D4"/>
<path d="M323.649 369.841C319.446 378.481 292.594 374.278 263.406 360.268C234.219 346.491 213.904 328.278 218.107 319.639C222.31 310.999 249.163 315.202 278.35 329.212C307.537 342.989 327.852 361.202 323.649 369.841Z" fill="#96B2D4"/>
<path d="M323.181 369.607C319.212 378.247 292.359 374.044 263.405 360.267C234.452 346.491 214.371 328.512 218.34 319.872C222.31 311.233 249.162 315.436 278.116 329.212C307.07 342.988 327.384 360.968 323.181 369.607Z" fill="#94B1D3"/>
<path d="M322.697 369.323C326.734 360.819 306.777 342.895 278.121 329.289C249.465 315.683 222.962 311.546 218.924 320.05C214.886 328.554 234.844 346.477 263.5 360.083C292.156 373.69 318.659 377.826 322.697 369.323Z" fill="#93B0D3"/>
<path d="M322.481 369.141C318.511 377.547 292.126 373.344 263.873 360.034C235.386 346.491 215.538 328.745 219.741 320.339C223.711 311.933 250.096 316.136 278.35 329.446C306.603 342.989 326.45 360.735 322.481 369.141Z" fill="#92AFD2"/>
<path d="M321.854 368.922C325.837 360.534 306.213 342.885 278.022 329.5C249.832 316.115 223.752 312.063 219.769 320.45C215.787 328.837 235.411 346.487 263.601 359.872C291.791 373.257 317.872 377.309 321.854 368.922Z" fill="#91AED2"/>
<path d="M321.432 368.722C325.359 360.451 305.879 342.986 277.922 329.711C249.965 316.437 224.118 312.381 220.191 320.651C216.264 328.922 235.744 346.388 263.701 359.662C291.658 372.936 317.505 376.993 321.432 368.722Z" fill="#90AED1"/>
<path d="M321.01 368.521C324.881 360.367 305.545 343.085 277.821 329.922C250.097 316.758 224.484 312.697 220.612 320.851C216.74 329.005 236.076 346.287 263.8 359.45C291.525 372.614 317.138 376.675 321.01 368.521Z" fill="#8FADD1"/>
<path d="M320.588 368.321C324.46 360.167 305.312 342.975 277.821 329.922C250.33 316.868 224.905 312.897 221.034 321.051C217.162 329.205 236.309 346.397 263.8 359.45C291.292 372.503 316.716 376.475 320.588 368.321Z" fill="#8EACD0"/>
<path d="M320.147 367.973C316.411 375.912 291.193 372.176 264.107 359.1C237.021 346.258 217.874 329.212 221.844 321.273C225.58 313.334 250.797 317.07 277.883 330.146C304.969 342.989 323.883 360.034 320.147 367.973Z" fill="#8DABD0"/>
<path d="M319.534 367.821C323.295 359.9 304.531 343.121 277.622 330.345C250.713 317.568 225.85 313.632 222.089 321.553C218.328 329.474 237.093 346.253 264.002 359.03C290.91 371.806 315.773 375.742 319.534 367.821Z" fill="#8CAACF"/>
<path d="M319.111 367.62C322.872 359.699 304.296 343.01 277.62 330.344C250.944 317.678 226.27 313.831 222.509 321.753C218.748 329.674 237.324 346.363 264 359.029C290.676 371.695 315.349 375.542 319.111 367.62Z" fill="#8AA9CF"/>
<path d="M318.745 367.506C315.009 375.212 290.491 371.476 264.106 358.867C237.721 346.258 219.274 329.679 223.01 321.974C226.746 314.268 251.263 318.004 277.649 330.613C304.034 342.989 322.481 359.567 318.745 367.506Z" fill="#89A9CF"/>
<path d="M318.278 367.272C314.542 374.978 290.491 371.242 264.106 358.866C237.954 346.491 219.741 330.146 223.244 322.207C226.98 314.501 251.03 318.237 277.416 330.613C303.801 342.988 322.014 359.567 318.278 367.272Z" fill="#88A8CE"/>
<path d="M317.846 367.02C321.496 359.332 303.397 343.101 277.421 330.766C251.444 318.432 227.426 314.666 223.776 322.354C220.125 330.042 238.224 346.274 264.201 358.608C290.178 370.942 314.196 374.708 317.846 367.02Z" fill="#87A7CE"/>
<path d="M317.424 366.819C321.019 359.248 303.064 343.2 277.32 330.977C251.576 318.753 227.792 314.982 224.197 322.554C220.602 330.126 238.557 346.173 264.301 358.396C290.045 370.62 313.829 374.391 317.424 366.819Z" fill="#86A6CD"/>
<path d="M317.111 366.572C313.608 374.044 290.025 370.308 264.573 358.399C239.122 346.258 221.376 330.38 224.878 322.908C228.381 315.436 251.964 319.172 277.416 331.08C302.867 343.222 320.613 359.1 317.111 366.572Z" fill="#85A5CD"/>
<path d="M316.642 366.338C313.14 373.81 289.79 370.074 264.572 358.166C239.354 346.258 221.842 330.38 225.344 322.908C228.847 315.436 252.197 319.172 277.415 331.08C302.633 343.222 320.145 358.866 316.642 366.338Z" fill="#84A4CC"/>
<path d="M315.948 366.118C319.433 358.779 302.049 343.235 277.121 331.398C252.192 319.562 229.159 315.916 225.675 323.255C222.19 330.594 239.574 346.138 264.502 357.974C289.43 369.811 312.464 373.457 315.948 366.118Z" fill="#82A4CC"/>
<path d="M315.708 365.871C312.206 373.11 289.323 369.607 264.572 357.932C239.821 346.258 222.542 330.847 226.045 323.375C229.547 316.136 252.43 319.639 277.181 331.314C301.932 342.989 319.211 358.633 315.708 365.871Z" fill="#81A3CB"/>
<path d="M315.106 365.717C318.535 358.495 301.484 343.224 277.022 331.609C252.56 319.994 229.949 316.433 226.52 323.655C223.09 330.877 240.141 346.148 264.604 357.763C289.066 369.378 311.677 372.939 315.106 365.717Z" fill="#80A2CB"/>
<path d="M314.776 365.404C311.273 372.643 289.091 369.14 264.807 357.465C240.523 346.024 223.711 330.847 227.213 323.608C230.716 316.37 252.898 319.872 277.182 331.547C301.466 343.222 318.045 358.399 314.776 365.404Z" fill="#7FA1CA"/>
<path d="M314.31 365.405C311.041 372.41 288.858 368.907 264.808 357.699C240.758 346.258 224.179 331.314 227.448 324.309C230.717 317.304 252.9 320.806 276.95 332.014C301 343.222 317.579 358.166 314.31 365.405Z" fill="#7EA0CA"/>
<path d="M313.838 365.117C317.156 358.128 300.582 343.315 276.819 332.032C253.055 320.749 231.101 317.268 227.782 324.257C224.464 331.246 241.038 346.059 264.801 357.342C288.565 368.626 310.519 372.107 313.838 365.117Z" fill="#7D9FC9"/>
<path d="M313.376 364.937C310.107 371.942 288.391 368.44 264.808 357.232C241.224 346.024 224.88 331.314 228.149 324.542C231.417 317.537 253.133 321.04 276.716 332.248C300.3 343.222 316.645 357.932 313.376 364.937Z" fill="#7B9EC9"/>
<path d="M312.909 364.704C309.64 371.476 288.158 368.207 265.041 357.232C241.691 346.258 225.58 331.781 228.849 324.776C232.118 318.004 253.6 321.273 276.716 332.248C300.066 343.222 316.178 357.699 312.909 364.704Z" fill="#7A9EC8"/>
<path d="M312.44 364.47C309.171 371.242 287.922 367.973 265.039 356.999C242.156 346.024 226.045 331.781 229.314 325.009C232.583 318.238 253.831 321.507 276.714 332.481C299.831 343.222 315.709 357.699 312.44 364.47Z" fill="#799DC8"/>
<path d="M311.975 364.237C308.706 371.008 287.691 367.739 265.042 356.765C242.392 346.024 226.514 331.78 229.55 325.009C232.819 318.237 253.834 321.506 276.483 332.481C299.366 343.222 315.244 357.465 311.975 364.237Z" fill="#789CC7"/>
<path d="M311.52 364.015C314.673 357.376 299.003 343.339 276.521 332.665C254.039 321.99 233.258 318.719 230.105 325.358C226.952 331.998 242.622 346.035 265.104 356.709C287.586 367.384 308.367 370.655 311.52 364.015Z" fill="#779BC7"/>
<path d="M311.274 363.77C308.239 370.308 287.691 367.039 265.275 356.532C243.093 346.024 227.448 332.014 230.717 325.476C233.753 318.938 254.301 322.207 276.717 332.715C298.899 343.456 314.31 357.232 311.274 363.77Z" fill="#759AC6"/>
<path d="M310.807 363.536C307.772 370.074 287.457 366.805 265.275 356.298C243.093 345.79 227.915 332.014 230.951 325.709C233.986 319.171 254.301 322.44 276.483 332.948C298.432 343.455 313.843 356.998 310.807 363.536Z" fill="#7499C6"/>
<path d="M310.252 363.414C313.294 357.007 298.101 343.429 276.318 333.086C254.534 322.743 234.41 319.552 231.368 325.958C228.325 332.365 243.518 345.944 265.301 356.287C287.085 366.63 307.209 369.821 310.252 363.414Z" fill="#7398C5"/>
<path d="M309.871 363.069C306.836 369.374 286.988 366.338 265.507 356.064C244.025 345.79 229.081 332.481 232.116 326.176C235.152 319.872 254.999 322.907 276.481 333.181C297.963 343.455 312.907 356.765 309.871 363.069Z" fill="#7297C5"/>
<path d="M309.407 363.07C306.371 369.374 286.757 366.339 265.509 356.065C244.26 346.024 229.55 332.715 232.352 326.41C235.154 320.106 255.001 323.141 276.25 333.415C297.498 343.456 312.442 356.765 309.407 363.07Z" fill="#7197C4"/>
<path d="M308.938 362.836C305.902 369.14 286.522 366.105 265.507 356.064C244.492 346.024 229.781 332.948 232.817 326.644C235.852 320.339 255.233 323.375 276.248 333.415C297.263 343.456 311.973 356.531 308.938 362.836Z" fill="#6F96C4"/>
<path d="M308.472 362.602C305.67 368.673 286.289 365.638 265.508 355.831C244.726 346.024 230.25 332.948 233.285 326.877C236.087 320.806 255.467 323.842 276.249 333.649C297.03 343.455 311.507 356.298 308.472 362.602Z" fill="#6E95C3"/>
<path d="M308.005 362.369C305.203 368.44 286.056 365.404 265.741 355.597C245.194 345.79 230.95 332.948 233.752 326.877C236.554 320.806 255.701 323.842 276.015 333.649C296.563 343.455 311.04 356.298 308.005 362.369Z" fill="#6D94C3"/>
<path d="M307.539 362.135C304.737 368.206 286.057 365.171 265.742 355.597C245.428 346.024 231.418 333.415 234.22 327.344C237.022 321.273 255.702 324.309 276.016 333.882C296.331 343.456 310.341 356.064 307.539 362.135Z" fill="#6C93C2"/>
<path d="M307.071 361.902C304.269 367.739 285.822 364.937 265.741 355.364C245.66 345.79 231.884 333.415 234.686 327.344C237.488 321.507 255.934 324.309 276.015 333.882C296.096 343.455 309.873 356.064 307.071 361.902Z" fill="#6B92C2"/>
<path d="M306.669 361.712C309.435 355.888 295.623 343.544 275.82 334.141C256.017 324.738 237.722 321.838 234.957 327.662C232.191 333.486 246.003 345.83 265.806 355.233C285.609 364.636 303.904 367.537 306.669 361.712Z" fill="#6991C1"/>
<path d="M306.369 361.435C303.567 367.273 285.588 364.471 265.974 355.131C246.36 345.791 232.817 333.649 235.619 327.811C238.421 321.974 256.4 324.776 276.014 334.116C295.628 343.456 308.938 355.598 306.369 361.435Z" fill="#6890C1"/>
<path d="M305.905 361.202C303.103 366.806 285.357 364.004 266.21 354.897C246.829 345.791 233.52 333.649 236.088 328.045C238.89 322.441 256.636 325.243 275.783 334.349C295.164 343.456 308.473 355.598 305.905 361.202Z" fill="#678FC0"/>
<path d="M305.436 360.968C302.868 366.572 285.122 363.77 266.209 354.897C247.062 345.791 233.986 333.882 236.554 328.278C239.123 322.674 256.869 325.476 275.782 334.349C294.695 343.456 308.005 355.364 305.436 360.968Z" fill="#668FC0"/>
<path d="M304.968 360.735C302.399 366.339 284.887 363.537 266.207 354.664C247.527 345.791 234.217 334.116 237.019 328.512C239.588 322.908 257.1 325.71 275.78 334.583C294.46 343.456 307.536 355.364 304.968 360.735Z" fill="#648EBF"/>
<path d="M304.348 360.61C306.947 355.135 294.04 343.568 275.518 334.773C256.997 325.979 239.875 323.288 237.275 328.763C234.676 334.238 247.583 345.805 266.105 354.6C284.626 363.394 301.748 366.085 304.348 360.61Z" fill="#638DBF"/>
<path d="M304.035 360.501C301.467 365.872 284.655 363.303 266.209 354.664C247.996 346.024 235.153 334.583 237.722 329.212C240.29 323.842 257.102 326.41 275.549 335.05C293.761 343.689 306.604 354.897 304.035 360.501Z" fill="#628CBE"/>
<path d="M303.567 360.268C300.999 365.638 284.421 363.07 266.208 354.43C248.228 345.791 235.619 334.583 238.188 329.212C240.756 323.842 257.335 326.41 275.548 335.05C293.76 343.689 306.136 354.897 303.567 360.268Z" fill="#618BBE"/>
<path d="M303.102 360.034C300.533 365.404 284.188 362.602 266.442 354.197C248.696 345.791 236.321 334.583 238.656 329.446C241.224 324.075 257.569 326.877 275.315 335.283C293.295 343.689 305.67 354.664 303.102 360.034Z" fill="#5F8ABD"/>
<path d="M302.66 359.807C305.148 354.565 292.907 343.545 275.317 335.193C257.728 326.842 241.451 324.321 238.962 329.563C236.473 334.805 248.714 345.824 266.304 354.176C283.894 362.528 300.171 365.049 302.66 359.807Z" fill="#5E89BD"/>
<path d="M302.167 359.567C299.832 364.704 283.72 362.136 266.442 353.963C249.163 345.791 237.021 335.05 239.589 329.913C241.924 324.776 258.036 327.344 275.314 335.517C292.593 343.689 304.735 354.43 302.167 359.567Z" fill="#5D88BC"/>
<path d="M301.701 359.334C299.366 364.471 283.488 361.902 266.442 353.73C249.397 345.557 237.489 335.05 239.824 329.913C242.159 324.776 258.037 327.344 275.082 335.517C292.361 343.689 304.269 354.197 301.701 359.334Z" fill="#5C87BC"/>
<path d="M301.235 359.1C298.9 364.004 283.255 361.669 266.443 353.73C249.631 345.791 237.956 335.284 240.291 330.38C242.626 325.477 258.271 327.812 275.083 335.75C291.895 343.689 303.803 354.197 301.235 359.1Z" fill="#5A86BB"/>
<path d="M301 358.867C298.665 363.77 283.254 361.435 266.909 353.496C250.331 345.557 238.889 335.284 241.224 330.38C243.559 325.477 258.97 327.812 275.315 335.75C291.66 343.689 303.101 353.963 301 358.867Z" fill="#5985BB"/>
<path d="M300.532 358.633C298.197 363.536 283.253 361.201 266.908 353.262C250.563 345.557 239.122 335.283 241.457 330.613C243.792 325.71 258.736 328.045 275.081 335.984C291.426 343.689 302.634 353.963 300.532 358.633Z" fill="#5884BA"/>
<path d="M300.066 358.399C297.731 363.069 283.021 360.734 266.909 353.262C250.798 345.557 239.59 335.516 241.925 330.847C244.26 326.177 258.97 328.512 275.082 335.983C290.96 343.689 302.168 353.729 300.066 358.399Z" fill="#5784BA"/>
<path d="M299.599 358.4C297.264 363.07 282.787 360.735 266.909 353.263C251.031 345.791 240.056 335.984 242.391 331.08C244.726 326.41 259.203 328.745 275.081 336.217C290.726 343.689 301.7 353.496 299.599 358.4Z" fill="#5583B9"/>
<path d="M299.131 358.166C297.029 362.836 282.552 360.501 266.908 353.029C251.263 345.557 240.522 335.984 242.624 331.314C244.725 326.644 259.202 328.979 274.847 336.451C290.491 343.689 301.232 353.496 299.131 358.166Z" fill="#5482B9"/>
<path d="M298.664 357.933C296.563 362.369 282.319 360.268 266.908 353.029C251.498 345.791 240.99 336.217 243.092 331.547C245.193 327.111 259.436 329.212 274.847 336.451C290.025 343.689 300.766 353.263 298.664 357.933Z" fill="#5381B8"/>
<path d="M298.197 357.699C296.096 362.136 282.086 360.034 267.142 352.796C251.964 345.557 241.457 336.217 243.558 331.781C245.66 327.344 259.67 329.446 274.614 336.684C289.791 343.689 300.299 353.263 298.197 357.699Z" fill="#5280B8"/>
<path d="M297.731 357.466C295.63 361.902 281.853 359.801 267.143 352.562C252.199 345.557 241.925 336.217 244.026 331.781C246.128 327.344 259.904 329.446 274.615 336.684C289.559 343.689 299.833 353.029 297.731 357.466Z" fill="#507FB7"/>
<path d="M297.264 357.232C295.163 361.435 281.62 359.334 267.143 352.562C252.666 345.557 242.392 336.451 244.494 332.248C246.595 328.045 260.138 330.146 274.615 336.918C289.092 343.689 299.366 353.029 297.264 357.232Z" fill="#4F7EB7"/>
<path d="M296.796 356.999C294.694 361.202 281.618 359.1 267.142 352.329C252.898 345.557 242.858 336.684 244.726 332.248C246.827 328.045 259.903 330.146 274.38 336.918C288.857 343.923 298.897 352.796 296.796 356.999Z" fill="#4E7DB6"/>
<path d="M296.329 356.765C294.461 360.968 281.385 358.867 267.142 352.095C253.132 345.324 243.325 336.684 245.193 332.481C247.061 328.278 260.137 330.38 274.38 337.151C288.624 343.923 298.431 352.562 296.329 356.765Z" fill="#4C7CB5"/>
<path d="M295.862 356.531C293.994 360.734 281.152 358.633 267.375 352.095C253.599 345.557 243.792 336.917 245.893 332.714C247.761 328.511 260.604 330.613 274.38 337.151C288.157 343.922 297.964 352.562 295.862 356.531Z" fill="#4B7BB5"/>
<path d="M295.63 356.298C293.762 360.267 281.153 358.399 267.61 351.861C254.067 345.323 244.494 336.917 246.362 332.948C248.23 328.978 260.839 330.846 274.382 337.384C287.925 343.922 297.498 352.328 295.63 356.298Z" fill="#4A7AB4"/>
<path d="M295.162 356.064C293.294 360.034 280.919 358.166 267.609 351.628C254.3 345.323 244.96 336.917 246.828 332.948C248.696 328.978 261.071 330.846 274.381 337.384C287.69 343.922 297.03 352.328 295.162 356.064Z" fill="#4979B4"/>
<path d="M294.696 356.065C292.828 360.034 280.686 357.933 267.61 351.862C254.534 345.557 245.428 337.385 247.296 333.649C249.164 329.679 261.306 331.781 274.382 337.852C287.224 343.923 296.564 352.095 294.696 356.065Z" fill="#4778B3"/>
<path d="M294.228 355.831C292.36 359.567 280.451 357.699 267.609 351.628C254.766 345.557 245.893 337.385 247.528 333.649C249.396 329.913 261.304 331.781 274.147 337.852C286.989 343.923 295.862 351.862 294.228 355.831Z" fill="#4677B3"/>
<path d="M293.761 355.597C291.893 359.333 280.452 357.465 267.843 351.394C255.234 345.323 246.361 337.618 248.229 333.882C250.097 330.146 261.538 332.014 274.147 338.085C286.756 343.922 295.396 351.861 293.761 355.597Z" fill="#4576B2"/>
<path d="M293.294 355.364C291.659 359.1 280.218 357.232 267.842 351.395C255.467 345.557 246.827 337.852 248.695 334.116C250.33 330.38 261.771 332.248 274.147 338.085C286.289 343.923 294.928 351.628 293.294 355.364Z" fill="#4375B2"/>
<path d="M292.826 355.131C291.191 358.633 279.983 356.999 267.841 351.161C255.699 345.324 247.293 337.852 248.928 334.349C250.562 330.847 261.77 332.481 273.912 338.319C286.054 343.923 294.46 351.628 292.826 355.131Z" fill="#4274B1"/>
<path d="M292.359 354.897C290.725 358.4 279.75 356.765 267.842 351.161C255.933 345.557 247.761 338.085 249.395 334.583C251.03 331.08 262.004 332.715 273.913 338.319C285.821 343.923 293.994 351.395 292.359 354.897Z" fill="#4173B1"/>
<path d="M291.893 354.664C290.259 358.166 279.518 356.298 267.843 350.928C256.168 345.324 248.229 338.085 249.863 334.816C251.498 331.314 262.239 333.182 273.914 338.552C285.355 343.923 293.528 351.161 291.893 354.664Z" fill="#3F72B0"/>
<path d="M291.483 354.5C293.087 351.122 285.133 343.989 273.717 338.569C262.301 333.149 251.747 331.493 250.143 334.871C248.539 338.249 256.493 345.382 267.908 350.802C279.324 356.223 289.879 357.878 291.483 354.5Z" fill="#3E72B0"/>
<path d="M290.959 354.197C289.324 357.466 279.05 355.831 268.076 350.694C256.868 345.324 249.162 338.552 250.797 335.283C252.431 332.014 262.705 333.649 273.68 338.786C284.888 343.923 292.593 350.928 290.959 354.197Z" fill="#3D71AF"/>
<path d="M290.491 353.963C288.857 357.232 278.816 355.598 268.075 350.461C257.101 345.324 249.629 338.552 251.263 335.283C252.898 332.014 262.938 333.649 273.679 338.786C284.654 343.923 292.126 350.928 290.491 353.963Z" fill="#3B70AE"/>
<path d="M290.259 353.73C288.858 356.765 279.051 355.364 268.31 350.227C257.569 345.09 250.331 338.552 251.732 335.517C253.133 332.481 262.94 333.882 273.681 339.019C284.188 344.156 291.66 350.694 290.259 353.73Z" fill="#3A6FAE"/>
<path d="M289.79 353.496C288.389 356.532 278.816 355.131 268.308 350.227C258.034 345.324 250.796 338.786 252.197 335.75C253.598 332.715 263.171 334.116 273.679 339.019C283.953 344.156 291.191 350.461 289.79 353.496Z" fill="#396EAD"/>
<path d="M289.326 353.496C287.925 356.531 278.585 355.13 268.311 350.227C258.271 345.323 251.032 339.019 252.433 335.983C253.834 332.948 263.174 334.349 273.448 339.252C283.722 344.156 290.727 350.46 289.326 353.496Z" fill="#376DAD"/>
<path d="M288.859 353.263C287.458 356.298 278.352 354.664 268.545 349.994C258.738 345.324 251.733 339.019 253.134 336.217C254.535 333.182 263.641 334.816 273.448 339.486C283.255 344.156 290.26 350.227 288.859 353.263Z" fill="#366CAC"/>
<path d="M288.391 353.029C286.99 355.831 278.117 354.43 268.544 349.993C258.97 345.323 252.199 339.486 253.6 336.45C255.001 333.648 263.874 335.049 273.447 339.486C283.021 344.156 289.792 350.227 288.391 353.029Z" fill="#356BAC"/>
<path d="M287.923 352.795C286.522 355.597 277.883 354.196 268.543 349.76C259.203 345.323 252.665 339.486 253.832 336.684C255.233 333.882 263.873 335.283 273.213 339.719C282.786 344.156 289.324 349.993 287.923 352.795Z" fill="#336AAB"/>
<path d="M287.456 352.562C286.289 355.364 277.649 353.963 268.543 349.526C259.436 345.09 253.132 339.486 254.299 336.684C255.467 333.882 264.106 335.283 273.213 339.719C282.319 344.156 288.857 349.76 287.456 352.562Z" fill="#3269AB"/>
<path d="M286.988 352.329C285.821 354.897 277.415 353.73 268.542 349.527C259.669 345.324 253.364 339.72 254.765 337.151C255.933 334.583 264.339 335.75 273.212 339.953C282.085 344.156 288.156 349.76 286.988 352.329Z" fill="#3168AA"/>
<path d="M286.522 352.095C285.354 354.663 277.415 353.496 268.542 349.293C259.903 345.09 253.832 339.719 254.999 337.151C256.167 334.582 264.106 335.75 272.979 339.953C281.852 344.156 287.689 349.526 286.522 352.095Z" fill="#2F67AA"/>
<path d="M285.997 351.897C287.159 349.451 281.301 344.24 272.914 340.257C264.527 336.275 256.786 335.03 255.625 337.476C254.463 339.922 260.321 345.134 268.708 349.116C277.095 353.098 284.836 354.343 285.997 351.897Z" fill="#2E66A9"/>
<path d="M285.588 351.628C284.421 353.963 276.949 352.796 268.776 349.06C260.604 345.09 255 340.187 256.167 337.618C257.335 335.283 264.807 336.451 272.979 340.187C281.152 344.156 286.756 349.293 285.588 351.628Z" fill="#2D65A8"/>
<path d="M285.121 351.394C283.953 353.729 276.715 352.562 268.776 348.826C260.837 345.09 255.466 340.186 256.4 337.851C257.568 335.516 264.806 336.684 272.745 340.42C280.918 344.156 286.288 349.059 285.121 351.394Z" fill="#2B64A8"/>
<path d="M284.887 351.161C283.72 353.496 276.715 352.328 269.009 348.592C261.304 344.856 255.933 340.186 257.101 337.851C258.268 335.516 265.273 336.684 272.979 340.42C280.451 344.156 285.821 349.059 284.887 351.161Z" fill="#2A63A7"/>
<path d="M284.42 351.161C283.486 353.263 276.481 352.329 269.009 348.826C261.537 345.324 256.4 340.654 257.568 338.552C258.502 336.451 265.507 337.385 272.979 340.887C280.217 344.156 285.354 348.826 284.42 351.161Z" fill="#2962A7"/>
<path d="M283.954 350.928C283.02 353.029 276.249 352.095 269.244 348.593C262.005 345.09 257.102 340.654 258.036 338.552C258.97 336.451 265.741 337.385 272.746 340.887C279.985 344.156 284.888 348.826 283.954 350.928Z" fill="#2761A6"/>
<path d="M283.488 350.694C282.554 352.796 276.016 351.628 269.244 348.359C262.239 345.09 257.569 340.654 258.503 338.786C259.437 336.684 265.975 337.852 272.747 341.121C279.518 344.156 284.422 348.593 283.488 350.694Z" fill="#2660A6"/>
<path d="M283.02 350.46C282.086 352.328 276.015 351.394 269.244 348.359C262.472 345.09 258.036 341.12 258.97 339.019C259.904 337.151 265.975 338.085 272.746 341.12C279.284 344.389 283.954 348.359 283.02 350.46Z" fill="#255FA5"/>
<path d="M282.554 350.227C281.62 352.095 275.783 351.161 269.245 348.126C262.707 345.09 258.27 341.121 259.204 339.253C260.138 337.385 265.976 338.319 272.514 341.354C279.052 344.39 283.488 348.359 282.554 350.227Z" fill="#235EA4"/>
<path d="M282.085 349.994C281.151 351.862 275.547 350.928 269.243 347.892C263.172 344.857 258.735 341.121 259.669 339.253C260.603 337.385 266.207 338.319 272.512 341.354C278.583 344.39 283.019 348.126 282.085 349.994Z" fill="#225DA4"/>
<path d="M281.619 349.76C280.685 351.628 275.314 350.694 269.477 347.892C263.639 345.09 259.436 341.354 260.137 339.72C261.071 337.852 266.441 338.786 272.279 341.588C278.35 344.39 282.553 348.126 281.619 349.76Z" fill="#205CA3"/>
<path d="M281.152 349.526C280.451 351.161 275.081 350.46 269.477 347.658C263.873 344.856 259.903 341.354 260.604 339.719C261.304 338.085 266.675 338.785 272.279 341.587C278.116 344.389 282.086 347.892 281.152 349.526Z" fill="#1F5BA3"/>
<path d="M280.684 349.293C279.984 350.927 274.847 350.227 269.476 347.425C264.106 344.856 260.136 341.354 261.07 339.953C261.771 338.318 266.908 339.019 272.278 341.821C277.649 344.389 281.618 347.658 280.684 349.293Z" fill="#1E5AA2"/>
<path d="M280.302 349.194C281.021 347.679 277.355 344.434 272.113 341.945C266.871 339.456 262.039 338.666 261.32 340.18C260.6 341.695 264.267 344.94 269.509 347.429C274.751 349.918 279.583 350.708 280.302 349.194Z" fill="#1C59A2"/>
<path d="M279.75 348.826C279.05 350.227 274.38 349.526 269.476 347.191C264.573 344.856 261.07 341.821 261.771 340.186C262.471 338.785 267.141 339.486 272.045 341.821C277.182 344.389 280.451 347.425 279.75 348.826Z" fill="#1B58A1"/>
<path d="M279.517 348.826C278.816 350.227 274.613 349.526 269.71 347.191C265.04 344.856 261.771 342.054 262.472 340.653C263.172 339.252 267.375 339.953 272.278 342.288C276.715 344.389 279.984 347.425 279.517 348.826Z" fill="#1957A0"/>
<path d="M279.049 348.593C278.349 349.994 274.379 349.293 269.943 347.192C265.506 345.09 262.471 342.288 262.938 340.887C263.638 339.486 267.608 340.187 272.044 342.288C276.481 344.39 279.516 347.192 279.049 348.593Z" fill="#1856A0"/>
<path d="M278.583 348.359C277.882 349.527 274.146 349.06 269.943 346.958C265.74 344.857 262.705 342.288 263.405 341.121C264.106 339.953 267.842 340.42 272.045 342.522C276.248 344.39 279.05 346.958 278.583 348.359Z" fill="#17559F"/>
<path d="M278.117 348.126C277.65 349.293 273.914 348.826 269.944 346.958C265.975 345.09 263.173 342.522 263.873 341.354C264.34 340.187 268.076 340.654 272.046 342.522C275.782 344.39 278.584 346.958 278.117 348.126Z" fill="#15549F"/>
<path d="M277.65 347.892C277.183 349.06 273.681 348.359 269.945 346.725C266.209 344.857 263.641 342.755 264.108 341.588C264.574 340.42 268.077 341.121 271.813 342.755C275.549 344.39 278.117 346.725 277.65 347.892Z" fill="#14539E"/>
<path d="M277.184 347.659C276.717 348.593 273.448 348.126 269.945 346.491C266.443 344.857 264.108 342.755 264.575 341.588C265.042 340.654 268.311 341.121 271.813 342.755C275.316 344.39 277.651 346.725 277.184 347.659Z" fill="#12529E"/>
<path d="M276.715 347.425C276.248 348.359 273.213 347.892 270.177 346.491C266.908 344.857 264.807 342.989 265.274 342.055C265.741 341.121 268.776 341.588 271.812 342.989C274.847 344.39 277.182 346.491 276.715 347.425Z" fill="#11519D"/>
<path d="M276.249 347.192C275.782 348.126 272.98 347.659 270.178 346.258C267.143 344.857 265.041 342.989 265.508 342.055C265.975 341.121 268.777 341.588 271.579 342.989C274.615 344.623 276.716 346.258 276.249 347.192Z" fill="#104F9C"/>
<path d="M275.783 346.958C275.316 347.658 272.981 347.425 270.179 346.024C267.377 344.623 265.509 342.988 265.976 342.288C266.443 341.587 268.778 341.821 271.58 343.222C274.382 344.623 276.25 346.257 275.783 346.958Z" fill="#0E4E9C"/>
<path d="M275.314 346.724C275.08 347.425 272.745 347.191 270.177 346.024C267.608 344.856 265.974 343.222 266.441 342.521C266.674 341.821 269.009 342.054 271.578 343.222C273.913 344.623 275.781 346.024 275.314 346.724Z" fill="#0D4D9B"/>
<path d="M274.846 346.491C274.613 347.191 272.511 346.724 270.176 345.79C267.841 344.623 266.44 343.455 266.674 342.755C266.907 342.054 269.009 342.521 271.344 343.455C273.679 344.623 275.313 346.024 274.846 346.491Z" fill="#0B4C9B"/>
<path d="M274.382 346.491C274.149 347.192 272.281 346.725 270.413 345.791C268.545 344.857 267.144 343.689 267.377 342.989C267.611 342.288 269.479 342.755 271.347 343.689C273.448 344.623 274.849 345.791 274.382 346.491Z" fill="#0A4B9A"/>
<path d="M274.146 346.257C273.913 346.724 272.278 346.491 270.644 345.79C269.009 344.856 267.608 343.922 267.842 343.455C268.075 342.988 269.71 343.222 271.344 343.922C272.979 344.623 274.38 345.557 274.146 346.257Z" fill="#094A9A"/>
<path d="M273.68 346.024C273.446 346.491 272.045 346.257 270.644 345.557C269.243 344.856 268.076 343.922 268.309 343.455C268.543 342.988 269.944 343.222 271.345 343.922C272.746 344.623 273.68 345.557 273.68 346.024Z" fill="#074999"/>
<path d="M273.213 345.791C272.979 346.258 271.812 346.024 270.644 345.324C269.477 344.623 268.543 343.923 268.776 343.689C269.01 343.222 270.177 343.456 271.345 344.156C272.512 344.857 273.213 345.324 273.213 345.791Z" fill="#064898"/>
<path d="M272.746 345.557C272.512 345.791 271.578 345.791 270.644 345.324C269.71 344.857 269.01 344.156 269.01 343.923C269.243 343.689 270.177 343.689 271.111 344.156C272.045 344.623 272.746 345.324 272.746 345.557Z" fill="#044798"/>
<path d="M272.28 345.324C272.28 345.557 271.58 345.324 270.646 345.09C269.946 344.623 269.479 344.39 269.479 344.156C269.479 343.923 270.179 344.156 271.113 344.39C271.814 344.623 272.28 345.09 272.28 345.324Z" fill="#034697"/>
<path d="M271.812 345.09C271.812 345.324 271.345 345.09 270.878 344.857C270.411 344.623 269.944 344.39 270.177 344.156C270.177 343.923 270.644 344.156 271.111 344.39C271.578 344.623 271.812 344.857 271.812 345.09Z" fill="#014597"/>
<path d="M271.344 344.857C271.344 344.857 271.111 344.857 270.877 344.857C270.644 344.623 270.41 344.623 270.41 344.623C270.41 344.623 270.644 344.623 270.877 344.623C271.111 344.623 271.344 344.857 271.344 344.857Z" fill="#004496"/>
<path opacity="0.4" d="M518.286 137.662L266.573 283.132C261.436 286.167 253.964 286.401 249.528 283.832L95.4185 194.869C90.982 192.301 91.6825 187.864 96.586 185.062L348.298 39.5923C353.435 36.5568 360.907 36.3233 365.344 38.8918L519.453 127.855C523.89 130.424 523.423 134.86 518.286 137.662Z" fill="white"/>
<path opacity="0.2" d="M491.9 140.697L271.477 267.955C267.04 270.523 260.269 270.757 256.533 268.655L121.57 190.666C117.834 188.565 118.301 184.595 122.738 182.027L343.161 54.7698C347.597 52.2013 354.369 51.9678 358.105 54.0693L493.067 132.058C496.803 134.159 496.336 138.129 491.9 140.697Z" fill="#041860"/>
<path d="M257 286.401C253.965 286.401 251.163 285.701 249.061 284.533L94.9517 195.57C92.8502 194.402 91.4492 192.534 91.4492 190.433C91.4492 188.098 93.0837 185.763 96.1192 184.128L347.831 38.6584C353.202 35.6229 361.141 35.3894 365.811 37.9579L519.92 126.921C522.022 128.089 523.423 129.957 523.423 132.058C523.423 134.393 521.788 136.728 518.753 138.363L267.041 283.833C264.005 285.467 260.503 286.401 257 286.401ZM358.105 37.9579C354.836 37.9579 351.567 38.6584 348.999 40.2929L97.0532 185.763C94.7182 187.164 93.3172 188.798 93.3172 190.666C93.3172 192.067 94.2512 193.235 95.8857 194.169L249.995 283.132C254.198 285.467 261.437 285.234 266.107 282.432L517.819 136.962C520.154 135.561 521.555 133.926 521.555 132.058C521.555 130.657 520.621 129.49 518.986 128.556L364.877 39.5924C363.009 38.4249 360.674 37.9579 358.105 37.9579Z" fill="white"/>
<path d="M522.488 95.1653L519.686 97.2668C519.686 97.2668 519.686 97.2668 519.453 97.2668L365.343 8.30358C360.907 5.73509 353.201 6.20208 348.298 9.00407L96.5858 154.474C95.8853 154.708 95.4183 155.175 94.9513 155.642L92.3828 153.774V160.078C92.3828 161.713 93.3168 163.347 95.4183 164.515L249.528 253.478C253.964 256.046 261.67 255.579 266.573 252.777L518.285 107.307C521.087 105.673 522.488 103.571 522.488 101.703V95.1653Z" fill="white"/>
<path d="M518.287 100.769L266.574 246.24C261.438 249.275 253.966 249.508 249.529 246.94L95.1861 157.743C90.7496 155.175 91.4501 150.738 96.3536 147.936L348.066 2.46633C353.203 -0.569155 360.675 -0.802653 365.111 1.76584L519.221 90.729C523.891 93.531 523.424 97.734 518.287 100.769Z" fill="url(#paint2_linear_822_3894)"/>
<path d="M319.579 72.0482L297.863 59.4393L303.234 56.4038C304.168 55.9368 305.102 55.4698 306.036 55.0028C306.97 54.7693 307.904 54.5358 308.838 54.3023C309.772 54.3023 310.939 54.3023 311.873 54.5358C312.807 54.7693 313.975 55.2363 314.909 55.7033C317.477 57.3378 317.944 58.7388 316.31 60.1398C317.944 59.4393 319.345 59.2058 320.746 59.4393C322.147 59.6728 323.782 60.1398 325.416 61.0738C327.518 62.2413 328.452 63.4088 328.452 64.5763C328.452 65.7438 327.518 66.9113 325.416 68.0788L319.579 72.0482ZM310.706 62.4748L311.873 61.7743C313.041 61.0738 313.508 60.6068 313.508 59.9063C313.508 59.4393 312.807 58.7388 311.64 58.0383C310.939 57.5713 310.472 57.3378 310.005 57.3378C309.538 57.1043 309.071 57.1043 308.371 57.3378C307.904 57.3378 307.437 57.5713 306.97 57.8048C306.503 58.0383 305.802 58.2718 305.335 58.7388L304.868 58.9723L310.706 62.4748ZM320.746 68.3123L322.147 67.3783C323.315 66.6778 323.782 65.9773 323.782 65.5103C323.782 65.0433 323.081 64.3428 321.68 63.6423C320.279 62.9418 319.112 62.4748 318.178 62.4748C317.01 62.4748 315.843 62.7083 314.675 63.4088L313.508 64.1093L320.746 68.3123Z" fill="white"/>
<path d="M333.355 64.3429L316.076 49.399L320.279 47.064L346.431 57.1044L342.695 59.2059L336.858 56.8709L333.122 58.9724L337.325 62.4749L333.355 64.3429ZM330.787 56.8709L333.589 55.2364L323.315 51.0335L330.787 56.8709Z" fill="white"/>
<path d="M348.299 55.4703L326.584 42.8613L329.386 41.2268L346.898 45.1963L334.523 38.1914L337.792 36.3234L359.507 48.9323L356.939 50.3333L338.726 45.8968L351.568 53.3688L348.299 55.4703Z" fill="white"/>
<path d="M362.776 47.0641L341.061 34.4552L345.03 32.1202L354.37 37.4907L349.233 29.5517L352.969 27.4502L358.573 35.3892L375.151 39.5922L371.182 41.9271L357.172 38.1912L357.872 39.3587L366.745 44.4956L362.776 47.0641Z" fill="white"/>
<path d="M296.227 192.768L247.893 220.555L242.289 217.286L290.623 189.499L296.227 192.768Z" fill="white"/>
<path d="M355.536 158.444L307.202 186.231L301.598 183.195L349.932 155.175L355.536 158.444Z" fill="white"/>
<path d="M414.845 124.119L366.51 152.139L360.906 148.87L409.241 121.084L414.845 124.119Z" fill="white"/>
<path d="M474.153 90.0286L425.819 117.815L420.215 114.546L468.549 86.7596L474.153 90.0286Z" fill="white"/>
<g filter="url(#filter1_d_822_3894)">
<path d="M514.883 282.746L437.361 237.681C421.95 228.808 407.473 227.407 396.499 233.711C385.524 240.016 379.453 253.325 379.453 271.071V276.675C379.92 277.142 380.621 277.376 381.088 277.843V271.071C381.088 254.026 386.692 241.183 397.199 235.346C407.473 229.275 421.483 230.676 436.193 239.315L513.715 284.381C514.182 284.614 514.649 284.381 514.883 284.147C515.35 283.447 515.116 282.98 514.883 282.746Z" fill="white"/>
<path d="M379.686 276.676V284.615C375.95 281.813 358.204 269.671 341.392 270.371C322.478 271.072 316.174 288.351 316.174 288.351C316.174 288.351 311.737 301.193 311.971 307.264C311.971 308.198 311.971 309.599 312.204 310.767L311.971 310.533C311.971 311.234 311.971 312.168 311.971 312.868C312.204 312.868 312.204 313.102 312.438 313.102C312.671 318.939 312.671 325.477 312.671 325.477C312.671 325.477 312.905 336.918 311.27 344.624C308.235 358.4 296.793 366.106 295.859 367.273L365.442 327.345H365.676L365.909 327.111L366.376 326.878C376.417 320.574 382.021 308.198 382.021 291.62V277.843C380.853 277.376 380.153 277.143 379.686 276.676Z" fill="url(#paint3_linear_822_3894)"/>
<path d="M325.514 274.808L396.731 233.712C396.731 233.712 408.873 227.407 423.583 232.778C438.294 238.148 515.115 284.148 515.115 284.148L446.466 323.609C446.466 323.609 366.61 274.107 357.27 271.772C337.889 266.869 325.514 274.808 325.514 274.808Z" fill="white"/>
<path d="M221.375 132.372V126.068L228.613 122.099V128.169L221.375 132.372Z" fill="#DDE1ED"/>
<path d="M241.689 109.022V102.951L255.466 95.0125V101.083L241.689 109.022Z" fill="#DDE1ED"/>
<path d="M222.076 107.855V101.551L255.467 82.4041V88.7085L222.076 107.855Z" fill="#DDE1ED"/>
<path d="M233.752 125.134V119.063L261.538 102.952V109.256L233.752 125.134Z" fill="#DDE1ED"/>
<path d="M222.076 120.464V114.16L235.853 106.454V112.525L222.076 120.464Z" fill="#DDE1ED"/>
<path d="M230.25 192.382V198.453L221.844 203.357V197.052L230.25 192.382Z" fill="#DDE1ED"/>
<path d="M245.427 183.509V189.58L237.021 194.484V188.413L245.427 183.509Z" fill="#DDE1ED"/>
<path d="M254.766 166.697V172.768L222.076 191.682V185.377L254.766 166.697Z" fill="#DDE1ED"/>
<path d="M238.424 147.083V141.012L254.769 131.672V137.743L238.424 147.083Z" fill="#DDE1ED"/>
<path d="M221.844 156.656V150.585L230.25 145.682V151.986L221.844 156.656Z" fill="#DDE1ED"/>
<path d="M221.844 168.332V162.027L237.722 152.921V158.992L221.844 168.332Z" fill="#DDE1ED"/>
<path d="M244.26 155.256V149.185L254.767 143.114V149.185L244.26 155.256Z" fill="#DDE1ED"/>
<path d="M238.424 218.768V212.697L254.769 203.357V209.428L238.424 218.768Z" fill="#DDE1ED"/>
<path d="M221.844 228.575V222.27L230.25 217.6V223.671L221.844 228.575Z" fill="#DDE1ED"/>
<path d="M221.844 240.016V233.945L237.722 224.605V230.676L221.844 240.016Z" fill="#DDE1ED"/>
<path d="M244.26 226.94V220.869L254.767 214.798V221.103L244.26 226.94Z" fill="#DDE1ED"/>
<path d="M414.945 284.614L409.574 281.578L416.813 277.375L422.183 280.411L414.945 284.614Z" fill="#DDE1ED"/>
<path d="M425.218 267.101L419.848 264.066L433.624 256.127L438.995 259.162L425.218 267.101Z" fill="#DDE1ED"/>
<path d="M394.631 272.238L389.494 268.969L422.651 249.823L428.022 252.858L394.631 272.238Z" fill="#DDE1ED"/>
<path d="M427.088 277.609L421.951 274.34L449.738 258.462L454.875 261.497L427.088 277.609Z" fill="#DDE1ED"/>
<path d="M405.605 278.543L400.234 275.274L414.011 267.568L419.381 270.604L405.605 278.543Z" fill="#DDE1ED"/>
</g>
<path d="M50.9215 298.624L47.886 300.492L40.4141 296.056L43.6831 294.421L50.9215 298.624Z" fill="white"/>
<path d="M56.7575 295.355L53.722 296.99L46.25 292.787L49.2855 291.152L56.7575 295.355Z" fill="white"/>
<path d="M62.3629 292.086L59.3274 293.721L51.8555 289.518L55.1245 287.65L62.3629 292.086Z" fill="white"/>
<path d="M68.2008 288.584L65.1653 290.452L57.6934 286.249L60.7288 284.381L68.2008 288.584Z" fill="white"/>
<path d="M473.555 395.293L418.682 363.537C417.281 362.836 415.647 362.369 414.012 362.136C414.012 362.136 414.012 362.136 413.779 362.136C413.545 362.136 413.078 362.136 412.845 362.136C412.611 362.136 412.611 362.136 412.378 362.136C412.144 362.136 411.677 362.136 411.444 362.369C411.21 362.369 411.21 362.369 410.977 362.369C410.743 362.369 410.276 362.603 410.043 362.603C409.809 362.603 409.809 362.603 409.576 362.603C409.109 362.836 408.875 362.836 408.408 363.07L367.312 386.887L328.318 409.536L324.582 410.003V413.506V413.973C324.816 414.907 325.516 415.841 326.917 416.775L382.023 448.53C383.424 449.231 385.058 449.698 386.693 449.931C386.693 449.931 386.693 449.931 386.926 449.931C387.16 449.931 387.627 449.931 387.86 449.931C388.094 449.931 388.094 449.931 388.327 449.931C388.561 449.931 389.028 449.931 389.261 449.698C389.495 449.698 389.495 449.698 389.728 449.698C389.962 449.698 390.429 449.464 390.662 449.464C390.896 449.464 390.896 449.464 391.129 449.464C391.596 449.231 391.83 449.231 392.297 448.997L474.255 401.597C475.656 400.897 476.123 399.963 476.123 398.795V395.526L473.555 395.293Z" fill="white"/>
<path d="M326.451 407.435L367.547 383.618L431.292 420.277L392.064 445.028C389.262 446.663 384.826 446.429 382.024 444.795L326.918 413.272C324.116 411.638 323.883 409.069 326.451 407.435Z" fill="url(#paint4_linear_822_3894)"/>
<path d="M408.643 359.801L367.547 383.618L430.825 420.044L474.023 397.628C476.825 395.993 476.591 393.425 473.556 391.79L418.45 360.035C415.881 358.4 411.211 358.4 408.643 359.801Z" fill="url(#paint5_linear_822_3894)"/>
<path d="M475.892 394.592C476.126 395.76 475.425 396.927 474.024 397.628L392.066 445.028C390.665 445.962 388.563 446.196 386.695 446.196L392.066 397.628L475.892 394.592Z" fill="url(#paint6_linear_822_3894)"/>
<path d="M324.816 410.47C324.582 409.303 325.283 408.136 326.684 407.435L408.642 360.035C410.043 359.101 412.144 358.867 414.012 358.867L408.642 407.202L324.816 410.47Z" fill="url(#paint7_linear_822_3894)"/>
<path d="M387.16 425.648C386.927 425.648 386.927 425.648 386.693 425.648H385.759C384.125 425.414 382.724 424.947 381.556 424.247L326.45 392.491C325.283 391.79 324.349 390.856 324.115 389.922H323.882L323.648 388.988V388.755C323.648 388.521 323.648 388.288 323.648 388.054C323.648 387.821 323.648 387.821 323.648 387.821C323.648 387.587 323.882 387.354 323.882 387.12C323.882 386.887 323.882 386.887 324.115 386.887C324.349 386.653 324.582 386.42 324.582 386.186L324.816 385.953C325.049 385.719 325.516 385.486 325.983 385.252L407.942 337.852C408.409 337.619 408.876 337.385 409.343 337.152H409.576C410.043 336.918 410.277 336.918 410.744 336.918H410.977C411.444 336.918 411.911 336.685 412.145 336.685H412.378C412.845 336.685 413.312 336.685 413.546 336.685H414.48C416.114 336.918 417.515 337.385 418.683 338.086L473.788 369.841C474.956 370.542 475.89 371.476 476.123 372.41H476.357L476.59 373.344V373.577C476.59 373.811 476.59 374.044 476.59 374.278C476.59 374.511 476.59 374.511 476.59 374.511C476.59 374.745 476.357 374.978 476.357 375.212C476.357 375.445 476.357 375.445 476.123 375.445C475.89 375.679 475.656 375.912 475.656 376.146L475.423 376.379C475.189 376.613 474.722 376.846 474.255 377.08L392.297 424.48C391.83 424.714 391.363 424.947 390.896 425.181H390.663C390.196 425.414 389.962 425.414 389.495 425.414H389.262C388.795 425.414 388.328 425.648 388.094 425.648H387.861C387.627 425.648 387.394 425.648 387.16 425.648ZM389.028 423.546L389.495 424.247L389.262 423.313C389.495 423.313 389.729 423.079 390.196 423.079L390.896 423.78L390.663 422.846C391.13 422.612 391.363 422.612 391.597 422.379L473.555 374.978C473.788 374.745 474.022 374.745 474.255 374.511L474.956 374.978L474.255 374.278C474.489 374.044 474.489 374.044 474.489 373.811C474.722 373.577 474.722 373.344 474.722 373.344C474.722 373.11 474.722 372.877 474.722 372.877C474.489 372.176 474.022 371.476 472.854 370.775L417.749 339.02C416.581 338.319 415.18 337.852 413.546 337.852H413.079C412.845 337.852 412.612 337.852 412.378 337.852H411.911C411.678 337.852 411.444 337.852 410.977 337.852L410.51 337.152L410.744 338.086C410.51 338.086 410.277 338.319 409.81 338.319L409.109 337.619L409.343 338.553C408.876 338.786 408.642 338.786 408.409 339.02L326.917 386.653C326.684 386.887 326.45 386.887 326.217 387.12C325.983 387.354 325.75 387.587 325.75 387.587C325.516 387.821 325.516 388.054 325.516 388.054C325.516 388.288 325.516 388.521 325.516 388.521C325.75 389.222 326.217 389.922 327.384 390.623L382.49 422.379C383.658 423.079 385.059 423.546 386.693 423.546H386.927C387.16 423.546 387.394 423.546 387.627 423.546H388.094C388.561 423.78 388.795 423.78 389.028 423.546Z" fill="white"/>
<path opacity="0.4" d="M475.189 375.212C475.423 374.978 475.423 374.745 475.656 374.745V374.511C475.656 374.278 475.89 374.044 475.89 374.044V373.811C475.89 373.577 475.89 373.344 475.89 373.344C475.656 372.41 474.956 371.476 473.555 370.542L418.449 338.786C417.048 338.085 415.413 337.618 413.779 337.385C413.779 337.385 413.779 337.385 413.545 337.385C413.312 337.385 412.845 337.385 412.611 337.385C412.378 337.385 412.378 337.385 412.144 337.385C411.911 337.385 411.444 337.385 411.21 337.618C410.977 337.618 410.977 337.618 410.743 337.618C410.51 337.618 410.043 337.852 409.809 337.852C409.576 337.852 409.576 337.852 409.342 337.852C408.875 338.085 408.642 338.085 408.175 338.319L380.856 354.197L367.079 362.136L325.983 385.953C325.516 386.186 325.283 386.42 325.049 386.653C325.049 386.653 325.049 386.887 324.816 386.887C324.582 387.12 324.582 387.354 324.349 387.354V387.587C324.349 387.821 324.115 388.054 324.115 388.054V388.288C324.115 388.521 324.115 388.755 324.115 388.755C324.349 389.689 325.049 390.623 326.45 391.557L381.556 423.312C382.957 424.013 384.592 424.48 386.226 424.713C386.226 424.713 386.226 424.713 386.46 424.713C386.693 424.713 387.16 424.713 387.394 424.713C387.627 424.713 387.627 424.713 387.861 424.713C388.094 424.713 388.561 424.713 388.795 424.48C389.028 424.48 389.028 424.48 389.262 424.48C389.495 424.48 389.962 424.246 390.196 424.246C390.429 424.246 390.429 424.246 390.663 424.246C391.13 424.013 391.363 424.013 391.83 423.779L473.788 376.379C474.489 375.912 474.722 375.679 475.189 375.212C474.956 375.445 475.189 375.212 475.189 375.212Z" fill="white"/>
</g>
<defs>
<filter id="filter0_b_822_3894" x="-4" y="-4" width="553.063" height="569.042" filterUnits="userSpaceOnUse" color-interpolation-filters="sRGB">
<feFlood flood-opacity="0" result="BackgroundImageFix"/>
<feGaussianBlur in="BackgroundImage" stdDeviation="2"/>
<feComposite in2="SourceAlpha" operator="in" result="effect1_backgroundBlur_822_3894"/>
<feBlend mode="normal" in="SourceGraphic" in2="effect1_backgroundBlur_822_3894" result="shape"/>
</filter>
<filter id="filter1_d_822_3894" x="207.53" y="74.5739" width="321.468" height="312.56" filterUnits="userSpaceOnUse" color-interpolation-filters="sRGB">
<feFlood flood-opacity="0" result="BackgroundImageFix"/>
<feColorMatrix in="SourceAlpha" type="matrix" values="0 0 0 0 0 0 0 0 0 0 0 0 0 0 0 0 0 0 127 0" result="hardAlpha"/>
<feOffset dy="6.01531"/>
<feGaussianBlur stdDeviation="6.92272"/>
<feComposite in2="hardAlpha" operator="out"/>
<feColorMatrix type="matrix" values="0 0 0 0 0 0 0 0 0 0 0 0 0 0 0 0 0 0 0.25 0"/>
<feBlend mode="normal" in2="BackgroundImageFix" result="effect1_dropShadow_822_3894"/>
<feBlend mode="normal" in="SourceGraphic" in2="effect1_dropShadow_822_3894" result="shape"/>
</filter>
<linearGradient id="paint0_linear_822_3894" x1="37.0241" y1="236.422" x2="499.446" y2="480.073" gradientUnits="userSpaceOnUse">
<stop stop-color="#3A9BD5"/>
<stop offset="0.3053" stop-color="#3A9BD5"/>
<stop offset="0.3555" stop-color="#3A9BD5"/>
<stop offset="0.5988" stop-color="#3999D4"/>
<stop offset="0.6883" stop-color="#3592CF"/>
<stop offset="0.7522" stop-color="#2F86C7"/>
<stop offset="0.8039" stop-color="#2676BC"/>
<stop offset="0.8102" stop-color="#2573BA"/>
</linearGradient>
<linearGradient id="paint1_linear_822_3894" x1="49.6875" y1="391.63" x2="460.579" y2="218.381" gradientUnits="userSpaceOnUse">
<stop stop-color="#59BDEF"/>
<stop offset="1" stop-color="#7BDAFF"/>
</linearGradient>
<linearGradient id="paint2_linear_822_3894" x1="565.208" y1="5.09782" x2="268.353" y2="387.408" gradientUnits="userSpaceOnUse">
<stop stop-color="#59BDEF"/>
<stop offset="1" stop-color="#7BDAFF"/>
</linearGradient>
<linearGradient id="paint3_linear_822_3894" x1="370.085" y1="289.295" x2="292.395" y2="331.102" gradientUnits="userSpaceOnUse">
<stop stop-color="#59BDEF"/>
<stop offset="1" stop-color="#7BDAFF"/>
</linearGradient>
<linearGradient id="paint4_linear_822_3894" x1="386.372" y1="476.692" x2="386.218" y2="408.602" gradientUnits="userSpaceOnUse">
<stop offset="0.7677" stop-color="#59BDEF"/>
<stop offset="0.8452" stop-color="#55B8EB"/>
<stop offset="0.9318" stop-color="#49ABE1"/>
<stop offset="1" stop-color="#3A9BD5"/>
</linearGradient>
<linearGradient id="paint5_linear_822_3894" x1="528.571" y1="394.209" x2="410.774" y2="393.85" gradientUnits="userSpaceOnUse">
<stop offset="0.7677" stop-color="#59BDEF"/>
<stop offset="0.8452" stop-color="#55B8EB"/>
<stop offset="0.9318" stop-color="#49ABE1"/>
<stop offset="1" stop-color="#3A9BD5"/>
</linearGradient>
<linearGradient id="paint6_linear_822_3894" x1="498.127" y1="458.943" x2="449.752" y2="375.411" gradientUnits="userSpaceOnUse">
<stop offset="0.7677" stop-color="#3A9BD5"/>
<stop offset="0.8386" stop-color="#3896D2"/>
<stop offset="0.9179" stop-color="#3189C9"/>
<stop offset="1" stop-color="#2573BA"/>
</linearGradient>
<linearGradient id="paint7_linear_822_3894" x1="389.481" y1="359.736" x2="374.667" y2="435.204" gradientUnits="userSpaceOnUse">
<stop stop-color="#7BDAFF"/>
<stop offset="1" stop-color="#59BDEF"/>
</linearGradient>
</defs>
</svg>
