<svg width="400" height="400" viewBox="0 0 400 400" fill="none" xmlns="http://www.w3.org/2000/svg">
<path d="M89.7899 369.231L138.772 286.007L187.754 203.077L236.438 119.853L244.502 106.666L248.086 119.853L263.02 174.652L246.294 203.077L197.312 286.007L148.628 369.231H207.168L256.151 286.007L281.538 242.93L293.485 286.007L316.184 369.231H368.75L346.051 286.007L323.352 203.077L317.378 181.685L353.816 119.853L300.653 119.853L298.861 113.699L280.343 45.7141L277.954 36.9229L226.881 36.9229L225.686 38.6811L177.898 119.853L128.916 203.077L80.2323 286.007L31.25 369.231H89.7899Z" fill="black"/>
</svg>
