<svg width="120" height="120" viewBox="0 0 120 120" fill="none" xmlns="http://www.w3.org/2000/svg">
<path d="M26.937 110.769L41.6316 85.8024L56.3263 60.9233L70.9314 35.9563L73.3507 32.0002L74.4259 35.9563L78.906 52.3958L73.8883 60.9233L59.1936 85.8024L44.5885 110.769H62.1505L76.8451 85.8024L84.4613 72.8793L88.0454 85.8024L94.8551 110.769H110.625L103.815 85.8024L97.0055 60.9233L95.2135 54.5057L106.145 35.9563H90.1958L89.6582 34.1101L84.1029 13.7145L83.3861 11.0771L68.0642 11.0771L67.7058 11.6046L53.3695 35.9563L38.6748 60.9233L24.0697 85.8024L9.37501 110.769H26.937Z" fill="black"/>
</svg>
