<svg xmlns="http://www.w3.org/2000/svg" width="90" height="24" fill="none">
    <path fill-rule="evenodd" clip-rule="evenodd"
        d="M11.633 3.361c.72-.898 1.211-2.12 1.075-3.361-1.041.046-2.343.72-3.093 1.598-.663.774-1.256 2.044-1.103 3.237 1.17.087 2.37-.59 3.12-1.474Zm2.634 7.791c-.024-2.63 2.139-3.919 2.27-3.997l.002-.001c-1.244-1.81-3.171-2.058-3.848-2.078-.99-.104-1.963.281-2.757.596-.504.2-.937.371-1.257.371-.364 0-.81-.178-1.308-.378-.652-.262-1.396-.56-2.171-.545-1.761.027-3.409 1.046-4.312 2.627-1.865 3.225-.474 7.964 1.312 10.57.894 1.277 1.938 2.703 3.305 2.652.62-.025 1.06-.21 1.515-.401.525-.221 1.07-.45 1.936-.45.816 0 1.338.222 1.839.435.48.204.94.4 1.623.384 1.435-.023 2.339-1.282 3.201-2.57 1.033-1.463 1.448-2.904 1.464-2.978-.034-.012-2.787-1.061-2.814-4.237Zm17.483 9.634h1.869l-3.543-10.94h-2.178l-3.525 10.94h1.82l.975-3.213h3.558l1.024 3.213Zm-2.258-7.418.925 2.857h-2.94l.91-2.857a79.29 79.29 0 0 0 .52-2.06h.032c.271 1.081.455 1.769.553 2.06Zm13.193 3.377c0 1.342-.363 2.402-1.089 3.18-.65.693-1.457 1.04-2.42 1.04-1.04 0-1.788-.374-2.243-1.12H36.9V24h-1.755v-8.505c0-.844-.022-1.71-.065-2.597h1.544l.097 1.25h.033c.585-.942 1.473-1.412 2.665-1.412.932 0 1.71.367 2.331 1.103.624.737.935 1.705.935 2.906Zm-1.787.064c0-.768-.173-1.4-.52-1.899-.38-.52-.889-.779-1.528-.779-.433 0-.826.145-1.177.43a1.993 1.993 0 0 0-.69 1.129 2.293 2.293 0 0 0-.082.534v1.315c0 .574.176 1.058.528 1.453.352.396.81.593 1.373.593.66 0 1.175-.255 1.543-.763.369-.509.553-1.18.553-2.013Zm9.78 3.116c.727-.778 1.09-1.838 1.09-3.18 0-1.2-.312-2.17-.933-2.906-.624-.736-1.401-1.103-2.332-1.103-1.193 0-2.08.47-2.665 1.412h-.033l-.098-1.25h-1.543c.043.888.065 1.753.065 2.597V24h1.755v-4.155h.033c.454.746 1.201 1.12 2.241 1.12.964 0 1.771-.347 2.42-1.04ZM49.46 14.91c.347.498.52 1.131.52 1.9 0 .833-.183 1.503-.552 2.012-.368.508-.882.763-1.543.763-.565 0-1.022-.198-1.375-.593-.35-.395-.526-.88-.526-1.453v-1.315c0-.14.028-.317.081-.534.108-.466.338-.841.69-1.129.352-.285.745-.43 1.178-.43.64 0 1.148.26 1.527.78Zm12.463 2.808c0 .93-.324 1.688-.973 2.272-.713.639-1.707.958-2.983.958-1.178 0-2.123-.227-2.838-.682l.406-1.46c.77.465 1.616.698 2.537.698.66 0 1.175-.15 1.544-.447.368-.297.552-.697.552-1.195 0-.444-.152-.818-.455-1.121-.303-.303-.807-.585-1.511-.846-1.918-.714-2.876-1.76-2.876-3.137 0-.899.336-1.636 1.008-2.21.67-.575 1.564-.861 2.681-.861.997 0 1.825.173 2.486.519l-.439 1.429c-.617-.336-1.315-.503-2.096-.503-.617 0-1.1.152-1.445.454-.292.27-.439.6-.439.99 0 .433.167.79.503 1.072.292.26.823.54 1.593.844.943.379 1.635.822 2.08 1.33.444.506.665 1.14.665 1.896Zm3.867-3.505h1.934v-1.317H65.79v-1.964l-1.723.52v1.444h-1.152v1.315h1.152v3.977c0 .995.196 1.704.585 2.126.391.422.932.633 1.625.633.564 0 1.02-.065 1.365-.194l-.049-1.33a3.122 3.122 0 0 1-.78.08c-.682 0-1.023-.486-1.023-1.46v-3.83Zm10.66 2.564c0 1.213-.348 2.208-1.04 2.987-.727.801-1.691 1.2-2.894 1.2-1.158 0-2.081-.383-2.77-1.151-.687-.768-1.031-1.737-1.031-2.905 0-1.222.354-2.224 1.064-3.002.708-.78 1.664-1.169 2.867-1.169 1.158 0 2.091.384 2.794 1.153.674.745 1.01 1.708 1.01 2.887Zm-1.82.057c0-.727-.156-1.351-.471-1.872-.369-.63-.894-.943-1.576-.943-.705 0-1.24.315-1.608.943-.315.521-.471 1.155-.471 1.905 0 .727.156 1.351.47 1.87.38.63.91.944 1.594.944.67 0 1.196-.32 1.575-.96.324-.53.486-1.16.486-1.887Zm6.97-2.443c.195 0 .38.016.553.048v-1.67a2.834 2.834 0 0 0-.439-.033c-.455 0-.877.14-1.268.423a2.7 2.7 0 0 0-.877 1.25h-.049l-.064-1.51h-1.528c.043.746.066 1.574.066 2.483l-.017 5.404h1.754v-4.139c0-.627.146-1.146.439-1.557.336-.466.812-.7 1.43-.7Zm8.4 2.078c0 .314-.021.578-.064.795h-5.264c.02.779.275 1.375.764 1.786.443.367 1.017.552 1.721.552.78 0 1.49-.125 2.13-.374l.275 1.217c-.747.325-1.63.487-2.647.487-1.225 0-2.187-.36-2.886-1.079-.698-.72-1.048-1.685-1.048-2.897 0-1.19.326-2.18.977-2.97.681-.843 1.602-1.265 2.76-1.265 1.139 0 2 .422 2.586 1.265.463.67.696 1.499.696 2.483Zm-1.674-.455c.013-.52-.102-.968-.34-1.347-.304-.487-.77-.73-1.398-.73-.574 0-1.04.237-1.396.714a2.612 2.612 0 0 0-.52 1.363h3.654ZM28.966 5.302c.58-.489.871-1.217.871-2.185 0-.861-.269-1.523-.806-1.985-.479-.41-1.189-.615-2.131-.615-.533 0-1.027.038-1.485.112v5.287c.351.042.77.064 1.261.064.99 0 1.753-.226 2.29-.678Zm-.537-3.604c.333.335.499.816.499 1.443 0 .702-.181 1.237-.54 1.603-.359.367-.868.55-1.528.55-.283 0-.477-.007-.583-.024V1.252c.192-.038.423-.056.695-.056.639 0 1.124.167 1.457.502Zm6.23 2.264c0 .596-.17 1.084-.511 1.467-.357.394-.83.59-1.421.59-.57 0-1.023-.188-1.362-.566-.337-.377-.506-.853-.506-1.427 0-.6.174-1.092.523-1.475.349-.382.818-.573 1.409-.573.57 0 1.027.188 1.373.565.33.367.495.84.495 1.419Zm-.895.028c0-.358-.077-.664-.23-.92-.182-.309-.44-.464-.774-.464-.347 0-.61.155-.791.464-.155.256-.232.567-.232.936 0 .357.078.664.232.92.186.308.447.463.782.463.33 0 .588-.157.774-.472.16-.26.24-.57.24-.927Zm7.36-1.932v-.001Zm-.847 0h.847L39.91 5.932h-.79l-.503-1.683c-.127-.42-.23-.837-.311-1.252h-.016a9.161 9.161 0 0 1-.312 1.252l-.534 1.683h-.8l-1.14-3.875h.886l.438 1.842c.106.436.194.85.264 1.244h.015c.065-.324.17-.737.32-1.236l.551-1.85h.703l.527 1.81c.128.442.232.867.311 1.277h.024c.059-.4.147-.824.264-1.276l.47-1.81Zm5.318 3.874h-.862v-2.22c0-.684-.26-1.026-.782-1.026a.779.779 0 0 0-.623.282 1 1 0 0 0-.24.665V5.93h-.862V3.164c0-.34-.01-.71-.031-1.109h.758l.04.606h.024c.1-.188.25-.344.447-.468.233-.144.495-.218.781-.218.362 0 .664.117.903.351.298.287.447.716.447 1.284v2.322Zm1.516 0h.862V.279h-.862v5.653Zm5.94-1.97c0 .596-.17 1.084-.511 1.467-.357.394-.831.59-1.421.59-.57 0-1.024-.188-1.362-.566-.337-.377-.506-.853-.506-1.427 0-.6.174-1.092.523-1.475.349-.382.818-.573 1.408-.573.57 0 1.027.188 1.374.565.33.367.495.84.495 1.419Zm-.896.028c0-.358-.077-.664-.23-.92-.181-.309-.44-.464-.774-.464-.347 0-.61.155-.79.464-.155.256-.232.567-.232.936 0 .357.078.664.232.92.187.308.447.463.782.463.33 0 .587-.157.773-.472.16-.26.24-.57.24-.927ZM56.45 5.93h.774a6.034 6.034 0 0 1-.056-.923V3.58c0-1.069-.508-1.603-1.522-1.603-.525 0-.97.111-1.33.334l.174.566c.292-.19.63-.287 1.012-.287.537 0 .805.255.805.765v.072c-.718-.005-1.276.117-1.673.367s-.595.61-.595 1.084c0 .314.102.577.304.79.223.233.52.35.886.35.49 0 .868-.178 1.133-.534h.024l.064.446Zm-.121-1.929V4.6a.734.734 0 0 1-.313.61.871.871 0 0 1-.527.179.604.604 0 0 1-.422-.151c-.11-.101-.165-.253-.165-.455 0-.537.475-.797 1.427-.78Zm5.797 1.93h-.766l-.04-.623h-.024c-.244.474-.66.71-1.246.71a1.46 1.46 0 0 1-1.165-.55c-.309-.366-.463-.842-.463-1.426 0-.627.167-1.135.503-1.523a1.547 1.547 0 0 1 1.198-.543c.52 0 .885.175 1.092.526h.017V.28h.863v4.609c0 .377.01.725.03 1.044Zm-.894-1.635v-.646a.981.981 0 0 0-.336-.793.848.848 0 0 0-.577-.211.885.885 0 0 0-.759.383c-.183.256-.276.582-.276.98 0 .384.088.694.265.934a.888.888 0 0 0 .754.382c.283 0 .51-.106.681-.32.166-.196.248-.432.248-.709ZM68.99 5.43c.34-.383.511-.871.511-1.467 0-.579-.165-1.052-.495-1.419-.345-.377-.804-.565-1.372-.565-.592 0-1.061.191-1.41.573-.349.383-.522.875-.522 1.475 0 .574.168 1.05.506 1.427.339.378.792.566 1.36.566.593 0 1.065-.196 1.422-.59Zm-.614-2.359c.154.256.231.562.231.92s-.08.667-.24.927c-.185.315-.444.472-.773.472-.336 0-.596-.155-.783-.464-.154-.255-.231-.562-.231-.92 0-.368.076-.68.23-.935.183-.309.446-.464.792-.464.335 0 .592.155.774.464Zm5.76 2.862h-.86v-2.22c0-.684-.26-1.026-.783-1.026a.776.776 0 0 0-.622.282.997.997 0 0 0-.24.665V5.93h-.863V3.164c0-.34-.01-.71-.03-1.109h.757l.04.606h.024c.101-.188.251-.344.447-.468.235-.144.495-.218.783-.218.36 0 .662.117.902.351.299.287.446.716.446 1.284v2.322Zm4.856-3.23h.949v-.646h-.95v-.964l-.845.255v.71h-.567v.645h.567v1.954c0 .49.096.838.288 1.045.192.207.457.31.798.31.276 0 .5-.031.67-.096l-.023-.653c-.1.027-.229.04-.384.04-.334 0-.503-.239-.503-.717V2.702Zm5.516 3.23h-.864V3.729c0-.695-.26-1.043-.78-1.043-.4 0-.674.202-.824.605-.025.084-.04.188-.04.31v2.33h-.862V.279h.863v2.335h.016c.271-.425.66-.637 1.165-.637.357 0 .652.117.887.351.293.292.44.726.44 1.3v2.304Zm4.677-1.73a2.1 2.1 0 0 0 .033-.391c0-.483-.115-.89-.346-1.22-.287-.413-.71-.62-1.269-.62-.57 0-1.021.207-1.356.62-.32.389-.478.875-.478 1.46 0 .595.17 1.07.514 1.423.342.353.815.53 1.416.53.501 0 .934-.08 1.302-.24l-.135-.598a2.866 2.866 0 0 1-1.046.184c-.345 0-.628-.09-.847-.272-.24-.202-.363-.494-.374-.877h2.586Zm-.958-1.276c.117.186.174.406.167.662H86.6c.028-.26.112-.483.255-.67a.82.82 0 0 1 .687-.35c.308 0 .537.12.686.358Z"
        fill="#000" />
</svg>