<svg xmlns="http://www.w3.org/2000/svg" width="102" height="25" fill="none">
    <path
        d="M32.975 3.972c0 .741-.22 1.332-.66 1.764-.493.52-1.145.785-1.937.785a2.662 2.662 0 0 1-1.946-.793c-.537-.53-.802-1.191-.802-1.967 0-.785.265-1.438.802-1.967A2.662 2.662 0 0 1 30.378 1c.378 0 .74.07 1.083.22.343.15.616.344.827.591l-.466.468c-.353-.415-.828-.626-1.444-.626-.555 0-1.04.194-1.445.59-.404.389-.607.9-.607 1.527 0 .626.203 1.137.607 1.525.406.389.89.591 1.445.591.59 0 1.083-.194 1.479-.59.255-.256.405-.618.44-1.077h-1.92v-.635h2.563c.018.133.035.265.035.388ZM37.025 1.767h-2.403v1.676h2.166v.635h-2.166v1.676h2.403v.653h-3.081V1.115h3.081v.652ZM39.896 6.407h-.678v-4.64h-1.48v-.652h3.628v.652h-1.479v4.64h.009ZM43.99 6.407V1.115h.678v5.292h-.678ZM47.68 6.407h-.678v-4.64h-1.48v-.652h3.628v.652h-1.48v4.64h.01ZM56.036 5.719c-.52.538-1.163.802-1.937.802-.775 0-1.418-.264-1.938-.802-.519-.538-.774-1.19-.774-1.958s.255-1.43.774-1.958C52.681 1.265 53.324 1 54.1 1c.766 0 1.409.265 1.937.803.52.538.783 1.19.783 1.958-.008.776-.273 1.429-.783 1.958Zm-3.373-.441c.388.397.872.59 1.436.59.563 0 1.047-.193 1.435-.59.387-.397.59-.9.59-1.517 0-.618-.194-1.12-.59-1.517-.388-.397-.872-.591-1.435-.591-.564 0-1.048.194-1.436.59-.387.398-.59.9-.59 1.518 0 .617.194 1.12.59 1.517ZM57.762 6.407V1.115h.827l2.571 4.119h.027L61.16 4.21V1.115h.678v5.292h-.704l-2.686-4.313h-.026l.026 1.023v3.29h-.686Z"
        fill="#f3f9ff" />
    <path
        d="M32.975 3.972c0 .741-.22 1.332-.66 1.764-.493.52-1.145.785-1.937.785a2.662 2.662 0 0 1-1.946-.793c-.537-.53-.802-1.191-.802-1.967 0-.785.265-1.438.802-1.967A2.662 2.662 0 0 1 30.378 1c.378 0 .74.07 1.083.22.343.15.616.344.827.591l-.466.468c-.353-.415-.828-.626-1.444-.626-.555 0-1.04.194-1.445.59-.404.389-.607.9-.607 1.527 0 .626.203 1.137.607 1.525.406.389.89.591 1.445.591.59 0 1.083-.194 1.479-.59.255-.256.405-.618.44-1.077h-1.92v-.635h2.563c.018.133.035.265.035.388ZM37.025 1.767h-2.403v1.676h2.166v.635h-2.166v1.676h2.403v.653h-3.081V1.115h3.081v.652ZM39.896 6.407h-.678v-4.64h-1.48v-.652h3.628v.652h-1.479v4.64h.009ZM43.99 6.407V1.115h.678v5.292h-.678ZM47.68 6.407h-.678v-4.64h-1.48v-.652h3.628v.652h-1.48v4.64h.01ZM56.036 5.719c-.52.538-1.163.802-1.937.802-.775 0-1.418-.264-1.938-.802-.519-.538-.774-1.19-.774-1.958s.255-1.43.774-1.958C52.681 1.265 53.324 1 54.1 1c.766 0 1.409.265 1.937.803.52.538.783 1.19.783 1.958-.008.776-.273 1.429-.783 1.958Zm-3.373-.441c.388.397.872.59 1.436.59.563 0 1.047-.193 1.435-.59.387-.397.59-.9.59-1.517 0-.618-.194-1.12-.59-1.517-.388-.397-.872-.591-1.435-.591-.564 0-1.048.194-1.436.59-.387.398-.59.9-.59 1.518 0 .617.194 1.12.59 1.517ZM57.762 6.407V1.115h.827l2.571 4.119h.027L61.16 4.21V1.115h.678v5.292h-.704l-2.686-4.313h-.026l.026 1.023v3.29h-.686Z"
        stroke="#f3f9ff" stroke-width=".141" stroke-miterlimit="10" />
    <path
        d="M51.212 14.125c-2.07 0-3.76 1.579-3.76 3.748 0 2.161 1.69 3.749 3.76 3.749s3.76-1.588 3.76-3.749c0-2.17-1.69-3.748-3.76-3.748Zm0 6.024c-1.136 0-2.113-.935-2.113-2.276 0-1.35.977-2.275 2.113-2.275 1.136 0 2.113.926 2.113 2.275 0 1.341-.977 2.276-2.113 2.276Zm-8.198-6.024c-2.069 0-3.76 1.579-3.76 3.748 0 2.161 1.691 3.749 3.76 3.749 2.07 0 3.76-1.588 3.76-3.749 0-2.17-1.69-3.748-3.76-3.748Zm0 6.024c-1.136 0-2.113-.935-2.113-2.276 0-1.35.977-2.275 2.113-2.275 1.136 0 2.114.926 2.114 2.275 0 1.341-.978 2.276-2.114 2.276Zm-9.756-4.869v1.588h3.804c-.114.89-.414 1.552-.863 2.002-.554.556-1.417 1.164-2.932 1.164-2.342 0-4.174-1.887-4.174-4.233 0-2.347 1.832-4.234 4.174-4.234 1.26 0 2.184.494 2.862 1.138l1.118-1.12c-.95-.909-2.21-1.606-3.989-1.606-3.205 0-5.9 2.611-5.9 5.83 0 3.211 2.695 5.83 5.9 5.83 1.735 0 3.038-.564 4.06-1.631 1.047-1.05 1.373-2.532 1.373-3.722 0-.37-.026-.715-.088-.997h-5.345v-.009Zm39.896 1.235c-.308-.838-1.259-2.39-3.205-2.39-1.928 0-3.53 1.517-3.53 3.748 0 2.1 1.584 3.749 3.715 3.749 1.717 0 2.712-1.05 3.117-1.658l-1.277-.856c-.422.626-1.003 1.041-1.84 1.041-.836 0-1.435-.388-1.814-1.138l5.01-2.073-.176-.423Zm-5.107 1.252c-.044-1.446 1.118-2.187 1.955-2.187.652 0 1.206.326 1.391.794l-3.346 1.393Zm-4.068 3.634h1.647V10.376h-1.647v11.025Zm-2.703-6.438h-.053c-.37-.441-1.074-.838-1.972-.838-1.875 0-3.593 1.65-3.593 3.766 0 2.1 1.718 3.74 3.593 3.74.89 0 1.602-.397 1.972-.856h.053v.538c0 1.438-.766 2.205-1.999 2.205-1.003 0-1.629-.723-1.884-1.332l-1.435.6c.414.997 1.506 2.214 3.32 2.214 1.928 0 3.557-1.138 3.557-3.907v-6.739h-1.559v.609Zm-1.884 5.186c-1.136 0-2.087-.953-2.087-2.258 0-1.323.951-2.284 2.087-2.284 1.118 0 1.999.97 1.999 2.284 0 1.305-.88 2.258-2 2.258Zm21.467-9.773h-3.936v11.025h1.646v-4.18h2.299c1.822 0 3.61-1.323 3.61-3.423 0-2.099-1.797-3.422-3.62-3.422Zm.044 5.31h-2.334v-3.784h2.334c1.232 0 1.928 1.023 1.928 1.888 0 .864-.696 1.896-1.928 1.896Zm10.152-1.579c-1.189 0-2.421.53-2.932 1.685l1.462.608c.308-.608.889-.811 1.497-.811.845 0 1.717.511 1.725 1.42v.115a3.673 3.673 0 0 0-1.717-.424c-1.576 0-3.17.865-3.17 2.479 0 1.473 1.286 2.425 2.73 2.425 1.1 0 1.717-.494 2.096-1.076h.052v.856h1.585v-4.225c.018-1.958-1.444-3.052-3.328-3.052Zm-.194 6.042c-.537 0-1.285-.274-1.285-.935 0-.847.933-1.173 1.743-1.173.722 0 1.066.159 1.497.37a2.002 2.002 0 0 1-1.955 1.738Zm9.316-5.804-1.884 4.78h-.053l-1.955-4.78h-1.77l2.933 6.686-1.673 3.713h1.717L102 14.345h-1.823Zm-14.801 7.056h1.646V10.376h-1.646v11.025Z"
        fill="#f3f9ff" />
    <path
        d="M.405 1.592C.15 1.865 0 2.289 0 2.827v19.51c0 .547.15.97.405 1.235l.062.062 10.91-10.929v-.256L.474 1.53l-.07.062Z"
        fill="url(#a)" />
    <path
        d="m15.014 16.357-3.637-3.643v-.265l3.636-3.642.08.044 4.305 2.452c1.233.697 1.233 1.843 0 2.549l-4.305 2.452-.08.053Z"
        fill="url(#b)" />
    <path d="m15.102 16.304-3.725-3.722-10.97 10.99c.404.432 1.073.485 1.83.053l12.865-7.321Z" fill="url(#c)" />
    <path d="M15.102 8.859 2.238 1.539C1.48 1.105.81 1.158.406 1.59l10.971 10.99 3.725-3.722Z" fill="url(#d)" />
    <path opacity=".2"
        d="M15.024 16.224 2.24 23.501c-.713.405-1.356.379-1.76.008l-.062.062.061.062c.414.37 1.048.397 1.761-.009l12.864-7.32-.079-.08Z"
        fill="#f3f9ff" />
    <path opacity=".12"
        d="M.407 23.448C.15 23.174 0 22.75 0 22.213v.132c0 .547.15.97.406 1.235l.061-.062-.061-.07ZM19.405 13.728l-4.394 2.496.08.08 4.305-2.452c.616-.353.925-.812.925-1.27-.044.414-.353.829-.916 1.146Z"
        fill="#f3f9ff" />
    <path opacity=".25"
        d="m2.237 1.662 17.17 9.773c.555.317.872.723.924 1.146 0-.458-.308-.926-.924-1.27L2.237 1.538C1.004.842 0 1.424 0 2.835v.132C0 1.547 1.004.965 2.237 1.662Z"
        fill="#f3f9ff" />
    <defs>
        <linearGradient id="a" x1="10.413" y1="2.623" x2="-4.389" y2="17.401" gradientUnits="userSpaceOnUse">
            <stop stop-color="#00A0FF" />
            <stop offset=".007" stop-color="#00A1FF" />
            <stop offset=".26" stop-color="#00BEFF" />
            <stop offset=".512" stop-color="#00D2FF" />
            <stop offset=".76" stop-color="#00DFFF" />
            <stop offset="1" stop-color="#00E3FF" />
        </linearGradient>
        <linearGradient id="b" x1="21.011" y1="12.583" x2="-.295" y2="12.583" gradientUnits="userSpaceOnUse">
            <stop stop-color="#FFE000" />
            <stop offset=".409" stop-color="#FFBD00" />
            <stop offset=".775" stop-color="orange" />
            <stop offset="1" stop-color="#FF9C00" />
        </linearGradient>
        <linearGradient id="c" x1="13.08" y1="14.607" x2="-6.993" y2="34.646" gradientUnits="userSpaceOnUse">
            <stop stop-color="#FF3A44" />
            <stop offset="1" stop-color="#C31162" />
        </linearGradient>
        <linearGradient id="d" x1="-2.355" y1="-4.904" x2="6.608" y2="4.044" gradientUnits="userSpaceOnUse">
            <stop stop-color="#32A071" />
            <stop offset=".069" stop-color="#2DA771" />
            <stop offset=".476" stop-color="#15CF74" />
            <stop offset=".801" stop-color="#06E775" />
            <stop offset="1" stop-color="#00F076" />
        </linearGradient>
    </defs>
</svg>