<svg width="120" height="120" viewBox="0 0 120 120" fill="none" xmlns="http://www.w3.org/2000/svg">
<g clip-path="url(#clip0_128_69546)">
<mask id="mask0_128_69546" style="mask-type:luminance" maskUnits="userSpaceOnUse" x="0" y="0" width="120" height="120">
<path d="M120 0L0 0L1.25639e-05 120L120 120L120 0Z" fill="white"/>
</mask>
<g mask="url(#mask0_128_69546)">
<mask id="mask1_128_69546" style="mask-type:luminance" maskUnits="userSpaceOnUse" x="0" y="0" width="120" height="120">
<path d="M120 0L0 0L1.25639e-05 120L120 120L120 0Z" fill="white"/>
</mask>
<g mask="url(#mask1_128_69546)">
<path d="M14.5359 20.4389C15.2777 19.5159 16.0641 18.628 16.8505 17.7397C16.8856 17.6956 16.9653 17.6866 17.0009 17.6429C17.0715 17.5547 17.1863 17.5021 17.2569 17.4138L17.3276 17.3261C17.876 16.8247 18.4593 16.2793 19.1319 15.8035C21.5111 14.0159 23.9803 12.6579 26.5837 11.7643C34.9349 8.86296 44.2308 10.6511 51.521 17.4617C61.6998 26.9043 60.7878 42.1149 52.6627 52.2253C42.3948 67.2969 24.7492 88.3246 49.1812 107.162C53.5738 110.548 56.8327 113.341 70.6704 117.298C61.6199 118.947 53.229 118.434 43.8888 116.074C37.2817 112.383 26.895 104.481 23.361 93.8097C18.0197 77.6266 32.7644 53.4328 39.8906 44.1149C49.6741 31.2194 33.8431 17.2597 22.1883 32.8445C16.0959 40.9666 5.43767 63.9496 9.14153 80.9979C11.3072 90.6652 14.1939 97.7116 25.6395 107.392C23.517 106.153 21.4561 104.747 19.4565 103.174C-7.13623 78.6603 -4.05086 40.7574 14.5359 20.4389Z" fill="url(#paint0_linear_128_69546)"/>
<path d="M105.062 97.821C104.32 98.7439 103.534 99.6324 102.748 100.52C102.712 100.564 102.633 100.573 102.597 100.618C102.527 100.705 102.412 100.758 102.341 100.846L102.271 100.934C101.722 101.435 101.139 101.981 100.466 102.457C98.0867 104.244 95.6177 105.602 93.0142 106.495C84.663 109.397 75.3671 107.609 68.0771 100.798C57.8983 91.356 58.8099 76.1449 66.9352 66.0349C77.2031 50.9631 94.8491 29.9355 70.4166 11.0988C66.024 7.71174 62.7652 4.91948 48.9277 0.962327C57.9776 -0.687834 66.369 -0.174633 75.7091 2.18604C82.3157 5.87664 92.703 13.7782 96.237 24.4506C101.578 40.6341 86.8337 64.827 79.7076 74.145C69.924 87.0401 85.755 101 97.41 85.4154C103.502 77.2931 114.16 54.3101 110.456 37.2626C108.291 27.5947 105.404 20.5479 93.9587 10.8678C96.081 12.1072 98.142 13.513 100.142 15.0858C126.734 39.5994 123.649 77.5026 105.062 97.821Z" fill="url(#paint1_linear_128_69546)"/>
</g>
</g>
</g>
<defs>
<linearGradient id="paint0_linear_128_69546" x1="0.0471638" y1="59.1298" x2="119.549" y2="59.1297" gradientUnits="userSpaceOnUse">
<stop stop-color="#0082FA"/>
<stop offset="1" stop-color="#00F2FE"/>
</linearGradient>
<linearGradient id="paint1_linear_128_69546" x1="0.0493344" y1="59.1306" x2="119.551" y2="59.1306" gradientUnits="userSpaceOnUse">
<stop stop-color="#0082FA"/>
<stop offset="1" stop-color="#00F2FE"/>
</linearGradient>
<clipPath id="clip0_128_69546">
<rect width="120" height="120" fill="white"/>
</clipPath>
</defs>
</svg>
