<svg width="327" height="216" viewBox="0 0 327 216" fill="none" xmlns="http://www.w3.org/2000/svg">
<g clip-path="url(#clip0_146_68439)">
<path d="M72.75 177C110.858 177 141.75 146.108 141.75 108C141.75 69.8924 110.858 39 72.75 39C34.6424 39 3.75 69.8924 3.75 108C3.75 146.108 34.6424 177 72.75 177Z" fill="#F0F0F0"/>
<path d="M69.75 108H141.75C141.75 101.772 140.92 95.7391 139.373 90H69.75V108Z" fill="#D80027"/>
<path d="M69.75 72.0001H131.623C127.399 65.1076 121.998 59.0154 115.701 54H69.75V72.0001Z" fill="#D80027"/>
<path d="M72.7503 177C88.9892 177 103.915 171.387 115.702 162H29.7988C41.5854 171.387 56.5113 177 72.7503 177Z" fill="#D80027"/>
<path d="M13.8773 144H131.623C135.014 138.467 137.643 132.419 139.373 126H6.12695C7.85654 132.419 10.4864 138.467 13.8773 144Z" fill="#D80027"/>
<path d="M35.7121 49.7753H42L36.1512 54.0245L38.3853 60.9L32.5367 56.6508L26.6882 60.9L28.618 54.9603C23.4684 59.2499 18.9548 64.2756 15.2353 69.8753H17.25L13.527 72.5801C12.9469 73.5477 12.3906 74.5307 11.8575 75.5282L13.6353 81L10.3185 78.5901C9.49398 80.3369 8.73983 82.1231 8.06196 83.9465L10.0206 89.9754H17.25L11.4012 94.2245L13.6353 101.1L7.78677 96.8508L4.2834 99.3963C3.93274 102.215 3.75 105.086 3.75 108H72.75C72.75 69.8926 72.75 65.4 72.75 39C59.1193 39 46.4128 42.954 35.7121 49.7753ZM38.3853 101.1L32.5367 96.8508L26.6882 101.1L28.9223 94.2245L23.0735 89.9754H30.3029L32.5367 83.0999L34.7706 89.9754H42L36.1512 94.2245L38.3853 101.1ZM36.1512 74.1245L38.3853 81L32.5367 76.7508L26.6882 81L28.9223 74.1245L23.0735 69.8753H30.3029L32.5367 62.9999L34.7706 69.8753H42L36.1512 74.1245ZM63.1353 101.1L57.2867 96.8508L51.4382 101.1L53.6723 94.2245L47.8235 89.9754H55.0528L57.2867 83.0999L59.5206 89.9754H66.75L60.9011 94.2245L63.1353 101.1ZM60.9011 74.1245L63.1353 81L57.2867 76.7508L51.4382 81L53.6723 74.1245L47.8235 69.8753H55.0528L57.2867 62.9999L59.5206 69.8753H66.75L60.9011 74.1245ZM60.9011 54.0245L63.1353 60.9L57.2867 56.6508L51.4382 60.9L53.6723 54.0245L47.8235 49.7753H55.0528L57.2867 42.8998L59.5206 49.7753H66.75L60.9011 54.0245Z" fill="#0052B4"/>
</g>
<g clip-path="url(#clip1_146_68439)">
<path d="M163.75 177C201.858 177 232.75 146.108 232.75 108C232.75 69.8924 201.858 39 163.75 39C125.642 39 94.75 69.8924 94.75 108C94.75 146.108 125.642 177 163.75 177Z" fill="url(#paint0_linear_146_68439)"/>
<path d="M186.372 105.941C190.725 111.75 177.979 122.979 180.843 118.341H153.693C150.756 114.5 148.736 110.3 147.766 105.941H186.372Z" fill="url(#paint1_linear_146_68439)"/>
<path d="M178.503 139.412C174.644 142.488 170.473 145.15 166.058 147.353L163.898 148.44L161.726 147.357C141.299 137.106 129.113 119.451 129.113 100.102V77.3848H141.571V100.102C141.569 101.551 141.667 102.999 141.864 104.434C143.433 116.189 151.367 127.033 163.852 134.334C163.863 134.346 163.877 134.355 163.891 134.362C163.904 134.355 163.911 134.348 163.925 134.342L163.977 134.308C168.49 136.832 173.403 138.558 178.503 139.412Z" fill="url(#paint2_linear_146_68439)"/>
<path d="M198.297 105.941C197.721 110.432 196.489 114.813 194.642 118.946C191.227 126.621 185.738 133.605 178.508 139.415C173.412 138.561 168.5 136.834 163.99 134.311C165.619 133.351 167.199 132.308 168.723 131.188C168.875 131.09 169.021 130.983 169.161 130.869C177.6 124.792 183.68 115.986 186.371 105.941H198.297Z" fill="url(#paint3_linear_146_68439)"/>
<path d="M198.684 77.3887H141.572V89.8409H198.684V77.3887Z" fill="url(#paint4_linear_146_68439)"/>
<path d="M198.683 89.8418V100.102C198.683 100.526 198.67 100.952 198.657 101.377H186.191C186.204 100.951 186.21 100.526 186.21 100.102V89.8418H198.683Z" fill="url(#paint5_linear_146_68439)"/>
</g>
<g clip-path="url(#clip2_146_68439)">
<mask id="mask0_146_68439" style="mask-type:luminance" maskUnits="userSpaceOnUse" x="185" y="39" width="139" height="138">
<path d="M323.75 39H185.75V177H323.75V39Z" fill="white"/>
</mask>
<g mask="url(#mask0_146_68439)">
<mask id="mask1_146_68439" style="mask-type:luminance" maskUnits="userSpaceOnUse" x="185" y="39" width="139" height="138">
<path d="M323.75 39H185.75V177H323.75V39Z" fill="white"/>
</mask>
<g mask="url(#mask1_146_68439)">
<path d="M202.467 62.5051C203.32 61.4436 204.224 60.4225 205.129 59.4009C205.169 59.3502 205.261 59.3398 205.302 59.2896C205.383 59.1882 205.515 59.1277 205.596 59.0262L205.678 58.9253C206.308 58.3487 206.979 57.7214 207.752 57.1743C210.489 55.1185 213.328 53.5569 216.322 52.5293C225.926 49.1927 236.616 51.2491 245 59.0813C256.706 69.9403 255.657 87.4324 246.313 99.0593C234.505 116.392 214.212 140.574 242.309 162.236C247.361 166.13 251.108 169.342 267.022 173.893C256.614 175.79 246.964 175.2 236.223 172.485C228.625 168.241 216.68 159.154 212.616 146.882C206.473 128.271 223.43 100.448 231.625 89.7325C242.876 74.9027 224.67 58.8489 211.267 76.7715C204.261 86.1119 192.004 112.542 196.264 132.148C198.754 143.265 202.074 151.369 215.236 162.501C212.795 161.076 210.425 159.459 208.126 157.65C177.544 129.46 181.092 85.8713 202.467 62.5051Z" fill="url(#paint6_linear_146_68439)"/>
<path d="M306.572 151.494C305.719 152.555 304.815 153.577 303.91 154.599C303.87 154.649 303.779 154.659 303.737 154.71C303.656 154.811 303.524 154.872 303.443 154.973L303.362 155.074C302.731 155.651 302.061 156.278 301.287 156.825C298.55 158.881 295.711 160.442 292.717 161.469C283.113 164.806 272.423 162.75 264.039 154.918C252.334 144.059 253.382 126.567 262.726 114.94C274.534 97.6075 294.827 73.4258 266.73 51.7636C261.678 47.8685 257.931 44.6574 242.018 40.1067C252.425 38.209 262.075 38.7992 272.816 41.514C280.414 45.7581 292.359 54.8449 296.423 67.1182C302.566 85.7292 285.609 113.551 277.414 124.267C266.163 139.096 284.369 155.151 297.772 137.228C304.778 127.887 317.035 101.457 312.775 81.852C310.285 70.734 306.966 62.6301 293.803 51.498C296.244 52.9232 298.614 54.54 300.914 56.3487C331.494 84.5394 327.947 128.128 306.572 151.494Z" fill="url(#paint7_linear_146_68439)"/>
</g>
</g>
</g>
<defs>
<linearGradient id="paint0_linear_146_68439" x1="232.75" y1="39" x2="67.6178" y2="91.2489" gradientUnits="userSpaceOnUse">
<stop stop-color="#000756"/>
<stop offset="1" stop-color="#0042B8"/>
</linearGradient>
<linearGradient id="paint1_linear_146_68439" x1="198.955" y1="119.936" x2="151.45" y2="107.133" gradientUnits="userSpaceOnUse">
<stop offset="0.14" stop-color="#ADADAD"/>
<stop offset="0.29" stop-color="#CBCBCB"/>
<stop offset="0.43" stop-color="#E2E2E2"/>
<stop offset="0.59" stop-color="#F2F2F2"/>
<stop offset="0.77" stop-color="#FCFCFC"/>
<stop offset="1" stop-color="white"/>
</linearGradient>
<linearGradient id="paint2_linear_146_68439" x1="181.415" y1="160.502" x2="114.265" y2="66.8449" gradientUnits="userSpaceOnUse">
<stop stop-color="#ADADAD"/>
<stop offset="0.17" stop-color="#CBCBCB"/>
<stop offset="0.34" stop-color="#E2E2E2"/>
<stop offset="0.52" stop-color="#F2F2F2"/>
<stop offset="0.73" stop-color="#FCFCFC"/>
<stop offset="1" stop-color="white"/>
</linearGradient>
<linearGradient id="paint3_linear_146_68439" x1="164.764" y1="146.328" x2="196.658" y2="105.898" gradientUnits="userSpaceOnUse">
<stop offset="0.15" stop-color="#ADADAD"/>
<stop offset="0.29" stop-color="#CBCBCB"/>
<stop offset="0.44" stop-color="#E2E2E2"/>
<stop offset="0.6" stop-color="#F2F2F2"/>
<stop offset="0.77" stop-color="#FCFCFC"/>
<stop offset="1" stop-color="white"/>
</linearGradient>
<linearGradient id="paint4_linear_146_68439" x1="136.082" y1="115.959" x2="163.037" y2="90.3541" gradientUnits="userSpaceOnUse">
<stop offset="0.14" stop-color="#ADADAD"/>
<stop offset="0.43" stop-color="#C9C9C9"/>
<stop offset="1" stop-color="white"/>
</linearGradient>
<linearGradient id="paint5_linear_146_68439" x1="192.437" y1="83.3061" x2="192.437" y2="101.377" gradientUnits="userSpaceOnUse">
<stop offset="0.0895638" stop-color="#ADADAD"/>
<stop offset="0.240189" stop-color="#CBCBCB"/>
<stop offset="0.425047" stop-color="#E2E2E2"/>
<stop offset="0.536875" stop-color="#F2F2F2"/>
<stop offset="1" stop-color="white"/>
</linearGradient>
<linearGradient id="paint6_linear_146_68439" x1="185.805" y1="107" x2="323.232" y2="107" gradientUnits="userSpaceOnUse">
<stop stop-color="#0082FA"/>
<stop offset="1" stop-color="#00F2FE"/>
</linearGradient>
<linearGradient id="paint7_linear_146_68439" x1="185.807" y1="107" x2="323.234" y2="107" gradientUnits="userSpaceOnUse">
<stop stop-color="#0082FA"/>
<stop offset="1" stop-color="#00F2FE"/>
</linearGradient>
<clipPath id="clip0_146_68439">
<rect x="3.75" y="39" width="138" height="138" rx="69" fill="white"/>
</clipPath>
<clipPath id="clip1_146_68439">
<rect x="94.75" y="39" width="138" height="138" rx="69" fill="white"/>
</clipPath>
<clipPath id="clip2_146_68439">
<rect width="138" height="138" fill="white" transform="translate(185.75 39)"/>
</clipPath>
</defs>
</svg>
