<svg width="327" height="216" viewBox="0 0 327 216" fill="none" xmlns="http://www.w3.org/2000/svg">
<g clip-path="url(#clip0_146_68477)">
<path d="M72.25 177C110.358 177 141.25 146.108 141.25 108C141.25 69.8924 110.358 39 72.25 39C34.1424 39 3.25 69.8924 3.25 108C3.25 146.108 34.1424 177 72.25 177Z" fill="#0052B4"/>
<path d="M72.2504 66L74.4845 72.8755H81.7133L75.8648 77.1246L78.0989 84.0001L72.2504 79.7507L66.4015 84.0001L68.6357 77.1246L62.7871 72.8755H70.0162L72.2504 66Z" fill="#FFDA44"/>
<path d="M42.552 78.3022L48.9938 81.584L54.1054 76.4727L52.9742 83.6125L59.4157 86.8946L52.2756 88.0256L51.1446 95.166L47.8625 88.7245L40.7227 89.8557L45.8343 84.744L42.552 78.3022Z" fill="#FFDA44"/>
<path d="M30.25 108L37.1255 105.766V98.5371L41.3744 104.386L48.2501 102.152L44.0004 108L48.2501 113.849L41.3744 111.615L37.1255 117.464V110.234L30.25 108Z" fill="#FFDA44"/>
<path d="M42.552 137.699L45.834 131.258L40.7227 126.146L47.8628 127.277L51.1444 120.836L52.2756 127.976L59.4155 129.107L52.9747 132.389L54.1054 139.529L48.9938 134.417L42.552 137.699Z" fill="#FFDA44"/>
<path d="M72.2504 150L70.0159 143.124H62.7871L68.6359 138.875L66.4015 132L72.2504 136.249L78.0989 132L75.8648 138.875L81.7133 143.124H74.4842L72.2504 150Z" fill="#FFDA44"/>
<path d="M101.949 137.699L95.5076 134.418L90.3957 139.529L91.5269 132.389L85.0859 129.107L92.2258 127.976L93.3568 120.836L96.6386 127.277L103.778 126.146L98.6668 131.258L101.949 137.699Z" fill="#FFDA44"/>
<path d="M114.25 108L107.374 110.234V117.464L103.125 111.615L96.25 113.849L100.499 108L96.25 102.152L103.125 104.386L107.374 98.5371V105.766L114.25 108Z" fill="#FFDA44"/>
<path d="M101.949 78.302L98.6671 84.7438L103.779 89.8554L96.6383 88.7239L93.3568 95.1655L92.2258 88.0253L85.0859 86.8941L91.5269 83.6123L90.3957 76.4727L95.5079 81.584L101.949 78.302Z" fill="#FFDA44"/>
</g>
<g clip-path="url(#clip1_146_68477)">
<path d="M163.25 177C201.358 177 232.25 146.108 232.25 108C232.25 69.8924 201.358 39 163.25 39C125.142 39 94.25 69.8924 94.25 108C94.25 146.108 125.142 177 163.25 177Z" fill="url(#paint0_linear_146_68477)"/>
<path d="M185.872 105.941C190.225 111.75 177.479 122.979 180.343 118.341H153.193C150.256 114.5 148.236 110.3 147.266 105.941H185.872Z" fill="url(#paint1_linear_146_68477)"/>
<path d="M178.003 139.412C174.144 142.488 169.973 145.15 165.558 147.353L163.398 148.44L161.226 147.357C140.799 137.106 128.613 119.451 128.613 100.102V77.3848H141.071V100.102C141.069 101.551 141.167 102.999 141.364 104.434C142.933 116.189 150.867 127.033 163.352 134.334C163.363 134.346 163.377 134.355 163.391 134.362C163.404 134.355 163.411 134.348 163.425 134.342L163.477 134.308C167.99 136.832 172.903 138.558 178.003 139.412Z" fill="url(#paint2_linear_146_68477)"/>
<path d="M197.797 105.941C197.221 110.432 195.989 114.813 194.142 118.946C190.727 126.621 185.238 133.605 178.008 139.415C172.912 138.561 168 136.834 163.49 134.311C165.119 133.351 166.699 132.308 168.223 131.188C168.375 131.09 168.521 130.983 168.661 130.869C177.1 124.792 183.18 115.986 185.871 105.941H197.797Z" fill="url(#paint3_linear_146_68477)"/>
<path d="M198.184 77.3887H141.072V89.8409H198.184V77.3887Z" fill="url(#paint4_linear_146_68477)"/>
<path d="M198.183 89.8418V100.102C198.183 100.526 198.17 100.952 198.157 101.377H185.691C185.704 100.951 185.71 100.526 185.71 100.102V89.8418H198.183Z" fill="url(#paint5_linear_146_68477)"/>
</g>
<g clip-path="url(#clip2_146_68477)">
<mask id="mask0_146_68477" style="mask-type:luminance" maskUnits="userSpaceOnUse" x="185" y="39" width="139" height="138">
<path d="M323.25 39H185.25V177H323.25V39Z" fill="white"/>
</mask>
<g mask="url(#mask0_146_68477)">
<mask id="mask1_146_68477" style="mask-type:luminance" maskUnits="userSpaceOnUse" x="185" y="39" width="139" height="138">
<path d="M323.25 39H185.25V177H323.25V39Z" fill="white"/>
</mask>
<g mask="url(#mask1_146_68477)">
<path d="M201.967 62.5051C202.82 61.4436 203.724 60.4225 204.629 59.4009C204.669 59.3502 204.761 59.3398 204.802 59.2896C204.883 59.1882 205.015 59.1277 205.096 59.0262L205.178 58.9253C205.808 58.3487 206.479 57.7214 207.252 57.1743C209.989 55.1185 212.828 53.5569 215.822 52.5293C225.426 49.1927 236.116 51.2491 244.5 59.0813C256.206 69.9403 255.157 87.4324 245.813 99.0593C234.005 116.392 213.712 140.574 241.809 162.236C246.861 166.13 250.608 169.342 266.522 173.893C256.114 175.79 246.464 175.2 235.723 172.485C228.125 168.241 216.18 159.154 212.116 146.882C205.973 128.271 222.93 100.448 231.125 89.7325C242.376 74.9027 224.17 58.8489 210.767 76.7715C203.761 86.1119 191.504 112.542 195.764 132.148C198.254 143.265 201.574 151.369 214.736 162.501C212.295 161.076 209.925 159.459 207.626 157.65C177.044 129.46 180.592 85.8713 201.967 62.5051Z" fill="url(#paint6_linear_146_68477)"/>
<path d="M306.072 151.494C305.219 152.555 304.315 153.577 303.41 154.599C303.37 154.649 303.279 154.659 303.237 154.71C303.156 154.811 303.024 154.872 302.943 154.973L302.862 155.074C302.231 155.651 301.561 156.278 300.787 156.825C298.05 158.881 295.211 160.442 292.217 161.469C282.613 164.806 271.923 162.75 263.539 154.918C251.834 144.059 252.882 126.567 262.226 114.94C274.034 97.6075 294.327 73.4258 266.23 51.7636C261.178 47.8685 257.431 44.6574 241.518 40.1067C251.925 38.209 261.575 38.7992 272.316 41.514C279.914 45.7581 291.859 54.8449 295.923 67.1182C302.066 85.7292 285.109 113.551 276.914 124.267C265.663 139.096 283.869 155.151 297.272 137.228C304.278 127.887 316.535 101.457 312.275 81.852C309.785 70.734 306.466 62.6301 293.303 51.498C295.744 52.9232 298.114 54.54 300.414 56.3487C330.994 84.5394 327.447 128.128 306.072 151.494Z" fill="url(#paint7_linear_146_68477)"/>
</g>
</g>
</g>
<defs>
<linearGradient id="paint0_linear_146_68477" x1="232.25" y1="39" x2="67.1178" y2="91.2489" gradientUnits="userSpaceOnUse">
<stop stop-color="#000756"/>
<stop offset="1" stop-color="#0042B8"/>
</linearGradient>
<linearGradient id="paint1_linear_146_68477" x1="198.455" y1="119.936" x2="150.95" y2="107.133" gradientUnits="userSpaceOnUse">
<stop offset="0.14" stop-color="#ADADAD"/>
<stop offset="0.29" stop-color="#CBCBCB"/>
<stop offset="0.43" stop-color="#E2E2E2"/>
<stop offset="0.59" stop-color="#F2F2F2"/>
<stop offset="0.77" stop-color="#FCFCFC"/>
<stop offset="1" stop-color="white"/>
</linearGradient>
<linearGradient id="paint2_linear_146_68477" x1="180.915" y1="160.502" x2="113.765" y2="66.8449" gradientUnits="userSpaceOnUse">
<stop stop-color="#ADADAD"/>
<stop offset="0.17" stop-color="#CBCBCB"/>
<stop offset="0.34" stop-color="#E2E2E2"/>
<stop offset="0.52" stop-color="#F2F2F2"/>
<stop offset="0.73" stop-color="#FCFCFC"/>
<stop offset="1" stop-color="white"/>
</linearGradient>
<linearGradient id="paint3_linear_146_68477" x1="164.264" y1="146.328" x2="196.158" y2="105.898" gradientUnits="userSpaceOnUse">
<stop offset="0.15" stop-color="#ADADAD"/>
<stop offset="0.29" stop-color="#CBCBCB"/>
<stop offset="0.44" stop-color="#E2E2E2"/>
<stop offset="0.6" stop-color="#F2F2F2"/>
<stop offset="0.77" stop-color="#FCFCFC"/>
<stop offset="1" stop-color="white"/>
</linearGradient>
<linearGradient id="paint4_linear_146_68477" x1="135.582" y1="115.959" x2="162.537" y2="90.3541" gradientUnits="userSpaceOnUse">
<stop offset="0.14" stop-color="#ADADAD"/>
<stop offset="0.43" stop-color="#C9C9C9"/>
<stop offset="1" stop-color="white"/>
</linearGradient>
<linearGradient id="paint5_linear_146_68477" x1="191.937" y1="83.3061" x2="191.937" y2="101.377" gradientUnits="userSpaceOnUse">
<stop offset="0.0895638" stop-color="#ADADAD"/>
<stop offset="0.240189" stop-color="#CBCBCB"/>
<stop offset="0.425047" stop-color="#E2E2E2"/>
<stop offset="0.536875" stop-color="#F2F2F2"/>
<stop offset="1" stop-color="white"/>
</linearGradient>
<linearGradient id="paint6_linear_146_68477" x1="185.305" y1="107" x2="322.732" y2="107" gradientUnits="userSpaceOnUse">
<stop stop-color="#0082FA"/>
<stop offset="1" stop-color="#00F2FE"/>
</linearGradient>
<linearGradient id="paint7_linear_146_68477" x1="185.307" y1="107" x2="322.734" y2="107" gradientUnits="userSpaceOnUse">
<stop stop-color="#0082FA"/>
<stop offset="1" stop-color="#00F2FE"/>
</linearGradient>
<clipPath id="clip0_146_68477">
<rect x="3.25" y="39" width="138" height="138" rx="69" fill="white"/>
</clipPath>
<clipPath id="clip1_146_68477">
<rect x="94.25" y="39" width="138" height="138" rx="69" fill="white"/>
</clipPath>
<clipPath id="clip2_146_68477">
<rect width="138" height="138" fill="white" transform="translate(185.25 39)"/>
</clipPath>
</defs>
</svg>
