<svg width="400" height="400" viewBox="0 0 400 400" fill="none" xmlns="http://www.w3.org/2000/svg">
<g clip-path="url(#clip0_128_69355)">
<mask id="mask0_128_69355" style="mask-type:luminance" maskUnits="userSpaceOnUse" x="0" y="0" width="400" height="400">
<path d="M400 0L0 0L4.18797e-05 400L400 400L400 0Z" fill="white"/>
</mask>
<g mask="url(#mask0_128_69355)">
<mask id="mask1_128_69355" style="mask-type:luminance" maskUnits="userSpaceOnUse" x="0" y="0" width="400" height="400">
<path d="M400 0L0 0L4.18797e-05 400L400 400L400 0Z" fill="white"/>
</mask>
<g mask="url(#mask1_128_69355)">
<path d="M48.4529 68.1324C50.9256 65.0555 53.5469 62.096 56.1683 59.1348C56.2853 58.9878 56.5509 58.9578 56.6696 58.8122C56.9049 58.5182 57.2876 58.3428 57.5231 58.0486L57.7588 57.7562C59.5866 56.085 61.5311 54.2668 63.7729 52.681C71.7036 46.7222 79.9342 42.1956 88.6123 39.217C116.45 29.5458 147.436 35.5064 171.737 58.2084C205.666 89.6837 202.626 140.386 175.542 174.087C141.316 224.326 82.4973 294.418 163.937 357.208C178.579 368.496 189.442 377.806 235.568 390.996C205.4 396.494 177.43 394.784 146.296 386.916C124.272 374.614 89.6498 348.274 77.8698 312.702C60.0656 258.758 109.215 178.112 132.969 147.052C165.58 104.067 112.81 57.5348 73.9611 109.484C53.653 136.558 18.1256 213.168 30.4718 269.996C37.6908 302.22 47.313 325.708 85.4648 357.976C78.3898 353.846 71.5205 349.158 64.8548 343.916C-23.7874 262.204 -13.5029 135.861 48.4529 68.1324Z" fill="url(#paint0_linear_128_69355)"/>
<path d="M350.207 326.07C347.733 329.146 345.113 332.108 342.491 335.068C342.373 335.214 342.109 335.244 341.989 335.392C341.755 335.684 341.371 335.86 341.137 336.154L340.901 336.446C339.073 338.118 337.129 339.936 334.887 341.522C326.955 347.48 318.725 352.006 310.047 354.984C282.209 364.656 251.223 358.696 226.923 335.994C192.994 304.52 196.032 253.816 223.117 220.116C257.343 169.877 316.163 99.785 234.721 36.996C220.079 25.7058 209.217 16.3983 163.092 3.20776C193.258 -2.29278 221.229 -0.582109 252.363 7.28681C274.385 19.5888 309.009 45.9272 320.789 81.5019C338.593 135.447 289.445 216.09 265.691 247.15C233.079 290.134 285.849 336.668 324.699 284.718C345.007 257.644 380.533 181.034 368.187 124.209C360.969 91.9825 351.347 68.4931 313.195 36.226C320.269 40.3572 327.139 45.0434 333.805 50.286C422.445 131.998 412.163 258.342 350.207 326.07Z" fill="url(#paint1_linear_128_69355)"/>
</g>
</g>
</g>
<defs>
<linearGradient id="paint0_linear_128_69355" x1="0.157213" y1="197.102" x2="398.496" y2="197.102" gradientUnits="userSpaceOnUse">
<stop stop-color="#0082FA"/>
<stop offset="1" stop-color="#00F2FE"/>
</linearGradient>
<linearGradient id="paint1_linear_128_69355" x1="0.163808" y1="197.102" x2="398.503" y2="197.102" gradientUnits="userSpaceOnUse">
<stop stop-color="#0082FA"/>
<stop offset="1" stop-color="#00F2FE"/>
</linearGradient>
<clipPath id="clip0_128_69355">
<rect width="400" height="400" fill="white"/>
</clipPath>
</defs>
</svg>
