<svg width="400" height="400" viewBox="0 0 400 400" fill="none" xmlns="http://www.w3.org/2000/svg">
    <g clip-path="url(#clip0)">
        <path d="M399.999 347.52C399.999 376.48 376.559 399.92 347.599 399.92L52.6393 399.92C23.6793 399.92 0.239297 376.48 0.239294 347.52L0.239263 52.4801C0.23926 23.5201 23.6793 0.0800781 52.6393 0.0800781L347.599 0.0800781C376.559 0.0800781 399.999 23.5201 399.999 52.4801L399.999 347.52Z" fill="white"/>
        <path d="M337.999 336.48H200.079L337.999 200L337.999 336.48Z" fill="url(#paint0_linear)"/>
        <path d="M338 336.48L63.6797 336.48L63.6797 62.1602L338 336.48Z" fill="url(#paint1_linear)"/>
        <path opacity="0.14" d="M338 337.84L269.04 268.88L281.44 257.84L338 337.84Z" fill="url(#paint2_linear)"/>
    </g>
    <defs>
        <linearGradient id="paint0_linear" x1="269.042" y1="199.379" x2="269.042" y2="336.747" gradientUnits="userSpaceOnUse">
            <stop stop-color="#FF4681"/>
            <stop offset="1" stop-color="#9B44F6"/>
        </linearGradient>
        <linearGradient id="paint1_linear" x1="-1.70392" y1="133.964" x2="273.059" y2="408.714" gradientUnits="userSpaceOnUse">
            <stop stop-color="#FF4681"/>
            <stop offset="0.739" stop-color="#9B44F6"/>
        </linearGradient>
        <linearGradient id="paint2_linear" x1="302.307" y1="267.559" x2="282.978" y2="318.623" gradientUnits="userSpaceOnUse">
            <stop/>
            <stop offset="1"/>
        </linearGradient>
        <clipPath id="clip0">
            <rect width="400" height="400" fill="white"/>
        </clipPath>
    </defs>
</svg>
