<svg width="400" height="400" viewBox="0 0 400 400" fill="none" xmlns="http://www.w3.org/2000/svg">
    <g clip-path="url(#clip0)">
        <path d="M199.949 0L197.266 9.11546L197.266 273.602L199.949 276.279L322.718 203.709L199.949 0Z" fill="#343434"/>
        <path d="M199.921 0L77.1485 203.709L199.921 276.279L199.921 147.905L199.921 0Z" fill="#8C8C8C"/>
        <path d="M199.95 299.532L198.438 301.377L198.438 395.591L199.95 400.006L322.794 227L199.95 299.532Z" fill="#3C3C3B"/>
        <path d="M199.921 400.006L199.921 299.532L77.1484 227L199.921 400.006Z" fill="#8C8C8C"/>
        <path d="M199.902 276.277L322.671 203.707L199.902 147.902L199.902 276.277Z" fill="#141414"/>
        <path d="M77.1484 203.707L199.921 276.277L199.921 147.902L77.1484 203.707Z" fill="#393939"/>
    </g>
    <defs>
        <clipPath id="clip0">
            <rect width="400" height="400" fill="white"/>
        </clipPath>
    </defs>
</svg>
