<svg width="120" height="120" viewBox="0 0 120 120" fill="none" xmlns="http://www.w3.org/2000/svg">
    <g clip-path="url(#clip0)">
        <path d="M59.9848 0L59.1797 2.73464L59.1797 82.0805L59.9848 82.8837L96.8155 61.1127L59.9848 0Z" fill="#343434"/>
        <path d="M59.9762 0L23.1445 61.1127L59.9762 82.8837L59.9762 44.3714L59.9762 0Z" fill="#8C8C8C"/>
        <path d="M59.985 89.8612L59.5313 90.4146L59.5313 118.679L59.985 120.003L96.8383 68.1016L59.985 89.8612Z" fill="#3C3C3B"/>
        <path d="M59.9762 120.003L59.9762 89.8612L23.1445 68.1016L59.9762 120.003Z" fill="#8C8C8C"/>
        <path d="M59.9707 82.8834L96.8014 61.1124L59.9707 44.3711L59.9707 82.8834Z" fill="#141414"/>
        <path d="M23.1445 61.1124L59.9762 82.8834L59.9762 44.3711L23.1445 61.1124Z" fill="#393939"/>
    </g>
    <defs>
        <clipPath id="clip0">
            <rect width="120" height="120" fill="white"/>
        </clipPath>
    </defs>
</svg>
