<svg width="158" height="190" viewBox="0 0 158 190" fill="none" xmlns="http://www.w3.org/2000/svg">
<path opacity="0.39" d="M130.254 113.344V29.8427C130.357 27.9982 129.204 26.1314 126.767 24.7268L87.426 2.01943C82.772 -0.673143 75.2503 -0.673143 70.6278 2.01943L31.5562 24.7223C30.2385 25.4135 29.17 26.4993 28.4999 27.8277H28.105V29.5779C28.105 29.5779 28.105 29.6048 28.105 29.6183L28.1813 112.765C28.0843 113.269 28.0843 113.787 28.1813 114.291C28.4775 115.789 29.6129 117.243 31.601 118.392L70.9599 141.1C75.6093 143.792 83.1355 143.792 87.7626 141.1L126.834 118.397C129.226 117.006 130.362 115.17 130.267 113.348L130.254 113.344Z" fill="url(#paint0_linear)"/>
<g filter="url(#filter0_d)">
<path d="M126.736 109.556C131.385 112.249 131.417 116.602 126.794 119.285L87.7224 141.988C83.0954 144.681 75.5692 144.681 70.9198 141.988L31.5923 119.285C26.9384 116.593 26.9115 112.24 31.5385 109.552L70.6101 86.8488C75.2326 84.1563 82.7543 84.1563 87.4083 86.8488L126.736 109.556Z" fill="url(#paint1_linear)"/>
<path d="M130.2 114.802C130.2 114.928 130.2 115.054 130.155 115.179C130.11 115.305 130.106 115.381 130.079 115.48C130.052 115.579 130.021 115.718 129.976 115.834C129.931 115.951 129.895 116.027 129.855 116.122C129.814 116.216 129.747 116.368 129.68 116.494C129.612 116.62 129.576 116.669 129.522 116.759C129.469 116.849 129.347 117.037 129.244 117.172C129.141 117.306 129.047 117.432 128.935 117.562L128.854 117.656C128.701 117.822 128.531 117.988 128.356 118.145C128.181 118.303 128.113 118.347 127.992 118.446C127.871 118.545 127.777 118.621 127.66 118.706C127.543 118.792 127.377 118.899 127.211 118.994C127.045 119.088 126.92 119.191 126.762 119.281L87.6908 141.984C87.3267 142.191 86.9522 142.38 86.5689 142.549L86.2278 142.693C85.9286 142.821 85.6174 142.94 85.2943 143.047L84.9532 143.164C84.7513 143.227 84.5448 143.281 84.3429 143.339L83.8941 143.465C83.6786 143.518 83.4453 143.559 83.2343 143.604L82.7856 143.693C82.3368 143.77 81.888 143.833 81.4392 143.882L81.0173 143.918C80.7525 143.918 80.4833 143.958 80.214 143.972H79.6979H79.0471H78.5041L77.8982 143.94L77.3507 143.895L76.7583 143.828L76.2243 143.752L75.596 143.644L75.1068 143.545C74.8555 143.492 74.6131 143.429 74.3663 143.366L73.9624 143.258C73.5136 143.133 73.1007 142.989 72.6878 142.809C72.4858 142.729 72.2839 142.643 72.0864 142.554L71.7768 142.419C71.4761 142.275 71.1844 142.127 70.9061 141.97L31.5922 119.285C29.5457 118.101 28.3923 116.593 28.1365 115.049C28.1003 114.829 28.0823 114.607 28.0826 114.385L28.0467 127.296C28.0467 129.091 29.2136 130.845 31.5518 132.196L70.8792 154.899C71.1574 155.061 71.4491 155.213 71.7498 155.348L72.0595 155.482C72.2345 155.563 72.4095 155.644 72.5936 155.716H72.6609C73.0738 155.877 73.5001 156.016 73.9354 156.165L74.0387 156.2L74.3438 156.277C74.5862 156.34 74.833 156.402 75.0798 156.456L75.2773 156.506L75.5735 156.555L76.2018 156.663L76.4576 156.708L76.7359 156.739L77.3283 156.806L77.6155 156.838H77.8803L78.4817 156.869H78.7868H80.0031H80.1916C80.4608 156.869 80.7301 156.838 80.9949 156.815H81.318H81.4168C81.8655 156.766 82.3143 156.708 82.7631 156.627H82.8304L83.2164 156.546C83.4363 156.501 83.6652 156.456 83.8671 156.407L84.3159 156.281C84.5224 156.227 84.7243 156.169 84.9263 156.106L85.0564 156.07L85.2674 155.99C85.5845 155.882 85.8957 155.764 86.2008 155.635L86.5374 155.491C86.9208 155.322 87.2953 155.133 87.6594 154.926L126.731 132.223L126.875 132.138C126.987 132.071 127.077 131.999 127.184 131.931C127.292 131.864 127.476 131.747 127.606 131.649C127.736 131.55 127.831 131.474 127.938 131.384C128.046 131.294 128.19 131.186 128.302 131.083L128.374 131.025C128.526 130.886 128.665 130.738 128.822 130.576L128.899 130.486C128.975 130.397 129.056 130.307 129.128 130.217C129.199 130.127 129.181 130.136 129.208 130.096C129.312 129.961 129.401 129.822 129.487 129.683C129.522 129.625 129.572 129.566 129.603 129.508C129.635 129.45 129.63 129.445 129.644 129.418C129.711 129.297 129.765 129.172 129.819 129.05C129.873 128.929 129.89 128.907 129.917 128.835C129.944 128.763 129.917 128.786 129.917 128.759C129.958 128.642 129.989 128.521 130.021 128.404C130.052 128.287 130.075 128.247 130.088 128.166C130.101 128.086 130.088 128.121 130.088 128.104C130.11 127.978 130.119 127.852 130.128 127.731C130.137 127.61 130.155 127.569 130.155 127.489C130.155 127.408 130.155 127.421 130.155 127.385L130.245 114.439C130.245 114.573 130.227 114.686 130.2 114.802Z" fill="url(#paint2_linear)"/>
</g>
<path d="M79.3344 140.045C76.8795 140.045 74.5368 139.507 72.9032 138.56L33.5758 115.852C32.409 115.179 32.0499 114.546 32.0499 114.394C32.0499 114.241 32.4 113.631 33.5309 112.976L72.6025 90.2729C74.2182 89.335 76.5474 88.7965 78.9933 88.7965C81.4392 88.7965 83.7953 89.3395 85.4289 90.2819L124.756 112.989C125.923 113.662 126.282 114.295 126.282 114.452C126.282 114.609 125.932 115.215 124.806 115.87L85.7341 138.573C84.1185 139.507 81.7848 140.045 79.3344 140.045Z" fill="url(#paint3_linear)"/>
<path fill-rule="evenodd" clip-rule="evenodd" d="M73.4597 171.337C75.2384 172.295 77.2334 172.781 79.2536 172.746C81.2696 172.782 83.2606 172.297 85.034 171.337L154.893 130.747C156.575 129.768 157.504 128.431 157.5 126.95C157.495 125.469 156.558 124.114 154.852 123.131L84.5403 82.5362C81.2866 80.6559 76.2018 80.6559 72.966 82.5362L3.10747 123.131C1.42451 124.109 0.5 125.451 0.5 126.928C0.5 128.404 1.44246 129.759 3.14786 130.742L73.4597 171.337ZM73.7604 83.9229C75.2935 83.1067 77.0099 82.6958 78.7465 82.7292C80.4887 82.6963 82.2107 83.107 83.7505 83.9229L154.062 124.5C155.256 125.187 155.916 126.062 155.916 126.946C155.916 127.83 155.27 128.691 154.094 129.373L84.2351 169.968C81.493 171.562 77.0141 171.566 74.2496 169.968L3.93775 129.373C2.74397 128.682 2.08425 127.803 2.08425 126.923C2.08425 126.044 2.73051 125.182 3.90634 124.5L73.7604 83.9229Z" fill="url(#paint4_linear)"/>
<path d="M84.9666 79.3769C86.361 78.6672 88.0108 78.6672 89.4051 79.3769L120.874 97.664C122.095 98.373 122.09 99.5263 120.874 100.235L71.4087 128.799C70.0143 129.509 68.3645 129.509 66.9702 128.799L35.335 110.4C34.1996 109.74 34.2041 108.672 35.335 108.012L84.9666 79.3769Z" fill="url(#paint5_linear)"/>
<path d="M34.5003 109.377C34.5091 109.424 34.5211 109.47 34.5362 109.516C34.5526 109.563 34.5721 109.61 34.5946 109.655C34.6187 109.701 34.6457 109.746 34.6753 109.79L34.7696 109.911L34.8997 110.041L35.0523 110.158H35.0748L35.2588 110.274L66.8849 128.673L67.0959 128.786L67.1542 128.813L67.3562 128.898H67.3831L67.6075 128.974L67.7691 129.019L67.8947 129.05L68.0698 129.086L68.1954 129.113H68.2493L68.4647 129.145H68.5275H68.6532H68.8641H69.3129H69.47H69.6136H69.7707H69.9098L70.0758 129.118L70.206 129.091L70.399 129.041L70.5246 129.01H70.5919L70.7849 128.943H70.8388L71.0048 128.871L71.0856 128.835L71.4087 128.799L120.865 100.244C121.169 100.081 121.427 99.8429 121.615 99.5533C121.647 99.4986 121.676 99.4416 121.7 99.3827C121.736 99.2993 121.761 99.2119 121.776 99.1225C121.781 99.0642 121.781 99.0057 121.776 98.9474V101.326C121.725 101.892 121.371 102.387 120.852 102.618L71.4087 131.164L71.1799 131.285L71.0991 131.321L70.9555 131.384H70.9285H70.8747L70.6817 131.451H70.6144H70.5695H70.4887L70.2957 131.501H70.2419H70.1656L69.9995 131.528H69.9322H69.8604H69.7033H69.6271H69.5552H69.3982H68.9494H68.7384H68.6128H68.55L68.33 131.496H68.2762H68.2672H68.164L67.989 131.46L67.8678 131.429L67.7062 131.384H67.6703L67.4773 131.317H67.4504L67.2485 131.231L67.1901 131.204L66.9792 131.092L35.353 112.693H35.3171L35.169 112.594H35.1466L34.9985 112.478L34.9715 112.455L34.8683 112.347L34.81 112.28L34.7696 112.226L34.7067 112.123V112.087C34.6883 112.051 34.6719 112.013 34.6574 111.975V111.948C34.6447 111.91 34.6342 111.871 34.626 111.831V111.746C34.6233 111.704 34.6233 111.662 34.626 111.62V111.594V109.215C34.5786 109.264 34.5365 109.319 34.5003 109.377Z" fill="url(#paint6_linear)"/>
<path fill-rule="evenodd" clip-rule="evenodd" d="M86.4925 39.4506C86.4925 38.037 85.4783 37.4671 84.2486 38.1761L34.6215 66.7982C33.3982 67.5948 32.6319 68.9303 32.5615 70.3883L32.6647 106.962C32.6647 108.376 33.679 108.946 34.9087 108.237L84.3787 79.6866C85.6892 78.834 86.5131 77.4064 86.5958 75.8452L86.4925 39.4506ZM84.6794 75.2753L34.7606 104.095L34.6618 69.2349L84.5807 40.4155L84.6794 75.2753Z" fill="url(#paint7_linear)"/>
<path d="M34.6619 69.2349L34.7606 104.095L84.6794 75.2752L84.5807 40.4199L34.6619 69.2349Z" fill="url(#paint8_linear)"/>
<path d="M31.8884 69.8991C31.8884 69.8662 31.8884 69.8333 31.8884 69.8004V69.7017C31.8884 69.6688 31.8884 69.6344 31.8884 69.5985V69.4952V69.3965V69.2888V69.2484V69.1991L31.9153 69.0914L31.9377 69.0106V68.9792L31.9736 68.8715L32.0095 68.7683L32.0365 68.7009L32.0769 68.6022L32.1083 68.5304L32.1532 68.4317L32.3641 68.2163L32.409 68.131L32.4673 68.0233L32.4987 67.9695L32.5526 67.8797L32.6378 67.7451L32.7635 67.5701L32.8533 67.4489L32.9296 67.3547L33.0103 67.2604L33.0911 67.1707L33.1495 67.1078L33.2347 67.0226L33.2617 66.9956L33.3065 66.9553L33.3963 66.8745L33.4367 66.8431L33.4681 66.8161L33.5579 66.7488L33.6252 66.7039L33.7149 66.6456L33.8047 66.5918L83.5665 37.7768L83.6383 37.7364H83.6652H83.7011H83.728H83.7729H83.8043L83.8941 37.7005L83.9838 37.6691H84.0153H84.0601H84.0826H84.123H84.1544H84.1858H84.2262H84.2845H84.3294H84.6795H84.7827L84.9263 37.7095L84.9846 37.7319H85.0116L85.0924 37.7768L85.779 38.1762L85.6937 38.1313H85.6668L85.6085 38.1089L85.4648 38.0685H85.3616H85.0116H84.9667H84.9083H84.868H84.8051H84.7647H84.6974H84.666L84.464 38.1492H84.4326L84.3608 38.1851H84.3249L84.2262 38.239L34.635 66.8161L34.4285 66.9463L34.24 67.0899L34.065 67.2425L33.8945 67.413L33.7194 67.6104L33.5534 67.8259L33.4143 68.0233L33.2617 68.2163L33.1943 68.3285L33.1629 68.3823L33.0597 68.5753C33.0208 68.6531 32.9834 68.7323 32.9475 68.8131C32.9146 68.8909 32.8832 68.9702 32.8533 69.051C32.8233 69.1317 32.7964 69.214 32.7725 69.2978C32.7485 69.3756 32.7276 69.4549 32.7097 69.5356C32.7097 69.6164 32.6737 69.6972 32.6603 69.778C32.6603 69.8587 32.6378 69.9395 32.6289 70.0203C32.6289 70.1011 32.6289 70.1819 32.6289 70.2581L32.7321 106.832C32.7321 106.917 32.7321 106.998 32.7321 107.075C32.7321 107.155 32.7321 107.223 32.7635 107.29V107.317C32.7635 107.383 32.78 107.444 32.8129 107.501V107.532C32.8311 107.586 32.8521 107.638 32.8757 107.689C32.902 107.745 32.932 107.799 32.9655 107.851C32.9917 107.89 33.0202 107.927 33.0507 107.963L33.0866 107.999L33.1719 108.08L33.2078 108.111C33.2489 108.144 33.2924 108.174 33.338 108.201L32.6513 107.802C32.6058 107.775 32.5623 107.745 32.5212 107.712L32.4853 107.68L32.4 107.6L32.3641 107.564C32.3335 107.528 32.3051 107.49 32.2788 107.452C32.2473 107.402 32.2188 107.352 32.1935 107.299L32.1487 107.196V107.142V107.11V107.079C32.1487 107.043 32.1382 107.006 32.1172 106.967V106.926V106.9V106.859C32.1172 106.823 32.1172 106.787 32.1172 106.751V106.644C32.1172 106.608 32.1172 106.573 32.1172 106.541C32.1172 106.508 32.1172 106.472 32.1172 106.433L31.8884 70.0113C31.8884 69.9664 31.8884 69.9291 31.8884 69.8991Z" fill="url(#paint9_linear)"/>
<path d="M84.6794 75.2753L34.7606 104.09L34.6663 71.5595L84.5852 42.7401L84.6794 75.2753Z" fill="url(#paint10_linear)"/>
<path d="M84.5807 40.4199L34.6619 69.2349L34.6708 71.5595L84.5852 42.74L84.5807 40.4199Z" fill="#3FA9F5"/>
<path d="M83.4273 41.5823C83.0878 41.8037 82.8744 42.1738 82.8528 42.5785C82.8528 42.9465 83.1131 43.0946 83.4318 42.9106C83.7718 42.6897 83.9854 42.3193 84.0062 41.9143C84.0017 41.5464 83.7459 41.3983 83.4273 41.5823Z" fill="#FF1D25"/>
<path d="M81.5918 42.6368C81.2523 42.8582 81.0389 43.2284 81.0173 43.6331C81.0173 44.0011 81.2776 44.1491 81.5963 43.9652C81.9385 43.7472 82.1555 43.3784 82.1797 42.9734C82.1797 42.6054 81.9104 42.4573 81.5918 42.6368Z" fill="#7AC943"/>
<path d="M79.7563 43.7004C79.4168 43.9218 79.2034 44.2919 79.1818 44.6967C79.1818 45.0646 79.4421 45.2083 79.7608 45.0243C80.1008 44.8034 80.3144 44.4329 80.3352 44.028C80.3352 43.6645 80.0749 43.5344 79.7563 43.7004Z" fill="#FF931E"/>
<path d="M55.5261 66.2507V67.202L52.5147 68.9388L52.5237 72.4032L51.6979 72.8789L51.6844 68.4676L55.5261 66.2507Z" fill="url(#paint11_linear)"/>
<path d="M52.5596 84.2371L52.5686 87.697L55.58 85.9603L55.5845 86.9117L51.7428 89.1286L51.7294 84.7172L52.5596 84.2371Z" fill="url(#paint12_linear)"/>
<path d="M69.6675 58.0833L69.681 62.4991L68.8507 62.9748L68.8417 59.5148L65.8259 61.256V60.3046L69.6675 58.0833Z" fill="url(#paint13_linear)"/>
<path d="M69.7123 74.3329L69.7258 78.7442L65.8841 80.9656L65.8796 80.0142L68.8955 78.273L68.8865 74.8131L69.7123 74.3329Z" fill="url(#paint14_linear)"/>
<path d="M63.6043 64.1774C65.1571 63.2799 66.4182 63.9979 66.4227 65.784V71.4787C66.4227 75.1182 63.878 79.5565 60.7096 81.3515C57.5411 83.1465 54.9695 81.715 54.9606 78.0755V72.3808C55.064 70.4088 56.105 68.6055 57.761 67.5296L63.6043 64.1774Z" fill="url(#paint15_linear)"/>
<path d="M58.6855 70.303C58.8516 70.2088 58.9862 70.303 58.9862 70.4735C58.9765 70.6833 58.8662 70.8754 58.69 70.9896L56.1768 72.4391C56.0107 72.5334 55.8761 72.4391 55.8761 72.2686C55.8865 72.0591 55.9966 71.8672 56.1723 71.7525L58.6855 70.303Z" fill="url(#paint16_linear)"/>
<path d="M65.211 66.5379C65.377 66.4437 65.5117 66.5379 65.5117 66.7085C65.502 66.9182 65.3917 67.1104 65.2155 67.2245L62.7022 68.674C62.5362 68.7683 62.4016 68.674 62.4016 68.5035C62.412 68.294 62.5221 68.1021 62.6978 67.9874L65.211 66.5379Z" fill="url(#paint17_linear)"/>
<path d="M60.6961 71.4249C60.8981 71.3082 61.0596 71.4025 61.0596 71.6313V73.4758C61.0628 73.5101 61.0628 73.5446 61.0596 73.579L61.3244 73.4264C61.5219 73.3142 61.6834 73.404 61.6834 73.6328C61.6699 73.8825 61.5382 74.1108 61.3289 74.2476L60.0902 74.9477C59.8928 75.0644 59.7312 74.9701 59.7312 74.7413C59.744 74.4914 59.8759 74.2628 60.0857 74.1265L60.3505 73.9739C60.3469 73.9441 60.3469 73.9139 60.3505 73.8841V72.0397C60.3641 71.7923 60.4918 71.5652 60.6961 71.4249Z" fill="url(#paint18_linear)"/>
<path d="M57.4334 72.0218C57.9091 71.748 58.2951 71.9679 58.2996 72.5154C58.2673 73.119 57.9488 73.6708 57.4424 74.0008C56.9667 74.2746 56.5807 74.0547 56.5762 73.5072C56.6085 72.9036 56.927 72.3518 57.4334 72.0218Z" fill="url(#paint19_linear)"/>
<path d="M63.9544 68.2566C64.4301 67.9829 64.816 68.2028 64.8205 68.7503C64.7882 69.3538 64.4697 69.9057 63.9633 70.2357C63.4876 70.5094 63.1017 70.2895 63.0972 69.742C63.1295 69.1385 63.4479 68.5866 63.9544 68.2566Z" fill="url(#paint20_linear)"/>
<path d="M62.6573 76.1324C62.7478 76.07 62.8674 76.07 62.958 76.1324C63.0971 76.2401 63.0791 76.5408 62.9131 76.7966C62.3604 77.6861 61.6092 78.4357 60.7185 78.9865C60.0749 79.4269 59.2671 79.5539 58.5194 79.3321C58.3534 79.2692 58.3309 78.991 58.4701 78.7217C58.5369 78.5837 58.6411 78.4671 58.7708 78.3852C58.8456 78.3338 58.9396 78.319 59.0266 78.3448C59.6009 78.5143 60.221 78.4154 60.714 78.0755C61.3978 77.6526 61.974 77.0765 62.397 76.3927C62.4619 76.2865 62.5511 76.1973 62.6573 76.1324Z" fill="url(#paint21_linear)"/>
<path d="M102.609 91.498C102.848 91.5767 103.01 91.8002 103.01 92.0522C103.01 92.3042 102.848 92.5278 102.609 92.6064L58.2772 118.365C57.6765 118.671 56.966 118.671 56.3653 118.365L40.9494 109.466C40.7146 109.383 40.5576 109.161 40.5576 108.912C40.5576 108.663 40.7146 108.441 40.9494 108.358L85.2763 82.5766C85.877 82.2713 86.5875 82.2713 87.1882 82.5766L102.609 91.498Z" fill="#C3E1FB"/>
<path d="M51.8639 104.18C51.9214 104.199 51.9603 104.252 51.9603 104.312C51.9603 104.373 51.9214 104.426 51.8639 104.445L49.8668 105.598C49.7255 105.669 49.5593 105.669 49.418 105.598L48.7897 105.235C48.6641 105.163 48.6596 105.042 48.7897 104.97L50.7779 103.817C50.9192 103.746 51.0854 103.746 51.2266 103.817L51.8639 104.18Z" fill="#5C90FE"/>
<path d="M55.7954 105.194C55.8528 105.213 55.8917 105.266 55.8917 105.327C55.8917 105.387 55.8528 105.44 55.7954 105.459L53.8072 106.612C53.6659 106.683 53.4997 106.683 53.3584 106.612L51.6396 105.621C51.5821 105.602 51.5432 105.549 51.5432 105.488C51.5432 105.428 51.5821 105.374 51.6396 105.356L53.6277 104.202C53.7688 104.131 53.9354 104.131 54.0765 104.202L55.7954 105.194Z" fill="#5C90FE"/>
<path d="M52.6089 107.043C52.6663 107.062 52.7052 107.115 52.7052 107.175C52.7052 107.236 52.6663 107.289 52.6089 107.308L50.6207 108.461C50.4796 108.532 50.313 108.532 50.1719 108.461L48.4531 107.469C48.3956 107.451 48.3567 107.397 48.3567 107.337C48.3567 107.277 48.3956 107.223 48.4531 107.205L50.4412 106.051C50.5825 105.981 50.7487 105.981 50.89 106.051L52.6089 107.043Z" fill="#5C90FE"/>
<path d="M48.6776 106.033C48.735 106.052 48.774 106.105 48.774 106.166C48.774 106.226 48.735 106.28 48.6776 106.298L46.6894 107.451C46.5482 107.522 46.382 107.522 46.2407 107.451L45.6124 107.088C45.4867 107.016 45.4822 106.895 45.6124 106.823L47.6005 105.67C47.7418 105.599 47.908 105.599 48.0493 105.67L48.6776 106.033Z" fill="#5C90FE"/>
<path d="M45.4957 107.887C45.5531 107.905 45.5921 107.959 45.5921 108.019C45.5921 108.08 45.5531 108.133 45.4957 108.152L43.5076 109.305C43.3663 109.375 43.2001 109.375 43.0588 109.305L42.4305 108.941C42.3048 108.87 42.3003 108.748 42.4305 108.677L44.4186 107.523C44.5599 107.453 44.7261 107.453 44.8674 107.523L45.4957 107.887Z" fill="#5C90FE"/>
<path d="M55.0549 102.322C55.1123 102.341 55.1512 102.394 55.1512 102.455C55.1512 102.515 55.1123 102.568 55.0549 102.587L53.0712 103.74C52.9299 103.811 52.7637 103.811 52.6224 103.74L51.9941 103.377C51.8685 103.305 51.864 103.184 51.9941 103.112L53.9778 101.959C54.1192 101.889 54.2851 101.889 54.4266 101.959L55.0549 102.322Z" fill="#5C90FE"/>
<path d="M86.9189 83.8152C86.9763 83.8337 87.0152 83.8872 87.0152 83.9476C87.0152 84.0079 86.9763 84.0614 86.9189 84.0799L84.9307 85.2333C84.7894 85.3037 84.6232 85.3037 84.4819 85.2333L83.8536 84.8698C83.728 84.798 83.7235 84.6768 83.8536 84.605L85.8418 83.4517C85.9831 83.3812 86.1493 83.3812 86.2906 83.4517L86.9189 83.8152Z" fill="#5C90FE"/>
<path d="M92.5377 87.136C92.5952 87.1546 92.6341 87.2081 92.6341 87.2684C92.6341 87.3288 92.5952 87.3823 92.5377 87.4008L90.5496 88.5541C90.4083 88.6246 90.2421 88.6246 90.1008 88.5541L88.382 87.5624C88.3245 87.5438 88.2856 87.4903 88.2856 87.43C88.2856 87.3696 88.3245 87.3161 88.382 87.2976L90.3701 86.1443C90.5112 86.0731 90.6778 86.0731 90.8189 86.1443L92.5377 87.136Z" fill="#5C90FE"/>
<path d="M89.4187 88.949C89.4761 88.9676 89.5151 89.0211 89.5151 89.0814C89.5151 89.1418 89.4761 89.1953 89.4187 89.2138L87.435 90.3671C87.2938 90.4376 87.1275 90.4376 86.9863 90.3671L85.2674 89.3754C85.2099 89.3568 85.171 89.3033 85.171 89.243C85.171 89.1826 85.2099 89.1291 85.2674 89.1106L87.251 87.9573C87.3922 87.8861 87.5587 87.8861 87.6998 87.9573L89.4187 88.949Z" fill="#5C90FE"/>
<path d="M85.4468 97.8345C85.5043 97.8531 85.5432 97.9065 85.5432 97.9669C85.5432 98.0273 85.5043 98.0807 85.4468 98.0993L83.4587 99.2526C83.3174 99.3231 83.1512 99.3231 83.0099 99.2526L81.282 98.2833C81.2246 98.2647 81.1857 98.2112 81.1857 98.1509C81.1857 98.0905 81.2246 98.037 81.282 98.0185L83.2702 96.8652C83.4115 96.7947 83.5777 96.7947 83.719 96.8652L85.4468 97.8345Z" fill="#5C90FE"/>
<path d="M83.7281 85.6642C83.7855 85.6827 83.8245 85.7362 83.8245 85.7966C83.8245 85.8569 83.7855 85.9104 83.7281 85.9289L81.731 87.0643C81.5897 87.1348 81.4235 87.1348 81.2822 87.0643L80.6539 86.7008C80.5965 86.6823 80.5575 86.6288 80.5575 86.5684C80.5575 86.5081 80.5965 86.4546 80.6539 86.436L82.6375 85.2827C82.7788 85.2122 82.945 85.2122 83.0863 85.2827L83.7281 85.6642Z" fill="#5C90FE"/>
<path d="M89.7598 85.4577C89.8173 85.4763 89.8562 85.5297 89.8562 85.5901C89.8562 85.6505 89.8173 85.7039 89.7598 85.7225L85.806 88.0201C85.6647 88.0906 85.4985 88.0906 85.3572 88.0201L83.6383 87.0284C83.5809 87.0098 83.542 86.9564 83.542 86.896C83.542 86.8356 83.5809 86.7822 83.6383 86.7636L87.5922 84.466C87.7335 84.3955 87.8997 84.3955 88.041 84.466L89.7598 85.4577Z" fill="#5C90FE"/>
<path d="M80.5462 87.513C80.6036 87.5316 80.6425 87.5851 80.6425 87.6454C80.6425 87.7058 80.6036 87.7593 80.5462 87.7778L78.558 88.9311C78.4167 89.0016 78.2505 89.0016 78.1093 88.9311L77.4809 88.5676C77.3553 88.4958 77.3508 88.3747 77.4809 88.3029L79.4691 87.1495C79.6104 87.0791 79.7766 87.0791 79.9179 87.1495L80.5462 87.513Z" fill="#5C90FE"/>
<path d="M84.5404 88.4869C84.5978 88.5054 84.6368 88.5589 84.6368 88.6193C84.6368 88.6796 84.5978 88.7331 84.5404 88.7517L82.5523 89.905C82.411 89.9755 82.2448 89.9755 82.1035 89.905L80.3846 88.9132C80.3272 88.8947 80.2882 88.8412 80.2882 88.7808C80.2882 88.7205 80.3272 88.667 80.3846 88.6484L82.3727 87.4951C82.514 87.4246 82.6802 87.4246 82.8215 87.4951L84.5404 88.4869Z" fill="#5C90FE"/>
<path d="M95.3787 88.7786C95.4361 88.7971 95.475 88.8506 95.475 88.9109C95.475 88.9713 95.4361 89.0248 95.3787 89.0433L91.3126 91.4083C91.1713 91.4788 91.0051 91.4788 90.8638 91.4083L89.145 90.4165C89.0875 90.398 89.0486 90.3445 89.0486 90.2842C89.0486 90.2238 89.0875 90.1703 89.145 90.1518L93.211 87.7868C93.3521 87.7156 93.5187 87.7156 93.6598 87.7868L95.3787 88.7786Z" fill="#5C90FE"/>
<path d="M86.2996 90.7621C86.3571 90.7806 86.396 90.8341 86.396 90.8945C86.396 90.9548 86.3571 91.0083 86.2996 91.0269L84.316 92.1802C84.1748 92.2514 84.0083 92.2514 83.8672 92.1802L82.1483 91.1884C82.0909 91.1699 82.0519 91.1164 82.0519 91.056C82.0519 90.9957 82.0909 90.9422 82.1483 90.9237L84.132 89.7703C84.2733 89.6998 84.4395 89.6998 84.5808 89.7703L86.2996 90.7621Z" fill="#5C90FE"/>
<path d="M90.231 91.7718C90.2885 91.7904 90.3274 91.8438 90.3274 91.9042C90.3274 91.9645 90.2885 92.018 90.231 92.0366L88.2429 93.1899C88.1016 93.2604 87.9354 93.2604 87.7941 93.1899L86.0752 92.1981C86.0178 92.1796 85.9789 92.1261 85.9789 92.0657C85.9789 92.0054 86.0178 91.9519 86.0752 91.9334L88.0634 90.78C88.2047 90.7096 88.3709 90.7096 88.5121 90.78L90.231 91.7718Z" fill="#5C90FE"/>
<path d="M98.2239 90.421C98.2814 90.4395 98.3203 90.493 98.3203 90.5534C98.3203 90.6137 98.2814 90.6672 98.2239 90.6858L92.8923 93.7957C92.751 93.8662 92.5848 93.8662 92.4435 93.7957L90.7067 92.7904C90.6493 92.7719 90.6104 92.7184 90.6104 92.6581C90.6104 92.5977 90.6493 92.5442 90.7067 92.5257L96.0383 89.4247C96.1795 89.3535 96.346 89.3535 96.4871 89.4247L98.2239 90.421Z" fill="#5C90FE"/>
<path d="M83.0459 92.6514C83.1033 92.6699 83.1423 92.7234 83.1423 92.7838C83.1423 92.8441 83.1033 92.8976 83.0459 92.9161L81.0578 94.0695C80.9165 94.14 80.7503 94.14 80.609 94.0695L78.8901 93.0777C78.8327 93.0592 78.7937 93.0057 78.7937 92.9453C78.7937 92.885 78.8327 92.8315 78.8901 92.8129L80.8782 91.6596C81.0195 91.5891 81.1857 91.5891 81.327 91.6596L83.0459 92.6514Z" fill="#5C90FE"/>
<path d="M101.069 92.0635C101.195 92.1353 101.199 92.252 101.069 92.3282L97.1155 94.6259C96.9744 94.6971 96.8078 94.6971 96.6667 94.6259L94.9478 93.6341C94.8904 93.6156 94.8515 93.5621 94.8515 93.5018C94.8515 93.4414 94.8904 93.3879 94.9478 93.3694L98.9017 91.0717C99.0428 91.0005 99.2093 91.0005 99.3505 91.0717L101.069 92.0635Z" fill="#5C90FE"/>
<path d="M87.1164 93.5848C87.1739 93.6033 87.2128 93.6568 87.2128 93.7172C87.2128 93.7775 87.1739 93.831 87.1164 93.8496L85.1283 95.0029C84.987 95.0734 84.8208 95.0734 84.6795 95.0029L82.9607 94.0111C82.9032 93.9926 82.8643 93.9391 82.8643 93.8787C82.8643 93.8184 82.9032 93.7649 82.9607 93.7463L84.9488 92.593C85.0901 92.5225 85.2563 92.5225 85.3976 92.593L87.1164 93.5848Z" fill="#5C90FE"/>
<path d="M91.7524 94.1817C91.8099 94.2002 91.8488 94.2537 91.8488 94.314C91.8488 94.3744 91.8099 94.4279 91.7524 94.4464L89.7643 95.5908C89.623 95.6613 89.4568 95.6613 89.3155 95.5908L87.5966 94.599C87.5392 94.5805 87.5003 94.527 87.5003 94.4666C87.5003 94.4063 87.5392 94.3528 87.5966 94.3342L89.5848 93.1809C89.7261 93.1104 89.8923 93.1104 90.0336 93.1809L91.7524 94.1817Z" fill="#5C90FE"/>
<path d="M95.8992 95.0657C95.9566 95.0842 95.9956 95.1377 95.9956 95.1981C95.9956 95.2584 95.9566 95.3119 95.8992 95.3305L93.2065 96.8921C93.0653 96.9633 92.8988 96.9633 92.7577 96.8921L91.0388 95.9004C90.9814 95.8818 90.9424 95.8284 90.9424 95.768C90.9424 95.7076 90.9814 95.6542 91.0388 95.6356L93.7316 94.0739C93.8728 94.0034 94.039 94.0034 94.1803 94.0739L95.8992 95.0657Z" fill="#5C90FE"/>
<path d="M88.6333 95.9946C88.6908 96.0132 88.7297 96.0667 88.7297 96.127C88.7297 96.1874 88.6908 96.2409 88.6333 96.2594L86.6676 97.4127C86.5263 97.4832 86.3601 97.4832 86.2188 97.4127L84.5 96.421C84.4425 96.4024 84.4036 96.3489 84.4036 96.2886C84.4036 96.2282 84.4425 96.1747 84.5 96.1562L86.4881 95.0029C86.6294 94.9324 86.7956 94.9324 86.9369 95.0029L88.6333 95.9946Z" fill="#5C90FE"/>
<path d="M91.9948 97.3364C92.0522 97.355 92.0911 97.4085 92.0911 97.4688C92.0911 97.5292 92.0522 97.5827 91.9948 97.6012L89.302 99.1629C89.1609 99.2341 88.9944 99.2341 88.8532 99.1629L87.1164 98.1711C87.059 98.1526 87.0201 98.0991 87.0201 98.0387C87.0201 97.9784 87.059 97.9249 87.1164 97.9064L89.8092 96.3447C89.9505 96.2742 90.1167 96.2742 90.2579 96.3447L91.9948 97.3364Z" fill="#5C90FE"/>
<path d="M77.3551 89.3709C77.4126 89.3894 77.4515 89.4429 77.4515 89.5033C77.4515 89.5636 77.4126 89.6171 77.3551 89.6357L75.367 90.789C75.2257 90.8595 75.0595 90.8595 74.9182 90.789L74.2899 90.4255C74.1642 90.3537 74.1598 90.2325 74.2899 90.1607L76.278 89.0074C76.4193 88.9369 76.5855 88.9369 76.7268 89.0074L77.3551 89.3709Z" fill="#5C90FE"/>
<path d="M78.1002 92.2295C78.1576 92.2481 78.1966 92.3015 78.1966 92.3619C78.1966 92.4223 78.1576 92.4757 78.1002 92.4943L76.112 93.6476C75.9708 93.7181 75.8045 93.7181 75.6633 93.6476L73.9444 92.6558C73.887 92.6373 73.848 92.5838 73.848 92.5234C73.848 92.4631 73.887 92.4096 73.9444 92.3911L75.9325 91.2377C76.0738 91.1673 76.24 91.1673 76.3813 91.2377L78.1002 92.2295Z" fill="#5C90FE"/>
<path d="M79.8595 94.5048C79.9169 94.5233 79.9559 94.5768 79.9559 94.6371C79.9559 94.6975 79.9169 94.751 79.8595 94.7695L77.8758 95.9228C77.7345 95.9933 77.5683 95.9933 77.4271 95.9228L75.7082 94.9311C75.6507 94.9125 75.6118 94.8591 75.6118 94.7987C75.6118 94.7383 75.6507 94.6849 75.7082 94.6663L77.6918 93.513C77.833 93.4418 77.9995 93.4418 78.1406 93.513L79.8595 94.5048Z" fill="#5C90FE"/>
<path d="M74.1687 91.2198C74.2262 91.2383 74.2651 91.2918 74.2651 91.3522C74.2651 91.4125 74.2262 91.466 74.1687 91.4845L72.1851 92.6379C72.0438 92.7083 71.8776 92.7083 71.7363 92.6379L71.108 92.2744C71.0505 92.2558 71.0116 92.2023 71.0116 92.142C71.0116 92.0816 71.0505 92.0281 71.108 92.0096L73.0916 90.8563C73.2329 90.7858 73.3991 90.7858 73.5404 90.8563L74.1687 91.2198Z" fill="#5C90FE"/>
<path d="M70.9869 93.0732C71.0443 93.0917 71.0832 93.1452 71.0832 93.2055C71.0832 93.2659 71.0443 93.3194 70.9869 93.3379L68.9987 94.4912C68.8574 94.5617 68.6912 94.5617 68.5499 94.4912L67.9216 94.1278C67.796 94.0559 67.7915 93.9348 67.9216 93.863L69.9098 92.7097C70.051 92.6392 70.2173 92.6392 70.3585 92.7097L70.9869 93.0732Z" fill="#5C90FE"/>
<path d="M75.8965 103.399C75.954 103.418 75.9929 103.471 75.9929 103.532C75.9929 103.592 75.954 103.645 75.8965 103.664L73.9129 104.817C73.7716 104.888 73.6054 104.888 73.4641 104.817L71.7452 103.826C71.6878 103.807 71.6489 103.753 71.6489 103.693C71.6489 103.633 71.6878 103.579 71.7452 103.561L73.7289 102.407C73.8702 102.337 74.0364 102.337 74.1777 102.407L75.8965 103.399Z" fill="#5C90FE"/>
<path d="M66.3285 108.955C66.3859 108.973 66.4249 109.027 66.4249 109.087C66.4249 109.148 66.3859 109.201 66.3285 109.22L64.3448 110.373C64.2035 110.443 64.0373 110.443 63.896 110.373L62.1772 109.381C62.1197 109.363 62.0808 109.309 62.0808 109.249C62.0808 109.188 62.1197 109.135 62.1772 109.116L64.1608 107.963C64.302 107.892 64.4685 107.892 64.6096 107.963L66.3285 108.955Z" fill="#5C90FE"/>
<path d="M63.1061 110.849C63.1636 110.867 63.2025 110.921 63.2025 110.981C63.2025 111.041 63.1636 111.095 63.1061 111.113L54.8798 115.893C54.7385 115.963 54.5723 115.963 54.4311 115.893L52.7077 114.888C52.6503 114.869 52.6113 114.815 52.6113 114.755C52.6113 114.695 52.6503 114.641 52.7077 114.623L60.934 109.843C61.0753 109.773 61.2415 109.773 61.3828 109.843L63.1061 110.849Z" fill="#5C90FE"/>
<path d="M69.5149 107.106C69.5723 107.124 69.6112 107.178 69.6112 107.238C69.6112 107.299 69.5723 107.352 69.5149 107.371L67.5267 108.524C67.3854 108.595 67.2192 108.595 67.0779 108.524L65.3591 107.532C65.3016 107.514 65.2627 107.46 65.2627 107.4C65.2627 107.34 65.3016 107.286 65.3591 107.267L67.3472 106.114C67.4885 106.044 67.6547 106.044 67.796 106.114L69.5149 107.106Z" fill="#5C90FE"/>
<path d="M69.4879 110.4C69.5454 110.418 69.5843 110.472 69.5843 110.532C69.5843 110.593 69.5454 110.646 69.4879 110.665L66.7952 112.226C66.6541 112.298 66.4875 112.298 66.3464 112.226L64.6276 111.235C64.5701 111.216 64.5312 111.163 64.5312 111.102C64.5312 111.042 64.5701 110.988 64.6276 110.97L67.3203 109.408C67.4616 109.338 67.6278 109.338 67.7691 109.408L69.4879 110.4Z" fill="#5C90FE"/>
<path d="M80.7391 97.2871C80.7966 97.3056 80.8355 97.3591 80.8355 97.4194C80.8355 97.4798 80.7966 97.5333 80.7391 97.5518L78.751 98.7051C78.6097 98.7756 78.4435 98.7756 78.3022 98.7051L76.5833 97.7134C76.5259 97.6948 76.487 97.6414 76.487 97.581C76.487 97.5206 76.5259 97.4672 76.5833 97.4486L78.5715 96.2953C78.7128 96.2248 78.879 96.2248 79.0203 96.2953L80.7391 97.2871Z" fill="#5C90FE"/>
<path d="M68.541 97.7852C68.5984 97.8038 68.6374 97.8573 68.6374 97.9176C68.6374 97.978 68.5984 98.0314 68.541 98.05L66.5528 99.2033C66.4116 99.2738 66.2453 99.2738 66.1041 99.2033L64.3852 98.2116C64.3277 98.193 64.2888 98.1395 64.2888 98.0792C64.2888 98.0188 64.3277 97.9653 64.3852 97.9468L66.3733 96.7935C66.5146 96.723 66.6808 96.723 66.8221 96.7935L68.541 97.7852Z" fill="#5C90FE"/>
<path d="M73.4867 98.207C73.5441 98.2256 73.5831 98.279 73.5831 98.3394C73.5831 98.3998 73.5441 98.4532 73.4867 98.4718L71.4986 99.6296C71.3573 99.7001 71.1911 99.7001 71.0498 99.6296L69.3309 98.6378C69.2735 98.6193 69.2345 98.5658 69.2345 98.5054C69.2345 98.4451 69.2735 98.3916 69.3309 98.3731L71.319 97.2197C71.4603 97.1492 71.6265 97.1492 71.7678 97.2197L73.4867 98.207Z" fill="#5C90FE"/>
<path d="M77.5482 99.1405C77.6057 99.159 77.6446 99.2125 77.6446 99.2728C77.6446 99.3332 77.6057 99.3867 77.5482 99.4052L75.5601 100.559C75.4188 100.629 75.2526 100.629 75.1113 100.559L73.3925 99.5668C73.335 99.5482 73.2961 99.4948 73.2961 99.4344C73.2961 99.374 73.335 99.3206 73.3925 99.302L75.3806 98.1487C75.5219 98.0782 75.6881 98.0782 75.8294 98.1487L77.5482 99.1405Z" fill="#5C90FE"/>
<path d="M82.2605 99.6969C82.3179 99.7155 82.3568 99.7689 82.3568 99.8293C82.3568 99.8897 82.3179 99.9431 82.2605 99.9617L80.2723 101.115C80.131 101.185 79.9648 101.185 79.8235 101.115L78.1047 100.123C78.0472 100.105 78.0083 100.051 78.0083 99.9909C78.0083 99.9305 78.0472 99.877 78.1047 99.8585L80.0928 98.7051C80.2341 98.6347 80.4003 98.6347 80.5416 98.7051L82.2605 99.6969Z" fill="#5C90FE"/>
<path d="M70.3002 100.078C70.3576 100.097 70.3966 100.15 70.3966 100.211C70.3966 100.271 70.3576 100.325 70.3002 100.343L68.3165 101.496C68.1754 101.568 68.0089 101.568 67.8678 101.496L66.1489 100.505C66.0914 100.486 66.0525 100.433 66.0525 100.372C66.0525 100.312 66.0914 100.258 66.1489 100.24L68.1325 99.0866C68.2738 99.0161 68.44 99.0161 68.5813 99.0866L70.3002 100.078Z" fill="#5C90FE"/>
<path d="M74.3618 100.976C74.4193 100.994 74.4582 101.048 74.4582 101.108C74.4582 101.169 74.4193 101.222 74.3618 101.241L72.3782 102.394C72.2369 102.464 72.0707 102.464 71.9294 102.394L70.2015 101.425C70.1441 101.406 70.1052 101.353 70.1052 101.292C70.1052 101.232 70.1441 101.178 70.2015 101.16L72.1852 100.007C72.3263 99.9354 72.4928 99.9354 72.634 100.007L74.3618 100.976Z" fill="#5C90FE"/>
<path d="M79.0741 101.55C79.1315 101.569 79.1704 101.622 79.1704 101.683C79.1704 101.743 79.1315 101.797 79.0741 101.815L77.0859 102.968C76.9446 103.039 76.7784 103.039 76.6371 102.968L74.9183 101.977C74.8608 101.958 74.8219 101.905 74.8219 101.844C74.8219 101.784 74.8608 101.73 74.9183 101.712L76.9064 100.559C77.0477 100.488 77.2139 100.488 77.3552 100.559L79.0741 101.55Z" fill="#5C90FE"/>
<path d="M71.1754 102.843C71.2329 102.861 71.2718 102.915 71.2718 102.975C71.2718 103.036 71.2329 103.089 71.1754 103.108L69.1873 104.261C69.046 104.331 68.8798 104.331 68.7385 104.261L67.0197 103.269C66.9622 103.251 66.9233 103.197 66.9233 103.137C66.9233 103.076 66.9622 103.023 67.0197 103.004L69.0078 101.851C69.1491 101.781 69.3153 101.781 69.4566 101.851L71.1754 102.843Z" fill="#5C90FE"/>
<path d="M72.7013 105.253C72.7587 105.271 72.7976 105.325 72.7976 105.385C72.7976 105.445 72.7587 105.499 72.7013 105.517L70.7131 106.671C70.5718 106.741 70.4056 106.741 70.2643 106.671L68.5455 105.679C68.488 105.66 68.4491 105.607 68.4491 105.547C68.4491 105.486 68.488 105.433 68.5455 105.414L70.5336 104.261C70.6749 104.19 70.8411 104.19 70.9824 104.261L72.7013 105.253Z" fill="#5C90FE"/>
<path d="M88.2563 99.5084C88.3137 99.527 88.3527 99.5805 88.3527 99.6408C88.3527 99.7012 88.3137 99.7547 88.2563 99.7732L70.7131 109.951C70.572 110.022 70.4055 110.022 70.2643 109.951L68.5455 108.959C68.488 108.941 68.4491 108.887 68.4491 108.827C68.4491 108.767 68.488 108.713 68.5455 108.695L86.0886 98.4987C86.2299 98.4282 86.3961 98.4282 86.5374 98.4987L88.2563 99.5084Z" fill="#5C90FE"/>
<path d="M74.9138 94.0829C74.9712 94.1014 75.0102 94.1549 75.0102 94.2153C75.0102 94.2756 74.9712 94.3291 74.9138 94.3477L72.9256 95.501C72.7844 95.5715 72.6181 95.5715 72.4769 95.501L70.758 94.5092C70.7005 94.4907 70.6616 94.4372 70.6616 94.3768C70.6616 94.3165 70.7005 94.263 70.758 94.2445L72.7461 93.0911C72.8874 93.0206 73.0536 93.0206 73.1949 93.0911L74.9138 94.0829Z" fill="#5C90FE"/>
<path d="M71.7274 95.9318C71.7849 95.9503 71.8238 96.0038 71.8238 96.0642C71.8238 96.1245 71.7849 96.178 71.7274 96.1965L69.7438 97.3499C69.6025 97.4203 69.4363 97.4203 69.295 97.3499L67.5761 96.3581C67.5187 96.3395 67.4797 96.2861 67.4797 96.2257C67.4797 96.1654 67.5187 96.1119 67.5761 96.0933L69.5598 94.94C69.701 94.8695 69.8673 94.8695 70.0085 94.94L71.7274 95.9318Z" fill="#5C90FE"/>
<path d="M67.8184 94.922C67.8758 94.9406 67.9148 94.9941 67.9148 95.0544C67.9148 95.1148 67.8758 95.1683 67.8184 95.1868L65.8303 96.3401C65.689 96.4106 65.5228 96.4106 65.3815 96.3401L64.7532 95.9766C64.6275 95.9048 64.623 95.7837 64.7532 95.7119L66.7413 94.5585C66.8826 94.4881 67.0488 94.4881 67.1901 94.5585L67.8184 94.922Z" fill="#5C90FE"/>
<path d="M64.6095 96.7755C64.667 96.794 64.7059 96.8475 64.7059 96.9078C64.7059 96.9682 64.667 97.0217 64.6095 97.0402L62.6259 98.1935C62.4848 98.2647 62.3182 98.2647 62.1771 98.1935L61.5353 97.8345C61.4097 97.7627 61.4052 97.6416 61.5353 97.5698L63.519 96.4165C63.6603 96.346 63.8265 96.346 63.9678 96.4165L64.6095 96.7755Z" fill="#5C90FE"/>
<path d="M67.1138 101.909C67.1712 101.928 67.2101 101.981 67.2101 102.042C67.2101 102.102 67.1712 102.156 67.1138 102.174L65.1256 103.327C64.9843 103.398 64.8181 103.398 64.6768 103.327L62.9535 102.322C62.896 102.304 62.8571 102.25 62.8571 102.19C62.8571 102.129 62.896 102.076 62.9535 102.057L64.9416 100.904C65.0829 100.834 65.2491 100.834 65.3904 100.904L67.1138 101.909Z" fill="#5C90FE"/>
<path d="M63.9273 103.763C63.9847 103.781 64.0237 103.835 64.0237 103.895C64.0237 103.955 63.9847 104.009 63.9273 104.027L61.9392 105.181C61.7979 105.251 61.6317 105.251 61.4904 105.181L59.7715 104.189C59.7141 104.17 59.6751 104.117 59.6751 104.057C59.6751 103.996 59.7141 103.943 59.7715 103.924L61.7596 102.771C61.9009 102.7 62.0671 102.7 62.2084 102.771L63.9273 103.763Z" fill="#5C90FE"/>
<path d="M67.9888 104.696C68.0463 104.715 68.0852 104.768 68.0852 104.828C68.0852 104.889 68.0463 104.942 67.9888 104.961L66.0231 106.114C65.8818 106.185 65.7156 106.185 65.5743 106.114L63.8555 105.122C63.798 105.104 63.7591 105.05 63.7591 104.99C63.7591 104.93 63.798 104.876 63.8555 104.858L65.8436 103.704C65.9849 103.634 66.1511 103.634 66.2924 103.704L67.9888 104.696Z" fill="#5C90FE"/>
<path d="M60.7408 105.612C60.7983 105.63 60.8372 105.684 60.8372 105.744C60.8372 105.804 60.7983 105.858 60.7408 105.876L58.7572 107.03C58.6159 107.1 58.4497 107.1 58.3084 107.03L56.5985 106.038C56.5411 106.019 56.5021 105.966 56.5021 105.905C56.5021 105.845 56.5411 105.792 56.5985 105.773L58.5822 104.62C58.7234 104.549 58.8897 104.549 59.0309 104.62L60.7408 105.612Z" fill="#5C90FE"/>
<path d="M64.8024 106.545C64.8599 106.564 64.8988 106.617 64.8988 106.677C64.8988 106.738 64.8599 106.791 64.8024 106.81L62.8188 107.963C62.6775 108.034 62.5113 108.034 62.37 107.963L60.6377 106.971C60.5802 106.953 60.5413 106.899 60.5413 106.839C60.5413 106.779 60.5802 106.725 60.6377 106.707L62.6213 105.553C62.7626 105.483 62.9288 105.483 63.0701 105.553L64.8024 106.545Z" fill="#5C90FE"/>
<path d="M57.5545 107.465C57.612 107.483 57.6509 107.537 57.6509 107.597C57.6509 107.658 57.612 107.711 57.5545 107.73L55.5664 108.883C55.4251 108.954 55.2589 108.954 55.1176 108.883L53.3987 107.891C53.3413 107.873 53.3024 107.819 53.3024 107.759C53.3024 107.699 53.3413 107.645 53.3987 107.627L55.3869 106.473C55.5282 106.403 55.6944 106.403 55.8357 106.473L57.5545 107.465Z" fill="#5C90FE"/>
<path d="M61.6161 108.398C61.6735 108.417 61.7124 108.47 61.7124 108.531C61.7124 108.591 61.6735 108.645 61.6161 108.663L59.6279 109.816C59.4866 109.887 59.3204 109.887 59.1791 109.816L57.4603 108.825C57.4028 108.806 57.3639 108.753 57.3639 108.692C57.3639 108.632 57.4028 108.578 57.4603 108.56L59.4484 107.407C59.5897 107.336 59.7559 107.336 59.8972 107.407L61.6161 108.398Z" fill="#5C90FE"/>
<path d="M54.3546 109.318C54.4121 109.337 54.451 109.39 54.451 109.451C54.451 109.511 54.4121 109.565 54.3546 109.583L49.1846 112.59C49.0433 112.66 48.8771 112.66 48.7358 112.59L47.0169 111.598C46.9595 111.58 46.9206 111.526 46.9206 111.466C46.9206 111.405 46.9595 111.352 47.0169 111.333L52.187 108.327C52.3283 108.256 52.4945 108.256 52.6358 108.327L54.3546 109.318Z" fill="#5C90FE"/>
<path d="M58.4655 110.229C58.523 110.248 58.5619 110.301 58.5619 110.362C58.5619 110.422 58.523 110.476 58.4655 110.494L52.0344 114.232C51.8931 114.303 51.7269 114.303 51.5856 114.232L49.8667 113.236C49.8093 113.217 49.7704 113.164 49.7704 113.104C49.7704 113.043 49.8093 112.99 49.8667 112.971L56.2979 109.233C56.4392 109.163 56.6054 109.163 56.7467 109.233L58.4655 110.229Z" fill="#5C90FE"/>
<path d="M58.9817 103.341C59.0391 103.359 59.0781 103.413 59.0781 103.473C59.0781 103.534 59.0391 103.587 58.9817 103.606L56.9936 104.759C56.8523 104.829 56.6861 104.829 56.5448 104.759L54.8035 103.767C54.746 103.749 54.7071 103.695 54.7071 103.635C54.7071 103.574 54.746 103.521 54.8035 103.502L56.7916 102.349C56.9329 102.279 57.0991 102.279 57.2404 102.349L58.9817 103.341Z" fill="#5C90FE"/>
<path d="M62.1681 101.487C62.2256 101.506 62.2645 101.559 62.2645 101.62C62.2645 101.68 62.2256 101.734 62.1681 101.752L60.189 102.906C60.0477 102.976 59.8815 102.976 59.7402 102.906L58.0213 101.914C57.9639 101.895 57.9249 101.842 57.9249 101.781C57.9249 101.721 57.9639 101.668 58.0213 101.649L60.0049 100.496C60.1462 100.425 60.3124 100.425 60.4537 100.496L62.1681 101.487Z" fill="#5C90FE"/>
<path d="M65.3545 99.6296C65.412 99.6481 65.4509 99.7016 65.4509 99.7619C65.4509 99.8223 65.412 99.8758 65.3545 99.8943L63.3664 101.048C63.2251 101.118 63.0589 101.118 62.9176 101.048L61.1943 100.078C61.1368 100.06 61.0979 100.006 61.0979 99.9459C61.0979 99.8856 61.1368 99.8321 61.1943 99.8135L63.1824 98.6602C63.3237 98.5897 63.4899 98.5897 63.6312 98.6602L65.3545 99.6296Z" fill="#5C90FE"/>
<path d="M61.4276 98.6288C61.4851 98.6474 61.524 98.7008 61.524 98.7612C61.524 98.8216 61.4851 98.875 61.4276 98.8936L59.4395 100.047C59.2982 100.117 59.132 100.117 58.9907 100.047L58.3624 99.6834C58.2368 99.6116 58.2323 99.4904 58.3624 99.4186L60.3506 98.2653C60.4918 98.1948 60.658 98.1948 60.7993 98.2653L61.4276 98.6288Z" fill="#5C90FE"/>
<path d="M58.2368 100.478C58.2942 100.496 58.3332 100.55 58.3332 100.61C58.3332 100.67 58.2942 100.724 58.2368 100.743L56.2487 101.896C56.1074 101.966 55.9412 101.966 55.7999 101.896L55.1716 101.532C55.0459 101.461 55.0414 101.339 55.1716 101.268L57.1597 100.114C57.301 100.044 57.4672 100.044 57.6085 100.114L58.2368 100.478Z" fill="#5C90FE"/>
<path d="M49.3373 108.946C49.3947 108.964 49.4337 109.018 49.4337 109.078C49.4337 109.139 49.3947 109.192 49.3373 109.211L46.3483 110.947C46.2071 111.018 46.0408 111.018 45.8996 110.947L44.1762 109.951C44.1188 109.933 44.0798 109.879 44.0798 109.819C44.0798 109.758 44.1188 109.705 44.1762 109.686L47.1651 107.95C47.3063 107.878 47.4728 107.878 47.6139 107.95L49.3373 108.946Z" fill="#5C90FE"/>
<path d="M81.2821 90.3806C81.3395 90.3992 81.3785 90.4526 81.3785 90.513C81.3785 90.5734 81.3395 90.6268 81.2821 90.6454L79.2984 91.7987C79.1572 91.8692 78.991 91.8692 78.8497 91.7987L77.1308 90.8069C77.0734 90.7884 77.0344 90.7349 77.0344 90.6745C77.0344 90.6142 77.0734 90.5607 77.1308 90.5422L79.1144 89.3888C79.2556 89.3176 79.4221 89.3176 79.5632 89.3888L81.2821 90.3806Z" fill="#5C90FE"/>
<path d="M76.6729 96.3536C76.7304 96.3721 76.7693 96.4256 76.7693 96.486C76.7693 96.5463 76.7304 96.5998 76.6729 96.6184L74.6848 97.7717C74.5435 97.8422 74.3773 97.8422 74.236 97.7717L72.5171 96.7799C72.4597 96.7614 72.4208 96.7079 72.4208 96.6475C72.4208 96.5872 72.4597 96.5337 72.5171 96.5151L74.5053 95.3618C74.6466 95.2913 74.8128 95.2913 74.9541 95.3618L76.6729 96.3536Z" fill="#5C90FE"/>
<path d="M83.9209 95.4381C83.9783 95.4567 84.0173 95.5101 84.0173 95.5705C84.0173 95.6309 83.9783 95.6843 83.9209 95.7029L81.9372 96.8562C81.7959 96.9267 81.6297 96.9267 81.4885 96.8562L79.7696 95.8644C79.7121 95.8459 79.6732 95.7924 79.6732 95.732C79.6732 95.6717 79.7121 95.6182 79.7696 95.5997L81.7532 94.4463C81.8944 94.3751 82.0609 94.3751 82.202 94.4463L83.9209 95.4381Z" fill="#5C90FE"/>
<path d="M61.679 114.95C61.8046 115.022 61.8091 115.139 61.679 115.215L57.7251 117.513C57.584 117.584 57.4175 117.584 57.2764 117.513L55.5575 116.521C55.5 116.502 55.4611 116.449 55.4611 116.389C55.4611 116.328 55.5 116.275 55.5575 116.256L59.5113 113.959C59.6526 113.888 59.8188 113.888 59.9601 113.959L61.679 114.95Z" fill="#5C90FE"/>
<path d="M65.5744 112.68C65.7001 112.751 65.7001 112.873 65.5744 112.944L62.8817 114.506C62.7406 114.577 62.574 114.577 62.4329 114.506L60.714 113.514C60.6566 113.496 60.6177 113.442 60.6177 113.382C60.6177 113.322 60.6566 113.268 60.714 113.25L63.4068 111.688C63.5481 111.617 63.7143 111.617 63.8556 111.688L65.5744 112.68Z" fill="#5C90FE"/>
<path d="M78.2079 111.104C78.0402 111.164 77.9282 111.323 77.9282 111.502C77.9282 111.68 78.0402 111.839 78.2079 111.899L85.972 116.409C86.4033 116.629 86.9139 116.629 87.3453 116.409L99.4626 109.426C99.6303 109.366 99.7422 109.207 99.7422 109.029C99.7422 108.851 99.6303 108.692 99.4626 108.632L91.6806 104.117C91.2492 103.897 90.7386 103.897 90.3073 104.117L78.2079 111.104Z" fill="#5C90FE"/>
<defs>
<filter id="filter0_d" x="5.04672" y="71.8294" width="148.198" height="118.04" filterUnits="userSpaceOnUse" color-interpolation-filters="sRGB">
<feFlood flood-opacity="0" result="BackgroundImageFix"/>
<feColorMatrix in="SourceAlpha" type="matrix" values="0 0 0 0 0 0 0 0 0 0 0 0 0 0 0 0 0 0 127 0"/>
<feOffset dy="10"/>
<feGaussianBlur stdDeviation="11.5"/>
<feColorMatrix type="matrix" values="0 0 0 0 0 0 0 0 0 0.258824 0 0 0 0 0.721569 0 0 0 0.15 0"/>
<feBlend mode="normal" in2="BackgroundImageFix" result="effect1_dropShadow"/>
<feBlend mode="normal" in="SourceGraphic" in2="effect1_dropShadow" result="shape"/>
</filter>
<linearGradient id="paint0_linear" x1="130.258" y1="143.115" x2="130.258" y2="0.00448679" gradientUnits="userSpaceOnUse">
<stop stop-color="#9AC1FF"/>
<stop offset="0.171875" stop-color="#9AC1FF" stop-opacity="0.8"/>
<stop offset="0.385417" stop-color="#9AC1FF" stop-opacity="0.5"/>
<stop offset="0.682292" stop-color="#9AC1FF" stop-opacity="0.2"/>
<stop offset="0.947917" stop-color="#9AC1FF" stop-opacity="0.01"/>
</linearGradient>
<linearGradient id="paint1_linear" x1="28.0873" y1="144.01" x2="130.245" y2="144.01" gradientUnits="userSpaceOnUse">
<stop stop-color="white"/>
<stop offset="0.33" stop-color="#F9F8FE"/>
<stop offset="0.81" stop-color="#E6E6FB"/>
<stop offset="1" stop-color="#DDDCF9"/>
</linearGradient>
<linearGradient id="paint2_linear" x1="130.245" y1="114.406" x2="28.0512" y2="114.406" gradientUnits="userSpaceOnUse">
<stop offset="0.12" stop-color="#ADCCFF"/>
<stop offset="0.56" stop-color="white"/>
<stop offset="0.71" stop-color="#F8FAFF"/>
<stop offset="0.91" stop-color="#BED3F7"/>
<stop offset="1" stop-color="#ADCCFF"/>
</linearGradient>
<linearGradient id="paint3_linear" x1="126.282" y1="88.7953" x2="32.0454" y2="88.7953" gradientUnits="userSpaceOnUse">
<stop offset="0.12" stop-color="#56A1FF"/>
<stop offset="1" stop-color="#5187DC"/>
</linearGradient>
<linearGradient id="paint4_linear" x1="0.5" y1="172.748" x2="157.5" y2="172.748" gradientUnits="userSpaceOnUse">
<stop stop-color="#56A1FF" stop-opacity="0.28"/>
<stop offset="1" stop-color="#5178DC"/>
</linearGradient>
<linearGradient id="paint5_linear" x1="121.785" y1="78.8437" x2="34.4868" y2="78.8437" gradientUnits="userSpaceOnUse">
<stop stop-color="white"/>
<stop offset="0.33" stop-color="#F9F8FE"/>
<stop offset="0.81" stop-color="#E6E6FB"/>
<stop offset="1" stop-color="#DDDCF9"/>
</linearGradient>
<linearGradient id="paint6_linear" x1="121.794" y1="99.023" x2="34.4868" y2="99.023" gradientUnits="userSpaceOnUse">
<stop stop-color="white"/>
<stop offset="0.33" stop-color="#F9F8FE"/>
<stop offset="0.81" stop-color="#E6E6FB"/>
<stop offset="1" stop-color="#DDDCF9"/>
</linearGradient>
<linearGradient id="paint7_linear" x1="86.5868" y1="37.886" x2="32.575" y2="37.886" gradientUnits="userSpaceOnUse">
<stop stop-color="white"/>
<stop offset="0.33" stop-color="#F9F8FE"/>
<stop offset="0.81" stop-color="#E6E6FB"/>
<stop offset="1" stop-color="#DDDCF9"/>
</linearGradient>
<linearGradient id="paint8_linear" x1="84.6794" y1="40.4177" x2="34.6619" y2="40.4177" gradientUnits="userSpaceOnUse">
<stop stop-color="#2A2284"/>
<stop offset="1" stop-color="#1F0939"/>
</linearGradient>
<linearGradient id="paint9_linear" x1="60.8569" y1="-3.73878" x2="-11.9167" y2="38.743" gradientUnits="userSpaceOnUse">
<stop stop-color="white"/>
<stop offset="0.33" stop-color="#F9F8FE"/>
<stop offset="0.81" stop-color="#E6E6FB"/>
<stop offset="1" stop-color="#DDDCF9"/>
</linearGradient>
<linearGradient id="paint10_linear" x1="42.6563" y1="69.8546" x2="60.8296" y2="90.7668" gradientUnits="userSpaceOnUse">
<stop offset="0.12" stop-color="#56A1FF"/>
<stop offset="1" stop-color="#5178DC"/>
</linearGradient>
<linearGradient id="paint11_linear" x1="51.6844" y1="72.8811" x2="55.5261" y2="72.8811" gradientUnits="userSpaceOnUse">
<stop stop-color="#FBFBFC"/>
<stop offset="1" stop-color="#EDEFF6"/>
</linearGradient>
<linearGradient id="paint12_linear" x1="51.7294" y1="89.1286" x2="55.5845" y2="89.1286" gradientUnits="userSpaceOnUse">
<stop stop-color="#FBFBFC"/>
<stop offset="1" stop-color="#EDEFF6"/>
</linearGradient>
<linearGradient id="paint13_linear" x1="65.8259" y1="62.9748" x2="69.681" y2="62.9748" gradientUnits="userSpaceOnUse">
<stop stop-color="#FBFBFC"/>
<stop offset="1" stop-color="#EDEFF6"/>
</linearGradient>
<linearGradient id="paint14_linear" x1="65.8796" y1="80.9656" x2="69.7258" y2="80.9656" gradientUnits="userSpaceOnUse">
<stop stop-color="#FBFBFC"/>
<stop offset="1" stop-color="#EDEFF6"/>
</linearGradient>
<linearGradient id="paint15_linear" x1="54.9606" y1="82.1451" x2="66.4406" y2="82.1451" gradientUnits="userSpaceOnUse">
<stop stop-color="#FBFBFC"/>
<stop offset="1" stop-color="#EDEFF6"/>
</linearGradient>
<linearGradient id="paint16_linear" x1="55.8761" y1="72.4764" x2="58.9862" y2="72.4764" gradientUnits="userSpaceOnUse">
<stop offset="0.12" stop-color="#5C90FE"/>
<stop offset="0.56" stop-color="#466CF5"/>
<stop offset="0.69" stop-color="#4265F3"/>
<stop offset="0.87" stop-color="#3853EF"/>
<stop offset="1" stop-color="#2E42EB"/>
</linearGradient>
<linearGradient id="paint17_linear" x1="62.3971" y1="68.7114" x2="65.5072" y2="68.7114" gradientUnits="userSpaceOnUse">
<stop offset="0.12" stop-color="#5C90FE"/>
<stop offset="0.56" stop-color="#466CF5"/>
<stop offset="0.69" stop-color="#4265F3"/>
<stop offset="0.87" stop-color="#3853EF"/>
<stop offset="1" stop-color="#2E42EB"/>
</linearGradient>
<linearGradient id="paint18_linear" x1="59.7312" y1="75.0049" x2="61.6789" y2="75.0049" gradientUnits="userSpaceOnUse">
<stop offset="0.12" stop-color="#5C90FE"/>
<stop offset="0.56" stop-color="#466CF5"/>
<stop offset="0.69" stop-color="#4265F3"/>
<stop offset="0.87" stop-color="#3853EF"/>
<stop offset="1" stop-color="#2E42EB"/>
</linearGradient>
<linearGradient id="paint19_linear" x1="56.5762" y1="74.1162" x2="58.2996" y2="74.1162" gradientUnits="userSpaceOnUse">
<stop offset="0.12" stop-color="#5C90FE"/>
<stop offset="0.56" stop-color="#466CF5"/>
<stop offset="0.69" stop-color="#4265F3"/>
<stop offset="0.87" stop-color="#3853EF"/>
<stop offset="1" stop-color="#2E42EB"/>
</linearGradient>
<linearGradient id="paint20_linear" x1="63.0972" y1="70.3511" x2="64.8205" y2="70.3511" gradientUnits="userSpaceOnUse">
<stop offset="0.12" stop-color="#5C90FE"/>
<stop offset="0.56" stop-color="#466CF5"/>
<stop offset="0.69" stop-color="#4265F3"/>
<stop offset="0.87" stop-color="#3853EF"/>
<stop offset="1" stop-color="#2E42EB"/>
</linearGradient>
<linearGradient id="paint21_linear" x1="58.3803" y1="79.4334" x2="63.0522" y2="79.4334" gradientUnits="userSpaceOnUse">
<stop offset="0.12" stop-color="#5C90FE"/>
<stop offset="0.56" stop-color="#466CF5"/>
<stop offset="0.69" stop-color="#4265F3"/>
<stop offset="0.87" stop-color="#3853EF"/>
<stop offset="1" stop-color="#2E42EB"/>
</linearGradient>
</defs>
</svg>
