<svg width="158" height="190" viewBox="0 0 158 190" fill="none" xmlns="http://www.w3.org/2000/svg">
<path opacity="0.39" d="M130.254 113.344V29.8427C130.357 27.9982 129.204 26.1314 126.767 24.7268L87.426 2.01943C82.772 -0.673143 75.2503 -0.673143 70.6278 2.01943L31.5562 24.7223C30.2385 25.4135 29.17 26.4993 28.4999 27.8277H28.105V29.5779C28.105 29.5779 28.105 29.6048 28.105 29.6183L28.1813 112.765C28.0843 113.269 28.0843 113.787 28.1813 114.291C28.4775 115.789 29.6129 117.243 31.601 118.392L70.9599 141.1C75.6093 143.792 83.1355 143.792 87.7626 141.1L126.834 118.397C129.226 117.006 130.362 115.17 130.267 113.348L130.254 113.344Z" fill="url(#paint0_linear)"/>
<g filter="url(#filter0_d)">
<path d="M126.736 109.556C131.385 112.249 131.417 116.602 126.794 119.285L87.7224 141.988C83.0954 144.681 75.5692 144.681 70.9198 141.988L31.5924 119.285C26.9384 116.593 26.9115 112.24 31.5385 109.552L70.6101 86.8489C75.2326 84.1563 82.7543 84.1563 87.4083 86.8489L126.736 109.556Z" fill="url(#paint1_linear)"/>
<path d="M130.2 114.802C130.2 114.928 130.2 115.054 130.155 115.179C130.11 115.305 130.106 115.381 130.079 115.48C130.052 115.579 130.021 115.718 129.976 115.834C129.931 115.951 129.895 116.027 129.855 116.122C129.814 116.216 129.747 116.368 129.68 116.494C129.612 116.62 129.576 116.669 129.522 116.759C129.469 116.849 129.347 117.037 129.244 117.172C129.141 117.306 129.047 117.432 128.935 117.562L128.854 117.656C128.701 117.822 128.531 117.988 128.356 118.146C128.181 118.303 128.113 118.347 127.992 118.446C127.871 118.545 127.777 118.621 127.66 118.706C127.543 118.792 127.377 118.899 127.211 118.994C127.045 119.088 126.92 119.191 126.762 119.281L87.6908 141.984C87.3267 142.191 86.9522 142.38 86.5689 142.549L86.2278 142.693C85.9286 142.821 85.6174 142.94 85.2943 143.047L84.9532 143.164C84.7513 143.227 84.5448 143.281 84.3429 143.339L83.8941 143.465C83.6787 143.519 83.4453 143.559 83.2344 143.604L82.7856 143.694C82.3368 143.77 81.888 143.833 81.4392 143.882L81.0173 143.918C80.7526 143.918 80.4833 143.958 80.214 143.972H79.6979H79.0472H78.5041L77.8983 143.94L77.3507 143.895L76.7583 143.828L76.2243 143.752L75.596 143.644L75.1068 143.545C74.8555 143.492 74.6131 143.429 74.3663 143.366L73.9624 143.258C73.5136 143.133 73.1007 142.989 72.6878 142.809C72.4859 142.729 72.2839 142.643 72.0864 142.554L71.7768 142.419C71.4761 142.275 71.1844 142.127 70.9061 141.97L31.5922 119.285C29.5457 118.101 28.3923 116.593 28.1365 115.049C28.1003 114.83 28.0823 114.607 28.0826 114.385L28.0467 127.296C28.0467 129.091 29.2136 130.845 31.5518 132.196L70.8792 154.899C71.1574 155.061 71.4492 155.213 71.7498 155.348L72.0595 155.483C72.2345 155.563 72.4096 155.644 72.5936 155.716H72.6609C73.0738 155.877 73.5001 156.017 73.9354 156.165L74.0387 156.201L74.3438 156.277C74.5862 156.34 74.833 156.402 75.0799 156.456L75.2773 156.506L75.5735 156.555L76.2018 156.663L76.4576 156.708L76.7359 156.739L77.3283 156.806L77.6155 156.838H77.8803L78.4817 156.869H78.7869H80.0031H80.1916C80.4608 156.869 80.7301 156.838 80.9949 156.815H81.318H81.4168C81.8655 156.766 82.3143 156.708 82.7631 156.627H82.8304L83.2164 156.546C83.4363 156.501 83.6652 156.456 83.8671 156.407L84.3159 156.281C84.5224 156.227 84.7243 156.169 84.9263 156.106L85.0564 156.07L85.2674 155.99C85.5845 155.882 85.8957 155.764 86.2009 155.635L86.5374 155.491C86.9208 155.322 87.2953 155.133 87.6594 154.926L126.731 132.223L126.875 132.138C126.987 132.071 127.077 131.999 127.184 131.931C127.292 131.864 127.476 131.748 127.606 131.649C127.736 131.55 127.831 131.474 127.938 131.384C128.046 131.294 128.19 131.187 128.302 131.083L128.374 131.025C128.526 130.886 128.665 130.738 128.822 130.576L128.899 130.486C128.975 130.397 129.056 130.307 129.128 130.217C129.199 130.127 129.181 130.136 129.208 130.096C129.312 129.961 129.401 129.822 129.487 129.683C129.522 129.625 129.572 129.567 129.603 129.508C129.635 129.45 129.63 129.445 129.644 129.418C129.711 129.297 129.765 129.172 129.819 129.05C129.873 128.929 129.891 128.907 129.917 128.835C129.944 128.763 129.917 128.786 129.917 128.759C129.958 128.642 129.989 128.521 130.021 128.404C130.052 128.288 130.075 128.247 130.088 128.166C130.101 128.086 130.088 128.122 130.088 128.104C130.11 127.978 130.119 127.852 130.128 127.731C130.137 127.61 130.155 127.57 130.155 127.489C130.155 127.408 130.155 127.421 130.155 127.386L130.245 114.439C130.245 114.573 130.227 114.686 130.2 114.802Z" fill="url(#paint2_linear)"/>
</g>
<path d="M79.3344 140.045C76.8795 140.045 74.5368 139.507 72.9032 138.56L33.5758 115.852C32.409 115.179 32.0499 114.546 32.0499 114.394C32.0499 114.241 32.4 113.631 33.5309 112.976L72.6025 90.2729C74.2182 89.335 76.5474 88.7965 78.9933 88.7965C81.4392 88.7965 83.7953 89.3395 85.4289 90.2819L124.756 112.989C125.923 113.662 126.282 114.295 126.282 114.452C126.282 114.609 125.932 115.215 124.806 115.87L85.7341 138.573C84.1185 139.507 81.7848 140.045 79.3344 140.045Z" fill="url(#paint3_linear)"/>
<path fill-rule="evenodd" clip-rule="evenodd" d="M73.4597 171.337C75.2384 172.295 77.2334 172.781 79.2536 172.746C81.2696 172.782 83.2606 172.297 85.034 171.337L154.893 130.747C156.575 129.768 157.504 128.431 157.5 126.95C157.495 125.469 156.558 124.114 154.852 123.131L84.5403 82.5362C81.2866 80.6559 76.2018 80.6559 72.966 82.5362L3.10747 123.131C1.42451 124.109 0.5 125.451 0.5 126.928C0.5 128.404 1.44246 129.759 3.14786 130.742L73.4597 171.337ZM73.7604 83.9229C75.2935 83.1067 77.0099 82.6958 78.7465 82.7292C80.4887 82.6963 82.2107 83.107 83.7505 83.9229L154.062 124.5C155.256 125.187 155.916 126.062 155.916 126.946C155.916 127.83 155.27 128.691 154.094 129.373L84.2351 169.968C81.493 171.562 77.0141 171.566 74.2496 169.968L3.93775 129.373C2.74397 128.682 2.08425 127.803 2.08425 126.923C2.08425 126.044 2.73051 125.182 3.90634 124.5L73.7604 83.9229Z" fill="url(#paint4_linear)"/>
<path fill-rule="evenodd" clip-rule="evenodd" d="M58.44 85.8948C70.2 79.2148 89.21 79.3948 100.92 86.2948C112.63 93.1948 112.59 104.215 100.83 110.905C89.07 117.595 70.05 117.405 58.35 110.505C46.65 103.605 46.68 92.5748 58.44 85.8948Z" fill="url(#paint5_linear)"/>
<path fill-rule="evenodd" clip-rule="evenodd" d="M108.34 103.755C108.089 104.245 107.809 104.719 107.5 105.175C107.253 105.528 106.987 105.861 106.7 106.175C106.413 106.488 106.15 106.781 105.91 107.055C105.657 107.321 105.387 107.581 105.1 107.835C104.813 108.088 104.547 108.318 104.3 108.525C104.04 108.738 103.77 108.948 103.49 109.155L102.65 109.755L101.81 110.305L100.93 110.835H100.88L100.04 111.295L99.12 111.765L98.18 112.205L97.18 112.615L96.18 113.005L95.18 113.375L94.1 113.725L93 114.045L91.87 114.345L90.73 114.615L89.5 114.915L88.37 115.115L87.27 115.285L86.16 115.435L85.06 115.555L83.93 115.655L82.68 115.735L81.24 115.785C80.5267 115.785 79.81 115.785 79.09 115.785C78.0967 115.785 77.0967 115.738 76.09 115.645C75.31 115.585 74.53 115.508 73.75 115.415L72.2 115.205L70.99 114.995L69.75 114.755L68.5 114.485L67.28 114.175L66.07 113.825L64.85 113.435L63.69 112.995L62.55 112.555L61.5 112.115L60.5 111.635L59.5 111.145L58.58 110.635L58.37 110.515L57.71 110.115L56.89 109.575L56.08 108.995L55.35 108.435L54.65 107.845L53.99 107.235C53.7634 107.021 53.55 106.805 53.35 106.585C53.15 106.365 52.95 106.141 52.75 105.915C52.5434 105.668 52.3467 105.421 52.16 105.175C51.9734 104.928 51.79 104.668 51.61 104.395C51.4234 104.115 51.25 103.828 51.09 103.535C50.93 103.241 50.7634 102.908 50.59 102.535C50.4195 102.156 50.2693 101.769 50.14 101.375C49.9777 100.885 49.8507 100.383 49.76 99.8748C49.6456 99.2547 49.5887 98.6254 49.59 97.9948L49.5 105.415C49.4915 106.048 49.5417 106.681 49.65 107.305C49.7407 107.813 49.8677 108.315 50.03 108.805C50.1648 109.21 50.3217 109.607 50.5 109.995C50.6467 110.328 50.8134 110.661 51 110.995C51.1867 111.328 51.36 111.615 51.52 111.855C51.6934 112.115 51.8767 112.375 52.07 112.635C52.2634 112.895 52.46 113.141 52.66 113.375C52.8534 113.601 53.0534 113.825 53.26 114.045C53.4667 114.265 53.68 114.481 53.9 114.695L54.56 115.305L55.26 115.895L55.99 116.455L56.77 117.005L57.59 117.545L58.25 117.945L58.5 117.995L59.42 118.505L60.42 118.995L61.42 119.475L62.5 119.995L63.64 120.435L64.83 120.855L66.05 121.245L67.26 121.595L68.48 121.905L69.69 122.175L70.93 122.415L72.22 122.635L73.77 122.845C74.5434 122.938 75.3234 123.015 76.11 123.075C77.0967 123.148 78.0967 123.195 79.11 123.215C79.8234 123.215 80.54 123.215 81.26 123.215L82.7 123.165L83.87 122.995H85L86.1 122.875L87.21 122.725L88.31 122.555L89.44 122.355L90.57 122.125L91.71 121.855L92.84 121.555L93.94 121.235L95.02 120.885L96.02 120.515L97.02 120.125L98.02 119.715L98.96 119.275L99.88 118.805L100.72 118.345H100.77L101.65 117.815L102.49 117.265L103.33 116.665C103.61 116.458 103.88 116.248 104.14 116.035C104.4 115.821 104.667 115.591 104.94 115.345C105.22 115.085 105.49 114.825 105.75 114.565C106.01 114.305 106.273 114.011 106.54 113.685C106.827 113.345 107.093 113.011 107.34 112.685C107.659 112.23 107.95 111.756 108.21 111.265C109.047 109.729 109.5 108.014 109.53 106.265L109.62 98.8748C109.583 100.58 109.145 102.251 108.34 103.755Z" fill="url(#paint6_linear)"/>
<path fill-rule="evenodd" clip-rule="evenodd" d="M64.08 107.235C72.63 112.235 86.52 112.415 95.08 107.525C103.64 102.635 103.69 94.5948 95.15 89.5248C86.61 84.4548 72.71 84.3448 64.15 89.2248C55.59 94.1048 55.5 102.195 64.08 107.235Z" fill="url(#paint7_linear)"/>
<path fill-rule="evenodd" clip-rule="evenodd" d="M96.49 88.8048C87.22 83.3348 72.15 83.1848 62.83 88.4848C53.5 93.7848 53.49 102.525 62.76 107.995C72.03 113.465 87.11 113.605 96.42 108.305C105.73 103.005 105.76 94.2748 96.49 88.8048ZM64.17 89.2648C72.73 84.3748 86.62 84.5548 95.17 89.5548L95.15 89.5248C103.69 94.5948 103.64 102.635 95.08 107.525C86.52 112.415 72.66 112.275 64.08 107.235C55.5 102.195 55.61 94.1548 64.17 89.2648Z" fill="#676767"/>
<path fill-rule="evenodd" clip-rule="evenodd" d="M73.27 99.7148L83.13 105.405L78.37 107.005L62.55 97.8748L70.2 95.3148L67.08 94.4648L70.66 93.2748L73.78 94.1048L86.74 89.7448L92.69 93.1748L82.75 96.5148L86.72 97.5848L86.69 97.6348L83.21 98.8048L79.18 97.7248L73.27 99.7148Z" fill="#676767"/>
<path fill-rule="evenodd" clip-rule="evenodd" d="M58.4409 58.8948C70.2009 52.2148 89.2109 52.3948 100.921 59.2948C112.631 66.1948 112.591 77.2148 100.831 83.9048C89.0709 90.5948 70.0509 90.4048 58.3509 83.5048C46.6509 76.6048 46.6809 65.5748 58.4409 58.8948Z" fill="url(#paint8_linear)"/>
<path fill-rule="evenodd" clip-rule="evenodd" d="M108.341 76.7548C108.09 77.2449 107.81 77.7192 107.501 78.1748C107.254 78.5281 106.988 78.8615 106.701 79.1748C106.414 79.4881 106.151 79.7815 105.911 80.0548C105.658 80.3215 105.388 80.5815 105.101 80.8348C104.814 81.0881 104.548 81.3181 104.301 81.5248C104.041 81.7381 103.771 81.9481 103.491 82.1548L102.651 82.7548L101.811 83.3048L100.931 83.8348H100.881L100.041 84.2948L99.1209 84.7648L98.1809 85.2048L97.1809 85.6148L96.1809 86.0048L95.1809 86.3748L94.1009 86.7248L93.0009 87.0448L91.8709 87.3448L90.7309 87.6148L89.5009 87.9148L88.3709 88.1148L87.2709 88.2848L86.1609 88.4348L85.0609 88.5548L83.9309 88.6548L82.6809 88.7348L81.2409 88.7848C80.5276 88.7848 79.8109 88.7848 79.0909 88.7848C78.0976 88.7848 77.0976 88.7381 76.0909 88.6448C75.3109 88.5848 74.5309 88.5081 73.7509 88.4148L72.2009 88.2048L70.9909 87.9948L69.7509 87.7548L68.5009 87.4848L67.2809 87.1748L66.0709 86.8248L64.8509 86.4348L63.6909 85.9948L62.5509 85.5548L61.5009 85.1148L60.5009 84.6348L59.5009 84.1448L58.5809 83.6348L58.3709 83.5148L57.7109 83.1148L56.8909 82.5748L56.0809 81.9948L55.3509 81.4348L54.6509 80.8448L53.9909 80.2348C53.7643 80.0215 53.5509 79.8048 53.3509 79.5848C53.1509 79.3648 52.9509 79.1415 52.7509 78.9148C52.5443 78.6681 52.3476 78.4215 52.1609 78.1748C51.9743 77.9281 51.7909 77.6681 51.6109 77.3948C51.4243 77.1148 51.2509 76.8281 51.0909 76.5348C50.9309 76.2415 50.7643 75.9081 50.5909 75.5348C50.4204 75.1564 50.2702 74.7692 50.1409 74.3748C49.9786 73.8845 49.8516 73.3832 49.7609 72.8748C49.6465 72.2547 49.5896 71.6254 49.5909 70.9948L49.5009 78.4148C49.4924 79.0481 49.5426 79.6808 49.6509 80.3048C49.7416 80.8132 49.8686 81.3145 50.0309 81.8048C50.1657 82.2098 50.3226 82.607 50.5009 82.9948C50.6476 83.3281 50.8143 83.6615 51.0009 83.9948C51.1876 84.3281 51.3609 84.6148 51.5209 84.8548C51.6943 85.1148 51.8776 85.3748 52.0709 85.6348C52.2643 85.8948 52.4609 86.1415 52.6609 86.3748C52.8543 86.6015 53.0543 86.8248 53.2609 87.0448C53.4676 87.2648 53.6809 87.4815 53.9009 87.6948L54.5609 88.3048L55.2609 88.8948L55.9909 89.4548L56.7709 90.0048L57.5909 90.5448L58.2509 90.9448L58.5009 90.9948L59.4209 91.5048L60.4209 91.9948L61.4209 92.4748L62.5009 92.9948L63.6409 93.4348L64.8309 93.8548L66.0509 94.2448L67.2609 94.5948L68.4809 94.9048L69.6909 95.1748L70.9309 95.4148L72.2209 95.6348L73.7709 95.8448C74.5443 95.9381 75.3243 96.0148 76.1109 96.0748C77.0976 96.1481 78.0976 96.1948 79.1109 96.2148C79.8243 96.2148 80.5409 96.2148 81.2609 96.2148L82.7009 96.1648L83.8709 95.9948H85.0009L86.1009 95.8748L87.2109 95.7248L88.3109 95.5548L89.4409 95.3548L90.5709 95.1248L91.7109 94.8548L92.8409 94.5548L93.9409 94.2348L95.0209 93.8848L96.0209 93.5148L97.0209 93.1248L98.0209 92.7148L98.9609 92.2748L99.8809 91.8048L100.721 91.3448H100.771L101.651 90.8148L102.491 90.2648L103.331 89.6648C103.611 89.4581 103.881 89.2481 104.141 89.0348C104.401 88.8215 104.668 88.5915 104.941 88.3448C105.221 88.0848 105.491 87.8248 105.751 87.5648C106.011 87.3048 106.274 87.0115 106.541 86.6848C106.828 86.3448 107.094 86.0115 107.341 85.6848C107.66 85.2299 107.951 84.7557 108.211 84.2648C109.048 82.729 109.501 81.0136 109.531 79.2648L109.621 71.8748C109.584 73.5795 109.145 75.2515 108.341 76.7548Z" fill="url(#paint9_linear)"/>
<path fill-rule="evenodd" clip-rule="evenodd" d="M64.0809 80.2348C72.6309 85.2348 86.5209 85.4148 95.0809 80.5248C103.641 75.6348 103.691 67.5948 95.1509 62.5248C86.6109 57.4548 72.7109 57.3448 64.1509 62.2248C55.5909 67.1048 55.5009 75.1948 64.0809 80.2348Z" fill="url(#paint10_linear)"/>
<path fill-rule="evenodd" clip-rule="evenodd" d="M96.4909 61.8048C87.2209 56.3348 72.1509 56.1848 62.8309 61.4848C53.5009 66.7848 53.4909 75.5248 62.7609 80.9948C72.0309 86.4648 87.1109 86.6048 96.4209 81.3048C105.731 76.0048 105.761 67.2748 96.4909 61.8048ZM64.1709 62.2648C72.7309 57.3748 86.6209 57.5548 95.1709 62.5548L95.1509 62.5248C103.691 67.5948 103.641 75.6348 95.0809 80.5248C86.5209 85.4148 72.6609 85.2748 64.0809 80.2348C55.5009 75.1948 55.6109 67.1548 64.1709 62.2648Z" fill="white"/>
<path fill-rule="evenodd" clip-rule="evenodd" d="M85.2609 75.8348L68.7709 77.4448L74.2809 74.2448L85.2609 75.8348Z" fill="white"/>
<path fill-rule="evenodd" clip-rule="evenodd" d="M90.5109 64.1348L82.5509 68.7648L72.9509 66.6748L90.5109 64.1348Z" fill="white"/>
<path fill-rule="evenodd" clip-rule="evenodd" d="M81.9209 69.1248L75.1409 73.0648L72.3809 67.0548L81.9209 69.1248Z" fill="white"/>
<path fill-rule="evenodd" clip-rule="evenodd" d="M91.0909 64.4749L86.7709 74.6549L83.1409 69.0949L91.0909 64.4749Z" fill="white"/>
<path fill-rule="evenodd" clip-rule="evenodd" d="M82.5109 69.4648L86.1009 74.9748L75.7309 73.4048L82.5109 69.4648Z" fill="white"/>
<path fill-rule="evenodd" clip-rule="evenodd" d="M70.9009 67.5448L73.6809 73.9048L68.1709 77.1048L70.9009 67.5448Z" fill="white"/>
<path fill-rule="evenodd" clip-rule="evenodd" d="M58.4409 27.8948C70.2009 21.2148 89.2109 21.3948 100.921 28.2948C112.631 35.1948 112.591 46.2148 100.831 52.9048C89.0709 59.5948 70.0509 59.4048 58.3509 52.5048C46.6509 45.6048 46.6809 34.5748 58.4409 27.8948Z" fill="url(#paint11_linear)"/>
<path fill-rule="evenodd" clip-rule="evenodd" d="M108.341 45.7548C108.09 46.2449 107.81 46.7192 107.501 47.1748C107.254 47.5281 106.988 47.8615 106.701 48.1748C106.414 48.4881 106.151 48.7815 105.911 49.0548C105.658 49.3215 105.388 49.5815 105.101 49.8348C104.814 50.0881 104.548 50.3181 104.301 50.5248C104.041 50.7381 103.771 50.9481 103.491 51.1548L102.651 51.7548L101.811 52.3048L100.931 52.8348H100.881L100.041 53.2948L99.1209 53.7648L98.1809 54.2048L97.1809 54.6148L96.1809 55.0048L95.1809 55.3748L94.1009 55.7248L93.0009 56.0448L91.8709 56.3448L90.7309 56.6148L89.5009 56.9148L88.3709 57.1148L87.2709 57.2848L86.1609 57.4348L85.0609 57.5548L83.9309 57.6548L82.6809 57.7348L81.2409 57.7848C80.5276 57.7848 79.8109 57.7848 79.0909 57.7848C78.0976 57.7848 77.0976 57.7381 76.0909 57.6448C75.3109 57.5848 74.5309 57.5081 73.7509 57.4148L72.2009 57.2048L70.9909 56.9948L69.7509 56.7548L68.5009 56.4848L67.2809 56.1748L66.0709 55.8248L64.8509 55.4348L63.6909 54.9948L62.5509 54.5548L61.5009 54.1148L60.5009 53.6348L59.5009 53.1448L58.5809 52.6348L58.3709 52.5148L57.7109 52.1148L56.8909 51.5748L56.0809 50.9948L55.3509 50.4348L54.6509 49.8448L53.9909 49.2348C53.7643 49.0215 53.5509 48.8048 53.3509 48.5848C53.1509 48.3648 52.9509 48.1415 52.7509 47.9148C52.5443 47.6681 52.3476 47.4215 52.1609 47.1748C51.9743 46.9281 51.7909 46.6681 51.6109 46.3948C51.4243 46.1148 51.2509 45.8281 51.0909 45.5348C50.9309 45.2415 50.7643 44.9081 50.5909 44.5348C50.4204 44.1564 50.2702 43.7692 50.1409 43.3748C49.9786 42.8845 49.8516 42.3832 49.7609 41.8748C49.6465 41.2547 49.5896 40.6254 49.5909 39.9948L49.5009 47.4148C49.4924 48.0481 49.5426 48.6808 49.6509 49.3048C49.7416 49.8132 49.8686 50.3145 50.0309 50.8048C50.1657 51.2098 50.3226 51.607 50.5009 51.9948C50.6476 52.3281 50.8143 52.6615 51.0009 52.9948C51.1876 53.3281 51.3609 53.6148 51.5209 53.8548C51.6943 54.1148 51.8776 54.3748 52.0709 54.6348C52.2643 54.8948 52.4609 55.1415 52.6609 55.3748C52.8543 55.6015 53.0543 55.8248 53.2609 56.0448C53.4676 56.2648 53.6809 56.4815 53.9009 56.6948L54.5609 57.3048L55.2609 57.8948L55.9909 58.4548L56.7709 59.0048L57.5909 59.5448L58.2509 59.9448L58.5009 59.9948L59.4209 60.5048L60.4209 60.9948L61.4209 61.4748L62.5009 61.9948L63.6409 62.4348L64.8309 62.8548L66.0509 63.2448L67.2609 63.5948L68.4809 63.9048L69.6909 64.1748L70.9309 64.4148L72.2209 64.6348L73.7709 64.8448C74.5443 64.9381 75.3243 65.0148 76.1109 65.0748C77.0976 65.1481 78.0976 65.1948 79.1109 65.2148C79.8243 65.2148 80.5409 65.2148 81.2609 65.2148L82.7009 65.1648L83.8709 64.9948H85.0009L86.1009 64.8748L87.2109 64.7248L88.3109 64.5548L89.4409 64.3548L90.5709 64.1248L91.7109 63.8548L92.8409 63.5548L93.9409 63.2348L95.0209 62.8848L96.0209 62.5148L97.0209 62.1248L98.0209 61.7148L98.9609 61.2748L99.8809 60.8048L100.721 60.3448H100.771L101.651 59.8148L102.491 59.2648L103.331 58.6648C103.611 58.4581 103.881 58.2481 104.141 58.0348C104.401 57.8215 104.668 57.5915 104.941 57.3448C105.221 57.0848 105.491 56.8248 105.751 56.5648C106.011 56.3048 106.274 56.0115 106.541 55.6848C106.828 55.3448 107.094 55.0115 107.341 54.6848C107.66 54.2299 107.951 53.7557 108.211 53.2648C109.048 51.729 109.501 50.0136 109.531 48.2648L109.621 40.8748C109.584 42.5795 109.145 44.2515 108.341 45.7548Z" fill="url(#paint12_linear)"/>
<path fill-rule="evenodd" clip-rule="evenodd" d="M64.0809 49.2348C72.6309 54.2348 86.5209 54.4148 95.0809 49.5248C103.641 44.6348 103.691 36.5948 95.1509 31.5248C86.6109 26.4548 72.7109 26.3448 64.1509 31.2248C55.5909 36.1048 55.5009 44.1948 64.0809 49.2348Z" fill="url(#paint13_linear)"/>
<path fill-rule="evenodd" clip-rule="evenodd" d="M96.4909 30.8048C87.2209 25.3348 72.1509 25.1848 62.8309 30.4848C53.5009 35.7848 53.4909 44.5248 62.7609 49.9948C72.0309 55.4648 87.1109 55.6048 96.4209 50.3048C105.731 45.0048 105.761 36.2748 96.4909 30.8048ZM64.1709 31.2648C72.7309 26.3748 86.6209 26.5548 95.1709 31.5548L95.1509 31.5248C103.691 36.5948 103.641 44.6348 95.0809 49.5248C86.5209 54.4148 72.6609 54.2748 64.0809 49.2348C55.5009 44.1948 55.6109 36.1548 64.1709 31.2648Z" fill="white"/>
<path fill-rule="evenodd" clip-rule="evenodd" d="M86.9909 46.6548C84.6076 48.4594 81.4737 48.9372 78.6609 47.9248C77.8548 47.6447 77.0859 47.3086 76.313 46.9707L76.3129 46.9706C75.9545 46.814 75.5952 46.6569 75.2309 46.5048L75.0209 46.4248C74.6932 46.6149 74.3301 46.8243 73.9506 47.0431L73.9501 47.0434L73.95 47.0435C73.1714 47.4924 72.3237 47.9812 71.5709 48.4248L69.5009 47.2048L72.9109 45.2048L71.3009 44.2048L67.8309 46.2048L65.7609 44.9948L69.2709 42.9948L65.1209 40.5548L67.9809 39.3748L69.3609 40.1648C69.9072 40.5361 70.6247 40.5361 71.1709 40.1648C73.4315 38.8532 75.7219 37.5476 78.0099 36.2433L78.01 36.2432L78.0105 36.2429C78.6878 35.8568 79.3649 35.4708 80.0409 35.0848C80.7409 34.6748 80.7709 34.2248 80.1009 33.7748L79.6509 33.5048L79.3309 33.3248C79.1009 33.1748 78.8309 33.0148 78.5409 32.8448L80.7409 31.5748C81.2797 31.8904 81.8126 32.2001 82.3441 32.5089L82.3451 32.5095C83.1943 33.003 84.0401 33.4944 84.9009 34.0048C85.9009 33.4548 87.2309 32.6648 88.3409 32.0048L90.3909 33.1848L87.0309 35.1348L88.6909 36.1348C89.2775 35.8122 89.9673 35.4139 90.6553 35.0166L90.6554 35.0166C91.1403 34.7366 91.6244 34.457 92.0709 34.2048L94.1409 35.3948L90.7109 37.3948C91.1809 37.7648 91.6409 38.1348 92.0709 38.5248C92.628 38.9957 93.0434 39.6119 93.2709 40.3048C93.7309 41.9048 90.5509 43.9848 87.2109 43.3748H87.0009C87.2691 43.7209 87.513 44.0851 87.7309 44.4648C88.1209 45.2548 87.8509 45.9948 86.9909 46.6548ZM78.9909 45.1948C79.9927 45.4795 81.0653 45.3722 81.9909 44.8948C82.8409 44.3948 82.9909 43.8048 82.5509 43.1748C81.7938 42.2506 80.8408 41.506 79.7609 40.9948L78.4009 40.2248L73.8209 42.8448L74.8209 43.4548C76.091 44.2496 77.4778 44.8401 78.9309 45.2048L78.9909 45.1948ZM80.5009 38.9948L84.6309 36.6448L85.7809 37.2948C86.617 37.705 87.3514 38.2959 87.9309 39.0248C88.3209 39.6648 88.1309 40.2548 87.3209 40.6648C86.3837 41.1158 85.3076 41.1839 84.3209 40.8548C83.3334 40.5593 82.3863 40.1428 81.5009 39.6148L80.5009 38.9948Z" fill="white"/>
<defs>
<filter id="filter0_d" x="5.04673" y="71.8295" width="148.198" height="118.04" filterUnits="userSpaceOnUse" color-interpolation-filters="sRGB">
<feFlood flood-opacity="0" result="BackgroundImageFix"/>
<feColorMatrix in="SourceAlpha" type="matrix" values="0 0 0 0 0 0 0 0 0 0 0 0 0 0 0 0 0 0 127 0"/>
<feOffset dy="10"/>
<feGaussianBlur stdDeviation="11.5"/>
<feColorMatrix type="matrix" values="0 0 0 0 0 0 0 0 0 0.258824 0 0 0 0 0.721569 0 0 0 0.15 0"/>
<feBlend mode="normal" in2="BackgroundImageFix" result="effect1_dropShadow"/>
<feBlend mode="normal" in="SourceGraphic" in2="effect1_dropShadow" result="shape"/>
</filter>
<linearGradient id="paint0_linear" x1="130.258" y1="143.115" x2="130.258" y2="0.00448679" gradientUnits="userSpaceOnUse">
<stop stop-color="#9AC1FF"/>
<stop offset="0.171875" stop-color="#9AC1FF" stop-opacity="0.8"/>
<stop offset="0.385417" stop-color="#9AC1FF" stop-opacity="0.5"/>
<stop offset="0.682292" stop-color="#9AC1FF" stop-opacity="0.2"/>
<stop offset="0.947917" stop-color="#9AC1FF" stop-opacity="0.01"/>
</linearGradient>
<linearGradient id="paint1_linear" x1="28.0873" y1="144.01" x2="130.245" y2="144.01" gradientUnits="userSpaceOnUse">
<stop stop-color="white"/>
<stop offset="0.33" stop-color="#F9F8FE"/>
<stop offset="0.81" stop-color="#E6E6FB"/>
<stop offset="1" stop-color="#DDDCF9"/>
</linearGradient>
<linearGradient id="paint2_linear" x1="130.245" y1="114.406" x2="28.0512" y2="114.406" gradientUnits="userSpaceOnUse">
<stop offset="0.12" stop-color="#ADCCFF"/>
<stop offset="0.56" stop-color="white"/>
<stop offset="0.71" stop-color="#F8FAFF"/>
<stop offset="0.91" stop-color="#BED3F7"/>
<stop offset="1" stop-color="#ADCCFF"/>
</linearGradient>
<linearGradient id="paint3_linear" x1="126.282" y1="88.7953" x2="32.0454" y2="88.7953" gradientUnits="userSpaceOnUse">
<stop offset="0.12" stop-color="#56A1FF"/>
<stop offset="1" stop-color="#5187DC"/>
</linearGradient>
<linearGradient id="paint4_linear" x1="0.5" y1="172.748" x2="157.5" y2="172.748" gradientUnits="userSpaceOnUse">
<stop stop-color="#56A1FF" stop-opacity="0.28"/>
<stop offset="1" stop-color="#5178DC"/>
</linearGradient>
<linearGradient id="paint5_linear" x1="49.6011" y1="115.858" x2="109.734" y2="115.858" gradientUnits="userSpaceOnUse">
<stop stop-color="#DCDCDC"/>
<stop offset="0.505208" stop-color="white"/>
<stop offset="0.65625" stop-color="white"/>
<stop offset="1" stop-color="#ECECEC"/>
</linearGradient>
<linearGradient id="paint6_linear" x1="49.5027" y1="123.254" x2="109.678" y2="123.254" gradientUnits="userSpaceOnUse">
<stop stop-color="#DCDCDC"/>
<stop offset="0.505208" stop-color="white"/>
<stop offset="0.65625" stop-color="white"/>
<stop offset="1" stop-color="#ECECEC"/>
</linearGradient>
<linearGradient id="paint7_linear" x1="57.69" y1="111.131" x2="101.57" y2="111.131" gradientUnits="userSpaceOnUse">
<stop stop-color="#DCDCDC"/>
<stop offset="0.505208" stop-color="white"/>
<stop offset="0.65625" stop-color="white"/>
<stop offset="1" stop-color="#ECECEC"/>
</linearGradient>
<linearGradient id="paint8_linear" x1="109.677" y1="53.9992" x2="49.5955" y2="53.9992" gradientUnits="userSpaceOnUse">
<stop offset="0.12" stop-color="#56A1FF"/>
<stop offset="1" stop-color="#5187DC"/>
</linearGradient>
<linearGradient id="paint9_linear" x1="109.621" y1="70.9942" x2="49.4971" y2="70.9942" gradientUnits="userSpaceOnUse">
<stop offset="0.12" stop-color="#56A1FF"/>
<stop offset="1" stop-color="#5187DC"/>
</linearGradient>
<linearGradient id="paint10_linear" x1="101.529" y1="58.6414" x2="57.6862" y2="58.6414" gradientUnits="userSpaceOnUse">
<stop offset="0.12" stop-color="#56A1FF"/>
<stop offset="1" stop-color="#5187DC"/>
</linearGradient>
<linearGradient id="paint11_linear" x1="49.602" y1="57.8582" x2="109.735" y2="57.8582" gradientUnits="userSpaceOnUse">
<stop stop-color="#FF9900"/>
<stop offset="1" stop-color="#FFB800"/>
</linearGradient>
<linearGradient id="paint12_linear" x1="49.5036" y1="65.2545" x2="109.679" y2="65.2545" gradientUnits="userSpaceOnUse">
<stop stop-color="#FF9900"/>
<stop offset="1" stop-color="#FFB800"/>
</linearGradient>
<linearGradient id="paint13_linear" x1="57.6909" y1="53.1307" x2="101.571" y2="53.1307" gradientUnits="userSpaceOnUse">
<stop stop-color="#FF9900"/>
<stop offset="1" stop-color="#FFB800"/>
</linearGradient>
</defs>
</svg>
