<svg width="158" height="190" viewBox="0 0 158 190" fill="none" xmlns="http://www.w3.org/2000/svg">
<path opacity="0.39" d="M130.254 113.344V29.8427C130.357 27.9982 129.204 26.1314 126.767 24.7268L87.426 2.01943C82.772 -0.673143 75.2503 -0.673143 70.6278 2.01943L31.5562 24.7223C30.2385 25.4135 29.17 26.4993 28.4999 27.8277H28.105V29.5779C28.105 29.5779 28.105 29.6048 28.105 29.6183L28.1813 112.765C28.0843 113.269 28.0843 113.787 28.1813 114.291C28.4775 115.789 29.6129 117.243 31.601 118.392L70.9599 141.1C75.6093 143.792 83.1355 143.792 87.7626 141.1L126.834 118.397C129.226 117.006 130.362 115.17 130.267 113.348L130.254 113.344Z" fill="url(#paint0_linear)"/>
<g filter="url(#filter0_d)">
<path d="M126.736 109.556C131.385 112.249 131.417 116.602 126.794 119.285L87.7224 141.988C83.0954 144.681 75.5692 144.681 70.9198 141.988L31.5923 119.285C26.9384 116.593 26.9115 112.24 31.5385 109.552L70.6101 86.8489C75.2326 84.1563 82.7543 84.1563 87.4083 86.8489L126.736 109.556Z" fill="url(#paint1_linear)"/>
<path d="M130.2 114.802C130.2 114.928 130.2 115.054 130.155 115.179C130.11 115.305 130.106 115.381 130.079 115.48C130.052 115.579 130.021 115.718 129.976 115.834C129.931 115.951 129.895 116.027 129.855 116.122C129.814 116.216 129.747 116.368 129.68 116.494C129.612 116.62 129.576 116.669 129.522 116.759C129.469 116.849 129.347 117.037 129.244 117.172C129.141 117.306 129.047 117.432 128.935 117.562L128.854 117.656C128.701 117.822 128.531 117.988 128.356 118.146C128.181 118.303 128.113 118.347 127.992 118.446C127.871 118.545 127.777 118.621 127.66 118.706C127.543 118.792 127.377 118.899 127.211 118.994C127.045 119.088 126.92 119.191 126.762 119.281L87.6908 141.984C87.3267 142.191 86.9522 142.38 86.5689 142.549L86.2278 142.693C85.9286 142.821 85.6174 142.94 85.2943 143.047L84.9532 143.164C84.7513 143.227 84.5448 143.281 84.3429 143.339L83.8941 143.465C83.6786 143.519 83.4453 143.559 83.2343 143.604L82.7856 143.694C82.3368 143.77 81.888 143.833 81.4392 143.882L81.0173 143.918C80.7525 143.918 80.4833 143.958 80.214 143.972H79.6979H79.0471H78.5041L77.8982 143.94L77.3507 143.895L76.7583 143.828L76.2243 143.752L75.596 143.644L75.1068 143.545C74.8555 143.492 74.6131 143.429 74.3663 143.366L73.9624 143.258C73.5136 143.133 73.1007 142.989 72.6878 142.809C72.4858 142.729 72.2839 142.643 72.0864 142.554L71.7768 142.419C71.4761 142.275 71.1844 142.127 70.9061 141.97L31.5922 119.285C29.5457 118.101 28.3923 116.593 28.1365 115.049C28.1003 114.83 28.0823 114.607 28.0826 114.385L28.0467 127.296C28.0467 129.091 29.2136 130.845 31.5518 132.196L70.8792 154.899C71.1574 155.061 71.4491 155.213 71.7498 155.348L72.0595 155.483C72.2345 155.563 72.4095 155.644 72.5936 155.716H72.6609C73.0738 155.877 73.5001 156.017 73.9354 156.165L74.0387 156.201L74.3438 156.277C74.5862 156.34 74.833 156.402 75.0798 156.456L75.2773 156.506L75.5735 156.555L76.2018 156.663L76.4576 156.708L76.7359 156.739L77.3283 156.806L77.6155 156.838H77.8803L78.4817 156.869H78.7868H80.0031H80.1916C80.4608 156.869 80.7301 156.838 80.9949 156.815H81.318H81.4168C81.8655 156.766 82.3143 156.708 82.7631 156.627H82.8304L83.2164 156.546C83.4363 156.501 83.6652 156.456 83.8671 156.407L84.3159 156.281C84.5224 156.227 84.7243 156.169 84.9263 156.106L85.0564 156.07L85.2674 155.99C85.5845 155.882 85.8957 155.764 86.2008 155.635L86.5374 155.491C86.9208 155.322 87.2953 155.133 87.6594 154.926L126.731 132.223L126.875 132.138C126.987 132.071 127.077 131.999 127.184 131.931C127.292 131.864 127.476 131.748 127.606 131.649C127.736 131.55 127.831 131.474 127.938 131.384C128.046 131.294 128.19 131.187 128.302 131.083L128.374 131.025C128.526 130.886 128.665 130.738 128.822 130.576L128.899 130.486C128.975 130.397 129.056 130.307 129.128 130.217C129.199 130.127 129.181 130.136 129.208 130.096C129.312 129.961 129.401 129.822 129.487 129.683C129.522 129.625 129.572 129.567 129.603 129.508C129.635 129.45 129.63 129.445 129.644 129.418C129.711 129.297 129.765 129.172 129.819 129.05C129.873 128.929 129.89 128.907 129.917 128.835C129.944 128.763 129.917 128.786 129.917 128.759C129.958 128.642 129.989 128.521 130.021 128.404C130.052 128.288 130.075 128.247 130.088 128.166C130.101 128.086 130.088 128.122 130.088 128.104C130.11 127.978 130.119 127.852 130.128 127.731C130.137 127.61 130.155 127.57 130.155 127.489C130.155 127.408 130.155 127.421 130.155 127.386L130.245 114.439C130.245 114.573 130.227 114.686 130.2 114.802Z" fill="url(#paint2_linear)"/>
</g>
<path d="M79.3344 140.045C76.8795 140.045 74.5368 139.507 72.9032 138.56L33.5758 115.852C32.409 115.179 32.0499 114.546 32.0499 114.394C32.0499 114.241 32.4 113.631 33.5309 112.976L72.6025 90.2729C74.2182 89.335 76.5474 88.7965 78.9933 88.7965C81.4392 88.7965 83.7953 89.3395 85.4289 90.2819L124.756 112.989C125.923 113.662 126.282 114.295 126.282 114.452C126.282 114.609 125.932 115.215 124.806 115.87L85.7341 138.573C84.1185 139.507 81.7848 140.045 79.3344 140.045Z" fill="url(#paint3_linear)"/>
<path fill-rule="evenodd" clip-rule="evenodd" d="M73.4597 171.337C75.2384 172.295 77.2334 172.781 79.2536 172.746C81.2696 172.782 83.2606 172.297 85.034 171.337L154.893 130.747C156.575 129.768 157.504 128.431 157.5 126.95C157.495 125.469 156.558 124.114 154.852 123.131L84.5403 82.5362C81.2866 80.6559 76.2018 80.6559 72.966 82.5362L3.10747 123.131C1.42451 124.109 0.5 125.451 0.5 126.928C0.5 128.404 1.44246 129.759 3.14786 130.742L73.4597 171.337ZM73.7604 83.9229C75.2935 83.1067 77.0099 82.6958 78.7465 82.7292C80.4887 82.6963 82.2107 83.107 83.7505 83.9229L154.062 124.5C155.256 125.187 155.916 126.062 155.916 126.946C155.916 127.83 155.27 128.691 154.094 129.373L84.2351 169.968C81.493 171.562 77.0141 171.566 74.2496 169.968L3.93775 129.373C2.74397 128.682 2.08425 127.803 2.08425 126.923C2.08425 126.044 2.73051 125.182 3.90634 124.5L73.7604 83.9229Z" fill="url(#paint4_linear)"/>
<path d="M89.7767 54.8585C91.7289 55.9849 93.3086 58.7178 93.3041 60.9616L93.1381 119.121C93.1381 121.365 91.5449 122.262 89.5882 121.141L67.023 108.126C65.0708 107 63.4911 104.267 63.5 102.023L63.6661 43.8638C63.6661 41.62 65.2593 40.7225 67.2115 41.8444L89.7767 54.8585Z" fill="url(#paint5_linear)"/>
<path d="M95.9341 59.2743C95.9341 59.2175 95.9341 59.1606 95.9341 59.1038V58.9288C95.9341 58.8719 95.9341 58.8136 95.9341 58.7537C95.9341 58.6939 95.9251 58.6341 95.9071 58.5742C95.9071 58.5174 95.8981 58.4621 95.8802 58.4082C95.8622 58.3544 95.8503 58.293 95.8443 58.2242V58.1569V58.1165V58.0357L95.7949 57.8473L95.7545 57.7081V57.6812V57.6588L95.6962 57.4748L95.6334 57.2953V57.2639V57.2369L95.593 57.1247L95.5257 56.9542L95.4718 56.8286V56.8061L95.3955 56.6356L95.3057 56.4471V56.4202V56.3843L95.2295 56.2362L95.1262 56.0522L95.0769 55.9625V55.9266L94.9781 55.774L94.8345 55.5451L94.8121 55.5092C94.7403 55.4015 94.6655 55.2953 94.5877 55.1906L94.4306 54.9842L94.296 54.8181L94.1613 54.6566L94.0222 54.504L93.9998 54.4771L93.9728 54.4501L93.8786 54.3514L93.7305 54.2033L93.6811 54.1584L93.6452 54.127L93.5734 54.0597L93.4163 53.9206L93.3445 53.8622L93.3086 53.8353L93.2593 53.7949L93.1022 53.6783L92.99 53.5975L92.8374 53.4988L92.6893 53.409H92.6534L70.0883 40.3949L69.9761 40.3321L69.8325 40.2558L69.7382 40.2109H69.7158H69.6888L69.5452 40.1526L69.4016 40.0987H69.3792L69.2805 40.0673L69.1324 40.0269H69.065H69.0336H68.9887L68.8361 40H68.7419H68.329L68.1271 40.0314H68.0867C68.0184 40.0454 67.9509 40.0634 67.8847 40.0853C67.7915 40.1192 67.7014 40.1613 67.6154 40.2109L64.981 41.7412C65.067 41.6915 65.1571 41.6495 65.2503 41.6155C65.3207 41.5901 65.3927 41.5691 65.4657 41.5527H65.5061C65.5936 41.5363 65.682 41.5258 65.7709 41.5213H65.8248C65.9144 41.5159 66.0044 41.5159 66.094 41.5213H66.1255C66.2235 41.5308 66.3209 41.5458 66.4172 41.5662H66.4486C66.5547 41.5891 66.6596 41.6176 66.7627 41.6514C66.8734 41.6903 66.9856 41.7352 67.0993 41.7861H67.1218C67.2385 41.8399 67.3551 41.8983 67.4718 41.9701L90.037 54.9842C90.1581 55.0515 90.2748 55.1278 90.3915 55.2085C90.4992 55.2833 90.6069 55.3641 90.7146 55.4509L90.7505 55.4778C90.8523 55.5616 90.9525 55.6498 91.0512 55.7426L91.0871 55.774C91.1859 55.8667 91.2831 55.9639 91.3788 56.0657L91.4058 56.0926C91.5075 56.2003 91.6077 56.3125 91.7065 56.4292C91.8052 56.5488 91.9024 56.6715 91.9982 56.7971C92.0834 56.9138 92.1642 57.0305 92.245 57.1517L92.3886 57.3805L92.5053 57.569L92.5547 57.6588C92.6175 57.7665 92.6758 57.8787 92.7342 57.9864V58.0223C92.803 58.1569 92.8673 58.293 92.9272 58.4306C92.987 58.5653 93.0424 58.7014 93.0932 58.839V58.8659C93.1441 59.0066 93.1905 59.1472 93.2323 59.2878V59.3102C93.2742 59.4448 93.3101 59.581 93.34 59.7186V59.7545C93.3715 59.8936 93.3984 60.0327 93.4208 60.1718C93.4208 60.311 93.4612 60.4501 93.4702 60.5892V60.6251C93.4702 60.7642 93.4702 60.8988 93.4702 61.0335L93.3041 119.193C93.3041 119.328 93.3041 119.458 93.3041 119.579V119.61C93.3041 119.724 93.2877 119.833 93.2548 119.938V119.978C93.2338 120.08 93.2084 120.177 93.1785 120.27V120.324C93.15 120.409 93.117 120.493 93.0798 120.575V120.602C93.0375 120.69 92.9895 120.776 92.9361 120.858V120.889C92.8933 120.952 92.8468 121.012 92.797 121.069L92.7432 121.127C92.7006 121.173 92.6556 121.216 92.6085 121.257L92.5502 121.307C92.485 121.36 92.416 121.408 92.3437 121.45L94.9781 119.92C95.0504 119.877 95.1194 119.829 95.1846 119.776L95.2429 119.727L95.3776 119.597L95.4314 119.539C95.4812 119.481 95.5277 119.422 95.5705 119.359V119.328C95.6204 119.25 95.6653 119.169 95.7052 119.085V119.058C95.7276 119.004 95.7545 118.951 95.777 118.892L95.8084 118.803V118.749V118.704C95.8263 118.644 95.8413 118.584 95.8533 118.524V118.457V118.417V118.354C95.8533 118.3 95.8622 118.243 95.8802 118.183C95.8802 118.152 95.8802 118.12 95.8802 118.085V118.013C95.8802 117.959 95.8802 117.904 95.8802 117.847C95.8802 117.79 95.8802 117.733 95.8802 117.676L96.0462 59.5166C95.9744 59.4089 95.937 59.3282 95.9341 59.2743Z" fill="url(#paint6_linear)"/>
<path d="M81.5639 51.4838C81.8697 51.6825 82.0603 52.017 82.0755 52.3813C82.0755 52.7089 81.8421 52.8301 81.5594 52.673L76.8561 49.9535C76.5503 49.7548 76.3596 49.4204 76.3445 49.056C76.3445 48.7284 76.5733 48.6072 76.8606 48.7643L81.5639 51.4838Z" fill="#5C90FE"/>
<path d="M83.0853 52.332C83.4036 52.5393 83.6037 52.8861 83.6239 53.2654C83.6239 53.6109 83.3815 53.7501 83.0808 53.575C82.7601 53.3673 82.5583 53.0186 82.5378 52.6371C82.5423 52.2961 82.7891 52.1614 83.0853 52.332Z" fill="#5C90FE"/>
<path d="M78.3191 108.459C79.5206 109.241 80.2761 110.55 80.3521 111.981C80.3521 113.274 79.4321 113.776 78.3057 113.148C77.1079 112.369 76.3529 111.066 76.2726 109.639C76.2771 108.328 77.1927 107.808 78.3191 108.459Z" fill="url(#paint7_linear)"/>
<path d="M78.3191 108.831C79.33 109.488 79.9655 110.589 80.029 111.793C80.029 112.879 79.2571 113.323 78.3102 112.776C77.2988 112.119 76.6631 111.018 76.6003 109.814C76.6003 108.741 77.3722 108.293 78.3191 108.831Z" fill="url(#paint8_linear)"/>
<path d="M92.1418 60.45L91.9892 114.858L64.658 99.0794L64.815 44.6716L92.1418 60.45Z" fill="url(#paint9_linear)"/>
<path d="M75.3482 47.8982C75.6539 48.0969 75.8446 48.4314 75.8598 48.7957C75.8598 49.1233 75.6309 49.2445 75.3437 49.0919L73.8537 48.2303C73.5485 48.031 73.358 47.6969 73.3421 47.3327C73.3421 47.0051 73.5754 46.884 73.8582 47.041L75.3482 47.8982Z" fill="#5C90FE"/>
<path d="M71.8386 80.8956C71.668 80.7969 71.5289 80.8956 71.5244 81.0751V82.3451C71.5244 86.2403 74.262 91.0017 77.6504 92.9583C77.883 93.0937 78.1227 93.2165 78.3685 93.3263C78.539 93.4026 78.6647 93.2949 78.6422 93.0884C78.6181 92.8847 78.5046 92.7022 78.3325 92.5903H78.2966C78.0755 92.4928 77.8598 92.3834 77.6504 92.2627C74.6121 90.4811 72.1348 86.2044 72.1437 82.7131V81.4431C72.1361 81.2221 72.0225 81.0183 71.8386 80.8956Z" fill="#FBFBFC"/>
<path d="M74.4146 83.0048C74.2441 82.9061 74.1005 83.0048 74.1005 83.1843V83.835C74.1005 86.0788 75.6892 88.8566 77.6549 89.992C77.9235 90.1493 78.2097 90.2743 78.5076 90.3645C78.6737 90.4138 78.7769 90.2792 78.7365 90.0638C78.7008 89.8798 78.5924 89.718 78.4358 89.615L78.3595 89.5836C78.1134 89.5082 77.8769 89.4043 77.6549 89.274C75.9215 88.1464 74.831 86.2588 74.7198 84.194V83.5433C74.7094 83.3255 74.5961 83.1257 74.4146 83.0048Z" fill="#FBFBFC"/>
<path d="M81.7389 90.194C81.6222 90.1266 81.5145 90.1356 81.4606 90.2299C81.1457 90.8111 80.5753 91.2102 79.9213 91.3069C79.1252 91.3834 78.3266 91.1889 77.6549 90.7549C77.0021 90.3678 76.4131 89.8819 75.9091 89.3144C75.8716 89.2719 75.8277 89.2356 75.779 89.2067C75.6623 89.1394 75.5456 89.1483 75.4917 89.2516C75.4355 89.4538 75.494 89.6706 75.6443 89.817C76.2221 90.4689 76.8973 91.0275 77.6459 91.4729C78.4175 91.9711 79.3347 92.1941 80.2489 92.1057C81.0004 91.994 81.6554 91.5351 82.0171 90.8671C82.0791 90.6688 82.0255 90.4525 81.878 90.3062C81.8381 90.2614 81.7911 90.2235 81.7389 90.194Z" fill="#FBFBFC"/>
<path d="M78.3505 83.2696C78.18 83.1708 78.0409 83.2696 78.0364 83.4491V86.5231C78.0364 87.1603 77.5876 87.4206 77.0266 87.0975C76.4357 86.7081 76.0631 86.0627 76.0213 85.3563V83.6106C76.0098 83.392 75.8948 83.192 75.7116 83.0721C75.5411 82.9734 75.3975 83.0721 75.3975 83.2516V84.9838C75.4589 86.1296 76.0644 87.1769 77.0266 87.8021C77.9242 88.3226 78.6602 87.9008 78.6647 86.8686V83.7946C78.648 83.58 78.5318 83.3857 78.3505 83.2696Z" fill="#FBFBFC"/>
<path d="M74.0287 74.1418C73.9551 74.0833 73.8509 74.0833 73.7773 74.1418C73.1057 74.8901 72.7601 75.8753 72.8169 76.8792V83.0721C72.8837 84.9037 73.4501 86.6821 74.455 88.2149C74.5061 88.2994 74.577 88.3703 74.6615 88.4214C74.7322 88.4683 74.8241 88.4683 74.8948 88.4214C75.0115 88.3406 74.9981 88.1072 74.8679 87.9008C73.9917 86.5631 73.4981 85.0112 73.4408 83.4132V77.2203C73.3841 76.3418 73.6815 75.4772 74.2665 74.8194C74.3697 74.7207 74.3383 74.4783 74.1992 74.2809C74.1514 74.2244 74.0936 74.1772 74.0287 74.1418Z" fill="#FBFBFC"/>
<path d="M77.6908 78.5665L77.6369 78.5396C77.1119 78.2659 76.699 78.5396 76.6945 79.1544V85.6031C76.706 85.8217 76.821 86.0217 77.0042 86.1416C77.1747 86.2404 77.3138 86.1416 77.3183 85.9621V79.5134C77.3183 79.2845 77.4754 79.1768 77.6639 79.2756C77.7682 79.3398 77.8547 79.4293 77.9152 79.5359C77.9844 79.6465 78.0231 79.7734 78.0274 79.9038V81.9098C78.0381 82.1286 78.1533 82.329 78.3371 82.4483C78.5076 82.547 78.6512 82.4483 78.6512 82.2688V80.2628C78.639 79.9083 78.5337 79.5632 78.346 79.2621C78.188 78.98 77.963 78.7411 77.6908 78.5665Z" fill="#FBFBFC"/>
<path d="M80.9356 83.5119C80.765 83.4132 80.6259 83.5119 80.6214 83.6914V87.5912C80.6214 88.8163 80.0335 89.6151 79.1 89.6734C78.9474 89.6734 78.8936 89.8709 78.9788 90.0908C79.0305 90.2313 79.1266 90.351 79.2526 90.4318C79.2982 90.4605 79.3514 90.4746 79.4052 90.4722C80.5361 90.4004 81.2452 89.4311 81.2497 87.9502V84.0504C81.2372 83.831 81.1204 83.6308 80.9356 83.5119Z" fill="#FBFBFC"/>
<path d="M75.8193 73.5C75.7798 73.4765 75.7352 73.4626 75.6892 73.4596C75.4379 73.4449 75.1857 73.4645 74.9397 73.518C74.7961 73.5494 74.7602 73.7513 74.8589 73.9667C74.9122 74.0903 75.0013 74.195 75.1147 74.2674C75.1673 74.3031 75.2315 74.3175 75.2943 74.3078C75.5094 74.2617 75.7299 74.2451 75.9495 74.2584C76.1066 74.2584 76.1739 74.0924 76.1066 73.8725C76.0577 73.7184 75.956 73.5865 75.8193 73.5Z" fill="#FBFBFC"/>
<path d="M77.6908 77.0811L77.6459 77.0587C76.4162 76.3721 75.4019 76.9869 75.4019 78.405V81.8111C75.4134 82.0297 75.5284 82.2297 75.7116 82.3496C75.8822 82.4483 76.0213 82.3496 76.0258 82.1701V78.764C76.0258 77.7139 76.7573 77.2651 77.6504 77.7633H77.6818C78.6548 78.3974 79.2667 79.4577 79.3289 80.6174V86.8103C79.3403 87.0289 79.4553 87.2289 79.6385 87.3488C79.8091 87.4475 79.9527 87.3488 79.9527 87.1693V80.9764C79.8672 79.3785 79.0234 77.9176 77.6818 77.0452L77.6908 77.0811Z" fill="#FBFBFC"/>
<path d="M80.94 81.2187C80.7695 81.12 80.6304 81.2187 80.6259 81.3982V82.2643C80.6374 82.4829 80.7524 82.683 80.9355 82.8028C81.1061 82.9016 81.2497 82.8028 81.2497 82.6233V81.7662C81.2411 81.5444 81.1257 81.3404 80.94 81.2187Z" fill="#FBFBFC"/>
<path d="M77.6953 75.6002C75.7296 74.4648 74.105 75.3803 74.105 77.6421V81.6585C74.1165 81.8771 74.2315 82.0771 74.4146 82.197C74.5852 82.2957 74.7243 82.197 74.7288 82.0175V78.0011C74.7288 76.1387 76.0752 75.3803 77.6818 76.3182C78.7716 77.0145 79.622 78.0278 80.1188 79.2217C80.1708 79.3472 80.2601 79.4537 80.3746 79.5269C80.4261 79.561 80.4883 79.5754 80.5496 79.5673C80.6932 79.5403 80.7291 79.3384 80.6349 79.1185C80.0367 77.6735 79.011 76.4458 77.6953 75.6002Z" fill="#FBFBFC"/>
<path d="M77.6998 74.1193C77.4397 73.968 77.1681 73.8374 76.8875 73.7289C76.7169 73.6661 76.6003 73.7827 76.6317 73.9937C76.6615 74.1883 76.7724 74.3611 76.9368 74.4694L76.9907 74.4963C77.2356 74.5914 77.4727 74.7054 77.6998 74.8373C80.0335 76.1836 81.9274 79.4641 81.9184 82.1477V88.17C81.9292 88.3889 82.0444 88.5892 82.2281 88.7086C82.3986 88.8073 82.5377 88.7086 82.5422 88.5291V82.5067C82.5512 79.4282 80.3791 75.6631 77.6998 74.1193Z" fill="#FBFBFC"/>
<path d="M77.7047 72.6384C74.3163 70.6818 71.5518 72.2614 71.5383 76.1522V79.6436C71.5498 79.8622 71.6648 80.0622 71.848 80.1821C72.0185 80.2808 72.1621 80.1821 72.1621 80.0026V76.5112C72.1621 73.0109 74.6574 71.5748 77.7002 73.3699C79.0079 74.1677 80.1271 75.2394 80.9809 76.5112C81.8972 77.8099 82.5638 79.2678 82.9466 80.8104C82.9876 80.9837 83.0936 81.1347 83.2428 81.2322C83.2721 81.249 83.3039 81.2611 83.337 81.2681C83.5031 81.304 83.5928 81.1514 83.539 80.9315C83.1129 79.2082 82.3686 77.5797 81.3444 76.1298C80.397 74.7173 79.1554 73.5263 77.7047 72.6384Z" fill="#FBFBFC"/>
<path d="M83.5026 82.1208C83.3052 82.0265 83.1795 82.1208 83.193 82.3317C83.2064 82.5426 83.193 82.7042 83.193 82.8882V89.0811C83.193 91.087 82.3403 92.5141 80.949 92.8955C80.8099 92.9314 80.7785 93.1379 80.8817 93.3443C80.9348 93.4642 81.0223 93.5657 81.133 93.636C81.1876 93.6708 81.2534 93.6837 81.317 93.6719C82.0851 93.461 82.7405 92.9586 83.1436 92.2718C83.6156 91.4062 83.8465 90.4298 83.8123 89.4446V83.2517C83.8123 83.0497 83.8123 82.8433 83.8123 82.6324C83.792 82.4237 83.6781 82.2355 83.5026 82.1208Z" fill="#FBFBFC"/>
<path d="M80.1726 93.0347C80.1319 93.0101 80.0855 92.9962 80.038 92.9943C79.8484 92.988 79.6594 92.9685 79.4725 92.9359C79.3109 92.909 79.2212 93.0616 79.2795 93.2815C79.3227 93.4515 79.4285 93.599 79.5757 93.6943C79.6074 93.714 79.6424 93.7277 79.679 93.7347C79.8879 93.7729 80.0994 93.7954 80.3117 93.802C80.4688 93.802 80.5317 93.6315 80.4598 93.4071C80.4113 93.2529 80.3095 93.1208 80.1726 93.0347Z" fill="#FBFBFC"/>
<defs>
<filter id="filter0_d" x="5.04672" y="71.8295" width="148.198" height="118.04" filterUnits="userSpaceOnUse" color-interpolation-filters="sRGB">
<feFlood flood-opacity="0" result="BackgroundImageFix"/>
<feColorMatrix in="SourceAlpha" type="matrix" values="0 0 0 0 0 0 0 0 0 0 0 0 0 0 0 0 0 0 127 0"/>
<feOffset dy="10"/>
<feGaussianBlur stdDeviation="11.5"/>
<feColorMatrix type="matrix" values="0 0 0 0 0 0 0 0 0 0.258824 0 0 0 0 0.721569 0 0 0 0.15 0"/>
<feBlend mode="normal" in2="BackgroundImageFix" result="effect1_dropShadow"/>
<feBlend mode="normal" in="SourceGraphic" in2="effect1_dropShadow" result="shape"/>
</filter>
<linearGradient id="paint0_linear" x1="130.258" y1="143.115" x2="130.258" y2="0.00448679" gradientUnits="userSpaceOnUse">
<stop stop-color="#9AC1FF"/>
<stop offset="0.171875" stop-color="#9AC1FF" stop-opacity="0.8"/>
<stop offset="0.385417" stop-color="#9AC1FF" stop-opacity="0.5"/>
<stop offset="0.682292" stop-color="#9AC1FF" stop-opacity="0.2"/>
<stop offset="0.947917" stop-color="#9AC1FF" stop-opacity="0.01"/>
</linearGradient>
<linearGradient id="paint1_linear" x1="28.0873" y1="144.01" x2="130.245" y2="144.01" gradientUnits="userSpaceOnUse">
<stop stop-color="white"/>
<stop offset="0.33" stop-color="#F9F8FE"/>
<stop offset="0.81" stop-color="#E6E6FB"/>
<stop offset="1" stop-color="#DDDCF9"/>
</linearGradient>
<linearGradient id="paint2_linear" x1="130.245" y1="114.406" x2="28.0512" y2="114.406" gradientUnits="userSpaceOnUse">
<stop offset="0.12" stop-color="#ADCCFF"/>
<stop offset="0.56" stop-color="white"/>
<stop offset="0.71" stop-color="#F8FAFF"/>
<stop offset="0.91" stop-color="#BED3F7"/>
<stop offset="1" stop-color="#ADCCFF"/>
</linearGradient>
<linearGradient id="paint3_linear" x1="126.282" y1="88.7953" x2="32.0454" y2="88.7953" gradientUnits="userSpaceOnUse">
<stop offset="0.12" stop-color="#56A1FF"/>
<stop offset="1" stop-color="#5187DC"/>
</linearGradient>
<linearGradient id="paint4_linear" x1="0.5" y1="172.748" x2="157.5" y2="172.748" gradientUnits="userSpaceOnUse">
<stop stop-color="#56A1FF" stop-opacity="0.28"/>
<stop offset="1" stop-color="#5178DC"/>
</linearGradient>
<linearGradient id="paint5_linear" x1="93.3041" y1="41.357" x2="63.5" y2="41.357" gradientUnits="userSpaceOnUse">
<stop stop-color="white"/>
<stop offset="0.33" stop-color="#F9F8FE"/>
<stop offset="0.81" stop-color="#E6E6FB"/>
<stop offset="1" stop-color="#DDDCF9"/>
</linearGradient>
<linearGradient id="paint6_linear" x1="64.6938" y1="121.564" x2="95.9385" y2="121.564" gradientUnits="userSpaceOnUse">
<stop stop-color="white"/>
<stop offset="0.33" stop-color="#F9F8FE"/>
<stop offset="0.81" stop-color="#E6E6FB"/>
<stop offset="1" stop-color="#DDDCF9"/>
</linearGradient>
<linearGradient id="paint7_linear" x1="80.3521" y1="108.182" x2="76.2726" y2="108.182" gradientUnits="userSpaceOnUse">
<stop offset="0.12" stop-color="#5C90FE"/>
<stop offset="0.56" stop-color="#466CF5"/>
<stop offset="0.69" stop-color="#4265F3"/>
<stop offset="0.87" stop-color="#3853EF"/>
<stop offset="1" stop-color="#2E42EB"/>
</linearGradient>
<linearGradient id="paint8_linear" x1="76.6003" y1="113.005" x2="80.029" y2="113.005" gradientUnits="userSpaceOnUse">
<stop stop-color="white"/>
<stop offset="0.33" stop-color="#F9F8FE"/>
<stop offset="0.81" stop-color="#E6E6FB"/>
<stop offset="1" stop-color="#DDDCF9"/>
</linearGradient>
<linearGradient id="paint9_linear" x1="92.1418" y1="44.6699" x2="64.6567" y2="44.6699" gradientUnits="userSpaceOnUse">
<stop offset="0.12" stop-color="#56A1FF"/>
<stop offset="1" stop-color="#5187DC"/>
</linearGradient>
</defs>
</svg>
