<svg width="26" height="36" viewBox="0 0 26 36" fill="none" xmlns="http://www.w3.org/2000/svg">
<path fill-rule="evenodd" clip-rule="evenodd" d="M2.16078 0H13.851C15.0353 0 16.0118 0.972549 16.0118 2.16078V13.9373C16.0118 15.1216 15.0392 16.098 13.851 16.098H2.16078C0.976471 16.098 0 15.1255 0 13.9373V2.16078C0 0.972549 0.976471 0 2.16078 0Z" fill="#3169FF"/>
<path fill-rule="evenodd" clip-rule="evenodd" d="M16.6905 15.9688H24.2709C25.0317 15.9688 25.6669 16.604 25.6669 17.3648V24.9884C25.6669 25.7491 25.0317 26.3844 24.2709 26.3844H16.6905C15.8003 26.3844 15.165 26.3413 15.165 27.7413V34.7295C15.165 35.4511 14.5728 36.0001 13.8944 36.0001H6.9493C6.22773 36.0001 5.67871 35.408 5.67871 34.7295V27.7452C5.67871 27.0237 6.27087 26.4746 6.9493 26.4746H13.8944C14.9964 26.4746 15.2905 26.0942 15.2905 24.9923V17.3648C15.2905 16.604 15.9258 15.9688 16.6905 15.9688Z" fill="#3169FF"/>
</svg>
