<svg width="32" height="36" viewBox="0 0 32 36" fill="none" xmlns="http://www.w3.org/2000/svg">
<path fill-rule="evenodd" clip-rule="evenodd" d="M31.5234 3.86811C31.5577 3.90849 31.5784 3.95877 31.5824 4.01164C31.6036 4.27096 33.485 29.9953 15.9065 35.9865C15.8537 36.0045 15.7964 36.0045 15.7436 35.9865C-1.83431 29.9953 0.046985 4.27096 0.0676961 4.01164C0.0719197 3.95893 0.0925956 3.90886 0.126772 3.86852C0.160949 3.82818 0.206913 3.79964 0.258178 3.78688L15.7655 0.00692108C15.8047 -0.00230703 15.8454 -0.00230703 15.8846 0.00692108L31.3912 3.78688C31.4428 3.79928 31.489 3.82773 31.5234 3.86811ZM28.6693 6.61476C28.6972 6.64747 28.7143 6.68813 28.7179 6.73103H28.7196C28.737 6.94255 30.2758 27.9441 15.8918 32.8346C15.8496 32.8507 15.8029 32.8507 15.7607 32.8346C1.37614 27.9441 2.91558 6.94255 2.93284 6.73103C2.93618 6.68813 2.95303 6.64734 2.98095 6.61463C3.00887 6.58194 3.04644 6.55891 3.08823 6.54891L15.7756 3.4611C15.8077 3.45304 15.8413 3.45304 15.8735 3.4611L28.562 6.54891C28.6037 6.55904 28.6412 6.5821 28.6693 6.61476Z" fill="#798CE5"/>
<path d="M15.6454 8.07047L7.18551 10.1279C7.15762 10.135 7.13267 10.1506 7.11406 10.1726C7.0955 10.1946 7.08425 10.2219 7.08192 10.2506C7.07099 10.3918 6.04489 24.3929 15.6332 27.6537C15.662 27.6629 15.6931 27.6629 15.7219 27.6537C25.3101 24.3924 24.2846 10.3918 24.2732 10.25C24.2709 10.2212 24.2597 10.1939 24.241 10.1719C24.2223 10.15 24.197 10.1345 24.1689 10.1279L15.7097 8.0699C15.6887 8.06426 15.6664 8.06426 15.6454 8.0699" fill="#798CE5"/>
</svg>
