<svg width="32" height="36" viewBox="0 0 32 36" fill="none" xmlns="http://www.w3.org/2000/svg">
<path d="M19.4852 10.4504L16.5708 8.75724C16.0157 8.47968 15.3773 8.47968 14.8222 8.75724L11.9078 10.4504C11.2694 10.8112 11.2694 11.4219 11.9078 11.7827L14.8499 13.5036C15.4051 13.7811 16.0434 13.7811 16.5986 13.5036L19.5408 11.7827C20.1236 11.3941 20.1236 10.8112 19.4852 10.4504Z" fill="#4231BB"/>
<path d="M30.8928 8.34079L16.7648 0.208173C16.2097 -0.0693909 15.5436 -0.0693909 15.0162 0.208173L0.888205 8.34079C0.360834 8.67386 0.0277564 9.25674 0 9.86738V26.1326C0.0277564 26.7433 0.360834 27.3261 0.888205 27.6592L15.0162 35.7918C15.5713 36.0694 16.2375 36.0694 16.7648 35.7918L30.8928 27.6592C31.4202 27.3261 31.7533 26.7433 31.781 26.1326V9.86738C31.7255 9.22899 31.4202 8.67386 30.8928 8.34079ZM24.5921 12.1157L16.5428 16.862C15.9877 17.1396 15.3493 17.1396 14.7941 16.862L9.68697 13.8365C9.04857 13.4757 8.5212 13.7533 8.5212 14.5027V23.5513C8.5212 24.2729 7.99383 24.5783 7.35544 24.2452L6.49499 23.8011C5.96762 23.468 5.63454 22.9129 5.57903 22.3022V12.4487C5.60678 11.8381 5.93986 11.2552 6.46723 10.9221L14.7664 6.09252C15.3215 5.81496 15.9599 5.81496 16.515 6.09252L24.5644 10.7556C25.2305 11.1164 25.2305 11.7271 24.5921 12.1157Z" fill="#4231BB"/>
</svg>
