<svg width="38" height="36" viewBox="0 0 38 36" fill="none" xmlns="http://www.w3.org/2000/svg">
<path fill-rule="evenodd" clip-rule="evenodd" d="M0 36L11.0534 5.61499C12.456 2.06737 15.0709 0.0592459 18.5472 0.00129041V0C18.5731 0 18.599 0.000107259 18.6249 0.00032161C18.6507 0.000107259 18.6766 0 18.7025 0V0.00129041C22.1788 0.0592459 24.7937 2.06737 26.1963 5.61499L37.2496 36L30.4051 33.6115L20.9628 7.65548C20.3881 6.21974 19.7247 5.70297 18.6249 5.6802C17.525 5.70297 16.8616 6.21974 16.2869 7.65548L6.84464 33.6115L0 36ZM23.4343 24.43C23.4343 27.0842 21.31 29.2356 18.6897 29.2356C16.0693 29.2356 13.945 27.0842 13.945 24.43C13.945 21.7759 16.0693 19.6244 18.6897 19.6244C21.31 19.6244 23.4343 21.7759 23.4343 24.43Z" fill="url(#paint0_linear_183_16890)"/>
<defs>
<linearGradient id="paint0_linear_183_16890" x1="0" y1="0" x2="0" y2="36" gradientUnits="userSpaceOnUse">
<stop stop-color="#42C1FD"/>
<stop offset="1" stop-color="#1F8EFA"/>
</linearGradient>
</defs>
</svg>
