<svg width="60" height="36" viewBox="0 0 60 36" fill="none" xmlns="http://www.w3.org/2000/svg">
<path d="M32.7029 8.65776C32.6286 8.45426 32.4613 8.39877 32.3869 8.38027C32.3125 8.36177 32.108 8.32477 31.9221 8.50976L30.9739 9.45323L30.8252 9.60123L23.2583 2.12744C21.8825 0.758479 20.0419 0 18.0712 0C16.1191 0 14.2785 0.758479 12.9027 2.12744L2.13805 12.8571C0.743671 14.2446 0 16.076 0 18.0185C0 19.9794 0.743671 21.8109 2.13805 23.1984L12.9213 33.8726C14.2971 35.2415 16.1377 36 18.0898 36C20.0419 36 21.8825 35.2415 23.2583 33.8726C23.2583 33.8726 25.6938 31.4491 25.7124 31.4306C26.0285 31.1161 26.4189 30.6722 26.6234 30.0987C26.7908 29.6362 26.8465 29.1552 26.7722 28.6742C26.7164 28.1932 26.5305 27.7307 26.2516 27.3237C26.14 27.1758 26.0285 27.0277 25.8798 26.8983C24.6899 25.7328 22.7563 25.7328 21.5665 26.9168L18.9264 29.5437C18.7591 29.7102 18.5732 29.8212 18.3501 29.8582C18.0898 29.9137 17.9411 29.8952 17.718 29.8212C17.5135 29.7472 17.3275 29.6177 17.1602 29.4697L6.45135 18.814C6.28402 18.6475 6.17247 18.444 6.13529 18.222C6.07951 17.926 6.13529 17.63 6.28402 17.3895L6.3398 17.334C6.46995 17.2045 17.1416 6.60431 17.2346 6.51182C17.4019 6.34532 17.625 6.23433 17.8481 6.17883C17.9225 6.16033 17.9968 6.16033 18.0712 6.16033C18.3873 6.16033 18.6847 6.28982 18.9078 6.51182L26.4561 13.9671L26.0843 14.3371L25.3406 15.0771C25.1733 15.2436 25.1919 15.4471 25.2105 15.5396C25.2291 15.6136 25.3034 15.7801 25.4893 15.8541L32.2939 16.6865C32.5728 16.6865 32.8517 16.5755 33.0376 16.372C33.2421 16.1686 33.3537 15.9096 33.3537 15.6136L32.7029 8.65776Z" fill="url(#paint0_linear_184_16940)"/>
<path opacity="0.49" d="M6.40004 18.7379C6.08398 18.4049 6.0468 17.7944 6.30708 17.3875C6.30708 17.3875 2.75605 21.2353 4.46649 25.4902L6.7161 27.7102L9.98825 22.3083L6.40004 18.7379Z" fill="url(#paint1_linear_184_16940)"/>
<path opacity="0.49" d="M17.4236 29.7105C21.4208 33.3734 25.8085 31.3384 25.8085 31.3384C25.8085 31.3384 26.3848 30.8019 26.6265 30.1174C26.0316 29.8215 21.7369 26.769 21.7369 26.769L19.2084 29.285C18.2974 30.3579 17.4236 29.7105 17.4236 29.7105Z" fill="url(#paint2_linear_184_16940)"/>
<path opacity="0.49" d="M14.7982 8.95388C14.7982 8.95388 17.3639 6.38245 17.3639 6.40095C17.3639 6.40095 18.0518 5.86447 18.7583 6.36396C18.7583 6.36396 14.5007 2.88605 9.96434 5.06899L8.62573 6.40095L14.7982 8.95388Z" fill="url(#paint3_linear_184_16940)"/>
<path d="M27.2345 27.3422C27.3088 27.5457 27.4761 27.6012 27.5505 27.6197C27.6249 27.6382 27.8294 27.6752 28.0153 27.4902L28.9635 26.5468L29.1122 26.3988L36.6791 33.8726C38.0549 35.2415 39.8955 36 41.8662 36C43.8183 36 45.6589 35.2415 47.0347 33.8726L57.7993 23.1429C59.1937 21.7554 59.9374 19.924 59.9374 17.9815C59.9374 16.0206 59.1937 14.1891 57.7993 12.8016L47.0161 2.12744C45.6403 0.758479 43.7997 0 41.8476 0C39.8955 0 38.0549 0.758479 36.6791 2.12744C36.6791 2.12744 34.2436 4.55087 34.225 4.56937C33.9089 4.88386 33.5185 5.32785 33.314 5.90134C33.1466 6.36382 33.0909 6.84481 33.1652 7.32579C33.221 7.80678 33.4069 8.26927 33.6858 8.67626C33.7974 8.82425 33.9089 8.97225 34.0576 9.10175C35.2475 10.2672 37.1811 10.2672 38.3709 9.08324L41.011 6.45632C41.1783 6.28982 41.3642 6.17883 41.5873 6.14183C41.8476 6.08633 41.9963 6.10483 42.2194 6.17883C42.4239 6.25283 42.6099 6.38232 42.7772 6.53032L53.486 17.186C53.6534 17.3525 53.7649 17.556 53.8021 17.778C53.8579 18.074 53.8021 18.37 53.6534 18.6105L53.5976 18.666C53.4675 18.7955 42.7958 29.3957 42.7028 29.4882C42.5355 29.6547 42.3124 29.7657 42.0893 29.8212C42.0149 29.8397 41.9406 29.8397 41.8662 29.8397C41.5501 29.8397 41.2527 29.7102 41.0296 29.4882L33.4813 22.0329L33.8531 21.6629L34.5968 20.9229C34.7641 20.7564 34.7455 20.5529 34.7269 20.4604C34.7083 20.3864 34.634 20.2199 34.4481 20.1459L27.6435 19.3135C27.3646 19.3135 27.0857 19.4245 26.8998 19.628C26.6953 19.8314 26.5837 20.0904 26.5837 20.3864L27.2345 27.3422Z" fill="url(#paint4_linear_184_16940)"/>
<path opacity="0.49" d="M53.5421 17.2586C53.8581 17.5916 53.8953 18.2021 53.635 18.6091C53.635 18.6091 57.1861 14.7612 55.4756 10.5063L53.226 8.28638L49.9539 13.6882L53.5421 17.2586Z" fill="url(#paint5_linear_184_16940)"/>
<path opacity="0.49" d="M42.5208 6.29175C38.5236 2.62885 34.1359 4.66379 34.1359 4.66379C34.1359 4.66379 33.5596 5.20028 33.3179 5.88476C33.9128 6.18075 38.2075 9.23317 38.2075 9.23317L40.7546 6.71724C41.647 5.62577 42.5208 6.29175 42.5208 6.29175Z" fill="url(#paint6_linear_184_16940)"/>
<path opacity="0.49" d="M45.1344 27.0449C45.1344 27.0449 42.5687 29.6163 42.5687 29.5978C42.5687 29.5978 41.8808 30.1343 41.1743 29.6349C41.1743 29.6349 45.4318 33.1128 49.9682 30.9298L51.3068 29.5978L45.1344 27.0449Z" fill="url(#paint7_linear_184_16940)"/>
<defs>
<linearGradient id="paint0_linear_184_16940" x1="16.6768" y1="-4.6001" x2="16.6768" y2="65.1251" gradientUnits="userSpaceOnUse">
<stop offset="0.00510204" stop-color="#00BFE1"/>
<stop offset="0.9651" stop-color="#2738AB"/>
</linearGradient>
<linearGradient id="paint1_linear_184_16940" x1="3.21919" y1="19.8088" x2="7.71502" y2="23.5877" gradientUnits="userSpaceOnUse">
<stop offset="0.0348857" stop-color="#1B1464"/>
<stop offset="1" stop-color="#1B1464" stop-opacity="0"/>
</linearGradient>
<linearGradient id="paint2_linear_184_16940" x1="20.7255" y1="31.8338" x2="22.8617" y2="28.7892" gradientUnits="userSpaceOnUse">
<stop offset="0.0348857" stop-color="#1B1464"/>
<stop offset="1" stop-color="#1B1464" stop-opacity="0"/>
</linearGradient>
<linearGradient id="paint3_linear_184_16940" x1="14.664" y1="3.99012" x2="13.0638" y2="7.96812" gradientUnits="userSpaceOnUse">
<stop offset="0.0348857" stop-color="#1B1464"/>
<stop offset="1" stop-color="#1B1464" stop-opacity="0"/>
</linearGradient>
<linearGradient id="paint4_linear_184_16940" x1="43.2606" y1="-4.6001" x2="43.2606" y2="65.1251" gradientUnits="userSpaceOnUse">
<stop offset="0.00510204" stop-color="#00BFE1"/>
<stop offset="0.9651" stop-color="#2738AB"/>
</linearGradient>
<linearGradient id="paint5_linear_184_16940" x1="56.7188" y1="16.1843" x2="52.223" y2="12.4054" gradientUnits="userSpaceOnUse">
<stop offset="0.0348857" stop-color="#1B1464"/>
<stop offset="1" stop-color="#1B1464" stop-opacity="0"/>
</linearGradient>
<linearGradient id="paint6_linear_184_16940" x1="39.2228" y1="4.16294" x2="37.0866" y2="7.20753" gradientUnits="userSpaceOnUse">
<stop offset="0.0348857" stop-color="#1B1464"/>
<stop offset="1" stop-color="#1B1464" stop-opacity="0"/>
</linearGradient>
<linearGradient id="paint7_linear_184_16940" x1="45.2715" y1="32.0016" x2="46.8717" y2="28.0236" gradientUnits="userSpaceOnUse">
<stop offset="0.0348857" stop-color="#1B1464"/>
<stop offset="1" stop-color="#1B1464" stop-opacity="0"/>
</linearGradient>
</defs>
</svg>
