<svg width="36" height="36" viewBox="0 0 36 36" fill="none" xmlns="http://www.w3.org/2000/svg">
<path d="M23.4758 13.3246C22.1277 12.0126 20.3169 11.2779 18.4311 11.2779C16.5453 11.2779 14.7345 12.0126 13.3863 13.3246C12.7256 13.9813 12.2019 14.7616 11.8455 15.6205C11.489 16.4794 11.3068 17.4 11.3094 18.3292C11.3119 19.2585 11.4991 20.178 11.8603 21.035C12.2214 21.892 12.7493 22.6694 13.4136 23.3226C14.7578 24.6505 16.5735 25.3983 18.4678 25.4042C20.362 25.4102 22.1824 24.6737 23.5349 23.3542C23.585 23.3044 23.7806 23.0917 24.1263 22.7115L20.7601 19.3849C20.4144 19.7832 20.2324 19.9914 20.2097 20.0095C19.7528 20.4617 19.1346 20.7155 18.4902 20.7155C17.8458 20.7155 17.2276 20.4617 16.7707 20.0095C16.3173 19.5665 16.0592 18.9624 16.0533 18.3301C16.0473 17.6978 16.2939 17.0891 16.7389 16.6376C17.1981 16.1973 17.8125 15.9535 18.4503 15.9586C19.0881 15.9637 19.6984 16.2172 20.1506 16.6648L29.1483 25.5494C27.9054 27.3183 26.2531 28.764 24.3309 29.7644C22.4087 30.7647 20.2728 31.2905 18.1036 31.2974C15.8247 31.2981 13.5836 30.7185 11.5936 29.6137C9.60361 28.5088 7.93096 26.9156 6.73491 24.9856C5.53885 23.0556 4.8592 20.8532 4.76066 18.5879C4.66213 16.3227 5.14798 14.07 6.17198 12.0445C7.19597 10.0189 8.72402 8.28782 10.6106 7.01605C12.4972 5.74428 14.6796 4.97415 16.95 4.77899C19.2204 4.58382 21.5032 4.97012 23.5811 5.90109C25.659 6.83206 27.4628 8.27672 28.8208 10.0975C28.4265 10.5562 27.4121 11.6982 25.7776 13.5237L29.1119 16.787L34.607 10.6542C33.2785 7.69725 31.1727 5.15171 28.5116 3.28603C25.8505 1.42034 22.7328 0.303648 19.4871 0.053687C16.2415 -0.196274 12.9882 0.429762 10.0702 1.86578C7.15232 3.30181 4.67789 5.4946 2.90787 8.21297C1.13785 10.9313 0.137833 14.0745 0.0132547 17.3111C-0.111324 20.5477 0.644154 23.7578 2.20003 26.6029C3.75591 29.448 6.05453 31.8227 8.85353 33.4765C11.6525 35.1304 14.8482 36.0022 18.1036 35.9999C22.6525 35.9999 26.4144 34.5923 30.0945 31.4739C32.2105 29.6193 33.8934 27.327 35.0255 24.7573L23.4758 13.3246Z" fill="url(#paint0_linear_184_16965)"/>
<defs>
<linearGradient id="paint0_linear_184_16965" x1="34.4946" y1="19.0435" x2="-0.509852" y2="19.0435" gradientUnits="userSpaceOnUse">
<stop stop-color="#22E6B8"/>
<stop offset="1" stop-color="#00C1CE"/>
</linearGradient>
</defs>
</svg>
