<svg width="400" height="400" viewBox="0 0 400 400" fill="none" xmlns="http://www.w3.org/2000/svg">
    <g clip-path="url(#clip0)">
        <path d="M237.334 209.333C237.334 206.666 237.334 205.333 234.667 203.999C225.334 197.333 214.667 190.666 205.334 183.999C204.347 183.34 203.187 182.988 202.001 182.988C200.814 182.988 199.654 183.34 198.667 183.999L169.334 205.333C168.109 205.957 167.085 206.914 166.378 208.092C165.671 209.271 165.309 210.625 165.334 211.999C165.272 214.874 164.342 217.662 162.667 219.999C162.008 220.986 161.656 222.146 161.656 223.333C161.656 224.519 162.008 225.679 162.667 226.666C173.334 247.999 182.667 269.333 193.334 290.666C197.334 297.333 200.001 305.333 204.001 313.333C205.334 311.999 205.334 310.666 206.667 309.333C218.667 282.666 229.334 255.999 241.334 229.333C242.667 226.666 242.667 225.333 240.001 223.999C238.502 221.903 237.485 219.501 237.024 216.965C236.563 214.429 236.669 211.823 237.334 209.333Z" fill="#CD0124"/>
        <path d="M191.999 174.667C165.332 156 138.666 137.333 113.332 120L111.999 121.333C113.332 124 113.332 125.333 114.666 128L142.666 188C145.332 193.333 146.666 198.667 154.666 200C156.97 200.208 159.285 199.744 161.332 198.667C169.332 192 178.666 186.667 186.666 180L191.999 174.667Z" fill="#CD0124"/>
        <path d="M200 0C160.444 0 121.776 11.7298 88.8861 33.7061C55.9962 55.6824 30.3617 86.9181 15.2242 123.463C0.086674 160.009 -3.87399 200.222 3.84306 239.018C11.5601 277.814 30.6083 313.451 58.5788 341.421C86.5493 369.392 122.186 388.44 160.982 396.157C199.778 403.874 239.992 399.913 276.537 384.776C313.082 369.638 344.318 344.004 366.294 311.114C388.27 278.224 400 239.556 400 200C400 146.957 378.929 96.0859 341.421 58.5786C303.914 21.0714 253.043 0 200 0V0ZM308 116C305.333 116 304 117.333 302.667 120C292 146.667 280 173.333 269.333 200L269.333 205.333C270.399 207.587 270.965 210.045 270.994 212.537C271.023 215.03 270.513 217.5 269.501 219.778C268.488 222.056 266.996 224.089 265.127 225.738C263.257 227.387 261.054 228.613 258.667 229.333C257.333 229.333 256 230.667 254.667 233.333C242.667 260 230.667 288 220 314.667C219.341 315.653 218.989 316.813 218.989 318C218.989 319.187 219.341 320.347 220 321.333C222.492 324.753 223.601 328.987 223.107 333.189C222.612 337.391 220.551 341.252 217.333 344C214.538 346.761 210.838 348.417 206.917 348.663C202.995 348.908 199.117 347.725 196 345.333C194.335 344.197 192.911 342.742 191.808 341.055C190.706 339.367 189.947 337.478 189.576 335.496C189.204 333.515 189.227 331.479 189.643 329.507C190.059 327.534 190.86 325.663 192 324C192.654 322.768 192.996 321.395 192.996 320C192.996 318.605 192.654 317.232 192 316C178.667 289.333 166.667 262.667 153.333 236C152.727 234.645 151.805 233.454 150.646 232.526C149.486 231.599 148.122 230.961 146.667 230.667C143.95 230.215 141.383 229.112 139.185 227.453C136.986 225.793 135.223 223.626 134.044 221.137C132.864 218.648 132.305 215.911 132.414 213.159C132.522 210.407 133.295 207.722 134.667 205.333C135.326 204.347 135.678 203.187 135.678 202C135.678 200.813 135.326 199.653 134.667 198.667C122.667 172 110.667 146.667 97.3334 120C97.3334 118.667 96.0001 117.333 92.0001 117.333C88.0788 116.782 84.4713 114.884 81.7956 111.965C79.1198 109.046 77.5424 105.288 77.3334 101.333C77.58 97.6292 78.826 94.0613 80.9391 91.0091C83.0522 87.9568 85.9532 85.5346 89.3334 84C92.9219 82.6099 96.883 82.5152 100.534 83.7322C104.185 84.9491 107.297 87.4015 109.333 90.6667C110.667 93.3333 112 93.3333 116 93.3333L285.333 93.3333C288 93.3333 290.667 93.3333 292 89.3333C293.819 86.1926 296.693 83.799 300.111 82.5783C303.529 81.3576 307.27 81.3889 310.667 82.6667C313.979 83.9206 316.866 86.0909 318.99 88.9239C321.115 91.757 322.39 95.1361 322.667 98.6667C322.716 102.837 321.261 106.885 318.567 110.069C315.873 113.253 312.121 115.359 308 116Z" fill="#CD0124"/>
        <path d="M200 165.333C200.987 165.992 202.147 166.344 203.333 166.344C204.52 166.344 205.68 165.992 206.667 165.333C232 146.666 257.333 129.333 281.333 110.666C282.667 109.333 284 109.333 284 107.999L284 106.666L116 106.666C117.526 107.226 118.897 108.14 120 109.333L200 165.333Z" fill="#CD0124"/>
        <path d="M213.333 174.666C224 182.666 234.666 189.333 245.333 195.999C248 197.333 252 195.999 256 195.999C257.333 195.999 258.666 193.333 258.666 191.999C268 170.666 277.333 147.999 286.666 126.666C286.666 125.333 288 123.999 288 122.666H286.666C264 138.666 238.666 155.999 213.333 174.666Z" fill="#CD0124"/>
    </g>
    <defs>
        <clipPath id="clip0">
            <rect width="400" height="400" fill="white"/>
        </clipPath>
    </defs>
</svg>
