<svg width="120" height="120" viewBox="0 0 120 120" fill="none" xmlns="http://www.w3.org/2000/svg">
    <g clip-path="url(#clip0)">
        <path d="M71.2004 62.7998C71.2004 61.9998 71.2004 61.5998 70.4004 61.1998C67.6004 59.1998 64.4004 57.1998 61.6004 55.1998C61.3044 55.002 60.9564 54.8965 60.6004 54.8965C60.2444 54.8965 59.8964 55.002 59.6004 55.1998L50.8004 61.5998C50.433 61.7872 50.1257 62.0741 49.9136 62.4277C49.7014 62.7813 49.5929 63.1875 49.6004 63.5998C49.5817 64.4622 49.3028 65.2987 48.8004 65.9998C48.6026 66.2958 48.4971 66.6438 48.4971 66.9998C48.4971 67.3558 48.6026 67.7038 48.8004 67.9998C52.0004 74.3998 54.8004 80.7998 58.0004 87.1998C59.2004 89.1998 60.0004 91.5998 61.2004 93.9998C61.6004 93.5998 61.6004 93.1998 62.0004 92.7998C65.6004 84.7998 68.8004 76.7998 72.4004 68.7998C72.8004 67.9998 72.8004 67.5998 72.0004 67.1998C71.5507 66.5709 71.2458 65.8502 71.1074 65.0894C70.9691 64.3287 71.0009 63.5468 71.2004 62.7998Z" fill="#CD0124"/>
        <path d="M57.5996 52.4C49.5996 46.8 41.5996 41.2 33.9996 36L33.5996 36.4C33.9996 37.2 33.9996 37.6 34.3996 38.4L42.7996 56.4C43.5996 58 43.9996 59.6 46.3996 60C47.0909 60.0623 47.7855 59.9233 48.3996 59.6C50.7996 57.6 53.5996 56 55.9996 54L57.5996 52.4Z" fill="#CD0124"/>
        <path d="M60 0C48.1331 0 36.5328 3.51894 26.6658 10.1118C16.7989 16.7047 9.10852 26.0754 4.56726 37.039C0.0260022 48.0026 -1.1622 60.0666 1.15292 71.7054C3.46803 83.3443 9.18248 94.0353 17.5736 102.426C25.9648 110.818 36.6558 116.532 48.2946 118.847C59.9335 121.162 71.9975 119.974 82.9611 115.433C93.9246 110.892 103.295 103.201 109.888 93.3342C116.481 83.4673 120 71.8669 120 60C120 44.087 113.679 28.8258 102.426 17.5736C91.1743 6.32141 75.913 0 60 0V0ZM92.4 34.8C91.6 34.8 91.2 35.2 90.8 36C87.6 44 84 52 80.8 60L80.8 61.6C81.1196 62.2762 81.2894 63.0134 81.2981 63.7612C81.3068 64.5091 81.154 65.25 80.8503 65.9334C80.5465 66.6169 80.0989 67.2268 79.538 67.7215C78.9771 68.2162 78.3161 68.584 77.6 68.8C77.2 68.8 76.8 69.2 76.4 70C72.8 78 69.2 86.4 66 94.4C65.8023 94.696 65.6967 95.044 65.6967 95.4C65.6967 95.756 65.8023 96.104 66 96.4C66.7475 97.4259 67.0803 98.6961 66.932 99.9567C66.7837 101.217 66.1652 102.376 65.2 103.2C64.3615 104.028 63.2514 104.525 62.075 104.599C60.8985 104.672 59.7352 104.318 58.8 103.6C58.3006 103.259 57.8732 102.823 57.5425 102.316C57.2118 101.81 56.9842 101.243 56.8728 100.649C56.7613 100.054 56.7682 99.4438 56.893 98.852C57.0178 98.2602 57.258 97.6988 57.6 97.2C57.7962 96.8304 57.8987 96.4184 57.8987 96C57.8987 95.5816 57.7962 95.1696 57.6 94.8C53.6 86.8 50 78.8 46 70.8C45.818 70.3935 45.5416 70.0362 45.1937 69.7579C44.8459 69.4796 44.4366 69.2884 44 69.2C43.185 69.0644 42.4148 68.7336 41.7554 68.2358C41.0959 67.738 40.5668 67.0879 40.213 66.3412C39.8593 65.5945 39.6916 64.7733 39.7242 63.9476C39.7567 63.122 39.9886 62.3166 40.4 61.6C40.5978 61.304 40.7034 60.956 40.7034 60.6C40.7034 60.244 40.5978 59.896 40.4 59.6C36.8 51.6 33.2 44 29.2 36C29.2 35.6 28.8 35.2 27.6 35.2C26.4237 35.0346 25.3414 34.4653 24.5387 33.5896C23.7359 32.7139 23.2627 31.5863 23.2 30.4C23.274 29.2888 23.6478 28.2184 24.2817 27.3027C24.9157 26.3871 25.786 25.6604 26.8 25.2C27.8766 24.783 29.0649 24.7546 30.1601 25.1196C31.2554 25.4847 32.189 26.2205 32.8 27.2C33.2 28 33.6 28 34.8 28L85.6 28C86.4 28 87.2 28 87.6 26.8C88.1458 25.8578 89.008 25.1397 90.0334 24.7735C91.0588 24.4073 92.1809 24.4167 93.2 24.8C94.1936 25.1762 95.0597 25.8273 95.6971 26.6772C96.3346 27.5271 96.7171 28.5408 96.8 29.6C96.8149 30.8511 96.3782 32.0656 95.57 33.0208C94.7618 33.9759 93.6363 34.6076 92.4 34.8Z" fill="#CD0124"/>
        <path d="M59.9998 49.6C60.2958 49.7978 60.6438 49.9033 60.9998 49.9033C61.3558 49.9033 61.7038 49.7978 61.9998 49.6C69.5998 44 77.1998 38.8 84.3998 33.2C84.7998 32.8 85.1998 32.8 85.1998 32.4L85.1998 32L34.7998 32C35.2575 32.1679 35.6688 32.4421 35.9998 32.8L59.9998 49.6Z" fill="#CD0124"/>
        <path d="M64 52.4008C67.2 54.8008 70.4 56.8008 73.6 58.8008C74.4 59.2008 75.6 58.8008 76.8 58.8008C77.2 58.8008 77.6 58.0008 77.6 57.6008C80.4 51.2008 83.2 44.4008 86 38.0008C86 37.6008 86.4 37.2008 86.4 36.8008H86C79.2 41.6008 71.6 46.8008 64 52.4008Z" fill="#CD0124"/>
    </g>
    <defs>
        <clipPath id="clip0">
            <rect width="120" height="120" fill="white"/>
        </clipPath>
    </defs>
</svg>
