<svg width="143" height="80" viewBox="0 0 143 80" fill="none" xmlns="http://www.w3.org/2000/svg">
<g clip-path="url(#clip0_961_20975)">
<path d="M62.5086 60.2484L40.0171 37.7569L30.3594 47.4146L62.5086 79.5638L128.808 13.2642L119.151 3.60645L62.5086 60.2484Z" fill="#30D0C0"/>
<path d="M28.5113 7.62402H30.4173V12.3892H28.5113V7.62402Z" fill="#D7EAFC"/>
<path d="M28.5113 14.2953H30.4173V19.0604H28.5113V14.2953Z" fill="#D7EAFC"/>
<path d="M23.7461 14.2953V12.3892H28.5113V14.2953H23.7461Z" fill="#D7EAFC"/>
<path d="M30.4173 14.2953V12.3892H35.1825V14.2953H30.4173Z" fill="#D7EAFC"/>
<path d="M99.0386 63.8535H100.945V68.6187H99.0386V63.8535Z" fill="#D7EAFC"/>
<path d="M99.0386 70.5248H100.945V75.2899H99.0386V70.5248Z" fill="#D7EAFC"/>
<path d="M94.2734 70.5248V68.6187H99.0386V70.5248H94.2734Z" fill="#D7EAFC"/>
<path d="M100.945 70.5248V68.6187H105.71V70.5248H100.945Z" fill="#D7EAFC"/>
<path d="M7.99928 53.3698C7.99928 55.199 6.51639 56.6819 4.68714 56.6819C2.8579 56.6819 1.375 55.199 1.375 53.3698C1.375 51.5405 2.8579 50.0576 4.68714 50.0576C6.51639 50.0576 7.99928 51.5405 7.99928 53.3698Z" stroke="#D7EAFC"/>
<path d="M103.304 3.81214C103.304 5.64139 101.821 7.12428 99.9918 7.12428C98.1626 7.12428 96.6797 5.64139 96.6797 3.81214C96.6797 1.9829 98.1626 0.5 99.9918 0.5C101.821 0.5 103.304 1.9829 103.304 3.81214Z" stroke="#D7EAFC"/>
<ellipse cx="2.78107" cy="27.6385" rx="1.90607" ry="1.90607" fill="#D7EAFC"/>
<ellipse cx="128.933" cy="58.8289" rx="1.90607" ry="1.90607" fill="#D7EAFC"/>
<ellipse cx="136.207" cy="7.62384" rx="1.90607" ry="1.90607" fill="#D7EAFC"/>
<ellipse cx="14.2186" cy="75.2899" rx="1.90607" ry="1.90607" fill="#D7EAFC"/>
<path d="M141.425 34.3092C141.425 36.1385 139.942 37.6214 138.113 37.6214C136.284 37.6214 134.801 36.1385 134.801 34.3092C134.801 32.48 136.284 30.9971 138.113 30.9971C139.942 30.9971 141.425 32.48 141.425 34.3092Z" stroke="#D7EAFC"/>
</g>
<defs>
<clipPath id="clip0_961_20975">
<rect width="141.25" height="80" fill="white" transform="translate(0.875)"/>
</clipPath>
</defs>
</svg>
