<svg width="327" height="216" viewBox="0 0 327 216" fill="none" xmlns="http://www.w3.org/2000/svg">
<g clip-path="url(#clip0_15_1379)">
<path d="M72.25 177C110.358 177 141.25 146.108 141.25 108C141.25 69.8924 110.358 39 72.25 39C34.1424 39 3.25 69.8924 3.25 108C3.25 146.108 34.1424 177 72.25 177Z" fill="#0052B4"/>
<path d="M72.2501 66L74.4843 72.8755H81.7131L75.8645 77.1246L78.0987 84.0001L72.2501 79.7507L66.4013 84.0001L68.6354 77.1246L62.7869 72.8755H70.016L72.2501 66Z" fill="#FFDA44"/>
<path d="M42.5515 78.3014L48.9933 81.5832L54.1049 76.4718L52.9737 83.6117L59.4152 86.8938L52.2751 88.0247L51.1441 95.1651L47.8621 88.7236L40.7222 89.8548L45.8338 84.7432L42.5515 78.3014Z" fill="#FFDA44"/>
<path d="M30.2502 108L37.1257 105.766V98.5367L41.3746 104.386L48.2503 102.151L44.0006 108L48.2503 113.849L41.3746 111.615L37.1257 117.463V110.234L30.2502 108Z" fill="#FFDA44"/>
<path d="M42.5515 137.699L45.8336 131.257L40.7222 126.145L47.8623 127.277L51.1439 120.835L52.2751 127.975L59.415 129.106L52.9743 132.388L54.1049 139.528L48.9933 134.416L42.5515 137.699Z" fill="#FFDA44"/>
<path d="M72.2501 150L70.0157 143.124H62.7869L68.6357 138.875L66.4013 132L72.2501 136.249L78.0987 132L75.8645 138.875L81.7131 143.124H74.484L72.2501 150Z" fill="#FFDA44"/>
<path d="M101.949 137.699L95.5071 134.417L90.3952 139.528L91.5264 132.388L85.0854 129.106L92.2253 127.975L93.3563 120.835L96.6381 127.277L103.778 126.145L98.6663 131.257L101.949 137.699Z" fill="#FFDA44"/>
<path d="M114.25 108L107.375 110.234V117.463L103.125 111.614L96.2505 113.849L100.5 108L96.2505 102.151L103.126 104.386L107.375 98.5367V105.766L114.25 108Z" fill="#FFDA44"/>
<path d="M101.949 78.3014L98.6666 84.7432L103.778 89.8549L96.6378 88.7234L93.3563 95.1649L92.2253 88.0248L85.0854 86.8935L91.5264 83.6117L90.3952 76.4721L95.5074 81.5835L101.949 78.3014Z" fill="#FFDA44"/>
</g>
<g clip-path="url(#clip1_15_1379)">
<path d="M163.25 177C201.358 177 232.25 146.108 232.25 108C232.25 69.8924 201.358 39 163.25 39C125.142 39 94.25 69.8924 94.25 108C94.25 146.108 125.142 177 163.25 177Z" fill="url(#paint0_linear_15_1379)"/>
<path d="M185.871 105.942C190.224 111.751 177.478 122.98 180.342 118.342H153.192C150.255 114.501 148.235 110.301 147.265 105.942H185.871Z" fill="url(#paint1_linear_15_1379)"/>
<path d="M178.003 139.413C174.144 142.489 169.973 145.15 165.558 147.353L163.398 148.441L161.226 147.358C140.799 137.107 128.613 119.452 128.613 100.103V77.3855H141.071V100.103C141.069 101.552 141.167 102.999 141.364 104.435C142.933 116.19 150.867 127.034 163.352 134.335C163.363 134.346 163.377 134.356 163.391 134.363C163.404 134.356 163.411 134.348 163.425 134.342L163.477 134.309C167.99 136.833 172.903 138.559 178.003 139.413V139.413Z" fill="url(#paint2_linear_15_1379)"/>
<path d="M197.798 105.942C197.221 110.433 195.99 114.814 194.143 118.947C190.727 126.622 185.239 133.606 178.009 139.416C172.912 138.561 168.001 136.835 163.491 134.312C165.12 133.351 166.7 132.309 168.223 131.189C168.375 131.091 168.522 130.984 168.662 130.87C177.101 124.793 183.18 115.987 185.872 105.942H197.798Z" fill="url(#paint3_linear_15_1379)"/>
<path d="M198.183 77.3901H141.071V89.8423H198.183V77.3901Z" fill="url(#paint4_linear_15_1379)"/>
<path d="M198.183 89.8425V100.103C198.183 100.527 198.17 100.953 198.157 101.378H185.691C185.704 100.952 185.71 100.527 185.71 100.103V89.8425H198.183Z" fill="url(#paint5_linear_15_1379)"/>
</g>
<path d="M254.25 177C292.358 177 323.25 146.108 323.25 108C323.25 69.8924 292.358 39 254.25 39C216.142 39 185.25 69.8924 185.25 108C185.25 146.108 216.142 177 254.25 177Z" fill="#111111"/>
<path d="M258.33 107.801L290.545 90.5278L285.129 80.0809L255.63 92.055C254.871 92.3637 254.028 92.3637 253.269 92.055L223.77 80.0809L218.354 90.5278L250.569 107.801L218.354 125.073L223.77 135.52L253.269 123.546C254.028 123.237 254.871 123.237 255.63 123.546L285.129 135.52L290.545 125.073L258.33 107.801Z" fill="#23F7DE"/>
<defs>
<linearGradient id="paint0_linear_15_1379" x1="232.25" y1="39" x2="67.1178" y2="91.2489" gradientUnits="userSpaceOnUse">
<stop stop-color="#000756"/>
<stop offset="1" stop-color="#0042B8"/>
</linearGradient>
<linearGradient id="paint1_linear_15_1379" x1="198.454" y1="119.937" x2="150.949" y2="107.134" gradientUnits="userSpaceOnUse">
<stop offset="0.14" stop-color="#ADADAD"/>
<stop offset="0.29" stop-color="#CBCBCB"/>
<stop offset="0.43" stop-color="#E2E2E2"/>
<stop offset="0.59" stop-color="#F2F2F2"/>
<stop offset="0.77" stop-color="#FCFCFC"/>
<stop offset="1" stop-color="white"/>
</linearGradient>
<linearGradient id="paint2_linear_15_1379" x1="180.915" y1="160.503" x2="113.765" y2="66.8456" gradientUnits="userSpaceOnUse">
<stop stop-color="#ADADAD"/>
<stop offset="0.17" stop-color="#CBCBCB"/>
<stop offset="0.34" stop-color="#E2E2E2"/>
<stop offset="0.52" stop-color="#F2F2F2"/>
<stop offset="0.73" stop-color="#FCFCFC"/>
<stop offset="1" stop-color="white"/>
</linearGradient>
<linearGradient id="paint3_linear_15_1379" x1="164.264" y1="146.329" x2="196.159" y2="105.899" gradientUnits="userSpaceOnUse">
<stop offset="0.15" stop-color="#ADADAD"/>
<stop offset="0.29" stop-color="#CBCBCB"/>
<stop offset="0.44" stop-color="#E2E2E2"/>
<stop offset="0.6" stop-color="#F2F2F2"/>
<stop offset="0.77" stop-color="#FCFCFC"/>
<stop offset="1" stop-color="white"/>
</linearGradient>
<linearGradient id="paint4_linear_15_1379" x1="135.581" y1="115.96" x2="162.536" y2="90.3555" gradientUnits="userSpaceOnUse">
<stop offset="0.14" stop-color="#ADADAD"/>
<stop offset="0.43" stop-color="#C9C9C9"/>
<stop offset="1" stop-color="white"/>
</linearGradient>
<linearGradient id="paint5_linear_15_1379" x1="191.937" y1="83.3068" x2="191.937" y2="101.378" gradientUnits="userSpaceOnUse">
<stop offset="0.0895638" stop-color="#ADADAD"/>
<stop offset="0.240189" stop-color="#CBCBCB"/>
<stop offset="0.425047" stop-color="#E2E2E2"/>
<stop offset="0.536875" stop-color="#F2F2F2"/>
<stop offset="1" stop-color="white"/>
</linearGradient>
<clipPath id="clip0_15_1379">
<rect x="3.25" y="39" width="138" height="138" rx="69" fill="white"/>
</clipPath>
<clipPath id="clip1_15_1379">
<rect x="94.25" y="39" width="138" height="138" rx="69" fill="white"/>
</clipPath>
</defs>
</svg>
