<svg width="400" height="400" viewBox="0 0 400 400" fill="none" xmlns="http://www.w3.org/2000/svg">
<path d="M200 400C310.457 400 400 310.457 400 200C400 89.543 310.457 0 200 0C89.543 0 0 89.543 0 200C0 310.457 89.543 400 200 400Z" fill="#111111"/>
<path d="M211.826 199.422L305.202 149.356L289.504 119.075L204 153.783C201.799 154.678 199.357 154.678 197.156 153.783L111.652 119.075L95.9539 149.356L189.331 199.422L95.9539 249.488L111.652 279.769L197.156 245.061C199.357 244.167 201.799 244.167 204 245.061L289.504 279.769L305.202 249.488L211.826 199.422Z" fill="#23F7DE"/>
</svg>
