<svg width="400" height="400" viewBox="0 0 400 400" fill="none" xmlns="http://www.w3.org/2000/svg">
<path d="M392.901 199.938C393.889 305.346 305.677 395.27 194.865 392.198C94.7743 389.424 5.89984 305.612 8.88463 193.902C11.4702 97.1175 92.8974 3.36635 210.51 8.17755C306.688 12.112 393.054 92.1216 392.901 199.938ZM252.333 198.518C255.472 197.426 258.275 196.353 261.138 195.472C277.065 190.57 289.141 178.112 288.484 157.712C287.833 137.51 275.056 124.821 258.137 119.594C241.966 114.599 225.073 114.302 208.386 113.96C180.411 113.387 152.415 113.839 124.429 113.84C115.277 113.84 110.704 118.406 110.704 127.666C110.702 176.285 110.708 224.905 110.707 273.524C110.707 281.782 115.625 286.417 124.392 286.371C153.804 286.218 183.217 286.178 212.626 285.854C227.951 285.685 243.233 284.556 257.941 279.767C275.881 273.926 288.613 263.348 290.887 243.19C292.924 225.124 285.955 211.849 269.529 204.399C264.213 201.989 258.447 200.574 252.333 198.518ZM216.736 249.218C222.637 249.085 228.659 247.472 234.324 245.616C240.145 243.709 242.281 238.614 242.169 232.723C242.061 227.054 240.042 221.94 234.317 220.276C227.818 218.387 221.017 216.961 214.281 216.606C203.116 216.017 191.897 216.479 180.701 216.43C174.768 216.405 172.166 213.893 172.087 208.06C172.007 202.144 172.041 196.225 172.148 190.31C172.257 184.275 174.626 181.934 180.642 181.905C191.038 181.854 201.441 182.106 211.829 181.804C217.543 181.638 223.321 181.022 228.911 179.848C236.074 178.344 239.565 173.596 239.717 166.572C239.856 160.153 236.784 155.783 229.885 153.71C225.662 152.442 221.206 151.372 216.833 151.284C199.41 150.934 181.978 151.002 164.55 150.919C162.365 150.909 160.179 150.918 157.712 150.918C157.712 184.105 157.712 216.667 157.712 249.386C177.782 249.385 197.267 249.66 216.736 249.218Z" fill="url(#paint0_linear)"/>
<defs>
<linearGradient id="paint0_linear" x1="8.81151" y1="200.137" x2="392.91" y2="200.137" gradientUnits="userSpaceOnUse">
<stop stop-color="#F8A438"/>
<stop offset="0.9995" stop-color="#FE4F92"/>
</linearGradient>
</defs>
</svg>
