<svg width="120" height="120" viewBox="0 0 120 120" fill="none" xmlns="http://www.w3.org/2000/svg">
<path d="M117.871 59.9819C118.167 91.6041 91.7031 118.581 58.4595 117.66C28.4324 116.828 1.77005 91.684 2.66549 58.1709C3.44116 29.1357 27.8693 1.0103 63.1532 2.45366C92.0064 3.63398 117.916 27.6369 117.871 59.9819ZM75.6999 59.5559C76.6416 59.2283 77.4826 58.9062 78.3416 58.642C83.1195 57.1713 86.7423 53.434 86.5452 47.314C86.3501 41.2535 82.5168 37.4466 77.4413 35.8787C72.59 34.3801 67.5221 34.2909 62.516 34.1884C54.1234 34.0165 45.7246 34.1521 37.3287 34.1524C34.5831 34.1524 33.2112 35.5221 33.2112 38.3001C33.2108 52.8858 33.2124 67.4718 33.2122 82.0576C33.2122 84.5351 34.6877 85.9254 37.3177 85.9117C46.1413 85.8657 54.9651 85.8537 63.788 85.7565C68.3854 85.7058 72.9701 85.3672 77.3823 83.9305C82.7645 82.1781 86.5841 79.0048 87.2662 72.9573C87.8773 67.5376 85.7866 63.555 80.8589 61.3201C79.2641 60.597 77.5342 60.1727 75.6999 59.5559ZM65.0209 74.7659C66.7911 74.7258 68.5978 74.242 70.2973 73.6852C72.0437 73.113 72.6845 71.5847 72.6509 69.8173C72.6185 68.1165 72.0128 66.5824 70.2951 66.0832C68.3456 65.5165 66.3053 65.0886 64.2843 64.9821C60.9349 64.8054 57.5691 64.9441 54.2103 64.9295C52.4305 64.9218 51.65 64.1682 51.6262 62.4184C51.6022 60.6436 51.6123 58.8678 51.6445 57.0933C51.6773 55.2829 52.388 54.5807 54.1928 54.5718C57.3116 54.5565 60.4325 54.6323 63.5487 54.5416C65.263 54.4917 66.9965 54.3069 68.6734 53.9548C70.8224 53.5036 71.8695 52.0792 71.9151 49.972C71.9568 48.0462 71.0352 46.7353 68.9655 46.1135C67.6988 45.7329 66.362 45.412 65.0501 45.3856C59.8232 45.2805 54.5936 45.3011 49.3652 45.2761C48.7095 45.273 48.0538 45.2757 47.3137 45.2757C47.3137 55.2318 47.3137 65.0005 47.3137 74.8163C53.3348 74.8158 59.1802 74.8984 65.0209 74.7659Z" fill="url(#paint0_linear)"/>
<defs>
<linearGradient id="paint0_linear" x1="2.64355" y1="60.0415" x2="117.873" y2="60.0415" gradientUnits="userSpaceOnUse">
<stop stop-color="#F8A438"/>
<stop offset="0.9995" stop-color="#FE4F92"/>
</linearGradient>
</defs>
</svg>
