<svg width="400" height="400" viewBox="0 0 400 400" fill="none" xmlns="http://www.w3.org/2000/svg">
    <g clip-path="url(#clip0)">
        <path d="M200 400C310.457 400 400 310.457 400 200C400 89.543 310.457 0 200 0C89.5431 0 9.37509e-06 89.543 2.09398e-05 200C3.25046e-05 310.457 89.5431 400 200 400Z" fill="#8DC351"/>
        <path d="M265 131.25C255 106.25 231.25 105 202.5 110L192.5 75L171.25 81.25L181.25 115C176.25 116.25 170 118.75 163.75 120L153.75 85L132.5 91.25L142.5 126.25C137.5 127.5 133.75 128.75 128.75 130L100 140L106.25 162.5C106.25 162.5 122.5 157.5 121.25 157.5C130 155 133.75 158.75 136.25 163.75L147.5 203.75C147.5 203.75 148.75 203.75 150 203.75L147.5 205L163.75 261.25C163.75 263.75 163.75 268.75 157.5 271.25L142.5 276.25L145 302.5L172.5 295C177.5 293.75 182.5 292.5 187.5 291.25L197.5 326.25L218.75 320L208.75 285C215 283.75 220 282.5 226.25 280L236.25 315L257.5 308.75L247.5 273.75C282.5 261.25 305 245 298.75 210C293.75 182.5 277.5 173.75 255 175C267.5 162.5 272.5 150 265 131.25ZM257.5 216.25C265 242.5 218.75 252.5 203.75 257.5L190 210C205 206.25 248.75 188.75 257.5 216.25ZM227.5 152.5C235 176.25 196.25 185 183.75 188.75L171.25 146.25C183.75 142.5 221.25 127.5 227.5 152.5Z" fill="white"/>
    </g>
    <defs>
        <clipPath id="clip0">
            <rect width="400" height="400" fill="white"/>
        </clipPath>
    </defs>
</svg>
