<svg width="120" height="120" viewBox="0 0 120 120" fill="none" xmlns="http://www.w3.org/2000/svg">
    <g clip-path="url(#clip0)">
        <path d="M60 120C93.1371 120 120 93.1371 120 60C120 26.8629 93.1371 0 60 0C26.8629 0 2.81253e-06 26.8629 6.28195e-06 60C9.75138e-06 93.1371 26.8629 120 60 120Z" fill="#8DC351"/>
        <path d="M79.5 39.375C76.5 31.875 69.375 31.5 60.75 33L57.75 22.5L51.375 24.375L54.375 34.5C52.875 34.875 51 35.625 49.125 36L46.125 25.5L39.75 27.375L42.75 37.875C41.25 38.25 40.125 38.625 38.625 39L30 42L31.875 48.75C31.875 48.75 36.75 47.25 36.375 47.25C39 46.5 40.125 47.625 40.875 49.125L44.25 61.125C44.25 61.125 44.625 61.125 45 61.125L44.25 61.5L49.125 78.375C49.125 79.125 49.125 80.625 47.25 81.375L42.75 82.875L43.5 90.75L51.75 88.5C53.25 88.125 54.75 87.75 56.25 87.375L59.25 97.875L65.625 96L62.625 85.5C64.5 85.125 66 84.75 67.875 84L70.875 94.5L77.25 92.625L74.25 82.125C84.75 78.375 91.5 73.5 89.625 63C88.125 54.75 83.25 52.125 76.5 52.5C80.25 48.75 81.75 45 79.5 39.375ZM77.25 64.875C79.5 72.75 65.625 75.75 61.125 77.25L57 63C61.5 61.875 74.625 56.625 77.25 64.875ZM68.25 45.75C70.5 52.875 58.875 55.5 55.125 56.625L51.375 43.875C55.125 42.75 66.375 38.25 68.25 45.75Z" fill="white"/>
    </g>
    <defs>
        <clipPath id="clip0">
            <rect width="120" height="120" fill="white"/>
        </clipPath>
    </defs>
</svg>
