<svg width="105" height="132" viewBox="0 0 105 132" fill="none" xmlns="http://www.w3.org/2000/svg">
<path fill-rule="evenodd" clip-rule="evenodd" d="M62.5259 7.56371C64.3696 6.7769 66.475 6.89654 68.2177 7.88716L77.1755 12.9791C92.1267 21.4781 101.362 37.3513 101.362 54.5493V113.164C101.362 115.054 100.389 116.811 98.7866 117.814C96.9302 118.976 94.5606 118.922 92.7586 117.678L82.2493 110.419C69.6572 101.722 61.9885 87.5235 61.6204 72.2243L60.1534 11.2514C60.115 9.65246 61.0549 8.1915 62.5259 7.56371Z" fill="url(#paint0_linear)"/>
<path fill-rule="evenodd" clip-rule="evenodd" d="M60.0897 28.3383C60.0897 18.3064 70.9428 12.0307 79.6374 17.035C91.7685 24.0172 99.2456 36.948 99.2456 50.945V98.1515C99.2456 108.183 88.3925 114.459 79.698 109.455C67.5669 102.473 60.0897 89.5418 60.0897 75.5448V28.3383Z" fill="white"/>
<path fill-rule="evenodd" clip-rule="evenodd" d="M59.0315 28.8692C59.0315 18.8373 69.8846 12.5616 78.5792 17.5659C90.7103 24.5481 98.1874 37.4789 98.1874 51.4758V98.6824C98.1874 108.714 87.3343 114.99 78.6397 109.986C66.5086 103.003 59.0315 90.0727 59.0315 76.0757V28.8692Z" fill="#092965"/>
<path fill-rule="evenodd" clip-rule="evenodd" d="M60.6189 14.9594C60.6189 12.3276 63.4935 10.7053 65.7465 12.0655L71.5998 15.5994C72.2778 16.0087 72.7554 16.681 72.9188 17.456C73.0863 18.2501 73.5836 18.9356 74.2865 19.3413L82.6891 24.19C83.1464 24.4538 83.7311 24.2896 83.9841 23.8262C84.2373 23.3626 84.8227 23.1985 85.28 23.4631L93.2302 28.0629C95.3157 29.2696 96.6 31.4964 96.6 33.9058V96.307C96.6 105.6 86.5145 111.385 78.4931 106.694C67.4229 100.219 60.6189 88.358 60.6189 75.5337V14.9594Z" fill="white"/>
<path opacity="0.2" fill-rule="evenodd" clip-rule="evenodd" d="M64.4882 23.6318L92.8522 39.4957V105.929L64.4882 90.0655V23.6318Z" fill="#D8D8D8"/>
<path fill-rule="evenodd" clip-rule="evenodd" d="M89.458 70.2342C86.158 68.3113 82.0157 70.6917 82.0157 74.5111V77.2253C82.0157 82.5191 84.8339 87.4126 89.4127 90.0695L97.5656 94.8004C100.866 96.7153 105 94.3343 105 90.519V87.8248C105 82.5407 102.192 77.6547 97.6266 74.9942L89.458 70.2342Z" fill="#80B1FF"/>
<path fill-rule="evenodd" clip-rule="evenodd" d="M99.6192 81.5339L94.0866 78.3507L94.0957 77.7961L99.5905 80.9576L99.6192 81.5339ZM99.6192 83.4844L94.735 80.6732L94.6996 80.1198L99.6006 82.9406L99.6192 83.4844ZM102.227 84.8065V82.2576L100.365 81.1873V83.7328L102.227 84.8065Z" fill="white"/>
<path fill-rule="evenodd" clip-rule="evenodd" d="M99.6192 86.3264L94.0866 83.1432L94.0957 82.5886L99.5905 85.75L99.6192 86.3264ZM99.6192 88.2769L94.735 85.4658L94.6996 84.9124L99.6006 87.7331L99.6192 88.2769ZM102.227 89.5989V87.05L100.365 85.9797V88.5253L102.227 89.5989Z" fill="white"/>
<path fill-rule="evenodd" clip-rule="evenodd" d="M99.6192 90.7883L94.0866 87.6051L94.0957 87.0505L99.5905 90.212L99.6192 90.7883ZM99.6192 92.7388L94.735 89.9277L94.6996 89.3743L99.6006 92.1951L99.6192 92.7388ZM102.227 94.0609V91.512L100.365 90.4417V92.9872L102.227 94.0609Z" fill="white"/>
<path fill-rule="evenodd" clip-rule="evenodd" d="M90.3167 85.1699C92.319 84.6297 93.221 81.482 92.3315 78.1393C91.442 74.7967 89.0978 72.5248 87.0955 73.0651C86.6021 73.1982 85.3245 73.3457 85.3245 73.3457C85.3245 73.3457 84.4104 77.5766 85.0807 80.0956C85.6834 82.3604 87.8941 85.5256 87.8941 85.5256C87.8941 85.5256 89.6711 85.3441 90.3167 85.1699Z" fill="url(#paint1_linear)"/>
<path fill-rule="evenodd" clip-rule="evenodd" d="M88.1614 85.5396C90.1294 85.0489 91.0468 81.9316 90.2104 78.577C89.374 75.2223 87.1005 72.9006 85.1325 73.3913C83.1644 73.882 82.247 76.9993 83.0834 80.3539C83.9198 83.7086 86.1933 86.0303 88.1614 85.5396Z" fill="#ADCCFF"/>
<path d="M85.5813 79.2339L86.9604 85.5346C86.9604 85.5346 89.1452 86.0002 90.2145 83.3667C90.9714 81.4173 90.2145 78.4974 90.2145 78.4974L85.5813 79.2339Z" fill="white"/>
<path fill-rule="evenodd" clip-rule="evenodd" d="M92.5508 49.484C89.7939 47.8731 86.329 49.8616 86.329 53.0546C86.329 57.4721 88.6779 61.5563 92.496 63.778L96.6536 66.1971C99.4086 67.8001 102.864 65.8126 102.864 62.6252C102.864 58.219 100.526 54.1439 96.7214 51.9209L92.5508 49.484Z" fill="#80B1FF"/>
<path fill-rule="evenodd" clip-rule="evenodd" d="M99.97 58.8679L89.14 52.7046L89.1687 52.1283L99.9987 58.2916L99.97 58.8679ZM96.1769 60.0248L89.14 55.9772L89.1586 55.4335L96.1956 59.481L96.1769 60.0248Z" fill="white"/>
<path opacity="0.339216" fill-rule="evenodd" clip-rule="evenodd" d="M68.2297 54.5349C65.4727 52.9239 62.0078 54.9124 62.0078 58.1055C62.0078 62.5229 64.3567 66.6072 68.1748 68.8288L72.3324 71.2479C75.0874 72.8509 78.5432 70.8634 78.5432 67.676C78.5432 63.2698 76.2046 59.1947 72.4003 56.9718L68.2297 54.5349Z" fill="#ADCCFF"/>
<mask id="mask0" mask-type="alpha" maskUnits="userSpaceOnUse" x="62" y="53" width="17" height="19">
<path fill-rule="evenodd" clip-rule="evenodd" d="M68.2297 54.5349C65.4727 52.9239 62.0078 54.9124 62.0078 58.1055C62.0078 62.5229 64.3567 66.6072 68.1748 68.8288L72.3324 71.2479C75.0874 72.8509 78.5432 70.8634 78.5432 67.676C78.5432 63.2698 76.2046 59.1947 72.4003 56.9718L68.2297 54.5349Z" fill="white"/>
</mask>
<g mask="url(#mask0)">
<path fill-rule="evenodd" clip-rule="evenodd" d="M63.0494 63.113L63.1868 62.9685C64.6083 61.4732 67.0761 61.8059 68.0508 63.6242L68.6909 63.181C70.7898 61.7278 73.6951 62.611 74.63 64.9865L77.184 71.4759L63.0494 63.113Z" fill="#80B1FF"/>
<path fill-rule="evenodd" clip-rule="evenodd" d="M68.7196 60.1131C69.1631 59.8774 69.2446 59.1637 68.9016 58.519C68.5586 57.8744 67.921 57.5428 67.4775 57.7784C67.0341 58.0141 66.9526 58.7278 67.2956 59.3725C67.6386 60.0172 68.2761 60.3487 68.7196 60.1131Z" fill="#80B1FF"/>
</g>
<path opacity="0.339216" fill-rule="evenodd" clip-rule="evenodd" d="M68.2297 36.3565C65.4727 34.7456 62.0078 36.7341 62.0078 39.9271C62.0078 44.3446 64.3567 48.4288 68.1748 50.6505L72.3324 53.0696C75.0874 54.6726 78.5432 52.6851 78.5432 49.4977C78.5432 45.0915 76.2046 41.0164 72.4003 38.7934L68.2297 36.3565Z" fill="#ADCCFF"/>
<mask id="mask1" mask-type="alpha" maskUnits="userSpaceOnUse" x="62" y="35" width="17" height="19">
<path fill-rule="evenodd" clip-rule="evenodd" d="M68.2297 36.3565C65.4727 34.7456 62.0078 36.7341 62.0078 39.9271C62.0078 44.3446 64.3567 48.4288 68.1748 50.6505L72.3324 53.0696C75.0874 54.6726 78.5432 52.6851 78.5432 49.4977C78.5432 45.0915 76.2046 41.0164 72.4003 38.7934L68.2297 36.3565Z" fill="white"/>
</mask>
<g mask="url(#mask1)">
<path fill-rule="evenodd" clip-rule="evenodd" d="M63.0494 44.9347L63.1868 44.7902C64.6083 43.2949 67.0761 43.6276 68.0508 45.4459L68.6909 45.0027C70.7898 43.5495 73.6951 44.4328 74.63 46.8083L77.184 53.2976L63.0494 44.9347Z" fill="#80B1FF"/>
<path fill-rule="evenodd" clip-rule="evenodd" d="M68.7196 41.9348C69.1631 41.6991 69.2446 40.9854 68.9016 40.3408C68.5586 39.6961 67.921 39.3645 67.4775 39.6002C67.0341 39.8358 66.9526 40.5495 67.2956 41.1942C67.6386 41.8389 68.2761 42.1705 68.7196 41.9348Z" fill="#80B1FF"/>
</g>
<path opacity="0.211021" fill-rule="evenodd" clip-rule="evenodd" d="M62.0079 126.753C68.6744 126.753 74.0787 123.682 74.0787 119.895C74.0787 116.107 68.6744 113.036 62.0079 113.036C55.3413 113.036 49.937 116.107 49.937 119.895C49.937 123.682 55.3413 126.753 62.0079 126.753Z" fill="url(#paint2_linear)"/>
<path fill-rule="evenodd" clip-rule="evenodd" d="M55.6371 117.926C55.6371 117.926 55.5591 118.437 55.5591 118.697C55.5591 118.958 56.0277 119.378 56.9573 119.308C57.8869 119.238 58.6842 118.396 58.7646 118.306C58.8451 118.216 58.6813 117.512 59.2354 117.328C59.7896 117.144 59.8941 117.521 60.7987 116.955C61.7034 116.389 61.6632 114.903 61.1459 114.554C60.6286 114.204 55.6371 117.926 55.6371 117.926Z" fill="#30334F"/>
<path fill-rule="evenodd" clip-rule="evenodd" d="M62.1555 122.022C62.1555 122.022 62.0079 122.43 62.0079 122.896C62.0079 123.363 62.8827 123.613 63.936 123.613C64.9894 123.613 64.5798 123.158 65.29 123.027C66.0002 122.896 65.9091 123.353 66.9458 123.353C67.9824 123.353 69.4049 123.138 69.6089 122.022C69.813 120.906 62.1555 122.022 62.1555 122.022Z" fill="#30334F"/>
<path fill-rule="evenodd" clip-rule="evenodd" d="M55.9284 115.039C55.9284 115.039 55.654 115.66 55.5591 117.99C55.5591 117.99 55.7656 118.957 57.0297 118.798C58.2937 118.638 58.0447 118.039 59.9288 117.076C61.8129 116.113 61.6942 114.823 61.1996 114.512C60.7051 114.201 60.0854 114.013 58.5027 114.451C56.9199 114.889 55.9284 115.039 55.9284 115.039Z" fill="#181E36"/>
<path fill-rule="evenodd" clip-rule="evenodd" d="M65.8286 119.136C65.8286 119.136 66.2134 120.083 67.7492 120.316C69.2851 120.549 70.0687 121.191 69.929 121.812C69.7893 122.434 69.0219 123.17 67.3191 123.007C65.6164 122.844 65.2639 123 64.3968 123.081C63.5296 123.161 62.5096 123.163 62.0846 122.488C62.0846 122.488 61.9313 121.689 62.0846 120.493C62.2379 119.296 62.5 119.21 62.5 118.8C62.5 118.391 65.8286 119.136 65.8286 119.136Z" fill="#181E36"/>
<path fill-rule="evenodd" clip-rule="evenodd" d="M65.811 70.7302C65.811 70.7302 66.0476 71.2615 66.2352 71.4482C66.4227 71.635 66.2066 71.887 66.0088 71.887C65.811 71.887 65.811 70.7302 65.811 70.7302Z" fill="#C47770"/>
<path fill-rule="evenodd" clip-rule="evenodd" d="M66.905 88.2048C67.3661 88.9452 67.236 90.7973 67.2805 92.4355C67.382 96.1673 67.0391 100.639 67.0391 101.506C67.0391 102.752 66.472 111.784 66.472 113.868C66.472 115.952 66.25 118.892 66.25 118.892C66.25 118.892 63.7646 120.106 62.0875 118.818C62.0875 118.818 62.439 101.766 62.439 100.738C62.439 99.7103 62.3152 99.1211 62.3152 99.1211C62.3152 99.1211 60.9002 105.487 60.9002 106.333C60.9002 107.178 59.3899 115.196 59.3899 115.196C59.3899 115.196 58.4773 116.018 57.3585 115.799C56.2396 115.58 55.7245 114.947 55.7245 114.947C55.7245 114.947 56.0694 107.03 56.9596 105.145C57.0851 102.698 57.735 96.0429 57.735 94.4129C57.735 92.7828 56.9653 89.6636 57.9304 86.8823C58.8954 84.101 65.3932 85.7777 66.905 88.2048Z" fill="url(#paint3_linear)"/>
<path d="M66.0192 87.9171C66.5168 88.34 66.2185 102.252 66.2185 105.034C66.2185 107.815 65.3151 118.82 65.3151 118.82" stroke="#1C478A" stroke-width="1.02643"/>
<path fill-rule="evenodd" clip-rule="evenodd" d="M69.2836 68.2882C69.2836 68.2882 69.8343 66.6463 69.8515 66.2617C69.8687 65.8771 69.8515 65.1695 69.8515 65.1695C69.8515 65.1695 69.922 64.2747 70.0825 63.8567C70.243 63.4386 70.3857 63.5923 70.7181 63.5923C71.0505 63.5923 71.1979 63.2275 71.5131 63.4099C71.8282 63.5923 71.9967 63.4278 72.1612 63.51C72.3257 63.5923 72.5785 63.5205 72.9809 62.5868C73.3833 61.653 73.4089 61.4085 73.5873 61.4907C73.7657 61.5728 73.6872 62.3116 73.4609 62.952C73.2347 63.5923 72.8159 64.7651 72.8984 64.9673C72.9809 65.1695 73.4636 64.6713 73.5873 64.459C73.7111 64.2466 74.0319 64.1637 74.2048 64.3245C74.3778 64.4853 73.9464 64.9319 73.5873 65.3891C73.2282 65.8464 72.9884 66.6618 72.2507 66.8577C71.9807 66.9908 71.2571 69.0777 71.2571 69.0777L69.2836 68.2882Z" fill="#AC6A5A"/>
<path fill-rule="evenodd" clip-rule="evenodd" d="M58.5229 74.3395C57.444 74.3131 56.6597 75.2065 56.9388 76.4292C57.2178 77.652 58.7571 77.8213 60.2369 78.25C61.7166 78.6787 65.5164 78.5382 67.4456 77.9217C69.3749 77.3052 71.3787 69.0014 71.7213 68.1485C72.0639 67.2957 69.6478 66.7641 69.6478 66.7641L65.7033 75.0964C65.7033 75.0964 59.6018 74.3659 58.5229 74.3395Z" fill="#F0F0F0"/>
<path fill-rule="evenodd" clip-rule="evenodd" d="M66.2606 71.143C66.5543 71.0464 66.6819 70.6236 66.5455 70.1987C66.4092 69.7739 66.0606 69.5078 65.7668 69.6044C65.4731 69.701 65.3455 70.1238 65.4819 70.5487C65.6182 70.9736 65.9668 71.2396 66.2606 71.143Z" stroke="#30334F" stroke-width="1.02643"/>
<path fill-rule="evenodd" clip-rule="evenodd" d="M58.1219 85.4382C58.1219 85.4382 57.874 85.4475 57.874 86.0501C57.874 86.6527 58.5521 87.4041 59.2268 87.8461C59.9015 88.288 61.8985 88.785 65.0287 88.4883C66.6016 88.188 66.8032 86.8258 66.8032 86.8258L58.1219 85.4382Z" fill="#092965"/>
<rect x="64.819" y="69.4082" width="0.992126" height="0.330516" rx="0.165258" fill="#30334F"/>
<path fill-rule="evenodd" clip-rule="evenodd" d="M64.9871 68.1277C64.9871 68.1277 65.7636 69.5836 65.7636 70.179C65.7636 70.7745 66.1406 70.7503 66.1406 71.5326C66.1406 72.3148 66.1831 73.9204 65.7636 74.306C65.3442 74.6915 64.1789 74.5101 64.1789 74.5101C64.1789 74.5101 63.9948 75.7374 64.1789 76.0386C64.363 76.3399 64.6592 76.5143 64.6592 76.5143C64.6592 76.5143 62.3538 76.3662 61.7033 76.0386C61.0527 75.7111 61.2128 74.8801 61.2128 74.8801C61.2128 74.8801 61.4512 74.911 61.4512 74.7105C61.4512 74.5101 61.4512 73.1689 61.4512 73.1689C61.4512 73.1689 61.2108 69.7641 62.0333 68.8368C62.8558 67.9095 64.9871 68.1277 64.9871 68.1277Z" fill="#AC6A5A"/>
<path fill-rule="evenodd" clip-rule="evenodd" d="M65.1607 76.8139C65.1607 76.8139 66.9671 77.4181 67.5362 78.0306C68.0364 78.5689 66.5917 84.6774 66.5917 84.6774C66.5917 84.6774 66.9663 85.6319 67.1045 86.5136C67.2427 87.3953 66.8092 87.5571 66.8092 87.5571C66.8092 87.5571 63.8462 88.6701 60.0052 87.4413C60.0052 87.4413 58.3277 86.7754 57.8683 85.6785C57.8683 85.6785 57.531 85.1408 58.2006 82.7815C57.8661 80.4559 57.0069 76.094 57.5581 74.8724C57.9073 74.0148 61.2044 74.6095 61.2044 74.6095L65.1607 76.8139Z" fill="url(#paint4_linear)"/>
<mask id="mask2" mask-type="alpha" maskUnits="userSpaceOnUse" x="57" y="74" width="11" height="15">
<path fill-rule="evenodd" clip-rule="evenodd" d="M65.1607 76.8139C65.1607 76.8139 66.9671 77.4181 67.5362 78.0306C68.0364 78.5689 66.5917 84.6774 66.5917 84.6774C66.5917 84.6774 66.9663 85.6319 67.1045 86.5136C67.2427 87.3953 66.8092 87.5571 66.8092 87.5571C66.8092 87.5571 63.8462 88.6701 60.0052 87.4413C60.0052 87.4413 58.3277 86.7754 57.8683 85.6785C57.8683 85.6785 57.531 85.1408 58.2006 82.7815C57.8661 80.4559 57.0069 76.094 57.5581 74.8724C57.9073 74.0148 61.2044 74.6095 61.2044 74.6095L65.1607 76.8139Z" fill="white"/>
</mask>
<g mask="url(#mask2)">
<path fill-rule="evenodd" clip-rule="evenodd" d="M65.707 79.1233C65.707 79.1233 65.3255 81.0686 67.1085 83.6649C68.8915 86.2613 66.4714 85.9404 65.3049 83.6649C64.1384 81.3894 65.707 79.1233 65.707 79.1233Z" fill="#D8D8D8"/>
<path d="M57.3781 76.9802C57.3781 76.9802 59.924 80.6221 66.9703 81.226" stroke="#D8D8D8" stroke-width="1.02643"/>
</g>
<path fill-rule="evenodd" clip-rule="evenodd" d="M63.0737 71.628C62.7614 71.628 62.244 71.6908 62.6589 72.718C63.0737 73.7453 61.9083 74.3398 61.5422 74.1972C61.1762 74.0546 59.9728 72.2369 59.3304 71.7552C58.688 71.2736 59.4263 69.8803 59.4263 69.8803C59.4263 69.8803 58.8771 68.45 60.176 67.8163C61.4749 67.1826 63.5757 66.069 64.4799 66.2991C65.384 66.5293 65.1527 66.9538 65.1527 66.9538C65.1527 66.9538 66.6058 67.6287 65.8502 68.3538C65.0946 69.0788 63.7375 69.3431 63.7375 69.3431C63.7375 69.3431 64.6436 69.8414 64.4799 70.4588C64.3161 71.0761 64.1465 71.7983 64.4799 72.3088C64.8132 72.8192 66.0798 72.7738 66.1991 72.3088C66.3558 72.6627 66.3143 73.7758 66.2567 74.0354C66.1991 74.2951 66.4161 74.6891 65.2414 74.6891C64.0668 74.6891 64.5126 73.5495 64.1522 72.718C63.7917 71.8866 63.386 71.628 63.0737 71.628Z" fill="#30334F"/>
<mask id="mask3" mask-type="alpha" maskUnits="userSpaceOnUse" x="59" y="66" width="8" height="9">
<path fill-rule="evenodd" clip-rule="evenodd" d="M63.0737 71.628C62.7614 71.628 62.244 71.6908 62.6589 72.718C63.0737 73.7453 61.9083 74.3398 61.5422 74.1972C61.1762 74.0546 59.9728 72.2369 59.3304 71.7552C58.688 71.2736 59.4263 69.8803 59.4263 69.8803C59.4263 69.8803 58.8771 68.45 60.176 67.8163C61.4749 67.1826 63.5757 66.069 64.4799 66.2991C65.384 66.5293 65.1527 66.9538 65.1527 66.9538C65.1527 66.9538 66.6058 67.6287 65.8502 68.3538C65.0946 69.0788 63.7375 69.3431 63.7375 69.3431C63.7375 69.3431 64.6436 69.8414 64.4799 70.4588C64.3161 71.0761 64.1465 71.7983 64.4799 72.3088C64.8132 72.8192 66.0798 72.7738 66.1991 72.3088C66.3558 72.6627 66.3143 73.7758 66.2567 74.0354C66.1991 74.2951 66.4161 74.6891 65.2414 74.6891C64.0668 74.6891 64.5126 73.5495 64.1522 72.718C63.7917 71.8866 63.386 71.628 63.0737 71.628Z" fill="white"/>
</mask>
<g mask="url(#mask3)">
<path fill-rule="evenodd" clip-rule="evenodd" d="M63.7375 69.3431C63.7375 69.3431 60.7664 69.7373 62.67 72.9029C64.5735 76.0686 63.3805 72.2611 64.3562 71.8724C65.3319 71.4838 64.3562 69.1376 64.3562 69.1376L63.7375 69.3431Z" fill="url(#paint5_linear)"/>
</g>
<path fill-rule="evenodd" clip-rule="evenodd" d="M61.3711 74.366C61.3711 74.366 61.3024 74.681 62.3538 74.9607C63.4052 75.2405 64.2634 75.5841 64.7168 76.2581L65.1497 76.8448C65.1497 76.8448 61.7347 75.9587 61.1537 75.4884C60.5727 75.0182 61.0053 74.7205 61.0053 74.7205L61.3711 74.366Z" fill="#D8D8D8"/>
<g style="mix-blend-mode:multiply">
<path fill-rule="evenodd" clip-rule="evenodd" d="M61.8425 90.7264V91.5693C61.8425 91.5693 63.431 92.1038 65.1496 91.7282V91.0048C65.1496 91.0048 63.9661 91.0537 63.3849 91.0048C62.8037 90.9559 61.8425 90.7264 61.8425 90.7264Z" fill="#828EB7"/>
</g>
<path fill-rule="evenodd" clip-rule="evenodd" d="M62.3386 99.2342L62.0757 94.8955C62.0757 94.8955 61.4429 94.7892 61.0317 94.5467C60.6205 94.3043 60.0968 93.4003 60.0968 93.4003C60.0968 93.4003 59.925 96.0596 60.392 97.8957C60.8591 99.7317 61.6614 101.634 61.5678 102.625L62.3386 99.2342Z" fill="#546CB8"/>
<path d="M66.4725 69.9039L63.1654 71.3913" stroke="#30334F" stroke-width="1.02643"/>
<path fill-rule="evenodd" clip-rule="evenodd" d="M81.8231 82.3543C82.1223 82.1498 82.7581 81.4057 83.2828 81.9303C84.0602 81.713 84.9007 81.5675 85.273 81.5506C85.9077 81.5219 86.5297 81.7627 86.847 81.763C87.1643 81.7633 86.8271 82.3021 86.4188 82.2311C86.0105 82.1602 85.2932 82.0952 85.0876 82.1641C84.882 82.233 84.4884 82.4179 84.4884 82.4179C84.4884 82.4179 85.3085 82.4458 85.5264 82.5862C85.7443 82.7267 85.8304 83.395 86.01 83.6423C86.1896 83.8896 85.7567 84.0116 85.6298 83.8201C85.6298 83.8201 85.6243 84.0822 85.627 84.2008C85.6305 84.3536 85.6697 84.5319 85.6119 84.5593C85.458 84.6324 85.1314 84.5078 85.1448 84.1227C85.1448 84.1227 85.013 84.2925 84.9091 84.5146C84.8052 84.7368 84.543 84.5089 84.5708 84.2822C84.5986 84.0556 84.6783 83.8919 84.6783 83.8919C84.6783 83.8919 83.4491 84.6046 82.9326 84.6889C82.4161 84.7731 81.6845 84.4105 81.6845 84.4105L77.7846 86.4897L76.9793 84.731C76.9793 84.731 81.0993 82.8491 81.8231 82.3543Z" fill="#AC6A5A"/>
<mask id="mask4" mask-type="alpha" maskUnits="userSpaceOnUse" x="76" y="80" width="12" height="8">
<path fill-rule="evenodd" clip-rule="evenodd" d="M81.8231 82.3543C82.1223 82.1498 82.7581 81.4057 83.2828 81.9303C84.0602 81.713 84.9007 81.5675 85.273 81.5506C85.9077 81.5219 86.5297 81.7627 86.847 81.763C87.1643 81.7633 86.8271 82.3021 86.4188 82.2311C86.0105 82.1602 85.2932 82.0952 85.0876 82.1641C84.882 82.233 84.4884 82.4179 84.4884 82.4179C84.4884 82.4179 85.3085 82.4458 85.5264 82.5862C85.7443 82.7267 85.8304 83.395 86.01 83.6423C86.1896 83.8896 85.7567 84.0116 85.6298 83.8201C85.6298 83.8201 85.6243 84.0822 85.627 84.2008C85.6305 84.3536 85.6697 84.5319 85.6119 84.5593C85.458 84.6324 85.1314 84.5078 85.1448 84.1227C85.1448 84.1227 85.013 84.2925 84.9091 84.5146C84.8052 84.7368 84.543 84.5089 84.5708 84.2822C84.5986 84.0556 84.6783 83.8919 84.6783 83.8919C84.6783 83.8919 83.4491 84.6046 82.9326 84.6889C82.4161 84.7731 81.6845 84.4105 81.6845 84.4105L77.7846 86.4897L76.9793 84.731C76.9793 84.731 81.0993 82.8491 81.8231 82.3543Z" fill="white"/>
</mask>
<g mask="url(#mask4)">
<path fill-rule="evenodd" clip-rule="evenodd" d="M85.6297 83.8201C85.6297 83.8201 85.6337 82.8537 85.2328 82.7594C84.832 82.6652 84.6048 82.6238 84.6048 82.6238C84.6048 82.6238 85.3346 82.5048 85.5054 82.7344C85.5818 82.8371 85.8803 83.6001 85.8915 83.8909C85.7126 83.9441 85.6297 83.8201 85.6297 83.8201Z" fill="#7D4436"/>
<path fill-rule="evenodd" clip-rule="evenodd" d="M85.1428 84.1151C85.1428 84.1151 85.4734 83.4388 85.3374 83.2311C85.2014 83.0235 84.6111 82.9359 84.6111 82.9359C84.6111 82.9359 85.1039 82.7896 85.3557 83.0818C85.4898 83.2374 85.4308 83.6132 85.3641 84.1422C85.3473 84.2755 85.3873 84.5442 85.3873 84.5442C85.3873 84.5442 85.2601 84.4943 85.1998 84.3519C85.1394 84.2094 85.1428 84.1151 85.1428 84.1151Z" fill="#7D4436"/>
<path fill-rule="evenodd" clip-rule="evenodd" d="M83.2829 81.9304L82.7029 82.0539L83.2281 81.5737L83.2829 81.9304Z" fill="#7D4436"/>
</g>
<path fill-rule="evenodd" clip-rule="evenodd" d="M67.656 78.2257C67.0124 77.3468 66.4341 77.2451 65.6543 78.2227C64.8745 79.2002 65.2093 81.1074 65.7865 82.555C66.3637 84.0026 68.8118 86.9538 70.4791 88.1159C72.1464 89.278 79.842 85.7562 80.7166 85.5039C81.5912 85.2516 80.5178 82.9919 80.5178 82.9919L71.6054 84.9796C71.6054 84.9796 68.2995 79.1046 67.656 78.2257Z" fill="#F0F0F0"/>
<path d="M59.9615 89.4044C59.9615 89.4044 58.6561 94.0951 62.0758 94.8955C62.0758 94.8955 60.7219 103.327 60.2064 105.687C59.6908 108.047 58.7559 115.648 58.7559 115.648" stroke="#1C478A" stroke-width="1.02643"/>
<path d="M63.8268 76.5143C63.8268 76.5143 66.3665 77.4569 66.8223 77.9233C67.278 78.3897 71.2439 85.6035 71.2439 85.6035L80.5276 83.2791" stroke="#D8D8D8" stroke-width="1.02643"/>
<path fill-rule="evenodd" clip-rule="evenodd" d="M63.533 71.8352C63.533 71.8352 63.0293 71.2433 62.662 71.4406C62.2947 71.6379 62.1713 72.16 62.662 72.8328C63.1527 73.5057 63.6615 72.9755 63.6615 72.9755L63.533 71.8352Z" fill="#AC6A5A"/>
<path fill-rule="evenodd" clip-rule="evenodd" d="M63.4319 72.1292C63.4319 72.1292 63.1801 71.8064 62.9964 71.914C62.8128 72.0216 62.7511 72.3064 62.9964 72.6734C63.2418 73.0404 63.4961 72.7512 63.4961 72.7512L63.4319 72.1292Z" fill="url(#paint6_linear)"/>
<path fill-rule="evenodd" clip-rule="evenodd" d="M36.8778 18.0301C36.8778 10.0107 28.2018 4.99402 21.2515 8.99466C11.5547 14.5762 5.57802 24.9125 5.57802 36.101V73.8414C5.57802 81.8608 14.2541 86.8775 21.2043 82.8768C30.9011 77.2952 36.8778 66.959 36.8778 55.7705V18.0301Z" fill="#A9AAC4"/>
<path fill-rule="evenodd" clip-rule="evenodd" d="M37.4065 18.2943C37.4065 10.2749 28.7304 5.25824 21.7802 9.25888C12.0834 14.8405 6.10671 25.1768 6.10671 36.3653V74.1056C6.10671 82.125 14.7828 87.1417 21.733 83.1411C31.4298 77.5595 37.4065 67.2232 37.4065 56.0347V18.2943Z" fill="#F9F9F9"/>
<mask id="mask5" mask-type="alpha" maskUnits="userSpaceOnUse" x="6" y="7" width="32" height="78">
<path fill-rule="evenodd" clip-rule="evenodd" d="M37.4065 18.2943C37.4065 10.2749 28.7304 5.25824 21.7802 9.25888C12.0834 14.8405 6.10671 25.1768 6.10671 36.3653V74.1056C6.10671 82.125 14.7828 87.1417 21.733 83.1411C31.4298 77.5595 37.4065 67.2232 37.4065 56.0347V18.2943Z" fill="white"/>
</mask>
<g mask="url(#mask5)">
<path opacity="0.3" fill-rule="evenodd" clip-rule="evenodd" d="M49.3025 50.2024L-1.58609 78.9692V108.099L49.3025 79.3326V50.2024Z" fill="#BBCCF3"/>
<path fill-rule="evenodd" clip-rule="evenodd" d="M22.5201 77.4738C21.3196 77.0371 20.9435 75.0434 21.6801 73.0208C22.4166 70.9982 23.9869 69.7126 25.1873 70.1493C26.3878 70.586 26.7639 72.5797 26.0273 74.6023C25.2908 76.6249 23.7205 77.9105 22.5201 77.4738Z" fill="#586DFF"/>
<path fill-rule="evenodd" clip-rule="evenodd" d="M22.0354 78.6278C20.4576 78.0539 19.968 75.4209 20.9417 72.747C21.9154 70.073 23.9838 68.3706 25.5616 68.9446C27.1393 69.5185 27.6289 72.1515 26.6552 74.8255C25.6815 77.4994 23.6131 79.2018 22.0354 78.6278Z" stroke="#3A6AB1" stroke-width="0.6336"/>
<path opacity="0.3" fill-rule="evenodd" clip-rule="evenodd" d="M43.3545 -21.7984L-7.53408 7.034V36.2306L43.3545 7.39824V-21.7984Z" fill="#BBCCF3"/>
</g>
<path fill-rule="evenodd" clip-rule="evenodd" d="M16.6545 37.444C16.6545 33.5434 12.4543 31.0864 9.05428 32.9981L7.92702 33.6319C3.10763 36.3417 0.124922 41.4406 0.124922 46.9696V58.8242C0.124922 62.7248 4.32519 65.1818 7.72518 63.2701L8.85244 62.6362C13.6718 59.9265 16.6545 54.8275 16.6545 49.2986V37.444Z" fill="#DDE7F9"/>
<path fill-rule="evenodd" clip-rule="evenodd" d="M5.95095 40.23L11.4836 37.0468L11.4745 36.4922L5.97961 39.6537L5.95095 40.23ZM5.95095 42.1805L10.8352 39.3694L10.8706 38.816L5.96957 41.6368L5.95095 42.1805ZM3.34351 43.5026V40.9537L5.20532 39.8834V42.429L3.34351 43.5026Z" fill="white"/>
<path fill-rule="evenodd" clip-rule="evenodd" d="M5.95095 46.8403L13.7245 42.3678L13.7206 41.8102L5.97961 46.264L5.95095 46.8403ZM5.95095 48.7909L12.9879 44.7408L13.0065 44.197L5.96957 48.2471L5.95095 48.7909ZM3.34351 50.1129V47.564L5.20532 46.4937V49.0393L3.34351 50.1129Z" fill="white"/>
<path fill-rule="evenodd" clip-rule="evenodd" d="M6.00761 52.1869L10.7391 49.4646L10.7191 48.9163L6.03626 51.6105L6.00761 52.1869ZM6.00764 54.1374L13.0446 50.0873L13.0632 49.5435L6.02626 53.5936L6.00764 54.1374ZM3.40015 55.4595V52.9106L5.26196 51.8403V54.3859L3.40015 55.4595Z" fill="white"/>
<path fill-rule="evenodd" clip-rule="evenodd" d="M5.95095 58.2431L13.7245 53.7706L13.7206 53.213L5.97961 57.6668L5.95095 58.2431ZM5.95095 60.1936L9.91429 57.9125L9.92585 57.3728L5.96957 59.6499L5.95095 60.1936ZM3.34351 61.5156V58.9667L5.20532 57.8964V60.442L3.34351 61.5156Z" fill="white"/>
<path fill-rule="evenodd" clip-rule="evenodd" d="M36.53 20.0811C38.734 18.7932 41.504 20.3828 41.504 22.9355C41.504 26.4668 39.6264 29.7318 36.5742 31.5078L33.2514 33.4414C31.049 34.723 28.2862 33.1341 28.2862 30.586C28.2862 27.0637 30.1557 23.806 33.1968 22.0289L36.53 20.0811Z" fill="#80B1FF"/>
<mask id="mask6" mask-type="alpha" maskUnits="userSpaceOnUse" x="28" y="19" width="14" height="15">
<path fill-rule="evenodd" clip-rule="evenodd" d="M36.53 20.0811C38.734 18.7932 41.504 20.3828 41.504 22.9355C41.504 26.4668 39.6264 29.7318 36.5742 31.5078L33.2514 33.4414C31.049 34.723 28.2862 33.1341 28.2862 30.586C28.2862 27.0637 30.1557 23.806 33.1968 22.0289L36.53 20.0811Z" fill="white"/>
</mask>
<g mask="url(#mask6)">
<path fill-rule="evenodd" clip-rule="evenodd" d="M40.6714 26.9383L40.5616 26.8229C39.4254 25.6275 37.4526 25.8935 36.6735 27.347L36.1645 26.9946C34.4854 25.832 32.1611 26.5386 31.4131 28.4391L29.3727 33.6239L40.6714 26.9383Z" fill="white"/>
<path fill-rule="evenodd" clip-rule="evenodd" d="M36.1388 24.5402C35.7843 24.3518 35.7192 23.7812 35.9934 23.2659C36.2676 22.7505 36.7772 22.4854 37.1317 22.6738C37.4862 22.8622 37.5513 23.4327 37.2772 23.9481C37.003 24.4635 36.4933 24.7286 36.1388 24.5402Z" fill="white"/>
</g>
<path opacity="0.211021" fill-rule="evenodd" clip-rule="evenodd" d="M41.8347 114.193C45.8529 114.193 49.1103 112.343 49.1103 110.062C49.1103 107.78 45.8529 105.93 41.8347 105.93C37.8165 105.93 34.5591 107.78 34.5591 110.062C34.5591 112.343 37.8165 114.193 41.8347 114.193Z" fill="url(#paint7_linear)"/>
<path fill-rule="evenodd" clip-rule="evenodd" d="M44.1759 94.7499L43.9999 95.9823C43.9999 95.9823 44.6976 98.0696 44.9162 100.702C45.1348 103.335 44.7771 107.889 45.1967 108.717C45.6164 109.546 45.3186 110.121 44.9641 110.272C44.6095 110.424 44.1386 110.05 43.0787 109.195C42.0187 108.339 40.6865 107.834 40.8953 107.367C41.1041 106.899 43.001 107.829 43.2226 107.489C43.4442 107.149 41.3655 96.5567 41.4988 95.8512C41.6321 95.1458 41.8356 92.9402 41.8356 92.9402L44.1759 94.7499Z" fill="#FFBBB0"/>
<path fill-rule="evenodd" clip-rule="evenodd" d="M43.1433 95.1935L42.8645 96.8184C42.8645 96.8184 43.3316 100.173 43.5351 102.284C43.7386 104.394 44.1214 109.52 44.1214 109.52L43.608 109.781L41.5449 95.4912L43.1433 95.1935Z" fill="#F29E98"/>
<path fill-rule="evenodd" clip-rule="evenodd" d="M45.4054 108.265C45.4054 108.265 45.1422 108.075 44.9862 108.243C44.8302 108.41 43.8255 108.805 43.168 108.596C42.5105 108.387 41.7399 107.754 41.7516 107.531C41.7632 107.308 42.7197 106.879 42.7197 106.879C42.7197 106.879 41.4738 106.513 40.9897 106.788C40.5056 107.063 40.9836 108.066 41.4267 108.297C41.8698 108.528 44.2028 110.199 44.3681 110.208C44.5334 110.216 44.8105 111.595 44.8105 111.595C44.8105 111.595 44.9909 111.689 45.1635 111.614C45.1635 111.614 45.6102 109.917 45.6435 109.282C45.6768 108.646 45.4054 108.265 45.4054 108.265Z" fill="#181E36"/>
<path fill-rule="evenodd" clip-rule="evenodd" d="M42.1952 94.4626L42.0083 96.4213C42.0083 96.4213 42.7375 99.1265 43.0187 101.045C43.2999 102.964 43.5407 108.19 43.7312 108.676C43.9218 109.163 44.1151 110.436 43.5451 110.719C43.1822 110.899 43.5162 110.546 42.5227 110.51C41.9557 110.49 40.0163 111.16 39.4551 111.131C37.9102 111.05 37.9279 110.583 38.168 110.362C38.2928 110.247 39.4555 109.729 39.4555 109.729C39.4555 109.729 40.997 109.303 41.2036 109.031C41.6341 108.464 41.7256 107.71 41.6162 106.851C41.5068 105.992 39.042 96.8646 38.9418 96.0295C38.8416 95.1945 38.8508 92.8957 38.8508 92.8957L42.1952 94.4626Z" fill="#FFBBB0"/>
<rect width="0.826772" height="0.330516" rx="0.165258" transform="matrix(-0.99863 -0.052336 -0.052336 0.99863 38.8741 65.2974)" fill="#30334F"/>
<path fill-rule="evenodd" clip-rule="evenodd" d="M38.5966 64.2224C38.5966 64.2224 38.0427 65.2813 38.1824 65.7854C38.3221 66.2895 38.1605 66.8316 37.8377 67.016C37.5149 67.2005 38.0927 67.4968 38.0927 67.4968C38.0927 67.4968 38.1052 68.1097 38.2912 68.6173C38.4772 69.125 38.41 69.5191 39.0031 69.5502C39.5962 69.5812 40.2843 69.4978 40.2843 69.4978C40.2843 69.4978 40.7067 70.078 40.5405 70.4346C40.3743 70.7912 39.5332 70.9701 39.6949 71.205C39.8566 71.4398 44.1687 72.1112 44.4172 71.7544C44.6657 71.3977 42.7148 70.5121 42.7867 69.1418C42.8585 67.7715 43.0083 63.3825 41.2376 63.2897C39.4668 63.1969 38.5966 64.2224 38.5966 64.2224Z" fill="#FFBBB0"/>
<path fill-rule="evenodd" clip-rule="evenodd" d="M40.0992 67.1163C40.0992 67.1163 40.3648 66.8608 40.5435 66.96C40.7222 67.0591 40.7714 67.2993 40.5104 67.5919C40.2494 67.8845 40.008 67.6305 40.008 67.6305L40.0992 67.1163Z" fill="url(#paint8_linear)"/>
<path fill-rule="evenodd" clip-rule="evenodd" d="M38.9176 80.8984C38.9176 80.8984 38.028 85.3772 38.0748 88.3002C38.1215 91.2232 38.5174 95.1588 38.5174 95.1588C38.5174 95.1588 39.699 95.9265 41.4539 96.0185C43.2089 96.1105 44.4415 95.2364 44.4415 95.2364C44.4415 95.2364 45.3989 90.221 46.1418 89.0975C46.8846 87.974 47.8137 85.9452 47.2907 83.5447C46.7677 81.1442 45.3807 79.8213 45.3807 79.8213C45.3807 79.8213 43.5332 79.1787 42.65 79.4053C41.7667 79.6319 38.9176 80.8984 38.9176 80.8984Z" fill="url(#paint9_linear)"/>
<mask id="mask7" mask-type="alpha" maskUnits="userSpaceOnUse" x="38" y="79" width="10" height="18">
<path fill-rule="evenodd" clip-rule="evenodd" d="M38.9176 80.8984C38.9176 80.8984 38.028 85.3772 38.0748 88.3002C38.1215 91.2232 38.5174 95.1588 38.5174 95.1588C38.5174 95.1588 39.699 95.9265 41.4539 96.0185C43.2089 96.1105 44.4415 95.2364 44.4415 95.2364C44.4415 95.2364 45.3989 90.221 46.1418 89.0975C46.8846 87.974 47.8137 85.9452 47.2907 83.5447C46.7677 81.1442 45.3807 79.8213 45.3807 79.8213C45.3807 79.8213 43.5332 79.1787 42.65 79.4053C41.7667 79.6319 38.9176 80.8984 38.9176 80.8984Z" fill="white"/>
</mask>
<g mask="url(#mask7)">
<path d="M39.6557 81.3006C39.6557 81.3006 39.0536 85.3124 39.162 86.984C39.2703 88.6557 39.1345 95.5967 39.1345 95.5967" stroke="#1C478A" stroke-width="0.85536"/>
</g>
<path fill-rule="evenodd" clip-rule="evenodd" d="M45.3586 79.8228C45.3586 79.8228 45.4642 81.0349 43.3837 81.6383C41.3032 82.2417 38.8092 81.8193 38.8574 80.8998C38.9056 79.9803 45.3586 79.8228 45.3586 79.8228Z" fill="#092965"/>
<path fill-rule="evenodd" clip-rule="evenodd" d="M39.3044 71.9458C39.3044 71.9458 39.7466 70.8063 40.4139 70.4497C41.0812 70.0931 43.1608 69.1537 43.3543 70.4968L39.3044 71.9458Z" fill="#D8D8D8"/>
<path fill-rule="evenodd" clip-rule="evenodd" d="M38.7902 64.6922C38.7902 64.6922 38.3296 63.6697 38.5405 62.9173C38.7513 62.1649 39.5578 61.2253 40.8619 61.6783C42.5173 61.4971 44.4568 62.2103 44.841 64.5397C45.2252 66.869 44.6558 68.963 42.9739 69.236C41.292 69.5091 40.4327 68.1729 40.4327 68.1729C40.4327 68.1729 41.2197 67.5608 40.9191 66.9424C40.6184 66.3241 39.8758 66.8213 39.8758 66.8213L38.7902 64.6922Z" fill="#30334F"/>
<path fill-rule="evenodd" clip-rule="evenodd" d="M44.6157 70.6738C44.6157 70.6738 45.7025 70.8151 46.0775 73.133C46.4524 75.4508 47.6999 78.0362 46.4488 78.8646C45.1976 79.693 43.9822 76.1046 43.9822 76.1046L44.6157 70.6738Z" fill="#F0F0F0"/>
<mask id="mask8" mask-type="alpha" maskUnits="userSpaceOnUse" x="43" y="70" width="5" height="10">
<path fill-rule="evenodd" clip-rule="evenodd" d="M44.6157 70.6738C44.6157 70.6738 45.7025 70.8151 46.0775 73.133C46.4524 75.4508 47.6999 78.0362 46.4488 78.8646C45.1976 79.693 43.9822 76.1046 43.9822 76.1046L44.6157 70.6738Z" fill="white"/>
</mask>
<g mask="url(#mask8)">
<path fill-rule="evenodd" clip-rule="evenodd" d="M44.3368 70.3696C44.3368 70.3696 45.4236 70.5109 45.7986 72.8288C46.1735 75.1466 47.421 77.732 46.1698 78.5604C44.9187 79.3888 43.7032 75.8004 43.7032 75.8004L44.3368 70.3696Z" fill="#D8D8D8"/>
</g>
<path fill-rule="evenodd" clip-rule="evenodd" d="M45.4067 72.2182C45.277 71.9701 45.0774 70.8264 44.4133 70.575C43.5803 70.2598 42.3788 70.2377 41.6573 70.4306C40.3163 70.7892 38.1135 71.9289 37.9018 72.2867C37.69 72.6445 37.3378 74.0882 37.1355 74.8872C36.9332 75.6861 36.4467 77.746 38.0672 77.7184C38.0672 77.7184 38.4739 78.5416 38.4363 79.2595C38.3987 79.9773 38.2149 80.3866 38.8276 80.9687C39.4402 81.5508 42.113 81.5558 43.3087 81.2036C44.5044 80.8513 45.1916 80.0745 45.5365 79.6316C45.8814 79.1887 45.0517 77.2842 45.0517 77.2842C45.0517 77.2842 45.6991 72.7776 45.4067 72.2182Z" fill="url(#paint10_linear)"/>
<mask id="mask9" mask-type="alpha" maskUnits="userSpaceOnUse" x="36" y="70" width="11" height="12">
<path fill-rule="evenodd" clip-rule="evenodd" d="M45.4067 72.2182C45.277 71.9701 45.0774 70.8264 44.4133 70.575C43.5803 70.2598 42.3788 70.2377 41.6573 70.4306C40.3163 70.7892 38.1135 71.9289 37.9018 72.2867C37.69 72.6445 37.3378 74.0882 37.1355 74.8872C36.9332 75.6861 36.4467 77.746 38.0672 77.7184C38.0672 77.7184 38.4739 78.5416 38.4363 79.2595C38.3987 79.9773 38.2149 80.3866 38.8276 80.9687C39.4402 81.5508 42.113 81.5558 43.3087 81.2036C44.5044 80.8513 45.1916 80.0745 45.5365 79.6316C45.8814 79.1887 45.0517 77.2842 45.0517 77.2842C45.0517 77.2842 45.6991 72.7776 45.4067 72.2182Z" fill="white"/>
</mask>
<g mask="url(#mask9)">
<path fill-rule="evenodd" clip-rule="evenodd" d="M38.1325 72.9841C38.1325 72.9841 38.7909 76.5504 37.2865 78.31C35.7821 80.0697 37.7634 80.0273 37.7634 80.0273C37.7634 80.0273 38.5447 78.1494 38.728 76.4914C38.9113 74.8333 38.1325 72.9841 38.1325 72.9841Z" fill="#D8D8D8"/>
</g>
<path fill-rule="evenodd" clip-rule="evenodd" d="M28.5683 74.9183C28.3304 74.6915 27.8737 73.9372 27.3168 74.3169C26.6491 74.004 25.9129 73.7444 25.5793 73.6714C25.0106 73.5468 24.4108 73.6615 24.1241 73.6121C23.8374 73.5627 24.0568 74.0897 24.4368 74.0911C24.8169 74.0925 25.475 74.1475 25.6498 74.2403C25.8246 74.3331 26.1509 74.5574 26.1509 74.5574C26.1509 74.5574 25.4057 74.4537 25.1867 74.5432C24.9677 74.6327 24.7844 75.2075 24.5831 75.397C24.3817 75.5865 24.7535 75.7616 24.8984 75.6129C24.8984 75.6129 24.862 75.8445 24.8408 75.9484C24.8135 76.0823 24.7499 76.2331 24.7977 76.2663C24.9252 76.3547 25.2398 76.2961 25.2886 75.9551C25.2886 75.9551 25.3808 76.1251 25.4396 76.3369C25.4983 76.5487 25.7712 76.3891 25.7819 76.1853C25.7925 75.9815 25.7464 75.8249 25.7464 75.8249C25.7464 75.8249 26.744 76.6445 27.1972 76.7994C27.6504 76.9543 28.3686 76.7496 28.3686 76.7496L31.5624 79.1895L32.5677 77.7676C32.5677 77.7676 29.1439 75.467 28.5683 74.9183Z" fill="#FFBBB0"/>
<mask id="mask10" mask-type="alpha" maskUnits="userSpaceOnUse" x="23" y="73" width="10" height="7">
<path fill-rule="evenodd" clip-rule="evenodd" d="M28.5683 74.9183C28.3304 74.6915 27.8737 73.9372 27.3168 74.3169C26.6491 74.004 25.9129 73.7444 25.5793 73.6714C25.0106 73.5468 24.4108 73.6615 24.1241 73.6121C23.8374 73.5627 24.0568 74.0897 24.4368 74.0911C24.8169 74.0925 25.475 74.1475 25.6498 74.2403C25.8246 74.3331 26.1509 74.5574 26.1509 74.5574C26.1509 74.5574 25.4057 74.4537 25.1867 74.5432C24.9677 74.6327 24.7844 75.2075 24.5831 75.397C24.3817 75.5865 24.7535 75.7616 24.8984 75.6129C24.8984 75.6129 24.862 75.8445 24.8408 75.9484C24.8135 76.0823 24.7499 76.2331 24.7977 76.2663C24.9252 76.3547 25.2398 76.2961 25.2886 75.9551C25.2886 75.9551 25.3808 76.1251 25.4396 76.3369C25.4983 76.5487 25.7712 76.3891 25.7819 76.1853C25.7925 75.9815 25.7464 75.8249 25.7464 75.8249C25.7464 75.8249 26.744 76.6445 27.1972 76.7994C27.6504 76.9543 28.3686 76.7496 28.3686 76.7496L31.5624 79.1895L32.5677 77.7676C32.5677 77.7676 29.1439 75.467 28.5683 74.9183Z" fill="white"/>
</mask>
<g mask="url(#mask10)">
<path fill-rule="evenodd" clip-rule="evenodd" d="M24.8984 75.6129C24.8984 75.6129 25.0476 74.7618 25.4246 74.7415C25.8015 74.7213 26.0132 74.7204 26.0132 74.7204C26.0132 74.7204 25.3729 74.5015 25.1823 74.6769C25.0971 74.7553 24.7069 75.3801 24.6509 75.6343C24.804 75.7091 24.8984 75.6129 24.8984 75.6129Z" fill="#F29E98"/>
<path fill-rule="evenodd" clip-rule="evenodd" d="M25.2916 75.9486C25.2916 75.9486 25.0999 75.3017 25.2556 75.1403C25.4112 74.9788 25.9582 74.994 25.9582 74.994C25.9582 74.994 25.5362 74.7882 25.2626 75.006C25.1169 75.122 25.1108 75.4619 25.0874 75.9379C25.0816 76.0579 25.0029 76.2881 25.0029 76.2881C25.0029 76.2881 25.1257 76.2641 25.2027 76.1481C25.2797 76.0322 25.2916 75.9486 25.2916 75.9486Z" fill="#F29E98"/>
<path fill-rule="evenodd" clip-rule="evenodd" d="M27.3168 74.3169L27.8211 74.5163L27.4227 74.0115L27.3168 74.3169Z" fill="#F29E98"/>
</g>
<path fill-rule="evenodd" clip-rule="evenodd" d="M30.4582 76.1414C30.4493 76.1409 30.0185 75.4822 29.3349 75.7644C28.6514 76.0467 28.2536 77.2206 29.0081 77.4611C29.7626 77.7015 30.4671 76.1418 30.4582 76.1414Z" fill="#D8D8D8"/>
<path fill-rule="evenodd" clip-rule="evenodd" d="M38.2007 72.1088C38.2007 72.1088 36.9222 72.8159 36.0964 75.2663C35.2705 77.7167 34.7119 78.2934 34.7119 78.2934C34.7119 78.2934 31.3358 76.8458 30.7457 76.1379C30.1556 75.4301 29.409 76.1551 29.1541 76.6687C28.8991 77.1823 28.5294 77.7751 29.856 78.7822C31.1826 79.7893 35.0422 81.7817 36.1803 80.8258C37.3184 79.8698 38.8493 75.7719 38.9064 74.6814C38.9636 73.591 38.2007 72.1088 38.2007 72.1088Z" fill="#FFFEFE"/>
<mask id="mask11" mask-type="alpha" maskUnits="userSpaceOnUse" x="28" y="71" width="12" height="11">
<path fill-rule="evenodd" clip-rule="evenodd" d="M38.2007 72.1088C38.2007 72.1088 36.9222 72.8159 36.0964 75.2663C35.2705 77.7167 34.7119 78.2934 34.7119 78.2934C34.7119 78.2934 31.3358 76.8458 30.7457 76.1379C30.1556 75.4301 29.409 76.1551 29.1541 76.6687C28.8991 77.1823 28.5294 77.7751 29.856 78.7822C31.1826 79.7893 35.0422 81.7817 36.1803 80.8258C37.3184 79.8698 38.8493 75.7719 38.9064 74.6814C38.9636 73.591 38.2007 72.1088 38.2007 72.1088Z" fill="white"/>
</mask>
<g mask="url(#mask11)">
<path fill-rule="evenodd" clip-rule="evenodd" d="M38.8096 75.3298C38.8096 75.3298 38.5147 75.7837 37.6889 78.234C37.0754 79.5037 36.3267 81.2539 35.0575 80.9674C33.7884 80.6809 32.2215 80.1801 30.6632 79.1622C29.1049 78.1442 29.012 77.4605 28.7328 77.3664C28.4779 77.88 29.6256 81.0029 30.9522 82.01C32.2788 83.017 36.1384 85.0095 37.2765 84.0536C38.4146 83.0976 39.9455 78.9997 40.0026 77.9092C40.0598 76.8187 38.8096 75.3298 38.8096 75.3298Z" fill="#D8D8D8"/>
</g>
<path fill-rule="evenodd" clip-rule="evenodd" d="M44.045 69.0737C42.8594 69.0116 41.9487 68.0007 42.0107 66.8158C42.0728 65.6309 43.0843 64.7208 44.2698 64.7829C45.4554 64.845 46.3662 65.8559 46.3041 67.0408C46.242 68.2257 45.2305 69.1358 44.045 69.0737Z" fill="#181E36"/>
<path fill-rule="evenodd" clip-rule="evenodd" d="M43.8774 108.999C43.7655 108.848 43.6774 108.843 43.3276 109.11C42.9126 109.426 41.3772 109.928 40.7165 110.062C40.2937 110.148 39.242 110.146 39.2843 109.987C39.3289 109.819 39.5159 109.815 39.5636 109.762C39.6567 109.658 37.9534 110.364 37.5672 110.639C37.181 110.913 37.1535 111.438 39.044 111.945C39.2366 111.997 40.3054 111.928 40.6763 111.804C41.5083 111.527 41.8967 110.977 42.7739 110.911L43.0665 112.602C43.0665 112.602 43.3401 112.769 43.5703 112.573C43.5703 112.573 44.025 110.12 44.0462 109.717C44.0673 109.313 43.9359 109.079 43.8774 108.999Z" fill="#181E36"/>
<path fill-rule="evenodd" clip-rule="evenodd" d="M87.2146 123.631C85.7453 124.037 85.3979 125.738 85.6998 127.232C85.9186 128.314 86.1797 129.491 86.3877 130.086C86.6007 130.696 87.1791 131.385 88.766 131.385C90.3529 131.385 91.1406 130.781 91.3144 130.086C91.6487 128.748 92.1303 124.765 92.1303 124.765C92.1303 124.765 90.7816 123.465 88.4939 123.465C88.0084 123.465 87.5832 123.529 87.2146 123.631Z" fill="#DCE9FF"/>
<path fill-rule="evenodd" clip-rule="evenodd" d="M88.7771 126.82C90.629 126.82 92.1302 126.104 92.1302 125.22C92.1302 124.336 90.629 123.62 88.7771 123.62C86.9253 123.62 85.4241 124.336 85.4241 125.22C85.4241 126.104 86.9253 126.82 88.7771 126.82Z" fill="#092965"/>
<mask id="mask12" mask-type="alpha" maskUnits="userSpaceOnUse" x="85" y="123" width="8" height="4">
<path fill-rule="evenodd" clip-rule="evenodd" d="M88.7771 126.82C90.629 126.82 92.1302 126.104 92.1302 125.22C92.1302 124.336 90.629 123.62 88.7771 123.62C86.9253 123.62 85.4241 124.336 85.4241 125.22C85.4241 126.104 86.9253 126.82 88.7771 126.82Z" fill="white"/>
</mask>
<g mask="url(#mask12)">
<path fill-rule="evenodd" clip-rule="evenodd" d="M88.8898 128.581C90.7417 128.581 92.2429 127.686 92.2429 126.582C92.2429 125.477 90.7417 124.582 88.8898 124.582C87.038 124.582 85.5367 125.477 85.5367 126.582C85.5367 127.686 87.038 128.581 88.8898 128.581Z" fill="#80B1FF"/>
</g>
<path d="M85.2111 115.626C85.2111 115.864 86.4022 117.191 87.5561 120.369C88.4045 122.706 88.4045 125.594 88.4045 125.594" stroke="url(#paint11_linear)" stroke-width="2.04714"/>
<path fill-rule="evenodd" clip-rule="evenodd" d="M86.6697 118.23C86.6697 118.23 84.7737 117.396 83.3145 114.882C81.8553 112.367 84.242 111.8 85.7423 113.897C87.2425 115.995 86.6697 118.23 86.6697 118.23Z" fill="url(#paint12_linear)"/>
<path fill-rule="evenodd" clip-rule="evenodd" d="M87.5555 120.261C87.5555 120.261 86.9071 118.295 87.8004 115.529C88.6937 112.762 90.7126 114.155 90.1567 116.673C89.6008 119.191 87.5555 120.261 87.5555 120.261Z" fill="url(#paint13_linear)"/>
<path fill-rule="evenodd" clip-rule="evenodd" d="M88.3553 123.867C88.3553 123.867 87.5563 121.388 88.7198 117.879C89.8834 114.371 92.4254 116.109 91.6922 119.3C90.9589 122.49 88.3553 123.867 88.3553 123.867Z" fill="url(#paint14_linear)"/>
<path fill-rule="evenodd" clip-rule="evenodd" d="M87.7958 121.286C87.7958 121.286 85.7364 121.512 83.2148 120.063C80.6932 118.615 82.4762 116.931 84.8249 117.998C87.1736 119.065 87.7958 121.286 87.7958 121.286Z" fill="url(#paint15_linear)"/>
<path fill-rule="evenodd" clip-rule="evenodd" d="M88.5553 124.748C88.5553 124.748 85.9494 124.786 82.9325 122.649C79.9156 120.511 82.3222 118.59 85.1606 120.223C87.9991 121.857 88.5553 124.748 88.5553 124.748Z" fill="url(#paint16_linear)"/>
<path d="M92.8154 108.456C92.8154 108.863 91.6436 111.129 90.5085 116.555C89.6737 120.545 89.6737 125.477 89.6737 125.477" stroke="url(#paint17_linear)" stroke-width="2.04714"/>
<path fill-rule="evenodd" clip-rule="evenodd" d="M92.0953 110.274C92.0953 110.274 93.9913 109.44 95.4505 106.925C96.9097 104.411 94.523 103.843 93.0227 105.941C91.5225 108.039 92.0953 110.274 92.0953 110.274Z" fill="url(#paint18_linear)"/>
<path fill-rule="evenodd" clip-rule="evenodd" d="M91.4268 112.52C91.4268 112.52 92.0752 110.553 91.1819 107.787C90.2886 105.021 88.2697 106.414 88.8256 108.932C89.3815 111.45 91.4268 112.52 91.4268 112.52Z" fill="url(#paint19_linear)"/>
<path fill-rule="evenodd" clip-rule="evenodd" d="M90.627 116.126C90.627 116.126 91.426 113.646 90.2625 110.138C89.0989 106.629 86.5569 108.368 87.2901 111.558C88.0234 114.749 90.627 116.126 90.627 116.126Z" fill="url(#paint20_linear)"/>
<path fill-rule="evenodd" clip-rule="evenodd" d="M90.0464 119.087C90.0464 119.087 90.2668 116.492 88.3434 113.335C86.4201 110.178 84.3344 112.444 85.767 115.387C87.1996 118.331 90.0464 119.087 90.0464 119.087Z" fill="url(#paint21_linear)"/>
<path fill-rule="evenodd" clip-rule="evenodd" d="M91.0575 113.85C91.0575 113.85 93.1168 114.075 95.6385 112.627C98.1601 111.178 96.377 109.494 94.0284 110.561C91.6797 111.628 91.0575 113.85 91.0575 113.85Z" fill="url(#paint22_linear)"/>
<path fill-rule="evenodd" clip-rule="evenodd" d="M90.298 117.311C90.298 117.311 92.9039 117.35 95.9208 115.212C98.9377 113.074 96.5311 111.153 93.6926 112.786C90.8542 114.42 90.298 117.311 90.298 117.311Z" fill="url(#paint23_linear)"/>
<path fill-rule="evenodd" clip-rule="evenodd" d="M89.8019 120.663C89.8019 120.663 92.4078 120.702 95.4247 118.564C98.4416 116.426 96.035 114.505 93.1965 116.138C90.3581 117.772 89.8019 120.663 89.8019 120.663Z" fill="url(#paint24_linear)"/>
<path fill-rule="evenodd" clip-rule="evenodd" d="M89.7157 122.676C89.7157 122.676 89.9362 120.081 88.0128 116.924C86.0894 113.767 84.0037 116.033 85.4363 118.976C86.8689 121.92 89.7157 122.676 89.7157 122.676Z" fill="url(#paint25_linear)"/>
<path fill-rule="evenodd" clip-rule="evenodd" d="M89.4712 124.252C89.4712 124.252 92.0771 124.291 95.094 122.153C98.1109 120.015 95.7043 118.094 92.8658 119.727C90.0274 121.361 89.4712 124.252 89.4712 124.252Z" fill="url(#paint26_linear)"/>
<path opacity="0.211021" fill-rule="evenodd" clip-rule="evenodd" d="M8.6811 131.545C13.4755 131.545 17.3622 129.326 17.3622 126.587C17.3622 123.849 13.4755 121.63 8.6811 121.63C3.88666 121.63 0 123.849 0 126.587C0 129.326 3.88666 131.545 8.6811 131.545Z" fill="url(#paint27_linear)"/>
<path d="M6.44885 106.922H10.4174V125.264C10.4174 126.36 9.52898 127.248 8.4331 127.248C7.33723 127.248 6.44885 126.36 6.44885 125.264V106.922Z" fill="#AC6A5A"/>
<mask id="mask13" mask-type="alpha" maskUnits="userSpaceOnUse" x="6" y="106" width="5" height="22">
<path d="M6.44885 106.922H10.4174V125.264C10.4174 126.36 9.52898 127.248 8.4331 127.248C7.33723 127.248 6.44885 126.36 6.44885 125.264V106.922Z" fill="white"/>
</mask>
<g mask="url(#mask13)">
<path opacity="0.3" d="M7.61434 112.698C7.61434 112.698 7.29591 115.212 11.1388 116.462C14.9818 117.713 8.59525 115.515 6.4488 116.462C4.30234 117.41 6.6741 117.085 7.91435 117.085C9.15459 117.085 9.0902 118.819 7.91435 118.819C6.7385 118.819 1.80186 123.703 4.8581 123.053C7.91435 122.403 10.6164 116.096 12.2152 118.819C13.8139 121.543 5.77766 124.707 5.77766 126.275C5.77766 127.843 6.89528 125.077 10.8722 123.945C14.8492 122.814 13.8958 130.667 9.15459 129.864C4.41337 129.06 4.00914 126.6 5.22897 125.611C6.4488 124.622 9.03434 122.893 8.73369 122.039C8.43305 121.186 5.2413 123.945 5.2413 123.945" stroke="white" stroke-width="0.99"/>
<g style="mix-blend-mode:multiply" opacity="0.255999">
<path d="M7.17041 109.537H11.1389V127.879C11.1389 128.975 10.2505 129.864 9.15466 129.864C8.05879 129.864 7.17041 128.975 7.17041 127.879V109.537Z" fill="#AC6A5A"/>
</g>
</g>
<path fill-rule="evenodd" clip-rule="evenodd" d="M7.68963 78.6627C11.957 78.6627 9.18566 85.1741 12.4956 92.3583C15.8054 99.5425 19.8976 112.898 10.5068 113.655C1.11599 114.413 1.06493 104.773 1.23924 93.9489C1.41355 83.1244 3.4223 78.6627 7.68963 78.6627Z" fill="url(#paint28_linear)"/>
<mask id="mask14" mask-type="alpha" maskUnits="userSpaceOnUse" x="1" y="78" width="16" height="36">
<path fill-rule="evenodd" clip-rule="evenodd" d="M7.68963 78.6627C11.957 78.6627 9.18566 85.1741 12.4956 92.3583C15.8054 99.5425 19.8976 112.898 10.5068 113.655C1.11599 114.413 1.06493 104.773 1.23924 93.9489C1.41355 83.1244 3.4223 78.6627 7.68963 78.6627Z" fill="white"/>
</mask>
<g mask="url(#mask14)">
<path fill-rule="evenodd" clip-rule="evenodd" d="M10.7353 80.6816C15.0026 80.6816 12.2313 87.1931 15.5412 94.3773C18.8511 101.562 22.9433 114.917 13.5525 115.674C4.16164 116.432 4.11058 106.792 4.28489 95.9678C4.4592 85.1434 6.46795 80.6816 10.7353 80.6816Z" fill="url(#paint29_linear)"/>
</g>
<defs>
<linearGradient id="paint0_linear" x1="60.0897" y1="6.61877" x2="60.0897" y2="119.206" gradientUnits="userSpaceOnUse">
<stop stop-color="#56ABEA"/>
<stop offset="1" stop-color="#134A8E"/>
</linearGradient>
<linearGradient id="paint1_linear" x1="83.8112" y1="82.1651" x2="91.7427" y2="83.365" gradientUnits="userSpaceOnUse">
<stop stop-color="#56A1FF"/>
<stop offset="1" stop-color="#5187DC"/>
</linearGradient>
<linearGradient id="paint2_linear" x1="68.8578" y1="111.632" x2="60.4723" y2="123.354" gradientUnits="userSpaceOnUse">
<stop stop-color="#364D83" stop-opacity="0.602491"/>
<stop offset="1" stop-color="#B2C4FF"/>
</linearGradient>
<linearGradient id="paint3_linear" x1="55.7245" y1="85.4382" x2="55.7245" y2="119.481" gradientUnits="userSpaceOnUse">
<stop stop-color="#8EBBFF"/>
<stop offset="1" stop-color="#5586FF"/>
</linearGradient>
<linearGradient id="paint4_linear" x1="57.3781" y1="74.366" x2="57.3781" y2="88.0861" gradientUnits="userSpaceOnUse">
<stop stop-color="white"/>
<stop offset="1" stop-color="#F0F0F0"/>
</linearGradient>
<linearGradient id="paint5_linear" x1="63.953" y1="70.4954" x2="62.4151" y2="69.8429" gradientUnits="userSpaceOnUse">
<stop stop-color="#30334F"/>
<stop offset="1" stop-color="#181E36"/>
</linearGradient>
<linearGradient id="paint6_linear" x1="63.3594" y1="72.0355" x2="62.8159" y2="71.9778" gradientUnits="userSpaceOnUse">
<stop stop-color="#AC6A5A"/>
<stop offset="1" stop-color="#884E3F"/>
</linearGradient>
<linearGradient id="paint7_linear" x1="45.9634" y1="105.084" x2="40.9128" y2="112.148" gradientUnits="userSpaceOnUse">
<stop stop-color="#364D83" stop-opacity="0.602491"/>
<stop offset="1" stop-color="#B2C4FF"/>
</linearGradient>
<linearGradient id="paint8_linear" x1="40.1757" y1="67.0421" x2="40.7195" y2="67.0016" gradientUnits="userSpaceOnUse">
<stop stop-color="#F8A29B"/>
<stop offset="1" stop-color="#C47770"/>
</linearGradient>
<linearGradient id="paint9_linear" x1="47.7344" y1="79.5808" x2="46.8581" y2="96.3017" gradientUnits="userSpaceOnUse">
<stop stop-color="#8EBBFF"/>
<stop offset="1" stop-color="#5586FF"/>
</linearGradient>
<linearGradient id="paint10_linear" x1="46.0991" y1="70.4747" x2="45.5117" y2="81.6826" gradientUnits="userSpaceOnUse">
<stop stop-color="white"/>
<stop offset="1" stop-color="#F0F0F0"/>
</linearGradient>
<linearGradient id="paint11_linear" x1="88.4045" y1="115.626" x2="88.4045" y2="125.594" gradientUnits="userSpaceOnUse">
<stop stop-color="#79E3F9"/>
<stop offset="1" stop-color="#2299B6"/>
</linearGradient>
<linearGradient id="paint12_linear" x1="82.8595" y1="112.611" x2="82.8595" y2="118.23" gradientUnits="userSpaceOnUse">
<stop stop-color="#80E9FF"/>
<stop offset="1" stop-color="#1F9BB1"/>
</linearGradient>
<linearGradient id="paint13_linear" x1="89.184" y1="113.671" x2="85.0077" y2="117.432" gradientUnits="userSpaceOnUse">
<stop stop-color="#80E9FF"/>
<stop offset="1" stop-color="#1F9BB1"/>
</linearGradient>
<linearGradient id="paint14_linear" x1="90.4941" y1="115.515" x2="85.1596" y2="120.318" gradientUnits="userSpaceOnUse">
<stop stop-color="#80E9FF"/>
<stop offset="1" stop-color="#1F9BB1"/>
</linearGradient>
<linearGradient id="paint15_linear" x1="81.6853" y1="118.325" x2="84.4955" y2="123.192" gradientUnits="userSpaceOnUse">
<stop stop-color="#80E9FF"/>
<stop offset="1" stop-color="#1F9BB1"/>
</linearGradient>
<linearGradient id="paint16_linear" x1="81.1893" y1="120.262" x2="84.2231" y2="126.768" gradientUnits="userSpaceOnUse">
<stop stop-color="#80E9FF"/>
<stop offset="1" stop-color="#1F9BB1"/>
</linearGradient>
<linearGradient id="paint17_linear" x1="89.6737" y1="108.456" x2="89.6737" y2="125.477" gradientUnits="userSpaceOnUse">
<stop stop-color="#79E3F9"/>
<stop offset="1" stop-color="#2299B6"/>
</linearGradient>
<linearGradient id="paint18_linear" x1="95.9055" y1="104.655" x2="95.9055" y2="110.274" gradientUnits="userSpaceOnUse">
<stop stop-color="#80E9FF"/>
<stop offset="1" stop-color="#1F9BB1"/>
</linearGradient>
<linearGradient id="paint19_linear" x1="89.7983" y1="105.93" x2="93.9746" y2="109.69" gradientUnits="userSpaceOnUse">
<stop stop-color="#80E9FF"/>
<stop offset="1" stop-color="#1F9BB1"/>
</linearGradient>
<linearGradient id="paint20_linear" x1="88.4882" y1="107.773" x2="93.8227" y2="112.576" gradientUnits="userSpaceOnUse">
<stop stop-color="#80E9FF"/>
<stop offset="1" stop-color="#1F9BB1"/>
</linearGradient>
<linearGradient id="paint21_linear" x1="86.0824" y1="111.43" x2="92.3616" y2="114.911" gradientUnits="userSpaceOnUse">
<stop stop-color="#80E9FF"/>
<stop offset="1" stop-color="#1F9BB1"/>
</linearGradient>
<linearGradient id="paint22_linear" x1="97.168" y1="110.888" x2="94.3578" y2="115.755" gradientUnits="userSpaceOnUse">
<stop stop-color="#80E9FF"/>
<stop offset="1" stop-color="#1F9BB1"/>
</linearGradient>
<linearGradient id="paint23_linear" x1="97.6639" y1="112.825" x2="94.6301" y2="119.331" gradientUnits="userSpaceOnUse">
<stop stop-color="#80E9FF"/>
<stop offset="1" stop-color="#1F9BB1"/>
</linearGradient>
<linearGradient id="paint24_linear" x1="97.1678" y1="116.177" x2="94.134" y2="122.683" gradientUnits="userSpaceOnUse">
<stop stop-color="#80E9FF"/>
<stop offset="1" stop-color="#1F9BB1"/>
</linearGradient>
<linearGradient id="paint25_linear" x1="85.7517" y1="115.019" x2="92.0309" y2="118.5" gradientUnits="userSpaceOnUse">
<stop stop-color="#80E9FF"/>
<stop offset="1" stop-color="#1F9BB1"/>
</linearGradient>
<linearGradient id="paint26_linear" x1="96.8372" y1="119.766" x2="93.8033" y2="126.272" gradientUnits="userSpaceOnUse">
<stop stop-color="#80E9FF"/>
<stop offset="1" stop-color="#1F9BB1"/>
</linearGradient>
<linearGradient id="paint27_linear" x1="13.6074" y1="120.614" x2="7.5356" y2="129.059" gradientUnits="userSpaceOnUse">
<stop stop-color="#364D83" stop-opacity="0.602491"/>
<stop offset="1" stop-color="#B2C4FF"/>
</linearGradient>
<linearGradient id="paint28_linear" x1="1.2019" y1="78.6627" x2="1.2019" y2="113.697" gradientUnits="userSpaceOnUse">
<stop stop-color="#80E9FF"/>
<stop offset="1" stop-color="#1F9BB1"/>
</linearGradient>
<linearGradient id="paint29_linear" x1="11.7944" y1="80.6816" x2="11.7944" y2="115.716" gradientUnits="userSpaceOnUse">
<stop stop-color="#66D1E0"/>
<stop offset="1" stop-color="#30A9BE" stop-opacity="0"/>
</linearGradient>
</defs>
</svg>
