<svg width="127" height="126" viewBox="0 0 127 126" fill="none" xmlns="http://www.w3.org/2000/svg">
<path fill-rule="evenodd" clip-rule="evenodd" d="M63.2564 126C98.1919 126 126.513 107.228 126.513 84.071C126.513 60.9142 98.1919 42.1419 63.2564 42.1419C28.3208 42.1419 0 60.9142 0 84.071C0 107.228 28.3208 126 63.2564 126Z" fill="url(#paint0_linear)"/>
<path fill-rule="evenodd" clip-rule="evenodd" d="M63.2564 124.595C98.1919 124.595 126.513 105.823 126.513 82.6663C126.513 59.5095 98.1919 40.7372 63.2564 40.7372C28.3208 40.7372 0 59.5095 0 82.6663C0 105.823 28.3208 124.595 63.2564 124.595Z" fill="#9AC1FF"/>
<path fill-rule="evenodd" clip-rule="evenodd" d="M63.2564 123.753C98.1919 123.753 126.513 104.98 126.513 81.8235C126.513 58.6667 98.1919 39.8945 63.2564 39.8945C28.3208 39.8945 0 58.6667 0 81.8235C0 104.98 28.3208 123.753 63.2564 123.753Z" fill="#FBFCFF"/>
<path fill-rule="evenodd" clip-rule="evenodd" d="M22.2386 46.0161L22.2386 67.6587L51.5481 84.4558L80.8455 67.6588V46.0161H22.2386Z" fill="url(#paint1_linear)"/>
<mask id="mask0" mask-type="alpha" maskUnits="userSpaceOnUse" x="22" y="46" width="59" height="39">
<path fill-rule="evenodd" clip-rule="evenodd" d="M22.2386 46.0161L22.2386 67.6587L51.5481 84.4558L80.8455 67.6588V46.0161H22.2386Z" fill="white"/>
</mask>
<g mask="url(#mask0)">
<g style="mix-blend-mode:multiply">
<rect x="19.1735" y="43.5402" width="32.3967" height="43.9038" fill="#D8D8D8"/>
</g>
</g>
<path fill-rule="evenodd" clip-rule="evenodd" d="M51.5481 29.2191L22.2386 46.0159L51.5481 62.813L80.8455 46.016L51.5481 29.2191Z" fill="#80B1FF"/>
<path fill-rule="evenodd" clip-rule="evenodd" d="M64.5542 39.1062C64.5542 39.1062 65.9854 39.676 66.1395 40.5316C66.2936 41.3872 66.0449 41.6327 66.0449 41.6327C66.0449 41.6327 65.6729 41.8127 65.3763 41.4863C65.0798 41.1599 64.7432 40.2 64.7432 40.2L64.5542 39.1062Z" fill="url(#paint2_linear)"/>
<path fill-rule="evenodd" clip-rule="evenodd" d="M67.3158 34.8228C67.3158 34.805 67.3915 34.312 67.5982 33.6923C67.6825 33.4396 67.4788 31.7727 67.3158 31.9217C67.1527 32.0706 67.3062 33.0353 67.2663 33.1238C67.0922 32.5236 66.5786 32.6595 66.1989 32.5268C65.8191 32.3941 65.464 31.3057 65.2965 31.4965C65.1291 31.6874 65.4101 32.4291 65.6836 32.6576C65.9572 32.8861 66.3296 33.0086 66.3296 33.0086L65.7266 35.0394L64.1683 40.2762L65.176 43.1994C65.176 43.1994 67.3158 34.8729 67.3158 34.8228Z" fill="#FFBBB0"/>
<path fill-rule="evenodd" clip-rule="evenodd" d="M62.1083 36.8862C62.1083 36.8862 63.2052 36.4224 63.7312 38.19C64.2572 39.9577 64.2572 40.0362 64.2572 40.0362L64.4665 39.2339C64.4665 39.2339 64.2572 40.9074 66.1315 41.5395C66.1315 41.5395 65.4188 43.899 64.5801 44.1639C63.7414 44.4288 63.3253 44.1906 63.0487 43.695C62.772 43.1994 62.1083 36.8862 62.1083 36.8862Z" fill="#586DFF"/>
<mask id="mask1" mask-type="alpha" maskUnits="userSpaceOnUse" x="62" y="36" width="5" height="9">
<path fill-rule="evenodd" clip-rule="evenodd" d="M62.1083 36.8862C62.1083 36.8862 63.2052 36.4224 63.7312 38.19C64.2572 39.9577 64.2572 40.0362 64.2572 40.0362L64.4665 39.2339C64.4665 39.2339 64.2572 40.9074 66.1315 41.5395C66.1315 41.5395 65.4188 43.899 64.5801 44.1639C63.7414 44.4288 63.3253 44.1906 63.0487 43.695C62.772 43.1994 62.1083 36.8862 62.1083 36.8862Z" fill="white"/>
</mask>
<g mask="url(#mask1)">
<g style="mix-blend-mode:multiply">
<path fill-rule="evenodd" clip-rule="evenodd" d="M63.3929 37.2129C63.3929 37.2129 64.5198 39.787 64.362 42.0534C64.2042 44.3199 63.0486 44.6018 63.0486 44.6018C63.0486 44.6018 62.4511 41.1589 62.6089 40.6021C62.7667 40.0454 63.3929 37.2129 63.3929 37.2129Z" fill="#A9AAC4"/>
</g>
</g>
<path fill-rule="evenodd" clip-rule="evenodd" d="M71.5846 66.4349C71.5846 66.4349 71.2342 67.0674 72.228 68.6321C73.2219 70.1968 74.1457 70.7449 75.1769 70.8817C76.2081 71.0185 75.4621 69.2606 74.7019 68.4786C73.9417 67.6966 73.3496 65.9548 73.3496 65.9548L71.5846 66.4349Z" fill="#051B4D"/>
<path fill-rule="evenodd" clip-rule="evenodd" d="M72.8358 62.4512L73.5067 66.3087C73.5067 66.3087 74.526 68.3589 75.0537 68.9468C75.5814 69.5348 74.2909 69.9894 73.5067 69.4519C72.7225 68.9143 71.696 66.8983 71.696 66.8983L70.601 63.0125L72.8358 62.4512Z" fill="#FFBBB0"/>
<path fill-rule="evenodd" clip-rule="evenodd" d="M76.9173 61.9935C76.9173 61.9935 76.8934 62.8371 77.742 63.4514C78.5906 64.0657 79.2979 63.8765 80.0638 64.262C80.8298 64.6476 83.0586 64.3692 83.2333 63.5587C83.4079 62.7482 80.6691 62.5479 80.4889 62.4513C80.3087 62.3547 76.9173 61.9935 76.9173 61.9935Z" fill="#051B4D"/>
<path fill-rule="evenodd" clip-rule="evenodd" d="M76.5975 58.6678L77.9592 60.4186C78.6424 61.297 79.536 62.0017 80.5911 62.3552C80.9401 62.4721 81.2825 62.5739 81.5419 62.6236C82.3796 62.7839 82.2295 63.4853 81.0828 63.7571C80.3864 63.9222 79.2805 63.6551 78.5195 63.4199C77.9596 63.2468 77.4701 62.91 77.0648 62.4866L74.8879 60.2121L76.5975 58.6678Z" fill="#FFBBB0"/>
<path fill-rule="evenodd" clip-rule="evenodd" d="M62.0667 32.4427C63.2269 32.2278 63.1336 29.749 61.3642 30.0088C59.9775 30.0088 58.973 28.9865 57.7258 30.3482C56.4786 31.7099 56.8553 34.6522 56.7045 36.4019C56.5537 38.1517 56.9617 38.118 58.0614 38.549C59.1612 38.9799 63.7014 38.9702 62.7281 36.599C61.7548 34.2279 62.2381 33.4929 62.0667 32.4427Z" fill="#30334F"/>
<path fill-rule="evenodd" clip-rule="evenodd" d="M62.6593 46.7568C62.6593 46.7568 68.9374 49.145 70.2809 51.6624C71.6244 54.1799 73.0416 62.6493 73.0416 62.6493C73.0416 62.6493 71.8795 64.2522 70.0435 63.5586L66.271 52.0957L60.3881 48.6604L62.6593 46.7568Z" fill="url(#paint3_linear)"/>
<g style="mix-blend-mode:multiply">
<path fill-rule="evenodd" clip-rule="evenodd" d="M62.6593 46.7568C62.6593 46.7568 68.9374 49.145 70.2809 51.6624C71.6244 54.1799 73.0416 62.6493 73.0416 62.6493C73.0416 62.6493 71.8795 64.2522 70.0435 63.5586L66.271 52.0957L60.3881 48.6604L62.6593 46.7568Z" fill="#A9AAC4"/>
</g>
<path fill-rule="evenodd" clip-rule="evenodd" d="M56.2186 48.0786C56.2186 48.0786 55.7201 51.3466 57.4063 53.1166C59.0924 54.8865 69.0338 55.1578 69.0338 55.1578L74.3259 60.6395C74.3259 60.6395 75.5905 61.0964 77.2671 59.4695C77.2671 59.4695 73.1081 53.5685 71.0709 51.9563C69.0338 50.3441 60.3881 47.6203 60.3881 47.6203L56.2186 48.0786Z" fill="url(#paint4_linear)"/>
<path fill-rule="evenodd" clip-rule="evenodd" d="M57.5987 37.9093C58.0217 37.6407 59.3418 37.4671 60.5918 37.2384C61.3151 37.1061 62.0366 36.8957 62.4911 36.7923C63.3159 36.7923 63.4758 38.0457 63.6856 39.3588C63.8954 40.6719 64.3623 42.1772 64.0804 42.9795C63.7986 43.7817 63.1743 44.1113 63.1743 44.1113C63.1743 44.1113 63.4397 46.4023 63.0487 47.0422C62.6576 47.6822 61.6015 48.4225 60.1314 48.4225C58.6614 48.4225 56.4045 48.6954 56.3051 48.5472C55.734 47.6962 57.6426 45.6393 57.1032 43.869C56.4698 41.7906 55.2706 40.6501 55.4563 39.6728C55.6421 38.6955 56.9308 38.3333 57.5987 37.9093Z" fill="#586DFF"/>
<mask id="mask2" mask-type="alpha" maskUnits="userSpaceOnUse" x="55" y="36" width="10" height="13">
<path fill-rule="evenodd" clip-rule="evenodd" d="M57.5987 37.9093C58.0217 37.6407 59.3418 37.4671 60.5918 37.2384C61.3151 37.1061 62.0366 36.8957 62.4911 36.7923C63.3159 36.7923 63.4758 38.0457 63.6856 39.3588C63.8954 40.6719 64.3623 42.1772 64.0804 42.9795C63.7986 43.7817 63.1743 44.1113 63.1743 44.1113C63.1743 44.1113 63.4397 46.4023 63.0487 47.0422C62.6576 47.6822 61.6015 48.4225 60.1314 48.4225C58.6614 48.4225 56.4045 48.6954 56.3051 48.5472C55.734 47.6962 57.6426 45.6393 57.1032 43.869C56.4698 41.7906 55.2706 40.6501 55.4563 39.6728C55.6421 38.6955 56.9308 38.3333 57.5987 37.9093Z" fill="white"/>
</mask>
<g mask="url(#mask2)">
<g style="mix-blend-mode:multiply">
<path fill-rule="evenodd" clip-rule="evenodd" d="M54.9921 39.5941C54.9921 39.5941 56.9165 40.7375 57.4281 42.7045C57.9397 44.6716 58.9084 44.7416 60.0286 44.529C61.1488 44.3164 62.0623 43.9454 63.5899 44.1013C65.1176 44.2571 64.1619 44.7979 63.0527 44.6779C61.9434 44.558 62.0504 44.4154 60.9798 44.8394C59.9092 45.2635 59.156 45.4047 58.6605 44.8394C58.6605 45.8782 55.9977 48.5833 54.5547 45.0273C53.1118 41.4713 54.9921 39.5941 54.9921 39.5941Z" fill="#A9AAC4"/>
</g>
<path fill-rule="evenodd" clip-rule="evenodd" d="M57.1523 41.5249C57.1523 41.5249 57.1373 40.9902 57.539 41.0703C57.9408 41.1504 59.4888 42.6654 58.9991 43.5402C58.5094 44.4151 57.1523 41.5249 57.1523 41.5249Z" fill="url(#paint5_linear)"/>
</g>
<path fill-rule="evenodd" clip-rule="evenodd" d="M60.8442 36.3769C60.8442 36.3769 60.8442 37.0471 60.9486 37.2101C60.9486 37.2101 61.3803 37.0471 61.7828 37.7645C62.1853 38.4818 62.3083 39.2666 62.0867 39.9889C61.8652 40.7112 60.7159 41.0019 59.6755 40.4062C58.257 39.586 58.2437 37.8491 58.3883 37.6951C58.5329 37.5411 59.1207 37.5662 58.2437 34.6366C57.3666 31.7069 60.8442 36.3769 60.8442 36.3769Z" fill="#FFBBB0"/>
<mask id="mask3" mask-type="alpha" maskUnits="userSpaceOnUse" x="58" y="33" width="5" height="8">
<path fill-rule="evenodd" clip-rule="evenodd" d="M60.8442 36.3769C60.8442 36.3769 60.8442 37.0471 60.9486 37.2101C60.9486 37.2101 61.3803 37.0471 61.7828 37.7645C62.1853 38.4818 62.3083 39.2666 62.0867 39.9889C61.8652 40.7112 60.7159 41.0019 59.6755 40.4062C58.257 39.586 58.2437 37.8491 58.3883 37.6951C58.5329 37.5411 59.1207 37.5662 58.2437 34.6366C57.3666 31.7069 60.8442 36.3769 60.8442 36.3769Z" fill="white"/>
</mask>
<g mask="url(#mask3)">
<g style="mix-blend-mode:multiply" opacity="0.2">
<path fill-rule="evenodd" clip-rule="evenodd" d="M60.3014 40.7767C60.3014 40.7767 60.9476 37.7548 61.3374 37.1419C61.7272 36.5291 60.3014 36.6264 60.3014 36.6264L58.9169 40.6027L60.3014 40.7767Z" fill="#A9AAC4"/>
</g>
<g style="mix-blend-mode:multiply" opacity="0.2">
<path fill-rule="evenodd" clip-rule="evenodd" d="M58.7433 35.0393C58.7433 35.0393 59.1504 37.3033 60.9487 37.21C62.747 37.1168 61.3631 36.0518 61.1559 35.8733C60.9487 35.6948 58.7433 35.0393 58.7433 35.0393Z" fill="#A9AAC4"/>
</g>
</g>
<path fill-rule="evenodd" clip-rule="evenodd" d="M61.7691 31.4965C61.7691 31.4965 62.0844 31.9366 62.0844 33.3026C62.0844 34.6686 62.2248 36.5652 61.1247 36.598C60.0247 36.6309 59.37 36.3469 58.7848 35.5985C58.1996 34.8502 58.2026 34.6495 58.2026 34.6495C58.2026 34.6495 57.6875 34.5368 57.6168 34.1639C57.5461 33.791 57.7404 33.4412 58.2626 33.4412C58.7848 33.4412 60.4912 33.6626 61.1854 31.6123C61.1854 31.6123 61.3612 31.6851 61.5023 31.6546C61.6433 31.6242 61.7691 31.4965 61.7691 31.4965Z" fill="#FFBBB0"/>
<path fill-rule="evenodd" clip-rule="evenodd" d="M66.6801 32.7435C66.6801 32.7435 66.4829 32.4176 66.4829 32.3745C66.4829 32.3708 66.4789 32.3595 66.4714 32.3419C66.3923 32.1561 65.9291 31.2667 65.7893 31.1413C65.6363 31.0041 65.5333 31.2233 65.6476 31.5486C65.7618 31.874 66.0448 32.5523 66.0448 32.5523L66.6801 32.7435Z" fill="#FFBBB0"/>
<path fill-rule="evenodd" clip-rule="evenodd" d="M64.8846 32.145C65.1308 31.9903 65.2876 32.535 65.503 32.6991C65.7185 32.8632 65.4282 33.3674 65.4282 33.3674C65.4282 33.3674 65.0056 33.3998 64.8846 32.9181C64.7637 32.4364 64.6385 32.2997 64.8846 32.145Z" fill="#FFBBB0"/>
<path fill-rule="evenodd" clip-rule="evenodd" d="M60.9099 34.5376C60.9099 34.0546 61.2337 33.6315 61.7 33.5054L65.6453 32.4384C65.8486 32.3834 66.0636 32.3897 66.2634 32.4564L66.4229 32.5097C66.6992 32.6021 66.8855 32.8607 66.8855 33.1521L66.2748 34.4675C66.0646 35.0884 65.7368 35.6287 65.306 36.0647L64.5221 35.8028C64.2608 35.7154 64.0442 35.4407 64.0267 35.1742C64.0171 35.0293 63.8945 34.8812 63.7527 34.8433C63.7046 34.8305 63.6583 34.8317 63.6192 34.8469L63.6161 34.8481C63.3778 34.9406 63.2367 35.1695 63.2367 35.4633V35.5493C63.2367 35.9084 63.1176 36.2175 62.8981 36.4284L62.6781 36.6396L61.9931 36.4107C61.3949 36.2108 60.9099 35.564 60.9099 34.966V34.5376Z" fill="url(#paint6_linear)"/>
<path fill-rule="evenodd" clip-rule="evenodd" d="M61.7349 34.7179C61.762 34.259 62.0794 33.8689 62.5231 33.7489L66.3548 32.7126C66.5883 32.6494 66.8155 32.8322 66.8038 33.0738L66.7308 34.5827C66.7308 35.2842 66.3571 35.8078 65.75 35.9568L65.2826 36.0716C65.1193 36.1117 64.9101 35.9862 64.8153 35.7912C64.7851 35.729 64.7692 35.6646 64.7692 35.6043V35.4789C64.7692 35.3469 64.6621 35.204 64.5299 35.1599C64.4796 35.1431 64.4306 35.1425 64.3898 35.1584C64.1515 35.2509 64.0104 35.4797 64.0104 35.7736V35.8595C64.0104 36.2011 63.8241 36.4532 63.5245 36.5173L62.847 36.6621C62.4665 36.7435 61.9889 36.4446 61.7803 35.9945C61.7169 35.8576 61.6836 35.7166 61.6836 35.5847L61.7349 34.7179Z" fill="white"/>
<path fill-rule="evenodd" clip-rule="evenodd" d="M61.8384 34.8478C61.8384 34.3648 62.1622 33.9418 62.6284 33.8157L66.4361 32.7859C66.6626 32.7246 66.8855 32.8952 66.8855 33.1299V34.5827C66.8855 35.2842 66.5119 35.8078 65.9048 35.9568L65.4374 36.0716C65.2741 36.1117 65.0648 35.9862 64.9701 35.7912C64.9399 35.729 64.924 35.6646 64.924 35.6044V35.479C64.924 35.3469 64.8168 35.204 64.6847 35.1599C64.6344 35.1431 64.5854 35.1425 64.5446 35.1584C64.3063 35.2509 64.1652 35.4797 64.1652 35.7736V35.8596C64.1652 36.2011 63.9789 36.4532 63.6793 36.5173L63.0018 36.6621C62.6213 36.7435 62.1437 36.4446 61.9351 35.9945C61.8716 35.8576 61.8384 35.7167 61.8384 35.5847V34.8478Z" fill="#80B1FF"/>
<path fill-rule="evenodd" clip-rule="evenodd" d="M60.1314 35.7629C60.1314 35.7629 60.2966 34.5011 60.4038 34.2032C60.5111 33.9053 61.1361 32.8444 61.4203 32.8444C61.7044 32.8444 61.1095 34.0485 61.1095 34.0485C61.1095 34.0485 61.5405 33.5391 61.6993 33.3219C61.9782 32.9404 62.0902 32.6056 62.245 32.6643C62.5749 32.7895 61.5335 34.5071 61.5335 34.5071C61.5335 34.5071 61.8302 34.3161 61.9251 34.2032C62.2852 33.7746 62.6968 33.1441 62.8049 33.3219C62.9616 33.5797 62.0533 34.6871 61.9884 34.9451C61.9452 35.1168 62.1855 34.9426 62.4095 34.7558C62.522 34.662 62.7385 34.667 62.8049 34.6091C63.0032 34.4359 63.1781 34.5129 62.9167 34.8538C62.8289 34.9683 62.6097 35.0073 62.5013 35.1239C62.2868 35.3547 62.068 35.569 61.9884 35.6854C61.8685 35.8608 61.7029 36.6882 61.0021 36.9506C60.3013 37.2129 59.3791 42.2837 58.667 43.4441C57.9549 44.6046 57.0968 44.873 56.4634 44.3374C55.83 43.8018 57.2558 41.489 57.9447 40.1307C58.6336 38.7724 60.1314 35.7629 60.1314 35.7629Z" fill="#FFBBB0"/>
<path fill-rule="evenodd" clip-rule="evenodd" d="M55.7948 39.0168C55.7948 39.0168 54.9443 39.876 54.9443 42.2389C54.9443 44.6018 55.7796 46.4553 56.8866 46.2625C57.9937 46.0697 58.9991 43.5403 58.9991 43.5403C58.9991 43.5403 57.4075 43.5403 57.1431 41.484L56.7416 42.3186C56.7416 42.3186 56.6743 41.1687 56.4957 40.5209C56.317 39.8731 55.7948 39.0168 55.7948 39.0168Z" fill="#586DFF"/>
<path fill-rule="evenodd" clip-rule="evenodd" d="M67.5254 33.9471C67.6101 33.3638 67.3557 32.9507 67.1638 32.6576C66.8855 32.2326 66.5467 31.7182 66.4666 31.5879C65.9098 30.6822 66.0546 31.5773 66.0819 31.6499C66.3203 32.2844 66.7384 33.0032 66.7384 33.2134C66.7384 33.6947 66.4314 34.0302 66.4314 34.8966C66.4314 35.7629 66.6682 36.0731 66.6682 36.0731C66.6682 36.0731 67.4408 34.5305 67.5254 33.9471Z" fill="#FFBBB0"/>
<path fill-rule="evenodd" clip-rule="evenodd" d="M60.7304 87.2595C60.7304 87.2595 63.1128 94.8519 56.8259 100.034C50.5389 105.215 39.621 103.533 31.4628 98.2101C23.3046 92.8877 21.4312 78.0375 31.4628 72.1635C41.4943 66.2895 44.5077 83.4161 51.4127 83.6576C58.3177 83.8992 60.7304 87.2595 60.7304 87.2595Z" fill="url(#paint7_linear)"/>
<mask id="mask4" mask-type="alpha" maskUnits="userSpaceOnUse" x="24" y="70" width="38" height="34">
<path fill-rule="evenodd" clip-rule="evenodd" d="M60.7304 87.2595C60.7304 87.2595 63.1128 94.8519 56.8259 100.034C50.5389 105.215 39.621 103.533 31.4628 98.2101C23.3046 92.8877 21.4312 78.0375 31.4628 72.1635C41.4943 66.2895 44.5077 83.4161 51.4127 83.6576C58.3177 83.8992 60.7304 87.2595 60.7304 87.2595Z" fill="white"/>
</mask>
<g mask="url(#mask4)">
<g style="mix-blend-mode:multiply" opacity="0.34">
<path fill-rule="evenodd" clip-rule="evenodd" d="M66.9628 92.0731C66.9628 92.0731 56.8475 102.658 40.315 97.7709C23.7824 92.8839 25.6096 75.111 25.6096 75.111C25.6096 75.111 21.4284 89.6271 29.6819 96.1046C37.9353 102.582 52.3386 105.099 52.3386 105.099C52.3386 105.099 62.055 101.506 64.5089 96.7894C66.9628 92.0731 66.9628 92.0731 66.9628 92.0731Z" fill="#D8D8D8"/>
</g>
</g>
<path fill-rule="evenodd" clip-rule="evenodd" d="M60.3773 85.1588L60.7746 86.9721C60.7746 86.9721 60.3813 89.5955 60.3276 91.4277C60.2738 93.2598 60.6283 98.1872 60.5009 98.6663C60.3735 99.1453 60.1032 100.155 60.6786 100.351C61.0449 100.476 61.4 100.206 62.3438 100.053C62.8824 99.9658 64.3223 100.547 64.8545 100.452C66.3191 100.189 66.141 99.5974 65.8873 99.4192C65.7554 99.3265 65.2857 99.1824 64.6154 99.076C63.9969 98.9778 63.1972 98.4546 62.9697 98.2246C62.4957 97.7453 62.3061 97.5189 62.3145 96.7007C62.3161 96.5425 62.3672 96.0841 62.4485 95.4416C62.7878 92.7609 60.3773 85.1588 60.3773 85.1588Z" fill="#FFBBB0"/>
<path fill-rule="evenodd" clip-rule="evenodd" d="M59.8921 99.8272C59.8921 99.8272 59.7719 100.12 59.7719 100.456C59.7719 100.792 60.4851 100.972 61.344 100.972C62.2029 100.972 61.8689 100.644 62.448 100.55C63.027 100.456 62.9528 100.785 63.7981 100.785C64.6433 100.785 65.8032 100.63 65.9696 99.8272C66.136 99.0244 59.8921 99.8272 59.8921 99.8272Z" fill="#30334F"/>
<path fill-rule="evenodd" clip-rule="evenodd" d="M62.9736 97.4808C63.2076 97.6185 63.3767 98.0518 64.5262 98.327C65.6757 98.6021 66.3843 99.008 66.2724 99.492C66.1604 99.976 65.5457 100.549 64.1817 100.422C62.8176 100.295 62.5352 100.417 61.8405 100.48C61.1459 100.542 60.3288 100.544 59.9883 100.018C59.9883 100.018 59.8655 99.3961 59.9883 98.4643C60.1111 97.5326 60.0837 97.4397 60.3211 97.1467C60.4128 97.0335 60.6427 97.1848 60.6427 97.3231C60.6427 97.5024 61.0612 97.6272 61.5797 97.6272C61.9561 97.6272 62.1069 97.5784 62.4948 97.4808C62.4159 97.3771 62.3829 97.2971 62.393 97.2555C62.4091 97.1896 62.7512 97.2935 62.9736 97.4808Z" fill="#181E36"/>
<path fill-rule="evenodd" clip-rule="evenodd" d="M46.7883 85.9706C46.7883 85.9706 58.1662 83.0207 60.7412 83.7616C63.3162 84.5025 62.7499 85.7556 62.7499 87.8128C62.7499 89.8701 62.7499 95.5854 62.7499 95.5854C62.7499 95.5854 62.7062 96.4533 61.3502 96.6079C59.9941 96.7625 59.8079 95.9793 59.8079 95.9793L59.0322 88.0642C59.0322 88.0642 53.4954 91.3152 47.0266 90.7996C40.5577 90.284 46.7883 85.9706 46.7883 85.9706Z" fill="url(#paint8_linear)"/>
<path fill-rule="evenodd" clip-rule="evenodd" d="M59.4085 78.3531L60.1444 80.0573C60.1444 80.0573 60.259 82.7076 60.5558 84.5163C60.8526 86.3251 62.1407 91.0943 62.1071 91.5888C62.0735 92.0834 62.0007 93.1257 62.603 93.2088C62.9865 93.2618 63.2836 92.9292 64.1808 92.5986C64.6928 92.41 66.2172 92.7056 66.7214 92.5106C68.1091 91.9739 67.8213 91.4267 67.5383 91.3001C67.3911 91.2343 66.9025 91.1825 66.2243 91.2059C65.5983 91.2276 64.7135 90.8666 64.4463 90.6842C63.8895 90.3041 63.6602 90.1181 63.5124 89.3133C63.4838 89.1577 63.4464 88.698 63.4036 88.0518C63.2252 85.3556 59.4085 78.3531 59.4085 78.3531Z" fill="#FFBBB0"/>
<path fill-rule="evenodd" clip-rule="evenodd" d="M61.7311 92.8447C61.7311 92.8447 61.6689 93.1555 61.733 93.485C61.797 93.8144 62.5315 93.8549 63.3746 93.6911C64.2177 93.5272 63.8274 93.2696 64.3779 93.0667C64.9283 92.8638 64.9182 93.2005 65.7479 93.0392C66.5776 92.8779 67.6866 92.5049 67.6968 91.6851C67.707 90.8653 61.7311 92.8447 61.7311 92.8447Z" fill="#30334F"/>
<path fill-rule="evenodd" clip-rule="evenodd" d="M64.3082 89.9536C64.5642 90.0441 64.813 90.4371 65.9938 90.4879C67.1747 90.5387 67.9477 90.8019 67.9302 91.2983C67.9127 91.7948 67.4185 92.4743 66.0553 92.61C64.6921 92.7456 64.4381 92.9194 63.7682 93.1134C63.0983 93.3074 62.2964 93.4646 61.8619 93.0135C61.8619 93.0135 61.6227 92.4267 61.5655 91.4886C61.5082 90.5505 61.4637 90.4646 61.6407 90.1317C61.7091 90.0031 61.9637 90.1077 61.9901 90.2435C62.0243 90.4194 62.459 90.4621 62.9679 90.3632C63.3374 90.2914 63.4761 90.2147 63.8383 90.0449C63.741 89.9582 63.6934 89.8859 63.6954 89.8432C63.6986 89.7754 64.0542 89.8121 64.3082 89.9536Z" fill="#181E36"/>
<path fill-rule="evenodd" clip-rule="evenodd" d="M46.0484 83.4007C46.0484 83.4007 56.2838 77.6014 58.9683 77.6563C61.6529 77.7113 61.4326 79.0739 61.9703 81.0712C62.5079 83.0685 64.0017 88.6173 64.0017 88.6173L61.2587 89.7587L58.4396 82.2744C58.4396 82.2744 57.3172 83.3566 56.7244 83.8403C56.7019 83.8436 53.1271 84.5271 53.1046 84.5304C49.92 85.0038 50.3924 85.1147 49.1721 86.0603C48.2111 86.805 49.0683 87.7483 47.5409 88.0274C41.1486 89.1958 46.0484 83.4007 46.0484 83.4007Z" fill="url(#paint9_linear)"/>
<path fill-rule="evenodd" clip-rule="evenodd" d="M38.9326 79.4758C38.9326 79.4758 40.8879 80.0497 42.7006 82.0937C46.3444 81.7635 47.4528 82.0937 47.4528 82.0937L47.0942 90.8369C47.0942 90.8369 42.0941 91.166 38.9326 88.8713C37.3477 87.721 35.5666 86.7123 35.6689 84.706C35.7712 82.6997 35.6664 81.7169 36.1382 80.7815C37.0844 78.9059 38.9326 79.4758 38.9326 79.4758Z" fill="url(#paint10_linear)"/>
<path fill-rule="evenodd" clip-rule="evenodd" d="M51.5222 81.6207L47.7596 82.7817C47.4125 82.8888 47.171 83.2034 47.1571 83.5663L46.967 88.526C46.9459 89.0781 47.446 89.5052 47.988 89.3978L51.5222 88.6973V81.6207Z" fill="white"/>
<path fill-rule="evenodd" clip-rule="evenodd" d="M51.5222 81.4661L47.7596 82.6271C47.4125 82.7342 47.171 83.0488 47.1571 83.4117L46.967 88.3714C46.9459 88.9235 47.446 89.3506 47.988 89.2432L51.5222 88.5427V81.4661Z" fill="#80B1FF"/>
<path fill-rule="evenodd" clip-rule="evenodd" d="M51.6774 81.4661L52.6069 78.6857C52.7606 78.2258 53.4402 78.3363 53.4402 78.8213V83.1861C53.4402 84.2259 53.2032 85.2521 52.7473 86.1866L51.5223 88.6973L51.6774 81.4661Z" fill="white"/>
<path fill-rule="evenodd" clip-rule="evenodd" d="M51.5223 81.4661L52.5128 78.6002C52.6704 78.1442 53.3447 78.2574 53.3447 78.7399V83.1785C53.3447 84.1997 53.1162 85.2079 52.6758 86.1293L51.5223 88.5428V81.4661Z" fill="#586DFF"/>
<path fill-rule="evenodd" clip-rule="evenodd" d="M47.299 83.2476C47.299 83.2476 47.9672 83.9639 48.2508 84.2145C48.5344 84.465 49.0194 85.2524 49.2469 84.9459C49.3465 84.8118 49.0234 84.5597 48.8596 84.1471C48.7283 83.8162 48.9593 83.9374 48.9593 83.9374C48.9593 83.9374 49.6536 84.373 49.9284 84.5419C50.1276 84.6642 50.4757 84.9217 50.6125 84.7837C50.6622 84.7336 50.4745 84.5967 50.29 84.4449C49.9657 84.1783 49.5349 83.8607 49.5854 83.8507C49.6286 83.8422 50.0375 84.1146 50.4489 84.3661C50.7166 84.5297 50.9344 84.6959 50.9968 84.5969C51.0286 84.5464 51.0433 84.5236 50.7607 84.2922C50.3805 83.9808 49.8121 83.576 49.8401 83.5359C49.855 83.5148 50.3969 83.8954 50.5423 83.983C50.8988 84.1977 51.0524 84.3471 51.1123 84.2615C51.1722 84.1759 50.9023 83.9632 50.6064 83.7298C50.31 83.4961 49.9797 83.3065 49.958 83.244C49.9269 83.1549 50.977 83.7741 51.0415 83.7558C51.0984 83.7396 51.0829 83.6527 50.9636 83.5449C50.7665 83.3668 50.3531 83.1185 50.0077 82.9405C48.7193 82.2766 47.8582 81.8678 47.8582 81.8678C47.8582 81.8678 47.4048 82.0705 47.299 82.3316C47.1932 82.5926 47.299 83.2476 47.299 83.2476Z" fill="#FFBBB0"/>
<path fill-rule="evenodd" clip-rule="evenodd" d="M38.9325 79.4758C39.2852 79.4264 42.1678 79.8807 43.7915 80.2955C45.4152 80.7103 48.3853 82.1437 48.3853 82.1437C48.3853 82.1437 47.7724 82.0404 47.5811 82.2804C47.3898 82.5205 47.3942 83.3871 47.3942 83.3871L42.6033 82.1237C42.6033 82.1237 39.5888 79.8852 37.8831 79.7484C36.1775 79.6117 38.5798 79.5252 38.9325 79.4758Z" fill="url(#paint11_linear)"/>
<path fill-rule="evenodd" clip-rule="evenodd" d="M37.0485 79.6501C37.0485 79.6501 33.4552 77.1245 35.4516 75.1867C36.0415 73.6793 36.7644 73.0374 39.5492 73.4491C40.5376 72.6301 41.6524 73.4068 41.5548 74.2483C41.4572 75.0899 41.0424 76.1246 39.5492 76.5486C38.0561 76.9725 39.481 78.2951 38.1497 79.1437C36.8183 79.9923 37.0485 79.6501 37.0485 79.6501Z" fill="#30334F"/>
<path fill-rule="evenodd" clip-rule="evenodd" d="M40.8869 75.4202C40.8869 75.4202 41.2507 78.1315 41.2507 79.1892C41.2507 80.2469 40.3874 80.3665 39.2963 80.3067L38.9421 81.6436C38.9421 81.6436 39.6505 82.0688 39.2963 82.4571C38.9421 82.8454 36.2891 81.1882 36.2891 81.1882C36.2891 81.1882 36.9829 79.4764 36.9829 78.9755C36.9829 78.4746 36.1872 77.5455 37.165 77.259C38.1427 76.9724 37.6934 78.4903 38.2316 78.4903C38.7699 78.4903 38.0937 76.8287 38.4318 76.3153C39.8625 76.0059 40.8869 75.4202 40.8869 75.4202Z" fill="#FFBBB0"/>
<mask id="mask5" mask-type="alpha" maskUnits="userSpaceOnUse" x="36" y="75" width="6" height="8">
<path fill-rule="evenodd" clip-rule="evenodd" d="M40.8869 75.4202C40.8869 75.4202 41.2507 78.1315 41.2507 79.1892C41.2507 80.2469 40.3874 80.3665 39.2963 80.3067L38.9421 81.6436C38.9421 81.6436 39.6505 82.0688 39.2963 82.4571C38.9421 82.8454 36.2891 81.1882 36.2891 81.1882C36.2891 81.1882 36.9829 79.4764 36.9829 78.9755C36.9829 78.4746 36.1872 77.5455 37.165 77.259C38.1427 76.9724 37.6934 78.4903 38.2316 78.4903C38.7699 78.4903 38.0937 76.8287 38.4318 76.3153C39.8625 76.0059 40.8869 75.4202 40.8869 75.4202Z" fill="white"/>
</mask>
<g mask="url(#mask5)">
<g style="mix-blend-mode:multiply" opacity="0.34">
<path fill-rule="evenodd" clip-rule="evenodd" d="M39.4338 80.3239L37.6179 79.8344C37.6179 79.8344 38.7432 81.5833 39.0885 81.7177C39.4338 81.8522 39.4338 80.3239 39.4338 80.3239Z" fill="#D8D8D8"/>
</g>
</g>
<path fill-rule="evenodd" clip-rule="evenodd" d="M45.7067 86.7614C45.7067 86.7614 46.3674 85.9256 46.6529 85.6286C46.9384 85.3316 47.3924 84.4364 47.67 84.7457C47.7915 84.881 47.463 85.1834 47.3238 85.644C47.2122 86.0134 47.4528 85.8609 47.4528 85.8609C47.4528 85.8609 48.1688 85.3255 48.4525 85.1175C48.6582 84.9667 49.0134 84.6562 49.176 84.7922C49.235 84.8416 49.0433 85.0069 48.8564 85.1881C48.528 85.5062 48.0882 85.8895 48.1443 85.8955C48.1923 85.9006 48.6125 85.5682 49.0374 85.2582C49.3139 85.0565 49.5357 84.8566 49.6133 84.9576C49.6528 85.0091 49.6711 85.0323 49.3848 85.3086C48.9997 85.6803 48.4181 86.1705 48.4525 86.2111C48.4707 86.2326 49.0258 85.7709 49.176 85.6628C49.5445 85.3975 49.6979 85.2219 49.7715 85.3086C49.8451 85.3953 49.5708 85.6502 49.2702 85.9299C48.9691 86.21 48.6269 86.4456 48.6091 86.515C48.5837 86.6141 49.6705 85.8472 49.7427 85.8609C49.8063 85.873 49.7977 85.9682 49.6778 86.0958C49.4798 86.3065 49.0523 86.6133 48.6925 86.8378C47.3498 87.6753 46.4492 88.1975 46.4492 88.1975L45.7067 86.7614Z" fill="#FFBBB0"/>
<path fill-rule="evenodd" clip-rule="evenodd" d="M35.7039 83.9204C35.7039 83.9204 35.458 85.4573 36.9374 88.0267C38.4169 90.5961 38.709 91.6178 40.9257 91.9372C43.1424 92.2565 46.9876 88.1468 46.9876 88.1468C46.9876 88.1468 46.9932 87.6661 46.6517 87.0528C46.3102 86.4395 45.7812 86.4614 45.7812 86.4614L41.3282 88.6386C41.3282 88.6386 39.0622 83.7675 36.8138 83.7675L35.7039 83.9204Z" fill="url(#paint12_linear)"/>
<path fill-rule="evenodd" clip-rule="evenodd" d="M101.882 17.8414V44.5504C101.882 44.5504 113.567 49.8854 112.627 63.6266C112.627 63.6266 118.068 56.1562 118.068 40.1962C118.576 36.0716 116.596 31.4275 116.596 31.4275C114.892 24.9156 101.882 17.8414 101.882 17.8414Z" fill="#ADCCFF"/>
<path fill-rule="evenodd" clip-rule="evenodd" d="M98.212 20.7708L97.303 21.2284L98.0074 44.545C98.0074 44.545 102.548 45.8064 105.362 48.9637C108.176 52.121 108.625 56.4576 108.625 56.4576H109.422V29.4269C109.422 29.4269 108.31 27.0343 105.362 24.5808C102.413 22.1274 98.212 20.7708 98.212 20.7708Z" fill="white"/>
<path fill-rule="evenodd" clip-rule="evenodd" d="M97.303 21.2285V45.0599C97.303 45.0599 108.141 49.9549 108.718 56.4576V29.8822C108.718 29.8822 107.606 27.4802 104.657 25.0171C101.709 22.554 97.303 21.2285 97.303 21.2285Z" fill="#D1E3FF"/>
<path fill-rule="evenodd" clip-rule="evenodd" d="M59.0634 76.5475C59.0634 76.5475 78.3505 74.8851 85.708 72.4496L86.2716 73.0114L85.708 97.9032L59.6269 101.355L59.0634 100.793V76.5475Z" fill="#D1E3FF"/>
<path fill-rule="evenodd" clip-rule="evenodd" d="M59.6268 77.1093C59.6268 77.1093 78.914 75.4469 86.2715 73.0114V98.465C86.2715 98.465 71.623 101.874 59.6268 101.355V77.1093Z" fill="url(#paint13_linear)"/>
<path fill-rule="evenodd" clip-rule="evenodd" d="M63.7802 78.6366C63.7802 78.6366 64.3401 78.5289 64.6206 78.5069C108.401 75.0798 117.942 60.1666 117.767 40.1961C117.725 35.4836 116.478 31.3026 116.478 31.3026C116.478 31.3026 118.184 33.515 118.525 37.9217C118.868 42.3537 118.401 56.8923 118.525 63.6266C118.868 82.1917 113.11 90.0047 101.063 96.9152C89.0165 103.826 63.7802 105.211 63.7802 105.211V78.6366Z" fill="#EDF3FD"/>
<path d="M97.2422 30.5069C87.8392 26.767 76.5085 24.5837 64.3129 24.5837C31.7506 24.5837 5.35352 40.1486 5.35352 59.349C5.35352 78.5493 31.7506 94.1143 64.3129 94.1143V94.1143C96.8753 94.1143 123.272 78.5493 123.272 59.349C123.272 54.619 121.67 50.1097 118.769 45.9994" stroke="#3C7092" stroke-width="1.296" stroke-dasharray="1.94 2.27"/>
<path fill-rule="evenodd" clip-rule="evenodd" d="M41.4569 44.9467C41.4569 44.9467 40.8856 45.5675 41.1228 46.5875C41.36 47.6075 42.0176 47.9285 42.3425 48.7217C42.6675 49.5149 44.5313 50.7663 45.1947 50.2693C45.8581 49.7723 43.9234 47.8252 43.8508 47.6341C43.7783 47.4431 41.4569 44.9467 41.4569 44.9467Z" fill="#051B4D"/>
<path fill-rule="evenodd" clip-rule="evenodd" d="M43.3969 42.2274L43.2758 44.4409C43.215 45.552 43.4269 46.6702 43.9913 47.6293C44.1778 47.9462 44.3691 48.2472 44.532 48.4546C45.0588 49.1248 44.4855 49.5557 43.4422 49.0088C42.8086 48.6767 42.1497 47.7501 41.7299 47.0736C41.421 46.5757 41.2727 46.0007 41.2447 45.4154L41.0944 42.2716L43.3969 42.2274Z" fill="#FFBBB0"/>
<path fill-rule="evenodd" clip-rule="evenodd" d="M40.6136 19.0855C40.6136 19.0855 39.08 22.762 40.2443 25.3312C40.1518 29.5233 40.6418 31.3146 40.6418 32.6243C40.6418 33.9341 40.6418 42.8111 40.6418 42.8111C40.6418 42.8111 41.3146 43.5883 42.1843 43.5883C43.0539 43.5883 43.7069 43.1976 43.7069 43.1976L43.9503 30.5038L45.1649 17.1811L40.6136 19.0855Z" fill="url(#paint14_linear)"/>
<path fill-rule="evenodd" clip-rule="evenodd" d="M46.5253 44.315C46.5253 44.315 46.0705 44.877 46.7771 46.59C47.4837 48.3031 48.2979 49.0031 49.2892 49.3168C50.2805 49.6305 49.8514 47.7701 49.2388 46.8683C48.6263 45.9664 48.3459 44.1486 48.3459 44.1486L46.5253 44.315Z" fill="#051B4D"/>
<path fill-rule="evenodd" clip-rule="evenodd" d="M48.4483 40.6099L48.4391 44.5244C48.4391 44.5244 49.0864 46.7199 49.5038 47.3904C49.9211 48.0609 48.572 48.2845 47.8934 47.6191C47.2148 46.9538 46.5544 44.7906 46.5544 44.7906L46.1511 40.7747L48.4483 40.6099Z" fill="#FFBBB0"/>
<path fill-rule="evenodd" clip-rule="evenodd" d="M43.544 16.8233C43.544 16.8233 43.0165 20.6777 44.1808 23.2469C45.0538 27.0457 45.4686 29.725 45.4686 29.725L45.6609 42.0777C45.6609 42.0777 46.0038 42.7664 47.2631 42.7664C48.5224 42.7664 48.5569 42.0777 48.5569 42.0777C48.5569 42.0777 49.1687 34.1732 49.1687 29.2615C49.1687 24.3499 46.3601 15.9814 46.3601 15.9814L43.544 16.8233Z" fill="url(#paint15_linear)"/>
<path fill-rule="evenodd" clip-rule="evenodd" d="M48.4934 10.5917C48.4934 10.5917 49.9246 11.1615 50.0787 12.0171C50.2328 12.8726 49.9841 13.1182 49.9841 13.1182C49.9841 13.1182 49.6121 13.2982 49.3155 12.9718C49.019 12.6454 48.6824 11.6855 48.6824 11.6855L48.4934 10.5917Z" fill="url(#paint16_linear)"/>
<path fill-rule="evenodd" clip-rule="evenodd" d="M51.2551 6.3082C51.2551 6.2904 51.3309 5.79745 51.5375 5.17768C51.6218 4.92498 51.4182 3.25809 51.2551 3.40707C51.092 3.55605 51.2455 4.52074 51.2056 4.60923C51.0315 4.00906 50.5179 4.14488 50.1382 4.01221C49.7585 3.87955 49.4033 2.79107 49.2359 2.98192C49.0684 3.17277 49.3494 3.91456 49.623 4.14304C49.8965 4.37153 50.2689 4.49399 50.2689 4.49399L49.666 6.52479L48.1077 11.7616L49.1154 14.6848C49.1154 14.6848 51.2551 6.35834 51.2551 6.3082Z" fill="#FFBBB0"/>
<path fill-rule="evenodd" clip-rule="evenodd" d="M46.0475 8.37166C46.0475 8.37166 47.1445 7.90788 47.6704 9.67552C48.1964 11.4431 48.1964 11.5217 48.1964 11.5217L48.4057 10.7193C48.4057 10.7193 48.1964 12.3928 50.0707 13.0249C50.0707 13.0249 49.358 15.3844 48.5193 15.6493C47.6806 15.9143 47.2645 15.6761 46.9879 15.1805C46.7113 14.6849 46.0475 8.37166 46.0475 8.37166Z" fill="#586DFF"/>
<mask id="mask6" mask-type="alpha" maskUnits="userSpaceOnUse" x="46" y="8" width="5" height="8">
<path fill-rule="evenodd" clip-rule="evenodd" d="M46.0475 8.37166C46.0475 8.37166 47.1445 7.90788 47.6704 9.67552C48.1964 11.4431 48.1964 11.5217 48.1964 11.5217L48.4057 10.7193C48.4057 10.7193 48.1964 12.3928 50.0707 13.0249C50.0707 13.0249 49.358 15.3844 48.5193 15.6493C47.6806 15.9143 47.2645 15.6761 46.9879 15.1805C46.7113 14.6849 46.0475 8.37166 46.0475 8.37166Z" fill="white"/>
</mask>
<g mask="url(#mask6)">
<g style="mix-blend-mode:multiply">
<path fill-rule="evenodd" clip-rule="evenodd" d="M47.3321 8.69836C47.3321 8.69836 48.459 11.2724 48.3012 13.5389C48.1434 15.8053 46.9878 16.0873 46.9878 16.0873C46.9878 16.0873 46.3903 12.6444 46.5481 12.0876C46.7059 11.5309 47.3321 8.69836 47.3321 8.69836Z" fill="#A9AAC4"/>
</g>
</g>
<path fill-rule="evenodd" clip-rule="evenodd" d="M41.5378 9.39477C41.9609 9.12619 43.281 8.95254 44.531 8.72387C45.2543 8.59155 45.9757 8.38113 46.4303 8.27777C47.255 8.27777 47.4149 9.53119 47.6247 10.8443C47.8345 12.1574 48.3014 13.6627 48.0196 14.4649C47.7378 15.2672 47.1134 15.5968 47.1134 15.5968C47.1134 15.5968 46.9773 18.0331 47.2655 18.8767C46.8744 19.5167 45.4551 20.1908 44.2405 20.512C43.0259 20.8333 40.3437 20.1809 40.2442 20.0327C39.6731 19.1817 40.5591 17.367 40.0196 15.5968C39.3863 13.5184 39.2097 12.1355 39.3955 11.1582C39.5812 10.1809 40.87 9.81876 41.5378 9.39477Z" fill="#586DFF"/>
<mask id="mask7" mask-type="alpha" maskUnits="userSpaceOnUse" x="39" y="8" width="10" height="13">
<path fill-rule="evenodd" clip-rule="evenodd" d="M41.5378 9.39477C41.9609 9.12619 43.281 8.95254 44.531 8.72387C45.2543 8.59155 45.9757 8.38113 46.4303 8.27777C47.255 8.27777 47.4149 9.53119 47.6247 10.8443C47.8345 12.1574 48.3014 13.6627 48.0196 14.4649C47.7378 15.2672 47.1134 15.5968 47.1134 15.5968C47.1134 15.5968 46.9773 18.0331 47.2655 18.8767C46.8744 19.5167 45.4551 20.1908 44.2405 20.512C43.0259 20.8333 40.3437 20.1809 40.2442 20.0327C39.6731 19.1817 40.5591 17.367 40.0196 15.5968C39.3863 13.5184 39.2097 12.1355 39.3955 11.1582C39.5812 10.1809 40.87 9.81876 41.5378 9.39477Z" fill="white"/>
</mask>
<g mask="url(#mask7)">
<g style="mix-blend-mode:multiply">
<path fill-rule="evenodd" clip-rule="evenodd" d="M38.9313 11.0796C38.9313 11.0796 40.8557 12.2229 41.3673 14.19C41.8789 16.157 42.8476 16.227 43.9678 16.0145C45.088 15.8019 46.0015 15.4309 47.5292 15.5867C49.0568 15.7426 48.1011 16.2834 46.9919 16.1634C45.8826 16.0435 45.9896 15.9008 44.919 16.3249C43.8484 16.749 43.0952 16.8901 42.5997 16.3249C42.5997 17.3636 39.9369 20.0687 38.494 16.5128C37.051 12.9568 38.9313 11.0796 38.9313 11.0796Z" fill="#A9AAC4"/>
</g>
<path fill-rule="evenodd" clip-rule="evenodd" d="M41.0915 13.0104C41.0915 13.0104 41.0765 12.4757 41.4783 12.5558C41.8801 12.6359 43.428 14.1508 42.9383 15.0257C42.4487 15.9006 41.0915 13.0104 41.0915 13.0104Z" fill="url(#paint17_linear)"/>
</g>
<path fill-rule="evenodd" clip-rule="evenodd" d="M44.9109 8.14534C44.9109 8.14534 44.8702 8.72667 44.9551 8.87466C44.9551 8.87466 45.3571 8.76062 45.679 9.40835C46.0009 10.0561 46.0648 10.7446 45.8197 11.3571C45.5745 11.9696 44.513 12.149 43.6043 11.5664C42.3659 10.7651 42.4594 9.2577 42.6002 9.13328C42.7409 9.00886 43.2732 9.0678 42.6549 6.47111C42.0365 3.87443 44.9109 8.14534 44.9109 8.14534Z" fill="#FFBBB0"/>
<mask id="mask8" mask-type="alpha" maskUnits="userSpaceOnUse" x="42" y="5" width="4" height="7">
<path fill-rule="evenodd" clip-rule="evenodd" d="M44.9109 8.14534C44.9109 8.14534 44.8702 8.72667 44.9551 8.87466C44.9551 8.87466 45.3571 8.76062 45.679 9.40835C46.0009 10.0561 46.0648 10.7446 45.8197 11.3571C45.5745 11.9696 44.513 12.149 43.6043 11.5664C42.3659 10.7651 42.4594 9.2577 42.6002 9.13328C42.7409 9.00886 43.2732 9.0678 42.6549 6.47111C42.0365 3.87443 44.9109 8.14534 44.9109 8.14534Z" fill="white"/>
</mask>
<g mask="url(#mask8)">
<g style="mix-blend-mode:multiply" opacity="0.2">
<path fill-rule="evenodd" clip-rule="evenodd" d="M43.0214 6.81256C43.0214 6.81256 43.392 8.78112 45.0292 8.70004C46.6665 8.61896 45.4066 7.69292 45.2179 7.53772C45.0292 7.38252 43.0214 6.81256 43.0214 6.81256Z" fill="#A9AAC4"/>
</g>
</g>
<path fill-rule="evenodd" clip-rule="evenodd" d="M41.9501 3.64901C42.8633 3.84313 43.7606 3.26233 43.9542 2.35174C44.1477 1.44116 43.5642 0.545619 42.651 0.351494C41.7377 0.157369 40.8404 0.738173 40.6469 1.64876C40.4533 2.55934 41.0368 3.45488 41.9501 3.64901Z" fill="#30334F"/>
<path fill-rule="evenodd" clip-rule="evenodd" d="M42.9252 4.14348C43.496 4.26481 44.0568 3.90181 44.1777 3.33269C44.2987 2.76358 43.934 2.20387 43.3632 2.08254C42.7924 1.96121 42.2316 2.32421 42.1107 2.89333C41.9897 3.46244 42.3544 4.02215 42.9252 4.14348Z" fill="white"/>
<path fill-rule="evenodd" clip-rule="evenodd" d="M46.3831 5.13854C47.4304 5.16499 47.8095 2.9831 46.225 2.88341C45.0209 2.62748 44.6219 1.63686 43.0028 2.50829C41.3836 3.37972 40.7551 6.33667 42.9607 6.80548C45.1663 7.2743 46.3371 6.08724 46.3831 5.13854Z" fill="#30334F"/>
<path fill-rule="evenodd" clip-rule="evenodd" d="M46.2992 4.14266C46.2992 4.14266 46.4994 4.58151 46.2493 5.75816C45.9992 6.93481 45.7769 8.59516 44.7913 8.41519C43.8056 8.23522 43.2746 7.86669 42.8905 7.11129C42.5063 6.35588 42.5457 6.18357 42.5457 6.18357C42.5457 6.18357 42.1077 5.98901 42.1129 5.65441C42.1182 5.31982 42.3554 5.05524 42.8204 5.15409C43.2855 5.25294 44.7646 5.7667 45.7582 4.13198C45.7582 4.13198 45.9014 4.22795 46.0326 4.2284C46.1638 4.22885 46.2992 4.14266 46.2992 4.14266Z" fill="#FFBBB0"/>
<path fill-rule="evenodd" clip-rule="evenodd" d="M44.7103 5.88072C44.669 5.87195 44.645 5.82008 44.6567 5.76488C44.6685 5.70968 44.7115 5.67205 44.7528 5.68082C44.794 5.6896 44.818 5.74147 44.8063 5.79667C44.7945 5.85187 44.7516 5.8895 44.7103 5.88072Z" fill="#031120"/>
<path fill-rule="evenodd" clip-rule="evenodd" d="M45.8516 5.98883C45.8158 5.98122 45.7953 5.93478 45.8059 5.8851C45.8164 5.83542 45.854 5.80131 45.8898 5.80892C45.9256 5.81653 45.946 5.86297 45.9355 5.91265C45.9249 5.96233 45.8873 5.99644 45.8516 5.98883Z" fill="#031120"/>
<path d="M45.0341 5.4022C45.0341 5.4022 44.7491 5.32817 44.4732 5.39742" stroke="#031120" stroke-width="0.5" stroke-linecap="round"/>
<path d="M45.7679 5.53182C45.7679 5.53182 45.9692 5.48668 46.1538 5.55523" stroke="#031120" stroke-width="0.5" stroke-linecap="round"/>
<path d="M45.366 5.94765C45.366 5.94765 45.3976 6.34772 45.5037 6.50379C45.6098 6.65986 45.6938 6.88379 45.3082 6.80467" stroke="#E77575" stroke-width="0.5" stroke-linecap="round"/>
<path d="M45.3331 7.38379C45.3331 7.38379 45.2672 7.43921 45.0694 7.45538C44.8716 7.47155 44.6326 7.36253 44.6326 7.36253" stroke="#E77575" stroke-width="0.5" stroke-linecap="round"/>
<path fill-rule="evenodd" clip-rule="evenodd" d="M50.6193 4.229C50.6193 4.229 50.4221 3.90312 50.4221 3.86001C50.4221 3.85628 50.4181 3.84499 50.4106 3.82739C50.3315 3.64157 49.8683 2.75213 49.7285 2.62676C49.5755 2.48953 49.4725 2.70876 49.5868 3.03412C49.701 3.35947 49.984 4.0378 49.984 4.0378L50.6193 4.229Z" fill="#FFBBB0"/>
<path fill-rule="evenodd" clip-rule="evenodd" d="M48.8239 3.6305C49.07 3.47581 49.2268 4.02043 49.4423 4.18454C49.6577 4.34864 49.3674 4.85285 49.3674 4.85285C49.3674 4.85285 48.9448 4.88528 48.8239 4.40358C48.7029 3.92188 48.5777 3.78519 48.8239 3.6305Z" fill="#FFBBB0"/>
<path fill-rule="evenodd" clip-rule="evenodd" d="M44.8491 6.02303C44.8491 5.54003 45.1729 5.11701 45.6392 4.99091L49.5845 3.92384C49.7878 3.86886 50.0028 3.87514 50.2026 3.94189L50.3621 3.99521C50.6384 4.08754 50.8247 4.34622 50.8247 4.63753L50.2141 5.95297C50.0038 6.57386 49.676 7.11416 49.2452 7.55019L48.4613 7.28823C48.2 7.20091 47.9834 6.92613 47.9659 6.65969C47.9563 6.51479 47.8337 6.36665 47.6919 6.32881C47.6438 6.31597 47.5975 6.31721 47.5585 6.33238L47.5553 6.3336C47.3171 6.42612 47.1759 6.65496 47.1759 6.94882V7.03478C47.1759 7.39386 47.0568 7.703 46.8373 7.91383L46.6173 8.12506L45.9323 7.89615C45.3341 7.69624 44.8491 7.04944 44.8491 6.45148V6.02303Z" fill="url(#paint18_linear)"/>
<path fill-rule="evenodd" clip-rule="evenodd" d="M45.6742 6.20339C45.7014 5.74457 46.0187 5.35443 46.4624 5.23443L50.2941 4.19811C50.5276 4.13496 50.7548 4.31778 50.7431 4.55938L50.6701 6.06825C50.6701 6.76975 50.2964 7.2933 49.6893 7.44236L49.222 7.5571C49.0586 7.59721 48.8494 7.4717 48.7546 7.27676C48.7244 7.21456 48.7085 7.15009 48.7085 7.08988V6.96448C48.7085 6.83241 48.6014 6.68956 48.4693 6.6454C48.4189 6.62859 48.3699 6.62806 48.3291 6.64389C48.0909 6.73641 47.9497 6.96525 47.9497 7.25911V7.34507C47.9497 7.68661 47.7635 7.93875 47.4639 8.00281L46.7863 8.14765C46.4058 8.22899 45.9283 7.9301 45.7197 7.48006C45.6562 7.34313 45.6229 7.20217 45.6229 7.0702L45.6742 6.20339Z" fill="white"/>
<path fill-rule="evenodd" clip-rule="evenodd" d="M45.7776 6.33327C45.7776 5.85028 46.1014 5.42726 46.5676 5.30116L50.3753 4.27134C50.6019 4.21007 50.8248 4.38069 50.8248 4.61538V6.06821C50.8248 6.76971 50.4511 7.29326 49.844 7.44232L49.3766 7.55706C49.2133 7.59717 49.0041 7.47165 48.9093 7.27672C48.8791 7.21452 48.8632 7.15005 48.8632 7.08983V6.96444C48.8632 6.83237 48.7561 6.68951 48.6239 6.64536C48.5736 6.62854 48.5246 6.62802 48.4838 6.64385C48.2455 6.73637 48.1044 6.96521 48.1044 7.25906V7.34503C48.1044 7.68657 47.9181 7.93871 47.6185 8.00276L46.941 8.14761C46.5605 8.22895 46.0829 7.93006 45.8743 7.48002C45.8109 7.34309 45.7776 7.20213 45.7776 7.07016V6.33327Z" fill="#80B1FF"/>
<path fill-rule="evenodd" clip-rule="evenodd" d="M44.0706 7.24839C44.0706 7.24839 44.2358 5.9866 44.3431 5.68867C44.4503 5.39075 45.0753 4.32991 45.3595 4.32991C45.6436 4.32991 45.0487 5.534 45.0487 5.534C45.0487 5.534 45.4798 5.02456 45.6385 4.80734C45.9174 4.42589 46.0295 4.09108 46.1842 4.14979C46.5141 4.27497 45.4727 5.99254 45.4727 5.99254C45.4727 5.99254 45.7694 5.80161 45.8643 5.68867C46.2244 5.26011 46.636 4.62962 46.7441 4.80734C46.9009 5.06513 45.9925 6.17262 45.9276 6.43058C45.8844 6.60228 46.1247 6.42806 46.3487 6.24128C46.4612 6.14745 46.6777 6.15246 46.7441 6.09455C46.9424 5.92137 47.1173 5.99834 46.8559 6.3393C46.7681 6.45377 46.5489 6.49282 46.4405 6.60942C46.226 6.84014 46.0072 7.05445 45.9276 7.17091C45.8077 7.34624 45.6421 8.17372 44.9413 8.43603C44.2405 8.69833 43.3183 13.7692 42.6062 14.9296C41.8941 16.0901 41.036 16.3584 40.4026 15.8229C39.7692 15.2873 41.195 12.9745 41.8839 11.6162C42.5729 10.2578 44.0706 7.24839 44.0706 7.24839Z" fill="#FFBBB0"/>
<path fill-rule="evenodd" clip-rule="evenodd" d="M39.734 10.5023C39.734 10.5023 38.8835 11.3615 38.8835 13.7244C38.8835 16.0873 39.7188 17.9407 40.8258 17.7479C41.9329 17.5551 42.9383 15.0258 42.9383 15.0258C42.9383 15.0258 41.3467 15.0258 41.0823 12.9695L40.6808 13.8041C40.6808 13.8041 40.6135 12.6541 40.4349 12.0063C40.2562 11.3585 39.734 10.5023 39.734 10.5023Z" fill="#586DFF"/>
<path fill-rule="evenodd" clip-rule="evenodd" d="M51.4646 5.43258C51.5493 4.84923 51.2949 4.43613 51.103 4.14308C50.8247 3.71809 50.4859 3.20371 50.4058 3.0734C49.849 2.16765 49.9938 3.06281 50.0211 3.13534C50.2595 3.76988 50.6776 4.48864 50.6776 4.69891C50.6776 5.18015 50.3707 5.51565 50.3707 6.38202C50.3707 7.2484 50.6074 7.55862 50.6074 7.55862C50.6074 7.55862 51.38 6.01594 51.4646 5.43258Z" fill="#FFBBB0"/>
<defs>
<linearGradient id="paint0_linear" x1="-29.6791" y1="95.7495" x2="36" y2="169.042" gradientUnits="userSpaceOnUse">
<stop stop-color="#56A1FF"/>
<stop offset="1" stop-color="#5187DC"/>
</linearGradient>
<linearGradient id="paint1_linear" x1="8.48981" y1="70.5892" x2="38.5603" y2="104.501" gradientUnits="userSpaceOnUse">
<stop stop-color="#56A1FF"/>
<stop offset="1" stop-color="#5187DC"/>
</linearGradient>
<linearGradient id="paint2_linear" x1="64.2413" y1="40.1236" x2="65.8078" y2="41.3064" gradientUnits="userSpaceOnUse">
<stop stop-color="#15539E"/>
<stop offset="1" stop-color="#092965"/>
</linearGradient>
<linearGradient id="paint3_linear" x1="57.9799" y1="53.4378" x2="68.5961" y2="62.8314" gradientUnits="userSpaceOnUse">
<stop stop-color="#15539E"/>
<stop offset="1" stop-color="#092965"/>
</linearGradient>
<linearGradient id="paint4_linear" x1="52.0773" y1="52.7728" x2="58.8387" y2="65.7466" gradientUnits="userSpaceOnUse">
<stop stop-color="#15539E"/>
<stop offset="1" stop-color="#092965"/>
</linearGradient>
<linearGradient id="paint5_linear" x1="56.7821" y1="42.1139" x2="58.4507" y2="43.5503" gradientUnits="userSpaceOnUse">
<stop stop-color="#15539E"/>
<stop offset="1" stop-color="#092965"/>
</linearGradient>
<linearGradient id="paint6_linear" x1="59.7726" y1="34.0496" x2="62.1388" y2="37.9932" gradientUnits="userSpaceOnUse">
<stop stop-color="#15539E"/>
<stop offset="1" stop-color="#092965"/>
</linearGradient>
<linearGradient id="paint7_linear" x1="61.3851" y1="70.9374" x2="61.3851" y2="103.169" gradientUnits="userSpaceOnUse">
<stop stop-color="#FB6464"/>
<stop offset="1" stop-color="#FA4E40"/>
</linearGradient>
<linearGradient id="paint8_linear" x1="66.4323" y1="88.7266" x2="59.3637" y2="101.043" gradientUnits="userSpaceOnUse">
<stop stop-color="#15539E"/>
<stop offset="1" stop-color="#092965"/>
</linearGradient>
<linearGradient id="paint9_linear" x1="65.6987" y1="80.752" x2="62.45" y2="94.0759" gradientUnits="userSpaceOnUse">
<stop stop-color="#15539E"/>
<stop offset="1" stop-color="#092965"/>
</linearGradient>
<linearGradient id="paint10_linear" x1="47.4528" y1="79.343" x2="47.4528" y2="90.8782" gradientUnits="userSpaceOnUse">
<stop stop-color="white"/>
<stop offset="1" stop-color="#F0F0F0"/>
</linearGradient>
<linearGradient id="paint11_linear" x1="47.8232" y1="78.1441" x2="48.5375" y2="83.2265" gradientUnits="userSpaceOnUse">
<stop stop-color="white"/>
<stop offset="1" stop-color="#F0F0F0"/>
</linearGradient>
<linearGradient id="paint12_linear" x1="46.9877" y1="83.7675" x2="46.9877" y2="91.9602" gradientUnits="userSpaceOnUse">
<stop stop-color="white"/>
<stop offset="1" stop-color="#F0F0F0"/>
</linearGradient>
<linearGradient id="paint13_linear" x1="59.6268" y1="73.0114" x2="59.6268" y2="101.423" gradientUnits="userSpaceOnUse">
<stop stop-color="#8EBBFF"/>
<stop offset="1" stop-color="#5586FF"/>
</linearGradient>
<linearGradient id="paint14_linear" x1="38.7097" y1="27.5523" x2="46.365" y2="29.4224" gradientUnits="userSpaceOnUse">
<stop stop-color="#15539E"/>
<stop offset="1" stop-color="#092965"/>
</linearGradient>
<linearGradient id="paint15_linear" x1="42.2777" y1="26.501" x2="50.4006" y2="28.5894" gradientUnits="userSpaceOnUse">
<stop stop-color="#15539E"/>
<stop offset="1" stop-color="#092965"/>
</linearGradient>
<linearGradient id="paint16_linear" x1="48.1805" y1="11.6091" x2="49.747" y2="12.7919" gradientUnits="userSpaceOnUse">
<stop stop-color="#15539E"/>
<stop offset="1" stop-color="#092965"/>
</linearGradient>
<linearGradient id="paint17_linear" x1="40.7213" y1="13.5993" x2="42.3899" y2="15.0357" gradientUnits="userSpaceOnUse">
<stop stop-color="#15539E"/>
<stop offset="1" stop-color="#092965"/>
</linearGradient>
<linearGradient id="paint18_linear" x1="43.7119" y1="5.53509" x2="46.078" y2="9.47862" gradientUnits="userSpaceOnUse">
<stop stop-color="#15539E"/>
<stop offset="1" stop-color="#092965"/>
</linearGradient>
</defs>
</svg>
