<svg width="103" height="104" viewBox="0 0 103 104" fill="none" xmlns="http://www.w3.org/2000/svg">
<circle cx="52" cy="52" r="52" fill="#0034A0"/>
<path d="M93.6089 58.3304C92.9411 59.5914 92.0873 60.7448 91.0762 61.7516L89.3801 63.4523L88.0756 64.7542L68.9021 83.9275L60.7601 92.0752C55.1685 97.6645 46.1015 97.6645 40.5098 92.0752L23.4419 75.0019L22.8887 74.4487L20.356 71.9161L14.5049 66.0651L13.8711 65.4313L13.4332 64.9935L13.1956 64.7559L10.1937 61.7541C4.60209 56.1648 4.60209 47.1007 10.1937 41.5093L18.3379 33.3701L38.8133 12.8902L40.5094 11.1942C41.839 9.86451 43.4175 8.8097 45.1548 8.09005C46.892 7.3704 48.7541 7 50.6345 7C52.515 7 54.377 7.3704 56.1143 8.09005C57.8516 8.8097 59.4301 9.86451 60.7597 11.1942L91.0753 41.5088C95.63 46.0604 96.477 52.922 93.6089 58.3304Z" fill="#F0F5FD"/>
<path opacity="0.48" d="M93.2914 58.2999C92.6202 59.5573 91.7626 60.7074 90.7471 61.7117L89.0444 63.4061L87.7333 64.7033L86.4179 66.009L68.4744 83.82L60.298 91.9403C54.6826 97.5138 45.5741 97.5138 39.9592 91.9403C92.2723 64.2539 50.1264 7.12044 50.1264 7.12044C52.0158 7.11776 53.8871 7.48579 55.6327 8.20338C57.3783 8.92097 58.9637 9.97396 60.298 11.3018L64.541 15.5135L90.7475 41.5266C95.3214 46.0671 96.1708 52.9078 93.2914 58.2999Z" fill="url(#paint0_linear)"/>
<path opacity="0.48" d="M83.9823 63.1511C83.9823 63.1511 80.6369 64.5019 77.5944 64.8591C74.5519 65.2164 67.0824 68.3755 61.6882 70.3846C56.2941 72.3936 51.2474 76.3628 47.7841 76.2595C47.7841 76.2595 42.9506 77.094 40.4982 76.9739C38.0458 76.8538 28.6574 75.4494 26.6991 76.8663C26.6071 76.9347 26.521 77.0109 26.4418 77.094L25.8885 76.5408L23.3555 74.0081L17.5038 68.1572L16.8699 67.5234C19.1897 63.4221 21.6545 60.549 26.7502 60.3363C32.1589 60.1138 35.9013 62.5143 40.3729 62.7858C45.843 63.1138 48.9683 62.3844 52.9552 63.339C54.1763 63.6276 54.9864 63.9603 55.5285 64.3107C60.465 63.4736 66.1066 62.4852 66.5299 62.2991C69.1389 61.1687 75.2527 59.9084 79.2739 60.1506C83.2952 60.3929 83.9823 63.1511 83.9823 63.1511Z" fill="url(#paint1_linear)"/>
<path d="M53.9592 24.1204V67.7123" stroke="url(#paint2_linear)" stroke-width="2" stroke-miterlimit="10"/>
<path d="M49.9592 67.8123C49.9592 67.8123 54.3103 66.5528 58.1296 65.805C62.569 64.9357 63.6862 64.1012 66.2051 63.0944C68.724 62.0875 76.7759 59.5055 78.0742 62.5798C79.2888 65.4529 56.9488 71.2978 56.9488 71.2978L49.9592 67.8123Z" fill="#FCD1C4"/>
<path d="M53.7302 67.7426C53.7302 67.7426 58.0813 66.4831 61.9006 65.7353C66.34 64.866 67.4572 64.0315 69.9761 63.0247C72.495 62.0178 80.5469 59.4358 81.8452 62.5101C83.0598 65.3832 60.7198 71.2281 60.7198 71.2281L53.7302 67.7426Z" fill="#F9C0AA"/>
<path d="M85.5278 65.1796C85.5278 65.1796 82.2554 66.692 79.233 67.195C76.2106 67.6981 68.905 71.223 63.6159 73.4915C58.3269 75.76 53.4787 79.9749 50.0154 80.0388C50.0154 80.0388 45.2282 81.1109 42.7732 81.1109C40.3183 81.1109 30.8711 80.1674 28.984 81.676C27.1557 83.1392 23.5582 93.4464 23.3257 94.1073C23.3233 94.1189 23.32 94.1304 23.3158 94.1416H8.95923C8.95923 94.1416 15.1635 80.4599 17.2707 75.8667C19.9165 70.1089 21.9944 65.7285 28.2279 65.1654C33.6195 64.6783 37.4743 66.8931 41.9523 66.9446C47.4322 67.0059 50.5185 66.1247 54.5471 66.8811C55.7805 67.111 56.6057 67.4047 57.1633 67.7276C62.0526 66.6483 67.641 65.3858 68.0545 65.1804C70.6046 63.9227 76.6498 62.3665 80.6784 62.4102C84.7069 62.4539 85.5278 65.1796 85.5278 65.1796Z" fill="#FCD1C4"/>
<path opacity="0.71" d="M50.015 80.0388C50.015 80.0388 35.2184 78.5735 30.8725 78.4247C26.5265 78.2759 25.3943 80.5422 23.8816 84.8862C22.3689 89.2303 21.2371 94.1412 21.2371 94.1412H23.315C23.315 94.1412 27.0931 83.1864 28.9824 81.6752C30.8716 80.164 40.3179 81.1108 42.7733 81.1108C45.2286 81.1108 50.015 80.0388 50.015 80.0388Z" fill="url(#paint3_linear)"/>
<path opacity="0.52" d="M52.9187 68.2032V71.9918C52.9187 71.9918 57.3791 72.5712 57.5781 70.0973C57.7771 67.6234 52.9187 68.2032 52.9187 68.2032Z" fill="white"/>
<path opacity="0.52" d="M85.5292 65.1809C85.5292 65.1809 84.704 64.2014 82.6252 64.8507L80.5464 65.5016L80.8599 66.8438C80.8599 66.8438 82.4725 66.4866 83.4761 66.1268C84.0581 65.9176 85.5292 65.1809 85.5292 65.1809Z" fill="white"/>
<path d="M53.1856 73.6501C51.5798 74.422 44.3076 73.8877 40.3412 75.6347C39.1494 76.1609 37.8769 76.1879 36.8977 76.0824L37.4437 75.6665C37.4437 75.6665 42.9382 72.5171 50.1632 72.6591C53.4378 72.7251 55.3004 71.8014 55.2807 70.0038C55.2734 69.4532 55.3515 68.8219 54.8891 68.2344C55.9682 69.2894 57.4882 71.587 53.1856 73.6501Z" fill="url(#paint4_linear)"/>
<path d="M53.8733 58.0616L51.7401 58.277C49.6725 58.4858 47.5841 58.2854 45.594 57.6873C43.6039 57.0891 41.7511 56.1048 40.1415 54.7907C38.5318 53.4766 37.1968 51.8584 36.2126 50.0284C35.2285 48.1984 34.6144 46.1925 34.4056 44.1253L36.5388 43.9098C38.6063 43.701 40.6948 43.9014 42.6849 44.4996C44.675 45.0978 46.5277 46.082 48.1374 47.3962C49.747 48.7103 51.0821 50.3285 52.0662 52.1585C53.0504 53.9885 53.6644 55.9943 53.8733 58.0616Z" fill="url(#paint5_linear)"/>
<path d="M66.7167 37.2676L66.61 38.7715C66.401 41.715 65.0311 44.4549 62.8017 46.3886C60.5723 48.3222 57.666 49.2911 54.7221 49.0822L54.8288 47.5782C55.0378 44.6347 56.4076 41.8948 58.6371 39.9612C60.8665 38.0276 63.7728 37.0586 66.7167 37.2676Z" fill="url(#paint6_linear)"/>
<path d="M42.5597 8.12042C47.1284 9.60554 50.9198 12.8445 53.1001 17.1246C55.2803 21.4048 55.6707 26.3757 54.1854 30.9437C51.9232 30.2083 49.8281 29.0347 48.0196 27.4897C46.211 25.9448 44.7245 24.0588 43.645 21.9395C42.5655 19.8201 41.914 17.509 41.7278 15.1379C41.5415 12.7668 41.8242 10.3823 42.5597 8.12042Z" fill="url(#paint7_linear)"/>
<defs>
<linearGradient id="paint0_linear" x1="67.4592" y1="17.5204" x2="67.4592" y2="144.559" gradientUnits="userSpaceOnUse">
<stop stop-color="#D6E6FD"/>
<stop offset="1" stop-color="#D2E3FD"/>
</linearGradient>
<linearGradient id="paint1_linear" x1="122561" y1="45894.9" x2="227577" y2="45894.9" gradientUnits="userSpaceOnUse">
<stop stop-color="#D6E6FD"/>
<stop offset="1" stop-color="#D2E3FD"/>
</linearGradient>
<linearGradient id="paint2_linear" x1="53.9592" y1="45.9164" x2="54.9592" y2="45.9164" gradientUnits="userSpaceOnUse">
<stop stop-color="#5C75C9"/>
<stop offset="1" stop-color="#2E419B"/>
</linearGradient>
<linearGradient id="paint3_linear" x1="22.3642" y1="91.3911" x2="55.6461" y2="67.2827" gradientUnits="userSpaceOnUse">
<stop stop-color="#FD9271"/>
<stop offset="1" stop-color="#FED4C4" stop-opacity="0"/>
</linearGradient>
<linearGradient id="paint4_linear" x1="54942.9" y1="21564.2" x2="45303.7" y2="29534.6" gradientUnits="userSpaceOnUse">
<stop stop-color="#FD9271"/>
<stop offset="1" stop-color="#FED4C4" stop-opacity="0"/>
</linearGradient>
<linearGradient id="paint5_linear" x1="34.885" y1="43.5381" x2="53.3917" y2="58.6514" gradientUnits="userSpaceOnUse">
<stop stop-color="#5C75C9"/>
<stop offset="1" stop-color="#2E419B"/>
</linearGradient>
<linearGradient id="paint6_linear" x1="17260.9" y1="6161.36" x2="20554" y2="3304.37" gradientUnits="userSpaceOnUse">
<stop stop-color="#5C75C9"/>
<stop offset="1" stop-color="#2E419B"/>
</linearGradient>
<linearGradient id="paint7_linear" x1="64.415" y1="51.0255" x2="42.5666" y2="8.12071" gradientUnits="userSpaceOnUse">
<stop stop-color="#5C75C9"/>
<stop offset="1" stop-color="#D2E3FD"/>
</linearGradient>
</defs>
</svg>
