<svg width="28" height="27" viewBox="0 0 28 27" fill="none" xmlns="http://www.w3.org/2000/svg">
<path d="M27.0661 26.9638H13.7847C6.30857 26.9638 -0.0660991 20.8471 0.000517459 13.3682C0.0612684 5.78958 6.3689 -0.295298 14.0336 0.0110838C21.1142 0.293156 26.839 6.16679 26.9522 13.2555C27.0079 16.2129 26.0856 19.106 24.3286 21.485L27.0661 26.9638Z" fill="#FD9271"/>
<path d="M27.0661 26.9638H13.7847C6.30857 26.9638 -0.0660991 20.8471 0.000517459 13.3682C0.0612684 5.78958 6.3689 -0.295298 14.0336 0.0110838C-2.12744 15.8453 27.0661 26.9638 27.0661 26.9638Z" fill="url(#paint0_linear)"/>
<path d="M21.968 18.4008L16.112 12.7394L13.2676 15.6739L7.24341 9.90918" stroke="white" stroke-width="3" stroke-linecap="round" stroke-linejoin="round"/>
<path d="M5.53857 15.5592V8.08691H13.1471L5.53857 15.5592Z" fill="white"/>
<defs>
<linearGradient id="paint0_linear" x1="13.4332" y1="20.4762" x2="3.01861" y2="-26.9522" gradientUnits="userSpaceOnUse">
<stop stop-color="#FD9271"/>
<stop offset="1" stop-color="#FED4C4"/>
</linearGradient>
</defs>
</svg>
