<svg width="28" height="27" viewBox="0 0 28 27" fill="none" xmlns="http://www.w3.org/2000/svg">
<path d="M27.0661 26.9638H13.7847C6.30857 26.9638 -0.0660991 20.8471 0.000517459 13.3682C0.0612684 5.78958 6.3689 -0.295298 14.0336 0.0110838C21.1142 0.293156 26.839 6.16679 26.9522 13.2555C27.0079 16.2129 26.0856 19.106 24.3286 21.485L27.0661 26.9638Z" fill="#FD9271"/>
<path d="M27.0661 26.9638H13.7847C6.30857 26.9638 -0.0660991 20.8471 0.000517459 13.3682C0.0612684 5.78958 6.3689 -0.295298 14.0336 0.0110838C-2.12744 15.8453 27.0661 26.9638 27.0661 26.9638Z" fill="url(#paint0_linear)"/>
<path d="M13.2546 19.37C13.1086 19.5394 12.9281 19.6756 12.7251 19.7694C12.5221 19.8632 12.3015 19.9124 12.0779 19.9138C11.8543 19.9152 11.633 19.8687 11.4289 19.7774C11.2248 19.6862 11.0426 19.5523 10.8945 19.3847L7.56076 15.6126C7.10947 15.0844 6.8864 14.3985 6.94061 13.7058C6.99483 13.0131 7.32189 12.3703 7.84985 11.9188L12.079 16.8674L17.5876 10.3664C18.0368 9.83639 18.678 9.50659 19.3702 9.44953C20.0624 9.39247 20.7489 9.61281 21.2788 10.0621L13.2546 19.37Z" fill="white"/>
<defs>
<linearGradient id="paint0_linear" x1="13.4332" y1="20.4762" x2="3.01861" y2="-26.9522" gradientUnits="userSpaceOnUse">
<stop stop-color="#FD9271"/>
<stop offset="1" stop-color="#FED4C4"/>
</linearGradient>
</defs>
</svg>
