<svg width="104" height="104" viewBox="0 0 104 104" fill="none" xmlns="http://www.w3.org/2000/svg">
<circle cx="52" cy="52" r="52" fill="#0034A0"/>
<path d="M94.593 58.3231C93.926 59.5839 93.0738 60.7371 92.0647 61.7441L90.372 63.4437L89.0688 64.7445L87.7605 66.0545L69.9307 83.9147L61.805 92.0579C56.2247 97.6473 47.173 97.6473 41.5928 92.0579L21.4751 71.904L15.6352 66.0545L14.3277 64.7449L11.3335 61.7429C5.75325 56.1535 5.75325 47.0912 11.3335 41.5022L19.4634 33.3633L39.9006 12.8884L41.5932 11.193C42.9203 9.86368 44.4959 8.80918 46.2299 8.08974C47.9639 7.3703 49.8224 7 51.6993 7C53.5762 7 55.4347 7.3703 57.1687 8.08974C58.9027 8.80918 60.4783 9.86368 61.8054 11.193L66.0217 15.4163L92.0647 41.5022C96.6102 46.0564 97.4542 52.9164 94.593 58.3231Z" fill="#F0F5FD"/>
<path opacity="0.48" d="M93.9284 58.334C93.2616 59.595 92.4094 60.7485 91.4005 61.7558L89.7081 63.4558L88.405 64.7569L87.097 66.0672L69.2698 83.9318L61.1453 92.077C55.5659 97.6677 46.5156 97.6677 40.9362 92.077C92.9164 64.3064 51.0382 7.00001 51.0382 7.00001C52.9155 6.99734 54.7749 7.3665 56.5093 8.08627C58.2438 8.80603 59.8192 9.86222 61.1449 11.1941L65.3606 15.4184L91.3997 41.5107C95.9453 46.0643 96.7892 52.9259 93.9284 58.334Z" fill="url(#paint0_linear)"/>
<path opacity="0.77" d="M62.8957 47.9915C62.592 47.7542 60.5901 46.1729 58.9023 44.9915C60.2721 45.8575 61.6834 46.8708 62.8957 47.9915Z" fill="url(#paint1_linear)"/>
<path opacity="0.77" d="M80.7252 25.9957L77.7875 29.0504C74.7481 31.2979 72.5706 32.4204 72.5706 32.4204L61.1715 34.2582C58.3191 34.7458 56.2283 35.6041 55.0134 36.2106C51.1078 35.4445 48.8716 35.2786 48.8716 35.2786C42.6768 34.6661 38.3201 36.3131 34.6729 36.5035C30.7368 36.7105 21.4337 29.0507 21.4337 29.0507L13.9868 40.9185C19.7586 44.5201 28.5005 48.0785 31.2349 51.2927C33.9694 54.507 39.2896 58.8346 39.2896 58.8346C42.0627 60.8629 53.3072 65.3042 53.3072 65.3042C56.9931 66.7196 58.7417 65.4947 58.7417 65.4947C59.9187 64.7675 58.2477 64.3599 58.2477 64.3599L51.1423 60.8629C49.4324 59.8673 50.9146 60.3283 50.9146 60.3283L57.3736 63.6572C60.8297 65.38 63.0723 63.3889 63.0723 63.3889C64.5907 62.5859 62.5396 61.7402 62.5396 61.7402L55.8165 58.0096C51.6366 55.1373 55.9689 57.4932 55.9689 57.4932C55.9689 57.4932 61.324 60.5559 63.2613 61.7402C63.302 61.7647 63.3407 61.7872 63.3789 61.8079C64.841 62.5905 66.9388 61.7258 67.8881 61.2487C68.309 61.0383 68.654 60.6833 68.8214 60.2388C69.2889 59.0111 67.9716 58.6799 67.9716 58.6799C66.9471 58.7189 64.1354 56.9961 64.1354 56.9961L58.6282 53.1687C56.8413 51.4849 59.1201 52.7857 59.1201 52.7857L65.6563 57.1491C70.139 59.7162 71.6579 57.3417 71.6579 57.3417C73.2153 55.4653 71.05 54.2032 71.05 54.2032L70.7552 54.0004C74.1584 52.304 79.3324 44.21 79.3324 44.21L89.8438 37.1157L80.7252 25.9957ZM58.9311 45.5581C58.1851 45.0519 57.453 44.5951 56.7727 44.19C57.1348 44.2658 57.9824 44.8414 58.9311 45.5581C60.2605 46.4634 61.6311 47.5225 62.808 48.6944C62.5132 48.4468 60.5696 46.7935 58.9311 45.5581Z" fill="url(#paint2_linear)"/>
<path opacity="0.77" d="M62.8957 47.9915C62.592 47.7542 60.5901 46.1729 58.9023 44.9915C60.2721 45.8575 61.6834 46.8708 62.8957 47.9915Z" fill="url(#paint3_linear)"/>
<path d="M56.1269 44.9915L38.9399 58.4165L53.3834 65.9867C53.3834 65.9867 66.0024 59.7309 69.8816 56.1597L56.1269 44.9915Z" fill="#E8B2A7"/>
<path d="M71.3175 59.5606C71.3175 59.5606 69.8076 61.8743 65.3514 59.375L58.8537 55.1232C58.8537 55.1232 56.5881 53.8538 58.3648 55.4944L63.8398 59.2253C63.8398 59.2253 66.6349 60.9039 67.6534 60.866C67.6534 60.866 68.9629 61.1893 68.4982 62.387C68.3303 62.8184 67.9887 63.1636 67.5704 63.3711C66.6266 63.8363 64.543 64.6785 63.0878 63.9139C63.0494 63.8941 63.011 63.8718 62.9708 63.85C61.0447 62.6943 55.7215 59.71 55.7215 59.71C55.7215 59.71 51.4148 57.4164 55.57 60.2131L62.2535 63.8503C62.2535 63.8503 64.2928 64.6707 62.7829 65.4568C62.7829 65.4568 60.5536 67.3973 57.1179 65.7183L50.6971 62.4711C50.6971 62.4711 49.2239 62.024 50.9234 62.9941L57.9869 66.3995C57.9869 66.3995 59.648 66.7988 58.4779 67.5073C58.4779 67.5073 56.74 68.7009 53.0756 67.3197C53.0756 67.3197 41.8978 62.9941 39.1407 61.0157L39.1365 61.0116C38.977 60.8837 33.811 56.7516 31.1331 53.6675C28.7401 50.9067 21.713 47.8909 16.1532 44.8122C15.3994 44.3952 14.6717 43.9779 13.9868 43.5585L21.3898 31.9944C21.3898 31.9944 30.6379 39.4561 34.5509 39.2565C38.1765 39.0688 42.5075 37.4661 48.6657 38.0629C48.6657 38.0629 52.0792 38.3103 57.8291 39.6119C63.6619 40.9293 48.4314 42.0272 52.8876 44.8638C52.8876 44.8638 58.7406 47.437 62.5563 51.1678L67.6171 54.4116L70.7133 56.5018C70.7133 56.5018 72.8658 57.734 71.3175 59.5606Z" fill="#FCD9D2"/>
<path d="M40.9362 51.0579C40.9362 51.0579 42.2379 52.4786 44.3241 51.8119C44.3241 51.8119 47.4198 50.8918 49.6401 48.4859C49.6401 48.4859 52.3647 47.3685 56.906 46.9685L56.2 45.9912L48.9213 47.1022L40.9362 51.0579Z" fill="url(#paint4_linear)"/>
<path d="M41.3008 49.6292C41.3008 49.6292 43.6266 47.5857 44.8401 45.716C44.8401 45.716 45.1435 44.4368 46.9638 43.7473L53.8406 39.5162C53.8406 39.5162 56.4701 37.7446 61.2233 36.957L72.6007 35.1857C72.6007 35.1857 74.7754 34.1036 77.8095 31.9394L80.7421 28.9951L89.8439 39.7147L79.3499 46.5523C79.3499 46.5523 74.1853 54.354 70.7884 55.989C70.7884 55.989 64.1441 52.0193 62.8907 50.9071C62.8907 50.9071 57.856 46.7369 56.827 46.5341C56.827 46.5341 52.3477 46.8475 49.9586 47.8441C49.9586 47.8441 45.8232 52.274 42.6012 51.8296C42.6026 51.8296 39.9987 51.2669 41.3008 49.6292Z" fill="#E8B2A7"/>
<path d="M45.9269 66.9129C45.9269 66.9129 45.8774 64.7076 47.7784 65.0167L51.9155 67.7431C51.9155 67.7431 46.267 68.6672 45.9269 66.9129Z" fill="#E8B2A7"/>
<path opacity="0.43" d="M45.9268 63.9872C45.9268 63.9872 50.6945 66.668 51.7024 67.655L51.9155 67.9863C51.9155 67.9863 46.5356 64.3525 46.0229 64.3469L45.9268 63.9872Z" fill="#E8B2A7"/>
<path d="M42.9842 65.7915C42.9842 65.7915 41.2046 63.0257 42.279 62.3105C42.279 62.3105 44.5489 60.877 45.5003 64.051C45.5003 64.051 46.7885 66.7817 44.8865 66.9861C44.8865 66.9861 43.6472 67.0416 42.9842 65.7915Z" fill="#E8B2A7"/>
<path d="M33.9806 60.8322C33.9806 60.8322 33.634 59.071 35.2528 58.9883C35.2528 58.9883 37.7974 59.9725 37.7974 61.6234C37.7974 61.6234 38.7296 63.55 35.8736 62.8253C35.872 62.8267 34.3649 62.1388 33.9806 60.8322Z" fill="#E8B2A7"/>
<path d="M38.0348 62.6056C37.761 61.9711 38.0901 60.3036 39.0519 60.0109C39.0519 60.0109 41.2814 59.7071 41.3657 61.3156C41.3657 61.3156 40.8409 62.3523 41.9258 64.3329C42.0827 64.6191 40.0527 65.9413 38.607 63.7354C38.6059 63.7357 38.1617 62.9003 38.0348 62.6056Z" fill="#E8B2A7"/>
<path d="M56.9059 46.5478C56.9059 46.5478 63.5093 46.4522 66.8871 44.9915C66.8871 44.9915 63.5495 47.0438 57.6493 46.99L56.9059 46.5478Z" fill="#D39184"/>
<path d="M82.7187 23.716L78.1023 27.5509C77.6239 27.9483 77.5576 28.6591 77.9542 29.1385L88.6665 42.086C89.0631 42.5654 89.7724 42.6318 90.2508 42.2344L94.8672 38.3995C95.3456 38.0021 95.4119 37.2913 95.0153 36.8119L84.303 23.8644C83.9064 23.385 83.1971 23.3186 82.7187 23.716Z" fill="url(#paint5_linear)"/>
<path d="M90.79 39.4849C91.5176 39.4777 92.1016 38.8808 92.0943 38.1517C92.0871 37.4227 91.4914 36.8375 90.7638 36.8448C90.0362 36.852 89.4523 37.4489 89.4595 38.178C89.4668 38.9071 90.0624 39.4922 90.79 39.4849Z" fill="white"/>
<path d="M7.93443 43.2922L12.9139 46.64C13.4299 46.9869 14.129 46.849 14.4752 46.3319L23.8268 32.3659C24.1731 31.8489 24.0354 31.1484 23.5194 30.8015L18.5399 27.4537C18.0239 27.1067 17.3249 27.2447 16.9786 27.7618L7.62698 41.7277C7.28074 42.2448 7.41839 42.9453 7.93443 43.2922Z" fill="url(#paint6_linear)"/>
<path d="M38.94 60.9879C38.7806 60.8603 33.6206 56.7359 30.9459 53.6575C28.5557 50.9018 21.5367 47.8916 15.9833 44.8187L16.1526 43.9917C16.1526 43.9917 31.8539 52.0215 35.2193 49.9871C35.2179 49.9871 34.2867 56.0422 38.94 60.9879Z" fill="url(#paint7_linear)"/>
<path d="M12.8728 42.3121C13.747 42.232 14.3908 41.4581 14.3108 40.5836C14.2308 39.709 13.4572 39.0649 12.583 39.145C11.7087 39.225 11.0649 39.9989 11.1449 40.8735C11.2249 41.748 11.9985 42.3921 12.8728 42.3121Z" fill="white"/>
<defs>
<linearGradient id="paint0_linear" x1="68.2611" y1="17.431" x2="68.2611" y2="144.854" gradientUnits="userSpaceOnUse">
<stop stop-color="#D6E6FD"/>
<stop offset="1" stop-color="#D2E3FD"/>
</linearGradient>
<linearGradient id="paint1_linear" x1="10869" y1="7560.17" x2="11313.7" y2="7560.17" gradientUnits="userSpaceOnUse">
<stop stop-color="#D6E6FD"/>
<stop offset="1" stop-color="#D2E3FD"/>
</linearGradient>
<linearGradient id="paint2_linear" x1="107423" y1="99612.8" x2="272719" y2="99612.8" gradientUnits="userSpaceOnUse">
<stop stop-color="#D6E6FD"/>
<stop offset="1" stop-color="#D2E3FD"/>
</linearGradient>
<linearGradient id="paint3_linear" x1="10869" y1="7560.17" x2="11313.7" y2="7560.17" gradientUnits="userSpaceOnUse">
<stop stop-color="#D6E6FD"/>
<stop offset="1" stop-color="#D2E3FD"/>
</linearGradient>
<linearGradient id="paint4_linear" x1="61.6617" y1="43.3677" x2="32.7918" y2="58.9741" gradientUnits="userSpaceOnUse">
<stop stop-color="#FD9271"/>
<stop offset="1" stop-color="#FED4C4" stop-opacity="0"/>
</linearGradient>
<linearGradient id="paint5_linear" x1="71.4222" y1="15.3792" x2="103.203" y2="52.3604" gradientUnits="userSpaceOnUse">
<stop stop-color="#5C75C9"/>
<stop offset="1" stop-color="#D2E3FD"/>
</linearGradient>
<linearGradient id="paint6_linear" x1="21.5069" y1="26.9828" x2="-6.56515" y2="67.0216" gradientUnits="userSpaceOnUse">
<stop stop-color="#5C75C9"/>
<stop offset="1" stop-color="#2E419B"/>
</linearGradient>
<linearGradient id="paint7_linear" x1="60026" y1="57257.2" x2="39919.1" y2="30874.9" gradientUnits="userSpaceOnUse">
<stop stop-color="#FD9271"/>
<stop offset="1" stop-color="#FED4C4" stop-opacity="0"/>
</linearGradient>
</defs>
</svg>
