<svg width="28" height="27" viewBox="0 0 28 27" fill="none" xmlns="http://www.w3.org/2000/svg">
<path d="M27.0661 26.9638H13.7847C6.30857 26.9638 -0.0660991 20.8471 0.000517459 13.3682C0.0612684 5.78958 6.3689 -0.295298 14.0336 0.0110838C21.1142 0.293156 26.839 6.16679 26.9522 13.2555C27.0079 16.2129 26.0856 19.106 24.3286 21.485L27.0661 26.9638Z" fill="#FD9271"/>
<path d="M27.0661 26.9638H13.7847C6.30857 26.9638 -0.0660991 20.8471 0.000517459 13.3682C0.0612684 5.78958 6.3689 -0.295298 14.0336 0.0110838C-2.12744 15.8453 27.0661 26.9638 27.0661 26.9638Z" fill="url(#paint0_linear)"/>
<path d="M18.0241 3.73523L14.077 13.2623H17.6854C17.771 13.2623 17.8549 13.2866 17.9273 13.3323C17.9997 13.378 18.0578 13.4433 18.0947 13.5205C18.1316 13.5978 18.146 13.6839 18.136 13.769C18.1261 13.854 18.0923 13.9346 18.0386 14.0013L10.6331 23.1686L12.5475 16.3227C12.5665 16.2551 12.5695 16.184 12.5563 16.115C12.5432 16.046 12.5142 15.9809 12.4718 15.925C12.4293 15.869 12.3745 15.8236 12.3116 15.7924C12.2487 15.7612 12.1794 15.7449 12.1091 15.7449H9.33224C9.24674 15.7448 9.16301 15.7205 9.09068 15.675C9.01834 15.6294 8.96034 15.5643 8.92336 15.4872C8.88637 15.4102 8.87189 15.3242 8.8816 15.2393C8.8913 15.1543 8.92478 15.0738 8.9782 15.0071L18.0241 3.73523Z" fill="white"/>
<defs>
<linearGradient id="paint0_linear" x1="13.4332" y1="20.4762" x2="3.01861" y2="-26.9522" gradientUnits="userSpaceOnUse">
<stop stop-color="#FD9271"/>
<stop offset="1" stop-color="#FED4C4"/>
</linearGradient>
</defs>
</svg>
