<svg width="104" height="104" viewBox="0 0 104 104" fill="none" xmlns="http://www.w3.org/2000/svg">
<circle cx="52" cy="52" r="52" fill="#0034A0"/>
<path d="M94.6096 58.3332C93.9415 59.5944 93.0876 60.7481 92.0766 61.7555L90.3811 63.4558L89.0753 64.7571L87.7655 66.068L69.9008 83.9301L61.7598 92.0749C56.1691 97.6653 47.1 97.6653 41.5094 92.0749L21.3548 71.9166L15.5041 66.068L14.1943 64.7583L11.193 61.7571C5.60234 56.1667 5.60234 47.1015 11.193 41.5119L19.338 33.3712L39.8139 12.8916L41.5098 11.1958C42.8394 9.86609 44.4179 8.81133 46.1552 8.09171C47.8925 7.37209 49.7545 7.00171 51.635 7.00171C53.5154 7.00171 55.3775 7.37209 57.1147 8.09171C58.852 8.81133 60.4305 9.86609 61.7602 11.1958L65.9843 15.4177L92.0754 41.5079C96.6304 46.064 97.4764 52.9251 94.6096 58.3332Z" fill="#F0F5FD"/>
<path opacity="0.42" d="M94.302 58.1793C93.6188 59.4367 92.7456 60.5869 91.7117 61.5913L89.9778 63.2865L88.6425 64.5839L87.303 65.8909L69.034 83.6994L60.7087 91.8197C54.9915 97.3934 47.2172 97.3934 41.5 91.8197C94.764 64.1331 50.3519 7.00001 50.3519 7.00001C52.2756 6.99732 54.1808 7.36533 55.9582 8.08288C57.7355 8.80043 59.3498 9.85338 60.7083 11.1812L65.0288 15.3925L91.7104 41.4044C96.3686 45.9468 97.2337 52.7874 94.302 58.1793Z" fill="url(#paint0_linear)"/>
<path opacity="0.62" d="M56.7733 44.8301C54.9247 46.6384 52.751 49.0777 52.751 51.666V53.2705C52.751 53.33 52.751 53.3883 52.751 53.4469C52.7183 54.8022 52.3224 56.1238 51.6045 57.2738C51.5676 57.3332 51.5302 57.3915 51.4924 57.4486C51.2675 57.7888 51.0146 58.1098 50.7365 58.4082C50.7313 58.4142 50.7253 58.4194 50.72 58.4255C50.2574 58.9211 49.7264 59.3481 49.1431 59.6937C48.872 59.8549 48.59 59.9972 48.2992 60.1196C47.6245 60.4009 47.9665 60.581 47.1997 60.6336C43.0553 60.9181 40.653 57.6093 40.653 53.5309V51.7921C40.653 50.1285 40.1936 48.5327 39.377 47.1219C39.1496 46.7288 38.8357 46.3503 38.5556 45.9886C38.3879 45.773 38.2118 45.5632 38.0272 45.3593C37.878 45.1946 37.7233 45.0348 37.563 44.8799C37.0294 44.3612 36.3619 43.8018 35.7092 43.2071C33.7715 40.9491 32.6023 38.1334 32.3707 35.1671C32.1391 32.2007 32.8571 29.2376 34.4209 26.7063C35.497 25.0175 36.9102 23.569 38.5721 22.4516L38.7063 22.3624C39.7129 21.7013 40.7985 21.1694 41.9377 20.7791C42.2118 20.685 42.4895 20.599 42.7708 20.5211H42.778C44.2931 20.1041 45.8658 19.9356 47.4348 20.022C47.8632 20.0445 48.2876 20.0875 48.7055 20.1482C54.647 21.0077 59.4702 25.5731 60.7762 31.3433C60.989 32.28 61.1054 33.236 61.1239 34.1964C61.1655 36.1723 60.8009 38.1357 60.0525 39.9649C59.3041 41.7941 58.188 43.45 56.7733 44.8301Z" fill="url(#paint1_linear)"/>
<path d="M61.4156 45.838C59.567 47.6463 57.3934 50.0855 57.3934 52.6738V54.2784C57.3934 54.3379 57.3934 54.3962 57.3934 54.4548C57.3607 55.8101 56.9647 57.1317 56.2469 58.2817C56.2099 58.3411 56.1725 58.3994 56.1347 58.4565C55.9098 58.7967 55.657 59.1177 55.3788 59.4161C55.3736 59.4221 55.3676 59.4273 55.3624 59.4333C54.8998 59.929 54.3688 60.356 53.7855 60.7016C53.5143 60.8628 53.2323 61.0051 52.9415 61.1275C52.2668 61.4088 52.6088 61.5889 51.842 61.6415C47.6976 61.926 45.2953 58.6172 45.2953 54.5388V52.7968C45.2953 51.1332 44.836 49.5374 44.0194 48.1265C43.7919 47.7335 43.4781 47.355 43.198 46.9933C43.0303 46.7777 42.8541 46.5679 42.6695 46.364C42.5203 46.1993 42.3656 46.0395 42.2054 45.8846C41.6717 45.3658 41.0042 44.8065 40.3516 44.2117C38.4139 41.9538 37.2446 39.138 37.013 36.1717C36.7814 33.2054 37.4994 30.2423 39.0632 27.711C40.1393 26.0221 41.5526 24.5736 43.2144 23.4562L43.3487 23.367C44.3552 22.706 45.4408 22.174 46.5801 21.7837C46.8541 21.6897 47.1318 21.6037 47.4131 21.5257H47.4204C48.9354 21.1088 50.5081 20.9402 52.0771 21.0266C52.5055 21.0491 52.9299 21.0921 53.3478 21.1528C59.2894 22.0124 64.1125 26.5778 65.4186 32.3479C65.6313 33.2847 65.7478 34.2407 65.7662 35.2011C65.8083 37.1775 65.4439 39.1415 64.6955 40.9713C63.9471 42.801 62.8307 44.4575 61.4156 45.838Z" fill="url(#paint2_linear)"/>
<path opacity="0.47" d="M56.4296 59.4337C55.967 59.9293 55.436 60.3564 54.8527 60.7019C53.9357 61.2475 52.9032 61.5696 51.8387 61.6423C47.6943 61.9268 45.2325 58.6179 45.2325 54.5396V52.7968C45.2325 51.1331 44.7732 49.5374 43.9566 48.1265C43.7275 47.7322 43.4725 47.3536 43.1931 46.9933C43.0253 46.7776 42.8492 46.5678 42.6646 46.364C42.5154 46.2 42.3608 46.0403 42.2009 45.885C41.6672 45.3666 40.9997 44.8076 40.3479 44.2125C38.4104 41.9549 37.2412 39.1398 37.0093 36.174C36.7773 33.2082 37.4946 30.2454 39.0575 27.7142V27.7118C40.1336 26.0229 41.5469 24.5744 43.2087 23.457L43.343 23.3678C44.3495 22.7067 45.4351 22.1748 46.5743 21.7845C41.9248 25.2629 39.2532 30.3491 39.6844 35.363C39.9794 38.7831 41.8669 43.901 45.8124 45.5321C48.9067 46.8116 52.7477 45.4252 52.4608 46.4451C52.3599 46.8068 50.8441 47.6873 49.4119 49.0121C48.1822 50.1498 47.0144 51.6141 46.8556 53.3541C46.6097 56.0465 49.1788 59.1809 51.678 59.4819C53.9477 59.754 55.5507 57.6169 56.2411 58.1779C56.4851 58.374 56.5333 58.8297 56.4296 59.4337Z" fill="url(#paint3_linear)"/>
<path d="M56.7054 57.5566L56.1798 63.4373C56.1798 65.8134 52.8202 67.7576 51.2208 67.7576C49.715 67.7576 46.2622 65.8134 46.2622 63.4373L45.782 57.5566H56.7054Z" fill="url(#paint4_linear)"/>
<path d="M56.0462 64.2611C55.4113 66.2483 52.6304 67.7593 51.2194 67.7593C49.8909 67.7593 47.0493 66.2479 46.3999 64.2611H56.0462Z" fill="url(#paint5_linear)"/>
<path d="M45.1295 71.095C45.1295 71.095 42.3763 67.4418 40.4337 65.9167C38.4911 64.3917 35.5149 65.2995 35.5149 65.2995L42.0834 74.2672L45.1295 71.095Z" fill="#EAB1A4"/>
<path d="M96.2009 82.6397L94.3587 96.5714C86.8102 95.3084 81.3521 93.8389 77.1972 93.1846C73.2043 92.5578 62.7 91.4024 59.9468 91.1352C56.0086 90.7498 53.7469 90.917 52.0964 88.4263C49.3356 88.0799 48.4158 85.9964 47.9677 84.5368C45.5123 83.3112 43.4696 82.7836 42.7238 81.4571C38.331 73.658 30 63.1054 30 63.1054C30 63.1054 32.2806 61.6162 35.2319 63.0765C37.5028 64.2017 41.1847 69.1725 42.7636 71.41C43.4753 69.9634 44.4112 68.544 45.0827 67.5523C46.5294 65.4008 49.0346 60.5882 49.0346 60.5882C49.0346 60.5882 52.055 61.9316 50.8925 65.9658C50.1663 68.489 48.7947 71.4193 48.0131 72.9905L52.1065 73.4277C52.5216 72.6144 52.8395 71.9686 52.9227 71.7568C53.2843 70.8354 55.7088 66.3186 55.7088 66.3186C55.7088 66.3186 58.6685 68.0465 57.7523 71.357C57.5682 72.0172 57.2801 72.9379 56.9513 73.9469L58.1364 74.0735L64.7941 71.7829C64.7941 71.7829 62.0851 69.4522 60.8558 68.544C58.8465 67.0536 56.1139 65.2288 55.3415 63.7681C53.689 60.6433 55.3748 59.4345 56.6114 59.0347C57.5385 60.5492 70.6597 69.365 74.1382 71.873C77.6167 74.3809 79.2154 79.8987 80.7227 80.2085C81.463 80.3588 90.1468 82.3017 96.2009 82.6397Z" fill="#FCD1C4"/>
<path opacity="0.5" d="M57.034 73.844L54.6875 80.6168C54.6875 80.6168 57.1509 83.269 61.094 81.9936C62.0762 81.6765 69.0453 79.4535 71.3797 79.5234C74.1658 79.607 76.9881 82.2753 76.9881 82.2753C76.9881 82.2753 74.4965 78.3062 71.5026 78.098C68.5088 77.8899 60.1299 79.0376 60.1299 79.0376L59.4781 73.6082L57.034 73.844Z" fill="url(#paint6_linear)"/>
<path opacity="0.5" d="M52.0362 74.4487L49.6548 79.3698L47.9541 74.0119L52.0362 74.4487Z" fill="url(#paint7_linear)"/>
<path opacity="0.34" d="M55.5875 67.3348C56.5922 67.8379 56.8852 68.5403 56.5476 69.8154C56.2148 71.0712 55.549 72.3772 55.549 72.3772C55.549 72.3772 54.2955 72.0866 53.4287 71.4204C54.1955 70.1264 55.3066 67.7696 55.5875 67.3348Z" fill="url(#paint8_linear)"/>
<path opacity="0.34" d="M48.8961 61.6024C49.9031 62.1055 50.1937 62.81 49.8561 64.083C49.5234 65.3388 48.8575 66.6444 48.8575 66.6444C48.8575 66.6444 47.6045 66.3547 46.7373 65.688C47.5041 64.3945 48.6172 62.0372 48.8961 61.6024Z" fill="url(#paint9_linear)"/>
<path opacity="0.45" d="M42.8706 72.0159C42.8706 72.0159 42.0548 73.6334 41.9796 75.2886C41.9045 76.9438 43.4882 80.048 43.4882 80.048C43.4882 80.048 41.2912 78.4459 41.112 76.4519C40.8612 73.6864 42.8706 72.0159 42.8706 72.0159Z" fill="url(#paint10_linear)"/>
<path d="M78.9099 91.3818C78.9099 91.3818 79.4777 87.9898 79.4058 87.0109C79.3339 86.032 79.8543 85.2484 79.8543 85.2484C79.8543 85.2484 80.2312 86.2129 80.2196 87.2874C80.191 89.9762 78.9099 91.3818 78.9099 91.3818Z" fill="url(#paint11_linear)"/>
<defs>
<linearGradient id="paint0_linear" x1="68" y1="17.4" x2="68" y2="144.438" gradientUnits="userSpaceOnUse">
<stop stop-color="#D6E6FD"/>
<stop offset="1" stop-color="#D2E3FD"/>
</linearGradient>
<linearGradient id="paint1_linear" x1="76703.8" y1="112025" x2="76703.8" y2="66066" gradientUnits="userSpaceOnUse">
<stop stop-color="#D6E6FD"/>
<stop offset="1" stop-color="#D2E3FD"/>
</linearGradient>
<linearGradient id="paint2_linear" x1="51.3666" y1="67.3188" x2="51.3666" y2="21.8866" gradientUnits="userSpaceOnUse">
<stop stop-color="#5C75C9"/>
<stop offset="1" stop-color="#D2E3FD"/>
</linearGradient>
<linearGradient id="paint3_linear" x1="53224.7" y1="111057" x2="36952.6" y2="48042.6" gradientUnits="userSpaceOnUse">
<stop stop-color="#5C75C9"/>
<stop offset="1" stop-color="#D2E3FD"/>
</linearGradient>
<linearGradient id="paint4_linear" x1="51.2433" y1="67.8363" x2="51.2433" y2="57.4698" gradientUnits="userSpaceOnUse">
<stop stop-color="#5C75C9"/>
<stop offset="1" stop-color="#2E419B"/>
</linearGradient>
<linearGradient id="paint5_linear" x1="29842.5" y1="6938.4" x2="29335.6" y2="10224.7" gradientUnits="userSpaceOnUse">
<stop stop-color="#5C75C9"/>
<stop offset="1" stop-color="#2E419B"/>
</linearGradient>
<linearGradient id="paint6_linear" x1="60.77" y1="89.1234" x2="73.8379" y2="65.9683" gradientUnits="userSpaceOnUse">
<stop stop-color="#FD9271"/>
<stop offset="1" stop-color="#FED4C4" stop-opacity="0"/>
</linearGradient>
<linearGradient id="paint7_linear" x1="10515.8" y1="19225.1" x2="12471.7" y2="16476" gradientUnits="userSpaceOnUse">
<stop stop-color="#FD9271"/>
<stop offset="1" stop-color="#FED4C4" stop-opacity="0"/>
</linearGradient>
<linearGradient id="paint8_linear" x1="10773" y1="15483.4" x2="11361.4" y2="14948.3" gradientUnits="userSpaceOnUse">
<stop stop-color="#FD9271"/>
<stop offset="1" stop-color="#FED4C4" stop-opacity="0"/>
</linearGradient>
<linearGradient id="paint9_linear" x1="10185.9" y1="14837.2" x2="10774.2" y2="14302" gradientUnits="userSpaceOnUse">
<stop stop-color="#FD9271"/>
<stop offset="1" stop-color="#FED4C4" stop-opacity="0"/>
</linearGradient>
<linearGradient id="paint10_linear" x1="7283.98" y1="26270.5" x2="10017.2" y2="24279.8" gradientUnits="userSpaceOnUse">
<stop stop-color="#FD9271"/>
<stop offset="1" stop-color="#FED4C4" stop-opacity="0"/>
</linearGradient>
<linearGradient id="paint11_linear" x1="5315.45" y1="21501.8" x2="5315.45" y2="18829.1" gradientUnits="userSpaceOnUse">
<stop stop-color="#FD9271"/>
<stop offset="1" stop-color="#FED4C4" stop-opacity="0"/>
</linearGradient>
</defs>
</svg>
