<svg width="201" height="142" viewBox="0 0 201 142" fill="none" xmlns="http://www.w3.org/2000/svg">
<path fill-rule="evenodd" clip-rule="evenodd" d="M85.155 56.4812C84.1998 55.9702 83.051 55.9771 82.1019 56.4994L13.6703 94.1597V95.9928C13.6703 96.564 13.9747 97.0919 14.469 97.378L56.9648 121.973C57.9565 122.547 59.1793 122.547 60.1711 121.973L127.722 82.8968C128.217 82.6107 128.521 82.0827 128.521 81.5114L128.521 79.6785L85.155 56.4812Z" fill="url(#paint0_linear)"/>
<path fill-rule="evenodd" clip-rule="evenodd" d="M85.155 55.9392C84.1998 55.4282 83.051 55.4351 82.1019 55.9574L13.6703 93.6177V95.4508C13.6703 96.022 13.9747 96.5499 14.469 96.836L56.9648 121.431C57.9565 122.005 59.1793 122.005 60.1711 121.431L127.722 82.3548C128.217 82.0687 128.521 81.5407 128.521 80.9694L128.521 79.1365L85.155 55.9392Z" fill="url(#paint1_linear)"/>
<path fill-rule="evenodd" clip-rule="evenodd" d="M85.2244 53.682C84.2339 53.1101 83.0134 53.1102 82.0229 53.6823L15.2824 92.2316C14.2157 92.8477 14.2158 94.3875 15.2826 95.0035L56.967 119.072C57.9576 119.644 59.1781 119.644 60.1686 119.072L126.909 80.5227C127.976 79.9065 127.976 78.3667 126.909 77.7508L85.2244 53.682Z" fill="url(#paint2_linear)"/>
<path opacity="0.246257" fill-rule="evenodd" clip-rule="evenodd" d="M80.0244 59.2987C80.8992 58.786 81.9849 58.7951 82.851 59.3225L95.1364 66.8039C95.7342 67.1679 95.7215 68.0401 95.1133 68.3865L41.1789 99.1087C39.497 100.067 37.4357 100.072 35.7487 99.1231L25.0625 93.1108C24.4446 92.7631 24.4368 91.8762 25.0485 91.5178L80.0244 59.2987Z" fill="url(#paint3_linear)"/>
<path fill-rule="evenodd" clip-rule="evenodd" d="M86.5625 79.4617C86.2089 79.2601 85.7751 79.2602 85.4214 79.4617L61.2655 93.2304C60.8776 93.4514 60.8777 94.0105 61.2655 94.2315L76.3524 102.828C76.7061 103.03 77.1399 103.029 77.4935 102.828L101.649 89.0593C102.037 88.8382 102.037 88.2791 101.649 88.0581L86.5625 79.4617Z" fill="url(#paint4_linear)"/>
<mask id="mask0" mask-type="alpha" maskUnits="userSpaceOnUse" x="60" y="79" width="42" height="24">
<path fill-rule="evenodd" clip-rule="evenodd" d="M86.5625 79.4617C86.2089 79.2601 85.7751 79.2602 85.4214 79.4617L61.2655 93.2304C60.8776 93.4514 60.8777 94.0105 61.2655 94.2315L76.3524 102.828C76.7061 103.03 77.1399 103.029 77.4935 102.828L101.649 89.0593C102.037 88.8382 102.037 88.2791 101.649 88.0581L86.5625 79.4617Z" fill="white"/>
</mask>
<g mask="url(#mask0)">
<path fill-rule="evenodd" clip-rule="evenodd" d="M86.5625 80.6428C86.2089 80.4413 85.7751 80.4413 85.4214 80.6429L61.2655 94.4115C60.8776 94.6326 60.8777 95.1917 61.2655 95.4127L76.3524 104.009C76.7061 104.211 77.1399 104.211 77.4935 104.009L101.649 90.2404C102.037 90.0193 102.037 89.4602 101.649 89.2392L86.5625 80.6428Z" fill="url(#paint5_linear)"/>
</g>
<path fill-rule="evenodd" clip-rule="evenodd" d="M82.2787 0.250225C81.8842 0.0924951 81.4393 0.123648 81.0707 0.33481L13.3109 39.1509C12.3152 39.7213 11.701 40.7809 11.701 41.9284V91.1564C11.701 91.7067 11.9897 92.2166 12.4616 92.4996C13.2056 92.9458 14.1348 92.9458 14.8787 92.4996L80.9292 52.8783C81.8709 52.3133 82.4573 51.3051 82.4827 50.2072L83.59 2.23587C83.6101 1.36519 83.0874 0.573587 82.2787 0.250225Z" fill="#80B1FF"/>
<path fill-rule="evenodd" clip-rule="evenodd" d="M83.6235 2.77268C83.6235 1.54051 82.2896 0.770507 81.2226 1.38679L14.4825 39.9359C13.4925 40.5077 12.8826 41.5643 12.8826 42.7077V90.845C12.8826 92.0772 14.2166 92.8472 15.2835 92.2309L82.0236 53.6818C83.0137 53.11 83.6235 52.0534 83.6235 50.91V2.77268Z" fill="url(#paint6_linear)"/>
<path fill-rule="evenodd" clip-rule="evenodd" d="M80.8667 5.11826L15.8834 42.751V88.5856L80.8667 50.9529V5.11826Z" fill="url(#paint7_linear)"/>
<path fill-rule="evenodd" clip-rule="evenodd" d="M89.734 3.82497C91.7869 2.62449 94.3678 4.10504 94.3678 6.48311V32.4167C94.3678 35.7048 92.6201 38.745 89.7787 40.3997L56.8174 59.5942C54.7646 60.7896 52.1885 59.3087 52.1885 56.9332V31.0806C52.1885 27.7986 53.9299 24.763 56.763 23.1062L89.734 3.82497Z" fill="#C7DCFF"/>
<path fill-rule="evenodd" clip-rule="evenodd" d="M90.8369 9.63702L86.5886 12.0518V33.9651L90.8369 31.5503V9.63702Z" fill="#528BE1"/>
<path fill-rule="evenodd" clip-rule="evenodd" d="M83.2507 14.2023L79.0025 16.6171V38.226L83.2507 35.8112V14.2023Z" fill="#528BE1"/>
<path fill-rule="evenodd" clip-rule="evenodd" d="M75.6644 18.1589L71.4162 20.5737V42.4869L75.6644 40.0721V18.1589Z" fill="#528BE1"/>
<path fill-rule="evenodd" clip-rule="evenodd" d="M68.0782 22.4197L63.83 24.8345V46.7478L68.0782 44.333L68.0782 22.4197Z" fill="#528BE1"/>
<path fill-rule="evenodd" clip-rule="evenodd" d="M60.4921 26.3763L56.2438 28.7911V50.0957L60.4921 47.6809L60.4921 26.3763Z" fill="#528BE1"/>
<path fill-rule="evenodd" clip-rule="evenodd" d="M90.8369 13.4699L86.5886 15.8847V37.6173L90.8369 35.2025V13.4699Z" fill="white"/>
<path fill-rule="evenodd" clip-rule="evenodd" d="M83.2507 23.8179L79.0025 26.2327V41.8782L83.2507 39.4634V23.8179Z" fill="white"/>
<path fill-rule="evenodd" clip-rule="evenodd" d="M75.6644 31.5503L71.4162 33.9651V46.1391L75.6644 43.7243V31.5503Z" fill="white"/>
<path fill-rule="evenodd" clip-rule="evenodd" d="M68.0782 32.1589L63.83 34.5737V50.4L68.0782 47.9852L68.0782 32.1589Z" fill="white"/>
<path fill-rule="evenodd" clip-rule="evenodd" d="M60.4921 44.3663L56.2438 46.7811V53.7479L60.4921 51.3331L60.4921 44.3663Z" fill="white"/>
<path fill-rule="evenodd" clip-rule="evenodd" d="M37.5456 33.6157C39.5984 32.4152 42.1793 33.8958 42.1793 36.2738V62.2074C42.1793 65.4955 40.4316 68.5357 37.5902 70.1904L4.62892 89.3849C2.57608 90.5803 4.19617e-05 89.0994 4.19617e-05 86.7239V60.8713C4.19617e-05 57.5893 1.7414 54.5537 4.57454 52.8969L37.5456 33.6157Z" fill="#C7DCFF"/>
<path fill-rule="evenodd" clip-rule="evenodd" d="M38.6484 51.2261L34.4002 53.6409V67.408L38.6484 64.9932L38.6484 51.2261Z" fill="#98BDF4"/>
<path fill-rule="evenodd" clip-rule="evenodd" d="M31.0623 61.574L26.814 63.9888V71.6689L31.0623 69.2541L31.0623 61.574Z" fill="#98BDF4"/>
<path fill-rule="evenodd" clip-rule="evenodd" d="M23.476 69.3064L19.2277 71.7212V75.9298L23.476 73.515L23.476 69.3064Z" fill="#98BDF4"/>
<path fill-rule="evenodd" clip-rule="evenodd" d="M15.8898 69.9151L11.6415 72.3299V80.1907L15.8898 77.7759L15.8898 69.9151Z" fill="#98BDF4"/>
<path fill-rule="evenodd" clip-rule="evenodd" d="M8.30359 78.9363L4.05532 81.3511V83.5386L8.30359 81.1238L8.30359 78.9363Z" fill="#98BDF4"/>
<path d="M4.08372 74.5298C4.08372 74.5298 9.31479 66.2748 12.9205 64.2069C16.5263 62.139 18.3962 65.4079 21.9884 63.3183C25.5805 61.2287 28.7087 49.6187 37.1608 44.7391" stroke="white" stroke-width="3.24" stroke-linecap="round"/>
<path opacity="0.211021" fill-rule="evenodd" clip-rule="evenodd" d="M166.158 104.347C172.09 104.347 176.898 101.494 176.898 97.9749C176.898 94.4555 172.09 91.6025 166.158 91.6025C160.226 91.6025 155.418 94.4555 155.418 97.9749C155.418 101.494 160.226 104.347 166.158 104.347Z" fill="url(#paint8_linear)"/>
<path opacity="0.211021" fill-rule="evenodd" clip-rule="evenodd" d="M188.433 117.092C194.365 117.092 199.174 114.239 199.174 110.72C199.174 107.2 194.365 104.347 188.433 104.347C182.502 104.347 177.693 107.2 177.693 110.72C177.693 114.239 182.502 117.092 188.433 117.092Z" fill="url(#paint9_linear)"/>
<path fill-rule="evenodd" clip-rule="evenodd" d="M170.824 94.3174C170.824 94.3174 171.471 95.0208 171.204 96.1749C170.937 97.3291 170.193 97.6916 169.827 98.5889C169.46 99.4862 167.353 100.9 166.602 100.337C165.85 99.7735 168.037 97.5722 168.119 97.3561C168.201 97.1399 170.824 94.3174 170.824 94.3174Z" fill="#051B4D"/>
<path fill-rule="evenodd" clip-rule="evenodd" d="M168.625 91.2373L168.778 93.9653C168.84 95.0771 168.624 96.1934 168.071 97.1594C167.826 97.5853 167.566 98.0079 167.349 98.2838C166.754 99.0418 167.403 99.5301 168.583 98.9126C169.299 98.5376 170.043 97.4903 170.517 96.7252C170.866 96.1616 171.034 95.5106 171.065 94.8482L171.231 91.2902L168.625 91.2373Z" fill="#FFBBB0"/>
<path fill-rule="evenodd" clip-rule="evenodd" d="M172.359 63.9131C172.359 63.9131 173.78 68.2205 172.464 71.1312C172.569 75.8806 171.744 78.8698 171.744 80.3537C171.744 81.8375 171.744 91.8946 171.744 91.8946C171.744 91.8946 170.984 92.7751 170.001 92.7751C169.018 92.7751 168.28 92.3325 168.28 92.3325L168.005 77.9512L166.632 62.8575L172.359 63.9131Z" fill="url(#paint10_linear)"/>
<path fill-rule="evenodd" clip-rule="evenodd" d="M162.97 62.2612C162.97 62.2612 162.249 63.0667 163.201 63.9778C164.152 64.8889 164.385 64.7168 164.626 64.5048C164.867 64.2927 164.398 63.3079 163.987 62.9228C163.575 62.5376 162.97 62.2612 162.97 62.2612Z" fill="#0D3677"/>
<path fill-rule="evenodd" clip-rule="evenodd" d="M165.076 63.6309L160.796 66.83C160.796 66.83 160.459 67.8809 159.823 68.6171C159.186 69.3533 159.121 69.8069 158.723 69.9066C158.325 70.0064 158.792 68.7439 158.792 68.7439L157.546 69.4518C157.546 69.4518 157.436 70.5094 157.125 70.8038C156.815 71.0982 156.779 70.1246 156.771 69.7516C156.558 70.2614 156.19 70.6317 155.97 70.5057C155.835 70.4285 156.009 70.2041 156.164 69.8055C156.262 69.5535 156.303 69.1191 156.414 68.9663C156.699 68.5715 157.135 68.1402 157.135 68.1402L158.955 66.3553L163.351 61.9236C163.351 61.9236 164.545 61.8684 164.715 62.1401C165.002 62.5992 165.076 63.6309 165.076 63.6309Z" fill="#FFBBB0"/>
<mask id="mask1" mask-type="alpha" maskUnits="userSpaceOnUse" x="154" y="61" width="13" height="11">
<path fill-rule="evenodd" clip-rule="evenodd" d="M165.076 63.6309L160.796 66.83C160.796 66.83 160.459 67.8809 159.823 68.6171C159.186 69.3533 159.121 69.8069 158.723 69.9066C158.325 70.0064 158.792 68.7439 158.792 68.7439L157.546 69.4518C157.546 69.4518 157.436 70.5094 157.125 70.8038C156.815 71.0982 156.779 70.1246 156.771 69.7516C156.558 70.2614 156.19 70.6317 155.97 70.5057C155.835 70.4285 156.009 70.2041 156.164 69.8055C156.262 69.5535 156.303 69.1191 156.414 68.9663C156.699 68.5715 157.135 68.1402 157.135 68.1402L158.955 66.3553L163.351 61.9236C163.351 61.9236 164.545 61.8684 164.715 62.1401C165.002 62.5992 165.076 63.6309 165.076 63.6309Z" fill="white"/>
</mask>
<g mask="url(#mask1)">
<g style="mix-blend-mode:multiply" opacity="0.2">
<path fill-rule="evenodd" clip-rule="evenodd" d="M157.554 69.5326C157.53 69.4733 157.523 68.8119 158.039 68.4777C158.554 68.1435 158.901 67.6698 158.903 67.8985C158.906 68.1271 158.721 68.9764 158.721 68.9764C158.721 68.9764 157.578 69.5918 157.554 69.5326Z" fill="#A9AAC4"/>
</g>
<g style="mix-blend-mode:multiply" opacity="0.2">
<path fill-rule="evenodd" clip-rule="evenodd" d="M157.176 68.0806C157.176 68.0806 156.74 68.923 156.771 69.7516C156.802 70.5801 156.902 70.8267 156.886 70.9945C156.87 71.1622 156.516 70.3497 156.377 69.2954C156.237 68.2412 157.176 68.0806 157.176 68.0806Z" fill="#A9AAC4"/>
</g>
</g>
<path fill-rule="evenodd" clip-rule="evenodd" d="M165.472 51.2949C165.472 51.2949 163.687 52.1146 164.176 54.6418C164.666 57.1689 165.285 59.6093 165.285 59.6093L162.865 62.3627C162.865 62.3627 164.315 62.795 164.536 64.6049C164.536 64.6049 167.462 61.6849 167.762 61.0638C167.912 60.7529 168.13 57.8026 167.195 54.2878C166.884 53.1209 165.472 51.2949 165.472 51.2949Z" fill="#586DFF"/>
<path fill-rule="evenodd" clip-rule="evenodd" d="M165.094 93.5991C165.094 93.5991 165.608 94.236 164.81 96.1763C164.012 98.1167 163.092 98.9093 161.972 99.2642C160.851 99.6192 161.335 97.5119 162.027 96.4904C162.719 95.469 163.036 93.4098 163.036 93.4098L165.094 93.5991Z" fill="#051B4D"/>
<path fill-rule="evenodd" clip-rule="evenodd" d="M162.918 89.4009L162.93 93.8355C162.93 93.8355 162.2 96.3224 161.728 97.0818C161.257 97.8412 162.782 98.0951 163.549 97.3417C164.316 96.5882 165.061 94.138 165.061 94.138L165.515 89.5886L162.918 89.4009Z" fill="#FFBBB0"/>
<path fill-rule="evenodd" clip-rule="evenodd" d="M168.464 62.4521C168.464 62.4521 169.06 66.819 167.744 69.7296C166.757 74.0334 166.288 77.069 166.288 77.069L166.071 91.0638C166.071 91.0638 165.683 91.844 164.26 91.844C162.836 91.844 162.797 91.0638 162.797 91.0638C162.797 91.0638 162.106 82.1084 162.106 76.5438C162.106 70.9793 165.281 61.4984 165.281 61.4984L168.464 62.4521Z" fill="url(#paint11_linear)"/>
<path fill-rule="evenodd" clip-rule="evenodd" d="M171.277 52.4267C170.799 52.1224 169.307 51.9257 167.895 51.6667C167.078 51.5169 166.263 51.2785 165.749 51.1614C164.817 51.1614 164.637 52.5812 164.4 54.0685C164.163 55.5559 163.635 57.2609 163.954 58.1696C164.272 59.0783 164.977 59.4516 164.977 59.4516C164.977 59.4516 164.375 62.0556 164.977 62.8575C165.579 63.6594 169.625 65.0075 171.277 64.0904C172.929 63.1732 171.793 61.3871 172.508 59.0329C173.224 56.6787 173.907 55.5311 173.697 54.4241C173.487 53.3171 172.031 52.9069 171.277 52.4267Z" fill="#586DFF"/>
<mask id="mask2" mask-type="alpha" maskUnits="userSpaceOnUse" x="163" y="51" width="11" height="14">
<path fill-rule="evenodd" clip-rule="evenodd" d="M171.277 52.4267C170.799 52.1224 169.307 51.9257 167.895 51.6667C167.078 51.5169 166.263 51.2785 165.749 51.1614C164.817 51.1614 164.637 52.5812 164.4 54.0685C164.163 55.5559 163.635 57.2609 163.954 58.1696C164.272 59.0783 164.977 59.4516 164.977 59.4516C164.977 59.4516 164.375 62.0556 164.977 62.8575C165.579 63.6594 169.625 65.0075 171.277 64.0904C172.929 63.1732 171.793 61.3871 172.508 59.0329C173.224 56.6787 173.907 55.5311 173.697 54.4241C173.487 53.3171 172.031 52.9069 171.277 52.4267Z" fill="white"/>
</mask>
<g mask="url(#mask2)">
<g style="mix-blend-mode:multiply">
<path fill-rule="evenodd" clip-rule="evenodd" d="M174.222 54.335C174.222 54.335 172.047 55.6301 171.469 57.8581C170.891 60.0862 169.797 60.1655 168.531 59.9247C167.266 59.684 166.234 59.2637 164.508 59.4403C162.782 59.6168 163.862 60.2293 165.115 60.0934C166.368 59.9576 167.042 60.1103 168.252 60.5907C169.461 61.071 170.524 61.0621 171.213 60.3394C171.005 61.6607 172.268 63.9453 169.624 64.3839C166.979 64.8225 171.979 67.2929 173.61 63.2651C175.24 59.2373 174.222 54.335 174.222 54.335Z" fill="#A9AAC4"/>
</g>
</g>
<path fill-rule="evenodd" clip-rule="evenodd" d="M167.639 50.9395C167.639 50.9395 167.689 51.6645 167.584 51.8491C167.584 51.8491 167.085 51.7069 166.686 52.5148C166.286 53.3226 166.207 54.1813 166.511 54.9453C166.815 55.7092 168.133 55.933 169.26 55.2063C170.797 54.2069 170.681 52.3269 170.506 52.1717C170.332 52.0165 169.671 52.09 170.438 48.8513C171.206 45.6126 167.639 50.9395 167.639 50.9395Z" fill="#FFBBB0"/>
<mask id="mask3" mask-type="alpha" maskUnits="userSpaceOnUse" x="165" y="47" width="7" height="9">
<path fill-rule="evenodd" clip-rule="evenodd" d="M167.639 50.9395C167.639 50.9395 167.689 51.6645 167.584 51.8491C167.584 51.8491 167.085 51.7069 166.686 52.5148C166.286 53.3226 166.207 54.1813 166.511 54.9453C166.815 55.7092 168.133 55.933 169.26 55.2063C170.797 54.2069 170.681 52.3269 170.506 52.1717C170.332 52.0165 169.671 52.09 170.438 48.8513C171.206 45.6126 167.639 50.9395 167.639 50.9395Z" fill="white"/>
</mask>
<g mask="url(#mask3)">
<g style="mix-blend-mode:multiply" opacity="0.2">
<path fill-rule="evenodd" clip-rule="evenodd" d="M169.984 49.2772C169.984 49.2772 169.524 51.7324 167.492 51.6313C165.46 51.5302 167.024 50.3752 167.258 50.1816C167.492 49.988 169.984 49.2772 169.984 49.2772Z" fill="#A9AAC4"/>
</g>
</g>
<path fill-rule="evenodd" clip-rule="evenodd" d="M171.313 45.3339C170.179 45.5748 169.065 44.8494 168.823 43.7137C168.582 42.5779 169.305 41.462 170.438 41.2211C171.572 40.9802 172.686 41.7056 172.928 42.8413C173.169 43.977 172.446 45.093 171.313 45.3339Z" fill="#30334F"/>
<path fill-rule="evenodd" clip-rule="evenodd" d="M170.103 45.9492C169.395 46.0998 168.698 45.6464 168.547 44.9366C168.396 44.2268 168.848 43.5293 169.557 43.3788C170.265 43.2282 170.961 43.6816 171.112 44.3914C171.263 45.1012 170.811 45.7987 170.103 45.9492Z" fill="white"/>
<path fill-rule="evenodd" clip-rule="evenodd" d="M165.812 47.1855C164.512 47.2172 164.039 44.4959 166.006 44.3737C167.5 44.0561 167.994 42.8213 170.005 43.91C172.015 44.9988 172.799 48.6868 170.062 49.2685C167.325 49.8503 165.871 48.3686 165.812 47.1855Z" fill="#30334F"/>
<path fill-rule="evenodd" clip-rule="evenodd" d="M165.915 45.9439C165.915 45.9439 165.667 46.4909 165.979 47.9584C166.291 49.426 166.569 51.4967 167.792 51.2735C169.015 51.0504 169.674 50.5915 170.15 49.65C170.626 48.7086 170.576 48.4936 170.576 48.4936C170.576 48.4936 171.12 48.2516 171.113 47.8343C171.106 47.4171 170.811 47.0869 170.234 47.2096C169.657 47.3322 167.822 47.971 166.587 45.9313C166.587 45.9313 166.409 46.0507 166.246 46.0511C166.083 46.0515 165.915 45.9439 165.915 45.9439Z" fill="#FFBBB0"/>
<path fill-rule="evenodd" clip-rule="evenodd" d="M167.889 48.1132C167.941 48.1023 167.97 48.0377 167.956 47.9688C167.941 47.9 167.888 47.853 167.836 47.8639C167.785 47.8748 167.756 47.9394 167.77 48.0083C167.785 48.0771 167.838 48.1241 167.889 48.1132Z" fill="#031120"/>
<path fill-rule="evenodd" clip-rule="evenodd" d="M166.473 48.2466C166.517 48.2372 166.543 48.1793 166.53 48.1173C166.516 48.0554 166.47 48.0128 166.425 48.0222C166.381 48.0317 166.356 48.0895 166.369 48.1515C166.382 48.2135 166.429 48.256 166.473 48.2466Z" fill="#031120"/>
<path d="M167.487 47.516C167.487 47.516 167.84 47.4241 168.183 47.5108" stroke="#031120" stroke-width="0.5" stroke-linecap="round"/>
<path d="M166.576 47.6774C166.576 47.6774 166.326 47.6209 166.097 47.7061" stroke="#031120" stroke-width="0.5" stroke-linecap="round"/>
<path d="M167.076 48.1958C167.076 48.1958 167.037 48.6946 166.905 48.8891C166.774 49.0836 166.67 49.3627 167.149 49.2645" stroke="#E77575" stroke-width="0.5" stroke-linecap="round"/>
<path d="M167.118 49.9867C167.118 49.9867 167.2 50.0559 167.446 50.0763C167.691 50.0967 167.988 49.9611 167.988 49.9611" stroke="#E77575" stroke-width="0.5" stroke-linecap="round"/>
<path fill-rule="evenodd" clip-rule="evenodd" d="M166.173 55.1222C166.076 54.923 165.892 54.78 165.676 54.7352L164.363 54.4638C164.207 54.4315 164.049 54.5065 163.975 54.6475L163.966 54.6649L166.044 58.7424L168.179 59.26L166.173 55.1222Z" fill="url(#paint12_linear)"/>
<path fill-rule="evenodd" clip-rule="evenodd" d="M166.043 55.2226C165.946 55.0239 165.762 54.8816 165.545 54.8375L164.496 54.6244C164.21 54.5662 163.979 54.8588 164.102 55.124L165.715 58.5915C165.809 58.7929 165.991 58.9392 166.208 58.987L167.367 59.2425C167.659 59.3067 167.895 59.0058 167.764 58.7378L166.043 55.2226Z" fill="#80B1FF"/>
<path fill-rule="evenodd" clip-rule="evenodd" d="M165.132 55.6379C165.098 55.6715 165.015 55.6423 164.948 55.5727C164.881 55.503 164.855 55.4194 164.889 55.3858C164.924 55.3522 165.007 55.3814 165.074 55.4511C165.141 55.5207 165.167 55.6044 165.132 55.6379Z" fill="url(#paint13_linear)"/>
<path fill-rule="evenodd" clip-rule="evenodd" d="M171.19 60.6182L167.457 58.3214C167.457 58.3214 167.084 57.2312 166.674 56.8522C166.263 56.4732 166.1 55.8566 165.87 56.0501C165.64 56.2436 166.124 57.2304 166.124 57.2304C166.124 57.2304 164.712 56.33 164.509 55.8672C164.307 55.4044 164.344 56.4784 164.651 56.6897C164.69 57.1929 164.78 57.5257 165.156 57.9847C165.531 58.4437 165.243 58.2731 166.192 58.9044C167.141 59.5357 170.701 62.7048 170.701 62.7048L171.19 60.6182Z" fill="#FFBBB0"/>
<path fill-rule="evenodd" clip-rule="evenodd" d="M171.799 52.8428C171.799 52.8428 173.631 53.5073 174.209 55.1874C174.788 56.8675 176.112 61.7099 175.229 63.9013C174.346 66.0927 169.811 62.5421 169.811 62.5421L171.201 60.2991L172.745 61.078C172.745 61.078 172.184 58.3078 171.67 55.8967C171.155 53.4856 171.799 52.8428 171.799 52.8428Z" fill="#586DFF"/>
<path d="M72.9187 58.8353L115.866 84.0978C116.89 84.7001 117.518 85.7994 117.518 86.9873V86.9873C117.518 88.4069 118.245 89.7276 119.445 90.4867L132.032 98.4508" stroke="#3C7092" stroke-width="1.296" stroke-dasharray="1.94 2.27"/>
<path opacity="0.211021" fill-rule="evenodd" clip-rule="evenodd" d="M105.696 83.4777C111.627 83.4777 116.436 80.6247 116.436 77.1054C116.436 73.586 111.627 70.733 105.696 70.733C99.764 70.733 94.9556 73.586 94.9556 77.1054C94.9556 80.6247 99.764 83.4777 105.696 83.4777Z" fill="url(#paint14_linear)"/>
<path fill-rule="evenodd" clip-rule="evenodd" d="M106.363 80.5286C109.603 80.5286 112.23 79.0291 112.23 77.1793C112.23 75.3295 109.603 73.8299 106.363 73.8299C103.123 73.8299 100.496 75.3295 100.496 77.1793C100.496 79.0291 103.123 80.5286 106.363 80.5286Z" fill="#83A3E7"/>
<path fill-rule="evenodd" clip-rule="evenodd" d="M102.396 66.7026C102.396 64.6059 98.2771 69.1093 97.7591 73.8697C97.5521 75.7724 97.468 76.5129 98.3585 76.493C98.8707 76.4815 99.3971 75.7296 100.271 74.764C101.728 73.1554 103.083 72.7936 103.083 72.7936C103.083 72.7936 102.396 70.0036 102.396 66.7026Z" fill="#131C5D"/>
<path fill-rule="evenodd" clip-rule="evenodd" d="M101.163 76.516C101.163 76.516 90.863 54.3003 97.7461 25.4173C98.5114 22.2062 99.7253 19.516 100.964 17.3894C103.093 13.7333 107.848 13.6085 110.221 17.1116C111.679 19.2634 113.174 22.0383 114.239 25.4173C122.563 51.8356 111.817 76.516 111.817 76.516C111.817 76.516 111.073 78.7543 106.431 78.7543C101.789 78.7543 101.163 76.516 101.163 76.516Z" fill="#C5DFFF"/>
<mask id="mask4" mask-type="alpha" maskUnits="userSpaceOnUse" x="95" y="14" width="23" height="65">
<path fill-rule="evenodd" clip-rule="evenodd" d="M101.163 76.516C101.163 76.516 90.863 54.3003 97.7461 25.4173C98.5114 22.2062 99.7253 19.516 100.964 17.3894C103.093 13.7333 107.848 13.6085 110.221 17.1116C111.679 19.2634 113.174 22.0383 114.239 25.4173C122.563 51.8356 111.817 76.516 111.817 76.516C111.817 76.516 111.073 78.7543 106.431 78.7543C101.789 78.7543 101.163 76.516 101.163 76.516Z" fill="white"/>
</mask>
<g mask="url(#mask4)">
<path fill-rule="evenodd" clip-rule="evenodd" d="M92.0822 56.6051C92.0822 56.6051 94.8533 63.064 106.363 63.064C117.873 63.064 120.674 56.6051 120.674 56.6051L119.999 26.5527C126.001 37.8482 86.4317 37.8482 93.0407 26.5527L92.0822 56.6051Z" fill="#83A3E7"/>
<path fill-rule="evenodd" clip-rule="evenodd" d="M92.0822 58.9976C92.0822 58.9976 94.8533 65.4565 106.363 65.4565C117.873 65.4565 120.674 58.9976 120.674 58.9976L119.999 24.1604C126.001 35.4559 86.4317 35.4559 93.0407 24.1604L92.0822 58.9976Z" stroke="#1E2243" stroke-width="0.5" stroke-linecap="round"/>
</g>
<path fill-rule="evenodd" clip-rule="evenodd" d="M110.108 54.1864C114.49 54.1864 118.043 50.6575 118.043 46.3044C118.043 41.9512 114.49 38.4223 110.108 38.4223C105.725 38.4223 102.172 41.9512 102.172 46.3044C102.172 50.6575 105.725 54.1864 110.108 54.1864Z" fill="#131C5D"/>
<path fill-rule="evenodd" clip-rule="evenodd" d="M110.895 54.1865C115.277 54.1865 118.83 50.6576 118.83 46.3044C118.83 41.9513 115.277 38.4224 110.895 38.4224C106.512 38.4224 102.959 41.9513 102.959 46.3044C102.959 50.6576 106.512 54.1865 110.895 54.1865Z" fill="#C5DFFF"/>
<path fill-rule="evenodd" clip-rule="evenodd" d="M110.895 52.8836C114.553 52.8836 117.518 49.9379 117.518 46.3043C117.518 42.6707 114.553 39.7251 110.895 39.7251C107.237 39.7251 104.271 42.6707 104.271 46.3043C104.271 49.9379 107.237 52.8836 110.895 52.8836Z" fill="white"/>
<mask id="mask5" mask-type="alpha" maskUnits="userSpaceOnUse" x="104" y="39" width="14" height="14">
<path fill-rule="evenodd" clip-rule="evenodd" d="M110.895 52.8836C114.553 52.8836 117.518 49.9379 117.518 46.3043C117.518 42.6707 114.553 39.7251 110.895 39.7251C107.237 39.7251 104.271 42.6707 104.271 46.3043C104.271 49.9379 107.237 52.8836 110.895 52.8836Z" fill="white"/>
</mask>
<g mask="url(#mask5)">
<path opacity="0.298689" fill-rule="evenodd" clip-rule="evenodd" d="M112.963 39.2041L116.749 41.2884L109.5 54.2784L105.714 52.194L112.963 39.2041Z" fill="#C5DFFF"/>
<path opacity="0.298689" fill-rule="evenodd" clip-rule="evenodd" d="M109.684 36.4681L112.093 37.7945L104.844 50.7845L102.435 49.4581L109.684 36.4681Z" fill="#C5DFFF"/>
</g>
<path fill-rule="evenodd" clip-rule="evenodd" d="M110.895 52.8836C114.553 52.8836 117.518 49.9379 117.518 46.3043C117.518 42.6707 114.553 39.7251 110.895 39.7251C107.237 39.7251 104.271 42.6707 104.271 46.3043C104.271 49.9379 107.237 52.8836 110.895 52.8836Z" stroke="#1E2243" stroke-width="0.5" stroke-linecap="round"/>
<path fill-rule="evenodd" clip-rule="evenodd" d="M112.437 66.9476C112.437 63.8787 116.556 70.4703 117.074 77.438C117.281 80.2229 117.366 81.3067 116.475 81.2776C115.963 81.2609 115.436 80.1603 114.562 78.7469C113.741 77.419 112.944 76.5264 112.17 76.0693C111.933 75.9291 111.782 75.673 111.825 75.401C111.838 75.3236 111.849 75.2494 111.858 75.1903C112.244 72.6529 112.437 69.9054 112.437 66.9476Z" fill="url(#paint15_linear)"/>
<path fill-rule="evenodd" clip-rule="evenodd" d="M102.636 67.6654C102.636 64.5965 98.5165 71.188 97.9985 78.1557C97.7914 80.9406 97.7074 82.0244 98.5979 81.9953C99.1101 81.9786 99.6364 80.878 100.511 79.4646C101.13 78.4626 101.736 77.7085 102.329 77.2023C102.861 76.7477 103.245 76.1127 103.144 75.4203C103.131 75.3334 103.12 75.252 103.11 75.1809C102.794 72.848 102.636 70.3428 102.636 67.6654Z" fill="url(#paint16_linear)"/>
<path fill-rule="evenodd" clip-rule="evenodd" d="M157.904 133.399C158.876 133.961 159.978 134.256 161.1 134.257L163.523 134.26L181.447 123.805C183.575 122.564 183.563 119.483 181.424 118.259L142.175 95.7985C140.308 94.7302 138.03 94.6702 136.11 95.6388L117.404 105.073C116.686 105.435 116.232 106.17 116.23 106.973L116.228 107.48C116.225 108.627 116.836 109.689 117.83 110.263L157.904 133.399Z" fill="url(#paint17_linear)"/>
<path fill-rule="evenodd" clip-rule="evenodd" d="M156.168 132.398C158.159 133.547 160.612 133.541 162.598 132.383L180.684 121.834C181.572 121.316 182.158 120.403 182.258 119.38L182.294 119.011C182.4 117.938 181.848 116.906 180.897 116.397L142.119 95.6568C140.28 94.673 138.077 94.6465 136.214 95.5859L117.404 105.073C116.686 105.435 116.232 106.17 116.23 106.973L116.228 107.48C116.225 108.627 116.836 109.689 117.83 110.263L156.168 132.398Z" fill="url(#paint18_linear)"/>
<path fill-rule="evenodd" clip-rule="evenodd" d="M156.168 131.984C158.158 133.134 160.612 133.128 162.597 131.97L180.684 121.42C181.572 120.903 182.157 119.99 182.258 118.967L182.294 118.598C182.399 117.524 181.848 116.493 180.897 115.984L142.119 95.2436C140.28 94.2598 138.076 94.2334 136.214 95.1727L117.403 104.66C116.686 105.022 116.232 105.756 116.23 106.56L116.228 107.066C116.225 108.214 116.835 109.276 117.829 109.85L156.168 131.984Z" fill="url(#paint19_linear)"/>
<path fill-rule="evenodd" clip-rule="evenodd" d="M156.191 129.852C158.183 131.002 160.638 130.996 162.624 129.836L179.194 120.159C181.317 118.919 181.309 115.849 179.18 114.62L142.431 93.403C140.44 92.2531 137.984 92.2593 135.999 93.419L119.428 103.096C117.306 104.336 117.313 107.406 119.442 108.635L156.191 129.852Z" fill="url(#paint20_linear)" stroke="white" stroke-width="0.5"/>
<path fill-rule="evenodd" clip-rule="evenodd" d="M170.557 123.471C169.592 124.061 168.059 124.096 167.132 123.549C166.205 123.003 166.236 122.081 167.201 121.492C168.165 120.902 169.699 120.867 170.625 121.413C171.552 121.96 171.521 122.881 170.557 123.471Z" fill="url(#paint21_linear)"/>
<path opacity="0.246257" fill-rule="evenodd" clip-rule="evenodd" d="M154.33 127.981L177.338 114.503L141.722 93.9403L118.714 107.418L154.33 127.981Z" fill="url(#paint22_linear)"/>
<path opacity="0.246257" fill-rule="evenodd" clip-rule="evenodd" d="M142.414 119.068L162.617 107.248L154.573 102.606L134.37 114.427L142.414 119.068Z" fill="url(#paint23_linear)"/>
<path opacity="0.246257" fill-rule="evenodd" clip-rule="evenodd" d="M153.247 125.281L173.45 113.461L165.406 108.819L145.203 120.64L153.247 125.281Z" fill="url(#paint24_linear)"/>
<path opacity="0.246257" fill-rule="evenodd" clip-rule="evenodd" d="M131.975 113.103L152.178 101.283L144.134 96.6409L123.931 108.462L131.975 113.103Z" fill="url(#paint25_linear)"/>
<path fill-rule="evenodd" clip-rule="evenodd" d="M131.953 105.264L152.177 93.4073L152.178 92.9941L144.142 88.7797L123.918 100.223L123.918 100.636L131.953 105.264Z" fill="url(#paint26_linear)"/>
<path fill-rule="evenodd" clip-rule="evenodd" d="M131.954 104.85L152.178 92.9942L144.142 88.3666L123.918 100.223L131.954 104.85Z" fill="#092965"/>
<path opacity="0.5" fill-rule="evenodd" clip-rule="evenodd" d="M133.469 98.6673L145.655 91.3541L144.311 90.5802L132.125 97.8934L133.469 98.6673Z" fill="url(#paint27_linear)"/>
<path opacity="0.5" fill-rule="evenodd" clip-rule="evenodd" d="M142.873 96.0574L136.049 100.153L134.705 99.3789L141.529 95.2835L142.873 96.0574Z" fill="url(#paint28_linear)"/>
<path opacity="0.5" fill-rule="evenodd" clip-rule="evenodd" d="M129.237 101.128C130.074 101.975 131.668 102.407 132.798 102.093C133.929 101.778 134.167 100.837 133.33 99.9894C132.494 99.1422 130.899 98.7102 129.769 99.0246C128.639 99.339 128.401 100.281 129.237 101.128Z" fill="url(#paint29_linear)"/>
<g opacity="0.8">
<path fill-rule="evenodd" clip-rule="evenodd" d="M142.396 115.36L162.62 103.504L162.62 103.091L154.584 98.8766L134.36 110.32L134.36 110.733L142.396 115.36Z" fill="url(#paint30_linear)"/>
<path fill-rule="evenodd" clip-rule="evenodd" d="M142.396 114.947L162.62 103.091L154.584 98.4634L134.36 110.32L142.396 114.947Z" fill="url(#paint31_linear)"/>
<path opacity="0.5" fill-rule="evenodd" clip-rule="evenodd" d="M143.911 108.764L156.098 101.451L154.754 100.677L142.567 107.99L143.911 108.764Z" fill="url(#paint32_linear)"/>
<path opacity="0.5" fill-rule="evenodd" clip-rule="evenodd" d="M153.315 106.154L146.491 110.25L145.147 109.476L151.971 105.38L153.315 106.154Z" fill="url(#paint33_linear)"/>
<path opacity="0.5" fill-rule="evenodd" clip-rule="evenodd" d="M139.679 111.225C140.516 112.072 142.11 112.504 143.241 112.19C144.371 111.875 144.609 110.933 143.772 110.086C142.936 109.239 141.341 108.807 140.211 109.121C139.081 109.436 138.843 110.378 139.679 111.225Z" fill="url(#paint34_linear)"/>
</g>
<path fill-rule="evenodd" clip-rule="evenodd" d="M195.508 100.423C195.508 100.423 196.365 100.708 196.201 101.872C196.038 103.035 195.414 102.63 195.112 103.703C194.811 104.776 193.831 105.671 193.286 105.826C192.741 105.982 191.675 106.18 191.462 105.314C191.249 104.449 195.508 100.423 195.508 100.423Z" fill="#30334F"/>
<path fill-rule="evenodd" clip-rule="evenodd" d="M186.923 88.1489C186.923 88.1489 177.472 99.6215 179.062 103.779C180.651 107.937 193.265 102.781 193.84 102.518C194.414 102.254 195.71 101.231 195.71 99.9072L185.063 99.6939C185.063 99.6939 189.68 94.8641 191.045 92.6365C192.41 90.4089 186.923 88.1489 186.923 88.1489Z" fill="url(#paint35_linear)"/>
<path fill-rule="evenodd" clip-rule="evenodd" d="M187.199 110.66C187.199 110.66 187.328 111.024 187.285 111.5C187.242 111.975 185.78 112.415 185.462 112.55C185.145 112.685 184.8 114.01 183.028 114.308C181.256 114.605 180.531 114.07 180.667 113.471C180.804 112.872 187.199 110.66 187.199 110.66Z" fill="#30334F"/>
<path fill-rule="evenodd" clip-rule="evenodd" d="M184.291 108.36C184.291 108.36 182.736 110.96 181.202 112.451C179.668 113.942 181.777 114.285 183.234 113.942C184.692 113.6 184.979 112.165 185.737 111.934C186.034 111.844 187.147 111.378 187.269 110.805C187.355 110.403 186.969 108.885 186.969 108.885" fill="#181E36"/>
<path fill-rule="evenodd" clip-rule="evenodd" d="M195.962 91.3077C195.962 91.3077 197.165 98.8572 192.24 98.8572L187.39 98.8044L187.302 109.152C187.302 109.152 186.133 110.253 183.662 108.919C183.662 108.919 181.191 98.5743 181.191 96.1098C181.191 94.6619 182.755 93.2233 184.748 92.9248C188.189 92.4094 192.906 92.4986 193.045 92.1639C193.266 91.6354 195.962 91.3077 195.962 91.3077Z" fill="url(#paint36_linear)"/>
<path fill-rule="evenodd" clip-rule="evenodd" d="M184.775 74.658C184.102 74.8011 181.663 86.2871 181.663 86.2871L177.555 92.8782C177.555 92.8782 178.031 92.5842 178.6 92.8436C179.17 93.1031 179.874 93.4693 179.874 93.4693C179.874 93.4693 183.688 89.1151 184.298 88.2604C184.908 87.4056 186.592 78.7336 186.302 77.3695C186.012 76.0055 185.449 74.5149 184.775 74.658Z" fill="url(#paint37_linear)"/>
<mask id="mask6" mask-type="alpha" maskUnits="userSpaceOnUse" x="174" y="74" width="16" height="20">
<path fill-rule="evenodd" clip-rule="evenodd" d="M184.775 74.658C184.102 74.8011 181.663 86.2871 181.663 86.2871L177.555 92.8782C177.555 92.8782 178.031 92.5842 178.6 92.8436C179.17 93.1031 179.874 93.4693 179.874 93.4693C179.874 93.4693 183.688 89.1151 184.298 88.2604C184.908 87.4056 186.592 78.7336 186.302 77.3695C186.012 76.0055 185.449 74.5149 184.775 74.658Z" fill="white"/>
</mask>
<g mask="url(#mask6)">
<g style="mix-blend-mode:multiply">
<path fill-rule="evenodd" clip-rule="evenodd" d="M186.325 86.4456C186.325 86.4456 183.882 83.5419 184.15 81.7536C184.418 79.9652 184.985 77.3635 184.799 76.4863C184.612 75.6092 187.175 76.8937 187.175 76.8937L186.325 86.4456Z" fill="#D8D8D8"/>
</g>
</g>
<path fill-rule="evenodd" clip-rule="evenodd" d="M190.201 74.8954C191.84 75.5885 194.748 77.0581 195.33 77.6627C195.911 78.2674 195.394 81.4662 194.837 82.9737C194.281 84.4812 195.278 88.3402 195.831 89.3521C195.981 89.6275 191.879 91.553 188.776 90.6155C186.106 89.8089 186.068 88.5286 186.173 87.31C186.278 86.0914 185.909 84.3575 185.909 84.3575C185.909 84.3575 184.903 79.6882 184.953 78.5864C185.002 77.4846 184.177 75.1371 184.637 74.7516C185.097 74.3661 188.562 74.2023 190.201 74.8954Z" fill="white"/>
<mask id="mask7" mask-type="alpha" maskUnits="userSpaceOnUse" x="183" y="72" width="15" height="20">
<path fill-rule="evenodd" clip-rule="evenodd" d="M190.201 74.8954C191.84 75.5885 194.748 77.0581 195.33 77.6627C195.911 78.2674 195.394 81.4662 194.837 82.9737C194.281 84.4812 195.278 88.3402 195.831 89.3521C195.981 89.6275 191.879 91.553 188.776 90.6155C186.106 89.8089 186.068 88.5286 186.173 87.31C186.278 86.0914 185.909 84.3575 185.909 84.3575C185.909 84.3575 184.903 79.6882 184.953 78.5864C185.002 77.4846 184.177 75.1371 184.637 74.7516C185.097 74.3661 188.562 74.2023 190.201 74.8954Z" fill="white"/>
</mask>
<g mask="url(#mask7)">
<path fill-rule="evenodd" clip-rule="evenodd" d="M188.13 77.4974L186.136 78.233C186.136 78.233 186.691 76.0634 187.29 75.3851C187.889 74.7069 187.901 75.3207 187.901 75.3207C187.901 75.3207 187.761 75.5068 187.8 76.1639C187.84 76.821 188.13 77.4974 188.13 77.4974Z" fill="url(#paint38_linear)" fill-opacity="0.2"/>
<g style="mix-blend-mode:multiply">
<path fill-rule="evenodd" clip-rule="evenodd" d="M188.332 74.4613C187.289 74.9549 186.61 77.2494 186.277 79.8576C185.944 82.4659 186.341 84.0715 187.012 86.0198C187.342 86.9741 187.74 87.9779 187.864 88.7906C187.994 89.6369 188.069 90.4264 187.916 90.8217C187.618 91.5964 186.163 93.1278 186.163 93.1278C186.163 93.1278 187.346 91.2651 187.079 89.8734C186.812 88.4818 184.697 83.9569 184.562 82.358C184.427 80.7591 184.922 79.142 184.821 77.8646C184.72 76.5873 184.189 75.1972 184.623 74.7606C185.056 74.3239 186.749 74.3358 188.332 74.4613Z" fill="url(#paint39_linear)" fill-opacity="0.2"/>
</g>
<path fill-rule="evenodd" clip-rule="evenodd" d="M191.28 74.7306C192.261 75.155 191.553 76.4888 190.176 77.0524C189.197 77.4531 188.246 78.114 188.246 78.114C188.246 78.114 187.823 76.9707 187.766 76.425C187.567 74.5265 189.091 73.63 189.091 73.63C189.091 73.63 190.3 74.3062 191.28 74.7306Z" fill="url(#paint40_linear)"/>
<path fill-rule="evenodd" clip-rule="evenodd" d="M188.697 78.3333L189.269 87.6036L188.071 88.8779L187.39 87.1998L187.892 78.0999L188.697 78.3333Z" fill="url(#paint41_linear)"/>
<path fill-rule="evenodd" clip-rule="evenodd" d="M188.848 77.5787L187.991 77.5082L187.534 77.717L187.867 78.4994L188.724 78.5882L189.348 78.0119L188.848 77.5787Z" fill="#092965"/>
<path fill-rule="evenodd" clip-rule="evenodd" d="M188.848 77.5786L190.307 79.0976C190.307 79.0976 191.623 76.0038 190.986 74.8895C190.986 74.8895 191.048 76.1602 190.323 76.7076C189.598 77.2549 188.848 77.5786 188.848 77.5786Z" fill="url(#paint42_linear)"/>
</g>
<path fill-rule="evenodd" clip-rule="evenodd" d="M190.884 75.1906C191.217 75.6597 190.037 79.6126 189.848 81.8425C189.66 84.0724 189.933 87.8644 190.055 90.0436C190.119 91.1829 189.749 93.6572 189.749 93.6572C189.749 93.6572 194.923 94.263 196.599 91.3719C196.229 90.5144 196.084 89.1347 195.6 87.6568C195.115 86.179 194.626 83.2186 195.46 80.4526C195.587 77.9004 195.65 77.7697 195.65 77.7697C195.65 77.7697 194.427 76.6971 190.884 75.1906Z" fill="#092965"/>
<mask id="mask8" mask-type="alpha" maskUnits="userSpaceOnUse" x="186" y="74" width="13" height="21">
<path fill-rule="evenodd" clip-rule="evenodd" d="M190.884 75.1906C191.217 75.6597 190.037 79.6126 189.848 81.8425C189.66 84.0724 189.933 87.8644 190.055 90.0436C190.119 91.1829 189.749 93.6572 189.749 93.6572C189.749 93.6572 194.923 94.263 196.599 91.3719C196.229 90.5144 196.084 89.1347 195.6 87.6568C195.115 86.179 194.626 83.2186 195.46 80.4526C195.587 77.9004 195.65 77.7697 195.65 77.7697C195.65 77.7697 194.427 76.6971 190.884 75.1906Z" fill="white"/>
</mask>
<g mask="url(#mask8)">
<g style="mix-blend-mode:multiply">
<path fill-rule="evenodd" clip-rule="evenodd" d="M190.175 87.839C190.013 84.1775 192.395 82.5817 192.395 82.5817L191.241 80.5796L192.52 79.9787C192.52 79.9787 191.754 77.4252 191.606 76.4984C191.458 75.5716 191.36 75.3602 191.36 75.3602L190.898 74.7517C190.898 74.7517 190.105 74.3726 189.567 74.3803C189.029 74.388 190.396 75.0485 190.396 75.0485C190.396 75.0485 190.595 75.0208 190.754 75.1485C190.913 75.2761 188.907 82.4131 188.907 82.4131C188.907 82.4131 190.337 91.5005 190.175 87.839Z" fill="url(#paint43_linear)"/>
</g>
</g>
<path fill-rule="evenodd" clip-rule="evenodd" d="M191.606 76.4984C191.705 77.1163 191.989 78.0435 192.459 79.28L191.13 80.258L192.173 81.9385C191.331 83.9985 189.841 85.9866 189.948 88.426C189.806 86.0105 189.669 83.967 189.848 81.8425C190.037 79.6126 191.219 75.6674 190.886 75.1984C190.61 74.7315 190.261 74.6557 190.261 74.6557C190.261 74.6557 190.18 74.546 190.339 74.5989C190.497 74.6518 190.785 74.7458 190.986 74.8896C191.179 75.0266 191.299 75.1536 191.377 75.4033C191.44 75.5702 191.516 75.9353 191.606 76.4984Z" fill="url(#paint44_linear)"/>
<path fill-rule="evenodd" clip-rule="evenodd" d="M188.332 74.4614C187.289 74.955 186.303 77.2503 186.112 79.7801C185.921 82.3099 186.341 84.0716 187.012 86.0198C187.684 87.9681 187.038 89.8031 186.74 90.5778C186.441 91.3526 185.908 92.649 185.908 92.649C185.908 92.649 185.477 91.6174 185.313 90.1911C185.149 88.7648 185.687 85.4378 185.552 83.8389C185.417 82.24 184.922 79.142 184.821 77.8647C184.72 76.5874 184.189 75.1973 184.623 74.7606C185.056 74.324 186.749 74.3359 188.332 74.4614Z" fill="#092965"/>
<path fill-rule="evenodd" clip-rule="evenodd" d="M188.332 74.4614C187.29 74.955 186.303 77.2503 186.112 79.7801C185.921 82.3099 186.341 84.0716 187.013 86.0198C187.149 86.4157 187.194 86.9923 187.229 87.4486C187.24 87.5877 187.249 87.7156 187.261 87.8239C187.267 87.8866 187.275 87.9484 187.283 88.0094C187.26 88.045 187.243 88.0331 187.23 87.9679C187.018 86.8299 185.053 82.642 185.053 82.642L185.63 79.8923L185.189 79.4863C185.189 79.4863 186.831 75.4107 187.946 74.4333C188.075 74.4418 188.204 74.4512 188.332 74.4614Z" fill="url(#paint45_linear)"/>
<path fill-rule="evenodd" clip-rule="evenodd" d="M190.72 71.8557C190.72 71.8557 190.761 72.6683 190.726 73.5579C190.691 74.4475 190.882 75.015 190.882 75.015C190.882 75.015 190.786 76.0108 189.657 76.5452C188.528 77.0795 188.033 76.2931 188.033 76.2931L187.983 74.0236L190.72 71.8557Z" fill="#FCCBCB"/>
<mask id="mask9" mask-type="alpha" maskUnits="userSpaceOnUse" x="187" y="71" width="5" height="6">
<path fill-rule="evenodd" clip-rule="evenodd" d="M190.72 71.8557C190.72 71.8557 190.761 72.6683 190.726 73.5579C190.691 74.4475 190.882 75.015 190.882 75.015C190.882 75.015 190.786 76.0108 189.657 76.5452C188.528 77.0795 188.033 76.2931 188.033 76.2931L187.983 74.0236L190.72 71.8557Z" fill="white"/>
</mask>
<g mask="url(#mask9)">
<path fill-rule="evenodd" clip-rule="evenodd" d="M188.077 76.13C188.077 76.13 189.392 75.9115 189.979 75.0893C190.565 74.267 190.346 72.9307 190.346 72.9307L187.774 73.7471L188.077 76.13Z" fill="url(#paint46_linear)"/>
</g>
<path fill-rule="evenodd" clip-rule="evenodd" d="M186.294 70.3601C186.294 70.3601 186.241 70.9633 186.466 72.5071C186.692 74.0509 186.906 75.1218 187.07 75.3462C187.234 75.5705 188.201 75.7488 189.036 75.2792C189.871 74.8095 190.262 74.3028 190.376 73.9263C190.491 73.5499 190.607 72.984 190.788 72.2263C190.969 71.4687 191.556 70.2517 191.173 69.4287C190.79 68.6058 189.773 67.9596 188.364 68.3849C186.956 68.8102 186.294 70.3601 186.294 70.3601Z" fill="#FCCBCB"/>
<mask id="mask10" mask-type="alpha" maskUnits="userSpaceOnUse" x="185" y="67" width="8" height="9">
<path fill-rule="evenodd" clip-rule="evenodd" d="M186.294 70.3601C186.294 70.3601 186.241 70.9633 186.466 72.5071C186.692 74.0509 186.906 75.1218 187.07 75.3462C187.234 75.5705 188.201 75.7488 189.036 75.2792C189.871 74.8095 190.262 74.3028 190.376 73.9263C190.491 73.5499 190.607 72.984 190.788 72.2263C190.969 71.4687 191.556 70.2517 191.173 69.4287C190.79 68.6058 189.773 67.9596 188.364 68.3849C186.956 68.8102 186.294 70.3601 186.294 70.3601Z" fill="white"/>
</mask>
<g mask="url(#mask10)">
</g>
<path fill-rule="evenodd" clip-rule="evenodd" d="M188.268 72.556C188.329 72.543 188.365 72.4662 188.347 72.3844C188.33 72.3027 188.266 72.247 188.205 72.26C188.144 72.2731 188.108 72.3499 188.126 72.4316C188.143 72.5133 188.207 72.569 188.268 72.556Z" fill="#031120"/>
<path fill-rule="evenodd" clip-rule="evenodd" d="M186.763 72.4584C186.816 72.4471 186.846 72.3783 186.831 72.3048C186.815 72.2312 186.759 72.1807 186.706 72.192C186.653 72.2033 186.623 72.2721 186.638 72.3456C186.654 72.4192 186.71 72.4697 186.763 72.4584Z" fill="#031120"/>
<path fill-rule="evenodd" clip-rule="evenodd" d="M189.361 70.1085C189.361 70.1085 188.447 70.801 187.357 70.9246C186.267 71.0483 185.754 70.6437 185.812 69.9138C185.87 69.184 186.713 68.1295 188.481 67.8064C190.249 67.4832 190.823 68.7548 190.823 68.7548C190.823 68.7548 191.342 68.7397 191.481 69.2864C191.62 69.8331 191.31 71.6859 191.033 72.1035C190.755 72.521 190.476 71.8539 190.476 71.8539C190.476 71.8539 190.567 72.5441 190.397 72.3973C190.226 72.2506 190.134 72.282 190.118 71.7987C190.103 71.3154 189.989 71.0296 189.766 71.0542C189.542 71.0787 189.232 70.7241 189.252 70.4576C189.272 70.1911 189.361 70.1085 189.361 70.1085Z" fill="#30334F"/>
<mask id="mask11" mask-type="alpha" maskUnits="userSpaceOnUse" x="185" y="67" width="8" height="7">
<path fill-rule="evenodd" clip-rule="evenodd" d="M189.361 70.1085C189.361 70.1085 188.447 70.801 187.357 70.9246C186.267 71.0483 185.754 70.6437 185.812 69.9138C185.87 69.184 186.713 68.1295 188.481 67.8064C190.249 67.4832 190.823 68.7548 190.823 68.7548C190.823 68.7548 191.342 68.7397 191.481 69.2864C191.62 69.8331 191.31 71.6859 191.033 72.1035C190.755 72.521 190.476 71.8539 190.476 71.8539C190.476 71.8539 190.567 72.5441 190.397 72.3973C190.226 72.2506 190.134 72.282 190.118 71.7987C190.103 71.3154 189.989 71.0296 189.766 71.0542C189.542 71.0787 189.232 70.7241 189.252 70.4576C189.272 70.1911 189.361 70.1085 189.361 70.1085Z" fill="white"/>
</mask>
<g mask="url(#mask11)">
<path fill-rule="evenodd" clip-rule="evenodd" d="M189.856 71.1504C189.856 71.1504 190.702 70.4425 191.217 70.4367C191.731 70.4308 191.821 70.8536 191.821 70.8536C191.821 70.8536 191.118 72.8957 191.026 72.9153C190.934 72.9349 189.92 72.9417 189.92 72.9417L189.856 71.1504Z" fill="url(#paint47_linear)"/>
<path fill-rule="evenodd" clip-rule="evenodd" d="M190.727 68.8875L189.48 70.0403C189.48 70.0403 189.979 69.7062 190.345 69.4127C190.71 69.1192 190.727 68.8875 190.727 68.8875Z" fill="#031120"/>
<path fill-rule="evenodd" clip-rule="evenodd" d="M188.702 69.9131C188.702 69.9131 187.168 70.7308 186.31 69.9692C187.284 70.5071 188.702 69.9131 188.702 69.9131Z" fill="#031120"/>
</g>
<path fill-rule="evenodd" clip-rule="evenodd" d="M190.452 71.5165C190.452 71.5165 190.483 71.3097 190.755 71.1603C191.027 71.0108 191.339 71.4207 191.197 71.8861C191.11 72.1734 191.033 72.3756 190.852 72.5602C190.807 72.606 190.703 72.5918 190.703 72.5918C190.703 72.5918 190.675 72.7135 190.658 72.7807C190.582 72.555 190.518 72.1862 190.499 72.0345C190.462 71.7401 190.452 71.5165 190.452 71.5165Z" fill="#FCCBCB"/>
<path fill-rule="evenodd" clip-rule="evenodd" d="M190.632 71.5709C190.632 71.5709 190.766 71.3939 190.893 71.4153C191.019 71.4367 191.118 71.6896 190.981 71.9501C190.843 72.2105 190.748 72.2413 190.748 72.2413L190.632 71.5709Z" fill="url(#paint48_linear)"/>
<path d="M187.895 71.814C187.895 71.814 188.33 71.7789 188.715 71.9504" stroke="#031120" stroke-width="0.5" stroke-linecap="round"/>
<path d="M186.887 71.7815C186.887 71.7815 186.589 71.7148 186.315 71.8165" stroke="#031120" stroke-width="0.5" stroke-linecap="round"/>
<path d="M187.202 72.0867C187.202 72.0867 187.134 72.7181 186.97 72.9543C186.805 73.1904 186.67 73.5367 187.243 73.4529" stroke="#E77575" stroke-width="0.5" stroke-linecap="round"/>
<path d="M186.986 73.9821C186.986 73.9821 187.084 74.0641 187.378 74.0879C187.671 74.1117 188.026 73.9501 188.026 73.9501" stroke="#E77575" stroke-width="0.5" stroke-linecap="round"/>
<path fill-rule="evenodd" clip-rule="evenodd" d="M195.43 77.7057C197.187 77.7202 197.816 82.6239 196.026 86.435C194.236 90.2461 195.139 89.2693 193.631 90.5702C192.122 91.8712 186.573 95.4343 186.573 95.4343C186.573 95.4343 186.113 94.0577 184.75 94.201L191.641 87.8148C191.641 87.8148 193.673 77.6913 195.43 77.7057Z" fill="url(#paint49_linear)"/>
<path fill-rule="evenodd" clip-rule="evenodd" d="M187.187 94.7153C187.06 94.7286 186.946 94.6366 186.933 94.5099C186.919 94.3831 187.011 94.2695 187.138 94.2561C187.265 94.2428 187.379 94.3348 187.392 94.4616C187.406 94.5883 187.314 94.7019 187.187 94.7153Z" fill="#D8D8D8"/>
<path fill-rule="evenodd" clip-rule="evenodd" d="M166.833 106.221L187.057 94.3643L187.058 93.9511L179.021 89.7367L158.798 101.18L158.797 101.593L166.833 106.221Z" fill="url(#paint50_linear)"/>
<path fill-rule="evenodd" clip-rule="evenodd" d="M166.834 105.807L187.058 93.9511L179.022 89.3236L158.798 101.18L166.834 105.807Z" fill="url(#paint51_linear)"/>
<path opacity="0.5" fill-rule="evenodd" clip-rule="evenodd" d="M168.349 99.6243L180.535 92.3111L179.191 91.5372L167.005 98.8504L168.349 99.6243Z" fill="url(#paint52_linear)"/>
<path opacity="0.5" fill-rule="evenodd" clip-rule="evenodd" d="M177.753 97.0143L170.928 101.11L169.584 100.336L176.409 96.2404L177.753 97.0143Z" fill="url(#paint53_linear)"/>
<path opacity="0.5" fill-rule="evenodd" clip-rule="evenodd" d="M164.117 102.085C164.953 102.932 166.548 103.364 167.678 103.05C168.808 102.735 169.047 101.794 168.21 100.946C167.373 100.099 165.779 99.6672 164.649 99.9816C163.519 100.296 163.28 101.238 164.117 102.085Z" fill="url(#paint54_linear)"/>
<path fill-rule="evenodd" clip-rule="evenodd" d="M184.766 94.2726C184.766 94.2726 183.424 94.7418 182.795 95.1957C182.167 95.6497 181.094 96.1531 181.323 96.2979C181.552 96.4427 182.898 96.033 182.898 96.033L180.867 98.0899C180.867 98.0899 181.388 98.2989 181.761 97.98C182.422 98.216 182.707 97.9401 182.707 97.9401C182.707 97.9401 183.335 98.0265 183.765 97.7336C184.196 97.4407 186.753 95.0488 186.753 95.0488C186.753 95.0488 186.756 94.3409 186.087 94.0063C185.418 93.6716 184.766 94.2726 184.766 94.2726Z" fill="#FCCBCB"/>
<path fill-rule="evenodd" clip-rule="evenodd" d="M20.211 65.354C20.7591 65.6336 21.64 65.0024 22.1786 63.9441C22.7171 62.8857 22.7094 61.8011 22.1614 61.5215C21.6133 61.2419 20.7324 61.8732 20.1938 62.9315C19.6552 63.9898 19.6629 65.0744 20.211 65.354Z" fill="url(#paint55_linear)"/>
<path d="M19.6221 66.5085C20.5478 66.9808 21.4557 66.5608 21.9533 66.2042C22.5102 65.8051 22.9899 65.2073 23.3336 64.5318C23.6773 63.8564 23.8783 63.1167 23.8734 62.4316C23.8691 61.8197 23.6752 60.8389 22.7503 60.3671C21.8246 59.8948 20.9166 60.3148 20.4191 60.6714C19.8622 61.0705 19.3825 61.6683 19.0388 62.3437C18.695 63.0192 18.4941 63.7589 18.4989 64.444C18.5033 65.0558 18.6972 66.0366 19.6221 66.5085Z" stroke="white" stroke-opacity="0.285621" stroke-width="2.592"/>
<defs>
<linearGradient id="paint0_linear" x1="18.4902" y1="53.938" x2="130.454" y2="61.8213" gradientUnits="userSpaceOnUse">
<stop stop-color="#7187B5"/>
<stop offset="1" stop-color="#BFCDED"/>
</linearGradient>
<linearGradient id="paint1_linear" x1="105.562" y1="118.473" x2="10.9634" y2="105.005" gradientUnits="userSpaceOnUse">
<stop stop-color="#C4D5FF"/>
<stop offset="0.499857" stop-color="#C9DDFF"/>
<stop offset="0.5319" stop-color="#E1ECFF"/>
<stop offset="1" stop-color="#D5E1FF"/>
</linearGradient>
<linearGradient id="paint2_linear" x1="41.0801" y1="36.8526" x2="128.154" y2="93.6831" gradientUnits="userSpaceOnUse">
<stop stop-color="#C0E1FF"/>
<stop offset="1" stop-color="white"/>
</linearGradient>
<linearGradient id="paint3_linear" x1="90.8961" y1="106.897" x2="10.0243" y2="99.3983" gradientUnits="userSpaceOnUse">
<stop stop-color="#6D94E7"/>
<stop offset="1" stop-color="#7E9EEF"/>
</linearGradient>
<linearGradient id="paint4_linear" x1="70.5813" y1="81.8814" x2="73.7325" y2="102.578" gradientUnits="userSpaceOnUse">
<stop stop-color="#6D7FE7"/>
<stop offset="1" stop-color="#4E60CD"/>
</linearGradient>
<linearGradient id="paint5_linear" x1="61.9546" y1="75.6594" x2="114.715" y2="85.9863" gradientUnits="userSpaceOnUse">
<stop stop-color="#4F6FCE"/>
<stop offset="1" stop-color="#3B3B5D"/>
</linearGradient>
<linearGradient id="paint6_linear" x1="30.0154" y1="-22.1449" x2="99.7976" y2="-2.26923" gradientUnits="userSpaceOnUse">
<stop stop-color="#C0E1FF"/>
<stop offset="1" stop-color="white"/>
</linearGradient>
<linearGradient id="paint7_linear" x1="18.3005" y1="-10.3321" x2="102.128" y2="-2.95784" gradientUnits="userSpaceOnUse">
<stop stop-color="#4F6FCE"/>
<stop offset="1" stop-color="#3B3B5D"/>
</linearGradient>
<linearGradient id="paint8_linear" x1="172.253" y1="90.2974" x2="164.358" y2="100.865" gradientUnits="userSpaceOnUse">
<stop stop-color="#364D83" stop-opacity="0.602491"/>
<stop offset="1" stop-color="#B2C4FF"/>
</linearGradient>
<linearGradient id="paint9_linear" x1="194.528" y1="103.042" x2="186.634" y2="113.61" gradientUnits="userSpaceOnUse">
<stop stop-color="#364D83" stop-opacity="0.602491"/>
<stop offset="1" stop-color="#B2C4FF"/>
</linearGradient>
<linearGradient id="paint10_linear" x1="174.328" y1="74.6073" x2="165.256" y2="76.9394" gradientUnits="userSpaceOnUse">
<stop stop-color="#15539E"/>
<stop offset="1" stop-color="#092965"/>
</linearGradient>
<linearGradient id="paint11_linear" x1="169.895" y1="73.4163" x2="160.711" y2="75.7723" gradientUnits="userSpaceOnUse">
<stop stop-color="#15539E"/>
<stop offset="1" stop-color="#092965"/>
</linearGradient>
<linearGradient id="paint12_linear" x1="164.457" y1="53.052" x2="167.847" y2="53.1457" gradientUnits="userSpaceOnUse">
<stop stop-color="#C0E1FF"/>
<stop offset="1" stop-color="white"/>
</linearGradient>
<linearGradient id="paint13_linear" x1="164.669" y1="55.3398" x2="165.118" y2="55.1458" gradientUnits="userSpaceOnUse">
<stop stop-color="#C0E1FF"/>
<stop offset="1" stop-color="white"/>
</linearGradient>
<linearGradient id="paint14_linear" x1="111.79" y1="69.4279" x2="103.896" y2="79.9956" gradientUnits="userSpaceOnUse">
<stop stop-color="#364D83" stop-opacity="0.602491"/>
<stop offset="1" stop-color="#B2C4FF"/>
</linearGradient>
<linearGradient id="paint15_linear" x1="115.892" y1="68.9053" x2="110.599" y2="70.8814" gradientUnits="userSpaceOnUse">
<stop stop-color="#4F6FCE"/>
<stop offset="1" stop-color="#3B3B5D"/>
</linearGradient>
<linearGradient id="paint16_linear" x1="99.1812" y1="69.6231" x2="104.474" y2="71.5991" gradientUnits="userSpaceOnUse">
<stop stop-color="#4F6FCE"/>
<stop offset="1" stop-color="#3B3B5D"/>
</linearGradient>
<linearGradient id="paint17_linear" x1="160.975" y1="107.328" x2="180.649" y2="97.3858" gradientUnits="userSpaceOnUse">
<stop stop-color="#DAE2FF"/>
<stop offset="1" stop-color="white" stop-opacity="0.01"/>
</linearGradient>
<linearGradient id="paint18_linear" x1="184.71" y1="119.836" x2="171.483" y2="141.888" gradientUnits="userSpaceOnUse">
<stop stop-color="#7187B5"/>
<stop offset="1" stop-color="#BFCDED"/>
</linearGradient>
<linearGradient id="paint19_linear" x1="207.088" y1="147.597" x2="171.023" y2="178.492" gradientUnits="userSpaceOnUse">
<stop stop-color="#C4D5FF"/>
<stop offset="0.277573" stop-color="#C9DDFF"/>
<stop offset="0.364849" stop-color="#E1ECFF"/>
<stop offset="1" stop-color="#D5E1FF"/>
</linearGradient>
<linearGradient id="paint20_linear" x1="192.978" y1="129.49" x2="176.819" y2="149.921" gradientUnits="userSpaceOnUse">
<stop stop-color="#C0E1FF"/>
<stop offset="1" stop-color="white"/>
</linearGradient>
<linearGradient id="paint21_linear" x1="171.622" y1="123.968" x2="169.374" y2="126.215" gradientUnits="userSpaceOnUse">
<stop stop-color="#6D7FE7"/>
<stop offset="1" stop-color="#7E9EEF"/>
</linearGradient>
<linearGradient id="paint22_linear" x1="112.204" y1="101.707" x2="125.811" y2="79.3358" gradientUnits="userSpaceOnUse">
<stop stop-color="#6D94E7"/>
<stop offset="1" stop-color="#7E9EEF"/>
</linearGradient>
<linearGradient id="paint23_linear" x1="134.293" y1="123.068" x2="129.799" y2="114.995" gradientUnits="userSpaceOnUse">
<stop stop-color="#6D94E7"/>
<stop offset="1" stop-color="#7E9EEF"/>
</linearGradient>
<linearGradient id="paint24_linear" x1="145.126" y1="129.281" x2="140.632" y2="121.208" gradientUnits="userSpaceOnUse">
<stop stop-color="#6D94E7"/>
<stop offset="1" stop-color="#7E9EEF"/>
</linearGradient>
<linearGradient id="paint25_linear" x1="123.854" y1="117.103" x2="119.36" y2="109.03" gradientUnits="userSpaceOnUse">
<stop stop-color="#6D94E7"/>
<stop offset="1" stop-color="#7E9EEF"/>
</linearGradient>
<linearGradient id="paint26_linear" x1="120.657" y1="107.171" x2="117.491" y2="100.224" gradientUnits="userSpaceOnUse">
<stop stop-color="#6D7FE7"/>
<stop offset="1" stop-color="#7E9EEF"/>
</linearGradient>
<linearGradient id="paint27_linear" x1="151.497" y1="87.3816" x2="152.788" y2="90.4229" gradientUnits="userSpaceOnUse">
<stop stop-color="#C4D5FF"/>
<stop offset="1" stop-color="#D5E1FF"/>
</linearGradient>
<linearGradient id="paint28_linear" x1="146.142" y1="93.5069" x2="147.128" y2="96.3909" gradientUnits="userSpaceOnUse">
<stop stop-color="#C4D5FF"/>
<stop offset="1" stop-color="#D5E1FF"/>
</linearGradient>
<linearGradient id="paint29_linear" x1="135.719" y1="99.2929" x2="130.818" y2="96.1728" gradientUnits="userSpaceOnUse">
<stop stop-color="#C4D5FF"/>
<stop offset="1" stop-color="#D5E1FF"/>
</linearGradient>
<linearGradient id="paint30_linear" x1="131.099" y1="117.268" x2="127.934" y2="110.321" gradientUnits="userSpaceOnUse">
<stop stop-color="#6D7FE7"/>
<stop offset="1" stop-color="#7E9EEF"/>
</linearGradient>
<linearGradient id="paint31_linear" x1="174.021" y1="93.0443" x2="177.598" y2="114.058" gradientUnits="userSpaceOnUse">
<stop stop-color="#E4E9FF"/>
<stop offset="1" stop-color="white"/>
</linearGradient>
<linearGradient id="paint32_linear" x1="161.939" y1="97.4785" x2="163.23" y2="100.52" gradientUnits="userSpaceOnUse">
<stop stop-color="#C4D5FF"/>
<stop offset="1" stop-color="#D5E1FF"/>
</linearGradient>
<linearGradient id="paint33_linear" x1="156.584" y1="103.604" x2="157.57" y2="106.488" gradientUnits="userSpaceOnUse">
<stop stop-color="#C4D5FF"/>
<stop offset="1" stop-color="#D5E1FF"/>
</linearGradient>
<linearGradient id="paint34_linear" x1="146.161" y1="109.39" x2="141.26" y2="106.27" gradientUnits="userSpaceOnUse">
<stop stop-color="#C4D5FF"/>
<stop offset="1" stop-color="#D5E1FF"/>
</linearGradient>
<linearGradient id="paint35_linear" x1="175.621" y1="94.9215" x2="186.339" y2="107.4" gradientUnits="userSpaceOnUse">
<stop stop-color="#15539E"/>
<stop offset="1" stop-color="#092965"/>
</linearGradient>
<linearGradient id="paint36_linear" x1="178.335" y1="98.5114" x2="189.863" y2="109.732" gradientUnits="userSpaceOnUse">
<stop stop-color="#15539E"/>
<stop offset="1" stop-color="#092965"/>
</linearGradient>
<linearGradient id="paint37_linear" x1="184.573" y1="91.4021" x2="186.47" y2="80.493" gradientUnits="userSpaceOnUse">
<stop stop-color="#15539E"/>
<stop offset="1" stop-color="#092965"/>
</linearGradient>
<linearGradient id="paint38_linear" x1="187.851" y1="78.68" x2="188.785" y2="76.6233" gradientUnits="userSpaceOnUse">
<stop stop-color="#BED4EB"/>
<stop offset="1" stop-color="#0041AE"/>
</linearGradient>
<linearGradient id="paint39_linear" x1="190.479" y1="96.058" x2="196.541" y2="91.2231" gradientUnits="userSpaceOnUse">
<stop stop-color="#1B4A7A"/>
<stop offset="1" stop-color="#0041AE"/>
</linearGradient>
<linearGradient id="paint40_linear" x1="188.865" y1="75.1555" x2="189.291" y2="75.7869" gradientUnits="userSpaceOnUse">
<stop stop-color="#F3A6A6"/>
<stop offset="1" stop-color="#FCCBCB"/>
</linearGradient>
<linearGradient id="paint41_linear" x1="185.561" y1="78.5953" x2="187.761" y2="88.9438" gradientUnits="userSpaceOnUse">
<stop stop-color="#15539E"/>
<stop offset="1" stop-color="#092965"/>
</linearGradient>
<linearGradient id="paint42_linear" x1="191.248" y1="80.0499" x2="192.732" y2="77.496" gradientUnits="userSpaceOnUse">
<stop stop-color="#BED4EB"/>
<stop offset="1" stop-color="#CEDBF0"/>
</linearGradient>
<linearGradient id="paint43_linear" x1="187.33" y1="74.845" x2="190.047" y2="87.6247" gradientUnits="userSpaceOnUse">
<stop stop-color="#ABBEE7"/>
<stop offset="1" stop-color="#A5B6DC" stop-opacity="0.01"/>
</linearGradient>
<linearGradient id="paint44_linear" x1="187.146" y1="75.2423" x2="189.948" y2="88.426" gradientUnits="userSpaceOnUse">
<stop stop-color="#15539E"/>
<stop offset="1" stop-color="#092965"/>
</linearGradient>
<linearGradient id="paint45_linear" x1="183.508" y1="75.3765" x2="186.244" y2="88.2454" gradientUnits="userSpaceOnUse">
<stop stop-color="#15539E"/>
<stop offset="1" stop-color="#092965"/>
</linearGradient>
<linearGradient id="paint46_linear" x1="188.48" y1="71.7842" x2="186.722" y2="75.5837" gradientUnits="userSpaceOnUse">
<stop stop-color="#FCCBCB"/>
<stop offset="1" stop-color="#E77575"/>
</linearGradient>
<linearGradient id="paint47_linear" x1="189.183" y1="70.0687" x2="189.223" y2="72.5851" gradientUnits="userSpaceOnUse">
<stop stop-color="#0C3564"/>
<stop offset="1" stop-color="#BFA5B1"/>
</linearGradient>
<linearGradient id="paint48_linear" x1="190.847" y1="72.0413" x2="191.378" y2="71.9009" gradientUnits="userSpaceOnUse">
<stop stop-color="#FCCBCB"/>
<stop offset="1" stop-color="#E77575"/>
</linearGradient>
<linearGradient id="paint49_linear" x1="190.107" y1="94.0526" x2="185.61" y2="84.1415" gradientUnits="userSpaceOnUse">
<stop stop-color="#15539E"/>
<stop offset="1" stop-color="#092965"/>
</linearGradient>
<linearGradient id="paint50_linear" x1="155.537" y1="108.128" x2="152.371" y2="101.181" gradientUnits="userSpaceOnUse">
<stop stop-color="#6D7FE7"/>
<stop offset="1" stop-color="#7E9EEF"/>
</linearGradient>
<linearGradient id="paint51_linear" x1="198.459" y1="83.9044" x2="202.036" y2="104.918" gradientUnits="userSpaceOnUse">
<stop stop-color="#E4E9FF"/>
<stop offset="1" stop-color="white"/>
</linearGradient>
<linearGradient id="paint52_linear" x1="186.377" y1="88.3386" x2="187.668" y2="91.3799" gradientUnits="userSpaceOnUse">
<stop stop-color="#C4D5FF"/>
<stop offset="1" stop-color="#D5E1FF"/>
</linearGradient>
<linearGradient id="paint53_linear" x1="181.021" y1="94.4638" x2="182.007" y2="97.3479" gradientUnits="userSpaceOnUse">
<stop stop-color="#C4D5FF"/>
<stop offset="1" stop-color="#D5E1FF"/>
</linearGradient>
<linearGradient id="paint54_linear" x1="170.599" y1="100.25" x2="165.697" y2="97.1297" gradientUnits="userSpaceOnUse">
<stop stop-color="#C4D5FF"/>
<stop offset="1" stop-color="#D5E1FF"/>
</linearGradient>
<linearGradient id="paint55_linear" x1="21.1697" y1="61.0162" x2="19.2174" y2="64.8478" gradientUnits="userSpaceOnUse">
<stop stop-color="#FB6464"/>
<stop offset="1" stop-color="#FA4E40"/>
</linearGradient>
</defs>
</svg>
