<svg width="264" height="285" viewBox="0 0 264 285" fill="none" xmlns="http://www.w3.org/2000/svg">
<g filter="url(#filter0_d)">
<rect x="28.7432" y="19.6094" width="206.654" height="242.391" rx="12.4303" fill="white"/>
<rect x="45.3174" y="36.1836" width="173.506" height="20.7172" rx="4.14344" fill="#F3F9FF"/>
<rect x="47.3887" y="38.2549" width="84.6815" height="16.5737" rx="4.14344" fill="#5583FF"/>
<path d="M83.2613 49.3262V44.1712H85.028C85.611 44.1712 86.0548 44.288 86.3593 44.5217C86.6638 44.7553 86.816 45.1035 86.816 45.5661C86.816 45.8022 86.7523 46.0146 86.6248 46.2034C86.4974 46.3923 86.3109 46.5386 86.0654 46.6424C86.3439 46.718 86.5587 46.8608 86.7098 47.0709C86.8632 47.2786 86.9399 47.5288 86.9399 47.8214C86.9399 48.3053 86.7841 48.6771 86.4726 48.9367C86.1634 49.1964 85.7196 49.3262 85.1413 49.3262H83.2613ZM84.1571 47V48.611H85.1519C85.4328 48.611 85.6523 48.5414 85.8105 48.4021C85.9686 48.2628 86.0477 48.0693 86.0477 47.8214C86.0477 47.2856 85.7739 47.0118 85.2263 47H84.1571ZM84.1571 46.3415H85.0351C85.3136 46.3415 85.5308 46.279 85.6866 46.1539C85.8447 46.0264 85.9238 45.847 85.9238 45.6157C85.9238 45.3608 85.8506 45.1767 85.7043 45.0634C85.5603 44.9501 85.3349 44.8934 85.028 44.8934H84.1571V46.3415ZM91.6063 44.1712V47.6161C91.6063 48.1637 91.4305 48.598 91.0788 48.919C90.7295 49.2377 90.2633 49.397 89.6803 49.397C89.0902 49.397 88.6217 49.24 88.2747 48.9261C87.9277 48.6098 87.7542 48.172 87.7542 47.6126V44.1712H88.6465V47.6196C88.6465 47.9642 88.7338 48.2274 88.9085 48.4092C89.0831 48.5909 89.3404 48.6818 89.6803 48.6818C90.3695 48.6818 90.7141 48.3183 90.7141 47.5913V44.1712H91.6063ZM94.2476 46.6141L95.4337 44.1712H96.425L94.6972 47.4284V49.3262H93.7979V47.4284L92.0666 44.1712H93.0615L94.2476 46.6141Z" fill="white"/>
<path d="M169.342 47.9985C169.342 47.7719 169.262 47.5972 169.102 47.4745C168.943 47.3517 168.657 47.2278 168.241 47.1027C167.826 46.9776 167.495 46.8384 167.25 46.6849C166.78 46.3899 166.545 46.0052 166.545 45.5307C166.545 45.1153 166.714 44.773 167.052 44.504C167.392 44.2349 167.832 44.1003 168.372 44.1003C168.731 44.1003 169.051 44.1664 169.332 44.2986C169.613 44.4308 169.833 44.6196 169.994 44.8651C170.154 45.1082 170.235 45.3785 170.235 45.6759H169.342C169.342 45.4068 169.257 45.1967 169.087 45.0457C168.92 44.8922 168.679 44.8155 168.365 44.8155C168.072 44.8155 167.845 44.8781 167.682 45.0032C167.521 45.1283 167.441 45.3029 167.441 45.5272C167.441 45.716 167.528 45.8742 167.703 46.0016C167.878 46.1267 168.166 46.2494 168.567 46.3698C168.968 46.4878 169.29 46.6236 169.534 46.777C169.777 46.9281 169.955 47.1027 170.068 47.301C170.181 47.4969 170.238 47.727 170.238 47.9914C170.238 48.421 170.073 48.7632 169.742 49.0181C169.414 49.2707 168.968 49.397 168.404 49.397C168.031 49.397 167.688 49.3285 167.374 49.1916C167.062 49.0524 166.819 48.8612 166.644 48.6181C166.472 48.3749 166.386 48.0917 166.386 47.7683H167.282C167.282 48.061 167.379 48.2876 167.572 48.4481C167.766 48.6086 168.043 48.6889 168.404 48.6889C168.716 48.6889 168.949 48.6263 169.105 48.5012C169.263 48.3738 169.342 48.2062 169.342 47.9985ZM174.037 47.0248H171.92V48.611H174.395V49.3262H171.024V44.1712H174.37V44.8934H171.92V46.3167H174.037V47.0248ZM176.02 48.611H178.36V49.3262H175.124V44.1712H176.02V48.611ZM179.943 48.611H182.283V49.3262H179.047V44.1712H179.943V48.611Z" fill="#5583FF"/>
<g clip-path="url(#clip0)">
<rect x="45.3174" y="65.1875" width="173.506" height="30.0399" rx="4.14344" fill="white"/>
<rect width="103.586" height="30.0399" transform="translate(45.3174 65.1875)" fill="#E2EFFC"/>
<path d="M53.7026 73.7642L55.048 71.176H55.8198L54.0425 74.4085V76.3311H53.3627V74.4085L51.5853 71.176H52.3643L53.7026 73.7642ZM55.9756 74.3802C55.9756 74.0049 56.0488 73.6674 56.1951 73.3676C56.3438 73.0679 56.5492 72.8365 56.8112 72.6737C57.0755 72.5108 57.3765 72.4294 57.714 72.4294C58.2356 72.4294 58.657 72.61 58.978 72.9711C59.3013 73.3322 59.463 73.8126 59.463 74.4121V74.4581C59.463 74.831 59.391 75.1662 59.247 75.4636C59.1054 75.7587 58.9013 75.9888 58.6345 76.154C58.3702 76.3193 58.0657 76.4019 57.7211 76.4019C57.2018 76.4019 56.7805 76.2213 56.4571 75.8602C56.1361 75.499 55.9756 75.0211 55.9756 74.4262V74.3802ZM56.6341 74.4581C56.6341 74.883 56.7321 75.224 56.928 75.4813C57.1263 75.7386 57.3906 75.8672 57.7211 75.8672C58.0539 75.8672 58.3182 75.7374 58.5142 75.4778C58.7101 75.2158 58.808 74.8499 58.808 74.3802C58.808 73.9601 58.7077 73.6202 58.5071 73.3605C58.3088 73.0985 58.0444 72.9675 57.714 72.9675C57.3906 72.9675 57.1298 73.0962 56.9315 73.3535C56.7333 73.6107 56.6341 73.979 56.6341 74.4581ZM62.6495 75.9522C62.3946 76.252 62.0205 76.4019 61.5272 76.4019C61.1188 76.4019 60.8072 76.2838 60.5924 76.0478C60.38 75.8094 60.2726 75.4577 60.2703 74.9927V72.5002H60.9253V74.975C60.9253 75.5557 61.1613 75.846 61.6334 75.846C62.1338 75.846 62.4666 75.6595 62.6318 75.2866V72.5002H63.2868V76.3311H62.6637L62.6495 75.9522ZM68.3144 75.3149C68.3144 75.1379 68.2471 75.001 68.1125 74.9042C67.9804 74.8051 67.7479 74.7201 67.4151 74.6493C67.0846 74.5785 66.8214 74.4935 66.6255 74.3944C66.432 74.2952 66.288 74.1772 66.1936 74.0403C66.1015 73.9034 66.0555 73.7406 66.0555 73.5517C66.0555 73.2378 66.1877 72.9723 66.452 72.7551C66.7188 72.538 67.0586 72.4294 67.4717 72.4294C67.906 72.4294 68.2577 72.5415 68.5268 72.7657C68.7982 72.99 68.9339 73.2768 68.9339 73.6261H68.2754C68.2754 73.4467 68.1987 73.2921 68.0453 73.1623C67.8942 73.0325 67.703 72.9675 67.4717 72.9675C67.2333 72.9675 67.0468 73.0195 66.9123 73.1233C66.7778 73.2272 66.7105 73.3629 66.7105 73.5305C66.7105 73.6886 66.773 73.8078 66.8981 73.8881C67.0232 73.9683 67.2487 74.0451 67.5744 74.1182C67.9025 74.1914 68.168 74.2787 68.371 74.3802C68.574 74.4817 68.7239 74.6045 68.8206 74.7484C68.9198 74.8901 68.9694 75.0635 68.9694 75.2689C68.9694 75.6111 68.8324 75.8861 68.5586 76.0938C68.2848 76.2992 67.9296 76.4019 67.4929 76.4019C67.1861 76.4019 66.9147 76.3476 66.6786 76.239C66.4426 76.1304 66.2573 75.9794 66.1228 75.7858C65.9906 75.5899 65.9245 75.3787 65.9245 75.1521H66.5795C66.5913 75.3716 66.6786 75.5462 66.8415 75.6761C67.0067 75.8035 67.2239 75.8672 67.4929 75.8672C67.7408 75.8672 67.9391 75.8177 68.0878 75.7185C68.2388 75.617 68.3144 75.4825 68.3144 75.3149ZM71.4123 76.4019C70.893 76.4019 70.4705 76.2319 70.1448 75.892C69.8191 75.5498 69.6562 75.093 69.6562 74.5218V74.4015C69.6562 74.0214 69.7282 73.6827 69.8722 73.3853C70.0185 73.0856 70.2215 72.8519 70.4812 72.6843C70.7432 72.5144 71.0264 72.4294 71.3309 72.4294C71.8289 72.4294 72.216 72.5934 72.4922 72.9215C72.7683 73.2496 72.9064 73.7193 72.9064 74.3307V74.6033H70.3112C70.3207 74.9809 70.4304 75.2866 70.6405 75.5203C70.8529 75.7516 71.122 75.8672 71.4477 75.8672C71.679 75.8672 71.8749 75.82 72.0355 75.7256C72.196 75.6312 72.3364 75.5061 72.4568 75.3503L72.8569 75.6619C72.5358 76.1552 72.0543 76.4019 71.4123 76.4019ZM71.3309 72.9675C71.0665 72.9675 70.8447 73.0643 70.6653 73.2579C70.4859 73.4491 70.3749 73.7181 70.3325 74.0651H72.2514V74.0155C72.2325 73.6827 72.1428 73.4255 71.9823 73.2437C71.8218 73.0596 71.6047 72.9675 71.3309 72.9675ZM74.2872 72.5002L74.3085 72.9817C74.6012 72.6135 74.9835 72.4294 75.4556 72.4294C76.2652 72.4294 76.6735 72.8861 76.6806 73.7996V76.3311H76.0256V73.796C76.0233 73.5199 75.9595 73.3157 75.8344 73.1835C75.7117 73.0513 75.5193 72.9853 75.2573 72.9853C75.0449 72.9853 74.8584 73.0419 74.6979 73.1552C74.5374 73.2685 74.4123 73.4172 74.3226 73.6013V76.3311H73.6676V72.5002H74.2872ZM77.5091 74.3838C77.5091 73.796 77.6484 73.324 77.9269 72.9675C78.2054 72.6088 78.5701 72.4294 79.0209 72.4294C79.4694 72.4294 79.8246 72.5828 80.0866 72.8897V70.8928H80.7416V76.3311H80.1397L80.1079 75.9204C79.8459 76.2414 79.4812 76.4019 79.0138 76.4019C78.5701 76.4019 78.2078 76.2201 77.9269 75.8566C77.6484 75.4931 77.5091 75.0187 77.5091 74.4333V74.3838ZM78.1641 74.4581C78.1641 74.8924 78.2538 75.2323 78.4332 75.4778C78.6126 75.7233 78.8604 75.846 79.1767 75.846C79.5921 75.846 79.8954 75.6595 80.0866 75.2866V73.527C79.8907 73.1658 79.5898 72.9853 79.1838 72.9853C78.8628 72.9853 78.6126 73.1092 78.4332 73.357C78.2538 73.6048 78.1641 73.9719 78.1641 74.4581Z" fill="#3092EC"/>
<path d="M57.0352 89.1719H52.0835V88.3272L54.5366 85.6516C54.8907 85.2571 55.1419 84.9283 55.2902 84.6653C55.442 84.3989 55.5179 84.1325 55.5179 83.8661C55.5179 83.5155 55.4184 83.2322 55.2194 83.0164C55.0239 82.8006 54.7592 82.6927 54.4253 82.6927C54.0275 82.6927 53.7189 82.8141 53.4998 83.0569C53.2806 83.2996 53.171 83.6318 53.171 84.0533H51.9419C51.9419 83.6048 52.0431 83.2019 52.2454 82.8444C52.4511 82.4836 52.7428 82.2038 53.1204 82.0048C53.5014 81.8059 53.9398 81.7064 54.4355 81.7064C55.1503 81.7064 55.7134 81.8868 56.1248 82.2476C56.5396 82.605 56.7469 83.1007 56.7469 83.7346C56.7469 84.1022 56.6424 84.4883 56.4333 84.8929C56.2276 85.2941 55.8888 85.751 55.4167 86.2636L53.6161 88.1906H57.0352V89.1719ZM62.7709 86.0714C62.7709 87.1302 62.5719 87.9293 62.1741 88.4688C61.7795 89.005 61.1777 89.273 60.3684 89.273C59.5726 89.273 58.9724 89.0117 58.5678 88.4891C58.1665 87.963 57.9608 87.1858 57.9507 86.1574V84.8828C57.9507 83.824 58.148 83.0299 58.5425 82.5005C58.9404 81.9711 59.5456 81.7064 60.3583 81.7064C61.1642 81.7064 61.7644 81.9644 62.1589 82.4803C62.5568 82.9962 62.7608 83.7683 62.7709 84.7968V86.0714ZM61.5418 84.6956C61.5418 84.0044 61.4474 83.4986 61.2586 83.1783C61.0697 82.8546 60.7696 82.6927 60.3583 82.6927C59.957 82.6927 59.662 82.8461 59.4731 83.153C59.2843 83.4564 59.1848 83.9319 59.1747 84.5793V86.2484C59.1747 86.9363 59.2708 87.4488 59.463 87.786C59.6552 88.1232 59.957 88.2918 60.3684 88.2918C60.7629 88.2918 61.0546 88.1367 61.2434 87.8265C61.4322 87.5129 61.5317 87.024 61.5418 86.3597V84.6956ZM68.6583 86.0714C68.6583 87.1302 68.4593 87.9293 68.0615 88.4688C67.6669 89.005 67.0651 89.273 66.2558 89.273C65.46 89.273 64.8598 89.0117 64.4552 88.4891C64.0539 87.963 63.8482 87.1858 63.8381 86.1574V84.8828C63.8381 83.824 64.0354 83.0299 64.4299 82.5005C64.8278 81.9711 65.433 81.7064 66.2457 81.7064C67.0516 81.7064 67.6518 81.9644 68.0463 82.4803C68.4442 82.9962 68.6482 83.7683 68.6583 84.7968V86.0714ZM67.4292 84.6956C67.4292 84.0044 67.3348 83.4986 67.146 83.1783C66.9571 82.8546 66.657 82.6927 66.2457 82.6927C65.8444 82.6927 65.5494 82.8461 65.3605 83.153C65.1717 83.4564 65.0722 83.9319 65.0621 84.5793V86.2484C65.0621 86.9363 65.1582 87.4488 65.3504 87.786C65.5426 88.1232 65.8444 88.2918 66.2558 88.2918C66.6503 88.2918 66.942 88.1367 67.1308 87.8265C67.3196 87.5129 67.4191 87.024 67.4292 86.3597V84.6956Z" fill="#1B2125"/>
<g clip-path="url(#clip1)">
<rect width="69.9205" height="30.0399" transform="translate(148.903 65.1875)" fill="white"/>
<rect width="69.9205" height="30.0399" transform="translate(148.903 65.1875)" fill="#5583FF"/>
<path d="M171.174 80.2076C171.174 83.0681 168.855 85.3869 165.995 85.3869C163.134 85.3869 160.815 83.0681 160.815 80.2076C160.815 77.3472 163.134 75.0283 165.995 75.0283C168.855 75.0283 171.174 77.3472 171.174 80.2076Z" fill="white"/>
<path fill-rule="evenodd" clip-rule="evenodd" d="M160.815 80.2076C160.815 77.3518 163.139 75.0283 165.995 75.0283C168.851 75.0283 171.174 77.3518 171.174 80.2076C171.174 83.0635 168.851 85.3869 165.995 85.3869C163.139 85.3869 160.815 83.0635 160.815 80.2076ZM167.826 82.132C167.902 82.2997 167.971 82.4701 168.039 82.6405C168.101 82.794 168.06 82.9179 167.904 82.9915C167.743 83.0676 167.574 83.1296 167.404 83.1774C166.751 83.3619 166.098 83.3684 165.449 83.1528C164.665 82.8921 164.144 82.3449 163.833 81.5757C163.789 81.467 163.757 81.3534 163.724 81.2395C163.712 81.1979 163.7 81.1564 163.688 81.115H163.073C162.97 81.115 162.887 81.0298 162.887 80.924V80.4993C162.887 80.3935 162.97 80.3083 163.073 80.3083H163.583V79.9625H163.073C162.97 79.9625 162.887 79.8773 162.887 79.7714V79.3468C162.887 79.241 162.97 79.1558 163.073 79.1558H163.721L163.742 79.09C163.916 78.5208 164.215 78.0369 164.677 77.6703C165.044 77.3787 165.468 77.2186 165.923 77.1438C166.568 77.0379 167.194 77.1283 167.801 77.3709C167.84 77.3864 167.878 77.4045 167.914 77.4264C168.06 77.5142 168.098 77.6265 168.034 77.7852C167.966 77.9543 167.898 78.122 167.824 78.2872C167.759 78.4305 167.672 78.4757 167.523 78.4408C167.433 78.42 167.344 78.3959 167.255 78.3719C167.141 78.3409 167.026 78.3099 166.911 78.286C166.478 78.1943 166.048 78.1904 165.628 78.3608C165.267 78.5079 165.046 78.7906 164.895 79.1429C164.893 79.1455 164.893 79.1507 164.893 79.1558H166.152C166.255 79.1558 166.338 79.241 166.338 79.3468V79.7714C166.338 79.8773 166.255 79.9625 166.152 79.9625H164.711C164.711 80.0378 164.711 80.1131 164.711 80.19C164.711 80.229 164.711 80.2684 164.711 80.3083H166.152C166.255 80.3083 166.338 80.3935 166.338 80.4993V80.924C166.338 81.0298 166.255 81.115 166.152 81.115H164.837C164.996 81.5796 165.254 81.9397 165.739 82.0958C166.125 82.221 166.518 82.2133 166.91 82.1294C167.025 82.1052 167.138 82.0744 167.252 82.0435C167.339 82.02 167.426 81.9964 167.514 81.9758C167.674 81.9384 167.759 81.9822 167.826 82.132Z" fill="#0148FF"/>
<path d="M180.37 80.9633H177.346V83.2293H180.881V84.251H176.066V76.8867H180.846V77.9185H177.346V79.9518H180.37V80.9633ZM187.31 76.8867V81.808C187.31 82.5903 187.058 83.2107 186.556 83.6693C186.057 84.1245 185.391 84.3521 184.558 84.3521C183.715 84.3521 183.046 84.1279 182.55 83.6794C182.055 83.2276 181.807 82.6021 181.807 81.803V76.8867H183.081V81.8131C183.081 82.3054 183.206 82.6813 183.456 82.941C183.705 83.2006 184.073 83.3304 184.558 83.3304C185.543 83.3304 186.035 82.8112 186.035 81.7726V76.8867H187.31ZM191.386 81.4135H189.96V84.251H188.68V76.8867H191.27C192.12 76.8867 192.776 77.0772 193.238 77.4582C193.699 77.8392 193.93 78.3906 193.93 79.1121C193.93 79.6044 193.811 80.0175 193.571 80.3513C193.335 80.6818 193.005 80.9364 192.58 81.1151L194.234 84.1852V84.251H192.863L191.386 81.4135ZM189.96 80.3867H191.275C191.707 80.3867 192.044 80.2788 192.287 80.063C192.529 79.8439 192.651 79.5454 192.651 79.1678C192.651 78.7733 192.538 78.4681 192.312 78.2523C192.089 78.0365 191.756 77.9252 191.31 77.9185H189.96V80.3867Z" fill="white"/>
<path d="M207.063 78.8057L204.84 81.0291L202.616 78.8057L201.884 79.538L204.84 82.4938L207.795 79.538L207.063 78.8057Z" fill="white" fill-opacity="0.4"/>
</g>
</g>
<rect x="56.7119" y="95.2275" width="1.03586" height="8.28687" fill="#1A88EE"/>
<g clip-path="url(#clip2)">
<path fill-rule="evenodd" clip-rule="evenodd" d="M61.2603 105.181C63.4821 107.403 63.4821 111.02 61.2603 113.242C59.0378 115.465 55.4217 115.465 53.1986 113.242C50.9768 111.02 50.9768 107.403 53.1986 105.181C55.4217 102.959 59.0378 102.959 61.2603 105.181ZM60.4586 105.988C62.237 107.767 62.237 110.662 60.4586 112.44C58.6797 114.219 55.7854 114.219 54.006 112.44C52.2276 110.662 52.2276 107.767 54.006 105.988C55.7854 104.21 58.6797 104.21 60.4586 105.988Z" fill="#1A88EE"/>
<path d="M54.7217 109.894H59.7352V108.526H54.7217V109.894Z" fill="#353535"/>
</g>
<path d="M70.9224 112.068H67.4562V111.477L69.1734 109.604C69.4212 109.328 69.5971 109.098 69.7009 108.914C69.8071 108.727 69.8603 108.541 69.8603 108.354C69.8603 108.109 69.7906 107.911 69.6514 107.76C69.5145 107.608 69.3292 107.533 69.0955 107.533C68.817 107.533 68.601 107.618 68.4476 107.788C68.2942 107.958 68.2174 108.19 68.2174 108.485H67.3571C67.3571 108.171 67.4279 107.889 67.5695 107.639C67.7135 107.387 67.9177 107.191 68.182 107.051C68.4488 106.912 68.7556 106.843 69.1026 106.843C69.603 106.843 69.9972 106.969 70.2851 107.221C70.5754 107.472 70.7206 107.819 70.7206 108.262C70.7206 108.52 70.6474 108.79 70.5011 109.073C70.3571 109.354 70.1199 109.674 69.7894 110.033L68.529 111.381H70.9224V112.068ZM72.1687 111.162C72.3292 111.162 72.4531 111.208 72.5404 111.3C72.6278 111.39 72.6714 111.503 72.6714 111.64C72.6714 111.774 72.6278 111.887 72.5404 111.976C72.4531 112.064 72.3292 112.107 72.1687 112.107C72.0153 112.107 71.8937 112.064 71.804 111.976C71.7143 111.889 71.6695 111.777 71.6695 111.64C71.6695 111.503 71.7131 111.39 71.8005 111.3C71.8878 111.208 72.0105 111.162 72.1687 111.162ZM76.5129 110.231H77.1537V110.921H76.5129V112.068H75.6526V110.921H73.4256L73.4008 110.397L75.6242 106.913H76.5129V110.231ZM74.3036 110.231H75.6526V108.078L75.5888 108.191L74.3036 110.231ZM80.1632 109.912C79.8752 110.217 79.5389 110.369 79.1542 110.369C78.701 110.369 78.3398 110.211 78.0707 109.894C77.8017 109.576 77.6671 109.158 77.6671 108.641C77.6671 108.301 77.7356 107.993 77.8725 107.717C78.0094 107.441 78.2041 107.226 78.4567 107.073C78.7092 106.919 79.0019 106.843 79.3347 106.843C79.854 106.843 80.2659 107.036 80.5704 107.423C80.8748 107.81 81.0271 108.328 81.0271 108.977V109.218C81.0271 110.148 80.817 110.857 80.3969 111.346C79.9767 111.835 79.3501 112.083 78.5169 112.09H78.4142V111.378H78.5381C79.0456 111.371 79.435 111.249 79.7065 111.013C79.9779 110.775 80.1302 110.408 80.1632 109.912ZM79.3347 109.696C79.507 109.696 79.6687 109.647 79.8198 109.548C79.9708 109.448 80.0877 109.311 80.1703 109.137V108.8C80.1703 108.42 80.0924 108.115 79.9366 107.883C79.7808 107.652 79.579 107.536 79.3312 107.536C79.0833 107.536 78.8851 107.639 78.7364 107.845C78.59 108.047 78.5169 108.305 78.5169 108.616C78.5169 108.94 78.5912 109.201 78.7399 109.399C78.8886 109.597 79.0869 109.696 79.3347 109.696ZM86.8017 109.767H84.6845V111.353H87.1593V112.068H83.7887V106.913H87.1345V107.636H84.6845V109.059H86.8017V109.767ZM91.6593 106.913V110.358C91.6593 110.906 91.4835 111.34 91.1318 111.661C90.7824 111.98 90.3163 112.139 89.7333 112.139C89.1432 112.139 88.6746 111.982 88.3277 111.668C87.9807 111.352 87.8072 110.914 87.8072 110.355V106.913H88.6994V110.362C88.6994 110.706 88.7868 110.97 88.9614 111.151C89.1361 111.333 89.3934 111.424 89.7333 111.424C90.4225 111.424 90.7671 111.06 90.7671 110.333V106.913H91.6593ZM94.513 110.082H93.5146V112.068H92.6188V106.913H94.4315C95.0264 106.913 95.4854 107.047 95.8088 107.313C96.1322 107.58 96.2939 107.966 96.2939 108.471C96.2939 108.816 96.2101 109.105 96.0425 109.339C95.8773 109.57 95.646 109.748 95.3485 109.873L96.5063 112.022V112.068H95.5468L94.513 110.082ZM93.5146 109.363H94.4351C94.7372 109.363 94.9733 109.288 95.1432 109.137C95.3131 108.983 95.3981 108.774 95.3981 108.51C95.3981 108.234 95.319 108.02 95.1609 107.869C95.0051 107.718 94.7714 107.64 94.4599 107.636H93.5146V109.363Z" fill="#353535"/>
<path d="M148.214 108.954H146.205V111.068H145.574V106.282H148.54V106.801H146.205V108.438H148.214V108.954ZM150.604 111.134C150.122 111.134 149.73 110.976 149.427 110.661C149.125 110.343 148.974 109.919 148.974 109.388V109.277C148.974 108.924 149.04 108.609 149.174 108.333C149.31 108.055 149.499 107.838 149.74 107.682C149.983 107.524 150.246 107.445 150.529 107.445C150.991 107.445 151.351 107.598 151.607 107.902C151.863 108.207 151.992 108.643 151.992 109.211V109.464H149.582C149.591 109.815 149.692 110.099 149.888 110.315C150.085 110.53 150.335 110.638 150.637 110.638C150.852 110.638 151.034 110.594 151.183 110.506C151.332 110.419 151.462 110.302 151.574 110.158L151.946 110.447C151.648 110.905 151.2 111.134 150.604 111.134ZM150.529 107.945C150.283 107.945 150.077 108.035 149.911 108.215C149.744 108.392 149.641 108.642 149.602 108.964H151.383V108.918C151.366 108.609 151.283 108.37 151.134 108.202C150.985 108.031 150.783 107.945 150.529 107.945ZM154.175 111.134C153.692 111.134 153.3 110.976 152.998 110.661C152.695 110.343 152.544 109.919 152.544 109.388V109.277C152.544 108.924 152.611 108.609 152.745 108.333C152.88 108.055 153.069 107.838 153.31 107.682C153.553 107.524 153.816 107.445 154.099 107.445C154.561 107.445 154.921 107.598 155.177 107.902C155.434 108.207 155.562 108.643 155.562 109.211V109.464H153.152C153.161 109.815 153.263 110.099 153.458 110.315C153.655 110.53 153.905 110.638 154.208 110.638C154.422 110.638 154.604 110.594 154.753 110.506C154.902 110.419 155.033 110.302 155.144 110.158L155.516 110.447C155.218 110.905 154.771 111.134 154.175 111.134ZM154.099 107.945C153.854 107.945 153.648 108.035 153.481 108.215C153.314 108.392 153.211 108.642 153.172 108.964H154.954V108.918C154.936 108.609 154.853 108.37 154.704 108.202C154.555 108.031 154.353 107.945 154.099 107.945ZM158.34 110.125C158.34 109.96 158.278 109.833 158.153 109.743C158.03 109.651 157.814 109.572 157.505 109.507C157.198 109.441 156.954 109.362 156.772 109.27C156.592 109.178 156.458 109.068 156.371 108.941C156.285 108.814 156.243 108.663 156.243 108.488C156.243 108.196 156.365 107.949 156.611 107.748C156.858 107.546 157.174 107.445 157.558 107.445C157.961 107.445 158.287 107.549 158.537 107.758C158.789 107.966 158.915 108.232 158.915 108.557H158.304C158.304 108.39 158.233 108.246 158.09 108.126C157.95 108.005 157.772 107.945 157.558 107.945C157.336 107.945 157.163 107.993 157.038 108.09C156.913 108.186 156.851 108.312 156.851 108.468C156.851 108.615 156.909 108.725 157.025 108.8C157.141 108.874 157.35 108.946 157.653 109.014C157.958 109.082 158.204 109.163 158.393 109.257C158.581 109.351 158.72 109.465 158.81 109.599C158.902 109.73 158.948 109.891 158.948 110.082C158.948 110.4 158.821 110.655 158.567 110.848C158.313 111.039 157.983 111.134 157.577 111.134C157.292 111.134 157.04 111.084 156.821 110.983C156.602 110.882 156.43 110.742 156.305 110.562C156.182 110.38 156.121 110.184 156.121 109.974H156.729C156.74 110.177 156.821 110.34 156.972 110.46C157.126 110.579 157.327 110.638 157.577 110.638C157.807 110.638 157.992 110.592 158.13 110.5C158.27 110.405 158.34 110.28 158.34 110.125ZM162.072 111.068H161.463V107.511H162.072V111.068ZM161.414 106.568C161.414 106.469 161.444 106.386 161.503 106.318C161.564 106.25 161.654 106.216 161.772 106.216C161.891 106.216 161.981 106.25 162.042 106.318C162.103 106.386 162.134 106.469 162.134 106.568C162.134 106.666 162.103 106.748 162.042 106.814C161.981 106.88 161.891 106.913 161.772 106.913C161.654 106.913 161.564 106.88 161.503 106.814C161.444 106.748 161.414 106.666 161.414 106.568ZM163.623 107.511L163.643 107.958C163.915 107.616 164.27 107.445 164.708 107.445C165.46 107.445 165.839 107.869 165.846 108.718V111.068H165.238V108.714C165.235 108.458 165.176 108.268 165.06 108.146C164.946 108.023 164.767 107.962 164.524 107.962C164.327 107.962 164.154 108.014 164.005 108.119C163.856 108.225 163.739 108.363 163.656 108.534V111.068H163.048V107.511H163.623ZM168.19 110.638C168.407 110.638 168.596 110.572 168.759 110.44C168.921 110.309 169.011 110.145 169.028 109.947H169.604C169.593 110.151 169.522 110.345 169.393 110.529C169.264 110.713 169.091 110.86 168.874 110.97C168.659 111.079 168.431 111.134 168.19 111.134C167.705 111.134 167.32 110.973 167.033 110.651C166.748 110.326 166.605 109.884 166.605 109.323V109.221C166.605 108.874 166.669 108.566 166.796 108.297C166.923 108.027 167.105 107.818 167.342 107.669C167.581 107.52 167.862 107.445 168.187 107.445C168.585 107.445 168.916 107.565 169.179 107.804C169.445 108.043 169.586 108.353 169.604 108.734H169.028C169.011 108.504 168.923 108.316 168.765 108.169C168.61 108.02 168.417 107.945 168.187 107.945C167.877 107.945 167.638 108.057 167.467 108.28C167.298 108.502 167.213 108.823 167.213 109.244V109.359C167.213 109.769 167.298 110.084 167.467 110.306C167.635 110.527 167.876 110.638 168.19 110.638ZM170.948 111.068H170.34V106.019H170.948V111.068ZM174.121 110.717C173.884 110.995 173.537 111.134 173.079 111.134C172.699 111.134 172.41 111.025 172.211 110.805C172.013 110.584 171.914 110.257 171.911 109.826V107.511H172.52V109.809C172.52 110.348 172.739 110.618 173.177 110.618C173.642 110.618 173.951 110.445 174.104 110.099V107.511H174.712V111.068H174.134L174.121 110.717ZM177.116 111.134C176.634 111.134 176.241 110.976 175.939 110.661C175.636 110.343 175.485 109.919 175.485 109.388V109.277C175.485 108.924 175.552 108.609 175.686 108.333C175.822 108.055 176.01 107.838 176.251 107.682C176.494 107.524 176.757 107.445 177.04 107.445C177.503 107.445 177.862 107.598 178.118 107.902C178.375 108.207 178.503 108.643 178.503 109.211V109.464H176.093C176.102 109.815 176.204 110.099 176.399 110.315C176.596 110.53 176.846 110.638 177.149 110.638C177.363 110.638 177.545 110.594 177.694 110.506C177.843 110.419 177.974 110.302 178.086 110.158L178.457 110.447C178.159 110.905 177.712 111.134 177.116 111.134ZM177.04 107.945C176.795 107.945 176.589 108.035 176.422 108.215C176.255 108.392 176.152 108.642 176.113 108.964H177.895V108.918C177.877 108.609 177.794 108.37 177.645 108.202C177.496 108.031 177.294 107.945 177.04 107.945ZM179.062 109.26C179.062 108.714 179.191 108.276 179.45 107.945C179.709 107.612 180.047 107.445 180.466 107.445C180.882 107.445 181.212 107.588 181.455 107.873V106.019H182.064V111.068H181.505L181.475 110.687C181.232 110.985 180.893 111.134 180.459 111.134C180.047 111.134 179.711 110.965 179.45 110.628C179.191 110.29 179.062 109.85 179.062 109.306V109.26ZM179.67 109.329C179.67 109.732 179.754 110.048 179.92 110.276C180.087 110.504 180.317 110.618 180.611 110.618C180.996 110.618 181.278 110.445 181.455 110.099V108.465C181.274 108.129 180.994 107.962 180.617 107.962C180.319 107.962 180.087 108.077 179.92 108.307C179.754 108.537 179.67 108.878 179.67 109.329ZM184.487 111.134C184.004 111.134 183.612 110.976 183.31 110.661C183.007 110.343 182.856 109.919 182.856 109.388V109.277C182.856 108.924 182.923 108.609 183.057 108.333C183.192 108.055 183.381 107.838 183.622 107.682C183.865 107.524 184.128 107.445 184.411 107.445C184.873 107.445 185.233 107.598 185.489 107.902C185.746 108.207 185.874 108.643 185.874 109.211V109.464H183.464C183.473 109.815 183.575 110.099 183.77 110.315C183.967 110.53 184.217 110.638 184.52 110.638C184.734 110.638 184.916 110.594 185.065 110.506C185.214 110.419 185.345 110.302 185.456 110.158L185.828 110.447C185.53 110.905 185.083 111.134 184.487 111.134ZM184.411 107.945C184.166 107.945 183.96 108.035 183.793 108.215C183.626 108.392 183.523 108.642 183.484 108.964H185.266V108.918C185.248 108.609 185.165 108.37 185.016 108.202C184.867 108.031 184.665 107.945 184.411 107.945ZM186.433 109.26C186.433 108.714 186.562 108.276 186.821 107.945C187.079 107.612 187.418 107.445 187.837 107.445C188.253 107.445 188.583 107.588 188.826 107.873V106.019H189.435V111.068H188.876L188.846 110.687C188.603 110.985 188.264 111.134 187.83 111.134C187.418 111.134 187.082 110.965 186.821 110.628C186.562 110.29 186.433 109.85 186.433 109.306V109.26ZM187.041 109.329C187.041 109.732 187.124 110.048 187.291 110.276C187.458 110.504 187.688 110.618 187.981 110.618C188.367 110.618 188.649 110.445 188.826 110.099V108.465C188.644 108.129 188.365 107.962 187.988 107.962C187.69 107.962 187.458 108.077 187.291 108.307C187.124 108.537 187.041 108.878 187.041 109.329Z" fill="#797979"/>
<g clip-path="url(#clip3)">
<path fill-rule="evenodd" clip-rule="evenodd" d="M192.734 109.471C192.734 107.329 194.477 105.587 196.619 105.587C198.761 105.587 200.503 107.329 200.503 109.471C200.503 111.613 198.761 113.356 196.619 113.356C194.477 113.356 192.734 111.613 192.734 109.471ZM193.511 109.471C193.511 111.185 194.905 112.579 196.619 112.579C198.332 112.579 199.726 111.185 199.726 109.471C199.726 107.758 198.332 106.364 196.619 106.364C194.905 106.364 193.511 107.758 193.511 109.471ZM197.007 111.414V109.083H196.23V111.414H197.007ZM197.007 108.306V107.529H196.23V108.306H197.007Z" fill="#ABD5FD"/>
</g>
<rect x="56.7119" y="114.909" width="1.03586" height="8.28687" fill="#1A88EE"/>
<g clip-path="url(#clip4)">
<path fill-rule="evenodd" clip-rule="evenodd" d="M61.2603 124.862C63.4821 127.084 63.4821 130.701 61.2603 132.923C59.0378 135.145 55.4217 135.145 53.1986 132.923C50.9768 130.701 50.9768 127.084 53.1986 124.862C55.4217 122.64 59.0378 122.64 61.2603 124.862ZM60.4586 125.669C62.237 127.448 62.237 130.342 60.4586 132.121C58.6797 133.9 55.7854 133.9 54.006 132.121C52.2276 130.342 52.2276 127.448 54.006 125.669C55.7854 123.891 58.6797 123.891 60.4586 125.669Z" fill="#1A88EE"/>
<path d="M59.7352 128.488H54.7217V127.753H59.7352V128.488ZM59.7352 130.032H54.7217V129.3H59.7352V130.032Z" fill="#353535"/>
</g>
<path d="M69.7859 131.749H68.9291V127.61L67.6651 128.042V127.316L69.6761 126.576H69.7859V131.749ZM74.8241 127.954C74.8241 128.206 74.7592 128.432 74.6293 128.63C74.4995 128.826 74.3225 128.98 74.0983 129.094C74.3674 129.219 74.5739 129.39 74.7179 129.607C74.8642 129.824 74.9374 130.07 74.9374 130.343C74.9374 130.797 74.784 131.157 74.4771 131.423C74.1703 131.688 73.7619 131.82 73.2521 131.82C72.7399 131.82 72.3292 131.686 72.02 131.42C71.7131 131.153 71.5597 130.794 71.5597 130.343C71.5597 130.067 71.6329 129.819 71.7792 129.6C71.9256 129.38 72.1309 129.212 72.3953 129.094C72.1734 128.98 71.9976 128.826 71.8677 128.63C71.7403 128.432 71.6765 128.206 71.6765 127.954C71.6765 127.515 71.8182 127.166 72.1014 126.909C72.3847 126.652 72.767 126.523 73.2485 126.523C73.7324 126.523 74.116 126.652 74.3992 126.909C74.6825 127.166 74.8241 127.515 74.8241 127.954ZM74.077 130.301C74.077 130.046 74.0003 129.841 73.8469 129.685C73.6958 129.527 73.4952 129.448 73.245 129.448C72.9948 129.448 72.7942 129.526 72.6431 129.681C72.4944 129.837 72.4201 130.044 72.4201 130.301C72.4201 130.554 72.4932 130.755 72.6396 130.906C72.7883 131.057 72.9924 131.133 73.2521 131.133C73.5117 131.133 73.7135 131.06 73.8575 130.913C74.0039 130.767 74.077 130.563 74.077 130.301ZM73.9673 127.985C73.9673 127.761 73.9024 127.577 73.7725 127.433C73.6427 127.287 73.4681 127.214 73.2485 127.214C73.029 127.214 72.8555 127.283 72.7281 127.422C72.6006 127.559 72.5369 127.747 72.5369 127.985C72.5369 128.221 72.6006 128.409 72.7281 128.548C72.8579 128.688 73.0326 128.757 73.2521 128.757C73.4716 128.757 73.6451 128.688 73.7725 128.548C73.9024 128.409 73.9673 128.221 73.9673 127.985ZM79.0586 129.579C79.0586 130.32 78.9193 130.879 78.6408 131.257C78.3646 131.632 77.9433 131.82 77.3768 131.82C76.8198 131.82 76.3996 131.637 76.1164 131.271C75.8355 130.903 75.6915 130.359 75.6844 129.639V128.747C75.6844 128.006 75.8225 127.45 76.0987 127.079C76.3772 126.708 76.8009 126.523 77.3697 126.523C77.9338 126.523 78.354 126.704 78.6302 127.065C78.9087 127.426 79.0515 127.967 79.0586 128.686V129.579ZM78.1982 128.616C78.1982 128.132 78.1321 127.778 77.9999 127.553C77.8678 127.327 77.6577 127.214 77.3697 127.214C77.0888 127.214 76.8823 127.321 76.7501 127.536C76.6179 127.748 76.5483 128.081 76.5412 128.534V129.703C76.5412 130.184 76.6085 130.543 76.743 130.779C76.8776 131.015 77.0888 131.133 77.3768 131.133C77.653 131.133 77.8571 131.024 77.9893 130.807C78.1215 130.588 78.1911 130.245 78.1982 129.78V128.616ZM84.7765 129.448H82.6593V131.034H85.1341V131.749H81.7635V126.594H85.1093V127.316H82.6593V128.74H84.7765V129.448ZM89.6341 126.594V130.039C89.6341 130.587 89.4583 131.021 89.1066 131.342C88.7573 131.661 88.2911 131.82 87.7081 131.82C87.118 131.82 86.6495 131.663 86.3025 131.349C85.9555 131.033 85.782 130.595 85.782 130.035V126.594H86.6742V130.042C86.6742 130.387 86.7616 130.65 86.9362 130.832C87.1109 131.014 87.3682 131.105 87.7081 131.105C88.3973 131.105 88.7419 130.741 88.7419 130.014V126.594H89.6341ZM92.4878 129.763H91.4894V131.749H90.5936V126.594H92.4064C93.0012 126.594 93.4603 126.727 93.7836 126.994C94.107 127.261 94.2687 127.647 94.2687 128.152C94.2687 128.496 94.1849 128.786 94.0173 129.019C93.8521 129.251 93.6208 129.429 93.3234 129.554L94.4811 131.703V131.749H93.5216L92.4878 129.763ZM91.4894 129.044H92.4099C92.712 129.044 92.9481 128.969 93.118 128.817C93.288 128.664 93.3729 128.455 93.3729 128.191C93.3729 127.915 93.2939 127.701 93.1357 127.55C92.9799 127.399 92.7463 127.321 92.4347 127.316H91.4894V129.044Z" fill="#353535"/>
<path d="M149.095 129.23C149.036 129.736 148.849 130.128 148.533 130.404C148.22 130.678 147.802 130.815 147.28 130.815C146.715 130.815 146.261 130.612 145.919 130.207C145.58 129.801 145.41 129.259 145.41 128.579V128.119C145.41 127.674 145.489 127.283 145.646 126.945C145.806 126.608 146.032 126.349 146.324 126.169C146.615 125.987 146.953 125.896 147.336 125.896C147.845 125.896 148.252 126.039 148.559 126.324C148.866 126.607 149.045 126.999 149.095 127.501H148.461C148.406 127.119 148.286 126.843 148.102 126.672C147.92 126.501 147.665 126.416 147.336 126.416C146.933 126.416 146.616 126.565 146.386 126.863C146.158 127.161 146.044 127.585 146.044 128.135V128.599C146.044 129.118 146.153 129.532 146.37 129.838C146.587 130.145 146.89 130.299 147.28 130.299C147.631 130.299 147.9 130.22 148.086 130.062C148.274 129.902 148.399 129.625 148.461 129.23H149.095ZM149.703 128.938C149.703 128.589 149.771 128.276 149.907 127.997C150.045 127.719 150.236 127.504 150.479 127.353C150.725 127.202 151.004 127.126 151.318 127.126C151.802 127.126 152.193 127.294 152.491 127.629C152.792 127.964 152.942 128.41 152.942 128.967V129.01C152.942 129.356 152.875 129.667 152.741 129.944C152.61 130.218 152.42 130.431 152.172 130.585C151.927 130.738 151.644 130.815 151.324 130.815C150.842 130.815 150.451 130.647 150.151 130.312C149.852 129.976 149.703 129.533 149.703 128.98V128.938ZM150.315 129.01C150.315 129.404 150.406 129.721 150.588 129.96C150.772 130.199 151.017 130.318 151.324 130.318C151.633 130.318 151.879 130.198 152.061 129.957C152.243 129.713 152.334 129.374 152.334 128.938C152.334 128.547 152.24 128.232 152.054 127.991C151.87 127.747 151.625 127.626 151.318 127.626C151.017 127.626 150.775 127.745 150.591 127.984C150.407 128.223 150.315 128.565 150.315 129.01ZM154.28 127.192L154.3 127.639C154.571 127.297 154.926 127.126 155.365 127.126C156.117 127.126 156.496 127.55 156.502 128.398V130.749H155.894V128.395C155.892 128.139 155.833 127.949 155.717 127.826C155.603 127.704 155.424 127.642 155.181 127.642C154.983 127.642 154.81 127.695 154.661 127.8C154.512 127.905 154.396 128.043 154.313 128.214V130.749H153.704V127.192H154.28ZM158.593 129.924L159.474 127.192H160.096L158.82 130.749H158.357L157.068 127.192H157.689L158.593 129.924ZM162.111 130.815C161.629 130.815 161.236 130.657 160.934 130.341C160.632 130.024 160.48 129.599 160.48 129.069V128.957C160.48 128.604 160.547 128.29 160.681 128.014C160.817 127.735 161.005 127.518 161.246 127.363C161.49 127.205 161.753 127.126 162.035 127.126C162.498 127.126 162.857 127.278 163.114 127.583C163.37 127.888 163.498 128.324 163.498 128.892V129.145H161.089C161.097 129.495 161.199 129.779 161.394 129.996C161.592 130.211 161.841 130.318 162.144 130.318C162.359 130.318 162.541 130.275 162.69 130.187C162.839 130.099 162.969 129.983 163.081 129.838L163.452 130.128C163.154 130.586 162.707 130.815 162.111 130.815ZM162.035 127.626C161.79 127.626 161.584 127.716 161.417 127.895C161.251 128.073 161.148 128.323 161.108 128.645H162.89V128.599C162.873 128.29 162.789 128.051 162.64 127.882C162.491 127.711 162.29 127.626 162.035 127.626ZM165.925 127.738C165.833 127.722 165.733 127.715 165.625 127.715C165.227 127.715 164.956 127.884 164.813 128.224V130.749H164.205V127.192H164.797L164.807 127.603C165.006 127.285 165.289 127.126 165.655 127.126C165.773 127.126 165.863 127.141 165.925 127.172V127.738ZM167.476 126.33V127.192H168.141V127.662H167.476V129.868C167.476 130.01 167.506 130.118 167.565 130.19C167.624 130.26 167.725 130.295 167.868 130.295C167.938 130.295 168.034 130.282 168.157 130.256V130.749C167.997 130.793 167.841 130.815 167.69 130.815C167.418 130.815 167.213 130.733 167.075 130.568C166.937 130.404 166.868 130.17 166.868 129.868V127.662H166.221V127.192H166.868V126.33H167.476ZM170.33 130.815C169.848 130.815 169.456 130.657 169.153 130.341C168.851 130.024 168.699 129.599 168.699 129.069V128.957C168.699 128.604 168.766 128.29 168.9 128.014C169.036 127.735 169.224 127.518 169.465 127.363C169.709 127.205 169.972 127.126 170.254 127.126C170.717 127.126 171.076 127.278 171.333 127.583C171.589 127.888 171.717 128.324 171.717 128.892V129.145H169.308C169.316 129.495 169.418 129.779 169.613 129.996C169.811 130.211 170.06 130.318 170.363 130.318C170.578 130.318 170.76 130.275 170.909 130.187C171.058 130.099 171.188 129.983 171.3 129.838L171.671 130.128C171.373 130.586 170.926 130.815 170.33 130.815ZM170.254 127.626C170.009 127.626 169.803 127.716 169.636 127.895C169.47 128.073 169.367 128.323 169.327 128.645H171.109V128.599C171.092 128.29 171.008 128.051 170.859 127.882C170.71 127.711 170.509 127.626 170.254 127.626ZM172.276 128.941C172.276 128.395 172.406 127.957 172.664 127.626C172.923 127.293 173.262 127.126 173.68 127.126C174.097 127.126 174.426 127.269 174.67 127.553V125.699H175.278V130.749H174.719L174.689 130.368C174.446 130.666 174.108 130.815 173.674 130.815C173.262 130.815 172.925 130.646 172.664 130.308C172.406 129.971 172.276 129.53 172.276 128.987V128.941ZM172.885 129.01C172.885 129.413 172.968 129.729 173.134 129.957C173.301 130.185 173.531 130.299 173.825 130.299C174.211 130.299 174.492 130.125 174.67 129.779V128.145C174.488 127.81 174.208 127.642 173.831 127.642C173.533 127.642 173.301 127.757 173.134 127.987C172.968 128.218 172.885 128.558 172.885 129.01ZM180.091 130.749C180.056 130.679 180.028 130.554 180.006 130.374C179.723 130.668 179.385 130.815 178.993 130.815C178.642 130.815 178.354 130.716 178.128 130.519C177.905 130.319 177.793 130.067 177.793 129.763C177.793 129.392 177.933 129.105 178.214 128.901C178.497 128.695 178.893 128.592 179.404 128.592H179.996V128.313C179.996 128.1 179.932 127.932 179.805 127.807C179.678 127.679 179.491 127.616 179.243 127.616C179.026 127.616 178.844 127.671 178.697 127.78C178.55 127.89 178.477 128.022 178.477 128.178H177.865C177.865 128.001 177.928 127.83 178.053 127.665C178.18 127.499 178.351 127.367 178.566 127.271C178.783 127.174 179.02 127.126 179.279 127.126C179.689 127.126 180.01 127.229 180.242 127.435C180.475 127.639 180.595 127.921 180.604 128.28V129.917C180.604 130.244 180.646 130.504 180.729 130.696V130.749H180.091ZM179.082 130.285C179.272 130.285 179.453 130.236 179.624 130.138C179.795 130.039 179.919 129.911 179.996 129.753V129.023H179.519C178.774 129.023 178.401 129.241 178.401 129.677C178.401 129.868 178.465 130.017 178.592 130.124C178.719 130.232 178.882 130.285 179.082 130.285ZM182.129 127.192L182.146 127.586C182.407 127.279 182.758 127.126 183.201 127.126C183.699 127.126 184.037 127.317 184.217 127.698C184.335 127.527 184.489 127.389 184.677 127.284C184.868 127.179 185.093 127.126 185.351 127.126C186.132 127.126 186.528 127.539 186.541 128.365V130.749H185.933V128.402C185.933 128.147 185.875 127.958 185.759 127.833C185.643 127.706 185.448 127.642 185.174 127.642C184.948 127.642 184.761 127.71 184.612 127.846C184.463 127.98 184.376 128.161 184.352 128.388V130.749H183.74V128.418C183.74 127.901 183.487 127.642 182.981 127.642C182.582 127.642 182.309 127.812 182.162 128.152V130.749H181.554V127.192H182.129ZM187.301 128.938C187.301 128.589 187.369 128.276 187.505 127.997C187.643 127.719 187.833 127.504 188.077 127.353C188.322 127.202 188.602 127.126 188.915 127.126C189.399 127.126 189.791 127.294 190.089 127.629C190.389 127.964 190.539 128.41 190.539 128.967V129.01C190.539 129.356 190.472 129.667 190.339 129.944C190.207 130.218 190.018 130.431 189.77 130.585C189.524 130.738 189.242 130.815 188.922 130.815C188.439 130.815 188.048 130.647 187.748 130.312C187.45 129.976 187.301 129.533 187.301 128.98V128.938ZM187.912 129.01C187.912 129.404 188.003 129.721 188.185 129.96C188.369 130.199 188.615 130.318 188.922 130.318C189.231 130.318 189.476 130.198 189.658 129.957C189.84 129.713 189.931 129.374 189.931 128.938C189.931 128.547 189.838 128.232 189.652 127.991C189.467 127.747 189.222 127.626 188.915 127.626C188.615 127.626 188.373 127.745 188.189 127.984C188.004 128.223 187.912 128.565 187.912 129.01ZM193.498 130.397C193.261 130.676 192.914 130.815 192.456 130.815C192.077 130.815 191.787 130.705 191.588 130.486C191.391 130.265 191.291 129.938 191.289 129.506V127.192H191.897V129.49C191.897 130.029 192.116 130.299 192.555 130.299C193.019 130.299 193.328 130.125 193.482 129.779V127.192H194.09V130.749H193.511L193.498 130.397ZM195.592 127.192L195.612 127.639C195.884 127.297 196.239 127.126 196.677 127.126C197.429 127.126 197.808 127.55 197.815 128.398V130.749H197.207V128.395C197.204 128.139 197.145 127.949 197.029 127.826C196.915 127.704 196.736 127.642 196.493 127.642C196.296 127.642 196.123 127.695 195.974 127.8C195.825 127.905 195.708 128.043 195.625 128.214V130.749H195.017V127.192H195.592ZM199.557 126.33V127.192H200.221V127.662H199.557V129.868C199.557 130.01 199.587 130.118 199.646 130.19C199.705 130.26 199.806 130.295 199.948 130.295C200.019 130.295 200.115 130.282 200.238 130.256V130.749C200.078 130.793 199.922 130.815 199.771 130.815C199.499 130.815 199.294 130.733 199.156 130.568C199.018 130.404 198.949 130.17 198.949 129.868V127.662H198.301V127.192H198.949V126.33H199.557Z" fill="#797979"/>
<rect x="56.7119" y="134.59" width="1.03586" height="8.28687" fill="#1A88EE"/>
<g clip-path="url(#clip5)">
<path fill-rule="evenodd" clip-rule="evenodd" d="M61.2603 144.543C63.4821 146.766 63.4821 150.382 61.2603 152.605C59.0378 154.827 55.4217 154.827 53.1986 152.605C50.9768 150.382 50.9768 146.766 53.1986 144.543C55.4217 142.322 59.0378 142.322 61.2603 144.543ZM60.4586 145.351C62.237 147.129 62.237 150.024 60.4586 151.803C58.6797 153.581 55.7854 153.581 54.006 151.803C52.2276 150.024 52.2276 147.129 54.006 145.351C55.7854 143.572 58.6797 143.572 60.4586 145.351Z" fill="#1A88EE"/>
<path d="M59.7534 149.043H54.7041V148.104H59.7534V149.043Z" fill="#353535"/>
<circle cx="57.254" cy="146.72" r="0.714946" fill="#353535"/>
<circle cx="57.253" cy="150.43" r="0.714946" fill="#353535"/>
</g>
<path d="M71.4747 148.648C71.4747 149.063 71.3626 149.403 71.1384 149.667C70.9142 149.929 70.6344 150.06 70.2993 150.06C70.1246 150.06 69.9629 150.027 69.8142 149.961C69.6679 149.895 69.5038 149.782 69.3221 149.621C69.1403 149.459 69.0093 149.358 68.9291 149.321C68.8512 149.28 68.7674 149.26 68.6777 149.26C68.5196 149.26 68.3945 149.322 68.3024 149.444C68.2127 149.567 68.1679 149.728 68.1679 149.926H67.4846C67.4846 149.522 67.592 149.192 67.8067 148.935C68.0215 148.675 68.3036 148.545 68.6529 148.545C68.8276 148.545 68.9928 148.581 69.1486 148.651C69.3067 148.72 69.4708 148.832 69.6407 148.988C69.813 149.143 69.9381 149.241 70.016 149.282C70.0963 149.322 70.1824 149.342 70.2745 149.342C70.4326 149.342 70.5613 149.276 70.6604 149.143C70.7595 149.011 70.8091 148.846 70.8091 148.648H71.4747ZM73.2733 148.46H73.7973C74.0617 148.458 74.2706 148.389 74.424 148.255C74.5798 148.12 74.6577 147.926 74.6577 147.671C74.6577 147.425 74.5928 147.235 74.4629 147.101C74.3355 146.964 74.1396 146.895 73.8752 146.895C73.6439 146.895 73.4539 146.963 73.3052 147.097C73.1565 147.229 73.0821 147.403 73.0821 147.618H72.2218C72.2218 147.353 72.2914 147.112 72.4307 146.895C72.5723 146.678 72.7682 146.509 73.0184 146.389C73.271 146.266 73.553 146.205 73.8646 146.205C74.3792 146.205 74.7828 146.335 75.0755 146.594C75.3705 146.852 75.518 147.21 75.518 147.671C75.518 147.902 75.4437 148.12 75.295 148.326C75.1486 148.529 74.9586 148.682 74.7249 148.786C75.0082 148.883 75.223 149.035 75.3693 149.243C75.518 149.45 75.5924 149.698 75.5924 149.986C75.5924 150.449 75.4331 150.817 75.1144 151.091C74.7981 151.365 74.3815 151.501 73.8646 151.501C73.3689 151.501 72.9629 151.369 72.6467 151.105C72.3304 150.841 72.1722 150.489 72.1722 150.05H73.0326C73.0326 150.276 73.1081 150.461 73.2592 150.602C73.4126 150.744 73.6179 150.815 73.8752 150.815C74.1419 150.815 74.352 150.744 74.5054 150.602C74.6589 150.461 74.7356 150.255 74.7356 149.986C74.7356 149.715 74.6553 149.506 74.4948 149.359C74.3343 149.213 74.0959 149.14 73.7796 149.14H73.2733V148.46ZM79.8658 151.431H76.3996V150.839L78.1168 148.966C78.3646 148.69 78.5405 148.46 78.6443 148.276C78.7505 148.09 78.8036 147.903 78.8036 147.717C78.8036 147.471 78.734 147.273 78.5947 147.122C78.4578 146.971 78.2726 146.895 78.0389 146.895C77.7604 146.895 77.5444 146.98 77.391 147.15C77.2375 147.32 77.1608 147.553 77.1608 147.848H76.3005C76.3005 147.534 76.3713 147.252 76.5129 147.001C76.6569 146.749 76.8611 146.553 77.1254 146.414C77.3921 146.274 77.699 146.205 78.046 146.205C78.5464 146.205 78.9405 146.331 79.2285 146.584C79.5188 146.834 79.664 147.181 79.664 147.625C79.664 147.882 79.5908 148.152 79.4445 148.435C79.3005 148.716 79.0633 149.036 78.7328 149.395L77.4724 150.744H79.8658V151.431ZM80.6978 152.592L80.234 152.316C80.3709 152.101 80.4641 151.913 80.5137 151.753C80.5656 151.595 80.5928 151.433 80.5951 151.268V150.599H81.3705L81.367 151.218C81.3646 151.468 81.3009 151.719 81.1758 151.969C81.0531 152.221 80.8937 152.429 80.6978 152.592ZM83.1089 148.46H83.6329C83.8973 148.458 84.1062 148.389 84.2596 148.255C84.4154 148.12 84.4933 147.926 84.4933 147.671C84.4933 147.425 84.4284 147.235 84.2985 147.101C84.1711 146.964 83.9752 146.895 83.7108 146.895C83.4795 146.895 83.2895 146.963 83.1408 147.097C82.9921 147.229 82.9177 147.403 82.9177 147.618H82.0574C82.0574 147.353 82.127 147.112 82.2663 146.895C82.4079 146.678 82.6038 146.509 82.854 146.389C83.1066 146.266 83.3886 146.205 83.7002 146.205C84.2148 146.205 84.6184 146.335 84.9111 146.594C85.2061 146.852 85.3536 147.21 85.3536 147.671C85.3536 147.902 85.2793 148.12 85.1306 148.326C84.9842 148.529 84.7942 148.682 84.5605 148.786C84.8438 148.883 85.0586 149.035 85.2049 149.243C85.3536 149.45 85.428 149.698 85.428 149.986C85.428 150.449 85.2687 150.817 84.95 151.091C84.6337 151.365 84.2171 151.501 83.7002 151.501C83.2045 151.501 82.7985 151.369 82.4823 151.105C82.166 150.841 82.0078 150.489 82.0078 150.05H82.8682C82.8682 150.276 82.9437 150.461 83.0948 150.602C83.2482 150.744 83.4535 150.815 83.7108 150.815C83.9775 150.815 84.1876 150.744 84.341 150.602C84.4945 150.461 84.5712 150.255 84.5712 149.986C84.5712 149.715 84.4909 149.506 84.3304 149.359C84.1699 149.213 83.9315 149.14 83.6152 149.14H83.1089V148.46ZM89.7014 151.431H86.2352V150.839L87.9524 148.966C88.2002 148.69 88.3761 148.46 88.4799 148.276C88.5861 148.09 88.6392 147.903 88.6392 147.717C88.6392 147.471 88.5696 147.273 88.4303 147.122C88.2934 146.971 88.1082 146.895 87.8745 146.895C87.596 146.895 87.38 146.98 87.2266 147.15C87.0731 147.32 86.9964 147.553 86.9964 147.848H86.1361C86.1361 147.534 86.2069 147.252 86.3485 147.001C86.4925 146.749 86.6967 146.553 86.961 146.414C87.2277 146.274 87.5346 146.205 87.8816 146.205C88.382 146.205 88.7761 146.331 89.0641 146.584C89.3544 146.834 89.4996 147.181 89.4996 147.625C89.4996 147.882 89.4264 148.152 89.2801 148.435C89.1361 148.716 88.8989 149.036 88.5684 149.395L87.308 150.744H89.7014V151.431ZM93.2667 149.593H93.9076V150.284H93.2667V151.431H92.4064V150.284H90.1794L90.1546 149.76L92.378 146.276H93.2667V149.593ZM91.0574 149.593H92.4064V147.44L92.3426 147.554L91.0574 149.593ZM96.4213 151.431V146.276H98.1881C98.7711 146.276 99.2148 146.392 99.5193 146.626C99.8238 146.86 99.976 147.208 99.976 147.671C99.976 147.907 99.9123 148.119 99.7848 148.308C99.6574 148.497 99.4709 148.643 99.2254 148.747C99.504 148.822 99.7187 148.965 99.8698 149.175C100.023 149.383 100.1 149.633 100.1 149.926C100.1 150.41 99.9442 150.782 99.6326 151.041C99.3234 151.301 98.8796 151.431 98.3014 151.431H96.4213ZM97.3171 149.105V150.715H98.312C98.5929 150.715 98.8124 150.646 98.9705 150.507C99.1287 150.367 99.2077 150.174 99.2077 149.926C99.2077 149.39 98.9339 149.116 98.3863 149.105H97.3171ZM97.3171 148.446H98.1951C98.4737 148.446 98.6908 148.383 98.8466 148.258C99.0047 148.131 99.0838 147.952 99.0838 147.72C99.0838 147.465 99.0106 147.281 98.8643 147.168C98.7203 147.055 98.4949 146.998 98.1881 146.998H97.3171V148.446ZM104.621 146.998H103.014V151.431H102.125V146.998H100.532V146.276H104.621V146.998ZM109.135 149.752C109.083 150.302 108.88 150.732 108.526 151.041C108.172 151.348 107.701 151.501 107.114 151.501C106.703 151.501 106.341 151.405 106.027 151.211C105.715 151.015 105.474 150.738 105.305 150.379C105.135 150.02 105.046 149.604 105.039 149.129V148.648C105.039 148.162 105.125 147.733 105.297 147.363C105.47 146.992 105.716 146.706 106.037 146.506C106.361 146.305 106.734 146.205 107.156 146.205C107.725 146.205 108.183 146.359 108.53 146.669C108.877 146.978 109.079 147.415 109.135 147.979H108.243C108.201 147.608 108.092 147.341 107.917 147.178C107.745 147.013 107.491 146.931 107.156 146.931C106.767 146.931 106.467 147.073 106.257 147.359C106.049 147.642 105.943 148.059 105.938 148.609V149.066C105.938 149.623 106.037 150.047 106.236 150.34C106.436 150.633 106.729 150.779 107.114 150.779C107.465 150.779 107.73 150.7 107.907 150.542C108.084 150.384 108.196 150.121 108.243 149.752H109.135ZM110.098 151.873H109.422L111.451 146.276H112.127L110.098 151.873ZM115.82 149.129H113.703V150.715H116.177V151.431H112.807V146.276H116.153V146.998H113.703V148.421H115.82V149.129ZM120.678 146.276V149.721C120.678 150.268 120.502 150.702 120.15 151.024C119.801 151.342 119.334 151.501 118.751 151.501C118.161 151.501 117.693 151.345 117.346 151.031C116.999 150.714 116.825 150.276 116.825 149.717V146.276H117.718V149.724C117.718 150.069 117.805 150.332 117.98 150.514C118.154 150.695 118.412 150.786 118.751 150.786C119.441 150.786 119.785 150.423 119.785 149.696V146.276H120.678ZM123.531 149.444H122.533V151.431H121.637V146.276H123.45C124.045 146.276 124.504 146.409 124.827 146.676C125.15 146.942 125.312 147.328 125.312 147.833C125.312 148.178 125.228 148.467 125.061 148.701C124.895 148.932 124.664 149.11 124.367 149.236L125.525 151.385V151.431H124.565L123.531 149.444ZM122.533 148.726H123.453C123.755 148.726 123.991 148.65 124.161 148.499C124.331 148.346 124.416 148.137 124.416 147.872C124.416 147.596 124.337 147.383 124.179 147.232C124.023 147.081 123.79 147.003 123.478 146.998H122.533V148.726Z" fill="#353535"/>
<path d="M148.28 148.218H146.205V149.915H148.615V150.431H145.574V145.644H148.582V146.163H146.205V147.702H148.28V148.218ZM150.499 148.172L151.288 146.873H151.998L150.834 148.632L152.034 150.431H151.331L150.509 149.099L149.687 150.431H148.98L150.18 148.632L149.016 146.873H149.72L150.499 148.172ZM155.651 148.692C155.651 149.233 155.527 149.669 155.279 150C155.032 150.331 154.696 150.496 154.273 150.496C153.841 150.496 153.502 150.359 153.254 150.085V151.798H152.646V146.873H153.201L153.231 147.268C153.479 146.961 153.823 146.808 154.263 146.808C154.691 146.808 155.028 146.969 155.276 147.291C155.526 147.613 155.651 148.061 155.651 148.636V148.692ZM155.043 148.622C155.043 148.221 154.957 147.905 154.786 147.672C154.615 147.44 154.381 147.324 154.083 147.324C153.714 147.324 153.438 147.487 153.254 147.814V149.513C153.436 149.838 153.714 150 154.089 150C154.381 150 154.612 149.885 154.783 149.655C154.956 149.422 155.043 149.078 155.043 148.622ZM157.903 150.496C157.421 150.496 157.028 150.339 156.726 150.023C156.423 149.705 156.272 149.281 156.272 148.751V148.639C156.272 148.286 156.339 147.972 156.473 147.695C156.609 147.417 156.797 147.2 157.038 147.044C157.281 146.887 157.544 146.808 157.827 146.808C158.29 146.808 158.649 146.96 158.906 147.265C159.162 147.569 159.29 148.005 159.29 148.573V148.826H156.88C156.889 149.177 156.991 149.461 157.186 149.678C157.383 149.893 157.633 150 157.936 150C158.15 150 158.332 149.956 158.481 149.868C158.63 149.781 158.761 149.665 158.873 149.52L159.244 149.809C158.946 150.267 158.499 150.496 157.903 150.496ZM157.827 147.307C157.582 147.307 157.376 147.397 157.209 147.577C157.043 147.755 156.94 148.004 156.9 148.327H158.682V148.281C158.664 147.972 158.581 147.733 158.432 147.564C158.283 147.393 158.081 147.307 157.827 147.307ZM161.424 150C161.641 150 161.83 149.934 161.993 149.803C162.155 149.671 162.245 149.507 162.262 149.31H162.838C162.827 149.513 162.756 149.707 162.627 149.891C162.498 150.076 162.325 150.222 162.108 150.332C161.893 150.442 161.665 150.496 161.424 150.496C160.939 150.496 160.554 150.335 160.267 150.013C159.982 149.689 159.839 149.246 159.839 148.685V148.583C159.839 148.237 159.903 147.929 160.03 147.659C160.157 147.39 160.339 147.18 160.576 147.031C160.815 146.882 161.096 146.808 161.421 146.808C161.819 146.808 162.15 146.927 162.413 147.166C162.679 147.405 162.82 147.715 162.838 148.096H162.262C162.245 147.866 162.157 147.678 161.999 147.531C161.844 147.382 161.651 147.307 161.421 147.307C161.112 147.307 160.872 147.419 160.701 147.643C160.532 147.864 160.447 148.185 160.447 148.606V148.721C160.447 149.131 160.532 149.447 160.701 149.668C160.869 149.889 161.11 150 161.424 150ZM164.347 146.012V146.873H165.011V147.344H164.347V149.55C164.347 149.692 164.376 149.799 164.435 149.872C164.495 149.942 164.595 149.977 164.738 149.977C164.808 149.977 164.904 149.964 165.027 149.938V150.431C164.867 150.474 164.712 150.496 164.56 150.496C164.288 150.496 164.084 150.414 163.945 150.25C163.807 150.085 163.738 149.852 163.738 149.55V147.344H163.091V146.873H163.738V146.012H164.347ZM167.2 150.496C166.718 150.496 166.326 150.339 166.023 150.023C165.721 149.705 165.57 149.281 165.57 148.751V148.639C165.57 148.286 165.636 147.972 165.77 147.695C165.906 147.417 166.095 147.2 166.336 147.044C166.579 146.887 166.842 146.808 167.125 146.808C167.587 146.808 167.947 146.96 168.203 147.265C168.459 147.569 168.588 148.005 168.588 148.573V148.826H166.178C166.187 149.177 166.288 149.461 166.484 149.678C166.681 149.893 166.931 150 167.233 150C167.448 150 167.63 149.956 167.779 149.868C167.928 149.781 168.058 149.665 168.17 149.52L168.542 149.809C168.244 150.267 167.796 150.496 167.2 150.496ZM167.125 147.307C166.879 147.307 166.673 147.397 166.507 147.577C166.34 147.755 166.237 148.004 166.198 148.327H167.979V148.281C167.962 147.972 167.879 147.733 167.73 147.564C167.581 147.393 167.379 147.307 167.125 147.307ZM169.147 148.622C169.147 148.077 169.276 147.638 169.534 147.307C169.793 146.974 170.132 146.808 170.55 146.808C170.967 146.808 171.297 146.95 171.54 147.235V145.381H172.148V150.431H171.589L171.56 150.049C171.316 150.347 170.978 150.496 170.544 150.496C170.132 150.496 169.795 150.328 169.534 149.99C169.276 149.653 169.147 149.212 169.147 148.668V148.622ZM169.755 148.692C169.755 149.095 169.838 149.41 170.005 149.638C170.171 149.866 170.401 149.98 170.695 149.98C171.081 149.98 171.362 149.807 171.54 149.461V147.827C171.358 147.492 171.079 147.324 170.702 147.324C170.404 147.324 170.171 147.439 170.005 147.669C169.838 147.899 169.755 148.24 169.755 148.692ZM176.485 147.419C176.392 147.404 176.293 147.396 176.185 147.396C175.786 147.396 175.516 147.566 175.373 147.906V150.431H174.765V146.873H175.357L175.367 147.284C175.566 146.967 175.849 146.808 176.215 146.808C176.333 146.808 176.423 146.823 176.485 146.854V147.419ZM179.111 150.431C179.076 150.361 179.048 150.236 179.026 150.056C178.743 150.35 178.406 150.496 178.013 150.496C177.663 150.496 177.374 150.398 177.149 150.201C176.925 150.001 176.813 149.749 176.813 149.444C176.813 149.074 176.954 148.787 177.234 148.583C177.517 148.377 177.914 148.274 178.424 148.274H179.016V147.995C179.016 147.782 178.952 147.613 178.825 147.488C178.698 147.361 178.511 147.298 178.263 147.298C178.046 147.298 177.864 147.352 177.717 147.462C177.571 147.572 177.497 147.704 177.497 147.86H176.886C176.886 147.682 176.948 147.511 177.073 147.347C177.2 147.18 177.371 147.049 177.586 146.952C177.803 146.856 178.041 146.808 178.299 146.808C178.709 146.808 179.03 146.911 179.263 147.117C179.495 147.321 179.615 147.602 179.624 147.962V149.599C179.624 149.925 179.666 150.185 179.749 150.378V150.431H179.111ZM178.102 149.967C178.293 149.967 178.474 149.918 178.645 149.819C178.815 149.721 178.939 149.592 179.016 149.435V148.705H178.539C177.794 148.705 177.422 148.923 177.422 149.359C177.422 149.55 177.485 149.699 177.612 149.806C177.739 149.913 177.903 149.967 178.102 149.967ZM181.403 146.012V146.873H182.067V147.344H181.403V149.55C181.403 149.692 181.432 149.799 181.492 149.872C181.551 149.942 181.652 149.977 181.794 149.977C181.864 149.977 181.961 149.964 182.083 149.938V150.431C181.923 150.474 181.768 150.496 181.617 150.496C181.345 150.496 181.14 150.414 181.002 150.25C180.864 150.085 180.795 149.852 180.795 149.55V147.344H180.147V146.873H180.795V146.012H181.403ZM184.257 150.496C183.774 150.496 183.382 150.339 183.08 150.023C182.777 149.705 182.626 149.281 182.626 148.751V148.639C182.626 148.286 182.693 147.972 182.826 147.695C182.962 147.417 183.151 147.2 183.392 147.044C183.635 146.887 183.898 146.808 184.181 146.808C184.643 146.808 185.003 146.96 185.259 147.265C185.516 147.569 185.644 148.005 185.644 148.573V148.826H183.234C183.243 149.177 183.345 149.461 183.54 149.678C183.737 149.893 183.987 150 184.289 150C184.504 150 184.686 149.956 184.835 149.868C184.984 149.781 185.115 149.665 185.226 149.52L185.598 149.809C185.3 150.267 184.853 150.496 184.257 150.496ZM184.181 147.307C183.935 147.307 183.729 147.397 183.563 147.577C183.396 147.755 183.293 148.004 183.254 148.327H185.036V148.281C185.018 147.972 184.935 147.733 184.786 147.564C184.637 147.393 184.435 147.307 184.181 147.307Z" fill="#797979"/>
<g clip-path="url(#clip6)">
<path fill-rule="evenodd" clip-rule="evenodd" d="M188.589 148.835C188.589 146.693 190.331 144.95 192.473 144.95C194.615 144.95 196.358 146.693 196.358 148.835C196.358 150.977 194.615 152.719 192.473 152.719C190.331 152.719 188.589 150.977 188.589 148.835ZM189.366 148.835C189.366 150.548 190.76 151.942 192.473 151.942C194.187 151.942 195.581 150.548 195.581 148.835C195.581 147.121 194.187 145.727 192.473 145.727C190.76 145.727 189.366 147.121 189.366 148.835ZM192.862 150.777V148.446H192.085V150.777H192.862ZM192.862 147.669V146.892H192.085V147.669H192.862Z" fill="#ABD5FD"/>
</g>
<rect x="56.7119" y="154.271" width="1.03586" height="8.28687" fill="#1A88EE"/>
<g clip-path="url(#clip7)">
<path fill-rule="evenodd" clip-rule="evenodd" d="M61.2603 164.225C63.4821 166.447 63.4821 170.064 61.2603 172.286C59.0378 174.509 55.4217 174.509 53.1986 172.286C50.9768 170.064 50.9768 166.447 53.1986 164.225C55.4217 162.003 59.0378 162.003 61.2603 164.225ZM60.4586 165.032C62.237 166.811 62.237 169.706 60.4586 171.484C58.6797 173.263 55.7854 173.263 54.006 171.484C52.2276 169.706 52.2276 166.811 54.006 165.032C55.7854 163.254 58.6797 163.254 60.4586 165.032Z" fill="#1A88EE"/>
<path d="M54.7217 168.938H59.7352V167.57H54.7217V168.938Z" fill="#353535"/>
</g>
<path d="M70.8162 168.942C70.8162 169.683 70.6769 170.243 70.3984 170.62C70.1223 170.995 69.7009 171.183 69.1344 171.183C68.5774 171.183 68.1573 171 67.874 170.634C67.5931 170.266 67.4491 169.722 67.4421 169.002V168.11C67.4421 167.369 67.5801 166.813 67.8563 166.442C68.1348 166.072 68.5585 165.886 69.1274 165.886C69.6915 165.886 70.1116 166.067 70.3878 166.428C70.6663 166.789 70.8091 167.33 70.8162 168.05V168.942ZM69.9558 167.979C69.9558 167.495 69.8898 167.141 69.7576 166.917C69.6254 166.69 69.4153 166.577 69.1274 166.577C68.8465 166.577 68.6399 166.684 68.5078 166.899C68.3756 167.112 68.306 167.444 68.2989 167.898V169.066C68.2989 169.547 68.3661 169.906 68.5007 170.142C68.6352 170.378 68.8465 170.496 69.1344 170.496C69.4106 170.496 69.6148 170.388 69.747 170.171C69.8791 169.951 69.9488 169.609 69.9558 169.144V167.979ZM72.1687 170.206C72.3292 170.206 72.4531 170.252 72.5404 170.344C72.6278 170.434 72.6714 170.547 72.6714 170.684C72.6714 170.818 72.6278 170.931 72.5404 171.02C72.4531 171.108 72.3292 171.151 72.1687 171.151C72.0153 171.151 71.8937 171.108 71.804 171.02C71.7143 170.933 71.6695 170.821 71.6695 170.684C71.6695 170.547 71.7131 170.434 71.8005 170.344C71.8878 170.252 72.0105 170.206 72.1687 170.206ZM76.9626 168.942C76.9626 169.683 76.8233 170.243 76.5448 170.62C76.2686 170.995 75.8473 171.183 75.2808 171.183C74.7238 171.183 74.3036 171 74.0204 170.634C73.7395 170.266 73.5955 169.722 73.5884 169.002V168.11C73.5884 167.369 73.7265 166.813 74.0027 166.442C74.2812 166.072 74.7049 165.886 75.2737 165.886C75.8379 165.886 76.258 166.067 76.5342 166.428C76.8127 166.789 76.9555 167.33 76.9626 168.05V168.942ZM76.1022 167.979C76.1022 167.495 76.0361 167.141 75.9039 166.917C75.7718 166.69 75.5617 166.577 75.2737 166.577C74.9928 166.577 74.7863 166.684 74.6541 166.899C74.522 167.112 74.4523 167.444 74.4452 167.898V169.066C74.4452 169.547 74.5125 169.906 74.6471 170.142C74.7816 170.378 74.9928 170.496 75.2808 170.496C75.557 170.496 75.7611 170.388 75.8933 170.171C76.0255 169.951 76.0951 169.609 76.1022 169.144V167.979ZM81.0837 168.942C81.0837 169.683 80.9445 170.243 80.666 170.62C80.3898 170.995 79.9685 171.183 79.402 171.183C78.8449 171.183 78.4248 171 78.1416 170.634C77.8607 170.266 77.7167 169.722 77.7096 169.002V168.11C77.7096 167.369 77.8477 166.813 78.1239 166.442C78.4024 166.072 78.8261 165.886 79.3949 165.886C79.959 165.886 80.3792 166.067 80.6553 166.428C80.9339 166.789 81.0767 167.33 81.0837 168.05V168.942ZM80.2234 167.979C80.2234 167.495 80.1573 167.141 80.0251 166.917C79.8929 166.69 79.6829 166.577 79.3949 166.577C79.114 166.577 78.9075 166.684 78.7753 166.899C78.6431 167.112 78.5735 167.444 78.5664 167.898V169.066C78.5664 169.547 78.6337 169.906 78.7682 170.142C78.9028 170.378 79.114 170.496 79.402 170.496C79.6781 170.496 79.8823 170.388 80.0145 170.171C80.1467 169.951 80.2163 169.609 80.2234 169.144V167.979ZM82.0751 168.556L82.3548 165.957H85.1235V166.701H83.07L82.9284 167.933C83.1668 167.796 83.4358 167.728 83.7356 167.728C84.2266 167.728 84.6078 167.885 84.8792 168.198C85.153 168.512 85.2899 168.935 85.2899 169.466C85.2899 169.99 85.1388 170.408 84.8367 170.719C84.5346 171.029 84.1203 171.183 83.594 171.183C83.1219 171.183 82.7301 171.05 82.4185 170.783C82.1093 170.514 81.9417 170.16 81.9158 169.721H82.7478C82.7808 169.971 82.8705 170.163 83.0169 170.298C83.1632 170.43 83.3544 170.496 83.5904 170.496C83.8548 170.496 84.0601 170.402 84.2065 170.213C84.3552 170.024 84.4295 169.767 84.4295 169.441C84.4295 169.127 84.3481 168.879 84.1852 168.698C84.0224 168.514 83.7981 168.421 83.5125 168.421C83.3568 168.421 83.2246 168.443 83.116 168.485C83.0074 168.525 82.8894 168.606 82.762 168.726L82.0751 168.556ZM87.9099 171.112V165.957H89.6766C90.2596 165.957 90.7034 166.074 91.0079 166.308C91.3123 166.541 91.4646 166.89 91.4646 167.352C91.4646 167.588 91.4009 167.801 91.2734 167.99C91.1459 168.178 90.9595 168.325 90.714 168.429C90.9925 168.504 91.2073 168.647 91.3584 168.857C91.5118 169.065 91.5885 169.315 91.5885 169.608C91.5885 170.091 91.4327 170.463 91.1212 170.723C90.8119 170.982 90.3682 171.112 89.7899 171.112H87.9099ZM88.8056 168.786V170.397H89.8005C90.0814 170.397 90.3009 170.327 90.4591 170.188C90.6172 170.049 90.6963 169.855 90.6963 169.608C90.6963 169.072 90.4225 168.798 89.8749 168.786H88.8056ZM88.8056 168.128H89.6837C89.9622 168.128 90.1794 168.065 90.3352 167.94C90.4933 167.813 90.5724 167.633 90.5724 167.402C90.5724 167.147 90.4992 166.963 90.3529 166.85C90.2089 166.736 89.9835 166.68 89.6766 166.68H88.8056V168.128ZM96.1098 166.68H94.5024V171.112H93.6137V166.68H92.0204V165.957H96.1098V166.68ZM100.624 169.434C100.572 169.984 100.369 170.414 100.015 170.723C99.6609 171.03 99.19 171.183 98.6023 171.183C98.1916 171.183 97.8293 171.086 97.5154 170.893C97.2038 170.697 96.963 170.42 96.7931 170.061C96.6231 169.702 96.5346 169.285 96.5275 168.811V168.329C96.5275 167.843 96.6137 167.415 96.786 167.044C96.9583 166.674 97.205 166.388 97.526 166.187C97.8493 165.987 98.2223 165.886 98.6448 165.886C99.2136 165.886 99.6715 166.041 100.019 166.35C100.365 166.659 100.567 167.096 100.624 167.66H99.7317C99.6892 167.29 99.5807 167.023 99.406 166.86C99.2337 166.695 98.98 166.612 98.6448 166.612C98.2553 166.612 97.9556 166.755 97.7455 167.041C97.5378 167.324 97.4316 167.741 97.4268 168.291V168.747C97.4268 169.304 97.526 169.729 97.7242 170.022C97.9249 170.315 98.2176 170.461 98.6023 170.461C98.954 170.461 99.2183 170.382 99.3954 170.224C99.5724 170.065 99.6845 169.802 99.7317 169.434H100.624Z" fill="#353535"/>
<path d="M149.253 170.112H148.619L146.209 166.424V170.112H145.574V165.326H146.209L148.625 169.031V165.326H149.253V170.112ZM151.755 170.178C151.273 170.178 150.88 170.02 150.578 169.705C150.275 169.387 150.124 168.963 150.124 168.432V168.321C150.124 167.968 150.191 167.653 150.325 167.377C150.461 167.099 150.649 166.882 150.89 166.726C151.134 166.568 151.397 166.489 151.679 166.489C152.142 166.489 152.501 166.642 152.758 166.946C153.014 167.251 153.142 167.687 153.142 168.255V168.508H150.732C150.741 168.859 150.843 169.142 151.038 169.359C151.235 169.574 151.485 169.682 151.788 169.682C152.003 169.682 152.185 169.638 152.334 169.55C152.483 169.462 152.613 169.346 152.725 169.202L153.096 169.491C152.798 169.949 152.351 170.178 151.755 170.178ZM151.679 166.989C151.434 166.989 151.228 167.079 151.061 167.259C150.895 167.436 150.792 167.686 150.752 168.008H152.534V167.962C152.517 167.653 152.433 167.414 152.284 167.245C152.135 167.075 151.934 166.989 151.679 166.989ZM154.674 165.694V166.555H155.338V167.025H154.674V169.231C154.674 169.374 154.704 169.481 154.763 169.553C154.822 169.624 154.923 169.659 155.066 169.659C155.136 169.659 155.232 169.645 155.355 169.619V170.112C155.195 170.156 155.039 170.178 154.888 170.178C154.616 170.178 154.411 170.096 154.273 169.931C154.135 169.767 154.066 169.534 154.066 169.231V167.025H153.418V166.555H154.066V165.694H154.674ZM159.201 169.274L159.885 166.555H160.493L159.458 170.112H158.965L158.1 167.416L157.258 170.112H156.765L155.733 166.555H156.338L157.038 169.218L157.867 166.555H158.357L159.201 169.274ZM160.954 168.301C160.954 167.952 161.022 167.639 161.158 167.361C161.296 167.082 161.486 166.867 161.73 166.716C161.975 166.565 162.255 166.489 162.568 166.489C163.052 166.489 163.444 166.657 163.742 166.992C164.042 167.328 164.192 167.774 164.192 168.33V168.373C164.192 168.719 164.125 169.031 163.992 169.307C163.86 169.581 163.67 169.794 163.423 169.948C163.177 170.101 162.895 170.178 162.575 170.178C162.092 170.178 161.701 170.01 161.401 169.675C161.103 169.34 160.954 168.896 160.954 168.344V168.301ZM161.565 168.373C161.565 168.768 161.656 169.084 161.838 169.323C162.022 169.562 162.268 169.682 162.575 169.682C162.884 169.682 163.129 169.561 163.311 169.32C163.493 169.077 163.584 168.737 163.584 168.301C163.584 167.911 163.491 167.595 163.304 167.354C163.12 167.111 162.875 166.989 162.568 166.989C162.268 166.989 162.026 167.108 161.841 167.347C161.657 167.586 161.565 167.928 161.565 168.373ZM166.674 167.101C166.582 167.085 166.482 167.078 166.375 167.078C165.976 167.078 165.705 167.248 165.563 167.587V170.112H164.955V166.555H165.547L165.556 166.966C165.756 166.648 166.039 166.489 166.405 166.489C166.523 166.489 166.613 166.505 166.674 166.535V167.101ZM168.229 168.465L167.848 168.863V170.112H167.24V165.062H167.848V168.117L168.173 167.725L169.281 166.555H170.021L168.637 168.041L170.182 170.112H169.469L168.229 168.465ZM172.618 170.112V167.025H172.056V166.555H172.618V166.19C172.618 165.809 172.72 165.514 172.924 165.306C173.128 165.098 173.416 164.993 173.789 164.993C173.929 164.993 174.068 165.012 174.206 165.049L174.173 165.542C174.07 165.523 173.961 165.513 173.845 165.513C173.647 165.513 173.495 165.571 173.388 165.687C173.28 165.801 173.226 165.965 173.226 166.18V166.555H173.986V167.025H173.226V170.112H172.618ZM176.057 170.178C175.575 170.178 175.183 170.02 174.88 169.705C174.578 169.387 174.426 168.963 174.426 168.432V168.321C174.426 167.968 174.493 167.653 174.627 167.377C174.763 167.099 174.951 166.882 175.192 166.726C175.436 166.568 175.699 166.489 175.982 166.489C176.444 166.489 176.803 166.642 177.06 166.946C177.316 167.251 177.445 167.687 177.445 168.255V168.508H175.035C175.043 168.859 175.145 169.142 175.34 169.359C175.538 169.574 175.788 169.682 176.09 169.682C176.305 169.682 176.487 169.638 176.636 169.55C176.785 169.462 176.915 169.346 177.027 169.202L177.398 169.491C177.1 169.949 176.653 170.178 176.057 170.178ZM175.982 166.989C175.736 166.989 175.53 167.079 175.363 167.259C175.197 167.436 175.094 167.686 175.054 168.008H176.836V167.962C176.819 167.653 176.735 167.414 176.586 167.245C176.437 167.075 176.236 166.989 175.982 166.989ZM179.628 170.178C179.145 170.178 178.753 170.02 178.451 169.705C178.148 169.387 177.997 168.963 177.997 168.432V168.321C177.997 167.968 178.064 167.653 178.197 167.377C178.333 167.099 178.522 166.882 178.763 166.726C179.006 166.568 179.269 166.489 179.552 166.489C180.014 166.489 180.374 166.642 180.63 166.946C180.887 167.251 181.015 167.687 181.015 168.255V168.508H178.605C178.614 168.859 178.716 169.142 178.911 169.359C179.108 169.574 179.358 169.682 179.66 169.682C179.875 169.682 180.057 169.638 180.206 169.55C180.355 169.462 180.486 169.346 180.597 169.202L180.969 169.491C180.671 169.949 180.224 170.178 179.628 170.178ZM179.552 166.989C179.306 166.989 179.1 167.079 178.934 167.259C178.767 167.436 178.664 167.686 178.625 168.008H180.407V167.962C180.389 167.653 180.306 167.414 180.157 167.245C180.008 167.075 179.806 166.989 179.552 166.989ZM184.053 170.112H183.444V166.555H184.053V170.112ZM183.395 165.612C183.395 165.513 183.425 165.43 183.484 165.362C183.545 165.294 183.635 165.26 183.754 165.26C183.872 165.26 183.962 165.294 184.023 165.362C184.084 165.43 184.115 165.513 184.115 165.612C184.115 165.71 184.084 165.792 184.023 165.858C183.962 165.924 183.872 165.957 183.754 165.957C183.635 165.957 183.545 165.924 183.484 165.858C183.425 165.792 183.395 165.71 183.395 165.612ZM185.604 166.555L185.624 167.002C185.896 166.66 186.251 166.489 186.689 166.489C187.441 166.489 187.82 166.913 187.827 167.762V170.112H187.219V167.758C187.216 167.502 187.157 167.312 187.041 167.19C186.927 167.067 186.749 167.005 186.505 167.005C186.308 167.005 186.135 167.058 185.986 167.163C185.837 167.268 185.721 167.407 185.637 167.578V170.112H185.029V166.555H185.604ZM190.171 169.682C190.388 169.682 190.578 169.616 190.74 169.484C190.902 169.353 190.992 169.188 191.009 168.991H191.585C191.574 169.195 191.504 169.389 191.374 169.573C191.245 169.757 191.072 169.904 190.855 170.014C190.64 170.123 190.412 170.178 190.171 170.178C189.687 170.178 189.301 170.017 189.014 169.695C188.729 169.37 188.586 168.928 188.586 168.367V168.265C188.586 167.918 188.65 167.61 188.777 167.341C188.904 167.071 189.086 166.862 189.323 166.713C189.562 166.564 189.843 166.489 190.168 166.489C190.567 166.489 190.898 166.609 191.161 166.848C191.426 167.087 191.567 167.397 191.585 167.778H191.009C190.992 167.548 190.904 167.359 190.746 167.213C190.591 167.064 190.398 166.989 190.168 166.989C189.859 166.989 189.619 167.101 189.448 167.324C189.279 167.546 189.195 167.867 189.195 168.288V168.403C189.195 168.813 189.279 169.128 189.448 169.35C189.616 169.571 189.858 169.682 190.171 169.682ZM192.929 170.112H192.321V165.062H192.929V170.112ZM196.102 169.761C195.865 170.039 195.518 170.178 195.06 170.178C194.681 170.178 194.391 170.068 194.192 169.849C193.994 169.628 193.895 169.301 193.893 168.87V166.555H194.501V168.853C194.501 169.392 194.72 169.662 195.158 169.662C195.623 169.662 195.932 169.489 196.085 169.142V166.555H196.694V170.112H196.115L196.102 169.761ZM197.473 168.304C197.473 167.758 197.602 167.32 197.861 166.989C198.119 166.656 198.458 166.489 198.877 166.489C199.293 166.489 199.623 166.632 199.866 166.917V165.062H200.474V170.112H199.916L199.886 169.731C199.643 170.029 199.304 170.178 198.87 170.178C198.458 170.178 198.122 170.009 197.861 169.672C197.602 169.334 197.473 168.894 197.473 168.35V168.304ZM198.081 168.373C198.081 168.776 198.164 169.092 198.331 169.32C198.497 169.548 198.728 169.662 199.021 169.662C199.407 169.662 199.689 169.489 199.866 169.142V167.508C199.684 167.173 199.405 167.005 199.028 167.005C198.73 167.005 198.497 167.121 198.331 167.351C198.164 167.581 198.081 167.922 198.081 168.373ZM202.897 170.178C202.415 170.178 202.023 170.02 201.72 169.705C201.418 169.387 201.267 168.963 201.267 168.432V168.321C201.267 167.968 201.334 167.653 201.467 167.377C201.603 167.099 201.792 166.882 202.033 166.726C202.276 166.568 202.539 166.489 202.822 166.489C203.284 166.489 203.644 166.642 203.9 166.946C204.157 167.251 204.285 167.687 204.285 168.255V168.508H201.875C201.884 168.859 201.986 169.142 202.181 169.359C202.378 169.574 202.628 169.682 202.93 169.682C203.145 169.682 203.327 169.638 203.476 169.55C203.625 169.462 203.755 169.346 203.867 169.202L204.239 169.491C203.941 169.949 203.494 170.178 202.897 170.178ZM202.822 166.989C202.576 166.989 202.37 167.079 202.204 167.259C202.037 167.436 201.934 167.686 201.895 168.008H203.677V167.962C203.659 167.653 203.576 167.414 203.427 167.245C203.278 167.075 203.076 166.989 202.822 166.989ZM204.844 168.304C204.844 167.758 204.973 167.32 205.232 166.989C205.49 166.656 205.829 166.489 206.248 166.489C206.664 166.489 206.994 166.632 207.237 166.917V165.062H207.845V170.112H207.286L207.257 169.731C207.014 170.029 206.675 170.178 206.241 170.178C205.829 170.178 205.492 170.009 205.232 169.672C204.973 169.334 204.844 168.894 204.844 168.35V168.304ZM205.452 168.373C205.452 168.776 205.535 169.092 205.702 169.32C205.868 169.548 206.098 169.662 206.392 169.662C206.778 169.662 207.06 169.489 207.237 169.142V167.508C207.055 167.173 206.776 167.005 206.399 167.005C206.101 167.005 205.868 167.121 205.702 167.351C205.535 167.581 205.452 167.922 205.452 168.373Z" fill="#797979"/>
<path fill-rule="evenodd" clip-rule="evenodd" d="M211.379 168.515C211.379 166.373 213.121 164.631 215.263 164.631C217.405 164.631 219.148 166.373 219.148 168.515C219.148 170.657 217.405 172.4 215.263 172.4C213.121 172.4 211.379 170.657 211.379 168.515ZM212.156 168.515C212.156 170.229 213.55 171.623 215.263 171.623C216.977 171.623 218.371 170.229 218.371 168.515C218.371 166.802 216.977 165.408 215.263 165.408C213.55 165.408 212.156 166.802 212.156 168.515ZM215.652 170.458V168.127H214.875V170.458H215.652ZM215.652 167.35V166.573H214.875V167.35H215.652Z" fill="#ABD5FD"/>
<rect x="56.7119" y="173.953" width="1.03586" height="8.28687" fill="#1A88EE"/>
<g clip-path="url(#clip8)">
<rect x="45.3174" y="182.239" width="173.506" height="30.0399" rx="4.14344" fill="white"/>
<rect width="104.622" height="30.0399" transform="translate(45.3174 182.239)" fill="#E2EFFC"/>
<path d="M53.7026 190.816L55.048 188.228H55.8198L54.0425 191.46V193.383H53.3627V191.46L51.5853 188.228H52.3643L53.7026 190.816ZM55.9756 191.432C55.9756 191.057 56.0488 190.719 56.1951 190.419C56.3438 190.12 56.5492 189.888 56.8112 189.725C57.0755 189.563 57.3765 189.481 57.714 189.481C58.2356 189.481 58.657 189.662 58.978 190.023C59.3013 190.384 59.463 190.864 59.463 191.464V191.51C59.463 191.883 59.391 192.218 59.247 192.515C59.1054 192.81 58.9013 193.041 58.6345 193.206C58.3702 193.371 58.0657 193.454 57.7211 193.454C57.2018 193.454 56.7805 193.273 56.4571 192.912C56.1361 192.551 55.9756 192.073 55.9756 191.478V191.432ZM56.6341 191.51C56.6341 191.935 56.7321 192.276 56.928 192.533C57.1263 192.79 57.3906 192.919 57.7211 192.919C58.0539 192.919 58.3182 192.789 58.5142 192.53C58.7101 192.268 58.808 191.902 58.808 191.432C58.808 191.012 58.7077 190.672 58.5071 190.412C58.3088 190.15 58.0444 190.019 57.714 190.019C57.3906 190.019 57.1298 190.148 56.9315 190.405C56.7333 190.663 56.6341 191.031 56.6341 191.51ZM62.6495 193.004C62.3946 193.304 62.0205 193.454 61.5272 193.454C61.1188 193.454 60.8072 193.336 60.5924 193.1C60.38 192.861 60.2726 192.509 60.2703 192.044V189.552H60.9253V192.027C60.9253 192.607 61.1613 192.898 61.6334 192.898C62.1338 192.898 62.4666 192.711 62.6318 192.338V189.552H63.2868V193.383H62.6637L62.6495 193.004ZM65.928 191.436C65.928 190.838 66.0661 190.364 66.3423 190.012C66.6184 189.658 66.9843 189.481 67.4398 189.481C67.9072 189.481 68.2719 189.646 68.5339 189.977L68.5657 189.552H69.1641V193.291C69.1641 193.786 69.0166 194.177 68.7215 194.463C68.4288 194.748 68.0346 194.891 67.539 194.891C67.2628 194.891 66.9926 194.832 66.7282 194.714C66.4638 194.596 66.262 194.434 66.1228 194.229L66.4627 193.836C66.7435 194.183 67.087 194.356 67.4929 194.356C67.8116 194.356 68.0594 194.267 68.2365 194.087C68.4158 193.908 68.5055 193.655 68.5055 193.33V193C68.2435 193.303 67.8859 193.454 67.4328 193.454C66.9843 193.454 66.6208 193.273 66.3423 192.912C66.0661 192.551 65.928 192.059 65.928 191.436ZM66.5866 191.51C66.5866 191.942 66.6751 192.282 66.8521 192.53C67.0291 192.775 67.277 192.898 67.5956 192.898C68.0087 192.898 68.312 192.71 68.5055 192.335V190.586C68.3049 190.22 68.004 190.037 67.6027 190.037C67.2841 190.037 67.035 190.161 66.8557 190.409C66.6763 190.657 66.5866 191.024 66.5866 191.51ZM71.7451 193.454C71.2258 193.454 70.8033 193.284 70.4776 192.944C70.1519 192.602 69.989 192.145 69.989 191.574V191.453C69.989 191.073 70.061 190.734 70.205 190.437C70.3513 190.137 70.5543 189.904 70.814 189.736C71.076 189.566 71.3592 189.481 71.6637 189.481C72.1617 189.481 72.5488 189.645 72.825 189.973C73.1012 190.301 73.2392 190.771 73.2392 191.382V191.655H70.644C70.6535 192.033 70.7632 192.338 70.9733 192.572C71.1857 192.803 71.4548 192.919 71.7805 192.919C72.0118 192.919 72.2078 192.872 72.3683 192.777C72.5288 192.683 72.6692 192.558 72.7896 192.402L73.1897 192.714C72.8687 193.207 72.3871 193.454 71.7451 193.454ZM71.6637 190.019C71.3993 190.019 71.1775 190.116 70.9981 190.31C70.8187 190.501 70.7078 190.77 70.6653 191.117H72.5842V191.067C72.5654 190.734 72.4757 190.477 72.3152 190.295C72.1546 190.111 71.9375 190.019 71.6637 190.019ZM74.8891 188.624V189.552H75.6043V190.058H74.8891V192.434C74.8891 192.587 74.921 192.703 74.9847 192.781C75.0484 192.856 75.157 192.894 75.3104 192.894C75.386 192.894 75.4898 192.88 75.622 192.852V193.383C75.4497 193.43 75.2821 193.454 75.1193 193.454C74.8266 193.454 74.6059 193.365 74.4572 193.188C74.3085 193.011 74.2341 192.76 74.2341 192.434V190.058H73.5366V189.552H74.2341V188.624H74.8891Z" fill="#3092EC"/>
<path d="M57.8243 202.248C57.8243 202.842 57.6641 203.327 57.3438 203.705C57.0234 204.079 56.6239 204.266 56.145 204.266C55.8955 204.266 55.6645 204.219 55.4521 204.125C55.243 204.03 55.0087 203.868 54.7491 203.639C54.4894 203.406 54.3023 203.263 54.1876 203.209C54.0764 203.152 53.9566 203.123 53.8285 203.123C53.6026 203.123 53.4239 203.211 53.2924 203.386C53.1642 203.561 53.1002 203.791 53.1002 204.074H52.124C52.124 203.497 52.2774 203.025 52.5843 202.658C52.8911 202.287 53.2941 202.101 53.7931 202.101C54.0426 202.101 54.2787 202.152 54.5012 202.253C54.7271 202.351 54.9615 202.511 55.2043 202.734C55.4504 202.956 55.6291 203.096 55.7404 203.153C55.855 203.211 55.9781 203.239 56.1096 203.239C56.3355 203.239 56.5193 203.145 56.6609 202.956C56.8026 202.767 56.8734 202.531 56.8734 202.248H57.8243ZM63.7724 203.123C63.7724 204.182 63.5734 204.981 63.1755 205.521C62.781 206.057 62.1791 206.325 61.3699 206.325C60.5741 206.325 59.9739 206.063 59.5692 205.541C59.168 205.015 58.9623 204.238 58.9522 203.209V201.935C58.9522 200.876 59.1494 200.082 59.5439 199.552C59.9418 199.023 60.5471 198.758 61.3597 198.758C62.1656 198.758 62.7658 199.016 63.1603 199.532C63.5582 200.048 63.7622 200.82 63.7724 201.849V203.123ZM62.5433 201.747C62.5433 201.056 62.4489 200.55 62.26 200.23C62.0712 199.906 61.7711 199.744 61.3597 199.744C60.9585 199.744 60.6634 199.898 60.4746 200.205C60.2858 200.508 60.1863 200.984 60.1762 201.631V203.3C60.1762 203.988 60.2723 204.501 60.4645 204.838C60.6567 205.175 60.9585 205.344 61.3699 205.344C61.7644 205.344 62.056 205.188 62.2449 204.878C62.4337 204.565 62.5332 204.076 62.5433 203.411V201.747ZM65.7045 204.929C65.9338 204.929 66.1108 204.995 66.2356 205.126C66.3603 205.254 66.4227 205.416 66.4227 205.612C66.4227 205.804 66.3603 205.964 66.2356 206.092C66.1108 206.217 65.9338 206.279 65.7045 206.279C65.4853 206.279 65.3116 206.217 65.1835 206.092C65.0554 205.967 64.9913 205.807 64.9913 205.612C64.9913 205.416 65.0537 205.254 65.1785 205.126C65.3032 204.995 65.4786 204.929 65.7045 204.929ZM72.5529 203.123C72.5529 204.182 72.3539 204.981 71.956 205.521C71.5615 206.057 70.9596 206.325 70.1504 206.325C69.3546 206.325 68.7544 206.063 68.3498 205.541C67.9485 205.015 67.7428 204.238 67.7327 203.209V201.935C67.7327 200.876 67.93 200.082 68.3245 199.552C68.7224 199.023 69.3276 198.758 70.1403 198.758C70.9461 198.758 71.5464 199.016 71.9409 199.532C72.3388 200.048 72.5428 200.82 72.5529 201.849V203.123ZM71.3238 201.747C71.3238 201.056 71.2294 200.55 71.0406 200.23C70.8517 199.906 70.5516 199.744 70.1403 199.744C69.739 199.744 69.444 199.898 69.2551 200.205C69.0663 200.508 68.9668 200.984 68.9567 201.631V203.3C68.9567 203.988 69.0528 204.501 69.245 204.838C69.4372 205.175 69.739 205.344 70.1504 205.344C70.5449 205.344 70.8366 205.188 71.0254 204.878C71.2142 204.565 71.3137 204.076 71.3238 203.411V201.747ZM78.592 206.224H73.6403V205.379L76.0934 202.703C76.4475 202.309 76.6987 201.98 76.847 201.717C76.9988 201.451 77.0746 201.184 77.0746 200.918C77.0746 200.567 76.9752 200.284 76.7762 200.068C76.5807 199.852 76.316 199.744 75.9821 199.744C75.5842 199.744 75.2757 199.866 75.0565 200.109C74.8374 200.351 74.7278 200.684 74.7278 201.105H73.4987C73.4987 200.657 73.5999 200.254 73.8022 199.896C74.0079 199.535 74.2995 199.256 74.6772 199.057C75.0582 198.858 75.4966 198.758 75.9923 198.758C76.7071 198.758 77.2702 198.939 77.6816 199.299C78.0963 199.657 78.3037 200.152 78.3037 200.786C78.3037 201.154 78.1992 201.54 77.9901 201.945C77.7844 202.346 77.4456 202.803 76.9735 203.315L75.1729 205.242H78.592V206.224ZM83.0126 203.143C82.6012 203.578 82.1207 203.796 81.5711 203.796C80.9237 203.796 80.4078 203.57 80.0234 203.118C79.639 202.663 79.4468 202.066 79.4468 201.328C79.4468 200.842 79.5446 200.402 79.7402 200.007C79.9357 199.613 80.2139 199.306 80.5747 199.087C80.9355 198.868 81.3536 198.758 81.8291 198.758C82.5709 198.758 83.1593 199.035 83.5943 199.588C84.0293 200.141 84.2468 200.881 84.2468 201.808V202.152C84.2468 203.481 83.9466 204.494 83.3464 205.192C82.7462 205.89 81.851 206.244 80.6607 206.254H80.514V205.237H80.691C81.416 205.227 81.9724 205.054 82.3602 204.716C82.7479 204.376 82.9654 203.851 83.0126 203.143ZM81.8291 202.835C82.0752 202.835 82.3062 202.764 82.522 202.622C82.7378 202.481 82.9047 202.285 83.0227 202.036V201.555C83.0227 201.012 82.9115 200.576 82.6889 200.245C82.4664 199.915 82.1781 199.75 81.824 199.75C81.47 199.75 81.1867 199.896 80.9743 200.19C80.7652 200.48 80.6607 200.847 80.6607 201.292C80.6607 201.754 80.7669 202.127 80.9793 202.41C81.1918 202.693 81.475 202.835 81.8291 202.835ZM86.8364 201.98H87.585C87.9626 201.977 88.261 201.879 88.4802 201.687C88.7028 201.494 88.814 201.216 88.814 200.852C88.814 200.501 88.7213 200.23 88.5359 200.038C88.3538 199.842 88.0739 199.744 87.6962 199.744C87.3658 199.744 87.0944 199.841 86.8819 200.033C86.6695 200.222 86.5633 200.469 86.5633 200.776H85.3342C85.3342 200.399 85.4337 200.055 85.6326 199.744C85.8349 199.434 86.1148 199.193 86.4722 199.021C86.833 198.846 87.236 198.758 87.6811 198.758C88.4162 198.758 88.9928 198.944 89.4109 199.315C89.8324 199.682 90.0431 200.195 90.0431 200.852C90.0431 201.183 89.9369 201.494 89.7245 201.788C89.5154 202.078 89.244 202.297 88.9101 202.445C89.3148 202.584 89.6216 202.801 89.8307 203.098C90.0431 203.395 90.1493 203.749 90.1493 204.16C90.1493 204.821 89.9217 205.347 89.4665 205.738C89.0147 206.129 88.4195 206.325 87.6811 206.325C86.973 206.325 86.393 206.136 85.9411 205.758C85.4893 205.381 85.2634 204.878 85.2634 204.251H86.4925C86.4925 204.575 86.6004 204.838 86.8162 205.04C87.0353 205.242 87.3287 205.344 87.6962 205.344C88.0773 205.344 88.3774 205.242 88.5965 205.04C88.8157 204.838 88.9253 204.544 88.9253 204.16C88.9253 203.772 88.8107 203.474 88.5814 203.265C88.3521 203.056 88.0115 202.951 87.5597 202.951H86.8364V201.98ZM91.6313 202.572L92.0309 198.859H95.9861V199.921H93.0526L92.8502 201.682C93.1908 201.486 93.5752 201.388 94.0034 201.388C94.7048 201.388 95.2494 201.613 95.6372 202.061C96.0283 202.509 96.2239 203.113 96.2239 203.872C96.2239 204.62 96.0081 205.217 95.5765 205.662C95.1448 206.104 94.5531 206.325 93.8011 206.325C93.1267 206.325 92.567 206.134 92.1219 205.753C91.6802 205.369 91.4408 204.863 91.4037 204.236H92.5923C92.6395 204.593 92.7676 204.868 92.9767 205.06C93.1858 205.249 93.4589 205.344 93.7961 205.344C94.1737 205.344 94.4671 205.209 94.6762 204.939C94.8886 204.669 94.9948 204.302 94.9948 203.836C94.9948 203.388 94.8785 203.034 94.6458 202.774C94.4131 202.511 94.0928 202.38 93.6848 202.38C93.4623 202.38 93.2734 202.41 93.1183 202.471C92.9632 202.528 92.7946 202.643 92.6125 202.815L91.6313 202.572ZM97.5187 202.572L97.9183 198.859H101.874V199.921H98.94L98.7376 201.682C99.0782 201.486 99.4626 201.388 99.8909 201.388C100.592 201.388 101.137 201.613 101.525 202.061C101.916 202.509 102.111 203.113 102.111 203.872C102.111 204.62 101.895 205.217 101.464 205.662C101.032 206.104 100.44 206.325 99.6885 206.325C99.0141 206.325 98.4544 206.134 98.0093 205.753C97.5676 205.369 97.3282 204.863 97.2911 204.236H98.4797C98.5269 204.593 98.655 204.868 98.8641 205.06C99.0732 205.249 99.3463 205.344 99.6835 205.344C100.061 205.344 100.354 205.209 100.564 204.939C100.776 204.669 100.882 204.302 100.882 203.836C100.882 203.388 100.766 203.034 100.533 202.774C100.301 202.511 99.9802 202.38 99.5722 202.38C99.3497 202.38 99.1608 202.41 99.0057 202.471C98.8506 202.528 98.682 202.643 98.4999 202.815L97.5187 202.572ZM103.406 202.572L103.806 198.859H107.761V199.921H104.827L104.625 201.682C104.966 201.486 105.35 201.388 105.778 201.388C106.48 201.388 107.024 201.613 107.412 202.061C107.803 202.509 107.999 203.113 107.999 203.872C107.999 204.62 107.783 205.217 107.351 205.662C106.92 206.104 106.328 206.325 105.576 206.325C104.902 206.325 104.342 206.134 103.897 205.753C103.455 205.369 103.216 204.863 103.178 204.236H104.367C104.414 204.593 104.542 204.868 104.751 205.06C104.961 205.249 105.234 205.344 105.571 205.344C105.949 205.344 106.242 205.209 106.451 204.939C106.663 204.669 106.77 204.302 106.77 203.836C106.77 203.388 106.653 203.034 106.421 202.774C106.188 202.511 105.868 202.38 105.46 202.38C105.237 202.38 105.048 202.41 104.893 202.471C104.738 202.528 104.569 202.643 104.387 202.815L103.406 202.572ZM112.293 206.224H111.069V200.311L109.263 200.928V199.891L112.136 198.834H112.293V206.224Z" fill="#1B2125"/>
<rect width="68.8846" height="30.0399" transform="translate(149.939 182.239)" fill="#5583FF"/>
<path d="M171.434 197.259C171.434 200.12 169.115 202.439 166.254 202.439C163.394 202.439 161.075 200.12 161.075 197.259C161.075 194.399 163.394 192.08 166.254 192.08C169.115 192.08 171.434 194.399 171.434 197.259Z" fill="white"/>
<path fill-rule="evenodd" clip-rule="evenodd" d="M161.23 196.007C161.922 193.232 164.732 191.543 167.507 192.235C170.282 192.927 171.971 195.737 171.279 198.512C170.587 201.287 167.776 202.975 165.001 202.284C162.227 201.592 160.538 198.781 161.23 196.007ZM167.812 197.356C168.183 197.27 168.464 197.026 168.539 196.522C168.641 195.833 168.117 195.462 167.4 195.214L167.633 194.28L167.064 194.139L166.837 195.048C166.688 195.011 166.534 194.975 166.382 194.941L166.61 194.026L166.042 193.884L165.809 194.818C165.685 194.79 165.564 194.762 165.446 194.732L165.447 194.73L164.662 194.534L164.512 195.141C164.512 195.141 164.934 195.238 164.924 195.244C165.155 195.301 165.196 195.454 165.189 195.575L164.924 196.638C164.94 196.642 164.96 196.648 164.983 196.657L164.923 196.642L164.551 198.132C164.523 198.202 164.452 198.307 164.291 198.267C164.297 198.275 163.878 198.164 163.878 198.164L163.595 198.814L164.335 198.998C164.421 199.02 164.505 199.042 164.589 199.064C164.64 199.077 164.69 199.09 164.741 199.103L164.505 200.047L165.073 200.19L165.305 199.255C165.461 199.298 165.612 199.337 165.759 199.373L165.527 200.303L166.095 200.444L166.33 199.501C167.3 199.685 168.029 199.611 168.335 198.735C168.582 198.029 168.323 197.621 167.812 197.356ZM165.945 196.747L166.229 195.613C166.261 195.621 166.302 195.63 166.347 195.64C166.748 195.729 167.565 195.91 167.416 196.511C167.269 197.099 166.426 196.875 166.039 196.772C166.004 196.762 165.972 196.754 165.945 196.747ZM165.49 198.571L165.803 197.32C165.841 197.33 165.888 197.34 165.941 197.352C166.421 197.459 167.405 197.68 167.239 198.343C167.078 198.99 166.063 198.722 165.6 198.6C165.559 198.589 165.522 198.579 165.49 198.571Z" fill="#F7931A"/>
<path d="M176.326 201.303V193.938H178.85C179.682 193.938 180.316 194.105 180.751 194.439C181.186 194.773 181.404 195.27 181.404 195.931C181.404 196.268 181.313 196.572 181.131 196.842C180.949 197.111 180.682 197.32 180.332 197.469C180.729 197.577 181.036 197.781 181.252 198.081C181.471 198.378 181.581 198.735 181.581 199.153C181.581 199.844 181.358 200.375 180.913 200.746C180.472 201.117 179.838 201.303 179.011 201.303H176.326ZM177.605 197.98V200.281H179.027C179.428 200.281 179.741 200.182 179.967 199.983C180.193 199.784 180.306 199.507 180.306 199.153C180.306 198.388 179.915 197.997 179.133 197.98H177.605ZM177.605 197.039H178.86C179.258 197.039 179.568 196.95 179.79 196.771C180.016 196.589 180.129 196.333 180.129 196.002C180.129 195.638 180.025 195.375 179.816 195.213C179.61 195.051 179.288 194.97 178.85 194.97H177.605V197.039ZM188.04 194.97H185.744V201.303H184.474V194.97H182.198V193.938H188.04V194.97ZM194.489 198.905C194.414 199.691 194.124 200.305 193.619 200.746C193.113 201.185 192.44 201.404 191.601 201.404C191.014 201.404 190.496 201.266 190.048 200.989C189.603 200.709 189.259 200.313 189.016 199.801C188.773 199.288 188.647 198.693 188.637 198.015V197.327C188.637 196.633 188.76 196.021 189.006 195.491C189.252 194.962 189.604 194.554 190.063 194.267C190.525 193.981 191.058 193.837 191.661 193.837C192.474 193.837 193.128 194.058 193.624 194.5C194.119 194.942 194.408 195.565 194.489 196.371H193.214C193.153 195.842 192.998 195.461 192.749 195.228C192.503 194.992 192.14 194.874 191.661 194.874C191.105 194.874 190.677 195.078 190.377 195.486C190.08 195.891 189.928 196.486 189.921 197.272V197.924C189.921 198.72 190.063 199.327 190.346 199.745C190.633 200.163 191.051 200.372 191.601 200.372C192.103 200.372 192.481 200.259 192.734 200.033C192.986 199.807 193.147 199.431 193.214 198.905H194.489Z" fill="white"/>
<path d="M207.841 195.858L205.618 198.082L203.394 195.858L202.662 196.591L205.618 199.547L208.574 196.591L207.841 195.858Z" fill="white" fill-opacity="0.4"/>
</g>
<g filter="url(#filter1_d)">
<rect x="45.3174" y="220.566" width="173.506" height="24.8606" rx="6.21515" fill="#03B481"/>
<path d="M123.114 236.781V229.785H125.564C126.413 229.785 127.057 229.949 127.496 230.275C127.935 230.599 128.154 231.075 128.154 231.702C128.154 232.045 128.066 232.348 127.89 232.611C127.714 232.87 127.469 233.061 127.155 233.182C127.514 233.272 127.796 233.453 128.001 233.725C128.209 233.998 128.313 234.331 128.313 234.725C128.313 235.397 128.098 235.907 127.669 236.253C127.24 236.599 126.628 236.775 125.834 236.781H123.114ZM124.555 233.735V235.623H125.79C126.13 235.623 126.394 235.543 126.583 235.383C126.775 235.22 126.871 234.995 126.871 234.71C126.871 234.07 126.54 233.744 125.877 233.735H124.555ZM124.555 232.716H125.622C126.349 232.703 126.713 232.413 126.713 231.847C126.713 231.529 126.62 231.302 126.434 231.164C126.252 231.023 125.962 230.953 125.564 230.953H124.555V232.716ZM134.694 229.785V234.393C134.694 235.159 134.454 235.764 133.973 236.209C133.496 236.655 132.842 236.877 132.013 236.877C131.196 236.877 130.547 236.661 130.067 236.229C129.586 235.796 129.341 235.202 129.332 234.446V229.785H130.773V234.403C130.773 234.861 130.882 235.196 131.1 235.407C131.321 235.615 131.625 235.719 132.013 235.719C132.823 235.719 133.235 235.293 133.248 234.441V229.785H134.694ZM138.288 232.937L139.744 229.785H141.32L139.023 234.244V236.781H137.558V234.244L135.261 229.785H136.842L138.288 232.937Z" fill="white"/>
</g>
</g>
<defs>
<filter id="filter0_d" x="8.02599" y="0.963916" width="248.088" height="283.825" filterUnits="userSpaceOnUse" color-interpolation-filters="sRGB">
<feFlood flood-opacity="0" result="BackgroundImageFix"/>
<feColorMatrix in="SourceAlpha" type="matrix" values="0 0 0 0 0 0 0 0 0 0 0 0 0 0 0 0 0 0 127 0" result="hardAlpha"/>
<feOffset dy="2.07172"/>
<feGaussianBlur stdDeviation="10.3586"/>
<feColorMatrix type="matrix" values="0 0 0 0 0.0247917 0 0 0 0 0.411542 0 0 0 0 0.991667 0 0 0 0.25 0"/>
<feBlend mode="normal" in2="BackgroundImageFix" result="effect1_dropShadow"/>
<feBlend mode="normal" in="SourceGraphic" in2="effect1_dropShadow" result="shape"/>
</filter>
<filter id="filter1_d" x="37.0305" y="213.315" width="190.08" height="41.4344" filterUnits="userSpaceOnUse" color-interpolation-filters="sRGB">
<feFlood flood-opacity="0" result="BackgroundImageFix"/>
<feColorMatrix in="SourceAlpha" type="matrix" values="0 0 0 0 0 0 0 0 0 0 0 0 0 0 0 0 0 0 127 0" result="hardAlpha"/>
<feOffset dy="1.03586"/>
<feGaussianBlur stdDeviation="4.14344"/>
<feColorMatrix type="matrix" values="0 0 0 0 0 0 0 0 0 0.223529 0 0 0 0 0.65098 0 0 0 0.08 0"/>
<feBlend mode="normal" in2="BackgroundImageFix" result="effect1_dropShadow"/>
<feBlend mode="normal" in="SourceGraphic" in2="effect1_dropShadow" result="shape"/>
</filter>
<clipPath id="clip0">
<rect x="45.3174" y="65.1875" width="173.506" height="30.0399" rx="4.14344" fill="white"/>
</clipPath>
<clipPath id="clip1">
<rect width="69.9205" height="30.0399" fill="white" transform="translate(148.903 65.1875)"/>
</clipPath>
<clipPath id="clip2">
<rect width="11.3944" height="11.3944" fill="white" transform="translate(51.5322 103.515)"/>
</clipPath>
<clipPath id="clip3">
<rect width="9.32273" height="9.32273" fill="white" transform="translate(192.15 104.81)"/>
</clipPath>
<clipPath id="clip4">
<rect width="11.3944" height="11.3944" fill="white" transform="translate(51.5322 123.195)"/>
</clipPath>
<clipPath id="clip5">
<rect width="11.3944" height="11.3944" fill="white" transform="translate(51.5322 142.877)"/>
</clipPath>
<clipPath id="clip6">
<rect width="9.32273" height="9.32273" fill="white" transform="translate(188.007 144.173)"/>
</clipPath>
<clipPath id="clip7">
<rect width="11.3944" height="11.3944" fill="white" transform="translate(51.5322 162.559)"/>
</clipPath>
<clipPath id="clip8">
<rect x="45.3174" y="182.239" width="173.506" height="30.0399" rx="4.14344" fill="white"/>
</clipPath>
</defs>
</svg>
