<svg width="151" height="172" viewBox="0 0 151 172" fill="none" xmlns="http://www.w3.org/2000/svg">
    <g filter="url(#filter0_d)">
        <rect x="13.4297" y="12" width="124.141" height="145.609" rx="7.46713" fill="white"/>
        <rect x="23.3857" y="21.9561" width="104.229" height="12.4452" rx="2.48904" fill="#F3F9FF"/>
        <rect x="24.6304" y="23.2002" width="50.8698" height="9.95617" rx="2.48904" fill="#5583FF"/>
        <path d="M46.18 29.4443V26.3476H47.2413C47.5915 26.3476 47.8581 26.4178 48.041 26.5582C48.2239 26.6985 48.3154 26.9077 48.3154 27.1856C48.3154 27.3274 48.2771 27.455 48.2005 27.5684C48.124 27.6819 48.012 27.7698 47.8645 27.8322C48.0318 27.8775 48.1608 27.9633 48.2516 28.0895C48.3437 28.2143 48.3898 28.3646 48.3898 28.5404C48.3898 28.8311 48.2962 29.0544 48.1091 29.2104C47.9233 29.3664 47.6568 29.4443 47.3094 29.4443H46.18ZM46.7181 28.047V29.0147H47.3158C47.4845 29.0147 47.6164 28.9729 47.7114 28.8892C47.8064 28.8056 47.8539 28.6893 47.8539 28.5404C47.8539 28.2186 47.6894 28.0541 47.3604 28.047H46.7181ZM46.7181 27.6514H47.2456C47.4129 27.6514 47.5433 27.6138 47.6369 27.5387C47.7319 27.4621 47.7794 27.3543 47.7794 27.2154C47.7794 27.0622 47.7355 26.9516 47.6475 26.8836C47.5611 26.8155 47.4256 26.7815 47.2413 26.7815H46.7181V27.6514ZM51.193 26.3476V28.4171C51.193 28.746 51.0874 29.0069 50.8761 29.1997C50.6663 29.3912 50.3862 29.4869 50.036 29.4869C49.6815 29.4869 49.4001 29.3926 49.1917 29.204C48.9832 29.014 48.879 28.751 48.879 28.4149V26.3476H49.415V28.4192C49.415 28.6262 49.4674 28.7843 49.5724 28.8935C49.6773 29.0027 49.8318 29.0572 50.036 29.0572C50.4501 29.0572 50.6571 28.8389 50.6571 28.4022V26.3476H51.193ZM52.7797 27.8152L53.4922 26.3476H54.0877L53.0498 28.3043V29.4443H52.5096V28.3043L51.4695 26.3476H52.0672L52.7797 27.8152Z" fill="white"/>
        <path d="M97.8904 28.6468C97.8904 28.5106 97.8421 28.4057 97.7457 28.332C97.6507 28.2583 97.4785 28.1838 97.2289 28.1087C96.9793 28.0335 96.7808 27.9499 96.6334 27.8577C96.3512 27.6805 96.2101 27.4493 96.2101 27.1643C96.2101 26.9148 96.3115 26.7092 96.5143 26.5475C96.7184 26.3859 96.9829 26.3051 97.3076 26.3051C97.5231 26.3051 97.7152 26.3448 97.884 26.4242C98.0527 26.5036 98.1853 26.617 98.2817 26.7645C98.3781 26.9105 98.4263 27.0729 98.4263 27.2515H97.8904C97.8904 27.0899 97.8393 26.9637 97.7372 26.873C97.6365 26.7808 97.4919 26.7347 97.3033 26.7347C97.1275 26.7347 96.9907 26.7723 96.8929 26.8474C96.7964 26.9226 96.7482 27.0275 96.7482 27.1622C96.7482 27.2756 96.8007 27.3706 96.9056 27.4472C97.0105 27.5224 97.1835 27.5961 97.4246 27.6684C97.6656 27.7393 97.8592 27.8208 98.0052 27.913C98.1512 28.0037 98.2583 28.1087 98.3264 28.2278C98.3944 28.3455 98.4285 28.4837 98.4285 28.6425C98.4285 28.9006 98.3292 29.1062 98.1307 29.2593C97.9336 29.411 97.6656 29.4869 97.3267 29.4869C97.1027 29.4869 96.8964 29.4458 96.7078 29.3635C96.5207 29.2799 96.3746 29.165 96.2697 29.019C96.1662 28.8729 96.1144 28.7028 96.1144 28.5085H96.6525C96.6525 28.6843 96.7107 28.8205 96.8269 28.9169C96.9432 29.0133 97.1098 29.0615 97.3267 29.0615C97.5139 29.0615 97.6543 29.0239 97.7479 28.9488C97.8429 28.8722 97.8904 28.7715 97.8904 28.6468ZM100.711 28.0619H99.4387V29.0147H100.925V29.4443H98.9006V26.3476H100.911V26.7815H99.4387V27.6365H100.711V28.0619ZM101.902 29.0147H103.307V29.4443H101.364V26.3476H101.902V29.0147ZM104.258 29.0147H105.664V29.4443H103.72V26.3476H104.258V29.0147Z" fill="#5583FF"/>
        <g clip-path="url(#clip0)">
            <rect x="23.3857" y="39.3789" width="104.229" height="18.0456" rx="2.48904" fill="white"/>
            <rect width="62.2261" height="18.0456" transform="translate(23.3857 39.3789)" fill="#E2EFFC"/>
            <path d="M28.4229 44.3262L29.2311 42.7714H29.6948L28.6271 44.7133V45.8682H28.2187V44.7133L27.151 42.7714H27.619L28.4229 44.3262ZM29.7884 44.6963C29.7884 44.4708 29.8323 44.2681 29.9202 44.088C30.0096 43.9079 30.1329 43.7689 30.2903 43.6711C30.4491 43.5733 30.6299 43.5244 30.8327 43.5244C31.146 43.5244 31.3991 43.6328 31.5919 43.8498C31.7862 44.0667 31.8833 44.3553 31.8833 44.7154V44.7431C31.8833 44.9671 31.8401 45.1684 31.7536 45.3471C31.6685 45.5243 31.5459 45.6626 31.3856 45.7618C31.2268 45.8611 31.0439 45.9107 30.8369 45.9107C30.525 45.9107 30.2719 45.8022 30.0776 45.5853C29.8848 45.3684 29.7884 45.0812 29.7884 44.7239V44.6963ZM30.184 44.7431C30.184 44.9983 30.2428 45.2032 30.3605 45.3577C30.4796 45.5123 30.6384 45.5895 30.8369 45.5895C31.0368 45.5895 31.1956 45.5116 31.3133 45.3556C31.431 45.1982 31.4899 44.9784 31.4899 44.6963C31.4899 44.4439 31.4296 44.2397 31.3091 44.0837C31.19 43.9263 31.0312 43.8476 30.8327 43.8476C30.6384 43.8476 30.4817 43.9249 30.3626 44.0795C30.2435 44.234 30.184 44.4552 30.184 44.7431ZM33.7975 45.6406C33.6444 45.8207 33.4196 45.9107 33.1233 45.9107C32.878 45.9107 32.6908 45.8398 32.5618 45.698C32.4342 45.5548 32.3697 45.3435 32.3682 45.0642V43.5669H32.7617V45.0536C32.7617 45.4024 32.9035 45.5768 33.1871 45.5768C33.4877 45.5768 33.6876 45.4648 33.7869 45.2407V43.5669H34.1803V45.8682H33.806L33.7975 45.6406ZM37.2005 45.2578C37.2005 45.1514 37.1601 45.0692 37.0793 45.011C36.9999 44.9515 36.8602 44.9004 36.6603 44.8579C36.4618 44.8154 36.3037 44.7643 36.186 44.7048C36.0697 44.6452 35.9832 44.5743 35.9265 44.4921C35.8712 44.4098 35.8436 44.312 35.8436 44.1986C35.8436 44.01 35.923 43.8505 36.0818 43.72C36.242 43.5896 36.4462 43.5244 36.6943 43.5244C36.9552 43.5244 37.1665 43.5917 37.3281 43.7264C37.4912 43.8611 37.5727 44.0334 37.5727 44.2432H37.1771C37.1771 44.1355 37.131 44.0426 37.0389 43.9646C36.9481 43.8866 36.8333 43.8476 36.6943 43.8476C36.5511 43.8476 36.4391 43.8788 36.3583 43.9412C36.2774 44.0036 36.237 44.0851 36.237 44.1858C36.237 44.2808 36.2746 44.3524 36.3497 44.4006C36.4249 44.4488 36.5603 44.4949 36.756 44.5389C36.9531 44.5828 37.1126 44.6353 37.2345 44.6963C37.3565 44.7572 37.4465 44.831 37.5046 44.9175C37.5642 45.0025 37.594 45.1067 37.594 45.2301C37.594 45.4357 37.5117 45.6009 37.3472 45.7257C37.1828 45.849 36.9694 45.9107 36.7071 45.9107C36.5227 45.9107 36.3597 45.8781 36.2179 45.8129C36.0761 45.7476 35.9648 45.6569 35.884 45.5406C35.8046 45.4229 35.7649 45.296 35.7649 45.1599H36.1583C36.1654 45.2918 36.2179 45.3967 36.3157 45.4747C36.415 45.5513 36.5454 45.5895 36.7071 45.5895C36.8559 45.5895 36.975 45.5598 37.0644 45.5002C37.1551 45.4392 37.2005 45.3584 37.2005 45.2578ZM39.0615 45.9107C38.7496 45.9107 38.4958 45.8086 38.3001 45.6044C38.1044 45.3988 38.0066 45.1245 38.0066 44.7813V44.709C38.0066 44.4807 38.0498 44.2773 38.1363 44.0986C38.2242 43.9185 38.3462 43.7782 38.5021 43.6775C38.6595 43.5754 38.8297 43.5244 39.0126 43.5244C39.3118 43.5244 39.5443 43.6229 39.7102 43.82C39.8761 44.0171 39.959 44.2992 39.959 44.6665V44.8303H38.4C38.4057 45.0571 38.4717 45.2407 38.5978 45.3811C38.7255 45.5201 38.8871 45.5895 39.0828 45.5895C39.2217 45.5895 39.3394 45.5612 39.4358 45.5045C39.5322 45.4478 39.6166 45.3726 39.6889 45.279L39.9293 45.4662C39.7364 45.7625 39.4472 45.9107 39.0615 45.9107ZM39.0126 43.8476C38.8538 43.8476 38.7205 43.9058 38.6127 44.022C38.505 44.1369 38.4383 44.2985 38.4128 44.507H39.5656V44.4772C39.5542 44.2773 39.5003 44.1227 39.4039 44.0135C39.3075 43.9029 39.1771 43.8476 39.0126 43.8476ZM40.7885 43.5669L40.8013 43.8561C40.9771 43.635 41.2068 43.5244 41.4904 43.5244C41.9767 43.5244 42.222 43.7987 42.2263 44.3475V45.8682H41.8328V44.3453C41.8314 44.1794 41.7931 44.0568 41.718 43.9774C41.6442 43.898 41.5287 43.8583 41.3713 43.8583C41.2437 43.8583 41.1317 43.8923 41.0352 43.9604C40.9388 44.0284 40.8637 44.1178 40.8098 44.2283V45.8682H40.4163V43.5669H40.7885ZM42.724 44.6984C42.724 44.3453 42.8076 44.0617 42.9749 43.8476C43.1423 43.6321 43.3613 43.5244 43.6321 43.5244C43.9015 43.5244 44.1149 43.6165 44.2723 43.8008V42.6013H44.6658V45.8682H44.3042L44.2851 45.6214C44.1277 45.8143 43.9086 45.9107 43.6279 45.9107C43.3613 45.9107 43.1437 45.8015 42.9749 45.5832C42.8076 45.3648 42.724 45.0798 42.724 44.7282V44.6984ZM43.1174 44.7431C43.1174 45.0039 43.1713 45.2081 43.2791 45.3556C43.3868 45.5031 43.5357 45.5768 43.7257 45.5768C43.9753 45.5768 44.1575 45.4648 44.2723 45.2407V44.1837C44.1546 43.9667 43.9739 43.8583 43.73 43.8583C43.5371 43.8583 43.3868 43.9327 43.2791 44.0816C43.1713 44.2305 43.1174 44.451 43.1174 44.7431Z" fill="#3092EC"/>
            <path d="M30.4249 53.7793H27.4503V53.2719L28.9239 51.6646C29.1366 51.4276 29.2875 51.2301 29.3767 51.0721C29.4678 50.9121 29.5134 50.7521 29.5134 50.592C29.5134 50.3814 29.4536 50.2112 29.3341 50.0816C29.2166 49.9519 29.0576 49.8871 28.8571 49.8871C28.6181 49.8871 28.4327 49.96 28.3011 50.1059C28.1694 50.2517 28.1036 50.4513 28.1036 50.7045H27.3652C27.3652 50.4351 27.426 50.193 27.5476 49.9783C27.6711 49.7615 27.8463 49.5934 28.0732 49.4739C28.3021 49.3544 28.5654 49.2946 28.8632 49.2946C29.2926 49.2946 29.6309 49.403 29.878 49.6198C30.1271 49.8345 30.2517 50.1322 30.2517 50.513C30.2517 50.7338 30.1889 50.9658 30.0633 51.2088C29.9398 51.4499 29.7362 51.7243 29.4526 52.0322L28.371 53.1899H30.4249V53.7793ZM33.8704 51.9168C33.8704 52.5528 33.7509 53.0329 33.5119 53.357C33.2749 53.679 32.9133 53.8401 32.4272 53.8401C31.9492 53.8401 31.5886 53.6831 31.3455 53.3691C31.1045 53.0531 30.9809 52.5862 30.9748 51.9684V51.2027C30.9748 50.5667 31.0933 50.0897 31.3303 49.7717C31.5694 49.4537 31.933 49.2946 32.4211 49.2946C32.9052 49.2946 33.2658 49.4496 33.5028 49.7595C33.7418 50.0694 33.8644 50.5333 33.8704 51.1511V51.9168ZM33.1321 51.0903C33.1321 50.6751 33.0754 50.3712 32.962 50.1788C32.8485 49.9844 32.6682 49.8871 32.4211 49.8871C32.1801 49.8871 32.0028 49.9793 31.8894 50.1636C31.776 50.3459 31.7162 50.6315 31.7101 51.0204V52.0231C31.7101 52.4363 31.7679 52.7442 31.8833 52.9468C31.9988 53.1493 32.1801 53.2506 32.4272 53.2506C32.6642 53.2506 32.8394 53.1574 32.9528 52.9711C33.0663 52.7827 33.126 52.489 33.1321 52.09V51.0903ZM37.4071 51.9168C37.4071 52.5528 37.2876 53.0329 37.0486 53.357C36.8116 53.679 36.45 53.8401 35.9639 53.8401C35.4858 53.8401 35.1253 53.6831 34.8822 53.3691C34.6412 53.0531 34.5176 52.5862 34.5115 51.9684V51.2027C34.5115 50.5667 34.63 50.0897 34.867 49.7717C35.106 49.4537 35.4696 49.2946 35.9578 49.2946C36.4419 49.2946 36.8025 49.4496 37.0395 49.7595C37.2785 50.0694 37.401 50.5333 37.4071 51.1511V51.9168ZM36.6688 51.0903C36.6688 50.6751 36.6121 50.3712 36.4986 50.1788C36.3852 49.9844 36.2049 49.8871 35.9578 49.8871C35.7168 49.8871 35.5395 49.9793 35.4261 50.1636C35.3126 50.3459 35.2529 50.6315 35.2468 51.0204V52.0231C35.2468 52.4363 35.3045 52.7442 35.42 52.9468C35.5355 53.1493 35.7168 53.2506 35.9639 53.2506C36.2009 53.2506 36.3761 53.1574 36.4895 52.9711C36.6029 52.7827 36.6627 52.489 36.6688 52.09V51.0903Z" fill="#1B2125"/>
            <g clip-path="url(#clip1)">
                <rect width="42.0026" height="18.0456" transform="translate(85.6118 39.3789)" fill="white"/>
                <rect width="42.0026" height="18.0456" transform="translate(85.6118 39.3789)" fill="#5583FF"/>
                <path d="M98.9902 48.4013C98.9902 50.1197 97.5972 51.5126 95.8789 51.5126C94.1606 51.5126 92.7676 50.1197 92.7676 48.4013C92.7676 46.683 94.1606 45.29 95.8789 45.29C97.5972 45.29 98.9902 46.683 98.9902 48.4013Z" fill="white"/>
                <path fill-rule="evenodd" clip-rule="evenodd" d="M92.7676 48.4013C92.7676 46.6858 94.1633 45.29 95.8789 45.29C97.5945 45.29 98.9902 46.6858 98.9902 48.4013C98.9902 50.1169 97.5945 51.5127 95.8789 51.5127C94.1633 51.5127 92.7676 50.1169 92.7676 48.4013ZM96.979 49.5573C97.0244 49.6581 97.066 49.7605 97.1068 49.8628C97.1439 49.9551 97.1197 50.0295 97.0259 50.0737C96.9291 50.1194 96.8277 50.1566 96.7256 50.1853C96.3331 50.2962 95.9406 50.3001 95.5511 50.1706C95.08 50.014 94.7669 49.6853 94.5801 49.2232C94.554 49.1579 94.5345 49.0896 94.5149 49.0212C94.5077 48.9963 94.5006 48.9713 94.4931 48.9464H94.124C94.062 48.9464 94.0121 48.8952 94.0121 48.8317V48.5766C94.0121 48.513 94.062 48.4618 94.124 48.4618H94.4303V48.2541H94.124C94.062 48.2541 94.0121 48.2029 94.0121 48.1393V47.8843C94.0121 47.8207 94.062 47.7695 94.124 47.7695H94.5128L94.5256 47.73C94.63 47.3881 94.81 47.0973 95.0875 46.8771C95.3076 46.7019 95.5625 46.6058 95.8355 46.5608C96.2235 46.4973 96.5993 46.5515 96.9639 46.6973C96.9873 46.7066 97.01 46.7174 97.0319 46.7306C97.1197 46.7833 97.1424 46.8508 97.1038 46.9462C97.0629 47.0477 97.0221 47.1485 96.9775 47.2477C96.9389 47.3338 96.8867 47.3609 96.7967 47.34C96.7429 47.3275 96.6895 47.313 96.6362 47.2986C96.5673 47.28 96.4986 47.2614 96.4292 47.247C96.169 47.1919 95.9111 47.1896 95.6585 47.2919C95.4415 47.3803 95.3091 47.5501 95.2184 47.7618C95.2169 47.7633 95.2169 47.7664 95.2169 47.7695H95.9731C96.0352 47.7695 96.0851 47.8207 96.0851 47.8843V48.1393C96.0851 48.2029 96.0352 48.2541 95.9731 48.2541H95.108C95.1075 48.2993 95.1076 48.3446 95.1078 48.3908C95.1079 48.4142 95.108 48.4378 95.108 48.4618H95.9731C96.0352 48.4618 96.0851 48.513 96.0851 48.5766V48.8317C96.0851 48.8952 96.0352 48.9464 95.9731 48.9464H95.1836C95.2789 49.2255 95.4339 49.4418 95.7251 49.5356C95.9573 49.6108 96.1932 49.6062 96.4284 49.5558C96.4975 49.5413 96.5659 49.5227 96.6344 49.5042C96.6866 49.4901 96.7388 49.4759 96.7914 49.4635C96.8875 49.441 96.9389 49.4674 96.979 49.5573Z" fill="#0148FF"/>
                <path d="M104.514 48.8483H102.697V50.2095H104.821V50.8232H101.929V46.3994H104.8V47.0192H102.697V48.2406H104.514V48.8483ZM108.683 46.3994V49.3557C108.683 49.8256 108.532 50.1983 108.23 50.4738C107.931 50.7473 107.53 50.884 107.03 50.884C106.524 50.884 106.122 50.7493 105.824 50.4799C105.526 50.2085 105.377 49.8327 105.377 49.3527V46.3994H106.143V49.3587C106.143 49.6545 106.218 49.8803 106.368 50.0363C106.518 50.1923 106.738 50.2703 107.03 50.2703C107.622 50.2703 107.917 49.9583 107.917 49.3344V46.3994H108.683ZM111.132 49.1187H110.275V50.8232H109.506V46.3994H111.062C111.573 46.3994 111.966 46.5138 112.244 46.7427C112.521 46.9716 112.66 47.3028 112.66 47.7362C112.66 48.032 112.588 48.2801 112.445 48.4806C112.303 48.6792 112.104 48.8321 111.849 48.9394L112.843 50.7837V50.8232H112.019L111.132 49.1187ZM110.275 48.5019H111.065C111.324 48.5019 111.527 48.4371 111.673 48.3075C111.819 48.1758 111.892 47.9965 111.892 47.7697C111.892 47.5327 111.824 47.3494 111.688 47.2197C111.554 47.0901 111.354 47.0232 111.086 47.0192H110.275V48.5019Z" fill="white"/>
                <path d="M120.549 47.5596L119.214 48.8953L117.878 47.5596L117.438 47.9995L119.214 49.7751L120.989 47.9995L120.549 47.5596Z" fill="white" fill-opacity="0.4"/>
            </g>
        </g>
        <rect x="30.2305" y="57.4248" width="0.622261" height="4.97809" fill="#1A88EE"/>
        <g clip-path="url(#clip2)">
            <path fill-rule="evenodd" clip-rule="evenodd" d="M32.963 63.4043C34.2977 64.7394 34.2977 66.9119 32.963 68.2469C31.6279 69.5819 29.4556 69.5819 28.1202 68.2469C26.7855 66.9119 26.7855 64.7394 28.1202 63.4043C29.4556 62.0696 31.6279 62.0696 32.963 63.4043ZM32.4814 63.8893C33.5497 64.9578 33.5497 66.6967 32.4814 67.7652C31.4128 68.8337 29.6741 68.8337 28.6052 67.7652C27.5369 66.6967 27.5369 64.9578 28.6052 63.8893C29.6741 62.8211 31.4128 62.8211 32.4814 63.8893Z" fill="#1A88EE"/>
            <path d="M29.0356 66.2354H32.0474V65.4141H29.0356V66.2354Z" fill="#353535"/>
        </g>
        <path d="M38.7672 67.3369H36.685V66.9817L37.7165 65.8566C37.8654 65.6907 37.971 65.5525 38.0334 65.4419C38.0972 65.3299 38.1291 65.2178 38.1291 65.1058C38.1291 64.9584 38.0873 64.8393 38.0036 64.7485C37.9214 64.6578 37.8101 64.6124 37.6697 64.6124C37.5024 64.6124 37.3726 64.6634 37.2805 64.7655C37.1883 64.8676 37.1422 65.0073 37.1422 65.1845H36.6254C36.6254 64.9959 36.6679 64.8265 36.753 64.6762C36.8395 64.5245 36.9622 64.4068 37.121 64.3231C37.2812 64.2395 37.4655 64.1977 37.6739 64.1977C37.9745 64.1977 38.2113 64.2735 38.3843 64.4252C38.5587 64.5755 38.6459 64.784 38.6459 65.0505C38.6459 65.2051 38.602 65.3674 38.5141 65.5376C38.4276 65.7063 38.2851 65.8984 38.0866 66.114L37.3294 66.9243H38.7672V67.3369ZM39.5158 66.7924C39.6122 66.7924 39.6867 66.8201 39.7391 66.8754C39.7916 66.9293 39.8178 66.9973 39.8178 67.0796C39.8178 67.1604 39.7916 67.2277 39.7391 67.2816C39.6867 67.3341 39.6122 67.3603 39.5158 67.3603C39.4237 67.3603 39.3506 67.3341 39.2967 67.2816C39.2429 67.2292 39.2159 67.1618 39.2159 67.0796C39.2159 66.9973 39.2422 66.9293 39.2946 66.8754C39.3471 66.8201 39.4208 66.7924 39.5158 66.7924ZM42.1255 66.2331H42.5104V66.6478H42.1255V67.3369H41.6087V66.6478H40.2709L40.256 66.333L41.5916 64.2402H42.1255V66.2331ZM40.7983 66.2331H41.6087V64.9399L41.5704 65.008L40.7983 66.2331ZM44.3183 66.0417C44.1453 66.2246 43.9432 66.316 43.7121 66.316C43.4399 66.316 43.2229 66.221 43.0613 66.031C42.8997 65.8396 42.8188 65.5886 42.8188 65.2781C42.8188 65.0739 42.86 64.8889 42.9422 64.723C43.0244 64.5571 43.1414 64.4281 43.2931 64.3359C43.4448 64.2437 43.6207 64.1977 43.8206 64.1977C44.1325 64.1977 44.38 64.3139 44.5629 64.5465C44.7458 64.779 44.8372 65.0902 44.8372 65.4802V65.6248C44.8372 66.1834 44.711 66.6095 44.4587 66.903C44.2063 67.1965 43.8298 67.3454 43.3293 67.3497H43.2676V66.9222H43.342C43.6469 66.9179 43.8809 66.8449 44.0439 66.7031C44.207 66.5599 44.2984 66.3394 44.3183 66.0417ZM43.8206 65.9119C43.9241 65.9119 44.0212 65.8821 44.112 65.8226C44.2027 65.763 44.2729 65.6808 44.3225 65.5759V65.3738C44.3225 65.1455 44.2757 64.9619 44.1822 64.823C44.0886 64.684 43.9673 64.6145 43.8185 64.6145C43.6696 64.6145 43.5505 64.6762 43.4612 64.7996C43.3732 64.9215 43.3293 65.0761 43.3293 65.2632C43.3293 65.4575 43.374 65.6142 43.4633 65.7333C43.5526 65.8524 43.6717 65.9119 43.8206 65.9119ZM48.3062 65.9545H47.0343V66.9073H48.521V67.3369H46.4962V64.2402H48.5061V64.6741H47.0343V65.5291H48.3062V65.9545ZM51.2242 64.2402V66.3096C51.2242 66.6386 51.1186 66.8995 50.9073 67.0923C50.6975 67.2837 50.4174 67.3795 50.0672 67.3795C49.7127 67.3795 49.4313 67.2852 49.2228 67.0966C49.0144 66.9066 48.9102 66.6436 48.9102 66.3075V64.2402H49.4462V66.3118C49.4462 66.5188 49.4986 66.6769 49.6035 66.7861C49.7085 66.8952 49.863 66.9498 50.0672 66.9498C50.4812 66.9498 50.6882 66.7315 50.6882 66.2947V64.2402H51.2242ZM52.9385 66.1437H52.3387V67.3369H51.8006V64.2402H52.8896C53.2469 64.2402 53.5227 64.3203 53.7169 64.4805C53.9112 64.6408 54.0083 64.8726 54.0083 65.176C54.0083 65.383 53.958 65.5567 53.8573 65.6971C53.758 65.8361 53.6191 65.9431 53.4404 66.0183L54.1359 67.3093V67.3369H53.5595L52.9385 66.1437ZM52.3387 65.712H52.8917C53.0732 65.712 53.215 65.6666 53.3171 65.5759C53.4191 65.4837 53.4702 65.3582 53.4702 65.1994C53.4702 65.0335 53.4227 64.9052 53.3277 64.8144C53.2341 64.7237 53.0937 64.6769 52.9066 64.6741H52.3387V65.712Z" fill="#353535"/>
        <path d="M85.198 66.066H83.9913V67.3359H83.6121V64.4604H85.3935V64.7725H83.9913V65.756H85.198V66.066ZM86.6338 67.3754C86.3441 67.3754 86.1084 67.2806 85.9267 67.091C85.745 66.9001 85.6542 66.6454 85.6542 66.3267V66.2596C85.6542 66.0476 85.6943 65.8587 85.7747 65.6928C85.8563 65.5256 85.9695 65.3952 86.1143 65.3017C86.2605 65.2069 86.4185 65.1595 86.5883 65.1595C86.8661 65.1595 87.0821 65.2511 87.2361 65.4341C87.3902 65.6171 87.4672 65.8791 87.4672 66.2201V66.3722H86.0195C86.0248 66.5828 86.086 66.7533 86.2032 66.8837C86.3217 67.0127 86.4718 67.0772 86.6535 67.0772C86.7825 67.0772 86.8918 67.0509 86.9813 66.9982C87.0709 66.9456 87.1492 66.8758 87.2164 66.7889L87.4395 66.9627C87.2605 67.2378 86.9919 67.3754 86.6338 67.3754ZM86.5883 65.4597C86.4409 65.4597 86.3171 65.5137 86.217 65.6217C86.117 65.7283 86.0551 65.8784 86.0314 66.072H87.1018V66.0443C87.0913 65.8587 87.0413 65.7152 86.9517 65.6138C86.8622 65.5111 86.7411 65.4597 86.5883 65.4597ZM88.7786 67.3754C88.4889 67.3754 88.2532 67.2806 88.0715 67.091C87.8898 66.9001 87.799 66.6454 87.799 66.3267V66.2596C87.799 66.0476 87.8391 65.8587 87.9194 65.6928C88.0011 65.5256 88.1143 65.3952 88.2591 65.3017C88.4053 65.2069 88.5633 65.1595 88.7331 65.1595C89.0109 65.1595 89.2269 65.2511 89.3809 65.4341C89.535 65.6171 89.612 65.8791 89.612 66.2201V66.3722H88.1643C88.1696 66.5828 88.2308 66.7533 88.348 66.8837C88.4665 67.0127 88.6166 67.0772 88.7983 67.0772C88.9273 67.0772 89.0366 67.0509 89.1261 66.9982C89.2157 66.9456 89.294 66.8758 89.3612 66.7889L89.5843 66.9627C89.4053 67.2378 89.1367 67.3754 88.7786 67.3754ZM88.7331 65.4597C88.5857 65.4597 88.4619 65.5137 88.3618 65.6217C88.2618 65.7283 88.1999 65.8784 88.1762 66.072H89.2466V66.0443C89.2361 65.8587 89.1861 65.7152 89.0965 65.6138C89.007 65.5111 88.8859 65.4597 88.7331 65.4597ZM91.2808 66.7691C91.2808 66.6704 91.2433 66.594 91.1682 66.54C91.0945 66.4847 90.9648 66.4373 90.7792 66.3978C90.5948 66.3583 90.448 66.3109 90.3388 66.2556C90.2308 66.2003 90.1505 66.1345 90.0978 66.0581C90.0465 65.9818 90.0208 65.8909 90.0208 65.7856C90.0208 65.6105 90.0945 65.4624 90.242 65.3412C90.3908 65.2201 90.5804 65.1595 90.8108 65.1595C91.053 65.1595 91.2492 65.2221 91.3993 65.3472C91.5507 65.4722 91.6264 65.6322 91.6264 65.8271H91.2591C91.2591 65.727 91.2163 65.6408 91.1307 65.5684C91.0465 65.4959 90.9398 65.4597 90.8108 65.4597C90.6778 65.4597 90.5738 65.4887 90.4987 65.5466C90.4237 65.6046 90.3862 65.6803 90.3862 65.7738C90.3862 65.862 90.4211 65.9285 90.4908 65.9732C90.5606 66.018 90.6864 66.0608 90.868 66.1016C91.0511 66.1424 91.1992 66.1911 91.3124 66.2477C91.4256 66.3044 91.5092 66.3728 91.5632 66.4531C91.6185 66.5321 91.6462 66.6289 91.6462 66.7435C91.6462 66.9344 91.5698 67.0878 91.4171 67.2036C91.2644 67.3182 91.0662 67.3754 90.8226 67.3754C90.6515 67.3754 90.5 67.3452 90.3684 67.2846C90.2367 67.224 90.1334 67.1398 90.0583 67.0318C89.9846 66.9225 89.9477 66.8047 89.9477 66.6783H90.3131C90.3197 66.8007 90.3684 66.8982 90.4592 66.9706C90.5514 67.0417 90.6725 67.0772 90.8226 67.0772C90.9609 67.0772 91.0715 67.0496 91.1544 66.9943C91.2387 66.9377 91.2808 66.8626 91.2808 66.7691ZM93.5224 67.3359H93.157V65.199H93.5224V67.3359ZM93.1274 64.6322C93.1274 64.573 93.1452 64.523 93.1807 64.4821C93.2176 64.4413 93.2716 64.4209 93.3427 64.4209C93.4138 64.4209 93.4677 64.4413 93.5046 64.4821C93.5415 64.523 93.5599 64.573 93.5599 64.6322C93.5599 64.6915 93.5415 64.7409 93.5046 64.7804C93.4677 64.8199 93.4138 64.8396 93.3427 64.8396C93.2716 64.8396 93.2176 64.8199 93.1807 64.7804C93.1452 64.7409 93.1274 64.6915 93.1274 64.6322ZM94.4546 65.199L94.4664 65.4676C94.6297 65.2622 94.843 65.1595 95.1063 65.1595C95.5579 65.1595 95.7857 65.4143 95.7896 65.9238V67.3359H95.4243V65.9219C95.4229 65.7678 95.3874 65.6539 95.3176 65.5802C95.2491 65.5065 95.1418 65.4696 94.9957 65.4696C94.8772 65.4696 94.7732 65.5012 94.6836 65.5644C94.5941 65.6276 94.5243 65.7106 94.4743 65.8133V67.3359H94.1089V65.199H94.4546ZM97.1978 67.0772C97.3281 67.0772 97.442 67.0377 97.5394 66.9587C97.6369 66.8797 97.6908 66.781 97.7014 66.6625H98.047C98.0404 66.7849 97.9983 66.9014 97.9206 67.012C97.8429 67.1226 97.7389 67.2109 97.6085 67.2767C97.4795 67.3425 97.3426 67.3754 97.1978 67.3754C96.9068 67.3754 96.6751 67.2787 96.5026 67.0851C96.3314 66.8903 96.2458 66.6243 96.2458 66.2872V66.226C96.2458 66.018 96.284 65.833 96.3604 65.6711C96.4367 65.5091 96.546 65.3834 96.6882 65.2938C96.8317 65.2043 97.0009 65.1595 97.1958 65.1595C97.4354 65.1595 97.6342 65.2313 97.7922 65.3748C97.9515 65.5183 98.0365 65.7046 98.047 65.9337H97.7014C97.6908 65.7955 97.6382 65.6822 97.5434 65.594C97.4499 65.5045 97.334 65.4597 97.1958 65.4597C97.0101 65.4597 96.866 65.5269 96.7633 65.6612C96.6619 65.7942 96.6112 65.987 96.6112 66.2398V66.309C96.6112 66.5552 96.6619 66.7448 96.7633 66.8777C96.8647 67.0107 97.0095 67.0772 97.1978 67.0772ZM98.8547 67.3359H98.4894V64.3024H98.8547V67.3359ZM100.761 67.1246C100.618 67.2918 100.41 67.3754 100.135 67.3754C99.9067 67.3754 99.7329 67.3096 99.6131 67.1779C99.4946 67.045 99.4347 66.8488 99.4334 66.5894V65.199H99.7988V66.5795C99.7988 66.9034 99.9304 67.0654 100.194 67.0654C100.473 67.0654 100.659 66.9614 100.751 66.7533V65.199H101.116V67.3359H100.768L100.761 67.1246ZM102.56 67.3754C102.27 67.3754 102.034 67.2806 101.853 67.091C101.671 66.9001 101.58 66.6454 101.58 66.3267V66.2596C101.58 66.0476 101.62 65.8587 101.701 65.6928C101.782 65.5256 101.896 65.3952 102.04 65.3017C102.186 65.2069 102.344 65.1595 102.514 65.1595C102.792 65.1595 103.008 65.2511 103.162 65.4341C103.316 65.6171 103.393 65.8791 103.393 66.2201V66.3722H101.946C101.951 66.5828 102.012 66.7533 102.129 66.8837C102.248 67.0127 102.398 67.0772 102.579 67.0772C102.709 67.0772 102.818 67.0509 102.907 66.9982C102.997 66.9456 103.075 66.8758 103.142 66.7889L103.366 66.9627C103.186 67.2378 102.918 67.3754 102.56 67.3754ZM102.514 65.4597C102.367 65.4597 102.243 65.5137 102.143 65.6217C102.043 65.7283 101.981 65.8784 101.957 66.072H103.028V66.0443C103.017 65.8587 102.967 65.7152 102.878 65.6138C102.788 65.5111 102.667 65.4597 102.514 65.4597ZM103.729 66.2497C103.729 65.9219 103.807 65.6585 103.962 65.4597C104.117 65.2596 104.321 65.1595 104.572 65.1595C104.822 65.1595 105.021 65.2451 105.167 65.4163V64.3024H105.532V67.3359H105.196L105.179 67.1068C105.032 67.2859 104.829 67.3754 104.568 67.3754C104.321 67.3754 104.119 67.2741 103.962 67.0713C103.807 66.8685 103.729 66.6039 103.729 66.2774V66.2497ZM104.094 66.2912C104.094 66.5335 104.144 66.723 104.244 66.86C104.344 66.9969 104.483 67.0654 104.659 67.0654C104.891 67.0654 105.06 66.9614 105.167 66.7533V65.7718C105.057 65.5703 104.89 65.4696 104.663 65.4696C104.484 65.4696 104.344 65.5387 104.244 65.677C104.144 65.8152 104.094 66.02 104.094 66.2912ZM106.988 67.3754C106.698 67.3754 106.462 67.2806 106.281 67.091C106.099 66.9001 106.008 66.6454 106.008 66.3267V66.2596C106.008 66.0476 106.048 65.8587 106.128 65.6928C106.21 65.5256 106.323 65.3952 106.468 65.3017C106.614 65.2069 106.772 65.1595 106.942 65.1595C107.22 65.1595 107.436 65.2511 107.59 65.4341C107.744 65.6171 107.821 65.8791 107.821 66.2201V66.3722H106.373C106.379 66.5828 106.44 66.7533 106.557 66.8837C106.676 67.0127 106.826 67.0772 107.007 67.0772C107.136 67.0772 107.246 67.0509 107.335 66.9982C107.425 66.9456 107.503 66.8758 107.57 66.7889L107.793 66.9627C107.614 67.2378 107.346 67.3754 106.988 67.3754ZM106.942 65.4597C106.795 65.4597 106.671 65.5137 106.571 65.6217C106.471 65.7283 106.409 65.8784 106.385 66.072H107.456V66.0443C107.445 65.8587 107.395 65.7152 107.306 65.6138C107.216 65.5111 107.095 65.4597 106.942 65.4597ZM108.157 66.2497C108.157 65.9219 108.234 65.6585 108.39 65.4597C108.545 65.2596 108.749 65.1595 109 65.1595C109.25 65.1595 109.448 65.2451 109.595 65.4163V64.3024H109.96V67.3359H109.624L109.606 67.1068C109.46 67.2859 109.257 67.3754 108.996 67.3754C108.749 67.3754 108.546 67.2741 108.39 67.0713C108.234 66.8685 108.157 66.6039 108.157 66.2774V66.2497ZM108.522 66.2912C108.522 66.5335 108.572 66.723 108.672 66.86C108.772 66.9969 108.911 67.0654 109.087 67.0654C109.319 67.0654 109.488 66.9614 109.595 66.7533V65.7718C109.485 65.5703 109.317 65.4696 109.091 65.4696C108.912 65.4696 108.772 65.5387 108.672 65.677C108.572 65.8152 108.522 66.02 108.522 66.2912Z" fill="#797979"/>
        <g clip-path="url(#clip3)">
            <path fill-rule="evenodd" clip-rule="evenodd" d="M111.942 65.9809C111.942 64.6943 112.989 63.6475 114.275 63.6475C115.562 63.6475 116.609 64.6943 116.609 65.9809C116.609 67.2676 115.562 68.3144 114.275 68.3144C112.989 68.3144 111.942 67.2676 111.942 65.9809ZM112.409 65.9809C112.409 67.0102 113.246 67.8477 114.275 67.8477C115.305 67.8477 116.142 67.0102 116.142 65.9809C116.142 64.9516 115.305 64.1142 114.275 64.1142C113.246 64.1142 112.409 64.9516 112.409 65.9809ZM114.509 67.1477V65.7476H114.042V67.1477H114.509ZM114.509 65.2809V64.8142H114.042V65.2809H114.509Z" fill="#ABD5FD"/>
        </g>
        <rect x="30.2305" y="69.248" width="0.622261" height="4.97809" fill="#1A88EE"/>
        <g clip-path="url(#clip4)">
            <path fill-rule="evenodd" clip-rule="evenodd" d="M32.963 75.2266C34.2977 76.5616 34.2977 78.7342 32.963 80.0692C31.6279 81.4042 29.4556 81.4042 28.1202 80.0692C26.7855 78.7342 26.7855 76.5616 28.1202 75.2266C29.4556 73.8919 31.6279 73.8919 32.963 75.2266ZM32.4814 75.7116C33.5497 76.7801 33.5497 78.5189 32.4814 79.5874C31.4128 80.6559 29.6741 80.6559 28.6052 79.5874C27.5369 78.5189 27.5369 76.7801 28.6052 75.7116C29.6741 74.6433 31.4128 74.6433 32.4814 75.7116Z" fill="#1A88EE"/>
            <path d="M32.0474 77.4056H29.0356V76.9639H32.0474V77.4056ZM32.0474 78.3328H29.0356V77.8933H32.0474V78.3328Z" fill="#353535"/>
        </g>
        <path d="M38.0844 79.1592H37.5697V76.6729L36.8104 76.9323V76.4963L38.0185 76.0518H38.0844V79.1592ZM41.111 76.8792C41.111 77.0309 41.072 77.1663 40.994 77.2854C40.916 77.4031 40.8097 77.496 40.675 77.564C40.8366 77.6392 40.9607 77.742 41.0472 77.8724C41.1351 78.0029 41.179 78.1503 41.179 78.3148C41.179 78.5871 41.0869 78.8033 40.9025 78.9635C40.7182 79.1223 40.4729 79.2017 40.1666 79.2017C39.8589 79.2017 39.6122 79.1216 39.4265 78.9614C39.2422 78.8012 39.15 78.5856 39.15 78.3148C39.15 78.1489 39.1939 78 39.2819 77.8682C39.3698 77.7363 39.4931 77.6349 39.6519 77.564C39.5187 77.496 39.413 77.4031 39.335 77.2854C39.2585 77.1663 39.2202 77.0309 39.2202 76.8792C39.2202 76.6154 39.3053 76.4063 39.4754 76.2518C39.6456 76.0972 39.8753 76.0199 40.1645 76.0199C40.4552 76.0199 40.6856 76.0972 40.8557 76.2518C41.0259 76.4063 41.111 76.6154 41.111 76.8792ZM40.6622 78.2893C40.6622 78.1362 40.6161 78.0128 40.5239 77.9192C40.4332 77.8242 40.3127 77.7767 40.1624 77.7767C40.0121 77.7767 39.8916 77.8235 39.8008 77.9171C39.7115 78.0107 39.6668 78.1347 39.6668 78.2893C39.6668 78.441 39.7108 78.5622 39.7987 78.653C39.888 78.7437 40.0107 78.7891 40.1666 78.7891C40.3226 78.7891 40.4438 78.7451 40.5303 78.6572C40.6182 78.5693 40.6622 78.4467 40.6622 78.2893ZM40.5963 76.8983C40.5963 76.7636 40.5573 76.653 40.4793 76.5665C40.4013 76.4786 40.2964 76.4347 40.1645 76.4347C40.0326 76.4347 39.9284 76.4765 39.8519 76.5601C39.7753 76.6424 39.737 76.7551 39.737 76.8983C39.737 77.0401 39.7753 77.1528 39.8519 77.2365C39.9298 77.3201 40.0348 77.362 40.1666 77.362C40.2985 77.362 40.4027 77.3201 40.4793 77.2365C40.5573 77.1528 40.5963 77.0401 40.5963 76.8983ZM43.6547 77.8554C43.6547 78.3006 43.571 78.6367 43.4037 78.8635C43.2378 79.089 42.9847 79.2017 42.6444 79.2017C42.3098 79.2017 42.0574 79.0918 41.8873 78.8721C41.7185 78.6509 41.632 78.324 41.6278 77.8916V77.3556C41.6278 76.9104 41.7107 76.5765 41.8766 76.3538C42.044 76.1312 42.2985 76.0199 42.6402 76.0199C42.9791 76.0199 43.2315 76.1284 43.3973 76.3453C43.5647 76.5623 43.6504 76.887 43.6547 77.3194V77.8554ZM43.1379 77.2769C43.1379 76.9862 43.0982 76.7735 43.0188 76.6388C42.9394 76.5027 42.8132 76.4347 42.6402 76.4347C42.4715 76.4347 42.3474 76.4992 42.268 76.6282C42.1886 76.7558 42.1467 76.9557 42.1425 77.228V77.9299C42.1425 78.2191 42.1829 78.4346 42.2637 78.5764C42.3445 78.7182 42.4715 78.7891 42.6444 78.7891C42.8103 78.7891 42.933 78.7239 43.0124 78.5934C43.0918 78.4616 43.1336 78.256 43.1379 77.9766V77.2769ZM47.0896 77.7767H45.8177V78.7296H47.3044V79.1592H45.2796V76.0625H47.2895V76.4963H45.8177V77.3513H47.0896V77.7767ZM50.0077 76.0625V78.1319C50.0077 78.4609 49.902 78.7218 49.6907 78.9146C49.4809 79.106 49.2009 79.2017 48.8506 79.2017C48.4962 79.2017 48.2147 79.1074 48.0063 78.9188C47.7978 78.7288 47.6936 78.4658 47.6936 78.1298V76.0625H48.2296V78.134C48.2296 78.341 48.2821 78.4991 48.387 78.6083C48.4919 78.7175 48.6465 78.7721 48.8506 78.7721C49.2647 78.7721 49.4717 78.5537 49.4717 78.117V76.0625H50.0077ZM51.7219 77.966H51.1221V79.1592H50.584V76.0625H51.673C52.0303 76.0625 52.3061 76.1426 52.5003 76.3028C52.6946 76.463 52.7917 76.6948 52.7917 76.9983C52.7917 77.2053 52.7414 77.379 52.6407 77.5194C52.5415 77.6583 52.4025 77.7654 52.2238 77.8405L52.9193 79.1315V79.1592H52.343L51.7219 77.966ZM51.1221 77.5343H51.6751C51.8566 77.5343 51.9984 77.4889 52.1005 77.3981C52.2026 77.306 52.2536 77.1805 52.2536 77.0217C52.2536 76.8558 52.2061 76.7275 52.1111 76.6367C52.0175 76.546 51.8772 76.4992 51.69 76.4963H51.1221V77.5343Z" fill="#353535"/>
        <path d="M85.7273 78.2468C85.6917 78.5509 85.5791 78.7859 85.3895 78.9518C85.2013 79.1164 84.9504 79.1987 84.6371 79.1987C84.2974 79.1987 84.0249 79.0769 83.8195 78.8333C83.6154 78.5897 83.5133 78.2639 83.5133 77.8557V77.5792C83.5133 77.3119 83.5607 77.0769 83.6555 76.8742C83.7516 76.6714 83.8873 76.516 84.0624 76.4081C84.2375 76.2988 84.4402 76.2442 84.6707 76.2442C84.9761 76.2442 85.221 76.3297 85.4053 76.5009C85.5897 76.6707 85.697 76.9064 85.7273 77.2079H85.3461C85.3132 76.9788 85.2414 76.8129 85.1308 76.7102C85.0215 76.6075 84.8682 76.5562 84.6707 76.5562C84.4284 76.5562 84.2381 76.6457 84.0999 76.8248C83.963 77.0039 83.8945 77.2586 83.8945 77.5891V77.8676C83.8945 78.1796 83.9597 78.4278 84.09 78.6121C84.2204 78.7964 84.4027 78.8886 84.6371 78.8886C84.8477 78.8886 85.009 78.8412 85.1209 78.7464C85.2342 78.6503 85.3092 78.4837 85.3461 78.2468H85.7273ZM86.0926 78.071C86.0926 77.8616 86.1334 77.6734 86.2151 77.5061C86.298 77.3389 86.4126 77.2099 86.5587 77.1191C86.7062 77.0282 86.874 76.9828 87.0623 76.9828C87.3533 76.9828 87.5883 77.0835 87.7674 77.285C87.9478 77.4864 88.0379 77.7543 88.0379 78.0888V78.1144C88.0379 78.3225 87.9978 78.5094 87.9175 78.6753C87.8385 78.8399 87.7246 78.9683 87.5758 79.0604C87.4283 79.1526 87.2585 79.1987 87.0663 79.1987C86.7766 79.1987 86.5416 79.098 86.3612 78.8965C86.1822 78.6951 86.0926 78.4284 86.0926 78.0967V78.071ZM86.46 78.1144C86.46 78.3514 86.5146 78.5417 86.6239 78.6852C86.7345 78.8287 86.8819 78.9005 87.0663 78.9005C87.2519 78.9005 87.3994 78.828 87.5087 78.6832C87.6179 78.5371 87.6726 78.333 87.6726 78.071C87.6726 77.8366 87.6166 77.647 87.5047 77.5022C87.3941 77.3561 87.2467 77.283 87.0623 77.283C86.8819 77.283 86.7365 77.3547 86.6259 77.4982C86.5153 77.6418 86.46 77.8472 86.46 78.1144ZM88.8418 77.0223L88.8536 77.2909C89.0169 77.0855 89.2302 76.9828 89.4935 76.9828C89.9451 76.9828 90.1729 77.2376 90.1768 77.7471V79.1592H89.8115V77.7451C89.8101 77.5911 89.7746 77.4772 89.7048 77.4035C89.6363 77.3297 89.529 77.2929 89.3829 77.2929C89.2644 77.2929 89.1604 77.3245 89.0708 77.3877C88.9813 77.4508 88.9115 77.5338 88.8615 77.6365V79.1592H88.4961V77.0223H88.8418ZM91.4329 78.6635L91.9622 77.0223H92.3354L91.5692 79.1592H91.2907L90.5165 77.0223H90.8898L91.4329 78.6635ZM93.5461 79.1987C93.2564 79.1987 93.0207 79.1039 92.839 78.9143C92.6574 78.7234 92.5665 78.4686 92.5665 78.15V78.0828C92.5665 77.8709 92.6067 77.6819 92.687 77.516C92.7686 77.3488 92.8818 77.2185 93.0267 77.125C93.1728 77.0302 93.3308 76.9828 93.5007 76.9828C93.7785 76.9828 93.9944 77.0743 94.1484 77.2573C94.3025 77.4403 94.3795 77.7023 94.3795 78.0433V78.1954H92.9319C92.9371 78.4061 92.9984 78.5766 93.1155 78.7069C93.234 78.8359 93.3841 78.9005 93.5658 78.9005C93.6949 78.9005 93.8041 78.8741 93.8937 78.8215C93.9832 78.7688 94.0615 78.699 94.1287 78.6121L94.3519 78.7859C94.1728 79.0611 93.9042 79.1987 93.5461 79.1987ZM93.5007 77.283C93.3532 77.283 93.2294 77.337 93.1294 77.4449C93.0293 77.5516 92.9674 77.7017 92.9437 77.8952H94.0141V77.8676C94.0036 77.6819 93.9536 77.5384 93.864 77.437C93.7745 77.3343 93.6534 77.283 93.5007 77.283ZM95.837 77.3501C95.7817 77.3409 95.7218 77.3363 95.6573 77.3363C95.4177 77.3363 95.2551 77.4383 95.1695 77.6424V79.1592H94.8041V77.0223H95.1596L95.1655 77.2692C95.2853 77.0782 95.4552 76.9828 95.6751 76.9828C95.7462 76.9828 95.8002 76.992 95.837 77.0104V77.3501ZM96.7692 76.5048V77.0223H97.1681V77.3047H96.7692V78.6299C96.7692 78.7155 96.787 78.78 96.8225 78.8234C96.8581 78.8656 96.9186 78.8866 97.0042 78.8866C97.0463 78.8866 97.1043 78.8787 97.178 78.8629V79.1592C97.0819 79.1855 96.9884 79.1987 96.8976 79.1987C96.7343 79.1987 96.6112 79.1493 96.5283 79.0506C96.4453 78.9518 96.4038 78.8116 96.4038 78.6299V77.3047H96.0148V77.0223H96.4038V76.5048H96.7692ZM98.4835 79.1987C98.1938 79.1987 97.9581 79.1039 97.7764 78.9143C97.5947 78.7234 97.5039 78.4686 97.5039 78.15V78.0828C97.5039 77.8709 97.544 77.6819 97.6243 77.516C97.706 77.3488 97.8192 77.2185 97.964 77.125C98.1102 77.0302 98.2682 76.9828 98.438 76.9828C98.7158 76.9828 98.9318 77.0743 99.0858 77.2573C99.2399 77.4403 99.3169 77.7023 99.3169 78.0433V78.1954H97.8692C97.8745 78.4061 97.9357 78.5766 98.0529 78.7069C98.1714 78.8359 98.3215 78.9005 98.5032 78.9005C98.6322 78.9005 98.7415 78.8741 98.831 78.8215C98.9206 78.7688 98.9989 78.699 99.0661 78.6121L99.2892 78.7859C99.1102 79.0611 98.8416 79.1987 98.4835 79.1987ZM98.438 77.283C98.2906 77.283 98.1668 77.337 98.0667 77.4449C97.9667 77.5516 97.9048 77.7017 97.8811 77.8952H98.9515V77.8676C98.941 77.6819 98.8909 77.5384 98.8014 77.437C98.7119 77.3343 98.5908 77.283 98.438 77.283ZM99.6526 78.073C99.6526 77.7451 99.7303 77.4818 99.8857 77.283C100.041 77.0829 100.244 76.9828 100.496 76.9828C100.746 76.9828 100.944 77.0684 101.09 77.2395V76.1257H101.456V79.1592H101.12L101.102 78.9301C100.956 79.1091 100.753 79.1987 100.492 79.1987C100.244 79.1987 100.042 79.0973 99.8857 78.8945C99.7303 78.6918 99.6526 78.4271 99.6526 78.1006V78.073ZM100.018 78.1144C100.018 78.3567 100.068 78.5463 100.168 78.6832C100.268 78.8201 100.406 78.8886 100.583 78.8886C100.815 78.8886 100.984 78.7846 101.09 78.5766V77.595C100.981 77.3936 100.813 77.2929 100.587 77.2929C100.408 77.2929 100.268 77.362 100.168 77.5002C100.068 77.6385 100.018 77.8432 100.018 78.1144ZM104.347 79.1592C104.326 79.117 104.309 79.042 104.296 78.934C104.126 79.1105 103.923 79.1987 103.687 79.1987C103.477 79.1987 103.304 79.1394 103.168 79.0209C103.034 78.9011 102.967 78.7497 102.967 78.5667C102.967 78.3442 103.051 78.1717 103.219 78.0493C103.389 77.9255 103.628 77.8636 103.934 77.8636H104.29V77.6957C104.29 77.568 104.252 77.4666 104.175 77.3916C104.099 77.3152 103.986 77.2771 103.838 77.2771C103.707 77.2771 103.598 77.31 103.51 77.3758C103.421 77.4416 103.377 77.5213 103.377 77.6148H103.01C103.01 77.5081 103.048 77.4054 103.123 77.3067C103.199 77.2066 103.302 77.1276 103.431 77.0697C103.561 77.0118 103.704 76.9828 103.859 76.9828C104.105 76.9828 104.298 77.0447 104.438 77.1684C104.577 77.2909 104.65 77.4601 104.655 77.676V78.6595C104.655 78.8557 104.68 79.0117 104.73 79.1276V79.1592H104.347ZM103.741 78.8807C103.855 78.8807 103.964 78.8511 104.067 78.7918C104.169 78.7326 104.244 78.6556 104.29 78.5608V78.1223H104.003C103.556 78.1223 103.332 78.2533 103.332 78.5153C103.332 78.6299 103.37 78.7194 103.446 78.7839C103.523 78.8485 103.621 78.8807 103.741 78.8807ZM105.572 77.0223L105.581 77.2593C105.738 77.075 105.949 76.9828 106.215 76.9828C106.514 76.9828 106.718 77.0973 106.826 77.3264C106.897 77.2237 106.989 77.1408 107.102 77.0776C107.217 77.0144 107.352 76.9828 107.507 76.9828C107.976 76.9828 108.214 77.231 108.222 77.7273V79.1592H107.857V77.7491C107.857 77.5963 107.822 77.4824 107.752 77.4074C107.682 77.331 107.565 77.2929 107.4 77.2929C107.265 77.2929 107.152 77.3337 107.063 77.4153C106.973 77.4956 106.921 77.6042 106.907 77.7412V79.1592H106.539V77.7589C106.539 77.4482 106.387 77.2929 106.083 77.2929C105.843 77.2929 105.68 77.3949 105.591 77.599V79.1592H105.226V77.0223H105.572ZM108.678 78.071C108.678 77.8616 108.719 77.6734 108.801 77.5061C108.884 77.3389 108.998 77.2099 109.144 77.1191C109.292 77.0282 109.46 76.9828 109.648 76.9828C109.939 76.9828 110.174 77.0835 110.353 77.285C110.533 77.4864 110.623 77.7543 110.623 78.0888V78.1144C110.623 78.3225 110.583 78.5094 110.503 78.6753C110.424 78.8399 110.31 78.9683 110.161 79.0604C110.014 79.1526 109.844 79.1987 109.652 79.1987C109.362 79.1987 109.127 79.098 108.947 78.8965C108.768 78.6951 108.678 78.4284 108.678 78.0967V78.071ZM109.045 78.1144C109.045 78.3514 109.1 78.5417 109.209 78.6852C109.32 78.8287 109.467 78.9005 109.652 78.9005C109.837 78.9005 109.985 78.828 110.094 78.6832C110.203 78.5371 110.258 78.333 110.258 78.071C110.258 77.8366 110.202 77.647 110.09 77.5022C109.98 77.3561 109.832 77.283 109.648 77.283C109.467 77.283 109.322 77.3547 109.211 77.4982C109.101 77.6418 109.045 77.8472 109.045 78.1144ZM112.401 78.9479C112.259 79.1151 112.05 79.1987 111.775 79.1987C111.547 79.1987 111.373 79.1328 111.253 79.0012C111.135 78.8682 111.075 78.672 111.074 78.4126V77.0223H111.439V78.4028C111.439 78.7267 111.571 78.8886 111.834 78.8886C112.113 78.8886 112.299 78.7846 112.391 78.5766V77.0223H112.756V79.1592H112.409L112.401 78.9479ZM113.659 77.0223L113.671 77.2909C113.834 77.0855 114.047 76.9828 114.311 76.9828C114.762 76.9828 114.99 77.2376 114.994 77.7471V79.1592H114.629V77.7451C114.627 77.5911 114.592 77.4772 114.522 77.4035C114.454 77.3297 114.346 77.2929 114.2 77.2929C114.082 77.2929 113.978 77.3245 113.888 77.3877C113.799 77.4508 113.729 77.5338 113.679 77.6365V79.1592H113.313V77.0223H113.659ZM116.041 76.5048V77.0223H116.44V77.3047H116.041V78.6299C116.041 78.7155 116.059 78.78 116.094 78.8234C116.13 78.8656 116.19 78.8866 116.276 78.8866C116.318 78.8866 116.376 78.8787 116.45 78.8629V79.1592C116.353 79.1855 116.26 79.1987 116.169 79.1987C116.006 79.1987 115.883 79.1493 115.8 79.0506C115.717 78.9518 115.675 78.8116 115.675 78.6299V77.3047H115.286V77.0223H115.675V76.5048H116.041Z" fill="#797979"/>
        <rect x="30.2305" y="81.0703" width="0.622261" height="4.97809" fill="#1A88EE"/>
        <g clip-path="url(#clip5)">
            <path fill-rule="evenodd" clip-rule="evenodd" d="M32.963 87.0498C34.2977 88.3849 34.2977 90.5574 32.963 91.8924C31.6279 93.2275 29.4556 93.2275 28.1202 91.8924C26.7855 90.5574 26.7855 88.3849 28.1202 87.0498C29.4556 85.7152 31.6279 85.7152 32.963 87.0498ZM32.4814 87.5348C33.5497 88.6033 33.5497 90.3422 32.4814 91.4107C31.4128 92.4792 29.6741 92.4792 28.6052 91.4107C27.5369 90.3422 27.5369 88.6033 28.6052 87.5348C29.6741 86.4666 31.4128 86.4666 32.4814 87.5348Z" fill="#1A88EE"/>
            <path d="M32.0581 89.7531H29.0249V89.1895H32.0581V89.7531Z" fill="#353535"/>
            <circle cx="30.5569" cy="88.3572" r="0.429482" fill="#353535"/>
            <circle cx="30.5555" cy="90.5857" r="0.429482" fill="#353535"/>
        </g>
        <path d="M39.0989 89.3107C39.0989 89.5603 39.0316 89.7644 38.8969 89.9232C38.7622 90.0806 38.5942 90.1593 38.3928 90.1593C38.2879 90.1593 38.1908 90.1395 38.1014 90.0998C38.0135 90.0601 37.915 89.992 37.8058 89.8956C37.6966 89.7978 37.6179 89.7375 37.5697 89.7148C37.5229 89.6907 37.4726 89.6787 37.4187 89.6787C37.3237 89.6787 37.2486 89.7155 37.1933 89.7892C37.1394 89.863 37.1125 89.9594 37.1125 90.0785H36.702C36.702 89.836 36.7665 89.6375 36.8955 89.483C37.0245 89.327 37.194 89.249 37.4038 89.249C37.5088 89.249 37.608 89.2703 37.7016 89.3128C37.7966 89.354 37.8951 89.4213 37.9972 89.5149C38.1007 89.6085 38.1759 89.6673 38.2227 89.6914C38.2709 89.7155 38.3226 89.7276 38.3779 89.7276C38.4729 89.7276 38.5502 89.6879 38.6098 89.6085C38.6693 89.5291 38.6991 89.4298 38.6991 89.3107H39.0989ZM40.1794 89.198H40.4942C40.653 89.1966 40.7785 89.1554 40.8706 89.0746C40.9642 88.9938 41.011 88.8768 41.011 88.7237C41.011 88.5762 40.972 88.4621 40.894 88.3813C40.8175 88.299 40.6998 88.2579 40.541 88.2579C40.402 88.2579 40.2879 88.2983 40.1985 88.3791C40.1092 88.4585 40.0645 88.5628 40.0645 88.6918H39.5477C39.5477 88.533 39.5895 88.3884 39.6732 88.2579C39.7583 88.1275 39.876 88.0261 40.0263 87.9538C40.178 87.88 40.3474 87.8432 40.5346 87.8432C40.8437 87.8432 41.0862 87.9212 41.262 88.0771C41.4392 88.2317 41.5278 88.4472 41.5278 88.7237C41.5278 88.8626 41.4832 88.9938 41.3938 89.1172C41.3059 89.2391 41.1918 89.3313 41.0514 89.3937C41.2216 89.4518 41.3506 89.5432 41.4385 89.668C41.5278 89.7928 41.5725 89.9417 41.5725 90.1147C41.5725 90.3926 41.4768 90.6138 41.2854 90.7782C41.0954 90.9427 40.8451 91.025 40.5346 91.025C40.2368 91.025 39.9929 90.9456 39.8029 90.7868C39.6129 90.6279 39.5179 90.4167 39.5179 90.1529H40.0348C40.0348 90.2891 40.0801 90.3997 40.1709 90.4847C40.2631 90.5698 40.3864 90.6123 40.541 90.6123C40.7012 90.6123 40.8274 90.5698 40.9195 90.4847C41.0117 90.3997 41.0578 90.2763 41.0578 90.1147C41.0578 89.9516 41.0096 89.8261 40.9132 89.7382C40.8167 89.6503 40.6735 89.6063 40.4835 89.6063H40.1794V89.198ZM44.1396 90.9824H42.0574V90.6272L43.089 89.5021C43.2378 89.3362 43.3435 89.198 43.4059 89.0874C43.4697 88.9754 43.5016 88.8634 43.5016 88.7513C43.5016 88.6039 43.4597 88.4848 43.3761 88.394C43.2938 88.3033 43.1825 88.2579 43.0422 88.2579C42.8748 88.2579 42.7451 88.3089 42.6529 88.411C42.5608 88.5131 42.5147 88.6528 42.5147 88.83H41.9979C41.9979 88.6414 42.0404 88.472 42.1255 88.3217C42.212 88.17 42.3346 88.0523 42.4934 87.9687C42.6537 87.885 42.838 87.8432 43.0464 87.8432C43.347 87.8432 43.5838 87.919 43.7568 88.0707C43.9312 88.221 44.0184 88.4295 44.0184 88.696C44.0184 88.8506 43.9744 89.0129 43.8865 89.1831C43.8 89.3518 43.6575 89.544 43.459 89.7595L42.7019 90.5698H44.1396V90.9824ZM44.6394 91.68L44.3608 91.5141C44.4431 91.3851 44.4991 91.2724 44.5288 91.176C44.56 91.081 44.5763 90.9838 44.5778 90.8846V90.4826H45.0435L45.0414 90.8548C45.04 91.0051 45.0017 91.1554 44.9266 91.3057C44.8528 91.4574 44.7571 91.5822 44.6394 91.68ZM46.0878 89.198H46.4026C46.5614 89.1966 46.6869 89.1554 46.7791 89.0746C46.8726 88.9938 46.9194 88.8768 46.9194 88.7237C46.9194 88.5762 46.8804 88.4621 46.8025 88.3813C46.7259 88.299 46.6082 88.2579 46.4494 88.2579C46.3104 88.2579 46.1963 88.2983 46.107 88.3791C46.0176 88.4585 45.973 88.5628 45.973 88.6918H45.4562C45.4562 88.533 45.498 88.3884 45.5816 88.2579C45.6667 88.1275 45.7844 88.0261 45.9347 87.9538C46.0864 87.88 46.2559 87.8432 46.443 87.8432C46.7521 87.8432 46.9946 87.9212 47.1704 88.0771C47.3477 88.2317 47.4363 88.4472 47.4363 88.7237C47.4363 88.8626 47.3916 88.9938 47.3023 89.1172C47.2144 89.2391 47.1002 89.3313 46.9599 89.3937C47.13 89.4518 47.259 89.5432 47.3469 89.668C47.4363 89.7928 47.4809 89.9417 47.4809 90.1147C47.4809 90.3926 47.3852 90.6138 47.1938 90.7782C47.0038 90.9427 46.7535 91.025 46.443 91.025C46.1453 91.025 45.9014 90.9456 45.7114 90.7868C45.5214 90.6279 45.4264 90.4167 45.4264 90.1529H45.9432C45.9432 90.2891 45.9886 90.3997 46.0793 90.4847C46.1715 90.5698 46.2949 90.6123 46.4494 90.6123C46.6096 90.6123 46.7358 90.5698 46.828 90.4847C46.9201 90.3997 46.9662 90.2763 46.9662 90.1147C46.9662 89.9516 46.918 89.8261 46.8216 89.7382C46.7252 89.6503 46.582 89.6063 46.392 89.6063H46.0878V89.198ZM50.0481 90.9824H47.9659V90.6272L48.9974 89.5021C49.1463 89.3362 49.2519 89.198 49.3143 89.0874C49.3781 88.9754 49.41 88.8634 49.41 88.7513C49.41 88.6039 49.3682 88.4848 49.2845 88.394C49.2023 88.3033 49.091 88.2579 48.9506 88.2579C48.7833 88.2579 48.6535 88.3089 48.5614 88.411C48.4692 88.5131 48.4231 88.6528 48.4231 88.83H47.9063C47.9063 88.6414 47.9488 88.472 48.0339 88.3217C48.1204 88.17 48.2431 88.0523 48.4019 87.9687C48.5621 87.885 48.7464 87.8432 48.9549 87.8432C49.2555 87.8432 49.4922 87.919 49.6652 88.0707C49.8396 88.221 49.9268 88.4295 49.9268 88.696C49.9268 88.8506 49.8829 89.0129 49.795 89.1831C49.7085 89.3518 49.566 89.544 49.3675 89.7595L48.6103 90.5698H50.0481V90.9824ZM52.1898 89.8786H52.5748V90.2933H52.1898V90.9824H51.673V90.2933H50.3352L50.3203 89.9785L51.656 87.8857H52.1898V89.8786ZM50.8627 89.8786H51.673V88.5854L51.6347 88.6535L50.8627 89.8786ZM54.0849 90.9824V87.8857H55.1462C55.4964 87.8857 55.763 87.9559 55.9459 88.0963C56.1288 88.2366 56.2202 88.4458 56.2202 88.7237C56.2202 88.8655 56.1819 88.9931 56.1054 89.1065C56.0288 89.22 55.9168 89.3079 55.7693 89.3703C55.9366 89.4156 56.0657 89.5014 56.1564 89.6276C56.2486 89.7524 56.2947 89.9027 56.2947 90.0785C56.2947 90.3692 56.2011 90.5925 56.0139 90.7485C55.8282 90.9044 55.5616 90.9824 55.2142 90.9824H54.0849ZM54.623 89.5851V90.5528H55.2206C55.3893 90.5528 55.5212 90.511 55.6162 90.4273C55.7112 90.3437 55.7587 90.2274 55.7587 90.0785C55.7587 89.7566 55.5942 89.5922 55.2653 89.5851H54.623ZM54.623 89.1895H55.1504C55.3177 89.1895 55.4482 89.1519 55.5418 89.0767C55.6368 89.0002 55.6843 88.8924 55.6843 88.7535C55.6843 88.6003 55.6403 88.4897 55.5524 88.4217C55.4659 88.3536 55.3305 88.3196 55.1462 88.3196H54.623V89.1895ZM59.0107 88.3196H58.0451V90.9824H57.5112V88.3196H56.5542V87.8857H59.0107V88.3196ZM61.7224 89.9743C61.6912 90.3047 61.5693 90.5627 61.3566 90.7485C61.1439 90.9328 60.8611 91.025 60.508 91.025C60.2613 91.025 60.0436 90.9668 59.8551 90.8506C59.6679 90.7329 59.5233 90.5663 59.4212 90.3507C59.3191 90.1352 59.2659 89.885 59.2617 89.6V89.3107C59.2617 89.0186 59.3134 88.7613 59.4169 88.5387C59.5204 88.316 59.6686 88.1445 59.8614 88.0239C60.0557 87.9034 60.2797 87.8432 60.5335 87.8432C60.8752 87.8432 61.1503 87.936 61.3587 88.1218C61.5672 88.3075 61.6884 88.5698 61.7224 88.9087H61.1865C61.1609 88.6861 61.0957 88.5259 60.9908 88.4281C60.8873 88.3288 60.7349 88.2792 60.5335 88.2792C60.2996 88.2792 60.1195 88.365 59.9933 88.5365C59.8685 88.7067 59.8047 88.9569 59.8019 89.2873V89.5617C59.8019 89.8963 59.8614 90.1515 59.9805 90.3273C60.1011 90.5032 60.2769 90.5911 60.508 90.5911C60.7193 90.5911 60.8781 90.5436 60.9844 90.4486C61.0908 90.3536 61.1581 90.1955 61.1865 89.9743H61.7224ZM62.3009 91.2483H61.8947L63.1134 87.8857H63.5196L62.3009 91.2483ZM65.738 89.6H64.4661V90.5528H65.9528V90.9824H63.928V87.8857H65.9379V88.3196H64.4661V89.1746H65.738V89.6ZM68.656 87.8857V89.9551C68.656 90.2841 68.5504 90.545 68.3391 90.7378C68.1293 90.9293 67.8492 91.025 67.499 91.025C67.1445 91.025 66.8631 90.9307 66.6546 90.7421C66.4462 90.5521 66.342 90.2891 66.342 89.953V87.8857H66.878V89.9573C66.878 90.1643 66.9304 90.3224 67.0354 90.4316C67.1403 90.5407 67.2948 90.5953 67.499 90.5953C67.913 90.5953 68.1201 90.377 68.1201 89.9403V87.8857H68.656ZM70.3703 89.7892H69.7705V90.9824H69.2324V87.8857H70.3214C70.6787 87.8857 70.9545 87.9658 71.1487 88.126C71.343 88.2863 71.4401 88.5181 71.4401 88.8215C71.4401 89.0285 71.3898 89.2022 71.2891 89.3426C71.1898 89.4816 71.0509 89.5886 70.8722 89.6638L71.5677 90.9548V90.9824H70.9913L70.3703 89.7892ZM69.7705 89.3575H70.3235C70.505 89.3575 70.6468 89.3121 70.7489 89.2214C70.851 89.1292 70.902 89.0037 70.902 88.8449C70.902 88.679 70.8545 88.5507 70.7595 88.46C70.6659 88.3692 70.5255 88.3224 70.3384 88.3196H69.7705V89.3575Z" fill="#353535"/>
        <path d="M85.2375 89.6523H83.9913V90.6714H85.4389V90.9814H83.6121V88.1059H85.4192V88.418H83.9913V89.3422H85.2375V89.6523ZM86.5706 89.6247L87.0445 88.8446H87.4711L86.772 89.9011L87.4929 90.9814H87.0702L86.5765 90.1816L86.0827 90.9814H85.6581L86.379 89.9011L85.6799 88.8446H86.1025L86.5706 89.6247ZM89.6653 89.9367C89.6653 90.2619 89.5909 90.5239 89.4421 90.7227C89.2934 90.9215 89.0919 91.0209 88.8378 91.0209C88.5784 91.0209 88.3743 90.9387 88.2256 90.7741V91.803H87.8602V88.8446H88.194L88.2117 89.0815C88.3605 88.8972 88.5672 88.8051 88.8319 88.8051C89.0886 88.8051 89.2914 88.9018 89.4402 89.0954C89.5903 89.2889 89.6653 89.5582 89.6653 89.9031V89.9367ZM89.2999 89.8952C89.2999 89.6543 89.2486 89.464 89.1459 89.3245C89.0432 89.1849 88.9023 89.1151 88.7233 89.1151C88.5021 89.1151 88.3362 89.2132 88.2256 89.4094V90.4304C88.3348 90.6253 88.5021 90.7227 88.7272 90.7227C88.9023 90.7227 89.0412 90.6536 89.1439 90.5154C89.2479 90.3758 89.2999 90.1691 89.2999 89.8952ZM91.0181 91.0209C90.7285 91.0209 90.4928 90.9261 90.3111 90.7366C90.1294 90.5456 90.0386 90.2909 90.0386 89.9722V89.9051C90.0386 89.6931 90.0787 89.5042 90.159 89.3383C90.2407 89.1711 90.3539 89.0407 90.4987 88.9472C90.6449 88.8525 90.8029 88.8051 90.9727 88.8051C91.2505 88.8051 91.4665 88.8966 91.6205 89.0796C91.7745 89.2626 91.8516 89.5246 91.8516 89.8656V90.0177H90.4039C90.4092 90.2283 90.4704 90.3988 90.5876 90.5292C90.7061 90.6582 90.8562 90.7227 91.0379 90.7227C91.1669 90.7227 91.2762 90.6964 91.3657 90.6437C91.4553 90.5911 91.5336 90.5213 91.6008 90.4344L91.8239 90.6082C91.6449 90.8834 91.3763 91.0209 91.0181 91.0209ZM90.9727 89.1052C90.8253 89.1052 90.7015 89.1592 90.6014 89.2672C90.5014 89.3738 90.4395 89.5239 90.4158 89.7175H91.4862V89.6898C91.4757 89.5042 91.4256 89.3607 91.3361 89.2593C91.2466 89.1566 91.1254 89.1052 90.9727 89.1052ZM93.1333 90.7227C93.2637 90.7227 93.3775 90.6832 93.475 90.6042C93.5724 90.5252 93.6264 90.4265 93.6369 90.308H93.9825C93.976 90.4304 93.9338 90.547 93.8561 90.6576C93.7785 90.7682 93.6745 90.8564 93.5441 90.9222C93.4151 90.988 93.2781 91.0209 93.1333 91.0209C92.8423 91.0209 92.6106 90.9242 92.4381 90.7306C92.267 90.5358 92.1814 90.2698 92.1814 89.9327V89.8715C92.1814 89.6635 92.2196 89.4785 92.2959 89.3166C92.3723 89.1546 92.4816 89.0289 92.6238 88.9393C92.7673 88.8498 92.9365 88.8051 93.1313 88.8051C93.371 88.8051 93.5698 88.8768 93.7278 89.0203C93.8871 89.1638 93.972 89.3501 93.9825 89.5792H93.6369C93.6264 89.441 93.5737 89.3278 93.4789 89.2395C93.3854 89.15 93.2696 89.1052 93.1313 89.1052C92.9457 89.1052 92.8015 89.1724 92.6988 89.3067C92.5974 89.4397 92.5468 89.6326 92.5468 89.8853V89.9545C92.5468 90.2007 92.5974 90.3903 92.6988 90.5233C92.8002 90.6562 92.945 90.7227 93.1333 90.7227ZM94.889 88.3271V88.8446H95.288V89.127H94.889V90.4522C94.889 90.5377 94.9068 90.6023 94.9424 90.6457C94.9779 90.6878 95.0385 90.7089 95.1241 90.7089C95.1662 90.7089 95.2241 90.701 95.2979 90.6852V90.9814C95.2017 91.0078 95.1083 91.0209 95.0174 91.0209C94.8542 91.0209 94.731 90.9716 94.6481 90.8728C94.5652 90.7741 94.5237 90.6339 94.5237 90.4522V89.127H94.1346V88.8446H94.5237V88.3271H94.889ZM96.6033 91.0209C96.3136 91.0209 96.078 90.9261 95.8963 90.7366C95.7146 90.5456 95.6237 90.2909 95.6237 89.9722V89.9051C95.6237 89.6931 95.6639 89.5042 95.7442 89.3383C95.8258 89.1711 95.9391 89.0407 96.0839 88.9472C96.23 88.8525 96.388 88.8051 96.5579 88.8051C96.8357 88.8051 97.0516 88.8966 97.2057 89.0796C97.3597 89.2626 97.4367 89.5246 97.4367 89.8656V90.0177H95.9891C95.9944 90.2283 96.0556 90.3988 96.1728 90.5292C96.2913 90.6582 96.4414 90.7227 96.623 90.7227C96.7521 90.7227 96.8614 90.6964 96.9509 90.6437C97.0404 90.5911 97.1188 90.5213 97.1859 90.4344L97.4091 90.6082C97.23 90.8834 96.9614 91.0209 96.6033 91.0209ZM96.5579 89.1052C96.4104 89.1052 96.2866 89.1592 96.1866 89.2672C96.0865 89.3738 96.0246 89.5239 96.0009 89.7175H97.0714V89.6898C97.0608 89.5042 97.0108 89.3607 96.9213 89.2593C96.8317 89.1566 96.7106 89.1052 96.5579 89.1052ZM97.7725 89.8952C97.7725 89.5674 97.8501 89.3041 98.0055 89.1052C98.1609 88.9051 98.3643 88.8051 98.6158 88.8051C98.8659 88.8051 99.0641 88.8906 99.2102 89.0618V87.9479H99.5756V90.9814H99.2399L99.2221 90.7524C99.0759 90.9314 98.8725 91.0209 98.6118 91.0209C98.3643 91.0209 98.1622 90.9196 98.0055 90.7168C97.8501 90.514 97.7725 90.2494 97.7725 89.9229V89.8952ZM98.1378 89.9367C98.1378 90.179 98.1879 90.3686 98.2879 90.5055C98.388 90.6424 98.5262 90.7109 98.7027 90.7109C98.9344 90.7109 99.1036 90.6069 99.2102 90.3988V89.4173C99.101 89.2158 98.9331 89.1151 98.7066 89.1151C98.5276 89.1151 98.388 89.1842 98.2879 89.3225C98.1879 89.4607 98.1378 89.6655 98.1378 89.9367ZM102.181 89.1724C102.125 89.1632 102.065 89.1586 102.001 89.1586C101.761 89.1586 101.599 89.2606 101.513 89.4647V90.9814H101.148V88.8446H101.503L101.509 89.0914C101.629 88.9005 101.799 88.8051 102.019 88.8051C102.09 88.8051 102.144 88.8143 102.181 88.8327V89.1724ZM103.759 90.9814C103.737 90.9393 103.72 90.8643 103.707 90.7563C103.537 90.9327 103.335 91.0209 103.099 91.0209C102.888 91.0209 102.715 90.9617 102.579 90.8432C102.445 90.7234 102.378 90.572 102.378 90.389C102.378 90.1664 102.462 89.994 102.631 89.8715C102.801 89.7478 103.039 89.6859 103.346 89.6859H103.701V89.518C103.701 89.3903 103.663 89.2889 103.587 89.2139C103.51 89.1375 103.398 89.0993 103.249 89.0993C103.119 89.0993 103.009 89.1322 102.921 89.1981C102.833 89.2639 102.789 89.3436 102.789 89.437H102.421C102.421 89.3304 102.459 89.2277 102.534 89.1289C102.61 89.0289 102.713 88.9499 102.842 88.8919C102.973 88.834 103.115 88.8051 103.271 88.8051C103.517 88.8051 103.71 88.8669 103.849 88.9907C103.989 89.1131 104.061 89.2823 104.067 89.4983V90.4818C104.067 90.678 104.092 90.834 104.142 90.9498V90.9814H103.759ZM103.152 90.703C103.267 90.703 103.375 90.6734 103.478 90.6141C103.581 90.5549 103.655 90.4778 103.701 90.383V89.9446H103.415C102.967 89.9446 102.743 90.0756 102.743 90.3376C102.743 90.4522 102.782 90.5417 102.858 90.6062C102.934 90.6707 103.032 90.703 103.152 90.703ZM105.135 88.3271V88.8446H105.534V89.127H105.135V90.4522C105.135 90.5377 105.153 90.6023 105.188 90.6457C105.224 90.6878 105.285 90.7089 105.37 90.7089C105.412 90.7089 105.47 90.701 105.544 90.6852V90.9814C105.448 91.0078 105.354 91.0209 105.263 91.0209C105.1 91.0209 104.977 90.9716 104.894 90.8728C104.811 90.7741 104.77 90.6339 104.77 90.4522V89.127H104.381V88.8446H104.77V88.3271H105.135ZM106.849 91.0209C106.56 91.0209 106.324 90.9261 106.142 90.7366C105.961 90.5456 105.87 90.2909 105.87 89.9722V89.9051C105.87 89.6931 105.91 89.5042 105.99 89.3383C106.072 89.1711 106.185 89.0407 106.33 88.9472C106.476 88.8525 106.634 88.8051 106.804 88.8051C107.082 88.8051 107.298 88.8966 107.452 89.0796C107.606 89.2626 107.683 89.5246 107.683 89.8656V90.0177H106.235C106.24 90.2283 106.302 90.3988 106.419 90.5292C106.537 90.6582 106.687 90.7227 106.869 90.7227C106.998 90.7227 107.107 90.6964 107.197 90.6437C107.286 90.5911 107.365 90.5213 107.432 90.4344L107.655 90.6082C107.476 90.8834 107.207 91.0209 106.849 91.0209ZM106.804 89.1052C106.656 89.1052 106.533 89.1592 106.433 89.2672C106.333 89.3738 106.271 89.5239 106.247 89.7175H107.317V89.6898C107.307 89.5042 107.257 89.3607 107.167 89.2593C107.078 89.1566 106.957 89.1052 106.804 89.1052Z" fill="#797979"/>
        <g clip-path="url(#clip6)">
            <path fill-rule="evenodd" clip-rule="evenodd" d="M109.451 89.6274C109.451 88.3407 110.498 87.2939 111.785 87.2939C113.071 87.2939 114.118 88.3407 114.118 89.6274C114.118 90.9141 113.071 91.9609 111.785 91.9609C110.498 91.9609 109.451 90.9141 109.451 89.6274ZM109.918 89.6274C109.918 90.6567 110.755 91.4942 111.785 91.4942C112.814 91.4942 113.651 90.6567 113.651 89.6274C113.651 88.5981 112.814 87.7606 111.785 87.7606C110.755 87.7606 109.918 88.5981 109.918 89.6274ZM112.018 90.7942V89.3941H111.551V90.7942H112.018ZM112.018 88.9274V88.4607H111.551V88.9274H112.018Z" fill="#ABD5FD"/>
        </g>
        <rect x="30.2305" y="92.8936" width="0.622261" height="4.97809" fill="#1A88EE"/>
        <g clip-path="url(#clip7)">
            <path fill-rule="evenodd" clip-rule="evenodd" d="M32.963 98.8731C34.2977 100.208 34.2977 102.381 32.963 103.716C31.6279 105.051 29.4556 105.051 28.1202 103.716C26.7855 102.381 26.7855 100.208 28.1202 98.8731C29.4556 97.5384 31.6279 97.5384 32.963 98.8731ZM32.4814 99.3581C33.5497 100.427 33.5497 102.165 32.4814 103.234C31.4128 104.302 29.6741 104.302 28.6052 103.234C27.5369 102.165 27.5369 100.427 28.6052 99.3581C29.6741 98.2898 31.4128 98.2898 32.4814 99.3581Z" fill="#1A88EE"/>
            <path d="M29.0356 101.704H32.0474V100.883H29.0356V101.704Z" fill="#353535"/>
        </g>
        <path d="M38.7034 101.502C38.7034 101.947 38.6197 102.283 38.4524 102.51C38.2865 102.735 38.0334 102.848 37.6931 102.848C37.3585 102.848 37.1061 102.738 36.9359 102.519C36.7672 102.297 36.6807 101.971 36.6764 101.538V101.002C36.6764 100.557 36.7594 100.223 36.9253 100C37.0926 99.7777 37.3471 99.6664 37.6888 99.6664C38.0277 99.6664 38.2801 99.7749 38.446 99.9918C38.6133 100.209 38.6991 100.533 38.7034 100.966V101.502ZM38.1865 100.923C38.1865 100.633 38.1468 100.42 38.0674 100.285C37.988 100.149 37.8618 100.081 37.6888 100.081C37.5201 100.081 37.396 100.146 37.3166 100.275C37.2372 100.402 37.1954 100.602 37.1911 100.874V101.576C37.1911 101.866 37.2316 102.081 37.3124 102.223C37.3932 102.365 37.5201 102.436 37.6931 102.436C37.859 102.436 37.9816 102.37 38.061 102.24C38.1404 102.108 38.1823 101.902 38.1865 101.623V100.923ZM39.5158 102.261C39.6122 102.261 39.6867 102.289 39.7391 102.344C39.7916 102.398 39.8178 102.466 39.8178 102.548C39.8178 102.629 39.7916 102.696 39.7391 102.75C39.6867 102.803 39.6122 102.829 39.5158 102.829C39.4237 102.829 39.3506 102.803 39.2967 102.75C39.2429 102.698 39.2159 102.631 39.2159 102.548C39.2159 102.466 39.2422 102.398 39.2946 102.344C39.3471 102.289 39.4208 102.261 39.5158 102.261ZM42.3956 101.502C42.3956 101.947 42.3119 102.283 42.1446 102.51C41.9787 102.735 41.7256 102.848 41.3853 102.848C41.0507 102.848 40.7983 102.738 40.6282 102.519C40.4594 102.297 40.3729 101.971 40.3687 101.538V101.002C40.3687 100.557 40.4516 100.223 40.6175 100C40.7848 99.7777 41.0394 99.6664 41.3811 99.6664C41.72 99.6664 41.9723 99.7749 42.1382 99.9918C42.3056 100.209 42.3913 100.533 42.3956 100.966V101.502ZM41.8788 100.923C41.8788 100.633 41.8391 100.42 41.7597 100.285C41.6803 100.149 41.5541 100.081 41.3811 100.081C41.2123 100.081 41.0883 100.146 41.0089 100.275C40.9295 100.402 40.8876 100.602 40.8834 100.874V101.576C40.8834 101.866 40.9238 102.081 41.0046 102.223C41.0854 102.365 41.2123 102.436 41.3853 102.436C41.5512 102.436 41.6739 102.37 41.7533 102.24C41.8327 102.108 41.8745 101.902 41.8788 101.623V100.923ZM44.8713 101.502C44.8713 101.947 44.7876 102.283 44.6203 102.51C44.4544 102.735 44.2013 102.848 43.861 102.848C43.5264 102.848 43.274 102.738 43.1038 102.519C42.9351 102.297 42.8486 101.971 42.8444 101.538V101.002C42.8444 100.557 42.9273 100.223 43.0932 100C43.2605 99.7777 43.515 99.6664 43.8568 99.6664C44.1956 99.6664 44.448 99.7749 44.6139 99.9918C44.7812 100.209 44.867 100.533 44.8713 100.966V101.502ZM44.3544 100.923C44.3544 100.633 44.3147 100.42 44.2353 100.285C44.1559 100.149 44.0297 100.081 43.8568 100.081C43.688 100.081 43.564 100.146 43.4845 100.275C43.4051 100.402 43.3633 100.602 43.3591 100.874V101.576C43.3591 101.866 43.3995 102.081 43.4803 102.223C43.5611 102.365 43.688 102.436 43.861 102.436C44.0269 102.436 44.1496 102.37 44.229 102.24C44.3084 102.108 44.3502 101.902 44.3544 101.623V100.923ZM45.4668 101.27L45.6348 99.7089H47.298V100.156H46.0644L45.9794 100.896C46.1226 100.813 46.2842 100.772 46.4643 100.772C46.7592 100.772 46.9882 100.867 47.1513 101.055C47.3157 101.244 47.398 101.498 47.398 101.817C47.398 102.131 47.3072 102.382 47.1257 102.57C46.9443 102.755 46.6954 102.848 46.3792 102.848C46.0956 102.848 45.8603 102.768 45.6731 102.608C45.4873 102.446 45.3867 102.234 45.3711 101.97H45.8709C45.8907 102.12 45.9446 102.236 46.0325 102.316C46.1204 102.396 46.2353 102.436 46.3771 102.436C46.5359 102.436 46.6593 102.379 46.7472 102.265C46.8365 102.152 46.8812 101.997 46.8812 101.802C46.8812 101.613 46.8322 101.464 46.7344 101.355C46.6366 101.245 46.5019 101.189 46.3303 101.189C46.2367 101.189 46.1573 101.202 46.0921 101.228C46.0269 101.252 45.956 101.3 45.8794 101.372L45.4668 101.27ZM48.9719 102.806V99.7089H50.0332C50.3834 99.7089 50.65 99.7791 50.8329 99.9195C51.0158 100.06 51.1072 100.269 51.1072 100.547C51.1072 100.689 51.069 100.816 50.9924 100.93C50.9158 101.043 50.8038 101.131 50.6563 101.193C50.8237 101.239 50.9527 101.325 51.0434 101.451C51.1356 101.576 51.1817 101.726 51.1817 101.902C51.1817 102.192 51.0881 102.416 50.9009 102.572C50.7152 102.728 50.4486 102.806 50.1012 102.806H48.9719ZM49.51 101.408V102.376H50.1076C50.2763 102.376 50.4082 102.334 50.5032 102.251C50.5982 102.167 50.6457 102.051 50.6457 101.902C50.6457 101.58 50.4812 101.415 50.1523 101.408H49.51ZM49.51 101.013H50.0374C50.2047 101.013 50.3352 100.975 50.4288 100.9C50.5238 100.823 50.5713 100.716 50.5713 100.577C50.5713 100.424 50.5273 100.313 50.4394 100.245C50.3529 100.177 50.2175 100.143 50.0332 100.143H49.51V101.013ZM53.8977 100.143H52.9321V102.806H52.3983V100.143H51.4412V99.7089H53.8977V100.143ZM56.6094 101.798C56.5783 102.128 56.4563 102.386 56.2436 102.572C56.0309 102.756 55.7481 102.848 55.395 102.848C55.1483 102.848 54.9306 102.79 54.7421 102.674C54.5549 102.556 54.4103 102.39 54.3082 102.174C54.2061 101.958 54.1529 101.708 54.1487 101.423V101.134C54.1487 100.842 54.2004 100.585 54.3039 100.362C54.4074 100.139 54.5556 99.9677 54.7484 99.8472C54.9427 99.7267 55.1667 99.6664 55.4205 99.6664C55.7622 99.6664 56.0373 99.7593 56.2458 99.945C56.4542 100.131 56.5754 100.393 56.6094 100.732H56.0735C56.048 100.509 55.9827 100.349 55.8778 100.251C55.7743 100.152 55.6219 100.102 55.4205 100.102C55.1866 100.102 55.0065 100.188 54.8803 100.36C54.7555 100.53 54.6917 100.78 54.6889 101.111V101.385C54.6889 101.72 54.7484 101.975 54.8675 102.151C54.9881 102.326 55.1639 102.414 55.395 102.414C55.6063 102.414 55.7651 102.367 55.8714 102.272C55.9778 102.177 56.0451 102.019 56.0735 101.798H56.6094Z" fill="#353535"/>
        <path d="M85.8221 102.805H85.4409L83.9933 100.589V102.805H83.6121V99.9292H83.9933L85.4448 102.155V99.9292H85.8221V102.805ZM87.325 102.844C87.0353 102.844 86.7997 102.749 86.618 102.56C86.4363 102.369 86.3454 102.114 86.3454 101.795V101.728C86.3454 101.516 86.3856 101.327 86.4659 101.162C86.5475 100.994 86.6607 100.864 86.8056 100.77C86.9517 100.676 87.1097 100.628 87.2796 100.628C87.5574 100.628 87.7733 100.72 87.9273 100.903C88.0814 101.086 88.1584 101.348 88.1584 101.689V101.841H86.7108C86.716 102.052 86.7773 102.222 86.8945 102.352C87.0129 102.481 87.163 102.546 87.3447 102.546C87.4738 102.546 87.5831 102.52 87.6726 102.467C87.7621 102.414 87.8405 102.345 87.9076 102.258L88.1308 102.431C87.9517 102.707 87.6831 102.844 87.325 102.844ZM87.2796 100.928C87.1321 100.928 87.0083 100.982 86.9083 101.09C86.8082 101.197 86.7463 101.347 86.7226 101.541H87.7931V101.513C87.7825 101.327 87.7325 101.184 87.643 101.083C87.5534 100.98 87.4323 100.928 87.2796 100.928ZM89.0787 100.15V100.668H89.4777V100.95H89.0787V102.275C89.0787 102.361 89.0965 102.425 89.1321 102.469C89.1676 102.511 89.2282 102.532 89.3138 102.532C89.3559 102.532 89.4138 102.524 89.4876 102.508V102.805C89.3914 102.831 89.298 102.844 89.2071 102.844C89.0439 102.844 88.9207 102.795 88.8378 102.696C88.7549 102.597 88.7134 102.457 88.7134 102.275V100.95H88.3243V100.668H88.7134V100.15H89.0787ZM91.7982 102.301L92.209 100.668H92.5744L91.9523 102.805H91.6561L91.1366 101.185L90.6311 102.805H90.3348L89.7147 100.668H90.0781L90.4987 102.268L90.9964 100.668H91.2907L91.7982 102.301ZM92.8509 101.716C92.8509 101.507 92.8917 101.319 92.9733 101.152C93.0563 100.984 93.1708 100.855 93.317 100.765C93.4644 100.674 93.6323 100.628 93.8206 100.628C94.1116 100.628 94.3466 100.729 94.5257 100.93C94.706 101.132 94.7962 101.4 94.7962 101.734V101.76C94.7962 101.968 94.7561 102.155 94.6757 102.321C94.5968 102.485 94.4829 102.614 94.3341 102.706C94.1866 102.798 94.0168 102.844 93.8245 102.844C93.5349 102.844 93.2999 102.743 93.1195 102.542C92.9404 102.341 92.8509 102.074 92.8509 101.742V101.716ZM93.2182 101.76C93.2182 101.997 93.2729 102.187 93.3822 102.331C93.4928 102.474 93.6402 102.546 93.8245 102.546C94.0102 102.546 94.1577 102.474 94.2669 102.329C94.3762 102.183 94.4309 101.979 94.4309 101.716C94.4309 101.482 94.3749 101.293 94.263 101.148C94.1524 101.002 94.0049 100.928 93.8206 100.928C93.6402 100.928 93.4947 101 93.3841 101.144C93.2735 101.287 93.2182 101.493 93.2182 101.76ZM96.2873 100.996C96.232 100.986 96.1721 100.982 96.1076 100.982C95.868 100.982 95.7054 101.084 95.6198 101.288V102.805H95.2544V100.668H95.6099L95.6158 100.915C95.7356 100.724 95.9055 100.628 96.1254 100.628C96.1965 100.628 96.2504 100.638 96.2873 100.656V100.996ZM97.2215 101.815L96.9924 102.054V102.805H96.627V99.7712H96.9924V101.606L97.1879 101.371L97.8534 100.668H98.2978L97.4664 101.56L98.3946 102.805H97.966L97.2215 101.815ZM99.858 102.805V100.95H99.5203V100.668H99.858V100.449C99.858 100.219 99.9192 100.042 100.042 99.9173C100.164 99.7922 100.337 99.7297 100.561 99.7297C100.645 99.7297 100.729 99.7409 100.812 99.7633L100.792 100.06C100.73 100.048 100.664 100.042 100.595 100.042C100.476 100.042 100.385 100.077 100.32 100.146C100.256 100.215 100.223 100.314 100.223 100.443V100.668H100.68V100.95H100.223V102.805H99.858ZM101.924 102.844C101.634 102.844 101.398 102.749 101.217 102.56C101.035 102.369 100.944 102.114 100.944 101.795V101.728C100.944 101.516 100.984 101.327 101.065 101.162C101.146 100.994 101.26 100.864 101.404 100.77C101.551 100.676 101.709 100.628 101.878 100.628C102.156 100.628 102.372 100.72 102.526 100.903C102.68 101.086 102.757 101.348 102.757 101.689V101.841H101.31C101.315 102.052 101.376 102.222 101.493 102.352C101.612 102.481 101.762 102.546 101.944 102.546C102.073 102.546 102.182 102.52 102.271 102.467C102.361 102.414 102.439 102.345 102.506 102.258L102.73 102.431C102.551 102.707 102.282 102.844 101.924 102.844ZM101.878 100.928C101.731 100.928 101.607 100.982 101.507 101.09C101.407 101.197 101.345 101.347 101.321 101.541H102.392V101.513C102.381 101.327 102.331 101.184 102.242 101.083C102.152 100.98 102.031 100.928 101.878 100.928ZM104.069 102.844C103.779 102.844 103.543 102.749 103.362 102.56C103.18 102.369 103.089 102.114 103.089 101.795V101.728C103.089 101.516 103.129 101.327 103.21 101.162C103.291 100.994 103.404 100.864 103.549 100.77C103.695 100.676 103.853 100.628 104.023 100.628C104.301 100.628 104.517 100.72 104.671 100.903C104.825 101.086 104.902 101.348 104.902 101.689V101.841H103.454C103.46 102.052 103.521 102.222 103.638 102.352C103.757 102.481 103.907 102.546 104.088 102.546C104.217 102.546 104.327 102.52 104.416 102.467C104.506 102.414 104.584 102.345 104.651 102.258L104.874 102.431C104.695 102.707 104.427 102.844 104.069 102.844ZM104.023 100.928C103.876 100.928 103.752 100.982 103.652 101.09C103.552 101.197 103.49 101.347 103.466 101.541H104.537V101.513C104.526 101.327 104.476 101.184 104.387 101.083C104.297 100.98 104.176 100.928 104.023 100.928ZM106.727 102.805H106.362V100.668H106.727V102.805ZM106.332 100.101C106.332 100.042 106.35 99.9917 106.385 99.9509C106.422 99.9101 106.476 99.8897 106.547 99.8897C106.618 99.8897 106.672 99.9101 106.709 99.9509C106.746 99.9917 106.764 100.042 106.764 100.101C106.764 100.16 106.746 100.21 106.709 100.249C106.672 100.289 106.618 100.308 106.547 100.308C106.476 100.308 106.422 100.289 106.385 100.249C106.35 100.21 106.332 100.16 106.332 100.101ZM107.659 100.668L107.671 100.936C107.834 100.731 108.047 100.628 108.311 100.628C108.762 100.628 108.99 100.883 108.994 101.393V102.805H108.629V101.391C108.627 101.237 108.592 101.123 108.522 101.049C108.454 100.975 108.346 100.938 108.2 100.938C108.082 100.938 107.978 100.97 107.888 101.033C107.799 101.096 107.729 101.179 107.679 101.282V102.805H107.313V100.668H107.659ZM110.402 102.546C110.533 102.546 110.647 102.506 110.744 102.427C110.841 102.348 110.895 102.25 110.906 102.131H111.251C111.245 102.254 111.203 102.37 111.125 102.481C111.047 102.591 110.943 102.68 110.813 102.745C110.684 102.811 110.547 102.844 110.402 102.844C110.111 102.844 109.88 102.747 109.707 102.554C109.536 102.359 109.45 102.093 109.45 101.756V101.695C109.45 101.487 109.489 101.302 109.565 101.14C109.641 100.978 109.751 100.852 109.893 100.763C110.036 100.673 110.205 100.628 110.4 100.628C110.64 100.628 110.839 100.7 110.997 100.844C111.156 100.987 111.241 101.173 111.251 101.402H110.906C110.895 101.264 110.843 101.151 110.748 101.063C110.654 100.973 110.539 100.928 110.4 100.928C110.215 100.928 110.07 100.996 109.968 101.13C109.866 101.263 109.816 101.456 109.816 101.709V101.778C109.816 102.024 109.866 102.214 109.968 102.346C110.069 102.479 110.214 102.546 110.402 102.546ZM112.059 102.805H111.694V99.7712H112.059V102.805ZM113.965 102.593C113.823 102.761 113.614 102.844 113.339 102.844C113.111 102.844 112.937 102.778 112.818 102.647C112.699 102.514 112.639 102.318 112.638 102.058V100.668H113.003V102.048C113.003 102.372 113.135 102.534 113.398 102.534C113.677 102.534 113.863 102.43 113.955 102.222V100.668H114.321V102.805H113.973L113.965 102.593ZM114.789 101.718C114.789 101.391 114.866 101.127 115.022 100.928C115.177 100.728 115.38 100.628 115.632 100.628C115.882 100.628 116.08 100.714 116.226 100.885V99.7712H116.592V102.805H116.256L116.238 102.576C116.092 102.755 115.889 102.844 115.628 102.844C115.38 102.844 115.178 102.743 115.022 102.54C114.866 102.337 114.789 102.073 114.789 101.746V101.718ZM115.154 101.76C115.154 102.002 115.204 102.192 115.304 102.329C115.404 102.466 115.542 102.534 115.719 102.534C115.951 102.534 116.12 102.43 116.226 102.222V101.241C116.117 101.039 115.949 100.938 115.723 100.938C115.544 100.938 115.404 101.007 115.304 101.146C115.204 101.284 115.154 101.489 115.154 101.76ZM118.047 102.844C117.758 102.844 117.522 102.749 117.34 102.56C117.159 102.369 117.068 102.114 117.068 101.795V101.728C117.068 101.516 117.108 101.327 117.188 101.162C117.27 100.994 117.383 100.864 117.528 100.77C117.674 100.676 117.832 100.628 118.002 100.628C118.28 100.628 118.496 100.72 118.65 100.903C118.804 101.086 118.881 101.348 118.881 101.689V101.841H117.433C117.438 102.052 117.5 102.222 117.617 102.352C117.735 102.481 117.885 102.546 118.067 102.546C118.196 102.546 118.305 102.52 118.395 102.467C118.484 102.414 118.563 102.345 118.63 102.258L118.853 102.431C118.674 102.707 118.405 102.844 118.047 102.844ZM118.002 100.928C117.854 100.928 117.731 100.982 117.631 101.09C117.531 101.197 117.469 101.347 117.445 101.541H118.515V101.513C118.505 101.327 118.455 101.184 118.365 101.083C118.276 100.98 118.155 100.928 118.002 100.928ZM119.216 101.718C119.216 101.391 119.294 101.127 119.45 100.928C119.605 100.728 119.808 100.628 120.06 100.628C120.31 100.628 120.508 100.714 120.654 100.885V99.7712H121.02V102.805H120.684L120.666 102.576C120.52 102.755 120.317 102.844 120.056 102.844C119.808 102.844 119.606 102.743 119.45 102.54C119.294 102.337 119.216 102.073 119.216 101.746V101.718ZM119.582 101.76C119.582 102.002 119.632 102.192 119.732 102.329C119.832 102.466 119.97 102.534 120.147 102.534C120.378 102.534 120.548 102.43 120.654 102.222V101.241C120.545 101.039 120.377 100.938 120.151 100.938C119.972 100.938 119.832 101.007 119.732 101.146C119.632 101.284 119.582 101.489 119.582 101.76Z" fill="#797979"/>
        <path fill-rule="evenodd" clip-rule="evenodd" d="M123.143 101.45C123.143 100.163 124.189 99.1162 125.476 99.1162C126.763 99.1162 127.81 100.163 127.81 101.45C127.81 102.736 126.763 103.783 125.476 103.783C124.189 103.783 123.143 102.736 123.143 101.45ZM123.609 101.45C123.609 102.479 124.447 103.316 125.476 103.316C126.505 103.316 127.343 102.479 127.343 101.45C127.343 100.42 126.505 99.5829 125.476 99.5829C124.447 99.5829 123.609 100.42 123.609 101.45ZM125.709 102.616V101.216H125.243V102.616H125.709ZM125.709 100.75V100.283H125.243V100.75H125.709Z" fill="#ABD5FD"/>
        <rect x="30.2305" y="104.717" width="0.622261" height="4.97809" fill="#1A88EE"/>
        <g clip-path="url(#clip8)">
            <rect x="23.3857" y="109.694" width="104.229" height="18.0456" rx="2.48904" fill="white"/>
            <rect width="62.8483" height="18.0456" transform="translate(23.3857 109.694)" fill="#E2EFFC"/>
            <path d="M28.4229 114.642L29.2311 113.087H29.6948L28.6271 115.029V116.184H28.2187V115.029L27.151 113.087H27.619L28.4229 114.642ZM29.7884 115.012C29.7884 114.786 29.8323 114.583 29.9202 114.403C30.0096 114.223 30.1329 114.084 30.2903 113.987C30.4491 113.889 30.6299 113.84 30.8327 113.84C31.146 113.84 31.3991 113.948 31.5919 114.165C31.7862 114.382 31.8833 114.671 31.8833 115.031V115.058C31.8833 115.283 31.8401 115.484 31.7536 115.663C31.6685 115.84 31.5459 115.978 31.3856 116.077C31.2268 116.177 31.0439 116.226 30.8369 116.226C30.525 116.226 30.2719 116.118 30.0776 115.901C29.8848 115.684 29.7884 115.397 29.7884 115.039V115.012ZM30.184 115.058C30.184 115.314 30.2428 115.519 30.3605 115.673C30.4796 115.828 30.6384 115.905 30.8369 115.905C31.0368 115.905 31.1956 115.827 31.3133 115.671C31.431 115.514 31.4899 115.294 31.4899 115.012C31.4899 114.759 31.4296 114.555 31.3091 114.399C31.19 114.242 31.0312 114.163 30.8327 114.163C30.6384 114.163 30.4817 114.24 30.3626 114.395C30.2435 114.549 30.184 114.771 30.184 115.058ZM33.7975 115.956C33.6444 116.136 33.4196 116.226 33.1233 116.226C32.878 116.226 32.6908 116.155 32.5618 116.013C32.4342 115.87 32.3697 115.659 32.3682 115.38V113.882H32.7617V115.369C32.7617 115.718 32.9035 115.892 33.1871 115.892C33.4877 115.892 33.6876 115.78 33.7869 115.556V113.882H34.1803V116.184H33.806L33.7975 115.956ZM35.767 115.014C35.767 114.655 35.8499 114.37 36.0158 114.159C36.1817 113.946 36.4015 113.84 36.6752 113.84C36.9559 113.84 37.175 113.939 37.3324 114.138L37.3515 113.882H37.7109V116.128C37.7109 116.426 37.6223 116.661 37.4451 116.832C37.2693 117.004 37.0325 117.09 36.7347 117.09C36.5688 117.09 36.4065 117.054 36.2477 116.983C36.0889 116.912 35.9676 116.815 35.884 116.692L36.0881 116.456C36.2569 116.664 36.4632 116.768 36.7071 116.768C36.8985 116.768 37.0474 116.715 37.1537 116.607C37.2615 116.499 37.3153 116.347 37.3153 116.152V115.954C37.158 116.135 36.9431 116.226 36.6709 116.226C36.4015 116.226 36.1831 116.118 36.0158 115.901C35.8499 115.684 35.767 115.388 35.767 115.014ZM36.1626 115.058C36.1626 115.318 36.2158 115.522 36.3221 115.671C36.4284 115.818 36.5773 115.892 36.7687 115.892C37.0169 115.892 37.1991 115.779 37.3153 115.554V114.503C37.1948 114.284 37.014 114.174 36.773 114.174C36.5816 114.174 36.432 114.248 36.3242 114.397C36.2165 114.546 36.1626 114.766 36.1626 115.058ZM39.2614 116.226C38.9495 116.226 38.6957 116.124 38.5 115.92C38.3043 115.714 38.2065 115.44 38.2065 115.097V115.024C38.2065 114.796 38.2497 114.593 38.3362 114.414C38.4242 114.234 38.5461 114.094 38.7021 113.993C38.8595 113.891 39.0296 113.84 39.2125 113.84C39.5117 113.84 39.7442 113.938 39.9101 114.135C40.076 114.333 40.159 114.615 40.159 114.982V115.146H38.6C38.6056 115.373 38.6716 115.556 38.7978 115.697C38.9254 115.835 39.087 115.905 39.2827 115.905C39.4217 115.905 39.5393 115.877 39.6358 115.82C39.7322 115.763 39.8165 115.688 39.8889 115.594L40.1292 115.782C39.9364 116.078 39.6471 116.226 39.2614 116.226ZM39.2125 114.163C39.0537 114.163 38.9204 114.221 38.8127 114.337C38.7049 114.452 38.6383 114.614 38.6127 114.822H39.7655V114.793C39.7542 114.593 39.7003 114.438 39.6039 114.329C39.5074 114.218 39.377 114.163 39.2125 114.163ZM41.1501 113.325V113.882H41.5797V114.186H41.1501V115.614C41.1501 115.706 41.1692 115.775 41.2075 115.822C41.2458 115.867 41.311 115.89 41.4032 115.89C41.4486 115.89 41.5109 115.882 41.5903 115.865V116.184C41.4868 116.212 41.3862 116.226 41.2883 116.226C41.1125 116.226 40.9799 116.173 40.8906 116.067C40.8013 115.96 40.7566 115.809 40.7566 115.614V114.186H40.3376V113.882H40.7566V113.325H41.1501Z" fill="#3092EC"/>
            <path d="M30.8989 121.707C30.8989 122.063 30.8027 122.355 30.6102 122.582C30.4178 122.806 30.1778 122.919 29.8901 122.919C29.7403 122.919 29.6015 122.891 29.4739 122.834C29.3483 122.777 29.2075 122.68 29.0516 122.542C28.8956 122.402 28.7832 122.316 28.7143 122.284C28.6474 122.249 28.5755 122.232 28.4986 122.232C28.3629 122.232 28.2555 122.285 28.1765 122.39C28.0995 122.496 28.061 122.633 28.061 122.803H27.4746C27.4746 122.457 27.5668 122.173 27.7511 121.953C27.9355 121.73 28.1775 121.618 28.4773 121.618C28.6272 121.618 28.769 121.649 28.9027 121.71C29.0384 121.768 29.1792 121.865 29.325 121.998C29.4729 122.132 29.5802 122.216 29.6471 122.25C29.7159 122.285 29.7899 122.302 29.8689 122.302C30.0046 122.302 30.115 122.245 30.2001 122.132C30.2851 122.018 30.3277 121.877 30.3277 121.707H30.8989ZM34.472 122.232C34.472 122.868 34.3525 123.348 34.1135 123.672C33.8765 123.994 33.5149 124.155 33.0288 124.155C32.5508 124.155 32.1902 123.999 31.9471 123.685C31.7061 123.369 31.5825 122.902 31.5764 122.284V121.518C31.5764 120.882 31.6949 120.405 31.9319 120.087C32.171 119.769 32.5346 119.61 33.0227 119.61C33.5068 119.61 33.8674 119.765 34.1044 120.075C34.3434 120.385 34.4659 120.849 34.472 121.467V122.232ZM33.7337 121.406C33.7337 120.991 33.677 120.687 33.5636 120.494C33.4501 120.3 33.2698 120.203 33.0227 120.203C32.7817 120.203 32.6044 120.295 32.491 120.479C32.3776 120.661 32.3178 120.947 32.3117 121.336V122.339C32.3117 122.752 32.3695 123.06 32.4849 123.262C32.6004 123.465 32.7817 123.566 33.0288 123.566C33.2658 123.566 33.441 123.473 33.5544 123.287C33.6679 123.098 33.7276 122.804 33.7337 122.405V121.406ZM35.6327 123.317C35.7704 123.317 35.8768 123.356 35.9517 123.435C36.0267 123.512 36.0641 123.61 36.0641 123.727C36.0641 123.843 36.0267 123.939 35.9517 124.016C35.8768 124.091 35.7704 124.128 35.6327 124.128C35.501 124.128 35.3967 124.091 35.3197 124.016C35.2428 123.941 35.2043 123.845 35.2043 123.727C35.2043 123.61 35.2418 123.512 35.3167 123.435C35.3916 123.356 35.497 123.317 35.6327 123.317ZM39.7467 122.232C39.7467 122.868 39.6271 123.348 39.3881 123.672C39.1511 123.994 38.7896 124.155 38.3034 124.155C37.8254 124.155 37.4648 123.999 37.2218 123.685C36.9807 123.369 36.8572 122.902 36.8511 122.284V121.518C36.8511 120.882 36.9696 120.405 37.2066 120.087C37.4456 119.769 37.8092 119.61 38.2974 119.61C38.7815 119.61 39.142 119.765 39.379 120.075C39.618 120.385 39.7406 120.849 39.7467 121.467V122.232ZM39.0083 121.406C39.0083 120.991 38.9516 120.687 38.8382 120.494C38.7247 120.3 38.5445 120.203 38.2974 120.203C38.0563 120.203 37.8791 120.295 37.7656 120.479C37.6522 120.661 37.5924 120.947 37.5864 121.336V122.339C37.5864 122.752 37.6441 123.06 37.7596 123.262C37.875 123.465 38.0563 123.566 38.3034 123.566C38.5404 123.566 38.7156 123.473 38.8291 123.287C38.9425 123.098 39.0023 122.804 39.0083 122.405V121.406ZM43.3745 124.095H40.3999V123.587L41.8735 121.98C42.0862 121.743 42.2371 121.546 42.3262 121.388C42.4174 121.228 42.463 121.067 42.463 120.907C42.463 120.697 42.4032 120.527 42.2837 120.397C42.1662 120.267 42.0072 120.203 41.8067 120.203C41.5677 120.203 41.3823 120.275 41.2507 120.421C41.119 120.567 41.0532 120.767 41.0532 121.02H40.3148C40.3148 120.75 40.3756 120.508 40.4971 120.294C40.6207 120.077 40.7959 119.909 41.0228 119.789C41.2517 119.67 41.515 119.61 41.8128 119.61C42.2422 119.61 42.5805 119.718 42.8276 119.935C43.0767 120.15 43.2013 120.448 43.2013 120.828C43.2013 121.049 43.1385 121.281 43.0129 121.524C42.8894 121.765 42.6858 122.04 42.4022 122.348L41.3205 123.505H43.3745V124.095ZM46.03 122.244C45.7829 122.506 45.4943 122.636 45.1641 122.636C44.7752 122.636 44.4653 122.501 44.2343 122.229C44.0034 121.956 43.888 121.597 43.888 121.154C43.888 120.862 43.9467 120.598 44.0642 120.361C44.1817 120.124 44.3488 119.939 44.5655 119.808C44.7823 119.676 45.0334 119.61 45.3191 119.61C45.7647 119.61 46.1181 119.776 46.3794 120.108C46.6407 120.441 46.7714 120.885 46.7714 121.442V121.649C46.7714 122.447 46.5911 123.056 46.2306 123.475C45.87 123.894 45.3322 124.107 44.6172 124.113H44.5291V123.502H44.6354C45.0709 123.496 45.4051 123.392 45.6381 123.189C45.871 122.985 46.0017 122.67 46.03 122.244ZM45.3191 122.059C45.4669 122.059 45.6057 122.016 45.7353 121.931C45.8649 121.846 45.9652 121.729 46.0361 121.579V121.29C46.0361 120.964 45.9693 120.702 45.8356 120.503C45.7019 120.305 45.5287 120.206 45.316 120.206C45.1033 120.206 44.9332 120.294 44.8056 120.47C44.68 120.644 44.6172 120.865 44.6172 121.132C44.6172 121.41 44.681 121.634 44.8086 121.804C44.9362 121.974 45.1064 122.059 45.3191 122.059ZM48.3271 121.546H48.7767C49.0036 121.543 49.1829 121.485 49.3145 121.369C49.4482 121.254 49.5151 121.087 49.5151 120.868C49.5151 120.657 49.4594 120.494 49.3479 120.379C49.2386 120.261 49.0704 120.203 48.8436 120.203C48.6451 120.203 48.482 120.26 48.3544 120.376C48.2268 120.489 48.163 120.638 48.163 120.822H47.4247C47.4247 120.596 47.4844 120.389 47.6039 120.203C47.7255 120.016 47.8936 119.871 48.1083 119.768C48.325 119.663 48.5671 119.61 48.8345 119.61C49.276 119.61 49.6224 119.721 49.8736 119.944C50.1268 120.165 50.2534 120.473 50.2534 120.868C50.2534 121.066 50.1896 121.254 50.062 121.43C49.9364 121.604 49.7733 121.736 49.5728 121.825C49.8159 121.908 50.0002 122.039 50.1258 122.217C50.2534 122.395 50.3172 122.608 50.3172 122.855C50.3172 123.252 50.1805 123.568 49.907 123.803C49.6356 124.038 49.2781 124.155 48.8345 124.155C48.4091 124.155 48.0607 124.042 47.7893 123.815C47.5178 123.588 47.3821 123.287 47.3821 122.91H48.1204C48.1204 123.104 48.1853 123.262 48.3149 123.384C48.4466 123.505 48.6228 123.566 48.8436 123.566C49.0725 123.566 49.2527 123.505 49.3844 123.384C49.5161 123.262 49.5819 123.086 49.5819 122.855C49.5819 122.622 49.513 122.443 49.3753 122.317C49.2376 122.192 49.033 122.129 48.7615 122.129H48.3271V121.546ZM51.2074 121.901L51.4475 119.671H53.8235V120.309H52.0612L51.9397 121.366C52.1443 121.249 52.3752 121.19 52.6324 121.19C53.0538 121.19 53.3809 121.325 53.6138 121.594C53.8488 121.864 53.9663 122.226 53.9663 122.682C53.9663 123.132 53.8367 123.49 53.5774 123.757C53.3181 124.023 52.9626 124.155 52.5109 124.155C52.1058 124.155 51.7695 124.041 51.5022 123.812C51.2368 123.581 51.093 123.277 51.0707 122.901H51.7847C51.8131 123.115 51.8901 123.28 52.0156 123.396C52.1412 123.509 52.3053 123.566 52.5079 123.566C52.7347 123.566 52.911 123.485 53.0365 123.323C53.1642 123.161 53.228 122.94 53.228 122.661C53.228 122.391 53.1581 122.179 53.0183 122.023C52.8785 121.865 52.6861 121.786 52.441 121.786C52.3073 121.786 52.1939 121.804 52.1007 121.84C52.0075 121.875 51.9063 121.944 51.7969 122.047L51.2074 121.901ZM54.7441 121.901L54.9841 119.671H57.3602V120.309H55.5979L55.4764 121.366C55.681 121.249 55.9119 121.19 56.1691 121.19C56.5904 121.19 56.9176 121.325 57.1505 121.594C57.3855 121.864 57.503 122.226 57.503 122.682C57.503 123.132 57.3733 123.49 57.1141 123.757C56.8548 124.023 56.4993 124.155 56.0476 124.155C55.6425 124.155 55.3062 124.041 55.0388 123.812C54.7735 123.581 54.6297 123.277 54.6074 122.901H55.3214C55.3498 123.115 55.4267 123.28 55.5523 123.396C55.6779 123.509 55.842 123.566 56.0445 123.566C56.2714 123.566 56.4476 123.485 56.5732 123.323C56.7008 123.161 56.7646 122.94 56.7646 122.661C56.7646 122.391 56.6948 122.179 56.555 122.023C56.4152 121.865 56.2228 121.786 55.9777 121.786C55.844 121.786 55.7306 121.804 55.6374 121.84C55.5442 121.875 55.4429 121.944 55.3336 122.047L54.7441 121.901ZM58.2808 121.901L58.5208 119.671H60.8968V120.309H59.1346L59.013 121.366C59.2176 121.249 59.4485 121.19 59.7058 121.19C60.1271 121.19 60.4542 121.325 60.6872 121.594C60.9222 121.864 61.0396 122.226 61.0396 122.682C61.0396 123.132 60.91 123.49 60.6507 123.757C60.3915 124.023 60.036 124.155 59.5843 124.155C59.1791 124.155 58.8429 124.041 58.5755 123.812C58.3102 123.581 58.1663 123.277 58.1441 122.901H58.8581C58.8864 123.115 58.9634 123.28 59.089 123.396C59.2146 123.509 59.3787 123.566 59.5812 123.566C59.8081 123.566 59.9843 123.485 60.1099 123.323C60.2375 123.161 60.3013 122.94 60.3013 122.661C60.3013 122.391 60.2314 122.179 60.0917 122.023C59.9519 121.865 59.7595 121.786 59.5144 121.786C59.3807 121.786 59.2673 121.804 59.1741 121.84C59.0809 121.875 58.9796 121.944 58.8702 122.047L58.2808 121.901ZM63.6192 124.095H62.8839V120.543L61.7992 120.914V120.291L63.525 119.656H63.6192V124.095Z" fill="#1B2125"/>
            <rect width="41.3803" height="18.0456" transform="translate(86.2339 109.694)" fill="#5583FF"/>
            <path d="M99.1459 118.717C99.1459 120.435 97.753 121.828 96.0346 121.828C94.3163 121.828 92.9233 120.435 92.9233 118.717C92.9233 116.998 94.3163 115.605 96.0346 115.605C97.753 115.605 99.1459 116.998 99.1459 118.717Z" fill="white"/>
            <path fill-rule="evenodd" clip-rule="evenodd" d="M93.0165 117.965C93.432 116.298 95.1199 115.283 96.7872 115.699C98.4539 116.114 99.4686 117.802 99.0527 119.469C98.6376 121.136 96.9488 122.15 95.2814 121.735C93.6154 121.319 92.6007 119.631 93.0165 117.965ZM96.9705 118.775C97.1934 118.723 97.3618 118.577 97.4069 118.274C97.4685 117.86 97.1536 117.637 96.7228 117.488L96.8625 116.927L96.5211 116.842L96.3848 117.388C96.2952 117.366 96.2027 117.345 96.1112 117.324L96.2482 116.774L95.9067 116.689L95.767 117.25C95.6926 117.233 95.6198 117.217 95.5491 117.199L95.5494 117.197L95.0782 117.08L94.9876 117.444C94.9876 117.444 95.2413 117.502 95.2357 117.506C95.3742 117.54 95.3988 117.632 95.3947 117.705L95.2354 118.344C95.245 118.346 95.2572 118.35 95.2709 118.355L95.2351 118.346L95.0113 119.241C94.9945 119.283 94.9518 119.346 94.855 119.322C94.8585 119.327 94.607 119.26 94.607 119.26L94.437 119.651L94.8818 119.761C94.9332 119.774 94.9839 119.787 95.0342 119.801C95.0647 119.809 95.095 119.817 95.1252 119.824L94.9839 120.392L95.3247 120.477L95.4645 119.916C95.5581 119.941 95.6487 119.965 95.7368 119.987L95.5977 120.545L95.9388 120.63L96.0801 120.064C96.6627 120.174 97.1003 120.129 97.2846 119.603C97.4327 119.179 97.2771 118.934 96.9705 118.775ZM95.8488 118.409L96.0191 117.728C96.0388 117.732 96.0629 117.738 96.0903 117.744C96.3309 117.797 96.8221 117.906 96.7321 118.267C96.644 118.621 96.1375 118.486 95.9051 118.424C95.8839 118.418 95.865 118.413 95.8488 118.409ZM95.5756 119.505L95.7633 118.753C95.7864 118.759 95.8146 118.765 95.8465 118.772C96.1345 118.837 96.7258 118.969 96.6263 119.367C96.5294 119.757 95.9195 119.595 95.6414 119.522C95.6166 119.515 95.5945 119.509 95.5756 119.505Z" fill="#F7931A"/>
            <path d="M102.084 121.139V116.715H103.601C104.101 116.715 104.482 116.815 104.743 117.016C105.004 117.216 105.135 117.515 105.135 117.912C105.135 118.114 105.08 118.297 104.971 118.459C104.862 118.621 104.702 118.746 104.491 118.836C104.73 118.9 104.914 119.023 105.044 119.203C105.175 119.381 105.241 119.596 105.241 119.847C105.241 120.263 105.108 120.582 104.84 120.804C104.575 121.027 104.194 121.139 103.698 121.139H102.084ZM102.853 119.142V120.525H103.707C103.948 120.525 104.136 120.465 104.272 120.346C104.408 120.226 104.476 120.06 104.476 119.847C104.476 119.388 104.241 119.153 103.771 119.142H102.853ZM102.853 118.577H103.607C103.846 118.577 104.032 118.524 104.166 118.416C104.301 118.307 104.369 118.153 104.369 117.954C104.369 117.736 104.307 117.578 104.181 117.48C104.057 117.383 103.864 117.335 103.601 117.335H102.853V118.577ZM109.121 117.335H107.742V121.139H106.979V117.335H105.612V116.715H109.121V117.335ZM112.995 119.698C112.951 120.17 112.777 120.539 112.473 120.804C112.169 121.068 111.765 121.199 111.26 121.199C110.908 121.199 110.597 121.116 110.328 120.95C110.06 120.782 109.854 120.544 109.708 120.236C109.562 119.928 109.486 119.571 109.48 119.164V118.751C109.48 118.333 109.554 117.966 109.702 117.648C109.85 117.33 110.061 117.084 110.337 116.912C110.614 116.74 110.934 116.654 111.297 116.654C111.785 116.654 112.178 116.787 112.476 117.052C112.773 117.317 112.947 117.692 112.995 118.176H112.23C112.193 117.858 112.1 117.629 111.95 117.49C111.802 117.348 111.584 117.277 111.297 117.277C110.963 117.277 110.705 117.399 110.525 117.645C110.347 117.888 110.256 118.245 110.252 118.717V119.109C110.252 119.587 110.337 119.952 110.507 120.203C110.679 120.454 110.93 120.58 111.26 120.58C111.562 120.58 111.789 120.512 111.941 120.376C112.093 120.24 112.189 120.014 112.23 119.698H112.995Z" fill="white"/>
            <path d="M121.016 117.875L119.68 119.211L118.344 117.875L117.904 118.315L119.68 120.091L121.456 118.315L121.016 117.875Z" fill="white" fill-opacity="0.4"/>
        </g>
        <g filter="url(#filter1_d)">
            <rect x="23.3857" y="132.719" width="104.229" height="14.9343" rx="3.73356" fill="#03B481"/>
            <path d="M70.1194 142.452V138.249H71.5915C72.1014 138.249 72.4882 138.348 72.7518 138.544C73.0155 138.738 73.1473 139.024 73.1473 139.401C73.1473 139.607 73.0944 139.789 72.9885 139.947C72.8827 140.103 72.7355 140.217 72.5469 140.29C72.7624 140.344 72.9318 140.453 73.0549 140.616C73.18 140.78 73.2425 140.98 73.2425 141.217C73.2425 141.621 73.1136 141.927 72.8557 142.135C72.5979 142.342 72.2303 142.448 71.7531 142.452H70.1194ZM70.9853 140.622V141.757H71.7271C71.9311 141.757 72.0899 141.708 72.2034 141.612C72.3189 141.514 72.3766 141.379 72.3766 141.208C72.3766 140.823 72.1774 140.628 71.7791 140.622H70.9853ZM70.9853 140.01H71.6261C72.0629 140.003 72.2813 139.828 72.2813 139.488C72.2813 139.297 72.2255 139.161 72.1139 139.078C72.0042 138.993 71.8301 138.951 71.5915 138.951H70.9853V140.01ZM77.0758 138.249V141.018C77.0758 141.477 76.9314 141.841 76.6428 142.109C76.3561 142.376 75.9635 142.51 75.4651 142.51C74.9744 142.51 74.5847 142.38 74.2961 142.12C74.0074 141.86 73.8602 141.503 73.8545 141.049V138.249H74.7204V141.023C74.7204 141.299 74.7858 141.5 74.9167 141.627C75.0495 141.752 75.2323 141.814 75.4651 141.814C75.952 141.814 76.1992 141.558 76.2069 141.046V138.249H77.0758ZM79.2348 140.143L80.1094 138.249H81.0562L79.6765 140.928V142.452H78.7961V140.928L77.4164 138.249H78.366L79.2348 140.143Z" fill="white"/>
        </g>
    </g>
    <defs>
        <filter id="filter0_d" x="0.984472" y="0.799306" width="149.031" height="170.499" filterUnits="userSpaceOnUse" color-interpolation-filters="sRGB">
            <feFlood flood-opacity="0" result="BackgroundImageFix"/>
            <feColorMatrix in="SourceAlpha" type="matrix" values="0 0 0 0 0 0 0 0 0 0 0 0 0 0 0 0 0 0 127 0" result="hardAlpha"/>
            <feOffset dy="1.24452"/>
            <feGaussianBlur stdDeviation="6.22261"/>
            <feColorMatrix type="matrix" values="0 0 0 0 0.0247917 0 0 0 0 0.411542 0 0 0 0 0.991667 0 0 0 0.25 0"/>
            <feBlend mode="normal" in2="BackgroundImageFix" result="effect1_dropShadow"/>
            <feBlend mode="normal" in="SourceGraphic" in2="effect1_dropShadow" result="shape"/>
        </filter>
        <filter id="filter1_d" x="18.4077" y="128.363" width="114.185" height="24.8904" filterUnits="userSpaceOnUse" color-interpolation-filters="sRGB">
            <feFlood flood-opacity="0" result="BackgroundImageFix"/>
            <feColorMatrix in="SourceAlpha" type="matrix" values="0 0 0 0 0 0 0 0 0 0 0 0 0 0 0 0 0 0 127 0" result="hardAlpha"/>
            <feOffset dy="0.622261"/>
            <feGaussianBlur stdDeviation="2.48904"/>
            <feColorMatrix type="matrix" values="0 0 0 0 0 0 0 0 0 0.223529 0 0 0 0 0.65098 0 0 0 0.08 0"/>
            <feBlend mode="normal" in2="BackgroundImageFix" result="effect1_dropShadow"/>
            <feBlend mode="normal" in="SourceGraphic" in2="effect1_dropShadow" result="shape"/>
        </filter>
        <clipPath id="clip0">
            <rect x="23.3857" y="39.3789" width="104.229" height="18.0456" rx="2.48904" fill="white"/>
        </clipPath>
        <clipPath id="clip1">
            <rect width="42.0026" height="18.0456" fill="white" transform="translate(85.6118 39.3789)"/>
        </clipPath>
        <clipPath id="clip2">
            <rect width="6.84487" height="6.84487" fill="white" transform="translate(27.1191 62.4033)"/>
        </clipPath>
        <clipPath id="clip3">
            <rect width="5.60035" height="5.60035" fill="white" transform="translate(111.591 63.1807)"/>
        </clipPath>
        <clipPath id="clip4">
            <rect width="6.84487" height="6.84487" fill="white" transform="translate(27.1191 74.2256)"/>
        </clipPath>
        <clipPath id="clip5">
            <rect width="6.84487" height="6.84487" fill="white" transform="translate(27.1191 86.0488)"/>
        </clipPath>
        <clipPath id="clip6">
            <rect width="5.60035" height="5.60035" fill="white" transform="translate(109.102 86.8271)"/>
        </clipPath>
        <clipPath id="clip7">
            <rect width="6.84487" height="6.84487" fill="white" transform="translate(27.1191 97.8721)"/>
        </clipPath>
        <clipPath id="clip8">
            <rect x="23.3857" y="109.694" width="104.229" height="18.0456" rx="2.48904" fill="white"/>
        </clipPath>
    </defs>
</svg>
