<svg width="22" height="28" viewBox="0 0 22 28" fill="none" xmlns="http://www.w3.org/2000/svg">
<path d="M21.6668 14.0001C21.6668 12.5294 20.4708 11.3334 19.0002 11.3334H17.6668V7.33342C17.6668 3.65741 14.6762 0.666748 11.0002 0.666748C7.32416 0.666748 4.3335 3.65741 4.3335 7.33342V11.3334H3.00016C1.5295 11.3334 0.333496 12.5294 0.333496 14.0001V24.6667C0.333496 26.1374 1.5295 27.3334 3.00016 27.3334H19.0002C20.4708 27.3334 21.6668 26.1374 21.6668 24.6667V14.0001ZM7.00016 7.33342C7.00016 5.12808 8.79483 3.33341 11.0002 3.33341C13.2055 3.33341 15.0002 5.12808 15.0002 7.33342V11.3334H7.00016V7.33342Z" fill="#00C26F"/>
</svg>
