<svg width="12" height="14" viewBox="0 0 12 14" fill="none" xmlns="http://www.w3.org/2000/svg">
<path d="M11.2599 5.73659C11.1173 5.39992 10.9406 5.07325 10.7339 4.76592L9.62859 5.51192C9.78726 5.74659 9.92259 5.99659 10.0313 6.25525C10.1433 6.52059 10.2293 6.79725 10.2866 7.07525C10.3453 7.36392 10.3753 7.66059 10.3753 7.95792C10.3753 8.25525 10.3453 8.55325 10.2866 8.84059C10.2293 9.11925 10.1439 9.39459 10.0306 9.66125C9.92259 9.91859 9.78726 10.1686 9.62859 10.4026C9.47259 10.6339 9.29193 10.8519 9.09326 11.0513C8.89526 11.2493 8.67726 11.4286 8.44459 11.5859C8.20993 11.7446 7.96059 11.8799 7.70193 11.9886C7.43859 12.0999 7.16259 12.1859 6.88259 12.2439C6.30659 12.3606 5.69193 12.3606 5.11859 12.2439C4.83726 12.1859 4.56059 12.0999 4.29659 11.9879C4.03859 11.8793 3.78926 11.7439 3.55459 11.5853C3.32326 11.4299 3.10593 11.2499 2.90726 11.0519C2.70793 10.8519 2.52793 10.6333 2.37193 10.4033C2.21393 10.1693 2.07859 9.91925 1.96859 9.65992C1.85726 9.39592 1.77193 9.12059 1.71393 8.83992C1.65526 8.55259 1.62526 8.25592 1.62526 7.95792C1.62526 7.65992 1.65526 7.36325 1.71459 7.07525C1.77193 6.79525 1.85726 6.51925 1.96859 6.25525C2.07859 5.99525 2.21459 5.74525 2.37193 5.51259C2.52793 5.28125 2.70793 5.06325 2.90659 4.86459C3.10393 4.66659 3.32193 4.48659 3.55459 4.32992C3.78793 4.17259 4.03793 4.03659 4.29726 3.92659C4.56059 3.81525 4.83726 3.72925 5.11726 3.67192C5.18859 3.65725 5.26126 3.65059 5.33326 3.63925V5.66659L8.66659 2.99992L5.33326 0.333252V2.29192C5.17126 2.31125 5.00926 2.33325 4.84993 2.36592C4.48326 2.44125 4.12193 2.55325 3.77793 2.69925C3.43859 2.84259 3.11193 3.01992 2.80793 3.22592C2.50526 3.42992 2.22126 3.66392 1.96326 3.92192C1.70459 4.18059 1.47059 4.46459 1.26659 4.76592C1.06059 5.07059 0.883927 5.39659 0.739927 5.73592C0.593927 6.08125 0.481926 6.44192 0.40726 6.80792C0.329926 7.18325 0.29126 7.57059 0.29126 7.95859C0.29126 8.34659 0.330593 8.73325 0.40726 9.10859C0.482593 9.47592 0.594593 9.83659 0.739927 10.1799C0.88326 10.5193 1.06059 10.8459 1.26659 11.1506C1.46993 11.4506 1.70393 11.7346 1.96326 11.9959C2.22259 12.2546 2.50593 12.4886 2.80659 12.6913C3.11259 12.8986 3.43926 13.0759 3.77726 13.2179C4.12126 13.3633 4.48193 13.4759 4.84993 13.5513C5.22593 13.6273 5.61259 13.6666 5.99993 13.6666C6.38726 13.6666 6.77393 13.6273 7.15126 13.5506C7.51859 13.4746 7.87926 13.3626 8.22059 13.2179C8.55859 13.0759 8.88593 12.8986 9.19193 12.6913C9.49393 12.4873 9.77793 12.2533 10.0373 11.9939C10.2959 11.7346 10.5299 11.4513 10.7339 11.1499C10.9419 10.8419 11.1179 10.5153 11.2593 10.1799C11.4059 9.83325 11.5186 9.47259 11.5926 9.10792C11.6693 8.73258 11.7086 8.34525 11.7086 7.95792C11.7086 7.57125 11.6693 7.18392 11.5926 6.80792C11.5179 6.44392 11.4053 6.08325 11.2599 5.73659Z" fill="white"/>
</svg>
