<svg width="12" height="14" viewBox="0 0 12 14" fill="none" xmlns="http://www.w3.org/2000/svg">
<path d="M11.2602 5.73659C11.1175 5.39992 10.9408 5.07325 10.7342 4.76592L9.62884 5.51192C9.7875 5.74659 9.92284 5.99659 10.0315 6.25525C10.1435 6.52059 10.2295 6.79725 10.2868 7.07525C10.3455 7.36392 10.3755 7.66059 10.3755 7.95792C10.3755 8.25525 10.3455 8.55325 10.2868 8.84059C10.2295 9.11925 10.1442 9.39459 10.0308 9.66125C9.92284 9.91859 9.7875 10.1686 9.62884 10.4026C9.47284 10.6339 9.29217 10.8519 9.0935 11.0513C8.8955 11.2493 8.6775 11.4286 8.44484 11.5859C8.21017 11.7446 7.96084 11.8799 7.70217 11.9886C7.43884 12.0999 7.16284 12.1859 6.88284 12.2439C6.30684 12.3606 5.69217 12.3606 5.11884 12.2439C4.8375 12.1859 4.56084 12.0999 4.29684 11.9879C4.03884 11.8793 3.7895 11.7439 3.55484 11.5853C3.3235 11.4299 3.10617 11.2499 2.9075 11.0519C2.70817 10.8519 2.52817 10.6333 2.37217 10.4033C2.21417 10.1693 2.07884 9.91925 1.96884 9.65992C1.8575 9.39592 1.77217 9.12059 1.71417 8.83992C1.6555 8.55259 1.6255 8.25592 1.6255 7.95792C1.6255 7.65992 1.6555 7.36325 1.71484 7.07525C1.77217 6.79525 1.8575 6.51925 1.96884 6.25525C2.07884 5.99525 2.21484 5.74525 2.37217 5.51259C2.52817 5.28125 2.70817 5.06325 2.90684 4.86459C3.10417 4.66659 3.32217 4.48659 3.55484 4.32992C3.78817 4.17259 4.03817 4.03659 4.2975 3.92659C4.56084 3.81525 4.8375 3.72925 5.1175 3.67192C5.18884 3.65725 5.2615 3.65059 5.3335 3.63925V5.66659L8.66684 2.99992L5.3335 0.333252V2.29192C5.1715 2.31125 5.0095 2.33325 4.85017 2.36592C4.4835 2.44125 4.12217 2.55325 3.77817 2.69925C3.43884 2.84259 3.11217 3.01992 2.80817 3.22592C2.5055 3.42992 2.2215 3.66392 1.9635 3.92192C1.70484 4.18059 1.47084 4.46459 1.26684 4.76592C1.06084 5.07059 0.884171 5.39659 0.740171 5.73592C0.594171 6.08125 0.482171 6.44192 0.407504 6.80792C0.330171 7.18325 0.291504 7.57059 0.291504 7.95859C0.291504 8.34659 0.330837 8.73325 0.407504 9.10859C0.482837 9.47592 0.594837 9.83659 0.740171 10.1799C0.883504 10.5193 1.06084 10.8459 1.26684 11.1506C1.47017 11.4506 1.70417 11.7346 1.9635 11.9959C2.22284 12.2546 2.50617 12.4886 2.80684 12.6913C3.11284 12.8986 3.4395 13.0759 3.7775 13.2179C4.1215 13.3633 4.48217 13.4759 4.85017 13.5513C5.22617 13.6273 5.61284 13.6666 6.00017 13.6666C6.3875 13.6666 6.77417 13.6273 7.1515 13.5506C7.51884 13.4746 7.8795 13.3626 8.22084 13.2179C8.55884 13.0759 8.88617 12.8986 9.19217 12.6913C9.49417 12.4873 9.77817 12.2533 10.0375 11.9939C10.2962 11.7346 10.5302 11.4513 10.7342 11.1499C10.9422 10.8419 11.1182 10.5153 11.2595 10.1799C11.4062 9.83325 11.5188 9.47259 11.5928 9.10792C11.6695 8.73258 11.7088 8.34525 11.7088 7.95792C11.7088 7.57125 11.6695 7.18392 11.5928 6.80792C11.5182 6.44392 11.4055 6.08325 11.2602 5.73659Z" fill="#A9A9A9"/>
</svg>
