<svg width="120" height="120" viewBox="0 0 120 120" fill="none" xmlns="http://www.w3.org/2000/svg">
    <path d="M55.898 97.3654L24.375 119.998L44.3868 27.9085L55.898 97.3654ZM56.5356 97.1529L75.7328 97.4009L45.1306 28.2627L56.5356 97.1529ZM77.5391 95.6299L92.2381 41.1553L86.6773 34.3548L77.5391 95.6299ZM70.4553 10.2344L46.264 26.5272L81.6123 15.0868L70.4553 10.2344ZM67.4092 10.2344L52.3915 10.7302L50.1956 16.9994L67.4092 10.2344Z" fill="#384182"/>
    <path d="M85.6147 32.266L46.9016 26.9531L81.7895 15.9732L85.6147 32.266ZM76.4412 11.7937L78.5663 6.02039L67.4093 1.16797L76.4412 11.7937ZM79.6643 5.45368L82.1791 14.521L97.0551 10.5895L79.6643 5.45368Z" fill="#F79534"/>
    <path d="M76.5829 97.0484L45.5558 27.6269L86.0044 33.294L76.5829 97.0484ZM69.2866 10.2361L50.1603 17.7096L45.5558 26.2102L69.2866 10.2361ZM57.4212 4.56907L52.6396 9.84652L68.5074 9.45691L57.4212 4.56907ZM65.7801 0.460449L58.2004 3.96694L75.485 11.5821L65.7801 0.460449ZM74.4224 0L66.276 0L78.8852 4.88784L74.4224 0ZM79.1331 6.4817L77.1851 12.2904L81.0812 14.1677L79.1331 6.4817Z" fill="#F0513A"/>
</svg>
