<svg width="400" height="400" viewBox="0 0 400 400" fill="none" xmlns="http://www.w3.org/2000/svg">
    <path d="M186.327 324.558L81.25 400.001L147.956 93.0349L186.327 324.558ZM188.452 323.85L252.443 324.676L150.435 94.2156L188.452 323.85ZM258.464 318.773L307.46 137.191L288.924 114.523L258.464 318.773ZM234.851 34.1211L154.213 88.4304L272.041 50.2958L234.851 34.1211ZM224.697 34.1211L174.638 35.774L167.318 56.6713L224.697 34.1211Z" fill="#384182"/>
    <path d="M285.382 107.555L156.339 89.8449L272.631 53.2452L285.382 107.555ZM254.804 39.3137L261.888 20.0693L224.698 3.89453L254.804 39.3137ZM265.548 18.1802L273.93 48.4046L323.517 35.2995L265.548 18.1802Z" fill="#F79534"/>
    <path d="M255.276 323.495L151.853 92.0897L286.681 110.98L255.276 323.495ZM230.955 34.1204L167.201 59.0319L151.853 87.3672L230.955 34.1204ZM191.404 15.2302L175.465 32.8217L228.358 31.523L191.404 15.2302ZM219.267 1.53483L194.001 13.2231L251.616 38.6068L219.267 1.53483ZM248.075 0L220.92 0L262.951 16.2928L248.075 0ZM263.777 21.6057L257.283 40.9681L270.271 47.2255L263.777 21.6057Z" fill="#F0513A"/>
</svg>
