<svg width="120" height="120" viewBox="0 0 120 120" fill="none" xmlns="http://www.w3.org/2000/svg">
    <g clip-path="url(#clip0)">
        <path d="M54.168 85.7743L0.791998 51.3343L1.32 48.5743C6.57599 20.5663 31.392 0.238281 60.288 0.238281C89.64 0.238281 114.432 21.2143 119.232 50.1343C119.616 52.4143 118.08 54.5503 115.8 54.9343C113.52 55.3183 111.384 53.7823 111 51.5023C106.872 26.6383 85.536 8.59028 60.288 8.59028C36.36 8.59028 15.672 24.7423 10.104 47.3983L52.896 74.9983L69.936 57.1183C71.52 55.4383 74.184 55.3903 75.84 56.9743C77.52 58.5583 77.568 61.2223 75.984 62.8783L54.168 85.7743Z" fill="#238CFD"/>
        <path d="M60.2884 119.76C31.3684 119.76 6.64839 99.1443 1.48839 70.7283C1.08039 68.4483 2.59239 66.2883 4.84839 65.8803C7.12839 65.4723 9.28839 66.9843 9.69639 69.2403C14.1604 93.6723 35.4244 111.408 60.2884 111.408C83.5684 111.408 104.04 95.2323 109.992 72.5523L66.3124 45.0483L49.2484 62.9523C47.6644 64.6323 45.0004 64.6803 43.3444 63.0963C41.6644 61.5123 41.6164 58.8483 43.2004 57.1923L64.9924 34.3203L119.424 68.5923L118.848 71.4243C113.088 99.4323 88.4644 119.76 60.2884 119.76Z" fill="#238CFD"/>
    </g>
    <defs>
        <clipPath id="clip0">
            <rect width="120" height="120" fill="white"/>
        </clipPath>
    </defs>
</svg>
