<svg width="400" height="400" viewBox="0 0 400 400" fill="none" xmlns="http://www.w3.org/2000/svg">
    <path d="M180.56 285.921L2.63967 171.121L4.39967 161.921C21.9197 68.5608 104.64 0.800781 200.96 0.800781C298.8 0.800781 381.44 70.7208 397.44 167.121C398.72 174.721 393.6 181.841 386 183.121C378.4 184.401 371.28 179.281 370 171.681C356.24 88.8008 285.12 28.6408 200.96 28.6408C121.2 28.6408 52.2397 82.4808 33.6797 158.001L176.32 250.001L233.12 190.401C238.4 184.801 247.28 184.641 252.8 189.921C258.4 195.201 258.56 204.081 253.28 209.601L180.56 285.921Z" fill="#238CFD"/>
    <path d="M200.96 399.198C104.56 399.198 22.16 330.478 4.95999 235.758C3.59999 228.158 8.63999 220.958 16.16 219.598C23.76 218.238 30.96 223.278 32.32 230.798C47.2 312.238 118.08 371.358 200.96 371.358C278.56 371.358 346.8 317.438 366.64 241.838L221.04 150.158L164.16 209.838C158.88 215.438 150 215.598 144.48 210.318C138.88 205.038 138.72 196.158 144 190.638L216.64 114.398L398.08 228.638L396.16 238.078C376.96 331.438 294.88 399.198 200.96 399.198Z" fill="#238CFD"/>
</svg>
