<svg width="400" height="400" viewBox="0 0 400 400" fill="none" xmlns="http://www.w3.org/2000/svg">
<g clip-path="url(#clip0_82_16340)">
<g clip-path="url(#clip1_82_16340)">
<path d="M200 400C310.457 400 400 310.457 400 200C400 89.543 310.457 0 200 0C89.5431 0 9.37509e-06 89.543 2.09398e-05 200C3.25046e-05 310.457 89.5431 400 200 400Z" fill="#0088CC"/>
<path fill-rule="evenodd" clip-rule="evenodd" d="M144.349 132.174L256.523 132.174C260.492 132.174 264.457 132.757 268.602 134.689C273.569 137.004 276.204 140.655 278.049 143.354C278.193 143.564 278.327 143.78 278.452 144.002C280.622 147.865 281.74 152.035 281.74 156.522C281.74 160.785 280.726 165.429 278.452 169.477C278.43 169.515 278.408 169.554 278.386 169.592L207.516 291.332C205.953 294.016 203.077 295.663 199.97 295.652C196.864 295.641 193.999 293.974 192.455 291.278L122.887 169.798C122.867 169.766 122.847 169.732 122.827 169.7C121.234 167.076 118.772 163.019 118.342 157.782C117.946 152.968 119.028 148.144 121.447 143.961C123.867 139.777 127.509 136.433 131.889 134.386C136.587 132.191 141.347 132.174 144.349 132.174ZM191.305 149.565H144.349C141.264 149.565 140.079 149.755 139.252 150.142C138.107 150.677 137.145 151.555 136.502 152.667C135.859 153.78 135.569 155.068 135.674 156.357C135.735 157.097 136.037 157.943 137.814 160.875C137.852 160.937 137.888 160.999 137.924 161.061L191.305 254.275L191.305 149.565ZM208.697 149.565L208.697 254.735L263.314 160.913C263.931 159.793 264.349 158.175 264.349 156.522C264.349 155.181 264.071 154.017 263.449 152.816C262.797 151.879 262.4 151.382 262.068 151.042C261.783 150.752 261.564 150.596 261.254 150.452C259.962 149.85 258.641 149.565 256.523 149.565H208.697Z" fill="white"/>
</g>
</g>
<defs>
<clipPath id="clip0_82_16340">
<rect width="400" height="400" fill="white"/>
</clipPath>
<clipPath id="clip1_82_16340">
<rect width="400" height="400" fill="white"/>
</clipPath>
</defs>
</svg>
