<svg width="120" height="120" viewBox="0 0 120 120" fill="none" xmlns="http://www.w3.org/2000/svg">
<g clip-path="url(#clip0_93_4729)">
<g clip-path="url(#clip1_93_4729)">
<path d="M60 120C93.1371 120 120 93.1371 120 60C120 26.8629 93.1371 0 60 0C26.8629 0 2.81253e-06 26.8629 6.28195e-06 60C9.75138e-06 93.1371 26.8629 120 60 120Z" fill="#0088CC"/>
<path fill-rule="evenodd" clip-rule="evenodd" d="M43.3046 39.6523L76.9569 39.6523C78.1475 39.6523 79.3372 39.8272 80.5804 40.4068C82.0708 41.1013 82.8611 42.1966 83.4148 43.0063C83.4579 43.0693 83.4982 43.1343 83.5355 43.2007C84.1865 44.3596 84.522 45.6108 84.522 46.9567C84.522 48.2356 84.2177 49.6288 83.5355 50.8432C83.529 50.8548 83.5224 50.8663 83.5157 50.8779L62.2547 87.3997C61.7859 88.205 60.923 88.6991 59.991 88.6959C59.0591 88.6925 58.1996 88.1923 57.7365 87.3836L36.866 50.9396C36.86 50.93 36.854 50.9199 36.848 50.9101C36.3703 50.123 35.6317 48.9058 35.5025 47.3349C35.3837 45.8906 35.7084 44.4433 36.4342 43.1885C37.16 41.9334 38.2526 40.9301 39.5668 40.316C40.976 39.6575 42.404 39.6523 43.3046 39.6523ZM57.3915 44.8698H43.3046C42.3791 44.8698 42.0238 44.9268 41.7755 45.0429C41.432 45.2032 41.1435 45.4668 40.9507 45.8004C40.7578 46.1341 40.6706 46.5206 40.7023 46.9074C40.7205 47.1294 40.811 47.3831 41.3443 48.2628C41.3555 48.2812 41.3664 48.2998 41.3771 48.3185L57.3915 76.2826L57.3915 44.8698ZM62.609 44.8698L62.609 76.4208L78.9943 48.2741C79.1792 47.9381 79.3046 47.4526 79.3046 46.9567C79.3046 46.5545 79.2212 46.2052 79.0348 45.845C78.8392 45.5638 78.72 45.4149 78.6204 45.3129C78.5349 45.2257 78.4691 45.179 78.3761 45.1357C77.9887 44.9551 77.5922 44.8698 76.9569 44.8698L62.609 44.8698Z" fill="white"/>
</g>
</g>
<defs>
<clipPath id="clip0_93_4729">
<rect width="120" height="120" fill="white"/>
</clipPath>
<clipPath id="clip1_93_4729">
<rect width="120" height="120" fill="white"/>
</clipPath>
</defs>
</svg>
