<svg width="327" height="216" viewBox="0 0 327 216" fill="none" xmlns="http://www.w3.org/2000/svg">
<g clip-path="url(#clip0_93_3641)">
<path d="M72.25 177C110.358 177 141.25 146.108 141.25 108C141.25 69.8924 110.358 39 72.25 39C34.1424 39 3.25 69.8924 3.25 108C3.25 146.108 34.1424 177 72.25 177Z" fill="#0052B4"/>
<path d="M72.2504 66L74.4845 72.8755H81.7133L75.8648 77.1246L78.0989 84.0001L72.2504 79.7507L66.4015 84.0001L68.6357 77.1246L62.7871 72.8755H70.0162L72.2504 66Z" fill="#FFDA44"/>
<path d="M42.552 78.3013L48.9938 81.5831L54.1054 76.4717L52.9742 83.6116L59.4157 86.8936L52.2756 88.0246L51.1446 95.165L47.8625 88.7235L40.7227 89.8547L45.8343 84.7431L42.552 78.3013Z" fill="#FFDA44"/>
<path d="M30.25 108L37.1255 105.766V98.5371L41.3744 104.386L48.2501 102.152L44.0004 108L48.2501 113.849L41.3744 111.615L37.1255 117.464V110.234L30.25 108Z" fill="#FFDA44"/>
<path d="M42.552 137.698L45.834 131.257L40.7227 126.145L47.8628 127.276L51.1444 120.835L52.2756 127.975L59.4155 129.106L52.9747 132.388L54.1054 139.528L48.9938 134.416L42.552 137.698Z" fill="#FFDA44"/>
<path d="M72.2504 150L70.0159 143.124H62.7871L68.6359 138.875L66.4015 132L72.2504 136.249L78.0989 132L75.8648 138.875L81.7133 143.124H74.4842L72.2504 150Z" fill="#FFDA44"/>
<path d="M101.949 137.698L95.5076 134.417L90.3957 139.528L91.5269 132.388L85.0859 129.106L92.2258 127.975L93.3568 120.835L96.6386 127.276L103.778 126.145L98.6668 131.257L101.949 137.698Z" fill="#FFDA44"/>
<path d="M114.25 108L107.374 110.234V117.464L103.125 111.615L96.25 113.849L100.499 108L96.25 102.152L103.125 104.386L107.374 98.5371V105.766L114.25 108Z" fill="#FFDA44"/>
<path d="M101.949 78.301L98.6671 84.7428L103.779 89.8544L96.6383 88.723L93.3568 95.1645L92.2258 88.0243L85.0859 86.8931L91.5269 83.6113L90.3957 76.4717L95.5079 81.5831L101.949 78.301Z" fill="#FFDA44"/>
</g>
<g clip-path="url(#clip1_93_3641)">
<path d="M163.25 177C201.358 177 232.25 146.108 232.25 108C232.25 69.8924 201.358 39 163.25 39C125.142 39 94.25 69.8924 94.25 108C94.25 146.108 125.142 177 163.25 177Z" fill="url(#paint0_linear_93_3641)"/>
<path d="M185.872 105.942C190.225 111.751 177.479 122.98 180.343 118.342H153.193C150.256 114.501 148.236 110.301 147.266 105.942H185.872Z" fill="url(#paint1_linear_93_3641)"/>
<path d="M178.003 139.413C174.144 142.489 169.973 145.151 165.558 147.353L163.398 148.441L161.226 147.358C140.799 137.107 128.613 119.452 128.613 100.103V77.3857H141.071V100.103C141.069 101.552 141.167 103 141.364 104.435C142.933 116.19 150.867 127.034 163.352 134.335C163.363 134.347 163.377 134.356 163.391 134.363C163.404 134.356 163.411 134.349 163.425 134.343L163.477 134.309C167.99 136.833 172.903 138.559 178.003 139.413Z" fill="url(#paint2_linear_93_3641)"/>
<path d="M197.797 105.942C197.221 110.433 195.989 114.814 194.142 118.947C190.727 126.622 185.238 133.606 178.008 139.416C172.912 138.561 168 136.835 163.49 134.312C165.119 133.351 166.699 132.309 168.223 131.189C168.375 131.091 168.521 130.984 168.661 130.87C177.1 124.793 183.18 115.987 185.871 105.942H197.797Z" fill="url(#paint3_linear_93_3641)"/>
<path d="M198.184 77.3906H141.072V89.8429H198.184V77.3906Z" fill="url(#paint4_linear_93_3641)"/>
<path d="M198.183 89.8428V100.103C198.183 100.527 198.17 100.953 198.157 101.378H185.691C185.704 100.952 185.71 100.527 185.71 100.103V89.8428H198.183Z" fill="url(#paint5_linear_93_3641)"/>
</g>
<g clip-path="url(#clip2_93_3641)">
<g clip-path="url(#clip3_93_3641)">
<path d="M254.25 177C292.358 177 323.25 146.108 323.25 108C323.25 69.8924 292.358 39 254.25 39C216.142 39 185.25 69.8924 185.25 108C185.25 146.108 216.142 177 254.25 177Z" fill="#0088CC"/>
<path fill-rule="evenodd" clip-rule="evenodd" d="M235.051 84.5996H273.751C275.12 84.5996 276.488 84.8007 277.918 85.4673C279.632 86.266 280.541 87.5255 281.178 88.4567C281.227 88.5292 281.273 88.6038 281.316 88.6802C282.065 90.0129 282.451 91.4518 282.451 92.9996C282.451 94.4703 282.101 96.0726 281.316 97.4691C281.309 97.4824 281.301 97.4957 281.294 97.509L256.843 139.509C256.304 140.435 255.312 141.003 254.24 141C253.168 140.996 252.18 140.421 251.647 139.491L227.646 97.58C227.639 97.5689 227.633 97.5573 227.626 97.546C227.076 96.6409 226.227 95.2411 226.078 93.4346C225.942 91.7736 226.315 90.1093 227.15 88.6662C227.984 87.2228 229.241 86.0691 230.752 85.3628C232.373 84.6055 234.015 84.5996 235.051 84.5996ZM251.251 90.5997H235.051C233.986 90.5997 233.578 90.6652 233.292 90.7988C232.897 90.9831 232.566 91.2862 232.344 91.6699C232.122 92.0536 232.022 92.4981 232.058 92.9429C232.079 93.1982 232.183 93.49 232.796 94.5016C232.809 94.5228 232.822 94.5442 232.834 94.5657L251.251 126.724V90.5997ZM257.251 90.5997V126.883L276.094 94.5147C276.307 94.1283 276.451 93.5699 276.451 92.9996C276.451 92.5371 276.355 92.1354 276.141 91.7211C275.916 91.3978 275.779 91.2266 275.664 91.1093C275.566 91.009 275.49 90.9553 275.383 90.9055C274.937 90.6977 274.482 90.5997 273.751 90.5997H257.251Z" fill="white"/>
</g>
</g>
<defs>
<linearGradient id="paint0_linear_93_3641" x1="232.25" y1="39" x2="67.1178" y2="91.2489" gradientUnits="userSpaceOnUse">
<stop stop-color="#000756"/>
<stop offset="1" stop-color="#0042B8"/>
</linearGradient>
<linearGradient id="paint1_linear_93_3641" x1="198.455" y1="119.937" x2="150.95" y2="107.134" gradientUnits="userSpaceOnUse">
<stop offset="0.14" stop-color="#ADADAD"/>
<stop offset="0.29" stop-color="#CBCBCB"/>
<stop offset="0.43" stop-color="#E2E2E2"/>
<stop offset="0.59" stop-color="#F2F2F2"/>
<stop offset="0.77" stop-color="#FCFCFC"/>
<stop offset="1" stop-color="white"/>
</linearGradient>
<linearGradient id="paint2_linear_93_3641" x1="180.915" y1="160.503" x2="113.765" y2="66.8458" gradientUnits="userSpaceOnUse">
<stop stop-color="#ADADAD"/>
<stop offset="0.17" stop-color="#CBCBCB"/>
<stop offset="0.34" stop-color="#E2E2E2"/>
<stop offset="0.52" stop-color="#F2F2F2"/>
<stop offset="0.73" stop-color="#FCFCFC"/>
<stop offset="1" stop-color="white"/>
</linearGradient>
<linearGradient id="paint3_linear_93_3641" x1="164.264" y1="146.329" x2="196.158" y2="105.899" gradientUnits="userSpaceOnUse">
<stop offset="0.15" stop-color="#ADADAD"/>
<stop offset="0.29" stop-color="#CBCBCB"/>
<stop offset="0.44" stop-color="#E2E2E2"/>
<stop offset="0.6" stop-color="#F2F2F2"/>
<stop offset="0.77" stop-color="#FCFCFC"/>
<stop offset="1" stop-color="white"/>
</linearGradient>
<linearGradient id="paint4_linear_93_3641" x1="135.582" y1="115.961" x2="162.537" y2="90.3561" gradientUnits="userSpaceOnUse">
<stop offset="0.14" stop-color="#ADADAD"/>
<stop offset="0.43" stop-color="#C9C9C9"/>
<stop offset="1" stop-color="white"/>
</linearGradient>
<linearGradient id="paint5_linear_93_3641" x1="191.937" y1="83.3071" x2="191.937" y2="101.378" gradientUnits="userSpaceOnUse">
<stop offset="0.0895638" stop-color="#ADADAD"/>
<stop offset="0.240189" stop-color="#CBCBCB"/>
<stop offset="0.425047" stop-color="#E2E2E2"/>
<stop offset="0.536875" stop-color="#F2F2F2"/>
<stop offset="1" stop-color="white"/>
</linearGradient>
<clipPath id="clip0_93_3641">
<rect x="3.25" y="39" width="138" height="138" rx="69" fill="white"/>
</clipPath>
<clipPath id="clip1_93_3641">
<rect x="94.25" y="39" width="138" height="138" rx="69" fill="white"/>
</clipPath>
<clipPath id="clip2_93_3641">
<rect width="138" height="138" fill="white" transform="translate(185.25 39)"/>
</clipPath>
<clipPath id="clip3_93_3641">
<rect width="138" height="138" fill="white" transform="translate(185.25 39)"/>
</clipPath>
</defs>
</svg>
