<svg width="327" height="216" viewBox="0 0 327 216" fill="none" xmlns="http://www.w3.org/2000/svg">
<g clip-path="url(#clip0_93_3610)">
<path d="M72.75 177C110.858 177 141.75 146.108 141.75 108C141.75 69.8924 110.858 39 72.75 39C34.6424 39 3.75 69.8924 3.75 108C3.75 146.108 34.6424 177 72.75 177Z" fill="#F0F0F0"/>
<path d="M69.75 108H141.75C141.75 101.772 140.92 95.7391 139.373 90H69.75V108Z" fill="#D80027"/>
<path d="M69.75 72.0001H131.623C127.399 65.1076 121.998 59.0154 115.701 54H69.75V72.0001Z" fill="#D80027"/>
<path d="M72.7503 177C88.9892 177 103.915 171.387 115.702 162H29.7988C41.5854 171.387 56.5113 177 72.7503 177Z" fill="#D80027"/>
<path d="M13.8773 144H131.623C135.014 138.467 137.643 132.419 139.373 126H6.12695C7.85654 132.419 10.4864 138.467 13.8773 144Z" fill="#D80027"/>
<path d="M35.7121 49.7753H42L36.1512 54.0245L38.3853 60.9L32.5367 56.6508L26.6882 60.9L28.618 54.9603C23.4684 59.2499 18.9548 64.2756 15.2353 69.8753H17.25L13.527 72.5801C12.9469 73.5477 12.3906 74.5307 11.8575 75.5282L13.6353 81L10.3185 78.5901C9.49398 80.3369 8.73983 82.1231 8.06196 83.9465L10.0206 89.9754H17.25L11.4012 94.2245L13.6353 101.1L7.78677 96.8508L4.2834 99.3963C3.93274 102.215 3.75 105.086 3.75 108H72.75C72.75 69.8926 72.75 65.4 72.75 39C59.1193 39 46.4128 42.954 35.7121 49.7753ZM38.3853 101.1L32.5367 96.8508L26.6882 101.1L28.9223 94.2245L23.0735 89.9754H30.3029L32.5367 83.0999L34.7706 89.9754H42L36.1512 94.2245L38.3853 101.1ZM36.1512 74.1245L38.3853 81L32.5367 76.7508L26.6882 81L28.9223 74.1245L23.0735 69.8753H30.3029L32.5367 62.9999L34.7706 69.8753H42L36.1512 74.1245ZM63.1353 101.1L57.2867 96.8508L51.4382 101.1L53.6723 94.2245L47.8235 89.9754H55.0528L57.2867 83.0999L59.5206 89.9754H66.75L60.9011 94.2245L63.1353 101.1ZM60.9011 74.1245L63.1353 81L57.2867 76.7508L51.4382 81L53.6723 74.1245L47.8235 69.8753H55.0528L57.2867 62.9999L59.5206 69.8753H66.75L60.9011 74.1245ZM60.9011 54.0245L63.1353 60.9L57.2867 56.6508L51.4382 60.9L53.6723 54.0245L47.8235 49.7753H55.0528L57.2867 42.8998L59.5206 49.7753H66.75L60.9011 54.0245Z" fill="#0052B4"/>
</g>
<g clip-path="url(#clip1_93_3610)">
<path d="M163.75 177C201.858 177 232.75 146.108 232.75 108C232.75 69.8924 201.858 39 163.75 39C125.642 39 94.75 69.8924 94.75 108C94.75 146.108 125.642 177 163.75 177Z" fill="url(#paint0_linear_93_3610)"/>
<path d="M186.372 105.942C190.725 111.751 177.979 122.98 180.843 118.342H153.693C150.756 114.501 148.736 110.301 147.766 105.942H186.372Z" fill="url(#paint1_linear_93_3610)"/>
<path d="M178.503 139.413C174.644 142.489 170.473 145.151 166.058 147.353L163.898 148.441L161.726 147.358C141.299 137.107 129.113 119.452 129.113 100.103V77.3857H141.571V100.103C141.569 101.552 141.667 103 141.864 104.435C143.433 116.19 151.367 127.034 163.852 134.335C163.863 134.347 163.877 134.356 163.891 134.363C163.904 134.356 163.911 134.349 163.925 134.343L163.977 134.309C168.49 136.833 173.403 138.559 178.503 139.413Z" fill="url(#paint2_linear_93_3610)"/>
<path d="M198.297 105.942C197.721 110.433 196.489 114.814 194.642 118.947C191.227 126.622 185.738 133.606 178.508 139.416C173.412 138.561 168.5 136.835 163.99 134.312C165.619 133.351 167.199 132.309 168.723 131.189C168.875 131.091 169.021 130.984 169.161 130.87C177.6 124.793 183.68 115.987 186.371 105.942H198.297Z" fill="url(#paint3_linear_93_3610)"/>
<path d="M198.684 77.3906H141.572V89.8429H198.684V77.3906Z" fill="url(#paint4_linear_93_3610)"/>
<path d="M198.683 89.8428V100.103C198.683 100.527 198.67 100.953 198.657 101.378H186.191C186.204 100.952 186.21 100.527 186.21 100.103V89.8428H198.683Z" fill="url(#paint5_linear_93_3610)"/>
</g>
<g clip-path="url(#clip2_93_3610)">
<g clip-path="url(#clip3_93_3610)">
<path d="M254.75 177C292.858 177 323.75 146.108 323.75 108C323.75 69.8924 292.858 39 254.75 39C216.642 39 185.75 69.8924 185.75 108C185.75 146.108 216.642 177 254.75 177Z" fill="#0088CC"/>
<path fill-rule="evenodd" clip-rule="evenodd" d="M235.551 84.5996H274.251C275.62 84.5996 276.988 84.8007 278.418 85.4673C280.132 86.266 281.041 87.5255 281.678 88.4567C281.727 88.5292 281.773 88.6038 281.816 88.6802C282.565 90.0129 282.951 91.4518 282.951 92.9996C282.951 94.4703 282.601 96.0726 281.816 97.4691C281.809 97.4824 281.801 97.4957 281.794 97.509L257.343 139.509C256.804 140.435 255.812 141.003 254.74 141C253.668 140.996 252.68 140.421 252.147 139.491L228.146 97.58C228.139 97.5689 228.133 97.5573 228.126 97.546C227.576 96.6409 226.727 95.2411 226.578 93.4346C226.442 91.7736 226.815 90.1093 227.65 88.6662C228.484 87.2228 229.741 86.0691 231.252 85.3628C232.873 84.6055 234.515 84.5996 235.551 84.5996ZM251.751 90.5997H235.551C234.486 90.5997 234.078 90.6652 233.792 90.7988C233.397 90.9831 233.066 91.2862 232.844 91.6699C232.622 92.0536 232.522 92.4981 232.558 92.9429C232.579 93.1982 232.683 93.49 233.296 94.5016C233.309 94.5228 233.322 94.5442 233.334 94.5657L251.751 126.724V90.5997ZM257.751 90.5997V126.883L276.594 94.5147C276.807 94.1283 276.951 93.5699 276.951 92.9996C276.951 92.5371 276.855 92.1354 276.641 91.7211C276.416 91.3978 276.279 91.2266 276.164 91.1093C276.066 91.009 275.99 90.9553 275.883 90.9055C275.437 90.6977 274.982 90.5997 274.251 90.5997H257.751Z" fill="white"/>
</g>
</g>
<defs>
<linearGradient id="paint0_linear_93_3610" x1="232.75" y1="39" x2="67.6178" y2="91.2489" gradientUnits="userSpaceOnUse">
<stop stop-color="#000756"/>
<stop offset="1" stop-color="#0042B8"/>
</linearGradient>
<linearGradient id="paint1_linear_93_3610" x1="198.955" y1="119.937" x2="151.45" y2="107.134" gradientUnits="userSpaceOnUse">
<stop offset="0.14" stop-color="#ADADAD"/>
<stop offset="0.29" stop-color="#CBCBCB"/>
<stop offset="0.43" stop-color="#E2E2E2"/>
<stop offset="0.59" stop-color="#F2F2F2"/>
<stop offset="0.77" stop-color="#FCFCFC"/>
<stop offset="1" stop-color="white"/>
</linearGradient>
<linearGradient id="paint2_linear_93_3610" x1="181.415" y1="160.503" x2="114.265" y2="66.8458" gradientUnits="userSpaceOnUse">
<stop stop-color="#ADADAD"/>
<stop offset="0.17" stop-color="#CBCBCB"/>
<stop offset="0.34" stop-color="#E2E2E2"/>
<stop offset="0.52" stop-color="#F2F2F2"/>
<stop offset="0.73" stop-color="#FCFCFC"/>
<stop offset="1" stop-color="white"/>
</linearGradient>
<linearGradient id="paint3_linear_93_3610" x1="164.764" y1="146.329" x2="196.658" y2="105.899" gradientUnits="userSpaceOnUse">
<stop offset="0.15" stop-color="#ADADAD"/>
<stop offset="0.29" stop-color="#CBCBCB"/>
<stop offset="0.44" stop-color="#E2E2E2"/>
<stop offset="0.6" stop-color="#F2F2F2"/>
<stop offset="0.77" stop-color="#FCFCFC"/>
<stop offset="1" stop-color="white"/>
</linearGradient>
<linearGradient id="paint4_linear_93_3610" x1="136.082" y1="115.961" x2="163.037" y2="90.3561" gradientUnits="userSpaceOnUse">
<stop offset="0.14" stop-color="#ADADAD"/>
<stop offset="0.43" stop-color="#C9C9C9"/>
<stop offset="1" stop-color="white"/>
</linearGradient>
<linearGradient id="paint5_linear_93_3610" x1="192.437" y1="83.3071" x2="192.437" y2="101.378" gradientUnits="userSpaceOnUse">
<stop offset="0.0895638" stop-color="#ADADAD"/>
<stop offset="0.240189" stop-color="#CBCBCB"/>
<stop offset="0.425047" stop-color="#E2E2E2"/>
<stop offset="0.536875" stop-color="#F2F2F2"/>
<stop offset="1" stop-color="white"/>
</linearGradient>
<clipPath id="clip0_93_3610">
<rect x="3.75" y="39" width="138" height="138" rx="69" fill="white"/>
</clipPath>
<clipPath id="clip1_93_3610">
<rect x="94.75" y="39" width="138" height="138" rx="69" fill="white"/>
</clipPath>
<clipPath id="clip2_93_3610">
<rect width="138" height="138" fill="white" transform="translate(185.75 39)"/>
</clipPath>
<clipPath id="clip3_93_3610">
<rect width="138" height="138" fill="white" transform="translate(185.75 39)"/>
</clipPath>
</defs>
</svg>
