<svg width="18" height="18" viewBox="0 0 18 18" fill="none" xmlns="http://www.w3.org/2000/svg">
<path d="M9.19385 0.155273C4.43033 0.155273 0.568848 4.01676 0.568848 8.78027C0.568848 13.5438 4.43033 17.4053 9.19385 17.4053C13.9574 17.4053 17.8188 13.5438 17.8188 8.78027C17.8188 4.01676 13.9574 0.155273 9.19385 0.155273ZM12.9673 6.68422H12.8622C12.8622 6.68422 12.5477 6.68422 12.5477 6.99867V10.5619C12.5477 10.5619 12.5477 10.8763 12.8622 10.8763H12.9673V11.7155H10.4517V10.8763H10.8712V6.97711H10.829L9.54424 11.7155H8.41221L7.13912 6.97711H7.09779V10.8763H7.51646V11.7155H5.42041V10.8763H5.52553C5.52553 10.8763 5.83998 10.8763 5.83998 10.5619V6.99777C5.83998 6.99777 5.83998 6.68332 5.52553 6.68332H5.42041V5.84508H8.20197L9.17767 9.47566H9.21002L10.1938 5.84597H12.9673V6.68422Z" fill="url(#paint0_linear_181_3058)"/>
<defs>
<linearGradient id="paint0_linear_181_3058" x1="17.8188" y1="0.155274" x2="-2.82268" y2="6.68638" gradientUnits="userSpaceOnUse">
<stop stop-color="#000756"/>
<stop offset="1" stop-color="#0042B8"/>
</linearGradient>
</defs>
</svg>
