<svg width="21" height="21" viewBox="0 0 21 21" fill="none" xmlns="http://www.w3.org/2000/svg">
<path d="M10.1573 0.681152C4.59991 0.681152 0.0948486 5.18622 0.0948486 10.7436C0.0948486 16.3011 4.59991 20.8061 10.1573 20.8061C15.7148 20.8061 20.2198 16.3011 20.2198 10.7436C20.2198 5.18622 15.7148 0.681152 10.1573 0.681152ZM14.5597 8.29825H14.4371C14.4371 8.29825 14.0702 8.29825 14.0702 8.66511V12.8222C14.0702 12.8222 14.0702 13.189 14.4371 13.189H14.5597V14.168H11.6248V13.189H12.1143V8.63996H12.065L10.5661 14.168H9.24543L7.76017 8.63996H7.71195V13.189H8.2004V14.168H5.755V13.189H5.87764C5.87764 13.189 6.2445 13.189 6.2445 12.8222V8.66407C6.2445 8.66407 6.2445 8.2972 5.87764 8.2972H5.755V7.31926H9.00016L10.1385 11.5549H10.1762L11.324 7.3203H14.5597V8.29825Z" fill="white"/>
</svg>
