<svg width="19" height="17" viewBox="0 0 19 17" fill="none" xmlns="http://www.w3.org/2000/svg">
<path d="M16.3238 0.25C17.5515 0.25 18.516 1.2125 18.516 2.4375C18.516 3.6625 17.5515 4.625 16.3238 4.625C15.0962 4.625 14.1316 3.6625 14.1316 2.4375C14.1316 2.35 14.1316 2.2625 14.1316 2.175L12.2024 1.825C12.1148 1.825 12.0271 1.825 11.8517 1.825C10.7994 1.825 9.92255 2.6125 9.92255 3.6625V3.8375V4.7125C14.2193 4.975 17.5515 7.6 17.5515 10.8375C17.5515 14.25 13.7808 16.9625 9.22104 16.9625C4.66123 16.9625 0.890625 14.25 0.890625 10.8375C0.890625 7.6 4.31048 4.975 8.60722 4.7125V3.8375C8.60722 2 10.0979 0.6 11.9394 0.6C12.0271 0.6 12.2024 0.6 12.2901 0.6H12.4655L14.6577 0.95C14.6577 0.95 14.6577 0.95 14.7454 0.95C15.0962 0.5125 15.71 0.25 16.3238 0.25ZM12.4655 12.15C11.4133 12.675 10.361 12.9375 9.30873 12.9375C8.25646 12.9375 7.2042 12.675 6.15194 12.15C5.7135 11.975 5.18736 12.15 5.01199 12.5C4.83661 12.85 5.01199 13.4625 5.36274 13.6375C6.67807 14.25 7.9934 14.6 9.22104 14.6C10.4487 14.6 11.8517 14.25 13.0793 13.6375C13.5178 13.4625 13.6932 12.9375 13.4301 12.5C13.3424 12.15 12.8163 11.975 12.4655 12.15ZM6.23963 8.5625C5.53812 8.5625 4.9243 9.175 4.9243 9.875C4.9243 10.575 5.53812 11.1875 6.23963 11.1875C6.94114 11.1875 7.55496 10.575 7.55496 9.875C7.55496 9.175 6.94114 8.5625 6.23963 8.5625ZM12.3778 8.5625C11.6763 8.5625 11.0625 9.175 11.0625 9.875C11.0625 10.575 11.6763 11.1875 12.3778 11.1875C13.0793 11.1875 13.6932 10.575 13.6932 9.875C13.6932 9.175 13.0793 8.5625 12.3778 8.5625Z" fill="white"/>
</svg>
