<svg width="16" height="15" viewBox="0 0 16 15" fill="none" xmlns="http://www.w3.org/2000/svg">
<path d="M13.6347 0.500244C14.687 0.500244 15.5137 1.32524 15.5137 2.37524C15.5137 3.42524 14.687 4.25024 13.6347 4.25024C12.5824 4.25024 11.7557 3.42524 11.7557 2.37524C11.7557 2.30024 11.7557 2.22524 11.7557 2.15024L10.1021 1.85024C10.0269 1.85024 9.95178 1.85024 9.80145 1.85024C8.89951 1.85024 8.1479 2.52524 8.1479 3.42524V3.57524V4.32524C11.8308 4.55024 14.687 6.80024 14.687 9.57524C14.687 12.5002 11.455 14.8252 7.5466 14.8252C3.6382 14.8252 0.40625 12.5002 0.40625 9.57524C0.40625 6.80024 3.33755 4.55024 7.02047 4.32524V3.57524C7.02047 2.00024 8.29822 0.800244 9.87661 0.800244C9.95178 0.800244 10.1021 0.800244 10.1773 0.800244H10.3276L12.2066 1.10024C12.2066 1.10024 12.2066 1.10024 12.2818 1.10024C12.5824 0.725244 13.1086 0.500244 13.6347 0.500244ZM10.3276 10.7002C9.42564 11.1502 8.52371 11.3752 7.62177 11.3752C6.71983 11.3752 5.81789 11.1502 4.91595 10.7002C4.54014 10.5502 4.08917 10.7002 3.93885 11.0002C3.78852 11.3002 3.93885 11.8252 4.23949 11.9752C5.36692 12.5002 6.49434 12.8002 7.5466 12.8002C8.59887 12.8002 9.80145 12.5002 10.8537 11.9752C11.2295 11.8252 11.3798 11.3752 11.1544 11.0002C11.0792 10.7002 10.6282 10.5502 10.3276 10.7002ZM4.99111 7.62524C4.38982 7.62524 3.86368 8.15024 3.86368 8.75024C3.86368 9.35024 4.38982 9.87524 4.99111 9.87524C5.5924 9.87524 6.11853 9.35024 6.11853 8.75024C6.11853 8.15024 5.5924 7.62524 4.99111 7.62524ZM10.2524 7.62524C9.65113 7.62524 9.125 8.15024 9.125 8.75024C9.125 9.35024 9.65113 9.87524 10.2524 9.87524C10.8537 9.87524 11.3798 9.35024 11.3798 8.75024C11.3798 8.15024 10.8537 7.62524 10.2524 7.62524Z" fill="url(#paint0_linear_181_3055)"/>
<defs>
<linearGradient id="paint0_linear_181_3055" x1="15.5137" y1="0.500245" x2="-2.38127" y2="6.47162" gradientUnits="userSpaceOnUse">
<stop stop-color="#000756"/>
<stop offset="1" stop-color="#0042B8"/>
</linearGradient>
</defs>
</svg>
