<svg width="14" height="13" viewBox="0 0 14 13" fill="none" xmlns="http://www.w3.org/2000/svg">
<path d="M12.3056 2.16203L13.1775 1.75603C13.3519 1.69803 13.5844 1.81403 13.5844 2.04603C13.5844 2.39403 13.4681 3.03203 13.0612 4.01803C12.945 5.70003 12.1894 8.13603 10.7944 9.81803C8.64373 12.428 5.33061 13.124 0.796857 11.21C0.506232 11.094 0.564357 10.63 0.913107 10.63C2.07561 10.63 3.17998 10.34 4.16811 9.87603C3.17998 9.64403 2.42436 8.89003 2.01748 7.90403V7.84603L1.90123 7.78803C0.913107 7.15003 0.215607 5.99003 0.273732 4.65603L0.506232 4.54003C-0.0168932 3.55403 0.215607 2.27803 0.913107 1.64003C1.02936 1.52403 1.14561 1.52403 1.26186 1.64003C2.94748 2.85803 4.05186 3.43803 6.02811 3.96003C6.31873 0.886033 9.86436 -0.389967 12.3056 2.16203Z" fill="white"/>
</svg>
