<svg width="18" height="16" viewBox="0 0 18 16" fill="none" xmlns="http://www.w3.org/2000/svg">
<path d="M15.7571 2.67523L16.8845 2.15023C17.11 2.07523 17.4106 2.22523 17.4106 2.52523C17.4106 2.97523 17.2603 3.80023 16.7342 5.07523C16.5838 7.25023 15.6067 10.4002 13.8029 12.5752C11.0219 15.9502 6.73766 16.8502 0.87505 14.3752C0.499241 14.2252 0.574403 13.6252 1.02537 13.6252C2.52861 13.6252 3.95668 13.2502 5.23443 12.6502C3.95668 12.3502 2.97958 11.3752 2.45344 10.1002V10.0252L2.30312 9.95023C1.02537 9.12523 0.123433 7.62523 0.198595 5.90023L0.499241 5.75023C-0.177213 4.47523 0.123433 2.82523 1.02537 2.00023C1.1757 1.85023 1.32602 1.85023 1.47634 2.00023C3.65603 3.57523 5.0841 4.32523 7.6396 5.00023C8.01541 1.02523 12.6003 -0.624767 15.7571 2.67523Z" fill="url(#paint0_linear_181_3046)"/>
<defs>
<linearGradient id="paint0_linear_181_3046" x1="17.4106" y1="0.912232" x2="-2.62854" y2="8.27925" gradientUnits="userSpaceOnUse">
<stop stop-color="#000756"/>
<stop offset="1" stop-color="#0042B8"/>
</linearGradient>
</defs>
</svg>
