<svg width="120" height="107" viewBox="0 0 120 107" fill="none" xmlns="http://www.w3.org/2000/svg">
<path d="M91.579 32.8417C89.3684 31.5786 86.5263 31.5786 84 32.8417L66.3158 43.2628L54.3158 49.8944L36.9474 60.3154C34.7369 61.5786 31.8947 61.5786 29.3684 60.3154L15.7895 52.1049C13.579 50.8417 12 48.3154 12 45.4733L12 29.6839C12 27.1575 13.2632 24.6312 15.7895 23.0523L29.3684 15.1575C31.579 13.8944 34.4211 13.8944 36.9474 15.1575L50.5263 23.3681C52.7368 24.6312 54.3158 27.1575 54.3158 29.9996L54.3158 40.4207L66.3158 33.4733L66.3158 22.7365C66.3158 20.2102 65.0526 17.6839 62.5263 16.1049L37.2632 1.2628C35.0526 -0.000359774 32.2105 -0.000359774 29.6842 1.2628L3.78948 16.4207C1.26316 17.6839 2.08296e-06 20.2102 2.34747e-06 22.7365L5.45538e-06 52.4207C5.71988e-06 54.947 1.26316 57.4733 3.78948 59.0523L29.3684 73.8944C31.579 75.1575 34.4211 75.1575 36.9474 73.8944L54.3158 63.7891L66.3158 56.8417L83.6842 46.7365C85.8947 45.4733 88.7368 45.4733 91.2632 46.7365L104.842 54.6312C107.053 55.8944 108.632 58.4207 108.632 61.2628L108.632 77.0523C108.632 79.5786 107.368 82.1049 104.842 83.6839L91.579 91.5786C89.3684 92.8418 86.5263 92.8418 84 91.5786L70.4211 83.6839C68.2105 82.4207 66.6316 79.8944 66.6316 77.0523L66.6316 66.947L54.6316 73.8944L54.6316 84.3154C54.6316 86.8418 55.8948 89.3681 58.4211 90.947L84 105.789C86.2105 107.052 89.0526 107.052 91.579 105.789L117.158 90.947C119.368 89.6839 120.947 87.1575 120.947 84.3154L120.947 54.3154C120.947 51.7891 119.684 49.2628 117.158 47.6839L91.579 32.8417Z" fill="#8247E5"/>
</svg>
