<svg width="400" height="355" viewBox="0 0 400 355" fill="none" xmlns="http://www.w3.org/2000/svg">
<path d="M305.263 108.474C297.895 104.263 288.421 104.263 280 108.474L221.053 143.211L181.053 165.316L123.158 200.053C115.79 204.263 106.316 204.263 97.8948 200.053L52.6316 172.684C45.2632 168.474 40 160.053 40 150.579L40 97.9475C40 89.5264 44.2105 81.1054 52.6316 75.8422L97.8948 49.5264C105.263 45.3159 114.737 45.3159 123.158 49.5264L168.421 76.8948C175.79 81.1054 181.053 89.5264 181.053 99.0001L181.053 133.737L221.053 110.579L221.053 74.7896C221.053 66.3685 216.842 57.9475 208.421 52.6843L124.211 3.21063C116.842 -0.999897 107.368 -0.999897 98.9474 3.21063L12.6316 53.7369C4.21053 57.9475 6.94321e-06 66.3685 7.82489e-06 74.7896L1.81846e-05 173.737C1.90663e-05 182.158 4.21055 190.579 12.6316 195.842L97.8948 245.316C105.263 249.526 114.737 249.526 123.158 245.316L181.053 211.632L221.053 188.474L278.947 154.79C286.316 150.579 295.79 150.579 304.211 154.79L349.474 181.105C356.842 185.316 362.105 193.737 362.105 203.211L362.105 255.842C362.105 264.263 357.895 272.684 349.474 277.947L305.263 304.263C297.895 308.474 288.421 308.474 280 304.263L234.737 277.947C227.368 273.737 222.105 265.316 222.105 255.842L222.105 222.158L182.105 245.316L182.105 280.053C182.105 288.474 186.316 296.895 194.737 302.158L280 351.632C287.368 355.842 296.842 355.842 305.263 351.632L390.526 302.158C397.895 297.947 403.158 289.526 403.158 280.053L403.158 180.053C403.158 171.632 398.947 163.211 390.526 157.947L305.263 108.474Z" fill="#8247E5"/>
</svg>
