<svg width="47" height="30" viewBox="0 0 47 30" fill="none" xmlns="http://www.w3.org/2000/svg">
<path d="M29.6838 26.5553H17.0562V3.44849H29.6838V26.5553Z" fill="#FF5F00"/>
<path d="M17.8655 14.9999C17.8655 10.3126 20.021 6.13724 23.3776 3.4465C20.923 1.47889 17.8252 0.304487 14.4585 0.304487C6.48818 0.304487 0.0273438 6.88374 0.0273438 14.9999C0.0273438 23.1161 6.48818 29.6953 14.4585 29.6953C17.8252 29.6953 20.923 28.5209 23.3776 26.5533C20.021 23.8626 17.8655 19.6872 17.8655 14.9999Z" fill="#EB001B"/>
<path d="M46.7149 14.9999C46.7149 23.1161 40.2541 29.6953 32.2838 29.6953C28.9171 29.6953 25.8193 28.5209 23.3638 26.5533C26.7213 23.8626 28.8767 19.6872 28.8767 14.9999C28.8767 10.3126 26.7213 6.13724 23.3638 3.4465C25.8193 1.47889 28.9171 0.304487 32.2838 0.304487C40.2541 0.304487 46.7149 6.88374 46.7149 14.9999Z" fill="#F79E1B"/>
</svg>
