<svg width="58" height="18" viewBox="0 0 58 18" fill="none" xmlns="http://www.w3.org/2000/svg">
<path d="M12.7437 6.07248H8.81911C8.81911 5.40784 8.74335 4.96191 8.59259 4.73472C8.35899 4.39893 7.71452 4.23065 6.65958 4.23065C5.63485 4.23065 4.95569 4.3273 4.62431 4.521C4.29294 4.71546 4.12688 5.1379 4.12688 5.78829C4.12688 6.37708 4.27391 6.76524 4.56834 6.95085C4.77918 7.08293 5.05793 7.16033 5.40498 7.18344L6.19647 7.2412C7.8929 7.35711 8.95233 7.43913 9.37475 7.48572C10.7163 7.62512 11.6888 7.99326 12.2922 8.58975C12.7669 9.05531 13.0501 9.66373 13.1404 10.4146C13.1934 10.864 13.2195 11.3727 13.2195 11.9376C13.2195 13.24 13.099 14.1934 12.8583 14.7976C12.4213 15.9066 11.4395 16.6071 9.91212 16.9013C9.27213 17.0257 8.29331 17.0877 6.9764 17.0877C4.77843 17.0877 3.24694 16.9529 2.38194 16.6814C1.32065 16.3491 0.62058 15.6756 0.282116 14.6617C0.0932923 14.0972 0 13.1568 0 11.8406H3.92462C3.92462 11.9873 3.92499 12.0997 3.92499 12.1771C3.92499 12.8795 4.12053 13.3308 4.51124 13.5322C4.78179 13.6709 5.10831 13.7437 5.4923 13.7525H6.93535C7.67161 13.7525 8.14143 13.7136 8.34406 13.6354C8.70492 13.4891 8.94188 13.2534 9.05495 12.9273C9.11503 12.7263 9.14488 12.4667 9.14488 12.1487C9.14488 11.4366 8.89299 11.0034 8.38996 10.8479C8.20151 10.7866 7.3268 10.7008 5.76472 10.5925C4.51012 10.5001 3.63877 10.4112 3.15104 10.3249C1.86622 10.0769 1.0098 9.56669 0.582517 8.7923C0.206736 8.13458 0.0190316 7.13915 0.0190316 5.80716C0.0190316 4.79325 0.120534 3.97996 0.323538 3.36846C0.526542 2.75656 0.853811 2.29216 1.30535 1.97447C1.96697 1.48657 2.81369 1.20046 3.84401 1.11497C4.70156 1.03757 5.65277 0.998291 6.69913 0.998291C8.3463 0.998291 9.52029 1.0961 10.22 1.2898C11.928 1.76344 12.7818 3.08966 12.7818 5.26921C12.7818 5.44788 12.7691 5.71513 12.7437 6.07248Z" fill="white"/>
<path d="M30.002 17.0873V0.912476H36.1507H37.1157H37.8616C38.9397 0.912476 39.7622 1.00297 40.3275 1.18473C41.6202 1.60254 42.4874 2.45857 42.9319 3.75167C43.161 4.43056 43.276 5.45256 43.276 6.81728C43.276 8.45811 43.1487 9.63683 42.8968 10.355C42.3927 11.7744 41.3553 12.5923 39.7883 12.8041C39.604 12.8361 38.8199 12.8642 37.4359 12.8873L36.7358 12.9112H34.2206V17.0873H30.002ZM34.2206 9.15895H36.8504C37.6844 9.12814 38.1915 9.06191 38.374 8.95832C38.6233 8.817 38.7908 8.53358 38.874 8.10884C38.9274 7.82619 38.9539 7.40568 38.9539 6.84732C38.9539 6.16303 38.9009 5.65588 38.7946 5.32471C38.6431 4.86069 38.2796 4.57843 37.7042 4.47561C37.59 4.46021 37.3176 4.45174 36.8858 4.45174H34.2206V9.15895Z" fill="white"/>
<path d="M52.2815 14.2921H46.641L45.8831 17.0874H41.5186L46.2283 0.912476H52.592L57.3592 17.0874H53.0864L52.2815 14.2921ZM51.4437 11.141L49.4671 4.12943L47.549 11.141H51.4437Z" fill="white"/>
<path d="M24.1797 3.18807C25.9194 3.18807 27.4726 4.01522 28.4932 5.31063L29.4026 3.29859C27.9805 1.91154 26.0448 1.05627 23.9099 1.05627C20.5857 1.05627 17.7422 3.128 16.5753 6.06077H14.802L13.7549 8.37702H16.0361C16.0189 8.59189 16.0077 8.80677 16.0077 9.02626C16.0077 9.29158 16.0211 9.5542 16.0465 9.81336H14.9001L13.8534 12.1304H16.6298C17.8299 14.9888 20.638 16.9955 23.9099 16.9955C25.559 16.9955 27.089 16.4856 28.3559 15.6146V12.775C27.3356 13.9738 25.8433 14.7312 24.1797 14.7312C22.2352 14.7312 20.5245 13.6965 19.5286 12.1304H25.3418L26.3889 9.81336H18.6733C18.6333 9.53457 18.6121 9.24961 18.6121 8.95926C18.6121 8.76287 18.6218 8.56879 18.6404 8.37702H27.0378L28.0846 6.06077H19.3662C20.3305 4.3437 22.1247 3.18807 24.1797 3.18807Z" fill="#FFBE00"/>
<path d="M24.1794 3.25737C25.8374 3.25737 27.3905 4.02213 28.4406 5.35451L28.5085 5.44077L28.5544 5.34026L29.4635 3.32822L29.4836 3.2824L29.4489 3.24774C27.954 1.78983 25.9866 0.986938 23.9096 0.986938C22.2874 0.986938 20.7268 1.47599 19.3957 2.40133C18.096 3.30473 17.0989 4.56124 16.513 6.03417L16.5749 5.99104H14.8016H14.7584L14.7404 6.03109L13.6937 8.34773L13.6489 8.44669H13.7545H16.0357L15.9685 8.37122C15.9495 8.61189 15.9402 8.82561 15.9402 9.02624C15.9402 9.28617 15.9532 9.5538 15.979 9.82027L16.0462 9.74403H14.8998H14.8572L14.8393 9.78407L13.7918 12.1007L13.7474 12.1997H13.853H16.6294L16.5675 12.1577C17.8191 15.1386 20.7011 17.0648 23.9096 17.0648C25.5179 17.0648 27.0677 16.5838 28.3928 15.6727L28.4223 15.6523V15.6146V12.775V12.5905L28.3048 12.7292C27.2595 13.9572 25.756 14.6611 24.1794 14.6611C22.3247 14.6611 20.607 13.7003 19.5842 12.0919L19.5282 12.1997H25.3414H25.3847L25.4026 12.16L26.4497 9.84261L26.4945 9.74403H26.3885H18.6729L18.7397 9.80333C18.6998 9.52261 18.6792 9.23919 18.6792 8.95924C18.6792 8.76862 18.6886 8.57531 18.7072 8.38393L18.6401 8.44669H27.0375H27.0808L27.0987 8.40665L28.1454 6.09001L28.1906 5.99104H28.0842H19.3659L19.4241 6.0954C20.407 4.34483 22.2296 3.25737 24.1794 3.25737ZM19.3659 6.13006H28.0842L28.023 6.03109L26.9767 8.34773L27.0375 8.30768H18.6401H18.5792L18.5725 8.37045C18.5539 8.56607 18.5445 8.76439 18.5445 8.95924C18.5445 9.24573 18.5654 9.53685 18.6061 9.82374L18.6151 9.88304H18.6729H26.3885L26.3277 9.78407L25.281 12.1007L25.3414 12.0607H19.5282H19.4032L19.4719 12.1677C20.5193 13.8166 22.2796 14.7997 24.1794 14.7997C25.7945 14.7997 27.3353 14.0789 28.4063 12.8208L28.288 12.775V15.6146L28.3178 15.5572C27.0151 16.4525 25.4911 16.9258 23.9096 16.9258C20.7544 16.9258 17.9213 15.0323 16.6914 12.1023L16.6735 12.0607H16.6294H13.853L13.9146 12.16L14.961 9.84261L14.8998 9.88304H16.0462H16.1204L16.1133 9.80641C16.088 9.54456 16.0745 9.28155 16.0745 9.02624C16.0745 8.82985 16.0839 8.61921 16.1029 8.38277L16.1089 8.30768H16.0357H13.7545L13.8154 8.40665L14.8625 6.09001L14.8016 6.13006H16.5749H16.6201L16.6369 6.08693C17.2134 4.63942 18.1934 3.40485 19.4711 2.51647C20.7794 1.6073 22.3147 1.12634 23.9096 1.12634C25.9523 1.12634 27.8861 1.91536 29.356 3.34901L29.3411 3.26892L28.4324 5.28134L28.5455 5.26671C27.4689 3.9016 25.8781 3.11835 24.1794 3.11835C22.1811 3.11835 20.3148 4.23239 19.3073 6.0257L19.2487 6.13006H19.3659Z" fill="#FFBE00"/>
</svg>
