<svg width="45" height="44" viewBox="0 0 45 44" fill="none" xmlns="http://www.w3.org/2000/svg">
<path fill-rule="evenodd" clip-rule="evenodd" d="M1.55176 22.0001C1.55176 24.2496 1.90875 26.4158 2.56918 28.445H42.1486C42.809 26.4158 43.166 24.2496 43.166 22.0001C43.166 19.7629 42.8129 17.6081 42.1594 15.5884H2.55838C1.90486 17.6081 1.55176 19.7629 1.55176 22.0001ZM10.7489 29.6379H2.99834C3.88711 31.8888 5.1571 33.9477 6.72874 35.7348H13.1538C12.1032 33.9921 11.2274 31.9613 10.7489 29.6379ZM13.9288 36.9277H7.86405C10.9811 39.9549 15.0432 42.0144 19.5654 42.6212C18.7563 42.0346 17.7599 41.235 16.7247 40.2192C15.7905 39.3025 14.8211 38.2061 13.9288 36.9277ZM21.7134 42.616C21.7187 42.6192 21.724 42.6223 21.7292 42.6254V36.9277H15.4043C16.1042 37.8489 16.8408 38.6619 17.5601 39.3678C18.7363 40.5219 19.8601 41.383 20.6881 41.9544C21.1017 42.2399 21.4408 42.4525 21.6744 42.5928C21.6878 42.6008 21.7007 42.6085 21.7134 42.616ZM14.5622 35.7348H21.7292V29.6379H11.9685C12.4867 31.9868 13.4395 34.0176 14.5622 35.7348ZM22.922 35.7348V29.6379H32.8196C32.2932 31.9893 31.3362 34.0195 30.211 35.7348H22.922ZM41.7194 29.6379H34.04C33.5538 31.9633 32.6739 33.9936 31.6208 35.7348H37.9889C39.5606 33.9477 40.8306 31.8888 41.7194 29.6379ZM36.8536 36.9277H30.8433C29.9361 38.2234 28.9502 39.3314 28.0017 40.2547C26.9781 41.2512 25.994 42.0369 25.1913 42.6159C29.6978 42.0025 33.7454 39.9462 36.8536 36.9277ZM22.922 36.9277V42.6766C22.9629 42.653 23.0092 42.6259 23.0608 42.5953C23.2937 42.4568 23.6317 42.2466 24.0445 41.9641C24.8707 41.3986 25.9928 40.5457 27.1697 39.4C27.9018 38.6873 28.6527 37.8636 29.3662 36.9277H22.922ZM33.8524 14.3955H41.7325C40.8486 12.1455 39.5841 10.0868 38.0182 8.29862H31.473C32.5125 10.0446 33.3787 12.0759 33.8524 14.3955ZM30.708 7.10574H36.8879C33.7589 4.05301 29.6716 1.978 25.1199 1.37447C25.917 1.96305 26.893 2.75953 27.9068 3.76632C28.843 4.69597 29.8148 5.80859 30.708 7.10574ZM22.9811 1.36586C22.9606 1.35335 22.9409 1.34141 22.922 1.33003V7.10574H29.2397C28.5347 6.16375 27.7915 5.33296 27.0663 4.61274C25.898 3.45251 24.7822 2.58544 23.9602 2.00957C23.5495 1.72183 23.213 1.50736 22.9811 1.36586ZM30.0698 8.29862H22.922V14.3955H32.6332C32.1207 12.051 31.1796 10.0197 30.0698 8.29862ZM21.7292 8.29862V14.3955H11.8137C12.338 12.0485 13.2995 10.0178 14.4338 8.29862H21.7292ZM2.98523 14.3955H10.5934C11.0774 12.0735 11.9611 10.0427 13.0218 8.29862H6.69946C5.1336 10.0868 3.8691 12.1455 2.98523 14.3955ZM7.82977 7.10574H13.8036C14.7279 5.79267 15.7349 4.66991 16.7036 3.73495C17.7262 2.74788 18.7103 1.96574 19.5177 1.38522C14.9981 2.00233 10.9404 4.07088 7.82977 7.10574ZM21.7292 7.10574V1.35885C21.7202 1.3641 21.7112 1.36946 21.7019 1.37493C21.4653 1.51486 21.122 1.727 20.7029 2.01189C19.8642 2.58206 18.7254 3.44128 17.532 4.59322C16.7818 5.3173 16.0127 6.15446 15.2835 7.10574H21.7292ZM22.3587 44C10.2087 44 0.358887 34.1501 0.358887 22.0001C0.358887 9.8499 10.2087 0 22.3587 0C34.5088 0 44.3589 9.84989 44.3589 22.0001C44.3589 34.1501 34.5087 44 22.3587 44ZM4.71627 19.6087C4.70734 17.8476 6.00802 16.7446 7.5061 16.7125C7.86935 16.7049 8.30594 16.8817 8.66931 17.0288C8.7977 17.0808 8.91695 17.1291 9.02059 17.1642C9.31474 17.2638 9.43027 17.2656 9.54104 17.2673C9.5705 17.2678 9.59963 17.2682 9.63169 17.2705C9.97044 17.2943 10.4004 17.2766 10.4819 16.9251H10.8539L9.9771 19.9009H9.63169C9.48724 18.7296 9.02705 17.6022 7.95779 17.6159C7.38698 17.6234 6.81295 17.8486 6.6293 18.6521C6.40731 19.6232 6.89434 20.2029 8.14378 21.4154C8.95599 22.204 9.57079 22.8846 9.57855 23.8864C9.59369 25.8171 8.03223 26.8563 6.44331 26.8623C5.77204 26.8648 5.38139 26.7144 5.06247 26.5917C4.82966 26.502 4.63507 26.4271 4.39743 26.4372C4.36235 26.4386 4.32127 26.4395 4.2759 26.4405C3.93463 26.4476 3.35088 26.4599 3.25493 26.7826H2.88295L3.86603 23.2222H4.23801C3.88063 24.7187 4.7819 25.9566 6.07133 25.9589C6.94165 25.961 7.75163 25.1983 7.7718 24.7101C7.81102 23.7571 7.64358 23.6034 7.10987 23.1136C6.89649 22.9177 6.62456 22.6681 6.28389 22.2922C6.24106 22.245 6.19819 22.1979 6.15539 22.1508C5.42606 21.3493 4.72115 20.5745 4.71627 19.6087ZM11.1462 17.6956L11.2525 17.1111H14.5205L14.3611 17.6956C13.7913 17.6968 13.7979 18.0004 13.8025 18.2136C13.8027 18.2274 13.803 18.2407 13.8032 18.2536C13.8041 18.3654 13.8037 18.5119 13.8034 18.6362C13.8033 18.6806 13.8032 18.7222 13.8032 18.7584V22.6642L13.8829 22.6111L16.035 19.1304V18.3067C16.0421 17.8555 15.8218 17.7093 15.3176 17.6956L15.4239 17.1111H18.7717L18.6654 17.6956C18.1825 17.6969 18.0115 17.7107 18.0278 18.3333C18.031 18.4575 18.0301 18.6201 18.0278 18.785V22.4517L18.0809 22.5314L20.5519 18.4927C20.6636 18.2861 20.6936 18.1533 20.6848 17.9879C20.6677 17.6669 20.3748 17.6756 19.9123 17.6893C19.8063 17.6925 19.6914 17.6959 19.5688 17.6956L19.6751 17.1111H22.6775L22.5446 17.6956C21.9793 17.7093 21.8104 17.9873 21.5881 18.3864L21.5732 18.4111C21.2782 18.8979 16.7064 26.4426 16.4867 26.7826C16.2597 27.1336 16.035 26.7826 16.035 26.7826L16.0616 20.7777V20.5918C16.0616 20.5918 12.5326 26.4313 12.3152 26.7826C12.0981 27.1336 11.9433 26.7826 11.9433 26.7826V18.785C11.9449 17.6989 11.7385 17.698 11.1681 17.6957L11.1462 17.6956ZM23.0229 17.6956L23.1292 17.1111H27.035L26.9021 17.6956C26.1995 17.7099 25.7383 17.7718 25.547 18.413L23.6871 25.2681C23.6698 25.3281 23.65 25.3837 23.6311 25.4369C23.5927 25.545 23.5579 25.6429 23.5543 25.7463C23.5539 25.7583 23.5534 25.7702 23.5529 25.7818C23.543 26.0112 23.5356 26.1847 24.192 26.198L24.0591 26.7826H20.1534L20.2596 26.198C20.9875 26.2037 21.5331 25.9608 21.6413 25.5072L23.4746 18.6787C23.4935 18.6067 23.5135 18.5391 23.5321 18.4762C23.5787 18.3187 23.6167 18.1904 23.6074 18.0942C23.5774 17.7851 23.2973 17.6814 23.0229 17.6956ZM27.4335 17.6956L27.5663 17.1111H34.2885L33.5977 19.6884H33.2257C33.3197 18.1059 32.6513 17.9213 31.5253 17.9348C31.4908 17.9352 31.4579 17.9354 31.4265 17.9357C30.8696 17.94 30.7828 17.9407 30.5422 18.7584L29.9576 21.0966H30.3296C30.6172 21.1067 31.4344 21.0928 31.8175 20.1135L32.1895 20.1666L31.4987 23.0096H31.047C31.0362 22.9192 31.0339 22.8075 31.0312 22.677C31.0292 22.5771 31.0269 22.4662 31.0204 22.3454C30.9966 21.9118 30.7679 21.8109 29.9576 21.814H29.7716L28.9214 24.7367C28.8845 24.9167 28.8294 25.1222 28.7889 25.2735C28.7789 25.3108 28.7697 25.3448 28.762 25.3744C28.5782 26.0743 28.9448 26.1957 29.8514 26.198L29.6919 26.7826H25.547L25.7065 26.198C26.226 26.184 26.6573 25.991 26.7958 25.3744L28.576 18.7319C28.6064 18.6063 28.6067 18.5658 28.6069 18.5338C28.6071 18.5051 28.6072 18.4833 28.6291 18.413C28.8242 17.7883 28.1425 17.7431 27.5792 17.7057C27.5295 17.7024 27.4807 17.6992 27.4335 17.6956ZM34.1025 19.6884L34.8199 17.1111H41.4358L40.745 19.6884H40.3464C40.4308 18.4864 40.155 17.9339 38.7788 17.9348L36.9721 24.8164C36.9301 24.9937 36.8841 25.1559 36.8452 25.2927C36.8222 25.3738 36.8017 25.446 36.7861 25.5072C36.6768 25.9344 37.0222 26.3032 37.5832 26.2512L37.4769 26.7826H33.0929L33.2257 26.198L33.2581 26.1975C34.0889 26.1837 34.7404 26.1728 34.8731 25.0289L36.8127 17.9348C36.0697 17.9348 35.6013 18.0851 35.1653 18.4662C34.7764 18.8155 34.7391 18.9463 34.576 19.5194C34.5611 19.5718 34.5451 19.628 34.5277 19.6884H34.1025ZM17.6824 26.3309C17.7414 25.9798 17.9835 25.6924 18.2138 25.6932C18.4437 25.6942 18.5917 25.9801 18.5326 26.3309C18.4734 26.6819 18.2312 26.9696 18.0012 26.9686C17.7709 26.9678 17.6232 26.6819 17.6824 26.3309ZM24.4842 26.3309C24.5433 25.9798 24.7855 25.6924 25.0156 25.6932C25.2458 25.6942 25.3938 25.9801 25.3345 26.3309C25.2754 26.6819 25.0332 26.9696 24.8031 26.9686C24.5729 26.9678 24.425 26.6819 24.4842 26.3309ZM30.3296 26.3309C30.3886 25.9798 30.6309 25.6924 30.861 25.6932C31.0911 25.6942 31.2125 25.9801 31.1533 26.3309C31.0942 26.6819 30.852 26.9696 30.6219 26.9686C30.3917 26.9678 30.2703 26.6819 30.3296 26.3309ZM9.41913 26.3574C9.47817 26.0064 9.69398 25.7187 9.92396 25.7198C10.1541 25.7208 10.302 26.0064 10.2428 26.3574C10.1838 26.7085 9.94154 26.9962 9.7114 26.9951C9.48142 26.9941 9.36 26.7085 9.41913 26.3574ZM38.1412 26.3574C38.2002 26.0064 38.4424 25.719 38.6726 25.7198C38.9027 25.7208 39.0507 26.0067 38.9914 26.3574C38.9324 26.7085 38.6901 26.9962 38.46 26.9951C38.2299 26.9944 38.0819 26.7085 38.1412 26.3574Z" fill="white"/>
</svg>
