<svg width="63" height="22" viewBox="0 0 63 22" fill="none" xmlns="http://www.w3.org/2000/svg">
<path d="M26.8787 21.0019H21.854L24.9968 1.06201H30.0212L26.8787 21.0019Z" fill="white"/>
<path d="M45.0931 1.54961C44.102 1.14615 42.5301 0.700684 40.5864 0.700684C35.6244 0.700684 32.1302 3.41577 32.1087 7.29752C32.0675 10.1615 34.6105 11.7522 36.5124 12.7071C38.4564 13.6829 39.1172 14.3198 39.1172 15.1896C39.0974 16.5254 37.5464 17.1412 36.0997 17.1412C34.0937 17.1412 33.0188 16.8237 31.3853 16.0805L30.7236 15.7619L30.0205 20.238C31.199 20.7889 33.3702 21.2778 35.6244 21.2992C40.8966 21.2992 44.329 18.6262 44.3697 14.4895C44.3897 12.2196 43.0469 10.4803 40.152 9.05908C38.3946 8.14672 37.3183 7.53153 37.3183 6.59803C37.3389 5.74939 38.2286 4.88016 40.2124 4.88016C41.8459 4.83759 43.0461 5.24048 43.9553 5.64366L44.4098 5.8554L45.0931 1.54961Z" fill="white"/>
<path d="M51.7715 13.9379C52.1853 12.7924 53.7776 8.35891 53.7776 8.35891C53.7567 8.40148 54.1906 7.19224 54.4387 6.44989L54.7899 8.16803C54.7899 8.16803 55.7414 12.941 55.948 13.9379C55.1627 13.9379 52.764 13.9379 51.7715 13.9379ZM57.9739 1.06201H54.0873C52.8887 1.06201 51.9782 1.42233 51.4611 2.71644L43.9976 21.0017H49.2698C49.2698 21.0017 50.1378 18.5406 50.3243 18.0106C50.9027 18.0106 56.0315 18.0106 56.7756 18.0106C56.9199 18.7106 57.3751 21.0017 57.3751 21.0017H62.0275L57.9739 1.06201Z" fill="white"/>
<path d="M17.6569 1.06201L12.7361 14.6591L12.1984 11.9015C11.2886 8.71951 8.43547 5.26236 5.25146 3.54337L9.75874 20.9808H15.0722L22.9701 1.06201H17.6569Z" fill="white"/>
<path d="M8.1669 1.06201H0.0827046L0 1.4649C6.30618 3.11961 10.4826 7.10822 12.1986 11.9023L10.4412 2.73815C10.1518 1.46462 9.26268 1.10402 8.1669 1.06201Z" fill="#FAA61A"/>
</svg>
