<svg width="400" height="400" viewBox="0 0 400 400" fill="none" xmlns="http://www.w3.org/2000/svg">
    <g clip-path="url(#clip0)">
        <path d="M0 0L400 0L400 400L4.18797e-05 400L0 0Z" fill="#1B1F2B"/>
        <path d="M134.004 86.0039L266.004 86.0039L266.004 314.004H134.004L134.004 86.0039Z" fill="#1B1F2B"/>
        <path fill-rule="evenodd" clip-rule="evenodd" d="M121.431 86.0053L134.005 73.4316L266.005 73.4316L278.578 86.0053L278.578 314.005L266.005 326.579H134.005L121.431 314.005L121.431 86.0053ZM146.578 98.579L146.578 301.432H253.431L253.431 98.579L146.578 98.579Z" fill="url(#paint0_linear)"/>
        <path d="M240 236.001H212.665L212.665 264.638H188L188 236.001H160.665L160.665 211.335H240L240 236.001ZM240 165.331H212.665L212.665 136.693H188L188 165.331H160.665L160.665 189.996H240L240 165.331Z" fill="url(#paint1_linear)"/>
    </g>
    <defs>
        <linearGradient id="paint0_linear" x1="103.714" y1="103.714" x2="296.286" y2="296.287" gradientUnits="userSpaceOnUse">
            <stop stop-color="#2AB8E6"/>
            <stop offset="0.53" stop-color="#29CAD2"/>
            <stop offset="1" stop-color="#2EE4BE"/>
        </linearGradient>
        <linearGradient id="paint1_linear" x1="14087.9" y1="22643.4" x2="23557.7" y2="28515.4" gradientUnits="userSpaceOnUse">
            <stop stop-color="#2AB8E6"/>
            <stop offset="0.53" stop-color="#29CAD2"/>
            <stop offset="1" stop-color="#2EE4BE"/>
        </linearGradient>
        <clipPath id="clip0">
            <path d="M2.09398e-05 200C9.37509e-06 89.5431 89.5431 0 200 0V0C310.457 0 400 89.5431 400 200V200C400 310.457 310.457 400 200 400V400C89.5431 400 3.25046e-05 310.457 2.09398e-05 200V200Z" fill="white"/>
        </clipPath>
    </defs>
</svg>
