<svg width="400" height="400" viewBox="0 0 400 400" fill="none" xmlns="http://www.w3.org/2000/svg">
    <g clip-path="url(#clip0)">
        <path d="M261.979 37.5L116.362 37.5L104.285 104.972L235.723 105.128C300.468 105.128 319.556 128.657 319.011 167.613C318.699 187.558 310.051 221.372 306.311 232.358C296.338 261.575 275.847 294.843 199.026 294.765L71.2506 294.687L59.2132 362.237H204.519C255.785 362.237 277.523 356.238 300.662 345.642C351.851 321.879 382.314 271.392 394.546 205.478C412.661 107.309 390.066 37.5 261.979 37.5Z" fill="#008DE4"/>
        <path d="M53.5255 165.977C15.3487 165.977 9.89482 190.83 6.31087 205.867C1.55825 225.501 7.0724e-06 233.526 7.0724e-06 233.526H149.124C187.3 233.526 192.754 208.672 196.338 193.635C201.091 174.001 202.649 165.977 202.649 165.977L53.5255 165.977Z" fill="#008DE4"/>
    </g>
    <defs>
        <clipPath id="clip0">
            <rect width="400" height="400" fill="white"/>
        </clipPath>
    </defs>
</svg>
