<svg width="120" height="120" viewBox="0 0 120 120" fill="none" xmlns="http://www.w3.org/2000/svg">
    <g clip-path="url(#clip0)">
        <path d="M78.5937 11.25L34.9085 11.25L31.2855 31.4915L70.7168 31.5383C90.1403 31.5383 95.8668 38.5971 95.7032 50.2839C95.6097 56.2675 93.0152 66.4117 91.8933 69.7073C88.9015 78.4724 82.7542 88.453 59.7078 88.4296L21.3751 88.4062L17.7639 108.671H61.3557C76.7355 108.671 83.2568 106.871 90.1987 103.693C105.555 96.5636 114.694 81.4175 118.364 61.6435C123.798 32.1927 117.02 11.25 78.5937 11.25Z" fill="#008DE4"/>
        <path d="M16.0577 49.793C4.6046 49.793 2.96845 57.2491 1.89326 61.7602C0.467474 67.6504 2.12172e-06 70.0579 2.12172e-06 70.0579H44.737C56.1901 70.0579 57.8263 62.6017 58.9014 58.0906C60.3272 52.2004 60.7947 49.793 60.7947 49.793L16.0577 49.793Z" fill="#008DE4"/>
    </g>
    <defs>
        <clipPath id="clip0">
            <rect width="120" height="120" fill="white"/>
        </clipPath>
    </defs>
</svg>
