<svg width="400" height="400" viewBox="0 0 400 400" fill="none" xmlns="http://www.w3.org/2000/svg">
    <g clip-path="url(#clip0)">
        <path d="M399.546 0.453125L0.453125 0.453125L0.453167 399.546L399.546 399.546L399.546 0.453125Z" fill="black" stroke="black" stroke-miterlimit="10"/>
        <path d="M338.866 115.555C334.15 111.836 328.526 106.757 318.277 105.487C308.662 104.217 298.866 110.657 292.245 114.92C285.624 119.183 273.107 131.7 267.936 135.51C262.766 139.319 249.524 142.857 228.209 155.646C206.893 168.435 123.265 222.131 123.265 222.131L145.034 222.403L47.9818 272.38H57.687L43.7188 282.993C43.7188 282.993 56.0544 286.258 66.3945 279.727L66.3945 282.721C66.3945 282.721 181.95 237.188 204.263 248.979L190.658 252.97C191.837 252.97 213.787 254.421 213.787 254.421C214.32 258.967 215.847 263.339 218.262 267.227C220.676 271.114 223.917 274.423 227.755 276.916C240.998 285.623 241.27 290.43 241.27 290.43C241.27 290.43 234.376 293.242 234.376 296.78C234.376 296.78 244.535 293.696 253.968 293.968C259.955 294.195 265.893 295.139 271.655 296.78C271.655 296.78 270.93 292.97 261.769 290.43C252.608 287.891 243.537 277.913 239.093 272.471C236.371 269.007 234.596 264.894 233.944 260.537C233.292 256.18 233.785 251.728 235.374 247.619C238.549 239.365 249.614 234.829 272.472 223.038C299.41 209.07 305.578 198.73 309.388 190.657C313.197 182.585 318.821 166.53 321.995 159.002C325.986 149.297 330.884 144.127 334.966 141.043C339.048 137.959 357.188 131.156 357.188 131.156C357.188 131.156 343.311 119.093 338.866 115.555Z" fill="white"/>
    </g>
    <defs>
        <clipPath id="clip0">
            <path d="M2.09398e-05 200C9.37509e-06 89.5431 89.5431 0 200 0V0C310.457 0 400 89.5431 400 200V200C400 310.457 310.457 400 200 400V400C89.5431 400 3.25046e-05 310.457 2.09398e-05 200V200Z" fill="white"/>
        </clipPath>
    </defs>
</svg>
