<svg width="120" height="120" viewBox="0 0 120 120" fill="none" xmlns="http://www.w3.org/2000/svg">
    <g clip-path="url(#clip0)">
        <path d="M119.864 0.136719L0.135986 0.136719L0.135999 119.865L119.864 119.865L119.864 0.136719Z" fill="black" stroke="black" stroke-miterlimit="10"/>
        <path d="M101.66 34.6669C100.245 33.5513 98.5578 32.0275 95.483 31.6465C92.5986 31.2656 89.6598 33.1975 87.6734 34.4764C85.687 35.7554 81.9319 39.5105 80.3809 40.6533C78.8299 41.7962 74.8571 42.8574 68.4626 46.6941C62.068 50.5309 36.9796 66.6397 36.9796 66.6397L43.5102 66.7213L14.3945 81.7145H17.3061L13.1156 84.8982C13.1156 84.8982 16.8163 85.8778 19.9183 83.9186L19.9183 84.8166C19.9183 84.8166 54.585 71.1567 61.2789 74.6941L57.1972 75.8914C57.551 75.8914 64.136 76.3268 64.136 76.3268C64.2959 77.6904 64.7542 79.002 65.4785 80.1684C66.2027 81.3347 67.1752 82.3272 68.3265 83.0751C72.2993 85.6873 72.3809 87.1295 72.3809 87.1295C72.3809 87.1295 70.3129 87.973 70.3129 89.0342C70.3129 89.0342 73.3605 88.1091 76.1905 88.1907C77.9865 88.2588 79.7679 88.542 81.4966 89.0342C81.4966 89.0342 81.2789 87.8914 78.5306 87.1295C75.7823 86.3676 73.0612 83.3744 71.7279 81.7417C70.9112 80.7025 70.3789 79.4687 70.1833 78.1615C69.9877 76.8543 70.1355 75.5187 70.6122 74.2859C71.5646 71.8098 74.8843 70.4492 81.7415 66.9118C89.8231 62.7213 91.6734 59.6193 92.8163 57.1975C93.9592 54.7758 95.6462 49.9594 96.5986 47.7009C97.7959 44.7894 99.2653 43.2383 100.49 42.3132C101.714 41.388 107.156 39.3472 107.156 39.3472C107.156 39.3472 102.993 35.7281 101.66 34.6669Z" fill="white"/>
    </g>
    <defs>
        <clipPath id="clip0">
            <path d="M6.28195e-06 60C2.81253e-06 26.8629 26.8629 0 60 0C93.1371 0 120 26.8629 120 60C120 93.1371 93.1371 120 60 120C26.8629 120 9.75138e-06 93.1371 6.28195e-06 60Z" fill="white"/>
        </clipPath>
    </defs>
</svg>
