<svg width="389" height="125" viewBox="0 0 389 125" fill="none" xmlns="http://www.w3.org/2000/svg">
    <g clip-path="url(#clip0)">
        <path d="M148.024 113.266L147.44 112.974C124.655 99.6338 107.421 77.628 100.41 51.3378C99.2901 47.1996 98.4624 42.9639 97.8782 38.6796C97.3427 34.3953 97.0506 30.0623 97.0019 25.7293C97.0019 24.999 96.9045 25.0964 97.5861 24.7556C106.155 19.887 115.21 16.333 124.801 14.0935C128.355 13.2658 131.909 12.6329 135.512 12.1948C140.478 11.6105 145.444 11.3671 150.458 11.4645C153.282 11.5132 156.057 11.7079 158.832 12C172.805 13.5093 185.901 17.6962 198.17 24.5609C198.365 24.6582 198.511 24.7556 198.706 24.853C198.9 24.9503 198.998 25.0964 198.998 25.3398V26.0701C198.949 28.6017 198.852 31.0847 198.657 33.6163C198.365 37.2191 197.878 40.7731 197.196 44.3271C195.736 51.9708 193.448 59.3223 190.283 66.3816C185.268 77.628 178.404 87.6572 169.738 96.4205C163.506 102.75 156.544 108.202 148.852 112.73C148.56 112.925 148.316 113.071 148.024 113.266ZM101.676 28.2123V28.7965C101.676 32.3505 101.919 35.9532 102.357 39.4586C102.747 42.6718 103.282 45.8364 104.013 49.0009C104.159 49.5365 104.305 50.072 104.548 50.6076C108.93 59.9065 119.056 64.8724 129.086 62.5842C136.729 60.8315 142.961 54.9406 145.054 47.3943C145.639 45.3008 145.833 43.1587 145.931 41.0165C145.979 39.6046 146.125 38.1928 146.369 36.7809C148.024 28.2123 153.72 21.1529 161.753 17.7936C162.192 17.5988 162.678 17.4528 163.117 17.258C163.165 17.2094 163.263 17.2094 163.263 17.112C161.997 16.6738 154.451 15.8948 149.923 15.7975C140.186 15.6027 130.643 16.8686 121.345 19.6923C114.431 21.7858 107.907 24.6095 101.676 28.2123ZM173.487 86.5374C173.73 86.3913 173.876 86.1966 173.973 86.0506C175.921 83.6163 177.771 81.0846 179.475 78.4556C185.561 69.0107 189.845 58.8354 192.23 47.8325C193.058 44.0837 193.594 40.3349 193.934 36.5375C194.178 33.9571 194.275 31.3768 194.275 28.7478C194.275 28.5531 194.275 28.407 194.227 28.2123L193.496 27.7741C191.5 26.6543 189.455 25.5832 187.411 24.6095C184.392 23.1977 181.374 21.9318 178.209 20.9094C174.363 19.6923 170.468 19.5463 166.573 20.52C155.424 23.1977 148.268 34.1519 150.41 45.3982C151.578 51.63 154.937 56.4985 160.293 59.9065C160.634 60.1499 161.023 60.3446 161.364 60.5881C165.307 62.9737 168.375 66.2356 170.565 70.2765C172.902 74.5121 173.925 79.0885 173.633 83.9084C173.681 84.736 173.584 85.6124 173.487 86.5374ZM148.024 108.3C148.219 108.202 148.462 108.056 148.657 107.91C154.791 104.308 160.439 100.023 165.6 95.1547C165.94 94.8626 166.184 94.4731 166.379 94.0836C166.719 93.4507 167.06 92.7691 167.352 92.1362C169.787 87.073 170.322 81.8149 168.715 76.3622C165.551 65.8461 155.424 59.8091 145.249 61.0749C142.328 61.4157 139.65 62.3408 137.119 63.8013C132.299 66.5277 127.138 67.6475 121.588 67.1119C118.862 66.8685 116.281 66.1382 113.798 65.0671C111.851 64.1908 110.001 63.1197 108.346 61.8052C108.248 61.7078 108.102 61.6592 107.859 61.5131C107.907 61.7565 107.956 61.9026 108.005 62C110.196 67.5501 112.873 72.8081 116.038 77.8227C119.495 83.2268 123.438 88.2414 127.917 92.8178C132.396 97.3943 137.313 101.484 142.62 105.038C145.054 106.596 147.343 108.008 148.024 108.3Z" fill="black"/>
        <path d="M101.676 28.2122C107.907 24.6095 114.431 21.7857 121.296 19.741C130.643 16.9659 140.137 15.6514 149.874 15.8461C154.402 15.9435 161.948 16.6738 163.214 17.1606C163.263 17.258 163.165 17.3067 163.068 17.3067C162.63 17.5014 162.143 17.6475 161.705 17.8422C153.672 21.2015 147.975 28.2609 146.32 36.8295C146.077 38.2414 145.931 39.6533 145.882 41.0652C145.833 43.2073 145.639 45.3495 145.006 47.4429C142.863 54.9892 136.68 60.8801 129.037 62.6328C119.008 64.921 108.881 59.9551 104.499 50.6562C104.256 50.1206 104.061 49.5851 103.964 49.0496C103.234 45.885 102.698 42.7205 102.309 39.5072C101.87 35.9532 101.627 32.3992 101.627 28.8451C101.676 28.6017 101.676 28.4556 101.676 28.2122Z" fill="#F7A800"/>
        <path d="M173.486 86.5372C173.584 85.6122 173.681 84.7845 173.73 83.9082C173.973 79.0883 172.951 74.5119 170.663 70.2763C168.472 66.2354 165.405 63.0222 161.461 60.5879C161.12 60.3445 160.731 60.1497 160.39 59.9063C154.986 56.4983 151.675 51.6785 150.507 45.3981C148.413 34.1031 155.521 23.1975 166.67 20.5198C170.614 19.5948 174.46 19.6922 178.306 20.9093C181.471 21.883 184.489 23.1975 187.508 24.6094C189.601 25.5831 191.597 26.6542 193.593 27.774C193.837 27.92 194.032 28.0174 194.324 28.2121C194.324 28.4069 194.372 28.5529 194.372 28.7477C194.372 31.328 194.226 33.957 194.032 36.5373C193.691 40.3348 193.107 44.1322 192.328 47.8323C189.942 58.8352 185.706 69.0105 179.572 78.4554C177.868 81.0844 176.018 83.6161 174.071 86.0504C173.876 86.1964 173.778 86.3912 173.486 86.5372Z" fill="#67B2E8"/>
        <path d="M148.024 108.3C147.294 108.008 145.054 106.644 142.669 105.038C137.362 101.484 132.445 97.3942 127.966 92.8178C123.487 88.2413 119.494 83.2268 116.086 77.8227C112.873 72.8081 110.195 67.5501 108.053 62C108.005 61.854 107.956 61.7566 107.907 61.5132C108.151 61.6592 108.248 61.7079 108.394 61.8053C110.098 63.1198 111.899 64.2395 113.847 65.0672C116.33 66.1383 118.91 66.8685 121.637 67.112C127.138 67.6475 132.299 66.5278 137.167 63.8014C139.699 62.3895 142.425 61.4645 145.298 61.075C155.473 59.8092 165.599 65.8462 168.764 76.3622C170.371 81.7662 169.884 87.0242 167.401 92.1362C167.06 92.8178 166.768 93.4507 166.427 94.0836C166.232 94.4731 165.989 94.8625 165.648 95.1546C160.487 100.023 154.84 104.307 148.706 107.91C148.462 108.056 148.219 108.202 148.024 108.3Z" fill="#00C4B3"/>
    </g>
    <path d="M242.719 73.5H238.031L228.906 58.5312V73.5H224.219V50.75H228.906L238.047 65.75V50.75H242.719V73.5ZM260.5 63.6406H251.5V69.7344H262.062V73.5H246.812V50.75H262.031V54.5469H251.5V59.9688H260.5V63.6406ZM270.938 50.75L276.781 67.25L282.594 50.75H288.75V73.5H284.047V67.2812L284.516 56.5469L278.375 73.5H275.156L269.031 56.5625L269.5 67.2812V73.5H264.812V50.75H270.938Z" fill="black"/>
    <defs>
        <clipPath id="clip0">
            <rect width="102" height="102" fill="white" transform="translate(97 12)"/>
        </clipPath>
    </defs>
</svg>
