<svg width="142" height="80" viewBox="0 0 142 80" fill="none" xmlns="http://www.w3.org/2000/svg">
<path d="M17.2465 14.0704C16.4048 13.0525 15.3438 12.2386 14.144 11.6901C13.0049 11.1758 11.7744 10.8967 10.5256 10.869C9.1449 10.8242 7.76931 11.0585 6.48135 11.5587C5.32403 12.0137 4.27324 12.7038 3.39505 13.5864C2.53628 14.4601 1.87217 15.5062 1.44669 16.6564C0.555529 19.1682 0.555529 21.9108 1.44669 24.4225C1.8691 25.5813 2.53333 26.6364 3.39505 27.5173C4.2723 28.4008 5.32339 29.0913 6.48135 29.545C7.76931 30.0448 9.1449 30.2791 10.5256 30.2343C11.7744 30.2066 13.0049 29.9274 14.144 29.4136C15.3442 28.8651 16.4048 28.0512 17.2465 27.0329L15.1261 25.3909C14.6464 26.1058 14.0075 26.6987 13.2597 27.1233C12.4291 27.6035 11.4838 27.8476 10.5256 27.8293C9.5367 27.8724 8.55036 27.6987 7.63572 27.3201C6.80926 26.991 6.06159 26.49 5.44166 25.8506C4.82603 25.172 4.3577 24.3726 4.06632 23.5028C3.43807 21.5971 3.43807 19.539 4.06632 17.6334C4.35894 16.7665 4.82723 15.9701 5.44166 15.2936C6.05079 14.6329 6.79308 14.1097 7.61908 13.7584C8.53414 13.3803 9.52048 13.207 10.509 13.2497C11.4676 13.2313 12.4129 13.4755 13.2435 13.9556C13.9908 14.3803 14.6297 14.9735 15.1099 15.688L17.2303 14.0461L17.2465 14.0704ZM23.4518 29.7913H26.0472V20.3342C25.9895 18.9731 26.2708 17.6189 26.8658 16.3939C27.2943 15.56 27.9042 14.8335 28.6502 14.2676C29.2025 13.8352 29.8423 13.5301 30.5247 13.3726C30.8935 13.3081 31.2648 13.2646 31.6383 13.2416C33.5486 13.2416 34.8585 13.7887 35.5678 14.8835C36.3617 16.3209 36.7305 17.9552 36.6319 19.5954V29.7913H39.2273V18.0849C39.3532 16.1571 38.7514 14.2522 37.5405 12.749C36.4001 11.5228 34.6511 10.9099 32.2934 10.9099C31.6758 10.9116 31.0621 10.9974 30.4676 11.1647C29.8585 11.3312 29.2708 11.5681 28.7159 11.8707C28.1752 12.1669 27.6746 12.5309 27.226 12.9543C26.7949 13.3577 26.4253 13.8224 26.1287 14.3333H26.0472V0H23.4518V29.7913ZM59.8815 20.6133V21.9513C59.8858 22.7328 59.7727 23.5105 59.5461 24.2582C59.3386 24.9582 58.9814 25.6048 58.4995 26.1519C58.0173 26.6991 57.4214 27.1344 56.7543 27.4268C55.9788 27.7597 55.1415 27.9219 54.2985 27.9031C53.7748 27.9023 53.2529 27.8416 52.7428 27.7226C52.2477 27.6099 51.7765 27.4097 51.3515 27.1314C50.9383 26.8604 50.596 26.4947 50.3527 26.064C50.0911 25.5873 49.9609 25.0486 49.9759 24.5045C49.9575 24.0926 50.0348 23.6825 50.2025 23.306C50.3702 22.9296 50.6238 22.5979 50.9421 22.3372C51.6242 21.7904 52.4138 21.3931 53.2588 21.1716C54.1846 20.9172 55.1333 20.7576 56.0911 20.6953C57.0736 20.6295 57.8922 20.5967 58.5473 20.5967L59.8815 20.6133ZM58.5879 18.487C57.4966 18.487 56.2849 18.539 54.9532 18.6432C53.678 18.7486 52.4227 19.0247 51.2204 19.4639C50.1082 19.8498 49.1095 20.507 48.3139 21.3769C47.4931 22.3623 47.0774 23.6244 47.1517 24.9065C47.1325 25.7213 47.3156 26.5279 47.6839 27.2544C48.0296 27.9133 48.5128 28.49 49.1001 28.9458C49.7027 29.4131 50.389 29.7614 51.1223 29.9718C51.8879 30.1963 52.6818 30.3098 53.4799 30.3081C54.7906 30.3431 56.0902 30.0615 57.2699 29.4874C58.3933 28.8638 59.3246 27.9441 59.9635 26.8276H60.0454C60.0454 27.3256 60.0642 27.8374 60.1026 28.3628C60.1406 28.8882 60.2033 29.3645 60.2908 29.7913H62.7467C62.6703 29.2932 62.5994 28.6556 62.5341 27.8784C62.4684 27.1011 62.4466 26.3705 62.4684 25.6867V17.4776C62.4936 16.478 62.3066 15.4844 61.9199 14.5629C61.5823 13.7917 61.0855 13.1007 60.4628 12.5356C59.841 11.9876 59.1094 11.5792 58.3177 11.3367C57.4863 11.0738 56.6195 10.9407 55.7475 10.9428C52.2874 10.9428 49.695 11.8348 47.9703 13.6193L49.5422 15.4742C51.0681 14.0576 53.0783 13.2817 55.1581 13.3073C58.3015 13.3073 59.8734 14.8971 59.8734 18.0768V18.5527L58.5879 18.487ZM71.0804 11.3534C71.135 12.0376 71.1816 12.7597 71.22 13.5207C71.258 14.2813 71.2772 14.9108 71.2772 15.4089V29.7913H73.8721V20.3342C73.8149 18.9731 74.0962 17.6189 74.6908 16.3939C75.1193 15.56 75.7292 14.8335 76.4756 14.2676C77.0275 13.8352 77.6677 13.5301 78.3502 13.3726C78.7125 13.3005 79.0787 13.2484 79.447 13.2168C81.3574 13.2168 82.6673 13.764 83.3766 14.8587C84.1705 16.2962 84.5397 17.9304 84.4411 19.5706V29.7913H87.036V18.0849C87.1619 16.1571 86.5601 14.2522 85.3497 12.749C84.22 11.5228 82.4761 10.9099 80.1184 10.9099C79.5013 10.9116 78.8871 10.9974 78.293 11.1647C77.6839 11.3312 77.0958 11.5681 76.5409 11.8707C75.9933 12.1575 75.4842 12.5134 75.0266 12.9296C74.5956 13.3329 74.226 13.7977 73.9293 14.3086H73.8478C73.8478 13.8105 73.8478 13.318 73.8478 12.831C73.8478 12.344 73.8149 11.8515 73.7492 11.3534H71.0804ZM98.3335 17.6005C98.6745 16.7661 99.1688 16.003 99.7906 15.3513C100.408 14.7072 101.141 14.1861 101.952 13.816C102.797 13.4298 103.716 13.2335 104.645 13.2416C105.643 13.2279 106.633 13.4238 107.551 13.816C108.382 14.1724 109.131 14.6948 109.753 15.3513C110.359 16 110.827 16.7652 111.129 17.6005C111.449 18.4789 111.609 19.4072 111.604 20.3423C111.643 21.3376 111.476 22.3299 111.112 23.2565C110.774 24.0994 110.258 24.8587 109.598 25.4814C108.266 26.7328 106.511 27.4311 104.686 27.4349C103.757 27.4434 102.838 27.2471 101.992 26.8604C101.182 26.4908 100.448 25.9697 99.8316 25.3252C99.2093 24.6739 98.7151 23.9108 98.374 23.076C97.6673 21.3197 97.6673 19.3568 98.374 17.6005H98.3335ZM95.4026 35.5378C96.4987 36.7405 97.8384 37.6948 99.3322 38.3367C100.893 38.9629 102.563 39.2697 104.244 39.2398C105.969 39.309 107.687 38.9863 109.27 38.2958C110.442 37.7533 111.471 36.9436 112.275 35.9317C112.983 35.0145 113.48 33.9522 113.732 32.8203C113.972 31.7725 114.099 30.7021 114.109 29.627V11.3534H111.514V14.4234H111.432C110.535 13.1758 109.319 12.1946 107.911 11.583C107.318 11.3282 106.697 11.1438 106.061 11.0333C105.483 10.9321 104.897 10.8801 104.31 10.8771C103.023 10.8634 101.747 11.1122 100.56 11.6078C99.4492 12.0738 98.4462 12.764 97.6131 13.6355C96.7782 14.5156 96.1171 15.5463 95.6647 16.6731C95.188 17.8626 94.9485 19.1344 94.9605 20.4161C94.949 21.7021 95.2025 22.9765 95.7052 24.1596C96.1799 25.2791 96.876 26.2902 97.7522 27.1314C98.6335 27.9714 99.6673 28.6346 100.797 29.0854C101.99 29.5617 103.263 29.8015 104.547 29.7913C105.861 29.7866 107.161 29.507 108.362 28.9701C109.621 28.3969 110.685 27.4669 111.424 26.2941H111.506V29.5779C111.51 30.5292 111.383 31.4767 111.129 32.3935C110.901 33.248 110.487 34.0414 109.917 34.7166C109.311 35.405 108.551 35.9394 107.698 36.2766C106.634 36.6846 105.499 36.8801 104.359 36.851C102.94 36.8736 101.536 36.5557 100.265 35.9236C99.0983 35.347 98.083 34.5036 97.3019 33.4605L95.4026 35.5378ZM124.596 19.1191C124.597 18.3513 124.779 17.595 125.127 16.9108C125.483 16.2014 125.963 15.5621 126.544 15.023C127.147 14.4618 127.846 14.0145 128.607 13.7012C129.384 13.3735 130.22 13.2057 131.063 13.2087C131.87 13.1609 132.679 13.2821 133.437 13.5647C134.196 13.8476 134.887 14.2851 135.467 14.8506C135.993 15.4242 136.401 16.0969 136.666 16.8297C136.932 17.5621 137.05 18.3406 137.014 19.1191H124.596ZM139.838 21.2454V20.096C139.845 18.8835 139.646 17.6786 139.249 16.5335C138.879 15.4571 138.297 14.4661 137.538 13.6193C136.768 12.7708 135.832 12.0918 134.788 11.6244C133.61 11.1114 132.338 10.8566 131.054 10.8771C129.8 10.8673 128.558 11.1157 127.403 11.6078C126.296 12.0794 125.294 12.7691 124.456 13.6355C123.607 14.5194 122.939 15.5629 122.491 16.7059C122.013 17.9347 121.774 19.2445 121.788 20.5642C121.775 21.8856 122.022 23.1967 122.516 24.4225C122.974 25.5634 123.647 26.606 124.497 27.4925C125.349 28.3683 126.372 29.0585 127.502 29.5203C128.704 30.0128 129.993 30.2612 131.292 30.2509C132.762 30.2625 134.217 29.9543 135.557 29.3478C136.99 28.6543 138.236 27.627 139.192 26.3517L137.186 24.7098C136.596 25.6146 135.809 26.3751 134.886 26.9343C133.806 27.5988 132.558 27.9355 131.292 27.9031C130.415 27.9121 129.545 27.7388 128.738 27.3939C127.159 26.717 125.895 25.4643 125.201 23.8886C124.831 23.0661 124.604 22.1861 124.53 21.2864L139.838 21.2454Z" fill="black"/>
<path d="M3.03516 79.046H9.63328V50.5193H9.73998L28.0776 79.046H36.4604V41.8505H29.8539V69.4826H29.7558L11.7455 41.8505H3.03516V79.046ZM46.9965 68.5385C47.9073 70.8403 49.2897 72.9256 51.0532 74.6589C52.8172 76.3926 54.9239 77.7361 57.2376 78.603C59.7562 79.5547 62.4297 80.0281 65.1211 79.9986C67.8454 79.9969 70.5457 79.4903 73.0865 78.5044C75.4134 77.5953 77.5346 76.2278 79.3247 74.4818C81.0942 72.7349 82.4877 70.6423 83.4177 68.3332C84.4113 65.8074 84.8979 63.1096 84.8505 60.3951C84.8902 57.6273 84.3925 54.8778 83.3853 52.3008C82.4642 49.9726 81.0703 47.8616 79.2918 46.1028C77.5142 44.367 75.3874 43.0319 73.0536 42.1869C70.5005 41.2701 67.8001 40.833 65.0882 40.8983C62.3968 40.8689 59.7237 41.3418 57.2047 42.2936C54.8923 43.1706 52.7873 44.521 51.0242 46.2586C49.2461 48.0277 47.8526 50.1463 46.9307 52.4813C45.9551 55.0763 45.4881 57.836 45.5556 60.6085C45.5193 63.3226 46.0169 66.0174 47.0208 68.5385H46.9965ZM53.3652 54.985C53.9487 53.4203 54.83 51.9845 55.9606 50.7575C57.0865 49.5415 58.4527 48.5744 59.9717 47.9171C61.6251 47.212 63.407 46.8625 65.203 46.8911C67.0012 46.8672 68.7852 47.2163 70.4425 47.9171C71.9713 48.5701 73.346 49.5377 74.4783 50.7575C75.6081 51.985 76.4894 53.4207 77.0733 54.985C77.6798 56.6435 77.9794 58.399 77.9576 60.1651C77.9772 62.0439 77.6665 63.9111 77.0408 65.6815C76.4706 67.2918 75.5884 68.7733 74.4454 70.0409C73.3157 71.2752 71.941 72.2598 70.4096 72.9303C68.7566 73.6478 66.9713 74.0059 65.1702 73.9811C63.3772 74.008 61.5991 73.6499 59.9555 72.9303C58.4339 72.2551 57.0682 71.2714 55.944 70.0409C54.8006 68.7737 53.9184 67.2923 53.349 65.6815C52.7254 63.9107 52.4177 62.043 52.4403 60.1651C52.4254 58.3887 52.7365 56.6243 53.3571 54.9607L53.3652 54.985ZM100.74 79.046H106.815L115.41 50.7246H115.517L124.145 79.046H130.433L141.222 41.8505H134.518L127.232 68.6452H127.125L118.939 41.8505H112.439L104.097 68.6452H103.99L97.0238 41.8505H89.7626L100.74 79.046Z" fill="#00C26F"/>
</svg>
