<svg xmlns="http://www.w3.org/2000/svg" viewBox="0 0 88 101" fill="none">
  <script xmlns="" id="dashlane_webauthn" name="forward_webauthn_ready" />
  <path
    d="M63.9922 101H24.4379C15.6165 101 11.2058 101 7.87326 99.2019C5.29894 97.8129 3.18719 95.7012 1.79816 93.1268C0 89.7943 0 85.3836 0 76.5622V49.4103C0 42.2159 3.08548 35.3669 8.47407 30.6001C8.65665 34.2517 11.6705 37.1186 15.3267 37.1186H57.6954C66.5168 37.1186 70.9275 37.1186 74.2601 38.9168C76.8344 40.3058 78.9461 42.4176 80.3352 44.9919C81.6538 47.4358 82.0055 50.4594 82.0992 55.3771C81.5336 55.3705 80.8984 55.3705 80.1778 55.3705H64.5333C56.9732 55.3705 50.8444 61.4992 50.8444 69.0594C50.8444 76.6195 56.9732 82.7482 64.5333 82.7482H80.1778C80.9129 82.7482 81.5591 82.7482 82.1333 82.7412V82.8589C82.1333 85.7842 82.1333 87.2468 81.9299 88.4692C80.8776 94.7907 75.9239 99.7444 69.6024 100.797C68.38 101 66.9174 101 63.9922 101Z"
    fill="#68C481" />
  <path fill-rule="evenodd" clip-rule="evenodd"
    d="M65.1852 59.2816C59.7851 59.2816 55.4074 63.6593 55.4074 69.0594C55.4074 74.4595 59.7851 78.8372 65.1852 78.8372H79.8519C81.3663 78.8372 82.1235 78.8372 82.7532 78.7119C85.339 78.1976 87.3604 76.1762 87.8748 73.5904C88 72.9607 88 72.2035 88 70.689V67.4298C88 65.9153 88 65.1581 87.8748 64.5284C87.3604 61.9426 85.339 59.9212 82.7532 59.4069C82.1235 59.2816 81.3663 59.2816 79.8519 59.2816H65.1852ZM65.1852 72.3187C66.9852 72.3187 68.4444 70.8594 68.4444 69.0594C68.4444 67.2594 66.9852 65.8001 65.1852 65.8001C63.3851 65.8001 61.9259 67.2594 61.9259 69.0594C61.9259 70.8594 63.3851 72.3187 65.1852 72.3187Z"
    fill="#68C481" />
  <path fill-rule="evenodd" clip-rule="evenodd"
    d="M23 24.7335C15.214 24.7368 11.1832 24.8101 8.08139 26.4213C5.3431 27.8438 3.11039 30.0765 1.68796 32.8148C0 36.0642 0 40.3333 0 48.8714V64.4768C0 73.0149 0 77.284 1.68796 80.5335C2.84657 82.7639 4.54275 84.6588 6.61185 86.0537C6.51852 84.588 6.51852 82.7769 6.51852 80.4406V45.9446C6.51852 40.7475 6.51852 38.1489 7.54597 36.171C8.4118 34.5042 9.77084 33.1452 11.4376 32.2793C13.4156 31.2519 16.0141 31.2519 21.2113 31.2519H23V24.7335ZM57 31.2519H67.4406C71.6028 31.2519 74.0984 31.2519 75.9432 31.7797C74.5266 29.5132 72.5254 27.66 70.1408 26.4213C67.2843 24.9375 63.6398 24.758 57 24.7363V31.2519Z"
    fill="#68C481" />
  <mask id="mask0_3_246" style="mask-type:alpha" maskUnits="userSpaceOnUse" x="14" y="-6" width="52" height="40">
    <rect x="14.9926" y="-5.25183" width="50.1926" height="39.1111" fill="#C4C4C4" />
  </mask>
  <g mask="url(#mask0_3_246)">
    <path fill-rule="evenodd" clip-rule="evenodd"
      d="M39.9259 48.5259C53.0482 48.5259 63.6859 37.8881 63.6859 24.7659C63.6859 11.6436 53.0482 1.00586 39.9259 1.00586C26.8036 1.00586 16.1659 11.6436 16.1659 24.7659C16.1659 37.8881 26.8036 48.5259 39.9259 48.5259ZM42.7288 7.62878H36.8431V12.4843H31.0456V39.2641H36.8431V45.1497H42.7287V39.2554C47.3077 39.0732 50.9392 36.0204 50.9392 31.4214C50.9392 28.7052 49.6384 26.6393 47.6491 25.3769C49.1029 24.1144 49.9828 22.3546 49.9828 20.1357C49.9828 15.9109 46.828 13.0245 42.7288 12.5525V7.62878ZM43.8617 20.5948C43.8617 19.2175 42.9435 18.2229 41.528 18.2229H37.1667V22.9667H41.528C42.9053 22.9667 43.8617 21.972 43.8617 20.5948ZM37.1667 33.5256H42.2931C43.8234 33.5256 44.8181 32.4544 44.8181 30.9624C44.8181 29.4703 43.8234 28.3992 42.2931 28.3992H37.1667V33.5256Z"
      fill="#FFC700" />
  </g>
</svg>