<svg width="390" height="125" viewBox="0 0 390 125" fill="none" xmlns="http://www.w3.org/2000/svg">
    <path d="M130.629 31.8845C129.619 30.663 128.346 29.6863 126.906 29.0282C125.539 28.411 124.063 28.0761 122.564 28.0428C120.907 27.989 119.256 28.2702 117.711 28.8704C116.322 29.4164 115.061 30.2446 114.007 31.3037C112.977 32.3521 112.18 33.6074 111.669 34.9877C110.6 38.0018 110.6 41.293 111.669 44.307C112.176 45.6976 112.973 46.9636 114.007 48.0207C115.06 49.0809 116.321 49.9096 117.711 50.454C119.256 51.0538 120.907 51.3349 122.564 51.2812C124.063 51.2479 125.539 50.9129 126.906 50.2963C128.346 49.6381 129.619 48.6614 130.629 47.4394L128.085 45.4691C127.509 46.327 126.742 47.0384 125.845 47.548C124.848 48.1242 123.714 48.4171 122.564 48.3951C121.377 48.4468 120.194 48.2384 119.096 47.7841C118.104 47.3892 117.207 46.788 116.463 46.0207C115.724 45.2064 115.162 44.2471 114.813 43.2033C114.059 40.9165 114.059 38.4469 114.813 36.16C115.164 35.1198 115.726 34.1641 116.463 33.3524C117.194 32.5595 118.085 31.9316 119.076 31.5101C120.174 31.0563 121.358 30.8484 122.544 30.8996C123.694 30.8776 124.829 31.1705 125.825 31.7467C126.722 32.2563 127.489 32.9682 128.065 33.8256L130.61 31.8553L130.629 31.8845ZM138.075 50.7495H141.19V39.401C141.121 37.7677 141.458 36.1426 142.172 34.6727C142.686 33.672 143.418 32.8003 144.313 32.1211C144.976 31.6023 145.744 31.2361 146.563 31.0471C147.005 30.9698 147.451 30.9175 147.899 30.8899C150.192 30.8899 151.763 31.5465 152.615 32.8602C153.567 34.5851 154.01 36.5462 153.891 38.5145V50.7495H157.006V36.7019C157.157 34.3885 156.435 32.1027 154.982 30.2988C153.613 28.8274 151.514 28.0919 148.685 28.0919C147.944 28.094 147.208 28.1969 146.494 28.3977C145.763 28.5974 145.058 28.8817 144.392 29.2448C143.743 29.6003 143.143 30.0371 142.604 30.5452C142.087 31.0292 141.644 31.5869 141.288 32.2H141.19V15H138.075V50.7495ZM181.791 39.736V41.3416C181.796 42.2794 181.66 43.2125 181.388 44.1099C181.14 44.9498 180.711 45.7257 180.133 46.3823C179.554 47.0389 178.839 47.5613 178.038 47.9122C177.108 48.3116 176.103 48.5063 175.091 48.4837C174.463 48.4827 173.837 48.41 173.225 48.2671C172.631 48.1319 172.065 47.8917 171.555 47.5577C171.059 47.2325 170.648 46.7936 170.356 46.2768C170.043 45.7047 169.886 45.0584 169.904 44.4054C169.882 43.9111 169.975 43.4189 170.176 42.9672C170.377 42.5155 170.682 42.1175 171.064 41.8046C171.882 41.1485 172.83 40.6717 173.844 40.4059C174.955 40.1006 176.093 39.9091 177.243 39.8343C178.422 39.7554 179.404 39.716 180.19 39.716L181.791 39.736ZM180.239 37.1844C178.929 37.1844 177.475 37.2469 175.877 37.3718C174.347 37.4983 172.84 37.8297 171.398 38.3567C170.063 38.8197 168.865 39.6084 167.91 40.6522C166.925 41.8348 166.426 43.3493 166.515 44.8878C166.492 45.8656 166.712 46.8335 167.154 47.7052C167.569 48.496 168.149 49.188 168.853 49.7349C169.576 50.2958 170.4 50.7137 171.28 50.9662C172.199 51.2356 173.151 51.3718 174.109 51.3698C175.682 51.4118 177.242 51.0737 178.657 50.3849C180.005 49.6366 181.123 48.5329 181.889 47.1931H181.988C181.988 47.7908 182.01 48.4049 182.056 49.0353C182.102 49.6658 182.177 50.2374 182.282 50.7495H185.229C185.138 50.1518 185.053 49.3867 184.974 48.454C184.895 47.5214 184.869 46.6446 184.895 45.8241V35.9731C184.925 34.7736 184.701 33.5813 184.237 32.4755C183.832 31.5501 183.236 30.7209 182.489 30.0428C181.742 29.3851 180.865 28.895 179.914 28.6041C178.917 28.2886 177.877 28.1288 176.83 28.1314C172.678 28.1314 169.567 29.2018 167.498 31.3431L169.384 33.569C171.215 31.8691 173.627 30.938 176.123 30.9688C179.895 30.9688 181.781 32.8766 181.781 36.6922V37.2632L180.239 37.1844ZM195.23 28.6241C195.295 29.4451 195.351 30.3116 195.397 31.2248C195.443 32.1375 195.466 32.893 195.466 33.4906V50.7495H198.58V39.401C198.511 37.7677 198.849 36.1426 199.562 34.6727C200.076 33.672 200.808 32.8003 201.704 32.1211C202.366 31.6023 203.134 31.2361 203.953 31.0471C204.388 30.9606 204.828 30.8981 205.27 30.8602C207.562 30.8602 209.134 31.5168 209.985 32.8305C210.938 34.5554 211.381 36.5165 211.262 38.4848V50.7495H214.376V36.7019C214.528 34.3885 213.805 32.1027 212.353 30.2988C210.997 28.8274 208.905 28.0919 206.075 28.0919C205.335 28.094 204.598 28.1969 203.885 28.3977C203.154 28.5974 202.448 28.8817 201.782 29.2448C201.125 29.589 200.514 30.0161 199.965 30.5155C199.448 30.9995 199.004 31.5572 198.648 32.1703H198.551C198.551 31.5726 198.551 30.9816 198.551 30.3972C198.551 29.8128 198.511 29.2218 198.432 28.6241H195.23ZM227.933 36.1206C228.343 35.1193 228.936 34.2036 229.682 33.4215C230.423 32.6487 231.302 32.0233 232.275 31.5793C233.29 31.1157 234.393 30.8801 235.507 30.8899C236.705 30.8735 237.893 31.1086 238.995 31.5793C239.991 32.0069 240.89 32.6338 241.637 33.4215C242.364 34.2 242.925 35.1183 243.288 36.1206C243.672 37.1746 243.864 38.2886 243.858 39.4107C243.905 40.6051 243.704 41.7959 243.268 42.9078C242.862 43.9193 242.242 44.8305 241.45 45.5777C239.853 47.0794 237.746 47.9173 235.556 47.9219C234.441 47.9321 233.338 47.6965 232.324 47.2325C231.352 46.789 230.471 46.1636 229.731 45.3903C228.984 44.6087 228.391 43.693 227.982 42.6912C227.134 40.5836 227.134 38.2282 227.982 36.1206H227.933ZM224.416 57.6453C225.732 59.0886 227.339 60.2338 229.132 61.0041C231.005 61.7554 233.009 62.1237 235.026 62.0878C237.096 62.1708 239.158 61.7836 241.058 60.9549C242.464 60.304 243.698 59.3324 244.663 58.118C245.512 57.0174 246.11 55.7426 246.412 54.3844C246.7 53.127 246.852 51.8425 246.864 50.5524V28.6241H243.75V32.3081H243.651C242.575 30.811 241.115 29.6335 239.427 28.8996C238.715 28.5938 237.97 28.3726 237.207 28.2399C236.513 28.1186 235.809 28.0561 235.105 28.0525C233.561 28.0361 232.03 28.3347 230.605 28.9293C229.272 29.4886 228.069 30.3168 227.069 31.3626C226.067 32.4187 225.274 33.6556 224.731 35.0077C224.159 36.4351 223.871 37.9613 223.886 39.4993C223.872 41.0425 224.176 42.5718 224.78 43.9915C225.349 45.3349 226.184 46.5483 227.236 47.5577C228.293 48.5657 229.534 49.3616 230.89 49.9024C232.321 50.474 233.849 50.7618 235.39 50.7495C236.967 50.7439 238.526 50.4084 239.967 49.7641C241.479 49.0763 242.755 47.9603 243.641 46.5529H243.74V50.4935C243.745 51.6351 243.593 52.7721 243.288 53.8722C243.014 54.8976 242.517 55.8497 241.834 56.6599C241.106 57.486 240.194 58.1273 239.171 58.5319C237.893 59.0215 236.532 59.2561 235.164 59.2212C233.461 59.2484 231.777 58.8668 230.251 58.1083C228.851 57.4164 227.633 56.4043 226.696 55.1526L224.416 57.6453ZM259.448 37.9429C259.449 37.0215 259.668 36.1139 260.086 35.2929C260.513 34.4417 261.088 33.6745 261.786 33.0277C262.51 32.3542 263.348 31.8174 264.261 31.4415C265.194 31.0481 266.197 30.8469 267.209 30.8504C268.178 30.7931 269.148 30.9385 270.058 31.2776C270.968 31.6172 271.797 32.1421 272.494 32.8207C273.125 33.5091 273.614 34.3163 273.933 35.1956C274.252 36.0745 274.393 37.0087 274.35 37.9429H259.448ZM277.739 40.4945V39.1152C277.747 37.6602 277.508 36.2143 277.032 34.8402C276.588 33.5485 275.889 32.3593 274.979 31.3431C274.055 30.325 272.932 29.5101 271.678 28.9493C270.266 28.3337 268.739 28.0279 267.198 28.0525C265.694 28.0407 264.202 28.3388 262.817 28.9293C261.488 29.4953 260.286 30.3229 259.281 31.3626C258.261 32.4233 257.46 33.6755 256.923 35.0471C256.348 36.5216 256.061 38.0935 256.078 39.6771C256.063 41.2627 256.36 42.8361 256.953 44.307C257.502 45.676 258.309 46.9273 259.33 47.991C260.352 49.042 261.58 49.8702 262.935 50.4243C264.378 51.0154 265.925 51.3134 267.484 51.3011C269.248 51.315 270.994 50.9452 272.602 50.2174C274.321 49.3851 275.817 48.1524 276.963 46.622L274.557 44.6517C273.848 45.7375 272.904 46.6502 271.796 47.3211C270.501 48.1186 269.003 48.5227 267.484 48.4837C266.431 48.4945 265.387 48.2865 264.418 47.8727C262.523 47.0604 261.007 45.5572 260.175 43.6663C259.73 42.6794 259.458 41.6233 259.369 40.5437L277.739 40.4945Z" fill="black"/>
    <path d="M113.575 109.855H121.493V75.6233H121.621L143.626 109.855H153.686V65.2207H145.758V98.3792H145.64L124.028 65.2207H113.575V109.855ZM166.329 97.2463C167.422 100.008 169.081 102.511 171.197 104.591C173.314 106.671 175.842 108.283 178.618 109.324C181.64 110.466 184.849 111.034 188.078 110.998C191.347 110.996 194.588 110.388 197.637 109.205C200.429 108.114 202.975 106.473 205.123 104.378C207.246 102.282 208.918 99.7708 210.034 97C211.227 93.969 211.81 90.7316 211.754 87.4742C211.801 84.1529 211.204 80.8535 209.995 77.761C208.89 74.9672 207.217 72.434 205.083 70.3234C202.95 68.2404 200.398 66.6384 197.597 65.6243C194.534 64.5242 191.293 63.9997 188.039 64.0781C184.809 64.0427 181.602 64.6102 178.579 65.7523C175.804 66.8048 173.278 68.4253 171.162 70.5103C169.028 72.6333 167.356 75.1756 166.25 77.9777C165.079 81.0916 164.519 84.4033 164.6 87.7303C164.556 90.9872 165.153 94.221 166.358 97.2463H166.329ZM173.971 80.982C174.671 79.1045 175.729 77.3815 177.086 75.9091C178.437 74.4499 180.076 73.2893 181.899 72.5006C183.883 71.6545 186.021 71.2351 188.177 71.2694C190.334 71.2407 192.475 71.6596 194.464 72.5006C196.299 73.2842 197.948 74.4453 199.307 75.9091C200.663 77.382 201.72 79.105 202.421 80.982C203.149 82.9723 203.508 85.0789 203.482 87.1982C203.506 89.4527 203.133 91.6934 202.382 93.8179C201.698 95.7503 200.639 97.528 199.268 99.0491C197.912 100.53 196.262 101.712 194.425 102.516C192.441 103.377 190.299 103.807 188.137 103.777C185.986 103.81 183.852 103.38 181.88 102.516C180.054 101.706 178.415 100.526 177.066 99.0491C175.694 97.5285 174.635 95.7508 173.952 93.8179C173.204 91.6929 172.834 89.4517 172.861 87.1982C172.844 85.0666 173.217 82.9493 173.962 80.9529L173.971 80.982ZM230.821 109.855H238.111L248.426 75.8696H248.554L258.908 109.855H266.452L279.4 65.2207H271.354L262.611 97.3744H262.483L252.66 65.2207H244.86L234.849 97.3744H234.722L226.362 65.2207H217.648L230.821 109.855Z" fill="#00C26F"/>
</svg>
