<svg width="152" height="79" viewBox="0 0 152 79" fill="none" xmlns="http://www.w3.org/2000/svg">
<g clip-path="url(#clip0)">
<path d="M40.3911 78.4313L39.9386 78.2051C22.2916 67.8733 8.9432 50.8295 3.51335 30.4676C2.64608 27.2624 2.00506 23.9819 1.55257 20.6637C1.13779 17.3454 0.911549 13.9895 0.873841 10.6335C0.873841 10.0679 0.798427 10.1433 1.32633 9.87936C7.96282 6.10862 14.9764 3.35599 22.4047 1.62145C25.1573 0.980424 27.91 0.490228 30.7003 0.150862C34.5465 -0.301626 38.3926 -0.490163 42.2765 -0.414748C44.4635 -0.377041 46.6128 -0.226211 48.7621 3.29316e-05C59.5841 1.16896 69.7274 4.41179 79.2296 9.72853C79.3805 9.80394 79.4936 9.87936 79.6444 9.95477C79.7952 10.0302 79.8707 10.1433 79.8707 10.3318V10.8975C79.8329 12.8582 79.7575 14.7813 79.6067 16.7421C79.3805 19.5324 79.0034 22.2851 78.4755 25.0377C77.3443 30.9578 75.572 36.6516 73.121 42.1191C69.2372 50.8295 63.9205 58.5972 57.2086 65.3846C52.382 70.2865 46.9899 74.5097 41.0321 78.0165C40.8059 78.1674 40.6173 78.2805 40.3911 78.4313ZM4.49374 12.5566V13.0091C4.49374 15.7617 4.68228 18.552 5.02165 21.267C5.3233 23.7557 5.73808 26.2066 6.30369 28.6576C6.41682 29.0724 6.52994 29.4872 6.71847 29.902C10.1121 37.1041 17.9553 40.9502 25.723 39.178C31.643 37.8205 36.4695 33.2579 38.091 27.4133C38.5434 25.7919 38.6943 24.1327 38.7697 22.4736C38.8074 21.3801 38.9205 20.2866 39.1091 19.1931C40.3911 12.5566 44.8029 7.08901 51.0246 4.48721C51.3639 4.33638 51.741 4.22326 52.0804 4.07243C52.1181 4.03472 52.1935 4.03472 52.1935 3.9593C51.2131 3.61994 45.3685 3.01662 41.8617 2.94121C34.3202 2.79038 26.9296 3.77077 19.7275 5.95779C14.3731 7.57921 9.32028 9.76624 4.49374 12.5566ZM60.112 57.73C60.3006 57.6169 60.4137 57.466 60.4891 57.3529C61.9974 55.4675 63.4303 53.5068 64.75 51.4706C69.4634 44.1553 72.7817 36.2745 74.6293 27.7526C75.2704 24.8492 75.6851 21.9457 75.9491 19.0045C76.1376 17.006 76.213 15.0076 76.213 12.9714C76.213 12.8205 76.213 12.7074 76.1753 12.5566L75.6097 12.2172C74.0637 11.3499 72.48 10.5204 70.8963 9.76624C68.5585 8.67272 66.2206 7.69233 63.7696 6.90048C60.7908 5.95779 57.7742 5.84467 54.7576 6.59882C46.1226 8.67272 40.5796 17.1569 42.2388 25.8673C43.1437 30.6938 45.7455 34.4646 49.8933 37.1041C50.1573 37.2926 50.459 37.4434 50.7229 37.632C53.7772 39.4796 56.1528 42.006 57.8496 45.1357C59.6595 48.4163 60.4514 51.9608 60.2251 55.6938C60.2628 56.3348 60.1874 57.0135 60.112 57.73ZM40.3911 74.5852C40.5419 74.5098 40.7305 74.3966 40.8813 74.2835C45.6324 71.4932 50.0065 68.1749 54.0034 64.4042C54.2674 64.1779 54.4559 63.8763 54.6068 63.5746C54.8707 63.0844 55.1347 62.5565 55.3609 62.0663C57.2463 58.1448 57.661 54.0724 56.4167 49.8491C53.9657 41.7044 46.1226 37.0286 38.2418 38.009C35.9793 38.273 33.9054 38.9894 31.9447 40.1207C28.2116 42.2323 24.2147 43.0995 19.916 42.6847C17.8044 42.4962 15.8059 41.9306 13.8829 41.101C12.3746 40.4223 10.9417 39.5928 9.65964 38.5746C9.58423 38.4992 9.47111 38.4615 9.28257 38.3484C9.32028 38.5369 9.35799 38.6501 9.39569 38.7255C11.0925 43.0241 13.1664 47.0965 15.6174 50.9804C18.2946 55.1659 21.3489 59.0497 24.818 62.5942C28.2871 66.1387 32.0955 69.3061 36.2056 72.0588C38.091 73.2654 39.8632 74.3589 40.3911 74.5852Z" fill="black"/>
<path d="M4.49376 12.5565C9.3203 9.76615 14.3731 7.57913 19.6898 5.99542C26.9296 3.84611 34.2825 2.82801 41.824 2.97884C45.3308 3.05425 51.1754 3.61986 52.1558 3.99694C52.1935 4.07235 52.1181 4.11006 52.0427 4.11006C51.7033 4.26089 51.3262 4.37401 50.9869 4.52484C44.7652 7.12664 40.3534 12.5942 39.0714 19.2307C38.8828 20.3242 38.7697 21.4177 38.732 22.5112C38.6943 24.1703 38.5435 25.8295 38.0533 27.4509C36.3942 33.2955 31.6053 37.8581 25.6853 39.2156C17.9176 40.9878 10.0744 37.1417 6.68079 29.9396C6.49225 29.5248 6.34142 29.11 6.26601 28.6952C5.7004 26.2442 5.28562 23.7933 4.98396 21.3046C4.64459 18.552 4.45605 15.7993 4.45605 13.0467C4.49376 12.8582 4.49376 12.745 4.49376 12.5565Z" fill="#F7A800"/>
<path d="M60.112 57.7298C60.1874 57.0133 60.2628 56.3723 60.3005 55.6936C60.489 51.9605 59.6972 48.4161 57.9249 45.1355C56.2281 42.0058 53.8525 39.5171 50.7982 37.6318C50.5343 37.4432 50.2326 37.2924 49.9687 37.1039C45.7832 34.4644 43.2191 30.7313 42.3141 25.8671C40.6927 17.119 46.198 8.67255 54.8329 6.59865C57.8872 5.88221 60.8661 5.95763 63.845 6.90031C66.296 7.65446 68.6338 8.67255 70.9717 9.76607C72.5931 10.5202 74.1391 11.3498 75.6851 12.217C75.8736 12.3302 76.0244 12.4056 76.2507 12.5564C76.2507 12.7072 76.2884 12.8204 76.2884 12.9712C76.2884 14.9697 76.1753 17.0059 76.0244 19.0044C75.7605 21.9455 75.308 24.8867 74.7047 27.7524C72.857 36.2743 69.5765 44.1551 64.8254 51.4703C63.5056 53.5065 62.0727 55.4673 60.5644 57.3527C60.4136 57.4658 60.3382 57.6166 60.112 57.7298Z" fill="#67B2E8"/>
<path d="M40.3911 74.585C39.8255 74.3587 38.091 73.3029 36.2433 72.0586C32.1332 69.306 28.3248 66.1386 24.8557 62.5941C21.3866 59.0496 18.2947 55.1658 15.6551 50.9803C13.1665 47.0965 11.0926 43.0241 9.43343 38.7255C9.39573 38.6124 9.35802 38.5369 9.32031 38.3484C9.50885 38.4615 9.58426 38.4992 9.69739 38.5746C11.0171 39.5927 12.4123 40.46 13.9206 41.101C15.8437 41.9306 17.8422 42.4962 19.9538 42.6847C24.2147 43.0995 28.2117 42.2322 31.9824 40.1206C33.9432 39.0271 36.0548 38.3107 38.2795 38.009C46.1603 37.0287 54.0035 41.7043 56.4544 49.8491C57.6988 54.0346 57.3217 58.107 55.3986 62.0662C55.1347 62.5941 54.9084 63.0843 54.6445 63.5745C54.4937 63.8761 54.3051 64.1778 54.0412 64.404C50.0442 68.1748 45.6702 71.493 40.919 74.2833C40.7305 74.3964 40.542 74.5096 40.3911 74.585Z" fill="#00C4B3"/>
</g>
<path d="M113.732 48.0735H110.102L103.035 36.48V48.0735H99.404V30.4534H103.035L110.114 42.071V30.4534H113.732V48.0735ZM127.504 40.4373H120.534V45.157H128.714V48.0735H116.903V30.4534H128.69V33.3941H120.534V37.5934H127.504V40.4373ZM135.588 30.4534L140.114 43.2328L144.616 30.4534H149.384V48.0735H145.741V43.257L146.105 34.9431L141.349 48.0735H138.856L134.112 34.9552L134.475 43.257V48.0735H130.844V30.4534H135.588Z" fill="black"/>
<defs>
<clipPath id="clip0">
<rect width="79" height="79" fill="white" transform="translate(0.87207)"/>
</clipPath>
</defs>
</svg>
