<svg width="120" height="120" viewBox="0 0 120 120" fill="none" xmlns="http://www.w3.org/2000/svg">
    <g clip-path="url(#clip0)">
        <path fill-rule="evenodd" clip-rule="evenodd" d="M-8.90464e-06 60C-1.38218e-05 26.868 26.868 -1.17444e-06 60 -2.62268e-06C93.132 -4.07093e-06 120 26.868 120 60C120 93.132 93.132 120 60 120C26.868 120 -3.9875e-06 93.132 -8.90464e-06 60Z" fill="#F90067"/>
        <path d="M85.296 62.4727L35.376 62.4727L35.376 57.0367L85.296 57.0367L85.296 62.4727Z" fill="white"/>
        <path d="M52.0076 34.8005L56.4596 51.5885L39.0356 55.3325L37.9076 50.3405L46.1636 48.3725C46.1636 48.3725 38.7236 43.8365 31.0196 49.8845C27.0596 53.4485 26.8916 55.1405 26.2676 59.1365C25.7636 62.6525 26.9516 70.8245 36.4916 73.2605C42.6356 74.2925 47.1836 73.1285 53.1356 65.2085L59.7596 65.6525C59.7596 65.6525 53.5316 74.4965 49.1636 76.7765C45.7076 78.5405 38.8796 81.5645 29.3756 76.1045C24.6236 73.1645 20.0636 67.3685 20.5436 57.1565C20.7596 52.0205 27.0356 39.4805 41.6996 41.4245C44.4476 41.7605 48.1076 43.1885 48.1076 43.1885L46.5716 36.3005L52.0076 34.8005Z" fill="white"/>
        <path d="M91.0682 44.3881C95.7362 47.4601 100.14 53.3761 99.3962 63.5641C99.0482 68.7001 92.4362 81.0601 77.8322 78.7321C75.0962 78.3241 71.4842 76.8001 71.4842 76.8001L72.8282 83.7241L67.3682 85.0801L63.3602 68.1721L80.8802 64.8841L81.8762 69.9121L73.5602 71.6641C73.5602 71.6641 80.8682 76.3921 88.7402 70.5601C92.7962 67.1041 93.0002 65.4241 93.7322 61.4281C94.3322 57.9361 93.3482 49.7281 83.8802 47.0401C77.7722 45.8521 73.1882 46.8961 67.0202 54.6481L60.4082 54.0241C60.4082 54.0241 66.8642 45.3481 71.2922 43.1881C74.8082 41.5321 81.7202 38.6881 91.0682 44.3881Z" fill="white"/>
    </g>
    <defs>
        <clipPath id="clip0">
            <rect width="120" height="120" fill="white"/>
        </clipPath>
    </defs>
</svg>
