<svg width="400" height="400" viewBox="0 0 400 400" fill="none" xmlns="http://www.w3.org/2000/svg">
    <g clip-path="url(#clip0)">
        <path fill-rule="evenodd" clip-rule="evenodd" d="M-2.96821e-05 200C-4.60726e-05 89.56 89.5599 2.66028e-05 200 2.17753e-05C310.44 1.69478e-05 400 89.56 400 200C400 310.44 310.44 400 200 400C89.56 400 -1.32917e-05 310.44 -2.96821e-05 200Z" fill="#F90067"/>
        <path d="M284.32 208.24L117.92 208.24L117.92 190.12L284.32 190.12L284.32 208.24Z" fill="white"/>
        <path d="M173.36 115.999L188.2 171.959L130.12 184.439L126.36 167.799L153.88 161.239C153.88 161.239 129.08 146.119 103.4 166.279C90.1999 178.159 89.6398 183.799 87.5598 197.119C85.8799 208.839 89.8399 236.079 121.64 244.199C142.12 247.639 157.28 243.759 177.12 217.359L199.2 218.839C199.2 218.839 178.44 248.319 163.88 255.919C152.36 261.799 129.6 271.879 97.9199 253.679C82.0799 243.879 66.8799 224.559 68.4799 190.519C69.1998 173.399 90.1198 131.599 139 138.079C148.16 139.199 160.36 143.959 160.36 143.959L155.24 120.999L173.36 115.999Z" fill="white"/>
        <path d="M303.559 147.96C319.119 158.2 333.799 177.92 331.319 211.88C330.159 229 308.119 270.2 259.439 262.44C250.319 261.08 238.279 256 238.279 256L242.759 279.08L224.559 283.6L211.199 227.24L269.599 216.28L272.919 233.04L245.199 238.88C245.199 238.88 269.559 254.64 295.799 235.2C309.319 223.68 309.999 218.08 312.439 204.76C314.439 193.12 311.159 165.76 279.599 156.8C259.239 152.84 243.959 156.32 223.399 182.16L201.359 180.08C201.359 180.08 222.879 151.16 237.639 143.96C249.359 138.44 272.399 128.96 303.559 147.96Z" fill="white"/>
    </g>
    <defs>
        <clipPath id="clip0">
            <rect width="400" height="400" fill="white"/>
        </clipPath>
    </defs>
</svg>
