<svg width="245" height="245" viewBox="0 0 245 245" fill="none" xmlns="http://www.w3.org/2000/svg">
<path d="M122.5 245C190.155 245 245 190.155 245 122.5C245 54.8451 190.155 0 122.5 0C54.8451 0 0 54.8451 0 122.5C0 190.155 54.8451 245 122.5 245Z" fill="#2B5EBB"/>
<path fill-rule="evenodd" clip-rule="evenodd" d="M199.063 122.209C199.055 140.094 185.205 154.044 167.504 153.99C150.17 153.937 136.098 139.604 136.189 122.094C136.281 104.592 150.507 90.3208 167.749 90.4356C185.35 90.5505 199.07 104.477 199.063 122.209ZM69.5954 183.138C66.5361 183.14 63.5067 182.535 60.6829 181.357C57.8592 180.18 55.2973 178.454 53.1458 176.279C50.9943 174.103 49.2959 171.523 48.1493 168.687C47.0026 165.85 46.4304 162.814 46.4659 159.755C46.5042 146.694 56.7176 136.136 69.5571 136.434C73.2475 136.519 76.9531 137.897 80.5515 139.022C85.6659 140.622 90.6578 142.605 95.7568 144.274C98.9189 145.316 101.943 144.581 104.738 142.85C108.795 140.324 112.241 137.277 114.438 132.805C116.658 128.258 121.712 126.565 126.206 128.495C130.371 130.286 132.537 134.827 131.335 139.237C129.98 144.19 125.899 146.855 120.816 145.966C116.306 145.178 111.835 143.723 107.257 145.385C99.0643 148.363 95.4659 155.146 92.7709 162.887C91.3009 167.121 89.739 171.569 87.1053 175.06C82.879 180.695 76.6621 183.168 69.5954 183.138ZM69.1054 61.8778C79.5715 61.8778 87.7254 68.0028 91.2779 78.0861C92.6867 82.0674 94.7998 85.796 96.6067 89.6317C101.07 99.1255 112.271 100.06 119.376 97.4641C125.67 95.1672 131.734 99.2097 131.879 105.733C131.979 110.25 129.659 113.542 125.417 114.874C121.666 116.038 117.439 114.453 115.142 111.031C114.323 109.806 113.558 108.535 112.647 107.379C106.399 99.493 99.4625 97.4258 90.0606 100.963C86.7837 102.188 83.7136 104.025 80.6357 105.733C77.8546 107.317 74.7748 108.306 71.5914 108.637C68.408 108.968 65.1905 108.635 62.1429 107.657C59.0952 106.68 56.2839 105.08 53.887 102.959C51.4902 100.838 49.5601 98.2418 48.2192 95.3356C40.8998 79.7935 52.0779 61.8778 69.1054 61.8778ZM142.069 183.673C141.978 192.241 134.987 199.216 126.642 199.063C118.58 198.909 111.843 191.965 111.636 184.156C111.414 175.32 117.906 168.131 126.933 168.047C135.569 167.963 142.169 175.083 142.077 183.666L142.069 183.673ZM111.735 61.4032C111.735 52.7363 118.519 45.861 127.01 45.9375C135.263 46.0141 142.169 53.0808 142.1 61.3878C142.039 70.1236 135.5 77.1291 126.895 76.9683C117.102 76.7846 111.337 68.891 111.735 61.4032Z" fill="white"/>
</svg>
