<svg width="118" height="118" viewBox="0 0 118 118" fill="none" xmlns="http://www.w3.org/2000/svg">
<path d="M59 118C91.5848 118 118 91.5848 118 59C118 26.4152 91.5848 0 59 0C26.4152 0 0 26.4152 0 59C0 91.5848 26.4152 118 59 118Z" fill="#2B5EBB"/>
<path fill-rule="evenodd" clip-rule="evenodd" d="M95.875 58.8599C95.8714 67.4739 89.2007 74.1926 80.6752 74.1667C72.3267 74.1409 65.549 67.2379 65.5933 58.8046C65.6376 50.375 72.4889 43.5015 80.7932 43.5568C89.2707 43.6121 95.8787 50.3197 95.875 58.8599ZM33.5194 88.2051C32.0459 88.2061 30.5869 87.9147 29.2269 87.3476C27.8669 86.7805 26.633 85.9491 25.5968 84.9015C24.5605 83.854 23.7425 82.6111 23.1903 81.245C22.638 79.8789 22.3624 78.4168 22.3795 76.9434C22.3979 70.6526 27.3171 65.5675 33.501 65.7113C35.2784 65.7519 37.0631 66.4156 38.7962 66.9577C41.2595 67.7284 43.6637 68.6834 46.1196 69.4873C47.6426 69.9888 49.0991 69.6348 50.4451 68.8014C52.3994 67.5846 54.0588 66.1169 55.1171 63.9634C56.1865 61.7731 58.6202 60.9581 60.7848 61.8874C62.7908 62.7503 63.8344 64.9369 63.2554 67.0609C62.6027 69.4468 60.6373 70.73 58.1888 70.3022C56.0169 69.9224 53.8634 69.2218 51.6582 70.022C47.7126 71.4564 45.9795 74.7236 44.6815 78.4516C43.9735 80.4908 43.2212 82.6332 41.9527 84.3147C39.9172 87.0287 36.923 88.2198 33.5194 88.2051ZM33.2834 29.8024C38.3242 29.8024 42.2514 32.7524 43.9624 37.6089C44.6409 39.5264 45.6587 41.3222 46.5289 43.1696C48.6787 47.7421 54.0736 48.192 57.4956 46.9419C60.5267 45.8357 63.4472 47.7827 63.5172 50.9244C63.5652 53.1001 62.4479 54.6857 60.405 55.3273C58.5981 55.8878 56.5626 55.1245 55.4564 53.4762C55.0618 52.8862 54.6931 52.2741 54.2542 51.7172C51.2452 47.9191 47.9044 46.9235 43.3761 48.6271C41.7979 49.2171 40.3192 50.1021 38.8368 50.9244C37.4973 51.6873 36.014 52.1637 34.4808 52.3232C32.9475 52.4828 31.3979 52.322 29.93 51.8512C28.4622 51.3805 27.1082 50.6099 25.9538 49.5883C24.7994 48.5667 23.8698 47.3165 23.2239 45.9168C19.6987 38.4312 25.0824 29.8024 33.2834 29.8024ZM68.4253 88.4632C68.3811 92.5895 65.0144 95.9488 60.995 95.8751C57.1121 95.8013 53.8671 92.4567 53.7675 88.6955C53.6606 84.4401 56.7876 80.9776 61.1351 80.937C65.2946 80.8964 68.4732 84.3258 68.429 88.4595L68.4253 88.4632ZM53.8154 29.5738C53.8154 25.3996 57.0826 22.0882 61.172 22.1251C65.1471 22.1619 68.4732 25.5655 68.44 29.5664C68.4105 33.7739 65.2614 37.1479 61.1167 37.0705C56.4004 36.982 53.6237 33.1802 53.8154 29.5738Z" fill="white"/>
</svg>
