<svg width="72" height="32" viewBox="0 0 72 32" fill="none" xmlns="http://www.w3.org/2000/svg">
<path d="M13.7914 4.81278C14.6282 3.76616 15.196 2.36086 15.0463 0.924805C13.8214 0.985713 12.3266 1.73292 11.4612 2.78037C10.6842 3.67734 9.99641 5.14148 10.1757 6.51734C11.5507 6.63661 12.9245 5.83003 13.7914 4.81278Z" fill="white"/>
<path d="M15.0307 6.78629C13.0338 6.66734 11.336 7.91961 10.3824 7.91961C9.42825 7.91961 7.96796 6.84623 6.38853 6.87516C4.33281 6.90535 2.42534 8.06767 1.38215 9.91631C-0.763515 13.6145 0.81591 19.1002 2.90246 22.1121C3.91573 23.6022 5.1369 25.243 6.74597 25.184C8.26628 25.1244 8.86218 24.1996 10.7102 24.1996C12.5568 24.1996 13.0936 25.184 14.7029 25.1542C16.3718 25.1244 17.4152 23.6634 18.4285 22.1718C19.5909 20.4731 20.0667 18.833 20.0967 18.7429C20.0667 18.7131 16.8785 17.49 16.849 13.8226C16.8189 10.7518 19.3521 9.29113 19.4713 9.20055C18.0408 7.08479 15.8056 6.84623 15.0307 6.78629Z" fill="white"/>
<path d="M32.4179 2.62989C36.7581 2.62989 39.7803 5.62161 39.7803 9.97734C39.7803 14.3486 36.6959 17.3559 32.3091 17.3559H27.5036V24.9979H24.0317V2.62988H32.4179V2.62989ZM27.5036 14.4416H31.4874C34.5102 14.4416 36.2307 12.8142 36.2307 9.99289C36.2307 7.17189 34.5102 5.55972 31.503 5.55972H27.5036V14.4416Z" fill="white"/>
<path d="M40.6875 20.3634C40.6875 17.511 42.8731 15.7595 46.7487 15.5424L51.2127 15.279V14.0235C51.2127 12.2098 49.988 11.1248 47.9423 11.1248C46.0042 11.1248 44.7951 12.0547 44.5009 13.512H41.3387C41.5247 10.5666 44.0356 8.39648 48.0661 8.39648C52.0187 8.39648 54.5452 10.4891 54.5452 13.7598V24.9981H51.3364V22.3164H51.2593C50.3139 24.1301 48.252 25.277 46.113 25.277C42.9198 25.277 40.6875 23.2929 40.6875 20.3634ZM51.2127 18.8908V17.6043L47.1978 17.8521C45.1981 17.9918 44.0667 18.8753 44.0667 20.2704C44.0667 21.6963 45.2448 22.6265 47.0429 22.6265C49.3834 22.6265 51.2127 21.0143 51.2127 18.8908Z" fill="white"/>
<path d="M57.5746 30.9965V28.2837C57.8221 28.3456 58.3801 28.3456 58.6593 28.3456C60.2093 28.3456 61.0465 27.6947 61.5578 26.0207C61.5578 25.9896 61.8526 25.0286 61.8526 25.0131L55.9624 8.69043H59.5892L63.7129 21.9594H63.7745L67.8982 8.69043H71.4323L65.3245 25.8499C63.93 29.8029 62.3178 31.074 58.9386 31.074C58.6593 31.074 57.8221 31.0429 57.5746 30.9965Z" fill="white"/>
</svg>
