<svg width="109" height="78" viewBox="0 0 109 78" fill="none" xmlns="http://www.w3.org/2000/svg">
<g clip-path="url(#clip0_194_70503)">
<path d="M7.44133 57.0204H6.46533L5.492 62.4644H6.44C8.68667 62.4644 9.68933 61.2964 9.68933 59.1057C9.68933 57.7244 8.93067 57.0204 7.44133 57.0204ZM6.19467 65.3591H4.976L3.788 72.1777H0L3.19067 54.1257H8.19733C11.1467 54.1257 13.692 55.2644 13.692 58.7804C13.692 63.3284 10.6613 65.3591 6.19467 65.3591Z" fill="white"/>
<path d="M19.8191 62.5968C18.4204 62.5968 17.0471 64.9261 17.0471 67.4915C17.0471 68.8128 17.3604 69.5888 18.0058 69.5888C19.1191 69.5888 20.7004 67.0501 21.2951 63.7355L21.3991 63.1661C21.1658 62.9821 20.7764 62.5968 19.8191 62.5968ZM23.2898 72.1781H19.7938L20.1058 70.3635C19.5124 71.2968 18.6284 72.4395 16.6351 72.4395C14.9751 72.4395 13.3711 71.1408 13.3711 67.8808C13.3711 63.1928 16.1431 59.7461 19.3511 59.7461C21.1658 59.7461 21.8378 60.4968 22.0738 60.7315L22.2018 60.0075H25.4404L23.2898 72.1781Z" fill="white"/>
<path d="M33.0499 71.4292C31.2646 74.9999 29.4793 77.0972 25.3339 77.6172L24.9473 75.0799C26.5273 74.5865 28.1313 73.7865 29.0139 71.9959L29.3726 71.2705L27.2526 60.0079H30.9566L31.8873 66.6359L34.9433 60.0079H38.8006L33.0499 71.4292Z" fill="white"/>
<path d="M55.7379 72.1777H52.2419L53.6659 64.1497C53.7673 63.6337 53.7433 63.1137 53.1499 63.1137C52.0606 63.1137 50.1166 65.7044 49.5753 68.8124L48.9806 72.1777H45.4793L46.9086 64.1497C47.0086 63.6337 46.9873 63.1137 46.3886 63.1137C45.3006 63.1137 43.3606 65.7044 42.8126 68.8124L42.2193 72.1777H38.7246L40.8726 60.0071H44.3673L43.8766 62.8564C44.6539 61.5844 45.8713 59.7457 47.9673 59.7457C49.8579 59.7457 50.6886 60.9644 50.5566 62.9084C51.2299 61.7911 52.5006 59.7457 54.7273 59.7457C56.8779 59.7457 57.6539 61.3271 57.2126 63.8111L55.7379 72.1777Z" fill="white"/>
<path d="M65.915 62.2328C64.8283 62.2328 63.791 63.6075 63.3763 65.5755C65.6817 65.2648 67.0803 64.7221 67.0803 63.3715C67.0803 62.5968 66.6123 62.2328 65.915 62.2328ZM63.195 67.5715C63.2483 68.9128 63.819 69.5888 64.983 69.5888C66.3297 69.5888 67.6217 68.8888 68.583 68.2955L69.5417 70.5728C68.7377 71.1688 67.003 72.4395 64.4923 72.4395C61.7723 72.4395 59.5977 71.1195 59.5977 67.4408C59.5977 63.1661 61.9523 59.7461 66.099 59.7461C69.2057 59.7461 70.551 61.0955 70.551 63.1661C70.551 66.5328 67.8057 67.3368 63.195 67.5715Z" fill="white"/>
<path d="M82.1531 72.1777H78.6571L80.0811 64.1497C80.1864 63.6337 80.1598 63.1137 79.5651 63.1137C78.4771 63.1137 76.5331 65.7044 75.9904 68.8124L75.3971 72.1777H71.8984L74.0478 60.0071H77.5451L77.0544 62.8564C77.8304 61.5844 79.0464 59.7457 81.1438 59.7457C83.2931 59.7457 84.0691 61.3271 83.6331 63.8111L82.1531 72.1777Z" fill="white"/>
<path d="M93.0317 62.5968H91.2197L90.1597 68.6035C90.0504 69.1235 90.2331 69.3795 90.6224 69.3795C90.9851 69.3795 91.2717 69.2795 91.6091 69.1235L91.9691 71.5301C91.4504 71.8675 90.4664 72.4395 89.0677 72.4395C87.2571 72.4395 86.1971 71.2968 86.6331 68.8395L87.7237 62.5968H86.4277L86.8904 60.0075H88.1877L88.9117 57.3661L92.2811 56.6395L91.6824 60.0075H93.4971L93.0317 62.5968Z" fill="white"/>
<path d="M102.793 63.7115C102.043 63.1928 100.85 62.6248 99.922 62.6248C99.194 62.6248 98.7007 62.8821 98.7007 63.4781C98.7007 64.0208 99.2473 64.2581 99.9727 64.5648L100.645 64.8501C101.887 65.3675 103.262 66.1955 103.262 68.3715C103.262 70.9608 101.887 72.4395 98.7793 72.4395C96.2433 72.4395 94.7633 71.3235 93.834 70.6528L95.2047 68.2448C96.1127 68.9141 97.5353 69.5621 98.47 69.5621C99.274 69.5621 99.606 69.2795 99.606 68.6835C99.606 68.0875 99.038 67.8261 98.314 67.5421L97.614 67.2608C96.374 66.7675 95.05 65.9381 95.05 63.7861C95.05 60.9915 97.2033 59.7475 99.8927 59.7475C102.069 59.7475 103.418 60.8368 104.037 61.2995L102.793 63.7115Z" fill="white"/>
<path d="M55.7766 39.2091H48.2259L47.4926 43.4064H53.3406L52.7979 46.5184H46.9539L45.5993 54.1504H41.8086L45.0059 36.0984H56.3433L55.7766 39.2091Z" fill="white"/>
<path d="M60.5476 44.5675C59.1489 44.5675 57.7756 46.8995 57.7756 49.4622C57.7756 50.7848 58.0863 51.5608 58.7343 51.5608C59.8476 51.5608 61.4289 49.0248 62.0209 45.7088L62.1276 45.1395C61.8956 44.9568 61.5076 44.5675 60.5476 44.5675ZM64.0156 54.1502H60.5196L60.8316 52.3368C60.2369 53.2702 59.3569 54.4102 57.3609 54.4102C55.7036 54.4102 54.0996 53.1142 54.0996 49.8542C54.0996 45.1648 56.8716 41.7195 60.0783 41.7195C61.8956 41.7195 62.5663 42.4715 62.8009 42.7035L62.9303 41.9795H66.1676L64.0156 54.1502Z" fill="white"/>
<path d="M75.8585 45.6815C75.1052 45.1629 73.9145 44.5922 72.9825 44.5922C72.2572 44.5922 71.7639 44.8535 71.7639 45.4469C71.7639 45.9909 72.3105 46.2229 73.0319 46.5349L73.7052 46.8215C74.9492 47.3389 76.3225 48.1642 76.3225 50.3415C76.3225 52.9335 74.9492 54.4082 71.8425 54.4082C69.3039 54.4082 67.8305 53.2949 66.8945 52.6242L68.2705 50.2135C69.1732 50.8855 70.5999 51.5335 71.5319 51.5335C72.3305 51.5335 72.6719 51.2495 72.6719 50.6535C72.6719 50.0575 72.1012 49.7989 71.3759 49.5122L70.6772 49.2295C69.4359 48.7362 68.1132 47.9095 68.1132 45.7589C68.1132 42.9629 70.2639 41.7189 72.9559 41.7189C75.1292 41.7189 76.4772 42.8055 77.0999 43.2695L75.8585 45.6815Z" fill="white"/>
<path d="M85.5676 44.5675H83.7556L82.6916 50.5795C82.5903 51.0955 82.7689 51.3555 83.1569 51.3555C83.5223 51.3555 83.8063 51.2502 84.1423 51.0955L84.5023 53.5022C83.9849 53.8408 83.0009 54.4102 81.6049 54.4102C79.7943 54.4102 78.7289 53.2702 79.1716 50.8115L80.2596 44.5675H78.9609L79.4289 41.9795H80.7236L81.4489 39.3382L84.8156 38.6115L84.2183 41.9795H86.0329L85.5676 44.5675Z" fill="white"/>
<path d="M92.8968 44.2042C91.8101 44.2042 90.7715 45.5762 90.3608 47.5429C92.6648 47.2335 94.0621 46.6909 94.0621 45.3442C94.0621 44.5655 93.5981 44.2042 92.8968 44.2042ZM90.1768 49.5389C90.2301 50.8855 90.7995 51.5589 91.9661 51.5589C93.3141 51.5589 94.6061 50.8602 95.5661 50.2655L96.5235 52.5429C95.7195 53.1389 93.9835 54.4082 91.4728 54.4082C88.7541 54.4082 86.5781 53.0882 86.5781 49.4122C86.5781 45.1375 88.9341 41.7189 93.0821 41.7189C96.1861 41.7189 97.5315 43.0655 97.5315 45.1375C97.5315 48.5042 94.7875 49.3069 90.1768 49.5389Z" fill="white"/>
<path d="M107.426 45.5011C105.664 45.5011 103.642 47.0024 102.971 50.7851L102.375 54.1504H98.8789L101.03 41.9784H104.447L104.008 44.5424C104.807 42.7304 105.742 41.7197 108.099 41.7197L107.426 45.5011Z" fill="white"/>
<path d="M54.6352 25.1038V25.1651C54.6299 26.0345 53.9432 26.9065 52.5832 27.5625L7.00455 49.6385C4.26455 50.9678 3.25122 49.8851 4.74322 47.2345L13.0832 32.4158C14.2926 30.2531 14.9845 27.7598 14.9845 25.1038C14.9845 22.4465 14.2926 19.9518 13.0832 17.7918L4.74322 2.97314C3.25122 0.321143 4.26455 -0.761525 7.00455 0.567809L52.5832 22.6425C53.9432 23.3051 54.6299 24.1731 54.6352 25.0425V25.1038Z" fill="white"/>
</g>
<defs>
<clipPath id="clip0_194_70503">
<rect width="108.099" height="77.6167" fill="white"/>
</clipPath>
</defs>
</svg>
