<svg width="81" height="40" viewBox="0 0 81 40" fill="none" xmlns="http://www.w3.org/2000/svg">
<g clip-path="url(#clip0_4199_59852)">
<path d="M38.1587 20.6502V29.9502H35.1587V6.9502H42.9587C44.8587 6.9502 46.6587 7.6502 48.0587 8.9502C49.4587 10.1502 50.1587 11.9502 50.1587 13.8502C50.1587 15.7502 49.4587 17.4502 48.0587 18.7502C46.6587 20.0502 44.9587 20.7502 42.9587 20.7502L38.1587 20.6502ZM38.1587 9.7502V17.7502H43.1587C44.2587 17.7502 45.3587 17.3502 46.0587 16.5502C47.6587 15.0502 47.6587 12.5502 46.1587 11.0502L46.0587 10.9502C45.2587 10.1502 44.2587 9.6502 43.1587 9.7502H38.1587Z" fill="white"/>
<path d="M57.0587 13.75C59.2587 13.75 60.9587 14.35 62.2587 15.55C63.5587 16.75 64.1587 18.35 64.1587 20.35V29.95H61.3587V27.75H61.2587C60.0587 29.55 58.3587 30.45 56.3587 30.45C54.6587 30.45 53.1587 29.95 51.9587 28.95C50.8587 27.95 50.1587 26.55 50.1587 25.05C50.1587 23.45 50.7587 22.15 51.9587 21.15C53.1587 20.15 54.8587 19.75 56.8587 19.75C58.6587 19.75 60.0587 20.05 61.1587 20.75V20.05C61.1587 19.05 60.7587 18.05 59.9587 17.45C59.1587 16.75 58.1587 16.35 57.0587 16.35C55.3587 16.35 54.0587 17.05 53.1587 18.45L50.5587 16.85C52.1587 14.75 54.2587 13.75 57.0587 13.75ZM53.2587 25.15C53.2587 25.95 53.6587 26.65 54.2587 27.05C54.9587 27.55 55.7587 27.85 56.5587 27.85C57.7587 27.85 58.9587 27.35 59.8587 26.45C60.8587 25.55 61.3587 24.45 61.3587 23.25C60.4587 22.55 59.1587 22.15 57.4587 22.15C56.2587 22.15 55.2587 22.45 54.4587 23.05C53.6587 23.55 53.2587 24.25 53.2587 25.15Z" fill="white"/>
<path d="M80.3587 14.25L70.4587 36.95H67.4587L71.1587 29.05L64.6587 14.35H67.8587L72.5587 25.65H72.6587L77.2587 14.35H80.3587V14.25Z" fill="white"/>
<path d="M26.2591 18.6502C26.2591 17.7502 26.1591 16.8502 26.0591 15.9502H13.5591V21.0502H20.6591C20.3591 22.6502 19.4591 24.1502 18.0591 25.0502V28.3502H22.3591C24.8591 26.0502 26.2591 22.6502 26.2591 18.6502Z" fill="#4285F4"/>
<path d="M13.5588 31.5506C17.1588 31.5506 20.1588 30.3506 22.3588 28.3506L18.0588 25.0506C16.8588 25.8506 15.3588 26.3506 13.5588 26.3506C10.1588 26.3506 7.15879 24.0506 6.15879 20.8506H1.75879V24.2506C4.05879 28.7506 8.55879 31.5506 13.5588 31.5506Z" fill="#34A853"/>
<path d="M6.15898 20.8506C5.55898 19.2506 5.55898 17.4506 6.15898 15.7506V12.3506H1.75898C-0.141016 16.0506 -0.141016 20.4506 1.75898 24.2506L6.15898 20.8506Z" fill="#FBBC04"/>
<path d="M13.5589 10.3499C15.4589 10.3499 17.2589 11.0499 18.6589 12.3499L22.4589 8.54991C20.0589 6.34991 16.8589 5.04991 13.6589 5.14991C8.65889 5.14991 4.05889 7.94991 1.85889 12.4499L6.25889 15.8499C7.15889 12.6499 10.1589 10.3499 13.5589 10.3499Z" fill="#EA4335"/>
</g>
<defs>
<clipPath id="clip0_4199_59852">
<rect width="80" height="38.1" fill="white" transform="translate(0.358887 0.950195)"/>
</clipPath>
</defs>
</svg>
