<svg width="70" height="45" viewBox="0 0 70 45" fill="none" xmlns="http://www.w3.org/2000/svg">
    <path d="M44.4652 39.8252H25.5321V5.18042H44.4652V39.8252Z" fill="#FF5F00"/>
    <path d="M26.7454 22.4999C26.7454 15.472 29.9771 9.21181 35.0098 5.17748C31.3295 2.22738 26.6849 0.46656 21.6371 0.46656C9.68695 0.46656 0 10.3311 0 22.4999C0 34.6687 9.68695 44.5332 21.6371 44.5332C26.6849 44.5332 31.3295 42.7724 35.0098 39.8223C29.9771 35.788 26.7454 29.5277 26.7454 22.4999Z"
          fill="#EB001B"/>
    <path d="M69.9999 22.4999C69.9999 34.6687 60.313 44.5332 48.3628 44.5332C43.3151 44.5332 38.6704 42.7724 34.9888 39.8223C40.0228 35.788 43.2545 29.5277 43.2545 22.4999C43.2545 15.472 40.0228 9.21181 34.9888 5.17748C38.6704 2.22738 43.3151 0.46656 48.3628 0.46656C60.313 0.46656 69.9999 10.3311 69.9999 22.4999Z"
          fill="#F79E1B"/>
    <path d="M16.2819 22.6391C16.2819 21.6767 16.9013 20.886 17.9135 20.886C18.8806 20.886 19.5335 21.6426 19.5335 22.6391C19.5335 23.6356 18.8806 24.3922 17.9135 24.3922C16.9013 24.3922 16.2819 23.6015 16.2819 22.6391ZM20.6359 22.6391V19.9013H19.4666V20.5661C19.0957 20.0731 18.5329 19.7637 17.768 19.7637C16.26 19.7637 15.0779 20.9673 15.0779 22.6391C15.0779 24.3122 16.26 25.5145 17.768 25.5145C18.5329 25.5145 19.0957 25.2051 19.4666 24.7121V25.3769H20.6359V22.6391ZM60.1497 22.6391C60.1497 21.6767 60.7692 20.886 61.7813 20.886C62.7497 20.886 63.4014 21.6426 63.4014 22.6391C63.4014 23.6356 62.7497 24.3922 61.7813 24.3922C60.7692 24.3922 60.1497 23.6015 60.1497 22.6391ZM64.505 22.6391V17.7025H63.3344V20.5661C62.9635 20.0731 62.4008 19.7637 61.6358 19.7637C60.1278 19.7637 58.9457 20.9673 58.9457 22.6391C58.9457 24.3122 60.1278 25.5145 61.6358 25.5145C62.4008 25.5145 62.9635 25.2051 63.3344 24.7121V25.3769H64.505V22.6391ZM35.1503 20.8297C35.9036 20.8297 36.3878 21.3109 36.5115 22.1579H33.7209C33.8458 21.3672 34.3171 20.8297 35.1503 20.8297ZM35.1735 19.7637C33.5972 19.7637 32.4949 20.9319 32.4949 22.6391C32.4949 24.3804 33.6423 25.5145 35.252 25.5145C36.062 25.5145 36.8038 25.3087 37.4567 24.7475L36.8836 23.8651C36.4329 24.2309 35.8586 24.438 35.319 24.438C34.5656 24.438 33.8793 24.0827 33.7106 23.0967H37.7039C37.7155 22.9485 37.7271 22.7991 37.7271 22.6391C37.7155 20.9319 36.6802 19.7637 35.1735 19.7637ZM49.2926 22.6391C49.2926 21.6767 49.912 20.886 50.9242 20.886C51.8913 20.886 52.5442 21.6426 52.5442 22.6391C52.5442 23.6356 51.8913 24.3922 50.9242 24.3922C49.912 24.3922 49.2926 23.6015 49.2926 22.6391ZM53.6465 22.6391V19.9013H52.4772V20.5661C52.105 20.0731 51.5436 19.7637 50.7786 19.7637C49.2707 19.7637 48.0885 20.9673 48.0885 22.6391C48.0885 24.3122 49.2707 25.5145 50.7786 25.5145C51.5436 25.5145 52.105 25.2051 52.4772 24.7121V25.3769H53.6465V22.6391ZM42.6889 22.6391C42.6889 24.3004 43.8247 25.5145 45.558 25.5145C46.368 25.5145 46.9076 25.331 47.4923 24.8616L46.9308 23.8991C46.4917 24.2204 46.0306 24.3922 45.5233 24.3922C44.5896 24.3804 43.9033 23.6933 43.9033 22.6391C43.9033 21.5849 44.5896 20.8978 45.5233 20.886C46.0306 20.886 46.4917 21.0578 46.9308 21.3791L47.4923 20.4166C46.9076 19.9472 46.368 19.7637 45.558 19.7637C43.8247 19.7637 42.6889 20.9778 42.6889 22.6391ZM57.7648 19.7637C57.09 19.7637 56.6509 20.0849 56.347 20.5661V19.9013H55.188V25.3769H56.3585V22.3074C56.3585 21.4013 56.741 20.8978 57.506 20.8978C57.7429 20.8978 57.9901 20.9319 58.2374 21.0355L58.598 19.9131C58.3391 19.8096 58.0017 19.7637 57.7648 19.7637ZM26.4192 20.3367C25.8565 19.959 25.0812 19.7637 24.2262 19.7637C22.8637 19.7637 21.9867 20.4284 21.9867 21.5167C21.9867 22.4096 22.6396 22.9603 23.8424 23.1321L24.3949 23.2121C25.0362 23.3039 25.3388 23.4756 25.3388 23.7851C25.3388 24.2086 24.9113 24.4498 24.1128 24.4498C23.3028 24.4498 22.7182 24.1863 22.3241 23.8769L21.773 24.8039C22.4143 25.2851 23.2243 25.5145 24.1012 25.5145C25.6543 25.5145 26.5544 24.7698 26.5544 23.7274C26.5544 22.765 25.8462 22.2615 24.6756 22.0897L24.1244 22.0084C23.6183 21.9402 23.2127 21.838 23.2127 21.4708C23.2127 21.0696 23.5952 20.8297 24.2365 20.8297C24.9228 20.8297 25.5873 21.0932 25.9131 21.2991L26.4192 20.3367ZM41.5067 19.7637C40.8319 19.7637 40.3928 20.0849 40.0902 20.5661V19.9013H38.9312V25.3769H40.1005V22.3074C40.1005 21.4013 40.4829 20.8978 41.2479 20.8978C41.4848 20.8978 41.7321 20.9319 41.9793 21.0355L42.3399 19.9131C42.0811 19.8096 41.7437 19.7637 41.5067 19.7637ZM31.5278 19.9013H29.6155V18.2401H28.4333V19.9013H27.3426V20.9896H28.4333V23.4874C28.4333 24.758 28.9175 25.5145 30.3006 25.5145C30.8079 25.5145 31.3926 25.3546 31.7635 25.091L31.4261 24.0709C31.0771 24.2768 30.6946 24.3804 30.3907 24.3804C29.8061 24.3804 29.6155 24.0132 29.6155 23.4638V20.9896H31.5278V19.9013ZM14.0438 25.3769V21.9402C14.0438 20.6461 13.2338 19.7755 11.928 19.7637C11.2416 19.7519 10.5333 19.9695 10.0375 20.7379C9.66666 20.1308 9.08201 19.7637 8.26041 19.7637C7.68607 19.7637 7.1246 19.9354 6.68547 20.5766V19.9013H5.51489V25.3769H6.69578V22.3415C6.69578 21.3909 7.21346 20.886 8.01316 20.886C8.78968 20.886 9.18246 21.4013 9.18246 22.3297V25.3769H10.3646V22.3415C10.3646 21.3909 10.9042 20.886 11.6807 20.886C12.4791 20.886 12.8616 21.4013 12.8616 22.3297V25.3769H14.0438Z"
          fill="white"/>
</svg>
