<svg width="86" height="39" viewBox="0 0 86 39" fill="none" xmlns="http://www.w3.org/2000/svg">
    <path d="M0.100586 37.1084V33.9491H2.3705V34.4837H0.718839V35.1841H2.2558V35.7164H0.718839V36.5761H2.42924V37.1084H0.100586Z"
          fill="white"/>
    <path d="M2.97913 33.9496H3.56605V34.5096H2.97913V33.9496ZM2.97913 34.8202H3.56605V37.1089H2.97913V34.8202Z"
          fill="white"/>
    <path d="M6.21473 37.1085H5.62781V35.9405C5.62781 35.6934 5.6155 35.5334 5.59032 35.4607C5.56514 35.3885 5.52486 35.3325 5.46835 35.2921C5.41184 35.2517 5.34414 35.2315 5.26469 35.2315C5.16286 35.2315 5.07166 35.2603 4.99109 35.3181C4.91052 35.3752 4.85457 35.4515 4.82492 35.5461C4.7947 35.6408 4.78016 35.8163 4.78016 36.0715V37.1085H4.19324V34.8198H4.7382V35.1558C4.93178 34.8978 5.17573 34.7684 5.46947 34.7684C5.59871 34.7684 5.71677 34.7921 5.82419 34.8406C5.93162 34.8885 6.01219 34.9503 6.06758 35.0248C6.12241 35.0993 6.16102 35.1841 6.18228 35.2788C6.2041 35.3735 6.21473 35.5098 6.21473 35.6864V37.1085Z"
          fill="white"/>
    <path d="M7.42432 33.9496V35.1112C7.61344 34.8826 7.84004 34.7683 8.103 34.7683C8.23784 34.7683 8.35982 34.7943 8.46836 34.8462C8.5769 34.8976 8.65859 34.964 8.71398 35.0443C8.76881 35.1245 8.8063 35.214 8.82644 35.3116C8.84658 35.4092 8.85666 35.561 8.85666 35.7665V37.1089H8.27029V35.8999C8.27029 35.6597 8.2591 35.5079 8.23672 35.4426C8.21434 35.3786 8.17518 35.3272 8.11867 35.2891C8.06216 35.251 7.99166 35.2319 7.90662 35.2319C7.80926 35.2319 7.72198 35.2562 7.64589 35.3047C7.56924 35.3537 7.51328 35.4276 7.47748 35.5258C7.44223 35.6245 7.42432 35.77 7.42432 35.9623V37.1089H6.8374V33.9496H7.42432Z"
          fill="white"/>
    <path d="M10.7661 36.3799L11.3508 36.4816C11.2758 36.7027 11.1567 36.8707 10.995 36.9867C10.8327 37.1022 10.6296 37.16 10.3862 37.16C10.0002 37.16 9.71482 37.03 9.52963 36.7697C9.3836 36.5618 9.3103 36.2991 9.3103 35.9816C9.3103 35.6022 9.40654 35.3049 9.59901 35.0901C9.79092 34.8753 10.0337 34.7679 10.3275 34.7679C10.6576 34.7679 10.9178 34.8805 11.1086 35.1051C11.2993 35.3303 11.3905 35.6744 11.3822 36.1386H9.91177C9.91625 36.3182 9.96324 36.4579 10.0539 36.5578C10.1445 36.6576 10.2575 36.7073 10.3924 36.7073C10.4841 36.7073 10.5614 36.6819 10.624 36.6299C10.6867 36.578 10.7342 36.4948 10.7661 36.3799ZM10.7997 35.7679C10.7952 35.5924 10.7516 35.4596 10.6682 35.3684C10.5843 35.2772 10.483 35.2316 10.3633 35.2316C10.2352 35.2316 10.1294 35.2795 10.0455 35.3759C9.96213 35.4717 9.92128 35.6028 9.9224 35.7679H10.7997Z"
          fill="white"/>
    <path d="M11.8905 33.9496H12.4774V34.5096H11.8905V33.9496ZM11.8905 34.8202H12.4774V37.1089H11.8905V34.8202Z"
          fill="white"/>
    <path d="M14.1258 34.82V35.3027H13.7246V36.2253C13.7246 36.4118 13.7285 36.5209 13.7364 36.5515L13.7884 36.6283L13.888 36.6583C13.9423 36.6583 14.0206 36.6387 14.1235 36.6L14.1739 37.07C14.0374 37.13 13.883 37.1601 13.7101 37.1601C13.6043 37.1601 13.5092 37.1422 13.4242 37.1052C13.3391 37.0689 13.277 37.0215 13.2373 36.9632C13.1976 36.9049 13.1701 36.8264 13.1545 36.7271C13.1422 36.6572 13.136 36.5146 13.136 36.3004V35.3027H12.8663V34.82H13.136V34.3651L13.7246 34.0117V34.82H14.1258Z"
          fill="white"/>
    <path d="M14.5625 33.9496H15.1494V37.1089H14.5625V33.9496Z" fill="white"/>
    <path d="M15.781 33.9496H16.3679V34.5096H15.781V33.9496ZM15.781 34.8202H16.3679V37.1089H15.781V34.8202Z"
          fill="white"/>
    <path d="M18.9326 35.4966L18.3541 35.6045C18.3345 35.485 18.2903 35.3955 18.2215 35.3349C18.1526 35.2749 18.0631 35.2443 17.9535 35.2443C17.8069 35.2443 17.6905 35.2968 17.6032 35.4007C17.5165 35.5047 17.4728 35.679 17.4728 35.9232C17.4728 36.1946 17.517 36.3869 17.6054 36.4989C17.6939 36.6109 17.8125 36.6663 17.9613 36.6663C18.0732 36.6663 18.1638 36.634 18.2349 36.5687C18.3059 36.5035 18.3563 36.3909 18.3854 36.2316L18.9617 36.3326C18.9018 36.6057 18.7871 36.8118 18.617 36.951C18.4475 37.0907 18.2198 37.16 17.9344 37.16C17.6099 37.16 17.3514 37.0543 17.1584 36.8436C16.9659 36.6322 16.8691 36.3401 16.8691 35.9665C16.8691 35.5884 16.9659 35.2945 17.1595 35.0838C17.3531 34.8736 17.615 34.7679 17.9451 34.7679C18.2148 34.7679 18.4296 34.828 18.5891 34.9481C18.7485 35.0682 18.8632 35.2506 18.9326 35.4966Z"
          fill="white"/>
    <path d="M19.9923 33.9496V35.1112C20.1814 34.8826 20.408 34.7683 20.671 34.7683C20.8058 34.7683 20.9278 34.7943 21.0363 34.8462C21.1449 34.8976 21.2266 34.964 21.282 35.0443C21.3368 35.1245 21.3743 35.214 21.3944 35.3116C21.4146 35.4092 21.4246 35.561 21.4246 35.7665V37.1089H20.8383V35.8999C20.8383 35.6597 20.8271 35.5079 20.8047 35.4426C20.7823 35.3786 20.7432 35.3272 20.6867 35.2891C20.6301 35.251 20.5597 35.2319 20.4746 35.2319C20.3773 35.2319 20.29 35.2562 20.2139 35.3047C20.1372 35.3537 20.0807 35.4276 20.0455 35.5258C20.0102 35.6245 19.9923 35.77 19.9923 35.9623V37.1089H19.4054V33.9496H19.9923Z"
          fill="white"/>
    <path d="M23.3344 36.3799L23.9191 36.4816C23.8441 36.7027 23.725 36.8707 23.5633 36.9867C23.401 37.1022 23.1979 37.16 22.9545 37.16C22.5685 37.16 22.2831 37.03 22.0979 36.7697C21.9519 36.5618 21.8792 36.2991 21.8792 35.9816C21.8792 35.6022 21.9748 35.3049 22.1673 35.0901C22.3592 34.8753 22.602 34.7679 22.8958 34.7679C23.2259 34.7679 23.4861 34.8805 23.6768 35.1051C23.8676 35.3303 23.9588 35.6744 23.9504 36.1386H22.4801C22.4845 36.3182 22.5315 36.4579 22.6222 36.5578C22.7128 36.6576 22.8258 36.7073 22.9607 36.7073C23.0524 36.7073 23.1296 36.6819 23.1923 36.6299C23.255 36.578 23.3025 36.4948 23.3344 36.3799ZM23.368 35.7679C23.3635 35.5924 23.3199 35.4596 23.2365 35.3684C23.1526 35.2772 23.0513 35.2316 22.9316 35.2316C22.8035 35.2316 22.6977 35.2795 22.6138 35.3759C22.5304 35.4717 22.4896 35.6028 22.4907 35.7679H23.368Z"
          fill="white"/>
    <path d="M25.02 37.1085H24.4331V34.8198H24.9781V35.1455C25.0715 34.9919 25.1554 34.8903 25.2298 34.8418C25.3043 34.7927 25.3887 34.7684 25.4839 34.7684C25.6176 34.7684 25.7463 34.8065 25.8699 34.8822L25.6881 35.4105C25.5896 35.3441 25.4973 35.3112 25.4128 35.3112C25.3306 35.3112 25.2606 35.3348 25.2035 35.3816C25.1465 35.4278 25.1017 35.5127 25.0693 35.6345C25.0363 35.7569 25.02 36.0121 25.02 36.4018V37.1085Z"
          fill="white"/>
    <path d="M27.3751 37.1084V33.9491H29.645V34.4837H27.9934V35.1841H29.5303V35.7164H27.9934V36.5761H29.7038V37.1084H27.3751Z"
          fill="white"/>
    <path d="M31.713 37.1089V36.7665C31.6325 36.8883 31.5261 36.9847 31.3947 37.0546C31.2632 37.125 31.1244 37.1608 30.9778 37.1608C30.829 37.1608 30.6953 37.1267 30.5772 37.0592C30.4586 36.9916 30.373 36.897 30.3204 36.7751C30.2673 36.6527 30.241 36.4841 30.241 36.2682V34.8202H30.8279V35.8721C30.8279 36.1937 30.8385 36.3906 30.8598 36.4634C30.8816 36.5361 30.9208 36.5933 30.9778 36.636C31.0349 36.6781 31.1076 36.6995 31.1949 36.6995C31.2956 36.6995 31.3852 36.6712 31.4646 36.6146C31.5441 36.5575 31.5983 36.487 31.6274 36.4033C31.6565 36.319 31.6711 36.1135 31.6711 35.7855V34.8202H32.258V37.1089H31.713Z"
          fill="white"/>
    <path d="M33.4574 37.1085H32.8705V34.8198H33.4154V35.1455C33.5089 34.9919 33.5928 34.8903 33.6672 34.8418C33.7416 34.7927 33.8261 34.7684 33.9212 34.7684C34.055 34.7684 34.1836 34.8065 34.3073 34.8822L34.1255 35.4105C34.027 35.3441 33.9352 35.3112 33.8502 35.3112C33.7679 35.3112 33.698 35.3348 33.6409 35.3816C33.5839 35.4278 33.5391 35.5127 33.5066 35.6345C33.4736 35.7569 33.4574 36.0121 33.4574 36.4018V37.1085Z"
          fill="white"/>
    <path d="M34.4545 35.9318C34.4545 35.7309 34.5026 35.5363 34.5988 35.3475C34.6945 35.1599 34.8305 35.0161 35.0067 34.9168C35.1829 34.8181 35.3793 34.7684 35.597 34.7684C35.9321 34.7684 36.2074 34.8804 36.4217 35.1056C36.636 35.3302 36.7434 35.6143 36.7434 35.9578C36.7434 36.3036 36.6349 36.5912 36.4183 36.8186C36.2018 37.0461 35.9293 37.1599 35.6009 37.1599C35.3978 37.1599 35.2036 37.1125 35.0196 37.0178C34.8349 36.9231 34.6945 36.784 34.5988 36.601C34.5026 36.418 34.4545 36.1945 34.4545 35.9318ZM35.0559 35.9642C35.0559 36.1911 35.108 36.3648 35.2126 36.4855C35.3172 36.6062 35.4459 36.6668 35.5987 36.6668C35.752 36.6668 35.8801 36.6062 35.9842 36.4855C36.0877 36.3648 36.1397 36.1899 36.1397 35.9595C36.1397 35.7355 36.0877 35.5635 35.9842 35.4428C35.8801 35.3221 35.752 35.2615 35.5987 35.2615C35.4459 35.2615 35.3172 35.3221 35.2126 35.4428C35.108 35.5635 35.0559 35.7372 35.0559 35.9642Z"
          fill="white"/>
    <path d="M37.166 35.6606H38.3186V36.2663H37.166V35.6606Z" fill="white"/>
    <path d="M38.4258 37.1084V36.5334L40.0338 34.4837H38.6076V33.9491H40.8484V34.4451L39.1716 36.5761H40.9128V37.1084H38.4258Z"
          fill="white"/>
    <path d="M41.7676 35.5179L41.235 35.4186C41.2949 35.1975 41.3978 35.0335 41.5444 34.9273C41.6904 34.8211 41.9075 34.7679 42.1957 34.7679C42.4575 34.7679 42.6522 34.7997 42.7803 34.8638C42.9085 34.9279 42.9985 35.0093 43.0506 35.1074C43.1032 35.2062 43.1289 35.3869 43.1289 35.649L43.1228 36.3563C43.1228 36.5578 43.1323 36.7056 43.1513 36.8008C43.1698 36.8967 43.205 36.9989 43.2565 37.1086H42.6763C42.6606 37.0682 42.6421 37.0087 42.6198 36.9296L42.5985 36.8586C42.4983 36.959 42.3915 37.0347 42.2773 37.0849C42.1632 37.1346 42.0412 37.16 41.912 37.16C41.6832 37.16 41.5036 37.0964 41.3721 36.9683C41.2406 36.8407 41.1746 36.679 41.1746 36.4833C41.1746 36.354 41.2042 36.2391 41.2641 36.1374C41.324 36.0364 41.4079 35.9585 41.5159 35.9048C41.6238 35.8511 41.7794 35.8037 41.9825 35.7639C42.2572 35.7102 42.4469 35.6611 42.5526 35.6149V35.5543C42.5526 35.4383 42.5252 35.3551 42.4693 35.3055C42.4133 35.2564 42.3087 35.2316 42.1537 35.2316C42.0496 35.2316 41.9679 35.2524 41.9097 35.2951C41.851 35.3372 41.804 35.4117 41.7676 35.5179ZM42.5526 36.0093C42.4776 36.0353 42.3585 36.0664 42.1957 36.1022C42.0328 36.138 41.9265 36.1732 41.8762 36.2073C41.7995 36.2633 41.7615 36.3349 41.7615 36.4209C41.7615 36.5058 41.7923 36.5791 41.8532 36.6403C41.9148 36.7027 41.9926 36.7333 42.0871 36.7333C42.1929 36.7333 42.2941 36.6975 42.3898 36.6253C42.4609 36.571 42.5079 36.5041 42.5297 36.425C42.5453 36.373 42.5526 36.2749 42.5526 36.1299V36.0093Z"
          fill="white"/>
    <path d="M44.3224 33.9496V35.1112C44.5115 34.8826 44.7375 34.7683 45.0011 34.7683C45.1359 34.7683 45.2579 34.7943 45.3664 34.8462C45.475 34.8976 45.5567 34.964 45.612 35.0443C45.6669 35.1245 45.7044 35.214 45.7245 35.3116C45.7447 35.4092 45.7547 35.561 45.7547 35.7665V37.1089H45.1678V35.8999C45.1678 35.6597 45.1566 35.5079 45.1348 35.4426C45.1124 35.3786 45.0732 35.3272 45.0167 35.2891C44.9602 35.251 44.8897 35.2319 44.8047 35.2319C44.7073 35.2319 44.62 35.2562 44.5434 35.3047C44.4673 35.3537 44.4108 35.4276 44.3755 35.5258C44.3397 35.6245 44.3224 35.77 44.3224 35.9623V37.1089H43.7355V33.9496H44.3224Z"
          fill="white"/>
    <path d="M46.38 33.9496H46.9669V37.1089H46.38V33.9496Z" fill="white"/>
    <path d="M49.0575 37.1089V36.7665C48.9769 36.8883 48.8706 36.9847 48.7391 37.0546C48.6077 37.125 48.4683 37.1608 48.3223 37.1608C48.1735 37.1608 48.0398 37.1267 47.9217 37.0592C47.8031 36.9916 47.7175 36.897 47.6643 36.7751C47.6117 36.6527 47.5854 36.4841 47.5854 36.2682V34.8202H48.1718V35.8721C48.1718 36.1937 48.183 36.3906 48.2043 36.4634C48.2255 36.5361 48.2652 36.5933 48.3223 36.636C48.3794 36.6781 48.4521 36.6995 48.5394 36.6995C48.6396 36.6995 48.7296 36.6712 48.8091 36.6146C48.8885 36.5575 48.9422 36.487 48.9719 36.4033C49.001 36.319 49.0155 36.1135 49.0155 35.7855V34.8202H49.6025V37.1089H49.0575Z"
          fill="white"/>
    <path d="M52.2581 37.1085H51.6711V35.9405C51.6711 35.6934 51.6588 35.5334 51.6337 35.4607C51.6085 35.3885 51.5676 35.3325 51.5111 35.2921C51.4552 35.2517 51.3869 35.2315 51.308 35.2315C51.2062 35.2315 51.115 35.2603 51.0339 35.3181C50.9533 35.3752 50.8985 35.4515 50.8683 35.5461C50.838 35.6408 50.8235 35.8163 50.8235 36.0715V37.1085H50.2366V34.8198H50.7815V35.1558C50.9751 34.8978 51.2185 34.7684 51.5122 34.7684C51.642 34.7684 51.7601 34.7921 51.8675 34.8406C51.9744 34.8885 52.0555 34.9503 52.1109 35.0248C52.1657 35.0993 52.2038 35.1841 52.2256 35.2788C52.2469 35.3735 52.2581 35.5098 52.2581 35.6864V37.1085Z"
          fill="white"/>
    <path d="M52.8287 37.2593L53.499 37.3436C53.5102 37.4238 53.5359 37.4792 53.5762 37.5093C53.6316 37.5526 53.7194 37.5739 53.8391 37.5739C53.9924 37.5739 54.1071 37.5503 54.1838 37.5023C54.2353 37.4712 54.2744 37.4203 54.3007 37.3499C54.3186 37.2997 54.3276 37.2067 54.3276 37.0716V36.7379C54.1525 36.985 53.9315 37.1086 53.664 37.1086C53.3658 37.1086 53.1297 36.9787 52.9557 36.7183C52.8197 36.5133 52.7515 36.2575 52.7515 35.951C52.7515 35.5676 52.8404 35.2749 53.0195 35.0716C53.1985 34.8696 53.4206 34.7679 53.687 34.7679C53.9611 34.7679 54.1877 34.8927 54.3656 35.1409V34.8199H54.9145V36.8736C54.9145 37.1432 54.8932 37.3453 54.8502 37.4792C54.8065 37.6126 54.7461 37.7177 54.6683 37.7939C54.5906 37.8701 54.4859 37.9296 54.3561 37.9729C54.2258 38.0156 54.0613 38.037 53.8621 38.037C53.4861 38.037 53.2198 37.9706 53.0625 37.8378C52.9048 37.705 52.8264 37.5364 52.8264 37.3326L52.8287 37.2593ZM53.3529 35.9163C53.3529 36.1594 53.3983 36.3372 53.4895 36.4504C53.5807 36.563 53.6931 36.6195 53.8268 36.6195C53.9701 36.6195 54.0909 36.5612 54.19 36.4458C54.289 36.3303 54.3382 36.1588 54.3382 35.9319C54.3382 35.6946 54.2912 35.5191 54.1961 35.4042C54.1015 35.2893 53.9818 35.2316 53.8369 35.2316C53.6965 35.2316 53.5807 35.2881 53.4895 35.4007C53.3983 35.5133 53.3529 35.6854 53.3529 35.9163Z"
          fill="white"/>
    <path d="M55.3184 36.4556L55.9075 36.3626C55.9321 36.4804 55.983 36.5699 56.0597 36.6311C56.1364 36.6923 56.2432 36.7229 56.3814 36.7229C56.533 36.7229 56.6472 36.694 56.7238 36.6369C56.7753 36.5965 56.801 36.5422 56.801 36.4746L56.7591 36.3609C56.73 36.332 56.6645 36.3055 56.5627 36.2806C56.0899 36.1732 55.7895 36.0751 55.663 35.9856C55.4879 35.862 55.3995 35.6906 55.3995 35.4706C55.3995 35.2726 55.4756 35.1057 55.6272 34.9706C55.7794 34.8355 56.0144 34.7679 56.3333 34.7679C56.6366 34.7679 56.8626 34.8193 57.0097 34.9215C57.1574 35.0231 57.2593 35.1738 57.3147 35.3736L56.7613 35.4793C56.7378 35.3903 56.6925 35.3216 56.6265 35.2749C56.5605 35.2269 56.4659 35.2033 56.3434 35.2033C56.1895 35.2033 56.0787 35.2258 56.0116 35.2703L55.945 35.3932L56.0032 35.5029C56.0563 35.5433 56.2387 35.5999 56.5515 35.6732C56.8637 35.7466 57.0825 35.8366 57.2061 35.9423C57.3287 36.0503 57.3902 36.2004 57.3902 36.3926C57.3902 36.6028 57.3052 36.7829 57.1351 36.9336C56.9655 37.0849 56.7138 37.16 56.3814 37.16C56.0793 37.16 55.8404 37.097 55.6641 36.9706C55.4879 36.8441 55.3726 36.6727 55.3184 36.4556Z"
          fill="white"/>
    <path d="M58.5434 37.1089L57.6499 34.8202H58.2659L58.6833 35.9882L58.8047 36.3785C58.8366 36.2792 58.8568 36.2139 58.8652 36.1822C58.8847 36.1175 58.9054 36.0529 58.9278 35.9882L59.3497 34.8202H59.9534L59.0722 37.1089H58.5434Z"
          fill="white"/>
    <path d="M61.6265 36.3799L62.2112 36.4816C62.1362 36.7027 62.0171 36.8707 61.8554 36.9867C61.6931 37.1022 61.49 37.16 61.2466 37.16C60.8606 37.16 60.5752 37.03 60.39 36.7697C60.244 36.5618 60.1713 36.2991 60.1713 35.9816C60.1713 35.6022 60.2669 35.3049 60.4588 35.0901C60.6513 34.8753 60.8941 34.7679 61.1879 34.7679C61.518 34.7679 61.7782 34.8805 61.969 35.1051C62.1597 35.3303 62.2509 35.6744 62.2425 36.1386H60.7727C60.7766 36.3182 60.8236 36.4579 60.9143 36.5578C61.0049 36.6576 61.1179 36.7073 61.2528 36.7073C61.3445 36.7073 61.4218 36.6819 61.4844 36.6299C61.5471 36.578 61.5946 36.4948 61.6265 36.3799ZM61.6601 35.7679C61.6556 35.5924 61.612 35.4596 61.5281 35.3684C61.4447 35.2772 61.3434 35.2316 61.2237 35.2316C61.0956 35.2316 60.9898 35.2795 60.9064 35.3759C60.8225 35.4717 60.7817 35.6028 60.7828 35.7679H61.6601Z"
          fill="white"/>
    <path d="M63.3123 37.1085H62.7253V34.8198H63.2703V35.1455C63.3637 34.9919 63.4477 34.8903 63.5221 34.8418C63.5965 34.7927 63.681 34.7684 63.7755 34.7684C63.9093 34.7684 64.0385 34.8065 64.1622 34.8822L63.9803 35.4105C63.8818 35.3441 63.7895 35.3112 63.705 35.3112C63.6228 35.3112 63.5529 35.3348 63.4958 35.3816C63.4387 35.4278 63.394 35.5127 63.3615 35.6345C63.3285 35.7569 63.3123 36.0121 63.3123 36.4018V37.1085Z"
          fill="white"/>
    <path d="M64.424 37.1084V33.9491H65.0109V35.6258L65.6979 34.8198H66.4203L65.6627 35.6558L66.4751 37.1084H65.8423L65.2845 36.0801L65.0109 36.3758V37.1084H64.424Z"
          fill="white"/>
    <path d="M68.1381 36.3799L68.7228 36.4816C68.6478 36.7027 68.5292 36.8707 68.3669 36.9867C68.2041 37.1022 68.0016 37.16 67.7582 37.16C67.3721 37.16 67.0868 37.03 66.9016 36.7697C66.7555 36.5618 66.6823 36.2991 66.6823 35.9816C66.6823 35.6022 66.7785 35.3049 66.971 35.0901C67.1629 34.8753 67.4057 34.7679 67.6994 34.7679C68.0295 34.7679 68.2897 34.8805 68.4805 35.1051C68.6713 35.3303 68.7625 35.6744 68.7541 36.1386H67.2837C67.2882 36.3182 67.3358 36.4579 67.4258 36.5578C67.5165 36.6576 67.6289 36.7073 67.7643 36.7073C67.8561 36.7073 67.9333 36.6819 67.996 36.6299C68.0586 36.578 68.1062 36.4948 68.1381 36.3799ZM68.1716 35.7679C68.1672 35.5924 68.1235 35.4596 68.0402 35.3684C67.9568 35.2772 67.8544 35.2316 67.7347 35.2316C67.6066 35.2316 67.5008 35.2795 67.4174 35.3759C67.3341 35.4717 67.2932 35.6028 67.2943 35.7679H68.1716Z"
          fill="white"/>
    <path d="M69.8468 33.9496V35.1112C70.0359 34.8826 70.262 34.7683 70.5255 34.7683C70.6603 34.7683 70.7823 34.7943 70.8908 34.8462C70.9994 34.8976 71.0811 34.964 71.1365 35.0443C71.1913 35.1245 71.2288 35.214 71.2489 35.3116C71.2691 35.4092 71.2791 35.561 71.2791 35.7665V37.1089H70.6922V35.8999C70.6922 35.6597 70.681 35.5079 70.6592 35.4426C70.6368 35.3786 70.5977 35.3272 70.5411 35.2891C70.4846 35.251 70.4141 35.2319 70.3291 35.2319C70.2317 35.2319 70.1445 35.2562 70.0678 35.3047C69.9917 35.3537 69.9352 35.4276 69.9 35.5258C69.8642 35.6245 69.8468 35.77 69.8468 35.9623V37.1089H69.2599V33.9496H69.8468Z"
          fill="white"/>
    <path d="M72.4661 37.1085H71.8792V34.8198H72.4241V35.1455C72.5175 34.9919 72.6015 34.8903 72.6759 34.8418C72.7503 34.7927 72.8348 34.7684 72.9299 34.7684C73.0631 34.7684 73.1917 34.8065 73.316 34.8822L73.1341 35.4105C73.0356 35.3441 72.9433 35.3112 72.8588 35.3112C72.7766 35.3112 72.7067 35.3348 72.6496 35.3816C72.5925 35.4278 72.5478 35.5127 72.5153 35.6345C72.4823 35.7569 72.4661 36.0121 72.4661 36.4018V37.1085Z"
          fill="white"/>
    <path d="M73.3921 36.4556L73.9807 36.3626C74.0059 36.4804 74.0568 36.5699 74.1334 36.6311C74.2101 36.6923 74.317 36.7229 74.4552 36.7229C74.6068 36.7229 74.7209 36.694 74.7976 36.6369C74.849 36.5965 74.8748 36.5422 74.8748 36.4746L74.8328 36.3609C74.8037 36.332 74.7383 36.3055 74.6364 36.2806C74.1631 36.1732 73.8632 36.0751 73.7367 35.9856C73.5616 35.862 73.4732 35.6906 73.4732 35.4706C73.4732 35.2726 73.5493 35.1057 73.7009 34.9706C73.8531 34.8355 74.0881 34.7679 74.407 34.7679C74.7103 34.7679 74.9358 34.8193 75.0835 34.9215C75.2312 35.0231 75.333 35.1738 75.3884 35.3736L74.8351 35.4793C74.8116 35.3903 74.7662 35.3216 74.7002 35.2749C74.6342 35.2269 74.5396 35.2033 74.4171 35.2033C74.2632 35.2033 74.1525 35.2258 74.0853 35.2703L74.0187 35.3932L74.0769 35.5029C74.1301 35.5433 74.3125 35.5999 74.6252 35.6732C74.9374 35.7466 75.1562 35.8366 75.2799 35.9423C75.4024 36.0503 75.4639 36.2004 75.4639 36.3926C75.4639 36.6028 75.3789 36.7829 75.2088 36.9336C75.0393 37.0849 74.7875 37.16 74.4552 37.16C74.1525 37.16 73.9141 37.097 73.7379 36.9706C73.5616 36.8441 73.4464 36.6727 73.3921 36.4556Z"
          fill="white"/>
    <path d="M76.5686 37.1085H75.9817V34.8198H76.5266V35.1455C76.6201 34.9919 76.704 34.8903 76.7784 34.8418C76.8528 34.7927 76.9373 34.7684 77.0324 34.7684C77.1662 34.7684 77.2948 34.8065 77.4185 34.8822L77.2367 35.4105C77.1382 35.3441 77.0464 35.3112 76.9614 35.3112C76.8791 35.3112 76.8098 35.3348 76.7521 35.3816C76.6956 35.4278 76.6503 35.5127 76.6178 35.6345C76.5848 35.7569 76.5686 36.0121 76.5686 36.4018V37.1085Z"
          fill="white"/>
    <path d="M78.1397 35.5179L77.6071 35.4186C77.6675 35.1975 77.7704 35.0335 77.9165 34.9273C78.0625 34.8211 78.2796 34.7679 78.5677 34.7679C78.8296 34.7679 79.0248 34.7997 79.1524 34.8638C79.2805 34.9279 79.3712 35.0093 79.4232 35.1074C79.4752 35.2062 79.501 35.3869 79.501 35.649L79.4948 36.3563C79.4948 36.5578 79.5043 36.7056 79.5234 36.8008C79.5424 36.8967 79.5771 36.9989 79.6285 37.1086H79.0483C79.0327 37.0682 79.0142 37.0087 78.9918 36.9296L78.9711 36.8586C78.871 36.959 78.7636 37.0347 78.6494 37.0849C78.5353 37.1346 78.4133 37.16 78.2841 37.16C78.0558 37.16 77.8756 37.0964 77.7441 36.9683C77.6126 36.8407 77.5466 36.679 77.5466 36.4833C77.5466 36.354 77.5768 36.2391 77.6367 36.1374C77.6966 36.0364 77.7799 35.9585 77.8885 35.9048C77.9959 35.8511 78.1515 35.8037 78.3551 35.7639C78.6293 35.7102 78.8189 35.6611 78.9247 35.6149V35.5543C78.9247 35.4383 78.8973 35.3551 78.8413 35.3055C78.7859 35.2564 78.6807 35.2316 78.5263 35.2316C78.4217 35.2316 78.34 35.2524 78.2818 35.2951C78.2231 35.3372 78.1761 35.4117 78.1397 35.5179ZM78.9247 36.0093C78.8497 36.0353 78.7305 36.0664 78.5677 36.1022C78.4049 36.138 78.2986 36.1732 78.2482 36.2073C78.1722 36.2633 78.1336 36.3349 78.1336 36.4209C78.1336 36.5058 78.1643 36.5791 78.2253 36.6403C78.2869 36.7027 78.3646 36.7333 78.4592 36.7333C78.5649 36.7333 78.6662 36.6975 78.7624 36.6253C78.8329 36.571 78.8799 36.5041 78.9023 36.425C78.9174 36.373 78.9247 36.2749 78.9247 36.1299V36.0093Z"
          fill="white"/>
    <path d="M81.5697 37.1089V36.7665C81.4891 36.8883 81.3828 36.9847 81.2513 37.0546C81.1198 37.125 80.9811 37.1608 80.8345 37.1608C80.6856 37.1608 80.5519 37.1267 80.4339 37.0592C80.3153 36.9916 80.2297 36.897 80.1771 36.7751C80.1239 36.6527 80.097 36.4841 80.097 36.2682V34.8202H80.684V35.8721C80.684 36.1937 80.6946 36.3906 80.7164 36.4634C80.7382 36.5361 80.7774 36.5933 80.8345 36.636C80.8915 36.6781 80.9643 36.6995 81.0516 36.6995C81.1523 36.6995 81.2418 36.6712 81.3212 36.6146C81.4001 36.5575 81.455 36.487 81.4841 36.4033C81.5132 36.319 81.5277 36.1135 81.5277 35.7855V34.8202H82.1146V37.1089H81.5697Z"
          fill="white"/>
    <path d="M82.7083 34.8199H83.2487V35.1323C83.4429 34.8898 83.6728 34.7679 83.9403 34.7679C84.0824 34.7679 84.2055 34.7985 84.3096 34.8586C84.4147 34.9192 84.4998 35.0104 84.5669 35.1323C84.6643 35.0104 84.7695 34.9192 84.8825 34.8586C84.995 34.7985 85.1152 34.7679 85.2434 34.7679C85.4062 34.7679 85.5438 34.8026 85.6568 34.8707C85.7699 34.9388 85.8538 35.0393 85.9097 35.1715C85.95 35.2691 85.9702 35.4273 85.9702 35.6455V37.1086H85.3832V35.8008C85.3832 35.5734 85.3631 35.4273 85.3228 35.3609C85.2685 35.2749 85.1852 35.2316 85.0722 35.2316C84.9899 35.2316 84.9127 35.2575 84.8405 35.3095C84.7684 35.3609 84.7158 35.4365 84.6839 35.5364C84.652 35.6363 84.6357 35.7939 84.6357 36.0093V37.1086H84.0488V35.8545C84.0488 35.6317 84.0388 35.4879 84.0175 35.4233C83.9968 35.3586 83.9643 35.3107 83.9207 35.2789C83.8765 35.2477 83.8172 35.2316 83.7417 35.2316C83.6516 35.2316 83.5699 35.2564 83.4977 35.3072C83.425 35.3574 83.3735 35.4302 83.3422 35.5249C83.3108 35.6196 83.2952 35.7766 83.2952 35.9966V37.1086H82.7083V34.8199Z"
          fill="white"/>
    <path d="M0.0262451 30.034L0.908584 29.9457C0.961178 30.2511 1.06916 30.4751 1.23142 30.6189C1.39367 30.7621 1.613 30.8337 1.88828 30.8337C2.18034 30.8337 2.40022 30.7696 2.54849 30.6426C2.6962 30.515 2.77062 30.366 2.77062 30.1951C2.77062 30.086 2.73928 29.9925 2.67718 29.9151C2.61451 29.8389 2.50597 29.7719 2.35099 29.7148C2.24468 29.6767 2.00298 29.6091 1.62475 29.5127C1.1391 29.388 0.797802 29.2355 0.601976 29.0543C0.32614 28.7996 0.188502 28.4884 0.188502 28.1218C0.188502 27.8863 0.253404 27.6651 0.383209 27.4602C0.512455 27.254 0.699329 27.0982 0.943833 26.9902C1.18722 26.8828 1.48208 26.8291 1.82729 26.8291C2.39071 26.8291 2.81482 26.9567 3.09961 27.2119C3.38439 27.4665 3.53434 27.8072 3.54833 28.2327L2.64193 28.2737C2.60276 28.0352 2.51996 27.8643 2.39239 27.7598C2.26482 27.6559 2.07291 27.6033 1.81778 27.6033C1.55481 27.6033 1.34835 27.6593 1.19953 27.7714C1.10329 27.8424 1.05517 27.9388 1.05517 28.0589C1.05517 28.168 1.09993 28.2621 1.19002 28.3401C1.30415 28.4394 1.58223 28.5421 2.02312 28.6495C2.46401 28.7569 2.7902 28.8683 3.00169 28.9832C3.21318 29.0981 3.37824 29.2552 3.49797 29.4538C3.61715 29.6536 3.67701 29.8995 3.67701 30.1922C3.67701 30.4578 3.6054 30.7061 3.46272 30.9382C3.31949 31.1697 3.11751 31.3418 2.85622 31.4549C2.59493 31.5675 2.2693 31.6241 1.87933 31.6241C1.31143 31.6241 0.875573 31.4884 0.571203 31.2176C0.266832 30.9468 0.0855526 30.5525 0.0262451 30.034Z"
          fill="white"/>
    <path d="M4.62256 26.9083H5.48308V27.7299H4.62256V26.9083ZM4.62256 28.1849H5.48308V31.5417H4.62256V28.1849Z"
          fill="white"/>
    <path d="M9.51194 31.5419H8.65142V29.8289C8.65142 29.4663 8.63295 29.2319 8.59603 29.1257C8.55966 29.0194 8.49979 28.9363 8.41699 28.8774C8.33418 28.8185 8.23459 28.7891 8.11821 28.7891C7.96938 28.7891 7.83566 28.8312 7.71704 28.9155C7.59843 28.9998 7.5173 29.1112 7.47366 29.2504C7.42946 29.3895 7.40764 29.6464 7.40764 30.0217V31.5419H6.54712V28.1851H7.34665V28.6782C7.63032 28.2989 7.98784 28.1095 8.41866 28.1095C8.60834 28.1095 8.78178 28.1447 8.939 28.2152C9.09622 28.2862 9.2154 28.3762 9.29597 28.4854C9.37654 28.5951 9.43249 28.7198 9.46438 28.8583C9.49627 28.9975 9.51194 29.1967 9.51194 29.4559V31.5419Z"
          fill="white"/>
    <path d="M10.4935 31.763L11.4765 31.8866C11.4927 32.0044 11.5308 32.0852 11.5901 32.1297C11.6718 32.1932 11.7999 32.2244 11.9762 32.2244C12.2005 32.2244 12.3689 32.1897 12.4814 32.1204C12.5569 32.0737 12.614 31.9992 12.6526 31.8958C12.6789 31.8219 12.6923 31.6863 12.6923 31.4882V30.998C12.4355 31.3606 12.1104 31.5419 11.7188 31.5419C11.2818 31.5419 10.9355 31.3508 10.6803 30.9697C10.48 30.6684 10.3799 30.2937 10.3799 29.8445C10.3799 29.2821 10.5114 28.852 10.7738 28.5552C11.0362 28.2579 11.3624 28.1095 11.7523 28.1095C12.1546 28.1095 12.4864 28.2914 12.7477 28.6563V28.1851H13.5534V31.1972C13.5534 31.5933 13.5215 31.8895 13.4583 32.0852C13.3951 32.2815 13.3061 32.4351 13.192 32.5471C13.0773 32.6585 12.9245 32.7457 12.7337 32.8092C12.5429 32.8722 12.3012 32.9039 12.0097 32.9039C11.458 32.9039 11.067 32.8063 10.8364 32.6118C10.6059 32.4166 10.4907 32.1695 10.4907 31.8704L10.4935 31.763ZM11.2622 29.7942C11.2622 30.1499 11.3288 30.4109 11.4631 30.5766C11.5962 30.7417 11.7613 30.8243 11.9577 30.8243C12.1675 30.8243 12.3454 30.7394 12.4903 30.5702C12.6352 30.4005 12.708 30.1493 12.708 29.8162C12.708 29.4686 12.6386 29.2105 12.4998 29.0419C12.3605 28.8733 12.1848 28.7891 11.9728 28.7891C11.7663 28.7891 11.5962 28.8716 11.4631 29.0367C11.3288 29.2024 11.2622 29.4548 11.2622 29.7942Z"
          fill="white"/>
    <path d="M14.5928 26.9083H15.4533V31.5417H14.5928V26.9083Z" fill="white"/>
    <path d="M18.4075 30.4733L19.2652 30.6217C19.155 30.9462 18.9804 31.1933 18.7426 31.363C18.5048 31.5328 18.2072 31.6176 17.8502 31.6176C17.2845 31.6176 16.866 31.4265 16.5941 31.0455C16.3798 30.74 16.2729 30.3544 16.2729 29.8884C16.2729 29.3324 16.4134 28.8965 16.6954 28.5813C16.9774 28.2666 17.3332 28.109 17.764 28.109C18.248 28.109 18.6301 28.2741 18.9099 28.6038C19.1896 28.9335 19.3234 29.4387 19.3111 30.1194H17.1547C17.1609 30.3827 17.2303 30.5876 17.3629 30.7343C17.4955 30.8804 17.6611 30.9537 17.8591 30.9537C17.994 30.9537 18.1076 30.9156 18.1993 30.8399C18.2911 30.7643 18.3605 30.6419 18.4075 30.4733ZM18.4567 29.5755C18.4505 29.3186 18.3862 29.1229 18.2637 28.9895C18.1411 28.8555 17.9917 28.7886 17.8161 28.7886C17.6286 28.7886 17.4731 28.8596 17.3506 29.0005C17.228 29.1413 17.1682 29.3336 17.1698 29.5755H18.4567Z"
          fill="white"/>
    <path d="M22.1375 31.5417V26.9083H25.4665V27.6918H23.0438V28.7195H25.2981V29.5001H23.0438V30.7611H25.5527V31.5417H22.1375Z"
          fill="white"/>
    <path d="M28.6441 31.5412V31.0389C28.5255 31.2179 28.37 31.3588 28.1769 31.4621C27.9839 31.5655 27.7802 31.6169 27.5659 31.6169C27.3472 31.6169 27.1514 31.5678 26.9779 31.4685C26.8045 31.3692 26.6786 31.2306 26.6014 31.0511C26.5236 30.8721 26.485 30.6244 26.485 30.3086V28.1844H27.3455V29.7272C27.3455 30.1989 27.3612 30.4881 27.3931 30.5949C27.4244 30.7012 27.482 30.7855 27.5659 30.8478C27.6499 30.9096 27.7562 30.9408 27.8843 30.9408C28.0315 30.9408 28.1635 30.8992 28.2799 30.8161C28.3963 30.7329 28.4757 30.629 28.5188 30.506C28.5613 30.3825 28.5831 30.0811 28.5831 29.6007V28.1844H29.4436V31.5412H28.6441Z"
          fill="white"/>
    <path d="M31.3468 31.5419H30.4863V28.1851H31.2859V28.6626C31.4224 28.4369 31.5455 28.2885 31.6546 28.2169C31.7637 28.1453 31.8879 28.1095 32.0266 28.1095C32.223 28.1095 32.4116 28.1655 32.5934 28.2769L32.3271 29.0512C32.1816 28.9548 32.0473 28.9063 31.9226 28.9063C31.8023 28.9063 31.6999 28.9403 31.6165 29.009C31.5326 29.0772 31.4666 29.2013 31.419 29.3803C31.3709 29.5593 31.3468 29.9345 31.3468 30.505V31.5419Z"
          fill="white"/>
    <path d="M32.9535 29.8162C32.9535 29.5211 33.024 29.2359 33.165 28.96C33.306 28.6834 33.5052 28.4727 33.7637 28.3277C34.0216 28.1822 34.3103 28.1095 34.6286 28.1095C35.121 28.1095 35.5244 28.2746 35.8389 28.6043C36.1527 28.934 36.3105 29.3502 36.3105 29.8543C36.3105 30.3618 36.1516 30.7827 35.8338 31.1164C35.5166 31.4507 35.1171 31.6175 34.6348 31.6175C34.3366 31.6175 34.0524 31.5483 33.7821 31.4091C33.5113 31.27 33.306 31.0662 33.165 30.7977C33.024 30.5286 32.9535 30.2019 32.9535 29.8162ZM33.8358 29.8635C33.8358 30.1967 33.9119 30.4513 34.0652 30.6285C34.2185 30.8052 34.4071 30.8941 34.632 30.8941C34.8564 30.8941 35.0449 30.8052 35.1971 30.6285C35.3487 30.4513 35.4254 30.1944 35.4254 29.8572C35.4254 29.5287 35.3487 29.2758 35.1971 29.0985C35.0449 28.9218 34.8564 28.8335 34.632 28.8335C34.4071 28.8335 34.2185 28.9218 34.0652 29.0985C33.9119 29.2758 33.8358 29.5304 33.8358 29.8635Z"
          fill="white"/>
    <path d="M39.1091 31.5417V26.9083H40.5638C41.1155 26.9083 41.4747 26.9314 41.642 26.9776C41.8994 27.0475 42.1148 27.1987 42.2882 27.4314C42.4617 27.6641 42.5484 27.9649 42.5484 28.3338C42.5484 28.6179 42.4986 28.8569 42.3985 29.0509C42.2983 29.2449 42.1713 29.3973 42.0174 29.5082C41.863 29.6185 41.7064 29.6918 41.5469 29.7276C41.3309 29.7715 41.017 29.794 40.6069 29.794H40.0155V31.5417H39.1091ZM40.0155 27.6918V29.007H40.5118C40.8693 29.007 41.1082 28.9828 41.2285 28.9343C41.3488 28.8858 41.4434 28.8096 41.5116 28.7068C41.5805 28.6035 41.6146 28.4834 41.6146 28.3465C41.6146 28.1779 41.5665 28.0388 41.4708 27.9291C41.3746 27.8194 41.2532 27.7507 41.106 27.7236C40.998 27.7028 40.7804 27.6918 40.4536 27.6918H40.0155Z"
          fill="white"/>
    <path d="M44.1183 29.2094L43.3377 29.0639C43.425 28.7394 43.5766 28.4992 43.7909 28.3433C44.0052 28.1874 44.3236 28.1095 44.7466 28.1095C45.1298 28.1095 45.4157 28.1563 45.6037 28.2504C45.7917 28.3439 45.9238 28.4628 46.0004 28.6072C46.0771 28.7515 46.1151 29.0165 46.1151 29.4022L46.1062 30.4386C46.1062 30.7342 46.1202 30.9513 46.1476 31.0916C46.175 31.2313 46.2265 31.382 46.3026 31.5419H45.451C45.4281 31.483 45.4006 31.3953 45.3676 31.2798C45.3536 31.2272 45.3436 31.192 45.3374 31.1753C45.1903 31.3225 45.033 31.4334 44.8658 31.5073C44.6985 31.5812 44.52 31.6175 44.3297 31.6175C43.9946 31.6175 43.7311 31.524 43.538 31.3364C43.345 31.1487 43.2488 30.912 43.2488 30.6251C43.2488 30.4357 43.2924 30.2665 43.3803 30.1181C43.4675 29.9698 43.5906 29.856 43.7495 29.7763C43.9073 29.6978 44.1356 29.6285 44.4338 29.5696C44.8361 29.4917 45.1147 29.419 45.2697 29.3514V29.2631C45.2697 29.0922 45.2294 28.9709 45.1472 28.8982C45.0655 28.8254 44.9116 28.7891 44.685 28.7891C44.5317 28.7891 44.412 28.8202 44.3264 28.8826C44.2408 28.9444 44.1714 29.0535 44.1183 29.2094ZM45.2697 29.9299C45.1595 29.968 44.9855 30.0131 44.7466 30.0662C44.5077 30.1187 44.351 30.1701 44.2777 30.2209C44.1653 30.3029 44.1093 30.4074 44.1093 30.5338C44.1093 30.658 44.1541 30.7654 44.2441 30.856C44.3337 30.9466 44.4478 30.9917 44.5871 30.9917C44.7421 30.9917 44.8898 30.9391 45.0308 30.8341C45.1349 30.7538 45.2037 30.6557 45.2367 30.5402C45.2585 30.464 45.2697 30.3196 45.2697 30.1072V29.9299Z"
          fill="white"/>
    <path d="M46.744 28.1849H47.6599L48.4382 30.5683L49.1974 28.1849H50.0887L48.9401 31.4153L48.7347 31.9996C48.6592 32.1959 48.587 32.3454 48.5193 32.4488C48.4505 32.5515 48.3722 32.6358 48.2832 32.6999C48.1943 32.764 48.0852 32.8142 47.9553 32.85C47.8255 32.8858 47.6795 32.9037 47.5156 32.9037C47.3505 32.9037 47.1883 32.8858 47.0294 32.85L46.9522 32.1549C47.087 32.182 47.2084 32.1959 47.317 32.1959C47.5167 32.1959 47.665 32.1353 47.7606 32.014C47.8569 31.8928 47.9302 31.7386 47.9816 31.551L46.744 28.1849Z"
          fill="white"/>
    <path d="M50.764 28.1851H51.5574V28.6436C51.8411 28.2873 52.179 28.1095 52.5712 28.1095C52.7794 28.1095 52.9601 28.1534 53.1134 28.2417C53.2661 28.3306 53.392 28.4646 53.4899 28.6436C53.6326 28.4646 53.787 28.3306 53.9527 28.2417C54.1177 28.1534 54.2945 28.1095 54.4825 28.1095C54.7214 28.1095 54.9234 28.1592 55.0884 28.259C55.2541 28.3595 55.3777 28.5061 55.4594 28.7001C55.5181 28.8439 55.5484 29.0754 55.5484 29.3959V31.5419H54.6873V29.6233C54.6873 29.2902 54.6582 29.0754 54.5989 28.9784C54.5189 28.852 54.3963 28.7891 54.2313 28.7891C54.1104 28.7891 53.9974 28.8266 53.8911 28.9028C53.7848 28.9784 53.7087 29.0899 53.6617 29.2359C53.6142 29.3826 53.5912 29.6135 53.5912 29.9299V31.5419H52.7301V29.7024C52.7301 29.3757 52.715 29.1649 52.6843 29.0702C52.654 28.9755 52.6065 28.9045 52.5421 28.8583C52.4778 28.8121 52.3905 28.7891 52.2803 28.7891C52.1471 28.7891 52.028 28.8254 51.9217 28.8993C51.8159 28.9732 51.7393 29.0795 51.6939 29.2186C51.6475 29.3578 51.6246 29.5887 51.6246 29.9109V31.5419H50.764V28.1851Z"
          fill="white"/>
    <path d="M58.4777 30.4733L59.3354 30.6217C59.2252 30.9462 59.0506 31.1933 58.8129 31.363C58.5751 31.5328 58.2774 31.6176 57.9204 31.6176C57.3542 31.6176 56.9363 31.4265 56.6644 31.0455C56.4501 30.74 56.3427 30.3544 56.3427 29.8884C56.3427 29.3324 56.4836 28.8965 56.7656 28.5813C57.0476 28.2666 57.4035 28.109 57.8343 28.109C58.3183 28.109 58.7004 28.2741 58.9802 28.6038C59.2593 28.9335 59.3936 29.4387 59.3813 30.1194H57.225C57.2311 30.3827 57.3005 30.5876 57.4331 30.7343C57.5663 30.8804 57.7313 30.9537 57.9294 30.9537C58.0642 30.9537 58.1778 30.9156 58.2696 30.8399C58.3613 30.7643 58.4307 30.6419 58.4777 30.4733ZM58.527 29.5755C58.5208 29.3186 58.4565 29.1229 58.3339 28.9895C58.2114 28.8555 58.062 28.7886 57.8863 28.7886C57.6989 28.7886 57.5433 28.8596 57.4208 29.0005C57.2983 29.1413 57.2379 29.3336 57.2401 29.5755H58.527Z"
          fill="white"/>
    <path d="M63.2292 31.5419H62.3687V29.8289C62.3687 29.4663 62.3502 29.2319 62.3133 29.1257C62.2764 29.0194 62.2171 28.9363 62.1343 28.8774C62.0515 28.8185 61.9519 28.7891 61.8355 28.7891C61.6867 28.7891 61.5529 28.8312 61.4343 28.9155C61.3157 28.9998 61.2346 29.1112 61.1909 29.2504C61.1473 29.3895 61.1249 29.6464 61.1249 30.0217V31.5419H60.2644V28.1851H61.0639V28.6782C61.3476 28.2989 61.7051 28.1095 62.136 28.1095C62.3256 28.1095 62.4991 28.1447 62.6563 28.2152C62.8135 28.2862 62.9321 28.3762 63.0132 28.4854C63.0938 28.5951 63.1503 28.7198 63.1817 28.8583C63.2136 28.9975 63.2292 29.1967 63.2292 29.4559V31.5419Z"
          fill="white"/>
    <path d="M65.7822 28.1852V28.8931H65.1942V30.2458C65.1942 30.5195 65.1998 30.6794 65.211 30.7244L65.2876 30.837C65.3273 30.8665 65.3755 30.8809 65.4331 30.8809C65.5125 30.8809 65.6278 30.8526 65.7789 30.796L65.8522 31.4848C65.6524 31.5732 65.4258 31.6176 65.1724 31.6176C65.0174 31.6176 64.8775 31.5905 64.7533 31.5374C64.6285 31.4831 64.5373 31.4138 64.4791 31.3284C64.421 31.2429 64.3801 31.1274 64.3577 30.9825C64.3393 30.8792 64.3303 30.6708 64.3303 30.3567V28.8931H63.9353V28.1852H64.3303V27.5184L65.1942 26.9999V28.1852H65.7822Z"
          fill="white"/>
    <path d="M66.2644 30.5841L67.1283 30.4484C67.1647 30.621 67.2391 30.7521 67.3515 30.8416C67.464 30.9311 67.6212 30.9761 67.8232 30.9761C68.0459 30.9761 68.2132 30.934 68.3256 30.8497C68.4012 30.7908 68.4392 30.7117 68.4392 30.6124C68.4392 30.5448 68.4185 30.4894 68.3777 30.4449C68.3351 30.4028 68.2383 30.3641 68.0901 30.3283C67.3952 30.1701 66.9554 30.0258 66.7696 29.8953C66.5123 29.714 66.3836 29.4623 66.3836 29.1395C66.3836 28.8491 66.4949 28.6043 66.7176 28.4063C66.9397 28.2082 67.2849 28.1095 67.7532 28.1095C68.1981 28.1095 68.5287 28.184 68.7453 28.3335C68.9612 28.4836 69.1106 28.7048 69.1923 28.9975L68.3805 29.1522C68.3458 29.0217 68.2803 28.9218 68.1829 28.852C68.0862 28.7827 67.948 28.7481 67.7678 28.7481C67.5412 28.7481 67.3795 28.7804 67.281 28.8456C67.2156 28.8918 67.1831 28.9519 67.1831 29.0258C67.1831 29.0893 67.2117 29.143 67.2693 29.1869C67.3465 29.2457 67.6145 29.3295 68.0727 29.4369C68.531 29.5442 68.851 29.6759 69.0334 29.8318C69.2124 29.99 69.3025 30.2099 69.3025 30.4923C69.3025 30.8 69.1783 31.0644 68.9293 31.2856C68.6798 31.5067 68.3111 31.6176 67.8232 31.6176C67.3801 31.6176 67.0298 31.5246 66.7713 31.3393C66.5128 31.1539 66.3439 30.9022 66.2644 30.5841Z"
          fill="white"/>
    <path d="M75.9974 31.5417H75.011L74.6194 30.4891H72.8245L72.4535 31.5417H71.4923L73.2408 26.9083H74.1998L75.9974 31.5417ZM74.3284 29.7085L73.7096 27.9891L73.1031 29.7085H74.3284Z"
          fill="white"/>
    <path d="M77.4843 31.5419H76.6238V28.1851H77.4233V28.6626C77.5598 28.4369 77.6829 28.2885 77.792 28.2169C77.9011 28.1453 78.0253 28.1095 78.1641 28.1095C78.3605 28.1095 78.549 28.1655 78.7309 28.2769L78.4645 29.0512C78.3191 28.9548 78.1848 28.9063 78.06 28.9063C77.9397 28.9063 77.8373 28.9403 77.754 29.009C77.6701 29.0772 77.604 29.2013 77.5559 29.3803C77.5084 29.5593 77.4843 29.9345 77.4843 30.505V31.5419Z"
          fill="white"/>
    <path d="M81.1734 30.4733L82.0311 30.6217C81.9209 30.9462 81.7469 31.1933 81.5091 31.363C81.2708 31.5328 80.9731 31.6176 80.6161 31.6176C80.0505 31.6176 79.632 31.4265 79.36 31.0455C79.1458 30.74 79.0383 30.3544 79.0383 29.8884C79.0383 29.3324 79.1793 28.8965 79.4613 28.5813C79.7427 28.2666 80.0997 28.109 80.53 28.109C81.0139 28.109 81.3961 28.2741 81.6758 28.6038C81.9556 28.9335 82.0893 29.4387 82.077 30.1194H79.9207C79.9268 30.3827 79.9962 30.5876 80.1288 30.7343C80.2614 30.8804 80.427 30.9537 80.6251 30.9537C80.7599 30.9537 80.8735 30.9156 80.9653 30.8399C81.057 30.7643 81.1264 30.6419 81.1734 30.4733ZM81.2226 29.5755C81.2165 29.3186 81.1521 29.1229 81.0296 28.9895C80.9071 28.8555 80.7577 28.7886 80.582 28.7886C80.3946 28.7886 80.239 28.8596 80.1165 29.0005C79.994 29.1413 79.9341 29.3336 79.9358 29.5755H81.2226Z"
          fill="white"/>
    <path d="M83.6094 29.2094L82.8289 29.0639C82.9162 28.7394 83.0678 28.4992 83.2821 28.3433C83.4964 28.1874 83.8148 28.1095 84.2377 28.1095C84.621 28.1095 84.9069 28.1563 85.0955 28.2504C85.2829 28.3439 85.4149 28.4628 85.4916 28.6072C85.5682 28.7515 85.6063 29.0165 85.6063 29.4022L85.5973 30.4386C85.5973 30.7342 85.6113 30.9513 85.6387 31.0916C85.6661 31.2313 85.7176 31.382 85.7937 31.5419H84.9422C84.9192 31.483 84.8918 31.3953 84.8593 31.2798C84.8448 31.2272 84.8347 31.192 84.8286 31.1753C84.6814 31.3225 84.5242 31.4334 84.3569 31.5073C84.1896 31.5812 84.0111 31.6175 83.8209 31.6175C83.4858 31.6175 83.2222 31.524 83.0292 31.3364C82.8362 31.1487 82.7394 30.912 82.7394 30.6251C82.7394 30.4357 82.7836 30.2665 82.8714 30.1181C82.9593 29.9698 83.0818 29.856 83.2407 29.7763C83.3985 29.6978 83.6268 29.6285 83.925 29.5696C84.3273 29.4917 84.6059 29.419 84.7609 29.3514V29.2631C84.7609 29.0922 84.7206 28.9709 84.6383 28.8982C84.5566 28.8254 84.4028 28.7891 84.1762 28.7891C84.0234 28.7891 83.9037 28.8202 83.8175 28.8826C83.7319 28.9444 83.6626 29.0535 83.6094 29.2094ZM84.7609 29.9299C84.6506 29.968 84.4766 30.0131 84.2377 30.0662C83.9988 30.1187 83.8422 30.1701 83.7689 30.2209C83.6564 30.3029 83.6005 30.4074 83.6005 30.5338C83.6005 30.658 83.6452 30.7654 83.7353 30.856C83.8248 30.9466 83.939 30.9917 84.0783 30.9917C84.2333 30.9917 84.3815 30.9391 84.522 30.8341C84.6266 30.7538 84.6949 30.6557 84.7279 30.5402C84.7497 30.464 84.7609 30.3196 84.7609 30.1072V29.9299Z"
          fill="white"/>
    <path d="M19.1071 8.69958H13.2228C13.2228 7.70305 13.1092 7.03447 12.8832 6.69382C12.5329 6.19036 11.5666 5.93806 9.98492 5.93806C8.44852 5.93806 7.43022 6.08297 6.93338 6.37339C6.43654 6.66495 6.18756 7.29832 6.18756 8.27349C6.18756 9.15627 6.40801 9.73826 6.84946 10.0165C7.16558 10.2146 7.58353 10.3306 8.10387 10.3653L9.29058 10.4519C11.8341 10.6257 13.4225 10.7486 14.0559 10.8185C16.0673 11.0275 17.5254 11.5795 18.4301 12.4738C19.1418 13.1718 19.5664 14.0841 19.7018 15.2099C19.7813 15.8837 19.8205 16.6464 19.8205 17.4934C19.8205 19.446 19.6397 20.8756 19.2789 21.7815C18.6237 23.4443 17.1516 24.4945 14.8616 24.9356C13.902 25.1221 12.4344 25.215 10.4599 25.215C7.16446 25.215 4.86825 25.013 3.57132 24.6059C1.98009 24.1077 0.930457 23.0978 0.422986 21.5777C0.139876 20.7312 0 19.3213 0 17.3479H5.88431C5.88431 17.5679 5.88487 17.7365 5.88487 17.8525C5.88487 18.9056 6.17805 19.5823 6.76385 19.8842C7.1695 20.0921 7.65906 20.2012 8.23479 20.2145H10.3984C11.5023 20.2145 12.2067 20.1562 12.5105 20.039C13.0516 19.8196 13.4069 19.4662 13.5764 18.9772C13.6665 18.6758 13.7112 18.2867 13.7112 17.8098C13.7112 16.7422 13.3336 16.0927 12.5793 15.8595C12.2968 15.7677 10.9853 15.6389 8.64323 15.4767C6.76218 15.3381 5.45573 15.2047 4.72446 15.0754C2.79808 14.7036 1.51402 13.9386 0.873387 12.7775C0.309966 11.7914 0.0285347 10.2989 0.0285347 8.30178C0.0285347 6.78158 0.18072 5.56219 0.485091 4.64534C0.789461 3.72791 1.28015 3.03161 1.95715 2.55529C2.94915 1.82377 4.21867 1.39479 5.76346 1.26662C7.0492 1.15057 8.47538 1.09167 10.0442 1.09167C12.5139 1.09167 14.2741 1.23832 15.3232 1.52874C17.884 2.23889 19.1642 4.22733 19.1642 7.4952C19.1642 7.7631 19.1451 8.16379 19.1071 8.69958Z"
          fill="white"/>
    <path d="M44.9834 25.2145V0.963013H54.2024H55.6492H56.7677C58.3841 0.963013 59.6173 1.09869 60.4649 1.37121C62.403 1.99765 63.7033 3.28112 64.3697 5.2199C64.7132 6.23779 64.8856 7.77011 64.8856 9.81629C64.8856 12.2764 64.6948 14.0437 64.3171 15.1205C63.5612 17.2487 62.0058 18.475 59.6564 18.7925C59.38 18.8405 58.2045 18.8826 56.1293 18.9172L55.0797 18.953H51.3086V25.2145H44.9834ZM51.3086 13.3272H55.2514C56.5019 13.281 57.2623 13.1817 57.5359 13.0264C57.9096 12.8145 58.1609 12.3896 58.2856 11.7528C58.3656 11.329 58.4054 10.6985 58.4054 9.86132C58.4054 8.83535 58.3259 8.07496 58.1665 7.57843C57.9393 6.88271 57.3943 6.4595 56.5316 6.30535C56.3604 6.28225 55.9519 6.26955 55.3046 6.26955H51.3086V13.3272Z"
          fill="white"/>
    <path d="M78.3869 21.0235H69.93L68.7936 25.2145H62.2496L69.3111 0.963013H78.8524L86.0001 25.2145H79.5937L78.3869 21.0235ZM77.1308 16.2989L74.1671 5.7863L71.2912 16.2989H77.1308Z"
          fill="white"/>
    <path d="M36.2536 4.37487C38.862 4.37487 41.1907 5.61504 42.7209 7.55729L44.0845 4.54057C41.9522 2.46091 39.05 1.17859 35.8491 1.17859C30.865 1.17859 26.6016 4.2848 24.852 8.68199H22.1933L20.6233 12.1548H24.0435C24.0178 12.477 24.001 12.7992 24.001 13.1283C24.001 13.5261 24.0212 13.9198 24.0592 14.3084H22.3404L20.771 17.7824H24.9337C26.7331 22.0681 30.9434 25.0768 35.8491 25.0768C38.3216 25.0768 40.6155 24.3123 42.515 23.0063V18.7489C40.9854 20.5462 38.7479 21.6819 36.2536 21.6819C33.338 21.6819 30.7733 20.1305 29.28 17.7824H37.9959L39.5659 14.3084H27.9976C27.9377 13.8904 27.9058 13.4631 27.9058 13.0278C27.9058 12.7333 27.9204 12.4423 27.9483 12.1548H40.5389L42.1083 8.68199H29.0366C30.4823 6.10753 33.1724 4.37487 36.2536 4.37487Z"
          fill="#FFBE00"/>
    <path d="M36.2533 4.47884C38.7391 4.47884 41.0678 5.62548 42.6423 7.62315L42.7441 7.75248L42.8129 7.60179L44.1759 4.58507L44.2061 4.51636L44.154 4.4644C41.9127 2.27851 38.963 1.07471 35.8487 1.07471C33.4166 1.07471 31.0767 1.80796 29.081 3.19536C27.1322 4.54985 25.6372 6.43378 24.7588 8.64219L24.8517 8.57753H22.1929H22.128L22.1012 8.63758L20.5317 12.111L20.4646 12.2594H20.6229H24.0432L23.9425 12.1462C23.9139 12.5071 23.9 12.8275 23.9 13.1283C23.9 13.518 23.9195 13.9193 23.9581 14.3188L24.0589 14.2045H22.3401H22.2763L22.2494 14.2645L20.6789 17.738L20.6123 17.8863H20.7706H24.9334L24.8405 17.8234C26.7171 22.2928 31.0381 25.1807 35.8487 25.1807C38.2602 25.1807 40.5838 24.4596 42.5706 23.0936L42.6148 23.063V23.0064V18.7489V18.4724L42.4386 18.6802C40.8714 20.5214 38.6172 21.5768 36.2533 21.5768C33.4725 21.5768 30.8971 20.1363 29.3635 17.7247L29.2796 17.8863H37.9956H38.0605L38.0873 17.8269L39.6573 14.3523L39.7244 14.2045H39.5655H27.9972L28.0974 14.2934C28.0375 13.8725 28.0067 13.4476 28.0067 13.0278C28.0067 12.742 28.0207 12.4522 28.0487 12.1653L27.948 12.2594H40.5385H40.6034L40.6303 12.1993L42.1997 8.72591L42.2674 8.57753H42.1079H29.0362L29.1235 8.73399C30.5972 6.10931 33.3299 4.47884 36.2533 4.47884ZM29.0362 8.78596H42.1079L42.0162 8.63758L40.4473 12.111L40.5385 12.0509H27.948H27.8568L27.8467 12.1451C27.8187 12.4384 27.8047 12.7357 27.8047 13.0278C27.8047 13.4574 27.8361 13.8939 27.8971 14.324L27.9105 14.4129H27.9972H39.5655L39.4743 14.2645L37.9049 17.738L37.9956 17.6779H29.2796H29.0922L29.1951 17.8384C30.7656 20.3107 33.4048 21.7847 36.2533 21.7847C38.6748 21.7847 40.985 20.7039 42.5908 18.8176L42.4134 18.7489V23.0064L42.4582 22.9204C40.5049 24.2627 38.2199 24.9723 35.8487 24.9723C31.1181 24.9723 26.8704 22.1334 25.0262 17.7403L24.9994 17.6779H24.9334H20.7706L20.863 17.8269L22.4318 14.3523L22.3401 14.4129H24.0589H24.1702L24.1596 14.298C24.1215 13.9054 24.1014 13.5111 24.1014 13.1283C24.1014 12.8338 24.1154 12.518 24.1439 12.1635L24.1529 12.0509H24.0432H20.6229L20.7141 12.1993L22.2841 8.72591L22.1929 8.78596H24.8517H24.9194L24.9446 8.72129C25.809 6.55099 27.2782 4.69996 29.194 3.36799C31.1556 2.00484 33.4574 1.28371 35.8487 1.28371C38.9115 1.28371 41.8108 2.46673 44.0147 4.61625L43.9923 4.49616L42.6299 7.51345L42.7995 7.49151C41.1853 5.44476 38.8001 4.27041 36.2533 4.27041C33.2571 4.27041 30.459 5.94072 28.9484 8.62949L28.8605 8.78596H29.0362Z"
          fill="#FFBE00"/>
</svg>
