<svg width="59" height="18" viewBox="0 0 59 18" fill="none" xmlns="http://www.w3.org/2000/svg">
<path d="M13.4586 6.07273H9.53395C9.53395 5.40808 9.45819 4.96216 9.30744 4.73496C9.07383 4.39917 8.42937 4.23089 7.37442 4.23089C6.3497 4.23089 5.67053 4.32755 5.33915 4.52124C5.00778 4.71571 4.84172 5.13814 4.84172 5.78854C4.84172 6.37733 4.98875 6.76549 5.28318 6.95109C5.49402 7.08318 5.77278 7.16058 6.11982 7.18368L6.91132 7.24144C8.60774 7.35735 9.66717 7.43937 10.0896 7.48597C11.4311 7.62537 12.4036 7.9935 13.007 8.58999C13.4817 9.05555 13.7649 9.66398 13.8552 10.4149C13.9082 10.8643 13.9344 11.373 13.9344 11.9379C13.9344 13.2402 13.8138 14.1937 13.5731 14.7979C13.1361 15.9069 12.1543 16.6073 10.627 16.9015C9.98698 17.0259 9.00815 17.0879 7.69124 17.0879C5.49327 17.0879 3.96179 16.9531 3.09678 16.6817C2.03549 16.3493 1.33542 15.6758 0.99696 14.6619C0.808136 14.0974 0.714844 13.157 0.714844 11.8408H4.63946C4.63946 11.9875 4.63984 12.1 4.63984 12.1774C4.63984 12.8798 4.83538 13.3311 5.22608 13.5325C5.49663 13.6711 5.82315 13.7439 6.20715 13.7528H7.65019C8.38645 13.7528 8.85627 13.7139 9.0589 13.6357C9.41976 13.4894 9.65672 13.2537 9.76979 12.9275C9.82987 12.7265 9.85972 12.467 9.85972 12.1489C9.85972 11.4369 9.60784 11.0037 9.1048 10.8481C8.91635 10.7869 8.04165 10.701 6.47956 10.5928C5.22497 10.5004 4.35362 10.4114 3.86588 10.3252C2.58106 10.0772 1.72464 9.56694 1.29736 8.79254C0.921579 8.13483 0.733875 7.1394 0.733875 5.80741C0.733875 4.79349 0.835377 3.98021 1.03838 3.3687C1.24139 2.75681 1.56865 2.2924 2.02019 1.97471C2.68182 1.48682 3.52854 1.2007 4.55886 1.11521C5.4164 1.03781 6.36761 0.998535 7.41398 0.998535C9.06114 0.998535 10.2351 1.09635 10.9348 1.29004C12.6428 1.76369 13.4966 3.0899 13.4966 5.26945C13.4966 5.44813 13.4839 5.71537 13.4586 6.07273Z" fill="white"/>
<path d="M30.7173 17.0875V0.912598H36.866H37.831H38.577C39.6551 0.912598 40.4775 1.00309 41.0429 1.18485C42.3355 1.60266 43.2028 2.45869 43.6472 3.75179C43.8763 4.43068 43.9913 5.45268 43.9913 6.8174C43.9913 8.45823 43.864 9.63696 43.6121 10.3551C43.108 11.7745 42.0706 12.5924 40.5036 12.8042C40.3193 12.8362 39.5353 12.8643 38.1512 12.8874L37.4511 12.9113H34.936V17.0875H30.7173ZM34.936 9.15907H37.5657C38.3997 9.12827 38.9069 9.06203 39.0893 8.95845C39.3386 8.81712 39.5062 8.5337 39.5894 8.10896C39.6427 7.82631 39.6692 7.40581 39.6692 6.84744C39.6692 6.16315 39.6162 5.656 39.5099 5.32484C39.3584 4.86082 38.9949 4.57855 38.4195 4.47574C38.3053 4.46033 38.0329 4.45186 37.6011 4.45186H34.936V9.15907Z" fill="white"/>
<path d="M52.9959 14.2922H47.3554L46.5975 17.0875H42.2329L46.9427 0.912598H53.3063L58.0736 17.0875H53.8008L52.9959 14.2922ZM52.1581 11.1411L50.1814 4.12955L48.2633 11.1411H52.1581Z" fill="white"/>
<path d="M24.8946 3.18844C26.6343 3.18844 28.1874 4.01559 29.208 5.311L30.1175 3.29896C28.6953 1.9119 26.7597 1.05664 24.6248 1.05664C21.3006 1.05664 18.457 3.12837 17.2901 6.06113H15.5168L14.4697 8.37738H16.7509C16.7337 8.59226 16.7225 8.80713 16.7225 9.02663C16.7225 9.29195 16.736 9.55457 16.7614 9.81373H15.615L14.5682 12.1308H17.3446C18.5447 14.9892 21.3528 16.9958 24.6248 16.9958C26.2738 16.9958 27.8038 16.486 29.0707 15.6149V12.7754C28.0505 13.9741 26.5582 14.7316 24.8946 14.7316C22.95 14.7316 21.2394 13.6969 20.2434 12.1308H26.0566L27.1037 9.81373H19.3881C19.3482 9.53493 19.3269 9.24997 19.3269 8.95962C19.3269 8.76323 19.3366 8.56915 19.3553 8.37738H27.7527L28.7994 6.06113H20.0811C21.0453 4.34406 22.8395 3.18844 24.8946 3.18844Z" fill="#FFBE00"/>
<path d="M24.8942 3.25773C26.5522 3.25773 28.1053 4.0225 29.1554 5.35487L29.2234 5.44113L29.2693 5.34063L30.1783 3.32859L30.1985 3.28276L30.1638 3.24811C28.6688 1.79019 26.7015 0.987305 24.6244 0.987305C23.0023 0.987305 21.4417 1.47636 20.1106 2.4017C18.8108 3.3051 17.8137 4.56161 17.2278 6.03454L17.2898 5.99141H15.5165H15.4732L15.4553 6.03146L14.4085 8.3481L14.3638 8.44706H14.4694H16.7506L16.6834 8.37159C16.6644 8.61226 16.655 8.82598 16.655 9.0266C16.655 9.28653 16.6681 9.55416 16.6938 9.82064L16.761 9.74439H15.6146H15.5721L15.5542 9.78444L14.5067 12.1011L14.4623 12.2H14.5679H17.3443L17.2823 12.1581C18.5339 15.139 21.4159 17.0651 24.6244 17.0651C26.2328 17.0651 27.7826 16.5842 29.1077 15.6731L29.1372 15.6527V15.6149V12.7754V12.5909L29.0196 12.7295C27.9744 13.9575 26.4709 14.6615 24.8942 14.6615C23.0396 14.6615 21.3219 13.7007 20.299 12.0922L20.2431 12.2H26.0563H26.0996L26.1175 12.1604L27.1646 9.84297L27.2094 9.74439H27.1034H19.3877L19.4545 9.8037C19.4146 9.52297 19.3941 9.23955 19.3941 8.9596C19.3941 8.76899 19.4034 8.57568 19.4221 8.38429L19.3549 8.44706H27.7523H27.7956L27.8135 8.40701L28.8603 6.09038L28.9054 5.99141H28.7991H20.0807L20.1389 6.09577C21.1219 4.3452 22.9444 3.25773 24.8942 3.25773ZM20.0807 6.13042H28.7991L28.7379 6.03146L27.6915 8.3481L27.7523 8.30805H19.3549H19.2941L19.2874 8.37081C19.2687 8.56644 19.2594 8.76475 19.2594 8.9596C19.2594 9.2461 19.2803 9.53722 19.3209 9.8241L19.3299 9.88341H19.3877H27.1034L27.0426 9.78444L25.9958 12.1011L26.0563 12.061H20.2431H20.118L20.1867 12.1681C21.2342 13.817 22.9944 14.8001 24.8942 14.8001C26.5093 14.8001 28.0501 14.0792 29.1211 12.8212L29.0028 12.7754V15.6149L29.0327 15.5576C27.7299 16.4529 26.2059 16.9261 24.6244 16.9261C21.4693 16.9261 18.6362 15.0327 17.4062 12.1026L17.3883 12.061H17.3443H14.5679L14.6295 12.1604L15.6758 9.84297L15.6146 9.88341H16.761H16.8353L16.8282 9.80678C16.8028 9.54492 16.7894 9.28191 16.7894 9.0266C16.7894 8.83021 16.7987 8.61958 16.8177 8.38314L16.8237 8.30805H16.7506H14.4694L14.5302 8.40701L15.5773 6.09038L15.5165 6.13042H17.2898H17.3349L17.3517 6.0873C17.9283 4.63978 18.9082 3.40522 20.186 2.51684C21.4943 1.60767 23.0295 1.1267 24.6244 1.1267C26.6672 1.1267 28.6009 1.91573 30.0708 3.34938L30.0559 3.26928L29.1472 5.28171L29.2603 5.26708C28.1837 3.90197 26.5929 3.11872 24.8942 3.11872C22.8959 3.11872 21.0297 4.23275 20.0221 6.02607L19.9635 6.13042H20.0807Z" fill="#FFBE00"/>
</svg>
