<svg width="48" height="47" viewBox="0 0 48 47" fill="none" xmlns="http://www.w3.org/2000/svg">
    <path fill-rule="evenodd" clip-rule="evenodd"
          d="M2.05374 23.5001C2.05374 25.903 2.43508 28.2168 3.14054 30.3844H45.4185C46.124 28.2168 46.5053 25.903 46.5053 23.5001C46.5053 21.1103 46.1281 18.8086 45.43 16.6513H3.129C2.43092 18.8086 2.05374 21.1103 2.05374 23.5001ZM11.8779 31.6586H3.59896C4.54833 34.0631 5.90491 36.2623 7.5837 38.1712H14.4468C13.3246 36.3098 12.3891 34.1405 11.8779 31.6586ZM15.2747 39.4454H8.79642C12.126 42.6791 16.4651 44.8791 21.2956 45.5272C20.4314 44.9006 19.367 44.0465 18.2612 42.9614C17.2633 41.9822 16.2278 40.811 15.2747 39.4454ZM23.59 45.5217C23.5957 45.5251 23.6013 45.5284 23.6069 45.5317V39.4454H16.8507C17.5984 40.4295 18.3853 41.298 19.1536 42.0519C20.41 43.2848 21.6104 44.2045 22.4948 44.8149C22.9367 45.1199 23.2988 45.347 23.5484 45.4968C23.5627 45.5054 23.5765 45.5136 23.59 45.5217ZM15.9512 38.1712H23.6069V31.6586H13.1808C13.7343 34.1678 14.752 36.337 15.9512 38.1712ZM24.8811 38.1712V31.6586H35.4534C34.8912 34.1704 33.869 36.339 32.6671 38.1712H24.8811ZM44.9601 31.6586H36.7571C36.2377 34.1426 35.2978 36.3113 34.1729 38.1712H40.9752C42.6541 36.2623 44.0107 34.0631 44.9601 31.6586ZM39.7625 39.4454H33.3424C32.3734 40.8296 31.3203 42.0131 30.3071 42.9994C29.2137 44.0638 28.1625 44.903 27.3051 45.5216C32.1188 44.8663 36.4425 42.6698 39.7625 39.4454ZM24.8811 39.4454V45.5864C24.9247 45.5612 24.9742 45.5322 25.0293 45.4995C25.2781 45.3515 25.6392 45.127 26.0801 44.8253C26.9626 44.2213 28.1612 43.3101 29.4183 42.0863C30.2004 41.325 31.0025 40.4452 31.7646 39.4454H24.8811ZM36.5567 15.3771H44.9741C44.0299 12.9736 42.6792 10.7745 41.0065 8.86443H34.0151C35.1254 10.7295 36.0507 12.8993 36.5567 15.3771ZM33.1979 7.59022H39.7991C36.4568 4.32935 32.0908 2.11286 27.2288 1.46819C28.0802 2.09689 29.1228 2.94768 30.2058 4.02312C31.2057 5.01615 32.2438 6.20463 33.1979 7.59022ZM24.9442 1.45899C24.9223 1.44562 24.9012 1.43286 24.8811 1.42072V7.59022H31.6295C30.8764 6.584 30.0826 5.69657 29.3079 4.92724C28.0599 3.6879 26.8681 2.76172 25.9901 2.14659C25.5514 1.83923 25.1919 1.61014 24.9442 1.45899ZM32.5162 8.86443H24.8811V15.3771H35.2544C34.7069 12.8727 33.7017 10.7029 32.5162 8.86443ZM23.6069 8.86443V15.3771H13.0154C13.5754 12.87 14.6025 10.7008 15.8142 8.86443H23.6069ZM3.58495 15.3771H11.7119C12.2289 12.8967 13.1728 10.7275 14.3059 8.86443H7.55243C5.87981 10.7745 4.52909 12.9736 3.58495 15.3771ZM8.7598 7.59022H15.1409C16.1283 6.18762 17.204 4.98831 18.2386 3.9896C19.3309 2.93523 20.3822 2.09977 21.2447 1.47967C16.4169 2.13885 12.0825 4.34844 8.7598 7.59022ZM23.6069 7.59022V1.4515C23.5974 1.45711 23.5877 1.46283 23.5778 1.46867C23.325 1.61814 22.9583 1.84475 22.5106 2.14906C21.6147 2.75811 20.3983 3.67592 19.1235 4.9064C18.3222 5.67985 17.5006 6.57408 16.7218 7.59022H23.6069ZM24.2794 47C11.301 47 0.779541 36.4785 0.779541 23.5001C0.779541 10.5215 11.3009 0 24.2794 0C37.2578 0 47.7795 10.5215 47.7795 23.5001C47.7795 36.4785 37.2578 47 24.2794 47ZM5.43402 20.9456C5.42448 19.0644 6.81384 17.8863 8.41407 17.852C8.80208 17.8439 9.26844 18.0327 9.65659 18.1899C9.79373 18.2454 9.9211 18.297 10.0318 18.3345C10.346 18.4409 10.4694 18.4428 10.5878 18.4446C10.6192 18.4451 10.6503 18.4456 10.6846 18.448C11.0464 18.4735 11.5057 18.4546 11.5928 18.0791H11.9901L11.0535 21.2578H10.6846C10.5303 20.0066 10.0387 18.8024 8.89655 18.817C8.28683 18.825 7.67365 19.0656 7.47748 19.9239C7.24036 20.9611 7.7606 21.5804 9.09522 22.8756C9.96281 23.7179 10.6195 24.4449 10.6278 25.5151C10.644 27.5774 8.97607 28.6875 7.27881 28.6938C6.56177 28.6965 6.14449 28.5359 5.80383 28.4047C5.55514 28.309 5.34728 28.229 5.09344 28.2397C5.05597 28.2413 5.01209 28.2422 4.96363 28.2432C4.59909 28.2509 3.97553 28.264 3.87304 28.6087H3.4757L4.52581 24.8055H4.92315C4.5414 26.4041 5.50412 27.7263 6.88147 27.7288C7.81113 27.731 8.67633 26.9164 8.69788 26.3949C8.73978 25.3769 8.56092 25.2128 7.99082 24.6895C7.76289 24.4803 7.47242 24.2137 7.10852 23.8122C7.06278 23.7617 7.01697 23.7113 6.97126 23.6611C6.1922 22.8049 5.43923 21.9774 5.43402 20.9456ZM12.3023 18.9021L12.4159 18.2777H15.9068L15.7365 18.9021C15.1278 18.9034 15.1348 19.2277 15.1397 19.4555C15.14 19.4701 15.1403 19.4844 15.1405 19.4982C15.1415 19.6175 15.1411 19.774 15.1407 19.9069C15.1406 19.9543 15.1405 19.9988 15.1405 20.0374V24.2095L15.2256 24.1527L17.5245 20.4347V19.5549C17.5321 19.0729 17.2967 18.9168 16.7582 18.9021L16.8717 18.2777H20.4478L20.3343 18.9021C19.8184 18.9035 19.6357 18.9182 19.6531 19.5833C19.6566 19.716 19.6556 19.8897 19.6531 20.0658V23.9824L19.7099 24.0676L22.3494 19.7536C22.4687 19.5329 22.5007 19.3911 22.4913 19.2143C22.473 18.8715 22.1602 18.8808 21.6661 18.8954C21.5529 18.8988 21.4301 18.9024 21.2992 18.9021L21.4128 18.2777H24.6199L24.478 18.9021C23.874 18.9168 23.6936 19.2137 23.4562 19.6401L23.4403 19.6664C23.1252 20.1864 18.2417 28.2455 18.007 28.6087C17.7645 28.9836 17.5245 28.6087 17.5245 28.6087L17.5529 22.1944V21.9957C17.5529 21.9957 13.7832 28.2334 13.5511 28.6087C13.3191 28.9836 13.1538 28.6087 13.1538 28.6087V20.0658C13.1556 18.9056 12.935 18.9047 12.3258 18.9022L12.3023 18.9021ZM24.9888 18.9021L25.1024 18.2777H29.2744L29.1325 18.9021C28.3821 18.9174 27.8894 18.9835 27.6851 19.6684L25.6984 26.9909C25.6798 27.055 25.6587 27.1144 25.6385 27.1712C25.5975 27.2868 25.5604 27.3912 25.5565 27.5018C25.556 27.5146 25.5555 27.5272 25.5549 27.5397C25.5444 27.7846 25.5364 27.9701 26.2376 27.9843L26.0957 28.6087H21.9236L22.0372 27.9843C22.8146 27.9903 23.3974 27.7308 23.513 27.2463L25.4713 19.9523C25.4915 19.8753 25.5129 19.8032 25.5328 19.736C25.5825 19.5677 25.6231 19.4306 25.6132 19.3279C25.5811 18.9977 25.2819 18.8869 24.9888 18.9021ZM29.7001 18.9021L29.8421 18.2777H37.0226L36.2846 21.0308H35.8873C35.9877 19.3404 35.2737 19.1432 34.0709 19.1576C34.034 19.158 33.9989 19.1583 33.9654 19.1586C33.3705 19.1632 33.2778 19.1639 33.0208 20.0374L32.3964 22.535H32.7937C33.1009 22.5457 33.9738 22.531 34.3831 21.4849L34.7804 21.5416L34.0425 24.5785H33.56C33.5484 24.4819 33.546 24.3625 33.5432 24.2232C33.541 24.1164 33.5386 23.998 33.5316 23.8689C33.5062 23.4058 33.2619 23.298 32.3964 23.3013H32.1977L31.2895 26.4233C31.25 26.6155 31.1912 26.8351 31.1479 26.9966C31.1372 27.0365 31.1275 27.0729 31.1192 27.1044C30.9229 27.8521 31.3145 27.9818 32.2829 27.9843L32.1126 28.6087H27.6851L27.8554 27.9843C28.4103 27.9693 28.871 27.7631 29.019 27.1044L30.9206 20.009C30.953 19.8749 30.9533 19.8316 30.9535 19.7975C30.9537 19.7668 30.9539 19.7436 30.9773 19.6684C31.1857 19.0012 30.4575 18.9529 29.8557 18.9129C29.8027 18.9094 29.7505 18.906 29.7001 18.9021ZM36.8239 21.0308L37.5902 18.2777H44.6572L43.9193 21.0308H43.4935C43.5837 19.7469 43.289 19.1567 41.819 19.1576L39.8891 26.5084C39.8443 26.6978 39.7951 26.871 39.7536 27.0172C39.729 27.1038 39.7071 27.181 39.6904 27.2463C39.5737 27.7026 39.9426 28.0966 40.5419 28.041L40.4283 28.6087H35.7454L35.8873 27.9843L35.9218 27.9837C36.8093 27.9689 37.5052 27.9574 37.6469 26.7355L39.7188 19.1576C38.9252 19.1576 38.4248 19.3182 37.9591 19.7252C37.5437 20.0983 37.5039 20.2381 37.3296 20.8502C37.3137 20.9063 37.2966 20.9663 37.278 21.0308H36.8239ZM19.2842 28.1262C19.3472 27.7512 19.6058 27.4442 19.8518 27.445C20.0975 27.4461 20.2555 27.7515 20.1924 28.1262C20.1292 28.5012 19.8704 28.8084 19.6247 28.8073C19.3788 28.8065 19.221 28.5011 19.2842 28.1262ZM26.5498 28.1262C26.6128 27.7512 26.8716 27.4442 27.1174 27.445C27.3633 27.4461 27.5213 27.7515 27.458 28.1262C27.3949 28.5012 27.1362 28.8084 26.8904 28.8073C26.6446 28.8065 26.4865 28.5011 26.5498 28.1262ZM32.7937 28.1262C32.8568 27.7512 33.1155 27.4442 33.3614 27.445C33.6072 27.4461 33.7369 27.7515 33.6736 28.1262C33.6105 28.5012 33.3517 28.8084 33.1059 28.8073C32.8601 28.8065 32.7304 28.5011 32.7937 28.1262ZM10.4575 28.1545C10.5206 27.7796 10.7511 27.4723 10.9968 27.4734C11.2426 27.4745 11.4006 27.7796 11.3374 28.1545C11.2743 28.5295 11.0156 28.8368 10.7697 28.8357C10.5241 28.8346 10.3944 28.5295 10.4575 28.1545ZM41.1379 28.1545C41.2009 27.7796 41.4597 27.4726 41.7055 27.4734C41.9513 27.4745 42.1094 27.7799 42.0461 28.1545C41.983 28.5295 41.7242 28.8368 41.4784 28.8357C41.2326 28.8349 41.0745 28.5295 41.1379 28.1545Z"
          fill="white"/>
</svg>
