<svg width="71" height="47" viewBox="0 0 71 47" fill="none" xmlns="http://www.w3.org/2000/svg">
    <path fill-rule="evenodd" clip-rule="evenodd"
          d="M30.358 2.6123H48.7659H49.5258H65.434C67.764 2.6123 69.2111 4.50881 68.6639 6.84318L60.9049 40.1606C60.3572 42.4869 58.0261 44.3849 55.6965 44.3849H39.7912H39.0362H22.1554C22.1074 44.3866 22.0594 44.3873 22.0113 44.3873H5.3449C3.02148 44.3873 1.57106 42.4893 2.11387 40.163L9.87725 6.84559C10.4201 4.51122 12.7484 2.61471 15.0779 2.61471H30.2139C30.2619 2.61307 30.31 2.6123 30.358 2.6123Z"
          fill="#007B84"/>
    <path d="M61.8783 40.3898L61.8789 40.3874L69.6375 7.07142C69.6376 7.07095 69.6377 7.07046 69.6378 7.06999C69.9705 5.64918 69.7103 4.2774 68.9228 3.24561C68.1321 2.2097 66.8818 1.6123 65.434 1.6123H49.5258H48.7659H30.358C30.3052 1.6123 30.2518 1.61306 30.1978 1.61471H15.0779C12.2633 1.61471 9.54702 3.85153 8.90334 6.61866C8.90331 6.6188 8.90327 6.61895 8.90324 6.6191L1.14003 39.9358C0.808973 41.3546 1.07245 42.7248 1.86017 43.755C2.65068 44.7888 3.89925 45.3873 5.3449 45.3873H22.0113C22.0642 45.3873 22.1176 45.3866 22.1716 45.3849H39.0362H39.7912H55.6965C58.5108 45.3849 61.2291 43.1473 61.8783 40.3898Z"
          stroke="white" stroke-opacity="0.21" stroke-width="2"/>
    <path d="M15.0779 2.61499H31.746C34.0727 2.61499 35.5198 4.51146 34.977 6.84588L27.2169 40.1633C26.6692 42.4896 24.3397 44.3877 22.0113 44.3877H5.34492C3.02147 44.3877 1.57108 42.4896 2.11386 40.1633L9.87727 6.84588C10.42 4.51146 12.7484 2.61499 15.0779 2.61499Z"
          fill="#E21836"/>
    <path d="M30.358 2.6123H49.5258C51.8521 2.6123 50.8031 4.50877 50.2559 6.8432L42.497 40.1606C41.9526 42.4869 42.1224 44.385 39.7912 44.385H20.6234C18.2922 44.385 16.8495 42.4869 17.3972 40.1606L25.1557 6.8432C25.7066 4.50877 28.0301 2.6123 30.358 2.6123Z"
          fill="#00447C"/>
    <path d="M48.766 2.6123H65.4341C67.764 2.6123 69.2112 4.50877 68.6639 6.8432L60.905 40.1606C60.3573 42.4869 58.0262 44.385 55.6966 44.385H39.0363C36.7051 44.385 35.2592 42.4869 35.8052 40.1606L43.5654 6.8432C44.1082 4.50877 46.4349 2.6123 48.766 2.6123Z"
          fill="#007B84"/>
    <path d="M19.4301 13.2894C17.716 13.3069 17.2098 13.2894 17.0481 13.2512C16.986 13.5466 15.8293 18.8821 15.8261 18.8866C15.577 19.9661 15.3958 20.7355 14.7803 21.2324C14.4309 21.5213 14.023 21.6606 13.5501 21.6606C12.79 21.6606 12.3472 21.2832 12.2728 20.5673L12.2586 20.3215C12.2586 20.3215 12.4902 18.8756 12.4902 18.8675C12.4902 18.8675 13.7041 14.0053 13.9215 13.3625C13.9329 13.326 13.9361 13.3069 13.9389 13.2894C11.5761 13.3101 11.1572 13.2894 11.1284 13.2512C11.1125 13.3036 11.054 13.6051 11.054 13.6051L9.8145 19.0853L9.70805 19.55L9.50208 21.0703C9.50208 21.5213 9.59064 21.8893 9.76696 22.2005C10.3317 23.1874 11.9425 23.3352 12.8538 23.3352C14.0279 23.3352 15.1293 23.0858 15.8736 22.6304C17.1655 21.867 17.5036 20.6738 17.805 19.6134L17.9448 19.0694C17.9448 19.0694 19.1953 14.0195 19.4077 13.3625C19.4159 13.326 19.4191 13.3069 19.4301 13.2894ZM23.6848 17.3632C23.3834 17.3632 22.8325 17.4364 22.3376 17.6789C22.1581 17.7711 21.9882 17.8776 21.8091 17.9836L21.9708 17.3998L21.8822 17.3015C20.8328 17.514 20.598 17.5424 19.6286 17.6789L19.5474 17.733C19.4348 18.6662 19.3349 19.3678 18.9177 21.2021C18.7588 21.8781 18.5939 22.5607 18.4285 23.2351L18.4732 23.3208C19.4665 23.2684 19.768 23.2684 20.6313 23.2826L20.7012 23.2066C20.8109 22.6448 20.8251 22.5131 21.068 21.3752C21.1822 20.8356 21.4203 19.6501 21.5377 19.228C21.7534 19.1281 21.9663 19.0298 22.1694 19.0298C22.6533 19.0298 22.5944 19.4519 22.5757 19.6201C22.555 19.9024 22.3787 20.8247 22.1979 21.6165L22.0772 22.1276C21.9931 22.505 21.9009 22.8719 21.8168 23.246L21.8534 23.3208C22.8325 23.2684 23.1311 23.2684 23.9672 23.2826L24.0655 23.2066C24.2166 22.3291 24.2609 22.0943 24.5291 20.8165L24.6639 20.2295C24.926 19.0806 25.0576 18.498 24.8594 18.0234C24.6497 17.4916 24.1468 17.3632 23.6848 17.3632ZM28.4379 18.5662C27.9174 18.6661 27.5855 18.7327 27.2556 18.7758C26.9286 18.8282 26.6097 18.8757 26.1067 18.9456L26.0669 18.9818L26.0303 19.0106C25.9779 19.3852 25.9413 19.709 25.8719 20.0897C25.813 20.4834 25.7224 20.9307 25.5749 21.5734C25.4607 22.0654 25.4018 22.2368 25.3368 22.4099C25.2734 22.583 25.2036 22.7512 25.0752 23.235L25.1052 23.2797L25.1304 23.3207C25.6005 23.2984 25.908 23.2826 26.2241 23.2797C26.5398 23.2683 26.8668 23.2797 27.373 23.2826L27.4173 23.2464L27.4648 23.2066C27.538 22.7703 27.5489 22.6528 27.5936 22.44C27.6379 22.2116 27.7143 21.8956 27.9016 21.0513C27.9902 20.6548 28.0889 20.2595 28.1807 19.8549C28.2762 19.4518 28.3761 19.0549 28.4712 18.6584L28.457 18.6105L28.4379 18.5662ZM28.449 16.9443C27.9761 16.6652 27.146 16.7537 26.5874 17.1393C26.0304 17.5171 25.9671 18.0534 26.4383 18.3361C26.9031 18.6075 27.7364 18.5267 28.2901 18.1379C28.8459 17.7519 28.9154 17.2205 28.449 16.9443ZM31.3089 23.4082C32.2657 23.4082 33.2464 23.1445 33.9846 22.3621C34.5525 21.7275 34.813 20.7833 34.9032 20.3945C35.1969 19.1058 34.9682 18.5041 34.6809 18.1377C34.2446 17.5791 33.4735 17.3999 32.6736 17.3999C32.1925 17.3999 31.0468 17.4474 30.1518 18.2726C29.5091 18.8677 29.2121 19.6754 29.033 20.4498C28.8522 21.2387 28.6442 22.6591 29.9503 23.1876C30.3533 23.3607 30.9343 23.4082 31.3089 23.4082ZM31.2341 20.5087C31.4547 19.5328 31.7152 18.7138 32.3798 18.7138C32.9007 18.7138 32.9384 19.3232 32.7069 20.3023C32.6654 20.5196 32.4753 21.3277 32.2181 21.6718C32.0386 21.9257 31.8261 22.0797 31.5913 22.0797C31.5214 22.0797 31.1058 22.0797 31.0993 21.4626C31.096 21.1579 31.1582 20.8467 31.2341 20.5087ZM37.2949 23.2827L37.3696 23.2067C37.4757 22.6449 37.4931 22.5128 37.728 21.3753C37.8454 20.8358 38.0883 19.6503 38.2025 19.2281C38.4186 19.1278 38.6278 19.0295 38.8375 19.0295C39.3181 19.0295 39.2596 19.4516 39.2405 19.6198C39.223 19.9026 39.0467 20.8244 38.8627 21.6162L38.7485 22.1273C38.6612 22.5051 38.5661 22.8716 38.482 23.2462L38.5186 23.3209C39.5009 23.2685 39.7882 23.2685 40.6291 23.2827L40.7307 23.2067C40.8782 22.3288 40.918 22.094 41.1943 20.8167L41.3259 20.2292C41.5891 19.0803 41.7224 18.4981 41.5274 18.0236C41.3117 17.4918 40.8055 17.3634 40.35 17.3634C40.0482 17.3634 39.4944 17.4361 39.0024 17.679C38.8265 17.7713 38.6502 17.8773 38.4771 17.9837L38.6278 17.3999L38.547 17.3012C37.498 17.5141 37.2583 17.5425 36.2902 17.679L36.2158 17.7331C36.0984 18.6663 36.0029 19.3675 35.5857 21.2022C35.4268 21.8782 35.2619 22.5608 35.097 23.2352L35.1412 23.3209C36.1362 23.2685 36.4332 23.2685 37.2949 23.2827ZM44.5125 23.3207C44.5742 23.0193 44.9411 21.2325 44.9443 21.2325C44.9443 21.2325 45.2567 19.9214 45.2758 19.8739C45.2758 19.8739 45.3742 19.7374 45.4725 19.6834H45.6171C46.9818 19.6834 48.5227 19.6834 49.7306 18.7949C50.5525 18.1855 51.1143 17.2856 51.365 16.1919C51.43 15.9238 51.478 15.6048 51.478 15.2859C51.478 14.867 51.3939 14.4526 51.1509 14.1289C50.535 13.2672 49.3085 13.2513 47.8926 13.2448C47.8882 13.2448 47.1947 13.2513 47.1947 13.2513C45.3823 13.2737 44.6555 13.2672 44.3569 13.2306C44.3317 13.3626 44.2841 13.5975 44.2841 13.5975C44.2841 13.5975 43.6349 16.6063 43.6349 16.6112C43.6349 16.6112 42.0813 23.0083 42.0082 23.3097C43.5906 23.2906 44.2394 23.2906 44.5125 23.3207ZM45.7154 17.9758C45.7154 17.9758 46.4057 14.9731 46.4024 14.9845L46.4248 14.8305L46.4345 14.7131L46.7104 14.7415C46.7104 14.7415 48.1339 14.8638 48.1673 14.867C48.7291 15.0844 48.9607 15.6446 48.799 16.3759C48.6515 17.0442 48.218 17.6061 47.661 17.8775C47.2024 18.1075 46.6405 18.1265 46.0616 18.1265H45.687L45.7154 17.9758ZM50.0131 20.5643C49.8307 21.3419 49.6211 22.7622 50.9207 23.2684C51.3351 23.4447 51.7064 23.4971 52.0839 23.4781C52.4824 23.4565 52.8517 23.2566 53.1938 22.969C53.1629 23.0872 53.132 23.2054 53.1012 23.3241L53.1601 23.4001C54.0949 23.3606 54.385 23.3606 55.3978 23.3684L55.4896 23.2985C55.6375 22.4291 55.7769 21.5848 56.1612 19.9216C56.3485 19.1249 56.5354 18.3359 56.7275 17.5425L56.6975 17.4551C55.6517 17.6489 55.3722 17.6903 54.3663 17.8329L54.2899 17.8951C54.2798 17.9759 54.2692 18.0535 54.2594 18.1311C54.103 17.8784 53.8763 17.6627 53.5265 17.5282C53.0792 17.3523 52.0286 17.579 51.1255 18.4013C50.4909 18.9884 50.1862 19.7928 50.0131 20.5643ZM52.2094 20.6118C52.4333 19.6534 52.6904 18.8425 53.3567 18.8425C53.778 18.8425 53.9998 19.2313 53.9547 19.8943C53.919 20.0597 53.8804 20.234 53.8345 20.431C53.7679 20.7158 53.6955 20.9982 53.6253 21.2809C53.5538 21.4743 53.4705 21.6567 53.3791 21.7782C53.2076 22.0212 52.7997 22.1719 52.5649 22.1719C52.4983 22.1719 52.0871 22.1719 52.0729 21.5657C52.0696 21.2639 52.1318 20.9531 52.2094 20.6118ZM63.6786 17.4473L63.5978 17.3551C62.563 17.5648 62.3757 17.5981 61.425 17.7265L61.3551 17.7963C61.3519 17.8077 61.3491 17.8252 61.3442 17.841L61.3409 17.8252C60.6332 19.458 60.6539 19.1057 60.0778 20.3912C60.0746 20.3327 60.0746 20.2961 60.0713 20.2339L59.9271 17.4473L59.8365 17.3551C58.7526 17.5648 58.727 17.5981 57.7259 17.7265L57.6479 17.7963C57.637 17.8296 57.637 17.8662 57.6305 17.906L57.637 17.9202C57.7621 18.5597 57.732 18.4171 57.8576 19.4263C57.9161 19.9215 57.9941 20.4196 58.0526 20.9088C58.1513 21.7274 58.2066 22.1304 58.3272 23.3797C57.6512 24.4953 57.4911 24.9174 56.8403 25.8965L56.8447 25.9063L56.3865 26.6311C56.3341 26.7075 56.2865 26.7599 56.2199 26.7822C56.1468 26.8184 56.0517 26.8249 55.9197 26.8249H55.6657L55.2883 28.0802L56.5831 28.1026C57.3432 28.0993 57.821 27.7438 58.0782 27.2661L58.8923 25.8709H58.8793L58.9651 25.7726C59.5127 24.5936 63.6786 17.4473 63.6786 17.4473ZM50.0131 33.9348H49.4638L51.4968 27.2106H52.1712L52.3853 26.5179L52.406 27.2882C52.3808 27.7644 52.7554 28.1865 53.7394 28.1166H54.8773L55.269 26.8218H54.8408C54.5946 26.8218 54.4804 26.7597 54.4946 26.6264L54.4739 25.8427H52.3666V25.8468C51.6853 25.861 49.6507 25.9122 49.2387 26.0219C48.7402 26.1503 48.2149 26.5281 48.2149 26.5281L48.4213 25.8346H46.4501L46.0393 27.2106L43.9792 34.0376H43.5794L43.1873 35.323H47.1135L46.9819 35.7516H48.9165L49.0449 35.323H49.5877L50.0131 33.9348ZM48.4022 28.5769C48.0865 28.6643 47.4991 28.9291 47.4991 28.9291L48.0215 27.2106H49.5877L49.2099 28.4627C49.2099 28.4627 48.726 28.4912 48.4022 28.5769ZM48.4323 31.032C48.4323 31.032 47.9403 31.0937 47.6165 31.1669C47.2976 31.2636 46.6995 31.5683 46.6995 31.5683L47.2391 29.7799H48.8134L48.4323 31.032ZM47.5547 33.9506H45.9837L46.4391 32.4413H48.0053L47.5547 33.9506ZM51.3382 29.7799H53.6027L53.2773 30.8337H50.9827L50.6382 31.9859H52.6459L51.1257 34.1265C51.0192 34.2838 50.9238 34.3394 50.8177 34.3837C50.7113 34.4377 50.5715 34.5011 50.4098 34.5011H49.8528L49.4701 35.763H50.927C51.6843 35.763 52.1316 35.4185 52.4619 34.9663L53.5044 33.5395L53.7282 34.9882C53.7758 35.2596 53.9708 35.4185 54.1028 35.4802C54.2487 35.5534 54.3994 35.6789 54.6123 35.6976C54.8406 35.7073 55.0056 35.7151 55.1152 35.7151H55.8311L56.2609 34.3029H55.9786C55.8165 34.3029 55.5374 34.2757 55.4898 34.2249C55.4423 34.1631 55.4423 34.068 55.4167 33.9234L55.1896 32.4714H54.2596L54.6675 31.9859H56.9577L57.3099 30.8337H55.1896L55.5199 29.7799H57.6337L58.0258 28.4802H51.7237L51.3382 29.7799ZM32.2117 34.2441L32.7403 32.4857H34.9126L35.3095 31.178H33.1352L33.4671 30.0957H35.5919L35.9855 28.8293H30.6691L30.2835 30.0957H31.4914L31.1692 31.178H29.9581L29.5567 32.5081H30.7642L30.0597 34.8344C29.9646 35.1423 30.1044 35.2598 30.1929 35.4028C30.2835 35.5421 30.3754 35.6343 30.5818 35.6867C30.7946 35.7343 30.9405 35.7627 31.1387 35.7627H33.5877L34.0241 34.314L32.9385 34.4631C32.7289 34.4631 32.1483 34.4379 32.2117 34.2441ZM32.4609 25.8267L31.9104 26.8216C31.7926 27.039 31.6865 27.1739 31.591 27.236C31.507 27.2884 31.3404 27.3104 31.0991 27.3104H30.8118L30.4279 28.5832H31.3818C31.8405 28.5832 32.1927 28.415 32.3609 28.3309C32.5417 28.2342 32.5893 28.2895 32.729 28.1546L33.0512 27.8755H36.03L36.4253 26.5502H34.2448L34.6255 25.8267H32.4609ZM36.8585 34.2696C36.8077 34.1965 36.8443 34.0677 36.9219 33.7996L37.736 31.1048H40.6323C41.0545 31.0987 41.3592 31.0938 41.5574 31.0796C41.7703 31.0573 42.0019 30.9813 42.2542 30.8448C42.5146 30.7018 42.6478 30.5511 42.7604 30.378C42.8859 30.2053 43.0874 29.8275 43.2605 29.2449L44.2839 25.8347L41.2783 25.8521C41.2783 25.8521 40.3528 25.9886 39.9453 26.1394C39.5342 26.3076 38.9467 26.7772 38.9467 26.7772L39.2181 25.8424H37.3615L34.7621 34.463C34.6699 34.7978 34.6082 35.0407 34.594 35.1866C34.5891 35.3438 34.7922 35.4994 34.9238 35.6168C35.0794 35.7342 35.3094 35.7151 35.53 35.7342C35.762 35.7517 36.0919 35.7627 36.5473 35.7627H37.9741L38.4121 34.2839L37.1348 34.4045C36.9983 34.4045 36.8995 34.3314 36.8585 34.2696ZM38.2614 29.2847H41.3035L41.1101 29.8909C41.0829 29.9051 41.0179 29.8608 40.7083 29.8974H38.0741L38.2614 29.2847ZM38.8708 27.2517H41.9385L41.7179 27.9818C41.7179 27.9818 40.272 27.9676 40.0404 28.0102C39.0215 28.1866 38.4263 28.731 38.4263 28.731L38.8708 27.2517ZM41.1782 31.9207C41.153 32.0113 41.1132 32.0666 41.0575 32.108C40.9958 32.1478 40.8958 32.162 40.7467 32.162H40.3133L40.3388 31.4238H38.5358L38.4627 35.0327C38.4599 35.2932 38.485 35.4439 38.6756 35.5645C38.8661 35.7153 39.4532 35.7344 40.2434 35.7344H41.3732L41.7811 34.3835L40.7975 34.4375L40.4705 34.4566C40.4258 34.4375 40.3831 34.4201 40.3356 34.3725C40.2942 34.3315 40.2243 34.3567 40.2357 34.0963L40.2434 33.1712L41.2749 33.1285C41.8319 33.1285 42.07 32.9473 42.2731 32.7747C42.4669 32.6093 42.5303 32.4192 42.6034 32.162L42.7765 31.343H41.359L41.1782 31.9207Z"
          fill="#FEFEFE"/>
</svg>
