<svg width="93" height="31" viewBox="0 0 93 31" fill="none" xmlns="http://www.w3.org/2000/svg">
    <path d="M40.3002 30.4963H32.7666L37.4787 0.599731H45.0119L40.3002 30.4963Z" fill="white"/>
    <path d="M67.6099 1.3308C66.1239 0.725885 63.767 0.0579834 60.8528 0.0579834C53.4131 0.0579834 48.1741 4.1288 48.1419 9.94884C48.0801 14.2429 51.8929 16.6279 54.7445 18.0596C57.6592 19.5227 58.65 20.4776 58.65 21.7817C58.6203 23.7845 56.2948 24.7078 54.1258 24.7078C51.118 24.7078 49.5064 24.2318 47.0572 23.1175L46.0652 22.6398L45.011 29.3509C46.7779 30.1769 50.0333 30.9099 53.4131 30.9421C61.3179 30.9421 66.4642 26.9342 66.5252 20.7321C66.5552 17.3287 64.542 14.721 60.2015 12.59C57.5665 11.2221 55.9528 10.2997 55.9528 8.90007C55.9837 7.62767 57.3177 6.32442 60.2921 6.32442C62.7412 6.26059 64.5407 6.86466 65.9039 7.46915L66.5853 7.78661L67.6099 1.3308Z"
          fill="white"/>
    <path d="M77.623 19.905C78.2434 18.1875 80.6307 11.5402 80.6307 11.5402C80.5994 11.604 81.2499 9.79098 81.6219 8.67795L82.1484 11.254C82.1484 11.254 83.5751 18.4103 83.8849 19.905C82.7075 19.905 79.111 19.905 77.623 19.905ZM86.9223 0.599731H81.095C79.298 0.599731 77.9328 1.13997 77.1574 3.08027L65.9672 30.4959H73.872C73.872 30.4959 75.1734 26.806 75.4531 26.0113C76.3203 26.0113 84.0101 26.0113 85.1257 26.0113C85.342 27.0609 86.0246 30.4959 86.0246 30.4959H93.0001L86.9223 0.599731Z"
          fill="white"/>
    <path d="M26.4738 0.599731L19.0959 20.9864L18.2897 16.8517C16.9256 12.0809 12.6478 6.89745 7.8739 4.32011L14.6318 30.4646H22.5984L34.44 0.599731H26.4738Z"
          fill="white"/>
    <path d="M12.2449 0.599731H0.124002L0 1.2038C9.45507 3.68476 15.717 9.66501 18.2897 16.853L15.6548 3.11282C15.221 1.20338 13.8878 0.662717 12.2449 0.599731Z"
          fill="#FAA61A"/>
</svg>
