<svg width="50" height="18" viewBox="0 0 50 18" fill="none" xmlns="http://www.w3.org/2000/svg">
<path d="M21.796 17.026H17.7642L20.286 1.026H24.3176L21.796 17.026Z" fill="url(#paint0_linear_181_3025)"/>
<path d="M36.4113 1.41715C35.6161 1.09341 34.3547 0.735962 32.7951 0.735962C28.8135 0.735962 26.0097 2.91457 25.9925 6.02933C25.9594 8.32739 27.9999 9.60379 29.5261 10.37C31.0859 11.153 31.6162 11.6641 31.6162 12.362C31.6003 13.4339 30.3557 13.928 29.1949 13.928C27.5852 13.928 26.7227 13.6732 25.412 13.0769L24.8811 12.8213L24.3169 16.4129C25.2625 16.855 27.0047 17.2473 28.8135 17.2644C33.044 17.2644 35.7982 15.1195 35.8308 11.8003C35.8469 9.97889 34.7694 8.58326 32.4465 7.44283C31.0363 6.71074 30.1727 6.2171 30.1727 5.46805C30.1893 4.78709 30.9032 4.08962 32.495 4.08962C33.8057 4.05546 34.7688 4.37874 35.4983 4.70226L35.863 4.87216L36.4113 1.41715Z" fill="url(#paint1_linear_181_3025)"/>
<path d="M41.7702 11.3578C42.1022 10.4386 43.3798 6.8811 43.3798 6.8811C43.3631 6.91526 43.7112 5.94496 43.9103 5.34929L44.1921 6.72794C44.1921 6.72794 44.9556 10.5578 45.1214 11.3578C44.4913 11.3578 42.5665 11.3578 41.7702 11.3578ZM46.747 1.026H43.6283C42.6666 1.026 41.936 1.31513 41.521 2.35353L35.5322 17.0258H39.7627C39.7627 17.0258 40.4592 15.051 40.6089 14.6257C41.073 14.6257 45.1884 14.6257 45.7855 14.6257C45.9012 15.1874 46.2665 17.0258 46.2665 17.0258H49.9996L46.747 1.026Z" fill="url(#paint2_linear_181_3025)"/>
<path d="M14.3962 1.026L10.4477 11.9365L10.0162 9.7237C9.28619 7.17045 6.99677 4.3964 4.44189 3.01707L8.05858 17.009H12.3221L18.6595 1.026H14.3962Z" fill="url(#paint3_linear_181_3025)"/>
<path d="M6.78123 1.026H0.29439L0.228027 1.34929C5.28817 2.67704 8.63941 5.87754 10.0163 9.72438L8.60612 2.37095C8.37395 1.34906 7.66049 1.05971 6.78123 1.026Z" fill="#FAA61A"/>
<defs>
<linearGradient id="paint0_linear_181_3025" x1="24.3176" y1="1.026" x2="15.8331" y2="2.12556" gradientUnits="userSpaceOnUse">
<stop stop-color="#000756"/>
<stop offset="1" stop-color="#0042B8"/>
</linearGradient>
<linearGradient id="paint1_linear_181_3025" x1="36.4113" y1="0.735963" x2="21.3002" y2="4.23457" gradientUnits="userSpaceOnUse">
<stop stop-color="#000756"/>
<stop offset="1" stop-color="#0042B8"/>
</linearGradient>
<linearGradient id="paint2_linear_181_3025" x1="49.9996" y1="1.026" x2="32.3956" y2="6.06256" gradientUnits="userSpaceOnUse">
<stop stop-color="#000756"/>
<stop offset="1" stop-color="#0042B8"/>
</linearGradient>
<linearGradient id="paint3_linear_181_3025" x1="18.6595" y1="1.026" x2="1.31718" y2="5.90712" gradientUnits="userSpaceOnUse">
<stop stop-color="#000756"/>
<stop offset="1" stop-color="#0042B8"/>
</linearGradient>
</defs>
</svg>
