<svg width="400" height="400" viewBox="0 0 339 298" fill="none" xmlns="http://www.w3.org/2000/svg">
<path d="M79.5596 290.47L56.6396 250.77C56.2847 250.046 56.1002 249.251 56.1002 248.445C56.1002 247.639 56.2847 246.844 56.6396 246.12L82.0896 202.05C82.5372 201.37 83.1372 200.803 83.842 200.395C84.5467 199.987 85.3368 199.749 86.1496 199.7H137.04C137.854 199.749 138.645 199.987 139.352 200.395C140.058 200.803 140.66 201.37 141.11 202.05L166.56 246.12C166.92 246.851 167.107 247.655 167.107 248.47C167.107 249.285 166.92 250.089 166.56 250.82L141.11 294.89C140.662 295.556 140.07 296.112 139.377 296.517C138.685 296.923 137.91 297.166 137.11 297.23H91.3596C89.0071 297.079 86.7203 296.392 84.6747 295.22C82.6292 294.048 80.8794 292.423 79.5596 290.47ZM244.83 199.78L194.13 112C193.514 111.072 192.691 110.299 191.727 109.742C190.762 109.185 189.681 108.859 188.57 108.79H87.1696C86.0579 108.859 84.9773 109.185 84.0126 109.742C83.048 110.299 82.2255 111.072 81.6096 112L30.9096 199.82C30.4115 200.817 30.1521 201.916 30.1521 203.03C30.1521 204.144 30.4115 205.243 30.9096 206.24L45.7696 232L71.7696 187C72.4742 185.919 73.4234 185.018 74.5404 184.372C75.6575 183.726 76.9111 183.352 78.1996 183.28H145C146.288 183.352 147.542 183.726 148.659 184.372C149.776 185.018 150.725 185.919 151.43 187L184.84 244.86C185.421 246.012 185.725 247.284 185.725 248.575C185.725 249.866 185.421 251.138 184.84 252.29L158.84 297.29H188.54C189.653 297.221 190.734 296.894 191.699 296.336C192.664 295.777 193.486 295.001 194.1 294.07L244.8 206.26C245.312 205.258 245.582 204.149 245.587 203.024C245.592 201.898 245.333 200.787 244.83 199.78ZM336.83 141.69L259.06 6.93C257.742 4.91597 255.969 3.23959 253.885 2.03591C251.801 0.832219 249.463 0.134861 247.06 0L91.4496 0C89.0465 0.134861 86.7086 0.832219 84.6243 2.03591C82.54 3.23959 80.7675 4.91597 79.4496 6.93L1.64964 141.69C0.565054 143.837 0 146.209 0 148.615C0 151.021 0.565054 153.393 1.64964 155.54L19.4796 186.42L71.1796 96.86C72.0505 95.5267 73.2231 94.4173 74.6026 93.6216C75.982 92.8259 77.5295 92.3663 79.1196 92.28H196.53C198.12 92.3663 199.667 92.8259 201.047 93.6216C202.426 94.4173 203.599 95.5267 204.47 96.86L263.18 198.55C263.899 199.969 264.274 201.539 264.274 203.13C264.274 204.721 263.899 206.291 263.18 207.71L211.49 297.23H247.06C249.463 297.095 251.801 296.398 253.885 295.194C255.969 293.99 257.742 292.314 259.06 290.3L336.86 155.54C337.944 153.393 338.509 151.021 338.509 148.615C338.509 146.209 337.944 143.837 336.86 141.69H336.83Z" fill="url(#paint0_linear_1_9198)"/>
<defs>
<linearGradient id="paint0_linear_1_9198" x1="84.6296" y1="295.19" x2="253.89" y2="2.04002" gradientUnits="userSpaceOnUse">
<stop stop-color="#FFDC00"/>
<stop offset="0.33" stop-color="#E58E2F"/>
<stop offset="0.67" stop-color="#DB2D72"/>
<stop offset="1" stop-color="#FF00FF"/>
</linearGradient>
</defs>
</svg>
