<svg width="327" height="217" viewBox="0 0 327 217" fill="none" xmlns="http://www.w3.org/2000/svg">
<g clip-path="url(#clip0_337_17882)">
<path d="M72.25 177.891C110.358 177.891 141.25 146.998 141.25 108.891C141.25 70.783 110.358 39.8906 72.25 39.8906C34.1424 39.8906 3.25 70.783 3.25 108.891C3.25 146.998 34.1424 177.891 72.25 177.891Z" fill="#0052B4"/>
<path d="M72.2504 66.8906L74.4845 73.7661H81.7133L75.8648 78.0153L78.0989 84.8907L72.2504 80.6413L66.4015 84.8907L68.6357 78.0153L62.7871 73.7661H70.0162L72.2504 66.8906Z" fill="#FFDA44"/>
<path d="M42.551 79.1919L48.9928 82.4737L54.1044 77.3623L52.9732 84.5022L59.4148 87.7843L52.2746 88.9152L51.1436 96.0556L47.8616 89.6141L40.7217 90.7453L45.8333 85.6337L42.551 79.1919Z" fill="#FFDA44"/>
<path d="M30.25 108.891L37.1255 106.657V99.4277L41.3744 105.277L48.2501 103.042L44.0004 108.891L48.2501 114.74L41.3744 112.506L37.1255 118.354V111.125L30.25 108.891Z" fill="#FFDA44"/>
<path d="M42.551 138.589L45.8331 132.147L40.7217 127.036L47.8618 128.167L51.1434 121.726L52.2746 128.866L59.4145 129.997L52.9738 133.279L54.1044 140.419L48.9928 135.307L42.551 138.589Z" fill="#FFDA44"/>
<path d="M72.2504 150.89L70.0159 144.015H62.7871L68.6359 139.766L66.4015 132.891L72.2504 137.14L78.0989 132.891L75.8648 139.766L81.7133 144.015H74.4842L72.2504 150.89Z" fill="#FFDA44"/>
<path d="M101.948 138.589L95.5067 135.307L90.3947 140.419L91.5259 133.279L85.085 129.997L92.2248 128.866L93.3558 121.726L96.6376 128.167L103.777 127.036L98.6658 132.148L101.948 138.589Z" fill="#FFDA44"/>
<path d="M114.25 108.891L107.374 111.125V118.354L103.125 112.505L96.25 114.74L100.499 108.891L96.25 103.042L103.125 105.277L107.374 99.4277V106.657L114.25 108.891Z" fill="#FFDA44"/>
<path d="M101.948 79.1916L98.6661 85.6334L103.778 90.7451L96.6373 89.6136L93.3558 96.0551L92.2248 88.915L85.085 87.7837L91.526 84.5019L90.3947 77.3623L95.5069 82.4737L101.948 79.1916Z" fill="#FFDA44"/>
</g>
<g clip-path="url(#clip1_337_17882)">
<path d="M163.25 177.891C201.358 177.891 232.25 146.998 232.25 108.891C232.25 70.783 201.358 39.8906 163.25 39.8906C125.142 39.8906 94.25 70.783 94.25 108.891C94.25 146.998 125.142 177.891 163.25 177.891Z" fill="url(#paint0_linear_337_17882)"/>
<path d="M185.871 106.833C190.224 112.642 177.478 123.87 180.342 119.233H153.192C150.255 115.392 148.235 111.191 147.265 106.833H185.871Z" fill="url(#paint1_linear_337_17882)"/>
<path d="M178.003 140.304C174.144 143.38 169.973 146.041 165.558 148.244L163.398 149.332L161.226 148.248C140.799 137.998 128.613 120.342 128.613 100.994V78.2764H141.071V100.994C141.069 102.443 141.167 103.89 141.364 105.326C142.933 117.081 150.867 127.925 163.352 135.226C163.363 135.237 163.377 135.247 163.391 135.254C163.404 135.247 163.411 135.239 163.425 135.233L163.477 135.2C167.99 137.723 172.903 139.45 178.003 140.304Z" fill="url(#paint2_linear_337_17882)"/>
<path d="M197.797 106.833C197.221 111.323 195.989 115.705 194.142 119.838C190.727 127.512 185.238 134.496 178.008 140.307C172.912 139.452 168 137.725 163.49 135.203C165.119 134.242 166.699 133.2 168.223 132.08C168.375 131.981 168.521 131.875 168.661 131.761C177.1 125.684 183.18 116.878 185.871 106.833H197.797Z" fill="url(#paint3_linear_337_17882)"/>
<path d="M198.183 78.2812H141.071V90.7335H198.183V78.2812Z" fill="url(#paint4_linear_337_17882)"/>
<path d="M198.183 90.7334V100.994C198.183 101.418 198.17 101.843 198.157 102.269H185.691C185.704 101.843 185.71 101.418 185.71 100.994V90.7334H198.183Z" fill="url(#paint5_linear_337_17882)"/>
</g>
<g clip-path="url(#clip2_337_17882)">
<mask id="mask0_337_17882" style="mask-type:luminance" maskUnits="userSpaceOnUse" x="185" y="39" width="139" height="139">
<path d="M323.25 39.8906H185.25V177.891H323.25V39.8906Z" fill="white"/>
</mask>
<g mask="url(#mask0_337_17882)">
<path fill-rule="evenodd" clip-rule="evenodd" d="M248.008 40.9901C242.035 43.2137 236.778 47.1417 232.459 52.6056C228.09 58.1329 221.928 70.1767 220.938 75.1173L220.316 78.2307L226.717 74.0361C230.236 71.7302 235.865 68.5347 239.223 66.9352C242.582 65.337 245.33 63.7385 245.33 63.3858C245.33 63.0321 243.211 62.3335 240.623 61.8339C236.834 61.1017 235.855 60.4893 235.599 58.6948C235.414 57.3848 235.822 56.4196 236.59 56.3553C239.466 56.1145 243.124 56.6634 248.602 58.1587C254.049 59.6451 254.856 59.6173 263.961 57.6177C269.246 56.4563 275.068 55.3881 276.898 55.2424L280.224 54.9789L276.258 50.486C268.592 41.7996 256.629 37.7785 248.008 40.9901ZM268.121 62.3702C242.776 67.7903 217.717 83.5888 203.063 103.383L198.774 109.179L201.78 113.292C203.434 115.555 206.216 119.081 207.964 121.126L211.143 124.845V113.694C211.143 103.213 211.262 102.543 213.12 102.543C214.945 102.543 215.188 103.612 216.282 116.416L217.468 130.289L221.21 133.443C234.897 144.978 258.912 155.083 277.167 156.986L283.736 157.671L286.829 150.242C291.256 139.606 290.998 139.156 283.401 144.25C276.02 149.2 272.27 150.523 271.079 148.597C269.821 146.56 270.789 145.33 275.928 142.441C278.573 140.954 283.438 137.751 286.737 135.32C293.49 130.349 293.312 130.896 294.71 110.965C295.31 102.433 295.557 101.552 297.353 101.552C299.248 101.552 299.329 102.164 299.189 115.425C299.034 130.21 297.483 138.396 292.506 150.721L290.05 156.799L294.535 156.185C307.602 154.394 316.939 145.652 318.33 133.904C318.867 129.367 316.559 117.389 314.81 115.64C314.373 115.203 312.942 116.423 311.631 118.349C309.176 121.953 306.128 122.947 305.173 120.455C304.874 119.679 306.213 116.695 308.147 113.821L311.664 108.6L309.036 105.076C299.357 92.0978 288.721 82.773 274.479 74.7794C266.231 70.1497 265.067 68.8338 267.271 66.6301C268.521 65.3805 277.008 69.1926 284.649 74.4335C291.127 78.8767 291.28 78.4181 286.856 67.7914C283.822 60.5032 283.754 60.4299 280.168 60.4982C278.175 60.5369 272.754 61.3792 268.121 62.3702ZM290.452 62.0491C290.907 63.0658 292.908 68.7091 294.897 74.5892C297.191 81.3739 299.266 85.8103 300.577 86.7278C301.713 87.5237 305.322 91.5052 308.597 95.5769L314.553 102.98L316.33 98.3256C318.853 91.7202 318.677 80.9637 315.964 75.7881C312.378 68.9498 304.946 63.5721 296.858 61.9618C294.95 61.5823 292.541 61.0304 291.506 60.7361C289.963 60.2971 289.772 60.5359 290.452 62.0491ZM209.86 63.2965C195.709 68.1849 189.423 80.2571 193.252 95.2002C194.144 98.6842 195.236 101.896 195.677 102.337C196.119 102.779 197.291 101.891 198.282 100.364C199.274 98.838 202.839 94.6898 206.206 91.1473C211.719 85.3465 212.598 83.8206 215.061 75.7881C216.566 70.8831 218.429 65.6431 219.202 64.1448C220.573 61.4872 220.54 61.4208 217.858 61.4525C216.345 61.4704 212.746 62.2997 209.86 63.2965ZM258.247 83.7977C259.317 86.2957 260.194 88.5255 260.194 88.7523C260.194 88.9792 257.964 89.1655 255.239 89.1655C252.514 89.1655 250.285 88.999 250.285 88.7959C250.285 87.3176 254.541 79.2564 255.32 79.2564C255.859 79.2564 257.176 81.2997 258.247 83.7977ZM244.272 90.8105C244.77 91.2376 238.3 98.0837 237.398 98.0837C236.601 98.0837 233.518 88.4263 234.122 87.8219C234.549 87.3948 243.29 89.9682 244.272 90.8105ZM275.272 93.1312C274.402 95.8552 273.415 98.0837 273.081 98.0837C272.174 98.0837 265.71 91.2376 266.206 90.8025C267.121 90.0019 275.588 87.4711 276.204 87.815C276.563 88.0151 276.144 90.4072 275.272 93.1312ZM262.928 96.0969C276.356 104.285 269.75 124.904 254.127 123.564C235.239 121.945 236.29 94.127 255.239 94.127C257.944 94.127 260.969 94.902 262.928 96.0969ZM235.421 108.984C235.421 111.709 235.21 113.939 234.952 113.939C233.636 113.939 225.512 109.463 225.512 108.738C225.512 107.95 233.045 104.099 234.678 104.051C235.087 104.039 235.421 106.259 235.421 108.984ZM280.481 106.208C282.948 107.407 284.967 108.736 284.967 109.161C284.967 110.026 277.696 113.939 276.088 113.939C275.513 113.939 275.058 111.753 275.058 108.984C275.058 106.259 275.269 104.029 275.526 104.029C275.785 104.029 278.014 105.01 280.481 106.208ZM194.919 117.696C189.001 132.528 193.105 146.558 205.198 152.844C208.966 154.802 219.613 157.823 220.305 157.13C220.485 156.951 220.11 155.66 219.473 154.262C218.836 152.864 218.582 151.023 218.909 150.171C220.014 147.29 222.553 148.596 224.781 153.19L226.998 157.759L233.22 157.123C241.174 156.31 245.333 155.473 245.318 154.69C245.311 154.349 241.185 151.941 236.149 149.337C221.803 141.921 209.155 131.7 200.062 120.173L195.99 115.012L194.919 117.696ZM241.56 122.546C243.089 124.011 244.339 125.709 244.339 126.321C244.339 127.445 234.919 130.942 234.1 130.123C233.332 129.356 236.742 119.884 237.785 119.884C238.333 119.884 240.031 121.082 241.56 122.546ZM275.254 124.782C276.117 127.476 276.612 129.89 276.356 130.146C275.929 130.573 267.189 128 266.206 127.157C265.708 126.731 272.179 119.884 273.081 119.884C273.415 119.884 274.393 122.089 275.254 124.782ZM259.64 131.032C258.563 134.524 256.257 138.712 255.411 138.712C254.739 138.712 250.285 130.51 250.285 129.271C250.285 129.013 252.544 128.802 255.306 128.802C260.056 128.802 260.29 128.922 259.64 131.032ZM247.807 160.102C245.082 160.87 240.021 161.832 236.56 162.243L230.268 162.989L234.226 167.482C246.446 181.35 264.031 181.361 276.224 167.51L280.153 163.045L271.907 161.852C267.372 161.195 262.407 160.18 260.873 159.594C257.304 158.233 253.989 158.361 247.807 160.102Z" fill="#F64A28"/>
</g>
</g>
<defs>
<linearGradient id="paint0_linear_337_17882" x1="232.25" y1="39.8906" x2="67.1178" y2="92.1395" gradientUnits="userSpaceOnUse">
<stop stop-color="#000756"/>
<stop offset="1" stop-color="#0042B8"/>
</linearGradient>
<linearGradient id="paint1_linear_337_17882" x1="198.454" y1="120.828" x2="150.949" y2="108.025" gradientUnits="userSpaceOnUse">
<stop offset="0.14" stop-color="#ADADAD"/>
<stop offset="0.29" stop-color="#CBCBCB"/>
<stop offset="0.43" stop-color="#E2E2E2"/>
<stop offset="0.59" stop-color="#F2F2F2"/>
<stop offset="0.77" stop-color="#FCFCFC"/>
<stop offset="1" stop-color="white"/>
</linearGradient>
<linearGradient id="paint2_linear_337_17882" x1="180.915" y1="161.394" x2="113.765" y2="67.7365" gradientUnits="userSpaceOnUse">
<stop stop-color="#ADADAD"/>
<stop offset="0.17" stop-color="#CBCBCB"/>
<stop offset="0.34" stop-color="#E2E2E2"/>
<stop offset="0.52" stop-color="#F2F2F2"/>
<stop offset="0.73" stop-color="#FCFCFC"/>
<stop offset="1" stop-color="white"/>
</linearGradient>
<linearGradient id="paint3_linear_337_17882" x1="164.264" y1="147.219" x2="196.158" y2="106.789" gradientUnits="userSpaceOnUse">
<stop offset="0.15" stop-color="#ADADAD"/>
<stop offset="0.29" stop-color="#CBCBCB"/>
<stop offset="0.44" stop-color="#E2E2E2"/>
<stop offset="0.6" stop-color="#F2F2F2"/>
<stop offset="0.77" stop-color="#FCFCFC"/>
<stop offset="1" stop-color="white"/>
</linearGradient>
<linearGradient id="paint4_linear_337_17882" x1="135.581" y1="116.852" x2="162.536" y2="91.2467" gradientUnits="userSpaceOnUse">
<stop offset="0.14" stop-color="#ADADAD"/>
<stop offset="0.43" stop-color="#C9C9C9"/>
<stop offset="1" stop-color="white"/>
</linearGradient>
<linearGradient id="paint5_linear_337_17882" x1="191.937" y1="84.1977" x2="191.937" y2="102.269" gradientUnits="userSpaceOnUse">
<stop offset="0.0895638" stop-color="#ADADAD"/>
<stop offset="0.240189" stop-color="#CBCBCB"/>
<stop offset="0.425047" stop-color="#E2E2E2"/>
<stop offset="0.536875" stop-color="#F2F2F2"/>
<stop offset="1" stop-color="white"/>
</linearGradient>
<clipPath id="clip0_337_17882">
<rect x="3.25" y="39.8906" width="138" height="138" rx="69" fill="white"/>
</clipPath>
<clipPath id="clip1_337_17882">
<rect x="94.25" y="39.8906" width="138" height="138" rx="69" fill="white"/>
</clipPath>
<clipPath id="clip2_337_17882">
<rect width="138" height="138" fill="white" transform="translate(185.25 39.8906)"/>
</clipPath>
</defs>
</svg>
