<svg width="120" height="120" viewBox="0 0 120 120" fill="none" xmlns="http://www.w3.org/2000/svg">
<mask id="mask0_337_374" style="mask-type:luminance" maskUnits="userSpaceOnUse" x="0" y="0" width="120" height="120">
<path d="M120 0L0 0L1.25639e-05 120L120 120L120 0Z" fill="white"/>
</mask>
<g mask="url(#mask0_337_374)">
<path fill-rule="evenodd" clip-rule="evenodd" d="M54.5731 0.956029C49.379 2.88962 44.8077 6.30529 41.0517 11.0565C37.2526 15.8629 31.894 26.3357 31.034 30.6319L30.4928 33.3392L36.0584 29.6917C39.119 27.6866 44.0133 24.9079 46.9334 23.517C49.8547 22.1273 52.244 20.7373 52.244 20.4306C52.244 20.1231 50.4018 19.5156 48.151 19.0811C44.8561 18.4444 44.0047 17.9119 43.7825 16.3514C43.6212 15.2123 43.9763 14.3731 44.644 14.3171C47.1447 14.1077 50.3258 14.585 55.0891 15.8853C59.8257 17.1778 60.5279 17.1536 68.4449 15.4148C73.0409 14.4049 78.1032 13.4761 79.6943 13.3494L82.5869 13.1202L79.1382 9.21341C72.4717 1.66001 62.0693 -1.83664 54.5731 0.956029ZM72.0624 19.5474C50.0234 24.2606 28.2327 37.9984 15.4904 55.2111L11.7602 60.2509L14.3745 63.8274C15.8126 65.7954 18.2322 68.8609 19.7521 70.6391L22.5164 73.8731L22.5164 64.1766C22.5164 55.0628 22.6197 54.4802 24.2354 54.4802C25.8219 54.4802 26.0337 55.41 26.9851 66.5436L28.0165 78.6071L31.2702 81.3499C43.1714 91.3806 64.0548 100.167 79.9284 101.822L85.6404 102.418L88.3297 95.9574C92.1798 86.709 91.9554 86.3179 85.3494 90.7476C78.9307 95.052 75.6702 96.2021 74.6347 94.527C73.5402 92.7559 74.3819 91.686 78.8514 89.1739C81.1512 87.8814 85.3812 85.0956 88.2504 82.9824C94.1227 78.6594 93.9678 79.1351 95.1834 61.8041C95.7048 54.3846 95.9197 53.6186 97.4814 53.6186C99.1289 53.6186 99.1998 54.1511 99.0779 65.682C98.9429 78.5389 97.5942 85.6571 93.2664 96.3739L91.1309 101.66L95.0309 101.126C106.393 99.5681 114.512 91.9661 115.722 81.7511C116.189 77.8056 114.182 67.3896 112.661 65.8691C112.282 65.4889 111.037 66.5496 109.897 68.2249C107.762 71.3586 105.112 72.2226 104.281 70.056C104.021 69.381 105.186 66.786 106.868 64.2876L109.926 59.7476L107.641 56.6828C99.2238 45.3975 89.9753 37.2891 77.5914 30.3381C70.4189 26.3123 69.4068 25.1679 71.3232 23.2517C72.4098 22.1651 79.7904 25.4799 86.4348 30.0373C92.0677 33.9009 92.2002 33.5021 88.3537 24.2616C85.7153 17.924 85.6559 17.8603 82.5378 17.9197C80.8049 17.9533 76.0908 18.6857 72.0624 19.5474ZM91.4802 19.2682C91.8762 20.1523 93.6162 25.0596 95.3454 30.1727C97.3409 36.0724 99.1452 39.9302 100.285 40.728C101.273 41.4201 104.411 44.8823 107.259 48.4228L112.438 54.8603L113.983 50.8131C116.177 45.0692 116.024 35.7158 113.665 31.2152C110.546 25.2688 104.084 20.5926 97.0507 19.1923C95.3922 18.8623 93.2969 18.3824 92.3969 18.1265C91.0553 17.7448 90.8892 17.9524 91.4802 19.2682ZM21.4006 20.3529C9.09508 24.6038 3.62952 35.1013 6.95903 48.0953C7.73453 51.1249 8.68409 53.9177 9.06749 54.3009C9.45179 54.6853 10.4712 53.9134 11.3329 52.5855C12.1954 51.2586 15.2957 47.6514 18.2227 44.571C23.017 39.5269 23.7813 38.1999 25.9235 31.2152C27.2315 26.9499 28.8522 22.3935 29.5244 21.0906C30.716 18.7796 30.6877 18.7219 28.3552 18.7495C27.0393 18.765 23.9097 19.4861 21.4006 20.3529ZM63.4763 38.1801C64.4069 40.3522 65.1689 42.2912 65.1689 42.4884C65.1689 42.6857 63.2304 42.8477 60.8604 42.8477C58.4911 42.8477 56.5523 42.7029 56.5523 42.5263C56.5523 41.2408 60.2532 34.2311 60.9312 34.2311C61.3998 34.2311 62.5452 36.0079 63.4763 38.1801ZM51.3237 44.2781C51.7572 44.6496 46.1305 50.6027 45.3462 50.6027C44.6536 50.6027 41.9729 42.2049 42.4977 41.6794C42.869 41.3079 50.4699 43.5457 51.3237 44.2781ZM78.2808 46.2962C77.5237 48.6649 76.6657 50.6027 76.3752 50.6027C75.5868 50.6027 69.9659 44.6496 70.3974 44.2712C71.1929 43.575 78.5557 41.3743 79.0908 41.6734C79.4028 41.8474 79.0387 43.9275 78.2808 46.2962ZM67.5462 48.8751C79.2234 55.995 73.4789 73.9249 59.8938 72.7596C43.4688 71.352 44.383 47.1621 60.8604 47.1621C63.2129 47.1621 65.8428 47.8359 67.5462 48.8751ZM43.6272 60.081C43.6272 62.4504 43.4439 64.3896 43.2198 64.3896C42.0755 64.3896 35.0107 60.4974 35.0107 59.8674C35.0107 59.1823 41.561 55.833 42.9811 55.7917C43.337 55.7814 43.6272 57.7116 43.6272 60.081ZM82.8102 57.6675C84.9552 58.7102 86.7108 59.8656 86.7108 60.2351C86.7108 60.9876 80.3879 64.3896 78.9899 64.3896C78.4897 64.3896 78.0942 62.4889 78.0942 60.081C78.0942 57.7116 78.2778 55.7728 78.5017 55.7728C78.7267 55.7728 80.6652 56.6258 82.8102 57.6675ZM8.40833 67.6566C3.26245 80.5541 6.83064 92.7546 17.3464 98.22C20.6232 99.9229 29.881 102.55 30.4835 101.947C30.6393 101.792 30.3136 100.669 29.7595 99.4536C29.2055 98.2374 28.985 96.6366 29.2692 95.8956C30.2302 93.3911 32.4376 94.5264 34.3756 98.5211L36.3031 102.494L41.7136 101.941C48.6301 101.234 52.2466 100.506 52.2337 99.8256C52.2277 99.5291 48.6397 97.4351 44.2606 95.1709C31.7855 88.722 20.7871 79.8341 12.8804 69.8111L9.33978 65.3231L8.40833 67.6566ZM48.9654 71.8746C50.2949 73.1484 51.3822 74.625 51.3822 75.1566C51.3822 76.134 43.1905 79.1754 42.4786 78.4631C41.8109 77.796 44.7758 69.5591 45.6832 69.5591C46.1598 69.5591 47.6365 70.6014 48.9654 71.8746ZM78.2652 73.8186C79.0152 76.1616 79.4459 78.2604 79.2234 78.483C78.8519 78.8544 71.2518 76.6164 70.3974 75.8839C69.9642 75.513 75.5909 69.5591 76.3752 69.5591C76.6657 69.5591 77.5164 71.4769 78.2652 73.8186ZM64.6872 79.2534C63.7507 82.29 61.7454 85.9314 61.0104 85.9314C60.4254 85.9314 56.5524 78.7991 56.5524 77.7221C56.5524 77.4979 58.517 77.3141 60.9187 77.3141C65.0489 77.3141 65.2524 77.4186 64.6872 79.2534ZM54.3982 104.531C52.0285 105.199 47.6272 106.036 44.6182 106.393L39.1465 107.042L42.5881 110.949C53.2143 123.008 68.5057 123.018 79.1082 110.973L82.5247 107.091L75.3547 106.053C71.4108 105.482 67.0932 104.599 65.7594 104.09C62.6562 102.906 59.7732 103.018 54.3982 104.531Z" fill="#F64A28"/>
</g>
</svg>
