<svg width="400" height="401" viewBox="0 0 400 401" fill="none" xmlns="http://www.w3.org/2000/svg">
<mask id="mask0_337_3777" style="mask-type:luminance" maskUnits="userSpaceOnUse" x="0" y="0" width="400" height="401">
<path d="M400 0.890625L0 0.890625L4.18797e-05 400.891L400 400.891L400 0.890625Z" fill="white"/>
</mask>
<g mask="url(#mask0_337_3777)">
<path fill-rule="evenodd" clip-rule="evenodd" d="M181.91 4.07739C164.597 10.5227 149.359 21.9083 136.839 37.7456C124.175 53.7668 106.313 88.6762 103.447 102.997L101.643 112.021L120.195 99.8631C130.397 93.1794 146.711 83.9169 156.445 79.2806C166.182 74.6481 174.147 70.015 174.147 68.9925C174.147 67.9675 168.006 65.9425 160.503 64.4944C149.52 62.372 146.682 60.597 145.942 55.3954C145.404 51.5984 146.588 48.8008 148.813 48.6142C157.149 47.9162 167.753 49.5074 183.63 53.8416C199.419 58.15 201.76 58.0694 228.15 52.2734C243.47 48.907 260.344 45.8108 265.648 45.3886L275.29 44.6246L263.794 31.602C241.572 6.424 206.898 -5.23149 181.91 4.07739ZM240.208 66.0487C166.745 81.7594 94.1091 127.552 51.6346 184.927L39.2008 201.727L47.915 213.649C52.7088 220.209 60.774 230.427 65.8403 236.354L75.0547 247.134L75.0547 214.813C75.0547 184.433 75.3991 182.491 80.7847 182.491C86.0728 182.491 86.7791 185.591 89.9503 222.702L93.3885 262.914L104.234 272.057C143.905 305.493 213.516 334.781 266.428 340.297L285.468 342.282L294.432 320.749C307.266 289.921 306.518 288.617 284.498 303.383C263.102 317.731 252.234 321.564 248.782 315.981C245.134 310.077 247.94 306.511 262.838 298.137C270.504 293.829 284.604 284.543 294.168 277.499C313.742 263.089 313.226 264.674 317.278 206.904C319.016 182.173 319.732 179.619 324.938 179.619C330.43 179.619 330.666 181.394 330.26 219.831C329.81 262.687 325.314 286.414 310.888 322.137L303.77 339.757L316.77 337.977C354.644 332.784 381.708 307.444 385.74 273.394C387.298 260.243 380.608 225.522 375.538 220.454C374.272 219.187 370.124 222.723 366.322 228.307C359.208 238.753 350.374 241.633 347.604 234.411C346.738 232.161 350.62 223.511 356.226 215.183L366.42 200.049L358.802 189.833C330.746 152.216 299.918 125.187 258.638 102.017C234.73 88.5981 231.356 84.7837 237.744 78.3962C241.366 74.7744 265.968 85.8237 288.116 101.015C306.892 113.894 307.334 112.564 294.512 81.7625C285.718 60.6372 285.52 60.4248 275.126 60.6228C269.35 60.735 253.636 63.1764 240.208 66.0487ZM304.934 65.1181C306.254 68.065 312.054 84.4225 317.818 101.466C324.47 121.132 330.484 133.991 334.284 136.651C337.576 138.957 348.036 150.498 357.53 162.3L374.792 183.758L379.944 170.267C387.258 151.121 386.748 119.943 378.882 104.941C368.488 85.12 346.948 69.5325 323.502 64.865C317.974 63.765 310.99 62.1653 307.99 61.3123C303.518 60.0398 302.964 60.732 304.934 65.1181ZM71.3353 68.7338C30.3169 82.9031 12.0984 117.895 23.1968 161.208C25.7818 171.307 28.947 180.616 30.225 181.894C31.506 183.175 34.904 180.602 37.7762 176.176C40.6512 171.753 50.9856 159.729 60.7424 149.461C76.7235 132.647 79.271 128.224 86.4116 104.941C90.7716 90.7237 96.1741 75.5356 98.4147 71.1925C102.387 63.4894 102.292 63.297 94.5172 63.3888C90.131 63.4406 79.6991 65.8444 71.3353 68.7338ZM211.588 128.157C214.69 135.398 217.23 141.861 217.23 142.519C217.23 143.176 210.768 143.716 202.868 143.716C194.97 143.716 188.508 143.234 188.508 142.645C188.508 138.36 200.844 114.994 203.104 114.994C204.666 114.994 208.484 120.917 211.588 128.157ZM171.079 148.484C172.524 149.722 153.768 169.566 151.154 169.566C148.845 169.566 139.91 141.574 141.659 139.822C142.897 138.584 168.233 146.043 171.079 148.484ZM260.936 155.211C258.412 163.107 255.552 169.566 254.584 169.566C251.956 169.566 233.22 149.722 234.658 148.461C237.31 146.141 261.852 138.805 263.636 139.802C264.676 140.382 263.462 147.316 260.936 155.211ZM225.154 163.807C264.078 187.541 244.93 247.307 199.646 243.422C144.896 238.731 147.943 158.097 202.868 158.097C210.71 158.097 219.476 160.344 225.154 163.807ZM145.424 201.161C145.424 209.059 144.813 215.522 144.066 215.522C140.252 215.522 116.702 202.549 116.702 200.449C116.702 198.165 138.537 187.001 143.27 186.863C144.457 186.829 145.424 193.263 145.424 201.161ZM276.034 193.116C283.184 196.591 289.036 200.443 289.036 201.674C289.036 204.183 267.96 215.522 263.3 215.522C261.632 215.522 260.314 209.187 260.314 201.161C260.314 193.263 260.926 186.8 261.672 186.8C262.422 186.8 268.884 189.643 276.034 193.116ZM28.0278 226.412C10.8748 269.404 22.7688 310.072 57.8214 328.291C68.7441 333.967 99.6035 342.724 101.612 340.714C102.131 340.197 101.045 336.454 99.1985 332.403C97.3516 328.349 96.6166 323.012 97.5641 320.542C100.767 312.194 108.125 315.979 114.585 329.294L121.01 342.539L139.045 340.694C162.1 338.339 174.155 335.911 174.112 333.642C174.092 332.654 162.132 325.674 147.535 318.127C105.952 296.631 69.2903 267.004 42.9346 233.594L31.1326 218.634L28.0278 226.412ZM163.218 240.472C167.65 244.719 171.274 249.641 171.274 251.412C171.274 254.671 143.968 264.809 141.595 262.434C139.37 260.211 149.253 232.754 152.277 232.754C153.866 232.754 158.788 236.229 163.218 240.472ZM260.884 246.952C263.384 254.762 264.82 261.759 264.078 262.501C262.84 263.739 237.506 256.279 234.658 253.837C233.214 252.601 251.97 232.754 254.584 232.754C255.552 232.754 258.388 239.147 260.884 246.952ZM215.624 265.069C212.502 275.191 205.818 287.329 203.368 287.329C201.418 287.329 188.508 263.554 188.508 259.964C188.508 259.217 195.057 258.604 203.062 258.604C216.83 258.604 217.508 258.953 215.624 265.069ZM181.327 349.329C173.428 351.554 158.757 354.344 148.727 355.534L130.488 357.697L141.96 370.721C177.381 410.917 228.352 410.951 263.694 370.801L275.082 357.861L251.182 354.401C238.036 352.499 223.644 349.554 219.198 347.857C208.854 343.911 199.244 344.284 181.327 349.329Z" fill="#F64A28"/>
</g>
</svg>
