<svg width="327" height="217" viewBox="0 0 327 217" fill="none" xmlns="http://www.w3.org/2000/svg">
<g clip-path="url(#clip0_337_17849)">
<path d="M72.75 177.891C110.858 177.891 141.75 146.998 141.75 108.891C141.75 70.783 110.858 39.8906 72.75 39.8906C34.6424 39.8906 3.75 70.783 3.75 108.891C3.75 146.998 34.6424 177.891 72.75 177.891Z" fill="#F0F0F0"/>
<path d="M69.75 108.891H141.75C141.75 102.663 140.92 96.6298 139.373 90.8906H69.75V108.891Z" fill="#D80027"/>
<path d="M69.75 72.8907H131.623C127.399 65.9983 121.998 59.9061 115.701 54.8906H69.75V72.8907Z" fill="#D80027"/>
<path d="M72.7503 177.891C88.9892 177.891 103.915 172.278 115.702 162.891H29.7988C41.5854 172.278 56.5113 177.891 72.7503 177.891Z" fill="#D80027"/>
<path d="M13.8773 144.891H131.623C135.014 139.358 137.643 133.309 139.373 126.891H6.12695C7.85654 133.309 10.4864 139.358 13.8773 144.891Z" fill="#D80027"/>
<path d="M35.7121 50.6659H42L36.1512 54.9151L38.3853 61.7906L32.5367 57.5414L26.6882 61.7906L28.618 55.8509C23.4684 60.1405 18.9548 65.1662 15.2353 70.766H17.25L13.527 73.4707C12.9469 74.4383 12.3906 75.4213 11.8575 76.4188L13.6353 81.8906L10.3185 79.4807C9.49398 81.2276 8.73983 83.0137 8.06196 84.8371L10.0206 90.866H17.25L11.4012 95.1152L13.6353 101.991L7.78677 97.7415L4.2834 100.287C3.93274 103.106 3.75 105.977 3.75 108.891H72.75C72.75 70.7832 72.75 66.2907 72.75 39.8906C59.1193 39.8906 46.4128 43.8446 35.7121 50.6659ZM38.3853 101.991L32.5367 97.7415L26.6882 101.991L28.9223 95.1152L23.0735 90.866H30.3029L32.5367 83.9905L34.7706 90.866H42L36.1512 95.1152L38.3853 101.991ZM36.1512 75.0151L38.3853 81.8906L32.5367 77.6414L26.6882 81.8906L28.9223 75.0151L23.0735 70.766H30.3029L32.5367 63.8905L34.7706 70.766H42L36.1512 75.0151ZM63.1353 101.991L57.2867 97.7415L51.4382 101.991L53.6723 95.1152L47.8235 90.866H55.0528L57.2867 83.9905L59.5206 90.866H66.75L60.9011 95.1152L63.1353 101.991ZM60.9011 75.0151L63.1353 81.8906L57.2867 77.6414L51.4382 81.8906L53.6723 75.0151L47.8235 70.766H55.0528L57.2867 63.8905L59.5206 70.766H66.75L60.9011 75.0151ZM60.9011 54.9151L63.1353 61.7906L57.2867 57.5414L51.4382 61.7906L53.6723 54.9151L47.8235 50.6659H55.0528L57.2867 43.7905L59.5206 50.6659H66.75L60.9011 54.9151Z" fill="#0052B4"/>
</g>
<g clip-path="url(#clip1_337_17849)">
<path d="M163.75 177.891C201.858 177.891 232.75 146.998 232.75 108.891C232.75 70.783 201.858 39.8906 163.75 39.8906C125.642 39.8906 94.75 70.783 94.75 108.891C94.75 146.998 125.642 177.891 163.75 177.891Z" fill="url(#paint0_linear_337_17849)"/>
<path d="M186.371 106.833C190.724 112.642 177.978 123.87 180.842 119.233H153.692C150.755 115.392 148.735 111.191 147.765 106.833H186.371Z" fill="url(#paint1_linear_337_17849)"/>
<path d="M178.503 140.304C174.644 143.38 170.473 146.041 166.058 148.244L163.898 149.332L161.726 148.248C141.299 137.998 129.113 120.342 129.113 100.994V78.2764H141.571V100.994C141.569 102.443 141.667 103.89 141.864 105.326C143.433 117.081 151.367 127.925 163.852 135.226C163.863 135.237 163.877 135.247 163.891 135.254C163.904 135.247 163.911 135.239 163.925 135.233L163.977 135.2C168.49 137.723 173.403 139.45 178.503 140.304Z" fill="url(#paint2_linear_337_17849)"/>
<path d="M198.297 106.833C197.721 111.323 196.489 115.705 194.642 119.838C191.227 127.512 185.738 134.496 178.508 140.307C173.412 139.452 168.5 137.725 163.99 135.203C165.619 134.242 167.199 133.2 168.723 132.08C168.875 131.981 169.021 131.875 169.161 131.761C177.6 125.684 183.68 116.878 186.371 106.833H198.297Z" fill="url(#paint3_linear_337_17849)"/>
<path d="M198.683 78.2812H141.571V90.7335H198.683V78.2812Z" fill="url(#paint4_linear_337_17849)"/>
<path d="M198.683 90.7334V100.994C198.683 101.418 198.67 101.843 198.657 102.269H186.191C186.204 101.843 186.21 101.418 186.21 100.994V90.7334H198.683Z" fill="url(#paint5_linear_337_17849)"/>
</g>
<g clip-path="url(#clip2_337_17849)">
<mask id="mask0_337_17849" style="mask-type:luminance" maskUnits="userSpaceOnUse" x="185" y="39" width="139" height="139">
<path d="M323.75 39.8906H185.75V177.891H323.75V39.8906Z" fill="white"/>
</mask>
<g mask="url(#mask0_337_17849)">
<path fill-rule="evenodd" clip-rule="evenodd" d="M248.508 40.9901C242.535 43.2137 237.278 47.1417 232.959 52.6056C228.59 58.1329 222.428 70.1767 221.438 75.1173L220.816 78.2307L227.217 74.0361C230.736 71.7302 236.365 68.5347 239.723 66.9352C243.082 65.337 245.83 63.7385 245.83 63.3858C245.83 63.0321 243.711 62.3335 241.123 61.8339C237.334 61.1017 236.355 60.4893 236.099 58.6948C235.914 57.3848 236.322 56.4196 237.09 56.3553C239.966 56.1145 243.624 56.6634 249.102 58.1587C254.549 59.6451 255.356 59.6173 264.461 57.6177C269.746 56.4563 275.568 55.3881 277.398 55.2424L280.724 54.9789L276.758 50.486C269.092 41.7996 257.129 37.7785 248.508 40.9901ZM268.621 62.3702C243.276 67.7903 218.217 83.5888 203.563 103.383L199.274 109.179L202.28 113.292C203.934 115.555 206.716 119.081 208.464 121.126L211.643 124.845V113.694C211.643 103.213 211.762 102.543 213.62 102.543C215.445 102.543 215.688 103.612 216.782 116.416L217.968 130.289L221.71 133.443C235.397 144.978 259.412 155.083 277.667 156.986L284.236 157.671L287.329 150.242C291.756 139.606 291.498 139.156 283.901 144.25C276.52 149.2 272.77 150.523 271.579 148.597C270.321 146.56 271.289 145.33 276.428 142.441C279.073 140.954 283.938 137.751 287.237 135.32C293.99 130.349 293.812 130.896 295.21 110.965C295.81 102.433 296.057 101.552 297.853 101.552C299.748 101.552 299.829 102.164 299.689 115.425C299.534 130.21 297.983 138.396 293.006 150.721L290.55 156.799L295.035 156.185C308.102 154.394 317.439 145.652 318.83 133.904C319.367 129.367 317.059 117.389 315.31 115.64C314.873 115.203 313.442 116.423 312.131 118.349C309.676 121.953 306.628 122.947 305.673 120.455C305.374 119.679 306.713 116.695 308.647 113.821L312.164 108.6L309.536 105.076C299.857 92.0978 289.221 82.773 274.979 74.7794C266.731 70.1497 265.567 68.8338 267.771 66.6301C269.021 65.3805 277.508 69.1926 285.149 74.4335C291.627 78.8767 291.78 78.4181 287.356 67.7914C284.322 60.5032 284.254 60.4299 280.668 60.4982C278.675 60.5369 273.254 61.3792 268.621 62.3702ZM290.952 62.0491C291.407 63.0658 293.408 68.7091 295.397 74.5892C297.691 81.3739 299.766 85.8103 301.077 86.7278C302.213 87.5237 305.822 91.5052 309.097 95.5769L315.053 102.98L316.83 98.3256C319.353 91.7202 319.177 80.9637 316.464 75.7881C312.878 68.9498 305.446 63.5721 297.358 61.9618C295.45 61.5823 293.041 61.0304 292.006 60.7361C290.463 60.2971 290.272 60.5359 290.952 62.0491ZM210.36 63.2965C196.209 68.1849 189.923 80.2571 193.752 95.2002C194.644 98.6842 195.736 101.896 196.177 102.337C196.619 102.779 197.791 101.891 198.782 100.364C199.774 98.838 203.339 94.6898 206.706 91.1473C212.219 85.3465 213.098 83.8206 215.561 75.7881C217.066 70.8831 218.929 65.6431 219.702 64.1448C221.073 61.4872 221.04 61.4208 218.358 61.4525C216.845 61.4704 213.246 62.2997 210.36 63.2965ZM258.747 83.7977C259.817 86.2957 260.694 88.5255 260.694 88.7523C260.694 88.9792 258.464 89.1655 255.739 89.1655C253.014 89.1655 250.785 88.999 250.785 88.7959C250.785 87.3176 255.041 79.2564 255.82 79.2564C256.359 79.2564 257.676 81.2997 258.747 83.7977ZM244.772 90.8105C245.27 91.2376 238.8 98.0837 237.898 98.0837C237.101 98.0837 234.018 88.4263 234.622 87.8219C235.049 87.3948 243.79 89.9682 244.772 90.8105ZM275.772 93.1312C274.902 95.8552 273.915 98.0837 273.581 98.0837C272.674 98.0837 266.21 91.2376 266.706 90.8025C267.621 90.0019 276.088 87.4711 276.704 87.815C277.063 88.0151 276.644 90.4072 275.772 93.1312ZM263.428 96.0969C276.856 104.285 270.25 124.904 254.627 123.564C235.739 121.945 236.79 94.127 255.739 94.127C258.444 94.127 261.469 94.902 263.428 96.0969ZM235.921 108.984C235.921 111.709 235.71 113.939 235.452 113.939C234.136 113.939 226.012 109.463 226.012 108.738C226.012 107.95 233.545 104.099 235.178 104.051C235.587 104.039 235.921 106.259 235.921 108.984ZM280.981 106.208C283.448 107.407 285.467 108.736 285.467 109.161C285.467 110.026 278.196 113.939 276.588 113.939C276.013 113.939 275.558 111.753 275.558 108.984C275.558 106.259 275.769 104.029 276.026 104.029C276.285 104.029 278.514 105.01 280.981 106.208ZM195.419 117.696C189.501 132.528 193.605 146.558 205.698 152.844C209.466 154.802 220.113 157.823 220.805 157.13C220.985 156.951 220.61 155.66 219.973 154.262C219.336 152.864 219.082 151.023 219.409 150.171C220.514 147.29 223.053 148.596 225.281 153.19L227.498 157.759L233.72 157.123C241.674 156.31 245.833 155.473 245.818 154.69C245.811 154.349 241.685 151.941 236.649 149.337C222.303 141.921 209.655 131.7 200.562 120.173L196.49 115.012L195.419 117.696ZM242.06 122.546C243.589 124.011 244.839 125.709 244.839 126.321C244.839 127.445 235.419 130.942 234.6 130.123C233.832 129.356 237.242 119.884 238.285 119.884C238.833 119.884 240.531 121.082 242.06 122.546ZM275.754 124.782C276.617 127.476 277.112 129.89 276.856 130.146C276.429 130.573 267.689 128 266.706 127.157C266.208 126.731 272.679 119.884 273.581 119.884C273.915 119.884 274.893 122.089 275.754 124.782ZM260.14 131.032C259.063 134.524 256.757 138.712 255.911 138.712C255.239 138.712 250.785 130.51 250.785 129.271C250.785 129.013 253.044 128.802 255.806 128.802C260.556 128.802 260.79 128.922 260.14 131.032ZM248.307 160.102C245.582 160.87 240.521 161.832 237.06 162.243L230.768 162.989L234.726 167.482C246.946 181.35 264.531 181.361 276.724 167.51L280.653 163.045L272.407 161.852C267.872 161.195 262.907 160.18 261.373 159.594C257.804 158.233 254.489 158.361 248.307 160.102Z" fill="#F64A28"/>
</g>
</g>
<defs>
<linearGradient id="paint0_linear_337_17849" x1="232.75" y1="39.8906" x2="67.6178" y2="92.1395" gradientUnits="userSpaceOnUse">
<stop stop-color="#000756"/>
<stop offset="1" stop-color="#0042B8"/>
</linearGradient>
<linearGradient id="paint1_linear_337_17849" x1="198.954" y1="120.828" x2="151.449" y2="108.025" gradientUnits="userSpaceOnUse">
<stop offset="0.14" stop-color="#ADADAD"/>
<stop offset="0.29" stop-color="#CBCBCB"/>
<stop offset="0.43" stop-color="#E2E2E2"/>
<stop offset="0.59" stop-color="#F2F2F2"/>
<stop offset="0.77" stop-color="#FCFCFC"/>
<stop offset="1" stop-color="white"/>
</linearGradient>
<linearGradient id="paint2_linear_337_17849" x1="181.415" y1="161.394" x2="114.265" y2="67.7365" gradientUnits="userSpaceOnUse">
<stop stop-color="#ADADAD"/>
<stop offset="0.17" stop-color="#CBCBCB"/>
<stop offset="0.34" stop-color="#E2E2E2"/>
<stop offset="0.52" stop-color="#F2F2F2"/>
<stop offset="0.73" stop-color="#FCFCFC"/>
<stop offset="1" stop-color="white"/>
</linearGradient>
<linearGradient id="paint3_linear_337_17849" x1="164.764" y1="147.219" x2="196.658" y2="106.789" gradientUnits="userSpaceOnUse">
<stop offset="0.15" stop-color="#ADADAD"/>
<stop offset="0.29" stop-color="#CBCBCB"/>
<stop offset="0.44" stop-color="#E2E2E2"/>
<stop offset="0.6" stop-color="#F2F2F2"/>
<stop offset="0.77" stop-color="#FCFCFC"/>
<stop offset="1" stop-color="white"/>
</linearGradient>
<linearGradient id="paint4_linear_337_17849" x1="136.081" y1="116.852" x2="163.036" y2="91.2467" gradientUnits="userSpaceOnUse">
<stop offset="0.14" stop-color="#ADADAD"/>
<stop offset="0.43" stop-color="#C9C9C9"/>
<stop offset="1" stop-color="white"/>
</linearGradient>
<linearGradient id="paint5_linear_337_17849" x1="192.437" y1="84.1977" x2="192.437" y2="102.269" gradientUnits="userSpaceOnUse">
<stop offset="0.0895638" stop-color="#ADADAD"/>
<stop offset="0.240189" stop-color="#CBCBCB"/>
<stop offset="0.425047" stop-color="#E2E2E2"/>
<stop offset="0.536875" stop-color="#F2F2F2"/>
<stop offset="1" stop-color="white"/>
</linearGradient>
<clipPath id="clip0_337_17849">
<rect x="3.75" y="39.8906" width="138" height="138" rx="69" fill="white"/>
</clipPath>
<clipPath id="clip1_337_17849">
<rect x="94.75" y="39.8906" width="138" height="138" rx="69" fill="white"/>
</clipPath>
<clipPath id="clip2_337_17849">
<rect width="138" height="138" fill="white" transform="translate(185.75 39.8906)"/>
</clipPath>
</defs>
</svg>
