<svg width="120" height="120" viewBox="0 0 120 120" fill="none" xmlns="http://www.w3.org/2000/svg">
    <path d="M60.4591 0C35.3947 0.100679 15.1007 20.3947 15 45.4591C15 50.4786 15.8102 55.4646 17.3971 60.2253C18.5813 63.4662 22.0955 65.2113 25.3939 64.2094C28.5821 62.9868 30.2745 59.5014 29.2581 56.2413C27.9109 52.5306 27.3116 48.5945 27.489 44.6536C28.0356 26.5505 43.1518 12.3164 61.2549 12.863C79.358 13.4095 93.5921 28.5258 93.0456 46.6288C92.5326 63.5765 79.1854 77.3408 62.2569 78.3716C62.2569 78.3716 55.8758 78.7599 52.702 79.1482C51.5322 79.316 50.372 79.5462 49.2261 79.8386C49.0631 80.0064 48.7995 80.0064 48.6317 79.8434L48.6269 79.8386C48.5118 79.69 48.5118 79.479 48.6269 79.3304L49.6145 73.9417L55.6073 46.9884C56.3264 43.6229 54.1834 40.31 50.8178 39.5909C47.4523 38.8718 44.1394 41.0148 43.4203 44.3803C43.4203 44.3803 29.167 110.354 29.167 110.953C28.352 114.161 30.2889 117.421 33.4962 118.236C33.5298 118.245 33.5681 118.255 33.6017 118.26H33.9325C37.1351 119.089 40.4047 117.162 41.2293 113.959C41.2437 113.907 41.2581 113.854 41.2677 113.796C41.2581 113.696 41.2581 113.595 41.2677 113.499C41.4451 112.722 43.2429 103.944 43.2429 103.944C44.6045 97.3184 49.9453 92.2413 56.6285 91.2153C58.0044 91.0044 63.7863 90.6161 63.7863 90.6161C88.7547 88.1278 106.978 65.8682 104.485 40.8997C102.212 18.127 83.3468 0.594487 60.4591 0Z" fill="#1E1E1E"/>
    <path d="M63.2157 104.817C59.1166 103.964 55.1086 106.596 54.2552 110.69C54.2456 110.728 54.2408 110.767 54.2312 110.805C53.3443 114.875 55.9236 118.898 59.9987 119.785C60.0035 119.785 60.0083 119.785 60.0131 119.789H60.2241C64.2129 120.753 68.2257 118.298 69.1845 114.314C69.1941 114.286 69.1989 114.252 69.2085 114.223L69.2085 113.806C69.9133 109.693 67.286 105.747 63.2157 104.817Z" fill="#E6007A"/>
</svg>
