<svg width="400" height="400" viewBox="0 0 400 400" fill="none" xmlns="http://www.w3.org/2000/svg">
    <path d="M201.53 0C117.982 0.335597 50.3356 67.9824 50 151.53C50 168.262 52.7008 184.882 57.9904 200.751C61.9377 211.554 73.6516 217.371 84.6464 214.031C95.2737 209.956 100.915 198.338 97.527 187.471C93.0364 175.102 91.0388 161.982 91.6301 148.845C93.4519 88.5018 143.839 41.0547 204.183 42.8765C264.527 44.6984 311.974 95.0859 310.152 155.429C308.442 211.922 263.951 257.803 207.523 261.239C207.523 261.239 186.253 262.533 175.673 263.827C171.774 264.387 167.907 265.154 164.087 266.129C163.544 266.688 162.665 266.688 162.106 266.145L162.09 266.129C161.706 265.633 161.706 264.93 162.09 264.435L165.382 246.472L185.358 156.628C187.755 145.41 180.611 134.367 169.393 131.97C158.174 129.573 147.131 136.716 144.734 147.934C144.734 147.934 97.2234 367.847 97.2234 369.844C94.5066 380.535 100.963 391.402 111.654 394.119C111.766 394.151 111.894 394.183 112.006 394.199H113.108C123.784 396.964 134.682 390.539 137.431 379.864C137.479 379.688 137.527 379.513 137.559 379.321C137.527 378.985 137.527 378.65 137.559 378.33C138.15 375.741 144.143 346.48 144.143 346.48C148.682 324.395 166.484 307.471 188.762 304.051C193.348 303.348 212.621 302.054 212.621 302.054C295.849 293.759 356.592 219.561 348.282 136.332C340.707 60.4235 277.823 1.98162 201.53 0Z" fill="#1E1E1E"/>
    <path d="M210.72 349.387C197.056 346.542 183.696 355.316 180.851 368.964C180.819 369.091 180.803 369.219 180.771 369.347C177.815 382.915 186.413 396.323 199.996 399.279C200.012 399.279 200.028 399.279 200.044 399.295H200.748C214.044 402.508 227.42 394.325 230.616 381.045C230.648 380.949 230.664 380.837 230.696 380.742L230.696 379.351C233.045 365.64 224.287 352.487 210.72 349.387Z" fill="#E6007A"/>
</svg>
