<svg width="73" height="72" viewBox="0 0 73 72" fill="none" xmlns="http://www.w3.org/2000/svg">
    <g clip-path="url(#clip0)">
        <path d="M69.4663 32.3222C69.3505 26.711 67.7987 21.2116 64.9701 16.3807C67.2716 5.37101 55.6305 -3.58176 45.6047 1.4246C36.1536 -1.39326 25.1653 0.105147 16.4976 6.81543C15.398 7.65861 16.7266 9.29675 17.7806 8.48886C20.4426 6.44783 23.3916 4.86549 26.5457 3.78544C29.8343 2.65942 33.2781 2.10485 36.7842 2.13465C38.9762 2.15377 41.1546 2.40484 43.2777 2.88168C42.4495 3.52453 41.6971 4.26059 41.0364 5.07397C24.6353 2.272 9.02286 14.9547 8.27457 31.4334C7.40988 31.3913 6.51877 31.4515 5.68276 31.6795C5.97389 24.6906 8.63824 17.9173 13.0976 12.9212C14.0055 11.9043 12.4323 10.5002 11.5246 11.5172C6.51371 17.131 3.61712 24.8247 3.54866 32.6738C1.71554 33.9408 0.512207 36.0568 0.512207 38.4487V48.6367C0.512207 53.1395 4.3463 55.7565 8.50034 55.6519C9.97021 59.899 16.1665 58.9764 16.272 54.4192V32.3042C16.3191 29.4881 13.2559 27.4865 10.7022 28.6504C12.8475 15.1872 25.8319 5.19908 39.7178 7.01632C36.7373 12.1048 37.7378 19.2523 42.054 23.3539V26.2167C42.1947 27.0645 42.683 27.3883 43.5187 27.1879L46.0851 26.1037C50.926 28.3716 57.2329 27.2134 60.9302 23.5882C61.5665 25.2321 62.0312 26.9275 62.3214 28.6608C59.7654 27.4784 56.6807 29.4736 56.728 32.3041V54.4191C56.6976 57.4178 60.0431 59.3821 62.6377 57.9049C62.6323 58.8365 62.6153 59.7679 62.5788 60.69C62.3277 63.7108 59.9986 66.247 57.0282 66.7368C56.0844 66.8296 55.008 66.8656 53.6917 66.8467C53.2197 65.1144 51.6328 63.8371 49.753 63.8371H44.1545C38.7413 64.0606 38.7401 71.7761 44.1545 72H49.7527C51.645 72 53.2405 70.7056 53.7007 68.9557C54.8904 68.9717 56.1499 69.0134 57.3312 68.8238C61.2709 68.1935 64.4178 64.8349 64.7375 60.8379C64.7386 60.8239 64.7369 60.81 64.7375 60.796C64.8109 58.9614 64.7555 57.1084 64.7375 55.2899C68.8127 55.4874 72.4875 52.5175 72.4875 48.2747V38.0867C72.4875 35.7014 71.2909 33.5904 69.4663 32.3222ZM2.62086 48.6367V38.4487C2.62086 35.3751 5.32597 33.3753 8.23085 33.5422V53.5433C5.32443 53.7044 2.62086 51.7197 2.62086 48.6367ZM12.2886 30.4295C13.3224 30.4295 14.1633 31.2706 14.1633 32.3042V54.4192C14.06 56.907 10.5162 56.9049 10.4139 54.4192V32.3042C10.4139 31.2704 11.2549 30.4295 12.2886 30.4295ZM49.7527 69.8913H44.1545C43.0667 69.8913 42.1817 69.0064 42.1817 67.9185C42.1817 66.8306 43.0666 65.9456 44.1545 65.9456H49.7527C52.3684 66.0535 52.3705 69.7828 49.7527 69.8913ZM67.3186 31.3181C66.4817 31.0895 65.5896 31.0295 64.7241 31.0715C64.508 27.8796 63.7602 24.7824 62.4961 21.8474C63.1218 21.0194 63.6553 20.1182 64.0811 19.1589C65.9812 22.9363 67.0866 27.0814 67.3186 31.3181ZM51.6182 25.1659C49.8476 25.1659 48.1489 24.7745 46.5691 24.0029C46.2798 23.8687 45.9888 23.8608 45.6959 23.979L44.1627 24.6268V22.9023C44.1627 22.6074 44.0392 22.326 43.8222 22.1263C36.1453 15.0812 41.1872 2.12776 51.6183 2.13353C66.8984 2.7657 66.8949 24.5354 51.6182 25.1659ZM70.3788 48.2747C70.3788 51.3816 67.6357 53.358 64.713 53.1813C64.6998 52.0482 64.6923 50.9152 64.6945 49.7821C64.6945 48.419 62.5858 48.419 62.5858 49.7821V54.4191C62.5858 55.4529 61.7447 56.2938 60.7111 56.2938C59.6774 56.2938 58.8363 55.4529 58.8363 54.4191V32.3042C58.9364 29.8232 62.4807 29.8118 62.5858 32.3042V44.1695C62.5858 45.5326 64.6945 45.5326 64.6945 44.1695V33.1802C67.6244 33.0143 70.3788 34.953 70.3788 38.0867V48.2747Z" fill="#5583FF"/>
        <path d="M46.0918 59.3944C46.9275 59.5947 47.4158 59.2711 47.5565 58.4231V54.9807C57.6571 45.16 50.6095 27.8051 36.4998 27.8233C27.7703 27.8231 20.6681 34.9242 20.6681 43.6523C20.5343 54.9766 32.7455 62.861 43.0011 58.0887L46.0918 59.3944ZM42.5157 55.9872C33.6002 60.4768 22.6543 53.6454 22.7769 43.6522C22.7767 36.0868 28.933 29.9318 36.5 29.9318C48.9288 29.9261 54.9345 45.3591 45.7883 53.7515C45.5713 53.9511 45.4478 54.2325 45.4478 54.5275V56.8332L43.3888 55.9633C43.1081 55.8447 42.7895 55.8534 42.5157 55.9872Z" fill="#5583FF"/>
        <path d="M33.6802 38.7932H39.3203C40.6835 38.7932 40.6835 36.6846 39.3203 36.6846H33.6802C32.3169 36.6846 32.3169 38.7932 33.6802 38.7932Z" fill="#5583FF"/>
        <path d="M39.3202 48.5117H33.6801C32.3169 48.5117 32.3169 50.6204 33.6801 50.6204H39.3202C40.6833 50.6204 40.6833 48.5117 39.3202 48.5117Z" fill="#5583FF"/>
        <path d="M42.3379 42.5977H30.663C29.2998 42.5977 29.2998 44.7063 30.663 44.7063H42.3379C43.7011 44.7063 43.7011 42.5977 42.3379 42.5977Z" fill="#5583FF"/>
        <path d="M51.7111 5.60335C49.2207 5.55569 47.1152 7.615 47.1152 10.1059C47.1152 11.4691 49.2239 11.4691 49.2239 10.1059C49.2239 8.80794 50.3665 7.68318 51.6687 7.71158C52.917 7.73674 53.9456 8.73188 54.0102 9.97711C54.0805 11.3309 52.9762 12.5007 51.6188 12.5007C51.0365 12.5007 50.5644 12.9728 50.5644 13.5551V17.1617C50.5644 17.744 51.0365 18.216 51.6188 18.216C52.201 18.216 52.6731 17.744 52.6731 17.1617V14.4829C54.7557 13.9778 56.2271 12.0093 56.1159 9.86774C55.9943 7.52391 54.0594 5.65072 51.7111 5.60335Z" fill="#5583FF"/>
        <path d="M51.6181 19.7275C50.2612 19.7275 50.259 21.8362 51.6181 21.8362C52.9748 21.8362 52.977 19.7275 51.6181 19.7275Z" fill="#5583FF"/>
    </g>
    <defs>
        <clipPath id="clip0">
            <rect width="72" height="72" fill="white" transform="translate(0.5)"/>
        </clipPath>
    </defs>
</svg>
