<svg width="73" height="72" viewBox="0 0 73 72" fill="none" xmlns="http://www.w3.org/2000/svg">
    <path d="M16.25 36H14V16.875C14 15.9799 14.3556 15.1215 14.9885 14.4885C15.6214 13.8556 16.4799 13.5 17.375 13.5H29.75V15.75H17.375C17.0766 15.75 16.7905 15.8685 16.5795 16.0795C16.3685 16.2905 16.25 16.5766 16.25 16.875V36Z" fill="#5583FF"/>
    <path d="M36.5 58.5H17.375C16.4799 58.5 15.6214 58.1444 14.9885 57.5115C14.3556 56.8785 14 56.0201 14 55.125V42.75H16.25V55.125C16.25 55.4234 16.3685 55.7095 16.5795 55.9205C16.7905 56.1314 17.0766 56.25 17.375 56.25H36.5V58.5Z" fill="#5583FF"/>
    <path d="M55.625 58.5H43.25V56.25H55.625C55.9234 56.25 56.2095 56.1315 56.4205 55.9205C56.6315 55.7095 56.75 55.4234 56.75 55.125V36H59V55.125C59 56.0201 58.6444 56.8785 58.0115 57.5115C57.3785 58.1444 56.5201 58.5 55.625 58.5Z" fill="#5583FF"/>
    <path d="M59 29.25H56.75V16.875C56.75 16.5766 56.6315 16.2905 56.4205 16.0795C56.2095 15.8685 55.9234 15.75 55.625 15.75H36.5V13.5H55.625C56.5201 13.5 57.3785 13.8556 58.0115 14.4885C58.6444 15.1215 59 15.9799 59 16.875V29.25Z" fill="#5583FF"/>
    <path d="M20.75 18H18.5V20.25H20.75V18Z" fill="#5583FF"/>
    <path d="M54.5 18H52.25V20.25H54.5V18Z" fill="#5583FF"/>
    <path d="M20.75 51.75H18.5V54H20.75V51.75Z" fill="#5583FF"/>
    <path d="M54.5 51.75H52.25V54H54.5V51.75Z" fill="#5583FF"/>
    <path d="M36.5 15.75C35.165 15.75 33.8599 15.3541 32.7499 14.6124C31.6399 13.8707 30.7747 12.8165 30.2638 11.5831C29.7529 10.3497 29.6193 8.99252 29.8797 7.68315C30.1402 6.37378 30.783 5.17102 31.727 4.22702C32.671 3.28302 33.8738 2.64015 35.1831 2.3797C36.4925 2.11925 37.8497 2.25292 39.0831 2.76381C40.3165 3.2747 41.3707 4.13985 42.1124 5.24988C42.8541 6.35991 43.25 7.66497 43.25 8.99999C43.25 10.7902 42.5388 12.5071 41.273 13.773C40.0071 15.0388 38.2902 15.75 36.5 15.75ZM36.5 4.5C35.61 4.5 34.74 4.76393 33.9999 5.2584C33.2599 5.75286 32.6831 6.45566 32.3425 7.27792C32.0019 8.10019 31.9128 9.00499 32.0865 9.87791C32.2601 10.7508 32.6887 11.5526 33.318 12.182C33.9474 12.8113 34.7492 13.2399 35.6221 13.4135C36.495 13.5871 37.3998 13.4981 38.2221 13.1575C39.0443 12.8169 39.7472 12.2401 40.2416 11.5001C40.7361 10.76 41 9.89001 41 8.99999C41 7.80652 40.5259 6.66192 39.682 5.81801C38.8381 4.9741 37.6935 4.5 36.5 4.5Z" fill="#5583FF"/>
    <path d="M63.5 42.75C62.165 42.75 60.8599 42.3541 59.7499 41.6124C58.6399 40.8707 57.7747 39.8165 57.2638 38.5831C56.7529 37.3497 56.6193 35.9925 56.8797 34.6831C57.1402 33.3738 57.783 32.171 58.727 31.227C59.671 30.283 60.8738 29.6402 62.1831 29.3797C63.4925 29.1193 64.8497 29.2529 66.0831 29.7638C67.3165 30.2747 68.3707 31.1398 69.1124 32.2499C69.8541 33.3599 70.25 34.665 70.25 36C70.25 37.7902 69.5388 39.5071 68.273 40.773C67.0071 42.0388 65.2902 42.75 63.5 42.75ZM63.5 31.5C62.61 31.5 61.74 31.7639 60.9999 32.2584C60.2599 32.7529 59.6831 33.4557 59.3425 34.2779C59.0019 35.1002 58.9128 36.005 59.0865 36.8779C59.2601 37.7508 59.6887 38.5526 60.318 39.182C60.9474 39.8113 61.7492 40.2399 62.6221 40.4135C63.495 40.5871 64.3998 40.4981 65.2221 40.1575C66.0443 39.8169 66.7472 39.2401 67.2416 38.5001C67.7361 37.76 68 36.89 68 36C68 34.8065 67.5259 33.6619 66.682 32.818C65.8381 31.9741 64.6935 31.5 63.5 31.5Z" fill="#5583FF"/>
    <path d="M36.5 69.75C35.165 69.75 33.8599 69.3541 32.7499 68.6124C31.6399 67.8707 30.7747 66.8165 30.2638 65.5831C29.7529 64.3497 29.6193 62.9925 29.8797 61.6831C30.1402 60.3738 30.783 59.171 31.727 58.227C32.671 57.283 33.8738 56.6402 35.1831 56.3797C36.4925 56.1193 37.8497 56.2529 39.0831 56.7638C40.3165 57.2747 41.3707 58.1398 42.1124 59.2499C42.8541 60.3599 43.25 61.665 43.25 63C43.25 64.7902 42.5388 66.5071 41.273 67.773C40.0071 69.0388 38.2902 69.75 36.5 69.75ZM36.5 58.5C35.61 58.5 34.74 58.7639 33.9999 59.2584C33.2599 59.7529 32.6831 60.4557 32.3425 61.2779C32.0019 62.1002 31.9128 63.005 32.0865 63.8779C32.2601 64.7508 32.6887 65.5526 33.318 66.182C33.9474 66.8113 34.7492 67.2399 35.6221 67.4135C36.495 67.5871 37.3998 67.4981 38.2221 67.1575C39.0443 66.8169 39.7472 66.2401 40.2416 65.5001C40.7361 64.76 41 63.89 41 63C41 61.8065 40.5259 60.6619 39.682 59.818C38.8381 58.9741 37.6935 58.5 36.5 58.5Z" fill="#5583FF"/>
    <path d="M9.5 42.75C8.16498 42.75 6.85994 42.3541 5.74991 41.6124C4.63987 40.8707 3.77471 39.8165 3.26382 38.5831C2.75292 37.3497 2.61925 35.9925 2.8797 34.6831C3.14015 33.3738 3.78303 32.171 4.72703 31.227C5.67104 30.283 6.87377 29.6402 8.18315 29.3797C9.49252 29.1193 10.8497 29.2529 12.0831 29.7638C13.3165 30.2747 14.3707 31.1398 15.1124 32.2499C15.8541 33.3599 16.25 34.665 16.25 36C16.25 37.7902 15.5388 39.5071 14.273 40.773C13.0071 42.0388 11.2902 42.75 9.5 42.75ZM9.5 31.5C8.60999 31.5 7.73996 31.7639 6.99994 32.2584C6.25991 32.7529 5.68314 33.4557 5.34254 34.2779C5.00195 35.1002 4.91284 36.005 5.08647 36.8779C5.2601 37.7508 5.68868 38.5526 6.31802 39.182C6.94736 39.8113 7.74918 40.2399 8.62209 40.4135C9.49501 40.5871 10.3998 40.4981 11.2221 40.1575C12.0443 39.8169 12.7472 39.2401 13.2416 38.5001C13.7361 37.76 14 36.89 14 36C14 34.8065 13.5259 33.6619 12.682 32.818C11.8381 31.9741 10.6935 31.5 9.5 31.5Z" fill="#5583FF"/>
    <path d="M36.5 72C29.3799 72 22.4197 69.8886 16.4995 65.9329C10.5793 61.9772 5.96511 56.3548 3.24035 49.7766C0.515598 43.1985 -0.197322 35.9601 1.19175 28.9768C2.58081 21.9934 6.00948 15.5789 11.0442 10.5442C16.0789 5.50949 22.4934 2.08081 29.4768 0.691746C36.4601 -0.697322 43.6985 0.0155981 50.2766 2.74035C56.8548 5.46511 62.4772 10.0793 66.4329 15.9995C70.3886 21.9196 72.5 28.8799 72.5 36C72.5 45.5478 68.7072 54.7045 61.9558 61.4558C55.2045 68.2072 46.0478 72 36.5 72ZM36.5 2.25002C29.8249 2.25002 23.2997 4.22942 17.7495 7.93791C12.1994 11.6464 7.87354 16.9174 5.31908 23.0845C2.76462 29.2515 2.09626 36.0375 3.39851 42.5843C4.70076 49.1312 7.91514 55.1448 12.6352 59.8649C17.3552 64.5849 23.3689 67.7993 29.9157 69.1015C36.4626 70.4038 43.2486 69.7354 49.4156 67.181C55.5826 64.6265 60.8536 60.3007 64.5621 54.7505C68.2706 49.2004 70.25 42.6751 70.25 36C70.25 27.049 66.6942 18.4645 60.3649 12.1352C54.0355 5.80582 45.4511 2.25002 36.5 2.25002Z" fill="#5583FF"/>
    <path d="M27.8266 42.4237L21.4141 35.9999L27.8266 29.5762L29.4241 31.1737L24.5866 35.9999L29.4241 40.8262L27.8266 42.4237Z" fill="#5583FF"/>
    <path d="M45.1737 42.4237L43.5762 40.8262L48.4137 35.9999L43.5762 31.1737L45.1737 29.5762L51.5862 35.9999L45.1737 42.4237Z" fill="#5583FF"/>
    <path d="M41.1276 25.3617L29.8799 45.6113L31.8468 46.7039L43.0945 26.4542L41.1276 25.3617Z" fill="#5583FF"/>
</svg>
