<svg width="73" height="72" viewBox="0 0 73 72" fill="none" xmlns="http://www.w3.org/2000/svg">
    <g clip-path="url(#clip0)">
        <path d="M71.0938 38.8125H55.0625V13.7344C55.0625 13.3462 54.9051 12.9947 54.6507 12.7402L54.6506 12.7401L42.3224 0.411891C42.0679 0.157359 41.7163 0 41.3281 0H1.90625C1.12972 0 0.5 0.629578 0.5 1.40625V29.6897C0.5 30.4664 1.12972 31.096 1.90625 31.096C2.68278 31.096 3.3125 30.4664 3.3125 29.6897V2.8125H39.9218V13.7344C39.9218 14.5111 40.5515 15.1407 41.3281 15.1407H52.25V38.8125H14.8438C14.0672 38.8125 13.4375 39.4421 13.4375 40.2188V69.1875H3.3125V42.346C3.3125 41.5693 2.68278 40.9397 1.90625 40.9397C1.12972 40.9397 0.5 41.5693 0.5 42.346V70.5938C0.5 71.3704 1.12972 72 1.90625 72H71.0938C71.8703 72 72.5 71.3704 72.5 70.5938V40.2188C72.5 39.4421 71.8703 38.8125 71.0938 38.8125ZM42.7343 12.3282V4.80122L50.2611 12.3282H42.7343ZM69.6875 69.1875H16.25V41.625H69.6875V69.1875Z" fill="#5583FF"/>
        <path d="M1.90625 37.4248C2.27609 37.4248 2.63891 37.2743 2.90033 37.0128C3.16189 36.7512 3.3125 36.3884 3.3125 36.0186C3.3125 35.6473 3.16203 35.2859 2.90033 35.0243C2.63891 34.7614 2.27609 34.6123 1.90625 34.6123C1.53641 34.6123 1.17359 34.7614 0.912031 35.0243C0.650469 35.2859 0.5 35.6473 0.5 36.0186C0.5 36.3884 0.650328 36.7512 0.912031 37.0128C1.17359 37.2743 1.53641 37.4248 1.90625 37.4248Z" fill="#5583FF"/>
        <path d="M20.4688 60.8203C22.7563 60.8203 24.6172 62.6813 24.6172 64.9688C24.6172 65.7454 25.2469 66.375 26.0234 66.375H59.9141C60.6906 66.375 61.3203 65.7454 61.3203 64.9688C61.3203 62.6813 63.1812 60.8203 65.4688 60.8203C66.2453 60.8203 66.875 60.1907 66.875 59.4141V51.3984C66.875 50.6218 66.2453 49.9922 65.4688 49.9922C63.1812 49.9922 61.3203 48.1312 61.3203 45.8438C61.3203 45.0671 60.6906 44.4375 59.9141 44.4375H26.0234C25.2469 44.4375 24.6172 45.0671 24.6172 45.8438C24.6172 48.1312 22.7563 49.9922 20.4688 49.9922C19.6922 49.9922 19.0625 50.6218 19.0625 51.3984V59.4141C19.0625 60.1907 19.6922 60.8203 20.4688 60.8203ZM21.875 52.662C24.587 52.1034 26.7284 49.9621 27.287 47.25H58.6504C59.2091 49.9621 61.3504 52.1034 64.0624 52.662V58.1505C61.3504 58.7091 59.209 60.8504 58.6504 63.5625H27.287C26.7283 60.8504 24.587 58.7091 21.875 58.1505V52.662Z" fill="#5583FF"/>
        <path d="M42.9688 60.75C45.9153 60.75 48.3125 58.3528 48.3125 55.4062C48.3125 52.4597 45.9153 50.0625 42.9688 50.0625C40.0222 50.0625 37.625 52.4597 37.625 55.4062C37.625 58.3528 40.0222 60.75 42.9688 60.75ZM42.9688 52.875C44.3645 52.875 45.5 54.0105 45.5 55.4062C45.5 56.802 44.3645 57.9375 42.9688 57.9375C41.573 57.9375 40.4375 56.802 40.4375 55.4062C40.4375 54.0105 41.573 52.875 42.9688 52.875Z" fill="#5583FF"/>
        <path d="M9.78125 32.625H17.5163C18.2929 32.625 18.9226 31.9954 18.9226 31.2188C18.9226 30.4421 18.2929 29.8125 17.5163 29.8125H9.78125C9.00472 29.8125 8.375 30.4421 8.375 31.2188C8.375 31.9954 9.00472 32.625 9.78125 32.625Z" fill="#5583FF"/>
        <path d="M23.9854 31.2188C23.9854 31.9954 24.6151 32.625 25.3916 32.625H45.1844C45.961 32.625 46.5907 31.9954 46.5907 31.2188C46.5907 30.4421 45.961 29.8125 45.1844 29.8125H25.3916C24.6149 29.8125 23.9854 30.4422 23.9854 31.2188Z" fill="#5583FF"/>
        <path d="M9.78125 14.625H14.9894C15.766 14.625 16.3957 13.9954 16.3957 13.2188C16.3957 12.4421 15.766 11.8125 14.9894 11.8125H9.78125C9.00472 11.8125 8.375 12.4421 8.375 13.2188C8.375 13.9954 9.00472 14.625 9.78125 14.625Z" fill="#5583FF"/>
        <path d="M30.7727 14.625C31.5493 14.625 32.179 13.9954 32.179 13.2188C32.179 12.4421 31.5493 11.8125 30.7727 11.8125H22.8643C22.0877 11.8125 21.458 12.4421 21.458 13.2188C21.458 13.9954 22.0877 14.625 22.8643 14.625H30.7727Z" fill="#5583FF"/>
        <path d="M9.78125 23.626H30.8839C31.6604 23.626 32.2901 22.9964 32.2901 22.2197C32.2901 21.4431 31.6604 20.8135 30.8839 20.8135H9.78125C9.00472 20.8135 8.375 21.4431 8.375 22.2197C8.375 22.9964 9.00472 23.626 9.78125 23.626Z" fill="#5583FF"/>
        <path d="M45.1836 23.626C45.9601 23.626 46.5898 22.9964 46.5898 22.2197C46.5898 21.4431 45.9601 20.8135 45.1836 20.8135H38.6475C37.8709 20.8135 37.2412 21.4431 37.2412 22.2197C37.2412 22.9964 37.8709 23.626 38.6475 23.626H45.1836Z" fill="#5583FF"/>
    </g>
    <defs>
        <clipPath id="clip0">
            <rect width="72" height="72" fill="white" transform="translate(0.5)"/>
        </clipPath>
    </defs>
</svg>
