<svg width="73" height="72" viewBox="0 0 73 72" fill="none" xmlns="http://www.w3.org/2000/svg">
    <g clip-path="url(#clip0)">
        <path d="M5.96631 20.9824H17.0895C17.6719 20.9824 18.1442 20.5103 18.1442 19.9277C18.1442 19.3451 17.6719 18.873 17.0895 18.873H5.96631C5.38384 18.873 4.91162 19.3451 4.91162 19.9277C4.91162 20.5103 5.3837 20.9824 5.96631 20.9824Z" fill="#5583FF"/>
        <path d="M16.7079 26.0596H12.314C11.7315 26.0596 11.2593 26.5316 11.2593 27.1143C11.2593 27.6969 11.7315 28.1689 12.314 28.1689H16.7079C17.2904 28.1689 17.7626 27.6969 17.7626 27.1143C17.7626 26.5316 17.2904 26.0596 16.7079 26.0596Z" fill="#5583FF"/>
        <path d="M1.55469 33.374H12.3142C12.8967 33.374 13.3689 32.9019 13.3689 32.3193C13.3689 31.7367 12.8967 31.2646 12.3142 31.2646H1.55469C0.972219 31.2646 0.5 31.7367 0.5 32.3193C0.5 32.9019 0.972219 33.374 1.55469 33.374Z" fill="#5583FF"/>
        <path d="M18.1442 52.0713C18.1442 51.4887 17.6719 51.0166 17.0895 51.0166H5.96631C5.38384 51.0166 4.91162 51.4887 4.91162 52.0713C4.91162 52.6539 5.38384 53.126 5.96631 53.126H17.0895C17.6719 53.126 18.1442 52.6539 18.1442 52.0713Z" fill="#5583FF"/>
        <path d="M16.7079 43.8301H12.314C11.7315 43.8301 11.2593 44.3022 11.2593 44.8848C11.2593 45.4674 11.7315 45.9395 12.314 45.9395H16.7079C17.2904 45.9395 17.7626 45.4674 17.7626 44.8848C17.7626 44.3022 17.2904 43.8301 16.7079 43.8301Z" fill="#5583FF"/>
        <path d="M13.3689 39.6807C13.3689 39.0981 12.8967 38.626 12.3142 38.626H1.55469C0.972219 38.626 0.5 39.0981 0.5 39.6807C0.5 40.2633 0.972219 40.7354 1.55469 40.7354H12.3142C12.8967 40.7354 13.3689 40.2633 13.3689 39.6807Z" fill="#5583FF"/>
        <path d="M45.4341 23.3198C46.0167 23.3198 46.4888 22.8478 46.4888 22.2651V20.6553C46.4888 20.0727 46.0167 19.6006 45.4341 19.6006C44.8515 19.6006 44.3794 20.0727 44.3794 20.6553V22.2651C44.3794 22.8478 44.8515 23.3198 45.4341 23.3198Z" fill="#5583FF"/>
        <path d="M57.0297 24.4035C56.6177 23.9918 55.95 23.9918 55.5381 24.4035L54.3997 25.5419C53.9878 25.9539 53.9878 26.6216 54.3997 27.0335C54.8119 27.4454 55.4795 27.4453 55.8913 27.0335L57.0297 25.8951C57.4414 25.4833 57.4414 24.8156 57.0297 24.4035Z" fill="#5583FF"/>
        <path d="M59.1685 34.9453C58.5858 34.9453 58.1138 35.4174 58.1138 36C58.1138 36.5826 58.5858 37.0547 59.1685 37.0547H60.7782C61.3608 37.0547 61.8329 36.5826 61.8329 36C61.8329 35.4174 61.3608 34.9453 60.7782 34.9453H59.1685Z" fill="#5583FF"/>
        <path d="M55.8913 44.966C55.4793 44.5543 54.8116 44.5543 54.3997 44.966C53.9878 45.3781 53.9878 46.0458 54.3997 46.4577L55.5381 47.596C55.9503 48.0079 56.6178 48.0078 57.0297 47.596C57.4416 47.184 57.4416 46.5163 57.0297 46.1044L55.8913 44.966Z" fill="#5583FF"/>
        <path d="M44.3794 49.7344V51.3441C44.3794 51.9267 44.8515 52.3988 45.4341 52.3988C46.0167 52.3988 46.4888 51.9267 46.4888 51.3441V49.7344C46.4888 49.1518 46.0167 48.6797 45.4341 48.6797C44.8515 48.6797 44.3794 49.1519 44.3794 49.7344Z" fill="#5583FF"/>
        <path d="M34.9761 44.966L33.8377 46.1044C33.4258 46.5164 33.4258 47.1841 33.8377 47.596C34.2498 48.0079 34.9174 48.0078 35.3292 47.596L36.4675 46.4577C36.8794 46.0456 36.8794 45.3779 36.4675 44.966C36.0558 44.5543 35.388 44.5543 34.9761 44.966Z" fill="#5583FF"/>
        <path d="M30.0889 34.9453C29.5064 34.9453 29.0342 35.4174 29.0342 36C29.0342 36.5826 29.5064 37.0547 30.0889 37.0547H31.6987C32.2812 37.0547 32.7534 36.5826 32.7534 36C32.7534 35.4174 32.2812 34.9453 31.6987 34.9453H30.0889Z" fill="#5583FF"/>
        <path d="M36.4675 25.5419L35.3292 24.4035C34.9173 23.9918 34.2495 23.9918 33.8377 24.4035C33.4258 24.8156 33.4258 25.4833 33.8377 25.8951L34.9761 27.0335C35.3881 27.4454 36.0558 27.4453 36.4675 27.0335C36.8794 26.6216 36.8794 25.9539 36.4675 25.5419Z" fill="#5583FF"/>
        <path d="M51.1055 35.9995C51.1055 35.4169 50.6334 34.9448 50.0508 34.9448H46.4888V27.1143C46.4888 26.5316 46.0167 26.0596 45.4341 26.0596C44.8515 26.0596 44.3794 26.5316 44.3794 27.1143V35.9995C44.3794 36.5821 44.8515 37.0542 45.4341 37.0542H50.0508C50.6333 37.0542 51.1055 36.5821 51.1055 35.9995Z" fill="#5583FF"/>
        <path d="M65.4324 35.8255C66.0139 35.7902 66.4566 35.2903 66.4213 34.709C65.7504 23.6414 56.5315 14.9717 45.4337 14.9717C33.8389 14.9717 24.4058 24.4048 24.4058 35.9998C24.4058 47.5946 33.8389 57.0277 45.4337 57.0277C55.8215 57.0277 64.6853 49.4168 66.2272 39.1462C66.3137 38.5702 65.9169 38.0332 65.3407 37.9467C64.7661 37.8605 64.2277 38.2569 64.1412 38.8332C62.756 48.0602 54.7888 54.9185 45.4337 54.9185C35.002 54.9185 26.5151 46.4316 26.5151 35.9999C26.5151 25.5682 35.002 17.0812 45.4337 17.0812C55.4182 17.0812 63.7121 24.8804 64.3157 34.8369C64.3509 35.418 64.8504 35.8593 65.4324 35.8255Z" fill="#5583FF"/>
        <path d="M45.4336 8.93359C41.7237 8.93359 38.089 9.70323 34.7435 11.1425H16.1348C15.5523 11.1425 15.0801 11.6146 15.0801 12.1972C15.0801 12.7798 15.5523 13.2519 16.1348 13.2519H30.7757C28.7961 14.526 26.9737 16.0627 25.3669 17.8368C24.976 18.2684 25.0089 18.9354 25.4406 19.3265C25.8725 19.7176 26.5392 19.6845 26.9304 19.2528C31.6557 14.0353 38.3999 11.043 45.4336 11.043C59.1949 11.043 70.3906 22.2385 70.3906 35.9998C70.3906 49.761 59.195 60.9567 45.4336 60.9567C31.6723 60.9567 20.4767 49.7611 20.4767 35.9998C20.4767 31.1809 21.8533 26.5037 24.4574 22.4737C24.7735 21.9844 24.6332 21.3317 24.1439 21.0155C23.6547 20.6995 23.0019 20.8396 22.6856 21.329C19.8605 25.7007 18.3673 30.7738 18.3673 35.9998C18.3673 45.5294 23.3182 53.9236 30.7824 58.7477H16.1349C15.5524 58.7477 15.0802 59.2198 15.0802 59.8024C15.0802 60.385 15.5524 60.8571 16.1349 60.8571H34.7291C38.0141 62.2773 41.6333 63.0661 45.4337 63.0661C60.358 63.0661 72.5 50.9242 72.5 35.9998C72.5 21.0754 60.358 8.93359 45.4336 8.93359Z" fill="#5583FF"/>
    </g>
    <defs>
        <clipPath id="clip0">
            <rect width="72" height="72" fill="white" transform="translate(0.5)"/>
        </clipPath>
    </defs>
</svg>
