<svg width="73" height="72" viewBox="0 0 73 72" fill="none" xmlns="http://www.w3.org/2000/svg">
    <g clip-path="url(#clip0)">
        <path d="M35.3389 41.8066V44.1292H31.855V60.3873H35.3389V62.7099H37.6614V60.3873C40.2233 60.3873 42.3066 58.304 42.3066 55.7421C42.3066 54.3569 41.697 53.1094 40.7308 52.2583C41.697 51.4071 42.3066 50.1597 42.3066 48.7744C42.3066 46.2125 40.2233 44.1292 37.6614 44.1292V41.8066H35.3389ZM37.6614 58.0647H34.1776V53.4195H37.6614C38.9424 53.4195 39.984 54.4612 39.984 55.7421C39.984 57.0231 38.9424 58.0647 37.6614 58.0647ZM39.984 48.7744C39.984 50.0553 38.9424 51.097 37.6614 51.097H34.1776V46.4518H37.6614C38.9424 46.4518 39.984 47.4934 39.984 48.7744Z" fill="#5583FF"/>
        <path d="M72.5 30.1936C72.5 19.9489 64.164 11.6129 53.9194 11.6129C51.455 11.6129 49.1058 12.1051 46.9516 12.9812V9.29032H44.629V14.1271C43.8148 14.5995 43.0368 15.1257 42.3064 15.712V6.96774H39.9839V17.9456C39.0999 18.9498 38.3139 20.0402 37.6613 21.2191V0H35.3387V21.2179C34.6861 20.0391 33.9001 18.9487 33.0161 17.9444V6.96774H30.6935V15.712C29.9632 15.1257 29.1852 14.5995 28.371 14.1271V9.29032H26.0484V12.9812C23.8942 12.1051 21.545 11.6129 19.0806 11.6129C8.836 11.6129 0.5 19.9489 0.5 30.1936C0.5 34.2184 1.80078 37.9381 3.98387 40.9843V56.9032H6.30645V43.6516C7.03112 44.3394 7.80116 44.979 8.62903 45.5449V61.5484H10.9516V46.8758C11.7007 47.2426 12.473 47.5675 13.2742 47.8324V67.3549H15.5968V48.4351C16.4655 48.6013 17.3586 48.6931 18.2641 48.7322C18.0435 49.8754 17.9194 51.0514 17.9194 52.2581C17.9194 62.5027 26.2554 70.8387 36.5 70.8387C46.7446 70.8387 55.0806 62.5027 55.0806 52.2581C55.0806 51.0514 54.9565 49.8754 54.7359 48.7322C55.6426 48.6931 56.5345 48.6001 57.4032 48.4351V67.3549H59.7258V47.8324C60.527 47.5675 61.2993 47.2426 62.0484 46.8769V61.5484H64.371V45.5432C65.1988 44.9779 65.9689 44.3394 66.6936 43.6505V56.9032H69.0161V40.9843C71.1992 37.9381 72.5 34.2184 72.5 30.1936ZM19.0806 13.9355C27.255 13.9355 34.0209 20.0056 35.1527 27.871H25.3305L23.8069 30.9194L20.2045 22.5153L15.8525 33.3962L12.4786 19.8984L7.91116 29.0323H2.88155C3.48091 20.6095 10.5082 13.9355 19.0806 13.9355ZM2.88155 31.3548H9.34803L11.7483 26.5532L15.3422 40.9264L20.2805 28.5815L23.6459 36.4355L26.7663 30.1936H35.3387C35.3387 31.3968 35.1992 32.5915 34.9389 33.7562C27.4138 34.3868 21.1571 39.5128 18.8657 46.4414C10.3908 46.3286 3.47637 39.7056 2.88155 31.3548ZM36.5 68.5161C27.5346 68.5161 20.2419 61.2235 20.2419 52.2581C20.2419 43.2927 27.5346 36 36.5 36C45.4654 36 52.7581 43.2927 52.7581 52.2581C52.7581 61.2235 45.4654 68.5161 36.5 68.5161ZM54.1343 46.4414C51.8429 39.5139 45.5862 34.3868 38.0611 33.7574C37.8008 32.5927 37.6613 31.3991 37.6613 30.1936C37.6613 21.2281 44.9539 13.9355 53.9194 13.9355C62.8848 13.9355 70.1774 21.2281 70.1774 30.1936C70.1774 39.0858 62.9993 46.324 54.1343 46.4414Z" fill="#5583FF"/>
        <path d="M36.5001 38.3223C33.2488 38.3223 30.083 39.4682 27.5835 41.5504L29.0714 43.3343C31.1536 41.6009 33.7908 40.6448 36.5001 40.6448C42.9037 40.6448 48.113 45.8542 48.113 52.2577C48.113 54.967 47.157 57.6055 45.4236 59.6865L47.2063 61.1744C49.2896 58.676 50.4356 55.5103 50.4356 52.2577C50.4356 44.5733 44.1846 38.3223 36.5001 38.3223Z" fill="#5583FF"/>
        <path d="M36.4999 63.8713C30.0964 63.8713 24.887 58.662 24.887 52.2584C24.887 49.5491 25.8431 46.9107 27.5765 44.8297L25.7937 43.3418C23.7104 45.8402 22.5645 49.0059 22.5645 52.2584C22.5645 59.9429 28.8155 66.1939 36.4999 66.1939C39.7513 66.1939 42.9171 65.0479 45.4166 62.9658L43.9287 61.1819C41.8465 62.9153 39.2092 63.8713 36.4999 63.8713Z" fill="#5583FF"/>
        <path d="M45.5557 30.1931L53.9195 42.7388L62.2832 30.1931L53.9195 17.6475L45.5557 30.1931ZM52.7582 30.9036L48.7623 29.5717L52.7582 23.5775V30.9036ZM52.7582 33.3532V36.8088L49.796 32.3649L52.7582 33.3532ZM55.0807 33.3532L58.0429 32.366L55.0807 36.8088V33.3532ZM55.0807 30.9036V23.5758L59.0766 29.5705L55.0807 30.9036Z" fill="#5583FF"/>
        <path d="M3.98389 59.2256H6.30647V61.5482H3.98389V59.2256Z" fill="#5583FF"/>
        <path d="M8.62891 63.8711H10.9515V66.1937H8.62891V63.8711Z" fill="#5583FF"/>
        <path d="M13.2739 69.6777H15.5965V72.0003H13.2739V69.6777Z" fill="#5583FF"/>
        <path d="M66.6934 59.2256H69.0159V61.5482H66.6934V59.2256Z" fill="#5583FF"/>
        <path d="M62.0483 63.8711H64.3709V66.1937H62.0483V63.8711Z" fill="#5583FF"/>
        <path d="M57.4033 69.6777H59.7259V72.0003H57.4033V69.6777Z" fill="#5583FF"/>
        <path d="M30.6934 2.32227H33.0159V4.64485H30.6934V2.32227Z" fill="#5583FF"/>
        <path d="M39.9839 2.32227H42.3065V4.64485H39.9839V2.32227Z" fill="#5583FF"/>
    </g>
    <defs>
        <clipPath id="clip0">
            <rect width="72" height="72" fill="white" transform="translate(0.5)"/>
        </clipPath>
    </defs>
</svg>
