<svg width="73" height="72" viewBox="0 0 73 72" fill="none" xmlns="http://www.w3.org/2000/svg">
    <path d="M35.6566 18.6328C36.239 18.6328 36.7112 18.1606 36.7112 17.5781C36.7112 16.9957 36.239 16.5234 35.6566 16.5234H21.7388C21.1563 16.5234 20.6841 16.9957 20.6841 17.5781C20.6841 18.1606 21.1563 18.6328 21.7388 18.6328H35.6566Z" fill="#5583FF"/>
    <path d="M15.9033 24.75C15.9033 25.3325 16.3755 25.8047 16.958 25.8047H40.4383C41.0209 25.8047 41.493 25.3325 41.493 24.75C41.493 24.1675 41.0209 23.6953 40.4383 23.6953H16.958C16.3755 23.6953 15.9033 24.1675 15.9033 24.75Z" fill="#5583FF"/>
    <path d="M16.958 30.7266H40.4383C41.0209 30.7266 41.493 30.2543 41.493 29.6719C41.493 29.0894 41.0209 28.6172 40.4383 28.6172H16.958C16.3755 28.6172 15.9033 29.0894 15.9033 29.6719C15.9033 30.2543 16.3755 30.7266 16.958 30.7266Z" fill="#5583FF"/>
    <path d="M16.958 40.5703H24.9696C25.552 40.5703 26.0242 40.0981 26.0242 39.5156C26.0242 38.9332 25.552 38.4609 24.9696 38.4609H16.958C16.3755 38.4609 15.9033 38.9332 15.9033 39.5156C15.9033 40.0981 16.3755 40.5703 16.958 40.5703Z" fill="#5583FF"/>
    <path d="M64.4126 47.0365C64.9953 47.0365 65.4673 46.5643 65.4673 45.9818V41.2422C65.4673 40.5941 65.1383 40.0032 64.5872 39.6617L59.5148 36.52V1.47656C59.5148 0.662344 58.8525 0 58.0382 0H18.6624C17.8482 0 17.1858 0.662344 17.1858 1.47656V4.82639H13.836C13.0218 4.82639 12.3595 5.48873 12.3595 6.30295V9.65278H9.00977C8.19555 9.65278 7.5332 10.3151 7.5332 11.1293V64.9842C7.5332 65.7984 8.19555 66.4608 9.00977 66.4608H16.8128C17.3952 66.4608 17.8675 65.9886 17.8675 65.4061C17.8675 64.8236 17.3952 64.3514 16.8128 64.3514H9.64258V11.7622H47.7528V31.1643L41.3417 35.1352C41.4368 34.9768 41.4925 34.792 41.4925 34.5938C41.4925 34.0113 41.0204 33.5391 40.4378 33.5391H16.9575C16.375 33.5391 15.9028 34.0113 15.9028 34.5938C15.9028 35.1762 16.375 35.6484 16.9575 35.6484H40.4378C40.4655 35.6484 40.4925 35.6463 40.5196 35.6444L35.9721 38.4609H28.344C27.7615 38.4609 27.2893 38.9332 27.2893 39.5156C27.2893 40.0981 27.7615 40.5703 28.344 40.5703H33.2787C33.1974 40.7808 33.1531 41.0075 33.1531 41.2424V43.3828H16.9575C16.375 43.3828 15.9028 43.855 15.9028 44.4375C15.9028 45.02 16.375 45.4922 16.9575 45.4922H33.153V48.3047H16.9575C16.375 48.3047 15.9028 48.7769 15.9028 49.3594C15.9028 49.9418 16.375 50.4141 16.9575 50.4141H33.153V52.9003C33.153 53.0093 33.1547 53.118 33.1575 53.2266H16.9575C16.375 53.2266 15.9028 53.6988 15.9028 54.2812C15.9028 54.8637 16.375 55.3359 16.9575 55.3359H33.386C33.9322 58.1635 35.421 60.7447 37.6525 62.6463L39.6534 64.3514H21.7346C21.1522 64.3514 20.68 64.8236 20.68 65.4061C20.68 65.9886 21.1522 66.4608 21.7346 66.4608H42.1286L48.1045 71.5534C48.4537 71.8511 48.882 71.9999 49.3102 71.9999C49.7384 71.9999 50.1668 71.8509 50.5159 71.5534L60.9679 62.6462C63.8274 60.2094 65.4673 56.6571 65.4673 52.9002V50.9037C65.4673 50.3213 64.9953 49.849 64.4126 49.849C63.83 49.849 63.358 50.3213 63.358 50.9037V52.9002C63.358 56.0382 61.9881 59.0054 59.5998 61.0407L49.3101 69.8095L39.0205 61.0407C36.6322 59.0054 35.2623 56.0382 35.2623 52.9002V41.3816L49.3101 32.6807L63.358 41.3816V45.9817C63.358 46.5645 63.8302 47.0365 64.4126 47.0365ZM49.8622 30.6112V11.1293C49.8622 10.3151 49.1998 9.65278 48.3856 9.65278H14.4688V6.93577H52.5792V14.3438C52.5792 14.9262 53.0513 15.3984 53.6339 15.3984C54.2165 15.3984 54.6886 14.9262 54.6886 14.3438V6.30295C54.6886 5.48873 54.0262 4.82639 53.212 4.82639H19.2952V2.10938H57.4054V35.2136L54.6886 33.5308V19.2656C54.6886 18.6832 54.2165 18.2109 53.6339 18.2109C53.0513 18.2109 52.5792 18.6832 52.5792 19.2656V32.2244L50.289 30.8059C50.153 30.7216 50.0095 30.6575 49.8622 30.6112Z" fill="#5583FF"/>
    <path d="M39.6494 49.3211C39.6494 54.6481 43.9832 58.982 49.3102 58.982C54.6374 58.982 58.9712 54.6483 58.9712 49.3211C58.9712 43.9939 54.6374 39.6602 49.3102 39.6602C43.9832 39.6602 39.6494 43.9941 39.6494 49.3211ZM56.8618 49.3211C56.8618 53.485 53.4741 56.8727 49.3102 56.8727C45.1464 56.8727 41.7588 53.4851 41.7588 49.3211C41.7588 45.157 45.1464 41.7695 49.3102 41.7695C53.4741 41.7695 56.8618 45.1572 56.8618 49.3211Z" fill="#5583FF"/>
    <path d="M47.1446 48.281C46.7329 47.8691 46.065 47.8691 45.6532 48.281C45.2413 48.6929 45.2413 49.3607 45.6532 49.7724L48.1982 52.3173C48.4042 52.5232 48.6742 52.6263 48.9441 52.6263C49.2139 52.6263 49.4839 52.5233 49.6899 52.3173L53.6346 48.3727C54.0465 47.9608 54.0465 47.2929 53.6346 46.8812C53.2226 46.4693 52.5549 46.4693 52.143 46.8812L48.9442 50.0801L47.1446 48.281Z" fill="#5583FF"/>
</svg>
